<svg width="11" height="11" viewBox="0 0 11 11" fill="none" xmlns="http://www.w3.org/2000/svg">
<g id="svg" clip-path="url(#clip0_51_184)">
<g id="Frame">
<path id="Vector" d="M10.0815 4.82324V7.63574H7.26904" stroke="#D82C5B" stroke-width="0.625" stroke-linecap="round" stroke-linejoin="round"/>
<path id="Vector_2" d="M10.0815 7.63574L6.77363 4.32783C6.71558 4.26975 6.64667 4.22367 6.57081 4.19224C6.49496 4.1608 6.41365 4.14463 6.33154 4.14463C6.24943 4.14463 6.16813 4.1608 6.09227 4.19224C6.01642 4.22367 5.9475 4.26975 5.88946 4.32783L4.58613 5.63116C4.52808 5.68924 4.45917 5.73531 4.38331 5.76675C4.30746 5.79818 4.22615 5.81436 4.14404 5.81436C4.06193 5.81436 3.98063 5.79818 3.90477 5.76675C3.82892 5.73531 3.76 5.68924 3.70196 5.63116L0.706543 2.63574" stroke="#D82C5B" stroke-width="0.625" stroke-linecap="round" stroke-linejoin="round"/>
</g>
</g>
<defs>
<clipPath id="clip0_51_184">
<rect width="10.3639" height="10" fill="white" transform="translate(0.394043 0.135742)"/>
</clipPath>
</defs>
</svg>
