<svg width="12" height="11" viewBox="0 0 12 11" fill="none" xmlns="http://www.w3.org/2000/svg">
<g id="svg" clip-path="url(#clip0_51_166)">
<g id="Frame">
<path id="Vector" d="M10.5308 6.19043V3.37793H7.71826" stroke="#31CF80" stroke-width="0.625" stroke-linecap="round" stroke-linejoin="round"/>
<path id="Vector_2" d="M10.5308 3.37793L7.22284 6.68585C7.1648 6.74393 7.09589 6.79 7.02003 6.82143C6.94418 6.85287 6.86287 6.86905 6.78076 6.86905C6.69865 6.86905 6.61735 6.85287 6.54149 6.82143C6.46564 6.79 6.39672 6.74393 6.33868 6.68585L5.03534 5.38251C4.9773 5.32443 4.90839 5.27836 4.83253 5.24693C4.75668 5.21549 4.67537 5.19931 4.59326 5.19931C4.51115 5.19931 4.42985 5.21549 4.35399 5.24693C4.27814 5.27836 4.20922 5.32443 4.15118 5.38251L1.15576 8.37793" stroke="#31CF80" stroke-width="0.625" stroke-linecap="round" stroke-linejoin="round"/>
</g>
</g>
<defs>
<clipPath id="clip0_51_166">
<rect width="10.3639" height="10" fill="white" transform="translate(0.843262 0.87793)"/>
</clipPath>
</defs>
</svg>
