<svg width="152" height="59" viewBox="0 0 152 59" fill="none" xmlns="http://www.w3.org/2000/svg">
<g id="logo-rev.svg" clip-path="url(#clip0_9_857)">
<g id="Symbols">
<g id="Logos/Healthy-Logo">
<g id="Group">
<path id="Path" d="M13.7352 58.8119C12.3571 58.8198 10.9855 58.6194 9.66635 58.2172C8.41091 57.834 7.22468 57.2499 6.15301 56.4872C4.35326 55.183 2.9178 53.4326 1.98549 51.4054C1.00048 49.1977 0.511937 46.7978 0.554847 44.3774C0.549542 42.8491 0.772617 41.3288 1.21655 39.8675C1.63168 38.4783 2.2724 37.1681 3.11263 35.9902C4.2649 34.4022 5.76813 33.1065 7.50324 32.2058C9.21248 31.3101 11.1117 30.8459 13.0381 30.8531C14.3189 30.8619 15.5932 31.0377 16.8292 31.3765C18.1404 31.7247 18.8436 31.8987 18.9387 31.8987C19.2629 31.8877 19.5847 31.8361 19.8964 31.7452C20.1439 31.6697 20.3982 31.6186 20.6556 31.5928C21.1797 31.5928 21.618 32.0433 21.9704 32.9443C22.3545 34.0439 22.5334 35.2056 22.4981 36.3708C22.521 36.7782 22.4311 37.1839 22.2386 37.5428C22.1634 37.6729 22.0547 37.7801 21.9241 37.853C21.7934 37.9259 21.6457 37.9618 21.4964 37.9569C21.0325 37.9569 20.621 37.5184 20.262 36.6411C20.0891 36.1794 19.8673 35.7379 19.6004 35.3241C18.9564 34.4619 18.0773 33.8075 17.0705 33.4406C15.8442 32.9798 14.5427 32.7564 13.2343 32.7821C11.9878 32.7188 10.7428 32.9369 9.5905 33.4205C8.43812 33.904 7.40733 34.6408 6.5734 35.5771C4.8522 37.7545 3.98909 40.496 4.14968 43.2756C4.14362 44.8837 4.33893 46.4861 4.73095 48.045C5.07432 49.4598 5.63211 50.8129 6.38465 52.0563C7.20641 53.4615 8.36173 54.6385 9.74676 55.4817C11.1125 56.2472 12.6555 56.6331 14.2178 56.5997C15.398 56.6153 16.5701 56.4013 17.67 55.9693C18.6402 55.5954 19.5055 54.9891 20.1913 54.2026C20.4797 53.8388 20.7482 53.4595 20.9956 53.0662C21.4246 52.3929 21.7882 52.0563 22.0863 52.0563C22.2186 52.0553 22.3485 52.0909 22.462 52.1594C22.5756 52.2278 22.6682 52.3265 22.7298 52.4445C22.8996 52.7685 22.9797 53.1327 22.9614 53.4987C22.9713 54.3375 22.7714 55.1653 22.3802 55.9055C21.9926 56.6336 21.5904 56.9972 21.1737 56.9965C21.1128 56.9918 21.0527 56.9798 20.9945 56.9608C20.9365 56.9415 20.8764 56.9292 20.8155 56.9241C20.554 56.9569 20.3034 57.0498 20.083 57.1955C19.9275 57.2668 19.802 57.3273 19.7076 57.3749C17.8677 58.3524 15.8137 58.8484 13.7341 58.8174L13.7352 58.8119Z" fill="black"/>
<path id="Shape" d="M24.2552 49.2381C24.2167 47.9206 24.4415 46.6087 24.9161 45.3805C25.3907 44.1523 26.1054 43.0329 27.0179 42.0889C27.9068 41.1557 28.9791 40.4197 30.1659 39.9276C31.3529 39.4356 32.6286 39.1984 33.9115 39.2312C35.1121 39.1918 36.3077 39.4047 37.4223 39.8563C38.5369 40.3078 39.5462 40.9882 40.3858 41.8543C41.2314 42.7395 41.892 43.7868 42.3282 44.9343C42.7645 46.0818 42.9675 47.3061 42.9254 48.5342C42.9659 49.8641 42.745 51.1889 42.2753 52.4322C41.8056 53.6755 41.0963 54.8129 40.1885 55.7785C39.3253 56.7158 38.2751 57.4582 37.1069 57.9569C35.9387 58.4555 34.679 58.6993 33.4107 58.6719C32.1955 58.701 30.9876 58.4748 29.8639 58.0076C28.7402 57.5403 27.7253 56.8423 26.8838 55.958C26.0202 55.0734 25.3424 54.0225 24.8908 52.8679C24.4391 51.7133 24.223 50.4788 24.2552 49.2381ZM27.4726 48.1741C27.384 50.4219 28.0174 52.6384 29.2786 54.494C29.7622 55.2534 30.4259 55.8792 31.2098 56.3151C31.9936 56.751 32.8727 56.9831 33.7678 56.9906C34.5891 57.0268 35.4073 56.8659 36.1549 56.5212C36.9025 56.1764 37.5583 55.6577 38.0683 55.0076C39.196 53.4077 39.748 51.4676 39.633 49.5084C39.7131 47.321 39.051 45.1715 37.7562 43.4145C37.2261 42.6597 36.5236 42.0446 35.7082 41.621C34.8927 41.1973 33.9881 40.9777 33.0707 40.9806C32.2906 40.9652 31.5181 41.1369 30.8167 41.4817C30.1155 41.8265 29.5055 42.3344 29.0373 42.9637C27.937 44.4674 27.3847 46.3077 27.4736 48.1741H27.4726Z" fill="black"/>
<path id="Path_2" d="M48.7342 43.8471C48.7342 48.5591 48.7638 51.6872 48.8232 53.2311C48.7909 54.1282 48.8936 55.025 49.1278 55.891C49.4021 56.2014 49.769 56.4135 50.1734 56.4954C50.7275 56.6698 51.0045 56.9131 51.0045 57.2253C51.0045 57.6102 50.7214 57.8895 50.1551 58.0632C49.2561 58.2739 48.333 58.362 47.4108 58.3249C46.4792 58.362 45.5469 58.274 44.6385 58.0632C44.0665 57.8888 43.7805 57.6095 43.7805 57.2253C43.7805 56.9131 44.0576 56.6698 44.6117 56.4954C45.0162 56.4131 45.3833 56.2011 45.6584 55.891C45.8393 55.274 45.9236 54.6323 45.9082 53.9891C45.9554 52.9367 45.9794 50.9382 45.9801 47.9936V44.8926C45.9801 40.1092 45.9322 37.1073 45.8364 35.887C45.7406 34.6666 45.5679 33.9602 45.3184 33.7677C44.9929 33.6643 44.6569 33.5979 44.3167 33.5699C43.7205 33.4855 43.4224 33.2333 43.4224 32.813C43.4269 32.6905 43.4581 32.5704 43.5137 32.4613C43.5693 32.3522 43.6479 32.2567 43.7441 32.1815C44.0526 31.933 44.3965 31.7326 44.764 31.5869C45.3741 31.3529 45.9981 31.1572 46.6321 31.0008C47.0675 30.8788 47.5143 30.8031 47.9652 30.7749C48.1021 30.7589 48.2408 30.7759 48.3698 30.8246C48.4989 30.8733 48.6145 30.9523 48.7073 31.0549C48.8751 31.3791 48.9462 31.7452 48.9121 32.1091C48.9121 32.2295 48.9004 32.6021 48.8768 33.2271C48.7817 36.7368 48.7342 40.2768 48.7342 43.8471Z" fill="black"/>
<path id="Path_3" d="M57.4143 43.8471C57.4143 48.5591 57.444 51.6872 57.5033 53.2311C57.471 54.1282 57.5737 55.025 57.8079 55.891C58.0823 56.2014 58.4492 56.4135 58.8535 56.4954C59.4083 56.6698 59.6857 56.9131 59.6857 57.2253C59.6857 57.6102 59.4016 57.8891 58.8364 58.0632C57.937 58.2739 57.0136 58.362 56.0909 58.3249C55.1594 58.362 54.2271 58.274 53.3187 58.0632C52.7467 57.8888 52.4607 57.6095 52.4607 57.2253C52.4607 56.9131 52.7377 56.6698 53.2919 56.4954C53.6963 56.4131 54.0635 56.2011 54.3385 55.891C54.5206 55.2742 54.605 54.6323 54.5884 53.9891C54.6356 52.9367 54.6596 50.9382 54.6602 47.9936V44.8926C54.6602 40.1092 54.6127 37.1073 54.5177 35.887C54.4226 34.6666 54.2495 33.9602 53.9986 33.7677C53.6731 33.6643 53.3371 33.5979 52.9969 33.5699C52.4006 33.4855 52.1025 33.2333 52.1025 32.813C52.1069 32.6904 52.1381 32.5703 52.1937 32.4612C52.2493 32.352 52.328 32.2566 52.4242 32.1815C52.7324 31.933 53.0759 31.7325 53.443 31.5869C54.0535 31.3528 54.6778 31.157 55.3123 31.0008C55.7473 30.8787 56.1937 30.803 56.6443 30.7749C56.7812 30.7589 56.9199 30.7759 57.0489 30.8246C57.1779 30.8733 57.2936 30.9523 57.3864 31.0549C57.5551 31.3788 57.6266 31.745 57.5923 32.1091C57.5923 32.2295 57.5802 32.6021 57.5558 33.2271C57.4608 36.7368 57.4136 40.2768 57.4143 43.8471Z" fill="black"/>
<path id="Shape_2" d="M75.7409 48.1746H64.4555C64.3683 48.1645 64.2799 48.172 64.1956 48.1967C64.1112 48.2214 64.0326 48.2628 63.9643 48.3184C63.8562 48.4831 63.8087 48.681 63.8303 48.8773C63.7474 50.8735 64.3754 52.8336 65.6009 54.4036C66.1384 55.0911 66.8268 55.6435 67.6119 56.0174C68.397 56.3913 69.2574 56.5765 70.1255 56.5585C70.8352 56.5596 71.5397 56.4375 72.2082 56.1974C72.8757 55.961 73.4963 55.607 74.041 55.1518C74.469 54.7822 74.8668 54.3783 75.2303 53.9441C75.7372 53.3674 76.1635 53.0791 76.51 53.0791C76.6012 53.0758 76.6932 53.0908 76.7791 53.1233C76.8649 53.1557 76.944 53.205 77.0109 53.2683C77.0747 53.3296 77.1256 53.4037 77.1591 53.4861C77.1933 53.5685 77.2092 53.6571 77.2069 53.7462C77.1955 54.0525 77.1135 54.3519 76.9653 54.6198C76.7791 54.976 76.5473 55.3063 76.2767 55.6027C75.4151 56.5765 74.3575 57.3541 73.1745 57.8841C71.9822 58.4102 70.6934 58.6773 69.3919 58.6681C68.2072 58.7005 67.0292 58.4787 65.9361 58.0171C64.843 57.5556 63.8597 56.8649 63.0517 55.9908C61.3612 54.1639 60.4579 51.7357 60.54 49.2386C60.4507 46.5944 61.3946 44.0206 63.1686 42.071C64.0028 41.149 65.0236 40.4184 66.162 39.9286C67.3004 39.4387 68.5299 39.201 69.7673 39.2316C71.7694 39.126 73.7312 39.8261 75.2217 41.1778C75.9058 41.8638 76.4386 42.6868 76.7867 43.5937C77.1347 44.5006 77.2898 45.4712 77.2419 46.4424C77.289 46.9234 77.2092 47.4082 77.0109 47.8481C76.8551 48.0658 76.4317 48.1746 75.7409 48.1746ZM64.5273 46.6241H73.5766C73.7742 46.6483 73.9734 46.5931 74.1311 46.4705C74.2463 46.2985 74.2968 46.0907 74.2737 45.8845C74.2917 45.2333 74.1754 44.5854 73.9323 43.9819C73.6892 43.3784 73.3245 42.8322 72.8613 42.3781C72.1015 41.6665 71.1475 41.2011 70.1226 41.0418C69.0977 40.8826 68.0489 41.037 67.1119 41.485C66.413 41.832 65.7945 42.3234 65.2963 42.9273C64.8844 43.4236 64.5443 43.9762 64.286 44.5687C64.0564 45.0478 63.9257 45.5691 63.9021 46.1007C63.8942 46.1741 63.902 46.2483 63.9251 46.3183C63.9483 46.3882 63.9861 46.4524 64.0361 46.5062C64.1819 46.6006 64.3551 46.6422 64.5273 46.6241Z" fill="black"/>
<path id="Path_4" d="M94.2544 45.5602C93.866 45.5665 93.489 45.4249 93.1995 45.1634C92.7807 44.718 92.4471 44.1986 92.216 43.6313C91.8839 42.8506 91.3755 42.159 90.7318 41.6115C90.1526 41.1811 89.4474 40.9591 88.7284 40.9811C87.8863 40.9418 87.0465 41.1014 86.2766 41.4472C85.5068 41.793 84.8281 42.3154 84.2938 42.9728C83.1371 44.5705 82.5678 46.5244 82.6849 48.499C82.6013 50.565 83.2549 52.5928 84.5271 54.2144C85.0842 54.9266 85.7971 55.4991 86.6095 55.887C87.4227 56.275 88.3134 56.4678 89.2125 56.4504C89.8304 56.4487 90.443 56.3449 91.0274 56.1433C91.6559 55.9253 92.2495 55.6156 92.7891 55.2243C93.2322 54.8915 93.6448 54.5203 94.0226 54.115C94.3372 53.7027 94.7879 53.418 95.2925 53.3126C95.3852 53.3098 95.4772 53.3259 95.5631 53.3601C95.6497 53.3943 95.728 53.4459 95.7934 53.5116C95.861 53.5836 95.9134 53.6686 95.9469 53.7615C95.9811 53.8544 95.9955 53.9534 95.991 54.0522C95.9742 54.3715 95.8785 54.6815 95.7128 54.954C95.4939 55.336 95.2264 55.6874 94.9171 55.9995C94.1092 56.8671 93.1235 57.5471 92.0291 57.9923C90.8891 58.4501 89.6708 58.6796 88.4442 58.6681C87.2365 58.7143 86.0327 58.5037 84.9109 58.0501C83.7899 57.5965 82.7753 56.91 81.934 56.0352C81.0896 55.1196 80.433 54.0442 80.0036 52.8713C79.5734 51.6983 79.3789 50.4511 79.4298 49.2018C79.3477 46.5727 80.303 44.0179 82.0868 42.098C83.5832 40.5643 85.5531 39.5895 87.672 39.3342C89.7909 39.0787 91.9326 39.5577 93.7459 40.6925C95.1588 41.6417 95.8656 42.6815 95.8656 43.8118C95.8808 44.2731 95.7174 44.7223 95.4096 45.0639C95.2636 45.2257 95.085 45.3539 94.8859 45.4396C94.6868 45.5252 94.471 45.5664 94.2544 45.5602Z" fill="black"/>
<path id="Path_5" d="M98.8406 41.9217H97.3024C97.1587 41.9309 97.0151 41.8966 96.8912 41.8233C96.8456 41.7937 96.8084 41.7525 96.7833 41.704C96.7582 41.6554 96.746 41.6012 96.7483 41.5465V41.0459C96.7483 40.6855 97.1952 40.0079 98.089 39.0132C98.3504 38.7371 98.5472 38.5209 98.6795 38.3645C98.8224 38.2088 99.0124 37.9935 99.251 37.7157C100.146 36.6827 100.754 36.1666 101.074 36.1674C101.234 36.1568 101.391 36.2087 101.513 36.3123C101.566 36.3667 101.606 36.4316 101.633 36.5031C101.659 36.5744 101.669 36.6505 101.664 36.7263V40.0079H105.348C105.44 39.9985 105.533 40.0088 105.621 40.0381C105.709 40.0673 105.79 40.1148 105.858 40.1777C105.975 40.3407 106.028 40.5403 106.01 40.7399V41.2221C106.026 41.4124 105.968 41.6014 105.849 41.7498C105.782 41.8111 105.702 41.8579 105.616 41.8871C105.53 41.9163 105.439 41.9273 105.348 41.9196H102.058C102.001 41.9185 101.945 41.932 101.895 41.9589C101.845 41.9858 101.802 42.0251 101.772 42.0731C101.692 42.2061 101.655 42.3604 101.664 42.5153V52.5352C101.586 53.5809 101.735 54.6313 102.103 55.6124C102.255 55.8799 102.479 56.0979 102.751 56.2402C103.022 56.3827 103.328 56.4436 103.632 56.4157C104.053 56.398 104.466 56.2966 104.848 56.1173C105.126 55.9783 105.421 55.8782 105.725 55.82C105.892 55.8123 106.055 55.8705 106.181 55.9822C106.237 56.0383 106.282 56.1058 106.311 56.1802C106.34 56.2548 106.353 56.3346 106.35 56.4146C106.35 56.9437 105.95 57.4573 105.152 57.9554C104.347 58.4563 103.417 58.7158 102.471 58.7036C101.943 58.7533 101.411 58.6689 100.924 58.4579C100.437 58.2469 100.01 57.9161 99.6827 57.4959C99.0184 56.2467 98.7274 54.8308 98.8429 53.4185L98.8406 41.9217Z" fill="black"/>
<path id="Path_6" d="M110.386 51.1671C110.386 48.2701 110.35 46.1517 110.278 44.8116C110.302 44.0002 110.18 43.1912 109.92 42.4232C109.813 42.2544 109.444 42.1251 108.811 42.035C108.179 41.9449 107.864 41.6893 107.864 41.2684C107.865 41.1466 107.892 41.0266 107.943 40.9162C107.994 40.8058 108.068 40.7076 108.159 40.6283C108.467 40.3763 108.815 40.1783 109.187 40.0422C109.767 39.8074 110.361 39.6116 110.967 39.4562C111.424 39.3262 111.896 39.2507 112.371 39.2313C112.498 39.2179 112.627 39.2362 112.745 39.285C112.864 39.3336 112.968 39.411 113.05 39.5103C113.212 39.8366 113.28 40.2022 113.247 40.5656C113.247 40.6856 113.241 41.0348 113.229 41.6111C113.145 44.9414 113.103 48.3131 113.103 51.7262C113.083 52.8272 113.119 53.9287 113.21 55.0261C113.217 55.415 113.343 55.7924 113.569 56.1073C113.858 56.301 114.179 56.4416 114.517 56.5226C115.018 56.6783 115.268 56.9125 115.268 57.2253C115.268 57.598 114.987 57.8744 114.427 58.0546C113.561 58.27 112.671 58.3611 111.78 58.325C110.857 58.3621 109.935 58.2742 109.036 58.0633C108.469 57.8888 108.186 57.6095 108.186 57.2253C108.186 56.9132 108.437 56.6789 108.937 56.5226C109.275 56.4413 109.596 56.3008 109.885 56.1073C110.136 55.7251 110.269 55.2768 110.269 54.8185C110.346 54.1279 110.385 52.9108 110.386 51.1671Z" fill="black"/>
<path id="Path_7" d="M125.663 54.6651H125.878C127.331 51.841 128.515 49.2715 129.427 46.957C130.094 45.5188 130.555 43.9923 130.795 42.4233C130.805 42.2392 130.751 42.0574 130.643 41.9087C130.429 41.7146 130.176 41.57 129.901 41.4848L129.633 41.3767C128.99 41.1244 128.667 40.8541 128.667 40.5657C128.667 40.1931 128.924 39.9285 129.437 39.7722C131.134 39.4592 132.873 39.4592 134.57 39.7722C135.082 39.9285 135.339 40.1931 135.339 40.5657C135.339 40.831 135.077 41.0535 134.552 41.2329C134.358 41.2953 134.167 41.3675 133.98 41.4491C133.652 41.5912 133.364 41.8108 133.139 42.0893C132.838 42.5303 132.604 43.0133 132.442 43.5229L132.227 44.0636C128.519 53.8005 126.224 58.6686 125.342 58.6679C124.806 58.6679 124.159 57.9226 123.402 56.4319C122.645 54.9412 121.128 51.1191 118.851 44.9654C118.791 44.7967 118.701 44.5502 118.582 44.2258C118.341 43.3435 117.954 42.5086 117.437 41.7562C117.16 41.5711 116.855 41.4311 116.534 41.341C116.051 41.1724 115.811 40.9381 115.811 40.6382C115.811 40.2533 116.09 39.9736 116.651 39.7992C117.553 39.5899 118.479 39.5037 119.404 39.5429C120.383 39.504 121.362 39.589 122.319 39.7959C122.891 39.9646 123.177 40.2471 123.177 40.6436C123.177 40.968 122.838 41.2322 122.158 41.4362C122.015 41.4852 121.919 41.5155 121.872 41.527C121.652 41.6058 121.462 41.7502 121.326 41.9411C121.188 42.1355 121.116 42.3694 121.12 42.6082C121.368 44.07 121.791 45.4959 122.382 46.8543C123.222 49.1162 124.316 51.7199 125.663 54.6651Z" fill="black"/>
<path id="Shape_3" d="M150.217 48.1745H138.932C138.845 48.1644 138.757 48.1719 138.672 48.1967C138.588 48.2213 138.51 48.2627 138.441 48.3184C138.332 48.4829 138.285 48.6809 138.307 48.8773C138.224 50.8734 138.852 52.8335 140.077 54.4036C140.615 55.091 141.303 55.6435 142.088 56.0174C142.873 56.3912 143.734 56.5765 144.602 56.5585C145.312 56.5596 146.016 56.4374 146.685 56.1973C147.352 55.961 147.973 55.607 148.517 55.1518C148.945 54.7818 149.343 54.378 149.707 53.944C150.214 53.3674 150.641 53.079 150.986 53.079C151.078 53.0756 151.169 53.0906 151.255 53.1231C151.341 53.1556 151.42 53.2049 151.486 53.2682C151.55 53.3292 151.602 53.4034 151.636 53.4858C151.67 53.5682 151.686 53.6569 151.683 53.7462C151.672 54.0525 151.59 54.3518 151.442 54.6198C151.255 54.9757 151.024 55.3059 150.754 55.6026C149.891 56.5764 148.834 57.3541 147.651 57.8841C146.458 58.4102 145.17 58.6773 143.868 58.6679C142.683 58.7005 141.505 58.4787 140.413 58.0171C139.32 57.5555 138.336 56.8649 137.528 55.9908C135.837 54.1638 134.935 51.7357 135.017 49.2384C134.927 46.5943 135.871 44.0205 137.645 42.0709C138.479 41.1489 139.5 40.4183 140.638 39.9285C141.777 39.4387 143.006 39.201 144.244 39.2316C146.246 39.1262 148.208 39.8261 149.698 41.1778C150.382 41.8637 150.915 42.6868 151.263 43.5937C151.611 44.5006 151.766 45.4711 151.719 46.4424C151.766 46.9234 151.686 47.4085 151.486 47.848C151.332 48.0656 150.909 48.1745 150.217 48.1745ZM139.004 46.6241H148.053C148.25 46.648 148.45 46.5929 148.608 46.4705C148.722 46.2985 148.773 46.0907 148.751 45.8845C148.768 45.2333 148.652 44.5854 148.409 43.9819C148.166 43.3783 147.801 42.8322 147.338 42.378C146.578 41.6664 145.624 41.201 144.599 41.0418C143.574 40.8826 142.525 41.0369 141.588 41.4849C140.89 41.832 140.271 42.3233 139.773 42.9273C139.361 43.4236 139.021 43.9762 138.763 44.5686C138.532 45.0477 138.402 45.569 138.377 46.1007C138.37 46.1741 138.378 46.2484 138.401 46.3184C138.424 46.3884 138.462 46.4524 138.513 46.5062C138.659 46.6007 138.832 46.6423 139.004 46.6241Z" fill="black"/>
<path id="Path_8" d="M2.71864 13.7792C2.71864 10.991 2.66502 8.65913 2.55777 6.78352C2.57295 5.71849 2.44048 4.65654 2.16419 3.62846C1.83108 3.3147 1.43015 3.08334 0.993079 2.95268C0.331741 2.68093 0.00071516 2.29313 0 1.78927C0.00045828 1.54865 0.0836441 1.31563 0.235391 1.12991C0.387137 0.944194 0.598054 0.817268 0.83221 0.770742C2.21457 0.514576 3.62168 0.420604 5.02547 0.490702C6.40254 0.423814 7.78263 0.517785 9.13832 0.770742C9.37658 0.813268 9.59257 0.938279 9.74921 1.12421C9.90584 1.31015 9.99324 1.54535 9.99628 1.78927C9.99628 2.29385 9.61484 2.69643 8.85195 2.99702C8.56155 3.10008 8.28522 3.23958 8.0294 3.41221C7.80201 3.57945 7.64689 4.04799 7.56398 4.81783C7.48099 5.58767 7.43957 7.43154 7.43957 10.3494C7.42589 10.5746 7.48714 10.7978 7.61361 10.984C7.74007 11.17 7.92452 11.3082 8.1377 11.3767C9.25277 11.6219 10.3958 11.7128 11.5352 11.6469H13.1085C14.9674 11.6469 16.279 11.608 17.0433 11.5301C17.5644 11.5261 18.0756 11.3864 18.5275 11.1247C18.6308 11.0363 18.7018 10.9157 18.7291 10.782C18.7791 10.5388 18.7999 10.2905 18.7914 10.0424V9.1958C18.7914 6.77956 18.7495 5.24672 18.6659 4.59725C18.5822 3.94779 18.4393 3.55134 18.2369 3.40789C17.9755 3.23356 17.693 3.094 17.3961 2.99269C16.6218 2.6921 16.2347 2.28952 16.2347 1.78494C16.2347 1.2919 16.5267 0.952393 17.1109 0.76642C18.4727 0.514414 19.8588 0.420453 21.2419 0.486376C22.6364 0.417983 24.0342 0.509031 25.4083 0.75777C25.6429 0.805215 25.8535 0.933896 26.0037 1.12152C26.154 1.30913 26.2344 1.54384 26.2311 1.78494C26.2311 2.30178 25.8434 2.70436 25.0684 2.99269C24.778 3.09576 24.5016 3.23526 24.2458 3.40789C23.9963 3.60035 23.8115 4.54067 23.6913 6.22885C23.5713 7.91704 23.5115 10.4324 23.5123 13.7748C23.5123 16.7562 23.563 19.1933 23.6646 21.0861C23.6425 22.1728 23.778 23.2568 24.0667 24.3039C24.3999 24.6163 24.8015 24.8448 25.2389 24.9711C25.9003 25.2356 26.2311 25.6144 26.2311 26.1074C26.2311 26.6596 25.8823 27.0441 25.1853 27.2611C23.8895 27.5354 22.5646 27.6443 21.2419 27.5855C19.9042 27.6475 18.5641 27.5384 17.2534 27.2611C16.5735 27.0449 16.2339 26.6603 16.2347 26.1074C16.2347 25.5906 16.6218 25.188 17.3961 24.8997C17.693 24.7984 17.9755 24.6589 18.2369 24.4845C18.4393 24.3288 18.5822 23.8542 18.6659 23.0605C18.7495 22.2669 18.7914 20.8003 18.7914 18.6609C18.7914 17.3029 18.7763 16.4285 18.7463 16.0379C18.7494 15.79 18.7072 15.5437 18.6219 15.3113C18.4789 15.0712 18.1064 14.9033 17.5044 14.8074C16.0448 14.6754 14.5789 14.6271 13.1139 14.6625C11.1355 14.6625 9.80324 14.6986 9.11681 14.7706C8.64204 14.778 8.17707 14.9083 7.76667 15.1491C7.64028 15.3057 7.56527 15.498 7.55212 15.6994C7.49429 16.1688 7.47057 16.6419 7.48137 17.1148V18.6653C7.48137 20.8047 7.52286 22.2712 7.60578 23.0649C7.68869 23.8585 7.83173 24.3331 8.03472 24.4888C8.29061 24.6615 8.56695 24.801 8.85735 24.9041C9.61947 25.1924 10.0009 25.595 10.0016 26.1118C10.0016 26.6639 9.66165 27.0485 8.98168 27.2654C7.67152 27.5428 6.33174 27.6518 4.99437 27.5899C3.67162 27.6488 2.34678 27.5397 1.05099 27.2654C0.353906 27.0492 0.00500232 26.6646 0.00428716 26.1118C0.00428716 25.6072 0.391797 25.2047 1.16682 24.9041C1.45719 24.801 1.73355 24.6615 1.98939 24.4888C2.25178 24.2964 2.43981 23.4068 2.55349 21.8203C2.66716 20.2338 2.72222 17.5534 2.71864 13.7792Z" fill="black"/>
<path id="Shape_4" d="M34.2513 17.8899H34.0014C33.583 17.8432 33.1596 17.8988 32.767 18.052C32.6362 18.1601 32.5708 18.4485 32.5708 18.917C32.5779 20.4368 33.1823 21.8918 34.2515 22.9632C35.3208 24.0345 36.7677 24.6348 38.2751 24.6324C38.9426 24.6342 39.6063 24.5306 40.242 24.3254C40.8995 24.1083 41.5207 23.7923 42.0845 23.388C42.2517 23.2675 42.4784 23.0931 42.7644 22.8647C43.1554 22.4608 43.6614 22.1899 44.2122 22.0894C44.3379 22.0855 44.463 22.1075 44.58 22.1541C44.6969 22.2008 44.8031 22.2711 44.8921 22.3608C44.9786 22.4446 45.047 22.5454 45.0931 22.657C45.1392 22.7686 45.1621 22.8886 45.1602 23.0095C45.1186 23.4174 44.9569 23.8034 44.6958 24.1178C44.3395 24.6042 43.918 25.0383 43.4432 25.4077C42.5088 26.217 41.4524 26.8711 40.3138 27.3453C38.6322 27.968 36.8098 28.0971 35.0583 27.7176C33.3067 27.3381 31.6979 26.4655 30.4184 25.2012C29.5464 24.311 28.8618 23.2524 28.4055 22.089C27.9492 20.9255 27.7307 19.6812 27.763 18.4305C27.7164 17.1015 27.9337 15.7766 28.402 14.5335C28.8703 13.2904 29.5803 12.1542 30.4903 11.1915C31.3935 10.2534 32.4815 9.51602 33.6842 9.02701C34.887 8.53807 36.1779 8.3082 37.474 8.35226C38.5119 8.29701 39.5502 8.45118 40.5282 8.80564C41.5062 9.16002 42.4043 9.70765 43.1698 10.4163C43.8834 11.1496 44.4386 12.0241 44.8002 12.9845C45.1617 13.945 45.322 14.9706 45.2707 15.9966C45.3321 16.5286 45.2122 17.0659 44.9307 17.5201C44.7048 17.7666 44.1267 17.8899 43.1966 17.8899H34.2513ZM33.8759 15.7447H39.9202C40.2432 15.7725 40.568 15.7228 40.8683 15.5998C40.9524 15.5355 41.0182 15.4499 41.0591 15.3517C41.0999 15.2537 41.1144 15.1464 41.101 15.0408C41.1152 14.4756 41.0155 13.9134 40.8078 13.3882C40.6003 12.863 40.2892 12.3857 39.8935 11.9852C39.4972 11.5784 39.0218 11.2587 38.4971 11.0463C37.9723 10.8337 37.4097 10.733 36.8445 10.7504C36.2968 10.7352 35.7521 10.8375 35.2465 11.0503C34.7408 11.2632 34.2857 11.5819 33.9114 11.9852C33.5279 12.3925 33.2277 12.872 33.0283 13.3963C32.8288 13.9206 32.7338 14.4794 32.7488 15.0408C32.7353 15.1446 32.7478 15.2502 32.7853 15.3479C32.8227 15.4456 32.884 15.5322 32.9633 15.5998C33.2508 15.7241 33.5645 15.7739 33.8759 15.7447Z" fill="black"/>
<path id="Shape_5" d="M62.709 22.2712C62.6875 22.8064 62.7479 23.3418 62.8881 23.8585C62.9211 24.0018 62.989 24.1345 63.0859 24.2446C63.1828 24.3547 63.3053 24.4387 63.4426 24.4888C63.5856 24.5378 63.7761 24.5919 64.0142 24.651C64.8006 24.8673 65.1939 25.1859 65.1939 25.6068C65.1939 26.208 64.7767 26.7518 63.9424 27.2384C63.0526 27.7396 62.0463 27.9919 61.0275 27.9693C60.6859 27.9329 60.3553 27.8271 60.0556 27.6581C59.7558 27.4892 59.4933 27.2607 59.2836 26.9864C58.9819 26.6363 58.6561 26.3079 58.3088 26.0036C58.0179 26.0912 57.7453 26.2315 57.5044 26.4177C56.1398 27.3851 54.5229 27.9262 52.8554 27.9737C51.2386 28.0452 49.6589 27.4719 48.4584 26.3778C47.9003 25.8421 47.4618 25.1928 47.172 24.473C46.8823 23.7531 46.7479 22.9794 46.7778 22.2031C46.7367 21.3026 46.9119 20.4054 47.2886 19.5878C47.6651 18.7703 48.232 18.0565 48.941 17.5072C50.7141 16.2839 52.8407 15.6905 54.9853 15.8205C55.4743 15.8205 56.008 15.8476 56.5864 15.9016C57.1648 15.9557 57.7876 16.0371 58.4546 16.1459L58.4729 14.1619C58.5318 13.2541 58.2792 12.3535 57.7576 11.6112C57.5109 11.3121 57.198 11.0754 56.8441 10.9203C56.4902 10.7651 56.1052 10.6959 55.7199 10.7182C55.1296 10.7139 54.547 10.8529 54.0212 11.1236C53.4404 11.4404 52.9247 11.8657 52.5015 12.3767C52.405 12.4849 52.2742 12.6481 52.1079 12.8644C51.8467 13.2757 51.4941 13.6202 51.0782 13.8705C50.6621 14.1208 50.1941 14.2702 49.711 14.3067C49.4933 14.3165 49.2759 14.2788 49.0739 14.1963C48.8718 14.1139 48.6897 13.9885 48.5399 13.8288C48.2337 13.4723 48.0765 13.01 48.1012 12.539C48.1482 11.8886 48.3754 11.2645 48.7569 10.7378C49.1383 10.2112 49.6588 9.8032 50.259 9.56015C51.982 8.69047 53.8954 8.27494 55.8207 8.35241C57.0299 8.32429 58.2346 8.51018 59.3802 8.90165C60.2814 9.20691 61.0803 9.7596 61.687 10.4976C62.0883 11.0534 62.3573 11.6949 62.4731 12.3725C62.6631 13.6432 62.741 14.9284 62.7058 16.213L62.709 22.2712ZM58.4525 18.5387C57.9635 18.4306 57.4937 18.3495 57.0401 18.2954C56.6131 18.243 56.1833 18.216 55.7531 18.2144C54.6384 18.1476 53.5342 18.4656 52.6227 19.1162C52.2531 19.4112 51.9583 19.7904 51.7625 20.2228C51.5668 20.6551 51.4756 21.1282 51.4966 21.603C51.4774 22.05 51.5546 22.4959 51.7229 22.9099C51.8912 23.324 52.1466 23.6963 52.4715 24.0012C53.1973 24.6302 54.1356 24.9531 55.0915 24.9029C55.5569 24.9491 56.0268 24.9011 56.4736 24.7616C56.9204 24.6222 57.335 24.3941 57.6932 24.0909C58.2909 23.2976 58.5687 22.3056 58.4708 21.3142L58.4525 18.5387Z" fill="black"/>
<path id="Path_9" d="M68.2763 13.0395V11.5971C68.2763 8.46009 68.2226 6.43494 68.1154 5.52165C68.0081 4.60836 67.8233 4.07927 67.561 3.93439C67.1948 3.75665 66.8113 3.61786 66.4166 3.52027C65.6302 3.30402 65.2369 2.97352 65.2369 2.52877C65.2351 2.37846 65.2672 2.22972 65.3307 2.09373C65.3943 1.95775 65.4876 1.83809 65.6037 1.74379C66.1246 1.40221 66.6947 1.14398 67.2939 0.978272C68.1101 0.689501 68.9432 0.451537 69.7884 0.265736C70.4247 0.11303 71.0747 0.0253667 71.7284 0.00407456C71.8785 -0.0105015 72.0298 0.0141781 72.1677 0.0757312C72.3056 0.137285 72.4254 0.233634 72.5156 0.355479C72.7025 0.738671 72.7829 1.16575 72.7483 1.59134C72.7483 1.75929 72.7362 2.24008 72.7119 3.03371C72.5688 7.49272 72.4974 12.0001 72.4974 16.5557C72.4974 19.8852 72.5364 22.0099 72.6143 22.9297C72.6052 23.536 72.7494 24.1348 73.0336 24.6693C73.349 24.9089 73.7031 25.0918 74.0803 25.21C74.3201 25.2679 74.5346 25.4031 74.6911 25.5951C74.8478 25.7872 74.9379 26.0255 74.9479 26.2739C74.9479 26.7547 74.638 27.0942 74.0181 27.2924C72.9153 27.5408 71.7848 27.6408 70.656 27.5897C69.3991 27.6528 68.1393 27.55 66.9089 27.2838C66.6514 27.2286 66.4207 27.0853 66.2561 26.8781C66.0915 26.671 66.0031 26.4128 66.0058 26.1474C66.0058 25.764 66.2622 25.4575 66.7748 25.2283C67.1139 25.1002 67.4331 24.924 67.7228 24.705C68.0166 24.2788 68.1754 23.773 68.1786 23.254C68.2877 22.022 68.3324 20.7853 68.3127 19.5486C68.3127 19.044 68.307 18.0709 68.2956 16.6292C68.2841 15.1875 68.2776 13.991 68.2763 13.0395Z" fill="black"/>
<path id="Path_10" d="M86.5929 8.87437C86.8201 8.84816 87.0481 8.91306 87.2283 9.05497C87.3658 9.26147 87.4259 9.51065 87.3977 9.75776V10.2086C87.4198 10.4582 87.3529 10.7077 87.21 10.9125C87.1287 10.9913 87.0314 11.0515 86.925 11.0888C86.8186 11.1261 86.7054 11.1397 86.5929 11.1288H82.7541C82.6971 11.1277 82.6409 11.1412 82.5907 11.1681C82.5406 11.195 82.498 11.2343 82.4676 11.2823C82.3878 11.415 82.3506 11.5688 82.3605 11.7235V21.0632C82.2647 22.0901 82.4023 23.1255 82.7625 24.0907C82.9396 24.3124 83.1691 24.485 83.4306 24.5923C83.692 24.6995 83.9762 24.7379 84.2559 24.7038C84.7727 24.6802 85.2819 24.5771 85.7675 24.3977C86.1779 24.2387 86.6081 24.1354 87.0459 24.0907C87.2951 24.0814 87.5383 24.1685 87.7253 24.334C87.8135 24.4146 87.8834 24.5136 87.9297 24.6241C87.9761 24.7347 87.9981 24.8541 87.9936 24.9741C87.9936 25.6596 87.4661 26.3238 86.4105 26.9668C85.3275 27.6176 84.0864 27.9516 82.8256 27.9313C82.1195 27.9418 81.4158 27.8385 80.7417 27.6253C80.1549 27.4367 79.6146 27.1229 79.1586 26.7052C78.6957 26.2583 78.3727 25.6848 78.2291 25.0552C78.0026 23.7855 77.9129 22.495 77.9608 21.2059V11.1288H76.2447C76.0517 11.1491 75.8587 11.0976 75.7003 10.9839C75.6437 10.9174 75.6009 10.84 75.5747 10.7563C75.5486 10.6727 75.5395 10.5846 75.5481 10.4973V10.0465C75.5481 9.63776 76.1976 8.87475 77.4965 7.7575C77.8195 7.48067 78.0763 7.25829 78.2663 7.09034C78.4335 6.94618 78.6714 6.73569 78.9823 6.4589C80.2689 5.31711 81.1505 4.74621 81.6278 4.74621C81.8368 4.73417 82.0443 4.7911 82.2183 4.90839C82.2883 4.96014 82.3445 5.0283 82.3817 5.10691C82.419 5.18552 82.4365 5.27217 82.4334 5.35928V8.87437H86.5929Z" fill="black"/>
<path id="Path_11" d="M94.9848 10.7817C94.9749 10.9364 95.003 11.0911 95.0654 11.2326C95.0935 11.2807 95.1345 11.3197 95.1832 11.3451C95.2326 11.3706 95.288 11.3814 95.3428 11.3764C95.3906 11.3764 95.5244 11.2359 95.7456 10.9526C95.9485 10.6906 96.1666 10.4407 96.3984 10.2044C96.979 9.62615 97.657 9.15607 98.401 8.81602C99.0994 8.50477 99.8549 8.34524 100.619 8.34785C101.52 8.28302 102.424 8.43933 103.252 8.80352C104.08 9.16772 104.809 9.72883 105.376 10.439C106.424 11.8337 106.949 13.9433 106.949 16.7675C106.949 16.8042 106.955 17.3874 106.967 18.5169C106.979 19.6465 106.985 20.7637 106.984 21.8688V22.9327C106.959 23.3966 107.02 23.8612 107.164 24.3027C107.285 24.5823 107.492 24.8158 107.754 24.9698C107.911 25.0456 108.072 25.112 108.237 25.1687C108.845 25.3965 109.149 25.7209 109.149 26.1419C109.153 26.405 109.068 26.6617 108.906 26.8686C108.745 27.0757 108.519 27.2203 108.264 27.2782C107.003 27.5475 105.714 27.6503 104.428 27.5842C103.308 27.6354 102.186 27.5354 101.092 27.2868C100.478 27.0886 100.171 26.7491 100.171 26.2684C100.171 25.7876 100.487 25.4329 101.12 25.2044C101.36 25.1222 101.593 25.0199 101.816 24.8984C101.983 24.7738 102.123 24.6158 102.226 24.4342C102.329 24.2525 102.394 24.0513 102.416 23.8431C102.557 22.9218 102.613 21.9896 102.586 21.0578C102.586 17.0313 102.335 14.5102 101.835 13.4946C101.585 12.9947 101.193 12.5821 100.708 12.3104C100.223 12.0387 99.6687 11.9205 99.1162 11.9711C98.4352 11.9752 97.7717 12.1855 97.2116 12.5744C96.612 12.9747 96.1324 13.533 95.8254 14.1887C95.5062 14.9005 95.3124 15.6631 95.2531 16.442C95.1459 17.4036 95.092 19.1105 95.092 21.5628C95.0616 22.4013 95.1125 23.2407 95.2447 24.0691C95.2721 24.2383 95.3352 24.3997 95.4294 24.5426C95.5236 24.6855 95.6468 24.8068 95.7904 24.8984C96.0138 25.0199 96.2472 25.1222 96.4873 25.2044C97.1189 25.4322 97.435 25.7868 97.4358 26.2684C97.4358 26.7499 97.1318 27.0894 96.523 27.2868C95.4385 27.5355 94.3251 27.6355 93.214 27.5842C91.9311 27.6495 90.6444 27.5467 89.3882 27.2782C89.1313 27.2219 88.9025 27.078 88.7399 26.8709C88.5765 26.6637 88.4898 26.4062 88.4936 26.1419C88.4936 25.7332 88.7916 25.4149 89.3882 25.1871C89.5599 25.1271 89.7271 25.0549 89.889 24.9708C90.0722 24.8495 90.2295 24.6918 90.3511 24.5075C90.4727 24.3231 90.5555 24.1159 90.595 23.8983C90.7668 22.9622 90.8352 22.0101 90.8002 21.0589V15.1446C90.8002 10.8052 90.7615 7.95071 90.6847 6.58111C90.7121 5.74496 90.5753 4.91155 90.2819 4.12886C89.8974 3.83878 89.4497 3.6443 88.9762 3.56121C88.2368 3.35001 87.8674 3.02815 87.8682 2.59566C87.8704 2.42528 87.913 2.25787 87.992 2.1074C88.0711 1.95692 88.1851 1.82775 88.3242 1.73067C88.9876 1.31489 89.6998 0.981942 90.443 0.739176C91.0465 0.520615 91.6651 0.348919 92.2944 0.225585C92.8621 0.106379 93.4397 0.0426478 94.0196 0.0352835C94.1845 0.0181414 94.351 0.0412211 94.5045 0.102573C94.6588 0.163923 94.7956 0.261743 94.9042 0.387768C95.1094 0.751788 95.1999 1.1699 95.1642 1.58687C95.1642 1.67012 95.152 1.93503 95.1284 2.37941C95.0334 4.83023 94.9856 7.32465 94.9848 9.86269V10.7817Z" fill="black"/>
<path id="Path_12" d="M122.191 22.5782C120.151 27.7826 118.472 31.1705 117.15 32.7419C116.595 33.4679 115.883 34.057 115.067 34.4646C114.252 34.8722 113.356 35.0877 112.447 35.0947C111.627 35.1244 110.825 34.8484 110.195 34.3194C109.908 34.0812 109.679 33.7808 109.524 33.4405C109.369 33.1002 109.293 32.7291 109.3 32.3548C109.296 32.0553 109.352 31.758 109.464 31.4807C109.576 31.2034 109.742 30.9516 109.953 30.7405C110.259 30.4285 110.648 30.2123 111.073 30.118C111.498 30.0236 111.941 30.055 112.349 30.2085C112.573 30.2982 112.772 30.4406 112.931 30.6237C113.062 30.7913 113.229 31.0259 113.431 31.3265C113.753 31.8195 114.033 32.066 114.272 32.066C114.903 32.066 115.544 31.6062 116.195 30.6864C116.812 29.8622 117.153 28.8614 117.168 27.8287C117.029 26.2322 116.586 24.6776 115.864 23.2496C115.78 23.0456 115.715 22.8954 115.667 22.7988C114.606 20.4201 113.612 18.2215 112.689 16.2032C111.766 14.1849 111.196 12.9645 110.982 12.5421C110.659 12.0065 110.158 11.6041 109.568 11.4068C109.568 11.3949 109.563 11.3885 109.551 11.3885C109.227 11.2858 108.93 11.1102 108.683 10.8749C108.531 10.6907 108.451 10.4562 108.46 10.2164C108.46 9.66421 108.787 9.27963 109.444 9.06271C110.657 8.78878 111.902 8.67967 113.145 8.73829C114.362 8.68036 115.582 8.78028 116.775 9.03567C117.383 9.23458 117.687 9.58636 117.687 10.0909C117.692 10.2865 117.653 10.4806 117.572 10.6586C117.501 10.8127 117.385 10.9416 117.241 11.0284C117.019 11.1427 116.792 11.2448 116.56 11.3344C116.085 11.5268 115.846 11.7312 115.845 11.9474C115.904 12.4259 116.028 12.8939 116.214 13.3379C116.465 14.0284 116.965 15.2874 117.716 17.1147C118.431 18.8447 118.949 20.0135 119.271 20.6211C119.594 21.2288 119.844 21.5322 120.022 21.5316C120.142 21.5316 120.345 21.2342 120.63 20.6395C120.916 20.0448 121.321 19.0624 121.846 17.692C122.478 16.081 122.937 14.8336 123.223 13.9499C123.441 13.3728 123.586 12.77 123.653 12.1561C123.653 11.7957 123.304 11.4173 122.607 11.0208C121.91 10.6244 121.561 10.2639 121.56 9.93959C121.56 9.50705 121.844 9.19749 122.411 9.01076C123.38 8.78089 124.375 8.68703 125.37 8.73185C126.386 8.67699 127.405 8.77729 128.391 9.02915C128.621 9.09083 128.824 9.22837 128.966 9.4197C129.109 9.61103 129.184 9.84511 129.179 10.0845C129.179 10.5407 128.827 10.859 128.124 11.0392C127.859 11.1021 127.601 11.1931 127.355 11.3106C126.651 11.6948 125.9 12.9508 125.103 15.0787C124.876 15.7037 124.698 16.1845 124.566 16.5211L122.191 22.5782Z" fill="black"/>
</g>
</g>
</g>
</g>
<defs>
<clipPath id="clip0_9_857">
<rect width="152" height="59" fill="white"/>
</clipPath>
</defs>
</svg>
