<svg width="180" height="180" viewBox="0 0 180 180" fill="none" xmlns="http://www.w3.org/2000/svg">
<g id="Browser__Logo__HC__CRM ">
<rect id="Rectangle 19" width="180" height="180" fill="#74B6FF"/>
<g id="Group">
<path id="Path" d="M24.7352 105.812C23.3571 105.82 21.9855 105.619 20.6664 105.217C19.4109 104.834 18.2247 104.25 17.153 103.487C15.3533 102.183 13.9178 100.432 12.9855 98.4052C12.0005 96.1975 11.5119 93.7975 11.5548 91.3771C11.5495 89.8489 11.7726 88.3285 12.2165 86.8672C12.6317 85.478 13.2724 84.1679 14.1126 82.9899C15.2649 81.4019 16.7681 80.1063 18.5032 79.2056C20.2125 78.3099 22.1117 77.8457 24.0381 77.8529C25.3189 77.8616 26.5932 78.0375 27.8292 78.3763C29.1404 78.7245 29.8436 78.8985 29.9387 78.8985C30.2629 78.8874 30.5847 78.8359 30.8964 78.745C31.1439 78.6694 31.3982 78.6183 31.6556 78.5925C32.1797 78.5925 32.618 79.0431 32.9704 79.9441C33.3545 81.0436 33.5334 82.2053 33.4981 83.3705C33.521 83.7779 33.4311 84.1837 33.2386 84.5426C33.1634 84.6727 33.0547 84.7799 32.9241 84.8527C32.7934 84.9257 32.6457 84.9615 32.4964 84.9567C32.0325 84.9567 31.621 84.5181 31.262 83.6408C31.0891 83.1791 30.8673 82.7376 30.6004 82.3238C29.9564 81.4617 29.0773 80.8072 28.0705 80.4404C26.8442 79.9796 25.5427 79.7561 24.2343 79.7819C22.9878 79.7186 21.7428 79.9366 20.5905 80.4202C19.4381 80.9037 18.4073 81.6406 17.5734 82.5769C15.8522 84.7543 14.9891 87.4958 15.1497 90.2754C15.1436 91.8835 15.3389 93.4859 15.7309 95.0447C16.0743 96.4596 16.6321 97.8126 17.3847 99.0561C18.2064 100.461 19.3617 101.638 20.7468 102.481C22.1125 103.247 23.6555 103.633 25.2178 103.599C26.398 103.615 27.5701 103.401 28.67 102.969C29.6402 102.595 30.5055 101.989 31.1913 101.202C31.4797 100.839 31.7482 100.459 31.9956 100.066C32.4246 99.3927 32.7882 99.0561 33.0863 99.0561C33.2186 99.055 33.3485 99.0906 33.462 99.1591C33.5756 99.2276 33.6682 99.3263 33.7298 99.4443C33.8996 99.7682 33.9797 100.132 33.9614 100.498C33.9713 101.337 33.7714 102.165 33.3802 102.905C32.9926 103.633 32.5904 103.997 32.1737 103.996C32.1128 103.992 32.0527 103.98 31.9945 103.961C31.9365 103.941 31.8764 103.929 31.8155 103.924C31.554 103.957 31.3034 104.05 31.083 104.195C30.9275 104.267 30.802 104.327 30.7076 104.375C28.8677 105.352 26.8137 105.848 24.7341 105.817L24.7352 105.812Z" fill="black"/>
<path id="Shape" d="M35.2552 96.2384C35.2167 94.9208 35.4415 93.609 35.9161 92.3808C36.3907 91.1526 37.1054 90.0332 38.0179 89.0892C38.9068 88.156 39.9791 87.4199 41.1659 86.9279C42.3529 86.4359 43.6286 86.1986 44.9115 86.2314C46.1121 86.192 47.3077 86.4049 48.4223 86.8565C49.5369 87.3081 50.5462 87.9885 51.3858 88.8546C52.2314 89.7397 52.892 90.7871 53.3282 91.9346C53.7645 93.0821 53.9675 94.3063 53.9254 95.5344C53.9659 96.8643 53.745 98.1891 53.2753 99.4325C52.8056 100.676 52.0963 101.813 51.1885 102.779C50.3253 103.716 49.2751 104.458 48.1069 104.957C46.9387 105.456 45.679 105.7 44.4107 105.672C43.1955 105.701 41.9876 105.475 40.8639 105.008C39.7402 104.541 38.7253 103.843 37.8838 102.958C37.0202 102.074 36.3424 101.023 35.8908 99.8682C35.4391 98.7135 35.223 97.479 35.2552 96.2384ZM38.4726 95.1744C38.384 97.4221 39.0174 99.6386 40.2786 101.494C40.7622 102.254 41.4259 102.879 42.2098 103.315C42.9936 103.751 43.8727 103.983 44.7678 103.991C45.5891 104.027 46.4073 103.866 47.1549 103.521C47.9025 103.177 48.5583 102.658 49.0683 102.008C50.196 100.408 50.748 98.4679 50.633 96.5086C50.7131 94.3212 50.051 92.1717 48.7562 90.4148C48.2261 89.6599 47.5236 89.0448 46.7082 88.6212C45.8927 88.1976 44.9881 87.978 44.0707 87.9809C43.2906 87.9654 42.5181 88.1371 41.8167 88.4819C41.1155 88.8267 40.5055 89.3347 40.0373 89.9639C38.937 91.4676 38.3847 93.3079 38.4736 95.1744H38.4726Z" fill="black"/>
<path id="Path_2" d="M59.7343 90.8473C59.7343 95.5593 59.7639 98.6874 59.8233 100.231C59.791 101.128 59.8937 102.025 60.1279 102.891C60.4022 103.202 60.7692 103.414 61.1735 103.496C61.7276 103.67 62.0046 103.913 62.0046 104.226C62.0046 104.61 61.7215 104.89 61.1553 105.063C60.2562 105.274 59.3331 105.362 58.4109 105.325C57.4794 105.362 56.5471 105.274 55.6386 105.063C55.0667 104.889 54.7807 104.61 54.7807 104.226C54.7807 103.913 55.0577 103.67 55.6118 103.496C56.0163 103.413 56.3834 103.201 56.6585 102.891C56.8394 102.274 56.9237 101.633 56.9084 100.989C56.9556 99.9369 56.9795 97.9384 56.9803 94.9939V91.8928C56.9803 87.1095 56.9323 84.1076 56.8365 82.8872C56.7407 81.6668 56.568 80.9604 56.3185 80.768C55.993 80.6645 55.657 80.5982 55.3169 80.5701C54.7206 80.4858 54.4225 80.2335 54.4225 79.8132C54.427 79.6907 54.4582 79.5706 54.5138 79.4615C54.5694 79.3524 54.6481 79.2569 54.7442 79.1818C55.0528 78.9333 55.3966 78.7328 55.7641 78.5871C56.3742 78.3532 56.9982 78.1574 57.6323 78.0011C58.0676 77.879 58.5144 77.8033 58.9653 77.7751C59.1022 77.7591 59.2409 77.7761 59.3699 77.8249C59.499 77.8735 59.6146 77.9525 59.7074 78.0552C59.8752 78.3793 59.9463 78.7454 59.9123 79.1094C59.9123 79.2297 59.9005 79.6024 59.8769 80.2274C59.7819 83.737 59.7343 87.277 59.7343 90.8473Z" fill="black"/>
<path id="Path_3" d="M68.4141 90.8473C68.4141 95.5593 68.4437 98.6874 68.5031 100.231C68.4708 101.128 68.5735 102.025 68.8077 102.891C69.0821 103.202 69.449 103.414 69.8533 103.496C70.4081 103.67 70.6855 103.913 70.6855 104.226C70.6855 104.61 70.4013 104.889 69.8361 105.063C68.9367 105.274 68.0133 105.362 67.0907 105.325C66.1592 105.362 65.2269 105.274 64.3185 105.063C63.7465 104.889 63.4605 104.61 63.4605 104.226C63.4605 103.913 63.7375 103.67 64.2916 103.496C64.6961 103.413 65.0632 103.201 65.3383 102.891C65.5204 102.274 65.6048 101.633 65.5882 100.989C65.6354 99.9369 65.6593 97.9384 65.66 94.9939V91.8928C65.66 87.1095 65.6125 84.1076 65.5174 82.8872C65.4223 81.6668 65.2493 80.9604 64.9983 80.768C64.6728 80.6645 64.3368 80.5982 63.9967 80.5701C63.4004 80.4858 63.1023 80.2335 63.1023 79.8132C63.1067 79.6906 63.1379 79.5706 63.1934 79.4615C63.2491 79.3523 63.3277 79.2569 63.424 79.1818C63.7322 78.9333 64.0756 78.7328 64.4428 78.5871C65.0533 78.353 65.6776 78.1573 66.3121 78.0011C66.747 77.879 67.1934 77.8033 67.6441 77.7751C67.7809 77.7591 67.9196 77.7761 68.0487 77.8249C68.1777 77.8735 68.2934 77.9525 68.3862 78.0552C68.5548 78.379 68.6264 78.7453 68.5921 79.1094C68.5921 79.2297 68.5799 79.6024 68.5556 80.2274C68.4605 83.737 68.4133 87.277 68.4141 90.8473Z" fill="black"/>
<path id="Shape_2" d="M86.741 95.1744H75.4556C75.3684 95.1643 75.28 95.1718 75.1957 95.1965C75.1113 95.2212 75.0328 95.2626 74.9644 95.3182C74.8563 95.4829 74.8088 95.6808 74.8304 95.8772C74.7475 97.8733 75.3755 99.8335 76.601 101.403C77.1385 102.091 77.8269 102.643 78.612 103.017C79.3971 103.391 80.2575 103.576 81.1256 103.558C81.8353 103.559 82.5398 103.437 83.2083 103.197C83.8758 102.961 84.4964 102.607 85.0411 102.152C85.4692 101.782 85.8669 101.378 86.2305 100.944C86.7374 100.367 87.1636 100.079 87.5101 100.079C87.6013 100.076 87.6933 100.091 87.7792 100.123C87.8651 100.156 87.9441 100.205 88.011 100.268C88.0748 100.329 88.1257 100.404 88.1592 100.486C88.1934 100.568 88.2093 100.657 88.2071 100.746C88.1957 101.052 88.1136 101.352 87.9654 101.62C87.7792 101.976 87.5474 102.306 87.2768 102.602C86.4152 103.576 85.3576 104.354 84.1746 104.884C82.9823 105.41 81.6936 105.677 80.3921 105.668C79.2074 105.7 78.0294 105.479 76.9363 105.017C75.8431 104.555 74.8599 103.865 74.0518 102.991C72.3613 101.164 71.458 98.7355 71.5401 96.2384C71.4508 93.5942 72.3947 91.0204 74.1687 89.0708C75.0029 88.1489 76.0237 87.4183 77.1621 86.9284C78.3005 86.4385 79.5301 86.2009 80.7674 86.2314C82.7696 86.1258 84.7314 86.8259 86.2219 88.1777C86.9059 88.8636 87.4387 89.6866 87.7868 90.5935C88.1349 91.5004 88.2899 92.471 88.242 93.4422C88.2891 93.9232 88.2093 94.4081 88.011 94.8479C87.8552 95.0656 87.4319 95.1744 86.741 95.1744ZM75.5274 93.6239H84.5768C84.7744 93.6481 84.9736 93.5929 85.1312 93.4704C85.2464 93.2983 85.2969 93.0905 85.2738 92.8843C85.2918 92.2331 85.1756 91.5853 84.9324 90.9817C84.6893 90.3782 84.3246 89.832 83.8615 89.3779C83.1016 88.6663 82.1477 88.2009 81.1227 88.0417C80.0978 87.8824 79.0491 88.0368 78.1121 88.4848C77.4132 88.8318 76.7946 89.3233 76.2964 89.9271C75.8846 90.4234 75.5444 90.976 75.2861 91.5685C75.0565 92.0476 74.9258 92.5689 74.9023 93.1006C74.8943 93.1739 74.9021 93.2481 74.9252 93.3181C74.9484 93.3881 74.9862 93.4522 75.0363 93.5061C75.182 93.6005 75.3552 93.642 75.5274 93.6239Z" fill="black"/>
<path id="Path_4" d="M105.255 92.56C104.866 92.5663 104.489 92.4247 104.2 92.1631C103.781 91.7178 103.447 91.1984 103.216 90.6311C102.884 89.8504 102.376 89.1588 101.732 88.6113C101.153 88.1809 100.448 87.9589 99.7286 87.9809C98.8866 87.9416 98.0468 88.1012 97.2769 88.447C96.507 88.7928 95.8283 89.3152 95.294 89.9726C94.1373 91.5703 93.5681 93.5242 93.6851 95.4988C93.6015 97.5648 94.2551 99.5925 95.5274 101.214C96.0844 101.926 96.7973 102.499 97.6098 102.887C98.423 103.275 99.3137 103.468 100.213 103.45C100.831 103.448 101.443 103.345 102.028 103.143C102.656 102.925 103.25 102.615 103.789 102.224C104.232 101.891 104.645 101.52 105.023 101.115C105.337 100.703 105.788 100.418 106.293 100.312C106.385 100.31 106.477 100.326 106.563 100.36C106.65 100.394 106.728 100.446 106.794 100.511C106.861 100.583 106.914 100.668 106.947 100.761C106.981 100.854 106.996 100.953 106.991 101.052C106.974 101.371 106.879 101.681 106.713 101.954C106.494 102.336 106.227 102.687 105.917 102.999C105.109 103.867 104.124 104.547 103.029 104.992C101.889 105.45 100.671 105.679 99.4444 105.668C98.2368 105.714 97.0329 105.504 95.9112 105.05C94.7902 104.596 93.7756 103.91 92.9343 103.035C92.0899 102.119 91.4332 101.044 91.0038 99.8711C90.5737 98.6981 90.3791 97.4509 90.4301 96.2016C90.348 93.5725 91.3033 91.0177 93.087 89.0978C94.5834 87.5641 96.5534 86.5893 98.6722 86.3339C100.791 86.0785 102.933 86.5575 104.746 87.6922C106.159 88.6415 106.866 89.6813 106.866 90.8116C106.881 91.2729 106.718 91.7221 106.41 92.0637C106.264 92.2255 106.085 92.3537 105.886 92.4394C105.687 92.525 105.471 92.5662 105.255 92.56Z" fill="black"/>
<path id="Path_5" d="M109.84 88.9215H108.302C108.159 88.9307 108.015 88.8965 107.891 88.8231C107.845 88.7935 107.808 88.7523 107.783 88.7038C107.758 88.6553 107.746 88.601 107.748 88.5463V88.0457C107.748 87.6853 108.195 87.0077 109.089 86.013C109.35 85.7369 109.547 85.5207 109.679 85.3643C109.822 85.2086 110.012 84.9933 110.251 84.7155C111.145 83.6826 111.753 83.1664 112.074 83.1672C112.234 83.1566 112.391 83.2086 112.513 83.3121C112.566 83.3665 112.606 83.4315 112.633 83.5029C112.659 83.5742 112.669 83.6503 112.664 83.7261V87.0077H116.348C116.44 86.9983 116.533 87.0086 116.621 87.0379C116.709 87.0672 116.79 87.1147 116.858 87.1775C116.975 87.3405 117.028 87.5401 117.01 87.7398V88.2219C117.026 88.4122 116.968 88.6012 116.849 88.7496C116.782 88.811 116.702 88.8577 116.616 88.8869C116.53 88.9161 116.439 88.9271 116.348 88.9194H113.058C113.001 88.9183 112.945 88.9318 112.895 88.9587C112.845 88.9856 112.802 89.0249 112.772 89.0729C112.692 89.2059 112.655 89.3602 112.664 89.5151V99.535C112.586 100.581 112.735 101.631 113.103 102.612C113.254 102.88 113.479 103.098 113.751 103.24C114.022 103.382 114.328 103.443 114.632 103.416C115.053 103.398 115.466 103.296 115.848 103.117C116.126 102.978 116.421 102.878 116.725 102.82C116.892 102.812 117.055 102.87 117.181 102.982C117.237 103.038 117.282 103.106 117.311 103.18C117.339 103.255 117.353 103.334 117.35 103.414C117.35 103.944 116.95 104.457 116.152 104.955C115.347 105.456 114.416 105.716 113.471 105.703C112.943 105.753 112.411 105.669 111.924 105.458C111.436 105.247 111.01 104.916 110.683 104.496C110.018 103.247 109.727 101.831 109.843 100.418L109.84 88.9215Z" fill="black"/>
<path id="Path_6" d="M121.386 98.1673C121.386 95.2703 121.35 93.1518 121.278 91.8117C121.302 91.0004 121.18 90.1914 120.92 89.4233C120.813 89.2546 120.444 89.1253 119.812 89.0351C119.179 88.945 118.864 88.6895 118.864 88.2685C118.865 88.1468 118.892 88.0267 118.943 87.9164C118.994 87.806 119.068 87.7078 119.16 87.6284C119.467 87.3765 119.815 87.1784 120.187 87.0424C120.767 86.8076 121.361 86.6118 121.967 86.4564C122.424 86.3264 122.896 86.2508 123.371 86.2315C123.498 86.218 123.627 86.2364 123.745 86.2851C123.864 86.3338 123.968 86.4112 124.05 86.5104C124.212 86.8367 124.28 87.2023 124.247 87.5657C124.247 87.6857 124.241 88.035 124.229 88.6113C124.145 91.9415 124.103 95.3132 124.103 98.7263C124.084 99.8274 124.119 100.929 124.21 102.026C124.217 102.415 124.343 102.793 124.569 103.107C124.858 103.301 125.179 103.442 125.517 103.523C126.018 103.678 126.268 103.913 126.268 104.225C126.268 104.598 125.987 104.875 125.427 105.055C124.562 105.27 123.671 105.361 122.78 105.325C121.858 105.362 120.935 105.274 120.036 105.063C119.47 104.889 119.186 104.61 119.186 104.225C119.186 103.913 119.437 103.679 119.937 103.523C120.275 103.441 120.596 103.301 120.885 103.107C121.136 102.725 121.269 102.277 121.269 101.819C121.346 101.128 121.386 99.911 121.386 98.1673Z" fill="black"/>
<path id="Path_7" d="M136.663 101.665H136.877C138.331 98.8409 139.515 96.2715 140.427 93.9569C141.094 92.5188 141.554 90.9923 141.795 89.4233C141.805 89.2391 141.751 89.0573 141.643 88.9087C141.429 88.7146 141.176 88.5699 140.901 88.4848L140.633 88.3767C139.99 88.1243 139.667 87.854 139.667 87.5657C139.667 87.1931 139.924 86.9285 140.436 86.7721C142.134 86.4592 143.872 86.4592 145.57 86.7721C146.082 86.9285 146.339 87.1931 146.339 87.5657C146.339 87.831 146.076 88.0534 145.552 88.2328C145.357 88.2952 145.167 88.3674 144.98 88.4491C144.652 88.5911 144.364 88.8107 144.138 89.0892C143.838 89.5302 143.603 90.0133 143.442 90.5229L143.227 91.0635C139.518 100.8 137.224 105.669 136.342 105.668C135.806 105.668 135.159 104.922 134.402 103.432C133.645 101.941 132.127 98.119 129.85 91.9653C129.79 91.7966 129.701 91.5501 129.582 91.2258C129.341 90.3434 128.954 89.5085 128.437 88.7562C128.159 88.5711 127.855 88.431 127.534 88.341C127.051 88.1723 126.81 87.938 126.81 87.6382C126.81 87.2532 127.09 86.9735 127.651 86.7991C128.553 86.5898 129.479 86.5036 130.404 86.5428C131.383 86.5039 132.361 86.5889 133.319 86.7959C133.891 86.9646 134.177 87.2471 134.177 87.6435C134.177 87.968 133.837 88.2322 133.158 88.4361C133.015 88.4852 132.919 88.5154 132.871 88.5269C132.652 88.6057 132.462 88.7501 132.326 88.9411C132.188 89.1354 132.116 89.3693 132.12 89.6082C132.368 91.07 132.791 92.4959 133.381 93.8542C134.222 96.1162 135.316 98.7198 136.663 101.665Z" fill="black"/>
<path id="Shape_3" d="M161.217 95.1744H149.932C149.845 95.1643 149.756 95.1718 149.672 95.1965C149.588 95.2212 149.509 95.2626 149.441 95.3182C149.332 95.4827 149.284 95.6808 149.307 95.8772C149.224 97.8733 149.852 99.8334 151.077 101.403C151.615 102.091 152.303 102.643 153.088 103.017C153.873 103.391 154.734 103.576 155.602 103.558C156.311 103.559 157.016 103.437 157.685 103.197C158.352 102.961 158.973 102.607 159.517 102.152C159.945 101.782 160.343 101.378 160.707 100.944C161.214 100.367 161.641 100.079 161.986 100.079C162.078 100.075 162.169 100.09 162.255 100.123C162.341 100.155 162.42 100.205 162.486 100.268C162.55 100.329 162.602 100.403 162.635 100.486C162.67 100.568 162.686 100.657 162.683 100.746C162.672 101.052 162.59 101.352 162.442 101.62C162.255 101.976 162.024 102.306 161.754 102.602C160.891 103.576 159.834 104.354 158.651 104.884C157.458 105.41 156.17 105.677 154.868 105.668C153.683 105.7 152.505 105.479 151.412 105.017C150.32 104.555 149.336 103.865 148.528 102.991C146.837 101.164 145.934 98.7355 146.016 96.2383C145.927 93.5942 146.871 91.0203 148.645 89.0708C149.479 88.1488 150.5 87.4182 151.638 86.9283C152.777 86.4385 154.006 86.2009 155.244 86.2314C157.245 86.126 159.208 86.826 160.698 88.1777C161.382 88.8635 161.915 89.6866 162.263 90.5935C162.611 91.5004 162.766 92.471 162.719 93.4422C162.766 93.9233 162.686 94.4084 162.486 94.8478C162.331 95.0655 161.909 95.1744 161.217 95.1744ZM150.003 93.6239H159.053C159.25 93.6478 159.449 93.5927 159.608 93.4704C159.722 93.2983 159.773 93.0905 159.75 92.8843C159.768 92.2331 159.652 91.5853 159.408 90.9817C159.166 90.3781 158.801 89.832 158.338 89.3778C157.578 88.6663 156.624 88.2009 155.599 88.0417C154.574 87.8824 153.525 88.0368 152.588 88.4848C151.89 88.8318 151.271 89.3232 150.773 89.9271C150.361 90.4234 150.021 90.976 149.763 91.5684C149.532 92.0475 149.402 92.5688 149.377 93.1006C149.37 93.174 149.378 93.2482 149.401 93.3183C149.424 93.3882 149.462 93.4523 149.512 93.5061C149.658 93.6005 149.832 93.6421 150.003 93.6239Z" fill="black"/>
<path id="Path_8" d="M13.7186 60.7791C13.7186 57.991 13.665 55.6591 13.5578 53.7835C13.573 52.7184 13.4405 51.6565 13.1642 50.6284C12.8311 50.3146 12.4301 50.0833 11.9931 49.9526C11.3317 49.6809 11.0007 49.2931 11 48.7892C11.0005 48.5486 11.0836 48.3156 11.2354 48.1299C11.3871 47.9441 11.5981 47.8172 11.8322 47.7707C13.2146 47.5145 14.6217 47.4205 16.0255 47.4906C17.4025 47.4238 18.7826 47.5177 20.1383 47.7707C20.3766 47.8132 20.5926 47.9382 20.7492 48.1242C20.9058 48.3101 20.9932 48.5453 20.9963 48.7892C20.9963 49.2938 20.6148 49.6964 19.8519 49.997C19.5616 50.1 19.2852 50.2395 19.0294 50.4121C18.802 50.5794 18.6469 51.0479 18.564 51.8178C18.481 52.5876 18.4396 54.4315 18.4396 57.3494C18.4259 57.5745 18.4871 57.7978 18.6136 57.9839C18.7401 58.1699 18.9245 58.3082 19.1377 58.3766C20.2528 58.6219 21.3958 58.7127 22.5352 58.6468H24.1085C25.9674 58.6468 27.279 58.6079 28.0433 58.5301C28.5644 58.526 29.0756 58.3863 29.5275 58.1247C29.6308 58.0362 29.7018 57.9156 29.7291 57.7819C29.7791 57.5387 29.7999 57.2905 29.7914 57.0424V56.1957C29.7914 53.7795 29.7495 52.2467 29.6659 51.5972C29.5822 50.9477 29.4393 50.5513 29.2369 50.4078C28.9755 50.2335 28.693 50.0939 28.3961 49.9926C27.6218 49.692 27.2347 49.2895 27.2347 48.7849C27.2347 48.2918 27.5267 47.9523 28.1109 47.7664C29.4727 47.5144 30.8588 47.4204 32.2419 47.4863C33.6365 47.4179 35.0342 47.509 36.4083 47.7577C36.6429 47.8052 36.8535 47.9338 37.0037 48.1215C37.154 48.3091 37.2344 48.5438 37.2311 48.7849C37.2311 49.3017 36.8434 49.7043 36.0684 49.9926C35.778 50.0957 35.5016 50.2352 35.2458 50.4078C34.9963 50.6003 34.8115 51.5406 34.6913 53.2288C34.5712 54.917 34.5115 57.4323 34.5123 60.7748C34.5123 63.7561 34.563 66.1933 34.6646 68.0861C34.6425 69.1728 34.778 70.2567 35.0667 71.3039C35.3999 71.6162 35.8015 71.8448 36.2389 71.971C36.9003 72.2355 37.2311 72.6144 37.2311 73.1074C37.2311 73.6595 36.8823 74.0441 36.1853 74.2611C34.8895 74.5353 33.5646 74.6443 32.2419 74.5854C30.9042 74.6474 29.5641 74.5384 28.2534 74.2611C27.5735 74.0449 27.2339 73.6603 27.2347 73.1074C27.2347 72.5905 27.6218 72.188 28.3961 71.8996C28.693 71.7983 28.9755 71.6588 29.2369 71.4845C29.4393 71.3288 29.5822 70.8541 29.6659 70.0604C29.7495 69.2668 29.7914 67.8003 29.7914 65.6609C29.7914 64.3029 29.7763 63.4285 29.7463 63.0378C29.7494 62.79 29.7072 62.5437 29.6219 62.3112C29.4789 62.0711 29.1064 61.9032 28.5044 61.8073C27.0448 61.6754 25.5789 61.627 24.1139 61.6624C22.1355 61.6624 20.8032 61.6985 20.1168 61.7706C19.642 61.7779 19.1771 61.9082 18.7667 62.149C18.6403 62.3056 18.5653 62.4979 18.5521 62.6994C18.4943 63.1688 18.4706 63.6418 18.4814 64.1147V65.6652C18.4814 67.8046 18.5229 69.2711 18.6058 70.0648C18.6887 70.8584 18.8317 71.3331 19.0347 71.4888C19.2906 71.6614 19.5669 71.8009 19.8573 71.904C20.6195 72.1923 21.0009 72.5949 21.0016 73.1117C21.0016 73.6639 20.6617 74.0485 19.9817 74.2654C18.6715 74.5428 17.3317 74.6517 15.9944 74.5898C14.6716 74.6487 13.3468 74.5397 12.051 74.2654C11.3539 74.0491 11.005 73.6646 11.0043 73.1117C11.0043 72.6072 11.3918 72.2046 12.1668 71.904C12.4572 71.8009 12.7336 71.6614 12.9894 71.4888C13.2518 71.2963 13.4398 70.4068 13.5535 68.8203C13.6672 67.2337 13.7222 64.5534 13.7186 60.7791Z" fill="black"/>
<path id="Shape_4" d="M45.2515 64.89H45.0017C44.5833 64.8433 44.1599 64.899 43.7673 65.0521C43.6365 65.1603 43.571 65.4486 43.571 65.9171C43.5781 67.437 44.1825 68.892 45.2518 69.9633C46.321 71.0346 47.7679 71.6349 49.2754 71.6326C49.9429 71.6343 50.6065 71.5307 51.2422 71.3255C51.8997 71.1084 52.521 70.7924 53.0847 70.3881C53.252 70.2677 53.4786 70.0933 53.7646 69.8648C54.1556 69.461 54.6616 69.19 55.2124 69.0895C55.3381 69.0856 55.4633 69.1076 55.5803 69.1542C55.6971 69.2009 55.8034 69.2712 55.8924 69.3609C55.9788 69.4447 56.0472 69.5456 56.0933 69.6571C56.1395 69.7688 56.1623 69.8888 56.1604 70.0097C56.1189 70.4175 55.9571 70.8035 55.6961 71.1179C55.3398 71.6043 54.9182 72.0384 54.4434 72.4078C53.509 73.2171 52.4526 73.8712 51.3141 74.3454C49.6324 74.9681 47.81 75.0972 46.0585 74.7177C44.3069 74.3382 42.6981 73.4656 41.4186 72.2013C40.5467 71.3111 39.862 70.2526 39.4058 69.0891C38.9495 67.9257 38.7309 66.6813 38.7633 65.4306C38.7166 64.1016 38.9339 62.7767 39.4022 61.5336C39.8705 60.2905 40.5805 59.1543 41.4905 58.1917C42.3937 57.2535 43.4817 56.5161 44.6844 56.0271C45.8872 55.5382 47.1782 55.3083 48.4743 55.3524C49.5121 55.2971 50.5504 55.4513 51.5285 55.8058C52.5064 56.1601 53.4045 56.7078 54.17 57.4165C54.8836 58.1497 55.4388 59.0242 55.8004 59.9846C56.162 60.9451 56.3222 61.9707 56.2709 62.9967C56.3323 63.5287 56.2124 64.066 55.931 64.5202C55.705 64.7667 55.127 64.89 54.1968 64.89H45.2515ZM44.8762 62.7448H50.9205C51.2435 62.7726 51.5683 62.7229 51.8686 62.5999C51.9526 62.5356 52.0184 62.45 52.0593 62.3519C52.1001 62.2538 52.1147 62.1465 52.1013 62.0409C52.1154 61.4757 52.0157 60.9136 51.8081 60.3883C51.6005 59.8631 51.2894 59.3858 50.8937 58.9853C50.4974 58.5785 50.0221 58.2589 49.4974 58.0464C48.9726 57.8338 48.41 57.7331 47.8447 57.7505C47.297 57.7354 46.7523 57.8376 46.2467 58.0504C45.7411 58.2633 45.286 58.582 44.9116 58.9853C44.5281 59.3926 44.228 59.8721 44.0286 60.3964C43.8291 60.9207 43.7341 61.4796 43.749 62.0409C43.7355 62.1447 43.748 62.2503 43.7855 62.348C43.823 62.4457 43.8842 62.5323 43.9636 62.5999C44.251 62.7242 44.5647 62.774 44.8762 62.7448Z" fill="black"/>
<path id="Shape_5" d="M73.7089 69.2712C73.6873 69.8064 73.7478 70.3418 73.888 70.8585C73.921 71.0018 73.9889 71.1345 74.0858 71.2446C74.1826 71.3547 74.3052 71.4387 74.4425 71.4888C74.5854 71.5378 74.776 71.5919 75.0141 71.651C75.8005 71.8673 76.1937 72.1859 76.1937 72.6068C76.1937 73.208 75.7766 73.7518 74.9423 74.2384C74.0525 74.7396 73.0462 74.9919 72.0273 74.9693C71.6858 74.9329 71.3552 74.8271 71.0555 74.6581C70.7557 74.4892 70.4931 74.2607 70.2835 73.9864C69.9817 73.6363 69.656 73.3079 69.3087 73.0036C69.0177 73.0912 68.7452 73.2315 68.5043 73.4177C67.1396 74.3851 65.5228 74.9262 63.8553 74.9737C62.2385 75.0452 60.6588 74.4719 59.4582 73.3778C58.9002 72.8421 58.4616 72.1928 58.1719 71.473C57.8821 70.7531 57.7478 69.9794 57.7777 69.2031C57.7366 68.3026 57.9118 67.4054 58.2884 66.5878C58.665 65.7703 59.2319 65.0565 59.9408 64.5072C61.714 63.2839 63.8406 62.6905 65.9852 62.8205C66.4742 62.8205 67.0079 62.8476 67.5863 62.9016C68.1647 62.9557 68.7875 63.0371 69.4545 63.1459L69.4728 61.1619C69.5317 60.2541 69.2791 59.3535 68.7574 58.6112C68.5108 58.3121 68.1979 58.0754 67.844 57.9203C67.4901 57.7651 67.1051 57.6959 66.7198 57.7182C66.1294 57.7139 65.5468 57.8529 65.0211 58.1236C64.4403 58.4404 63.9245 58.8657 63.5014 59.3767C63.4048 59.4849 63.274 59.6481 63.1078 59.8644C62.8465 60.2757 62.494 60.6202 62.078 60.8705C61.662 61.1208 61.194 61.2702 60.7109 61.3067C60.4931 61.3165 60.2758 61.2788 60.0738 61.1963C59.8717 61.1139 59.6896 60.9885 59.5398 60.8288C59.2336 60.4723 59.0763 60.01 59.1011 59.539C59.1481 58.8886 59.3752 58.2645 59.7568 57.7378C60.1382 57.2112 60.6587 56.8032 61.2589 56.5601C62.9819 55.6905 64.8953 55.2749 66.8206 55.3524C68.0298 55.3243 69.2345 55.5102 70.38 55.9016C71.2813 56.2069 72.0802 56.7596 72.6869 57.4976C73.0882 58.0534 73.3572 58.6949 73.4729 59.3725C73.663 60.6432 73.7409 61.9284 73.7057 63.213L73.7089 69.2712ZM69.4524 65.5387C68.9633 65.4306 68.4936 65.3495 68.0399 65.2954C67.613 65.243 67.1832 65.216 66.753 65.2144C65.6383 65.1476 64.5341 65.4656 63.6226 66.1162C63.253 66.4112 62.9582 66.7904 62.7624 67.2228C62.5666 67.6551 62.4755 68.1282 62.4965 68.603C62.4773 69.05 62.5545 69.4959 62.7228 69.9099C62.8911 70.324 63.1465 70.6963 63.4713 71.0012C64.1972 71.6302 65.1355 71.9531 66.0914 71.9029C66.5568 71.9491 67.0267 71.9011 67.4735 71.7616C67.9202 71.6222 68.3349 71.3941 68.6931 71.0909C69.2908 70.2976 69.5686 69.3056 69.4706 68.3143L69.4524 65.5387Z" fill="black"/>
<path id="Path_9" d="M79.2762 60.0395V58.5971C79.2762 55.4601 79.2225 53.4349 79.1153 52.5216C79.008 51.6084 78.8232 51.0793 78.5608 50.9344C78.1947 50.7567 77.8112 50.6179 77.4165 50.5203C76.6301 50.304 76.2368 49.9735 76.2368 49.5288C76.235 49.3785 76.2671 49.2297 76.3306 49.0937C76.3942 48.9577 76.4875 48.8381 76.6036 48.7438C77.1244 48.4022 77.6946 48.144 78.2938 47.9783C79.11 47.6895 79.9431 47.4515 80.7883 47.2657C81.4246 47.113 82.0745 47.0254 82.7283 47.0041C82.8784 46.9895 83.0297 47.0142 83.1676 47.0757C83.3054 47.1373 83.4253 47.2336 83.5155 47.3555C83.7024 47.7387 83.7828 48.1658 83.7482 48.5913C83.7482 48.7593 83.7361 49.2401 83.7117 50.0337C83.5687 54.4927 83.4973 59.0001 83.4973 63.5557C83.4973 66.8852 83.5363 69.0099 83.6142 69.9297C83.605 70.536 83.7493 71.1348 84.0334 71.6693C84.3489 71.9089 84.703 72.0918 85.0802 72.21C85.32 72.2679 85.5344 72.4031 85.691 72.5951C85.8476 72.7872 85.9378 73.0255 85.9478 73.2739C85.9478 73.7547 85.6379 74.0942 85.018 74.2924C83.9152 74.5408 82.7847 74.6408 81.6559 74.5897C80.399 74.6528 79.1392 74.55 77.9088 74.2838C77.6513 74.2286 77.4206 74.0853 77.256 73.8781C77.0914 73.671 77.003 73.4128 77.0057 73.1474C77.0057 72.7639 77.2621 72.4575 77.7747 72.2284C78.1137 72.1002 78.433 71.924 78.7227 71.705C79.0165 71.2788 79.1753 70.773 79.1785 70.254C79.2876 69.022 79.3323 67.7853 79.3126 66.5486C79.3126 66.044 79.3069 65.0709 79.2955 63.6292C79.284 62.1875 79.2775 60.991 79.2762 60.0395Z" fill="black"/>
<path id="Path_10" d="M97.593 55.8745C97.8203 55.8483 98.0483 55.9132 98.2284 56.0552C98.3659 56.2617 98.426 56.5108 98.3979 56.7579V57.2088C98.4199 57.4584 98.353 57.7079 98.2102 57.9127C98.1288 57.9915 98.0316 58.0516 97.9252 58.089C97.8188 58.1263 97.7055 58.1399 97.593 58.129H93.7543C93.6973 58.1279 93.641 58.1414 93.5909 58.1683C93.5407 58.1952 93.4981 58.2345 93.4677 58.2825C93.3879 58.4152 93.3507 58.569 93.3606 58.7236V68.0634C93.2648 69.0902 93.4024 70.1257 93.7626 71.0909C93.9397 71.3125 94.1692 71.4852 94.4307 71.5925C94.6921 71.6997 94.9764 71.7381 95.256 71.7039C95.7728 71.6804 96.282 71.5773 96.7677 71.3979C97.1781 71.2388 97.6082 71.1356 98.046 71.0909C98.2953 71.0816 98.5385 71.1687 98.7254 71.3342C98.8136 71.4148 98.8835 71.5138 98.9299 71.6243C98.9762 71.7349 98.9983 71.8543 98.9937 71.9743C98.9937 72.6597 98.4663 73.324 97.4106 73.9669C96.3276 74.6178 95.0865 74.9518 93.8257 74.9315C93.1197 74.942 92.4159 74.8387 91.7418 74.6254C91.1551 74.4369 90.6147 74.1231 90.1587 73.7053C89.6959 73.2585 89.3729 72.685 89.2292 72.0553C89.0028 70.7857 88.9131 69.4952 88.9609 68.2061V58.129H87.2449C87.0518 58.1493 86.8588 58.0978 86.7004 57.9841C86.6438 57.9176 86.601 57.8402 86.5749 57.7565C86.5487 57.6729 86.5396 57.5848 86.5482 57.4975V57.0467C86.5482 56.6379 87.1977 55.8749 88.4966 54.7577C88.8196 54.4809 89.0765 54.2585 89.2665 54.0905C89.4337 53.9464 89.6715 53.7359 89.9824 53.4591C91.2691 52.3173 92.1507 51.7464 92.628 51.7464C92.837 51.7344 93.0444 51.7913 93.2185 51.9086C93.2884 51.9603 93.3446 52.0285 93.3819 52.1071C93.4191 52.1857 93.4366 52.2724 93.4335 52.3595V55.8745H97.593Z" fill="black"/>
<path id="Path_11" d="M105.985 57.7818C105.975 57.9365 106.003 58.0912 106.065 58.2328C106.094 58.2808 106.135 58.3198 106.183 58.3452C106.233 58.3707 106.288 58.3816 106.343 58.3765C106.391 58.3765 106.525 58.236 106.746 57.9527C106.949 57.6907 107.167 57.4409 107.399 57.2045C107.979 56.6263 108.657 56.1562 109.401 55.8161C110.1 55.5049 110.855 55.3454 111.619 55.348C112.52 55.2831 113.424 55.4395 114.252 55.8036C115.081 56.1678 115.809 56.729 116.376 57.4391C117.424 58.8339 117.949 60.9434 117.949 63.7676C117.949 63.8044 117.955 64.3875 117.967 65.517C117.979 66.6466 117.985 67.7639 117.985 68.8689V69.9328C117.959 70.3967 118.02 70.8614 118.164 71.3028C118.286 71.5824 118.492 71.8159 118.754 71.9699C118.911 72.0457 119.072 72.1122 119.237 72.1689C119.845 72.3966 120.149 72.721 120.149 73.142C120.154 73.4051 120.068 73.6618 119.907 73.8688C119.745 74.0758 119.519 74.2205 119.264 74.2783C118.004 74.5476 116.715 74.6505 115.428 74.5843C114.308 74.6355 113.186 74.5355 112.092 74.287C111.478 74.0887 111.171 73.7492 111.171 73.2685C111.171 72.7877 111.487 72.433 112.12 72.2045C112.36 72.1224 112.593 72.02 112.817 71.8985C112.983 71.774 113.123 71.6159 113.226 71.4343C113.329 71.2526 113.394 71.0514 113.416 70.8432C113.557 69.922 113.613 68.9897 113.586 68.0579C113.586 64.0314 113.335 61.5103 112.835 60.4947C112.586 59.9949 112.193 59.5823 111.708 59.3105C111.224 59.0388 110.669 58.9206 110.116 58.9712C109.435 58.9753 108.772 59.1856 108.212 59.5745C107.612 59.9749 107.133 60.5331 106.825 61.1888C106.506 61.9006 106.312 62.6632 106.253 63.4422C106.146 64.4037 106.092 66.1106 106.092 68.5629C106.062 69.4014 106.113 70.2408 106.245 71.0692C106.272 71.2384 106.335 71.3998 106.43 71.5427C106.524 71.6856 106.647 71.8069 106.791 71.8985C107.014 72.02 107.247 72.1224 107.487 72.2045C108.119 72.4323 108.435 72.7869 108.436 73.2685C108.436 73.75 108.132 74.0895 107.523 74.287C106.439 74.5356 105.325 74.6356 104.214 74.5843C102.931 74.6496 101.645 74.5468 100.388 74.2783C100.131 74.222 99.9026 74.0781 99.74 73.871C99.5766 73.6639 99.49 73.4063 99.4938 73.142C99.4938 72.7333 99.7917 72.415 100.388 72.1872C100.56 72.1273 100.727 72.055 100.889 71.9709C101.072 71.8496 101.23 71.692 101.351 71.5076C101.473 71.3233 101.556 71.1161 101.595 70.8984C101.767 69.9623 101.835 69.0102 101.8 68.059V62.1447C101.8 57.8053 101.762 54.9508 101.685 53.5812C101.712 52.7451 101.575 51.9117 101.282 51.129C100.897 50.8389 100.45 50.6444 99.9764 50.5613C99.2369 50.3501 98.8675 50.0283 98.8683 49.5958C98.8706 49.4254 98.9131 49.258 98.9922 49.1075C99.0712 48.957 99.1852 48.8279 99.3243 48.7308C99.9878 48.315 100.7 47.9821 101.443 47.7393C102.047 47.5207 102.665 47.349 103.295 47.2257C103.862 47.1065 104.44 47.0428 105.02 47.0354C105.185 47.0183 105.351 47.0413 105.505 47.1027C105.659 47.164 105.796 47.2619 105.904 47.3879C106.11 47.7519 106.2 48.17 106.164 48.587C106.164 48.6702 106.152 48.9352 106.129 49.3795C106.034 51.8304 105.986 54.3248 105.985 56.8628V57.7818Z" fill="black"/>
<path id="Path_12" d="M133.191 69.5781C131.152 74.7825 129.472 78.1704 128.15 79.7418C127.595 80.4678 126.883 81.057 126.067 81.4645C125.253 81.8722 124.357 82.0876 123.447 82.0946C122.627 82.1243 121.825 81.8483 121.195 81.3193C120.908 81.0812 120.679 80.7807 120.524 80.4405C120.369 80.1002 120.293 79.729 120.3 79.3547C120.297 79.0553 120.352 78.758 120.465 78.4807C120.576 78.2034 120.743 77.9516 120.953 77.7404C121.26 77.4285 121.649 77.2122 122.073 77.1179C122.498 77.0235 122.941 77.0549 123.35 77.2084C123.573 77.2981 123.772 77.4405 123.931 77.6236C124.062 77.7912 124.229 78.0258 124.431 78.3264C124.753 78.8195 125.034 79.066 125.272 79.066C125.903 79.066 126.545 78.6061 127.195 77.6864C127.812 76.8621 128.153 75.8613 128.169 74.8286C128.029 73.2321 127.586 71.6776 126.864 70.2495C126.78 70.0456 126.715 69.8953 126.668 69.7987C125.606 67.42 124.613 65.2214 123.689 63.2031C122.766 61.1848 122.197 59.9645 121.982 59.542C121.659 59.0064 121.158 58.604 120.569 58.4067C120.569 58.3948 120.563 58.3884 120.551 58.3884C120.227 58.2857 119.93 58.1101 119.683 57.8748C119.531 57.6907 119.451 57.4561 119.46 57.2163C119.46 56.6641 119.787 56.2796 120.444 56.0627C121.658 55.7887 122.903 55.6796 124.145 55.7382C125.363 55.6803 126.583 55.7802 127.775 56.0356C128.383 56.2345 128.687 56.5863 128.688 57.0909C128.692 57.2865 128.653 57.4806 128.572 57.6586C128.501 57.8127 128.385 57.9415 128.241 58.0283C128.02 58.1426 127.792 58.2447 127.561 58.3343C127.085 58.5268 126.846 58.7311 126.846 58.9474C126.904 59.4259 127.028 59.8938 127.214 60.3379C127.465 61.0284 127.965 62.2873 128.716 64.1146C129.431 65.8446 129.949 67.0134 130.272 67.6211C130.595 68.2288 130.845 68.5322 131.022 68.5315C131.143 68.5315 131.345 68.2341 131.63 67.6394C131.916 67.0448 132.321 66.0623 132.846 64.692C133.478 63.081 133.937 61.8335 134.224 60.9498C134.442 60.3727 134.586 59.7699 134.653 59.156C134.653 58.7957 134.304 58.4172 133.607 58.0208C132.91 57.6243 132.561 57.2639 132.561 56.9395C132.561 56.507 132.844 56.1974 133.411 56.0107C134.38 55.7808 135.376 55.687 136.37 55.7318C137.386 55.6769 138.405 55.7772 139.392 56.0291C139.621 56.0908 139.824 56.2283 139.966 56.4196C140.109 56.611 140.184 56.8451 140.179 57.0844C140.179 57.5406 139.827 57.8589 139.124 58.0392C138.859 58.1021 138.601 58.193 138.355 58.3106C137.651 58.6947 136.9 59.9508 136.103 62.0787C135.877 62.7036 135.698 63.1844 135.566 63.521L133.191 69.5781Z" fill="black"/>
</g>
</g>
</svg>
