<svg width="31" height="30" viewBox="0 0 31 30" fill="none" xmlns="http://www.w3.org/2000/svg">
<g id="svg">
<g clip-path="url(#clip0_51_216)">
<g id="Frame">
<path id="Vector" d="M3.39648 20.6745C3.2746 20.6604 3.08476 20.5526 2.94976 20.4401C1.66538 19.1815 3.31444 17.7354 5.22226 16.8964V14.5034C5.66851 14.7879 5.91226 14.8011 5.92538 14.8409L7.386 13.3943L6.8985 12.1498C11.1735 10.6756 12.8901 10.1075 16.3663 9.52574L15.7429 8.94355L16.7577 8.3623C19.1015 9.13387 21.3027 9.33637 20.9235 11.2967C21.0187 9.97105 19.3682 9.45684 16.8524 8.75371L16.3659 9.0509L17.3034 9.82199C13.138 10.5392 10.5815 11.3501 7.53835 12.4001L7.95695 13.4782L6.42882 14.9792C6.68663 15.0467 9.35007 15.9401 12.1223 14.0056C12.1223 14.0056 12.1771 13.9648 12.1771 13.9512C12.0965 13.8162 11.9062 13.6667 11.6769 13.4646C12.4879 13.519 13.0148 14.2357 12.9205 14.9796H12.5423C12.5645 14.7486 12.5272 14.5158 12.434 14.3032C10.2834 15.8726 7.79476 16.1023 5.67085 15.3579V17.2104C4.64335 17.5761 2.80303 18.7104 2.81147 19.8073C2.87897 20.3342 3.14992 20.5236 3.39273 20.6595" fill="black"/>
<path id="Vector_2" d="M12.0938 20.2007C9.7932 21.3642 7.59383 22.2975 4.19446 22.432C-0.228201 22.3368 -0.917731 19.402 1.17805 16.3317C3.15289 13.2346 6.2907 10.4348 11.282 8.68918C12.7285 8.17636 14.8538 7.59418 16.9079 7.56699C19.861 7.5398 22.7204 8.45996 22.5343 11.287C22.4265 13.4512 19.3023 16.5079 17.6513 18.6993C16.9482 19.6584 16.8263 20.2814 18.0296 20.2275C22.3993 19.9429 26.3616 18.4284 30.0409 16.8595C27.5527 18.5503 14.6893 24.9201 14.6359 20.5795C14.649 20.024 14.9059 19.4432 15.3249 18.8207C15.7313 18.1987 16.2999 17.5486 16.8812 16.8862C17.7601 15.8854 19.9365 13.4915 20.6677 12.0571C21.8987 9.3384 19.1396 9.19777 16.7584 8.3648L15.7435 8.94605L16.3669 9.52824C12.8907 10.1095 11.1732 10.6776 6.89914 12.1523L7.38664 13.3968L5.92602 14.8434C5.88524 14.8031 5.66821 14.79 5.22289 14.5059V16.8998C3.31508 17.7436 1.66038 19.185 2.95038 20.4436C3.08538 20.5514 3.2757 20.6601 3.39757 20.6779C5.74132 22.0036 12.107 20.2092 12.0948 20.2092" fill="#FF6600"/>
</g>
</g>
</g>
<defs>
<clipPath id="clip0_51_216">
<rect x="0.0415039" width="30" height="30" rx="10" fill="white"/>
</clipPath>
</defs>
</svg>
