<svg width="31" height="30" viewBox="0 0 31 30" fill="none" xmlns="http://www.w3.org/2000/svg">
<g id="Frame">
<path id="Vector" d="M0.0415039 6.55762H30.0415V23.4427H0.0415039V6.55762Z" fill="#FFF22D"/>
<path id="Vector_2" d="M3.83933 8.13965H26.2255C26.8726 8.14157 27.4926 8.39946 27.9501 8.85698C28.4076 9.3145 28.6655 9.93448 28.6674 10.5815V19.4818C28.6655 20.1288 28.4076 20.7488 27.9501 21.2064C27.4926 21.6639 26.8726 21.9218 26.2255 21.9237H3.83933C3.1923 21.9218 2.57231 21.6639 2.11479 21.2064C1.65727 20.7488 1.39938 20.1288 1.39746 19.4818V10.5809C1.39938 9.93388 1.65729 9.31397 2.11483 8.85655C2.57237 8.39913 3.19236 8.1414 3.83933 8.13965Z" fill="#CF4037"/>
<path id="Vector_3" d="M3.8393 9.2251H26.2255C26.9715 9.2251 27.5816 9.83523 27.5816 10.5805V19.4808C27.5804 19.84 27.4371 20.1842 27.183 20.4381C26.929 20.6921 26.5847 20.8352 26.2255 20.8362H3.8393C3.48015 20.8352 3.136 20.692 2.88204 20.4381C2.62807 20.1841 2.48494 19.84 2.48389 19.4808V10.5805C2.48389 9.83523 3.09336 9.2251 3.8393 9.2251Z" fill="white"/>
<path id="Vector_4" d="M3.83952 9.83594H26.2257C26.6351 9.83594 26.971 10.1711 26.971 10.5806V19.4809C26.971 19.8903 26.6358 20.2255 26.2257 20.2255H3.83952C3.64213 20.2249 3.45297 20.1463 3.31334 20.0068C3.1737 19.8673 3.09494 19.6782 3.09424 19.4809V10.5806C3.09424 10.1711 3.42945 9.83594 3.83952 9.83594Z" fill="black"/>
<path id="Vector_5" d="M24.5989 15.0026C24.5989 15.1271 24.636 15.2225 24.7095 15.2908C24.7793 15.3571 24.8723 15.3935 24.9685 15.3921C25.0192 15.3922 25.0693 15.3822 25.116 15.3625C25.1626 15.3428 25.2048 15.3139 25.2401 15.2775C25.2753 15.2412 25.3029 15.1981 25.3211 15.1509C25.3393 15.1036 25.3478 15.0532 25.3461 15.0026C25.3485 14.9543 25.3393 14.9062 25.3194 14.8622C25.2994 14.8182 25.2693 14.7796 25.2315 14.7495C25.157 14.6897 25.0641 14.6576 24.9685 14.6588C24.874 14.6577 24.7824 14.6911 24.7108 14.7528C24.6741 14.783 24.6449 14.8212 24.6255 14.8645C24.606 14.9079 24.5969 14.9551 24.5989 15.0026ZM23.4356 15.0033C23.4356 14.8019 23.4733 14.6078 23.5495 14.4223C23.6229 14.2387 23.7308 14.0709 23.8675 13.9281C24.0038 13.7853 24.1677 13.6716 24.3492 13.5939C24.5307 13.5163 24.7261 13.4762 24.9235 13.4763C25.162 13.4763 25.3793 13.5173 25.5754 13.5995C25.7728 13.681 25.9404 13.7929 26.0802 13.936C26.2199 14.0791 26.3273 14.2381 26.3995 14.4156C26.4723 14.5919 26.5094 14.7734 26.5094 14.9569C26.5094 15.2841 26.4346 15.571 26.2849 15.8188C26.1435 16.059 25.9394 16.2564 25.6946 16.3898C25.4583 16.5197 25.1931 16.5878 24.9235 16.5879C24.7665 16.5879 24.6022 16.5541 24.4293 16.4885C24.2504 16.4167 24.0852 16.3145 23.941 16.1864C23.7887 16.0506 23.6648 15.8843 23.5727 15.6849C23.4806 15.4855 23.4356 15.2576 23.4356 15.0033ZM18.7407 15.4239V16.5746C17.8311 16.5872 17.0315 16.1692 17.0315 15.0139C17.0315 14.042 17.6847 13.5306 18.5956 13.5306C19.5065 13.5306 20.1385 14.1434 20.1385 15.0914V16.5746H18.9288V15.0808C18.9288 14.8118 18.783 14.6747 18.6088 14.6733C18.4346 14.672 18.2319 14.7562 18.2266 14.9993C18.2213 15.2424 18.3061 15.4604 18.7407 15.4239ZM8.1166 14.6283V13.51C9.05864 13.4975 9.83373 14.0314 9.83373 15.0211C9.83373 15.9102 9.08116 16.5872 8.19478 16.5872C7.30839 16.5872 6.73535 15.7684 6.73535 15.0264V12.3428H7.86221V14.9794C7.86221 15.2477 8.01591 15.4518 8.265 15.4531C8.51342 15.4544 8.70024 15.3365 8.69627 15.0278C8.69229 14.7191 8.4273 14.5919 8.1166 14.6283ZM21.9675 15.3663V16.4786C21.0918 16.4918 20.3319 15.9128 20.322 15.0139C20.312 14.1387 20.9513 13.5306 21.8284 13.5306C22.7055 13.5306 23.3137 14.1434 23.3137 15.0914V16.2202C23.3137 17.0675 22.5631 17.7711 21.5648 17.7711H20.4485L20.4492 16.7396H21.5681C21.9576 16.7396 22.2014 16.6939 22.2014 16.2759V15.0225C22.2014 14.7535 22.008 14.6164 21.8397 14.615C21.6714 14.6137 21.4767 14.6979 21.4714 14.941C21.468 15.1848 21.5495 15.4027 21.9675 15.3663ZM12.5134 13.5273H13.6847V15.2252C13.6847 15.3279 13.7781 15.4279 13.902 15.4279C14.0199 15.4279 14.1352 15.3385 14.1352 15.2252V13.5273H15.3071V15.2947C15.3071 15.5604 15.2388 15.7909 15.1037 15.985C14.9694 16.1782 14.7847 16.3308 14.5697 16.4262C14.1934 16.5977 13.7665 16.6218 13.3733 16.4938C13.2127 16.4406 13.0634 16.3577 12.9334 16.2494C12.8022 16.1394 12.6972 16.0016 12.626 15.8459C12.5486 15.6729 12.5101 15.485 12.5134 15.2954V13.5273ZM15.4396 16.5746H16.6115V14.8767C16.6115 14.774 16.7049 14.6588 16.8281 14.6594H16.9752V13.5359C16.7473 13.5122 16.517 13.537 16.2994 13.6088C16.1389 13.6618 15.9899 13.7448 15.8602 13.8532C15.7287 13.9632 15.6234 14.1013 15.5522 14.2573C15.475 14.4302 15.4366 14.6179 15.4396 14.8072V16.5746Z" fill="white"/>
<path id="Vector_6" d="M8.24555 10.9756L8.11438 10.9776V13.285C8.36109 13.2611 8.61007 13.289 8.84538 13.3669C9.08069 13.4448 9.29714 13.5709 9.48086 13.7373C9.66458 13.9037 9.81153 14.1066 9.9123 14.3331C10.0131 14.5596 10.0654 14.8046 10.066 15.0524C10.065 15.5234 9.87732 15.9747 9.54418 16.3076C9.21104 16.6405 8.75956 16.8278 8.28861 16.8285C7.39692 16.8285 6.51053 15.9249 6.51053 15.0339V11.0047H4.16406L4.16539 15.0557C4.16605 17.3028 5.99844 19.1359 8.24555 19.1359C10.4926 19.1359 12.3257 17.3028 12.3257 15.0557C12.3257 12.8086 10.4926 10.9756 8.24555 10.9756Z" fill="#CF4037"/>
<path id="Vector_7" d="M25.8157 13.2665C25.8157 13.122 25.8628 13.0054 25.9575 12.918C26.0448 12.8314 26.1613 12.7804 26.2841 12.7749H26.302C26.4244 12.777 26.5416 12.8253 26.6299 12.91C26.6797 12.9548 26.7189 13.0101 26.7448 13.0718C26.7707 13.1335 26.7826 13.2002 26.7796 13.2671C26.7825 13.334 26.7706 13.4007 26.7447 13.4624C26.7188 13.5241 26.6796 13.5794 26.6299 13.6242C26.5412 13.7085 26.4243 13.7567 26.302 13.7593H26.3H26.2841C26.1613 13.7536 26.045 13.7026 25.9575 13.6162C25.9105 13.5713 25.8736 13.5168 25.8491 13.4565C25.8247 13.3963 25.8133 13.3315 25.8157 13.2665ZM25.9072 13.2665V13.2863C25.9118 13.3857 25.9496 13.4771 26.0205 13.5599C26.0542 13.6004 26.0967 13.6327 26.1448 13.6543C26.1929 13.6759 26.2453 13.6862 26.298 13.6845C26.351 13.6865 26.4038 13.6763 26.4523 13.6547C26.5007 13.6331 26.5436 13.6007 26.5776 13.5599C26.645 13.4841 26.6848 13.3877 26.6902 13.2863V13.2771V13.2665V13.2645V13.2618C26.6887 13.1577 26.6507 13.0573 26.5829 12.9783C26.5487 12.9361 26.5051 12.9025 26.4557 12.8801C26.4063 12.8577 26.3523 12.847 26.298 12.8491C26.2447 12.8473 26.1918 12.8578 26.1432 12.8797C26.0946 12.9017 26.0517 12.9345 26.0178 12.9756C25.95 13.0529 25.9109 13.1512 25.9072 13.2539V13.2665ZM26.1225 13.016H26.3358L26.3596 13.0174C26.368 13.0186 26.3764 13.0195 26.3848 13.02C26.412 13.0266 26.4371 13.0399 26.4603 13.0598C26.4829 13.0796 26.4948 13.1121 26.4948 13.1578L26.4941 13.1724L26.4921 13.187C26.4882 13.2029 26.4802 13.2181 26.4689 13.2327C26.4577 13.2472 26.4385 13.2598 26.4133 13.2698V13.2724C26.4358 13.2771 26.4517 13.287 26.4603 13.3016C26.4689 13.3163 26.4747 13.3325 26.4776 13.3493L26.4802 13.3705C26.4815 13.3771 26.4815 13.3837 26.4815 13.3903L26.4829 13.4155C26.4829 13.4235 26.4829 13.4301 26.4842 13.4367C26.4842 13.4506 26.4848 13.4619 26.4862 13.4712C26.4878 13.4818 26.4916 13.4919 26.4974 13.501L26.5007 13.5063H26.408C26.3999 13.495 26.3928 13.483 26.3868 13.4705C26.383 13.4576 26.3808 13.4442 26.3802 13.4307L26.3808 13.3943L26.3815 13.3804L26.3822 13.3672C26.3828 13.3501 26.3769 13.3335 26.3656 13.3208C26.3543 13.3089 26.3272 13.3029 26.2841 13.3029H26.2112V13.5063H26.1211V13.016H26.1225ZM26.2119 13.2366H26.3146C26.349 13.2366 26.3729 13.2287 26.3848 13.2128C26.3973 13.1972 26.4038 13.1778 26.4034 13.1578C26.4034 13.1267 26.3934 13.1068 26.3742 13.0975C26.3526 13.0877 26.329 13.0829 26.3053 13.0836H26.2126V13.2366H26.2119Z" fill="white"/>
</g>
</svg>
