<svg width="31" height="30" viewBox="0 0 31 30" fill="none" xmlns="http://www.w3.org/2000/svg">
<g id="svg">
<g clip-path="url(#clip0_51_297)">
<g id="Frame">
<path id="Vector" d="M3.92079 11.6123C1.80478 11.6123 0.0415039 12.5099 0.0415039 15.2183C0.0415039 17.3639 1.22719 18.715 3.97533 18.715C7.21008 18.715 7.41742 16.5842 7.41742 16.5842H5.85008C5.85008 16.5842 5.51405 17.7316 3.87976 17.7316C2.54868 17.7316 1.59134 16.8324 1.59134 15.5721H7.58143V14.7812C7.58143 13.5344 6.7899 11.6123 3.92079 11.6123ZM3.86605 12.6231C5.1331 12.6231 5.99687 13.3993 5.99687 14.5627H1.62596C1.62596 13.3275 2.75351 12.6231 3.86605 12.6231Z" fill="#E53238"/>
<path id="Vector_2" d="M7.58031 8.98975V17.355C7.58031 17.8298 7.54639 18.4966 7.54639 18.4966H9.04128C9.04128 18.4966 9.09502 18.0178 9.09502 17.5801C9.09502 17.5801 9.83361 18.7356 11.842 18.7356C13.9568 18.7356 15.3933 17.2673 15.3933 15.1638C15.3933 13.2068 14.0738 11.6328 11.8454 11.6328C9.75856 11.6328 9.11013 12.7597 9.11013 12.7597V8.98975H7.58031ZM11.4595 12.6675C12.8957 12.6675 13.809 13.7334 13.809 15.1638C13.809 16.6976 12.7542 17.701 11.4698 17.701C9.93698 17.701 9.11013 16.5041 9.11013 15.1774C9.11013 13.9411 9.85202 12.6675 11.4595 12.6675Z" fill="#0064D2"/>
<path id="Vector_3" d="M19.1087 11.6123C15.9254 11.6123 15.7212 13.3553 15.7212 13.6339H17.3057C17.3057 13.6339 17.3887 12.6163 18.9994 12.6163C20.046 12.6163 20.857 13.0954 20.857 14.0163V14.3441H18.9994C16.5333 14.3441 15.2295 15.0656 15.2295 16.5297C15.2295 17.9704 16.4341 18.7544 18.0621 18.7544C20.2808 18.7544 20.9954 17.5284 20.9954 17.5284C20.9954 18.0161 21.033 18.4966 21.033 18.4966H22.4415C22.4415 18.4966 22.387 17.901 22.387 17.5199V14.2263C22.387 12.0667 20.645 11.6123 19.1087 11.6123ZM20.857 15.3276V15.7647C20.857 16.3348 20.5052 17.7521 18.4342 17.7521C17.3002 17.7521 16.8139 17.1861 16.8139 16.5296C16.8139 15.3353 18.4513 15.3276 20.857 15.3276Z" fill="#F5AF02"/>
<path id="Vector_4" d="M21.5337 11.8857H23.3162L25.8744 17.011L28.4267 11.8857H30.0415L25.3925 21.0102H23.6986L25.0401 18.4666L21.5337 11.8857Z" fill="#86B817"/>
</g>
</g>
</g>
<defs>
<clipPath id="clip0_51_297">
<rect x="0.0415039" width="30" height="30" rx="10" fill="white"/>
</clipPath>
</defs>
</svg>
