<svg width="17" height="14" viewBox="0 0 17 14" fill="none" xmlns="http://www.w3.org/2000/svg">
<g id="svg">
<g id="Frame">
<g id="Group">
<path id="Vector" d="M8.90072 3.79167C9.94776 3.79167 10.7965 2.94287 10.7965 1.89583C10.7965 0.848793 9.94776 0 8.90072 0C7.85368 0 7.00488 0.848793 7.00488 1.89583C7.00488 2.94287 7.85368 3.79167 8.90072 3.79167Z" fill="#9EA9B4"/>
<path id="Vector_2" d="M8.90072 8.89567C9.94776 8.89567 10.7965 8.04688 10.7965 6.99984C10.7965 5.9528 9.94776 5.104 8.90072 5.104C7.85368 5.104 7.00488 5.9528 7.00488 6.99984C7.00488 8.04688 7.85368 8.89567 8.90072 8.89567Z" fill="#9EA9B4"/>
<path id="Vector_3" d="M8.90072 14.0002C9.94776 14.0002 10.7965 13.1514 10.7965 12.1043C10.7965 11.0573 9.94776 10.2085 8.90072 10.2085C7.85368 10.2085 7.00488 11.0573 7.00488 12.1043C7.00488 13.1514 7.85368 14.0002 8.90072 14.0002Z" fill="#9EA9B4"/>
</g>
</g>
</g>
</svg>
