<svg width="31" height="30" viewBox="0 0 31 30" fill="none" xmlns="http://www.w3.org/2000/svg">
<g id="svg">
<g clip-path="url(#clip0_51_278)">
<g id="Frame">
<g id="Group">
<path id="Vector" fill-rule="evenodd" clip-rule="evenodd" d="M0.0415039 0H30.0415V30H0.0415039V0Z" fill="white"/>
<path id="Vector_2" fill-rule="evenodd" clip-rule="evenodd" d="M27.8524 26.6147C24.277 24.1877 19.6833 19.2472 19.6833 16.5169C19.6833 13.96 22.8471 12.1182 22.8471 9.518C22.8471 7.22111 21.092 4.62103 19.8134 3.38574H7.11546C8.30718 4.68594 10.0841 7.22126 10.0841 9.518C10.0841 12.1182 6.98535 13.9602 6.98535 16.5169C7.00714 19.6806 11.5575 24.101 14.3745 26.6147H27.8524Z" fill="#C9222F"/>
<path id="Vector_3" fill-rule="evenodd" clip-rule="evenodd" d="M4.68859 25.5965V25.1846C4.68859 25.0548 4.66695 24.9464 4.62369 24.9031C4.60205 24.8597 4.537 24.8161 4.42883 24.8161C4.34214 24.8161 4.27708 24.8595 4.23382 24.9031C4.19055 24.9462 4.16892 25.0548 4.16892 25.2061V25.5965H4.68859ZM6.27048 26.4847H3.49687V25.1414C3.49687 24.7296 3.56177 24.448 3.69189 24.2748C3.82184 24.0796 4.01686 23.9929 4.29841 23.9929C4.47179 23.9929 4.6019 24.036 4.71022 24.1011C4.81854 24.1878 4.92687 24.2963 4.99208 24.448C5.00895 24.3161 5.07001 24.1938 5.1653 24.1011C5.27363 24.036 5.40359 23.9929 5.5986 23.9929L5.96699 23.971H5.98863C6.09695 23.971 6.16201 23.9493 6.16201 23.9059H6.27017V24.7948C6.20527 24.8161 6.14037 24.8161 6.09695 24.8379H5.70708C5.55533 24.8379 5.44701 24.881 5.40358 24.9246C5.33868 24.9893 5.3169 25.0763 5.3169 25.2279V25.5963H6.27017V26.4847H6.27048ZM3.49687 22.6278H6.27048V23.538H3.49687V22.6278ZM5.18709 20.2875V19.464C5.55549 19.486 5.83719 19.6158 6.0322 19.8324C6.24885 20.0707 6.33554 20.374 6.33554 20.786C6.33554 21.2195 6.20558 21.5661 5.94551 21.826C5.6856 22.0859 5.33884 22.1944 4.88376 22.1944C4.42883 22.1944 4.08207 22.0859 3.822 21.826C3.56193 21.5661 3.43213 21.2408 3.43213 20.8077C3.43213 20.3958 3.51866 20.0923 3.71383 19.8541C3.90869 19.6158 4.19055 19.5075 4.53715 19.464V20.3091C4.4072 20.3311 4.29872 20.3742 4.23382 20.4609C4.14713 20.5259 4.12549 20.6561 4.12549 20.7862C4.12549 20.9594 4.19055 21.0895 4.29872 21.1762C4.42883 21.2629 4.62384 21.306 4.88391 21.306C5.14398 21.306 5.31736 21.2629 5.44732 21.1762C5.57728 21.0895 5.64233 20.9376 5.64233 20.7645C5.64233 20.6344 5.59891 20.5259 5.53401 20.4393C5.44716 20.3526 5.33884 20.309 5.18709 20.2875ZM6.27048 19.074H3.49687V18.1855H4.42867V17.3839H3.49687V16.4954H6.27048V17.3839H5.18709V18.1855H6.27048V19.074ZM6.27048 15.1736V15.9751H3.49687V14.8919L4.88376 14.5019C4.90555 14.5019 4.94881 14.4801 5.01371 14.4801C5.07877 14.4584 5.16546 14.4368 5.27378 14.4152C5.18709 14.3935 5.12204 14.3719 5.0355 14.3503C4.9706 14.3503 4.92718 14.3285 4.88376 14.3285L3.49687 13.9385V12.8551H6.27048V13.6567H4.66695C4.58026 13.6351 4.49373 13.6351 4.42867 13.6351C4.55863 13.6784 4.71038 13.7 4.8836 13.7434L4.90539 13.7651L6.27048 14.0902V14.7187L4.94881 15.0656C4.88376 15.0872 4.81886 15.0872 4.73201 15.1087C4.66695 15.1303 4.55879 15.1521 4.42867 15.1737H6.27048V15.1736ZM4.88376 11.5549C5.14383 11.5549 5.33884 11.5116 5.4688 11.4249C5.57712 11.3382 5.64218 11.2081 5.64218 11.0131C5.64218 10.8181 5.57728 10.6881 5.4688 10.6013C5.33884 10.5147 5.14383 10.4713 4.88376 10.4713C4.62369 10.4713 4.42883 10.5147 4.29856 10.6013C4.19039 10.688 4.12534 10.8181 4.12534 11.0131C4.12534 11.2081 4.19039 11.3382 4.29856 11.4249C4.42867 11.5116 4.62369 11.5549 4.88376 11.5549ZM4.88376 12.4432C4.42883 12.4432 4.08207 12.3133 3.822 12.0532C3.56193 11.8149 3.43213 11.4682 3.43213 11.0131C3.43213 10.5798 3.56193 10.233 3.822 9.97297C4.08207 9.7129 4.42883 9.58294 4.88376 9.58294C5.33884 9.58294 5.6856 9.7129 5.94551 9.97297C6.20558 10.233 6.33554 10.5796 6.33554 11.0131C6.33554 11.4682 6.20558 11.8149 5.94551 12.0532C5.6856 12.3133 5.33884 12.4432 4.88376 12.4432ZM6.27048 9.17128H3.49687V8.32617L4.79707 7.56775C4.8187 7.54596 4.88376 7.5027 4.94881 7.48106C5.01371 7.45943 5.07877 7.43764 5.18709 7.39437C5.12204 7.41601 5.07877 7.41601 5.01371 7.41601H3.49687V6.57105H6.27048V7.41601L4.99224 8.19606L4.81886 8.28275C4.75396 8.30438 4.68874 8.32602 4.60221 8.36944C4.64532 8.34781 4.68874 8.34781 4.75396 8.34781C4.79722 8.34781 4.88376 8.32602 4.9706 8.32602H6.27064V9.17128H6.27048ZM5.55549 5.16238V4.92426C5.55549 4.70745 5.51206 4.55586 5.40374 4.46917C5.31705 4.38248 5.14383 4.33922 4.88376 4.33922C4.64532 4.33922 4.47194 4.38248 4.36377 4.46917C4.25545 4.55586 4.21203 4.70761 4.21203 4.92426V5.16238H5.55549ZM6.27048 6.05091H3.49687V4.98916C3.49687 4.70745 3.51851 4.5126 3.5403 4.38248C3.56193 4.23074 3.6052 4.12257 3.64846 4.01425C3.77858 3.84087 3.93032 3.68912 4.12518 3.60243C4.34198 3.49411 4.58026 3.45068 4.8836 3.45068C5.18694 3.45068 5.46864 3.51558 5.66381 3.62391C5.88046 3.75386 6.05384 3.9274 6.14053 4.14405C6.18379 4.25253 6.22706 4.36069 6.22706 4.49065C6.24869 4.62076 6.27033 4.83741 6.27033 5.14075V6.05091H6.27048Z" fill="black"/>
</g>
</g>
</g>
</g>
<defs>
<clipPath id="clip0_51_278">
<rect x="0.0415039" width="30" height="30" rx="10" fill="white"/>
</clipPath>
</defs>
</svg>
