<svg width="31" height="30" viewBox="0 0 31 30" fill="none" xmlns="http://www.w3.org/2000/svg">
<g id="svg">
<g clip-path="url(#clip0_51_235)">
<g id="Frame">
<path id="Vector" d="M29.8606 6.54281C29.8606 6.54281 29.0004 5.87693 26.2146 4.85381C23.7703 3.95418 21.9031 3.74756 21.9031 3.74756L21.9124 9.08243C21.9124 11.3373 19.3643 13.7317 15.0125 13.7317H14.888C10.5368 13.7317 7.9895 11.3373 7.9895 9.08243L7.998 3.74756C7.998 3.74756 6.13263 3.95406 3.68725 4.85381C0.901629 5.87693 0.0415039 6.54281 0.0415039 6.54281C0.248004 10.8214 6.89475 14.3466 14.9494 14.3484H14.9513C23.0064 14.3466 29.6548 10.8214 29.8606 6.54281Z" fill="black"/>
<path id="Vector_2" d="M29.8642 18.5229C29.8642 18.5229 29.0041 19.1869 26.2183 20.2109C23.7722 21.1107 21.9067 21.3163 21.9067 21.3163L21.9161 15.9823C21.9161 13.7279 19.3678 11.3344 15.0162 11.3344L14.9549 11.3325H14.9531L14.8927 11.3344C10.5406 11.3344 7.99331 13.7279 7.99331 15.9823L8.00281 21.3163C8.00281 21.3163 6.13643 21.1107 3.69118 20.2109C0.906309 19.1869 0.0444336 18.5229 0.0444336 18.5229C0.250934 14.2447 6.89943 10.7195 14.9551 10.7168C23.0101 10.7195 29.6587 14.2447 29.8642 18.5229ZM1.49281 26.2408C0.813809 26.2408 0.801559 25.7239 0.801559 25.5242V24.5832C0.801559 24.5245 0.797809 24.4492 0.918559 24.4492H1.26843C1.38343 24.4492 1.37693 24.5285 1.37693 24.5832V25.5242C1.37693 25.592 1.38831 25.7714 1.63531 25.7714H2.22381C2.46618 25.7714 2.48031 25.592 2.48031 25.5242V24.5832C2.48031 24.5284 2.47256 24.4492 2.58693 24.4492H2.94143C3.06893 24.4492 3.05743 24.5285 3.05743 24.5832V25.5242C3.05743 25.7243 3.04418 26.2408 2.36431 26.2408M4.74543 26.1258C4.50593 25.8033 4.16356 25.3978 3.81468 24.9675V26.1143C3.81468 26.1652 3.82693 26.2408 3.70718 26.2408H3.37993C3.26206 26.2408 3.27531 26.1653 3.27531 26.1143V24.5808C3.27531 24.528 3.27056 24.4487 3.37993 24.4487H4.01831C4.19843 24.4487 4.45593 24.8108 4.62381 25.0522C4.75493 25.2333 4.99443 25.5085 5.15568 25.7162V24.5807C5.15568 24.5279 5.14906 24.4485 5.26793 24.4485H5.62343C5.73656 24.4485 5.73018 24.5279 5.73018 24.5807V26.2403H5.07481C4.93406 26.2408 4.87368 26.2503 4.74543 26.1258ZM5.94693 26.2408V24.4509H7.52843C7.62468 24.4509 8.27443 24.4379 8.27443 25.1204C8.27443 25.8164 8.34893 26.2408 7.54168 26.2408H6.68918L6.50531 25.8674V26.2408M7.44443 25.7693C7.73206 25.7693 7.71031 25.494 7.71031 25.3675C7.71031 24.945 7.59143 24.9278 7.40193 24.9278H6.49943V25.769L7.44443 25.7693ZM8.89306 24.4623H10.3511C10.4737 24.4623 10.4577 24.543 10.4577 24.6923C10.4577 24.8318 10.4766 24.911 10.3511 24.911H9.19868C9.16843 24.911 9.06293 24.8962 9.06293 25.0035C9.06293 25.1129 9.04306 25.1564 9.15818 25.1564H10.1767L10.3408 25.4825C10.3643 25.5278 10.3616 25.5675 10.2719 25.5675H9.21743L9.05431 25.2487V25.7184C9.05431 25.8278 9.15143 25.807 9.17968 25.807H10.3764C10.4953 25.807 10.4849 25.89 10.4849 26.0258C10.4849 26.171 10.4953 26.2523 10.3764 26.2523H8.86181C8.73543 26.2523 8.48931 26.2129 8.48931 25.8183V24.8319C8.48931 24.7282 8.54306 24.4623 8.89306 24.4623ZM10.8508 24.4508H12.4456C12.6596 24.4508 12.9708 24.4488 12.9708 25.0263C12.9708 25.4035 12.8907 25.4223 12.7189 25.5393C13.0066 25.5884 12.9679 25.956 12.9679 26.1464C12.9679 26.2428 12.9331 26.2407 12.9047 26.2407H12.4369C12.3388 26.2407 12.3624 26.0862 12.3624 26.005C12.3624 25.7863 12.2398 25.7955 12.1917 25.7955H11.5033C11.4373 25.6804 11.3091 25.4239 11.3091 25.4239V26.167L11.2213 26.2405H10.7507L10.7036 26.1819V24.6053C10.7037 24.4943 10.7819 24.4508 10.8508 24.4508ZM12.1211 24.9243H11.4109C11.2921 24.9243 11.2978 24.9637 11.2978 24.9998V25.3202H12.0287C12.3833 25.3202 12.3833 25.2315 12.3833 25.1392C12.3832 24.9544 12.3682 24.9243 12.1211 24.9243ZM15.7169 24.4623C15.8339 24.4623 15.9479 24.515 16.0709 24.7545C16.1539 24.9262 16.7331 25.973 16.8556 26.1918V26.252H16.2521L16.0783 25.937H15.3443L15.1856 25.5767C15.1404 25.6502 14.8981 26.1104 14.8151 26.2518H14.2097V26.2124C14.3332 25.9803 15.1763 24.4619 15.1763 24.4619M15.5284 24.9584L15.2323 25.4958L15.2597 25.5224H15.8086L15.8359 25.4958L15.5559 24.9565L15.5284 24.9584ZM17.2384 24.4508H18.8342C19.0473 24.4508 19.3586 24.4488 19.3586 25.0263C19.3586 25.4035 19.2792 25.4223 19.1076 25.5393C19.3964 25.5884 19.3566 25.956 19.3566 26.1464C19.3566 26.2428 19.3207 26.2407 19.2923 26.2407H18.8246C18.7267 26.2407 18.7511 26.0862 18.7511 26.005C18.7511 25.7863 18.6286 25.7955 18.5814 25.7955H17.8913C17.8252 25.6804 17.6967 25.4239 17.6967 25.4239V26.167L17.6103 26.2405H17.1387L17.0916 26.1819V24.6053C17.0914 24.4943 17.1706 24.4508 17.2384 24.4508ZM18.5098 24.9243H17.7988C17.6799 24.9243 17.6858 24.9637 17.6858 24.9998V25.3202H18.4176C18.7702 25.3202 18.7702 25.2315 18.7702 25.1392C18.7701 24.9544 18.7571 24.9243 18.5098 24.9243ZM20.7524 26.2408C20.6338 26.0183 20.3037 25.4034 20.0811 24.9998V26.1164C20.0811 26.1635 20.0887 26.2408 19.9737 26.2408H19.6512C19.5304 26.2408 19.5398 26.1635 19.5398 26.1164V24.5828C19.5398 24.528 19.5322 24.4507 19.6512 24.4507H20.2096C20.2926 24.4507 20.4112 24.4319 20.5433 24.6978C20.6434 24.9109 20.8544 25.3543 21.0018 25.5882C21.1488 25.3543 21.3658 24.9109 21.4657 24.6978C21.5958 24.4319 21.7108 24.4507 21.8053 24.4507H22.3617C22.4747 24.4507 22.4616 24.528 22.4616 24.5828V26.1164C22.4616 26.1635 22.4787 26.2408 22.3617 26.2408H22.0353C21.9166 26.2408 21.9259 26.1635 21.9259 26.1164V24.9998C21.6996 25.4034 21.3732 26.018 21.2489 26.2408M23.1779 26.2445C22.6498 26.2445 22.6726 25.6789 22.6726 25.3093C22.6726 24.9733 22.6347 24.4473 23.2967 24.4417H24.4737C25.1377 24.4417 25.0942 24.9755 25.0942 25.3093C25.0942 25.6789 25.1208 26.2445 24.5831 26.2445M24.2417 25.7843C24.5097 25.7843 24.5001 25.507 24.5001 25.3224C24.5001 25.1544 24.5397 24.894 24.1906 24.894H23.5986C23.2517 24.894 23.2929 25.1544 23.2929 25.3224C23.2929 25.5073 23.2759 25.7843 23.5439 25.7843H24.2417ZM25.9788 26.2408C25.3017 26.2408 25.2886 25.7239 25.2886 25.5242V24.5832C25.2886 24.5245 25.2849 24.4492 25.4057 24.4492H25.7567C25.8717 24.4492 25.8639 24.5285 25.8639 24.5832V25.5242C25.8639 25.592 25.8753 25.7714 26.1223 25.7714H26.7107C26.9541 25.7714 26.9673 25.592 26.9673 25.5242V24.5832C26.9673 24.5284 26.9617 24.4492 27.0747 24.4492H27.4273C27.5556 24.4492 27.5444 24.5285 27.5444 24.5832V25.5242C27.5444 25.7243 27.5329 26.2408 26.8503 26.2408M27.9214 24.4508H29.5173C29.7304 24.4508 30.0414 24.4488 30.0414 25.0263C30.0414 25.4035 29.9604 25.4223 29.7888 25.5393C30.0776 25.5884 30.0398 25.956 30.0398 26.1464C30.0398 26.2428 30.0039 26.2407 29.9756 26.2407H29.5078C29.4116 26.2407 29.4343 26.0862 29.4343 26.005C29.4343 25.7863 29.3098 25.7955 29.2627 25.7955H28.5742C28.5083 25.6804 28.3798 25.4239 28.3798 25.4239V26.167L28.2912 26.2405H27.8214L27.7743 26.1819V24.6053C27.7743 24.4943 27.8536 24.4508 27.9214 24.4508ZM29.1908 24.9243H28.4816C28.3627 24.9243 28.3683 24.9637 28.3683 24.9998V25.3202H29.1002C29.4528 25.3202 29.4528 25.2315 29.4528 25.1392C29.4531 24.9544 29.4379 24.9243 29.1908 24.9243Z" fill="black"/>
</g>
</g>
</g>
<defs>
<clipPath id="clip0_51_235">
<rect x="0.0415039" width="30" height="30" rx="10" fill="white"/>
</clipPath>
</defs>
</svg>
