<svg width="19" height="18" viewBox="0 0 19 18" fill="none" xmlns="http://www.w3.org/2000/svg">
<g id="svg" clip-path="url(#clip0_400_2285)">
<g id="Frame">
<path id="Vector" d="M7.51562 16.3125C7.61089 16.637 7.8087 16.9219 8.07944 17.1246C8.35018 17.3273 8.67929 17.4369 9.0175 17.4369C9.35571 17.4369 9.68482 17.3273 9.95556 17.1246C10.2263 16.9219 10.4241 16.637 10.5194 16.3125" stroke="#9EA9B4" stroke-width="1.125" stroke-linecap="round" stroke-linejoin="round"/>
<path id="Vector_2" d="M9.01562 2.25V0.5625" stroke="#9EA9B4" stroke-width="1.125" stroke-linecap="round" stroke-linejoin="round"/>
<path id="Vector_3" d="M9.01562 2.25C10.5075 2.25 11.9382 2.84263 12.9931 3.89752C14.048 4.95242 14.6406 6.38316 14.6406 7.875C14.6406 13.1595 15.7656 14.0625 15.7656 14.0625H2.26562C2.26562 14.0625 3.39062 12.6255 3.39062 7.875C3.39062 6.38316 3.98326 4.95242 5.03815 3.89752C6.09304 2.84263 7.52378 2.25 9.01562 2.25V2.25Z" stroke="#9EA9B4" stroke-width="1.125" stroke-linecap="round" stroke-linejoin="round"/>
</g>
</g>
<defs>
<clipPath id="clip0_400_2285">
<rect width="18" height="18" fill="white" transform="translate(0.015625)"/>
</clipPath>
</defs>
</svg>
