<svg width="19" height="18" viewBox="0 0 19 18" fill="none" xmlns="http://www.w3.org/2000/svg">
<g id="svg" clip-path="url(#clip0_400_2261)">
<g id="Frame">
<g id="Group">
<path id="Vector" d="M9.04686 3.47998C7.95511 3.47998 6.88787 3.80372 5.98011 4.41027C5.07235 5.01681 4.36484 5.87892 3.94704 6.88757C3.52925 7.89622 3.41993 9.0061 3.63292 10.0769C3.84591 11.1477 4.37164 12.1312 5.14363 12.9032C5.91561 13.6752 6.89918 14.2009 7.96996 14.4139C9.04073 14.6269 10.1506 14.5176 11.1593 14.0998C12.1679 13.682 13.03 12.9745 13.6366 12.0667C14.2431 11.159 14.5669 10.0917 14.5669 8.99998C14.5649 7.53659 13.9827 6.13371 12.9479 5.09894C11.9131 4.06417 10.5102 3.48196 9.04686 3.47998ZM9.04686 13.02C8.25178 13.02 7.47455 12.7842 6.81347 12.3425C6.15238 11.9008 5.63713 11.2729 5.33286 10.5384C5.0286 9.80381 4.94899 8.99552 5.1041 8.21572C5.25921 7.43591 5.64208 6.71962 6.20429 6.15741C6.7665 5.5952 7.48279 5.21234 8.2626 5.05722C9.0424 4.90211 9.85069 4.98172 10.5852 5.28598C11.3198 5.59025 11.9476 6.1055 12.3894 6.76659C12.8311 7.42767 13.0669 8.2049 13.0669 8.99998C13.0649 10.0655 12.6407 11.0869 11.8872 11.8404C11.1338 12.5938 10.1124 13.018 9.04686 13.02Z" fill="#9EA9B4"/>
<path id="Vector_2" d="M9.04688 2.6025C9.24579 2.6025 9.43655 2.52348 9.5772 2.38283C9.71786 2.24218 9.79688 2.05141 9.79688 1.8525V0.75C9.79688 0.551088 9.71786 0.360322 9.5772 0.21967C9.43655 0.0790176 9.24579 0 9.04688 0C8.84796 0 8.6572 0.0790176 8.51655 0.21967C8.37589 0.360322 8.29688 0.551088 8.29688 0.75V1.8525C8.29688 2.05141 8.37589 2.24218 8.51655 2.38283C8.6572 2.52348 8.84796 2.6025 9.04688 2.6025Z" fill="#9EA9B4"/>
<path id="Vector_3" d="M3.4594 4.50004C3.52948 4.56955 3.61259 4.62455 3.70397 4.66187C3.79534 4.69919 3.89319 4.71811 3.9919 4.71754C4.09436 4.72115 4.19647 4.70371 4.29193 4.6663C4.38739 4.62889 4.47416 4.5723 4.5469 4.50004C4.62065 4.42998 4.67938 4.34564 4.71951 4.25216C4.75964 4.15868 4.78033 4.05802 4.78033 3.95629C4.78033 3.85456 4.75964 3.7539 4.71951 3.66042C4.67938 3.56694 4.62065 3.48261 4.5469 3.41254L3.7969 2.66254C3.65965 2.51435 3.46915 2.42675 3.26731 2.41902C3.06548 2.41128 2.86884 2.48404 2.72065 2.62129C2.57246 2.75854 2.48486 2.94904 2.47712 3.15087C2.46939 3.35271 2.54215 3.54935 2.6794 3.69754L3.4594 4.50004Z" fill="#9EA9B4"/>
<path id="Vector_4" d="M1.89937 8.25H0.796875C0.597963 8.25 0.407197 8.32902 0.266545 8.46967C0.125893 8.61032 0.046875 8.80109 0.046875 9C0.046875 9.19891 0.125893 9.38968 0.266545 9.53033C0.407197 9.67098 0.597963 9.75 0.796875 9.75H1.89937C2.09829 9.75 2.28905 9.67098 2.42971 9.53033C2.57036 9.38968 2.64937 9.19891 2.64937 9C2.64937 8.80109 2.57036 8.61032 2.42971 8.46967C2.28905 8.32902 2.09829 8.25 1.89937 8.25Z" fill="#9EA9B4"/>
<path id="Vector_5" d="M3.45915 13.5001L2.70915 14.2501C2.63886 14.3198 2.58306 14.4028 2.54498 14.4942C2.50691 14.5856 2.4873 14.6836 2.4873 14.7826C2.4873 14.8816 2.50691 14.9796 2.54498 15.071C2.58306 15.1624 2.63886 15.2454 2.70915 15.3151C2.77923 15.3846 2.86235 15.4396 2.95372 15.4769C3.0451 15.5143 3.14295 15.5332 3.24165 15.5326C3.34036 15.5332 3.43821 15.5143 3.52958 15.4769C3.62096 15.4396 3.70407 15.3846 3.77415 15.3151L4.52415 14.5651C4.59408 14.4952 4.64955 14.4122 4.6874 14.3208C4.72524 14.2294 4.74472 14.1315 4.74472 14.0326C4.74472 13.9337 4.72524 13.8358 4.6874 13.7444C4.64955 13.6531 4.59408 13.57 4.52415 13.5001C4.45422 13.4302 4.37121 13.3747 4.27984 13.3369C4.18847 13.299 4.09055 13.2795 3.99165 13.2795C3.89276 13.2795 3.79483 13.299 3.70347 13.3369C3.6121 13.3747 3.52908 13.4302 3.45915 13.5001Z" fill="#9EA9B4"/>
<path id="Vector_6" d="M9.04688 15.3975C8.84796 15.3975 8.6572 15.4765 8.51655 15.6171C8.37589 15.7578 8.29688 15.9485 8.29688 16.1475V17.25C8.29688 17.4489 8.37589 17.6396 8.51655 17.7803C8.6572 17.9209 8.84796 18 9.04688 18C9.24579 18 9.43655 17.9209 9.5772 17.7803C9.71786 17.6396 9.79688 17.4489 9.79688 17.25V16.1475C9.79688 15.9485 9.71786 15.7578 9.5772 15.6171C9.43655 15.4765 9.24579 15.3975 9.04688 15.3975Z" fill="#9EA9B4"/>
<path id="Vector_7" d="M14.6345 13.4999C14.5631 13.4285 14.4783 13.3718 14.385 13.3332C14.2917 13.2945 14.1917 13.2747 14.0908 13.2747C13.9898 13.2747 13.8898 13.2945 13.7965 13.3332C13.7032 13.3718 13.6184 13.4285 13.547 13.4999C13.4756 13.5713 13.419 13.6561 13.3803 13.7494C13.3417 13.8427 13.3218 13.9427 13.3218 14.0436C13.3218 14.1446 13.3417 14.2446 13.3803 14.3379C13.419 14.4312 13.4756 14.516 13.547 14.5874L14.297 15.3374C14.3671 15.4069 14.4502 15.4619 14.5416 15.4992C14.633 15.5365 14.7308 15.5555 14.8295 15.5549C14.9282 15.5555 15.0261 15.5365 15.1174 15.4992C15.2088 15.4619 15.2919 15.4069 15.362 15.3374C15.4323 15.2677 15.4881 15.1847 15.5262 15.0933C15.5643 15.0019 15.5839 14.9039 15.5839 14.8049C15.5839 14.7059 15.5643 14.6078 15.5262 14.5165C15.4881 14.4251 15.4323 14.3421 15.362 14.2724L14.6345 13.4999Z" fill="#9EA9B4"/>
<path id="Vector_8" d="M17.2968 8.25H16.1943C15.9954 8.25 15.8047 8.32902 15.664 8.46967C15.5234 8.61032 15.4443 8.80109 15.4443 9C15.4443 9.19891 15.5234 9.38968 15.664 9.53033C15.8047 9.67098 15.9954 9.75 16.1943 9.75H17.2968C17.4957 9.75 17.6865 9.67098 17.8272 9.53033C17.9678 9.38968 18.0468 9.19891 18.0468 9C18.0468 8.80109 17.9678 8.61032 17.8272 8.46967C17.6865 8.32902 17.4957 8.25 17.2968 8.25Z" fill="#9EA9B4"/>
<path id="Vector_9" d="M14.1018 4.69492C14.298 4.70212 14.4891 4.63211 14.6343 4.49992L15.3843 3.74992C15.4542 3.68 15.5097 3.59698 15.5475 3.50561C15.5854 3.41424 15.6048 3.31632 15.6048 3.21742C15.6048 3.11853 15.5854 3.0206 15.5475 2.92924C15.5097 2.83787 15.4542 2.75485 15.3843 2.68492C15.3143 2.615 15.2313 2.55952 15.14 2.52168C15.0486 2.48383 14.9507 2.46436 14.8518 2.46436C14.7529 2.46436 14.655 2.48383 14.5636 2.52168C14.4722 2.55952 14.3892 2.615 14.3193 2.68492L13.5693 3.43492C13.4975 3.50315 13.4399 3.58492 13.3999 3.67551C13.3599 3.7661 13.3382 3.86372 13.3361 3.96274C13.334 4.06175 13.3516 4.1602 13.3877 4.2524C13.4239 4.3446 13.4779 4.42873 13.5468 4.49992C13.6214 4.56815 13.709 4.6206 13.8044 4.65411C13.8997 4.68762 14.0009 4.7015 14.1018 4.69492Z" fill="#9EA9B4"/>
</g>
</g>
</g>
<defs>
<clipPath id="clip0_400_2261">
<rect width="18" height="18" fill="white" transform="translate(0.046875)"/>
</clipPath>
</defs>
</svg>
