<svg width="19" height="18" viewBox="0 0 19 18" fill="none" xmlns="http://www.w3.org/2000/svg">
<g id="svg" clip-path="url(#clip0_400_2299)">
<g id="Frame">
<path id="Vector" d="M5.84364 7.12899C5.71835 7.07351 5.60606 6.99243 5.51396 6.89097L5.04146 6.36597C4.90652 6.21369 4.72731 6.10744 4.52896 6.0621C4.3306 6.01677 4.12303 6.03464 3.93533 6.11318C3.74763 6.19174 3.58921 6.32705 3.48227 6.50015C3.37532 6.67325 3.32522 6.87547 3.33896 7.07847V7.77599C3.34656 7.91294 3.32519 8.04989 3.27623 8.17799C3.22728 8.30609 3.15186 8.42241 3.05489 8.51939C2.95792 8.61636 2.84159 8.69181 2.71348 8.74071C2.58538 8.78969 2.44839 8.81106 2.31146 8.80349L1.60646 8.76599C1.40427 8.75654 1.2041 8.80979 1.03331 8.91839C0.862517 9.02706 0.729446 9.18576 0.652294 9.37289C0.575142 9.56009 0.557672 9.76649 0.602272 9.96389C0.646872 10.1614 0.751365 10.3402 0.901465 10.476L1.42646 10.941C1.53008 11.0362 1.61237 11.1522 1.66796 11.2815C1.72354 11.4107 1.75115 11.5503 1.74896 11.691C1.75211 11.8318 1.72495 11.9716 1.6693 12.1011C1.61366 12.2305 1.53084 12.3464 1.42646 12.441L0.901465 12.9135C0.751764 13.0495 0.647663 13.2283 0.603368 13.4256C0.559073 13.6229 0.576743 13.8291 0.653965 14.016C0.731219 14.2022 0.864295 14.3599 1.03487 14.4673C1.20545 14.5748 1.40515 14.6267 1.60646 14.616H2.31146C2.44839 14.6084 2.58538 14.6298 2.71348 14.6787C2.84159 14.7277 2.95792 14.8031 3.05489 14.9C3.15186 14.997 3.22728 15.1134 3.27623 15.2415C3.32519 15.3696 3.34656 15.5065 3.33896 15.6435V16.341C3.32695 16.5433 3.3783 16.7444 3.48589 16.9162C3.59347 17.0881 3.75193 17.222 3.93923 17.2996C4.12652 17.3771 4.33332 17.3944 4.53088 17.3489C4.72843 17.3035 4.9069 17.1976 5.04146 17.046L5.51396 16.5285C5.60606 16.427 5.71835 16.3459 5.84364 16.2904C5.96894 16.235 6.10444 16.2063 6.24146 16.2063C6.37849 16.2063 6.514 16.235 6.63929 16.2904C6.76457 16.3459 6.87687 16.427 6.96896 16.5285L7.44146 17.046C7.576 17.1976 7.7545 17.3035 7.95205 17.3489C8.1496 17.3944 8.35645 17.3771 8.54372 17.2996C8.731 17.222 8.88947 17.0881 8.99702 16.9162C9.10465 16.7444 9.15595 16.5433 9.14395 16.341V15.6435C9.13637 15.5065 9.15775 15.3696 9.20672 15.2415C9.25562 15.1134 9.33107 14.997 9.42805 14.9C9.52502 14.8031 9.64135 14.7277 9.76945 14.6787C9.89755 14.6298 10.0346 14.6084 10.1714 14.616H10.8764C11.0777 14.6267 11.2775 14.5748 11.448 14.4673C11.6186 14.3599 11.7517 14.2022 11.8289 14.016C11.9062 13.8291 11.9238 13.6229 11.8796 13.4256C11.8352 13.2283 11.7311 13.0495 11.5814 12.9135L11.0564 12.441C10.9521 12.3464 10.8692 12.2305 10.8136 12.1011C10.7579 11.9716 10.7308 11.8318 10.7339 11.691C10.7318 11.5503 10.7594 11.4107 10.8149 11.2815C10.8705 11.1522 10.9529 11.0362 11.0564 10.941L11.5814 10.476C11.7316 10.3402 11.8361 10.1614 11.8806 9.96389C11.9252 9.76649 11.9078 9.56009 11.8306 9.37289C11.7535 9.18576 11.6204 9.02706 11.4496 8.91839C11.2788 8.80979 11.0786 8.75654 10.8764 8.76599L10.1714 8.80349C10.0346 8.81106 9.89755 8.78969 9.76945 8.74071C9.64135 8.69181 9.52502 8.61636 9.42805 8.51939C9.33107 8.42241 9.25562 8.30609 9.20672 8.17799C9.15775 8.04989 9.13637 7.91294 9.14395 7.77599V7.07847C9.15775 6.87547 9.10757 6.67325 9.00062 6.50015C8.89375 6.32705 8.73527 6.19174 8.54762 6.11318C8.3599 6.03464 8.1523 6.01677 7.954 6.0621C7.75562 6.10744 7.57637 6.21369 7.44146 6.36597L6.96896 6.89097C6.87687 6.99243 6.76457 7.07351 6.63929 7.12899C6.514 7.18448 6.37849 7.21313 6.24146 7.21313C6.10444 7.21313 5.96894 7.18448 5.84364 7.12899Z" stroke="#9EA9B4" stroke-width="1.125" stroke-linecap="round" stroke-linejoin="round"/>
<path id="Vector_2" d="M6.24154 13.0785C7.02027 13.0785 7.65151 12.4473 7.65151 11.6685C7.65151 10.8898 7.02027 10.2585 6.24154 10.2585C5.46283 10.2585 4.83154 10.8898 4.83154 11.6685C4.83154 12.4473 5.46283 13.0785 6.24154 13.0785Z" stroke="#9EA9B4" stroke-width="1.125" stroke-linecap="round" stroke-linejoin="round"/>
<path id="Vector_3" d="M13.6328 4.67871C13.4257 4.67871 13.2578 4.51082 13.2578 4.30371C13.2578 4.09661 13.4257 3.92871 13.6328 3.92871" stroke="#9EA9B4" stroke-width="1.125"/>
<path id="Vector_4" d="M13.6328 4.67871C13.8399 4.67871 14.0078 4.51082 14.0078 4.30371C14.0078 4.09661 13.8399 3.92871 13.6328 3.92871" stroke="#9EA9B4" stroke-width="1.125"/>
<path id="Vector_5" d="M12.1167 1.37634C12.1214 1.21758 12.1771 1.06456 12.2756 0.939985C12.3742 0.815418 12.5102 0.725936 12.6636 0.684828C12.8171 0.64372 12.9797 0.653177 13.1273 0.711792C13.2749 0.770411 13.3997 0.875058 13.4831 1.01022L13.9289 1.7259C14.0027 1.84474 14.1188 1.93114 14.2538 1.96762C14.3889 2.0041 14.5328 1.98794 14.6564 1.9224L15.3967 1.52802C15.5373 1.45395 15.6979 1.42692 15.855 1.45087C16.0121 1.47483 16.1573 1.54852 16.2694 1.66112C16.3815 1.77372 16.4546 1.9193 16.4778 2.07648C16.5011 2.23365 16.4733 2.39415 16.3986 2.53439L16.0035 3.27769C15.9378 3.40164 15.9215 3.54585 15.9578 3.68136C15.9941 3.81685 16.0803 3.93358 16.1992 4.00808L16.9112 4.45587C17.046 4.53998 17.1503 4.66509 17.2087 4.81284C17.2672 4.96059 17.2767 5.12319 17.2359 5.27676C17.1951 5.43032 17.1062 5.56677 16.9821 5.66605C16.8581 5.76534 16.7054 5.82222 16.5467 5.82837L15.7083 5.85702C15.5685 5.86205 15.4358 5.91998 15.3371 6.01909C15.2384 6.1182 15.1811 6.2511 15.1766 6.39091L15.1499 7.2309C15.1452 7.38966 15.0895 7.54265 14.9909 7.66722C14.8925 7.7918 14.7563 7.88127 14.603 7.92237C14.4495 7.96355 14.287 7.95402 14.1393 7.89545C13.9917 7.8368 13.8669 7.73217 13.7835 7.59702L13.3372 6.88149C13.2635 6.76265 13.1474 6.67623 13.0125 6.63972C12.8776 6.60321 12.7338 6.61934 12.6103 6.68483L11.8694 7.07936C11.7288 7.15343 11.5682 7.18046 11.4111 7.1565C11.254 7.13255 11.1088 7.05886 10.9967 6.94626C10.8845 6.83366 10.8115 6.68808 10.7882 6.5309C10.765 6.37372 10.7927 6.21323 10.8674 6.07299L11.2607 5.32905C11.3264 5.2051 11.3427 5.06088 11.3064 4.92539C11.2701 4.78989 11.1839 4.67316 11.065 4.59866L10.353 4.15316C10.2182 4.06905 10.1139 3.94393 10.0555 3.79618C9.99706 3.64844 9.98754 3.48584 10.0283 3.33227C10.0691 3.17871 10.158 3.04226 10.2821 2.94298C10.4061 2.8437 10.5587 2.7868 10.7175 2.78066L11.5565 2.75187C11.6961 2.74683 11.8287 2.68891 11.9273 2.58981C12.026 2.49072 12.0833 2.35785 12.0876 2.21812L12.1167 1.37634Z" stroke="#9EA9B4" stroke-width="1.125" stroke-linecap="round" stroke-linejoin="round"/>
</g>
</g>
<defs>
<clipPath id="clip0_400_2299">
<rect width="18" height="18" fill="white" transform="translate(0.015625)"/>
</clipPath>
</defs>
</svg>
