<svg width="18" height="18" viewBox="0 0 18 18" fill="none" xmlns="http://www.w3.org/2000/svg">
<g id="ad" clip-path="url(#clip0_186_5142)">
<path id="Vector" d="M0 0H18V18H0V0Z" fill="#D0103A"/>
<path id="Vector_2" d="M0 0H12.2414V18H0V0Z" fill="#FEDF00"/>
<path id="Vector_3" d="M0 0H5.75859V18H0V0Z" fill="#0018A8"/>
<path id="Vector_4" d="M8.44785 6.0918C8.66582 6.0918 8.75371 6.27813 8.97168 6.27813C9.10527 6.27813 9.18262 6.23594 9.29863 6.16914C9.38301 6.12344 9.43223 6.09883 9.52715 6.09883C9.62207 6.09883 9.68184 6.12695 9.73105 6.20781C9.76227 6.26589 9.77456 6.33226 9.76621 6.39766C9.75032 6.47864 9.72556 6.55763 9.69238 6.6332C9.67481 6.67539 9.65723 6.70352 9.65723 6.74922C9.65723 6.86523 9.81191 6.90391 9.91738 6.90742C9.94199 6.90742 10.1389 6.90742 10.2584 6.78789C10.1916 6.78789 10.1178 6.73516 10.1178 6.66836C10.1178 6.59805 10.1705 6.54531 10.2408 6.52422C10.2549 6.5207 10.276 6.53125 10.29 6.52422C10.3076 6.51719 10.2971 6.49609 10.3146 6.48555C10.3498 6.45742 10.3709 6.43984 10.4166 6.43984C10.4418 6.43823 10.4668 6.44571 10.4869 6.46094C10.4975 6.46797 10.5045 6.48203 10.5186 6.48203C10.5537 6.48203 10.5678 6.46094 10.5994 6.46094C10.624 6.46094 10.6416 6.46094 10.6627 6.475C10.6838 6.48555 10.6838 6.51719 10.7049 6.51719C10.7154 6.51719 10.7717 6.49609 10.8033 6.49609C10.8631 6.49609 10.8982 6.51719 10.9369 6.56641C10.9475 6.57695 10.9545 6.60156 10.965 6.60156C10.993 6.60369 11.02 6.61245 11.0438 6.62713C11.0677 6.64181 11.0877 6.66197 11.1021 6.68594C11.1092 6.69648 11.1197 6.72461 11.1338 6.73164C11.1479 6.73516 11.1584 6.73516 11.1795 6.74922C11.2032 6.76366 11.223 6.78372 11.2371 6.80764C11.2512 6.83156 11.2592 6.85859 11.2604 6.88633C11.2604 6.90391 11.2498 6.92852 11.2463 6.94609C11.1936 7.12891 11.067 7.19219 10.9404 7.34687C10.8842 7.41719 10.842 7.46992 10.842 7.55781C10.842 7.57891 10.8701 7.61758 10.8771 7.63516C10.8736 7.59297 10.8912 7.54375 10.9334 7.54023C10.9932 7.54023 11.0389 7.58242 11.0459 7.63867C11.0459 7.65273 11.0459 7.67734 11.0389 7.69141C11.0705 7.67031 11.1092 7.65625 11.1514 7.65273C11.1689 7.6514 11.1865 7.6514 11.2041 7.65273C11.2997 7.65973 11.3908 7.69663 11.4643 7.7582C11.5319 7.81615 11.5857 7.88858 11.6216 7.97012C11.6575 8.05167 11.6746 8.14025 11.6717 8.2293C11.6471 8.38047 11.6611 8.64766 11.285 8.75664C11.3553 8.78477 11.401 8.8375 11.401 8.90078C11.401 8.97109 11.3482 9.03437 11.2779 9.03437C11.2597 9.03565 11.2414 9.03284 11.2243 9.02615C11.2073 9.01946 11.192 9.00906 11.1795 8.9957C11.1021 9.07305 11.0846 9.15391 11.0846 9.26641C11.0846 9.3332 11.0986 9.37187 11.1268 9.43164C11.1467 9.4901 11.1834 9.54143 11.2322 9.5793C11.2604 9.53711 11.2885 9.50898 11.3377 9.50898C11.3904 9.50898 11.4326 9.52305 11.4537 9.56875C11.4572 9.5793 11.4537 9.59336 11.4607 9.60391C11.4678 9.62148 11.4854 9.625 11.4959 9.64258C11.5064 9.6707 11.4959 9.6918 11.5064 9.71992C11.5135 9.7375 11.5311 9.74102 11.5416 9.75508C11.5521 9.78672 11.5557 9.8043 11.5557 9.83594C11.5557 9.92031 11.4783 9.97656 11.3939 9.97656C11.3658 9.97656 11.3518 9.96953 11.3271 9.97305C11.3764 10.0188 11.4115 10.0434 11.4502 10.0996C11.5062 10.1851 11.5345 10.2858 11.5311 10.3879C11.5311 10.5145 11.51 10.5918 11.4537 10.7043C11.4117 10.8008 11.3435 10.8837 11.2568 10.9434C11.1238 11.0384 10.9691 11.0988 10.8068 11.1191C10.6873 11.1437 10.6205 11.1543 10.4975 11.1613L10.1002 11.1824C9.8998 11.1965 9.75918 11.2246 9.61504 11.3687C9.68535 11.418 9.73105 11.4672 9.73105 11.5516C9.73105 11.6359 9.67832 11.6992 9.59395 11.7273C9.57637 11.7309 9.55879 11.7273 9.54473 11.7344C9.52363 11.7449 9.52363 11.7695 9.50254 11.7836C9.47126 11.8039 9.43432 11.8138 9.39707 11.8117C9.31973 11.8117 9.27051 11.7941 9.21426 11.7414C9.15449 11.7906 9.1334 11.8363 9.06309 11.8785C9.03848 11.8891 9.02793 11.9066 9.00332 11.9066C8.96113 11.9066 8.94004 11.882 8.9084 11.8574C8.86124 11.8245 8.81868 11.7855 8.78184 11.7414C8.71855 11.7801 8.67988 11.8117 8.60605 11.8117C8.56729 11.813 8.52912 11.8019 8.49707 11.7801C8.47598 11.7695 8.47246 11.7484 8.45137 11.7379C8.43027 11.7238 8.41621 11.7309 8.3916 11.7203C8.30723 11.6852 8.25098 11.6219 8.25098 11.527C8.25098 11.4461 8.30371 11.3934 8.37754 11.3617C8.23691 11.2211 8.09629 11.1965 7.89941 11.1859C7.74473 11.1719 7.65332 11.1719 7.50215 11.1613C7.38262 11.1543 7.31231 11.1402 7.19277 11.1227C7.10137 11.1086 7.04863 11.1016 6.96426 11.0629C6.67598 10.9293 6.49316 10.7465 6.45449 10.4301V10.3598C6.45449 10.1945 6.51777 10.0961 6.63027 9.98008C6.60215 9.97305 6.58457 9.98008 6.55293 9.97305C6.48262 9.94492 6.42988 9.8957 6.42988 9.81836C6.42988 9.79023 6.42988 9.76914 6.44395 9.74805C6.45449 9.72695 6.47207 9.72344 6.4791 9.70586C6.48262 9.67773 6.4791 9.66016 6.48965 9.63555C6.49668 9.61797 6.51074 9.61797 6.51777 9.60039C6.54238 9.54766 6.57402 9.50547 6.63379 9.50547C6.68301 9.50547 6.71465 9.53359 6.73926 9.57578C6.78848 9.55117 6.80254 9.51602 6.83066 9.47031C6.87637 9.39297 6.89395 9.34023 6.89395 9.25234C6.89638 9.19964 6.888 9.147 6.86934 9.09766C6.85527 9.05547 6.85176 9.02734 6.82012 8.99219C6.80795 9.00618 6.79277 9.01725 6.77573 9.02455C6.75868 9.03186 6.74021 9.03522 6.72168 9.03437C6.64082 9.03437 6.58105 8.96406 6.58105 8.8832C6.58105 8.82344 6.60918 8.77773 6.66543 8.75312C6.61973 8.71797 6.58105 8.71094 6.53535 8.68281C6.46152 8.63359 6.4334 8.58789 6.3877 8.51406C6.35254 8.46484 6.34551 8.4332 6.33145 8.38047C6.31098 8.3241 6.30028 8.26465 6.2998 8.20469V8.15898C6.3209 8.02188 6.34551 7.93398 6.4334 7.825C6.47348 7.76512 6.52949 7.71764 6.59512 7.68789C6.66522 7.65075 6.74464 7.63487 6.82363 7.64219C6.85879 7.64922 6.87637 7.64922 6.90449 7.6668C6.91504 7.67383 6.93613 7.69141 6.93613 7.67734L6.9291 7.64219C6.9291 7.58242 6.97129 7.52969 7.02754 7.52969C7.06973 7.52969 7.0873 7.56484 7.1084 7.6C7.12246 7.57891 7.12949 7.56484 7.12949 7.54023C7.12949 7.4418 7.07676 7.39258 7.01699 7.31875C6.88691 7.15352 6.72168 7.07617 6.72168 6.86875C6.72168 6.80547 6.75332 6.76328 6.80606 6.72812C6.82012 6.72109 6.84121 6.72812 6.85879 6.72109C6.86934 6.71055 6.86934 6.69648 6.87637 6.68242C6.88785 6.66385 6.90349 6.6482 6.92207 6.63672C6.9502 6.60859 6.97832 6.61914 7.00996 6.59453C7.02754 6.58398 7.03105 6.56992 7.04512 6.55234C7.08027 6.51016 7.11543 6.48906 7.17168 6.48906C7.1998 6.48906 7.21738 6.48906 7.24199 6.49961C7.25254 6.49961 7.27012 6.51719 7.27363 6.51367C7.27715 6.50664 7.29473 6.48906 7.3123 6.47852C7.33691 6.46797 7.34746 6.46445 7.37559 6.46445C7.40723 6.46445 7.42481 6.48203 7.45645 6.48203C7.47051 6.48203 7.47051 6.47148 7.48105 6.46445C7.50918 6.44687 7.52324 6.43633 7.5584 6.43633C7.59355 6.43633 7.60762 6.44687 7.63574 6.46445C7.66035 6.47852 7.66387 6.49961 7.69199 6.51719L7.73418 6.52773C7.80449 6.54883 7.86074 6.59805 7.86074 6.67539C7.86074 6.71758 7.85371 6.7457 7.82207 6.77383C7.79746 6.79492 7.77285 6.79141 7.74121 6.80195C7.83065 6.87319 7.94355 6.90831 8.05762 6.90039C8.18066 6.90039 8.3248 6.85469 8.3248 6.73516C8.3248 6.67891 8.29316 6.65078 8.27207 6.60156C8.23301 6.52666 8.21251 6.44346 8.21231 6.35898C8.21231 6.28164 8.21934 6.23594 8.26504 6.17266C8.31074 6.10586 8.37051 6.0918 8.44785 6.0918Z" fill="#C7B37F"/>
<g id="Group">
<path id="Vector_5" d="M7.66016 6.72187C7.66719 6.75352 7.6918 6.77812 7.73047 6.79219C7.74991 6.79633 7.77012 6.7949 7.78878 6.78806C7.80744 6.78122 7.82379 6.76924 7.83594 6.75352C7.86406 6.71836 7.86055 6.67266 7.85352 6.6375C7.84397 6.61187 7.82679 6.58978 7.8043 6.57422L7.66016 6.72187Z" stroke="#703D29" stroke-width="0.5" stroke-linejoin="round"/>
<path id="Vector_6" d="M11.2781 8.89062C11.2429 8.80977 11.1585 8.84492 11.1515 8.89062C11.141 8.99609 11.2324 9.02422 11.2957 9.00664C11.3273 8.99961 11.3519 8.97852 11.366 8.95391C11.3835 8.92578 11.3871 8.88359 11.3765 8.84844C11.3712 8.83181 11.3629 8.81631 11.3519 8.80273C11.3424 8.78902 11.3305 8.77712 11.3167 8.76758C11.2921 8.75352 11.264 8.75 11.2218 8.75C11.0671 8.75 10.93 8.93633 10.8843 9.12969C10.8589 9.24052 10.8565 9.35539 10.8773 9.46719C10.9009 9.58633 10.9582 9.69617 11.0425 9.78359C11.121 9.85949 11.2161 9.91606 11.3203 9.94883C11.3589 9.95938 11.3976 9.95938 11.4292 9.94883C11.5242 9.93125 11.5664 9.84336 11.5207 9.75547C11.482 9.68516 11.3695 9.64297 11.3167 9.73438C11.3081 9.74809 11.3032 9.76387 11.3027 9.78008C11.3027 9.80469 11.3132 9.83281 11.3308 9.84336C11.373 9.87148 11.4363 9.86445 11.4363 9.79063" stroke="#703D29" stroke-width="0.5" stroke-linecap="round"/>
<path id="Vector_7" d="M10.7928 9.95628C10.8407 9.90053 10.9066 9.86324 10.9791 9.85081C11.0635 9.84378 11.1373 9.86838 11.2111 9.90706C11.302 9.94945 11.3788 10.017 11.4324 10.1018C11.486 10.1865 11.5141 10.2849 11.5135 10.3852C11.5135 10.4906 11.4854 10.5961 11.4607 10.6524C11.4361 10.6981 11.3729 10.902 11.0283 11.0461C10.795 11.1182 10.5519 11.1538 10.3076 11.1516C10.0123 11.1657 9.74512 11.1762 9.58691 11.3696" stroke="#703D29" stroke-width="0.7"/>
<g id="Group_2">
<path id="Vector_8" d="M10.8661 10.2863C10.8591 10.2547 10.8661 10.2266 10.8907 10.1914C10.9259 10.1457 10.9927 10.1316 11.0559 10.1668C11.077 10.1773 11.1016 10.1949 11.1262 10.2266L11.1614 10.2688L11.1895 10.3391C11.2598 10.5359 11.1473 10.7504 11.0067 10.8348C10.8942 10.9051 10.7606 10.9332 10.6024 10.9508L10.4161 10.9613H10.1489C10.081 10.9578 10.0129 10.9578 9.945 10.9613L9.73406 10.9824L9.57937 11.0106L9.52664 11.0246L9.49148 11.0352C9.39654 11.0618 9.30552 11.1008 9.22078 11.1512C9.19617 11.1652 9.16804 11.1828 9.15046 11.2004L9.11179 11.2356C9.05906 11.2848 9.00281 11.341 8.98875 11.4219V11.4676C8.98875 11.5168 9.02742 11.5871 9.13992 11.6082M9.2946 6.82344C9.3157 6.86563 9.32976 6.89375 9.3157 6.93243C9.30164 6.98165 9.26648 7.01329 9.21726 7.01329C9.10476 7.01329 9.04148 6.87969 9.0907 6.79532C9.17859 6.64415 9.35086 6.72852 9.51257 6.80235C9.50203 6.76719 9.48796 6.75313 9.49148 6.70391C9.49148 6.5879 9.58289 6.53516 9.61804 6.42266C9.63914 6.35938 9.64617 6.30313 9.59695 6.25743C9.55828 6.21524 9.50906 6.21876 9.45632 6.23985C9.34734 6.28204 9.21726 6.40157 8.98875 6.40508C8.76023 6.40508 8.62664 6.28204 8.51765 6.23985C8.46492 6.21876 8.4157 6.21524 8.37703 6.25743C8.32781 6.30313 8.33484 6.3629 8.35593 6.42618C8.39109 6.53165 8.47898 6.5879 8.4825 6.70743C8.4825 6.75313 8.47195 6.76368 8.4614 6.80235C8.62312 6.73204 8.80242 6.63711 8.88328 6.79532C8.92898 6.88321 8.86921 7.01329 8.75671 7.01329C8.7075 7.01329 8.67234 6.97813 8.65828 6.93243C8.64421 6.89375 8.65828 6.85508 8.67937 6.82344" stroke="#703D29" stroke-width="0.6"/>
<path id="Vector_9" d="M8.84844 6.74609C8.89063 6.78125 8.91875 6.81992 8.91523 6.88672C8.91172 6.95703 8.89062 6.97461 8.83789 7.01328M8.90469 6.90781C8.90117 6.95 8.88359 6.97813 8.84141 6.9957" stroke="#703D29" stroke-width="0.6" stroke-linecap="round"/>
</g>
<path id="Vector_10" d="M7.78359 6.55859L7.80117 6.57266L7.82227 6.59727L7.83633 6.62539L7.84336 6.64648V6.69922L7.83633 6.72383L7.82227 6.74141L7.8082 6.75898L7.78359 6.76953L7.75195 6.77656L7.72734 6.78359L7.69922 6.76953L7.67109 6.75195L7.65703 6.72734L7.64648 6.69922V6.68867L7.78359 6.55859Z" fill="#C7B37F"/>
<path id="Vector_11" d="M7.74097 6.66843C7.73042 6.62272 7.67769 6.61218 7.65659 6.6403C7.62144 6.68249 7.64605 6.7528 7.71284 6.7739C7.73228 6.77804 7.75249 6.77661 7.77115 6.76977C7.78981 6.76293 7.80616 6.75095 7.81831 6.73523C7.84644 6.70007 7.84644 6.65437 7.83589 6.62272C7.82886 6.59812 7.81128 6.58054 7.78667 6.56296C7.70933 6.50319 7.58628 6.51726 7.54761 6.61569C7.49487 6.74226 7.60737 6.83718 7.71284 6.90749C7.84644 6.99538 7.99409 7.01296 8.11011 7.01296C8.36675 7.00944 8.56362 6.8864 8.69019 6.81608C8.71831 6.79851 8.74995 6.80202 8.76401 6.82312C8.78159 6.84421 8.78159 6.87585 8.75698 6.90046" stroke="#703D29" stroke-width="0.5" stroke-linecap="round"/>
<path id="Vector_12" d="M6.97441 10.1602L6.91816 10.1777L6.8584 10.2234L6.83379 10.2586L6.80215 10.3148L6.78809 10.357L6.77754 10.4098L6.77051 10.4449M7.30488 10.1637V10.2129L7.29434 10.248L7.26973 10.3078L7.23105 10.3605L7.18887 10.3957L7.15371 10.4098L7.11152 10.4203" stroke="#703D29" stroke-width="0.5"/>
<path id="Vector_13" d="M8.99297 11.5059C8.98242 11.5516 8.94023 11.6043 8.8418 11.6254H8.82422" stroke="#703D29" stroke-width="0.6"/>
<path id="Vector_14" d="M11.3693 10.0195C11.4205 10.0685 11.4609 10.1275 11.4881 10.1928C11.5154 10.2582 11.5288 10.3284 11.5275 10.3992C11.524 10.4977 11.4994 10.6102 11.4713 10.6629C11.4467 10.7086 11.3834 10.916 11.0389 11.0566C10.8057 11.1298 10.5626 11.1665 10.3182 11.1656C10.0299 11.1797 9.7627 11.1902 9.60449 11.3766" stroke="#703D29" stroke-width="0.7"/>
<path id="Vector_15" d="M10.8984 10.2058C10.9195 10.1741 10.9969 10.139 11.0602 10.1706C11.0885 10.1839 11.1128 10.2046 11.1305 10.2304" stroke="#703D29" stroke-width="0.5"/>
<path id="Vector_16" d="M11.2949 9.94805L11.3336 9.96211C11.3703 9.97305 11.4094 9.97305 11.4461 9.96211C11.5234 9.94101 11.5762 9.86719 11.534 9.76875C11.5228 9.74506 11.5059 9.72452 11.4848 9.70898" stroke="#703D29" stroke-width="0.7"/>
<path id="Vector_17" d="M6.75625 7.86758C6.70352 7.90273 6.66484 7.90977 6.62266 7.95547C6.58968 8.01641 6.56486 8.08142 6.54883 8.14883M7.84609 6.69336C7.84609 6.74258 7.81094 6.77422 7.76172 6.78477" stroke="#703D29" stroke-width="0.5" stroke-linecap="round"/>
<path id="Vector_18" d="M11.1689 7.64844C11.3025 7.64844 11.6893 7.75039 11.6928 8.20391C11.6928 8.65391 11.4115 8.72773 11.3025 8.75586" stroke="#703D29" stroke-width="0.5"/>
<path id="Vector_19" d="M11.2043 7.64844C11.4328 7.63789 11.6684 7.80664 11.6789 8.22852C11.6895 8.55898 11.4539 8.70664 11.3414 8.73828M11.0742 9.23398L11.0813 9.1918L11.0953 9.12148L11.1164 9.06172L11.141 9.01602L11.1691 8.98086M11.3906 8.88594L11.3871 8.92812L11.373 8.95977L11.3555 8.98789L11.3309 9.00547L11.2957 9.01602H11.243M10.8422 7.52891L10.8527 7.4832L10.8738 7.4375L10.8984 7.39531L10.9477 7.33555L10.9828 7.29336L11.0426 7.23359L11.0953 7.18086L11.1305 7.14219L11.1727 7.08945L11.2078 7.02969L11.2324 6.98398L11.2465 6.9207L11.25 6.84687L11.243 6.82227M10.8984 10.4293L10.9441 10.4187L10.9793 10.4012L10.9969 10.3836L11.0109 10.359L11.018 10.3238V10.3027M6.57422 9.9582L6.60586 9.96172H6.64805L6.69375 9.94414M6.83437 8.91406L6.82734 8.95625L6.82031 8.97031L6.80625 8.98789L6.78867 9.00195L6.76758 9.0125L6.73945 9.01602H6.72187M7.00312 8.57656L6.99258 8.63984L6.97852 8.66445L6.95391 8.69961L6.91875 8.72422L6.88711 8.7418L6.82383 8.75586M7.25273 7.63789L7.24219 7.67305L7.22461 7.70117L7.20352 7.73281L7.17539 7.75742L7.14023 7.775L7.11211 7.78203H7.09102M7.10156 7.60625V7.63437" stroke="#703D29" stroke-width="0.5"/>
<g id="Group_3">
<path id="Vector_20" d="M7.15 8.55273C7.13341 8.56761 7.11439 8.5795 7.09375 8.58789M11.3266 9.84297L11.3406 9.85C11.3758 9.87461 11.4566 9.84297 11.4355 9.77969" stroke="#703D29" stroke-width="0.5" stroke-linecap="round"/>
<path id="Vector_21" d="M11.1859 8.98945C11.2141 9.02461 11.2703 9.03516 11.3125 9.02461C11.3441 9.01758 11.3652 8.99648 11.3828 8.96836C11.3969 8.94023 11.4039 8.90156 11.3934 8.86289C11.3881 8.84626 11.3797 8.83076 11.3687 8.81719C11.3578 8.8025 11.3448 8.78947 11.3301 8.77852L11.3195 8.77148M11.5023 9.72773C11.503 9.72072 11.503 9.71366 11.5023 9.70664C11.5023 9.675 11.4883 9.64687 11.4672 9.62578C11.4602 9.61875 11.4531 9.6082 11.4426 9.60469M11.4566 9.61523C11.4566 9.5625 11.4109 9.52734 11.3582 9.5168M11.2422 9.59766C11.2281 9.58711 11.2141 9.58008 11.207 9.56602C11.1298 9.48546 11.0859 9.37874 11.084 9.26719C11.084 9.15117 11.1297 9.03164 11.1824 8.98594M9.59687 11.366L9.64961 11.3203L9.68477 11.2922L9.74805 11.2535L9.81133 11.2219L9.85352 11.2113L9.94141 11.1937L10.0434 11.1762M9.21016 11.7211C9.15685 11.7989 9.08245 11.8599 8.9957 11.8969C8.90895 11.8599 8.83456 11.7989 8.78125 11.7211" stroke="#703D29" stroke-width="0.5"/>
<path id="Vector_22" d="M8.84102 11.6035C8.83047 11.6463 8.80999 11.6861 8.78125 11.7195" stroke="#703D29" stroke-width="0.5" stroke-linecap="round"/>
<path id="Vector_23" d="M8.85195 11.5446L8.83789 11.6079M8.77461 11.7239L8.74648 11.752L8.69727 11.7766L8.64453 11.7942M8.48633 6.79497C8.49336 6.77388 8.50039 6.7563 8.49687 6.72114C8.49687 6.60161 8.40898 6.54888 8.37383 6.43989C8.35273 6.37661 8.34219 6.32036 8.39141 6.27114C8.43359 6.23247 8.4793 6.23599 8.53203 6.25356C8.64453 6.29575 8.77461 6.4188 9.00313 6.42231M9.00313 6.42231C8.77461 6.4188 8.64453 6.29575 8.53555 6.25356C8.4793 6.23247 8.43008 6.22544 8.38789 6.26763C8.33867 6.31333 8.35273 6.3731 8.37383 6.44341C8.40898 6.54888 8.48984 6.60161 8.49336 6.72114C8.49336 6.7563 8.48633 6.77388 8.4793 6.79146M9.00313 6.42231C9.23164 6.4188 9.36523 6.29575 9.4707 6.25356C9.52344 6.23599 9.56914 6.23247 9.61133 6.27114C9.56914 6.23247 9.54102 6.22896 9.48477 6.2395C9.42148 6.25005 9.22813 6.40122 9.00313 6.41528M11.2426 9.59692C11.1883 9.55654 11.1441 9.50406 11.1136 9.44365C11.0831 9.38324 11.0671 9.31656 11.0668 9.24888C11.0668 9.13286 11.1125 9.01333 11.1688 8.96763M9.2 11.7098C9.14764 11.7871 9.07452 11.848 8.98906 11.8856C8.90092 11.8493 8.8252 11.7883 8.77109 11.7098" stroke="#703D29" stroke-width="0.5"/>
<path id="Vector_24" d="M8.62305 6.85438L8.68984 6.81922C8.71797 6.79813 8.75664 6.80164 8.7707 6.81922C8.78828 6.84383 8.7918 6.87899 8.76719 6.90008" stroke="#703D29" stroke-width="0.5" stroke-linecap="round"/>
<path id="Vector_25" d="M8.28926 7.00937C8.44395 6.97773 8.57051 6.90742 8.66191 6.85469M9.57246 11.4742L9.59355 11.4988L9.60059 11.5234C9.60762 11.5656 9.57949 11.5937 9.54785 11.5973C9.52758 11.5997 9.50705 11.5956 9.48931 11.5855C9.47158 11.5753 9.45759 11.5597 9.44941 11.541M8.27871 7.00234C8.4334 6.96719 8.55996 6.90039 8.65488 6.84766M11.3971 9.85352C11.3725 9.86406 11.3549 9.86406 11.3197 9.84648L11.267 9.81836C11.1967 9.77969 11.1088 9.71289 11.0279 9.56523C11.0074 9.52517 10.992 9.48264 10.9822 9.43867C10.9752 9.40703 10.9682 9.37539 10.9682 9.34375C10.9668 9.28466 10.9727 9.22562 10.9857 9.16797C11.0018 9.07562 11.0405 8.98867 11.0982 8.91484C11.1334 8.86914 11.158 8.84453 11.2213 8.84453M7.17832 7.73711C7.20224 7.75657 7.22134 7.78128 7.23415 7.80933C7.24695 7.83738 7.25311 7.86801 7.25215 7.89883C7.25215 7.98672 7.18184 8.12734 6.99902 8.18008C6.92871 8.19766 6.86543 8.18008 6.82324 8.15547" stroke="#703D29" stroke-width="0.5"/>
<path id="Vector_26" d="M7.20703 8.0332C7.24219 8.0543 7.25273 8.08242 7.25273 8.12461C7.25273 8.15273 7.23516 8.19492 7.2 8.23008C7.16857 8.26431 7.1306 8.2919 7.08833 8.31122C7.04607 8.33054 7.00036 8.34121 6.95391 8.34258C6.8939 8.34414 6.83491 8.32693 6.78516 8.29336C6.73249 8.25777 6.69491 8.2039 6.67969 8.14219" stroke="#703D29" stroke-width="0.5"/>
<path id="Vector_27" d="M7.20625 8.21953C7.24141 8.25469 7.25195 8.29688 7.25195 8.34961C7.25195 8.42695 7.22031 8.48672 7.14648 8.55C7.13118 8.56482 7.11331 8.57673 7.09375 8.58516M10.7359 7.96641V8.06836M10.7254 7.9418V8.08242M10.7359 7.63945V7.82227M10.7254 7.60078V7.84687M10.6727 10.1566C10.6375 10.227 10.6094 10.2621 10.5566 10.3148C10.5092 10.3633 10.4531 10.4027 10.3914 10.4309C10.3335 10.4592 10.272 10.4793 10.2086 10.4906C10.1348 10.5082 10.0891 10.5117 10.0152 10.5152C9.94492 10.5152 9.90625 10.5152 9.83594 10.5082C9.76211 10.5082 9.71992 10.4941 9.64609 10.4871C9.58633 10.4836 9.55117 10.4766 9.48789 10.4766C9.38348 10.474 9.27958 10.492 9.18203 10.5293C9.10469 10.5609 9.02031 10.6137 9.00273 10.6348C8.98516 10.6137 8.89727 10.5609 8.82344 10.5293C8.72479 10.4915 8.61965 10.4736 8.51406 10.4766C8.4543 10.4766 8.41914 10.4836 8.35938 10.4871C8.28555 10.4941 8.24336 10.5047 8.16953 10.5082C8.04511 10.5201 7.91962 10.5142 7.79688 10.4906C7.72305 10.473 7.68086 10.4625 7.61055 10.4273C7.54386 10.3961 7.4841 10.3519 7.43477 10.2973M8.61602 11.7984L8.66875 11.7914M9.51953 11.7246L9.56875 11.7211L9.61797 11.7L9.65313 11.6824L9.69883 11.6262L9.70938 11.6051L9.71641 11.5594V11.5383M11.0383 7.69219C11.0594 7.61836 11.0312 7.54102 10.9609 7.54102M7.24844 8.85234C7.23187 8.9069 7.19551 8.9533 7.14648 8.98242M7.25195 7.66758C7.24363 7.69288 7.22988 7.71606 7.21166 7.73549C7.19344 7.75493 7.1712 7.77014 7.14648 7.78008C7.09727 7.80469 7.03398 7.78008 7.00586 7.75898" stroke="#703D29" stroke-width="0.5"/>
<path id="Vector_28" d="M6.85547 7.94062C6.90117 7.96172 6.94336 7.93008 6.93633 7.87383C6.93274 7.85723 6.92401 7.84219 6.91139 7.83083C6.89877 7.81947 6.8829 7.81238 6.86602 7.81055" stroke="#703D29" stroke-width="0.5" stroke-linecap="round"/>
<path id="Vector_29" d="M7.03425 10.311C7.04479 10.3215 7.04831 10.332 7.05886 10.332C7.07643 10.3356 7.09401 10.3426 7.11159 10.318C7.1362 10.2863 7.12214 10.2406 7.09753 10.209C7.07624 10.1878 7.0487 10.1739 7.01896 10.1695C6.98922 10.1651 6.95885 10.1703 6.93229 10.1844C6.91472 10.1949 6.88659 10.209 6.86198 10.2406L6.83034 10.2863L6.7987 10.3567C6.74245 10.5184 6.80925 10.6906 6.91823 10.7961" stroke="#703D29" stroke-width="0.5"/>
<path id="Vector_30" d="M9.56895 11.4707L9.58652 11.4918L9.59355 11.5164C9.60059 11.5586 9.57246 11.5867 9.5373 11.5867C9.4916 11.5938 9.45996 11.5656 9.44238 11.5305" stroke="#703D29" stroke-width="0.5" stroke-linecap="round"/>
<path id="Vector_31" d="M10.9547 6.60156C11.002 6.60949 11.0452 6.63332 11.0772 6.66911C11.1091 6.7049 11.1279 6.75052 11.1305 6.79844C11.1305 6.925 11.0883 6.9707 11.0215 7.05859C10.9512 7.15352 10.7227 7.3293 10.7227 7.52969C10.7227 7.64922 10.7578 7.72656 10.8422 7.76523C10.8984 7.78984 10.9652 7.76523 10.9934 7.73711C11.0637 7.67031 11.0391 7.5543 10.9582 7.54023C10.8703 7.52617 10.8527 7.67031 10.9406 7.65977M11.4434 9.60391C11.4393 9.57967 11.4268 9.55763 11.4082 9.54158C11.3896 9.52553 11.366 9.51649 11.3414 9.51602C11.3134 9.51602 11.2866 9.52713 11.2668 9.54691C11.247 9.56669 11.2359 9.59351 11.2359 9.62148C11.2359 9.64961 11.25 9.67422 11.2676 9.6918" stroke="#703D29" stroke-width="0.5"/>
<path id="Vector_32" d="M10.7959 7.73633C10.772 7.75579 10.7529 7.7805 10.7401 7.80855C10.7273 7.8366 10.7211 7.86723 10.7221 7.89805C10.7221 7.98594 10.7924 8.12656 10.9752 8.1793C11.042 8.19687 11.1088 8.19336 11.151 8.16875M6.75998 7.88047C6.70649 7.89712 6.6597 7.93036 6.62638 7.97539C6.59305 8.02788 6.57035 8.08641 6.55958 8.14766C6.55607 8.17227 6.54904 8.25313 6.5631 8.33398C6.57492 8.39054 6.5976 8.44427 6.6299 8.49219L6.65802 8.52734L6.68966 8.55195M8.48966 11.1395C8.62677 11.2027 8.72521 11.2449 8.8131 11.382C8.84402 11.4388 8.85494 11.5044 8.8441 11.5682C8.83326 11.6319 8.80129 11.6902 8.75333 11.7336C8.7278 11.7564 8.69754 11.7733 8.66471 11.783C8.63189 11.7927 8.59732 11.7951 8.56349 11.7898C8.51076 11.7828 8.45802 11.7441 8.45099 11.7195M7.14318 8.55547C7.17866 8.57755 7.20751 8.60881 7.22669 8.64594C7.24588 8.68307 7.25468 8.72469 7.25216 8.76641C7.25216 8.87187 7.19943 8.93516 7.13966 8.97383" stroke="#703D29" stroke-width="0.5"/>
<path id="Vector_33" d="M7.07324 8.89648C7.18926 9.04062 7.24902 9.125 7.25254 9.29375C7.25605 9.45547 7.20332 9.56445 7.11191 9.68047" stroke="#703D29" stroke-width="0.5" stroke-linecap="round"/>
<path id="Vector_34" d="M9.27402 7.01211C9.29611 6.99693 9.31226 6.97457 9.31973 6.94883C9.33379 6.90664 9.33379 6.87148 9.30918 6.83984C9.3373 6.875 9.34082 6.90664 9.33379 6.94883C9.32676 6.97695 9.30918 6.99102 9.28809 7.01211M10.7365 9.43789V9.88789C10.7365 9.92796 10.733 9.96796 10.726 10.0074M10.726 9.39219V9.94766L10.7119 10.0215M10.726 8.81562V9.22344M10.7365 8.84727V9.17773M10.7365 8.42188V8.67148M10.726 8.39375V8.70312M10.7365 8.16875V8.26719M10.726 8.14766V8.28828M10.6768 10.1234L10.6662 10.141C10.6371 10.2021 10.5965 10.257 10.5467 10.3027C10.5 10.3496 10.4452 10.3877 10.385 10.4152C10.3262 10.4451 10.2634 10.4664 10.1986 10.4785C10.1283 10.4961 10.0826 10.4996 10.0053 10.5031C9.93496 10.5031 9.89981 10.5031 9.82949 10.4961C9.75215 10.4926 9.71348 10.482 9.63965 10.475C9.57637 10.4715 9.54121 10.4645 9.48145 10.4645C9.37586 10.4616 9.27074 10.4795 9.17207 10.5172C9.09824 10.5488 9.01387 10.6016 8.99629 10.6227C8.94315 10.5773 8.88246 10.5416 8.81699 10.5172C8.71833 10.4795 8.6132 10.4616 8.50762 10.4645C8.44785 10.4645 8.4127 10.4715 8.34941 10.475C8.2791 10.482 8.23691 10.4926 8.15957 10.4961C8.03631 10.5077 7.91203 10.5018 7.79043 10.4785C7.65879 10.4549 7.53674 10.3939 7.43887 10.3027C7.41435 10.2777 7.39201 10.2507 7.37207 10.2219M7.31582 10.134C7.32099 10.1727 7.31804 10.2121 7.30714 10.2496C7.29625 10.2872 7.27765 10.322 7.25254 10.352C7.22793 10.3766 7.1752 10.4223 7.11191 10.4223C7.00645 10.4258 6.97129 10.352 6.96777 10.3344" stroke="#703D29" stroke-width="0.5"/>
<path id="Vector_35" d="M7.18945 10.0898C7.21082 10.1115 7.22862 10.1364 7.24219 10.1637C7.2668 10.2129 7.25977 10.2973 7.23867 10.3395C7.23536 10.3432 7.23184 10.3467 7.22813 10.35M6.66211 10.8562C6.72539 10.9266 6.82031 10.9969 6.96797 11.0566C7.20114 11.1299 7.44425 11.1667 7.68867 11.1656C7.96992 11.1762 8.23359 11.1902 8.3918 11.366M8.88047 11.25C8.92976 11.2933 8.96828 11.3474 8.99297 11.4082M8.78555 11.7316C8.77999 11.7378 8.77412 11.7437 8.76797 11.7492C8.74284 11.7715 8.71316 11.7881 8.68099 11.7978C8.64882 11.8075 8.61492 11.8101 8.58164 11.8055C8.55737 11.8029 8.5339 11.7954 8.51272 11.7833C8.49153 11.7712 8.4731 11.7548 8.45859 11.7352M8.30742 11.6508L8.31797 11.6613C8.35403 11.702 8.40441 11.7272 8.45859 11.7316M9.21797 11.7316C9.16417 11.8081 9.08982 11.8679 9.00352 11.9039C8.91677 11.8669 8.84237 11.8059 8.78906 11.7281L8.78203 11.7176M9.21797 11.7281L9.23906 11.7492C9.26419 11.7715 9.29387 11.7881 9.32604 11.7978C9.35822 11.8075 9.39211 11.8101 9.42539 11.8055C9.4488 11.8033 9.47141 11.7959 9.49152 11.7837C9.51162 11.7715 9.52868 11.7549 9.54141 11.7352L9.55547 11.7141" stroke="#703D29" stroke-width="0.5"/>
<path id="Vector_36" d="M9.53438 11.7168L9.51328 11.752L9.48164 11.7766L9.43594 11.7977H9.38672" stroke="#703D29" stroke-width="0.5"/>
<path id="Vector_37" d="M9.64648 11.3969C9.6751 11.4179 9.69805 11.4457 9.71328 11.4777C9.72031 11.4988 9.72734 11.5234 9.72734 11.548C9.72887 11.589 9.71508 11.6291 9.68867 11.6605C9.66917 11.6824 9.64535 11.6999 9.61872 11.712C9.59209 11.7241 9.56323 11.7305 9.53399 11.7309C9.53047 11.731 9.52695 11.731 9.52344 11.7309M9.52695 11.7238C9.50009 11.7244 9.4734 11.7194 9.44859 11.7091C9.42377 11.6988 9.40137 11.6835 9.38281 11.6641M11.1758 9.75508C11.1187 9.70276 11.0711 9.6409 11.0352 9.57227C11.0146 9.5322 10.9992 9.48967 10.9895 9.4457C10.9824 9.41406 10.9754 9.38594 10.9754 9.3543C10.9754 9.29805 10.9789 9.2418 10.993 9.17852C11.0102 9.08482 11.0501 8.99674 11.109 8.92188C11.1266 8.90078 11.1441 8.87266 11.1652 8.85859M11.1301 6.72812C11.2004 6.73516 11.2637 6.80898 11.2637 6.88633C11.2637 6.99531 11.2285 7.04102 11.1406 7.14648C11.0668 7.24141 10.8418 7.40312 10.8488 7.55781C10.8488 7.58594 10.8664 7.61406 10.884 7.63516M10.7926 7.73359C10.8066 7.75117 10.8277 7.76172 10.8488 7.77227C10.868 7.77996 10.8887 7.78332 10.9094 7.78211C10.93 7.78089 10.9502 7.77513 10.9684 7.76523M10.3742 6.54883C10.4021 6.5667 10.4241 6.59237 10.4375 6.62266C10.4867 6.74922 10.3742 6.84414 10.2688 6.91445C10.1987 6.9609 10.1196 6.99205 10.0367 7.00586" stroke="#703D29" stroke-width="0.5"/>
<path id="Vector_38" d="M10.2543 6.79219C10.2297 6.79219 10.198 6.78516 10.1664 6.75C10.158 6.74307 10.1509 6.73474 10.1453 6.72539M9.72695 6.8625C9.71369 6.85524 9.70179 6.84572 9.6918 6.83437C9.66719 6.80625 9.64961 6.76758 9.66719 6.71133C9.68477 6.65859 9.77266 6.50742 9.77266 6.40547C9.7832 6.24727 9.71992 6.15234 9.625 6.11719" stroke="#703D29" stroke-width="0.5"/>
<path id="Vector_39" d="M9.76992 6.36914L9.76641 6.42891L9.74883 6.48867L9.71719 6.56953L9.69258 6.62578L9.66797 6.67852L9.65742 6.71367L9.65039 6.7418L9.65391 6.76992M10.7262 10.3207C10.7262 10.3313 10.7402 10.3418 10.7402 10.3418C10.7584 10.3665 10.7815 10.3871 10.8082 10.4022C10.8349 10.4174 10.8644 10.4267 10.8949 10.4297C11.0004 10.4297 11.025 10.3559 11.0285 10.3383C11.0426 10.2574 11.0145 10.2328 10.9723 10.2117C10.9723 10.2117 10.9477 10.2012 10.9195 10.2047" stroke="#703D29" stroke-width="0.5" stroke-linecap="round"/>
<path id="Vector_40" d="M6.66546 9.96563C6.63098 9.9754 6.59447 9.9754 6.55999 9.96563C6.47913 9.94102 6.41936 9.86367 6.451 9.77227M6.82718 8.87578C6.83421 8.88281 6.83772 8.89688 6.83772 8.90391C6.84827 9.00938 6.76038 9.0375 6.6971 9.02344C6.66073 9.01245 6.62953 8.98874 6.60921 8.95664C6.59817 8.93734 6.59213 8.91559 6.59163 8.89336M7.21389 8.22539C7.22796 8.24297 7.24202 8.26055 7.24905 8.27813M7.21389 8.03906C7.23147 8.04961 7.24202 8.06016 7.24905 8.07422" stroke="#703D29" stroke-width="0.5"/>
<path id="Vector_41" d="M7.25234 8.16914C7.24137 8.19509 7.2259 8.21889 7.20664 8.23945C7.17491 8.27305 7.13681 8.29998 7.09456 8.3187C7.0523 8.33741 7.00675 8.34752 6.96055 8.34844C6.90054 8.35 6.84155 8.33279 6.7918 8.29922C6.73517 8.26395 6.69379 8.20877 6.67578 8.14453" stroke="#703D29" stroke-width="0.5" stroke-linecap="round"/>
<path id="Vector_42" d="M7.18164 7.74023C7.21337 7.7648 7.2377 7.79765 7.25195 7.83516" stroke="#703D29" stroke-width="0.5"/>
<path id="Vector_43" d="M7.25215 7.96484C7.23423 8.02014 7.20205 8.06974 7.15884 8.10863C7.11563 8.14751 7.06293 8.17432 7.00605 8.18633C6.94332 8.20003 6.87772 8.18868 6.82324 8.15469" stroke="#703D29" stroke-width="0.5" stroke-linecap="round"/>
<path id="Vector_44" d="M6.75 7.94531C6.75703 8.01914 6.80977 8.07539 6.90117 8.07891C7.03477 8.07891 7.11211 7.88906 6.99609 7.75195" stroke="#703D29" stroke-width="0.5"/>
<path id="Vector_45" d="M6.4541 8.59219C6.47168 8.6168 6.49629 8.63789 6.51738 8.65898C6.56676 8.70071 6.62421 8.73182 6.68613 8.75039M6.83379 8.76445C6.95332 8.75039 7.02012 8.6625 7.00605 8.56055C6.99551 8.47969 6.92168 8.41992 6.87246 8.41992" stroke="#703D29" stroke-width="0.5" stroke-linecap="round"/>
<path id="Vector_46" d="M7.02734 7.54102C7.07656 7.54102 7.1082 7.58672 7.10469 7.62539" stroke="#703D29" stroke-width="0.5"/>
<path id="Vector_47" d="M7.01367 6.83789C7.04081 6.90621 7.09041 6.96325 7.1543 6.99961M11.2148 7.875C11.2278 7.89512 11.235 7.91844 11.2356 7.94237C11.2361 7.96631 11.2301 7.98994 11.2181 8.01066C11.2061 8.03138 11.1886 8.04839 11.1676 8.05981C11.1465 8.07123 11.1227 8.07662 11.0988 8.07539C11.0741 8.07493 11.0498 8.06825 11.0283 8.05596C11.0068 8.04367 10.9887 8.02618 10.9758 8.00508" stroke="#703D29" stroke-width="0.5" stroke-linecap="round"/>
<path id="Vector_48" d="M10.7363 7.00586V7.44883" stroke="#703D29" stroke-width="0.5"/>
<path id="Vector_49" d="M6.85515 7.94013C6.89734 7.96826 6.94655 7.91904 6.92546 7.8663C6.91491 7.83115 6.86218 7.79248 6.79187 7.83818C6.71804 7.89091 6.73913 8.05966 6.88679 8.05966C7.01687 8.06318 7.09773 7.86982 6.98171 7.73623C6.86921 7.60615 6.6653 7.63427 6.52468 7.74326C6.42528 7.82796 6.35617 7.94273 6.3278 8.07021C6.3087 8.15588 6.3087 8.2447 6.3278 8.33037C6.34193 8.4055 6.37059 8.47715 6.41218 8.5413L6.44733 8.58701L6.50359 8.64326C6.58392 8.7142 6.68825 8.75191 6.79538 8.74872C6.92898 8.74521 7.00632 8.65029 6.98874 8.5413C6.97468 8.43583 6.86921 8.3831 6.7989 8.43583C6.75319 8.46748 6.73562 8.56943 6.81999 8.59404C6.86569 8.6081 6.90788 8.54833 6.87624 8.51318M10.5184 6.49169C10.5958 6.44951 10.652 6.45654 10.6942 6.5163C10.7354 6.57573 10.7518 6.64888 10.7399 6.72021C10.7259 6.79755 10.7048 6.82568 10.6415 6.88193" stroke="#703D29" stroke-width="0.5" stroke-linecap="round"/>
<path id="Vector_50" d="M10.7012 6.52377C10.7891 6.46752 10.884 6.48862 10.9332 6.56947C10.9685 6.61959 10.9847 6.6807 10.9789 6.74174C10.9756 6.79464 10.9591 6.84586 10.9308 6.8907C10.9026 6.93555 10.8635 6.97257 10.8172 6.99838" stroke="#703D29" stroke-width="0.5" stroke-linecap="round"/>
<path id="Vector_51" d="M11.1088 6.72461C11.1791 6.73164 11.2389 6.79492 11.2389 6.87227C11.2389 6.97773 11.2108 7.02695 11.1229 7.13242C11.0491 7.22383 10.8276 7.38555 10.8311 7.54375C10.8311 7.6 10.8838 7.65625 10.926 7.65977" stroke="#703D29" stroke-width="0.5"/>
<path id="Vector_52" d="M11.1197 7.94091C11.0775 7.96904 11.0283 7.92334 11.0494 7.8706C11.0635 7.83544 11.1127 7.79326 11.1795 7.83896C11.2568 7.89169 11.2357 8.06044 11.0881 8.06044C10.958 8.06396 10.8666 7.87763 10.9932 7.73701C11.1092 7.60693 11.3236 7.63154 11.4572 7.73701C11.5135 7.78623 11.633 7.91279 11.6541 8.07451C11.6857 8.27138 11.6787 8.51748 11.4783 8.66513C11.3907 8.72523 11.2857 8.75488 11.1795 8.74951C11.0459 8.74599 10.9686 8.65107 10.9861 8.54209C11.0002 8.43662 11.1022 8.39091 11.176 8.43662C11.2533 8.47529 11.2393 8.58779 11.1549 8.59482C11.1057 8.60185 11.067 8.54912 11.0986 8.51396" stroke="#703D29" stroke-width="0.5" stroke-linecap="round"/>
<path id="Vector_53" d="M11.0488 7.87461C11.0699 7.77266 11.1543 7.76562 11.2246 7.76562C11.4074 7.76562 11.5375 7.98711 11.541 8.20156C11.541 8.46875 11.425 8.62695 11.2246 8.63398C11.1789 8.6375 11.091 8.61289 11.0875 8.55313" stroke="#703D29" stroke-width="0.5"/>
<path id="Vector_54" d="M11.1615 7.82812C11.3584 7.87031 11.4287 8.04609 11.4287 8.21484C11.4287 8.35195 11.4146 8.53828 11.1475 8.60156" stroke="#703D29" stroke-width="0.5" stroke-linecap="square"/>
<path id="Vector_55" d="M11.4854 9.7122C11.4892 9.69327 11.4878 9.67369 11.4815 9.65545C11.4752 9.63722 11.4642 9.62098 11.4496 9.6084C11.435 9.59581 11.4173 9.58734 11.3983 9.58384C11.3793 9.58034 11.3598 9.58194 11.3416 9.58847C11.3234 9.59501 11.3074 9.60625 11.295 9.62104C11.2826 9.63583 11.2743 9.65364 11.2711 9.67266C11.2678 9.69167 11.2697 9.71121 11.2765 9.72928C11.2832 9.74734 11.2947 9.76329 11.3096 9.77548" stroke="#703D29" stroke-width="0.5"/>
<path id="Vector_56" d="M11.0949 9.54492C11.1376 9.61572 11.1982 9.67395 11.2707 9.71367M11.2356 10.009C11.1406 9.94922 10.9649 9.86836 10.8067 9.9457C10.7796 9.95723 10.755 9.97406 10.7345 9.99518C10.714 10.0163 10.6979 10.0413 10.6871 10.0687C10.6719 10.1146 10.6688 10.1636 10.678 10.211C10.6873 10.2584 10.7086 10.3027 10.7399 10.3395C10.7753 10.3814 10.8258 10.4079 10.8805 10.4133C10.986 10.4133 11.0106 10.343 11.0141 10.3254C11.0246 10.248 10.9789 10.2164 10.9578 10.2094C10.9367 10.2023 10.8805 10.2023 10.8664 10.2445C10.8629 10.2586 10.8629 10.2832 10.8735 10.3008" stroke="#703D29" stroke-width="0.5" stroke-linecap="round"/>
<path id="Vector_57" d="M9.57578 11.4837C9.60391 11.547 9.57227 11.5752 9.53008 11.5787C9.47031 11.5857 9.43867 11.54 9.43516 11.4978C9.42813 11.4275 9.48789 11.3607 9.5582 11.3642C9.58874 11.3649 9.6184 11.3746 9.64342 11.3921C9.66845 11.4097 9.68773 11.4342 9.69883 11.4627C9.70586 11.4837 9.70938 11.5048 9.70938 11.5295C9.7118 11.5716 9.69796 11.6132 9.6707 11.6455C9.65161 11.6668 9.62835 11.6841 9.60236 11.6962C9.57637 11.7083 9.54818 11.7149 9.51953 11.7158C9.4 11.7193 9.30859 11.6103 9.30859 11.4943C9.30859 11.2798 9.62852 11.1603 9.75859 11.1287C9.92341 11.0896 10.092 11.0683 10.2613 11.0654C10.3633 11.0584 10.4371 11.0619 10.5461 11.0513C10.6445 11.0408 10.6973 11.0337 10.7992 11.0127C10.9303 10.9833 11.0515 10.9203 11.1508 10.8298C11.2443 10.7596 11.3091 10.6577 11.3331 10.5432C11.357 10.4287 11.3384 10.3094 11.2809 10.2076C11.2494 10.1573 11.2073 10.1145 11.1575 10.0823C11.1077 10.0501 11.0514 10.0293 10.9926 10.0212C10.8871 10.0037 10.7957 10.0494 10.7395 10.1548C10.7278 10.1828 10.7221 10.2128 10.7227 10.2431C10.7233 10.2734 10.7302 10.3032 10.743 10.3306C10.7605 10.3623 10.8133 10.4115 10.8766 10.4115C10.982 10.4115 11.0102 10.3412 11.0137 10.3236C11.0242 10.2462 10.9785 10.2146 10.9574 10.2076C10.9363 10.2005 10.8801 10.2005 10.866 10.2427C10.8625 10.2568 10.8625 10.2814 10.873 10.299" stroke="#703D29" stroke-width="0.5" stroke-linecap="round"/>
<path id="Vector_58" d="M9.48462 11.1445C9.34399 11.2043 9.24556 11.25 9.16118 11.3801C9.13722 11.423 9.12509 11.4715 9.12603 11.5207C9.12603 11.5945 9.16118 11.6789 9.22095 11.7316C9.24618 11.7551 9.2763 11.7726 9.30914 11.7829C9.34197 11.7932 9.3767 11.7962 9.41079 11.7914C9.46353 11.7844 9.51626 11.7457 9.52329 11.7211" stroke="#703D29" stroke-width="0.5" stroke-linecap="round"/>
<path id="Vector_59" d="M10.8281 8.55273C10.7684 8.57383 10.7227 8.67227 10.7227 8.76367C10.7227 8.86914 10.7719 8.93945 10.8352 8.97461" stroke="#703D29" stroke-width="0.5"/>
<path id="Vector_60" d="M10.8976 8.89648C10.7851 9.04062 10.7219 9.125 10.7219 9.29375C10.7183 9.45547 10.7676 9.56445 10.8625 9.68047" stroke="#703D29" stroke-width="0.5" stroke-linecap="round"/>
<path id="Vector_61" d="M10.29 6.52489L10.3006 6.51082C10.3463 6.44051 10.4307 6.42293 10.4939 6.46864C10.5643 6.52489 10.5854 6.61981 10.5643 6.72176C10.5568 6.75375 10.543 6.78391 10.5237 6.81048C10.5043 6.83705 10.4799 6.85948 10.4518 6.87645" stroke="#703D29" stroke-width="0.5"/>
<path id="Vector_62" d="M7.45282 6.49243C7.3825 6.45727 7.32274 6.4643 7.27704 6.51704C7.25653 6.54638 7.24221 6.57959 7.23496 6.61465C7.22771 6.64971 7.22767 6.68587 7.23485 6.72094C7.24891 6.79477 7.27 6.82641 7.33329 6.88266" stroke="#703D29" stroke-width="0.5" stroke-linecap="round"/>
<path id="Vector_63" d="M7.27304 6.52377C7.18515 6.46752 7.09023 6.48862 7.04101 6.56947C7.00568 6.61959 6.98947 6.6807 6.99531 6.74174C6.99861 6.79464 7.01515 6.84586 7.0434 6.8907C7.07166 6.93555 7.11073 6.97257 7.15702 6.99838" stroke="#703D29" stroke-width="0.5"/>
<path id="Vector_64" d="M7.02031 6.60156C6.97459 6.60741 6.93247 6.6294 6.90153 6.66356C6.87059 6.69772 6.85287 6.74182 6.85156 6.78789C6.85156 6.91445 6.8832 6.96367 6.95352 7.05859C7.02383 7.15352 7.25234 7.3293 7.25234 7.52969C7.25234 7.64922 7.21719 7.72656 7.13281 7.76523C7.07656 7.78984 7.00977 7.76523 6.98164 7.73711C6.91133 7.67031 6.93945 7.5543 7.01328 7.54023C7.10469 7.52617 7.12227 7.67031 7.03438 7.65977" stroke="#703D29" stroke-width="0.5"/>
<path id="Vector_65" d="M6.8623 6.72461C6.79199 6.73164 6.72168 6.79492 6.72168 6.86523C6.72168 6.97422 6.76387 7.02344 6.85176 7.13242C6.92207 7.22383 7.13301 7.38555 7.12949 7.54023C7.12949 7.59648 7.0873 7.67031 7.04863 7.65977" stroke="#703D29" stroke-width="0.5"/>
<path id="Vector_66" d="M6.69698 8.89062C6.73214 8.80977 6.81651 8.84492 6.82003 8.89062C6.83409 8.99609 6.74268 9.02422 6.6794 9.00664C6.64425 8.99961 6.62315 8.97852 6.60909 8.95391C6.59628 8.93013 6.59078 8.90309 6.59329 8.8762C6.59579 8.8493 6.60618 8.82375 6.62315 8.80273C6.63269 8.78902 6.64459 8.77712 6.65831 8.76758C6.68292 8.75352 6.71104 8.75 6.75323 8.75C6.90792 8.75 7.04503 8.93633 7.09073 9.12969C7.11618 9.24052 7.11857 9.35539 7.09776 9.46719C7.07419 9.58633 7.01683 9.69617 6.93253 9.78359C6.85396 9.85939 6.75889 9.91594 6.65479 9.94883C6.61809 9.95977 6.57899 9.95977 6.54229 9.94883C6.46495 9.92773 6.41221 9.85039 6.4544 9.75547C6.48956 9.68164 6.60557 9.64297 6.65831 9.73438C6.66182 9.74492 6.66885 9.75899 6.66885 9.78008C6.66885 9.80469 6.65831 9.83281 6.64073 9.84336C6.60206 9.87148 6.53526 9.86445 6.53878 9.79063" stroke="#703D29" stroke-width="0.5" stroke-linecap="round"/>
<path id="Vector_67" d="M6.57376 9.85273C6.60188 9.86328 6.61946 9.86328 6.65462 9.8457L6.70735 9.81758C6.77766 9.77891 6.86555 9.71211 6.9429 9.56445C6.96465 9.52455 6.9812 9.48201 6.99212 9.43789C6.99915 9.40625 7.00618 9.37461 7.00618 9.34297C7.00755 9.28388 7.00165 9.22484 6.9886 9.16719C6.9725 9.07484 6.93386 8.98789 6.8761 8.91406C6.84095 8.86836 6.81634 8.84375 6.75305 8.84375M6.48938 9.71211C6.48563 9.69318 6.48697 9.6736 6.49327 9.65537C6.49957 9.63713 6.51059 9.62089 6.52521 9.60831C6.53984 9.59573 6.55754 9.58725 6.57652 9.58375C6.59549 9.58025 6.61505 9.58185 6.6332 9.58839C6.65136 9.59492 6.66745 9.60616 6.67984 9.62095C6.69223 9.63574 6.70047 9.65355 6.70372 9.67257C6.70697 9.69159 6.70511 9.71113 6.69834 9.72919C6.69156 9.74725 6.68012 9.7632 6.66516 9.77539" stroke="#703D29" stroke-width="0.5"/>
<path id="Vector_68" d="M6.53125 9.60352C6.53534 9.57928 6.54777 9.55724 6.56638 9.54119C6.585 9.52514 6.60863 9.5161 6.6332 9.51562C6.66117 9.51562 6.688 9.52674 6.70778 9.54652C6.72756 9.56629 6.73867 9.59312 6.73867 9.62109C6.73645 9.64819 6.72386 9.67338 6.70352 9.69141" stroke="#703D29" stroke-width="0.5"/>
<path id="Vector_69" d="M6.73242 9.59609C6.78673 9.55571 6.83088 9.50323 6.86139 9.44282C6.8919 9.38241 6.90793 9.31572 6.9082 9.24805C6.9082 9.13203 6.8625 9.0125 6.80625 8.9668" stroke="#703D29" stroke-width="0.5"/>
<path id="Vector_70" d="M6.87988 9.54492C6.83737 9.61583 6.77668 9.67408 6.7041 9.71367" stroke="#703D29" stroke-width="0.5" stroke-linecap="round"/>
<path id="Vector_71" d="M7.16133 9.94877C7.13321 9.88549 7.08399 9.85737 6.99961 9.84682C6.91827 9.84063 6.83706 9.86032 6.76758 9.90307C6.70114 9.93315 6.64177 9.97687 6.59332 10.0314C6.54487 10.0859 6.50842 10.15 6.48633 10.2195C6.47016 10.2718 6.46302 10.3265 6.46524 10.3812C6.46524 10.4831 6.49336 10.5921 6.52149 10.6449C6.54258 10.6941 6.60586 10.898 6.95039 11.0386C7.18454 11.1133 7.42885 11.1512 7.67461 11.1511C7.96641 11.1617 8.23711 11.1722 8.3918 11.3656" stroke="#703D29" stroke-width="0.5"/>
<path id="Vector_72" d="M6.73926 10.0091C6.83418 9.94933 7.00645 9.86847 7.16465 9.94581C7.21928 9.97047 7.26303 10.0142 7.2877 10.0689C7.30289 10.1147 7.30602 10.1637 7.29679 10.2111C7.28755 10.2585 7.26626 10.3028 7.23496 10.3396C7.21035 10.3642 7.16113 10.4099 7.09434 10.4134C6.98887 10.4134 6.96426 10.3431 6.96074 10.3255C6.9502 10.2482 6.9959 10.2165 7.01699 10.2095C7.03457 10.2025 7.09434 10.2025 7.1084 10.2446C7.11191 10.2587 7.11191 10.2833 7.10137 10.3009" stroke="#703D29" stroke-width="0.5" stroke-linecap="round"/>
<path id="Vector_73" d="M7.10865 10.2856C7.11358 10.269 7.11389 10.2514 7.10956 10.2347C7.10522 10.218 7.0964 10.2027 7.08404 10.1906C7.06247 10.1699 7.03497 10.1564 7.00536 10.152C6.97575 10.1476 6.9455 10.1525 6.91881 10.166C6.89047 10.1793 6.86619 10.2 6.8485 10.2258L6.81334 10.268L6.78522 10.3383C6.7149 10.5352 6.8274 10.7461 6.96803 10.834C7.09084 10.9062 7.22993 10.9461 7.37233 10.95L7.55865 10.9606H8.02975L8.24068 10.9817L8.39537 11.0098L8.44811 11.0238L8.48326 11.0344C8.5782 11.061 8.66922 11.1 8.75397 11.1504C8.77858 11.1645 8.8067 11.1785 8.82428 11.1996L8.86295 11.2348C8.91568 11.284 8.97193 11.3403 8.986 11.4211V11.4668C8.986 11.516 8.94733 11.5863 8.83483 11.6074" stroke="#703D29" stroke-width="0.5"/>
<path id="Vector_74" d="M8.40185 11.4837C8.36669 11.547 8.40185 11.5752 8.44404 11.5787C8.5038 11.5857 8.53544 11.54 8.53896 11.4978C8.54599 11.4275 8.48623 11.3607 8.41591 11.3642C8.38537 11.3649 8.35572 11.3746 8.33069 11.3921C8.30567 11.4097 8.28639 11.4342 8.27529 11.4627C8.26788 11.4841 8.26431 11.5067 8.26474 11.5295C8.26134 11.5712 8.2739 11.6126 8.2999 11.6455C8.3194 11.6673 8.34322 11.6848 8.36985 11.6969C8.39648 11.709 8.42533 11.7154 8.45458 11.7158C8.57412 11.7193 8.66552 11.6103 8.66552 11.4943C8.66552 11.2798 8.3456 11.1603 8.21552 11.1287C8.05071 11.0896 7.88215 11.0683 7.71279 11.0654C7.61083 11.0584 7.53701 11.0619 7.42802 11.0513C7.32958 11.0408 7.27685 11.0337 7.1749 11.0127C7.04382 10.9833 6.92266 10.9203 6.82333 10.8298C6.72978 10.7596 6.66499 10.6577 6.64105 10.5432C6.61711 10.4287 6.63567 10.3094 6.69326 10.2076C6.7247 10.1573 6.76682 10.1145 6.81664 10.0823C6.86646 10.0501 6.92276 10.0293 6.98154 10.0212C7.08701 10.0037 7.17841 10.0494 7.23115 10.1548C7.25927 10.2041 7.25224 10.2884 7.23115 10.3306C7.21671 10.3543 7.19664 10.3741 7.17273 10.3882C7.14881 10.4023 7.12178 10.4103 7.09404 10.4115C6.98857 10.4115 6.96396 10.3412 6.96044 10.3236C6.9499 10.2462 6.9956 10.2146 7.01669 10.2076C7.03427 10.2005 7.09404 10.2005 7.1081 10.2427C7.11162 10.2568 7.11162 10.2814 7.10107 10.299" stroke="#703D29" stroke-width="0.5"/>
<path id="Vector_75" d="M7.68437 6.52489C7.68086 6.52019 7.67735 6.5155 7.67382 6.51082C7.62812 6.44051 7.54374 6.42293 7.48046 6.46864C7.41015 6.52489 7.38905 6.61981 7.41015 6.72176C7.41763 6.75375 7.43143 6.78391 7.45075 6.81048C7.47008 6.83705 7.49452 6.85948 7.52265 6.87645" stroke="#703D29" stroke-width="0.5" stroke-linecap="round"/>
<path id="Vector_76" d="M10.3145 6.73861C10.202 6.86166 10.0859 6.90033 9.91719 6.90736C9.86445 6.90736 9.7625 6.88978 9.70625 6.84759C9.67109 6.81947 9.62539 6.77728 9.65352 6.69291C9.67109 6.64017 9.75898 6.49252 9.75898 6.38705C9.76602 6.22884 9.70625 6.14095 9.61133 6.10931C9.43555 6.04603 9.2457 6.22181 9.1332 6.26048C9.08693 6.27658 9.03801 6.28374 8.98906 6.28158C8.93281 6.28158 8.90117 6.28158 8.84141 6.26048C8.72891 6.22181 8.53906 6.04955 8.36328 6.10931C8.26836 6.14447 8.20859 6.22884 8.21563 6.39056C8.21563 6.49252 8.30352 6.64017 8.32109 6.69291C8.34922 6.77377 8.30703 6.81947 8.26836 6.84759C8.20482 6.8864 8.13187 6.90707 8.05742 6.90736C7.88516 6.90033 7.77617 6.86166 7.66016 6.73861" stroke="#703D29" stroke-width="0.5"/>
<path id="Vector_77" d="M8.36328 11.0918C8.38438 11.1023 8.3668 11.0883 8.51094 11.1516C8.64453 11.2113 8.74297 11.2641 8.82734 11.3977C8.86023 11.4616 8.86897 11.5352 8.85195 11.6051" stroke="#703D29" stroke-width="0.5" stroke-linecap="round"/>
<path id="Vector_78" d="M8.37012 11.6984C8.3985 11.713 8.42965 11.7214 8.46152 11.723C8.58105 11.7266 8.67246 11.6176 8.67246 11.5016C8.67246 11.4242 8.63027 11.3609 8.57051 11.3047" stroke="#703D29" stroke-width="0.5"/>
<path id="Vector_79" d="M8.39874 11.4855C8.3671 11.5523 8.40929 11.584 8.45148 11.591C8.51124 11.598 8.54288 11.5488 8.54991 11.5066C8.55143 11.4837 8.54667 11.4608 8.53614 11.4403C8.52561 11.4199 8.50971 11.4027 8.49015 11.3906" stroke="#703D29" stroke-width="0.5" stroke-linecap="round"/>
<path id="Vector_80" d="M10.9686 6.60156C11.06 6.60156 11.1408 6.70352 11.1408 6.80547C11.1408 6.925 11.0775 6.99883 11.0318 7.05156C10.9967 7.09727 10.9545 7.13594 10.9053 7.18516" stroke="#703D29" stroke-width="0.5"/>
<path id="Vector_81" d="M10.8628 6.50625C10.8964 6.5207 10.9247 6.54528 10.9437 6.57656C10.9778 6.62715 10.9927 6.68822 10.9859 6.74883C10.9824 6.86836 10.898 6.94922 10.8206 6.99844M10.687 6.50625L10.7046 6.52734C10.7256 6.55576 10.7403 6.58836 10.7475 6.62294C10.7548 6.65752 10.7546 6.69326 10.7468 6.72773C10.7411 6.7595 10.7288 6.78971 10.7106 6.81638C10.6925 6.84304 10.6688 6.86555 10.6413 6.88242M10.5007 6.47461C10.571 6.53086 10.5956 6.6293 10.571 6.72773C10.5534 6.79805 10.5077 6.84375 10.455 6.87539M10.7679 8.03203C10.7749 8.05664 10.789 8.06719 10.8101 8.08477C10.8574 8.13355 10.9168 8.16876 10.9824 8.18672C11.0117 8.19518 11.0426 8.19736 11.0729 8.19312C11.1031 8.18888 11.1322 8.17831 11.1581 8.16211M6.57376 9.68086C6.60892 9.68086 6.64407 9.70195 6.66868 9.74414C6.67554 9.75715 6.67916 9.77162 6.67923 9.78633C6.67923 9.81094 6.66868 9.83555 6.6511 9.84961C6.60892 9.87422 6.5386 9.86367 6.54212 9.78984" stroke="#703D29" stroke-width="0.5" stroke-linecap="round"/>
<path id="Vector_82" d="M6.79141 8.75391C6.93203 8.78203 7.06211 8.94727 7.10781 9.13008C7.13326 9.24091 7.13565 9.35578 7.11484 9.46758C7.09127 9.58672 7.03391 9.69656 6.94961 9.78398C6.93203 9.80508 6.91445 9.81914 6.88984 9.83672L6.8582 9.85781M6.63672 9.5168C6.69297 9.5168 6.74219 9.56953 6.74219 9.6293C6.74184 9.65541 6.73182 9.68046 6.71406 9.69961" stroke="#703D29" stroke-width="0.5"/>
<path id="Vector_83" d="M6.59863 9.58203C6.6584 9.58203 6.71465 9.63828 6.71465 9.69805C6.71492 9.71497 6.71125 9.73172 6.70393 9.74697C6.69661 9.76223 6.68583 9.77557 6.67246 9.78594" stroke="#703D29" stroke-width="0.5"/>
<path id="Vector_84" d="M7.14355 8.98438C7.19629 9.05469 7.23496 9.12148 7.24902 9.20234M7.24902 9.44141C7.23968 9.48051 7.22551 9.5183 7.20684 9.55391C7.18138 9.60237 7.14812 9.64632 7.1084 9.68398" stroke="#703D29" stroke-width="0.5" stroke-linecap="round"/>
<path id="Vector_85" d="M7.15039 8.56055C7.19673 8.59332 7.23125 8.64018 7.24883 8.69414" stroke="#703D29" stroke-width="0.5"/>
<path id="Vector_86" d="M7.25195 8.42227C7.2325 8.47333 7.19972 8.51824 7.15703 8.55234M6.90039 8.06719L6.96016 8.05313L6.99531 8.025L7.01992 7.98984L7.0375 7.94062L7.04805 7.89844" stroke="#703D29" stroke-width="0.5" stroke-linecap="round"/>
<path id="Vector_87" d="M6.77824 7.85352L6.70792 7.87813C6.66816 7.89695 6.63417 7.92608 6.60949 7.9625C6.57781 8.01419 6.55633 8.07147 6.5462 8.13125C6.53917 8.15586 6.53214 8.23672 6.5462 8.31758C6.55857 8.37565 6.58248 8.43065 6.61652 8.4793L6.64464 8.51445C6.6798 8.54961 6.71496 8.57422 6.76769 8.56367" stroke="#703D29" stroke-width="0.5"/>
<path id="Vector_88" d="M7.11562 7.58594C7.10859 7.62109 7.0875 7.6668 7.03125 7.66328" stroke="#703D29" stroke-width="0.5" stroke-linecap="round"/>
<path id="Vector_89" d="M6.90762 7.83109C6.85488 7.77836 6.73887 7.76429 6.62637 7.83812C6.60879 7.84515 6.59473 7.85922 6.58066 7.87328C6.56618 7.88579 6.5532 7.89995 6.54199 7.91547L6.4998 7.98578C6.48913 8.00828 6.48088 8.03185 6.47519 8.05609C6.4541 8.13695 6.4541 8.21429 6.4541 8.23187L6.46465 8.30922C6.47511 8.37111 6.49654 8.43064 6.52793 8.485C6.5495 8.52581 6.58056 8.56084 6.61849 8.58714C6.65642 8.61345 6.70012 8.63026 6.7459 8.63617C6.79512 8.63968 6.88301 8.61508 6.88652 8.55179" stroke="#703D29" stroke-width="0.5"/>
<path id="Vector_90" d="M10.2302 6.66843C10.2372 6.61921 10.2935 6.61218 10.3146 6.6403C10.3497 6.68249 10.3286 6.7528 10.2618 6.7739C10.2424 6.77804 10.2222 6.77661 10.2035 6.76977C10.1849 6.76293 10.1685 6.75095 10.1564 6.73523C10.1247 6.70007 10.1282 6.65788 10.1388 6.62272C10.1458 6.59812 10.1634 6.58054 10.188 6.56296C10.2618 6.50319 10.3884 6.51726 10.4271 6.61569C10.4798 6.74226 10.3673 6.83718 10.2618 6.90749C10.1282 6.99538 9.98058 7.01296 9.86456 7.01296C9.60792 7.00944 9.41105 6.8864 9.28449 6.81608C9.25636 6.79851 9.22472 6.80202 9.21066 6.82312C9.19308 6.84421 9.19308 6.87585 9.21769 6.89694" stroke="#703D29" stroke-width="0.5" stroke-linecap="round"/>
<path id="Vector_91" d="M10.2826 6.62305C10.3107 6.62305 10.3178 6.63711 10.3248 6.64766C10.36 6.68984 10.3354 6.76016 10.2686 6.78125M10.7713 8.22969C10.6729 8.33516 10.7607 8.52148 10.8346 8.56367C10.8592 8.58125 10.8697 8.5707 10.8908 8.58477" stroke="#703D29" stroke-width="0.5" stroke-linecap="round"/>
<path id="Vector_92" d="M10.7754 8.02461C10.7402 8.04922 10.7332 8.07383 10.7297 8.11602C10.7284 8.13668 10.7316 8.15737 10.7388 8.17675C10.7461 8.19613 10.7574 8.21377 10.7719 8.22852C10.8418 8.29365 10.933 8.33113 11.0285 8.33398C11.0897 8.33629 11.15 8.31905 11.2008 8.28477C11.2534 8.24917 11.291 8.19531 11.3063 8.13359M10.7227 9.87734V9.94766C10.7086 10.025 10.698 10.0707 10.6629 10.141C10.6334 10.2008 10.5928 10.2545 10.5434 10.2992C10.4959 10.3477 10.4399 10.387 10.3781 10.4152C10.3204 10.4448 10.2589 10.4661 10.1953 10.4785C10.1316 10.4909 10.0669 10.498 10.002 10.4996H9.82617L9.63281 10.475C9.57305 10.468 9.53789 10.4645 9.47813 10.4645C9.37253 10.4615 9.26739 10.4794 9.16875 10.5172C9.10452 10.542 9.04505 10.5776 8.99297 10.6227C8.97188 10.6016 8.8875 10.5453 8.81016 10.5172C8.764 10.4973 8.7156 10.4832 8.66602 10.475C8.60273 10.4645 8.56758 10.4645 8.5043 10.4645C8.44102 10.4645 8.40937 10.468 8.34609 10.475C8.27578 10.482 8.23008 10.4926 8.15625 10.4961C8.08594 10.4996 8.05078 10.5031 7.98047 10.4996C7.90312 10.4996 7.86094 10.4926 7.78359 10.4785C7.72 10.4661 7.65846 10.4448 7.60078 10.4152C7.53047 10.3801 7.49531 10.3555 7.43555 10.2992C7.38732 10.2542 7.34797 10.2005 7.31953 10.141C7.28739 10.081 7.2671 10.0153 7.25977 9.94766V7.01562H10.7227V9.87734Z" stroke="#703D29" stroke-width="0.5"/>
</g>
<g id="Group_4">
<path id="Vector_93" d="M6.9709 10.2836C6.9709 10.2649 6.97831 10.2471 6.99149 10.2339C7.00468 10.2207 7.02256 10.2133 7.04121 10.2133C7.05986 10.2133 7.07774 10.2207 7.09093 10.2339C7.10412 10.2471 7.11152 10.2649 7.11152 10.2836C7.11152 10.3022 7.10412 10.3201 7.09093 10.3333C7.07774 10.3465 7.05986 10.3539 7.04121 10.3539C7.02256 10.3539 7.00468 10.3465 6.99149 10.3333C6.97831 10.3201 6.9709 10.3022 6.9709 10.2836ZM6.54199 9.78789C6.54199 9.75273 6.56309 9.72461 6.59121 9.72461C6.61934 9.72461 6.64043 9.75273 6.64043 9.78789C6.64043 9.82305 6.61934 9.85117 6.59121 9.85117C6.56309 9.85117 6.54199 9.82305 6.54199 9.78789Z" fill="#C7B37F" stroke="#C7B37F" stroke-width="0.3"/>
<path id="Vector_94" d="M6.78418 8.53905C6.78418 8.51093 6.80879 8.48632 6.8334 8.48632C6.86152 8.48632 6.88262 8.51093 6.88262 8.53905C6.88262 8.56718 6.86152 8.58827 6.8334 8.58827C6.80879 8.58827 6.7877 8.56718 6.7877 8.53905H6.78418ZM7.64902 6.69335C7.64551 6.66171 7.66309 6.6371 7.68418 6.6371C7.70879 6.63359 7.7334 6.65468 7.73691 6.68281C7.73691 6.71093 7.72285 6.73554 7.69824 6.73905C7.67363 6.73905 7.64902 6.72148 7.64902 6.69335Z" fill="#C7B37F"/>
</g>
<g id="Group_5">
<path id="Vector_95" d="M6.7293 8.83008C6.72139 8.83329 6.71421 8.83808 6.7082 8.84414L6.69062 8.86875L6.68359 8.90391M6.81719 9.65273L6.8418 9.62461L6.86289 9.59648L6.87695 9.57187L6.89453 9.53672M6.85938 9.92344L6.81719 9.94453L6.78555 9.96211C6.77348 9.9698 6.76175 9.97801 6.75039 9.98672L6.71523 10.0148M7.13711 8.94961L7.11602 8.925L7.09141 8.90039L7.06328 8.88281" stroke="#C7B37F" stroke-width="0.5" stroke-linecap="round"/>
<path id="Vector_96" d="M7.14707 8.57812L7.11191 8.59219C7.09942 8.59633 7.0864 8.5987 7.07324 8.59922" stroke="#C7B37F" stroke-width="0.5"/>
<path id="Vector_97" d="M6.67969 8.11328C6.67969 8.12734 6.6832 8.13789 6.69023 8.15195L6.71484 8.20117C6.73472 8.23131 6.76116 8.25655 6.79219 8.275L6.83437 8.29961M6.80273 8.13437L6.83789 8.15195C6.86451 8.16356 6.89323 8.16954 6.92227 8.16953L6.975 8.16602M7.17539 7.02344L7.11914 6.98828C7.08653 6.96644 7.05797 6.93908 7.03477 6.90742L7.01016 6.87227M7.22109 6.7457L7.23867 6.79141L7.28086 6.85117C7.30547 6.8793 7.32656 6.88633 7.3582 6.90742M7.39687 6.74219L7.41445 6.78437L7.43906 6.81953L7.47422 6.85469C7.49531 6.87227 7.50937 6.87578 7.53047 6.88984" stroke="#C7B37F" stroke-width="0.5" stroke-linecap="round"/>
</g>
<path id="Vector_98" d="M9.37249 6.51367C9.37249 6.46445 9.32679 6.46094 9.30569 6.46094C9.25647 6.46094 9.24241 6.49609 9.17561 6.53125C9.11969 6.56561 9.05488 6.58273 8.98929 6.58047C8.92201 6.58354 8.8555 6.56507 8.79944 6.52773C8.73265 6.49258 8.7221 6.46094 8.67288 6.46094C8.64476 6.46094 8.60608 6.48555 8.6096 6.53125V6.55586C8.6096 6.55586 8.61663 6.55586 8.61663 6.56289C8.61663 6.53828 8.62015 6.52773 8.63069 6.51367C8.63614 6.50657 8.64303 6.50071 8.6509 6.49647C8.65878 6.49222 8.66747 6.4897 8.6764 6.48906C8.72913 6.48906 8.74671 6.52422 8.81351 6.55938C8.86904 6.59497 8.93388 6.61332 8.99983 6.61211C9.07015 6.61211 9.10882 6.60156 9.18968 6.55938C9.25647 6.52422 9.27405 6.48906 9.32679 6.48906C9.34436 6.48906 9.35491 6.49961 9.36194 6.51719V6.5418H9.36897C9.36897 6.53828 9.37601 6.53477 9.37249 6.51367Z" fill="#703D29" stroke="#703D29" stroke-width="0.1"/>
</g>
<g id="Group_6">
<path id="Vector_99" d="M7.43574 10.5176C7.4498 10.5035 7.46387 10.507 7.46387 10.5L7.45684 10.493L7.43223 10.4859L7.40762 10.4754C7.40762 10.4754 7.39707 10.4684 7.39355 10.4754C7.39355 10.4859 7.4252 10.4859 7.41113 10.5141C7.41113 10.5211 7.40762 10.5316 7.39004 10.5492L7.31621 10.6301L7.30918 10.6371V10.5105L7.3127 10.4613C7.31973 10.4473 7.33379 10.4613 7.3373 10.4508C7.3373 10.4437 7.3373 10.4438 7.33027 10.4402C7.32324 10.4402 7.31621 10.4402 7.29512 10.4297L7.27051 10.4191C7.26699 10.4191 7.25645 10.4121 7.25293 10.4191L7.25644 10.4262C7.26699 10.4332 7.27051 10.4367 7.27051 10.4508V10.6617C7.27051 10.6758 7.27402 10.6828 7.27754 10.6828L7.28809 10.6758L7.43574 10.5141V10.5176Z" fill="#703D29"/>
<path id="Vector_100" d="M7.52324 10.5508C7.53379 10.5227 7.55137 10.5402 7.55488 10.5297L7.54434 10.5227L7.50918 10.5121L7.47402 10.498H7.46348C7.46348 10.5121 7.49863 10.5121 7.48809 10.5437L7.43887 10.6984C7.42832 10.7266 7.41074 10.7125 7.40723 10.723V10.7266L7.44238 10.7371L7.48457 10.7512H7.49512C7.49863 10.7406 7.45996 10.7441 7.47402 10.7055L7.52324 10.5508ZM7.62871 10.5859C7.63223 10.5648 7.64277 10.5648 7.65332 10.5684C7.68145 10.5789 7.68848 10.607 7.68145 10.6387C7.67441 10.6562 7.66738 10.6738 7.6252 10.6633C7.61465 10.6598 7.6041 10.6562 7.60762 10.6492L7.62871 10.5859ZM7.54785 10.723C7.53379 10.7617 7.5127 10.7441 7.5127 10.7582L7.51973 10.7617L7.56543 10.7758L7.59004 10.7828H7.60059C7.60059 10.7688 7.56895 10.7758 7.57949 10.7406L7.59707 10.6844C7.59707 10.6738 7.59707 10.6703 7.61465 10.6738C7.62871 10.6809 7.63223 10.6844 7.63574 10.6984L7.64629 10.7582C7.64629 10.7793 7.65332 10.8039 7.67441 10.8074C7.68496 10.8145 7.70957 10.8109 7.70957 10.8004V10.7969H7.69902L7.68848 10.7863L7.6709 10.6809L7.69199 10.6738C7.70254 10.6668 7.71309 10.6598 7.72012 10.6387C7.72363 10.6246 7.73066 10.5789 7.66738 10.5578L7.61113 10.5437L7.57598 10.5332H7.56895C7.56543 10.5473 7.60059 10.5437 7.59004 10.5789L7.54785 10.7195V10.723ZM7.7834 10.7934C7.77637 10.8285 7.74824 10.8074 7.74121 10.818C7.74121 10.825 7.74473 10.8285 7.75176 10.8285L7.79395 10.8355L7.83262 10.8496L7.8502 10.8461C7.8502 10.8355 7.81152 10.8355 7.82207 10.7969L7.85723 10.6492C7.85723 10.6316 7.86426 10.6316 7.8748 10.6352L7.89941 10.6422C7.93457 10.6492 7.91699 10.6809 7.92754 10.6844C7.93809 10.6844 7.93457 10.6738 7.93809 10.6668V10.6281L7.84668 10.607L7.75879 10.5859C7.75176 10.5859 7.75176 10.5859 7.75176 10.593L7.73418 10.6352V10.6457C7.75176 10.6492 7.75176 10.6035 7.7834 10.6105L7.80801 10.6176C7.82207 10.6211 7.82559 10.6246 7.82207 10.6387L7.78691 10.7898L7.7834 10.7934ZM8.14199 10.6984C8.15254 10.6809 8.1666 10.6844 8.1666 10.6773L8.15605 10.6703H8.13145L8.10684 10.6633C8.10332 10.6633 8.09277 10.6598 8.09277 10.6633C8.09277 10.6773 8.12441 10.6703 8.11738 10.6984C8.11738 10.7055 8.11387 10.7195 8.0998 10.7371L8.04004 10.832L8.03652 10.8391V10.8285L8.01543 10.716C8.01194 10.701 8.01076 10.6856 8.01191 10.6703C8.01191 10.6562 8.02949 10.6633 8.03301 10.6527L8.02246 10.6457L7.9873 10.6422L7.95918 10.6352C7.95566 10.6352 7.94512 10.6316 7.94512 10.6352L7.94863 10.6422C7.9627 10.6492 7.96621 10.6527 7.96621 10.6668L8.00488 10.8742C8.0084 10.8883 8.01191 10.8918 8.01543 10.8918L8.02246 10.8848L8.14199 10.6984ZM8.15957 10.8883L8.16309 10.9023L8.21231 10.9234C8.25098 10.9305 8.28262 10.9059 8.29316 10.8637C8.3002 10.8215 8.28262 10.8039 8.25098 10.7828C8.21582 10.7547 8.19824 10.7477 8.20527 10.7266C8.20527 10.7055 8.22285 10.6914 8.24043 10.6984C8.29316 10.7055 8.28965 10.7687 8.29668 10.7687C8.3002 10.7687 8.30371 10.7687 8.30371 10.7582L8.30723 10.7125V10.702H8.28965C8.2791 10.702 8.27207 10.6879 8.24746 10.6844C8.21231 10.6773 8.18418 10.702 8.17715 10.7406C8.17012 10.7758 8.18418 10.7898 8.21231 10.8074C8.25449 10.8391 8.27207 10.8426 8.26855 10.8742C8.26152 10.8988 8.24043 10.9129 8.21934 10.9094C8.18418 10.9023 8.17363 10.8707 8.1666 10.8391L8.16309 10.8285C8.15605 10.8285 8.15605 10.8391 8.15605 10.8426V10.8883H8.15957ZM8.60254 10.7652C8.61309 10.7441 8.62363 10.7477 8.62715 10.7406C8.62715 10.7336 8.62012 10.7336 8.6166 10.7336H8.58848L8.56387 10.7301L8.5498 10.7336C8.5498 10.7477 8.58496 10.7336 8.57793 10.7687C8.57793 10.7723 8.57793 10.7863 8.56738 10.8039L8.51816 10.9059L8.51113 10.9129V10.9059L8.47598 10.7934C8.4713 10.7786 8.46893 10.7632 8.46895 10.7477C8.46895 10.7336 8.49004 10.7371 8.49004 10.7301C8.49004 10.723 8.49004 10.723 8.47949 10.723H8.44434L8.41621 10.7195C8.4127 10.7195 8.40215 10.716 8.40215 10.7195L8.40566 10.7266C8.41973 10.7336 8.42324 10.7371 8.42676 10.7477L8.48652 10.9516C8.49004 10.9656 8.49355 10.9691 8.49707 10.9691L8.5041 10.9586L8.60254 10.7652Z" fill="#703D29"/>
<path id="Vector_101" d="M8.64824 10.9263C8.64824 10.9615 8.62012 10.9544 8.62012 10.9685H8.65527L8.69043 10.972L8.70449 10.9685C8.70449 10.9509 8.66582 10.9755 8.66582 10.9087V10.7892C8.66582 10.7892 8.67285 10.7892 8.67637 10.7962L8.81699 10.972H8.82754V10.965L8.83105 10.7786C8.83105 10.7435 8.85918 10.7505 8.85918 10.74L8.85215 10.7365H8.78184V10.74C8.78184 10.7505 8.81699 10.747 8.81699 10.7751V10.8876L8.81348 10.9017L8.80293 10.8911L8.6834 10.7435C8.67988 10.7365 8.6834 10.7329 8.67285 10.7329H8.62363L8.62012 10.74C8.62012 10.754 8.65527 10.7329 8.65176 10.7997V10.9263H8.64824ZM8.94355 10.7751C8.94355 10.74 8.96465 10.754 8.96465 10.7435L8.9541 10.74H8.87324C8.87324 10.754 8.90488 10.7435 8.90488 10.7751V10.9369C8.90488 10.972 8.88379 10.9615 8.88379 10.972V10.9755H8.96465L8.9752 10.972C8.9752 10.9615 8.94004 10.9755 8.94004 10.9369L8.94355 10.7751ZM9.07012 10.9298C9.07012 10.972 9.03496 10.9544 9.03496 10.965C9.03496 10.9755 9.04199 10.9755 9.04551 10.9755H9.12988C9.14043 10.9755 9.14746 10.9755 9.14746 10.9685C9.14746 10.9579 9.10879 10.9685 9.10879 10.9263V10.7751C9.10879 10.7576 9.10879 10.7576 9.11934 10.7576H9.14746C9.18262 10.7576 9.17207 10.7927 9.18262 10.7927C9.19316 10.7927 9.18965 10.7786 9.18965 10.7751L9.18613 10.7435C9.18613 10.7435 9.18613 10.7365 9.1791 10.7365H8.9998C8.99277 10.7365 8.99277 10.7435 8.99277 10.747L8.98926 10.7892L8.99277 10.8033C9.00684 10.8033 8.99629 10.7576 9.03145 10.7576H9.05606C9.07012 10.7576 9.07363 10.7576 9.07363 10.7751V10.9298H9.07012ZM9.2459 10.8665H9.23535V10.8525L9.25644 10.7892H9.25996L9.29512 10.849V10.8595L9.28809 10.863L9.2459 10.8665ZM9.29863 10.8806C9.30566 10.8806 9.30918 10.8806 9.31973 10.9087L9.32676 10.9298C9.32676 10.9509 9.30566 10.9509 9.30566 10.9579C9.30566 10.965 9.3127 10.9615 9.31621 10.9615H9.35137L9.38652 10.9579C9.39707 10.9579 9.40059 10.9579 9.40059 10.9509C9.40059 10.9404 9.38301 10.9544 9.37246 10.9298L9.27402 10.7329L9.26699 10.7224L9.25996 10.7365L9.19316 10.9439C9.18613 10.9615 9.17207 10.9615 9.17207 10.9685C9.17207 10.9755 9.1791 10.972 9.18262 10.972H9.23535C9.24238 10.9685 9.25293 10.972 9.25293 10.9615C9.25293 10.9544 9.21777 10.9615 9.21777 10.9369L9.22129 10.9122C9.22832 10.8876 9.23184 10.8876 9.23887 10.8876L9.29863 10.8806ZM9.53066 10.74C9.53066 10.7189 9.53066 10.7189 9.56582 10.7154C9.62207 10.7048 9.60449 10.7505 9.61856 10.747C9.62559 10.747 9.62207 10.7329 9.62207 10.7294L9.61856 10.6943H9.61152L9.54121 10.7013L9.46387 10.7119C9.45684 10.7119 9.45684 10.7119 9.45684 10.7189C9.45684 10.7294 9.49199 10.7189 9.49199 10.747L9.51309 10.9017C9.52012 10.9439 9.49551 10.9263 9.49551 10.9439H9.50254L9.54121 10.9404L9.57637 10.9369C9.5834 10.9369 9.59043 10.9369 9.59043 10.9298C9.59043 10.9193 9.55527 10.9298 9.55176 10.8947L9.54473 10.8454C9.54473 10.8279 9.54121 10.8244 9.55527 10.8208H9.57637C9.60801 10.8138 9.60449 10.8525 9.61152 10.849C9.62207 10.849 9.61855 10.8384 9.61504 10.8314L9.60801 10.7751C9.60801 10.7646 9.60098 10.7646 9.60098 10.7646C9.59395 10.7646 9.59746 10.7997 9.57285 10.7997L9.55176 10.8033C9.5377 10.8033 9.53769 10.8033 9.53769 10.7892L9.53066 10.74ZM9.64316 10.8173C9.65371 10.8876 9.70293 10.9228 9.7627 10.9122C9.85762 10.8947 9.86113 10.8068 9.85059 10.7646C9.84004 10.6943 9.78731 10.6591 9.72754 10.6697C9.65723 10.6837 9.6291 10.747 9.64316 10.8173ZM9.67481 10.7927C9.66426 10.7435 9.67481 10.6978 9.72402 10.6872C9.75918 10.6767 9.80488 10.7083 9.81894 10.7822C9.82949 10.8384 9.81895 10.8876 9.76973 10.8947C9.71699 10.9052 9.68535 10.8419 9.67481 10.7927ZM9.91035 10.6767C9.90332 10.6556 9.91387 10.6521 9.92441 10.6521C9.95254 10.6451 9.97715 10.6626 9.98418 10.6978C9.9877 10.7154 9.99121 10.7329 9.94902 10.7435C9.93848 10.747 9.92793 10.7505 9.92441 10.7435L9.91035 10.6732V10.6767ZM9.91035 10.8349C9.9209 10.8771 9.89277 10.8701 9.89629 10.8806C9.89629 10.8876 9.90332 10.8876 9.90684 10.8841L9.95254 10.8736L9.97715 10.8701C9.98418 10.8701 9.98418 10.863 9.98418 10.863C9.98418 10.849 9.95605 10.8701 9.94902 10.8349L9.93496 10.7786C9.93145 10.7681 9.92793 10.7646 9.94551 10.7611C9.95957 10.7611 9.9666 10.7611 9.97715 10.7716L10.0123 10.8173C10.0264 10.8349 10.0404 10.8525 10.065 10.849C10.0756 10.8454 10.0932 10.8314 10.0896 10.8244C10.0896 10.8208 10.0896 10.8173 10.0861 10.8208H10.065L9.99473 10.74L10.0123 10.7224C10.0158 10.7119 10.0229 10.6978 10.0193 10.6767C10.0158 10.6626 9.99824 10.6169 9.93145 10.6345L9.8752 10.6486L9.84004 10.6556L9.83301 10.6626C9.83652 10.6767 9.86816 10.6556 9.8752 10.6908L9.91035 10.8349ZM10.1529 10.7822C10.1635 10.8173 10.1248 10.8138 10.1283 10.8244C10.1283 10.8314 10.1354 10.8314 10.1389 10.8314L10.1811 10.8173L10.2232 10.8068C10.2303 10.8068 10.2373 10.8068 10.2338 10.7997C10.2338 10.7892 10.1986 10.8068 10.1881 10.7681L10.1494 10.6204C10.1459 10.6064 10.1494 10.6029 10.16 10.5994L10.1846 10.5923C10.2197 10.5818 10.2197 10.6204 10.2303 10.6204C10.2373 10.6204 10.2303 10.6064 10.2303 10.6029L10.2162 10.5712C10.2162 10.5712 10.2162 10.5642 10.2092 10.5642L10.1213 10.5888L10.0334 10.6134C10.0264 10.6134 10.0299 10.6169 10.0299 10.6204L10.0369 10.6661C10.0369 10.6697 10.0369 10.6767 10.0439 10.6767C10.0545 10.6732 10.0369 10.631 10.0686 10.624L10.0932 10.6169C10.1037 10.6169 10.1072 10.6169 10.1143 10.631L10.1494 10.7822H10.1529ZM10.3076 10.5747C10.2971 10.5431 10.3217 10.5501 10.3182 10.5396H10.3076C10.2936 10.5396 10.283 10.5466 10.2725 10.5501L10.2373 10.5572C10.2373 10.5572 10.2268 10.5572 10.2303 10.5642C10.2303 10.5747 10.2654 10.5572 10.2725 10.5853L10.3146 10.74C10.3217 10.7751 10.3006 10.7681 10.3041 10.7822L10.3393 10.7751L10.385 10.7646C10.392 10.7611 10.392 10.7576 10.392 10.754C10.392 10.7435 10.3604 10.7681 10.3498 10.7294L10.3076 10.5747ZM10.3709 10.6486C10.392 10.7154 10.4447 10.7435 10.5045 10.7259C10.5959 10.6943 10.5854 10.6099 10.5713 10.5677C10.5502 10.4974 10.4904 10.4728 10.4377 10.4904C10.3674 10.515 10.3463 10.5818 10.3709 10.6486ZM10.399 10.6204C10.385 10.5747 10.385 10.5255 10.4342 10.5079C10.4693 10.4939 10.515 10.5185 10.5396 10.5923C10.5572 10.6451 10.5572 10.6908 10.5045 10.7083C10.4553 10.7259 10.4166 10.6661 10.399 10.6204ZM10.6135 10.4693C10.6064 10.4482 10.6135 10.4447 10.6275 10.4411C10.6557 10.4306 10.6803 10.4482 10.6908 10.4763C10.6979 10.4974 10.7049 10.5115 10.6627 10.5326C10.6521 10.5326 10.6416 10.5396 10.6381 10.5326L10.6135 10.4693ZM10.6381 10.6275C10.6521 10.6626 10.624 10.6626 10.6311 10.6732C10.6311 10.6802 10.6381 10.6767 10.6416 10.6732C10.6557 10.6732 10.6697 10.6626 10.6838 10.6591L10.7084 10.6486C10.7154 10.6486 10.7154 10.6451 10.7154 10.6415C10.7119 10.631 10.6873 10.6521 10.6732 10.6204L10.6521 10.5677C10.6521 10.5536 10.6451 10.5536 10.6627 10.5466C10.6768 10.5431 10.6803 10.5431 10.6943 10.5536L10.7365 10.5958C10.7541 10.6099 10.7717 10.624 10.7928 10.6169C10.8033 10.6134 10.8174 10.5994 10.8139 10.5888C10.8139 10.5888 10.8139 10.5853 10.8104 10.5888H10.7893L10.7119 10.5185L10.7225 10.5009C10.726 10.4904 10.7295 10.4763 10.7225 10.4552C10.7154 10.4411 10.6943 10.399 10.6311 10.4236L10.5748 10.4482L10.5396 10.4587V10.4658C10.5432 10.4763 10.5678 10.4517 10.5818 10.4869L10.6381 10.6275Z" fill="#703D29"/>
</g>
<g id="Group_7">
<path id="Vector_102" d="M7.42871 7.1875H8.90651V8.6635H7.42871V7.1875Z" fill="#D52B1E"/>
<path id="ad-a" d="M8.1219 8.34904C8.1219 8.34904 8.1219 8.40304 8.1075 8.44444C8.0895 8.49304 8.0895 8.49304 8.0733 8.51644C8.05583 8.54499 8.03252 8.56953 8.0049 8.58844C7.9689 8.61004 7.9329 8.62084 7.8969 8.61724C7.7997 8.61004 7.7529 8.50204 7.7313 8.41564C7.7079 8.32384 7.6413 8.27164 7.5963 8.30764C7.5711 8.32564 7.5711 8.35804 7.5909 8.39044C7.61029 8.41383 7.63586 8.43129 7.6647 8.44084L7.6125 8.50744C7.6125 8.50744 7.4991 8.49304 7.4775 8.37424C7.4685 8.32924 7.4901 8.24644 7.5657 8.22124C7.6611 8.18884 7.7205 8.25724 7.7511 8.31484C7.7907 8.39404 7.8087 8.53804 7.9203 8.51644C7.9815 8.50384 8.0103 8.41564 8.0103 8.37424L8.0535 8.32744L8.1201 8.34904H8.1219Z" fill="white"/>
<path id="ad-a_2" d="M8.21306 8.34904C8.21306 8.34904 8.21306 8.40304 8.22746 8.44444C8.24546 8.49304 8.24546 8.49304 8.26166 8.51644C8.27913 8.54499 8.30244 8.56953 8.33006 8.58844C8.36606 8.61004 8.40206 8.62084 8.43806 8.61724C8.53526 8.61004 8.58206 8.50204 8.60366 8.41564C8.62706 8.32384 8.69366 8.27164 8.73866 8.30764C8.76386 8.32564 8.76386 8.35804 8.74406 8.39044C8.72467 8.41383 8.6991 8.43129 8.67026 8.44084L8.72246 8.50744C8.72246 8.50744 8.83586 8.49304 8.85746 8.37424C8.86646 8.32924 8.84486 8.24644 8.76926 8.22124C8.67386 8.18884 8.61446 8.25724 8.58386 8.31484C8.54426 8.39404 8.52626 8.53804 8.41466 8.51644C8.35346 8.50384 8.32466 8.41564 8.32466 8.37424L8.28146 8.32744L8.21486 8.34904H8.21306Z" fill="white"/>
<path id="Vector_103" d="M8.30006 7.72177L8.49446 7.51117C8.49446 7.51117 8.52326 7.48777 8.52326 7.44997L8.48366 7.45717L8.47466 7.43557L8.47286 7.41577L8.52686 7.40317V7.37977L8.53226 7.35637L8.47466 7.35997L8.48006 7.33477L8.48906 7.31677L8.52326 7.30957H8.55746C8.58986 7.24837 8.72306 7.19437 8.81666 7.29157C8.88506 7.36357 8.87066 7.49317 8.78066 7.52917C8.76054 7.5381 8.73825 7.54099 8.71652 7.53748C8.69478 7.53396 8.67454 7.52419 8.65826 7.50937L8.69426 7.43737C8.74286 7.46797 8.78426 7.43197 8.78066 7.39417C8.77706 7.34557 8.74466 7.31677 8.70326 7.31317C8.66186 7.30957 8.63126 7.33117 8.61326 7.36717C8.60246 7.39057 8.60786 7.40677 8.60426 7.43197C8.60066 7.45897 8.60426 7.47337 8.59526 7.50037C8.58648 7.52522 8.57163 7.5475 8.55206 7.56517L8.35406 7.78117L7.58006 8.61637L7.52246 8.56237L8.30006 7.72177Z" fill="#FEDF00"/>
<path id="Vector_104" d="M7.73145 7.79433C7.73145 7.79433 7.78005 8.03553 7.94565 8.39733C8.03025 8.36673 8.07885 8.34693 8.16885 8.34693C8.25705 8.34693 8.30565 8.36493 8.39025 8.39733C8.4824 8.20432 8.55419 8.00222 8.60445 7.79433L8.16885 7.23633L7.73145 7.79433Z" fill="white"/>
<path id="Vector_105" d="M8.21024 7.42383L8.51264 7.81443C8.51264 7.81443 8.47304 8.00343 8.35064 8.28783C8.30204 8.27703 8.26064 8.26803 8.21024 8.26443V7.42383ZM8.12564 7.42383L7.82324 7.81443C7.82324 7.81443 7.86284 8.00343 7.98524 8.28783C8.03384 8.27703 8.07524 8.26803 8.12564 8.26443V7.42383Z" fill="#FEDF00"/>
</g>
<g id="Group_8">
<path id="Vector_106" d="M9.06348 7.18555H10.5471V8.66211H9.07051L9.06348 7.18555Z" fill="#FEDF00"/>
<path id="Vector_107" d="M9.27051 7.18555H9.49199V8.66211H9.27051V7.18555ZM9.69238 7.18555H9.91387V8.66211H9.6959L9.69238 7.18555ZM10.1143 7.18555H10.3357V8.66211H10.1178L10.1143 7.18555Z" fill="#D52B1E"/>
</g>
<g id="Group_9">
<path id="Vector_108" d="M7.43223 9.9418C7.43926 9.96992 7.44629 10.0121 7.4709 10.0613C7.49902 10.1035 7.48848 10.1035 7.54824 10.1668C7.61335 10.2302 7.69497 10.2741 7.78379 10.2934C7.90332 10.3285 7.98418 10.3285 8.08262 10.325C8.15996 10.3215 8.21973 10.3109 8.26895 10.3039C8.33926 10.2969 8.38848 10.2898 8.46934 10.2863C8.50564 10.2846 8.54201 10.2846 8.57832 10.2863C8.62051 10.2863 8.6627 10.2969 8.7084 10.3039C8.80684 10.325 8.90527 10.3637 8.90527 10.3637V8.82031H7.42871V9.875L7.43223 9.9418Z" fill="#FEDF00"/>
<path id="Vector_109" d="M7.60449 10.2125L7.6748 10.2547L7.76973 10.2898V8.82031H7.60449V10.2125ZM8.42715 10.2828V8.82031H8.26191V10.3039L8.42715 10.2863V10.2828ZM8.7541 8.82031H8.59238V10.2863C8.64692 10.2916 8.70098 10.301 8.7541 10.3145V8.82031ZM8.10019 8.82031V10.3215H7.93496V8.82031H8.10019Z" fill="#D52B1E" stroke="#D52B1E" stroke-width="0.3"/>
</g>
<g id="Group_10">
<path id="Vector_110" d="M10.5387 9.94351C10.5322 9.98505 10.5188 10.0252 10.4991 10.0623C10.4721 10.1037 10.4811 10.1037 10.4217 10.1703C10.3573 10.2338 10.2761 10.2775 10.1877 10.2963C10.0903 10.322 9.98936 10.3317 9.88885 10.3251C9.81145 10.3215 9.75385 10.3125 9.70345 10.3071C9.63505 10.2963 9.58285 10.2909 9.50545 10.2891C9.46828 10.2873 9.43103 10.2873 9.39385 10.2891C9.28156 10.3018 9.17105 10.3272 9.06445 10.3647V8.82031H10.5441V9.87331L10.5387 9.94351Z" fill="#FEDF00"/>
<g id="ad-b">
<path id="Vector_111" d="M9.44283 8.94696L9.43203 8.95056L9.41763 8.96496C9.41043 8.97216 9.40503 8.97396 9.39603 8.97936L9.38523 8.98836C9.37983 8.99376 9.38523 8.99916 9.37983 9.00636C9.37803 9.01356 9.37443 9.01716 9.36903 9.02436C9.36183 9.03156 9.35643 9.03336 9.35103 9.04236L9.32943 9.06036L9.32403 9.06216H9.31323C9.30603 9.06576 9.30423 9.07296 9.29883 9.07656L9.30423 9.08736L9.31863 9.11256C9.32223 9.11796 9.32223 9.12516 9.32763 9.12696C9.33663 9.13056 9.34383 9.13056 9.35103 9.12876C9.36543 9.13236 9.37443 9.13236 9.38703 9.13776L9.41403 9.15216C9.42303 9.15756 9.42843 9.15936 9.43743 9.16116H9.46983V9.16656L9.50583 9.18456C9.50494 9.18688 9.50433 9.1893 9.50403 9.19176C9.50223 9.19716 9.50043 9.20436 9.50223 9.20616C9.51303 9.24036 9.52383 9.26016 9.52923 9.26376C9.54003 9.26736 9.54363 9.27996 9.54903 9.29076L9.54363 9.29616C9.53283 9.30696 9.52203 9.31416 9.51303 9.32856C9.50043 9.35016 9.49143 9.35016 9.50763 9.37896L9.53463 9.42216C9.54183 9.43476 9.54543 9.44376 9.54903 9.45816C9.55263 9.47076 9.55443 9.47976 9.55443 9.49416L9.57243 9.49956L9.58503 9.48876L9.59583 9.46716V9.44916C9.59223 9.44736 9.59043 9.44196 9.59223 9.43656C9.59223 9.42936 9.60123 9.43116 9.60483 9.42576C9.61023 9.41676 9.59763 9.41136 9.59223 9.40596C9.58143 9.39336 9.56703 9.38976 9.56343 9.37176C9.56343 9.36816 9.56343 9.36456 9.57063 9.35916L9.60663 9.32676C9.61023 9.32856 9.61743 9.33036 9.62463 9.32856L9.64803 9.33576C9.65883 9.33936 9.66423 9.33576 9.66963 9.33576H9.67683L9.67863 9.34656C9.68043 9.36456 9.67683 9.40056 9.68223 9.40956L9.68763 9.42036L9.69123 9.43116V9.46716L9.68763 9.49776C9.68763 9.50496 9.68403 9.51036 9.67863 9.51576C9.67503 9.52296 9.66783 9.52296 9.66063 9.52836V9.54636L9.68043 9.55536L9.70383 9.56076L9.71643 9.55536L9.71823 9.54456L9.72723 9.53556C9.73443 9.53196 9.74163 9.53556 9.74343 9.53376C9.74703 9.52836 9.74343 9.52656 9.74343 9.51936C9.74343 9.50856 9.73983 9.50136 9.73803 9.49056C9.73543 9.47389 9.73483 9.45697 9.73623 9.44016C9.73623 9.42936 9.73623 9.42216 9.73983 9.41316C9.74163 9.39516 9.74703 9.38796 9.75063 9.37356C9.75603 9.35556 9.75603 9.34476 9.75783 9.32856C9.81852 9.3377 9.88045 9.33402 9.93963 9.31776C9.95403 9.33036 9.97023 9.33936 9.98823 9.34656V9.36456C9.98823 9.36996 9.98823 9.37176 9.99183 9.37716L9.99723 9.38256C10.0026 9.38256 10.0062 9.38256 10.0098 9.37896C10.0134 9.37536 10.0134 9.37176 10.0134 9.36636V9.35376H10.0458V9.37356C10.0476 9.37896 10.0512 9.38076 10.0548 9.38076C10.0565 9.38156 10.0584 9.38198 10.0602 9.38198C10.0621 9.38198 10.0639 9.38156 10.0656 9.38076C10.071 9.37716 10.0692 9.36996 10.071 9.36276V9.35016L10.089 9.34296C10.0895 9.34835 10.0895 9.35377 10.089 9.35916L10.0836 9.37536C10.08 9.38616 10.0746 9.38976 10.0692 9.40056C10.062 9.41136 10.0602 9.41856 10.0512 9.42756L10.0404 9.44016L10.0296 9.45636L10.0134 9.47436C10.0008 9.48516 9.99183 9.47796 9.97743 9.49056L9.97203 9.50856L9.99723 9.51936L10.0206 9.52296L10.0278 9.51936C10.0278 9.51396 10.0278 9.50856 10.0332 9.50496C10.0368 9.49956 10.0404 9.49956 10.0458 9.49776C10.053 9.49776 10.0602 9.49776 10.0638 9.49416C10.071 9.48876 10.071 9.47616 10.0764 9.46716C10.0897 9.44046 10.108 9.41662 10.1304 9.39696L10.161 9.37176C10.1646 9.36456 10.17 9.36276 10.17 9.35376L10.1664 9.34296L10.1628 9.32496C10.1898 9.33756 10.1808 9.33756 10.1844 9.35016C10.1898 9.36096 10.1844 9.36816 10.1862 9.38076C10.188 9.39516 10.1952 9.40056 10.1952 9.41496C10.197 9.43116 10.1934 9.44016 10.1898 9.45636C10.188 9.47076 10.188 9.47976 10.1808 9.49236C10.1766 9.50286 10.1698 9.51214 10.161 9.51936L10.1502 9.52836L10.1484 9.54636L10.1682 9.55356L10.197 9.56076L10.2042 9.55536C10.2078 9.54276 10.2042 9.52476 10.2114 9.52476C10.2186 9.52296 10.224 9.52476 10.2258 9.51936V9.50676L10.2384 9.42576L10.2456 9.39156L10.2528 9.36096C10.2654 9.32496 10.2492 9.31956 10.2348 9.29616C10.2258 9.28356 10.2222 9.27816 10.2222 9.26916V9.21696C10.2217 9.20016 10.2217 9.18336 10.2222 9.16656L10.2294 9.16296C10.251 9.15036 10.26 9.14676 10.2726 9.11796C10.2765 9.10949 10.2783 9.10025 10.278 9.09096V9.07296L10.2708 9.05496C10.268 9.04962 10.2644 9.04476 10.26 9.04056C10.2474 9.02256 10.2294 9.02076 10.2114 9.01356C10.1844 9.00456 10.1664 9.00636 10.1394 9.00456C10.107 9.00096 10.0908 9.00096 10.0602 9.00456C10.0242 9.00456 10.0044 9.01176 9.96843 9.01716L9.88023 9.02436C9.83883 9.02436 9.80103 9.01536 9.77583 9.01716C9.73263 9.02076 9.73083 9.03156 9.66423 9.03696C9.64147 9.03881 9.61866 9.04001 9.59583 9.04056L9.55623 9.02796C9.57243 9.02256 9.57603 9.01896 9.58323 9.00996C9.58863 9.00276 9.58683 8.99736 9.59403 8.99016L9.60663 8.97216C9.60184 8.96857 9.5963 8.9661 9.59043 8.96496H9.57243C9.56493 8.96524 9.55757 8.96708 9.55083 8.97036L9.53643 8.98116L9.49683 8.95956C9.47994 8.95097 9.46165 8.94549 9.44283 8.94336V8.94696Z" fill="#D52B1E"/>
<g id="Group_11">
<path id="Vector_112" d="M10.2379 9.17199L10.2235 9.17739C10.2073 9.18459 10.1947 9.18459 10.1767 9.18639C10.1299 9.18999 10.0993 9.16659 10.0507 9.17019C10.0255 9.17199 10.0147 9.19179 9.98773 9.19899C9.97766 9.20113 9.96742 9.20234 9.95713 9.20259L9.96613 9.18459C9.96613 9.18459 9.94453 9.18999 9.93013 9.18999C9.92043 9.18983 9.91077 9.18862 9.90133 9.18639L9.91933 9.16839L9.89593 9.16479C9.88932 9.16154 9.88325 9.15729 9.87793 9.15219C9.8882 9.15082 9.89841 9.14902 9.90853 9.14679C9.93553 9.13959 9.94453 9.12519 9.97873 9.12159C9.99853 9.12159 10.0327 9.12159 10.1155 9.13599C10.1695 9.14499 10.1947 9.13959 10.2145 9.13059C10.2289 9.12519 10.2325 9.11259 10.2343 9.09819C10.2361 9.08379 10.2271 9.07299 10.2199 9.06579C10.2181 9.06579 10.2109 9.06039 10.2001 9.05859" stroke="#FEDF00" stroke-width="0.512" stroke-linecap="round"/>
<path id="Vector_113" d="M9.4457 9.01172C9.4367 9.01172 9.4295 9.01172 9.4223 9.01712C9.4133 9.02252 9.4115 9.02972 9.4043 9.03692C9.4133 9.03872 9.4187 9.04412 9.4259 9.04232C9.4331 9.04232 9.4349 9.03872 9.4403 9.03332C9.4457 9.02612 9.4475 9.02072 9.4475 9.01172H9.4457Z" fill="#FCD900" stroke="#FEDF00" stroke-width="0.256"/>
<path id="Vector_114" d="M9.64771 9.25027C9.65242 9.26459 9.65845 9.27845 9.66571 9.29167C9.66931 9.30607 9.66571 9.31327 9.66931 9.32767V9.35647M9.79171 9.23047L9.78631 9.25387L9.76831 9.31687V9.32947M9.57031 9.25747C9.58651 9.26107 9.58111 9.31687 9.60451 9.32947" stroke="#FEDF00" stroke-width="0.512" stroke-linecap="round"/>
<path id="Vector_115" d="M10.082 9.35811L10.0892 9.35271C10.1074 9.34526 10.124 9.33424 10.1378 9.32031" stroke="#FEDF00" stroke-width="0.512"/>
<path id="Vector_116" d="M9.94336 9.32441C10.0064 9.30821 10.0496 9.27761 10.0802 9.27221M10.0082 9.24521H10.0226C10.0496 9.23981 10.0532 9.25601 10.0712 9.26681C10.1054 9.28481 10.109 9.30821 10.1486 9.32801L10.1558 9.32981L10.1702 9.33701" stroke="#FEDF00" stroke-width="0.512" stroke-linecap="round"/>
<path id="Vector_117" d="M9.31836 9.08173H9.33096L9.34536 9.07812C9.35076 9.07812 9.35436 9.07813 9.35796 9.08173C9.36156 9.08173 9.36156 9.08352 9.36336 9.08712C9.36336 9.09072 9.36696 9.09252 9.36516 9.09612C9.36516 9.09972 9.35976 9.10333 9.35436 9.10333C9.35076 9.10333 9.34716 9.10333 9.34536 9.09793C9.34486 9.09679 9.34461 9.09556 9.34461 9.09433C9.34461 9.09309 9.34486 9.09186 9.34536 9.09073C9.34285 9.09199 9.34007 9.09265 9.33726 9.09265C9.33445 9.09265 9.33167 9.09199 9.32916 9.09073C9.32685 9.09003 9.3247 9.08887 9.32284 9.08732C9.32099 9.08578 9.31946 9.08387 9.31836 9.08173Z" fill="#FCD900" stroke="#FEDF00" stroke-width="0.256"/>
</g>
<path id="Vector_118" d="M9.45171 9.25583L9.41571 9.23963C9.42291 9.23603 9.42831 9.23603 9.43371 9.23063C9.43911 9.22343 9.43911 9.21623 9.44271 9.20723C9.44631 9.19823 9.44631 9.18923 9.45531 9.18203C9.46071 9.17843 9.46971 9.17843 9.47511 9.18023C9.48231 9.18023 9.48951 9.18743 9.49131 9.19283C9.49131 9.20363 9.48771 9.21083 9.48591 9.21983C9.48591 9.23063 9.48051 9.23603 9.48231 9.24503C9.48231 9.25223 9.48591 9.25583 9.48951 9.26303L9.45351 9.25583H9.45171ZM9.43371 9.27383C9.43339 9.27174 9.4337 9.26959 9.43459 9.26766C9.43549 9.26574 9.43693 9.26412 9.43874 9.263C9.44055 9.26189 9.44264 9.26134 9.44476 9.26141C9.44689 9.26149 9.44894 9.26218 9.45067 9.26342C9.45239 9.26465 9.45372 9.26637 9.45448 9.26835C9.45524 9.27034 9.45539 9.2725 9.45493 9.27457C9.45446 9.27664 9.4534 9.27853 9.45187 9.28C9.45033 9.28147 9.4484 9.28246 9.44631 9.28283C9.44475 9.2831 9.44315 9.28302 9.44163 9.28259C9.4401 9.28217 9.43868 9.28142 9.43748 9.28039C9.43628 9.27936 9.43532 9.27807 9.43467 9.27663C9.43402 9.27519 9.43369 9.27362 9.43371 9.27203V9.27383ZM9.40311 8.97503H9.39951C9.39231 8.96783 9.39231 8.96063 9.38871 8.95343C9.3858 8.94656 9.38398 8.93927 9.38331 8.93183V8.89583C9.38331 8.89043 9.38331 8.88503 9.37971 8.87963C9.37971 8.87603 9.37251 8.87423 9.37431 8.87243C9.37431 8.87063 9.37971 8.87243 9.38151 8.87243C9.38871 8.87243 9.39231 8.87423 9.39951 8.87963C9.40491 8.88503 9.40851 8.89043 9.41031 8.89763L9.41751 8.92463L9.42291 8.93903L9.43191 8.94983L9.41931 8.96423L9.40311 8.97503ZM9.46791 9.16583L9.50751 9.18383C9.53461 9.16752 9.55648 9.14378 9.57051 9.11543C9.58671 9.08303 9.58851 9.06683 9.59571 9.03623L9.56331 9.02723H9.55611C9.54711 9.05963 9.54351 9.07583 9.52731 9.10283C9.51291 9.12623 9.49671 9.14423 9.48051 9.15683L9.46791 9.16583ZM9.55791 9.49343L9.57231 9.47003L9.59751 9.45023H9.60471C9.6045 9.46741 9.60146 9.48444 9.59571 9.50063L9.58851 9.51863L9.57951 9.52763C9.57051 9.51323 9.55611 9.50423 9.55611 9.49163L9.55791 9.49343ZM10.1519 9.52583L10.1771 9.53663L10.2041 9.55283V9.56183L10.1771 9.56543C10.1693 9.56604 10.1615 9.56604 10.1537 9.56543H10.1357L10.1249 9.55823C10.1339 9.54563 10.1393 9.52943 10.1501 9.52583H10.1519ZM9.97551 9.48983L10.0007 9.49883L10.0277 9.51683C10.0277 9.51863 10.0295 9.52223 10.0277 9.52403C10.0119 9.52828 9.99549 9.5301 9.97911 9.52943L9.96111 9.52763L9.94851 9.52223C9.95931 9.50963 9.96471 9.49163 9.97551 9.48983ZM9.66231 9.52763L9.68931 9.53663L9.71631 9.55463V9.56363C9.6998 9.56746 9.6828 9.56868 9.66591 9.56723H9.64791L9.63711 9.56003C9.64611 9.54743 9.65151 9.53123 9.66231 9.52763ZM9.50031 8.99123C9.48951 8.98583 9.48231 8.97323 9.48951 8.96243C9.49131 8.95883 9.49671 8.95883 9.50031 8.95523C9.50391 8.94983 9.50211 8.94623 9.50031 8.94083L9.49851 8.92283L9.49491 8.90483C9.49491 8.89403 9.49491 8.88683 9.50211 8.87603C9.50571 8.87063 9.51471 8.86523 9.51651 8.86523C9.52011 8.86703 9.51651 8.87423 9.51651 8.87963C9.51651 8.88863 9.51831 8.89223 9.52191 8.90123L9.53451 8.92463C9.53811 8.93543 9.54171 8.93903 9.54171 8.94983C9.54171 8.95883 9.54171 8.96243 9.53811 8.97143C9.53579 8.97707 9.53207 8.98203 9.52731 8.98583C9.52312 8.98929 9.51819 8.99175 9.51291 8.99303C9.50938 8.99404 9.50564 8.99404 9.50211 8.99303L9.50031 8.99123Z" fill="#0065BD"/>
</g>
<g id="ad-b_2">
<path id="Vector_119" d="M9.44283 9.60516L9.43203 9.60876L9.41763 9.62316C9.41043 9.63036 9.40503 9.63216 9.39603 9.63756L9.38523 9.64656C9.37983 9.65196 9.38523 9.65736 9.37983 9.66456C9.37803 9.67176 9.37443 9.67536 9.36903 9.68256C9.36183 9.68976 9.35643 9.69156 9.35103 9.70056L9.32943 9.71856L9.32403 9.72036H9.31323C9.30603 9.72396 9.30423 9.73116 9.29883 9.73476L9.30423 9.74556L9.31863 9.77076C9.32223 9.77616 9.32223 9.78336 9.32763 9.78516C9.33663 9.78876 9.34383 9.78876 9.35103 9.78696C9.36543 9.79056 9.37443 9.79056 9.38703 9.79596L9.41403 9.81036C9.42303 9.81576 9.42843 9.81756 9.43743 9.81936H9.46983V9.82476L9.50583 9.84276C9.50494 9.84508 9.50433 9.8475 9.50403 9.84996C9.50223 9.85536 9.50043 9.86256 9.50223 9.86436C9.51303 9.89856 9.52383 9.91836 9.52923 9.92196C9.54003 9.92556 9.54363 9.93816 9.54903 9.94896L9.54363 9.95436C9.53283 9.96516 9.52203 9.97236 9.51303 9.98676C9.50043 10.0084 9.49143 10.0084 9.50763 10.0372L9.53463 10.0804C9.54183 10.093 9.54543 10.102 9.54903 10.1164C9.55263 10.129 9.55443 10.138 9.55443 10.1524L9.57243 10.1578L9.58503 10.147L9.59583 10.1254V10.1074C9.59223 10.1056 9.59043 10.1002 9.59223 10.0948C9.59223 10.0876 9.60123 10.0894 9.60483 10.084C9.61023 10.075 9.59763 10.0696 9.59223 10.0642C9.58143 10.0516 9.56703 10.048 9.56343 10.03C9.56343 10.0264 9.56343 10.0228 9.57063 10.0174L9.60663 9.98496C9.61023 9.98676 9.61743 9.98856 9.62463 9.98676L9.64803 9.99396C9.65883 9.99756 9.66423 9.99396 9.66963 9.99396H9.67683L9.67863 10.0048C9.68043 10.0228 9.67683 10.0588 9.68223 10.0678L9.68763 10.0786L9.69123 10.0894V10.1254L9.68763 10.156C9.68763 10.1632 9.68403 10.1686 9.67863 10.174C9.67503 10.1812 9.66783 10.1812 9.66063 10.1866V10.2046L9.68043 10.2136L9.70383 10.219L9.71643 10.2136L9.71823 10.2028L9.72723 10.1938C9.73443 10.1902 9.74163 10.1938 9.74343 10.192C9.74703 10.1866 9.74343 10.1848 9.74343 10.1776C9.74343 10.1668 9.73983 10.1596 9.73803 10.1488C9.73543 10.1321 9.73483 10.1152 9.73623 10.0984C9.73623 10.0876 9.73623 10.0804 9.73983 10.0714C9.74163 10.0534 9.74703 10.0462 9.75063 10.0318C9.75603 10.0138 9.75603 10.003 9.75783 9.98676C9.81852 9.9959 9.88045 9.99223 9.93963 9.97596C9.95403 9.98856 9.97023 9.99756 9.98823 10.0048V10.0228C9.98823 10.0282 9.98823 10.03 9.99183 10.0354L9.99723 10.0408C10.0026 10.0408 10.0062 10.0408 10.0098 10.0372C10.0134 10.0336 10.0134 10.03 10.0134 10.0246V10.012H10.0458V10.0318C10.0476 10.0372 10.0512 10.039 10.0548 10.039C10.0565 10.0398 10.0584 10.0402 10.0602 10.0402C10.0621 10.0402 10.0639 10.0398 10.0656 10.039C10.071 10.0354 10.0692 10.0282 10.071 10.021V10.0084L10.089 10.0012C10.0895 10.0066 10.0895 10.012 10.089 10.0174L10.0836 10.0336C10.08 10.0444 10.0746 10.048 10.0692 10.0588C10.062 10.0696 10.0602 10.0768 10.0512 10.0858L10.0404 10.0984L10.0296 10.1146L10.0134 10.1326C10.0008 10.1434 9.99183 10.1362 9.97743 10.1488L9.97203 10.1668L9.99723 10.1776L10.0206 10.1812L10.0278 10.1776C10.0278 10.1722 10.0278 10.1668 10.0332 10.1632C10.0368 10.1578 10.0404 10.1578 10.0458 10.156C10.053 10.156 10.0602 10.156 10.0638 10.1524C10.071 10.147 10.071 10.1344 10.0764 10.1254C10.0897 10.0987 10.108 10.0748 10.1304 10.0552L10.161 10.03C10.1646 10.0228 10.17 10.021 10.17 10.012L10.1664 10.0012L10.1628 9.98316C10.1898 9.99576 10.1808 9.99576 10.1844 10.0084C10.1898 10.0192 10.1844 10.0264 10.1862 10.039C10.188 10.0534 10.1952 10.0588 10.1952 10.0732C10.197 10.0894 10.1934 10.0984 10.1898 10.1146C10.188 10.129 10.188 10.138 10.1808 10.1506C10.1766 10.1611 10.1698 10.1703 10.161 10.1776L10.1502 10.1866L10.1484 10.2046L10.1682 10.2118L10.197 10.219L10.2042 10.2136C10.2078 10.201 10.2042 10.183 10.2114 10.183C10.2186 10.1812 10.224 10.183 10.2258 10.1776V10.165L10.2384 10.084L10.2456 10.0498L10.2528 10.0192C10.2654 9.98316 10.2492 9.97776 10.2348 9.95436C10.2258 9.94176 10.2222 9.93636 10.2222 9.92736V9.87516C10.2217 9.85837 10.2217 9.84156 10.2222 9.82476L10.2294 9.82116C10.251 9.80856 10.26 9.80496 10.2726 9.77616C10.2765 9.76769 10.2783 9.75846 10.278 9.74916V9.73116L10.2708 9.71316C10.268 9.70783 10.2644 9.70297 10.26 9.69876C10.2474 9.68076 10.2294 9.67896 10.2114 9.67176C10.1844 9.66276 10.1664 9.66456 10.1394 9.66276C10.107 9.65916 10.0908 9.65916 10.0602 9.66276C10.0242 9.66276 10.0044 9.66996 9.96843 9.67536L9.88023 9.68256C9.83883 9.68256 9.80103 9.67356 9.77583 9.67536C9.73263 9.67896 9.73083 9.68976 9.66423 9.69516C9.64147 9.69701 9.61866 9.69821 9.59583 9.69876L9.55623 9.68616C9.57243 9.68076 9.57603 9.67716 9.58323 9.66816C9.58863 9.66096 9.58683 9.65556 9.59403 9.64836L9.60663 9.63036C9.60184 9.62677 9.5963 9.62431 9.59043 9.62316H9.57243C9.56493 9.62344 9.55757 9.62528 9.55083 9.62856L9.53643 9.63936L9.49683 9.61776C9.47994 9.60918 9.46165 9.60369 9.44283 9.60156V9.60516Z" fill="#D52B1E"/>
<g id="Group_12">
<path id="Vector_120" d="M10.2379 9.8302L10.2235 9.8356C10.2073 9.8428 10.1947 9.8428 10.1767 9.8446C10.1299 9.8482 10.0993 9.8248 10.0507 9.8284C10.0255 9.8302 10.0147 9.85 9.98773 9.8572C9.97766 9.85933 9.96742 9.86054 9.95713 9.8608L9.96613 9.8428C9.96613 9.8428 9.94453 9.8482 9.93013 9.8482C9.92043 9.84804 9.91077 9.84683 9.90133 9.8446L9.91933 9.8266L9.89593 9.823C9.88932 9.81974 9.88325 9.81549 9.87793 9.8104C9.8882 9.80903 9.89841 9.80723 9.90853 9.805C9.93553 9.7978 9.94453 9.7834 9.97873 9.7798C9.99853 9.7798 10.0327 9.7798 10.1155 9.7942C10.1695 9.8032 10.1947 9.7978 10.2145 9.7888C10.2289 9.7834 10.2325 9.7708 10.2343 9.7564C10.2361 9.742 10.2271 9.7312 10.2199 9.724C10.2181 9.724 10.2109 9.7186 10.2001 9.7168" stroke="#FEDF00" stroke-width="0.512" stroke-linecap="round"/>
<path id="Vector_121" d="M9.4457 9.66992C9.4367 9.66992 9.4295 9.66992 9.4223 9.67532C9.4133 9.68072 9.4115 9.68792 9.4043 9.69512C9.4133 9.69692 9.4187 9.70232 9.4259 9.70052C9.4331 9.70052 9.4349 9.69692 9.4403 9.69152C9.4457 9.68432 9.4475 9.67892 9.4475 9.66992H9.4457Z" fill="#FCD900" stroke="#FEDF00" stroke-width="0.256"/>
<path id="Vector_122" d="M9.64771 9.90847C9.65242 9.9228 9.65845 9.93666 9.66571 9.94987C9.66931 9.96427 9.66571 9.97147 9.66931 9.98587V10.0147M9.79171 9.88867L9.78631 9.91207L9.76831 9.97507V9.98767M9.57031 9.91567C9.58651 9.91927 9.58111 9.97507 9.60451 9.98767" stroke="#FEDF00" stroke-width="0.512" stroke-linecap="round"/>
<path id="Vector_123" d="M10.082 10.0163L10.0892 10.0109C10.1074 10.0035 10.124 9.99245 10.1378 9.97852" stroke="#FEDF00" stroke-width="0.512"/>
<path id="Vector_124" d="M9.94336 9.98262C10.0064 9.96642 10.0496 9.93582 10.0802 9.93042M10.0082 9.90342H10.0226C10.0496 9.89802 10.0532 9.91422 10.0712 9.92502C10.1054 9.94302 10.109 9.96642 10.1486 9.98622L10.1558 9.98802L10.1702 9.99522" stroke="#FEDF00" stroke-width="0.512" stroke-linecap="round"/>
<path id="Vector_125" d="M9.31836 9.73993H9.33096L9.34536 9.73633C9.35076 9.73633 9.35436 9.73633 9.35796 9.73993C9.36156 9.73993 9.36156 9.74173 9.36336 9.74533C9.36336 9.74893 9.36696 9.75073 9.36516 9.75433C9.36516 9.75793 9.35976 9.76153 9.35436 9.76153C9.35076 9.76153 9.34716 9.76153 9.34536 9.75613C9.34486 9.75499 9.34461 9.75377 9.34461 9.75253C9.34461 9.75129 9.34486 9.75006 9.34536 9.74893C9.34285 9.75019 9.34007 9.75085 9.33726 9.75085C9.33445 9.75085 9.33167 9.75019 9.32916 9.74893C9.32685 9.74823 9.3247 9.74707 9.32284 9.74553C9.32099 9.74398 9.31946 9.74208 9.31836 9.73993Z" fill="#FCD900" stroke="#FEDF00" stroke-width="0.256"/>
</g>
<path id="Vector_126" d="M9.45171 9.91404L9.41571 9.89784C9.42291 9.89424 9.42831 9.89424 9.43371 9.88884C9.43911 9.88164 9.43911 9.87444 9.44271 9.86544C9.44631 9.85644 9.44631 9.84744 9.45531 9.84024C9.46071 9.83664 9.46971 9.83664 9.47511 9.83844C9.48231 9.83844 9.48951 9.84564 9.49131 9.85104C9.49131 9.86184 9.48771 9.86904 9.48591 9.87804C9.48591 9.88884 9.48051 9.89424 9.48231 9.90324C9.48231 9.91044 9.48591 9.91404 9.48951 9.92124L9.45351 9.91404H9.45171ZM9.43371 9.93204C9.43339 9.92994 9.4337 9.92779 9.43459 9.92587C9.43549 9.92394 9.43693 9.92232 9.43874 9.92121C9.44055 9.9201 9.44264 9.91954 9.44476 9.91962C9.44689 9.91969 9.44894 9.92039 9.45067 9.92162C9.45239 9.92286 9.45372 9.92457 9.45448 9.92656C9.45524 9.92854 9.45539 9.9307 9.45493 9.93277C9.45446 9.93485 9.4534 9.93673 9.45187 9.9382C9.45033 9.93967 9.4484 9.94066 9.44631 9.94104C9.44475 9.9413 9.44315 9.94122 9.44163 9.9408C9.4401 9.94037 9.43868 9.93962 9.43748 9.93859C9.43628 9.93756 9.43532 9.93628 9.43467 9.93483C9.43402 9.93339 9.43369 9.93182 9.43371 9.93024V9.93204ZM9.40311 9.63324H9.39951C9.39231 9.62604 9.39231 9.61884 9.38871 9.61164C9.3858 9.60476 9.38398 9.59747 9.38331 9.59004V9.55404C9.38331 9.54864 9.38331 9.54324 9.37971 9.53784C9.37971 9.53424 9.37251 9.53244 9.37431 9.53064C9.37431 9.52884 9.37971 9.53064 9.38151 9.53064C9.38871 9.53064 9.39231 9.53244 9.39951 9.53784C9.40491 9.54324 9.40851 9.54864 9.41031 9.55584L9.41751 9.58284L9.42291 9.59724L9.43191 9.60804L9.41931 9.62244L9.40311 9.63324ZM9.46791 9.82404L9.50751 9.84204C9.53461 9.82572 9.55648 9.80199 9.57051 9.77364C9.58671 9.74124 9.58851 9.72504 9.59571 9.69444L9.56331 9.68544H9.55611C9.54711 9.71784 9.54351 9.73404 9.52731 9.76104C9.51291 9.78444 9.49671 9.80244 9.48051 9.81504L9.46791 9.82404ZM9.55791 10.1516L9.57231 10.1282L9.59751 10.1084H9.60471C9.6045 10.1256 9.60146 10.1426 9.59571 10.1588L9.58851 10.1768L9.57951 10.1858C9.57051 10.1714 9.55611 10.1624 9.55611 10.1498L9.55791 10.1516ZM10.1519 10.184L10.1771 10.1948L10.2041 10.211V10.22L10.1771 10.2236C10.1693 10.2242 10.1615 10.2242 10.1537 10.2236H10.1357L10.1249 10.2164C10.1339 10.2038 10.1393 10.1876 10.1501 10.184H10.1519ZM9.97551 10.148L10.0007 10.157L10.0277 10.175C10.0277 10.1768 10.0295 10.1804 10.0277 10.1822C10.0119 10.1865 9.99549 10.1883 9.97911 10.1876L9.96111 10.1858L9.94851 10.1804C9.95931 10.1678 9.96471 10.1498 9.97551 10.148ZM9.66231 10.1858L9.68931 10.1948L9.71631 10.2128V10.2218C9.6998 10.2257 9.6828 10.2269 9.66591 10.2254H9.64791L9.63711 10.2182C9.64611 10.2056 9.65151 10.1894 9.66231 10.1858ZM9.50031 9.64944C9.48951 9.64404 9.48231 9.63144 9.48951 9.62064C9.49131 9.61704 9.49671 9.61704 9.50031 9.61344C9.50391 9.60804 9.50211 9.60444 9.50031 9.59904L9.49851 9.58104L9.49491 9.56304C9.49491 9.55224 9.49491 9.54504 9.50211 9.53424C9.50571 9.52884 9.51471 9.52344 9.51651 9.52344C9.52011 9.52524 9.51651 9.53244 9.51651 9.53784C9.51651 9.54684 9.51831 9.55044 9.52191 9.55944L9.53451 9.58284C9.53811 9.59364 9.54171 9.59724 9.54171 9.60804C9.54171 9.61704 9.54171 9.62064 9.53811 9.62964C9.53579 9.63527 9.53207 9.64023 9.52731 9.64404C9.52312 9.64749 9.51819 9.64996 9.51291 9.65124C9.50938 9.65224 9.50564 9.65224 9.50211 9.65124L9.50031 9.64944Z" fill="#0065BD"/>
</g>
</g>
<path id="Vector_127" d="M7.42871 7.18555H8.90527V8.66211H7.42871V7.18555ZM9.06348 7.18555H10.5471V8.66211H9.07051L9.06348 7.18555ZM7.43223 9.9418C7.43926 9.96992 7.44629 10.0121 7.4709 10.0613C7.49902 10.1035 7.48848 10.1035 7.54824 10.1668C7.61335 10.2302 7.69497 10.2741 7.78379 10.2934C7.90332 10.3285 7.98418 10.3285 8.08262 10.325C8.15996 10.3215 8.21973 10.3109 8.26895 10.3039C8.33926 10.2969 8.38848 10.2898 8.46934 10.2863C8.50564 10.2846 8.54201 10.2846 8.57832 10.2863C8.62051 10.2863 8.6627 10.2969 8.7084 10.3039C8.80684 10.325 8.90527 10.3637 8.90527 10.3637V8.82031H7.42871V9.875L7.43223 9.9418ZM10.54 9.9418C10.5365 9.96992 10.526 10.0121 10.5014 10.0613C10.4732 10.1035 10.4838 10.1035 10.424 10.1668C10.3589 10.2302 10.2773 10.2741 10.1885 10.2934C10.0913 10.3203 9.99032 10.3309 9.88965 10.325C9.8123 10.3215 9.75254 10.3109 9.70332 10.3039C9.63803 10.2947 9.57232 10.2889 9.50644 10.2863C9.46897 10.2845 9.43142 10.2845 9.39395 10.2863C9.35176 10.2863 9.30957 10.2969 9.26387 10.3039C9.16543 10.325 9.06348 10.3637 9.06348 10.3637V8.82031H10.5471V9.875L10.54 9.9418Z" stroke="#703D29" stroke-width="0.4"/>
</g>
<defs>
<clipPath id="clip0_186_5142">
<rect width="18" height="18" fill="white"/>
</clipPath>
</defs>
</svg>
