<svg width="18" height="18" viewBox="0 0 18 18" fill="none" xmlns="http://www.w3.org/2000/svg">
<g id="af" clip-path="url(#clip0_186_5144)">
<g id="Group">
<path id="Vector" fill-rule="evenodd" clip-rule="evenodd" d="M0 0H18V18H0V0Z" fill="#000001"/>
<path id="Vector_2" fill-rule="evenodd" clip-rule="evenodd" d="M11.999 0H18.0002V18H11.999V0Z" fill="#009900"/>
<path id="Vector_3" fill-rule="evenodd" clip-rule="evenodd" d="M6.00098 0H11.9986V18H6.00098V0Z" fill="#BF0000"/>
</g>
<g id="Group_2">
<path id="Vector_4" fill-rule="evenodd" clip-rule="evenodd" d="M9.58152 9.76758H9.82841C9.82841 9.86277 9.8879 9.9639 9.96226 10.0204H9.48633C9.56069 9.95498 9.58152 9.87169 9.58152 9.76758Z" fill="white" stroke="#BD6B00" stroke-width="0.423055"/>
<path id="Vector_5" fill-rule="evenodd" clip-rule="evenodd" d="M8.01074 8.36069L8.14757 8.50942L9.8431 8.51537L9.97993 8.36664L9.54564 8.35771L9.33742 8.20898H8.65326L8.45693 8.36069H8.01074Z" fill="white"/>
<path id="Vector_6" fill-rule="evenodd" clip-rule="evenodd" d="M8.70373 8.1875H9.28973C9.36706 8.14586 9.39384 8.012 9.39384 7.93763C9.39384 7.71751 9.23618 7.61043 9.0815 7.60448C9.05771 7.60448 9.03093 7.58663 9.02498 7.56581C9.01011 7.51821 9.01309 7.48549 8.99524 7.48847C8.98334 7.48847 8.98632 7.51822 8.97442 7.55986C8.96549 7.58366 8.9417 7.60448 8.91492 7.60745C8.72455 7.61638 8.59962 7.75618 8.60259 7.93763C8.60557 8.05662 8.62044 8.12801 8.70373 8.1875Z" fill="white" stroke="#BD6B00" stroke-width="0.423055"/>
<path id="Vector_7" fill-rule="evenodd" clip-rule="evenodd" d="M7.74316 10.2732H10.2508L10.0277 10.0918H7.96328L7.74316 10.2732Z" fill="white"/>
<g id="Vector_8">
<path fill-rule="evenodd" clip-rule="evenodd" d="M8.89411 9.58585L8.93873 9.72269H9.04284L8.95955 9.58585H8.89411ZM8.83462 9.72269L8.86436 9.85952H8.98335L8.93873 9.72269H8.83462ZM9.04284 9.72269L9.12613 9.85952H9.30163L9.1648 9.72269H9.04284ZM8.0166 10.032C8.10881 9.94578 8.16831 9.87439 8.16831 9.77028H8.39438C8.39438 9.82977 8.4152 9.86249 8.44792 9.85952H8.67696V9.72566H8.51039V8.99093C8.50444 8.72917 8.82569 8.58044 8.95658 8.58044H8.17426V8.55664H9.81921V8.58044H9.03094C9.26594 8.58044 9.49201 8.80353 9.49498 8.99093V9.19916H9.46523L9.46226 8.99391C9.46226 8.78866 9.20347 8.59828 8.99525 8.60423C8.81677 8.60721 8.53716 8.77974 8.54013 8.99093V9.05637L8.9655 9.05935L8.96253 9.13371L9.02797 9.17536L9.16182 9.217V9.33004L9.25701 9.35681V9.46687L9.37005 9.51744V9.63047L9.44441 9.67509L9.44144 9.7911L9.5396 9.85952H9.30758L9.45334 10.0231H9.23619L9.1291 9.85952H8.9893L9.05176 10.0201H8.90303L8.86436 9.85952H8.67994V10.032H8.01958H8.0166ZM8.67696 9.58585V9.72269H8.83462L8.80487 9.58585H8.67399H8.67696Z" fill="white"/>
<path d="M8.93873 9.72269L8.89411 9.58585H8.95955L9.04284 9.72269M8.93873 9.72269H9.04284M8.93873 9.72269L8.98335 9.85952H8.86436M8.93873 9.72269H8.83462M9.04284 9.72269L9.12613 9.85952H9.30163L9.1648 9.72269H9.04284ZM8.83462 9.72269L8.86436 9.85952M8.83462 9.72269H8.67696V9.58585H8.67399H8.80487L8.83462 9.72269ZM8.86436 9.85952L8.90303 10.0201H9.05176L8.9893 9.85952H9.1291L9.23619 10.0231H9.45334L9.30758 9.85952H9.5396L9.44144 9.7911L9.44441 9.67509L9.37005 9.63047V9.51744L9.25701 9.46687V9.35681L9.16182 9.33004V9.217L9.02797 9.17536L8.96253 9.13371L8.9655 9.05935L8.54013 9.05637V8.99093C8.53716 8.77974 8.81677 8.60721 8.99525 8.60423C9.20347 8.59828 9.46226 8.78866 9.46226 8.99391L9.46523 9.19916H9.49498V8.99093C9.49201 8.80353 9.26594 8.58044 9.03094 8.58044H9.81921V8.55664H8.17426V8.58044H8.95658C8.82569 8.58044 8.50444 8.72917 8.51039 8.99093V9.72566H8.67696V9.85952H8.44792C8.4152 9.86249 8.39438 9.82977 8.39438 9.77028H8.16831C8.16831 9.87439 8.10881 9.94578 8.0166 10.032H8.01958H8.67994V9.85952H8.86436Z" stroke="#BD6B00" stroke-width="0.423055"/>
</g>
<path id="Vector_9" fill-rule="evenodd" clip-rule="evenodd" d="M8.68555 9.34766H8.78371V9.57373H8.68555V9.34766Z" stroke="#BD6B00" stroke-width="0.423055"/>
<path id="Vector_10" fill-rule="evenodd" clip-rule="evenodd" d="M8.5459 9.5885H8.64109V9.42192C8.64109 9.35053 8.70653 9.27617 8.73627 9.27319C8.77197 9.27319 8.82254 9.34161 8.82551 9.41597V9.5885H8.92665V9.16016H8.5459V9.5885ZM9.3074 9.68666H9.42638V9.78185H9.3074V9.68666ZM9.23601 9.52901H9.35499V9.62122H9.23601V9.52901ZM9.12 9.36838H9.23898V9.46059H9.12V9.36838ZM9.02184 9.23452H9.14082V9.32673H9.02184V9.23452Z" stroke="#BD6B00" stroke-width="0.423055"/>
<path id="Vector_11" fill-rule="evenodd" clip-rule="evenodd" d="M8.94141 9.58943L9.06634 9.59538L9.28349 9.78575V9.67272L9.20912 9.61918V9.52994L9.10203 9.47045V9.37228L8.99792 9.33659V9.20868L8.94736 9.16406L8.94141 9.58943Z" stroke="#BD6B00" stroke-width="0.423055"/>
<path id="Vector_12" fill-rule="evenodd" clip-rule="evenodd" d="M9.45898 9.30664H9.48873V9.51784H9.45898V9.30664Z" fill="white" stroke="#BD6B00" stroke-width="0.423055"/>
<g id="af-a">
<path id="Vector_13" fill-rule="evenodd" clip-rule="evenodd" d="M7.73074 8.59995C7.69504 8.54046 7.65042 8.68324 7.49872 8.78735C7.4303 8.83494 7.37973 8.96285 7.37973 9.04614C7.37973 9.10563 7.38568 9.16215 7.37973 9.21867C7.37676 9.25139 7.33809 9.3317 7.36486 9.35253C7.4303 9.40012 7.51656 9.51315 7.55523 9.55182C7.59093 9.58157 7.62068 9.39417 7.64447 9.31386C7.67422 9.22462 7.66232 9.11456 7.73966 9.03424C7.7932 8.97475 7.93004 8.92121 7.91814 8.89741L7.73074 8.59995Z" fill="white" stroke="#BD6B00" stroke-width="0.423055"/>
<path id="Vector_14" fill-rule="evenodd" clip-rule="evenodd" d="M7.72168 9.05696C7.70986 9.02889 7.69381 9.00281 7.67408 8.97962C7.65511 8.9561 7.63058 8.9377 7.60269 8.92607C7.57529 8.91795 7.55061 8.90252 7.5313 8.88145C7.51992 8.86869 7.51176 8.8534 7.5075 8.83684C7.50412 8.81715 7.50412 8.79703 7.5075 8.77734L7.49858 8.78627C7.43016 8.83386 7.3796 8.96177 7.3796 9.04506C7.37868 9.06785 7.37868 9.09068 7.3796 9.11347C7.38555 9.12835 7.38852 9.14322 7.39744 9.15214L7.43016 9.17594L7.51048 9.19676C7.54055 9.21029 7.56704 9.23066 7.58782 9.25626C7.60947 9.27918 7.62752 9.30526 7.64136 9.33359L7.64731 9.3098C7.67111 9.22948 7.66813 9.1343 7.72465 9.05696H7.72168Z" fill="#BF0000" stroke="#BD6B00" stroke-width="0.423055"/>
<path id="Vector_15" d="M7.50788 8.77539C7.49301 8.87355 7.54953 8.90925 7.60307 8.9271C7.65661 8.94792 7.70123 9.00444 7.72205 9.05798M7.37402 9.1026C7.39782 9.19184 7.45731 9.17994 7.51086 9.19778C7.5644 9.21861 7.62092 9.28702 7.64471 9.34057" stroke="#BD6B00" stroke-width="0.423055"/>
<path id="Vector_16" fill-rule="evenodd" clip-rule="evenodd" d="M7.68066 8.53933L7.71041 8.52148L8.23691 9.41089L8.20717 9.42874L7.68066 8.53933Z" fill="white" stroke="#BD6B00" stroke-width="0.423055"/>
<path id="Vector_17" fill-rule="evenodd" clip-rule="evenodd" d="M7.73715 8.50341C7.73715 8.51919 7.73088 8.53432 7.71972 8.54547C7.70857 8.55663 7.69343 8.5629 7.67766 8.5629C7.66188 8.5629 7.64675 8.55663 7.63559 8.54547C7.62443 8.53432 7.61816 8.51919 7.61816 8.50341C7.61816 8.48763 7.62443 8.4725 7.63559 8.46134C7.64675 8.45018 7.66188 8.44391 7.67766 8.44391C7.69343 8.44391 7.70857 8.45018 7.71972 8.46134C7.73088 8.4725 7.73715 8.48763 7.73715 8.50341ZM8.18929 7.7895H8.40346V7.8371H8.18929V7.7895ZM8.18929 7.88171H8.40346V8.29221H8.18929V7.88171ZM8.17739 7.73298H8.41536C8.42131 7.65267 8.34099 7.56641 8.29637 7.56641C8.24878 7.56938 8.17441 7.65564 8.17739 7.73298Z" fill="white" stroke="#BD6B00" stroke-width="0.423055"/>
<path id="Vector_18" fill-rule="evenodd" clip-rule="evenodd" d="M8.78056 7.68508C8.73594 7.70292 8.70025 7.75349 8.67943 7.81298C8.6586 7.87248 8.64968 7.94089 8.66158 7.99443C8.66158 8.01526 8.6705 8.02716 8.67645 8.03905C8.6824 8.04798 8.68835 8.05393 8.6943 8.05393C8.70322 8.05393 8.71215 8.05393 8.71512 8.045L8.72107 8.02121C8.7181 7.96171 8.7181 7.90817 8.72999 7.86058C8.74323 7.80772 8.77487 7.76132 8.81923 7.72969C8.82816 7.72375 8.83113 7.71482 8.83411 7.70887C8.83399 7.70103 8.83079 7.69354 8.82518 7.68805C8.81328 7.67913 8.79544 7.67615 8.78056 7.68508ZM8.78651 7.69697C8.79841 7.69102 8.81031 7.69697 8.81626 7.69995L8.81923 7.7059C8.81923 7.70887 8.81923 7.71185 8.81031 7.7178C8.76461 7.75131 8.73201 7.79969 8.7181 7.85463C8.70575 7.90925 8.70274 7.96557 8.70917 8.02121C8.70917 8.02764 8.70709 8.0339 8.70322 8.03905C8.70322 8.03905 8.70322 8.04203 8.69727 8.03905C8.69727 8.03905 8.69132 8.03905 8.68538 8.03013C8.67949 8.01896 8.67547 8.0069 8.67348 7.99443C8.66455 7.94089 8.67348 7.87545 8.6943 7.81596C8.71512 7.76242 8.74784 7.71482 8.78354 7.69697H8.78651Z" fill="#BD6B00"/>
<path id="Vector_19" fill-rule="evenodd" clip-rule="evenodd" d="M8.85875 7.74333C8.81413 7.76415 8.78438 7.81175 8.76951 7.86826C8.75371 7.9254 8.75067 7.98532 8.76059 8.04376C8.76654 8.08243 8.79033 8.10326 8.80818 8.10326C8.8171 8.10623 8.82603 8.10326 8.83198 8.09433C8.83793 8.08541 8.8409 8.07649 8.83793 8.06459C8.82603 8.01699 8.82305 7.96345 8.829 7.91288C8.83793 7.86231 8.85875 7.81769 8.89444 7.79092C8.90337 7.782 8.90932 7.77605 8.90932 7.76713C8.90959 7.7639 8.9092 7.76066 8.90818 7.75759C8.90716 7.75452 8.90552 7.75169 8.90337 7.74928C8.89147 7.74035 8.87362 7.73738 8.85875 7.74333ZM8.8647 7.7582C8.8766 7.75225 8.8885 7.75523 8.89444 7.7582L8.89742 7.76713L8.8885 7.77902C8.86853 7.79503 8.85193 7.81484 8.83968 7.83731C8.82742 7.85978 8.81975 7.88445 8.8171 7.90991C8.80818 7.96345 8.81413 8.01997 8.82305 8.06459C8.82603 8.07649 8.82305 8.08243 8.82305 8.08838L8.80818 8.09136C8.79926 8.09136 8.77843 8.07649 8.77249 8.04079C8.76356 7.99022 8.76654 7.92478 8.78141 7.87124C8.79628 7.81769 8.82603 7.77308 8.8647 7.7582Z" fill="#BD6B00"/>
<path id="Vector_20" fill-rule="evenodd" clip-rule="evenodd" d="M8.17694 8.625H8.41491V8.95221H8.17694V8.625ZM8.19181 9.14258H8.42086V9.21397H8.19181V9.14258ZM8.18586 9.26454H8.42383V9.52333H8.18586V9.26454ZM8.16801 9.57687H8.4268V9.72263H8.16801V9.57687ZM8.20073 9.08309H8.40896L8.4506 9.0117H8.16504L8.20073 9.08309ZM8.48035 8.82727L8.48332 8.6488H8.6261C8.56472 8.69658 8.5149 8.75758 8.48035 8.82727Z" fill="white" stroke="#BD6B00" stroke-width="0.423055"/>
<path id="Vector_21" fill-rule="evenodd" clip-rule="evenodd" d="M8.21582 8.90286C8.21582 8.94153 8.26044 8.92666 8.26044 8.90584V8.73926C8.26044 8.70951 8.33183 8.71546 8.33183 8.73629V8.91476C8.33183 8.94451 8.3824 8.94153 8.37942 8.91476V8.70654C8.37942 8.6411 8.21582 8.64407 8.21582 8.70357V8.90286ZM8.21582 9.29849H8.38537V9.50671H8.21582V9.29849Z" stroke="#BD6B00" stroke-width="0.423055"/>
<g id="Vector_22">
<path fill-rule="evenodd" clip-rule="evenodd" d="M8.32247 9.38735H8.38196V9.4171H8.32247V9.38735ZM8.21836 9.38735H8.27785V9.4171H8.21836V9.38735ZM8.27785 9.29811H8.32247V9.38735H8.27785V9.29811ZM8.27785 9.4171H8.32247V9.50931H8.27785V9.4171ZM7.3349 7.18614C7.3468 7.34975 7.29325 7.44196 7.20699 7.42709C7.18319 7.33785 7.23674 7.27538 7.3349 7.18614ZM7.14155 7.55202C7.06421 7.51335 7.12073 7.20994 7.15047 7.08203C7.17129 7.24563 7.20996 7.47765 7.14155 7.55202Z" fill="white"/>
<path d="M8.32247 9.38735H8.38196V9.4171H8.32247M8.32247 9.38735V9.4171M8.32247 9.38735V9.29811H8.27785V9.38735M8.32247 9.38735H8.27785M8.32247 9.4171H8.27785M8.32247 9.4171V9.50931H8.27785V9.4171M8.27785 9.38735H8.21836V9.4171H8.27785M8.27785 9.38735V9.4171M7.3349 7.18614C7.3468 7.34975 7.29325 7.44196 7.20699 7.42709C7.18319 7.33785 7.23674 7.27538 7.3349 7.18614ZM7.14155 7.55202C7.06421 7.51335 7.12073 7.20994 7.15047 7.08203C7.17129 7.24563 7.20996 7.47765 7.14155 7.55202Z" stroke="#BD6B00" stroke-width="0.423055"/>
</g>
<path id="Vector_23" fill-rule="evenodd" clip-rule="evenodd" d="M7.1689 7.56642C7.29978 7.61104 7.40687 7.47123 7.43959 7.30763C7.3325 7.45636 7.157 7.45636 7.17187 7.56642H7.1689ZM7.07074 7.71812C6.9696 7.69135 7.02909 7.3701 7.04992 7.24219C7.07074 7.37604 7.14213 7.67351 7.07074 7.71812ZM7.10643 7.7092C7.11238 7.59914 7.22244 7.62889 7.29978 7.56939C7.28491 7.62889 7.24029 7.72407 7.10643 7.7092ZM6.9815 7.85793C6.88036 7.82819 6.93986 7.48313 6.93391 7.34035C6.96365 7.46528 7.05884 7.82521 6.9815 7.85793ZM7.02909 7.84306C7.11238 7.86983 7.22244 7.81331 7.23137 7.71515C7.157 7.76572 7.04397 7.72705 7.02909 7.84306Z" fill="white" stroke="#BD6B00" stroke-width="0.423055"/>
<path id="Vector_24" fill-rule="evenodd" clip-rule="evenodd" d="M6.90441 8.0104C6.80922 8.01932 6.85087 7.72484 6.85087 7.45117C6.88656 7.70699 6.98472 7.94198 6.90441 8.0104Z" fill="white" stroke="#BD6B00" stroke-width="0.423055"/>
<path id="Vector_25" fill-rule="evenodd" clip-rule="evenodd" d="M6.93945 7.99825C7.00489 8.028 7.1209 7.97743 7.15362 7.86737C7.03464 7.91794 6.9573 7.86737 6.93945 7.99825ZM7.70095 7.33789C7.6831 7.48365 7.62361 7.56694 7.53735 7.55206C7.51355 7.46282 7.58494 7.40333 7.70095 7.33789ZM7.46893 7.70674C7.61469 7.72756 7.66526 7.6175 7.76639 7.47175C7.62659 7.57288 7.46298 7.59073 7.46893 7.70972V7.70674Z" fill="white" stroke="#BD6B00" stroke-width="0.423055"/>
<path id="Vector_26" fill-rule="evenodd" clip-rule="evenodd" d="M7.42432 7.69133C7.34698 7.59614 7.42432 7.47418 7.48381 7.37305C7.47192 7.52475 7.52248 7.61102 7.42432 7.69133ZM7.39458 7.84898C7.38268 7.7538 7.54331 7.73297 7.6147 7.68241C7.58793 7.73595 7.5552 7.8817 7.3916 7.84898H7.39458Z" fill="white" stroke="#BD6B00" stroke-width="0.423055"/>
<path id="Vector_27" fill-rule="evenodd" clip-rule="evenodd" d="M7.35959 7.84926C7.24953 7.83737 7.29415 7.64996 7.37446 7.54883C7.34174 7.69161 7.43395 7.78977 7.35959 7.84926Z" fill="white" stroke="#BD6B00" stroke-width="0.423055"/>
<path id="Vector_28" fill-rule="evenodd" clip-rule="evenodd" d="M7.27581 8.00756C7.15088 7.94806 7.23119 7.79338 7.27581 7.70117C7.25796 7.82313 7.3591 7.91534 7.27581 8.00458V8.00756Z" fill="white" stroke="#BD6B00" stroke-width="0.423055"/>
<path id="Vector_29" fill-rule="evenodd" clip-rule="evenodd" d="M7.29942 7.98866C7.36486 8.0779 7.49277 7.96487 7.51954 7.83398C7.40948 7.9262 7.32619 7.91132 7.29942 7.99164V7.98866ZM7.01386 8.59251C7.00196 8.4646 7.09714 8.23556 7.02873 8.11062C7.0198 8.09278 7.04955 8.04816 7.07037 8.07493C7.10012 8.11955 7.12987 8.24448 7.14474 8.19689C7.15664 8.14632 7.15961 8.06005 7.20423 8.04221C7.23398 8.03328 7.27265 8.02436 7.26075 8.07195C7.24885 8.1136 7.22505 8.17309 7.25182 8.17606C7.2667 8.17606 7.31132 8.11657 7.34999 8.08683C7.37973 8.06303 7.42733 8.10467 7.37973 8.14037C7.23695 8.25935 7.09714 8.31587 7.01386 8.59251ZM6.75506 10.5111C6.73722 10.5111 6.71639 10.5022 6.73722 10.529C6.90677 10.7372 6.95436 10.7967 7.20126 10.7669C7.44815 10.7342 7.50764 10.6658 7.68314 10.5676C7.73395 10.5409 7.78956 10.5245 7.84674 10.5194C7.90393 10.5143 7.96156 10.5206 8.0163 10.5379C8.06389 10.5528 8.09364 10.5528 8.05794 10.5171C8.02225 10.4844 7.98358 10.4368 7.93896 10.404C7.82799 10.3298 7.69275 10.3011 7.56118 10.3237C7.38271 10.3535 7.231 10.4695 7.04955 10.5141C6.95237 10.5337 6.85225 10.5337 6.75506 10.5141V10.5111ZM8.17693 10.883C8.20667 10.8889 8.22749 10.9484 8.24534 10.9097C8.26914 10.8413 8.25129 10.7907 8.22154 10.7937C8.18585 10.8026 8.12933 10.883 8.17693 10.883Z" fill="white" stroke="#BD6B00" stroke-width="0.423055"/>
<path id="Vector_30" fill-rule="evenodd" clip-rule="evenodd" d="M6.63939 8.49479C6.6037 8.45314 6.61262 8.44125 6.66914 8.43827C6.71079 8.43827 6.79407 8.46802 6.82679 8.44125C6.85654 8.42042 6.84167 8.33119 6.85654 8.29252C6.86249 8.26574 6.87736 8.23302 6.91603 8.28657C7.02312 8.45909 7.154 8.66732 7.21349 8.86959C7.24324 8.98262 7.21349 9.1611 7.11236 9.28008C7.11236 9.17895 7.07666 9.11053 7.03204 9.02427C6.97255 8.91421 6.76135 8.60782 6.63939 8.49181V8.49479Z" fill="white"/>
<path id="Vector_31" fill-rule="evenodd" clip-rule="evenodd" d="M7.0829 9.39954C7.20188 9.39954 7.2227 9.24188 7.2227 9.19727C7.16321 9.20916 7.06207 9.30733 7.0829 9.39954ZM8.10914 10.9434C8.19242 10.9612 8.18945 10.7589 8.10319 10.6727C8.14186 10.8036 8.04369 10.9225 8.10616 10.9404L8.10914 10.9434ZM8.07344 10.9404C8.07939 11.0356 7.83547 10.9285 7.77598 10.8511C7.91876 10.9136 8.06749 10.863 8.07344 10.9404ZM7.96933 10.8036C7.97825 10.8958 7.76111 10.8125 7.69269 10.7411C7.83845 10.7887 7.9604 10.7262 7.96933 10.8006V10.8036ZM8.008 10.8155C8.09426 10.8363 8.07939 10.6251 7.9961 10.5537C8.03775 10.6935 7.94256 10.7946 8.008 10.8155ZM7.91876 10.6875C8.00502 10.7084 7.95446 10.5269 7.89199 10.4555C7.90389 10.5864 7.86224 10.6786 7.92174 10.6875H7.91876ZM7.87414 10.6875C7.88307 10.7827 7.71351 10.7113 7.64807 10.6191C7.79085 10.6637 7.86522 10.6102 7.87414 10.6875ZM7.82952 10.6132C7.88307 10.5745 7.82655 10.4704 7.71946 10.4763C7.73136 10.5388 7.76706 10.6518 7.82952 10.6132ZM8.24597 11.0504C8.24894 11.1456 8.008 11.098 7.93066 10.9969C8.08534 11.0266 8.23704 10.9731 8.24299 11.0504H8.24597ZM7.28219 10.8779C7.29112 10.9731 7.02638 10.866 6.96094 10.7768C7.10074 10.8244 7.27327 10.8006 7.28219 10.8779ZM7.44282 10.9166C7.49934 10.8779 7.38631 10.7768 7.29409 10.753C7.30599 10.8155 7.38333 10.9553 7.44282 10.9196V10.9166ZM7.46067 10.985C7.46662 11.0713 7.17808 11.0237 7.10372 10.9434C7.35061 10.988 7.45175 10.9106 7.46067 10.985Z" fill="white" stroke="#BD6B00" stroke-width="0.423055"/>
<path id="Vector_32" fill-rule="evenodd" clip-rule="evenodd" d="M7.59701 11.0413C7.62675 11.1216 7.35012 11.1008 7.25195 11.0562C7.40961 11.0562 7.57321 10.9848 7.59701 11.0413Z" fill="white" stroke="#BD6B00" stroke-width="0.423055"/>
<path id="Vector_33" fill-rule="evenodd" clip-rule="evenodd" d="M7.72503 11.1016C7.75477 11.173 7.49896 11.173 7.37402 11.1313C7.5406 11.1313 7.69528 11.0302 7.72503 11.1016ZM7.91243 11.1402C7.96002 11.2265 7.68636 11.2325 7.60009 11.1908C7.75477 11.17 7.87376 11.0718 7.91243 11.1402ZM7.59414 10.9945C7.50788 11.048 7.51383 10.8874 7.44541 10.7773C7.5525 10.8755 7.65364 10.9439 7.59414 10.9945Z" fill="white" stroke="#BD6B00" stroke-width="0.423055"/>
<path id="Vector_34" fill-rule="evenodd" clip-rule="evenodd" d="M7.74833 11.0524C7.67694 11.1148 7.61745 10.8947 7.552 10.7698C7.65909 10.8888 7.81377 10.9988 7.74833 11.0494V11.0524ZM7.9506 11.1119C7.89111 11.1833 7.71263 10.9036 7.64719 10.7549C7.74535 10.8709 7.9982 11.0524 7.9506 11.1119ZM7.77807 11.326C7.74833 11.4331 7.29619 11.2249 7.24265 11.1148C7.50441 11.2517 7.78402 11.2219 7.77807 11.3231V11.326ZM6.32944 9.13078C6.31754 9.11591 6.2878 9.13078 6.29375 9.1635C6.30267 9.20812 6.36811 9.43716 6.48115 9.5145C6.56146 9.574 6.98683 9.66621 7.1772 9.70785C7.28429 9.72867 7.37055 9.78222 7.44194 9.86551C7.4175 9.76679 7.38771 9.66948 7.35271 9.574C7.31701 9.48476 7.22182 9.38957 7.12069 9.3866C6.93924 9.37767 6.70127 9.3628 6.52577 9.28843C6.44627 9.25492 6.37738 9.20042 6.32647 9.13078H6.32944Z" fill="white" stroke="#BD6B00" stroke-width="0.423055"/>
<path id="Vector_35" fill-rule="evenodd" clip-rule="evenodd" d="M7.37951 10.039C7.439 10.0807 7.50146 9.92896 7.43007 9.7832C7.4271 9.92301 7.31704 9.9706 7.37951 10.039Z" fill="white" stroke="#BD6B00" stroke-width="0.423055"/>
<path id="Vector_36" fill-rule="evenodd" clip-rule="evenodd" d="M7.43629 10.1793C7.5166 10.2031 7.5404 10.0603 7.48983 9.94727C7.49875 10.0692 7.36192 10.1436 7.43629 10.1793Z" fill="white" stroke="#BD6B00" stroke-width="0.423055"/>
<path id="Vector_37" fill-rule="evenodd" clip-rule="evenodd" d="M7.49847 10.2913C7.57581 10.3299 7.60258 10.1842 7.54904 10.0801C7.55499 10.2139 7.43898 10.2556 7.49847 10.2883V10.2913Z" fill="white" stroke="#BD6B00" stroke-width="0.423055"/>
<path id="Vector_38" fill-rule="evenodd" clip-rule="evenodd" d="M7.46648 10.3014C7.43674 10.3907 7.25826 10.2211 7.22852 10.1289C7.33858 10.239 7.48731 10.2241 7.46648 10.2985V10.3014Z" fill="white" stroke="#BD6B00" stroke-width="0.423055"/>
<path id="Vector_39" fill-rule="evenodd" clip-rule="evenodd" d="M7.38553 10.1611C7.34984 10.2504 7.12674 10.0124 7.07617 9.90234C7.18623 10.0124 7.40933 10.0957 7.38553 10.1582V10.1611Z" fill="white" stroke="#BD6B00" stroke-width="0.423055"/>
<path id="Vector_40" fill-rule="evenodd" clip-rule="evenodd" d="M7.34119 10.0212C7.3055 10.1253 7.06455 9.8487 6.99316 9.75054C7.11215 9.85762 7.36796 9.94686 7.34119 10.0212ZM7.33227 9.92009C7.42151 9.90224 7.32929 9.83085 7.22221 9.71484C7.21923 9.8368 7.23708 9.92307 7.33227 9.92009Z" fill="white" stroke="#BD6B00" stroke-width="0.423055"/>
<path id="Vector_41" fill-rule="evenodd" clip-rule="evenodd" d="M7.18642 9.84826C7.22509 9.80959 7.1537 9.79175 7.06446 9.69061C7.04958 9.75903 7.14775 9.88396 7.18939 9.84826H7.18642ZM7.60286 10.3004C7.65046 10.3302 7.6802 10.232 7.62368 10.1457C7.60881 10.2409 7.56122 10.2647 7.60286 10.3004ZM6.58555 9.69656C6.48738 9.75605 6.32973 9.51808 6.28809 9.41992C6.37435 9.53296 6.60339 9.63409 6.58555 9.69656Z" fill="white" stroke="#BD6B00" stroke-width="0.423055"/>
<path id="Vector_42" fill-rule="evenodd" clip-rule="evenodd" d="M6.67233 9.83388C6.61581 9.89338 6.44328 9.72977 6.38379 9.64648C6.47303 9.7268 6.69612 9.73572 6.67233 9.83388Z" fill="white" stroke="#BD6B00" stroke-width="0.423055"/>
<path id="Vector_43" fill-rule="evenodd" clip-rule="evenodd" d="M6.76373 9.95897C6.74588 10.0423 6.49602 9.85486 6.43652 9.76562C6.54361 9.86974 6.78158 9.86081 6.76373 9.95897Z" fill="white" stroke="#BD6B00" stroke-width="0.423055"/>
<path id="Vector_44" fill-rule="evenodd" clip-rule="evenodd" d="M6.72515 10.0507C6.68648 10.125 6.48123 9.93763 6.43066 9.84244C6.55857 9.94952 6.75787 9.9763 6.72812 10.0507H6.72515ZM6.62104 9.68478C6.68351 9.61637 6.65673 9.58365 6.60914 9.47656C6.58534 9.58662 6.54667 9.63124 6.62104 9.68478ZM6.7073 9.81269C6.82629 9.81864 6.7073 9.67586 6.67756 9.5539C6.68945 9.69073 6.64781 9.80079 6.7073 9.81269Z" fill="white" stroke="#BD6B00" stroke-width="0.423055"/>
<path id="Vector_45" fill-rule="evenodd" clip-rule="evenodd" d="M6.78228 9.92601C6.8626 9.90816 6.84178 9.79215 6.77634 9.65234C6.79121 9.80405 6.70792 9.89031 6.78228 9.92601ZM6.75254 10.1551C6.72279 10.2443 6.49077 10.0361 6.45508 9.95278C6.57406 10.0539 6.77336 10.0866 6.75254 10.1551Z" fill="white" stroke="#BD6B00" stroke-width="0.423055"/>
<path id="Vector_46" fill-rule="evenodd" clip-rule="evenodd" d="M6.89202 10.2979C6.8593 10.3871 6.61538 10.2027 6.54102 10.1016C6.68677 10.2205 6.90987 10.2086 6.89202 10.2979Z" fill="white" stroke="#BD6B00" stroke-width="0.423055"/>
<path id="Vector_47" fill-rule="evenodd" clip-rule="evenodd" d="M7.03487 10.444C6.9962 10.572 6.74038 10.3667 6.66602 10.2656C6.82664 10.3905 7.05271 10.3548 7.03487 10.444ZM6.7969 10.1168C6.86531 10.1496 6.89209 9.95621 6.85342 9.81641C6.85342 9.96514 6.71361 10.0782 6.79392 10.1139L6.7969 10.1168Z" fill="white" stroke="#BD6B00" stroke-width="0.423055"/>
<path id="Vector_48" fill-rule="evenodd" clip-rule="evenodd" d="M6.91255 10.2709C6.99584 10.2947 6.97204 10.0835 6.89768 9.94368C6.88875 10.0835 6.82926 10.2114 6.91255 10.2709ZM7.06128 10.4166C7.15052 10.4196 7.09102 10.2352 7.01368 10.1311C7.02558 10.2649 6.98394 10.3988 7.06128 10.4166ZM6.89768 10.494C6.86793 10.5416 6.80249 10.4553 6.68945 10.3899C6.79059 10.4196 6.90957 10.4494 6.89768 10.494ZM6.84413 8.92637C6.93337 8.86093 6.86495 8.74194 6.84413 8.62891C6.81439 8.73599 6.743 8.87877 6.84413 8.92637ZM6.84413 9.08402C6.71028 9.06915 6.7311 8.90257 6.72515 8.79548C6.76679 8.94124 6.87388 8.96504 6.84413 9.087V9.08402ZM6.86198 9.0632C6.97204 9.05725 6.96609 8.93232 6.97204 8.80738C6.91552 8.92339 6.85306 8.94124 6.86198 9.0632Z" fill="white" stroke="#BD6B00" stroke-width="0.423055"/>
<path id="Vector_49" fill-rule="evenodd" clip-rule="evenodd" d="M6.85967 9.21715C6.77043 9.22607 6.72879 9.13981 6.71094 9.00892C6.79125 9.13088 6.86264 9.09221 6.85967 9.21715ZM6.88941 9.20822C6.99947 9.2231 6.97865 9.09519 6.97865 9C6.94296 9.08924 6.85372 9.11898 6.88941 9.20822Z" fill="white" stroke="#BD6B00" stroke-width="0.423055"/>
<path id="Vector_50" fill-rule="evenodd" clip-rule="evenodd" d="M6.7168 9.15625C6.72572 9.23954 6.77926 9.38232 6.86553 9.3496C6.89825 9.24846 6.78819 9.22764 6.7168 9.15625Z" fill="white" stroke="#BD6B00" stroke-width="0.423055"/>
<path id="Vector_51" fill-rule="evenodd" clip-rule="evenodd" d="M6.88867 9.35754C6.85298 9.28615 6.97791 9.24748 7.00171 9.15229C7.01658 9.28913 7.00468 9.37836 6.88867 9.36052V9.35754ZM6.5347 8.48896C6.60311 8.41757 6.54362 8.29858 6.5228 8.18555C6.49305 8.29263 6.44843 8.43541 6.5347 8.48896ZM6.5347 8.62579C6.41571 8.64066 6.38597 8.39674 6.37109 8.28966C6.41274 8.43541 6.54957 8.49788 6.5347 8.62876V8.62579ZM6.55849 8.62579C6.64178 8.58117 6.62393 8.48598 6.64773 8.41757C6.59419 8.50383 6.54065 8.51573 6.55849 8.62579Z" fill="white" stroke="#BD6B00" stroke-width="0.423055"/>
<path id="Vector_52" fill-rule="evenodd" clip-rule="evenodd" d="M6.53235 8.78682C6.41039 8.79574 6.33603 8.52505 6.33008 8.41797C6.36875 8.56372 6.5502 8.64106 6.53533 8.78682H6.53235ZM6.55912 8.78087C6.67811 8.7541 6.66323 8.67676 6.64539 8.5548C6.60672 8.67973 6.54128 8.65296 6.55912 8.78087Z" fill="white" stroke="#BD6B00" stroke-width="0.423055"/>
<path id="Vector_53" fill-rule="evenodd" clip-rule="evenodd" d="M6.53191 8.94187C6.39508 8.96567 6.40401 8.74554 6.29395 8.58789C6.38913 8.70687 6.56166 8.8556 6.53191 8.94187ZM6.56166 8.93294C6.66875 8.93889 6.68064 8.78124 6.67469 8.7158C6.64792 8.78124 6.52596 8.84073 6.56463 8.93592L6.56166 8.93294Z" fill="white" stroke="#BD6B00" stroke-width="0.423055"/>
<path id="Vector_54" fill-rule="evenodd" clip-rule="evenodd" d="M6.31836 8.77148C6.36893 8.94104 6.44329 9.11059 6.53253 9.09869C6.57715 9.00053 6.44627 8.98863 6.31836 8.77148Z" fill="white" stroke="#BD6B00" stroke-width="0.423055"/>
<path id="Vector_55" fill-rule="evenodd" clip-rule="evenodd" d="M6.56471 9.07244C6.52902 8.99807 6.65395 8.96237 6.67775 8.86719C6.69262 9.00402 6.68072 9.09326 6.56471 9.07244ZM6.35352 8.96535C6.42788 9.11705 6.4606 9.29256 6.56174 9.26578C6.60041 9.1468 6.4487 9.123 6.35352 8.96535Z" fill="white" stroke="#BD6B00" stroke-width="0.423055"/>
<path id="Vector_56" fill-rule="evenodd" clip-rule="evenodd" d="M6.58274 9.23841C6.53812 9.15513 6.66306 9.12835 6.69578 9.01829C6.71065 9.16107 6.69578 9.26519 6.58274 9.23544V9.23841ZM6.79691 8.21218C6.8683 8.23002 6.94564 8.14971 6.91887 8.02775C6.83558 8.0456 6.79989 8.12294 6.79691 8.21218ZM6.56192 8.14971C6.56787 8.1854 6.61249 8.18838 6.59761 8.13781C6.58651 8.10501 6.58651 8.06947 6.59761 8.03667C6.61195 7.99219 6.61195 7.94433 6.59761 7.89984C6.58572 7.8701 6.54407 7.88794 6.56192 7.91174C6.57977 7.93851 6.58274 7.99503 6.56787 8.0218C6.55002 8.06047 6.55597 8.11104 6.56192 8.14971ZM7.2431 8.62565C7.21336 8.66432 7.15684 8.63754 7.20146 8.58103C7.23715 8.53641 7.2907 8.49774 7.2907 8.45014C7.29665 8.39065 7.32937 8.30141 7.36209 8.26869C7.39481 8.23597 7.43348 8.28059 7.39778 8.30439C7.35911 8.32819 7.33234 8.43527 7.33532 8.47692C7.33234 8.53641 7.27582 8.58103 7.2431 8.62565ZM7.15387 8.55723C7.12412 8.59887 7.08248 8.5721 7.10627 8.50666C7.12709 8.46204 7.13007 8.40255 7.15387 8.36983C7.18956 8.31926 7.2431 8.27762 7.27582 8.2449C7.31152 8.21515 7.33532 8.2449 7.30557 8.27464C7.26911 8.31106 7.23624 8.35091 7.20741 8.39363C7.16576 8.45907 7.18361 8.51261 7.15387 8.55723ZM6.68685 8.34306C6.68388 8.40255 6.73147 8.41445 6.7285 8.33116C6.7285 8.24192 6.66306 8.15863 6.69875 8.02478C6.72255 7.95933 6.72255 7.83738 6.71065 7.77491C6.69875 7.70947 6.65116 7.75111 6.67198 7.80168C6.68983 7.86117 6.66901 7.96826 6.65413 8.02478C6.60951 8.1854 6.68983 8.26274 6.68388 8.34306H6.68685ZM6.81476 8.01585C6.80881 8.07237 6.76122 8.07534 6.77609 8.00098C6.78799 7.94149 6.78799 7.89389 6.77609 7.84332C6.75824 7.78086 6.76419 7.67377 6.77609 7.62915C6.79096 7.58156 6.83558 7.60833 6.81774 7.64403C6.79697 7.70025 6.79386 7.76148 6.80881 7.81953C6.82666 7.87902 6.82368 7.96231 6.81476 8.01883V8.01585ZM6.35072 9.11943C6.37452 9.1462 6.41021 9.12835 6.38047 9.08968C6.35072 9.05994 6.35965 9.05399 6.3418 9.01829C6.32395 8.97665 6.32693 8.95583 6.3061 8.92906C6.28528 8.89931 6.25851 8.92906 6.27636 8.94988C6.30015 8.97962 6.2942 8.99747 6.3061 9.02424C6.33585 9.06886 6.32693 9.09266 6.35072 9.11943ZM6.95754 9.85118C6.9939 9.87128 7.02482 9.89993 7.04762 9.93465C7.07043 9.96938 7.08443 10.0091 7.08842 10.0505C7.09154 10.1246 7.11191 10.1969 7.14792 10.2617C7.08842 10.2468 7.05868 10.1516 7.04975 10.0594C7.04083 9.96422 6.99026 9.92555 6.96052 9.85118H6.95754ZM7.10925 10.0267C7.15981 10.1189 7.22823 10.1546 7.23418 10.223C7.24013 10.3033 7.24608 10.3063 7.2669 10.3836C7.20741 10.3688 7.19254 10.3628 7.17766 10.2438C7.16874 10.1605 7.10032 10.104 7.10925 10.0267Z" fill="white" stroke="#BD6B00" stroke-width="0.423055"/>
<path id="Vector_57" fill-rule="evenodd" clip-rule="evenodd" d="M8.67385 10.8834C8.7036 10.9369 8.73335 11.0172 8.79284 11.0023C8.79284 10.9637 8.73037 10.9339 8.67385 10.8834ZM8.76309 10.9012C8.87315 10.9488 8.97131 10.9369 8.98619 11.0083C8.8791 11.0202 8.83746 10.9786 8.76012 10.9012H8.76309ZM8.28418 10.5234C8.35809 10.5809 8.41049 10.6616 8.43291 10.7525C8.45689 10.8347 8.49298 10.9129 8.54 10.9845C8.46264 10.9325 8.40665 10.8544 8.38234 10.7644C8.36152 10.6751 8.33475 10.6067 8.28418 10.5264V10.5234ZM8.37639 10.5234C8.45968 10.5889 8.53702 10.6662 8.56082 10.7584C8.58462 10.8447 8.59949 10.9101 8.65601 10.9964C8.56677 10.9399 8.53405 10.8566 8.50728 10.7644C8.48645 10.6751 8.43291 10.6097 8.37639 10.5264V10.5234ZM8.65006 10.7406C8.64889 10.7331 8.65033 10.7255 8.65412 10.719C8.65791 10.7125 8.66383 10.7075 8.67088 10.7049C8.69632 10.6959 8.72213 10.688 8.74822 10.6811C8.77796 10.6722 8.79581 10.693 8.79581 10.7079V10.7674C8.79581 10.7882 8.78986 10.7912 8.77499 10.7941C8.75417 10.7971 8.72442 10.8001 8.7036 10.8149C8.68575 10.8268 8.6679 10.8179 8.65898 10.8001L8.65006 10.7406ZM8.96536 10.7406C8.96536 10.7227 8.95942 10.7079 8.94752 10.7049C8.92494 10.6955 8.90052 10.6915 8.87613 10.693C8.84638 10.693 8.84341 10.6989 8.84341 10.7108V10.7733C8.84341 10.7971 8.84341 10.7971 8.8553 10.8031C8.87613 10.8031 8.90885 10.8031 8.92967 10.8209C8.94454 10.8298 8.95942 10.8209 8.96239 10.8031L8.96536 10.7406Z" fill="white"/>
</g>
<g id="af-a_2">
<path id="Vector_58" fill-rule="evenodd" clip-rule="evenodd" d="M10.2712 8.59995C10.3069 8.54046 10.3515 8.68324 10.5032 8.78735C10.5717 8.83494 10.6222 8.96285 10.6222 9.04614C10.6222 9.10563 10.6163 9.16215 10.6222 9.21867C10.6252 9.25139 10.6639 9.3317 10.6371 9.35253C10.5717 9.40012 10.4854 9.51315 10.4467 9.55182C10.411 9.58157 10.3813 9.39417 10.3575 9.31386C10.3277 9.22462 10.3396 9.11456 10.2623 9.03424C10.2087 8.97475 10.0719 8.92121 10.0838 8.89741L10.2712 8.59995Z" fill="white" stroke="#BD6B00" stroke-width="0.423055"/>
<path id="Vector_59" fill-rule="evenodd" clip-rule="evenodd" d="M10.2803 9.05696C10.2921 9.02889 10.3081 9.00281 10.3279 8.97962C10.3468 8.9561 10.3714 8.9377 10.3993 8.92607C10.4267 8.91795 10.4513 8.90252 10.4707 8.88145C10.482 8.86869 10.4902 8.8534 10.4944 8.83684C10.4978 8.81715 10.4978 8.79703 10.4944 8.77734L10.5034 8.78627C10.5718 8.83386 10.6224 8.96177 10.6224 9.04506C10.6233 9.06785 10.6233 9.09068 10.6224 9.11347C10.6164 9.12835 10.6134 9.14322 10.6045 9.15214L10.5718 9.17594L10.4915 9.19676C10.4614 9.21029 10.4349 9.23066 10.4141 9.25626C10.3925 9.27918 10.3744 9.30526 10.3606 9.33359L10.3546 9.3098C10.3308 9.22948 10.3338 9.1343 10.2773 9.05696H10.2803Z" fill="#BF0000" stroke="#BD6B00" stroke-width="0.423055"/>
<path id="Vector_60" d="M10.4941 8.77539C10.5089 8.87355 10.4524 8.90925 10.3989 8.9271C10.3453 8.94792 10.3007 9.00444 10.2799 9.05798M10.6279 9.1026C10.6041 9.19184 10.5446 9.17994 10.4911 9.19778C10.4376 9.21861 10.381 9.28702 10.3572 9.34057" stroke="#BD6B00" stroke-width="0.423055"/>
<path id="Vector_61" fill-rule="evenodd" clip-rule="evenodd" d="M10.3213 8.53933L10.2915 8.52148L9.76504 9.41089L9.79478 9.42874L10.3213 8.53933Z" fill="white" stroke="#BD6B00" stroke-width="0.423055"/>
<path id="Vector_62" fill-rule="evenodd" clip-rule="evenodd" d="M10.2648 8.50341C10.2648 8.51919 10.2711 8.53432 10.2822 8.54547C10.2934 8.55663 10.3085 8.5629 10.3243 8.5629C10.3401 8.5629 10.3552 8.55663 10.3664 8.54547C10.3775 8.53432 10.3838 8.51919 10.3838 8.50341C10.3838 8.48763 10.3775 8.4725 10.3664 8.46134C10.3552 8.45018 10.3401 8.44391 10.3243 8.44391C10.3085 8.44391 10.2934 8.45018 10.2822 8.46134C10.2711 8.4725 10.2648 8.48763 10.2648 8.50341ZM9.81266 7.7895H9.59849V7.8371H9.81266V7.7895ZM9.81266 7.88171H9.59849V8.29221H9.81266V7.88171ZM9.82456 7.73298H9.5866C9.58065 7.65267 9.66096 7.56641 9.70558 7.56641C9.75317 7.56938 9.82754 7.65564 9.82456 7.73298Z" fill="white" stroke="#BD6B00" stroke-width="0.423055"/>
<path id="Vector_63" fill-rule="evenodd" clip-rule="evenodd" d="M9.22139 7.68508C9.26601 7.70292 9.3017 7.75349 9.32253 7.81298C9.34335 7.87248 9.35227 7.94089 9.34037 7.99443C9.34037 8.01526 9.33145 8.02716 9.3255 8.03905C9.31955 8.04798 9.3136 8.05393 9.30765 8.05393C9.29873 8.05393 9.28981 8.05393 9.28683 8.045L9.28088 8.02121C9.28386 7.96171 9.28386 7.90817 9.27196 7.86058C9.25873 7.80772 9.22709 7.76132 9.18272 7.72969C9.1738 7.72375 9.17082 7.71482 9.16785 7.70887C9.16796 7.70103 9.17117 7.69354 9.17677 7.68805C9.18867 7.67913 9.20652 7.67615 9.22139 7.68508ZM9.21544 7.69697C9.20354 7.69102 9.19164 7.69697 9.18569 7.69995L9.18272 7.7059C9.18272 7.70887 9.18272 7.71185 9.19164 7.7178C9.23734 7.75131 9.26995 7.79969 9.28386 7.85463C9.2962 7.90925 9.29922 7.96557 9.29278 8.02121C9.29278 8.02764 9.29487 8.0339 9.29873 8.03905C9.29873 8.03905 9.29873 8.04203 9.30468 8.03905C9.30468 8.03905 9.31063 8.03905 9.31658 8.03013C9.32246 8.01896 9.32648 8.0069 9.32848 7.99443C9.3374 7.94089 9.32848 7.87545 9.30765 7.81596C9.28683 7.76242 9.25411 7.71482 9.21841 7.69697H9.21544Z" fill="#BD6B00"/>
<path id="Vector_64" fill-rule="evenodd" clip-rule="evenodd" d="M9.1432 7.74333C9.18782 7.76415 9.21757 7.81175 9.23244 7.86826C9.24824 7.9254 9.25129 7.98532 9.24137 8.04376C9.23542 8.08243 9.21162 8.10326 9.19377 8.10326C9.18485 8.10623 9.17592 8.10326 9.16998 8.09433C9.16403 8.08541 9.16105 8.07649 9.16403 8.06459C9.17592 8.01699 9.1789 7.96345 9.17295 7.91288C9.16403 7.86231 9.1432 7.81769 9.10751 7.79092C9.09858 7.782 9.09264 7.77605 9.09264 7.76713C9.09236 7.7639 9.09275 7.76066 9.09377 7.75759C9.09479 7.75452 9.09643 7.75169 9.09858 7.74928C9.11048 7.74035 9.12833 7.73738 9.1432 7.74333ZM9.13725 7.7582C9.12536 7.75225 9.11346 7.75523 9.10751 7.7582L9.10453 7.76713L9.11346 7.77902C9.13343 7.79503 9.15002 7.81484 9.16227 7.83731C9.17453 7.85978 9.1822 7.88445 9.18485 7.90991C9.19377 7.96345 9.18782 8.01997 9.1789 8.06459C9.17592 8.07649 9.1789 8.08243 9.1789 8.08838L9.19377 8.09136C9.2027 8.09136 9.22352 8.07649 9.22947 8.04079C9.23839 7.99022 9.23542 7.92478 9.22054 7.87124C9.20567 7.81769 9.17592 7.77308 9.13725 7.7582Z" fill="#BD6B00"/>
<path id="Vector_65" fill-rule="evenodd" clip-rule="evenodd" d="M9.82502 8.625H9.58705V8.95221H9.82502V8.625ZM9.81014 9.14258H9.5811V9.21397H9.81014V9.14258ZM9.81609 9.26454H9.57812V9.52333H9.81609V9.26454ZM9.83394 9.57687H9.57515V9.72263H9.83394V9.57687ZM9.80122 9.08309H9.593L9.55135 9.0117H9.83691L9.80122 9.08309ZM9.52161 8.82727L9.51863 8.6488H9.37585C9.43723 8.69658 9.48705 8.75758 9.52161 8.82727Z" fill="white" stroke="#BD6B00" stroke-width="0.423055"/>
<path id="Vector_66" fill-rule="evenodd" clip-rule="evenodd" d="M9.78613 8.90286C9.78613 8.94153 9.74151 8.92666 9.74151 8.90584V8.73926C9.74151 8.70951 9.67012 8.71546 9.67012 8.73629V8.91476C9.67012 8.94451 9.61955 8.94153 9.62253 8.91476V8.70654C9.62253 8.6411 9.78613 8.64407 9.78613 8.70357V8.90286ZM9.78613 9.29849H9.61658V9.50671H9.78613V9.29849Z" stroke="#BD6B00" stroke-width="0.423055"/>
<g id="Vector_67">
<path fill-rule="evenodd" clip-rule="evenodd" d="M9.67949 9.38735H9.61999V9.4171H9.67949V9.38735ZM9.7836 9.38735H9.72411V9.4171H9.7836V9.38735ZM9.72411 9.29811H9.67949V9.38735H9.72411V9.29811ZM9.72411 9.4171H9.67949V9.50931H9.72411V9.4171ZM10.6671 7.18614C10.6552 7.34975 10.7087 7.44196 10.795 7.42709C10.8188 7.33785 10.7652 7.27538 10.6671 7.18614ZM10.8604 7.55202C10.9377 7.51335 10.8812 7.20994 10.8515 7.08203C10.8307 7.24563 10.792 7.47765 10.8604 7.55202Z" fill="white"/>
<path d="M9.67949 9.38735H9.61999V9.4171H9.67949M9.67949 9.38735V9.4171M9.67949 9.38735V9.29811H9.72411V9.38735M9.67949 9.38735H9.72411M9.67949 9.4171H9.72411M9.67949 9.4171V9.50931H9.72411V9.4171M9.72411 9.38735H9.7836V9.4171H9.72411M9.72411 9.38735V9.4171M10.6671 7.18614C10.6552 7.34975 10.7087 7.44196 10.795 7.42709C10.8188 7.33785 10.7652 7.27538 10.6671 7.18614ZM10.8604 7.55202C10.9377 7.51335 10.8812 7.20994 10.8515 7.08203C10.8307 7.24563 10.792 7.47765 10.8604 7.55202Z" stroke="#BD6B00" stroke-width="0.423055"/>
</g>
<path id="Vector_68" fill-rule="evenodd" clip-rule="evenodd" d="M10.8331 7.56642C10.7022 7.61104 10.5951 7.47123 10.5624 7.30763C10.6694 7.45636 10.845 7.45636 10.8301 7.56642H10.8331ZM10.9312 7.71812C11.0324 7.69135 10.9729 7.3701 10.952 7.24219C10.9312 7.37604 10.8598 7.67351 10.9312 7.71812ZM10.8955 7.7092C10.8896 7.59914 10.7795 7.62889 10.7022 7.56939C10.717 7.62889 10.7617 7.72407 10.8955 7.7092ZM11.0205 7.85793C11.1216 7.82819 11.0621 7.48313 11.068 7.34035C11.0383 7.46528 10.9431 7.82521 11.0205 7.85793ZM10.9729 7.84306C10.8896 7.86983 10.7795 7.81331 10.7706 7.71515C10.845 7.76572 10.958 7.72705 10.9729 7.84306Z" fill="white" stroke="#BD6B00" stroke-width="0.423055"/>
<path id="Vector_69" fill-rule="evenodd" clip-rule="evenodd" d="M11.0975 8.0104C11.1927 8.01932 11.1511 7.72484 11.1511 7.45117C11.1154 7.70699 11.0172 7.94198 11.0975 8.0104Z" fill="white" stroke="#BD6B00" stroke-width="0.423055"/>
<path id="Vector_70" fill-rule="evenodd" clip-rule="evenodd" d="M11.0625 7.99825C10.9971 8.028 10.881 7.97743 10.8483 7.86737C10.9673 7.91794 11.0447 7.86737 11.0625 7.99825ZM10.301 7.33789C10.3188 7.48365 10.3783 7.56694 10.4646 7.55206C10.4884 7.46282 10.417 7.40333 10.301 7.33789ZM10.533 7.70674C10.3873 7.72756 10.3367 7.6175 10.2356 7.47175C10.3754 7.57288 10.539 7.59073 10.533 7.70972V7.70674Z" fill="white" stroke="#BD6B00" stroke-width="0.423055"/>
<path id="Vector_71" fill-rule="evenodd" clip-rule="evenodd" d="M10.5776 7.69133C10.655 7.59614 10.5776 7.47418 10.5181 7.37305C10.53 7.52475 10.4795 7.61102 10.5776 7.69133ZM10.6074 7.84898C10.6193 7.7538 10.4586 7.73297 10.3873 7.68241C10.414 7.73595 10.4467 7.8817 10.6104 7.84898H10.6074Z" fill="white" stroke="#BD6B00" stroke-width="0.423055"/>
<path id="Vector_72" fill-rule="evenodd" clip-rule="evenodd" d="M10.6424 7.84926C10.7524 7.83737 10.7078 7.64996 10.6275 7.54883C10.6602 7.69161 10.568 7.78977 10.6424 7.84926Z" fill="white" stroke="#BD6B00" stroke-width="0.423055"/>
<path id="Vector_73" fill-rule="evenodd" clip-rule="evenodd" d="M10.7261 8.00756C10.8511 7.94806 10.7708 7.79338 10.7261 7.70117C10.744 7.82313 10.6429 7.91534 10.7261 8.00458V8.00756Z" fill="white" stroke="#BD6B00" stroke-width="0.423055"/>
<path id="Vector_74" fill-rule="evenodd" clip-rule="evenodd" d="M10.7025 7.98866C10.6371 8.0779 10.5092 7.96487 10.4824 7.83398C10.5925 7.9262 10.6758 7.91132 10.7025 7.99164V7.98866ZM10.9881 8.59251C11 8.4646 10.9048 8.23556 10.9732 8.11062C10.9821 8.09278 10.9524 8.04816 10.9316 8.07493C10.9018 8.11955 10.8721 8.24448 10.8572 8.19689C10.8453 8.14632 10.8423 8.06005 10.7977 8.04221C10.768 8.03328 10.7293 8.02436 10.7412 8.07195C10.7531 8.1136 10.7769 8.17309 10.7501 8.17606C10.7353 8.17606 10.6906 8.11657 10.652 8.08683C10.6222 8.06303 10.5746 8.10467 10.6222 8.14037C10.765 8.25935 10.9048 8.31587 10.9881 8.59251ZM11.2469 10.5111C11.2647 10.5111 11.2856 10.5022 11.2647 10.529C11.0952 10.7372 11.0476 10.7967 10.8007 10.7669C10.5538 10.7342 10.4943 10.6658 10.3188 10.5676C10.268 10.5409 10.2124 10.5245 10.1552 10.5194C10.098 10.5143 10.0404 10.5206 9.98566 10.5379C9.93806 10.5528 9.90832 10.5528 9.94401 10.5171C9.97971 10.4844 10.0184 10.4368 10.063 10.404C10.174 10.3298 10.3092 10.3011 10.4408 10.3237C10.6192 10.3535 10.771 10.4695 10.9524 10.5141C11.0496 10.5337 11.1497 10.5337 11.2469 10.5141V10.5111ZM9.82503 10.883C9.79528 10.8889 9.77446 10.9484 9.75661 10.9097C9.73281 10.8413 9.75066 10.7907 9.78041 10.7937C9.8161 10.8026 9.87262 10.883 9.82503 10.883Z" fill="white" stroke="#BD6B00" stroke-width="0.423055"/>
<path id="Vector_75" fill-rule="evenodd" clip-rule="evenodd" d="M11.3626 8.49479C11.3983 8.45314 11.3893 8.44125 11.3328 8.43827C11.2912 8.43827 11.2079 8.46802 11.1752 8.44125C11.1454 8.42042 11.1603 8.33119 11.1454 8.29252C11.1395 8.26574 11.1246 8.23302 11.0859 8.28657C10.9788 8.45909 10.848 8.66732 10.7885 8.86959C10.7587 8.98262 10.7885 9.1611 10.8896 9.28008C10.8896 9.17895 10.9253 9.11053 10.9699 9.02427C11.0294 8.91421 11.2406 8.60782 11.3626 8.49181V8.49479Z" fill="white"/>
<path id="Vector_76" fill-rule="evenodd" clip-rule="evenodd" d="M10.9191 9.39954C10.8001 9.39954 10.7793 9.24188 10.7793 9.19727C10.8387 9.20916 10.9399 9.30733 10.9191 9.39954ZM9.89282 10.9434C9.80953 10.9612 9.8125 10.7589 9.89877 10.6727C9.8601 10.8036 9.95826 10.9225 9.89579 10.9404L9.89282 10.9434ZM9.92851 10.9404C9.92256 11.0356 10.1665 10.9285 10.226 10.8511C10.0832 10.9136 9.93446 10.863 9.92851 10.9404ZM10.0326 10.8036C10.0237 10.8958 10.2408 10.8125 10.3093 10.7411C10.1635 10.7887 10.0415 10.7262 10.0326 10.8006V10.8036ZM9.99395 10.8155C9.90769 10.8363 9.92256 10.6251 10.0059 10.5537C9.96421 10.6935 10.0594 10.7946 9.99395 10.8155ZM10.0832 10.6875C9.99693 10.7084 10.0475 10.5269 10.11 10.4555C10.0981 10.5864 10.1397 10.6786 10.0802 10.6875H10.0832ZM10.1278 10.6875C10.1189 10.7827 10.2884 10.7113 10.3539 10.6191C10.2111 10.6637 10.1367 10.6102 10.1278 10.6875ZM10.1724 10.6132C10.1189 10.5745 10.1754 10.4704 10.2825 10.4763C10.2706 10.5388 10.2349 10.6518 10.1724 10.6132ZM9.75599 11.0504C9.75301 11.1456 9.99395 11.098 10.0713 10.9969C9.91661 11.0266 9.76491 10.9731 9.75896 11.0504H9.75599ZM10.7198 10.8779C10.7108 10.9731 10.9756 10.866 11.041 10.7768C10.9012 10.8244 10.7287 10.8006 10.7198 10.8779ZM10.5591 10.9166C10.5026 10.8779 10.6156 10.7768 10.7079 10.753C10.696 10.8155 10.6186 10.9553 10.5591 10.9196V10.9166ZM10.5413 10.985C10.5353 11.0713 10.8239 11.0237 10.8982 10.9434C10.6513 10.988 10.5502 10.9106 10.5413 10.985Z" fill="white" stroke="#BD6B00" stroke-width="0.423055"/>
<path id="Vector_77" fill-rule="evenodd" clip-rule="evenodd" d="M10.4049 11.0413C10.3752 11.1216 10.6518 11.1008 10.75 11.0562C10.5923 11.0562 10.4287 10.9848 10.4049 11.0413Z" fill="white" stroke="#BD6B00" stroke-width="0.423055"/>
<path id="Vector_78" fill-rule="evenodd" clip-rule="evenodd" d="M10.2769 11.1016C10.2472 11.173 10.503 11.173 10.6279 11.1313C10.4614 11.1313 10.3067 11.0302 10.2769 11.1016ZM10.0895 11.1402C10.0419 11.2265 10.3156 11.2325 10.4019 11.1908C10.2472 11.17 10.1282 11.0718 10.0895 11.1402ZM10.4078 10.9945C10.4941 11.048 10.4881 10.8874 10.5565 10.7773C10.4495 10.8755 10.3483 10.9439 10.4078 10.9945Z" fill="white" stroke="#BD6B00" stroke-width="0.423055"/>
<path id="Vector_79" fill-rule="evenodd" clip-rule="evenodd" d="M10.2536 11.0524C10.325 11.1148 10.3845 10.8947 10.4499 10.7698C10.3429 10.8888 10.1882 10.9988 10.2536 11.0494V11.0524ZM10.0514 11.1119C10.1108 11.1833 10.2893 10.9036 10.3548 10.7549C10.2566 10.8709 10.0038 11.0524 10.0514 11.1119ZM10.2239 11.326C10.2536 11.4331 10.7058 11.2249 10.7593 11.1148C10.4975 11.2517 10.2179 11.2219 10.2239 11.3231V11.326ZM11.6725 9.13078C11.6844 9.11591 11.7142 9.13078 11.7082 9.1635C11.6993 9.20812 11.6338 9.43716 11.5208 9.5145C11.4405 9.574 11.0151 9.66621 10.8247 9.70785C10.7177 9.72867 10.6314 9.78222 10.56 9.86551C10.5845 9.76679 10.6142 9.66948 10.6492 9.574C10.6849 9.48476 10.7801 9.38957 10.8813 9.3866C11.0627 9.37767 11.3007 9.3628 11.4762 9.28843C11.5557 9.25492 11.6246 9.20042 11.6755 9.13078H11.6725Z" fill="white" stroke="#BD6B00" stroke-width="0.423055"/>
<path id="Vector_80" fill-rule="evenodd" clip-rule="evenodd" d="M10.6224 10.039C10.563 10.0807 10.5005 9.92896 10.5719 9.7832C10.5749 9.92301 10.6849 9.9706 10.6224 10.039Z" fill="white" stroke="#BD6B00" stroke-width="0.423055"/>
<path id="Vector_81" fill-rule="evenodd" clip-rule="evenodd" d="M10.5657 10.1793C10.4854 10.2031 10.4616 10.0603 10.5121 9.94727C10.5032 10.0692 10.64 10.1436 10.5657 10.1793Z" fill="white" stroke="#BD6B00" stroke-width="0.423055"/>
<path id="Vector_82" fill-rule="evenodd" clip-rule="evenodd" d="M10.5035 10.2913C10.4261 10.3299 10.3994 10.1842 10.4529 10.0801C10.447 10.2139 10.563 10.2556 10.5035 10.2883V10.2913Z" fill="white" stroke="#BD6B00" stroke-width="0.423055"/>
<path id="Vector_83" fill-rule="evenodd" clip-rule="evenodd" d="M10.5355 10.3014C10.5652 10.3907 10.7437 10.2211 10.7734 10.1289C10.6634 10.239 10.5146 10.2241 10.5355 10.2985V10.3014Z" fill="white" stroke="#BD6B00" stroke-width="0.423055"/>
<path id="Vector_84" fill-rule="evenodd" clip-rule="evenodd" d="M10.6164 10.1611C10.6521 10.2504 10.8752 10.0124 10.9258 9.90234C10.8157 10.0124 10.5926 10.0957 10.6164 10.1582V10.1611Z" fill="white" stroke="#BD6B00" stroke-width="0.423055"/>
<path id="Vector_85" fill-rule="evenodd" clip-rule="evenodd" d="M10.6608 10.0212C10.6965 10.1253 10.9374 9.8487 11.0088 9.75054C10.8898 9.85762 10.634 9.94686 10.6608 10.0212ZM10.6697 9.92009C10.5804 9.90224 10.6727 9.83085 10.7797 9.71484C10.7827 9.8368 10.7649 9.92307 10.6697 9.92009Z" fill="white" stroke="#BD6B00" stroke-width="0.423055"/>
<path id="Vector_86" fill-rule="evenodd" clip-rule="evenodd" d="M10.8155 9.84826C10.7769 9.80959 10.8483 9.79175 10.9375 9.69061C10.9524 9.75903 10.8542 9.88396 10.8126 9.84826H10.8155ZM10.3991 10.3004C10.3515 10.3302 10.3218 10.232 10.3783 10.1457C10.3931 10.2409 10.4407 10.2647 10.3991 10.3004ZM11.4164 9.69656C11.5146 9.75605 11.6722 9.51808 11.7139 9.41992C11.6276 9.53296 11.3986 9.63409 11.4164 9.69656Z" fill="white" stroke="#BD6B00" stroke-width="0.423055"/>
<path id="Vector_87" fill-rule="evenodd" clip-rule="evenodd" d="M11.3296 9.83388C11.3861 9.89338 11.5587 9.72977 11.6182 9.64648C11.5289 9.7268 11.3058 9.73572 11.3296 9.83388Z" fill="white" stroke="#BD6B00" stroke-width="0.423055"/>
<path id="Vector_88" fill-rule="evenodd" clip-rule="evenodd" d="M11.2382 9.95897C11.2561 10.0423 11.5059 9.85486 11.5654 9.76562C11.4583 9.86974 11.2204 9.86081 11.2382 9.95897Z" fill="white" stroke="#BD6B00" stroke-width="0.423055"/>
<path id="Vector_89" fill-rule="evenodd" clip-rule="evenodd" d="M11.2768 10.0507C11.3155 10.125 11.5207 9.93763 11.5713 9.84244C11.4434 9.94952 11.2441 9.9763 11.2738 10.0507H11.2768ZM11.3809 9.68478C11.3184 9.61637 11.3452 9.58365 11.3928 9.47656C11.4166 9.58662 11.4553 9.63124 11.3809 9.68478ZM11.2947 9.81269C11.1757 9.81864 11.2947 9.67586 11.3244 9.5539C11.3125 9.69073 11.3541 9.80079 11.2947 9.81269Z" fill="white" stroke="#BD6B00" stroke-width="0.423055"/>
<path id="Vector_90" fill-rule="evenodd" clip-rule="evenodd" d="M11.2197 9.92601C11.1394 9.90816 11.1602 9.79215 11.2256 9.65234C11.2107 9.80405 11.294 9.89031 11.2197 9.92601ZM11.2494 10.1551C11.2792 10.2443 11.5112 10.0361 11.5469 9.95278C11.4279 10.0539 11.2286 10.0866 11.2494 10.1551Z" fill="white" stroke="#BD6B00" stroke-width="0.423055"/>
<path id="Vector_91" fill-rule="evenodd" clip-rule="evenodd" d="M11.1099 10.2979C11.1427 10.3871 11.3866 10.2027 11.4609 10.1016C11.3152 10.2205 11.0921 10.2086 11.1099 10.2979Z" fill="white" stroke="#BD6B00" stroke-width="0.423055"/>
<path id="Vector_92" fill-rule="evenodd" clip-rule="evenodd" d="M10.9671 10.444C11.0058 10.572 11.2616 10.3667 11.3359 10.2656C11.1753 10.3905 10.9492 10.3548 10.9671 10.444ZM11.2051 10.1168C11.1366 10.1496 11.1099 9.95621 11.1485 9.81641C11.1485 9.96514 11.2883 10.0782 11.208 10.1139L11.2051 10.1168Z" fill="white" stroke="#BD6B00" stroke-width="0.423055"/>
<path id="Vector_93" fill-rule="evenodd" clip-rule="evenodd" d="M11.0894 10.2709C11.0061 10.2947 11.0299 10.0835 11.1043 9.94368C11.1132 10.0835 11.1727 10.2114 11.0894 10.2709ZM10.9407 10.4166C10.8514 10.4196 10.9109 10.2352 10.9883 10.1311C10.9764 10.2649 11.018 10.3988 10.9407 10.4166ZM11.1043 10.494C11.134 10.5416 11.1995 10.4553 11.3125 10.3899C11.2114 10.4196 11.0924 10.4494 11.1043 10.494ZM11.1578 8.92637C11.0686 8.86093 11.137 8.74194 11.1578 8.62891C11.1876 8.73599 11.259 8.87877 11.1578 8.92637ZM11.1578 9.08402C11.2917 9.06915 11.2709 8.90257 11.2768 8.79548C11.2352 8.94124 11.1281 8.96504 11.1578 9.087V9.08402ZM11.14 9.0632C11.0299 9.05725 11.0359 8.93232 11.0299 8.80738C11.0864 8.92339 11.1489 8.94124 11.14 9.0632Z" fill="white" stroke="#BD6B00" stroke-width="0.423055"/>
<path id="Vector_94" fill-rule="evenodd" clip-rule="evenodd" d="M11.1423 9.21715C11.2315 9.22607 11.2732 9.13981 11.291 9.00892C11.2107 9.13088 11.1393 9.09221 11.1423 9.21715ZM11.1125 9.20822C11.0025 9.2231 11.0233 9.09519 11.0233 9C11.059 9.08924 11.1482 9.11898 11.1125 9.20822Z" fill="white" stroke="#BD6B00" stroke-width="0.423055"/>
<path id="Vector_95" fill-rule="evenodd" clip-rule="evenodd" d="M11.2852 9.15625C11.2762 9.23954 11.2227 9.38232 11.1364 9.3496C11.1037 9.24846 11.2138 9.22764 11.2852 9.15625Z" fill="white" stroke="#BD6B00" stroke-width="0.423055"/>
<path id="Vector_96" fill-rule="evenodd" clip-rule="evenodd" d="M11.1133 9.35754C11.149 9.28615 11.024 9.24748 11.0002 9.15229C10.9854 9.28913 10.9973 9.37836 11.1133 9.36052V9.35754ZM11.4673 8.48896C11.3988 8.41757 11.4583 8.29858 11.4792 8.18555C11.5089 8.29263 11.5535 8.43541 11.4673 8.48896ZM11.4673 8.62579C11.5862 8.64066 11.616 8.39674 11.6309 8.28966C11.5892 8.43541 11.4524 8.49788 11.4673 8.62876V8.62579ZM11.4435 8.62579C11.3602 8.58117 11.378 8.48598 11.3542 8.41757C11.4078 8.50383 11.4613 8.51573 11.4435 8.62579Z" fill="white" stroke="#BD6B00" stroke-width="0.423055"/>
<path id="Vector_97" fill-rule="evenodd" clip-rule="evenodd" d="M11.4696 8.78682C11.5916 8.79574 11.6659 8.52505 11.6719 8.41797C11.6332 8.56372 11.4518 8.64106 11.4666 8.78682H11.4696ZM11.4428 8.78087C11.3238 8.7541 11.3387 8.67676 11.3566 8.5548C11.3952 8.67973 11.4607 8.65296 11.4428 8.78087Z" fill="white" stroke="#BD6B00" stroke-width="0.423055"/>
<path id="Vector_98" fill-rule="evenodd" clip-rule="evenodd" d="M11.47 8.94187C11.6069 8.96567 11.5979 8.74554 11.708 8.58789C11.6128 8.70687 11.4403 8.8556 11.47 8.94187ZM11.4403 8.93294C11.3332 8.93889 11.3213 8.78124 11.3273 8.7158C11.354 8.78124 11.476 8.84073 11.4373 8.93592L11.4403 8.93294Z" fill="white" stroke="#BD6B00" stroke-width="0.423055"/>
<path id="Vector_99" fill-rule="evenodd" clip-rule="evenodd" d="M11.6836 8.77148C11.633 8.94104 11.5587 9.11059 11.4694 9.09869C11.4248 9.00053 11.5557 8.98863 11.6836 8.77148Z" fill="white" stroke="#BD6B00" stroke-width="0.423055"/>
<path id="Vector_100" fill-rule="evenodd" clip-rule="evenodd" d="M11.4372 9.07244C11.4729 8.99807 11.348 8.96237 11.3242 8.86719C11.3093 9.00402 11.3212 9.09326 11.4372 9.07244ZM11.6484 8.96535C11.5741 9.11705 11.5414 9.29256 11.4402 9.26578C11.4015 9.1468 11.5533 9.123 11.6484 8.96535Z" fill="white" stroke="#BD6B00" stroke-width="0.423055"/>
<path id="Vector_101" fill-rule="evenodd" clip-rule="evenodd" d="M11.4192 9.23841C11.4638 9.15513 11.3389 9.12835 11.3062 9.01829C11.2913 9.16107 11.3062 9.26519 11.4192 9.23544V9.23841ZM11.205 8.21218C11.1336 8.23002 11.0563 8.14971 11.0831 8.02775C11.1664 8.0456 11.2021 8.12294 11.205 8.21218ZM11.44 8.14971C11.4341 8.1854 11.3895 8.18838 11.4043 8.13781C11.4154 8.10501 11.4154 8.06947 11.4043 8.03667C11.39 7.99219 11.39 7.94433 11.4043 7.89984C11.4162 7.8701 11.4579 7.88794 11.44 7.91174C11.4222 7.93851 11.4192 7.99503 11.4341 8.0218C11.4519 8.06047 11.446 8.11104 11.44 8.14971ZM10.7588 8.62565C10.7886 8.66432 10.8451 8.63754 10.8005 8.58103C10.7648 8.53641 10.7113 8.49774 10.7113 8.45014C10.7053 8.39065 10.6726 8.30141 10.6399 8.26869C10.6071 8.23597 10.5685 8.28059 10.6042 8.30439C10.6428 8.32819 10.6696 8.43527 10.6666 8.47692C10.6696 8.53641 10.7261 8.58103 10.7588 8.62565ZM10.8481 8.55723C10.8778 8.59887 10.9195 8.5721 10.8957 8.50666C10.8749 8.46204 10.8719 8.40255 10.8481 8.36983C10.8124 8.31926 10.7588 8.27762 10.7261 8.2449C10.6904 8.21515 10.6666 8.2449 10.6964 8.27464C10.7328 8.31106 10.7657 8.35091 10.7945 8.39363C10.8362 8.45907 10.8183 8.51261 10.8481 8.55723ZM11.3151 8.34306C11.3181 8.40255 11.2705 8.41445 11.2735 8.33116C11.2735 8.24192 11.3389 8.15863 11.3032 8.02478C11.2794 7.95933 11.2794 7.83738 11.2913 7.77491C11.3032 7.70947 11.3508 7.75111 11.33 7.80168C11.3121 7.86117 11.3329 7.96826 11.3478 8.02478C11.3924 8.1854 11.3121 8.26274 11.3181 8.34306H11.3151ZM11.1872 8.01585C11.1931 8.07237 11.2407 8.07534 11.2259 8.00098C11.214 7.94149 11.214 7.89389 11.2259 7.84332C11.2437 7.78086 11.2378 7.67377 11.2259 7.62915C11.211 7.58156 11.1664 7.60833 11.1842 7.64403C11.205 7.70025 11.2081 7.76148 11.1931 7.81953C11.1753 7.87902 11.1783 7.96231 11.1872 8.01883V8.01585ZM11.6512 9.11943C11.6274 9.1462 11.5917 9.12835 11.6215 9.08968C11.6512 9.05994 11.6423 9.05399 11.6602 9.01829C11.678 8.97665 11.675 8.95583 11.6959 8.92906C11.7167 8.89931 11.7434 8.92906 11.7256 8.94988C11.7018 8.97962 11.7077 8.99747 11.6959 9.02424C11.6661 9.06886 11.675 9.09266 11.6512 9.11943ZM11.0444 9.85118C11.0081 9.87128 10.9771 9.89993 10.9543 9.93465C10.9315 9.96938 10.9175 10.0091 10.9135 10.0505C10.9104 10.1246 10.89 10.1969 10.854 10.2617C10.9135 10.2468 10.9433 10.1516 10.9522 10.0594C10.9611 9.96422 11.0117 9.92555 11.0414 9.85118H11.0444ZM10.8927 10.0267C10.8421 10.1189 10.7737 10.1546 10.7678 10.223C10.7618 10.3033 10.7559 10.3063 10.7351 10.3836C10.7945 10.3688 10.8094 10.3628 10.8243 10.2438C10.8332 10.1605 10.9016 10.104 10.8927 10.0267Z" fill="white" stroke="#BD6B00" stroke-width="0.423055"/>
<path id="Vector_102" fill-rule="evenodd" clip-rule="evenodd" d="M9.3281 10.8834C9.29835 10.9369 9.26861 11.0172 9.20912 11.0023C9.20912 10.9637 9.27158 10.9339 9.3281 10.8834ZM9.23886 10.9012C9.1288 10.9488 9.03064 10.9369 9.01577 11.0083C9.12285 11.0202 9.1645 10.9786 9.24184 10.9012H9.23886ZM9.71777 10.5234C9.64386 10.5809 9.59146 10.6616 9.56904 10.7525C9.54506 10.8347 9.50897 10.9129 9.46196 10.9845C9.53932 10.9325 9.5953 10.8544 9.61961 10.7644C9.64043 10.6751 9.66721 10.6067 9.71777 10.5264V10.5234ZM9.62556 10.5234C9.54227 10.5889 9.46493 10.6662 9.44113 10.7584C9.41734 10.8447 9.40247 10.9101 9.34595 10.9964C9.43519 10.9399 9.46791 10.8566 9.49468 10.7644C9.5155 10.6751 9.56904 10.6097 9.62556 10.5264V10.5234ZM9.3519 10.7406C9.35306 10.7331 9.35163 10.7255 9.34783 10.719C9.34404 10.7125 9.33812 10.7075 9.33107 10.7049C9.30563 10.6959 9.27983 10.688 9.25373 10.6811C9.22399 10.6722 9.20614 10.693 9.20614 10.7079V10.7674C9.20614 10.7882 9.21209 10.7912 9.22696 10.7941C9.24779 10.7971 9.27753 10.8001 9.29835 10.8149C9.3162 10.8268 9.33405 10.8179 9.34297 10.8001L9.3519 10.7406ZM9.03659 10.7406C9.03659 10.7227 9.04254 10.7079 9.05444 10.7049C9.07702 10.6955 9.10144 10.6915 9.12583 10.693C9.15557 10.693 9.15855 10.6989 9.15855 10.7108V10.7733C9.15855 10.7971 9.15855 10.7971 9.14665 10.8031C9.12583 10.8031 9.09311 10.8031 9.07228 10.8209C9.05741 10.8298 9.04254 10.8209 9.03956 10.8031L9.03659 10.7406Z" fill="white"/>
</g>
<g id="Group_3">
<path id="Vector_103" fill-rule="evenodd" clip-rule="evenodd" d="M9.84919 11.5755C9.84919 11.6111 9.85514 11.6409 9.87893 11.6677C9.74286 11.6266 9.59629 11.6382 9.46844 11.7004C9.4149 11.7242 9.34945 11.6706 9.41192 11.6201C9.50116 11.5517 9.70046 11.5903 9.84919 11.5755ZM8.13879 11.5755C8.14138 11.6057 8.13732 11.6362 8.12689 11.6647C8.25777 11.6141 8.39758 11.6587 8.53144 11.7123C8.62068 11.751 8.6296 11.6825 8.61473 11.6617C8.59827 11.6368 8.57628 11.6161 8.55048 11.6011C8.52468 11.5862 8.49576 11.5774 8.466 11.5755H8.13879ZM8.25182 10.93C8.21315 10.9151 8.17151 10.93 8.13284 10.9716C8.00493 11.0965 7.85323 11.2185 7.73127 11.3167C7.68665 11.3553 7.64203 11.4267 7.8324 11.4951C7.84133 11.5011 7.98114 11.5546 8.07037 11.5546C8.10904 11.5546 8.10904 11.6082 8.10012 11.623C8.08525 11.6528 8.09714 11.6647 8.0674 11.6915C8.03468 11.7212 8.0674 11.7539 8.09714 11.7301C8.20423 11.6349 8.38271 11.6974 8.55226 11.751C8.5939 11.7629 8.66529 11.7599 8.66529 11.7034C8.66529 11.6439 8.70991 11.6022 8.73668 11.5992C8.80808 11.6111 9.15313 11.6141 9.25724 11.6022C9.31673 11.5933 9.32268 11.6885 9.3554 11.7212C9.3792 11.748 9.46546 11.7539 9.52793 11.7272C9.64691 11.6736 9.82539 11.6736 9.89976 11.7272C9.9295 11.748 9.95627 11.7272 9.93843 11.7063C9.91463 11.6766 9.9176 11.6587 9.9057 11.6349C9.87596 11.5755 9.89976 11.5636 9.9295 11.5606C10.2567 11.516 10.3638 11.4059 10.2627 11.3137C10.1318 11.2006 9.98899 11.0846 9.86406 10.9508C9.82836 10.9151 9.80457 10.9002 9.73615 10.93C9.49927 11.0374 9.24353 11.097 8.98358 11.1055C8.73174 11.0892 8.4844 11.0309 8.25182 10.9329V10.93Z" fill="white"/>
<path id="Vector_104" fill-rule="evenodd" clip-rule="evenodd" d="M9.79223 10.9492L9.74464 10.9611C9.47692 11.0563 9.23301 11.1217 8.98016 11.1217C8.73327 11.1217 8.47448 11.0504 8.23949 10.9552C8.22503 10.9502 8.20932 10.9502 8.19487 10.9552C8.18 10.9581 8.16512 10.9671 8.1562 10.976C8.04627 11.0859 7.92899 11.1883 7.8052 11.2824C7.78437 11.2972 7.78735 11.3359 7.82007 11.3478C8.06696 11.4371 8.3079 11.6007 8.99801 11.5947C9.69704 11.5888 9.94394 11.4281 10.1641 11.3538C10.1789 11.3478 10.1938 11.3389 10.2027 11.324C10.2048 11.3205 10.2062 11.3165 10.2067 11.3124C10.2072 11.3083 10.2069 11.3042 10.2057 11.3002C10.2019 11.2909 10.1957 11.2827 10.1879 11.2764C10.0599 11.1723 9.92609 11.089 9.83685 10.9671C9.82793 10.9522 9.81008 10.9492 9.79223 10.9522V10.9492ZM9.79223 10.9641C9.80711 10.9641 9.82198 10.9641 9.82495 10.973C9.91419 11.1009 10.054 11.1812 10.1789 11.2853L10.1908 11.3062C10.1916 11.308 10.1921 11.3101 10.1921 11.3121C10.1921 11.3142 10.1916 11.3162 10.1908 11.3181C10.1879 11.327 10.173 11.3359 10.1611 11.3389C9.93501 11.4162 9.69407 11.5769 9.00099 11.5828C8.31088 11.5888 8.07291 11.4252 7.82602 11.3359C7.80222 11.324 7.8052 11.3002 7.81412 11.2943C7.93905 11.1991 8.05804 11.092 8.16512 10.9849C8.17434 10.9763 8.1856 10.9701 8.19784 10.9671H8.23354C8.46863 11.0692 8.72099 11.1257 8.97719 11.1336C9.23598 11.1336 9.48287 11.0682 9.75059 10.976C9.76495 10.9703 9.77992 10.9663 9.79521 10.9641H9.79223Z" fill="#BD6B00"/>
<path id="Vector_105" fill-rule="evenodd" clip-rule="evenodd" d="M8.0997 6.45998C8.0997 6.41834 8.1592 6.41537 8.15325 6.47188C8.14432 6.5403 8.2871 6.71877 8.299 6.82884C8.30793 6.9032 8.25438 6.96567 8.20382 7.00731C8.17465 7.02797 8.14039 7.04027 8.10475 7.04289C8.0691 7.04551 8.03342 7.03835 8.00154 7.02218C7.97477 6.99839 7.95097 6.92402 7.9718 6.89428C7.97775 6.88535 8.01047 7.00434 8.08186 7.00434C8.18002 7.00434 8.26033 6.92997 8.26033 6.86453C8.26628 6.7515 8.10268 6.57302 8.0997 6.45998ZM8.38229 6.7396C8.40014 6.7277 8.42394 6.77827 8.40609 6.79017C8.39122 6.79909 8.36147 6.7515 8.38229 6.73662V6.7396ZM8.42691 6.63549C8.41799 6.64144 8.40311 6.63549 8.40609 6.62954C8.43468 6.58982 8.47113 6.55641 8.51317 6.53137C8.52507 6.52543 8.54292 6.54327 8.53697 6.5522C8.50662 6.58747 8.4691 6.61586 8.42691 6.63549ZM8.80171 6.33803C8.81063 6.32018 8.86418 6.29936 8.87905 6.28746C8.89095 6.27258 8.8969 6.29936 8.89095 6.30828C8.88203 6.3291 8.83443 6.35885 8.81361 6.36182C8.80469 6.36182 8.79576 6.34992 8.80171 6.341V6.33803ZM8.92962 6.34695C8.94528 6.30739 8.9709 6.27255 9.00398 6.24581C9.01886 6.23689 9.04265 6.24581 9.03671 6.25771C9.0165 6.29706 8.98686 6.33078 8.95044 6.35587C8.94152 6.3648 8.92664 6.35587 8.92962 6.34695ZM8.81956 6.42726C8.81063 6.43321 8.81658 6.44809 8.82253 6.45106C8.84038 6.45701 8.86715 6.45701 8.88203 6.45106C8.89987 6.43916 8.89095 6.3648 8.86715 6.40347C8.8493 6.42726 8.83741 6.42131 8.81956 6.42726ZM8.60241 6.59384C8.56374 6.5641 8.61431 6.52245 8.65298 6.5522C8.73329 6.61169 8.534 6.84371 8.42691 6.95079C8.40609 6.97162 8.38824 6.92105 8.41501 6.89428C8.49246 6.82939 8.55965 6.75318 8.61431 6.66821C8.62621 6.65333 8.63513 6.62061 8.60241 6.59384ZM9.05753 6.39752C9.0605 6.36777 9.00993 6.39752 9.00993 6.35885C9.00993 6.33803 9.06645 6.32315 9.09025 6.34695C9.12892 6.38859 9.09917 6.45701 9.03076 6.46296C8.97721 6.46296 8.88203 6.54327 8.8969 6.55815C8.91177 6.57897 9.05753 6.59087 9.14379 6.57897C9.19733 6.57004 9.18543 6.61764 9.13189 6.62359C9.07835 6.62954 9.03671 6.62359 8.98911 6.64144C8.92962 6.65631 8.90582 6.73067 8.8731 6.76042C8.86715 6.76637 8.8493 6.73662 8.85525 6.72472C8.87905 6.68903 8.91475 6.63549 8.95639 6.61764C8.98019 6.60871 8.885 6.60574 8.85525 6.59682C8.83146 6.59087 8.83741 6.55815 8.84633 6.5403C8.85823 6.5165 8.94747 6.42429 8.98614 6.42726C9.01886 6.42726 9.05455 6.41834 9.05753 6.39752ZM9.20626 6.40347C9.2241 6.38859 9.236 6.3648 9.25088 6.34992C9.2598 6.341 9.27765 6.34992 9.27467 6.37372C9.2717 6.39454 9.24493 6.40942 9.23005 6.42429C9.21518 6.43321 9.20031 6.41239 9.20923 6.40347H9.20626ZM9.39961 6.33505C9.42638 6.33505 9.42935 6.38264 9.40556 6.38859C9.38771 6.39454 9.37581 6.33803 9.39961 6.33505ZM9.33714 6.48378C9.33714 6.5284 9.35796 6.52543 9.39663 6.52245C9.4353 6.52245 9.46802 6.52245 9.46802 6.48676C9.46802 6.44809 9.4472 6.41239 9.43828 6.43916C9.4353 6.46296 9.42935 6.5046 9.41448 6.48676C9.40258 6.47188 9.40853 6.46891 9.38473 6.4927C9.36986 6.50758 9.36986 6.48676 9.36094 6.47486C9.35499 6.46593 9.33714 6.48081 9.33714 6.48676V6.48378ZM9.06348 6.69795C9.05455 6.75447 9.06348 6.83181 9.09025 6.83181C9.12594 6.83181 9.19733 6.71283 9.23303 6.64738C9.25385 6.61169 9.28657 6.60574 9.2717 6.64441C9.25088 6.70093 9.25385 6.82289 9.2717 6.85858C9.2836 6.87643 9.36094 6.84073 9.37284 6.81396C9.39663 6.76339 9.37581 6.67118 9.38473 6.61466C9.38771 6.57897 9.4234 6.57004 9.42043 6.60574C9.41575 6.68001 9.41475 6.75447 9.41745 6.82884C9.41745 6.85858 9.50372 6.90023 9.51562 6.81099C9.52157 6.75744 9.55131 6.70093 9.51562 6.64144C9.49182 6.60277 9.54834 6.60574 9.57808 6.65928C9.59891 6.69498 9.56024 6.75447 9.56321 6.79909C9.56321 6.87048 9.50967 6.91212 9.471 6.91212C9.4353 6.91212 9.4115 6.86751 9.38176 6.86751C9.35201 6.86751 9.31632 6.91807 9.29252 6.9151C9.18543 6.90915 9.24195 6.75744 9.20923 6.75447C9.17354 6.75447 9.13487 6.9032 9.09025 6.90023C9.0486 6.89428 9.00101 6.77529 9.02183 6.7277C9.03671 6.68011 9.06645 6.66821 9.06348 6.69795ZM9.56618 6.45998C9.51562 6.43024 9.56618 6.34992 9.59296 6.3767C9.64055 6.43619 9.68814 6.57004 9.72384 6.58194C9.74466 6.58789 9.74169 6.48081 9.75656 6.43321C9.76846 6.39454 9.8101 6.40644 9.80415 6.45404C9.80118 6.46891 9.74466 6.64441 9.75061 6.65036C9.79023 6.72459 9.82309 6.80225 9.84877 6.88238C9.8577 6.91807 9.81605 6.89428 9.8101 6.88833C9.78333 6.84668 9.73871 6.69498 9.73871 6.7039L9.68814 6.93295C9.68219 6.96269 9.63757 6.95674 9.64947 6.9032C9.6584 6.86156 9.71789 6.65631 9.71491 6.64738C9.68085 6.57404 9.62988 6.50982 9.56618 6.45998Z" fill="white"/>
<path id="Vector_106" fill-rule="evenodd" clip-rule="evenodd" d="M9.65515 6.95395C9.64325 6.95395 9.61946 6.98369 9.69085 6.99857C9.78306 7.01641 9.88717 6.98369 9.91692 6.89148C9.95559 6.78142 9.97641 6.67731 9.99723 6.63864C10.021 6.59402 10.0508 6.597 10.027 6.53155C10.0121 6.48099 9.98236 6.49586 9.97641 6.52263C9.96154 6.59105 9.89907 6.82009 9.87825 6.85876C9.84255 6.9361 9.76819 6.96585 9.65515 6.95395Z" fill="white"/>
<path id="Vector_107" fill-rule="evenodd" clip-rule="evenodd" d="M9.84611 6.59044C9.83422 6.56962 9.81042 6.59044 9.81637 6.61126C9.81779 6.61966 9.82217 6.62728 9.82871 6.63274C9.83526 6.63819 9.84354 6.64113 9.85206 6.64101C9.87289 6.64101 9.91751 6.64398 9.91751 6.61126C9.91751 6.58746 9.89668 6.56664 9.88479 6.59341C9.86991 6.61721 9.85504 6.61424 9.84611 6.59341V6.59044ZM9.86694 6.5012C9.86099 6.50715 9.86694 6.53392 9.87586 6.53095C9.91004 6.53119 9.94375 6.52302 9.97402 6.50715C9.97997 6.5012 9.977 6.48633 9.96807 6.48633C9.93833 6.48633 9.89073 6.48633 9.86694 6.5012ZM10.1287 6.56962C10.1525 6.53392 10.212 6.53095 10.1882 6.58152C10.1271 6.70417 10.0646 6.82614 10.0008 6.94739C9.977 6.98904 9.95915 6.96821 9.977 6.93549C9.99782 6.89385 10.1228 6.57854 10.1287 6.56962Z" fill="white"/>
<path id="Vector_108" fill-rule="evenodd" clip-rule="evenodd" d="M9.89964 7.00738C9.89369 6.98359 9.85502 6.94789 9.86097 7.01333C9.86692 7.12637 10.0246 7.09067 10.0692 7.052C10.1138 7.01333 10.0781 7.17991 10.1346 7.19776C10.1644 7.20668 10.2239 7.16504 10.2536 7.12637C10.3339 7.02226 10.3875 6.87055 10.4618 6.76942C10.4916 6.72777 10.447 6.69802 10.4321 6.73075C10.3607 6.84378 10.2774 7.0758 10.1852 7.13529C10.1108 7.18289 10.1346 7.0758 10.1317 7.0401C10.1287 7.01631 10.0989 6.98061 10.0603 7.01333C10.0292 7.03824 9.99002 7.05093 9.95021 7.04903C9.92939 7.04903 9.90857 7.04903 9.89964 7.00738Z" fill="white"/>
<path id="Vector_109" fill-rule="evenodd" clip-rule="evenodd" d="M10.1789 6.79933C10.1789 6.79041 10.1462 6.78743 10.1492 6.82015C10.1492 6.84395 10.1789 6.8499 10.1819 6.8499C10.2265 6.8142 10.173 6.83205 10.1789 6.79636V6.79933ZM10.1105 6.93021C10.1016 6.93021 10.0927 6.95996 10.1164 6.96293L10.2325 6.95699C10.2444 6.95699 10.2503 6.93021 10.2206 6.93319C10.1849 6.93319 10.1402 6.92426 10.1105 6.93319V6.93021ZM8.26624 6.43643C8.28112 6.43643 8.31384 6.47807 8.31086 6.49295C8.31086 6.4989 8.27517 6.49295 8.26624 6.48402C8.25732 6.4751 8.26029 6.43643 8.26624 6.43643ZM8.10859 6.74579C8.07884 6.76364 8.11454 6.79636 8.13834 6.78148C8.22162 6.72497 8.34656 6.66845 8.3763 6.55839C8.38523 6.52269 8.41795 6.46618 8.45067 6.45428C8.48041 6.4394 8.52801 6.51079 8.55775 6.45428C8.5756 6.42453 8.63807 6.4751 8.65294 6.44238C8.67079 6.40371 8.66187 6.38289 8.66187 6.34124C8.66187 6.31745 8.64104 6.3115 8.62617 6.35017C8.62022 6.36801 8.62617 6.38586 8.6232 6.39776C8.61725 6.40371 8.60535 6.40966 8.59345 6.40371C8.5875 6.39776 8.59345 6.38289 8.5756 6.37396C8.56965 6.37396 8.55775 6.37099 8.55181 6.37991C8.53098 6.41858 8.52206 6.45428 8.48934 6.40966C8.46257 6.37991 8.44769 6.31745 8.42985 6.40073C8.4239 6.43048 8.37928 6.47212 8.35251 6.47212C8.31979 6.47212 8.32871 6.38289 8.25732 6.39776C8.21865 6.40668 8.22162 6.47807 8.22757 6.50187C8.2365 6.54054 8.34656 6.51377 8.33763 6.53757C8.31979 6.61788 8.20675 6.69819 8.10859 6.74579ZM7.43335 7.13844C7.43038 7.15331 7.44823 7.189 7.46607 7.19198C7.48392 7.19198 7.49582 7.15331 7.48987 7.13844C7.48392 7.12951 7.43633 7.12951 7.43335 7.13844ZM7.53152 7.28419C7.51962 7.27229 7.48392 7.30501 7.51367 7.32881C7.52854 7.34368 7.58803 7.36153 7.60291 7.33476C7.6267 7.29907 7.58208 7.17116 7.60291 7.15628C7.61778 7.14141 7.6862 7.23957 7.72189 7.24552C7.8022 7.25742 7.78138 7.10869 7.87062 7.12059C7.92714 7.12654 7.93309 7.05515 7.92416 7.00755C7.91821 6.96293 7.84682 6.90047 7.8141 6.87072C7.77246 6.83503 7.75164 6.90047 7.77841 6.91832C7.8141 6.94806 7.87657 7.00458 7.88549 7.04027C7.88847 7.05812 7.84385 7.09382 7.826 7.08489C7.78436 7.0611 7.74866 6.96591 7.71297 6.94509C7.70107 6.93914 7.67132 6.95401 7.68322 6.98376C7.70107 7.01648 7.77246 7.06407 7.77543 7.09977C7.77841 7.12951 7.74569 7.19495 7.72189 7.19495C7.69512 7.19495 7.63265 7.11464 7.61183 7.07597C7.59993 7.0611 7.56721 7.0611 7.56126 7.08787C7.55933 7.14281 7.56432 7.19778 7.57613 7.25147C7.58208 7.29906 7.54936 7.30204 7.53152 7.28419ZM7.41253 7.02838C7.40063 7.04027 7.43633 7.06407 7.44228 7.05812C7.45418 7.04622 7.50474 6.98971 7.49582 6.96888C7.4869 6.95104 7.41848 6.90939 7.40658 6.93021C7.38576 6.96293 7.47202 6.98078 7.45715 6.98971C7.44052 7.00041 7.42549 7.01343 7.41253 7.02838ZM7.53449 6.77851C7.53449 6.77851 7.55829 6.85287 7.57613 6.82015C7.58803 6.79933 7.53449 6.77851 7.53449 6.77851ZM7.57019 6.89749C7.56424 6.89749 7.54044 6.91832 7.55531 6.92724C7.57911 6.93914 7.64158 6.95104 7.6267 6.90642C7.61778 6.87965 7.72189 6.90642 7.69512 6.83503C7.68436 6.81301 7.66657 6.79522 7.64455 6.78446C7.63265 6.78446 7.59993 6.79933 7.62075 6.81123C7.63563 6.81718 7.68025 6.84395 7.66537 6.8618C7.64455 6.87965 7.63265 6.85287 7.60886 6.85882C7.59696 6.85882 7.60588 6.89452 7.59696 6.90344C7.59696 6.90939 7.57613 6.89154 7.57019 6.89452V6.89749ZM7.73379 6.61491C7.71544 6.63007 7.70284 6.65107 7.69809 6.6744C7.69809 6.68035 7.70702 6.69225 7.71297 6.68927C7.73131 6.67537 7.74399 6.65529 7.74866 6.63275C7.74866 6.62383 7.74271 6.60896 7.73379 6.61491ZM7.81708 6.60598C7.79328 6.57624 7.84682 6.52864 7.86765 6.59111C7.88252 6.62978 8.03125 6.8261 8.061 6.89154C8.08479 6.93616 8.061 6.95401 8.03422 6.92129C7.95986 6.8261 7.89739 6.70712 7.81708 6.60598ZM7.97176 6.60896C7.99853 6.57921 8.05207 6.51972 8.0372 6.48997C8.0253 6.46023 7.99258 6.46023 7.98663 6.46915C7.95688 6.50782 8.01043 6.4989 8.0015 6.51079C7.98663 6.54054 7.97176 6.55839 7.96283 6.58813C7.95986 6.59706 7.96581 6.61491 7.97176 6.60896ZM10.286 6.70414C10.2652 6.68927 10.3038 6.61491 10.3306 6.64465C10.399 6.72497 10.4318 6.98971 10.4526 7.189C10.4526 7.189 10.4228 7.21578 10.4228 7.20983C10.4228 7.10572 10.3782 6.78148 10.286 6.70414ZM8.70648 6.44833C8.68269 6.39478 8.73921 6.37694 8.74813 6.41263C8.7868 6.58516 8.88199 6.71604 8.95635 6.83205C8.97717 6.86775 8.95635 6.89154 8.90578 6.85585C8.87009 6.83205 8.83142 6.73984 8.81654 6.73686C8.78085 6.73092 8.70351 6.88559 8.54586 6.84098C8.50421 6.82908 8.50719 6.70712 8.50421 6.65358C8.50421 6.6268 8.53396 6.62383 8.53396 6.65358C8.53396 6.70414 8.53396 6.80826 8.59642 6.8142C8.64997 6.8142 8.763 6.74281 8.7868 6.68332C8.8106 6.62383 8.73028 6.50782 8.70648 6.44535V6.44833Z" fill="white"/>
<path id="Vector_110" fill-rule="evenodd" clip-rule="evenodd" d="M10.328 7.16734C10.3399 7.13164 10.5094 6.84608 10.5332 6.78362C10.5451 6.75387 10.5927 6.83716 10.5451 6.88178C10.5035 6.91747 10.3815 7.11975 10.3577 7.19114C10.3458 7.22088 10.3161 7.20601 10.328 7.16734Z" fill="white"/>
<path id="Vector_111" fill-rule="evenodd" clip-rule="evenodd" d="M10.6167 6.89658C10.6464 6.7776 10.7237 6.91443 10.6553 6.97987C10.5542 7.08101 10.5215 7.27435 10.3579 7.3041C10.3162 7.31302 10.2389 7.28328 10.2151 7.26543C10.2062 7.25948 10.221 7.21784 10.2478 7.23866C10.2865 7.26841 10.3698 7.27733 10.4144 7.24163C10.5116 7.14687 10.5815 7.02768 10.6167 6.89658ZM8.92113 7.27435C8.9122 7.28328 8.89138 7.28328 8.88841 7.29518C8.87949 7.33682 8.88841 7.36062 8.87948 7.40226C8.87056 7.44391 8.84082 7.44391 8.84379 7.41119C8.84379 7.36954 8.88246 7.30708 8.85569 7.3041C8.83784 7.30113 8.82594 7.27733 8.84379 7.26543C8.87651 7.24461 8.89436 7.24758 8.91518 7.25353C8.9241 7.25651 8.92708 7.26841 8.92113 7.27435Z" fill="white"/>
<path id="Vector_112" fill-rule="evenodd" clip-rule="evenodd" d="M8.89652 7.2156C8.85488 7.25724 8.81323 7.27211 8.77456 7.31971C8.75672 7.33755 8.75969 7.36433 8.74779 7.3911C8.73887 7.41787 8.70615 7.42084 8.69722 7.41787C8.68235 7.40597 8.68532 7.35838 8.66748 7.38217C8.64963 7.40895 8.64071 7.44167 8.61691 7.44167C8.59609 7.44167 8.55742 7.39705 8.57824 7.39705C8.64665 7.38812 8.64368 7.33755 8.66748 7.33161C8.69722 7.32863 8.69722 7.37622 8.71805 7.3673C8.72994 7.36135 8.73887 7.30483 8.75374 7.28996C8.79836 7.24237 8.83406 7.21857 8.88165 7.18287C8.90247 7.16503 8.92032 7.19775 8.89652 7.21857V7.2156ZM9.05418 7.36433C9.01848 7.37028 9.02443 7.41489 9.03633 7.41787C9.0512 7.42679 9.07797 7.42977 9.0869 7.3792C9.09285 7.35838 9.09582 7.48331 9.14044 7.43572C9.17019 7.40597 9.23265 7.44167 9.25942 7.40597C9.28025 7.3792 9.28917 7.36135 9.27132 7.32566C9.26537 7.31673 9.24158 7.31971 9.24158 7.34648C9.24158 7.37027 9.2267 7.39705 9.20291 7.39407C9.19101 7.3911 9.20886 7.33755 9.19696 7.32268C9.19418 7.31996 9.19044 7.31843 9.18655 7.31843C9.18265 7.31843 9.17891 7.31996 9.17613 7.32268C9.16721 7.33458 9.18506 7.38812 9.15829 7.39407C9.12259 7.40002 9.14044 7.35838 9.12854 7.35243C9.07797 7.32863 9.075 7.35838 9.05418 7.36135V7.36433ZM9.32189 7.27509C9.34866 7.26914 9.33974 7.26914 9.38138 7.23642C9.39626 7.22452 9.39923 7.26021 9.39626 7.27509C9.39626 7.29591 9.36651 7.28104 9.35759 7.30186C9.34569 7.32863 9.35164 7.3911 9.34569 7.41489C9.34569 7.42679 9.32189 7.42679 9.32189 7.41489C9.31594 7.38515 9.32486 7.3554 9.32189 7.31673C9.32189 7.30483 9.30702 7.28401 9.32189 7.27806V7.27509ZM9.17316 7.20072C9.16721 7.22749 9.16721 7.24832 9.16721 7.26914C9.16721 7.28401 9.19696 7.27509 9.19696 7.27211C9.19696 7.24832 9.20291 7.21262 9.19696 7.2037C9.19101 7.20072 9.17613 7.19477 9.17316 7.20072Z" fill="white"/>
<path id="Vector_113" fill-rule="evenodd" clip-rule="evenodd" d="M8.98613 6.92383L8.94449 7.09041L8.88499 6.97737V7.09338L8.75411 6.9387L8.79873 7.10528L8.67975 7.00414L8.74519 7.11718L8.53696 6.98332L8.66785 7.138L8.50127 7.05471L8.62025 7.15585L8.35254 7.05471L8.61133 7.18262C8.7289 7.1291 8.85698 7.10267 8.98613 7.10528C9.13189 7.10528 9.26277 7.13503 9.35796 7.18262L9.61972 7.05471L9.35201 7.15585L9.47099 7.05471L9.30739 7.138L9.4353 6.98332L9.22707 7.11718L9.29251 7.00414L9.17353 7.1023L9.21815 6.9387L9.09024 7.09338V6.97737L9.03075 7.09041L8.98613 6.92383Z" fill="white"/>
</g>
</g>
<path id="Vector_114" d="M8.7541 10.5371L8.75059 10.6145H8.73652V10.5617C8.73325 10.5461 8.72854 10.5308 8.72246 10.516C8.71775 10.5038 8.71186 10.492 8.70488 10.4809C8.69629 10.4674 8.6869 10.4545 8.67676 10.4422L8.70137 10.3789C8.71921 10.3993 8.73241 10.4233 8.74004 10.4492C8.75087 10.4773 8.75682 10.507 8.75762 10.5371M8.95098 10.4176C8.95098 10.4387 8.94746 10.4527 8.94043 10.4598C8.9334 10.4703 8.91934 10.4773 8.90527 10.4809L8.9123 10.5195C8.91552 10.5393 8.91552 10.5595 8.9123 10.5793V10.6145H8.89824V10.5793C8.89678 10.5697 8.89443 10.5603 8.89121 10.5512C8.88783 10.5417 8.88432 10.5324 8.88066 10.523C8.87477 10.5084 8.86772 10.4943 8.85957 10.4809L8.83145 10.4352L8.84902 10.3789L8.87715 10.4105L8.90176 10.4176C8.92637 10.4176 8.93691 10.407 8.93691 10.3824H8.94746C8.94728 10.3883 8.94728 10.3941 8.94746 10.4V10.4176M9.12676 10.5547L9.1127 10.6145L9.0916 10.5934C9.08635 10.5822 9.08279 10.5704 9.08105 10.5582C9.07989 10.5418 9.07989 10.5254 9.08105 10.509C9.07075 10.5117 9.06008 10.5129 9.04941 10.5125C9.03535 10.5125 9.0248 10.5125 9.01426 10.502C9.00989 10.4987 9.00635 10.4944 9.00391 10.4895C9.00147 10.4847 9.0002 10.4793 9.0002 10.4738C9.0002 10.4492 9.00723 10.4281 9.02129 10.4105C9.03184 10.3895 9.0459 10.3789 9.06348 10.3789C9.07402 10.3789 9.08457 10.3824 9.08809 10.3895L9.09863 10.4176V10.4738C9.09863 10.4984 9.09863 10.516 9.10566 10.523C9.10566 10.5336 9.11621 10.5406 9.12676 10.5547ZM9.07402 10.4527C9.07402 10.4387 9.06348 10.4316 9.04941 10.4316C9.0445 10.4316 9.03965 10.4328 9.03535 10.4352C9.02832 10.4387 9.02832 10.4422 9.02832 10.4457C9.02832 10.4527 9.03535 10.4562 9.05645 10.4562C9.06229 10.4569 9.06818 10.4569 9.07402 10.4562M9.3166 10.5371L9.30957 10.6109C9.29551 10.6004 9.28145 10.5828 9.2709 10.5582C9.25466 10.5207 9.24172 10.4819 9.23223 10.4422C9.22418 10.4777 9.21479 10.5129 9.2041 10.5477L9.18301 10.5934C9.17757 10.6018 9.17037 10.609 9.16191 10.6145V10.5441L9.19004 10.502C9.19913 10.4865 9.20622 10.47 9.21113 10.4527C9.21613 10.4295 9.21965 10.4061 9.22168 10.3824H9.23574L9.26035 10.4527C9.27275 10.4846 9.29195 10.5134 9.3166 10.5371Z" fill="white"/>
<path id="Vector_115" d="M9.86084 11.2219C9.87139 11.2324 9.87842 11.243 9.88193 11.257L9.88896 11.2992H9.86787C9.86105 11.2855 9.8528 11.2725 9.84326 11.2605C9.83209 11.2483 9.82036 11.2366 9.80811 11.2254L9.7624 11.1832C9.74423 11.1673 9.72547 11.152 9.70615 11.1375L9.68857 11.1234L9.68154 11.1023C9.67927 11.0872 9.67809 11.0719 9.67803 11.0566L9.75186 11.1164C9.77609 11.1366 9.79954 11.1577 9.82217 11.1797L9.86084 11.2219ZM9.59365 11.0602L9.59014 11.1164L9.50225 11.1129L9.50928 11.0566H9.59365M9.8292 11.3063L9.61826 11.373L9.57607 11.3168L9.75889 11.2641C9.7536 11.2555 9.74772 11.2472 9.74131 11.2395L9.7167 11.2219C9.71646 11.2273 9.71508 11.2326 9.71266 11.2374C9.71023 11.2423 9.70682 11.2466 9.70264 11.25C9.6948 11.258 9.68515 11.264 9.67451 11.2676C9.65839 11.2719 9.64141 11.2719 9.62529 11.2676C9.60771 11.2676 9.59717 11.257 9.59014 11.2465C9.57859 11.2287 9.57248 11.2079 9.57256 11.1867C9.57256 11.1586 9.57959 11.141 9.59365 11.134C9.61475 11.127 9.64287 11.134 9.68154 11.1516C9.71497 11.1678 9.74393 11.1919 9.76592 11.2219L9.8292 11.3063ZM9.66396 11.1937C9.65719 11.1907 9.65012 11.1883 9.64287 11.1867C9.63713 11.1851 9.63103 11.1851 9.62529 11.1867C9.62223 11.1871 9.61932 11.1883 9.61685 11.1901C9.61438 11.192 9.61244 11.1944 9.61123 11.1973C9.61 11.1994 9.60935 11.2018 9.60935 11.2043C9.60935 11.2068 9.61 11.2092 9.61123 11.2113L9.62529 11.2184H9.64287C9.64718 11.2157 9.65079 11.2121 9.65342 11.2078L9.66396 11.1937ZM9.43896 11.1516L9.4249 11.2078L9.33701 11.1973L9.35107 11.1445L9.43896 11.1516ZM9.6499 11.3625L9.60068 11.3766C9.58439 11.3793 9.56776 11.3793 9.55147 11.3766C9.53679 11.3762 9.52238 11.3726 9.50928 11.366C9.50225 11.3801 9.48818 11.3906 9.47061 11.4012C9.45596 11.4076 9.44063 11.4123 9.4249 11.4152L9.38975 11.4258L9.36162 11.3695L9.39678 11.3625L9.43193 11.352L9.45303 11.3379C9.44524 11.3325 9.43701 11.3278 9.42842 11.3238C9.42192 11.3205 9.41455 11.3193 9.40732 11.3203C9.40505 11.3195 9.40257 11.3195 9.40029 11.3203C9.39921 11.3237 9.39921 11.3274 9.40029 11.3309H9.38271C9.36865 11.3062 9.36514 11.2887 9.37217 11.2746C9.38272 11.2605 9.40029 11.25 9.42842 11.243C9.45654 11.2359 9.48115 11.2359 9.50225 11.243C9.52334 11.243 9.5374 11.2535 9.54443 11.2641C9.54795 11.2711 9.55147 11.2781 9.54795 11.2852C9.54795 11.2922 9.54795 11.3027 9.5374 11.3203C9.54882 11.3241 9.56114 11.3241 9.57256 11.3203L9.61826 11.3098L9.6499 11.3625ZM9.4249 11.4152L9.3792 11.4223C9.35459 11.4223 9.3335 11.4223 9.31592 11.4082C9.29436 11.3895 9.27851 11.3652 9.27022 11.3379L9.24912 11.2781C9.24574 11.2646 9.23839 11.2523 9.22803 11.243L9.1999 11.2324L9.21748 11.1727L9.25615 11.2043L9.28428 11.25L9.29834 11.2922C9.30597 11.3142 9.31793 11.3346 9.3335 11.352C9.34053 11.3625 9.34756 11.366 9.35811 11.3625L9.40381 11.3555L9.4249 11.4152ZM9.23154 11.2043L9.1999 11.257L9.11904 11.2359L9.14717 11.1832L9.23154 11.2043ZM9.28076 11.4398L9.06982 11.4574L9.05928 11.4012L9.23506 11.3836C9.23015 11.3738 9.22291 11.3653 9.21397 11.359C9.20507 11.3524 9.19566 11.3465 9.18584 11.3414L9.20342 11.2887C9.221 11.2992 9.23857 11.3098 9.24561 11.3238C9.25264 11.3379 9.26318 11.359 9.2667 11.3836L9.28076 11.4398ZM9.11201 11.468C9.09078 11.4671 9.06963 11.4647 9.04873 11.4609C9.03314 11.4575 9.01785 11.4528 9.00303 11.4469C8.99176 11.4517 8.97996 11.4553 8.96787 11.4574H8.8624C8.84482 11.4574 8.83428 11.4574 8.82725 11.4504L8.80615 11.4223C8.79297 11.4338 8.77735 11.4422 8.76045 11.4469C8.74571 11.4517 8.73026 11.4541 8.71475 11.4539H8.66553L8.67256 11.3906L8.71826 11.3941C8.74287 11.3941 8.76396 11.3941 8.77803 11.3836C8.79912 11.373 8.81318 11.3555 8.81318 11.3344H8.83428C8.83285 11.3461 8.83168 11.3578 8.83076 11.3695C8.83076 11.3801 8.83076 11.3871 8.84131 11.3906L8.86592 11.3977H8.96787C8.98193 11.3906 8.98896 11.3801 8.99248 11.3625L8.996 11.352C9.00047 11.3492 9.00518 11.3469 9.01006 11.3449L9.02412 11.3414V11.3625L9.01357 11.3906C9.03276 11.398 9.05287 11.4028 9.07334 11.4047C9.07334 11.4012 9.07334 11.3941 9.06631 11.3871C9.06631 11.3766 9.05928 11.373 9.05928 11.3695C9.05976 11.3669 9.06098 11.3645 9.06279 11.3625L9.07334 11.3555L9.10146 11.3309L9.11201 11.3555C9.11201 11.3625 9.11553 11.373 9.11201 11.3836L9.1085 11.468M8.79209 11.2219L8.73936 11.257L8.70068 11.2359L8.66201 11.2641L8.60928 11.2324L8.6585 11.1973L8.70068 11.2219L8.73936 11.1902L8.79209 11.2219ZM8.70771 11.4469L8.50381 11.4117L8.52842 11.3555L8.69717 11.3836C8.70012 11.3745 8.70012 11.3646 8.69717 11.3555C8.69201 11.3479 8.68612 11.3408 8.67959 11.3344L8.72529 11.2887C8.73584 11.3027 8.74287 11.3168 8.74287 11.3309C8.74287 11.3449 8.74287 11.366 8.72881 11.3906L8.70771 11.4469ZM8.53545 11.4187L8.49326 11.4082C8.46865 11.4047 8.45459 11.3941 8.45107 11.3766C8.44756 11.359 8.45459 11.3344 8.47568 11.2992L8.51084 11.2395L8.51787 11.2078L8.50732 11.1867L8.57061 11.1445L8.57764 11.1832C8.57764 11.1973 8.57061 11.2148 8.55654 11.2324L8.53545 11.2746C8.52272 11.2924 8.51429 11.3128 8.51084 11.3344C8.51084 11.3449 8.51436 11.352 8.5249 11.352L8.56709 11.3625L8.53545 11.4187ZM8.42998 11.1973L8.35967 11.2289L8.31045 11.1797L8.38076 11.1516L8.42998 11.1973ZM8.39834 11.3836C8.38708 11.3992 8.37272 11.4124 8.35615 11.4223C8.34209 11.4328 8.32451 11.4363 8.30693 11.4398C8.28477 11.4429 8.2623 11.4429 8.24014 11.4398C8.21373 11.4353 8.18783 11.4283 8.16279 11.4187C8.12672 11.4088 8.09396 11.3893 8.06787 11.3625C8.05029 11.3414 8.05029 11.3203 8.06787 11.2992C8.08259 11.281 8.10045 11.2655 8.12061 11.2535C8.15449 11.2365 8.18977 11.2223 8.22607 11.2113L8.24014 11.2254C8.20498 11.2395 8.17686 11.25 8.16279 11.2605C8.14965 11.2665 8.13772 11.2748 8.12764 11.2852C8.11709 11.2992 8.11709 11.3133 8.13115 11.3309C8.18135 11.3704 8.24304 11.3926 8.30693 11.3941C8.34209 11.3941 8.36318 11.3836 8.37373 11.373L8.38779 11.3484L8.39131 11.2992L8.46162 11.257L8.45811 11.2992C8.45459 11.3133 8.44404 11.3273 8.42998 11.3449L8.39834 11.3836Z" fill="#BF0000"/>
</g>
<defs>
<clipPath id="clip0_186_5144">
<rect width="18" height="18" fill="white"/>
</clipPath>
</defs>
</svg>
