<svg width="18" height="18" viewBox="0 0 18 18" fill="none" xmlns="http://www.w3.org/2000/svg">
<g id="ai" clip-path="url(#clip0_186_5146)">
<path id="Vector" d="M0 0H18V18H0V0Z" fill="#012169"/>
<g id="Vector_2">
<path d="M0 0L9 9ZM9 0L0 9Z" fill="black"/>
<path d="M0 0L9 9M9 0L0 9" stroke="white" stroke-width="50"/>
</g>
<g id="Clip path group">
<mask id="mask0_186_5146" style="mask-type:luminance" maskUnits="userSpaceOnUse" x="0" y="0" width="11" height="11">
<g id="ai-a">
<path id="Vector_3" d="M0 0V4.5H10.5012V9H9L0 0ZM9 0H4.5V10.5012H0V9L9 0Z" fill="white"/>
</g>
</mask>
<g mask="url(#mask0_186_5146)">
<g id="Vector_4">
<path d="M0 0L9 9ZM9 0L0 9Z" fill="black"/>
<path d="M0 0L9 9M9 0L0 9" stroke="#C8102E" stroke-width="30"/>
</g>
</g>
</g>
<g id="Vector_5">
<path d="M4.5 0V10.5012ZM0 4.5H10.5012Z" fill="black"/>
<path d="M4.5 0V10.5012M0 4.5H10.5012" stroke="white" stroke-width="75"/>
</g>
<g id="Vector_6">
<path d="M4.5 0V10.5012ZM0 4.5H10.5012Z" fill="black"/>
<path d="M4.5 0V10.5012M0 4.5H10.5012" stroke="#C8102E" stroke-width="50"/>
</g>
<path id="Vector_7" d="M0 9H9V0H11.9988V11.9988H0V9Z" fill="#012169"/>
<path id="Vector_8" d="M11.377 7.87891C11.377 11.057 11.7215 12.1504 12.4105 12.8887C12.7736 13.2917 13.1872 13.6462 13.641 13.9434C14.0948 13.6461 14.5083 13.2916 14.8715 12.8887C15.557 12.1504 15.9016 11.057 15.9016 7.87891C15.4023 8.10742 15.1176 8.21992 14.7062 8.21289C14.3321 8.17539 13.9696 8.06173 13.641 7.87891C13.3124 8.06173 12.9499 8.17539 12.5758 8.21289C12.1645 8.21992 11.8797 8.10742 11.3805 7.87891H11.377Z" fill="white"/>
<g id="Group">
<path id="Vector_9" d="M13.7133 9.46985C13.8167 9.72323 14.1612 10.0048 14.2508 10.1455C14.1336 10.2863 14.113 10.2722 14.1267 10.5256C14.3335 10.3074 14.3335 10.2793 14.4713 10.3144C14.7607 10.6101 14.5264 11.2505 14.2783 11.3913C14.044 11.5391 14.0854 11.3913 13.7271 11.5743C13.8856 11.7151 14.0785 11.5532 14.237 11.5954C14.3197 11.701 14.1956 11.884 14.2645 12.067C14.4024 12.0529 14.3886 11.7643 14.4161 11.6588C14.5195 11.2787 15.1328 11.0183 15.1603 10.6664C15.2912 10.603 15.4153 10.6452 15.5738 10.7367C15.498 10.413 15.2361 10.413 15.1672 10.3144C15.0018 10.054 14.8571 9.76546 14.5057 9.681C14.2439 9.63173 14.2645 9.70211 14.0923 9.58246C13.982 9.498 13.6582 9.34316 13.7133 9.46985" fill="#FF9900"/>
<path id="Vector_10" d="M14.4233 9.81378C14.4537 9.81378 14.4784 9.78857 14.4784 9.75748C14.4784 9.72638 14.4537 9.70117 14.4233 9.70117C14.3928 9.70117 14.3682 9.72638 14.3682 9.75748C14.3682 9.78857 14.3928 9.81378 14.4233 9.81378Z" fill="white"/>
</g>
<g id="Group_2">
<path id="Vector_11" d="M12.854 10.5598C13.0251 10.3482 13.1077 9.90554 13.1877 9.7589C13.3643 9.79894 13.3618 9.82418 13.5747 9.6934C13.2892 9.60862 13.2648 9.62177 13.2309 9.48088C13.3515 9.08147 14.0155 8.99392 14.2532 9.15219C14.4907 9.29473 14.3434 9.32642 14.6693 9.56454C14.7171 9.35567 14.4868 9.25704 14.4492 9.0942C14.502 8.97022 14.7184 8.99676 14.8446 8.84907C14.768 8.73119 14.5246 8.87841 14.4204 8.90283C14.043 8.98699 13.531 8.5548 13.2135 8.69426C13.0975 8.60562 13.0761 8.47389 13.0812 8.28803C12.8364 8.50769 12.9587 8.74415 12.9057 8.85239C12.7575 9.12336 12.5753 9.38881 12.6665 9.74561C12.7462 10.0051 12.7975 9.95354 12.7744 10.165C12.7528 10.304 12.7701 10.6688 12.854 10.5598" fill="#FF9900"/>
<path id="Vector_12" d="M12.8207 9.757C12.8065 9.72951 12.7732 9.71899 12.7462 9.73352C12.7193 9.74804 12.709 9.7821 12.7233 9.80959C12.7375 9.83709 12.7708 9.8476 12.7978 9.83308C12.8247 9.81855 12.835 9.78449 12.8207 9.757Z" fill="white"/>
</g>
<g id="Group_3">
<path id="Vector_13" d="M14.2426 10.6995C13.9768 10.6595 13.563 10.8162 13.3987 10.8221C13.3409 10.6471 13.3634 10.6362 13.1437 10.5178C13.2202 10.8112 13.2439 10.8257 13.1433 10.9282C12.7461 11.0293 12.3294 10.4944 12.3391 10.2047C12.3358 9.92347 12.4385 10.0358 12.4696 9.62784C12.2698 9.6941 12.3062 9.94638 12.1891 10.0634C12.0579 10.0814 11.9682 9.87858 11.7792 9.84467C11.72 9.97258 11.9692 10.1091 12.0436 10.1876C12.3093 10.4738 12.2118 11.1449 12.4929 11.3502C12.4786 11.4975 12.3793 11.5843 12.2208 11.676C12.5316 11.7763 12.6665 11.5471 12.7847 11.5375C13.0884 11.5268 13.4052 11.5487 13.6571 11.2846C13.8334 11.0807 13.7637 11.0625 13.9529 10.9733C14.0805 10.9203 14.3774 10.7165 14.2426 10.6995" fill="#FF9900"/>
<path id="Vector_14" d="M13.5871 11.1426C13.5714 11.1693 13.5798 11.2039 13.6059 11.2199C13.632 11.2359 13.6659 11.2273 13.6816 11.2006C13.6972 11.174 13.6888 11.1394 13.6627 11.1233C13.6366 11.1073 13.6027 11.116 13.5871 11.1426Z" fill="white"/>
</g>
<path id="Vector_15" d="M11.9463 12.2129C12.0663 12.4599 12.2227 12.6874 12.4104 12.8879C12.7734 13.2909 13.187 13.6454 13.6408 13.9426C14.0945 13.6452 14.508 13.2907 14.8713 12.8879C15.0589 12.6874 15.2153 12.4599 15.3354 12.2129H11.9463Z" fill="#99CCFF"/>
<path id="Vector_16" d="M11.2848 7.75195C11.2848 11.0637 11.6398 12.2027 12.357 12.9727C12.7363 13.3894 13.1676 13.7557 13.6402 14.0625C14.112 13.7546 14.5422 13.3871 14.9199 12.9691C15.6371 12.1992 15.9957 11.0637 15.9957 7.75195C15.4754 7.99102 15.1766 8.10703 14.7477 8.10352C14.3609 8.09297 13.9531 7.90313 13.6402 7.75195C13.3238 7.90313 12.916 8.09297 12.5328 8.10352C12.1004 8.10703 11.8051 7.99102 11.2812 7.75195H11.2848ZM11.4254 7.92773C11.9141 8.15625 12.1953 8.26523 12.5996 8.2582C12.9655 8.22045 13.3196 8.10798 13.6402 7.92773C13.9355 8.06836 14.3188 8.25117 14.6809 8.2582C15.0852 8.26523 15.3629 8.15273 15.8551 7.92773C15.8551 11.0566 15.5176 12.1324 14.8426 12.8566C14.4878 13.2513 14.0837 13.5987 13.6402 13.8902C13.1955 13.5991 12.7901 13.2517 12.4344 12.8566C11.7594 12.1324 11.4254 11.0531 11.4254 7.92773Z" fill="#FDC301"/>
</g>
<defs>
<clipPath id="clip0_186_5146">
<rect width="18" height="18" fill="white"/>
</clipPath>
</defs>
</svg>
