<svg width="18" height="18" viewBox="0 0 18 18" fill="none" xmlns="http://www.w3.org/2000/svg">
<g id="al" clip-path="url(#clip0_186_5147)">
<path id="Vector" d="M0 0H18V18H0V0Z" fill="#FF0000"/>
<path id="al-a" d="M7.20391 3.49805C7.02812 3.49805 6.73984 3.5543 6.74687 3.68789C6.25469 3.60703 6.20547 3.80742 6.23359 3.98672C6.28281 3.91641 6.33906 3.87773 6.38125 3.8707C6.44805 3.86016 6.51484 3.88125 6.58516 3.92344C6.65095 3.9662 6.71016 4.01831 6.76094 4.07812C6.59219 4.1168 6.45859 4.09219 6.325 4.06758C6.24862 4.05205 6.17586 4.02223 6.11055 3.97969C6.0543 3.94102 6.03672 3.90586 5.94883 3.81445C5.84687 3.70898 5.73789 3.74063 5.77305 3.90234C5.85039 4.05352 5.98398 4.12383 6.14922 4.14844C6.22656 4.1625 6.34609 4.19062 6.47969 4.19062C6.61328 4.19062 6.76445 4.17305 6.84883 4.19062C6.79961 4.21875 6.74336 4.275 6.63086 4.29609C6.51836 4.31719 6.34961 4.22578 6.24414 4.20469C6.2582 4.29258 6.36719 4.37344 6.58516 4.41562C6.94375 4.49297 7.24258 4.55625 7.43945 4.66172C7.63633 4.76719 7.75937 4.90078 7.84727 5.00625C8.02305 5.21719 8.03359 5.37539 8.04414 5.41055C8.0793 5.74453 7.9668 5.93086 7.74883 5.98711C7.64336 6.01523 7.45 5.9625 7.37969 5.88164C7.30937 5.79727 7.23906 5.65664 7.26016 5.43516C7.27773 5.34727 7.37969 5.11875 7.29531 5.07305C6.90483 4.85949 6.50085 4.6716 6.08594 4.51055C5.99102 4.47188 5.91016 4.59844 5.88203 4.65117C5.60566 4.61211 5.34144 4.51203 5.10855 4.35819C4.87566 4.20434 4.67992 4.0006 4.53555 3.76172C4.37383 3.47695 4.11016 3.76172 4.15234 4.03242C4.22617 4.33477 4.45469 4.55273 4.73242 4.70742C5.01367 4.86562 5.36875 5.0168 5.72734 5.00977C5.9207 5.04492 5.9207 5.29805 5.68867 5.34375C5.23164 5.34375 4.87305 5.33672 4.53203 5.00625C4.27187 4.7707 4.12773 5.05195 4.20156 5.21016C4.32813 5.70234 5.03125 5.84297 5.74141 5.68125C6.01563 5.63555 5.85039 5.92734 5.77305 5.93438C5.47773 6.14531 4.94688 6.35625 4.4793 5.93086C4.26484 5.76562 4.1207 5.90625 4.19805 6.1418C4.40898 6.75703 5.2 6.62695 5.74492 6.32461C5.88555 6.24727 6.01211 6.43008 5.83984 6.56719C5.16484 7.03828 4.82383 7.04531 4.51797 6.8625C4.13828 6.71133 4.10312 7.13672 4.33164 7.27734C4.58477 7.43203 5.22461 7.3125 5.69922 7.01719C5.89961 6.86953 5.91016 7.10156 5.78008 7.19297C5.22109 7.67813 4.99961 7.8082 4.41602 7.72734C4.12773 7.70625 4.13477 8.06133 4.35977 8.20195C4.66914 8.3918 5.27734 8.07539 5.74844 7.68516C5.94531 7.57969 5.98047 7.75547 5.88203 7.95937C5.67411 8.25344 5.39128 8.4865 5.06289 8.63438C4.84402 8.72123 4.60188 8.72992 4.37734 8.65898C4.15938 8.58164 4.13125 8.80664 4.25078 9.01055C4.32109 9.13359 4.62344 9.17578 4.94336 9.05977C5.2668 8.94727 5.61133 8.68008 5.84688 8.36367C6.05781 8.18437 6.02969 8.42695 5.93477 8.59922C5.46016 9.34805 5.02422 9.62578 4.45469 9.58008C4.19805 9.53789 4.1418 9.73477 4.30352 9.91758C4.58477 10.1531 4.94336 10.1426 5.25273 9.91055C5.625 9.53938 5.9861 9.15718 6.33555 8.76445C6.52891 8.60977 6.59219 8.76445 6.53594 9.08086C6.4832 9.26016 6.35313 9.45 5.99805 9.59062C5.75195 9.73125 5.93477 9.92109 6.11758 9.92461C6.21953 9.92461 6.42344 9.80859 6.57461 9.63281C6.78203 9.4043 6.79258 9.24609 6.90859 8.89102C7.01406 8.71523 7.20391 8.79609 7.20391 8.97891C7.1125 9.3375 7.03516 9.40078 6.85234 9.54844C6.67305 9.71367 6.97187 9.76992 7.07383 9.70312C7.36562 9.50625 7.47109 9.25313 7.56953 9.02109C7.63984 8.85234 7.84375 8.9332 7.74883 9.20742C7.52383 9.85781 7.15117 10.1145 6.50078 10.248C6.43398 10.2586 6.39531 10.2973 6.41641 10.3746L6.68008 10.6383C6.27578 10.7543 5.94883 10.8211 5.54805 10.9371L4.99258 10.568C4.93984 10.4484 4.91523 10.2621 4.62695 10.3922C4.42656 10.3008 4.33867 10.3359 4.22617 10.4273C4.38437 10.4309 4.45469 10.473 4.51797 10.5469C4.59883 10.7578 4.78516 10.7789 4.975 10.7227C5.09805 10.8246 5.16484 10.9055 5.29141 11.0109L4.66562 10.9898C4.44414 10.7543 4.26836 10.7684 4.11016 10.9547C3.98711 10.9723 3.93437 10.9723 3.85352 11.1199C3.98359 11.0672 4.06445 11.0496 4.12422 11.1094C4.35625 11.2465 4.51094 11.2148 4.62695 11.1094L5.28438 11.148C5.20352 11.2184 5.0875 11.257 5.00313 11.3309C4.66211 11.2324 4.48633 11.366 4.42656 11.6402C4.37733 11.7504 4.36026 11.8723 4.37734 11.9918C4.4125 11.8793 4.46523 11.7844 4.56367 11.7246C4.86602 11.802 4.97852 11.6789 4.99609 11.4961C5.14375 11.3766 5.36523 11.352 5.50937 11.2289C5.68164 11.2852 5.7625 11.3203 5.93477 11.373C5.99453 11.5594 6.13516 11.6332 6.35664 11.584C6.62734 11.5945 6.57813 11.7035 6.60273 11.7914C6.67305 11.6648 6.67305 11.5453 6.5043 11.4293C6.44453 11.2676 6.31094 11.1938 6.13867 11.2887C5.97344 11.243 5.93125 11.1762 5.76953 11.127C6.18086 10.9969 6.47266 10.9688 6.8875 10.8352C6.99297 10.9336 7.07031 11.0039 7.17578 11.0883C7.23203 11.1234 7.28125 11.1305 7.31641 11.0883C7.57305 10.7156 7.68906 10.3852 7.92813 10.1391C8.01953 10.0371 8.13906 9.9 8.26563 9.86484C8.32891 9.85078 8.40625 9.85781 8.45898 9.91406C8.5082 9.97031 8.55039 10.0688 8.5293 10.2199C8.5082 10.4379 8.45898 10.5082 8.3957 10.6348C8.33594 10.7648 8.25859 10.8457 8.18477 10.9441C8.03008 11.1445 7.82969 11.2605 7.71016 11.3379C7.47109 11.4926 7.36914 11.4258 7.18281 11.4152C6.94727 11.4434 6.88398 11.5594 7.07734 11.7211C7.22407 11.8019 7.39391 11.8304 7.55898 11.802C7.675 11.7809 7.80508 11.6332 7.90352 11.5559C8.00898 11.4293 8.18828 11.577 8.06875 11.7211C7.84727 11.9848 7.62578 12.157 7.35508 12.1535C7.0668 12.1887 7.11953 12.3539 7.30937 12.4313C7.65391 12.5719 7.96328 12.3082 8.11797 12.1324C8.24102 12.0023 8.32891 11.9953 8.3043 12.2027C8.18477 12.5719 8.01953 12.716 7.75234 12.7336C7.53438 12.716 7.53086 12.8813 7.69258 12.9973C8.05469 13.2434 8.31484 12.8215 8.43789 12.5613C8.52578 12.3293 8.65938 12.4383 8.67344 12.6316C8.67344 12.8883 8.56094 13.0957 8.25156 13.3594C8.48711 13.7355 8.76133 14.1223 9.00039 14.502L9.72109 6.4793L9.00039 5.21367C8.92656 5.14336 8.67344 4.84453 8.60664 4.80234C8.58203 4.77773 8.56797 4.76016 8.60313 4.74609C8.63828 4.73203 8.71562 4.71797 8.77187 4.71094C8.61719 4.55625 8.49062 4.50703 8.19883 4.42266C8.26914 4.39453 8.33945 4.41211 8.54688 4.40156C8.41848 4.22699 8.24282 4.0928 8.04062 4.01484C8.19883 3.90937 8.22695 3.89883 8.38516 3.76875C8.11445 3.74766 7.88242 3.69844 7.65391 3.62812C7.512 3.56052 7.36 3.51658 7.20391 3.49805ZM7.22852 3.81445C7.36914 3.81445 7.46055 3.86367 7.46055 3.91992C7.46055 3.97969 7.37266 4.02891 7.22852 4.02891C7.08789 4.02891 6.99648 3.97617 6.99648 3.91641C6.99648 3.85664 7.08789 3.81094 7.22852 3.81094V3.81445Z" fill="#000001"/>
<path id="al-a_2" d="M10.7961 3.49805C10.9719 3.49805 11.2602 3.5543 11.2531 3.68789C11.7453 3.60703 11.7945 3.80742 11.7664 3.98672C11.7172 3.91641 11.6609 3.87773 11.6187 3.8707C11.552 3.86016 11.4852 3.88125 11.4148 3.92344C11.3491 3.9662 11.2898 4.01831 11.2391 4.07812C11.4078 4.1168 11.5414 4.09219 11.675 4.06758C11.7514 4.05205 11.8241 4.02223 11.8895 3.97969C11.9457 3.94102 11.9633 3.90586 12.0512 3.81445C12.1531 3.70898 12.2621 3.74063 12.227 3.90234C12.1496 4.05352 12.016 4.12383 11.8508 4.14844C11.7734 4.1625 11.6539 4.19062 11.5203 4.19062C11.3867 4.19062 11.2355 4.17305 11.1512 4.19062C11.2004 4.21875 11.2566 4.275 11.3691 4.29609C11.4816 4.31719 11.6504 4.22578 11.7559 4.20469C11.7418 4.29258 11.6328 4.37344 11.4148 4.41562C11.0562 4.49297 10.7574 4.55625 10.5605 4.66172C10.3637 4.76719 10.2406 4.90078 10.1527 5.00625C9.97695 5.21719 9.96641 5.37539 9.95586 5.41055C9.9207 5.74453 10.0332 5.93086 10.2512 5.98711C10.3566 6.01523 10.55 5.9625 10.6203 5.88164C10.6906 5.79727 10.7609 5.65664 10.7398 5.43516C10.7223 5.34727 10.6203 5.11875 10.7047 5.07305C11.0952 4.85949 11.4992 4.6716 11.9141 4.51055C12.009 4.47188 12.0898 4.59844 12.118 4.65117C12.3943 4.61211 12.6586 4.51203 12.8914 4.35819C13.1243 4.20434 13.3201 4.0006 13.4645 3.76172C13.6262 3.47695 13.8898 3.76172 13.8477 4.03242C13.7738 4.33477 13.5453 4.55273 13.2676 4.70742C12.9863 4.86562 12.6313 5.0168 12.2727 5.00977C12.0793 5.04492 12.0793 5.29805 12.3113 5.34375C12.7684 5.34375 13.127 5.33672 13.468 5.00625C13.7281 4.7707 13.8723 5.05195 13.7984 5.21016C13.6719 5.70234 12.9687 5.84297 12.2586 5.68125C11.9844 5.63555 12.1496 5.92734 12.227 5.93438C12.5223 6.14531 13.0531 6.35625 13.5207 5.93086C13.7352 5.76562 13.8793 5.90625 13.802 6.1418C13.591 6.75703 12.8 6.62695 12.2551 6.32461C12.1145 6.24727 11.9879 6.43008 12.1602 6.56719C12.8352 7.03828 13.1762 7.04531 13.482 6.8625C13.8617 6.71133 13.8969 7.13672 13.6684 7.27734C13.4152 7.43203 12.7754 7.3125 12.3008 7.01719C12.1004 6.86953 12.0898 7.10156 12.2199 7.19297C12.7789 7.67813 13.0004 7.8082 13.584 7.72734C13.8723 7.70625 13.8652 8.06133 13.6402 8.20195C13.3309 8.3918 12.7227 8.07539 12.2516 7.68516C12.0547 7.57969 12.0195 7.75547 12.118 7.95937C12.3259 8.25344 12.6087 8.4865 12.9371 8.63438C13.156 8.72123 13.3981 8.72992 13.6227 8.65898C13.8406 8.58164 13.8687 8.80664 13.7492 9.01055C13.6789 9.13359 13.3766 9.17578 13.0566 9.05977C12.7332 8.94727 12.3887 8.68008 12.1531 8.36367C11.9422 8.18437 11.9703 8.42695 12.0652 8.59922C12.5398 9.34805 12.9758 9.62578 13.5453 9.58008C13.802 9.53789 13.8582 9.73477 13.6965 9.91758C13.4152 10.1531 13.0566 10.1426 12.7473 9.91055C12.375 9.53938 12.0139 9.15718 11.6645 8.76445C11.4711 8.60977 11.4078 8.76445 11.4641 9.08086C11.5168 9.26016 11.6469 9.45 12.002 9.59062C12.248 9.73125 12.0652 9.92109 11.8824 9.92461C11.7805 9.92461 11.5766 9.80859 11.4254 9.63281C11.218 9.4043 11.2074 9.24609 11.0914 8.89102C10.9859 8.71523 10.7961 8.79609 10.7961 8.97891C10.8875 9.3375 10.9648 9.40078 11.1477 9.54844C11.327 9.71367 11.0281 9.76992 10.9262 9.70312C10.6344 9.50625 10.5289 9.25313 10.4305 9.02109C10.3602 8.85234 10.1563 8.9332 10.2512 9.20742C10.4762 9.85781 10.8488 10.1145 11.4992 10.248C11.566 10.2586 11.6047 10.2973 11.5836 10.3746L11.3199 10.6383C11.7242 10.7543 12.0512 10.8211 12.452 10.9371L13.0074 10.568C13.0602 10.4484 13.0848 10.2621 13.373 10.3922C13.5734 10.3008 13.6613 10.3359 13.7738 10.4273C13.6156 10.4309 13.5453 10.473 13.482 10.5469C13.4012 10.7578 13.2148 10.7789 13.025 10.7227C12.902 10.8246 12.8352 10.9055 12.7086 11.0109L13.3344 10.9898C13.5559 10.7543 13.7316 10.7684 13.8898 10.9547C14.0129 10.9723 14.0656 10.9723 14.1465 11.1199C14.0164 11.0672 13.9355 11.0496 13.8758 11.1094C13.6437 11.2465 13.4891 11.2148 13.373 11.1094L12.7156 11.148C12.7965 11.2184 12.9125 11.257 12.9969 11.3309C13.3379 11.2324 13.5137 11.366 13.5734 11.6402C13.6227 11.7504 13.6397 11.8723 13.6227 11.9918C13.5875 11.8793 13.5348 11.7844 13.4363 11.7246C13.134 11.802 13.0215 11.6789 13.0039 11.4961C12.8562 11.3766 12.6348 11.352 12.4906 11.2289C12.3184 11.2852 12.2375 11.3203 12.0652 11.373C12.0055 11.5594 11.8648 11.6332 11.6434 11.584C11.3727 11.5945 11.4219 11.7035 11.3973 11.7914C11.327 11.6648 11.327 11.5453 11.4957 11.4293C11.5555 11.2676 11.6891 11.1938 11.8613 11.2887C12.0266 11.243 12.0687 11.1762 12.2305 11.127C11.8191 10.9969 11.5273 10.9688 11.1125 10.8352C11.007 10.9336 10.9297 11.0039 10.8242 11.0883C10.768 11.1234 10.7187 11.1305 10.6836 11.0883C10.427 10.7156 10.3109 10.3852 10.0719 10.1391C9.98047 10.0371 9.86094 9.9 9.73437 9.86484C9.67109 9.85078 9.59375 9.85781 9.54102 9.91406C9.4918 9.97031 9.44961 10.0688 9.4707 10.2199C9.4918 10.4379 9.54102 10.5082 9.6043 10.6348C9.66406 10.7648 9.74141 10.8457 9.81523 10.9441C9.96992 11.1445 10.1703 11.2605 10.2898 11.3379C10.5289 11.4926 10.6309 11.4258 10.8172 11.4152C11.0527 11.4434 11.116 11.5594 10.9227 11.7211C10.7759 11.8019 10.6061 11.8304 10.441 11.802C10.325 11.7809 10.1949 11.6332 10.0965 11.5559C9.99102 11.4293 9.81172 11.577 9.93125 11.7211C10.1527 11.9848 10.3742 12.157 10.6449 12.1535C10.9332 12.1887 10.8805 12.3539 10.6906 12.4313C10.3461 12.5719 10.0367 12.3082 9.88203 12.1324C9.75898 12.0023 9.67109 11.9953 9.6957 12.2027C9.81523 12.5719 9.98047 12.716 10.2477 12.7336C10.4656 12.716 10.4691 12.8813 10.3074 12.9973C9.94531 13.2434 9.68516 12.8215 9.56211 12.5613C9.47422 12.3293 9.34062 12.4383 9.32656 12.6316C9.32656 12.8883 9.43906 13.0957 9.74844 13.3594C9.51289 13.7355 9.23867 14.1223 8.99961 14.502L8.27891 6.4793L8.99961 5.21367C9.07344 5.14336 9.32656 4.84453 9.39336 4.80234C9.41797 4.77773 9.43203 4.76016 9.39687 4.74609C9.36172 4.73203 9.28438 4.71797 9.22813 4.71094C9.38281 4.55625 9.50938 4.50703 9.80117 4.42266C9.73086 4.39453 9.66055 4.41211 9.45312 4.40156C9.58152 4.22699 9.75718 4.0928 9.95938 4.01484C9.80117 3.90937 9.77305 3.89883 9.61484 3.76875C9.88555 3.74766 10.1176 3.69844 10.3461 3.62812C10.488 3.56052 10.64 3.51658 10.7961 3.49805ZM10.7715 3.81445C10.6309 3.81445 10.5395 3.86367 10.5395 3.91992C10.5395 3.97969 10.6273 4.02891 10.7715 4.02891C10.9121 4.02891 11.0035 3.97617 11.0035 3.91641C11.0035 3.85664 10.9121 3.81094 10.7715 3.81094V3.81445Z" fill="#000001"/>
</g>
<defs>
<clipPath id="clip0_186_5147">
<rect width="18" height="18" fill="white"/>
</clipPath>
</defs>
</svg>
