<svg width="18" height="18" viewBox="0 0 18 18" fill="none" xmlns="http://www.w3.org/2000/svg">
<g id="ao" clip-path="url(#clip0_186_5149)">
<g id="Group">
<path id="Vector" fill-rule="evenodd" clip-rule="evenodd" d="M0 0H18V9.13359H0V0Z" fill="#FF0000"/>
<path id="Vector_2" fill-rule="evenodd" clip-rule="evenodd" d="M0 8.86719H18V18.0008H0V8.86719Z" fill="#000001"/>
</g>
<path id="Vector_3" fill-rule="evenodd" clip-rule="evenodd" d="M8.04062 5.21055C13.8484 6.73281 10.1148 14.1965 5.53398 11.0887L5.22461 11.5668C7.92109 13.4863 10.5895 11.9395 11.3418 9.93555C12.1223 7.86836 11.0746 4.96094 8.08633 4.66211L8.04062 5.21055Z" fill="#FFEC00"/>
<path id="Vector_4" fill-rule="evenodd" clip-rule="evenodd" d="M5.97676 11.6297L6.73965 11.9848L6.38105 12.7512L5.61816 12.3926L5.97676 11.6297ZM11.215 8.13164H12.0588V8.97539H11.215V8.13164ZM10.8037 6.76406L11.5877 6.46172L11.8936 7.2457L11.1096 7.55156L10.8037 6.76406ZM9.88965 5.74102L10.4908 5.14687L11.085 5.74453L10.4873 6.33867L9.88965 5.74102ZM8.96855 4.3418L9.75605 4.63711L9.45723 5.42461L8.66973 5.1293L8.96855 4.3418ZM11.1096 9.49219L11.8936 9.80508L11.5771 10.5855L10.7967 10.2727L11.1096 9.49219ZM8.65215 11.9531L9.42559 11.6262L9.75957 12.3996L8.98613 12.7301L8.65215 11.9531ZM7.26348 12.0516H8.10723V12.8953H7.26348V12.0516ZM8.71543 7.97344L8.00176 7.44609L7.28809 7.95937L7.56934 7.15078L6.85566 6.62344H7.71699L8.01582 5.82891L8.29004 6.62695L9.1584 6.61641L8.46934 7.1543L8.71543 7.97344Z" fill="#FFEC00"/>
<path id="Vector_5" fill-rule="evenodd" clip-rule="evenodd" d="M11.8127 12.1777C11.7705 12.1918 11.5947 12.6137 11.4717 12.8176L11.6018 12.8527C12.0799 13.0215 12.3189 13.1762 12.5229 13.468C12.57 13.5139 12.632 13.5416 12.6976 13.5461C12.7633 13.5506 12.8285 13.5316 12.8814 13.4926C12.8814 13.4926 12.9799 13.4574 13.1064 13.3168C13.2119 13.1586 13.1838 13.0355 13.0572 12.9266C12.6705 12.6453 12.2521 12.4344 11.8127 12.1777Z" fill="#FFEE00"/>
<path id="Vector_6" fill-rule="evenodd" clip-rule="evenodd" d="M12.8424 13.1057C12.8424 13.1462 12.8263 13.1851 12.7976 13.2138C12.7689 13.2425 12.73 13.2586 12.6895 13.2586C12.6489 13.2586 12.61 13.2425 12.5813 13.2138C12.5526 13.1851 12.5365 13.1462 12.5365 13.1057C12.5365 13.0656 12.5524 13.0271 12.5808 12.9988C12.6092 12.9704 12.6476 12.9545 12.6877 12.9545C12.7278 12.9545 12.7662 12.9704 12.7946 12.9988C12.8229 13.0271 12.8389 13.0656 12.8389 13.1057H12.8424ZM12.09 12.6275C12.09 12.6681 12.0739 12.707 12.0452 12.7357C12.0166 12.7644 11.9777 12.7805 11.9371 12.7805C11.8965 12.7805 11.8577 12.7644 11.829 12.7357C11.8003 12.707 11.7842 12.6681 11.7842 12.6275C11.7842 12.587 11.8003 12.5481 11.829 12.5194C11.8577 12.4907 11.8965 12.4746 11.9371 12.4746C11.9777 12.4746 12.0166 12.4907 12.0452 12.5194C12.0739 12.5481 12.09 12.587 12.09 12.6275ZM12.4732 12.8736C12.4732 12.9142 12.4571 12.9531 12.4284 12.9818C12.3998 13.0104 12.3609 13.0266 12.3203 13.0266C12.2798 13.0266 12.2409 13.0104 12.2122 12.9818C12.1835 12.9531 12.1674 12.9142 12.1674 12.8736C12.1674 12.8331 12.1835 12.7942 12.2122 12.7655C12.2409 12.7368 12.2798 12.7207 12.3203 12.7207C12.3609 12.7207 12.3998 12.7368 12.4284 12.7655C12.4571 12.7942 12.4732 12.8331 12.4732 12.8736Z" fill="#000001"/>
<path id="Vector_7" fill-rule="evenodd" clip-rule="evenodd" d="M11.4085 12.7859C9.91086 11.9316 8.33937 11.0105 6.8382 10.1562C6.18078 9.74492 6.14914 8.98203 6.59211 8.40195C6.6343 8.32109 6.69055 8.33867 6.71164 8.38437C6.76437 8.66562 6.92258 8.95742 7.11242 9.14023C8.67059 10.1204 10.2141 11.1236 11.7425 12.1496C11.623 12.3535 11.5316 12.582 11.4085 12.7824V12.7859Z" fill="#FFEE00"/>
<path id="Vector_8" fill-rule="evenodd" clip-rule="evenodd" d="M10.4482 10.7402L11.074 11.3027L10.5115 11.9285L9.88574 11.366L10.4482 10.7402Z" fill="#FFEC00"/>
<path id="Vector_9" d="M11.6543 12.2617L7.25977 9.60742M11.1129 11.65L9.63281 10.6902M10.2727 12.1914L8.76445 11.3195" stroke="black" stroke-width="3"/>
</g>
<defs>
<clipPath id="clip0_186_5149">
<rect width="18" height="18" fill="white"/>
</clipPath>
</defs>
</svg>
