<svg width="18" height="18" viewBox="0 0 18 18" fill="none" xmlns="http://www.w3.org/2000/svg">
<g id="aq" clip-path="url(#clip0_186_5150)">
<path id="Vector" d="M0 0H18V18H0V0Z" fill="#3A7DCE"/>
<path id="Vector_2" d="M3.78672 8.46973C3.66367 8.192 3.66367 8.192 3.66367 7.91778C3.60039 7.91778 3.58984 7.93184 3.55469 7.91778C3.51953 7.90723 3.50547 8.17442 3.38945 8.12169C3.37188 8.09708 3.47383 7.90372 3.36133 7.82638C3.32617 7.79825 3.37188 7.64005 3.3543 7.57325C3.3543 7.57325 3.21367 7.65411 3.1082 7.36583C3.05898 7.292 2.98867 7.43614 2.98867 7.43614C2.98867 7.43614 3.02031 7.52403 2.96406 7.54161C2.8832 7.47833 2.82695 7.51348 2.72852 7.42559C2.62656 7.3377 2.74961 7.23575 2.55977 7.15841C2.68281 6.81388 2.68281 6.88419 2.98867 6.74356C2.80586 6.60645 2.80586 6.60645 2.68281 6.39903C2.49648 6.32872 2.43672 6.26192 2.25391 6.12481C2.00781 5.78028 1.88477 5.09122 1.88477 4.60606C2.03945 4.44434 2.25391 5.15802 2.55977 5.36544L2.98867 5.57286C3.23477 5.71349 3.29453 5.84708 3.48086 5.9877L4.0293 6.19513C4.27539 6.39903 4.39844 6.67677 4.58125 6.74356C4.78164 6.74356 4.82031 6.617 4.88359 6.60645C5.24219 6.58888 5.42852 6.53614 5.49883 6.41309C5.56914 6.31466 5.74492 6.46934 6.23711 6.26192L6.17383 5.9877C6.17383 5.9877 6.30742 5.86466 6.4832 5.91739C6.47617 5.79083 6.46563 5.45684 6.63789 5.30216C6.53242 5.17911 6.60273 5.09122 6.60273 5.09122C6.60273 5.09122 6.70117 4.98575 6.71523 4.9295C6.6625 4.62364 6.75742 4.62013 6.78203 4.53223C6.80312 4.44083 6.69766 4.47247 6.72578 4.34942C6.75742 4.22638 6.93672 4.19474 6.95781 4.09278C6.98242 3.99434 6.90508 3.94161 6.91211 3.917C6.94727 3.82208 6.91563 3.59356 6.91211 3.50567C7.23906 3.40372 7.34805 3.10489 7.46406 3.22794C7.52383 2.81309 7.58711 2.67598 7.95625 2.67598C8.00547 2.54942 7.81914 2.44044 7.89297 2.40177C8.01602 2.38419 8.10742 2.39122 8.25156 2.60216C8.29727 2.66895 8.3043 2.50372 8.35 2.48614C8.39922 2.46856 8.5082 2.46856 8.52578 2.3877C8.53984 2.30333 8.56445 2.19434 8.62773 2.05724C8.68047 1.94474 8.71914 2.09942 8.76836 2.31739C9.025 2.32794 9.60859 2.39473 9.85469 2.46856C10.0375 2.52481 10.1605 2.41583 10.3363 2.39473C10.4664 2.54239 10.5895 2.42989 10.6562 2.7463C10.7547 2.91153 10.9129 2.75684 10.948 2.80958C11.1555 3.44239 11.8621 3.01348 11.9113 3.02403C12.0027 3.02403 12.1117 3.3088 12.182 3.30528C12.298 3.28067 12.2664 3.19278 12.3648 3.22794C12.3402 3.467 12.5652 3.74474 12.5652 3.92052C12.5652 3.92052 12.618 3.95216 12.6707 3.89942C12.7199 3.84669 12.7656 3.70958 12.8113 3.71309C12.9168 3.73067 12.9625 3.74825 13.0855 3.76934C13.416 3.89942 13.5883 3.92755 13.7184 3.99083C13.7746 4.11739 13.8344 4.18067 13.9574 4.15606C14.0559 4.23341 13.982 4.33184 14.0418 4.33888C14.1648 4.26856 14.207 4.19473 14.3266 4.26153C14.4496 4.33184 14.5727 4.47247 14.6359 4.60606C14.6359 4.67638 14.5727 4.95059 14.6359 5.36544C14.6641 5.50606 14.6816 5.61153 14.8117 5.85059C14.7766 6.09317 14.977 6.50098 14.977 6.60645C14.977 6.74356 14.8785 6.81739 14.8187 6.95098C15.0648 7.16192 14.8187 7.50294 14.6957 7.71036C15.6168 7.91778 15.1879 8.33263 15.9227 8.1252C15.7363 8.60684 15.8031 8.56817 15.9859 9.04981C15.6203 9.32755 15.9789 9.41192 15.7328 9.75294C15.7187 9.77755 15.8805 10.0553 16.1055 10.0553C16.0457 10.6072 15.8594 10.3998 15.9227 11.226C15.4375 11.2154 15.6344 11.8447 15.3074 11.7779C15.3285 12.1752 15.4937 12.2068 15.4305 12.6076C15.1844 12.6779 15.1844 12.6779 15.0648 12.8818L14.8785 12.8115C14.8188 13.1596 14.6957 13.2264 14.8785 13.5709C14.8785 13.5709 14.643 13.5815 14.5727 13.5709C14.5691 13.6904 14.6781 13.7221 14.6957 13.8486C14.6852 13.8979 14.3441 14.1158 14.084 14.1229C14.0137 14.2951 14.2668 14.4744 14.2527 14.5623C13.9645 14.6221 13.8379 15.0193 13.8379 15.0193C13.8379 15.0193 13.9855 15.0897 13.9609 15.16C13.8801 15.0932 13.8379 15.0897 13.7148 15.0897C13.6551 15.1072 13.5039 15.0861 13.3633 15.3568C13.2051 15.4166 13.1313 15.392 13.0117 15.5713C12.959 15.4025 12.8816 15.5713 12.7902 15.6416C12.6953 15.7049 12.5723 15.8666 12.5547 15.8596C12.5582 15.8139 12.6109 15.6416 12.6109 15.6416L12.3051 15.7119H12.2699C12.2418 15.7154 12.2488 15.5115 12.1926 15.5186C12.1328 15.5291 11.9676 15.7752 11.9113 15.7858C11.8551 15.7928 11.8375 15.7049 11.7883 15.7154C11.7391 15.719 11.6441 15.9756 11.6125 15.9826C11.5773 15.9897 11.4367 15.8279 11.3207 15.849C10.716 16.0881 10.6211 15.3779 10.5262 15.7787C10.3996 15.7049 10.4207 15.7471 10.2941 15.7858C10.2133 15.8104 10.2063 15.6627 10.1324 15.6662C9.98477 15.6697 9.9918 15.8244 9.91445 15.7787C9.85117 15.4553 9.45742 15.515 9.41875 15.3744C9.38711 15.2338 9.5875 15.2338 9.6543 15.1354C9.70352 14.9947 9.60156 14.942 9.80547 14.8049C10.0656 14.6045 9.91445 14.5307 9.96016 14.3795C10.0445 14.1615 10.0445 14.1088 9.97422 13.9154C9.97422 13.9154 9.77031 13.2967 9.72813 13.2967C9.60859 13.258 9.60859 13.5252 9.4293 13.599C9.06016 13.7361 8.40977 13.2475 8.29727 13.2475C8.1918 13.251 7.71719 13.3775 7.73477 13.1068C7.66445 13.3705 7.39727 13.1701 7.3832 13.1701C7.13711 13.1701 7.23203 13.3811 7.0668 13.374C6.99297 13.3459 6.23711 13.2967 6.23711 13.2967V13.4373L5.74492 13.1561L5.31602 13.019C4.95039 12.8818 5.1332 12.5373 4.52148 12.7447V12.3299H4.21563C4.33516 11.5037 4.21562 11.9186 4.15234 11.1592L3.90625 11.2295C3.66016 10.8533 4.24727 10.9272 3.72344 10.674C3.72344 10.674 3.73398 10.2627 3.60039 10.3998C3.57578 10.4174 3.66367 10.6072 3.66367 10.6072C3.17148 10.5369 3.04844 10.3998 3.04844 9.84786C3.04844 9.84786 3.45273 9.91466 3.41758 9.84786C3.36133 9.74239 3.28398 9.07442 3.29805 9.02872C3.29102 8.93731 3.67422 8.7088 3.60039 8.49083C3.64609 8.46974 3.78672 8.46973 3.78672 8.46973Z" fill="white"/>
<path id="Vector_3" d="M16.2512 10.4765C16.233 10.5208 16.236 10.565 16.2542 10.599C16.2874 10.5412 16.2602 10.5174 16.2542 10.4765H16.2512ZM1.85608 5.39364C1.85608 5.39364 1.76535 5.38003 1.7835 5.47189C1.81374 5.40384 1.85305 5.39704 1.85608 5.39364ZM1.84701 5.17589C1.7956 5.17589 1.73209 5.16909 1.75628 5.26095C1.78652 5.1895 1.84701 5.1793 1.84701 5.17589ZM2.23108 6.4109C2.23108 6.4109 2.3097 6.40409 2.29156 6.49595C2.26132 6.42791 2.23108 6.4143 2.23108 6.4109Z" stroke="white" stroke-width="2.28098" stroke-linejoin="round"/>
</g>
<defs>
<clipPath id="clip0_186_5150">
<rect width="18" height="18" fill="white"/>
</clipPath>
</defs>
</svg>
