<svg width="18" height="18" viewBox="0 0 18 18" fill="none" xmlns="http://www.w3.org/2000/svg">
<g id="ar" clip-path="url(#clip0_186_5151)">
<path id="Vector" d="M0 0H18V18H0V0Z" fill="#74ACDF"/>
<path id="Vector_2" d="M0 6.00195H18V12.0031H0V6.00195Z" fill="white"/>
<g id="ar-c">
<g id="ar-a">
<path d="M8.88477 9.04837L9.91077 11.2804C9.91077 11.2804 9.92877 11.3236 9.95757 11.3128C9.98637 11.2984 9.96837 11.2552 9.96837 11.2552L9.11517 8.95117M9.08997 9.82237C9.07557 10.1608 9.28437 10.348 9.25917 10.6504C9.23037 10.9564 9.39597 11.1256 9.43917 11.2444C9.47517 11.3632 9.39597 11.4316 9.42837 11.4496C9.46437 11.4676 9.53637 11.374 9.51477 11.2048C9.48957 11.0392 9.36357 10.9888 9.39237 10.618C9.42117 10.2472 9.24117 10.1608 9.28437 9.82597" fill="#F6B40E"/>
<path d="M8.88477 9.04837L9.91077 11.2804C9.91077 11.2804 9.92877 11.3236 9.95757 11.3128C9.98637 11.2984 9.96837 11.2552 9.96837 11.2552L9.11517 8.95117M9.08997 9.82237C9.07557 10.1608 9.28437 10.348 9.25917 10.6504C9.23037 10.9564 9.39597 11.1256 9.43917 11.2444C9.47517 11.3632 9.39597 11.4316 9.42837 11.4496C9.46437 11.4676 9.53637 11.374 9.51477 11.2048C9.48957 11.0392 9.36357 10.9888 9.39237 10.618C9.42117 10.2472 9.24117 10.1608 9.28437 9.82597" stroke="#85340A" stroke-width="1.1264"/>
</g>
<g id="ar-a_2">
<path d="M8.87589 8.99996L8.96964 11.4547C8.96964 11.4547 8.96974 11.5015 9.00048 11.5025C9.0326 11.5003 9.0325 11.4535 9.0325 11.4535L9.12595 8.99833M8.76927 9.79357C8.62647 10.1007 8.74774 10.3536 8.60873 10.6233C8.46502 10.895 8.55327 11.1147 8.54772 11.241C8.53551 11.3645 8.43617 11.3974 8.45921 11.4264C8.48558 11.4568 8.58792 11.3979 8.63271 11.2333C8.67281 11.0707 8.57568 10.9759 8.74419 10.6443C8.9127 10.3128 8.77946 10.1641 8.9475 9.87129" fill="#F6B40E"/>
<path d="M8.87589 8.99996L8.96964 11.4547C8.96964 11.4547 8.96974 11.5015 9.00048 11.5025C9.0326 11.5003 9.0325 11.4535 9.0325 11.4535L9.12595 8.99833M8.76927 9.79357C8.62647 10.1007 8.74774 10.3536 8.60873 10.6233C8.46502 10.895 8.55327 11.1147 8.54772 11.241C8.53551 11.3645 8.43617 11.3974 8.45921 11.4264C8.48558 11.4568 8.58792 11.3979 8.63271 11.2333C8.67281 11.0707 8.57568 10.9759 8.74419 10.6443C8.9127 10.3128 8.77946 10.1641 8.9475 9.87129" stroke="#85340A" stroke-width="1.1264"/>
</g>
<g id="ar-a_3">
<path d="M8.88537 8.95154L8.0326 11.2553C8.0326 11.2553 8.01478 11.2986 8.04278 11.3113C8.07333 11.3215 8.09115 11.2782 8.09115 11.2782L9.11702 9.04573M8.48317 9.64394C8.2337 9.87304 8.24898 10.1531 8.01733 10.3491C7.78059 10.5451 7.77804 10.7818 7.72459 10.8964C7.66604 11.0058 7.56167 10.9982 7.57185 11.0338C7.58458 11.072 7.70167 11.0567 7.80604 10.9218C7.90532 10.7869 7.85186 10.6622 8.13442 10.4203C8.41698 10.1785 8.3508 9.99014 8.61808 9.78395" fill="#F6B40E"/>
<path d="M8.88537 8.95154L8.0326 11.2553C8.0326 11.2553 8.01478 11.2986 8.04278 11.3113C8.07333 11.3215 8.09115 11.2782 8.09115 11.2782L9.11702 9.04573M8.48317 9.64394C8.2337 9.87304 8.24898 10.1531 8.01733 10.3491C7.78059 10.5451 7.77804 10.7818 7.72459 10.8964C7.66604 11.0058 7.56167 10.9982 7.57185 11.0338C7.58458 11.072 7.70167 11.0567 7.80604 10.9218C7.90532 10.7869 7.85186 10.6622 8.13442 10.4203C8.41698 10.1785 8.3508 9.99014 8.61808 9.78395" stroke="#85340A" stroke-width="1.1264"/>
</g>
<g id="ar-a_4">
<path d="M8.91313 8.9122L7.24366 10.7142C7.24366 10.7142 7.21064 10.7474 7.23164 10.7699C7.25596 10.791 7.28899 10.7578 7.28899 10.7578L9.0911 9.08786M8.27657 9.39797C7.95842 9.51417 7.86538 9.77872 7.57635 9.87116C7.28262 9.96165 7.18967 10.1794 7.09645 10.2648C7.00047 10.3435 6.90697 10.2965 6.90274 10.3333C6.89988 10.3735 7.01391 10.4042 7.16197 10.3195C7.30532 10.2328 7.30366 10.0971 7.65726 9.98182C8.01085 9.86653 8.02179 9.66716 8.34764 9.57895" fill="#F6B40E"/>
<path d="M8.91313 8.9122L7.24366 10.7142C7.24366 10.7142 7.21064 10.7474 7.23164 10.7699C7.25596 10.791 7.28899 10.7578 7.28899 10.7578L9.0911 9.08786M8.27657 9.39797C7.95842 9.51417 7.86538 9.77872 7.57635 9.87116C7.28262 9.96165 7.18967 10.1794 7.09645 10.2648C7.00047 10.3435 6.90697 10.2965 6.90274 10.3333C6.89988 10.3735 7.01391 10.4042 7.16197 10.3195C7.30532 10.2328 7.30366 10.0971 7.65726 9.98182C8.01085 9.86653 8.02179 9.66716 8.34764 9.57895" stroke="#85340A" stroke-width="1.1264"/>
</g>
<path id="ar-b" d="M9.15478 9.87852C9.17278 10.2025 9.35638 10.3465 9.32038 10.6453C9.39958 10.4113 9.20878 10.2277 9.21958 9.88212M8.94238 9.02532L9.64438 10.5589L9.05758 8.97852" fill="#85340A"/>
<path id="ar-b_2" d="M8.80689 9.87176C8.69954 10.178 8.81405 10.3813 8.66645 10.6436C8.82917 10.4577 8.72315 10.215 8.86539 9.89988M8.93717 9.00222L8.99885 10.6877L9.06151 9.00307" fill="#85340A"/>
<path id="ar-b_3" d="M8.4884 9.7319C8.27203 9.97373 8.30003 10.2054 8.06329 10.3912C8.28476 10.2817 8.27966 10.017 8.53168 9.78026M8.94152 8.97841L8.35349 10.5592L9.05607 9.02677" fill="#85340A"/>
<path id="ar-b_4" d="M8.24784 9.4801C7.95539 9.62072 7.89261 9.84545 7.60278 9.92654C7.84927 9.91016 7.94588 9.66362 8.26931 9.54135M8.95481 8.95736L7.80659 10.1928L9.04213 9.04588" fill="#85340A"/>
</g>
<g id="ar-c_2">
<g id="ar-a_5">
<path d="M8.95358 8.88477L6.72158 9.91077C6.72158 9.91077 6.67838 9.92877 6.68918 9.95757C6.70358 9.98637 6.74678 9.96837 6.74678 9.96837L9.05078 9.11517M8.17958 9.08997C7.84118 9.07557 7.65398 9.28437 7.35158 9.25917C7.04558 9.23037 6.87638 9.39597 6.75758 9.43917C6.63878 9.47517 6.57038 9.39597 6.55238 9.42837C6.53438 9.46437 6.62798 9.53637 6.79718 9.51477C6.96278 9.48957 7.01318 9.36357 7.38398 9.39237C7.75478 9.42117 7.84118 9.24117 8.17598 9.28437" fill="#F6B40E"/>
<path d="M8.95358 8.88477L6.72158 9.91077C6.72158 9.91077 6.67838 9.92877 6.68918 9.95757C6.70358 9.98637 6.74678 9.96837 6.74678 9.96837L9.05078 9.11517M8.17958 9.08997C7.84118 9.07557 7.65398 9.28437 7.35158 9.25917C7.04558 9.23037 6.87638 9.39597 6.75758 9.43917C6.63878 9.47517 6.57038 9.39597 6.55238 9.42837C6.53438 9.46437 6.62798 9.53637 6.79718 9.51477C6.96278 9.48957 7.01318 9.36357 7.38398 9.39237C7.75478 9.42117 7.84118 9.24117 8.17598 9.28437" stroke="#85340A" stroke-width="1.1264"/>
</g>
<g id="ar-a_6">
<path d="M9.00102 8.87491L6.54629 8.96866C6.54629 8.96866 6.49949 8.96876 6.49844 8.9995C6.50073 9.03162 6.54753 9.03152 6.54753 9.03152L9.00265 9.12497M8.20741 8.7683C7.90028 8.62549 7.64743 8.74676 7.37769 8.60776C7.106 8.46405 6.88631 8.55229 6.76002 8.54674C6.63649 8.53454 6.6036 8.43519 6.57457 8.45823C6.54417 8.48461 6.60309 8.58694 6.76767 8.63174C6.93031 8.67183 7.02509 8.57471 7.35665 8.74321C7.6882 8.91172 7.83691 8.77849 8.12969 8.94652" fill="#F6B40E"/>
<path d="M9.00102 8.87491L6.54629 8.96866C6.54629 8.96866 6.49949 8.96876 6.49844 8.9995C6.50073 9.03162 6.54753 9.03152 6.54753 9.03152L9.00265 9.12497M8.20741 8.7683C7.90028 8.62549 7.64743 8.74676 7.37769 8.60776C7.106 8.46405 6.88631 8.55229 6.76002 8.54674C6.63649 8.53454 6.6036 8.43519 6.57457 8.45823C6.54417 8.48461 6.60309 8.58694 6.76767 8.63174C6.93031 8.67183 7.02509 8.57471 7.35665 8.74321C7.6882 8.91172 7.83691 8.77849 8.12969 8.94652" stroke="#85340A" stroke-width="1.1264"/>
</g>
<g id="ar-a_7">
<path d="M9.04846 8.88439L6.7447 8.03162C6.7447 8.03162 6.70143 8.0138 6.6887 8.04181C6.67852 8.07235 6.72179 8.09017 6.72179 8.09017L8.95427 9.11604M8.35606 8.48219C8.12696 8.23273 7.84694 8.248 7.65093 8.01635C7.45492 7.77961 7.21818 7.77707 7.10363 7.72361C6.99417 7.66506 7.00181 7.56069 6.96617 7.57087C6.92798 7.5836 6.94326 7.7007 7.07817 7.80507C7.21309 7.90434 7.33782 7.85089 7.57965 8.13345C7.82149 8.41601 8.00986 8.34982 8.21605 8.61711" fill="#F6B40E"/>
<path d="M9.04846 8.88439L6.7447 8.03162C6.7447 8.03162 6.70143 8.0138 6.6887 8.04181C6.67852 8.07235 6.72179 8.09017 6.72179 8.09017L8.95427 9.11604M8.35606 8.48219C8.12696 8.23273 7.84694 8.248 7.65093 8.01635C7.45492 7.77961 7.21818 7.77707 7.10363 7.72361C6.99417 7.66506 7.00181 7.56069 6.96617 7.57087C6.92798 7.5836 6.94326 7.7007 7.07817 7.80507C7.21309 7.90434 7.33782 7.85089 7.57965 8.13345C7.82149 8.41601 8.00986 8.34982 8.21605 8.61711" stroke="#85340A" stroke-width="1.1264"/>
</g>
<g id="ar-a_8">
<path d="M9.08878 8.91215L7.28673 7.24269C7.28673 7.24269 7.25357 7.20966 7.23109 7.23066C7.21 7.25499 7.24316 7.28801 7.24316 7.28801L8.91311 9.09012M8.603 8.2756C8.48681 7.95745 8.22226 7.8644 8.12982 7.57537C8.03933 7.28165 7.82158 7.1887 7.73621 7.09547C7.65749 6.99949 7.70448 6.90599 7.66766 6.90176C7.62751 6.89891 7.59681 7.01293 7.68152 7.16099C7.76817 7.30434 7.90387 7.30269 8.01916 7.65628C8.13445 8.00988 8.33381 8.02082 8.42202 8.34666" fill="#F6B40E"/>
<path d="M9.08878 8.91215L7.28673 7.24269C7.28673 7.24269 7.25357 7.20966 7.23109 7.23066C7.21 7.25499 7.24316 7.28801 7.24316 7.28801L8.91311 9.09012M8.603 8.2756C8.48681 7.95745 8.22226 7.8644 8.12982 7.57537C8.03933 7.28165 7.82158 7.1887 7.73621 7.09547C7.65749 6.99949 7.70448 6.90599 7.66766 6.90176C7.62751 6.89891 7.59681 7.01293 7.68152 7.16099C7.76817 7.30434 7.90387 7.30269 8.01916 7.65628C8.13445 8.00988 8.33381 8.02082 8.42202 8.34666" stroke="#85340A" stroke-width="1.1264"/>
</g>
<path id="ar-b_5" d="M8.12148 9.15381C7.79748 9.17181 7.65348 9.35541 7.35468 9.31941C7.58868 9.39861 7.77228 9.20781 8.11788 9.21861M8.97468 8.94141L7.44108 9.64341L9.02148 9.05661" fill="#85340A"/>
<path id="ar-b_6" d="M8.12922 8.80689C7.82299 8.69954 7.61969 8.81405 7.35741 8.66645C7.54329 8.82917 7.78593 8.72315 8.10109 8.86539M8.99875 8.93717L7.31325 8.99885L8.99791 9.06151" fill="#85340A"/>
<path id="ar-b_7" d="M8.27006 8.4884C8.02822 8.27203 7.79658 8.30003 7.61075 8.06329C7.72021 8.28476 7.98495 8.27966 8.22169 8.53168M9.02355 8.94152L7.44274 8.35349L8.97518 9.05607" fill="#85340A"/>
<path id="ar-b_8" d="M8.52088 8.24784C8.38026 7.95539 8.15553 7.89261 8.07444 7.60278C8.09082 7.84927 8.33735 7.94588 8.45963 8.26931M9.04361 8.95481L7.80817 7.80659L8.95509 9.04213" fill="#85340A"/>
</g>
<g id="ar-c_3">
<g id="ar-a_9">
<path d="M9.11523 8.95163L8.08923 6.71963C8.08923 6.71963 8.07123 6.67643 8.04243 6.68723C8.01363 6.70163 8.03163 6.74483 8.03163 6.74483L8.88483 9.04883M8.91003 8.17763C8.92443 7.83923 8.71563 7.65203 8.74083 7.34963C8.76963 7.04363 8.60403 6.87443 8.56083 6.75563C8.52483 6.63683 8.60403 6.56843 8.57163 6.55043C8.53563 6.53243 8.46363 6.62603 8.48523 6.79523C8.51043 6.96083 8.63643 7.01123 8.60763 7.38203C8.57883 7.75283 8.75883 7.83923 8.71563 8.17403" fill="#F6B40E"/>
<path d="M9.11523 8.95163L8.08923 6.71963C8.08923 6.71963 8.07123 6.67643 8.04243 6.68723C8.01363 6.70163 8.03163 6.74483 8.03163 6.74483L8.88483 9.04883M8.91003 8.17763C8.92443 7.83923 8.71563 7.65203 8.74083 7.34963C8.76963 7.04363 8.60403 6.87443 8.56083 6.75563C8.52483 6.63683 8.60403 6.56843 8.57163 6.55043C8.53563 6.53243 8.46363 6.62603 8.48523 6.79523C8.51043 6.96083 8.63643 7.01123 8.60763 7.38203C8.57883 7.75283 8.75883 7.83923 8.71563 8.17403" stroke="#85340A" stroke-width="1.1264"/>
</g>
<g id="ar-a_10">
<path d="M9.12411 9.00004L9.03036 6.54531C9.03036 6.54531 9.03026 6.49851 8.99952 6.49747C8.9674 6.49975 8.9675 6.54655 8.9675 6.54655L8.87405 9.00167M9.23073 8.20643C9.37353 7.8993 9.25226 7.64645 9.39127 7.37671C9.53498 7.10503 9.44673 6.88533 9.45228 6.75904C9.46449 6.63551 9.56383 6.60263 9.54079 6.5736C9.51442 6.54319 9.41208 6.60211 9.36729 6.7667C9.32719 6.92934 9.42432 7.02412 9.25581 7.35567C9.0873 7.68722 9.22054 7.83593 9.0525 8.12871" fill="#F6B40E"/>
<path d="M9.12411 9.00004L9.03036 6.54531C9.03036 6.54531 9.03026 6.49851 8.99952 6.49747C8.9674 6.49975 8.9675 6.54655 8.9675 6.54655L8.87405 9.00167M9.23073 8.20643C9.37353 7.8993 9.25226 7.64645 9.39127 7.37671C9.53498 7.10503 9.44673 6.88533 9.45228 6.75904C9.46449 6.63551 9.56383 6.60263 9.54079 6.5736C9.51442 6.54319 9.41208 6.60211 9.36729 6.7667C9.32719 6.92934 9.42432 7.02412 9.25581 7.35567C9.0873 7.68722 9.22054 7.83593 9.0525 8.12871" stroke="#85340A" stroke-width="1.1264"/>
</g>
<g id="ar-a_11">
<path d="M9.11463 9.04846L9.9674 6.7447C9.9674 6.7447 9.98522 6.70143 9.95722 6.6887C9.92667 6.67852 9.90885 6.72179 9.90885 6.72179L8.88298 8.95427M9.51683 8.35606C9.7663 8.12696 9.75102 7.84694 9.98267 7.65093C10.2194 7.45492 10.222 7.21818 10.2754 7.10363C10.334 6.99417 10.4383 7.00181 10.4282 6.96617C10.4154 6.92798 10.2983 6.94326 10.194 7.07817C10.0947 7.21309 10.1481 7.33782 9.86558 7.57965C9.58302 7.82149 9.6492 8.00986 9.38192 8.21605" fill="#F6B40E"/>
<path d="M9.11463 9.04846L9.9674 6.7447C9.9674 6.7447 9.98522 6.70143 9.95722 6.6887C9.92667 6.67852 9.90885 6.72179 9.90885 6.72179L8.88298 8.95427M9.51683 8.35606C9.7663 8.12696 9.75102 7.84694 9.98267 7.65093C10.2194 7.45492 10.222 7.21818 10.2754 7.10363C10.334 6.99417 10.4383 7.00181 10.4282 6.96617C10.4154 6.92798 10.2983 6.94326 10.194 7.07817C10.0947 7.21309 10.1481 7.33782 9.86558 7.57965C9.58302 7.82149 9.6492 8.00986 9.38192 8.21605" stroke="#85340A" stroke-width="1.1264"/>
</g>
<g id="ar-a_12">
<path d="M9.08687 9.0878L10.7563 7.28575C10.7563 7.28575 10.7894 7.25259 10.7684 7.23012C10.744 7.20902 10.711 7.24218 10.711 7.24218L8.9089 8.91214M9.72343 8.60203C10.0416 8.48583 10.1346 8.22128 10.4236 8.12884C10.7174 8.03835 10.8103 7.82061 10.9036 7.73523C10.9995 7.65651 11.093 7.7035 11.0973 7.66668C11.1001 7.62653 10.9861 7.59583 10.838 7.68054C10.6947 7.76719 10.6963 7.90289 10.3427 8.01818C9.98915 8.13347 9.97821 8.33284 9.65236 8.42105" fill="#F6B40E"/>
<path d="M9.08687 9.0878L10.7563 7.28575C10.7563 7.28575 10.7894 7.25259 10.7684 7.23012C10.744 7.20902 10.711 7.24218 10.711 7.24218L8.9089 8.91214M9.72343 8.60203C10.0416 8.48583 10.1346 8.22128 10.4236 8.12884C10.7174 8.03835 10.8103 7.82061 10.9036 7.73523C10.9995 7.65651 11.093 7.7035 11.0973 7.66668C11.1001 7.62653 10.9861 7.59583 10.838 7.68054C10.6947 7.76719 10.6963 7.90289 10.3427 8.01818C9.98915 8.13347 9.97821 8.33284 9.65236 8.42105" stroke="#85340A" stroke-width="1.1264"/>
</g>
<path id="ar-b_9" d="M8.84522 8.12148C8.82722 7.79748 8.64362 7.65348 8.67962 7.35468C8.60042 7.58868 8.79122 7.77228 8.78042 8.11788M9.05762 8.97468L8.35562 7.44108L8.94242 9.02148" fill="#85340A"/>
<path id="ar-b_10" d="M9.19311 8.12824C9.30046 7.82202 9.18595 7.61872 9.33355 7.35644C9.17083 7.54232 9.27685 7.78496 9.13461 8.10012M9.06283 8.99778L9.00115 7.31227L8.93849 8.99693" fill="#85340A"/>
<path id="ar-b_11" d="M9.5116 8.2681C9.72797 8.02627 9.69997 7.79462 9.93671 7.6088C9.71524 7.71826 9.72034 7.983 9.46832 8.21974M9.05848 9.02159L9.64651 7.44079L8.94393 8.97323" fill="#85340A"/>
<path id="ar-b_12" d="M9.75216 8.5199C10.0446 8.37928 10.1074 8.15455 10.3972 8.07346C10.1507 8.08984 10.0541 8.33638 9.73069 8.45865M9.04519 9.04264L10.1934 7.80719L8.95787 8.95412" fill="#85340A"/>
</g>
<g id="ar-c_4">
<g id="ar-a_13">
<path d="M9.04642 9.11523L11.2784 8.08923C11.2784 8.08923 11.3216 8.07123 11.3108 8.04243C11.2964 8.01363 11.2532 8.03163 11.2532 8.03163L8.94922 8.88483M9.82042 8.91003C10.1588 8.92443 10.346 8.71563 10.6484 8.74083C10.9544 8.76963 11.1236 8.60403 11.2424 8.56083C11.3612 8.52483 11.4296 8.60403 11.4476 8.57163C11.4656 8.53563 11.372 8.46363 11.2028 8.48523C11.0372 8.51043 10.9868 8.63643 10.616 8.60763C10.2452 8.57883 10.1588 8.75883 9.82402 8.71563" fill="#F6B40E"/>
<path d="M9.04642 9.11523L11.2784 8.08923C11.2784 8.08923 11.3216 8.07123 11.3108 8.04243C11.2964 8.01363 11.2532 8.03163 11.2532 8.03163L8.94922 8.88483M9.82042 8.91003C10.1588 8.92443 10.346 8.71563 10.6484 8.74083C10.9544 8.76963 11.1236 8.60403 11.2424 8.56083C11.3612 8.52483 11.4296 8.60403 11.4476 8.57163C11.4656 8.53563 11.372 8.46363 11.2028 8.48523C11.0372 8.51043 10.9868 8.63643 10.616 8.60763C10.2452 8.57883 10.1588 8.75883 9.82402 8.71563" stroke="#85340A" stroke-width="1.1264"/>
</g>
<g id="ar-a_14">
<path d="M8.99898 9.12509L11.4537 9.03134C11.4537 9.03134 11.5005 9.03124 11.5016 9.0005C11.4993 8.96838 11.4525 8.96848 11.4525 8.96848L8.99735 8.87503M9.79259 9.2317C10.0997 9.37451 10.3526 9.25324 10.6223 9.39224C10.894 9.53595 11.1137 9.44771 11.24 9.45326C11.3635 9.46546 11.3964 9.56481 11.4254 9.54177C11.4558 9.51539 11.3969 9.41306 11.2323 9.36826C11.0697 9.32817 10.9749 9.42529 10.6434 9.25679C10.3118 9.08828 10.1631 9.22151 9.87031 9.05348" fill="#F6B40E"/>
<path d="M8.99898 9.12509L11.4537 9.03134C11.4537 9.03134 11.5005 9.03124 11.5016 9.0005C11.4993 8.96838 11.4525 8.96848 11.4525 8.96848L8.99735 8.87503M9.79259 9.2317C10.0997 9.37451 10.3526 9.25324 10.6223 9.39224C10.894 9.53595 11.1137 9.44771 11.24 9.45326C11.3635 9.46546 11.3964 9.56481 11.4254 9.54177C11.4558 9.51539 11.3969 9.41306 11.2323 9.36826C11.0697 9.32817 10.9749 9.42529 10.6434 9.25679C10.3118 9.08828 10.1631 9.22151 9.87031 9.05348" stroke="#85340A" stroke-width="1.1264"/>
</g>
<g id="ar-a_15">
<path d="M8.95154 9.11561L11.2553 9.96838C11.2553 9.96838 11.2986 9.9862 11.3113 9.95819C11.3215 9.92765 11.2782 9.90983 11.2782 9.90983L9.04573 8.88396M9.64394 9.51781C9.87304 9.76727 10.1531 9.752 10.3491 9.98365C10.5451 10.2204 10.7818 10.2229 10.8964 10.2764C11.0058 10.3349 10.9982 10.4393 11.0338 10.4291C11.072 10.4164 11.0567 10.2993 10.9218 10.1949C10.7869 10.0957 10.6622 10.1491 10.4203 9.86655C10.1785 9.58399 9.99014 9.65018 9.78395 9.38289" fill="#F6B40E"/>
<path d="M8.95154 9.11561L11.2553 9.96838C11.2553 9.96838 11.2986 9.9862 11.3113 9.95819C11.3215 9.92765 11.2782 9.90983 11.2782 9.90983L9.04573 8.88396M9.64394 9.51781C9.87304 9.76727 10.1531 9.752 10.3491 9.98365C10.5451 10.2204 10.7818 10.2229 10.8964 10.2764C11.0058 10.3349 10.9982 10.4393 11.0338 10.4291C11.072 10.4164 11.0567 10.2993 10.9218 10.1949C10.7869 10.0957 10.6622 10.1491 10.4203 9.86655C10.1785 9.58399 9.99014 9.65018 9.78395 9.38289" stroke="#85340A" stroke-width="1.1264"/>
</g>
<g id="ar-a_16">
<path d="M8.91122 9.08785L10.7133 10.7573C10.7133 10.7573 10.7464 10.7903 10.7689 10.7693C10.79 10.745 10.7568 10.712 10.7568 10.712L9.08689 8.90988M9.397 9.7244C9.51319 10.0426 9.77774 10.1356 9.87018 10.4246C9.96067 10.7184 10.1784 10.8113 10.2638 10.9045C10.3425 11.0005 10.2955 11.094 10.3323 11.0982C10.3725 11.1011 10.4032 10.9871 10.3185 10.839C10.2318 10.6957 10.0961 10.6973 9.98084 10.3437C9.86555 9.99012 9.66619 9.97918 9.57798 9.65334" fill="#F6B40E"/>
<path d="M8.91122 9.08785L10.7133 10.7573C10.7133 10.7573 10.7464 10.7903 10.7689 10.7693C10.79 10.745 10.7568 10.712 10.7568 10.712L9.08689 8.90988M9.397 9.7244C9.51319 10.0426 9.77774 10.1356 9.87018 10.4246C9.96067 10.7184 10.1784 10.8113 10.2638 10.9045C10.3425 11.0005 10.2955 11.094 10.3323 11.0982C10.3725 11.1011 10.4032 10.9871 10.3185 10.839C10.2318 10.6957 10.0961 10.6973 9.98084 10.3437C9.86555 9.99012 9.66619 9.97918 9.57798 9.65334" stroke="#85340A" stroke-width="1.1264"/>
</g>
<path id="ar-b_13" d="M9.87852 8.84619C10.2025 8.82819 10.3465 8.64459 10.6453 8.68059C10.4113 8.60139 10.2277 8.79219 9.88212 8.78139M9.02532 9.05859L10.5589 8.35659L8.97852 8.94339" fill="#85340A"/>
<path id="ar-b_14" d="M9.87078 9.19311C10.177 9.30046 10.3803 9.18595 10.6426 9.33355C10.4567 9.17083 10.2141 9.27685 9.89891 9.13461M9.00125 9.06283L10.6868 9.00115L9.00209 8.93849" fill="#85340A"/>
<path id="ar-b_15" d="M9.72994 9.5116C9.97178 9.72797 10.2034 9.69997 10.3893 9.93671C10.2798 9.71524 10.0151 9.72034 9.77831 9.46832M8.97645 9.05848L10.5573 9.64651L9.02482 8.94393" fill="#85340A"/>
<path id="ar-b_16" d="M9.47912 9.75216C9.61974 10.0446 9.84447 10.1074 9.92556 10.3972C9.90918 10.1507 9.66265 10.0541 9.54037 9.73069M8.95639 9.04519L10.1918 10.1934L9.04491 8.95787" fill="#85340A"/>
</g>
<path id="Vector_3" d="M9.00039 9.99883C9.55181 9.99883 9.99883 9.55181 9.99883 9.00039C9.99883 8.44897 9.55181 8.00195 9.00039 8.00195C8.44897 8.00195 8.00195 8.44897 8.00195 9.00039C8.00195 9.55181 8.44897 9.99883 9.00039 9.99883Z" fill="#F6B40E" stroke="#85340A" stroke-width="1.5"/>
<path id="ar-h" d="M9.34121 8.78867C9.2709 8.78867 9.20762 8.8168 9.16895 8.87656C9.24629 8.94688 9.41504 8.95391 9.53106 8.86953C9.50677 8.84334 9.47743 8.82236 9.44479 8.80786C9.41216 8.79335 9.37692 8.78563 9.34121 8.78516V8.78867ZM9.34121 8.80273C9.40801 8.80273 9.46777 8.83086 9.47832 8.8625C9.40098 8.94688 9.27793 8.93984 9.20059 8.87656C9.23574 8.82383 9.28848 8.80273 9.34121 8.80273Z" fill="#843511"/>
<path id="ar-d" d="M9.35542 8.74023C9.25698 8.74023 9.23237 8.76133 9.18667 8.8C9.14096 8.83867 9.11635 8.83164 9.10932 8.83867C9.10229 8.8457 9.10932 8.87031 9.12339 8.86328C9.14096 8.85273 9.1726 8.83867 9.21831 8.8C9.26401 8.76484 9.30971 8.76484 9.35893 8.76484C9.49253 8.76484 9.56987 8.87734 9.58745 8.87031C9.60151 8.86328 9.5101 8.74023 9.35542 8.74023Z" fill="#85340A"/>
<path id="ar-e" d="M9.63281 8.7849C9.45703 8.63022 9.23203 8.60912 9.10898 8.72162C9.08019 8.75991 9.06091 8.8045 9.05273 8.8517C9.03516 8.93959 9.06328 9.03451 9.13359 9.13295C9.12305 9.13295 9.10898 9.13647 9.09844 9.14701C9.03867 9.02748 9.01758 8.90795 9.03867 8.79545L9.06328 8.70756C9.23203 8.56693 9.46406 8.55287 9.63281 8.7849Z" fill="#85340A"/>
<path id="ar-f" d="M9.33789 8.93359C9.37672 8.93359 9.4082 8.90211 9.4082 8.86328C9.4082 8.82445 9.37672 8.79297 9.33789 8.79297C9.29906 8.79297 9.26758 8.82445 9.26758 8.86328C9.26758 8.90211 9.29906 8.93359 9.33789 8.93359Z" fill="#85340A"/>
<path id="ar-g" d="M9.5375 8.9082C9.40742 9.00664 9.27734 8.99961 9.2 8.95391C9.12266 8.9082 9.12266 8.89062 9.14023 8.89062C9.1543 8.89062 9.17187 8.9082 9.23164 8.93984C9.29492 8.96797 9.38633 8.96797 9.54102 8.90469L9.5375 8.9082Z" fill="#85340A"/>
<path id="Vector_4" d="M8.84551 9.14023C8.83373 9.1419 8.82257 9.14652 8.81307 9.15366C8.80357 9.16081 8.79603 9.17025 8.79117 9.1811C8.7863 9.19195 8.78427 9.20386 8.78526 9.21571C8.78625 9.22756 8.79023 9.23897 8.79683 9.24886C8.80342 9.25875 8.81242 9.26681 8.82298 9.27229C8.83354 9.27776 8.84531 9.28046 8.8572 9.28015C8.86908 9.27983 8.8807 9.2765 8.89095 9.27048C8.9012 9.26446 8.90976 9.25593 8.91582 9.2457C8.94395 9.2668 8.9791 9.2668 9.0002 9.2668H9.01074C9.02832 9.2668 9.06699 9.2668 9.0916 9.2457C9.10566 9.26328 9.12676 9.27383 9.14785 9.27383C9.164 9.27225 9.17911 9.26513 9.19061 9.25368C9.20211 9.24224 9.20929 9.22717 9.21095 9.21102C9.2126 9.19488 9.20863 9.17867 9.19969 9.16512C9.19075 9.15158 9.17741 9.14154 9.16191 9.13672C9.17949 9.14375 9.19355 9.16133 9.19355 9.18242C9.19355 9.19501 9.18855 9.20708 9.17965 9.21598C9.17075 9.22488 9.15868 9.22988 9.14609 9.22988C9.13351 9.22988 9.12143 9.22488 9.11253 9.21598C9.10363 9.20708 9.09863 9.19501 9.09863 9.18242C9.09054 9.20096 9.0773 9.21678 9.06047 9.228C9.04364 9.23922 9.02394 9.24537 9.00371 9.2457C8.98378 9.24423 8.96457 9.23762 8.94793 9.22654C8.9313 9.21545 8.91782 9.20025 8.90879 9.18242C8.90879 9.20703 8.8877 9.22813 8.86309 9.22813C8.85096 9.22999 8.8386 9.22696 8.82871 9.21971C8.81882 9.21246 8.81222 9.20157 8.81035 9.18945C8.80849 9.17733 8.81151 9.16497 8.81877 9.15508C8.82602 9.14519 8.8369 9.13858 8.84902 9.13672L8.84551 9.14023ZM8.92285 9.34414C8.84551 9.34414 8.81738 9.41445 8.74707 9.46016C8.78223 9.44258 8.81738 9.41445 8.87012 9.38281C8.92285 9.35117 8.96855 9.38984 9.0002 9.38984C9.03184 9.38984 9.07754 9.35117 9.13027 9.38281C9.18301 9.41445 9.21465 9.44258 9.25332 9.46016C9.18301 9.41094 9.15488 9.34414 9.07754 9.34414C9.05065 9.34616 9.02439 9.35332 9.0002 9.36523C8.96504 9.35117 8.93691 9.34414 8.92285 9.34414Z" fill="#85340A"/>
<path id="Vector_5" d="M8.89414 9.43164C8.86602 9.43164 8.82383 9.44219 8.76758 9.45977C8.9082 9.42461 8.93633 9.47383 8.99961 9.47383C9.05938 9.47383 9.09102 9.42813 9.23164 9.45977C9.07695 9.41055 9.04531 9.44219 8.99961 9.44219C8.96797 9.44219 8.94688 9.43164 8.89414 9.43164Z" fill="#85340A"/>
<path id="Vector_6" d="M8.7752 9.45703H8.74707C8.90879 9.47461 8.83145 9.56602 9.0002 9.56602C9.16895 9.56602 9.0916 9.47461 9.25332 9.46055C9.08457 9.44297 9.1373 9.54492 9.0002 9.54492C8.87012 9.54492 8.90879 9.45703 8.7752 9.45703Z" fill="#85340A"/>
<path id="ar-e_2" d="M8.37793 8.7849C8.55371 8.63022 8.77871 8.60912 8.90176 8.72162C8.93055 8.75991 8.94983 8.8045 8.95801 8.8517C8.97559 8.93959 8.94746 9.03451 8.87715 9.13295C8.8877 9.13295 8.90176 9.13647 8.9123 9.14701C8.97207 9.02748 8.99316 8.90795 8.97207 8.79545L8.94746 8.70756C8.77871 8.56693 8.54668 8.55287 8.37793 8.7849Z" fill="#85340A"/>
<path id="ar-d_2" d="M8.65532 8.74023C8.75376 8.74023 8.77837 8.76133 8.82408 8.8C8.86978 8.83867 8.89439 8.83164 8.90142 8.83867C8.90845 8.8457 8.90142 8.87031 8.88736 8.86328C8.86978 8.85273 8.83814 8.83867 8.79243 8.8C8.74673 8.76484 8.70103 8.76484 8.65181 8.76484C8.51822 8.76484 8.44087 8.87734 8.42329 8.87031C8.40923 8.86328 8.50064 8.74023 8.65532 8.74023Z" fill="#85340A"/>
<path id="ar-h_2" d="M8.65176 8.78867C8.58145 8.78867 8.51816 8.8168 8.47949 8.87656C8.55684 8.94688 8.72559 8.95391 8.8416 8.86953C8.81732 8.84334 8.78797 8.82236 8.75534 8.80786C8.72271 8.79335 8.68747 8.78563 8.65176 8.78516V8.78867ZM8.65176 8.80273C8.71856 8.80273 8.77832 8.83086 8.78887 8.8625C8.71152 8.94688 8.58848 8.93984 8.51113 8.87656C8.54629 8.82383 8.59902 8.80273 8.65176 8.80273Z" fill="#843511"/>
<path id="ar-f_2" d="M8.65918 8.93359C8.69801 8.93359 8.72949 8.90211 8.72949 8.86328C8.72949 8.82445 8.69801 8.79297 8.65918 8.79297C8.62035 8.79297 8.58887 8.82445 8.58887 8.86328C8.58887 8.90211 8.62035 8.93359 8.65918 8.93359Z" fill="#85340A"/>
<path id="ar-g_2" d="M8.47227 8.9082C8.60234 9.00664 8.73242 8.99961 8.80977 8.95391C8.88711 8.9082 8.88711 8.89062 8.86953 8.89062C8.85547 8.89062 8.83789 8.9082 8.77813 8.93984C8.71484 8.96797 8.62344 8.96797 8.46875 8.90469L8.47227 8.9082Z" fill="#85340A"/>
</g>
<defs>
<clipPath id="clip0_186_5151">
<rect width="18" height="18" fill="white"/>
</clipPath>
</defs>
</svg>
