<svg width="18" height="18" viewBox="0 0 18 18" fill="none" xmlns="http://www.w3.org/2000/svg">
<g id="arab" clip-path="url(#clip0_186_5152)">
<path id="Vector" d="M0 0V18H18V0H0Z" fill="#006233"/>
<g id="Group">
<path id="Vector_2" fill-rule="evenodd" clip-rule="evenodd" d="M6.73923 9.32422C6.38613 9.80677 6.64107 10.1206 7.00508 10.1429C7.24502 10.1591 7.744 9.83406 7.74264 9.45199L7.6063 9.38252C7.68265 9.57852 7.60358 9.64054 7.44134 9.77452C7.12096 10.0387 6.46657 10.0573 6.73923 9.32422Z" fill="white" stroke="white" stroke-width="0.147963"/>
<path id="Vector_3" fill-rule="evenodd" clip-rule="evenodd" d="M9.53748 10.5886C11.5252 10.6395 12.1578 8.88913 10.9308 7.39062L10.8095 7.55561C10.8885 8.25401 11.0031 8.94248 11.014 9.65824C10.774 9.91502 10.425 9.8195 10.3555 9.53419C10.3596 9.14716 10.2205 8.81967 10.0446 8.50706L9.94648 8.67205C10.061 8.92883 10.1851 9.21786 10.211 9.53419C9.64382 10.1532 9.01669 10.2785 9.24982 9.46472C8.80129 10.178 9.48022 10.6804 10.2491 9.58257C10.4141 10.3318 11.0521 9.86664 11.0903 9.70538C11.1598 9.21414 11.1244 8.42271 10.984 7.79751C11.5375 8.66957 11.5566 9.2985 11.2621 9.71902C10.9349 10.1867 10.2232 10.405 9.53748 10.5886Z" fill="white" stroke="white" stroke-width="0.369908"/>
<path id="Vector_4" fill-rule="evenodd" clip-rule="evenodd" d="M10.665 8.60993C10.2396 8.63846 10.0215 8.55907 10.2519 8.27251C10.4795 7.99216 10.6922 8.21545 10.7495 8.59008C10.8027 8.94114 10.0024 9.38895 9.72563 9.38895C9.30709 9.38895 9.1135 8.89896 9.49932 8.45859C9.00307 9.74373 10.5709 8.9982 10.665 8.60993ZM10.3705 8.31221C10.3187 8.30973 10.2805 8.39284 10.3064 8.40897C10.3814 8.45611 10.5 8.42758 10.5123 8.40401C10.5382 8.35191 10.4427 8.31469 10.3705 8.31221Z" fill="white" stroke="white" stroke-width="0.369908"/>
<path id="Vector_5" fill-rule="evenodd" clip-rule="evenodd" d="M8.35537 9.21689C7.94637 9.94878 8.354 10.2515 8.87888 10.1671C9.18427 10.1162 9.57145 9.919 9.79504 9.64982C9.79913 9.05687 9.78958 8.46887 9.73232 7.89453C9.93682 7.67248 9.7146 7.67372 9.63689 7.43555C9.60145 7.57448 9.51556 7.72458 9.59872 7.8325C9.65734 8.41181 9.69006 8.99856 9.6887 9.59648C9.27697 9.89792 8.9675 10.0096 8.74664 10.0071C8.28993 10.0034 8.19177 9.65354 8.35537 9.21689Z" fill="white" stroke="white" stroke-width="0.369908"/>
<path id="Vector_6" fill-rule="evenodd" clip-rule="evenodd" d="M9.19163 9.41119C9.18481 8.85918 9.17527 8.23273 9.12074 7.84694C9.33342 7.63234 9.10983 7.62737 9.0403 7.38672C8.9994 7.52317 8.90942 7.67203 8.9885 7.78243C9.02394 8.37291 9.05802 8.96338 9.06484 9.55385C9.11392 9.52532 9.16982 9.51416 9.19163 9.41119Z" fill="white" stroke="white" stroke-width="0.369908"/>
<g id="Vector_7">
<path fill-rule="evenodd" clip-rule="evenodd" d="M7.60424 9.38523C7.55244 9.32568 7.51563 9.25869 7.47336 9.20039C7.46655 9.11728 7.5279 9.04037 7.53608 8.99819C7.60561 9.09619 7.64651 9.17062 7.7024 9.219M7.77602 9.25745C7.87827 9.29467 8.0037 9.29467 8.11958 9.29715C8.56675 9.30459 9.0371 9.23761 8.98665 9.78838C8.97192 9.99468 8.87221 10.1883 8.70743 10.3307C8.54266 10.473 8.32495 10.5536 8.09777 10.5562C7.52926 10.5513 7.04392 9.98066 7.92053 8.92996C8.00506 8.91756 8.11549 8.93865 8.20683 8.94609C8.36361 8.95726 8.52449 8.94361 8.70854 8.80964C8.68672 8.46354 8.68672 8.13605 8.64037 7.82345C8.5613 7.71305 8.65128 7.56543 8.69217 7.42773C8.7617 7.66839 8.98393 7.67335 8.77261 7.8892C8.82305 8.23653 8.82851 8.59007 8.82851 8.80095C8.72217 8.94857 8.63901 9.10487 8.32817 9.16442C8.01051 9.12224 7.86736 8.71784 7.53608 8.85182C7.62742 8.48711 8.46859 8.404 8.55312 8.69179C8.49722 8.99199 7.71195 8.87166 7.50336 9.84172C7.43928 10.1407 7.78557 10.4161 8.14139 10.3937C8.48904 10.3727 8.85986 10.1531 8.89667 9.78342C8.9253 9.47454 8.44678 9.51051 8.24637 9.51424C7.95462 9.52044 7.77057 9.4795 7.66014 9.4212M7.95871 8.75258C8.01051 8.70792 8.19184 8.67691 8.25728 8.74885C8.2082 8.77863 8.16048 8.81088 8.12094 8.84933C8.05278 8.81708 8.00779 8.78483 7.95871 8.75258Z" fill="white"/>
<path d="M7.60424 9.38523C7.55244 9.32568 7.51563 9.25869 7.47336 9.20039C7.46655 9.11728 7.5279 9.04037 7.53608 8.99819C7.60561 9.09619 7.64651 9.17062 7.7024 9.219M7.77602 9.25745C7.87827 9.29467 8.0037 9.29467 8.11958 9.29715C8.56675 9.30459 9.0371 9.23761 8.98665 9.78838C8.97192 9.99468 8.87221 10.1883 8.70743 10.3307C8.54266 10.473 8.32495 10.5536 8.09777 10.5562C7.52926 10.5513 7.04392 9.98066 7.92053 8.92996C8.00506 8.91756 8.11549 8.93865 8.20683 8.94609C8.36361 8.95726 8.52449 8.94361 8.70854 8.80964C8.68672 8.46354 8.68672 8.13605 8.64037 7.82345C8.5613 7.71305 8.65128 7.56543 8.69217 7.42773C8.7617 7.66839 8.98393 7.67335 8.77261 7.8892C8.82305 8.23653 8.82851 8.59007 8.82851 8.80095C8.72217 8.94857 8.63901 9.10487 8.32817 9.16442C8.01051 9.12224 7.86736 8.71784 7.53608 8.85182C7.62742 8.48711 8.46859 8.404 8.55312 8.69179C8.49722 8.99199 7.71195 8.87166 7.50336 9.84172C7.43928 10.1407 7.78557 10.4161 8.14139 10.3937C8.48904 10.3727 8.85986 10.1531 8.89667 9.78342C8.9253 9.47454 8.44678 9.51051 8.24637 9.51424C7.95462 9.52044 7.77057 9.4795 7.66014 9.4212M7.95871 8.75258C8.01051 8.70792 8.19184 8.67691 8.25728 8.74885C8.2082 8.77863 8.16048 8.81088 8.12094 8.84933C8.05278 8.81708 8.00779 8.78483 7.95871 8.75258Z" stroke="white" stroke-width="0.147963"/>
</g>
<path id="Vector_8" fill-rule="evenodd" clip-rule="evenodd" d="M8.40337 7.72656C8.44851 7.80741 8.4732 7.89641 8.47563 7.98707C8.44564 8.11608 8.3243 8.23641 8.19887 8.24013C8.12116 8.24261 8.03391 8.22276 7.97256 8.11236C7.96575 8.09871 7.93303 8.06646 7.90167 8.08134C7.76397 8.28726 7.66172 8.3741 7.53766 8.37286C7.28954 8.36914 7.36316 8.16818 7.13412 8.10615C7.03869 8.10367 6.8819 8.19175 6.80147 8.36418C6.49608 9.15189 6.21796 8.36169 6.33657 7.99451C6.3543 8.34557 6.447 8.55397 6.54244 8.54777C6.61196 8.54157 6.67331 8.39519 6.76193 8.24137C6.8301 8.12352 6.9937 7.9114 7.16684 7.9114C7.32498 7.91512 7.22546 8.17934 7.54175 8.17562C7.69444 8.17314 7.83487 8.06646 7.97665 7.85309C8.00801 7.84813 8.01619 7.89899 8.023 7.91636C8.04482 7.98955 8.18388 8.19051 8.37202 8.00691C8.36247 7.96722 8.36656 7.90147 8.31885 7.88783L8.40337 7.72656Z" fill="white" stroke="white" stroke-width="0.369908"/>
<g id="Vector_9">
<path fill-rule="evenodd" clip-rule="evenodd" d="M9.39762 7.07339C9.22993 7.14906 9.10723 7.07959 9.0377 7.01261C9.15904 6.99028 9.25311 6.95058 9.28038 6.86375C9.22584 6.7521 9.09633 6.70373 8.91364 6.70248C8.66961 6.70869 8.54418 6.798 8.52918 6.92081C8.64234 6.92453 8.74459 6.896 8.78821 6.99524C8.58781 7.08456 8.35195 7.11681 8.09565 7.11557C7.67574 7.13542 7.61439 6.96299 7.50396 6.81165C7.49578 6.80172 7.45897 6.7856 7.43989 6.78808C7.31037 6.78808 7.21494 7.19992 7.06906 7.19868C6.92319 7.18131 6.95591 6.93322 6.91364 6.7918C6.8782 7.01385 6.95863 7.84001 7.40989 6.94314C7.42353 6.91337 7.44261 6.92205 7.45488 6.94686C7.57622 7.19744 7.82298 7.28428 8.08883 7.29668C8.31105 7.30784 8.59462 7.21977 8.89865 7.06347C8.97908 7.1441 9.04316 7.2359 9.21221 7.25326C9.40989 7.26195 9.62121 7.13169 9.66892 6.97043C9.69346 6.88732 9.69755 6.72357 9.60076 6.72109C9.46579 6.71737 9.36763 7.01509 9.39898 7.28303C9.40171 7.27931 9.41671 7.21605 9.41671 7.21605M8.81957 6.85879C8.90819 6.82157 8.99408 6.80421 9.06224 6.88608C9.02124 6.89656 8.98251 6.91334 8.94772 6.9357C8.90955 6.90841 8.85774 6.89476 8.81957 6.85879ZM9.47124 7.04362C9.49305 6.95554 9.50532 6.88484 9.5844 6.83894C9.60076 6.93198 9.60348 6.98408 9.47124 7.04362ZM10.0029 7.18007C9.97703 7.1044 9.95113 7.03866 9.94295 6.95678C9.92386 6.79056 10.0806 6.69628 10.2224 6.70993C10.3683 6.72357 10.4651 6.7732 10.6042 6.81661C10.7132 6.85011 10.8605 6.87616 11.0009 6.91213C11.08 6.94438 11.0009 7.02874 10.9804 7.0399C10.6287 7.16519 10.3792 7.36367 10.1556 7.37235C10.022 7.37855 9.90341 7.29916 9.79571 7.13666C9.78889 6.82157 9.77662 6.45191 9.74254 6.21994C9.79435 6.1728 9.80525 6.13806 9.82979 6.09961C9.85706 6.40601 9.86797 6.72854 9.87479 7.05354C9.90341 7.10937 9.93886 7.1565 10.0029 7.18007ZM10.2279 7.20488C10.0397 7.25326 10.0629 7.10812 10.0452 7.01881C10.0248 6.91461 10.0384 6.79676 10.1843 6.82653C10.3738 6.87243 10.5469 6.93322 10.7146 6.99772L10.2279 7.20488Z" fill="white"/>
<path d="M9.39762 7.07339C9.22993 7.14906 9.10723 7.07959 9.0377 7.01261C9.15904 6.99028 9.25311 6.95058 9.28038 6.86375C9.22584 6.7521 9.09633 6.70373 8.91364 6.70248C8.66961 6.70869 8.54418 6.798 8.52918 6.92081C8.64234 6.92453 8.74459 6.896 8.78821 6.99524C8.58781 7.08456 8.35195 7.11681 8.09565 7.11557C7.67574 7.13542 7.61439 6.96299 7.50396 6.81165C7.49578 6.80172 7.45897 6.7856 7.43989 6.78808C7.31037 6.78808 7.21494 7.19992 7.06906 7.19868C6.92319 7.18131 6.95591 6.93322 6.91364 6.7918C6.8782 7.01385 6.95863 7.84001 7.40989 6.94314C7.42353 6.91337 7.44261 6.92205 7.45488 6.94686C7.57622 7.19744 7.82298 7.28428 8.08883 7.29668C8.31105 7.30784 8.59462 7.21977 8.89865 7.06347C8.97908 7.1441 9.04316 7.2359 9.21221 7.25326C9.40989 7.26195 9.62121 7.13169 9.66892 6.97043C9.69346 6.88732 9.69755 6.72357 9.60076 6.72109C9.46579 6.71737 9.36763 7.01509 9.39898 7.28303C9.40171 7.27931 9.41671 7.21605 9.41671 7.21605M8.81957 6.85879C8.90819 6.82157 8.99408 6.80421 9.06224 6.88608C9.02124 6.89656 8.98251 6.91334 8.94772 6.9357C8.90955 6.90841 8.85774 6.89476 8.81957 6.85879ZM9.47124 7.04362C9.49305 6.95554 9.50532 6.88484 9.5844 6.83894C9.60076 6.93198 9.60348 6.98408 9.47124 7.04362ZM10.0029 7.18007C9.97703 7.1044 9.95113 7.03866 9.94295 6.95678C9.92386 6.79056 10.0806 6.69628 10.2224 6.70993C10.3683 6.72357 10.4651 6.7732 10.6042 6.81661C10.7132 6.85011 10.8605 6.87616 11.0009 6.91213C11.08 6.94438 11.0009 7.02874 10.9804 7.0399C10.6287 7.16519 10.3792 7.36367 10.1556 7.37235C10.022 7.37855 9.90341 7.29916 9.79571 7.13666C9.78889 6.82157 9.77662 6.45191 9.74254 6.21994C9.79435 6.1728 9.80525 6.13806 9.82979 6.09961C9.85706 6.40601 9.86797 6.72854 9.87479 7.05354C9.90341 7.10937 9.93886 7.1565 10.0029 7.18007ZM10.2279 7.20488C10.0397 7.25326 10.0629 7.10812 10.0452 7.01881C10.0248 6.91461 10.0384 6.79676 10.1843 6.82653C10.3738 6.87243 10.5469 6.93322 10.7146 6.99772L10.2279 7.20488Z" stroke="white" stroke-width="0.147963"/>
</g>
<g id="Vector_10">
<path fill-rule="evenodd" clip-rule="evenodd" d="M10.043 7.35938L10.0689 7.47474H10.0893L10.0811 7.36682" fill="white"/>
<path d="M10.043 7.35938L10.0689 7.47474H10.0893L10.0811 7.36682" stroke="white" stroke-width="0.147963"/>
</g>
<path id="Vector_11" fill-rule="evenodd" clip-rule="evenodd" d="M7.04252 8.56409L7.13796 8.47478L7.24839 8.56037L7.14614 8.64348L7.04252 8.56409ZM7.2852 8.53432L7.38199 8.44501L7.49242 8.5306L7.39017 8.61371L7.2852 8.53432ZM6.61035 7.60892L6.70715 7.5196L6.81758 7.6052L6.71533 7.68831L6.61035 7.60892ZM6.65398 7.8719L6.75077 7.78259L6.85984 7.86818L6.75759 7.95129L6.65398 7.8719ZM8.40585 8.31227L8.49446 8.24653L8.57626 8.32716L8.48356 8.3867L8.40585 8.31227ZM7.23612 6.62893L7.29883 6.57063L7.37109 6.62645L7.30428 6.68103L7.23612 6.62893ZM7.39563 6.61033L7.45834 6.55078L7.5306 6.60784L7.46379 6.66119L7.39563 6.61033ZM10.7439 7.27647L10.684 7.32236L10.6267 7.26903L10.6894 7.22685L10.7439 7.27647Z" fill="white" stroke="white" stroke-width="1.47963" stroke-linecap="round" stroke-linejoin="round"/>
<path id="Vector_12" fill-rule="evenodd" clip-rule="evenodd" d="M7.92186 8.92383L7.91504 9.02183L8.08682 9.03671L8.22451 8.94244L7.92186 8.92383Z" fill="white" stroke="white" stroke-width="0.147963"/>
<path id="Vector_13" fill-rule="evenodd" clip-rule="evenodd" d="M9.37402 7.09196L9.42447 7.08203L9.41901 7.2098L9.38766 7.22097L9.37402 7.09196Z" fill="white" stroke="white" stroke-width="0.369908"/>
</g>
<path id="Vector_14" d="M8.9998 12.234C10.9334 12.234 12.5084 10.8031 12.5084 9.0418C12.5037 8.57217 12.3912 8.10988 12.1797 7.69054C11.9682 7.27121 11.6633 6.906 11.2885 6.62305C11.7497 7.11043 12.0075 7.75552 12.0092 8.42656C12.0092 9.95586 10.6627 11.1969 8.9998 11.1969C7.33691 11.1969 5.99043 9.95586 5.99043 8.42656C5.99268 7.75497 6.2518 7.10968 6.71465 6.62305C6.33915 6.90564 6.03356 7.27068 5.82144 7.69004C5.60933 8.1094 5.49635 8.57187 5.49121 9.0418C5.49121 10.8031 7.06621 12.2375 8.9998 12.2375V12.234Z" fill="white"/>
<g id="Group_2">
<path id="Vector_15" d="M8.52533 14.01C7.75121 14.3622 6.78356 14.2661 5.96546 13.7859C5.93027 13.7699 5.91268 13.7939 5.94787 13.8819C6.03583 14.1141 6.10621 14.2982 5.84231 14.6423C5.72795 14.7944 5.8599 14.8184 6.05343 14.8024C7.03867 14.7144 8.00632 14.5143 8.47255 14.3462L8.52533 14.01ZM8.50773 14.4262C8.19985 14.5383 7.67204 14.6744 7.08265 14.7704C6.84514 14.8024 6.85394 14.9385 7.27618 14.9865C7.70723 15.0266 8.26142 14.7464 8.5957 14.4983L8.50773 14.4262Z" fill="white" stroke="black" stroke-width="1.90947"/>
<g id="Vector_16">
<path d="M9.00022 13.6587C9.10579 13.6587 9.29931 13.6187 9.49284 13.5947C9.85351 13.5387 9.58961 14.0429 9.00022 14.0429V14.211C9.59841 14.211 10.223 13.6187 10.091 13.3546C9.90629 12.9704 9.39608 13.2985 9.00022 13.2985C8.60437 13.2985 8.09415 12.9704 7.90942 13.3546C7.77747 13.6187 8.40204 14.211 9.00022 14.211V14.0429C8.41084 14.0429 8.14693 13.5387 8.5076 13.5947C8.70113 13.6187 8.89466 13.6587 9.00022 13.6587Z" fill="white"/>
<path d="M9.00022 14.0429C9.58961 14.0429 9.85351 13.5387 9.49284 13.5947C9.29931 13.6187 9.10579 13.6587 9.00022 13.6587C8.89466 13.6587 8.70113 13.6187 8.5076 13.5947C8.14693 13.5387 8.41084 14.0429 9.00022 14.0429ZM9.00022 14.0429V14.211M9.00022 14.211C9.59841 14.211 10.223 13.6187 10.091 13.3546C9.90629 12.9704 9.39608 13.2985 9.00022 13.2985C8.60437 13.2985 8.09415 12.9704 7.90942 13.3546C7.77747 13.6187 8.40204 14.211 9.00022 14.211Z" stroke="black" stroke-width="1.90947"/>
</g>
<path id="Vector_17" d="M9.47565 14.01C10.2498 14.3622 11.2174 14.2661 12.0355 13.7859C12.0707 13.7699 12.0883 13.7939 12.0531 13.8819C11.9651 14.1141 11.8948 14.2982 12.1587 14.6423C12.273 14.7944 12.1411 14.8184 11.9475 14.8024C10.9623 14.7144 9.99466 14.5143 9.52843 14.3462L9.47565 14.01ZM9.49324 14.4262C9.80113 14.5383 10.3201 14.6744 10.9183 14.7704C11.1558 14.8024 11.147 14.9385 10.7248 14.9865C10.2937 15.0266 9.73955 14.7464 9.40527 14.4983L9.49324 14.4262Z" fill="white" stroke="black" stroke-width="1.90947"/>
<path id="Vector_18" d="M9.02692 14.3466C9.04452 14.4827 9.07091 14.7788 9.27323 14.6508C9.54594 14.4827 9.60751 14.3546 9.60751 14.1145C9.60751 13.9624 9.40519 13.7383 9.00053 13.7383C8.59588 13.7383 8.39355 13.9624 8.39355 14.1145C8.39355 14.3546 8.45513 14.4827 8.72783 14.6508C8.93016 14.7788 8.94775 14.4827 8.97414 14.3466C8.98294 14.2986 9.02692 14.3146 9.02692 14.3466Z" fill="white" stroke="black" stroke-width="1.90947"/>
</g>
<g id="Group_3">
<path id="Vector_19" d="M8.74505 4.09246C8.63069 3.50014 7.67184 3.46012 7.52229 3.36407C7.34636 3.26001 7.37275 3.36407 7.43432 3.52415C7.61026 3.94038 8.20844 4.10847 8.48114 4.1565C8.70106 4.18852 8.77144 4.20452 8.74505 4.09246Z" fill="white" stroke="black" stroke-width="1.90947"/>
<path id="Vector_20" d="M9.03501 4.10897C9.13177 3.50063 8.18172 3.21248 8.06736 3.0764C7.93541 2.93232 7.91782 3.02037 7.97939 3.18846C8.09375 3.54866 8.5072 3.97289 8.75351 4.08495C8.95584 4.18101 9.01741 4.22103 9.03501 4.10897Z" fill="white" stroke="black" stroke-width="1.90947"/>
<path id="Vector_21" d="M9.81763 4.46185C9.9056 3.73346 9.13148 3.6214 8.92915 3.38927C8.7972 3.24519 8.7884 3.32523 8.83239 3.49333C8.92036 3.86153 9.30741 4.29376 9.54493 4.42984C9.72966 4.53389 9.80883 4.57392 9.81763 4.46185Z" fill="white" stroke="black" stroke-width="1.90947"/>
<path id="Vector_22" d="M9.58022 4.30047C8.77971 3.82821 8.21672 4.09235 7.988 4.06834C7.76808 4.04433 7.69771 4.1724 8.07597 4.3645C8.5422 4.59663 9.19316 4.56461 9.44827 4.47656C9.71217 4.38051 9.633 4.33248 9.58022 4.30047ZM10.7854 4.62064C10.5391 3.83621 9.96728 3.96428 9.80014 3.86823C9.633 3.77218 9.61541 3.79619 9.65059 3.97229C9.72097 4.28446 10.3104 4.62865 10.6006 4.7327C10.7062 4.76472 10.8382 4.81275 10.7854 4.62064Z" fill="white" stroke="black" stroke-width="1.90947"/>
<path id="Vector_23" d="M10.671 4.75804C9.98482 4.25376 9.44821 4.62997 9.23709 4.57394C9.07875 4.53391 9.14912 4.62997 9.2107 4.66999C9.65054 4.95014 10.1959 5.10222 10.6182 4.92613C10.7853 4.86209 10.7941 4.84608 10.671 4.75804ZM12.1576 5.27032C12.1664 4.77404 11.0404 4.56593 10.8029 4.26176C10.6622 4.07766 10.539 4.17372 10.6094 4.46988C10.7149 4.85409 11.4891 5.27832 11.9113 5.35836C12.1664 5.40639 12.1576 5.32635 12.1576 5.27032Z" fill="white" stroke="black" stroke-width="1.90947"/>
<path id="Vector_24" d="M12.1231 5.35712C11.4105 4.7728 10.8123 4.9649 10.5924 4.90887C10.3725 4.86085 10.2845 4.98091 10.6276 5.22104C11.0499 5.5092 11.7008 5.56523 11.9735 5.5092C12.2462 5.45317 12.1759 5.39714 12.1231 5.35712ZM13.3986 6.21359C13.1963 5.36512 12.5541 5.18903 12.3958 5.02894C12.2462 4.86885 12.0879 4.91688 12.2198 5.30109C12.3782 5.75734 12.8972 6.15756 13.1699 6.25361C13.4338 6.35767 13.4162 6.27762 13.3986 6.21359Z" fill="white" stroke="black" stroke-width="1.90947"/>
<path id="Vector_25" d="M13.3899 6.32666C12.8709 5.56625 12.1936 5.59026 11.9824 5.4862C11.7801 5.37414 11.6394 5.47019 11.9121 5.79837C12.2287 6.19859 12.8797 6.42272 13.1788 6.43872C13.4779 6.45473 13.4251 6.38269 13.3899 6.32666Z" fill="white" stroke="black" stroke-width="1.90947"/>
<path id="Vector_26" d="M14.0581 7.23073C14.3571 6.36625 13.671 6.04608 13.6006 5.902C13.5215 5.75792 13.4423 5.75792 13.3983 5.91001C13.2048 6.52634 13.8293 7.12667 13.9261 7.24674C14.0229 7.3588 14.0405 7.30277 14.0581 7.23073Z" fill="white" stroke="black" stroke-width="1.90947"/>
<path id="Vector_27" d="M13.9174 7.47034C13.6799 6.50181 13.0554 6.55784 12.9146 6.42177C12.7651 6.28569 12.7475 6.38174 12.7739 6.55784C12.8442 7.0301 13.4688 7.35027 13.7503 7.51036C13.8383 7.55839 13.9438 7.61442 13.9174 7.47034ZM14.5156 8.60696C14.9467 7.69446 14.4365 7.07813 14.2781 6.94205C14.1198 6.81398 14.023 6.75795 14.0758 6.94205C14.1462 7.2222 13.8998 7.9426 14.2781 8.47089C14.4013 8.64698 14.4189 8.81507 14.5156 8.60696Z" fill="white" stroke="black" stroke-width="1.90947"/>
<path id="Vector_28" d="M14.2869 8.79207C14.3837 8.23176 14.0318 7.71948 13.6535 7.51937C13.4336 7.39931 13.4248 7.43133 13.4248 7.59942C13.4424 8.1197 13.979 8.55194 14.1373 8.79207C14.2869 9.01619 14.2781 8.8481 14.2869 8.79207Z" fill="white" stroke="black" stroke-width="1.90947"/>
<path id="Vector_29" d="M14.1901 10.2478C13.8734 9.19119 14.5331 8.58285 14.7355 8.46279C14.929 8.33472 15.0522 8.28669 14.9642 8.4868C14.8322 8.78296 14.973 9.60741 14.4716 10.1277C14.3132 10.3038 14.2516 10.4879 14.1901 10.2478Z" fill="white" stroke="black" stroke-width="1.90947"/>
<path id="Vector_30" d="M14.2608 10.0158C14.5247 9.09534 13.9529 8.57505 13.777 8.471C13.6098 8.36694 13.5043 8.32692 13.5835 8.49501C13.689 8.75115 13.5747 9.47154 14.0145 9.91979C14.1552 10.0719 14.208 10.224 14.2608 10.0158Z" fill="white" stroke="black" stroke-width="1.90947"/>
<path id="Vector_31" d="M13.935 9.58443C13.46 10.0487 13.4512 10.7291 13.6623 11.1293C13.7943 11.3614 13.8119 11.3454 13.935 11.1773C14.2693 10.689 14.067 9.98465 14.0846 9.67248C14.0934 9.37632 13.9878 9.53641 13.935 9.58443Z" fill="white" stroke="black" stroke-width="1.90947"/>
<path id="Vector_32" d="M14.7175 10.3195C14.7175 10.9599 14.2864 11.4801 13.829 11.6402C13.5651 11.7283 13.5651 11.7043 13.6003 11.5122C13.7234 10.7918 14.3304 10.5276 14.5503 10.2955C14.7615 10.0714 14.7175 10.2555 14.7175 10.3195Z" fill="white" stroke="black" stroke-width="1.90947"/>
<path id="Vector_33" d="M13.0818 12.2257C13.8559 11.5854 13.4425 11.1371 13.4777 10.7209C13.4953 10.4968 13.3985 10.5528 13.3105 10.6329C12.8179 11.0731 12.7915 11.8575 12.8971 12.1617C12.9411 12.2978 13.0114 12.2818 13.0818 12.2257Z" fill="white" stroke="black" stroke-width="1.90947"/>
<path id="Vector_34" d="M14.12 11.8087C13.8649 12.5131 13.1875 12.9454 12.6157 12.9694C12.2815 12.9854 12.2903 12.9614 12.4046 12.7533C12.8357 12.0008 13.601 11.9128 13.9441 11.7207C14.2607 11.5446 14.1464 11.7367 14.12 11.8087Z" fill="white" stroke="black" stroke-width="1.90947"/>
<path id="Vector_35" d="M12.0177 13.1307C13.0206 12.6745 12.8183 11.9141 13.003 11.7219C13.1349 11.5859 12.9766 11.6019 12.8974 11.6499C12.308 11.9621 11.833 12.4584 11.8242 12.9866C11.8242 13.1867 11.8418 13.2108 12.0177 13.1307Z" fill="white" stroke="black" stroke-width="1.90947"/>
<path id="Vector_36" d="M10.6452 13.978C11.9119 14.1621 12.5013 13.2897 12.8707 13.2096C13.0643 13.1696 12.9235 13.0976 12.8268 13.0896C11.9823 13.0015 10.9091 13.3617 10.5836 13.7619C10.4516 13.922 10.4516 13.954 10.6452 13.978Z" fill="white" stroke="black" stroke-width="1.90947"/>
<path id="Vector_37" d="M11.9295 12.6091C11.6744 13.3695 10.7243 13.9939 10.0118 14.0419C9.67752 14.0659 9.67752 14.0339 9.80067 13.8338C10.3725 12.8893 11.3665 12.7292 11.7184 12.4891C12.0175 12.2809 11.9559 12.5371 11.9295 12.6091ZM9.25527 4.09246C9.36963 3.50014 10.3285 3.46012 10.478 3.36407C10.654 3.26001 10.6276 3.36407 10.566 3.52415C10.3901 3.94038 9.79188 4.10847 9.51918 4.1565C9.29926 4.18852 9.22888 4.20452 9.25527 4.09246Z" fill="white" stroke="black" stroke-width="1.90947"/>
<path id="Vector_38" d="M8.96491 4.10897C8.86815 3.50063 9.8182 3.21248 9.93256 3.0764C10.0645 2.93232 10.0821 3.02037 10.0205 3.18846C9.90617 3.54866 9.49272 3.97289 9.24641 4.08495C9.04409 4.18101 8.98251 4.22103 8.96491 4.10897Z" fill="white" stroke="black" stroke-width="1.90947"/>
<path id="Vector_39" d="M8.18174 4.46185C8.09377 3.73346 8.86789 3.6214 9.07022 3.38927C9.20217 3.24519 9.21097 3.32523 9.16698 3.49333C9.07901 3.86153 8.69195 4.29376 8.45444 4.42984C8.26971 4.53389 8.19054 4.57392 8.18174 4.46185Z" fill="white" stroke="black" stroke-width="1.90947"/>
<path id="Vector_40" d="M8.41933 4.30047C9.21983 3.82821 9.78283 4.09235 10.0115 4.06834C10.2315 4.04433 10.3018 4.1724 9.92358 4.3645C9.45735 4.59663 8.80639 4.56461 8.55128 4.47656C8.28737 4.38051 8.36655 4.33248 8.41933 4.30047ZM7.21416 4.62064C7.46048 3.83621 8.03227 3.96428 8.19941 3.86823C8.36655 3.77218 8.38414 3.79619 8.34895 3.97229C8.27858 4.28446 7.68919 4.62865 7.3989 4.7327C7.29334 4.76472 7.16138 4.81275 7.21416 4.62064Z" fill="white" stroke="black" stroke-width="1.90947"/>
<path id="Vector_41" d="M7.32851 4.75804C8.01466 4.25376 8.55126 4.62997 8.76238 4.57394C8.92073 4.53391 8.85035 4.62997 8.78878 4.66999C8.34894 4.95014 7.80353 5.10222 7.38129 4.92613C7.21415 4.86209 7.20535 4.84608 7.32851 4.75804ZM5.84185 5.27032C5.83305 4.77404 6.95904 4.56593 7.19655 4.26176C7.3373 4.07766 7.46046 4.17372 7.39008 4.46988C7.28452 4.85409 6.5104 5.27832 6.08816 5.35836C5.83305 5.40639 5.84185 5.32635 5.84185 5.27032Z" fill="white" stroke="black" stroke-width="1.90947"/>
<path id="Vector_42" d="M5.87711 5.35712C6.58965 4.7728 7.18783 4.9649 7.40775 4.90887C7.62767 4.86085 7.71564 4.98091 7.37256 5.22104C6.95031 5.5092 6.29935 5.56523 6.02665 5.5092C5.75395 5.45317 5.82432 5.39714 5.87711 5.35712ZM4.60157 6.21359C4.8039 5.36512 5.44606 5.18903 5.60441 5.02894C5.75395 4.86885 5.91229 4.91688 5.78034 5.30109C5.622 5.75734 5.10299 6.15756 4.83029 6.25361C4.56638 6.35767 4.58398 6.27762 4.60157 6.21359Z" fill="white" stroke="black" stroke-width="1.90947"/>
<path id="Vector_43" d="M4.61061 6.32666C5.12962 5.56625 5.80698 5.59026 6.0181 5.4862C6.22043 5.37414 6.36118 5.47019 6.08847 5.79837C5.77179 6.19859 5.12083 6.42272 4.82174 6.43872C4.52264 6.45473 4.57543 6.38269 4.61061 6.32666Z" fill="white" stroke="black" stroke-width="1.90947"/>
<path id="Vector_44" d="M3.94228 7.23073C3.64319 6.36625 4.32934 6.04608 4.39972 5.902C4.47889 5.75792 4.55806 5.75792 4.60204 5.91001C4.79557 6.52634 4.171 7.12667 4.07424 7.24674C3.97747 7.3588 3.95988 7.30277 3.94228 7.23073Z" fill="white" stroke="black" stroke-width="1.90947"/>
<path id="Vector_45" d="M4.08273 7.47034C4.32024 6.50181 4.94481 6.55784 5.08556 6.42177C5.23511 6.28569 5.2527 6.38174 5.22631 6.55784C5.15594 7.0301 4.53136 7.35027 4.24987 7.51036C4.1619 7.55839 4.05634 7.61442 4.08273 7.47034ZM3.48455 8.60696C3.0535 7.69446 3.56372 7.07813 3.72206 6.94205C3.8804 6.81398 3.97717 6.75795 3.92439 6.94205C3.85401 7.2222 4.10032 7.9426 3.72206 8.47089C3.5989 8.64698 3.58131 8.81507 3.48455 8.60696Z" fill="white" stroke="black" stroke-width="1.90947"/>
<path id="Vector_46" d="M3.71349 8.79207C3.61673 8.23176 3.9686 7.71948 4.34686 7.51937C4.56678 7.39931 4.57558 7.43133 4.57558 7.59942C4.55799 8.1197 4.02138 8.55194 3.86304 8.79207C3.71349 9.01619 3.72229 8.8481 3.71349 8.79207Z" fill="white" stroke="black" stroke-width="1.90947"/>
<path id="Vector_47" d="M3.80987 10.2478C4.12656 9.19119 3.4668 8.58285 3.26447 8.46279C3.07094 8.33472 2.94779 8.28669 3.03575 8.4868C3.16771 8.78296 3.02696 9.60741 3.52837 10.1277C3.68672 10.3038 3.7395 10.4879 3.80987 10.2478Z" fill="white" stroke="black" stroke-width="1.90947"/>
<path id="Vector_48" d="M3.73937 10.0158C3.47547 9.09534 4.04726 8.57505 4.22319 8.471C4.39033 8.36694 4.49589 8.32692 4.41672 8.49501C4.31116 8.75115 4.42552 9.47154 3.98568 9.91979C3.84493 10.0719 3.79215 10.224 3.73937 10.0158Z" fill="white" stroke="black" stroke-width="1.90947"/>
<path id="Vector_49" d="M4.0654 9.58443C4.54043 10.0487 4.54922 10.7291 4.3381 11.1293C4.20615 11.3614 4.18856 11.3454 4.0654 11.1773C3.73112 10.689 3.93345 9.98465 3.91585 9.67248C3.90706 9.37632 4.01262 9.53641 4.0654 9.58443Z" fill="white" stroke="black" stroke-width="1.90947"/>
<path id="Vector_50" d="M3.28213 10.3195C3.28213 10.9599 3.71317 11.4801 4.1706 11.6402C4.43451 11.7283 4.43451 11.7043 4.39932 11.5122C4.27616 10.7918 3.66918 10.5276 3.44926 10.2955C3.23814 10.0714 3.28213 10.2555 3.28213 10.3195Z" fill="white" stroke="black" stroke-width="1.90947"/>
<path id="Vector_51" d="M4.91843 12.2257C4.14431 11.5854 4.55776 11.1371 4.52257 10.7209C4.50498 10.4968 4.60174 10.5528 4.68971 10.6329C5.18233 11.0731 5.20872 11.8575 5.10316 12.1617C5.05917 12.2978 4.9888 12.2818 4.91843 12.2257Z" fill="white" stroke="black" stroke-width="1.90947"/>
<path id="Vector_52" d="M3.88064 11.8087C4.13575 12.5131 4.8131 12.9454 5.38489 12.9694C5.71917 12.9854 5.71037 12.9614 5.59602 12.7533C5.16497 12.0008 4.39965 11.9128 4.05658 11.7207C3.73989 11.5446 3.85425 11.7367 3.88064 11.8087Z" fill="white" stroke="black" stroke-width="1.90947"/>
<path id="Vector_53" d="M5.98221 13.1307C4.97938 12.6745 5.18171 11.9141 4.99697 11.7219C4.86502 11.5859 5.02336 11.6019 5.10253 11.6499C5.69192 11.9621 6.16695 12.4584 6.17574 12.9866C6.17574 13.1867 6.15815 13.2108 5.98221 13.1307Z" fill="white" stroke="black" stroke-width="1.90947"/>
<path id="Vector_54" d="M7.35452 13.978C6.08778 14.1621 5.4984 13.2897 5.12893 13.2096C4.9354 13.1696 5.07615 13.0976 5.17292 13.0896C6.01741 13.0015 7.09062 13.3617 7.4161 13.7619C7.54805 13.922 7.54805 13.954 7.35452 13.978Z" fill="white" stroke="black" stroke-width="1.90947"/>
<path id="Vector_55" d="M6.07059 12.6101C6.3257 13.3705 7.27575 13.9948 7.98829 14.0429C8.32257 14.0669 8.32257 14.0349 8.19941 13.8347C7.62762 12.8902 6.63358 12.7301 6.28171 12.49C5.98262 12.2819 6.0442 12.538 6.07059 12.6101Z" fill="white" stroke="black" stroke-width="1.90947"/>
</g>
<path id="Vector_56" d="M10.4875 4.82969C10.3187 4.7207 9.70351 4.78398 9.59101 4.71016C9.80898 4.87891 10.3012 4.75937 10.4875 4.82969ZM11.9746 5.11797C11.841 4.90352 11.0605 4.75937 10.9445 4.56602C11.1484 4.93516 11.7531 4.88594 11.9746 5.11797ZM11.8586 5.36406C11.5703 5.11094 10.8918 5.21641 10.6914 5.06172C11.166 5.45547 11.4297 5.14961 11.8586 5.36758V5.36406ZM10.1605 4.23203C10.3469 4.31992 10.5754 4.40781 10.6879 4.61523C10.5578 4.45352 10.3187 4.39023 10.1254 4.25664C10.1359 4.25664 10.1535 4.23906 10.1605 4.23203ZM13.0469 5.88086C12.9309 5.63828 12.5266 5.37461 12.4914 5.28672C12.6074 5.59961 12.9414 5.67344 13.0469 5.88086ZM13.1523 6.30273C12.8008 5.8 12.2453 5.85625 12.0273 5.66289C12.1926 5.84922 12.8289 5.96875 13.1523 6.30273ZM13.9715 7.07969C13.9961 6.54531 13.5566 6.34141 13.5391 6.03906C13.532 6.40117 13.9891 6.88984 13.9715 7.07969ZM13.75 7.36797C13.6621 6.90391 13.0645 6.87227 12.959 6.60156C12.959 6.85469 13.6621 7.12188 13.75 7.36797ZM14.2422 7.1043C14.5586 7.45586 14.3406 7.99375 14.4707 8.38398C14.3125 8.0957 14.3934 7.37852 14.2422 7.1043ZM13.7254 8.60898C14.2 9.07305 14.0066 9.59336 14.2 9.81836C13.9609 9.50195 13.9961 8.89727 13.7254 8.60898ZM14.7098 8.67227C14.3055 9.08008 14.5516 9.69531 14.3406 9.98711C14.5762 9.7375 14.541 8.97461 14.7098 8.67227ZM14.2 8.67227C14.1473 8.20117 13.6621 7.95156 13.6199 7.69492C13.5672 7.95156 14.084 8.35234 14.2 8.67227ZM13.9539 9.80078C14.0312 10.1312 13.743 10.8344 13.8309 11.0488C13.6375 10.6727 13.9961 9.95898 13.9539 9.80078ZM14.5762 10.5531C14.3828 11.1367 13.9961 11.098 13.873 11.4496C13.9609 11.1156 14.4707 10.8098 14.5762 10.5531ZM13.3211 10.8273C13.0645 11.2176 13.2754 11.6676 13.0645 11.9453C13.3633 11.6641 13.2051 11.1473 13.3211 10.8273ZM13.9363 11.8996C13.627 12.4199 12.9941 12.3707 12.741 12.7469C12.9941 12.2758 13.7781 12.1949 13.9363 11.8996ZM12.8184 11.8328C12.2734 12.1773 12.4387 12.5359 12.0273 12.9227C12.5441 12.5359 12.502 12.1141 12.8184 11.8328ZM12.5617 13.2285C12.0344 13.2109 11.2785 13.8367 10.8215 13.7875C11.2785 13.8754 12.1223 13.3164 12.5617 13.225V13.2285ZM11.7109 12.666C11.6758 13.1547 10.3047 13.4676 10.1535 13.7945C10.3187 13.3621 11.5246 13.0422 11.7109 12.6695V12.666ZM8.60313 3.66602C8.42734 3.52539 8.21641 3.41641 8.15664 3.2793C8.19883 3.45508 8.37461 3.58516 8.55039 3.70117C8.56797 3.69414 8.58555 3.66953 8.60313 3.66602ZM8.3043 3.80664C8.03359 3.68711 7.71719 3.69414 7.57656 3.52539C7.66445 3.69414 7.96328 3.76094 8.21641 3.84883C8.24453 3.83125 8.27969 3.81367 8.30781 3.80664H8.3043ZM7.51328 4.8332C7.68203 4.7207 8.29727 4.78398 8.40977 4.71367C8.1918 4.87891 7.69961 4.75937 7.51328 4.8332ZM6.02617 5.12148C6.15977 4.90352 6.94023 4.75937 7.05625 4.56953C6.85234 4.93516 6.24766 4.88594 6.02617 5.12148ZM6.14219 5.36758C6.43047 5.11094 7.10898 5.21641 7.31289 5.06523C6.83828 5.45547 6.57461 5.15312 6.14219 5.36758ZM7.31289 4.61523C7.47813 4.29883 7.95273 4.25664 8.07578 4.06328C7.89297 4.35156 7.48867 4.40078 7.31289 4.61523ZM8.66641 4.33398C9.15156 4.12656 9.62617 4.30234 9.85469 4.20742C9.57344 4.34453 8.90547 4.27773 8.66641 4.3375V4.33398ZM4.95391 5.88086C5.06992 5.6418 5.47422 5.37461 5.50937 5.28672C5.39336 5.60312 5.05937 5.67344 4.95391 5.88086ZM4.84844 6.30273C5.2 5.8 5.75547 5.85625 5.97344 5.66289C5.8082 5.84922 5.17539 5.96875 4.84844 6.30625V6.30273ZM4.0293 7.07969C4.00469 6.54531 4.44414 6.34141 4.46172 6.03906C4.46875 6.40117 4.01172 6.88984 4.0293 7.07969ZM4.25078 7.36797C4.33867 6.90391 4.93633 6.87578 5.0418 6.60156C5.0418 6.8582 4.33867 7.12188 4.25078 7.36797ZM3.75859 7.1043C3.44219 7.45586 3.66016 7.99375 3.53008 8.38398C3.68828 8.09922 3.60742 7.37852 3.75859 7.1043ZM4.27539 8.60898C3.80078 9.07305 3.99414 9.59336 3.80078 9.81836C4.03984 9.50547 4.00469 8.89727 4.27539 8.60898ZM3.29102 8.67578C3.69531 9.08359 3.44922 9.69531 3.66016 9.98711C3.42461 9.74102 3.45977 8.97813 3.29102 8.67578ZM3.80078 8.67578C3.85352 8.20117 4.33867 7.95508 4.38086 7.69844C4.43359 7.95508 3.9168 8.35586 3.80078 8.67578ZM4.04688 9.80078C3.96953 10.1312 4.25781 10.8344 4.16992 11.0523C4.36328 10.6762 4.00469 9.9625 4.04688 9.8043V9.80078ZM3.42461 10.5531C3.61797 11.1402 4.00469 11.098 4.12773 11.4496C4.03984 11.1156 3.53008 10.8098 3.42461 10.5566V10.5531ZM4.6832 10.8273C4.93633 11.2211 4.72539 11.6676 4.93633 11.9488C4.6375 11.6676 4.7957 11.1473 4.6832 10.8273ZM4.06445 11.8996C4.37383 12.4199 5.00664 12.3707 5.25977 12.7469C5.00664 12.2758 4.22266 12.1949 4.06445 11.8996ZM5.18242 11.8363C5.72734 12.1809 5.56211 12.5395 5.97344 12.9262C5.45664 12.5395 5.49883 12.1176 5.18242 11.8363ZM5.43906 13.2285C5.96641 13.2109 6.72227 13.8367 7.1793 13.791C6.72227 13.8754 5.87852 13.3164 5.43906 13.2285ZM6.29336 12.666C6.32852 13.1582 7.69961 13.4676 7.84727 13.798C7.68203 13.3656 6.47617 13.0457 6.28984 12.6695L6.29336 12.666ZM8.28672 4.35156C8.39219 3.91914 8.91953 3.83828 8.98984 3.58164C8.96523 3.85586 8.33945 4.1582 8.28672 4.35508V4.35156ZM9.84414 3.2793C9.7668 3.60625 9.19375 3.79258 9.11641 4.03867C9.14101 3.70469 9.73164 3.51133 9.84414 3.2793ZM9.39766 4.05273C9.66836 3.65547 10.2309 3.76094 10.4277 3.52539C10.2871 3.79961 9.59101 3.80664 9.39766 4.05273Z" fill="#006233"/>
<path id="Vector_57" d="M13.1199 9.00039C13.1199 11.0816 11.2672 12.7656 8.98203 12.7656C6.69688 12.7656 4.84766 11.0816 4.84766 9.00391C4.84766 6.92266 6.69688 5.24219 8.98203 5.24219C11.2672 5.24219 13.1199 6.92266 13.1199 9.00391V9.00039Z" stroke="#F7C608" stroke-width="1.9" stroke-linecap="round" stroke-linejoin="round"/>
<path id="Vector_58" d="M8.17031 12.7694L8.15625 12.8151C8.1457 12.8468 8.11406 12.8608 8.07891 12.8608C7.99102 12.8362 7.88203 12.8151 7.78008 12.7905L7.875 12.4987C7.97354 12.5246 8.07326 12.5457 8.17383 12.562C8.20899 12.5691 8.22656 12.5972 8.21602 12.6323L8.20195 12.6675M7.4918 12.4882L7.50586 12.4425C7.51641 12.4073 7.54805 12.3933 7.5832 12.4038C7.66406 12.4319 7.7625 12.4671 7.875 12.4987L7.78008 12.7905C7.67461 12.7624 7.57617 12.7343 7.48828 12.7026C7.45313 12.6851 7.4461 12.6253 7.45664 12.5972" fill="#F7C608"/>
<path id="Vector_59" d="M8.11389 12.7444L8.10334 12.776C8.09631 12.7971 8.06818 12.8112 8.04006 12.8077L7.79397 12.7444L7.86076 12.537C7.94199 12.5591 8.02409 12.5778 8.10686 12.5932C8.1385 12.6002 8.15256 12.6213 8.14201 12.6459L8.13498 12.6705M7.54436 12.5194L7.5549 12.4842C7.56193 12.4631 7.59006 12.4526 7.61818 12.4631L7.86076 12.537L7.79045 12.7479C7.70764 12.7273 7.62556 12.7038 7.54436 12.6776C7.52326 12.6635 7.51272 12.6178 7.51975 12.5967" fill="#006233"/>
<path id="Vector_60" d="M7.0387 12.404L7.01057 12.4462C6.993 12.4708 6.95784 12.4814 6.92268 12.4673C6.84886 12.4251 6.7469 12.3759 6.65901 12.3232L6.83831 12.0665C6.92496 12.1179 7.01414 12.1648 7.1055 12.2072C7.13714 12.2247 7.14417 12.2564 7.12659 12.2845L7.10198 12.3197M6.4762 11.9611L6.50432 11.9189C6.5219 11.8943 6.56057 11.8837 6.5887 11.9013C6.65901 11.954 6.74339 12.0103 6.83831 12.0665L6.65901 12.3232C6.57237 12.2742 6.48791 12.2214 6.40589 12.165C6.37776 12.1404 6.39182 12.0806 6.40589 12.056" fill="#F7C608"/>
<path id="Vector_61" d="M6.99228 12.3649L6.97119 12.3931C6.95713 12.4141 6.929 12.4177 6.90088 12.4071L6.68291 12.2841L6.81299 12.1013C6.89033 12.1505 6.97471 12.1891 7.03447 12.2208C7.05908 12.2348 7.06963 12.2559 7.05205 12.277L7.03447 12.3016M6.51416 12.0028L6.53525 11.9747C6.54932 11.9571 6.57744 11.9536 6.60557 11.9677C6.67304 12.0147 6.74223 12.0593 6.81299 12.1013L6.68291 12.2841C6.61041 12.2444 6.54 12.201 6.47197 12.154C6.45088 12.1364 6.45439 12.0907 6.46846 12.0731" fill="#006233"/>
<path id="Vector_62" d="M6.06802 11.7637L6.02583 11.7954C6.00122 11.8165 5.96255 11.8129 5.93443 11.7954L5.72349 11.5879L5.98013 11.3911C6.05044 11.4684 6.13482 11.5422 6.19107 11.5915C6.21568 11.6161 6.21216 11.6477 6.18755 11.6688L6.1524 11.6969M5.66021 11.1942L5.7024 11.159C5.71508 11.1486 5.73136 11.1434 5.74777 11.1447C5.76418 11.146 5.77943 11.1537 5.79029 11.1661C5.84835 11.2443 5.91055 11.3194 5.97661 11.3911L5.727 11.5879C5.65841 11.5192 5.59273 11.4477 5.53013 11.3735C5.51607 11.3419 5.54419 11.2856 5.5688 11.268" fill="#F7C608"/>
<path id="Vector_63" d="M6.03239 11.7148L6.00427 11.7359C5.98669 11.7534 5.95856 11.7464 5.93395 11.7323L5.75817 11.5566L5.94098 11.4159C5.99706 11.4748 6.05571 11.5311 6.11677 11.5847C6.13786 11.6058 6.13786 11.6304 6.11677 11.648L6.09567 11.6656M5.68786 11.2437L5.71598 11.2261C5.73708 11.2085 5.7652 11.212 5.7863 11.2331C5.83512 11.2963 5.88673 11.3573 5.94098 11.4159L5.76169 11.5566C5.70488 11.5007 5.6509 11.442 5.59997 11.3808C5.58239 11.3562 5.59997 11.314 5.62106 11.2999" fill="#006233"/>
<path id="Vector_64" d="M5.333 10.8982L5.28378 10.9192C5.25214 10.9333 5.21347 10.9192 5.19589 10.8946C5.16074 10.8243 5.10097 10.7294 5.05527 10.645L5.36113 10.5185C5.41035 10.6134 5.4666 10.7048 5.50527 10.7646C5.51933 10.7962 5.50527 10.8278 5.47714 10.8384L5.43496 10.856M5.11855 10.2478L5.16777 10.2267C5.20292 10.2161 5.23808 10.2267 5.24863 10.2548C5.28134 10.3447 5.31889 10.4327 5.36113 10.5185L5.05878 10.645C5.01308 10.5571 4.97089 10.4692 4.93925 10.3849C4.93222 10.3497 4.97441 10.3075 5.00956 10.2935" fill="#F7C608"/>
<path id="Vector_65" d="M5.31573 10.8416L5.28057 10.8556C5.25948 10.8662 5.23135 10.8556 5.21378 10.8345L5.10128 10.6236L5.31924 10.5322C5.35571 10.6044 5.3956 10.6748 5.43878 10.7431C5.44932 10.7642 5.43878 10.7888 5.41768 10.7994L5.38956 10.8134M5.1294 10.3072L5.16456 10.2931C5.18565 10.2826 5.21378 10.2931 5.22432 10.3177C5.24893 10.381 5.28057 10.4584 5.31924 10.5357L5.10128 10.6236C5.0643 10.5548 5.03029 10.4844 4.99932 10.4127C4.99581 10.3845 5.02393 10.3494 5.04854 10.3424" fill="#006233"/>
<path id="Vector_66" d="M4.89375 9.88325L4.84102 9.89028C4.82489 9.89223 4.80857 9.88881 4.79459 9.88055C4.78061 9.87229 4.76974 9.85965 4.76367 9.84458L4.71094 9.56685L5.04141 9.52466C5.05594 9.61716 5.0759 9.70872 5.10117 9.79888C5.1082 9.83404 5.08711 9.85864 5.05195 9.86216L5.00625 9.86919M4.89375 9.20474L4.94648 9.19771C4.98164 9.19419 5.00977 9.21177 5.0168 9.24693C5.0168 9.32427 5.02383 9.42271 5.04141 9.52818L4.71094 9.56685C4.69687 9.47193 4.6793 9.38052 4.67578 9.28911C4.6793 9.25396 4.73555 9.22583 4.7707 9.2188" fill="#F7C608"/>
<path id="Vector_67" d="M4.89375 9.82539L4.85859 9.82891C4.83398 9.83242 4.81289 9.81484 4.80234 9.79023C4.7918 9.72344 4.7707 9.63906 4.76016 9.5582L4.9957 9.52656C5.0083 9.60467 5.02473 9.6821 5.04492 9.75859C5.04492 9.7832 5.03437 9.8043 5.00977 9.80781L4.97461 9.81484M4.8832 9.25938L4.91836 9.25586C4.94648 9.25586 4.96758 9.26992 4.97109 9.29805C4.97461 9.36133 4.98164 9.44219 4.9957 9.52656L4.75664 9.56172C4.74609 9.48086 4.73203 9.4 4.72852 9.32969C4.72852 9.30156 4.7707 9.27695 4.79883 9.27344" fill="#006233"/>
<path id="Vector_68" d="M4.78828 8.79668L4.73555 8.78965C4.70039 8.78613 4.6793 8.75449 4.67578 8.72285L4.71094 8.44512L5.04141 8.49082C5.02788 8.58285 5.01967 8.67558 5.0168 8.76855C5.00977 8.8002 4.98164 8.82129 4.94648 8.81426L4.90078 8.81074M4.99922 8.14277L5.05195 8.1498C5.08711 8.15684 5.1082 8.18496 5.10117 8.21309C5.07616 8.3045 5.05621 8.39721 5.04141 8.49082L4.71094 8.44512C4.72423 8.35294 4.74183 8.26143 4.76367 8.1709C4.77773 8.13574 4.84102 8.12168 4.87617 8.12871" fill="#F7C608"/>
<path id="Vector_69" d="M4.80938 8.73906L4.7707 8.73203C4.74609 8.73203 4.72852 8.70742 4.72852 8.6793L4.76016 8.45078L4.9957 8.47891C4.98369 8.55698 4.97547 8.63558 4.97109 8.71445C4.96758 8.73906 4.94648 8.75664 4.92188 8.75312L4.88672 8.74961M4.97109 8.19414L5.00625 8.20117C5.03437 8.20117 5.04844 8.22578 5.04141 8.25039C5.02734 8.31719 5.00625 8.39453 4.9957 8.47891L4.76016 8.45078C4.7707 8.36992 4.78477 8.29258 4.80234 8.21875C4.81289 8.19414 4.85859 8.18359 4.8832 8.18359" fill="#006233"/>
<path id="Vector_70" d="M5.02393 7.72369L4.97823 7.7026C4.94307 7.69205 4.93252 7.66041 4.93956 7.62525C4.97471 7.55494 5.01338 7.4565 5.05909 7.36861L5.36143 7.49517C5.31929 7.57981 5.28174 7.66666 5.24893 7.75533C5.23487 7.78697 5.19971 7.79752 5.16807 7.78346L5.1294 7.76939M5.42823 7.15416L5.47393 7.17174C5.50909 7.1858 5.51963 7.21744 5.50557 7.24557C5.45325 7.32502 5.40514 7.40716 5.36143 7.49166L5.05909 7.36861C5.09929 7.28316 5.14388 7.19985 5.19268 7.119C5.21729 7.09088 5.28409 7.09088 5.31573 7.10494" fill="#F7C608"/>
<path id="Vector_71" d="M5.06286 7.67725L5.02771 7.65967C5.0031 7.65264 4.99255 7.62452 5.0031 7.59991L5.10153 7.38897L5.3195 7.47686C5.2845 7.54681 5.25283 7.61838 5.22458 7.69131C5.21403 7.71592 5.18942 7.72647 5.16481 7.71944L5.13317 7.70538M5.38278 7.19561L5.41794 7.20967C5.44255 7.22022 5.44958 7.24483 5.43903 7.26944C5.39611 7.33676 5.35623 7.40597 5.3195 7.47686L5.10153 7.38546C5.13611 7.31362 5.17364 7.24325 5.21403 7.17452C5.23161 7.15342 5.28435 7.15342 5.30544 7.16046" fill="#006233"/>
<path id="Vector_72" d="M5.58325 6.75766L5.54106 6.72602C5.51646 6.70492 5.51294 6.66977 5.53052 6.64164C5.58677 6.58187 5.65356 6.4975 5.72388 6.42367L5.977 6.62406C5.90978 6.69442 5.84641 6.76836 5.78716 6.84555C5.77645 6.85693 5.7619 6.86395 5.74632 6.86525C5.73074 6.86655 5.71523 6.86204 5.70278 6.85258L5.66763 6.82445M6.14575 6.31117L6.18442 6.34633C6.21255 6.36391 6.21606 6.39906 6.19146 6.42367C6.11668 6.48686 6.0451 6.55374 5.977 6.62406L5.72388 6.42367L5.93481 6.21977C5.96294 6.19867 6.02622 6.21977 6.05435 6.23734" fill="#F7C608"/>
<path id="Vector_73" d="M5.63187 6.71914L5.60375 6.69805C5.58265 6.68398 5.58265 6.65586 5.59671 6.63125L5.76195 6.45547L5.94125 6.59609C5.88578 6.65462 5.833 6.71562 5.78304 6.77891C5.76546 6.8 5.73734 6.80352 5.71625 6.78945L5.69164 6.76836M6.0889 6.34297L6.12054 6.36406C6.13812 6.38164 6.13812 6.40625 6.12054 6.42734C6.05968 6.48118 6.00104 6.53748 5.94476 6.59609L5.76195 6.45547C5.81578 6.39346 5.87331 6.33476 5.93422 6.27969C5.95531 6.26211 6.00453 6.27617 6.02211 6.29023" fill="#006233"/>
<path id="Vector_74" d="M6.41639 5.9738L6.38826 5.93161C6.36717 5.90349 6.37772 5.87184 6.40233 5.84724L6.65545 5.68903L6.83475 5.94567C6.74998 5.99656 6.66784 6.05171 6.58865 6.11091C6.58173 6.11554 6.57397 6.11875 6.5658 6.12038C6.55763 6.122 6.54922 6.12199 6.54106 6.12036C6.53289 6.11873 6.52513 6.1155 6.51822 6.11086C6.5113 6.10622 6.50537 6.10026 6.50076 6.09333L6.47615 6.05817M7.0949 5.68903L7.12303 5.73122C7.14412 5.75583 7.13358 5.79099 7.10545 5.80856C7.01292 5.84957 6.92256 5.89534 6.83475 5.94567L6.65545 5.68903C6.74334 5.6363 6.83123 5.58356 6.91912 5.54489C6.95428 5.53434 7.01053 5.5695 7.02459 5.59411" fill="#F7C608"/>
<path id="Vector_75" d="M6.47568 5.94862L6.45458 5.92049C6.44052 5.8994 6.44755 5.87479 6.46864 5.85721C6.53193 5.82205 6.60927 5.76932 6.67958 5.72362L6.80966 5.90643L6.60224 6.04354C6.57763 6.0576 6.5495 6.05409 6.53544 6.03651L6.51786 6.0119M7.03114 5.70252L7.05224 5.73416C7.0663 5.75174 7.05927 5.77635 7.03466 5.79041C6.95812 5.82603 6.88306 5.86473 6.80966 5.90643L6.6831 5.72362C6.75427 5.68112 6.82697 5.64125 6.90107 5.60409C6.92919 5.59354 6.97138 5.61815 6.98544 5.63924" fill="#006233"/>
<path id="Vector_76" d="M7.46052 5.43164L7.44645 5.38594C7.43591 5.3543 7.45348 5.32617 7.48161 5.30859C7.5695 5.2875 7.67497 5.24883 7.77692 5.2207L7.87184 5.5125C7.77307 5.53929 7.67568 5.57097 7.58005 5.60742C7.54489 5.61797 7.51325 5.60039 7.50622 5.57227L7.49216 5.53359M8.19528 5.3332L8.21286 5.37891C8.22341 5.41406 8.20583 5.44219 8.17067 5.44922C8.07015 5.46573 7.97043 5.48685 7.87184 5.5125L7.77692 5.2207C7.87887 5.19609 7.98083 5.16797 8.07575 5.15039C8.11091 5.15039 8.15309 5.19609 8.16364 5.22773" fill="#F7C608"/>
<path id="Vector_77" d="M7.52308 5.42461L7.51253 5.38945C7.5055 5.36836 7.51957 5.34727 7.54769 5.33672C7.618 5.31563 7.70589 5.2875 7.79378 5.26641L7.86058 5.47383C7.77749 5.49612 7.69539 5.52193 7.61449 5.55117C7.58636 5.55469 7.56175 5.54766 7.55472 5.52305L7.54769 5.49844M8.1348 5.3332L8.14535 5.36836C8.15238 5.38945 8.1348 5.41055 8.11019 5.41758C8.02514 5.43315 7.9407 5.45191 7.85707 5.47383L7.79027 5.26289C7.87161 5.24021 7.95368 5.22028 8.03636 5.20312C8.07152 5.20312 8.10316 5.23477 8.10667 5.25586" fill="#006233"/>
<path id="Vector_78" d="M8.62695 5.18203V5.13633C8.62695 5.10117 8.65508 5.08008 8.69023 5.06953L8.99609 5.0625V5.36836C8.89397 5.36808 8.7919 5.37277 8.69023 5.38242C8.65508 5.38242 8.62695 5.35781 8.62695 5.32617V5.2875M9.36523 5.27695V5.32617C9.36523 5.36133 9.34063 5.38242 9.30547 5.38242C9.20261 5.373 9.09938 5.36831 8.99609 5.36836V5.0625C9.10156 5.0625 9.20703 5.0625 9.30547 5.06953C9.34063 5.07656 9.36523 5.13281 9.36523 5.16445" fill="#F7C608"/>
<path id="Vector_79" d="M8.69043 5.1918V5.15664C8.69043 5.13555 8.71152 5.11797 8.74316 5.11094L8.9998 5.10742V5.32187C8.91411 5.32316 8.82849 5.32785 8.74316 5.33594C8.71152 5.33594 8.69043 5.31836 8.69043 5.29375V5.26562M9.30566 5.25859V5.29375C9.30566 5.31836 9.28457 5.33594 9.25293 5.33594C9.16878 5.32779 9.08434 5.3231 8.9998 5.32187V5.10742L9.25293 5.11094C9.28457 5.11797 9.30566 5.15664 9.30566 5.18125" fill="#006233"/>
<path id="Vector_80" d="M9.74894 5.2375L9.763 5.18828C9.77003 5.16016 9.80519 5.14258 9.84034 5.14258C9.92472 5.16367 10.0372 5.18477 10.1392 5.21289L10.0478 5.50469C9.94801 5.47988 9.84711 5.45993 9.74542 5.44492C9.71027 5.43437 9.69269 5.40625 9.70324 5.37461L9.7173 5.33594M10.431 5.51172L10.4134 5.55742C10.4064 5.58906 10.3712 5.60664 10.3396 5.59609C10.2438 5.56111 10.1464 5.53061 10.0478 5.50469L10.1392 5.21289C10.2379 5.23587 10.3353 5.26403 10.431 5.29727C10.4661 5.31133 10.4732 5.37461 10.4661 5.40273" fill="#F7C608"/>
<path id="Vector_81" d="M9.80817 5.26265L9.8152 5.22749C9.82223 5.2064 9.85036 5.19234 9.87848 5.19585C9.9488 5.21694 10.0402 5.23101 10.1246 5.25562L10.0613 5.46655C9.9789 5.44441 9.89562 5.42564 9.81169 5.4103C9.78356 5.40327 9.76598 5.38218 9.77653 5.36109L9.78356 5.33296M10.3742 5.48062L10.3636 5.51577C10.3566 5.53687 10.3285 5.54741 10.3039 5.54038C10.2229 5.51135 10.1408 5.48555 10.0578 5.46304L10.1281 5.2521L10.3707 5.32241C10.3988 5.33648 10.4058 5.38218 10.3988 5.40327" fill="#006233"/>
<path id="Vector_82" d="M10.8807 5.58976L10.9089 5.55461C10.93 5.52296 10.9651 5.51945 11.0003 5.52648L11.264 5.66711L11.0882 5.92726C11.0002 5.87825 10.9099 5.83366 10.8175 5.79367C10.8105 5.79004 10.8043 5.78499 10.7994 5.77883C10.7945 5.77267 10.7909 5.76555 10.7889 5.75793C10.7869 5.75031 10.7866 5.74235 10.7879 5.73458C10.7891 5.72681 10.792 5.71939 10.7964 5.71281L10.821 5.67765M11.4538 6.02921L11.4222 6.0714C11.4129 6.08445 11.3991 6.09351 11.3834 6.09678C11.3678 6.10004 11.3515 6.09725 11.3378 6.08898C11.2572 6.03109 11.1739 5.97713 11.0882 5.92726L11.264 5.67062C11.3554 5.71984 11.4432 5.77257 11.5206 5.82531C11.5452 5.84992 11.5347 5.90968 11.5171 5.93781" fill="#F7C608"/>
<path id="Vector_83" d="M10.9298 5.63193L10.9509 5.60381C10.965 5.58271 10.9931 5.5792 11.0212 5.58974C11.081 5.6249 11.1654 5.66357 11.2392 5.70927L11.1126 5.89209C11.0393 5.85025 10.9642 5.81154 10.8876 5.77607C10.863 5.76201 10.8525 5.74092 10.8701 5.71982L10.8876 5.69521M11.4079 5.98701L11.3904 6.01513C11.3763 6.03623 11.3482 6.03974 11.3201 6.02568C11.2516 5.97829 11.1812 5.93373 11.1091 5.89209L11.2392 5.70927C11.313 5.75146 11.3904 5.79365 11.4501 5.83584C11.4747 5.85693 11.4712 5.89912 11.4572 5.92021" fill="#006233"/>
<path id="Vector_84" d="M11.8621 6.22302L11.9008 6.1949C11.9289 6.17029 11.964 6.1738 11.9957 6.1949C12.0519 6.25466 12.1363 6.32498 12.2066 6.3988L11.9535 6.5992C11.8844 6.52861 11.8117 6.46172 11.7355 6.3988C11.7144 6.3742 11.718 6.34255 11.7426 6.32146L11.7777 6.29334M12.2699 6.79255L12.2312 6.82771C12.2185 6.8382 12.2023 6.84333 12.1859 6.84202C12.1695 6.84071 12.1542 6.83305 12.1433 6.82068C12.0941 6.75388 12.0273 6.68005 11.9535 6.5992L12.2066 6.3988C12.2769 6.46912 12.3437 6.53943 12.4 6.61326C12.4176 6.64138 12.3894 6.69763 12.3648 6.71873" fill="#F7C608"/>
<path id="Vector_85" d="M11.8935 6.27575L11.9216 6.25114C11.9427 6.23708 11.9708 6.24059 11.9919 6.25466C12.0411 6.30739 12.1114 6.36716 12.1677 6.43044L11.9919 6.57106C11.9335 6.51209 11.8725 6.45579 11.8091 6.40231C11.7915 6.38473 11.7915 6.35661 11.8091 6.34255L11.8337 6.32145M12.245 6.73981L12.2169 6.76091C12.1958 6.77497 12.1677 6.77145 12.1466 6.75387C12.0965 6.6907 12.0437 6.62971 11.9884 6.57106L12.1677 6.43044C12.2274 6.48669 12.2837 6.54645 12.3329 6.60622C12.347 6.62731 12.3294 6.6695 12.3118 6.68708" fill="#006233"/>
<path id="Vector_86" d="M12.6036 7.08332L12.6528 7.06223C12.6844 7.04816 12.7196 7.06223 12.7407 7.08684C12.7758 7.15715 12.8356 7.24856 12.8813 7.33293L12.5754 7.46301C12.5297 7.36809 12.47 7.2802 12.4313 7.21691C12.4172 7.18879 12.4313 7.15715 12.4594 7.14309L12.5016 7.12551M12.818 7.7302L12.7723 7.75129C12.7407 7.76535 12.7055 7.75129 12.6915 7.72316C12.6575 7.63443 12.6187 7.54759 12.5754 7.46301L12.8813 7.33645C12.9251 7.42009 12.965 7.50573 13.0008 7.59309C13.0079 7.62824 12.9657 7.67043 12.9305 7.68449" fill="#F7C608"/>
<path id="Vector_87" d="M12.6208 7.13579L12.656 7.12172C12.6771 7.11469 12.7052 7.12172 12.7228 7.14633C12.7544 7.2061 12.8001 7.28344 12.8353 7.35727L12.6208 7.44516C12.5839 7.37554 12.544 7.30751 12.5013 7.24126C12.4872 7.21665 12.4943 7.19204 12.5189 7.18149L12.547 7.16743M12.8142 7.67368L12.779 7.68774C12.7544 7.69829 12.7298 7.68774 12.7158 7.66313C12.6912 7.59985 12.6595 7.52251 12.6208 7.44516L12.8353 7.35376C12.8732 7.42267 12.9084 7.49304 12.9408 7.56469C12.9443 7.59633 12.9162 7.62797 12.8915 7.63852" fill="#006233"/>
<path id="Vector_88" d="M13.0496 8.09628L13.1023 8.08925C13.1375 8.08221 13.1691 8.10331 13.1832 8.13495L13.2359 8.40917L12.909 8.45487C12.892 8.36226 12.8697 8.2707 12.8422 8.18065C12.8387 8.14901 12.8598 8.12089 12.8949 8.11737L12.9371 8.11034M13.0566 8.77479L13.0074 8.78182C12.9723 8.78534 12.9406 8.76776 12.9371 8.73612L12.909 8.45487L13.2359 8.40917C13.2535 8.50409 13.2711 8.59901 13.2746 8.6869C13.2746 8.72206 13.2148 8.7537 13.1797 8.75721" fill="#F7C608"/>
<path id="Vector_89" d="M13.0496 8.15592L13.0847 8.14889C13.1128 8.14537 13.1339 8.16295 13.1445 8.18756L13.1902 8.41607L12.9546 8.45123C12.9409 8.37307 12.9233 8.29563 12.9019 8.2192C12.8984 8.19459 12.9124 8.17349 12.9371 8.16998L12.9722 8.16295M13.0671 8.7149L13.032 8.72193C13.0074 8.72545 12.9828 8.70787 12.9792 8.67974C12.9745 8.60324 12.9663 8.52699 12.9546 8.45123L13.1902 8.41607C13.2042 8.49693 13.2183 8.57428 13.2253 8.6481C13.2218 8.67623 13.1796 8.70084 13.155 8.70435" fill="#006233"/>
<path id="Vector_90" d="M13.1664 9.183L13.2192 9.19003C13.2543 9.19003 13.2789 9.22167 13.2825 9.25331C13.2684 9.33417 13.2614 9.43612 13.2473 9.53456L12.9168 9.49237C12.9344 9.3869 12.9414 9.28143 12.9414 9.21112C12.945 9.17948 12.9766 9.15839 13.0118 9.16542L13.0539 9.16893M12.966 9.8369L12.9133 9.82987C12.8782 9.82635 12.8535 9.79823 12.8606 9.76659C12.8782 9.68924 12.9028 9.59432 12.9168 9.49237L13.2508 9.53104C13.2367 9.62596 13.2227 9.72089 13.1981 9.80878C13.1875 9.84042 13.1207 9.85448 13.0856 9.85096" fill="#F7C608"/>
<path id="Vector_91" d="M13.1483 9.23912L13.1834 9.24263C13.2116 9.24263 13.2256 9.26724 13.2291 9.29537L13.201 9.5274L12.9619 9.49927C12.976 9.41138 12.983 9.32349 12.9866 9.26724C12.9866 9.23912 13.0112 9.22154 13.0358 9.22506H13.0674M12.9901 9.78404L12.9549 9.78052C12.9268 9.77701 12.9127 9.7524 12.9198 9.72779C12.9338 9.66099 12.9514 9.58716 12.9655 9.49576L13.201 9.5274C13.19 9.60411 13.176 9.68034 13.1588 9.75591C13.1518 9.78404 13.1026 9.7981 13.078 9.79107" fill="#006233"/>
<path id="Vector_92" d="M12.9445 10.2552L12.9902 10.2763C13.0254 10.2868 13.0359 10.3185 13.0289 10.3536C12.9937 10.4239 12.9586 10.5224 12.9129 10.6103L12.607 10.4872C12.648 10.4013 12.6844 10.3133 12.716 10.2235C12.7301 10.1954 12.7652 10.1849 12.7969 10.1954L12.8391 10.213M12.5437 10.8317L12.498 10.8107C12.4629 10.7966 12.4523 10.7649 12.4629 10.7368C12.5086 10.6665 12.5613 10.5821 12.607 10.4907L12.9129 10.6103C12.8707 10.6982 12.825 10.786 12.7793 10.8634C12.7582 10.8915 12.6914 10.888 12.6562 10.8739" fill="#F7C608"/>
<path id="Vector_93" d="M12.9058 10.3001L12.941 10.3176C12.9656 10.3282 12.9726 10.3528 12.9656 10.3774L12.8672 10.5919L12.6492 10.504C12.6831 10.4328 12.7136 10.3601 12.7406 10.286C12.7547 10.2649 12.7793 10.2509 12.8039 10.2614L12.832 10.2719M12.5859 10.7852L12.5507 10.7712C12.5297 10.7641 12.5226 10.736 12.5332 10.7114C12.5749 10.644 12.6136 10.5748 12.6492 10.504L12.8672 10.5919C12.8336 10.6636 12.7972 10.7339 12.7582 10.8028C12.7406 10.8274 12.6914 10.8274 12.6703 10.8204" fill="#006233"/>
<path id="Vector_94" d="M12.3926 11.2299L12.4348 11.258C12.4629 11.2791 12.4629 11.3142 12.4489 11.3424L12.2555 11.5603L12.0024 11.3635C12.0727 11.2861 12.143 11.2017 12.1887 11.142C12.2098 11.1174 12.245 11.1139 12.2731 11.1349L12.3083 11.1596M11.8336 11.6764L11.795 11.6482C11.7668 11.6271 11.7633 11.592 11.7879 11.5674C11.8619 11.5033 11.9323 11.4352 11.9989 11.3635L12.2555 11.5603C12.1896 11.6337 12.1203 11.7041 12.0481 11.7713C12.02 11.7888 11.9567 11.7713 11.9286 11.7502" fill="#F7C608"/>
<path id="Vector_95" d="M12.3432 11.2647L12.3748 11.2858C12.3924 11.3034 12.3924 11.328 12.3783 11.3526L12.2166 11.5319L12.0338 11.3913C12.0971 11.328 12.1533 11.2577 12.192 11.2084C12.2096 11.1873 12.2377 11.1838 12.2588 11.1979L12.2834 11.2155M11.8896 11.6479L11.8615 11.6233C11.8404 11.6092 11.8404 11.5846 11.8615 11.5635C11.9225 11.5086 11.9812 11.4511 12.0373 11.3913L12.2166 11.5319C12.163 11.593 12.1067 11.6516 12.0479 11.7077C12.0232 11.7252 11.9775 11.7147 11.9564 11.6971" fill="#006233"/>
<path id="Vector_96" d="M11.5667 12.02L11.5949 12.0587C11.616 12.0868 11.6089 12.1185 11.5843 12.1431L11.3312 12.3048L11.1484 12.0482C11.2332 11.9973 11.3153 11.9421 11.3945 11.8829C11.408 11.8732 11.4249 11.8693 11.4413 11.8719C11.4578 11.8745 11.4725 11.8835 11.4824 11.897L11.5035 11.9321M10.8917 12.3083L10.8636 12.2661C10.8425 12.2415 10.8496 12.2064 10.8812 12.1888C10.9725 12.1462 11.0616 12.0993 11.1484 12.0482L11.3312 12.3048C11.2433 12.354 11.1554 12.4103 11.0675 12.4489C11.0324 12.463 10.9796 12.4278 10.9621 12.3997" fill="#F7C608"/>
<path id="Vector_97" d="M11.507 12.0409L11.5281 12.0725C11.5421 12.0901 11.5351 12.1147 11.514 12.1358L11.3031 12.2659L11.173 12.0866C11.2441 12.0426 11.3133 11.9957 11.3804 11.9459C11.405 11.9319 11.4331 11.9354 11.4472 11.9565L11.4648 11.9811M10.9515 12.2905L10.9339 12.2623C10.9199 12.2412 10.9269 12.2166 10.9515 12.2026C11.0269 12.1669 11.1007 12.1282 11.173 12.0866L11.3031 12.2659C11.2328 12.3116 11.1554 12.3537 11.0851 12.3889C11.057 12.3995 11.0148 12.3784 11.0007 12.3573" fill="#006233"/>
<path id="Vector_98" d="M10.5288 12.5644L10.5429 12.6136C10.5535 12.6417 10.5359 12.6734 10.5078 12.6874L10.2124 12.7789L10.1175 12.4871C10.2152 12.4606 10.3115 12.4289 10.4058 12.3921C10.441 12.3816 10.4726 12.3957 10.4831 12.4273L10.4937 12.466M9.79057 12.6699L9.7765 12.6242C9.76596 12.5925 9.78354 12.5609 9.81518 12.5539C9.90307 12.5398 10.0085 12.5187 10.1175 12.4871L10.2124 12.7789C10.1105 12.807 10.0121 12.8351 9.91713 12.8492C9.88197 12.8527 9.83627 12.807 9.82572 12.7789" fill="#F7C608"/>
<path id="Vector_99" d="M10.4656 12.576L10.4762 12.6076C10.4832 12.6287 10.4691 12.6498 10.441 12.6639C10.3707 12.685 10.2828 12.7131 10.1949 12.7342L10.1281 12.5303C10.2101 12.5067 10.291 12.4797 10.3707 12.4494C10.3988 12.4424 10.4234 12.4529 10.434 12.474L10.441 12.5022M9.85391 12.6709L9.84336 12.6358C9.83633 12.6147 9.85391 12.5936 9.87852 12.5865C9.96246 12.5712 10.0457 12.5525 10.1281 12.5303L10.1984 12.7377C10.1171 12.7604 10.035 12.7804 9.95234 12.7975C9.9207 12.801 9.88906 12.7694 9.88203 12.7483" fill="#006233"/>
<path id="Vector_100" d="M9.3623 12.8258V12.875C9.3623 12.9102 9.3377 12.9312 9.30254 12.9383C9.21465 12.9383 9.10215 12.9488 8.99316 12.9488V12.6465C9.09535 12.6457 9.19742 12.6398 9.29902 12.6289C9.33418 12.6289 9.3623 12.65 9.3623 12.6816V12.7238M8.62402 12.7379V12.6887C8.62402 12.657 8.64863 12.6324 8.68379 12.6324C8.77168 12.6395 8.87715 12.6465 8.98965 12.6465L8.99316 12.9488C8.89121 12.9521 8.78916 12.9509 8.6873 12.9453C8.65215 12.9383 8.62402 12.882 8.62402 12.8504" fill="#F7C608"/>
<path id="Vector_101" d="M9.29883 12.818V12.8531C9.29883 12.8742 9.27773 12.8883 9.24961 12.8988L8.99297 12.9059V12.6879C9.08438 12.6879 9.1793 12.6809 9.24609 12.6738C9.27773 12.6738 9.29883 12.6914 9.29883 12.7125V12.7406M8.68359 12.7547V12.7195C8.68359 12.6949 8.70469 12.6773 8.73281 12.6773C8.80664 12.6844 8.89453 12.6879 8.98945 12.6879L8.99297 12.9059L8.73633 12.9023C8.7082 12.8953 8.68359 12.8566 8.68359 12.832" fill="#006233"/>
</g>
<defs>
<clipPath id="clip0_186_5152">
<rect width="18" height="18" fill="white"/>
</clipPath>
</defs>
</svg>
