<svg width="18" height="18" viewBox="0 0 18 18" fill="none" xmlns="http://www.w3.org/2000/svg">
<g id="as" clip-path="url(#clip0_186_5133)">
<path id="Vector" d="M0 0H18V18H0V0Z" fill="#000066"/>
<path id="Vector_2" d="M0 9L18 0V18L0 9Z" fill="#BD1021"/>
<path id="Vector_3" d="M1.45508 8.99961L17.9785 0.962891V17.0363" fill="white"/>
<path id="Vector_4" d="M11.774 10.1426C11.9639 10.1531 11.9568 10.343 11.9568 10.343L12.6354 10.3605C12.7232 10.1215 12.8111 10.1496 12.9764 10.2691C13.0769 10.3378 13.1871 10.3911 13.3033 10.4273C13.3736 10.0898 13.8518 10.1566 13.8518 10.1566C14.0557 9.66797 14.0732 9.675 13.9502 9.61172C13.8773 9.57542 13.8172 9.51778 13.7779 9.44648C13.6751 9.30977 13.6097 9.14861 13.5881 8.97891C13.574 8.85586 13.4299 9.03867 13.4053 9.00352C13.3807 8.96133 13.1662 8.98594 13.1662 8.98594C13.2189 9.04219 13.0396 9.00703 13.0396 9.00703C13.0572 9.02461 13.0396 9.07734 13.0396 9.07734C13.0221 9.05273 12.885 9.02812 12.885 9.02812C12.8742 9.05018 12.86 9.07036 12.8428 9.08789C12.7689 9.05977 12.6213 9.06328 12.6213 9.06328C12.4769 9.05821 12.3341 9.09483 12.21 9.16875C12.1502 9.20391 11.9287 9.30937 11.7529 9.48516C11.5736 9.66094 11.4717 9.63633 11.4717 9.63633C11.4189 9.8332 10.9936 10.0687 10.9936 10.0687C10.9232 10.1285 10.7088 10.1566 10.5998 10.0687C10.4908 9.97734 10.5998 9.80859 10.5998 9.80859C10.642 9.73828 10.6807 9.73828 10.6842 9.47461C10.6877 9.29883 10.8705 9.15117 11.0604 8.94727C11.2924 8.69062 11.6193 8.26875 11.6193 8.26875C11.6193 8.39883 11.6896 8.41992 11.6896 8.41992C11.7529 8.28984 11.8443 8.18438 11.8443 8.18438C11.8514 8.19492 11.8654 8.20195 11.8654 8.20195C11.9357 8.10352 11.9814 8.06484 11.9814 8.06484C11.9568 8.0543 11.7529 8.06484 11.5666 8.23008C11.3768 8.39531 11.2502 8.33906 11.2502 8.33906C11.1201 8.29687 11.1096 8.19844 11.1096 8.19844C11.0111 7.78359 11.3873 7.49531 11.3873 7.49531C10.8846 7.37227 11.2467 6.73242 11.8725 6.4582C12.4947 6.1875 12.4877 6.06445 12.4877 6.06445C12.5164 6.09967 12.5401 6.13872 12.558 6.18047C12.558 6.17695 12.6072 6.11016 12.9693 5.94844C13.1559 5.86915 13.3328 5.7689 13.4967 5.64961C13.5459 5.74102 13.5389 5.8043 13.5389 5.8043C14.5232 5.45977 15.49 4.66523 15.49 4.66523C15.5182 4.73203 15.5041 4.83398 15.5041 4.83398C15.6658 4.68281 16.2424 4.3418 16.2424 4.3418C16.2529 4.55977 16.0736 4.64414 16.0736 4.64414C16.0877 4.67174 16.0972 4.70141 16.1018 4.73203C16.2851 4.61686 16.4656 4.49729 16.6432 4.37344C16.8049 4.51406 16.6607 4.73906 16.6607 4.73906C16.717 4.73203 16.7557 4.68281 16.7557 4.68281C16.8014 4.92187 16.5342 5.13281 16.5342 5.13281C16.5792 5.12479 16.6222 5.10807 16.6607 5.08359C16.608 5.34375 16.1158 5.63203 16.1158 5.63203C16.1861 5.69531 16.1193 5.77969 16.0596 5.82188C15.9998 5.85703 15.8979 5.94141 15.9295 5.97656C15.9611 6.01172 16.1791 5.85352 16.1791 5.85352C16.2143 5.9625 15.9365 6.18047 15.9365 6.18047C16.1334 6.20508 16.6748 5.95898 16.6748 5.95898C16.6291 6.16992 16.4287 6.33164 16.1721 6.42656C15.9225 6.52148 15.9365 6.53555 15.9365 6.53555C15.9787 6.5707 16.3232 6.46875 16.3232 6.46875C16.2213 6.70078 15.8592 6.8625 15.8592 6.8625C15.9576 6.95039 16.0947 6.84844 16.2318 6.75703C16.396 6.65302 16.5734 6.57144 16.7592 6.51445C16.9596 6.44414 17.1037 6.49688 17.1037 6.49688C17.2795 6.44414 17.4201 6.52148 17.4201 6.52148C17.7436 6.54609 17.7787 6.66211 17.7787 6.66211C17.8139 6.67266 17.842 6.68672 17.9264 6.75C18.0107 6.80977 18.0037 6.99961 18.0002 7.09453C18.0002 7.18594 17.9721 7.18594 17.9545 7.21055C17.9404 7.23867 17.9369 7.2668 17.9369 7.30195C17.9369 7.33711 17.8525 7.56211 17.3498 7.56211H16.5834C16.5412 7.56211 16.492 7.58672 16.492 7.58672C16.2811 7.69219 16.3936 7.51641 16.1404 7.72031C15.8873 7.93125 15.7572 7.89609 15.7572 7.89609C15.6169 8.0407 15.464 8.17247 15.3002 8.28984C15.149 8.38828 15.1736 8.37773 15.3072 8.43398C15.4408 8.49023 15.6377 8.43398 15.6377 8.43398C15.5111 8.52187 15.6025 8.56055 15.6025 8.56055C15.7643 8.45508 15.8697 8.49375 15.8697 8.49375C15.9225 8.64141 15.7291 8.87344 15.7291 8.87344C15.8029 8.88047 15.9436 8.87344 15.9436 8.87344C15.9084 8.97187 15.7713 9.08086 15.6693 9.1125C15.5639 9.14766 15.5814 9.16172 15.6131 9.21797C15.6412 9.28477 15.6201 9.34805 15.6201 9.34805C15.4373 9.225 15.4338 9.33398 15.4338 9.33398C15.4127 9.47812 15.4162 9.69258 15.4162 9.69258C15.2896 9.6293 15.2826 9.71367 15.2826 9.71367C15.2404 9.82105 15.1756 9.91815 15.0928 9.99844C15.0893 9.91758 15.0119 9.89297 15.0119 9.89297C14.9311 10.0512 14.7799 10.1461 14.7799 10.1461C14.7623 10.2797 14.801 10.466 14.801 10.466C14.7025 10.4484 14.6674 10.4484 14.6533 10.4695C14.6393 10.4941 14.6744 10.5047 14.6744 10.5047L15.926 10.5363C15.9436 10.5363 16.0174 10.5469 16.0174 10.677C16.0209 10.8176 15.9119 10.8246 15.9119 10.8246L14.5408 10.7895C14.5408 10.7895 14.5479 10.8281 14.4775 10.8668C14.4072 10.9055 14.4318 10.8246 14.4072 10.9934C14.3896 11.1586 14.1189 10.9793 14.1189 10.9793C14.0732 11.0461 13.9678 11.1305 13.9678 11.1305C13.9045 10.9441 13.8412 10.8844 13.7428 11.0461C13.6479 11.2078 13.9221 11.1797 13.9221 11.1797L15.6166 10.9336C15.7045 10.9266 15.7959 10.9336 15.8381 11.0531C15.8732 11.1762 15.6412 11.1937 15.6412 11.1937L13.9924 11.3766C13.9572 11.4715 13.8201 11.468 13.8201 11.468C13.8342 11.5594 13.7357 11.6191 13.6865 11.6508C13.6338 11.6859 13.4756 11.6719 13.4756 11.6719C13.2857 11.802 13.1943 11.7 13.1943 11.7C13.0678 11.7527 12.9904 11.7281 12.8885 11.6859C12.783 11.6402 12.7936 11.5172 12.7936 11.5172L11.7529 11.6227C11.7228 11.6349 11.6954 11.6528 11.6721 11.6754C11.7072 11.7211 11.5947 11.8301 11.5947 11.8301C11.6299 11.8512 11.6861 11.9109 11.6967 12.041C11.7037 12.1816 11.5279 12.2027 11.6158 12.3012C11.7002 12.3961 11.8654 12.3152 12.0482 12.2309C12.224 12.143 12.3998 12.1535 12.4771 12.1535C12.5545 12.1535 12.7689 12.2098 12.9025 12.259C13.0361 12.3012 13.0818 12.273 13.0924 12.2063C13.0994 12.1359 13.1627 12.1184 13.1627 12.1184C13.1451 12.1852 13.1803 12.2168 13.1803 12.2168C13.233 12.2168 13.3209 12.1676 13.3209 12.1676C13.3139 12.2203 13.2471 12.252 13.2471 12.252C13.117 12.3363 13.2963 12.3047 13.2963 12.3047C13.4852 12.254 13.6812 12.235 13.8764 12.2484C14.0584 12.303 14.2369 12.3687 14.4107 12.4453C14.4248 12.3996 14.4178 12.2906 14.4178 12.2906C14.4779 12.3075 14.5317 12.3417 14.5725 12.3891C14.6182 12.3434 14.59 12.2625 14.59 12.2625C14.9486 12.4664 14.5127 12.5578 14.3967 12.6C14.2807 12.6352 14.2807 12.6844 14.2807 12.6844C14.3791 12.6562 14.4459 12.6422 14.5268 12.6352C14.6041 12.6316 14.576 12.6352 14.7693 12.6C14.9627 12.5578 15.0611 12.6422 15.0611 12.6422C14.8994 12.6492 14.8502 12.6984 14.8502 12.6984C14.9557 12.7652 14.8572 12.825 14.8572 12.825C14.7131 12.6422 14.5865 12.832 14.5865 12.832C14.6688 12.8311 14.7504 12.8479 14.8256 12.8812C14.8572 12.9023 14.9311 12.941 15.026 12.9867C15.1596 13.043 15.1314 13.0078 15.2369 13.043C15.3424 13.0852 15.3002 13.1836 15.3002 13.1836C15.2684 13.1303 15.2185 13.0904 15.1596 13.0711C15.1525 13.1801 15.0436 13.2012 15.0436 13.2012C15.1807 13.0535 14.8889 12.9867 14.7518 12.9902C14.6182 12.9902 14.5162 13.0781 14.5162 13.0781C14.7904 13.3383 14.9803 13.2539 14.9803 13.2539C14.9451 13.3453 14.7201 13.3066 14.7201 13.3066C14.8256 13.3875 14.8115 13.4437 14.8115 13.4437C14.7553 13.3875 14.6674 13.4156 14.467 13.2891C14.2736 13.1625 14.0979 13.2047 14.0979 13.2047C14.2912 13.4051 14.0275 13.5281 14.0275 13.5281C13.9291 13.5879 14.0697 13.6582 14.0697 13.6582C13.9467 13.6828 13.9291 13.5598 13.9291 13.5598C13.8658 13.5457 13.7744 13.623 13.7744 13.623C13.7814 13.5 13.9467 13.5633 13.9502 13.4332C13.9537 13.3031 13.799 13.2012 13.335 13.2645C12.8709 13.3312 12.7373 13.1801 12.7373 13.1801C12.6951 13.1801 12.6916 13.2223 12.6916 13.2223C12.7619 13.2961 12.7971 13.3277 12.7865 13.377C12.7725 13.4297 12.8111 13.4473 12.8111 13.4473C12.7232 13.4402 12.7197 13.3418 12.7197 13.3418C12.7197 13.384 12.7021 13.384 12.674 13.4297C12.6459 13.4754 12.674 13.5281 12.674 13.5281C12.6354 13.4965 12.5686 13.4578 12.6318 13.3699C12.6775 13.2996 12.5334 13.2117 12.5334 13.2117C12.4736 13.152 12.3225 13.2082 12.3225 13.2082C12.0061 13.268 11.8232 13.0676 11.8232 13.0676C11.7881 13.0676 11.7178 13.05 11.7178 13.05C11.3838 13.1977 11.0885 12.8742 11.0885 12.8742C10.8389 12.9234 10.7229 12.8039 10.649 12.6809C10.6057 12.5979 10.5366 12.5313 10.4521 12.491C10.3537 12.4348 10.2588 12.259 10.3537 12.1676C10.4311 12.0867 10.41 12.0691 10.41 12.0691C10.2764 11.8477 10.6385 11.7809 10.649 11.7246C10.6561 11.6508 10.7334 11.6016 10.8143 11.5945C10.8986 11.591 10.8986 11.5945 10.9549 11.5453C11.0041 11.4855 11.1061 11.5559 11.1061 11.5559C11.1307 11.5418 11.31 11.4012 11.4682 11.4715C11.6299 11.5418 11.7635 11.4961 11.7635 11.4961C11.876 11.4715 12.8146 11.3449 12.8146 11.3449C12.8709 11.25 12.9201 11.141 13.1768 11.0848C13.4334 11.0285 13.6268 10.8598 13.6268 10.8598C13.5811 10.8105 13.5037 10.8141 13.465 10.8105C13.4264 10.807 13.3455 10.7332 13.3455 10.7332C13.2963 10.7578 13.2752 10.7473 12.9342 10.9547C12.6283 11.1375 12.6178 10.7719 12.6178 10.7719H11.9604C11.9498 10.9125 11.8443 10.9688 11.8443 10.9688L11.5982 10.9793C11.4682 10.909 11.4682 10.6699 11.4682 10.6699C11.0738 10.6613 10.6839 10.7545 10.3361 10.9406C9.51348 10.5223 8.87012 10.4238 8.87012 10.4238C9.86855 10.3184 10.3994 10.0371 10.3994 10.0371C10.7233 10.2346 11.0898 10.3515 11.4682 10.3781C11.4857 10.1777 11.6229 10.1285 11.6229 10.1285L11.774 10.1426Z" fill="black"/>
<path id="Vector_5" d="M10.5821 11.802C10.3747 11.9215 10.4133 11.9883 10.4309 12.027C10.4485 12.0621 10.452 12.1008 10.3958 12.1605C10.336 12.2168 10.343 12.2379 10.343 12.2379C10.3536 12.4383 10.4942 12.484 10.554 12.5332C10.6067 12.5719 10.6911 12.7055 10.6911 12.7055C10.7227 12.757 10.7681 12.7988 10.8221 12.8261C10.8761 12.8534 10.9366 12.8652 10.9969 12.8602C11.0813 12.8602 11.0743 12.8531 11.0321 12.8145L10.9055 12.709C10.9883 12.7462 11.0625 12.8001 11.1235 12.8672C11.3344 13.0992 11.5313 13.0676 11.6157 13.057C11.7036 13.0465 11.6895 12.9937 11.6895 12.9937C11.686 12.9867 11.6051 12.9797 11.6051 12.9797C11.2817 12.9516 11.1868 12.7406 11.1868 12.7406C11.3492 12.8835 11.5576 12.9633 11.7739 12.9656C11.8653 12.9621 11.8583 12.9902 11.8407 12.9937C11.8196 12.9973 11.795 12.9937 11.7493 12.9902C11.7071 12.9902 11.7071 12.9973 11.7141 13.0184C11.7282 13.0324 11.7669 13.0359 11.8196 13.0324C11.8688 13.0324 11.8266 13.0395 11.9602 13.1379C12.0938 13.2434 12.4172 13.159 12.4172 13.159C12.2063 13.1062 12.1782 13.0078 12.1782 13.0078C11.8899 13.043 11.7739 12.8707 11.7739 12.8707C11.7093 12.8205 11.6398 12.7769 11.5665 12.7406C11.4047 12.6703 11.3801 12.5227 11.3801 12.5227C11.4258 12.593 11.5137 12.6633 11.6262 12.6984C11.7422 12.7266 11.7704 12.7406 11.7704 12.7406C11.7422 12.747 11.7127 12.7445 11.686 12.7336C11.5735 12.6984 11.6368 12.7441 11.6368 12.7441C11.7633 12.8461 11.795 12.8355 11.795 12.8355C12.1219 12.8707 11.9602 12.7406 11.9602 12.7406C12.1887 12.7969 12.2309 12.709 12.2309 12.709C12.2801 12.8145 12.4559 12.7723 12.4559 12.7723C12.2204 12.8883 12.3962 12.8531 12.3962 12.8531C12.6352 12.8109 12.6844 12.8707 12.6844 12.8707C12.7442 12.9305 12.811 12.9234 12.811 12.9234C12.811 12.9234 12.8532 12.9234 12.9411 12.941C13.0325 12.9586 13.1731 13.0359 13.3032 13.0219C13.4297 13.0043 13.4544 13.043 13.4544 13.043C13.4262 13.0359 13.37 13.0254 13.2715 13.0711C13.1696 13.1168 12.9938 13.1309 12.7372 13.0711C12.4805 13.0113 12.4629 13.0219 12.4629 13.0219C12.5187 13.0592 12.5626 13.1116 12.5895 13.173C12.6001 13.2152 12.6458 13.2187 12.6458 13.2187C12.6633 13.1625 12.7372 13.1379 12.7372 13.1379C12.7899 13.1836 12.927 13.2434 12.927 13.2434C12.9411 13.2152 12.927 13.1941 12.927 13.1941C13.0219 13.2891 13.138 13.2609 13.138 13.2609C13.1661 13.2398 13.159 13.1836 13.159 13.1836C13.1977 13.1836 13.2047 13.2082 13.2294 13.2293C13.2645 13.2434 13.3489 13.2328 13.3489 13.2328C13.3137 13.2187 13.2891 13.1695 13.2891 13.1695C13.4227 13.0816 13.7005 13.1168 13.7005 13.1168C13.9008 13.1555 13.8762 13.2891 13.8762 13.2891C13.9133 13.3104 13.9466 13.3377 13.9747 13.3699C13.9922 13.3207 13.9747 13.275 13.9747 13.275C14.0696 13.3172 14.0872 13.4262 14.0872 13.4262C14.1926 13.3031 13.9852 13.166 13.9852 13.166C14.0872 13.152 14.1962 13.1625 14.2665 13.1695C14.3574 13.1855 14.4424 13.2256 14.5126 13.2855C14.579 13.33 14.6528 13.3621 14.7305 13.3805C14.7305 13.3523 14.6532 13.3066 14.6356 13.2961C14.618 13.2891 14.611 13.2609 14.611 13.2609C14.6813 13.275 14.727 13.268 14.727 13.268C14.6171 13.2071 14.5145 13.134 14.4212 13.05C14.5126 13.0605 14.5653 13.0043 14.5653 13.0043C14.3719 13.0043 14.3649 12.9586 14.3649 12.9586C14.3895 12.9621 14.4774 12.9867 14.5934 12.9621C14.7094 12.9375 14.8676 12.9621 14.8676 12.9621C14.7833 12.8285 14.4633 12.8531 14.3579 12.8566C14.2524 12.8637 14.2172 12.8496 14.2172 12.8496C14.2313 12.8426 14.2524 12.825 14.3297 12.8215C14.4106 12.8215 14.4915 12.832 14.5829 12.7652C14.6708 12.7055 14.7973 12.7266 14.7973 12.7266C14.7692 12.6633 14.6215 12.6422 14.495 12.7266C14.3684 12.8039 14.2489 12.7828 14.2489 12.7828C14.4528 12.7547 14.509 12.6809 14.509 12.6809C14.4528 12.6633 14.4176 12.6844 14.2981 12.709C14.1751 12.7336 14.1434 12.6914 14.1434 12.6914C14.2735 12.6141 14.3684 12.5824 14.3684 12.5824C14.2559 12.5543 14.1504 12.5051 14.1504 12.5051C14.0344 12.6176 13.9395 12.6809 13.7145 12.5648C13.4895 12.4418 13.37 12.4594 13.37 12.4594C13.4549 12.4115 13.5515 12.3882 13.6489 12.3919C13.7464 12.3956 13.8409 12.4263 13.9219 12.4805C14.0696 12.5684 14.1153 12.498 14.1153 12.498C14.0661 12.4699 14.0731 12.4418 14.0731 12.4418C14.4317 12.6246 14.5899 12.5121 14.6708 12.4594C14.7481 12.4031 14.6321 12.3328 14.6321 12.3328C14.6251 12.4453 14.4774 12.5051 14.3614 12.4629C14.2454 12.4242 14.1399 12.375 13.9747 12.3012C13.8059 12.2309 13.602 12.2695 13.4051 12.3117C13.2083 12.3504 13.1872 12.3328 13.1661 12.3187C13.1485 12.3012 13.1415 12.2555 13.0395 12.2941C12.9411 12.3363 12.709 12.2273 12.5649 12.1922C12.3664 12.1563 12.1616 12.1898 11.9848 12.2871C11.7809 12.4031 11.679 12.375 11.6192 12.3469C11.5594 12.3188 11.5172 12.2414 11.584 12.1711C11.6508 12.1008 11.6544 12.0867 11.6508 11.9883C11.6438 11.8898 11.5454 11.8301 11.5454 11.8301C11.6368 11.7387 11.6579 11.7141 11.6262 11.6754C11.5981 11.6367 11.6438 11.6367 11.6965 11.6121C11.7493 11.591 11.7247 11.5875 11.7141 11.5559C11.7001 11.5277 11.6719 11.5348 11.6719 11.5348C11.5524 11.5383 11.4856 11.5031 11.4856 11.5031C11.2922 11.4152 11.1059 11.591 11.1059 11.591C10.9969 11.5031 10.9688 11.5629 10.9477 11.5805C10.9337 11.6016 10.8915 11.6156 10.8422 11.6227C10.793 11.6262 10.7192 11.6437 10.6981 11.693C10.6981 11.693 10.6735 11.7281 10.6981 11.7633C10.6981 11.7633 10.7297 11.8125 10.677 11.8687C10.6208 11.925 10.5997 11.9355 10.6208 11.9883C10.6348 12.041 10.6313 12.0832 10.6067 12.1148C10.6067 12.1148 10.5821 12.0867 10.5891 12.0516C10.5962 12.0164 10.5962 11.9918 10.5891 11.9742C10.5891 11.9742 10.5329 12.027 10.5258 12.0656C10.5258 12.0656 10.5012 12.0059 10.5821 11.925C10.6594 11.8477 10.6981 11.809 10.6735 11.7773C10.6559 11.7527 10.5997 11.7914 10.5856 11.802H10.5821Z" fill="#FFC221"/>
<path id="Vector_6" d="M10.8108 12.6773C10.8108 12.6773 10.7124 12.6 10.7229 12.4945C10.7335 12.3891 10.7335 12.382 10.7229 12.3539C10.7229 12.3539 10.7018 12.3645 10.7054 12.4066L10.6983 12.491C10.6983 12.491 10.6456 12.4066 10.621 12.3891C10.621 12.3891 10.6421 12.2977 10.614 12.259C10.5858 12.2203 10.5577 12.2168 10.5261 12.2309C10.4768 12.2449 10.4452 12.2871 10.5964 12.4137C10.5964 12.4137 10.6526 12.4594 10.6913 12.5543C10.73 12.6563 10.7968 12.6703 10.8073 12.6773H10.8108ZM11.303 12.3855C11.303 12.3855 11.2925 12.3293 11.3487 12.2238C11.3668 12.1918 11.3768 12.1559 11.378 12.1192C11.3793 12.0825 11.3716 12.046 11.3557 12.0129C11.3452 11.9848 11.3382 11.9953 11.3909 11.9496C11.4612 11.8934 11.3663 11.823 11.4788 11.7246C11.4788 11.7246 11.5491 11.6648 11.5632 11.6402C11.5632 11.6402 11.4507 11.7 11.3733 11.7316C11.296 11.7633 11.0112 11.9039 11.0745 11.9988C11.1378 12.0937 11.1307 12.0973 11.1202 12.1395C11.1202 12.1395 10.9444 12.048 11.0112 11.9004C11.0112 11.9004 11.0358 11.8441 11.1061 11.7738C11.1765 11.7141 11.1378 11.7879 11.2679 11.7105C11.2679 11.7105 11.3733 11.6473 11.4296 11.5664C11.4296 11.5664 11.3593 11.6086 11.3347 11.6156C11.3347 11.6156 11.18 11.6438 11.1167 11.707C11.0569 11.7773 10.9233 11.8863 10.9655 12.0129C10.9655 12.0129 10.8143 11.9953 10.7792 11.8371C10.7792 11.8371 10.4944 12.1852 11.0956 12.3504C11.0956 12.3504 11.2011 12.382 11.303 12.3855Z" fill="black"/>
<path id="Vector_7" d="M13.9291 11.2116C14.1541 11.18 15.4478 10.9831 15.5674 10.969C15.6939 10.9585 15.7432 10.9409 15.7853 11.0464C15.8346 11.1589 15.6096 11.1624 15.6096 11.1624L14.0627 11.3382C13.9924 11.3452 13.9748 11.3171 13.9748 11.3171L13.915 11.2397C13.915 11.2397 13.8974 11.2186 13.9291 11.2116Z" fill="#FFC221"/>
<path id="Vector_8" d="M10.7723 11.9187C10.7723 11.9187 10.6036 12.2668 11.261 12.3512C11.261 12.3512 11.261 12.316 11.2891 12.2562C11.3173 12.2035 11.3735 12.091 11.3173 12.0207C11.2645 11.9504 11.363 11.9855 11.3735 11.8906C11.3911 11.7992 11.3665 11.8098 11.4122 11.75C11.4122 11.75 11.2083 11.8238 11.1309 11.9152C11.0501 12.0066 11.2364 12.0734 11.1309 12.1754C11.1309 12.1754 11.0325 12.1402 10.9798 12.0383C10.9798 12.0383 10.8532 12.0418 10.7688 11.9152L10.7723 11.9187Z" fill="#5A3719"/>
<path id="Vector_9" d="M11.4157 12.3477C11.4157 12.3477 11.5774 12.4883 11.7672 12.4812C11.9606 12.4742 12.045 12.425 12.0942 12.3477C12.0942 12.3477 12.1293 12.4039 12.1293 12.4426C12.1293 12.4426 12.2981 12.3055 12.5864 12.4285C12.8747 12.5516 12.7833 12.5129 12.8465 12.5234C12.8465 12.5234 12.7235 12.5023 12.4458 12.6289C12.1575 12.759 11.4051 12.7133 11.4122 12.3477H11.4157Z" fill="black"/>
<path id="Vector_10" d="M11.1447 11.7246C11.1447 11.7246 11.2151 11.7387 11.2854 11.6543C11.2854 11.6543 11.1904 11.6754 11.1447 11.7246ZM10.5928 12.3785C10.5928 12.3785 10.4592 12.273 10.5436 12.252C10.5436 12.252 10.6069 12.2379 10.5928 12.3785Z" fill="#5A3719"/>
<path id="Vector_11" d="M13.5391 13.0422C13.5391 13.0422 13.6164 12.9121 13.8203 12.9121C14.0312 12.9121 14.0523 13.0105 14.3125 13.0281C14.3125 13.0281 13.9996 13.116 13.7816 13.0387C13.743 13.0231 13.7017 13.0154 13.66 13.016C13.6183 13.0166 13.5772 13.0255 13.5391 13.0422Z" fill="black"/>
<path id="Vector_12" d="M11.4824 12.4415C11.4824 12.4415 11.7988 12.6278 12.073 12.4239C12.073 12.4239 12.0941 12.445 12.1152 12.4942C12.1152 12.4942 12.3262 12.2938 12.6988 12.5118C12.6988 12.5118 12.6531 12.5048 12.4773 12.5821C12.2488 12.6806 11.6723 12.7474 11.4824 12.438V12.4415Z" fill="#5A3719"/>
<path id="Vector_13" d="M12.6846 12.6309C12.6846 12.6309 12.9834 12.666 13.233 12.6484C13.3877 12.6414 13.5564 12.6133 13.4756 12.6625C13.3877 12.7152 13.4299 12.7223 13.7885 12.6906C14.14 12.6555 13.785 12.7574 14.0275 12.7891C14.0275 12.7891 13.4334 13.0914 12.6846 12.6309Z" fill="black"/>
<path id="Vector_14" d="M13.4645 12.4413C13.4645 12.4413 13.6402 12.378 13.8055 12.4518C13.9637 12.5291 13.9391 12.5362 14.048 12.5467C14.048 12.5467 13.9742 12.6522 13.7949 12.5678C13.6924 12.5079 13.5808 12.4652 13.4645 12.4413ZM13.6613 12.9756C13.6613 12.9756 13.8336 12.8913 14.0234 12.9791C14.0445 12.9932 14.0938 13.0143 14.1465 13.0249C14.1465 13.0249 14.0023 13.0706 13.8512 13.0249C13.7896 13.0026 13.726 12.9861 13.6613 12.9756ZM12.8105 12.6698C12.8105 12.6698 13.1973 12.7049 13.4012 12.6627C13.4012 12.6627 13.1621 12.7788 13.7668 12.726C13.7668 12.726 13.8969 12.712 13.8828 12.7331C13.8652 12.7541 13.8547 12.7682 13.9215 12.7893C13.9215 12.7893 13.475 12.9932 12.8105 12.6698Z" fill="#5A3719"/>
<path id="Vector_15" d="M10.8982 12.3477C10.8982 12.3477 10.9017 12.3758 10.9861 12.4145C11.074 12.4496 11.1197 12.5199 11.1373 12.5551C11.1502 12.5813 11.1685 12.6045 11.1909 12.6232C11.2133 12.642 11.2393 12.6559 11.2673 12.6641C11.2673 12.6641 10.965 12.7273 10.8349 12.5691C10.8349 12.5691 10.7295 12.4602 10.8947 12.3477" fill="black"/>
<path id="Vector_16" d="M13.2607 13.0402C13.2607 13.0402 13.1446 13.0297 12.9794 12.977C12.8177 12.9172 12.7755 12.9664 12.6841 12.8996C12.5927 12.8293 12.4064 12.8715 12.3747 12.8785C12.3396 12.8785 12.2411 12.8785 12.3607 12.7977C12.3607 12.7977 12.2657 12.7977 12.2271 12.7449C12.2271 12.7449 12.1849 12.7906 12.0161 12.773C12.0161 12.773 12.0935 12.8891 11.7946 12.8539C11.8445 12.9122 11.9105 12.9544 11.9844 12.975C12.0583 12.9957 12.1366 12.9939 12.2095 12.9699C12.2095 12.9699 12.1884 13.0613 12.3255 13.0965C12.4661 13.1316 12.4907 13.1562 12.5646 13.1844C12.5646 13.1844 12.5716 13.1281 12.3888 12.9945C12.3888 12.9945 12.4872 12.991 12.6278 13.0262C12.7685 13.0613 13.0884 13.1387 13.2607 13.0402ZM13.3345 13.1773C13.3345 13.1773 13.3661 13.2477 13.4575 13.2301C13.5454 13.2125 13.6931 13.1879 13.8372 13.2617C13.8372 13.2617 13.8653 13.1387 13.5735 13.1316C13.5735 13.1316 13.3942 13.1387 13.3345 13.1773ZM10.8876 12.3898C10.8876 12.3898 10.7751 12.4812 10.8771 12.5762C10.9685 12.6641 11.1126 12.657 11.1829 12.6535C11.1829 12.6535 11.1372 12.6324 11.1056 12.5762C11.0669 12.5234 11.0669 12.4848 10.9896 12.4496C10.9122 12.4145 10.9017 12.4074 10.8876 12.3898ZM10.7751 11.9152C10.7751 11.9152 10.6028 12.2668 11.2638 12.3512C11.2638 12.3512 11.2638 12.316 11.2919 12.2562C11.313 12.2035 11.3728 12.091 11.32 12.0207C11.2638 11.9504 11.3622 11.9855 11.3763 11.8906C11.3903 11.7992 11.3657 11.8098 11.4114 11.75C11.4114 11.75 11.2075 11.8238 11.1302 11.9152C11.0493 12.0066 11.2357 12.0734 11.1302 12.1754C11.1302 12.1754 11.0317 12.1402 10.979 12.0418C10.979 12.0418 10.8525 12.0418 10.7681 11.9152H10.7751Z" fill="#5A3719"/>
<path id="Vector_17" d="M12.4941 12.7265C12.4941 12.7265 12.6348 12.7019 12.9828 12.8319C13.3344 12.962 13.4785 12.9304 13.5312 12.9304C13.5312 12.9304 13.3344 13.0323 13.0285 12.8952C12.7578 12.7757 12.7402 12.8249 12.4941 12.7265Z" fill="black"/>
<path id="Vector_18" d="M14.6887 12.6492C14.6887 12.6492 14.7661 12.6457 14.8153 12.6633C14.8153 12.6633 14.8434 12.6387 14.9208 12.6281C14.9208 12.6281 14.8716 12.5859 14.6887 12.6492ZM14.4497 12.4523C14.4497 12.4523 14.527 12.4523 14.5551 12.4102C14.5551 12.4102 14.5094 12.3609 14.4497 12.3328C14.4497 12.3328 14.4637 12.3926 14.4497 12.4523ZM11.7602 11.5594C11.7602 11.5594 11.7426 11.5172 11.8305 11.5066L13.0012 11.3379C13.0012 11.3379 13.0575 11.3379 13.068 11.373C13.0751 11.4187 13.061 11.4469 12.7973 11.4785C12.5337 11.5066 11.8376 11.5945 11.8376 11.5945C11.8376 11.5945 11.7673 11.6086 11.7602 11.5594Z" fill="#FFC221"/>
<path id="Vector_19" d="M12.8213 11.5098C12.8213 11.5098 12.8213 11.6645 12.9795 11.6856C13.1307 11.7102 13.1834 11.6786 13.2256 11.5977C13.2361 11.5766 13.2818 11.4149 13.215 11.4044C13.1784 11.3996 13.1411 11.4032 13.1061 11.4149C13.0533 11.4395 13.0041 11.4641 13.0182 11.4887C13.0604 11.5485 13.0674 11.559 13.0533 11.5661C13.0146 11.5766 12.9865 11.5415 12.9795 11.5169C12.9725 11.4887 13.0006 11.4711 12.8986 11.4887C12.8564 11.4922 12.8213 11.4922 12.8213 11.5098Z" fill="#FFC221"/>
<path id="Vector_20" d="M13.4755 11.3903C13.5528 11.4009 13.5458 11.5696 13.4544 11.647C13.3489 11.7313 13.254 11.6997 13.254 11.6997C13.1977 11.6786 13.2083 11.6856 13.2469 11.6259C13.2821 11.5661 13.3032 11.4888 13.2821 11.436C13.2751 11.4185 13.2926 11.4009 13.3172 11.4009C13.3172 11.4009 13.3946 11.3833 13.4755 11.3903Z" fill="#FFC221"/>
<path id="Vector_21" d="M13.5459 11.4083C13.5459 11.4083 13.6021 11.4786 13.5318 11.6122C13.5318 11.6122 13.4966 11.6509 13.5705 11.6474C13.6408 11.6403 13.8025 11.5665 13.7814 11.4681C13.7814 11.4681 13.7814 11.4435 13.7357 11.4435C13.6935 11.447 13.7287 11.4224 13.7463 11.4153C13.7638 11.4153 13.8166 11.3907 13.6759 11.2993C13.6759 11.2993 13.6549 11.2817 13.6267 11.2888C13.6056 11.2993 13.5318 11.3239 13.5318 11.3731C13.5318 11.3907 13.5459 11.4083 13.5459 11.4083Z" fill="#FFC221"/>
<path id="Vector_22" d="M13.6973 11.2842C13.6973 11.2842 13.8133 11.365 13.8098 11.3897C13.8098 11.4107 13.7992 11.4459 13.8309 11.4389C13.859 11.4389 13.9785 11.4107 13.9469 11.3334C13.9117 11.2525 13.8766 11.2279 13.8238 11.2033C13.7676 11.1857 13.7535 11.2104 13.7043 11.249C13.7043 11.249 13.6691 11.2701 13.6973 11.2842ZM13.0961 11.3967C13.0961 11.3967 13.1137 11.3404 13.0117 11.3158C13.0117 11.3158 13.0539 11.2807 13.1418 11.2982C13.2227 11.3158 13.2156 11.3756 13.2156 11.3791C13.2156 11.3791 13.1488 11.3791 13.0961 11.3967ZM13.3141 11.3826C13.3141 11.3826 13.4266 11.3615 13.4793 11.3686C13.4793 11.3686 13.423 11.242 13.2684 11.2807C13.2684 11.2807 13.3246 11.351 13.3141 11.3826ZM13.5109 11.3545C13.5109 11.3545 13.5109 11.3123 13.6094 11.2736C13.6094 11.2736 13.5637 11.2279 13.4934 11.235C13.4195 11.235 13.402 11.2631 13.402 11.2631C13.402 11.2631 13.4898 11.2947 13.5109 11.351V11.3545ZM13.5461 11.2139C13.5461 11.2139 13.6129 11.235 13.6516 11.2666C13.6516 11.2666 13.7078 11.2033 13.757 11.1893C13.757 11.1893 13.6621 11.14 13.5461 11.2174V11.2139Z" fill="#FFC221"/>
<path id="Vector_23" d="M10.3363 10.9094C10.3363 10.9094 10.607 10.6809 10.7582 10.709C10.9094 10.7371 10.8355 10.7195 10.9973 10.6914C11.166 10.6668 11.3348 10.6492 11.4051 10.6562C11.4051 10.6562 11.2012 10.5156 10.8461 10.5156C10.8461 10.5156 10.5965 10.6035 10.4242 10.7195C10.4242 10.7195 10.0867 10.5332 9.74219 10.6422C9.74219 10.6422 10.1184 10.7828 10.3398 10.9094H10.3363Z" fill="#5A3719"/>
<path id="Vector_24" d="M13.2043 11.3059L13.25 11.2988C13.25 11.2988 13.3238 11.3902 13.2711 11.3902C13.2254 11.3902 13.2395 11.3797 13.2359 11.3551C13.2304 11.335 13.218 11.3176 13.2008 11.3059H13.2043ZM12.8633 11.3129C12.8633 11.3129 12.8352 11.348 12.8879 11.341C12.9512 11.3305 12.9406 11.341 13.0039 11.2953C13.0039 11.2953 13.0496 11.2496 13.127 11.2777C13.127 11.2777 13.1902 11.2988 13.243 11.2742C13.2992 11.2461 13.3098 11.2496 13.3379 11.2496C13.366 11.2531 13.366 11.2602 13.4012 11.232C13.4434 11.2039 13.5066 11.225 13.5488 11.1898C13.591 11.1547 13.6438 11.1863 13.5488 11.1195C13.5488 11.1195 13.5277 11.0984 13.5312 11.0844C13.5312 11.0844 13.5664 11.0949 13.598 11.1195C13.6262 11.1441 13.6684 11.1371 13.6789 11.1301C13.6789 11.1301 13.6859 11.0457 13.7668 10.9684C13.8512 10.891 13.8512 10.8875 13.802 10.8875C13.7527 10.8875 13.6719 10.8664 13.6438 10.8875C13.6156 10.9086 13.373 11.0668 13.2289 11.0949C13.0883 11.123 12.9582 11.1652 12.8633 11.3129ZM9.06641 10.434C9.06641 10.434 9.50586 10.5465 9.60078 10.5922C9.60078 10.5922 9.62539 10.5219 9.425 10.4656C9.425 10.4656 9.91016 10.4516 10.4164 10.6836C10.4164 10.6836 10.6625 10.4727 11.457 10.5359C11.457 10.5359 11.457 10.4656 11.4641 10.4129C11.4641 10.4129 10.9086 10.3953 10.3988 10.0859C10.3988 10.0859 9.93828 10.3109 9.06641 10.4375V10.434ZM11.4922 10.6449C11.4676 10.1984 11.6328 10.1562 11.6328 10.1562C11.6328 10.1562 11.7172 10.1598 11.8016 10.1738C11.8016 10.1738 11.668 10.3355 11.7031 10.6555C11.7031 10.6555 11.7172 10.7047 11.6047 10.7047C11.4922 10.7047 11.4957 10.652 11.4957 10.652L11.4922 10.6449Z" fill="#FFC221"/>
<path id="Vector_25" d="M11.6119 10.9398C11.6119 10.9398 11.5275 10.8555 11.5205 10.757C11.5205 10.757 11.5205 10.7324 11.6014 10.7324C11.6857 10.7359 11.6963 10.7289 11.7174 10.7781C11.735 10.8238 11.7877 10.9223 11.8018 10.9363L11.6119 10.9398Z" fill="#5A3719"/>
<path id="Vector_26" d="M11.7918 10.7192C11.7836 10.6622 11.7801 10.6046 11.7813 10.5469C11.7883 10.3008 11.827 10.3219 11.8445 10.3536H11.9324C11.9324 10.3536 11.8691 10.0723 11.7918 10.2376C11.7361 10.3608 11.7166 10.4974 11.7355 10.6313C11.7426 10.7051 11.7496 10.7508 11.7602 10.779L11.7918 10.7192Z" fill="#FFC221"/>
<path id="Vector_27" d="M12.7551 10.7189C12.7551 10.7189 12.9168 10.747 12.6672 10.8033C12.6672 10.8033 12.6777 11.1091 12.973 10.8947C12.973 10.8947 13.1523 10.7822 13.2719 10.7365C13.2719 10.7365 13.3352 10.7189 13.3281 10.6697C13.3281 10.6697 13.3352 10.6134 13.2719 10.6275C13.2719 10.6275 13.2191 10.6275 13.184 10.6169C13.184 10.6169 13.1488 10.5747 13.1277 10.5888C13.1031 10.6064 13.0469 10.5958 13.0926 10.6521C13.1348 10.7013 13.1488 10.6872 13.1699 10.6732C13.191 10.6591 13.2859 10.624 13.198 10.7013C13.1102 10.7787 13.0434 10.6556 13.0152 10.631L12.7551 10.7189ZM11.9289 10.754H11.8586C11.8586 10.754 11.8164 10.8103 11.7883 10.7189L11.7637 10.7787C11.7637 10.7787 11.848 11.1056 11.9289 10.754Z" fill="#5A3719"/>
<path id="Vector_28" d="M11.8269 10.3752C11.8269 10.3752 11.7883 10.5932 11.8375 10.7197L12.6285 10.7373C12.6285 10.7373 12.618 10.5861 12.6285 10.3752H12.516C12.516 10.3752 12.4984 10.551 12.516 10.6565H12.4949C12.4949 10.6565 12.4808 10.5088 12.4949 10.3752H12.4035C12.4035 10.3752 12.3894 10.5369 12.4 10.6565H12.3824C12.3824 10.6565 12.3683 10.5158 12.3824 10.3752H12.2945C12.2945 10.3752 12.2769 10.5194 12.2945 10.6565H12.2699C12.2699 10.6565 12.2523 10.5123 12.2699 10.3752H12.168C12.168 10.3752 12.1469 10.5123 12.168 10.6565H12.1504C12.1504 10.6565 12.1258 10.5194 12.1504 10.3752H12.0484C12.0484 10.3752 12.0273 10.5299 12.0484 10.6565H12.0273C12.0273 10.6565 12.0133 10.5088 12.0308 10.3752H11.9359C11.9359 10.3752 11.9113 10.5053 11.9359 10.6565H11.9113C11.9113 10.6565 11.8973 10.544 11.9183 10.3752H11.8269ZM12.6601 10.7654C12.6601 10.7654 12.6426 10.3787 12.7129 10.2803C12.7867 10.1819 12.8043 10.1994 12.9308 10.2803C13.0574 10.3611 13.2191 10.449 13.2473 10.4561C13.2719 10.4666 13.3105 10.4772 13.3105 10.5475C13.3105 10.6178 13.3211 10.6389 13.2121 10.5475C13.198 10.5369 13.1453 10.4912 13.1066 10.4772C13.0117 10.449 13.1312 10.4983 13.1664 10.551C13.1945 10.5932 13.2226 10.5861 13.1453 10.6072C12.982 10.6549 12.8202 10.7077 12.6601 10.7654Z" fill="#FFC221"/>
<path id="Vector_29" d="M12.9371 10.4864C12.9371 10.4864 12.8773 10.4161 12.9547 10.402C13.025 10.3844 13.032 10.5145 13.0461 10.5918C13.0566 10.6727 12.9547 10.5145 12.9406 10.4899L12.9371 10.4864ZM12.8316 10.8274C12.8316 10.8274 12.7473 10.859 12.8035 10.8836C12.8598 10.9118 13.0145 10.7817 12.9617 10.7922C12.9055 10.7993 12.8316 10.8274 12.8316 10.8274ZM12.9477 10.7079C12.9477 10.7079 13.0215 10.7008 13.0039 10.7325C12.9934 10.7676 12.9652 10.7465 12.9547 10.736C12.9406 10.7325 12.8914 10.7114 12.9477 10.7079Z" fill="black"/>
<path id="Vector_30" d="M13.3486 10.6071C13.3486 10.6071 13.3661 10.7548 13.4927 10.7935C13.4927 10.7935 13.57 10.811 13.5525 10.7478L13.5314 10.6704C13.5208 10.6458 13.4681 10.6317 13.4611 10.6282C13.4575 10.6282 13.4505 10.6107 13.4857 10.6247C13.5208 10.6353 13.5243 10.6388 13.5208 10.6106C13.5208 10.586 13.4997 10.5966 13.4681 10.5825C13.4575 10.5755 13.4681 10.5649 13.4822 10.5685C13.4962 10.5685 13.5279 10.5825 13.5279 10.5333C13.5279 10.5333 13.5349 10.5017 13.4962 10.5017C13.454 10.5017 13.4575 10.4806 13.4681 10.4771C13.4822 10.4771 13.5243 10.5052 13.5384 10.4524C13.5525 10.4032 13.4786 10.4349 13.4892 10.4067C13.4997 10.3786 13.5525 10.4208 13.5525 10.3892C13.5595 10.361 13.6017 10.347 13.5279 10.3364C13.4962 10.3329 13.5279 10.3153 13.563 10.3224C13.6052 10.3259 13.6298 10.2802 13.6509 10.2626C13.679 10.245 13.8091 10.1677 13.6298 10.1923C13.454 10.2169 13.4013 10.3048 13.3943 10.3224C13.3507 10.4105 13.3348 10.5098 13.3486 10.6071Z" fill="#FFC221"/>
<path id="Vector_31" d="M13.7604 10.7236C13.785 10.7201 13.8061 10.7236 13.8131 10.7376C13.8412 10.7974 13.7779 10.7798 13.7393 10.822C13.7006 10.8642 13.6971 10.8572 13.6479 10.8431C13.5951 10.8255 13.5775 10.7482 13.5775 10.7482C13.5705 10.7201 13.5916 10.7201 13.6162 10.7236C13.6162 10.7236 13.7041 10.7341 13.7604 10.7236ZM13.5705 10.6919C13.5705 10.6919 13.5705 10.706 13.6057 10.7095C13.6303 10.7095 13.7182 10.7201 13.7744 10.7025C13.7744 10.7025 13.7885 10.7025 13.7814 10.6673C13.7814 10.6673 13.7814 10.6427 13.7357 10.6533C13.6865 10.6603 13.6197 10.6533 13.5951 10.6498C13.574 10.6427 13.56 10.6498 13.5705 10.6884V10.6919ZM13.5635 10.5865C13.5635 10.5865 13.5635 10.6287 13.6057 10.6357H13.7357C13.7568 10.6357 13.7885 10.6251 13.792 10.6005C13.792 10.5689 13.8025 10.5513 13.7428 10.5654C13.683 10.5794 13.6162 10.5689 13.6092 10.5654C13.6021 10.5654 13.5635 10.5548 13.5635 10.583V10.5865ZM13.5846 10.488C13.5846 10.488 13.5705 10.5126 13.574 10.5302C13.574 10.5513 13.6092 10.5619 13.6689 10.5619C13.7287 10.5619 13.785 10.5513 13.7885 10.5302C13.792 10.5091 13.8061 10.4845 13.7604 10.4951C13.7161 10.5022 13.671 10.5022 13.6268 10.4951C13.6021 10.4845 13.5846 10.481 13.5846 10.488Z" fill="#FFC221"/>
<path id="Vector_32" d="M15.827 10.7254C15.827 10.7254 15.827 10.7641 15.8586 10.8098L14.1641 10.7605C14.1641 10.7605 14.1852 10.7465 14.1922 10.6797L15.827 10.7254Z" fill="#5A3719"/>
<path id="Vector_33" d="M13.5982 10.4211C13.5982 10.4211 13.5842 10.4633 13.6123 10.4703C13.6404 10.4809 13.6932 10.4879 13.7635 10.4773C13.7635 10.4773 13.7986 10.4773 13.8092 10.4422C13.8232 10.407 13.8197 10.4246 13.7248 10.407C13.7248 10.407 13.6932 10.3965 13.7811 10.3965C13.7811 10.3965 13.8338 10.3965 13.8373 10.3895C13.8479 10.3824 13.9146 10.3262 13.8268 10.3332C13.7424 10.3332 13.7846 10.3156 13.8268 10.3156C13.8725 10.3156 13.883 10.3262 13.8971 10.3156C13.9111 10.3051 13.8971 10.3086 13.876 10.284C13.8549 10.2594 13.8689 10.2664 13.8865 10.284C13.9041 10.2945 13.9146 10.298 13.9322 10.284C13.9533 10.2629 13.9182 10.2383 13.9322 10.2418C13.9463 10.2418 13.9568 10.2734 14.0096 10.2488C14.0693 10.2172 14.1432 10.2312 14.1643 10.2488C14.1818 10.2629 14.2416 10.284 14.2768 10.2488C14.3119 10.2137 14.2346 10.1785 14.2662 10.1785C14.3014 10.1715 14.3225 10.1855 14.3365 10.1574C14.3506 10.1293 14.2838 10.1082 14.3471 10.0871C14.4068 10.073 14.3541 9.90078 14.3365 9.88672C14.3365 9.88672 14.2662 9.92539 14.1924 10.0449C14.115 10.168 14.0693 10.2418 13.9674 10.2031C13.8268 10.1469 13.7459 10.2277 13.7213 10.2383C13.6861 10.2629 13.7986 10.2734 13.7318 10.2734C13.6686 10.2734 13.6686 10.2805 13.6615 10.291C13.658 10.298 13.6615 10.3086 13.6756 10.3121C13.6861 10.3121 13.7107 10.3332 13.6721 10.3332C13.6299 10.3332 13.6018 10.3262 13.6158 10.3684C13.6158 10.3684 13.6158 10.3754 13.6369 10.3789C13.6615 10.3789 13.6721 10.407 13.6264 10.407C13.5982 10.407 13.5982 10.4176 13.5982 10.4211ZM13.7529 10.843C13.7529 10.843 13.7248 10.8641 13.7635 10.8676C13.8057 10.8676 13.8268 10.8781 13.8408 10.857C13.8549 10.8359 13.9111 10.843 13.876 10.8113C13.8338 10.7797 13.8092 10.7973 13.7529 10.8465V10.843Z" fill="#FFC221"/>
<path id="Vector_34" d="M13.9286 10.332C13.9286 10.332 14.0692 10.1984 14.1852 10.2898L14.3188 10.3953C14.3188 10.3953 14.3329 10.4058 14.3012 10.4339C14.2661 10.4656 14.3012 10.4656 14.3364 10.4445C14.3716 10.4269 14.3716 10.4445 14.3891 10.4656C14.4067 10.4832 14.4313 10.4937 14.3751 10.4937H14.2028C14.2028 10.4937 14.1255 10.5007 14.1676 10.4656C14.2028 10.4339 14.1958 10.3953 14.1782 10.3953C14.1571 10.3953 14.1782 10.4164 14.1641 10.4304C14.1501 10.4445 14.1255 10.4585 14.0938 10.4585C14.0622 10.4585 14.0446 10.4796 14.0868 10.4937C14.1325 10.5113 14.0833 10.5218 14.0587 10.5218C14.0341 10.5218 13.9286 10.5289 14.0376 10.5429C14.1501 10.557 14.027 10.5535 14.1079 10.5992C14.2028 10.6519 14.136 10.7609 14.1008 10.7714C14.1008 10.7714 14.0657 10.7925 14.1114 10.7855C14.1606 10.7785 14.1852 10.7749 14.1501 10.7996C14.1184 10.8277 14.0516 10.9085 13.9602 10.8453C13.9602 10.8453 13.9145 10.8277 13.9919 10.8207C14.0692 10.8207 13.9286 10.7996 13.904 10.7855C13.8829 10.7714 13.7985 10.68 13.8512 10.6906C13.9075 10.7011 13.8864 10.6695 13.8512 10.6589C13.8196 10.6484 13.8161 10.5992 13.8512 10.6062C13.8864 10.6203 13.9286 10.6414 13.9602 10.6378C13.9919 10.6378 13.9813 10.6238 13.918 10.6062C13.8548 10.5851 13.8301 10.5816 13.8442 10.5289C13.8583 10.4761 13.9286 10.5499 13.9145 10.5113C13.8969 10.4691 13.8337 10.4902 13.8653 10.441C13.8969 10.3917 13.9075 10.4093 13.9216 10.4164C13.9356 10.4199 13.9567 10.4164 13.9216 10.3882C13.8899 10.3671 13.9216 10.339 13.9286 10.332Z" fill="#FFC221"/>
<path id="Vector_35" d="M14.0273 10.3715C14.0273 10.3715 14.0273 10.3539 14.0555 10.3574C14.0801 10.3574 14.073 10.3469 14.0801 10.3398C14.0871 10.3398 14.1504 10.3609 14.0906 10.382C14.0695 10.3891 14.0344 10.382 14.0309 10.3715H14.0273Z" fill="black"/>
<path id="Vector_36" d="M14.1677 10.5195C14.1677 10.5195 14.1185 10.5441 14.1606 10.5934C14.1958 10.6391 14.1958 10.6531 14.1958 10.6812C14.1923 10.7094 15.827 10.727 15.827 10.727C15.827 10.727 15.8235 10.6215 15.8903 10.5617L14.1677 10.5195Z" fill="#FFC221"/>
<path id="Vector_37" d="M15.8516 10.6973C15.8516 10.6973 15.8586 10.6059 15.9078 10.5778C15.9359 10.5602 15.9711 10.5707 15.9852 10.6411C16.0098 10.743 15.9219 10.8309 15.8832 10.7922C15.848 10.7571 15.8551 10.6973 15.8551 10.6973H15.8516Z" fill="#5A3719"/>
<path id="Vector_38" d="M13.9777 11.0784C13.9777 11.0784 14.0867 10.9834 14.1043 10.9448C14.1043 10.9448 14.3996 11.1557 14.382 10.9623C14.382 10.9623 14.382 10.9096 14.3891 10.8604C14.3891 10.8604 14.4945 10.8744 14.5121 10.7901L14.2379 10.7795C14.2379 10.7795 14.2098 10.7725 14.1676 10.8182C14.1254 10.8639 14.0375 10.9131 13.9566 10.8709C13.9566 10.8709 13.9215 10.8428 13.8863 10.8674C13.8512 10.892 13.8512 10.8955 13.8793 10.9237C13.9074 10.9518 13.9672 11.0326 13.9777 11.0784ZM14.6106 10.5018L14.4488 10.4983C14.4488 10.4983 14.3926 10.4139 14.2766 10.3225C14.2766 10.3225 14.2414 10.3084 14.3047 10.2557C14.375 10.203 14.3926 10.1502 14.3926 10.1221C14.3926 10.101 14.3926 10.0588 14.4172 10.0869C14.4383 10.1186 14.6035 10.2698 14.6281 10.2276C14.6527 10.1819 14.6598 10.1608 14.6598 10.1467C14.6668 10.1326 14.6703 10.0905 14.6949 10.1362C14.7195 10.1784 14.7336 10.1678 14.7371 10.2768C14.7371 10.2768 14.7371 10.3928 14.7582 10.4315C14.7582 10.4315 14.5473 10.3647 14.6141 10.5018H14.6106ZM13.9145 10.1573C13.9145 10.1573 14.0375 10.2276 14.0973 10.1362C14.1535 10.0448 14.1957 10.0307 14.15 9.93577C14.1043 9.8514 14.15 9.80921 14.1852 9.77054C14.2203 9.73538 14.252 9.74241 14.2555 9.59476C14.259 9.45413 14.3609 9.40843 14.4031 9.36273C14.4488 9.32054 14.5578 9.25374 14.3891 9.2221C14.2238 9.19749 13.8863 9.1096 13.802 8.97952C13.7141 8.84945 13.6754 8.92679 13.6754 8.9303C13.6754 8.93734 13.6473 9.03226 13.7316 9.20452C13.816 9.37679 13.8899 9.48577 13.9777 9.54202C14.0586 9.60179 14.1324 9.62991 14.0902 9.74593C14.0481 9.86195 13.9777 10.0659 13.9145 10.1608V10.1573Z" fill="#7B3C20"/>
<path id="Vector_39" d="M14.3684 9.79145C14.3684 9.79145 14.3859 10.0903 14.6039 10.1958C14.6039 10.1958 14.6531 10.0797 14.632 9.96372C14.632 9.96372 14.7024 9.97075 14.7234 10.0024C14.7234 10.0024 14.7234 9.91802 14.625 9.88638C14.5195 9.85474 14.5723 9.66138 14.6074 9.64028C14.6426 9.61919 14.632 9.577 14.6074 9.54184C14.5828 9.50669 14.5793 9.45747 14.6637 9.47856C14.7481 9.49966 14.734 9.45747 14.6813 9.41528C14.632 9.37309 14.6356 9.32036 14.7059 9.32036C14.7762 9.32036 14.8992 9.25005 14.8254 9.22895C14.7551 9.20786 14.7305 9.18325 14.8254 9.15864C14.9274 9.12349 14.9766 9.09184 14.9027 9.08481C14.8254 9.07427 14.7762 9.04966 14.85 9.03911C14.9203 9.02505 14.8395 8.95122 14.7551 8.9477C14.6672 8.94419 14.4914 8.97583 14.632 8.86333C14.7727 8.75083 14.4316 8.8352 14.5723 8.75786C14.7129 8.68755 14.5231 8.71567 14.4949 8.71567C14.4703 8.71567 14.4703 8.71567 14.4809 8.68052C14.4914 8.64184 14.4633 8.62075 14.4176 8.64536C14.3789 8.66997 14.3789 8.66997 14.3824 8.61724C14.3824 8.5645 14.3332 8.60317 14.3016 8.61724C14.2664 8.6313 14.1926 8.68755 14.1574 8.65942C14.1293 8.62427 14.1117 8.59263 14.0168 8.64888C13.9149 8.70864 13.9395 8.65942 13.943 8.6313C13.943 8.60317 13.9781 8.50474 13.8481 8.61372C13.718 8.7227 13.8199 8.4977 13.718 8.57153C13.6125 8.64888 13.602 8.66294 13.5844 8.6313C13.5703 8.59614 13.5492 8.56802 13.4332 8.64184C13.3172 8.71216 13.4051 8.59614 13.4191 8.57153C13.4367 8.54341 13.4859 8.37817 13.384 8.50825C13.384 8.50825 13.3348 8.59966 13.2258 8.43794C13.2258 8.43794 13.1133 8.59966 13.0816 8.52583C13.05 8.45552 13.0219 8.44849 12.9832 8.49419C12.9481 8.53989 12.9727 8.49419 12.9586 8.452C12.941 8.41684 12.9305 8.34302 12.7371 8.48013C12.5473 8.62427 12.8074 8.52231 12.6598 8.58559C12.5121 8.64888 12.157 8.84927 12.4805 8.80356C12.8074 8.75786 12.3223 8.93013 12.4348 8.96177C12.5473 8.99341 12.5121 9.09184 12.9375 8.97583C13.3594 8.85981 13.2891 8.95825 13.507 8.86333C13.725 8.77192 13.4578 8.89497 13.7461 8.89145C14.0379 8.88091 13.7953 8.89145 13.8516 8.9477C13.9113 9.00747 14.1539 9.14809 14.3789 9.17622C14.6109 9.19731 14.6672 9.11294 14.6039 9.21138C14.5336 9.30981 14.5125 9.34849 14.4738 9.38716C14.4387 9.41528 14.3262 9.49614 14.3227 9.63325C14.3227 9.77036 14.1469 9.79145 14.2102 9.94614L14.3684 9.79145Z" fill="#5A3719"/>
<path id="Vector_40" d="M14.7442 10.1241C14.7442 10.1241 14.6915 10.0855 14.6915 10.0187C14.6915 10.0187 14.7266 10.0257 14.7442 10.0468C14.7442 10.0468 14.8743 9.89915 14.7126 9.84641C14.5579 9.79016 14.6352 9.64954 14.6915 9.64954C14.7442 9.64954 14.7547 9.63548 14.709 9.57219C14.6633 9.51594 14.6668 9.50891 14.7583 9.49485C14.8426 9.48079 14.8356 9.45969 14.7934 9.4386C14.7672 9.42365 14.7434 9.40467 14.7231 9.38235C14.7231 9.38235 14.9762 9.27337 14.8954 9.22063C14.811 9.17141 14.8954 9.18548 14.9657 9.13274C15.043 9.08001 15.0536 9.06946 15.0606 9.04837C15.0606 9.04837 14.9903 9.0554 14.934 9.04837C14.934 9.04837 14.9973 9.01321 14.934 8.96048C14.8708 8.90774 14.8497 8.86555 14.7442 8.89016C14.6458 8.91126 14.6809 8.87962 14.7161 8.83743C14.7583 8.79524 14.7407 8.77063 14.6668 8.76008C14.6668 8.76008 14.6774 8.7179 14.7301 8.66516C14.7301 8.66516 14.593 8.67571 14.5473 8.6511C14.5473 8.6511 14.6036 8.61594 14.6036 8.56673C14.6036 8.56673 14.5333 8.59485 14.4348 8.5843C14.4348 8.5843 14.4946 8.53509 14.4946 8.4929C14.4946 8.4929 14.3258 8.52805 14.2485 8.58782C14.2485 8.58782 14.2344 8.58782 14.2239 8.56673C14.2098 8.55266 14.1993 8.53157 14.0165 8.58782C14.0165 8.58782 14.0376 8.50696 14.0833 8.4718C14.1254 8.44368 14.1184 8.3804 13.8372 8.55618C13.8372 8.55618 13.7985 8.53508 13.7668 8.45071C13.7668 8.45071 13.7036 8.53509 13.6579 8.56321C13.6579 8.56321 13.6157 8.58079 13.6227 8.52805C13.6297 8.46829 13.5946 8.50696 13.5665 8.52805C13.5383 8.5386 13.5172 8.58079 13.5313 8.46829C13.5454 8.35579 13.4891 8.33118 13.4891 8.33118C13.4891 8.33118 13.4047 8.45774 13.352 8.4718C13.352 8.4718 13.2606 8.3804 13.2254 8.32063C13.1938 8.26438 13.1938 8.23977 13.1622 8.34524C13.127 8.45071 13.0918 8.45774 13.0918 8.45774C13.0918 8.45774 13.0321 8.40852 13.0251 8.3804C13.0251 8.3804 13.018 8.41204 12.9969 8.42259C12.9969 8.42259 12.9477 8.36282 12.9512 8.28196C12.9512 8.28196 12.6454 8.45071 12.6067 8.55266C12.6067 8.55266 12.3184 8.53508 12.2024 8.55618C12.2024 8.55618 12.2305 8.46477 12.3079 8.41555C12.3079 8.41555 12.2305 8.40852 12.227 8.33118C12.227 8.33118 12.2868 8.33821 12.3254 8.33118C12.3606 8.32063 12.2727 8.21165 12.3676 8.20813C12.4626 8.20813 12.5223 8.25383 12.4836 8.12727C12.4379 8.00071 12.4555 8.00071 12.4555 8.00071C12.4555 8.00071 12.6243 8.09915 12.6489 8.07102C12.677 8.04993 12.6278 8.00071 12.7754 8.0218C12.9231 8.04993 12.8809 7.96555 12.9407 7.95852C12.9969 7.95852 13.0251 7.99368 12.9899 7.73001C12.9547 7.46633 13.1692 7.86008 13.0251 7.4593C13.0251 7.4593 12.9899 7.33626 12.8985 7.28352C12.8985 7.28352 12.8774 7.37141 12.7825 7.29759C12.6805 7.21673 12.4872 7.19212 12.5715 7.12884C12.6524 7.06555 12.6911 6.98821 12.6665 6.93548C12.6665 6.93548 12.568 7.03391 12.4028 6.9636C12.2692 6.90384 12.2411 7.0093 12.1075 6.98118C12.1075 6.98118 12.1075 6.94602 12.22 6.85462C12.336 6.76321 12.1567 6.88274 12.0864 6.90032C12.0161 6.9179 11.995 6.90032 12.1426 6.7843C12.2938 6.66829 12.5926 6.4679 12.5504 6.29563C12.5504 6.29563 12.6208 6.38704 12.8071 6.32024C12.9899 6.25696 13.1305 6.23235 13.1833 6.13391C13.2395 6.04251 13.3836 5.94759 13.4223 5.92298C13.461 5.90188 13.5102 5.88782 13.454 5.97923C13.3942 6.07063 13.3028 6.22532 13.0497 6.33079C12.793 6.43626 12.6981 6.51008 12.6489 6.56985C12.6032 6.62258 12.3676 6.74563 12.5223 6.72805C12.6735 6.70344 12.9336 6.72805 12.8106 6.6929C12.6911 6.65774 12.5504 6.71399 12.6629 6.61204C12.7754 6.51009 12.7965 6.47844 12.9583 6.40813C13.1235 6.33782 13.3028 6.18313 13.2852 6.35188C13.2676 6.5136 12.9618 6.6929 12.8879 6.74563C12.8141 6.80188 12.8422 6.79485 12.8422 6.81594C12.8422 6.83704 12.8317 6.88274 12.8001 6.90032C12.7684 6.92141 12.779 6.94602 12.786 6.99173C12.7965 7.04094 12.779 7.05852 12.8001 7.06555C12.8247 7.07259 12.8458 7.0761 12.8528 7.10774C12.8633 7.1429 12.8774 7.14641 12.9231 7.1429C12.9653 7.13938 12.9934 7.1429 12.9934 7.17102C13.0004 7.19563 13.0426 7.23079 13.0461 7.15344C13.0497 7.07259 13.0813 7.05852 13.0004 7.09368C12.9196 7.12884 12.902 7.11829 12.9055 7.07962C12.9055 7.04446 12.895 7.05149 12.8633 7.04798C12.8282 7.04798 12.8176 6.99876 12.8774 6.96712C12.9372 6.93548 12.9372 6.96712 13.011 6.90383C13.0848 6.84055 13.0848 6.82649 13.0989 6.79837C13.1094 6.76673 12.9934 6.88274 12.9336 6.90735C12.8774 6.93548 12.895 6.88977 12.9055 6.82649C12.9126 6.76321 13.0532 6.67532 13.1165 6.67532C13.1833 6.67532 13.3274 6.71048 13.2676 6.80188C13.2043 6.88977 13.0251 6.99524 13.0989 7.00227C13.1762 7.0093 13.1903 6.98118 13.236 7.01634C13.2782 7.05852 13.236 7.13938 13.2184 7.18157C13.1982 7.22239 13.1694 7.25836 13.134 7.28704C13.134 7.28704 13.0532 7.13938 13.0567 7.2554C13.0567 7.37141 13.0391 7.41008 13.0567 7.4136C13.0743 7.42063 13.1622 7.4804 13.1903 7.4804C13.2184 7.4804 13.0356 7.56477 13.1129 7.5718C13.1903 7.57883 13.3168 7.53665 13.359 7.45579C13.359 7.45579 13.1973 7.42063 13.1376 7.36087C13.1376 7.36087 13.3168 7.31868 13.2676 7.1429C13.2676 7.1429 13.4504 7.19212 13.3731 7.27649C13.2922 7.35735 13.243 7.3468 13.3133 7.3679C13.3836 7.38899 13.4118 7.41009 13.4118 7.41009C13.4118 7.41009 13.461 7.43469 13.4329 7.46985C13.4047 7.51204 13.4047 7.56829 13.4329 7.56477C13.4504 7.56477 13.5278 7.52962 13.468 7.49446C13.3977 7.45227 13.5383 7.4593 13.4786 7.42415C13.4223 7.38899 13.4047 7.38548 13.3907 7.3679C13.3731 7.35384 14.129 6.91087 13.7458 7.0761C13.7458 7.0761 13.8266 6.90032 13.9391 6.90032C14.0446 6.90032 14.0551 6.98821 13.9954 7.05852C13.9286 7.12532 13.8899 7.23079 13.7422 7.25188C13.7422 7.25188 13.9532 7.35735 13.7036 7.5261C13.7036 7.5261 13.6473 7.55071 13.6684 7.56829C13.6895 7.58938 13.8372 7.50501 13.8583 7.45579C13.8785 7.40549 13.9176 7.3651 13.9672 7.34329C14.0235 7.31516 14.3047 7.12532 14.3891 6.98118C14.4735 6.84055 14.4946 6.83704 14.6563 6.70344C14.818 6.56985 14.7934 6.59798 14.8145 6.56634C14.8356 6.53469 14.8426 6.48196 14.92 6.43977C14.9903 6.39758 15.2856 6.23587 15.377 6.16907C15.4684 6.10227 15.6583 5.97923 15.7356 5.87727C15.8165 5.77532 16.0344 5.64524 16.0872 5.66633C16.1434 5.69446 16.0872 5.7718 15.9571 5.86673C15.827 5.96165 15.5141 6.21829 15.4614 6.26048C15.3335 6.36266 15.1914 6.44557 15.0395 6.50657C14.9411 6.52063 14.9516 6.55579 14.8918 6.62258C14.8321 6.68938 14.6915 6.82298 14.6458 6.85813C14.6001 6.90032 14.4876 6.97415 14.4805 7.0304C14.477 7.08313 14.5016 7.09016 14.4102 7.17102C14.2779 7.29519 14.1273 7.39835 13.9637 7.47688C13.9637 7.47688 14.1325 7.53313 14.034 7.64915C13.9321 7.76165 13.9391 7.74407 13.9321 7.75462C13.9321 7.75462 14.1852 7.71243 14.0094 7.91282C14.0094 7.91282 13.9708 7.97259 14.0516 7.91282C14.136 7.84251 14.1008 7.75813 14.0903 7.74758C14.0903 7.74758 14.2274 7.65969 14.3856 7.65969C14.5403 7.65969 14.5333 7.64563 14.3926 7.60696C14.3926 7.60696 14.4946 7.48391 14.5754 7.54719C14.6633 7.60344 14.6352 7.64212 14.5473 7.68782C14.4559 7.73704 14.3258 7.7511 14.2309 7.80735C14.2309 7.80735 14.4137 7.84251 14.5122 7.76868C14.6106 7.69134 14.6176 7.73001 14.6282 7.74407C14.6422 7.75813 14.6528 7.77923 14.6106 7.84602C14.5649 7.9093 14.5614 7.9093 14.5649 7.92337C14.5649 7.94094 14.5579 7.98313 14.47 7.99368C14.3856 8.01126 14.3399 8.04993 14.3715 8.09212C14.3997 8.1343 14.3997 8.23626 14.3258 8.22923C14.252 8.21868 14.2696 8.15891 14.2415 8.1343C14.2133 8.11321 14.1711 8.07805 14.0376 8.14485C13.904 8.21516 13.8969 8.13079 13.9004 8.08508C13.9004 8.08508 13.8161 8.16243 13.7422 8.09563C13.6719 8.02532 13.7352 7.99719 13.7774 7.96204C13.8196 7.92688 13.9883 7.85305 13.8864 7.86712C13.7809 7.87766 13.6333 7.88469 13.6016 7.81087C13.5629 7.73001 13.6719 7.74055 13.693 7.74758C13.7106 7.7511 13.7774 7.81087 13.7844 7.73704C13.7844 7.65618 13.8969 7.64915 13.8583 7.63157C13.8231 7.62102 13.7668 7.66673 13.7528 7.68782C13.7528 7.68782 13.6754 7.57884 13.5489 7.61048C13.4223 7.64915 13.5876 7.63508 13.6192 7.64212C13.6543 7.64563 13.6333 7.71243 13.5208 7.81438C13.4083 7.91282 13.4575 7.88469 13.5418 7.88469C13.6297 7.88469 13.8336 7.88469 13.7176 7.97962C13.5946 8.08157 13.5454 8.12727 13.4856 8.11321C13.4223 8.09563 13.4891 8.05344 13.5208 8.03235C13.5489 8.01829 13.5629 7.98665 13.5032 8.01126C13.4434 8.03235 13.4258 8.03587 13.3766 7.95501C13.3309 7.86712 13.3485 7.89524 13.3696 7.83899C13.3907 7.78274 13.4364 7.72649 13.3801 7.74758C13.3239 7.76868 13.3309 7.76868 13.3344 7.7054C13.3379 7.64212 13.2711 7.62805 13.2711 7.62805C13.2711 7.62805 13.3028 7.69134 13.2747 7.73352C13.2536 7.77219 13.2501 7.78626 13.2887 7.7968C13.3309 7.80735 13.3661 7.84251 13.3133 7.87766C13.2571 7.91282 13.2676 7.9093 13.2993 7.9304C13.3344 7.95501 13.3836 7.97962 13.3309 8.03235C13.2782 8.08157 13.3204 8.06751 13.3485 8.06751C13.3766 8.06751 13.4329 8.0886 13.4329 8.13782C13.4329 8.19055 13.4329 8.2011 13.5172 8.1554C13.6016 8.10618 13.7704 8.11321 13.7704 8.17649C13.7668 8.2468 13.7458 8.26438 13.8407 8.20462C13.9286 8.14837 13.9672 8.25735 14.0305 8.20462C14.0903 8.15188 14.1325 8.09915 14.2063 8.19055C14.2766 8.28196 14.252 8.30657 14.1641 8.37337C14.0797 8.43665 14.2098 8.38743 14.2731 8.35227C14.3364 8.31712 14.5262 8.29602 14.6352 8.34524C14.7407 8.39094 14.7723 8.3804 14.8461 8.34524C14.9305 8.31712 14.9692 8.31009 15.0887 8.38743C15.1678 8.44676 15.2641 8.47883 15.3629 8.47883C15.3629 8.47883 15.2329 8.53157 15.0817 8.5386C14.934 8.55266 14.8567 8.57376 14.8286 8.59837C14.8286 8.59837 14.9165 8.65813 14.934 8.72141C14.934 8.72141 15.0325 8.70735 15.0782 8.72493C15.0782 8.72493 15.0571 8.79524 15.1133 8.83391C15.1766 8.87259 15.2188 8.88665 15.1731 8.93938C15.1274 8.99212 15.2434 8.96751 15.1766 9.03782C15.1133 9.11516 15.0958 9.1468 15.0922 9.21008C15.0922 9.26633 15.1063 9.27337 15.0501 9.2804C14.9938 9.28743 15.0606 9.35071 15.0325 9.43157C15.0079 9.50188 14.8461 9.49485 14.8532 9.70227C14.8532 9.70227 14.8989 9.60384 14.9938 9.51243C15.0887 9.42805 15.0922 9.41751 15.0887 9.36477C15.0887 9.31204 15.0852 9.32259 15.1379 9.28391C15.1836 9.24173 15.1133 9.20657 15.1661 9.1468C15.2153 9.09055 15.1696 9.1011 15.2329 9.04485C15.2891 8.9886 15.1766 8.98157 15.2399 8.9218C15.2961 8.86555 15.0887 8.79173 15.152 8.75657C15.2118 8.7179 15.3137 8.66165 14.9657 8.66868C14.9657 8.66868 15.0501 8.52805 15.3418 8.55969C15.3418 8.55969 15.2715 8.61594 15.261 8.66868L15.3172 8.69329C15.3172 8.69329 15.3032 8.73196 15.2469 8.77766C15.2469 8.77766 15.4051 8.86555 15.4297 8.91829C15.4297 8.91829 15.3348 8.94641 15.3102 8.9886C15.3102 8.9886 15.3524 9.03782 15.3665 9.09407C15.3665 9.09407 15.261 9.08352 15.2469 9.16438C15.2329 9.24173 15.2012 9.18899 15.2012 9.23469C15.2012 9.2804 15.2012 9.30149 15.1661 9.30852C15.1309 9.31555 15.159 9.35423 15.1661 9.37883C15.1696 9.40696 15.1836 9.46673 15.1801 9.4843C15.1801 9.4843 15.1239 9.4843 15.0993 9.49133C15.0993 9.49133 15.1168 9.60735 15.0536 9.62141C14.9903 9.63899 15.0887 9.6636 15.0184 9.67415C14.9516 9.68469 14.9622 9.69173 14.8778 9.83938C14.8778 9.83938 14.9481 9.80071 15.0184 9.75149C15.0958 9.70227 15.0184 9.71634 15.1379 9.60032C15.2575 9.47727 15.2364 9.47024 15.2258 9.41048C15.2153 9.35071 15.2153 9.30149 15.2575 9.24173C15.3032 9.18548 15.3137 9.11868 15.4719 9.12923C15.4719 9.12923 15.4262 9.02376 15.3665 8.99915C15.3665 8.99915 15.4438 8.94641 15.5211 8.9429C15.5211 8.9429 15.4508 8.85501 15.3102 8.77766C15.3102 8.77766 15.4262 8.67571 15.4543 8.63001C15.4543 8.63001 15.4016 8.64055 15.3559 8.63001C15.3559 8.63001 15.377 8.5843 15.4825 8.51399C15.4825 8.51399 15.5422 8.56673 15.5352 8.62298C15.5352 8.62298 15.718 8.52102 15.8165 8.53509C15.8165 8.53509 15.8692 8.66165 15.6196 8.90423C15.6196 8.90423 15.7743 8.91829 15.8411 8.91126C15.8411 8.91126 15.8059 9.02727 15.6161 9.09758C15.4297 9.1679 15.6547 9.25227 15.4649 9.23821C15.2751 9.22415 15.3313 9.28743 15.3383 9.38235C15.3418 9.48079 15.3489 9.58274 15.3454 9.60735C15.3454 9.60735 15.1942 9.55813 15.1977 9.70579C15.1977 9.85344 15.1168 9.88509 15.1028 9.89915C15.1028 9.89915 15.0571 9.86399 14.9903 9.83587C14.9903 9.83587 14.8954 10.0152 14.7442 10.1206V10.1241Z" fill="#5A3719"/>
<path id="Vector_41" d="M14.5263 8.26885C14.5263 8.26885 14.5755 8.26182 14.6669 8.31807C14.7513 8.37432 14.8392 8.25831 14.7442 8.23018C14.6423 8.20206 14.7442 8.16338 14.8286 8.23721C14.92 8.30753 14.9552 8.27237 14.9868 8.24776C15.022 8.22315 15.0571 8.20557 14.9974 8.1669C14.9376 8.12471 15.0396 8.14581 15.0853 8.17745C15.131 8.20557 15.1134 8.2337 15.1064 8.24073C15.0993 8.25128 15.0958 8.3462 15.1837 8.25831C15.2751 8.1669 15.3208 8.07901 15.3173 8.03331C15.3173 8.03331 15.3665 8.06495 15.3735 8.1212C15.3806 8.17745 15.4509 8.09307 15.472 8.06143C15.4966 8.03331 15.5317 7.95245 15.5282 7.89268C15.5282 7.89268 15.588 7.9876 15.6794 7.89268C15.7673 7.80128 15.7321 7.85753 15.8376 7.8294C15.9594 7.79646 16.0692 7.72937 16.154 7.63604C16.2278 7.54463 16.2349 7.60792 16.3298 7.58331C16.4247 7.5587 16.6146 7.42862 16.6321 7.35479C16.6497 7.28448 16.6462 7.23878 16.6216 7.2669C16.5935 7.28799 16.604 7.2669 16.5653 7.24581C16.5196 7.21768 16.4599 7.27745 16.4599 7.27745C16.4599 7.27745 16.5196 7.32315 16.4739 7.34424C16.4282 7.36182 16.3896 7.42862 16.2982 7.40049C16.2138 7.37588 16.1224 7.48487 16.1224 7.48487C16.1224 7.48487 16.1997 7.54463 16.0942 7.58331C15.9958 7.62549 16.0099 7.63604 15.9501 7.59385C15.9501 7.59385 15.8411 7.73096 15.7743 7.75909C15.7743 7.75909 15.7497 7.75909 15.7321 7.73096C15.7321 7.73096 15.6618 7.81182 15.6267 7.82588C15.6267 7.82588 15.5774 7.7837 15.5388 7.76963C15.5388 7.76963 15.4509 7.8751 15.3806 7.91026C15.3806 7.91026 15.3595 7.86807 15.3138 7.83995C15.3138 7.83995 15.2927 7.98057 15.1415 8.06143C15.1415 8.06143 15.1521 8.02628 15.0747 7.97354C15.0747 7.97354 14.8884 8.13526 14.8181 8.15284C14.7442 8.1669 14.8075 8.11768 14.8181 8.09659C14.8286 8.07549 14.8743 8.0087 14.7829 7.98057C14.6915 7.95245 14.7126 8.00167 14.6915 8.0087C14.6704 8.01924 14.6704 7.99112 14.6071 8.00167C14.5509 8.0087 14.5579 8.03682 14.5333 8.04737C14.5052 8.0544 14.3997 8.02979 14.4067 8.09659C14.4138 8.1669 14.463 8.21612 14.3716 8.25479C14.2767 8.29698 14.4067 8.28995 14.5263 8.26885Z" fill="#7B3C20"/>
<path id="Vector_42" d="M14.9029 8.075C14.9029 8.075 14.924 7.98359 14.8467 7.94141C14.8467 7.94141 15.3389 7.86406 14.9662 7.67422C14.9662 7.67422 15.4127 7.58633 15.3072 7.4457C15.2018 7.30508 15.0963 7.32969 15.0857 7.33672C15.0717 7.33672 15.1807 7.25234 15.2088 7.26641C15.2369 7.27695 15.5955 7.41055 15.5006 7.29453C15.4127 7.17852 15.4197 7.18555 15.4057 7.15039C15.4057 7.15039 15.5217 7.15039 15.701 7.32266C15.701 7.32266 15.7361 7.2875 15.7361 7.21367C15.7361 7.21367 15.8592 7.24883 15.9014 7.2875C15.9014 7.2875 15.9225 7.24531 15.9119 7.21719C15.9119 7.21719 16.0244 7.27695 16.0631 7.34023C16.0631 7.34023 16.1123 7.29805 16.1193 7.24531C16.1193 7.24531 16.2283 7.29102 16.26 7.32617C16.26 7.32617 16.2951 7.27695 16.2811 7.21016C16.2811 7.21016 16.4604 7.26289 16.4885 7.15391C16.4885 7.15391 16.6678 7.18906 16.5518 7.25938C16.3971 7.3543 16.5342 7.23828 16.376 7.34727C16.2564 7.43516 16.1896 7.53359 16.1299 7.5125C16.0877 7.49492 16.035 7.61797 15.9787 7.56172C15.9225 7.49844 15.9225 7.52656 15.8768 7.58984C15.8456 7.63633 15.8103 7.67987 15.7713 7.71992C15.7713 7.71992 15.7432 7.70234 15.715 7.67422C15.715 7.67422 15.6799 7.73398 15.6377 7.77969C15.6377 7.77969 15.6025 7.73047 15.5428 7.70234C15.5428 7.70234 15.4514 7.80781 15.3986 7.84297C15.3986 7.84297 15.3424 7.79023 15.2896 7.77266C15.2896 7.77266 15.2791 7.91328 15.1701 7.98359C15.1701 7.98359 15.149 7.94141 15.0752 7.91328C15.0752 7.91328 15.0225 7.99766 14.9029 8.07148V8.075Z" fill="#5A3719"/>
<path id="Vector_43" d="M14.6428 7.85703C14.6428 7.85703 14.583 7.90273 14.6217 7.95195C14.6604 8.00117 14.6639 7.94141 14.7131 7.94141C14.7623 7.93437 15.367 7.82891 14.8186 7.66719C14.8186 7.66719 14.8396 7.64258 14.9346 7.63906C15.0295 7.625 15.374 7.53359 15.2158 7.41055C15.0541 7.29102 14.917 7.45273 15.0541 7.30508C15.1596 7.18906 15.0752 7.13281 15.0752 7.13281L14.6885 7.38594C14.6182 7.42109 14.5127 7.50195 14.6357 7.53711C14.7553 7.57227 14.8361 7.40703 14.8467 7.4457C14.8572 7.48086 14.6041 7.62148 14.6428 7.68828C14.6779 7.75156 14.6709 7.80781 14.7307 7.79375C14.7939 7.7832 14.9627 7.82539 14.8256 7.82188C14.6885 7.81484 14.6428 7.85703 14.6428 7.85703Z" fill="#5A3719"/>
<path id="Vector_44" d="M14.8603 7.55181C14.8603 7.55181 14.8041 7.594 14.8779 7.57291C14.9518 7.55181 15.0994 7.52017 15.0748 7.48502C15.0432 7.44283 14.9482 7.48853 14.8639 7.55533L14.8603 7.55181Z" fill="black"/>
<path id="Vector_45" d="M15.8342 6.92204C15.8342 6.92204 16.1155 6.91149 16.2315 6.99235C16.3475 7.0697 16.4038 7.12243 16.4389 7.13298C16.4389 7.13298 16.4319 7.23845 16.2526 7.1611C16.2526 7.1611 16.2632 7.21384 16.2421 7.26657C16.2421 7.26657 16.1753 7.21735 16.1014 7.20329C16.1014 7.20329 16.0839 7.24196 16.0628 7.26657C16.0628 7.26657 15.9819 7.18571 15.887 7.1611L15.8589 7.21735C15.8589 7.21735 15.7604 7.15759 15.6831 7.15759C15.6831 7.15759 15.7007 7.21735 15.6831 7.24548C15.6831 7.24548 15.4827 7.08024 15.2999 7.10134C15.2999 7.10134 15.3878 7.23141 15.444 7.2947C15.444 7.2947 15.0749 7.26657 15.1382 7.06618C15.1979 6.86931 15.1346 6.91852 15.3737 6.92204H15.8342Z" fill="#7B3C20"/>
<path id="Vector_46" d="M14.1086 7.47109C14.1086 7.47109 14.0664 7.50625 14.1086 7.53437C14.1508 7.5625 14.2949 7.45703 14.316 7.44297C14.3371 7.42539 14.3863 7.42891 14.316 7.48516C14.2457 7.54141 14.1754 7.59766 14.1227 7.65742C14.1227 7.65742 14.3688 7.58711 14.527 7.45352C14.6852 7.31289 14.5199 7.4043 14.7906 7.27422C15.0613 7.14062 15.202 6.9332 15.0578 6.95781C14.9137 6.97891 14.7801 7.14414 14.6676 7.20742C14.5551 7.2707 14.4918 7.27773 14.5094 7.24258C14.527 7.20742 14.6078 7.21797 14.766 7.09492C14.9207 6.96836 14.8855 6.98242 14.8855 6.93672C14.8855 6.89102 14.8293 6.78203 15.0613 6.65898C15.2969 6.53594 16.0246 6.11406 16.0879 5.96289C16.0879 5.96289 15.877 5.9875 15.5957 6.19492C15.4403 6.3243 15.2704 6.4352 15.0895 6.52539C15.0121 6.55352 15.0191 6.53242 14.9734 6.5957C14.8519 6.72271 14.7252 6.84469 14.5938 6.96133C14.5445 6.99648 14.527 7.02461 14.5234 7.10195C14.5234 7.14062 14.207 7.3832 14.1121 7.47109H14.1086Z" fill="#5A3719"/>
<path id="Vector_47" d="M15.0714 6.91602C15.0714 6.91602 15.0117 6.93711 14.9625 6.91602C14.9097 6.88789 14.9273 6.77539 15.0539 6.70859C15.2021 6.62788 15.3606 6.56757 15.525 6.5293C15.525 6.5293 15.5074 6.66992 15.1453 6.79648C15.1453 6.79648 15.1699 6.8668 15.0714 6.91602Z" fill="#5A3719"/>
<path id="Vector_48" d="M15.1982 6.8207C15.1982 6.8207 15.2088 6.85586 15.1982 6.8875C15.1982 6.8875 15.8662 6.95078 16.2178 6.54297C16.2178 6.54297 15.7396 6.58867 15.5498 6.70117C15.5498 6.70117 15.6729 6.55352 16.0279 6.43047C16.383 6.30742 16.5307 6.14922 16.5623 6.06836C16.5623 6.06836 16.1053 6.22656 15.8943 6.22656C15.8943 6.22656 15.8521 6.22656 15.81 6.24766C15.7678 6.27227 15.483 6.47969 15.4057 6.51484C15.4057 6.51484 15.5674 6.50078 15.6236 6.45156C15.6236 6.45156 15.5111 6.75039 15.1982 6.8207Z" fill="#AA5323"/>
<path id="Vector_49" d="M13.9115 7.20312C13.9115 7.20312 13.8236 7.26641 13.8588 7.29453C13.8939 7.32617 13.9572 7.32969 14.0873 7.22422C14.2209 7.1082 14.5408 6.8375 14.3369 6.82695C14.3369 6.82695 14.0803 6.80938 14.0908 6.96758C14.0979 7.12578 13.9221 7.19258 13.9115 7.20312ZM13.3139 7.1082C13.3139 7.1082 13.4861 7.21016 13.4193 7.29102C13.4193 7.29102 13.9432 6.84805 13.792 6.74961C13.6514 6.65469 13.5354 6.8375 13.5705 6.85508C13.6057 6.87266 13.6795 6.84102 13.6549 6.87266C13.547 6.9592 13.433 7.03792 13.3139 7.1082ZM13.1768 6.96758C13.1768 6.96758 13.2928 7.00273 13.2998 7.05195C13.2998 7.09766 13.6443 6.80938 13.5529 6.68633C13.5107 6.63359 13.3244 6.60898 13.3139 6.72148C13.3033 6.82695 13.4861 6.70742 13.4193 6.78477C13.342 6.89023 13.2049 6.95 13.1768 6.96758ZM14.4002 6.725C14.4002 6.725 14.3299 6.77773 14.3967 6.80938C14.4635 6.84102 14.5021 6.7918 14.5373 6.76367C14.5689 6.73203 14.7307 6.6125 14.7658 6.53867C14.808 6.46133 14.8607 6.43672 14.9205 6.39805C14.9803 6.36289 15.3951 6.15195 15.6518 5.92344C15.9084 5.69492 15.7994 5.75469 16.0631 5.60703C16.3268 5.45938 16.5025 5.32578 16.5588 5.16406C16.5588 5.16406 16.4357 5.20625 16.3303 5.27656C16.2213 5.34688 15.9787 5.49805 15.926 5.52266C15.8768 5.54023 15.8135 5.54375 15.7748 5.58242C15.7396 5.62109 15.7396 5.6668 15.6131 5.77227C15.483 5.87773 14.8256 6.3418 14.7447 6.40859C14.6279 6.51191 14.5131 6.6174 14.4002 6.725Z" fill="#5A3719"/>
<path id="Vector_50" d="M13.873 6.8793C13.873 6.8793 13.9434 6.84062 14.0805 6.85117C14.2141 6.8582 14.7484 6.33789 14.9031 6.23594C15.1433 6.07171 15.3778 5.89934 15.6062 5.71914C15.6766 5.65234 15.6871 5.58555 15.7434 5.54688C15.7996 5.51172 15.8523 5.51523 15.9824 5.44141C16.1125 5.36758 16.7418 4.99141 16.7066 4.77344C16.7066 4.77344 15.768 5.33242 15.5535 5.51523C15.2544 5.74911 14.946 5.97078 14.6289 6.17969C14.5234 6.25 14.4391 6.3625 14.2598 6.51016C14.0805 6.65078 13.9012 6.77734 13.873 6.8793Z" fill="#AA5323"/>
<path id="Vector_51" d="M13.6754 6.67891C13.6754 6.67891 13.8477 6.66133 13.8723 6.74922C13.8723 6.74922 14.2414 6.49258 14.3293 6.38711C14.4137 6.28164 14.2977 6.34141 14.5086 6.2043C14.8539 5.97473 15.1927 5.73558 15.5246 5.48711C15.623 5.39922 15.8164 5.2832 15.9676 5.17773C16.1223 5.07578 16.7164 4.78398 16.6496 4.54492L16.1152 4.9C16.0168 4.9668 15.9746 4.92812 15.8762 5.00547C15.7707 5.08633 15.5527 5.24102 15.5141 5.29375C15.3427 5.442 15.1631 5.5805 14.9762 5.70859C14.8109 5.81406 14.4488 6.02852 14.2695 6.1832C14.0731 6.35067 13.8739 6.51475 13.6719 6.67539L13.6754 6.67891Z" fill="#AA5323"/>
<path id="Vector_52" d="M13.1383 6.63008C13.1383 6.63008 13.2227 6.63008 13.2543 6.66523C13.2543 6.66523 13.4125 6.52109 13.5848 6.66523C13.5848 6.66523 14.2176 6.23281 14.2809 6.12734C14.3441 6.02188 14.4496 6.01836 14.6922 5.83906C14.9383 5.65977 15.093 5.58242 15.2547 5.45938C15.4199 5.3293 15.5605 5.18516 15.6766 5.10781C15.7926 5.03398 16.0914 4.83711 16.0422 4.67188C16.0422 4.67188 15.7996 4.80547 15.6449 4.97773C15.4867 5.15352 15.5043 5.00586 15.3426 5.14648C15.1575 5.31851 14.9521 5.46727 14.7309 5.58945C14.527 5.69141 14.65 5.68086 14.4988 5.77578C14.3547 5.8707 14.3652 5.85664 14.309 5.8707C14.2358 5.88818 14.1696 5.9274 14.1191 5.9832C14.0082 6.0778 13.8867 6.1592 13.757 6.22578C13.5374 6.34206 13.329 6.47859 13.1348 6.63359L13.1383 6.63008Z" fill="#AA5323"/>
<path id="Vector_53" d="M13.3238 6.30391C13.3238 6.30391 13.2922 6.23359 13.3519 6.18086C13.4117 6.13164 13.5277 5.99805 13.5418 5.91719C13.5593 5.8293 13.5453 5.84687 13.7175 5.77305C14.2256 5.56042 14.707 5.28904 15.1519 4.96445C15.2222 4.9082 15.398 4.78867 15.4648 4.73242C15.4648 4.73242 15.4965 4.82383 15.4191 4.89062C15.1607 5.0915 14.8907 5.27698 14.6105 5.44609C14.5297 5.4918 14.3293 5.59375 14.2554 5.65703C14.1851 5.71328 14.1957 5.73086 13.8722 5.88906C13.5523 6.04375 13.5383 6.06484 13.5453 6.07539C13.5558 6.08945 13.7 6.02617 13.7703 5.98398C13.8406 5.94531 14.1008 5.82227 14.1816 5.75898C14.259 5.6957 14.3925 5.60078 14.4488 5.56914C14.505 5.54102 14.9761 5.25273 15.1168 5.15078C15.2504 5.05234 15.289 5.0207 15.3172 5.03828C15.3453 5.05234 15.3945 5.05234 15.3347 5.10859C15.275 5.16484 15.0816 5.34062 15.0078 5.38984C14.934 5.43555 14.7019 5.57266 14.6386 5.6043C14.5754 5.63945 14.5508 5.69922 14.5121 5.72734C14.4769 5.75547 14.3715 5.82578 14.2449 5.85391C14.1183 5.88203 14.0972 5.98047 14.0129 6.03672C13.9285 6.08945 13.3343 6.40937 13.3168 6.42344C13.3168 6.42344 13.3519 6.38828 13.3273 6.30391H13.3238Z" fill="#AA5323"/>
<path id="Vector_54" d="M15.3807 4.96758C15.3807 4.96758 15.3491 4.9957 15.3666 5.01328C15.3877 5.03789 15.4721 5.09414 15.5776 4.99219C15.7248 4.85389 15.8823 4.72697 16.0487 4.6125C16.1331 4.55977 16.1788 4.51055 16.1752 4.43672C16.1752 4.43672 15.7498 4.66523 15.3807 4.96758ZM15.9678 4.93242C15.9678 4.93242 16.0311 4.81992 16.1928 4.71797C16.3545 4.6125 16.5971 4.46484 16.6252 4.42969C16.6252 4.42969 16.6815 4.49297 16.5584 4.57383C16.4231 4.65897 16.2894 4.74688 16.1577 4.8375C16.1012 4.88043 16.0366 4.91152 15.9678 4.92891V4.93242Z" fill="#AA5323"/>
<path id="Vector_55" d="M12.7058 6.11641C12.7058 6.11641 12.53 6.21133 12.5933 6.27109C12.6565 6.32734 12.7515 6.30977 12.7936 6.29219C12.8288 6.27812 12.9061 6.25703 12.9167 6.25703C12.9272 6.25352 13.0819 6.20781 13.1241 6.13398C13.1593 6.06367 13.2647 5.9793 13.3491 5.92305C13.4335 5.86328 13.4651 5.8 13.4511 5.75781C13.4511 5.75781 12.7479 6.08828 12.7058 6.11641ZM11.644 6.93906C11.644 6.93906 11.7706 6.86523 11.9429 6.91094C11.9429 6.91094 11.9358 6.87227 11.9077 6.84766C11.9077 6.84766 12.1186 6.79492 12.1643 6.7C12.21 6.60508 12.2206 6.62969 12.2593 6.60156C12.3015 6.57344 12.5827 6.34492 12.5511 6.2957C12.5159 6.24648 12.5124 6.1832 12.4878 6.15859C12.4878 6.15859 12.4315 6.23945 12.1538 6.36953C11.8796 6.50664 11.5737 6.60508 11.3487 6.90391C11.1272 7.20625 11.1518 7.37852 11.4225 7.45586C11.4225 7.45586 11.6124 7.33633 12.08 7.375C12.5475 7.4207 12.7058 7.59297 12.7374 7.62461C12.7655 7.65977 12.8604 7.77227 12.769 7.96914C12.769 7.96914 12.864 8.00781 12.8675 7.91992C12.878 7.82852 12.8815 7.84961 12.9026 7.86016C12.9272 7.87773 12.9518 7.87773 12.9378 7.81094C12.9308 7.74062 12.9026 7.58945 12.8534 7.53672C12.8147 7.48398 12.864 7.50859 12.8886 7.51562C12.9167 7.52969 13.0151 7.61055 12.9589 7.45937C12.8991 7.31875 12.8815 7.38906 12.878 7.39258C12.878 7.40313 12.8675 7.43828 12.7374 7.34336C12.6387 7.26709 12.5266 7.20987 12.4069 7.17461C12.3225 7.15352 12.3823 7.15352 12.435 7.13594C12.4878 7.11484 12.5511 7.10781 12.5757 7.04805C12.5757 7.04805 12.5265 7.06211 12.435 7.02695C12.3619 7.00548 12.2848 7.00128 12.2097 7.01471C12.1347 7.02813 12.0638 7.0588 12.0026 7.1043C12.0026 7.1043 12.0483 6.92852 11.9112 6.93906C11.7706 6.94961 11.6792 6.94609 11.5315 7.06211C11.5315 7.06211 11.5245 6.88633 11.6616 6.79492C11.8022 6.70352 11.7811 6.75977 11.8585 6.73516C11.9358 6.71406 11.9429 6.63672 11.9077 6.60859C11.9077 6.60859 12.0905 6.64375 12.3929 6.39062C12.3929 6.39062 12.2276 6.60156 12.0308 6.64727C12.0308 6.64727 11.9991 6.76328 11.8198 6.78789C11.644 6.80898 11.6475 6.91445 11.6475 6.93906H11.644Z" fill="#7B3C20"/>
<path id="Vector_56" d="M11.1305 7.98113C11.1305 7.98113 11.2148 7.45027 11.7141 7.4116C12.143 7.37644 12.2836 7.43269 12.368 7.46082C12.4523 7.48894 12.6668 7.54871 12.5824 7.61902C12.5016 7.68582 12.4559 7.67527 12.4559 7.67527C12.4559 7.67527 12.5473 7.5698 12.4629 7.54871C12.375 7.53465 12.3715 7.58387 12.3574 7.62605C12.3434 7.67527 12.3434 7.72449 12.2977 7.75965C12.2977 7.75965 12.2555 7.71043 12.1922 7.75262C12.1289 7.7948 12.1852 7.79832 12.2098 7.79129C12.2344 7.78426 12.266 7.77019 12.259 7.81238C12.252 7.84754 12.2203 7.91785 12.1184 7.97058C12.0129 8.0198 12.0164 8.0198 11.8969 8.0409C11.7738 8.05848 11.6613 8.10769 11.5066 8.23777C11.3484 8.37488 11.1797 8.32918 11.1445 8.18152C11.1164 8.05144 11.1305 7.98113 11.1305 7.98113Z" fill="#5A3719"/>
<path id="Vector_57" d="M11.6965 7.95898C11.6965 7.95898 11.7422 7.85352 11.6613 7.80781C11.6613 7.80781 11.4012 7.85352 11.3203 7.77617C11.3203 7.77617 11.6016 7.75859 11.7773 7.68828C11.9531 7.625 11.9039 7.57578 11.8441 7.56172C11.7809 7.55117 11.6684 7.5793 11.6578 7.63203C11.6578 7.63203 11.6227 7.5793 11.6684 7.53711C11.7141 7.49844 11.7809 7.49141 11.8441 7.50898C11.9074 7.52656 11.9602 7.55469 12.1641 7.44922C12.1641 7.44922 12.2836 7.47734 12.2871 7.55469C12.2871 7.63555 12.2801 7.66719 12.266 7.67773C12.259 7.6918 12.2449 7.71289 12.2203 7.71289C12.1957 7.71289 12.1605 7.70586 12.1324 7.75859C12.1043 7.81484 12.0832 7.86406 12.0305 7.89922C12.0305 7.89922 12.0902 7.72695 11.9391 7.68828C11.9391 7.68828 11.816 7.75859 11.7211 7.76562C11.7211 7.76562 11.8441 7.87813 11.693 7.95898H11.6965Z" fill="black"/>
<path id="Vector_58" d="M11.9668 7.64258C11.9668 7.64258 11.9105 7.58281 11.9844 7.57227C12.0617 7.57227 12.1602 7.625 12.1391 7.67422C12.1215 7.71992 12.0336 7.71641 11.9668 7.64258Z" fill="#5A3719"/>
<path id="Vector_59" d="M16.221 6.80935C16.221 6.80935 16.0804 6.84802 16.2105 6.93591C16.337 7.02029 16.4003 7.09412 16.4917 7.11521C16.5866 7.13982 16.6816 7.17146 16.6816 7.26638C16.6816 7.35779 16.6605 7.39646 16.6113 7.45974C16.5585 7.52654 16.6394 7.55115 16.7062 7.51599L16.8749 7.43513C16.9171 7.40701 16.9909 7.41052 16.9277 7.44568C16.8573 7.48083 16.787 7.50193 16.8749 7.50193C16.9593 7.50544 17.4831 7.51599 17.5921 7.48083C17.7011 7.44568 17.8452 7.43513 17.8558 7.29451C17.8558 7.29451 17.8628 7.23123 17.9015 7.2031C17.9437 7.17498 17.9718 7.11521 17.912 7.15388C17.8523 7.19958 17.8066 7.21716 17.796 7.20662C17.7855 7.19255 17.7784 7.18552 17.8241 7.16443C17.8663 7.14333 17.8909 7.16443 17.9296 7.10818C17.9718 7.0449 17.9683 7.05544 17.9472 7.03083C17.9261 7.00974 17.8769 6.99568 17.9015 6.96755C17.9261 6.93591 17.9472 6.85154 17.8523 6.89724C17.7573 6.94998 17.5675 7.08005 17.4761 7.10115C17.3917 7.12224 17.3249 7.14685 17.2089 7.17146C17.0977 7.19402 16.9909 7.23438 16.8925 7.29099C16.7659 7.3613 16.7765 7.2488 16.7976 7.23474C16.7976 7.23474 16.8468 7.32263 16.9734 7.21013C17.0999 7.10115 17.0577 7.2031 17.3706 7.10115C17.68 6.99919 17.6062 6.98162 17.7257 6.92185C17.8523 6.85857 17.9648 6.85154 17.8804 6.76716C17.7925 6.68279 17.7855 6.67576 17.6765 6.76716C17.5013 6.89844 17.2957 6.98311 17.0788 7.01326C17.0788 7.01326 17.782 6.71091 17.7116 6.66873C17.6497 6.62767 17.5822 6.5957 17.5113 6.5738C17.462 6.55974 17.448 6.54919 17.3355 6.60193C17.223 6.65115 17.2054 6.66169 17.1738 6.66521C17.1386 6.66521 17.0437 6.6863 16.9101 6.75662C16.7765 6.82693 16.7062 6.85505 16.6113 6.90779C16.6113 6.90779 16.6745 6.78123 16.9558 6.69685C17.23 6.61599 17.3706 6.54216 17.3425 6.5281C17.3144 6.51404 17.2406 6.49646 17.1913 6.51052C17.1386 6.51755 17.1562 6.50349 16.9804 6.5738C16.8152 6.63708 16.8855 6.62302 16.7519 6.65466C16.6113 6.68279 16.5585 6.71091 16.4917 6.73904C16.4917 6.73904 16.5198 6.70388 16.6113 6.66873C16.6605 6.65466 16.5585 6.63357 16.6921 6.63005H16.7273C16.8403 6.60591 16.9492 6.56565 17.0507 6.51052C17.0226 6.50349 16.8609 6.48591 16.6921 6.56677C16.5269 6.6406 16.6007 6.61599 16.5445 6.62302C16.4882 6.63708 16.3616 6.71443 16.3195 6.74958C16.2773 6.78474 16.221 6.80935 16.221 6.80935Z" fill="white"/>
<path id="Vector_60" d="M12.097 7.57008C12.097 7.57008 12.1638 7.59117 12.1814 7.63688C12.199 7.68258 12.2377 7.61578 12.2377 7.59469C12.2377 7.57711 12.1955 7.48219 12.1252 7.52438C12.0548 7.56656 12.09 7.56656 12.097 7.57008Z" fill="#5A3719"/>
<path id="Vector_61" d="M11.918 8.47578C11.918 8.47578 12.0551 8.4125 12.1746 8.41953C12.1746 8.41953 12.1254 8.2543 12.2098 8.27891C12.2906 8.31055 12.266 8.3 12.2836 8.3C12.2836 8.3 12.2906 8.19102 12.266 8.14531C12.266 8.14531 12.3539 8.16641 12.4383 8.16641C12.4383 8.16641 12.3574 8.01172 12.4453 7.90273C12.4615 7.93399 12.4839 7.96164 12.5111 7.984C12.5383 8.00636 12.5697 8.02296 12.6035 8.03281V7.94141C12.6035 7.94141 12.6668 7.93438 12.7195 7.95898C12.7687 7.98711 12.8109 7.67773 12.6598 7.60742C12.6598 7.60742 12.6246 7.66719 12.484 7.69531C12.3434 7.72344 12.3434 7.75156 12.2871 7.86055C12.2309 7.96953 12.1816 7.96602 12.0586 8.04336C11.9743 8.10769 11.9078 8.19237 11.8652 8.28945C11.8652 8.28945 11.925 8.35977 11.918 8.47578Z" fill="#7B3C20"/>
<path id="Vector_62" d="M16.6113 6.66891C16.6605 6.66188 16.5585 6.63375 16.6921 6.63024H16.7273C16.8403 6.60609 16.9492 6.56584 17.0507 6.5107C17.0226 6.50367 16.8609 6.48609 16.6921 6.56344C16.5234 6.64078 16.6007 6.61617 16.5445 6.62672C16.4631 6.65493 16.3871 6.69652 16.3195 6.74977C16.2773 6.78492 16.221 6.80953 16.221 6.80953C16.221 6.80953 16.0804 6.8482 16.2105 6.9361C16.337 7.02047 16.4003 7.0943 16.4917 7.11539C16.5866 7.14 16.6816 7.17164 16.6816 7.26656C16.6836 7.30188 16.6784 7.33724 16.6663 7.37049C16.6542 7.40374 16.6355 7.43417 16.6113 7.45992C16.5585 7.52672 16.6394 7.55133 16.7062 7.51617L16.8749 7.43531C16.9171 7.40719 16.9909 7.4107 16.9241 7.44586C16.8538 7.48102 16.787 7.50211 16.8749 7.50211C16.9593 7.50563 17.4831 7.51617 17.5921 7.48102C17.7011 7.44586 17.8452 7.43531 17.8558 7.29469C17.8558 7.29469 17.8628 7.23141 17.9015 7.20328C17.9437 7.17516 17.9718 7.11539 17.912 7.15406C17.8523 7.19977 17.8066 7.21735 17.796 7.2068C17.7855 7.19274 17.7784 7.1857 17.8241 7.16461C17.8663 7.14352 17.8909 7.16461 17.9296 7.10836C17.9718 7.04508 17.9683 7.05563 17.9472 7.03102C17.9331 7.02047 17.9156 7.01344 17.9085 6.99938C17.9085 6.99938 17.8734 6.97125 17.8382 6.99586C17.7563 7.04025 17.6688 7.07336 17.5781 7.0943C17.5148 7.10133 17.4445 7.12945 17.332 7.1857C17.2195 7.24195 17.0226 7.36149 16.9909 7.24899L16.8925 7.29117C16.7624 7.35797 16.773 7.26305 16.7976 7.23492C16.7976 7.23492 16.7273 7.31227 16.7308 7.24547C16.7308 7.17516 16.7765 7.1857 16.8538 7.16461C16.9277 7.14 17.0472 7.0943 16.998 7.05211C16.9488 7.01344 16.896 7.0943 16.8433 7.11891C16.787 7.14352 16.6781 7.16461 16.6605 7.08375C16.6429 7.00641 16.6429 6.95016 16.4988 6.94313C16.3511 6.9361 16.3546 6.84117 16.3933 6.8025C16.439 6.76383 16.4706 6.69703 16.6113 6.66891Z" fill="#999999"/>
<path id="Vector_63" d="M17.0827 7.38201C17.0827 7.38201 17.3113 7.28006 17.5222 7.23084C17.7331 7.18162 17.5679 7.23787 17.5327 7.24842C17.4976 7.25897 17.1671 7.36795 17.0898 7.40662C17.0124 7.44178 17.0265 7.41014 17.0827 7.38905V7.38201ZM17.132 7.43475C17.132 7.43475 17.3921 7.34686 17.4413 7.38201C17.4906 7.41717 17.4484 7.40311 17.3921 7.41014C17.3359 7.41717 17.1812 7.4453 17.139 7.4453C17.0968 7.4453 17.132 7.43475 17.132 7.43475ZM17.5503 7.34334C17.5503 7.34334 17.5995 7.3328 17.6031 7.35389C17.6066 7.37147 17.582 7.37498 17.5538 7.37147C17.5257 7.36444 17.5046 7.35037 17.5503 7.34334Z" fill="black"/>
<path id="Vector_64" d="M10.7223 9.59805C10.7223 9.59805 10.7117 9.36953 10.8277 9.25352C10.9438 9.1375 11.4957 8.56094 11.5801 8.39922C11.5801 8.39922 11.6504 8.44844 11.6539 8.53984C11.6539 8.53984 11.7488 8.38164 11.8227 8.31836C11.8227 8.31836 11.8895 8.38867 11.8789 8.52227C11.8789 8.52227 12.0125 8.45195 12.2199 8.45195C12.2199 8.45195 12.1391 8.53633 12.1391 8.59258C12.1391 8.59258 12.4238 8.55742 12.5785 8.58555C12.5785 8.58555 12.1813 8.80352 12.2902 8.82461C12.4063 8.8457 12.5188 8.82461 12.5188 8.82461C12.5188 8.82461 12.3922 8.95117 12.1918 8.97578C12.1918 8.97578 12.4484 8.97578 12.5012 9.03203C12.5012 9.03203 12.2516 9.06719 12.0512 9.22187C12.0512 9.22187 12.0301 9.21133 12.0301 9.15508C12.0301 9.15508 12.023 9.20781 11.9668 9.25703C11.907 9.30273 11.7734 9.40469 11.7207 9.45742C11.6715 9.50664 11.5801 9.60859 11.4746 9.60508C11.4746 9.60508 11.4957 9.52422 11.4219 9.49961C11.3835 9.48672 11.3421 9.48517 11.3029 9.49514C11.2636 9.50512 11.228 9.5262 11.2004 9.55586C11.2004 9.55586 10.9332 9.56289 10.8453 9.57344C10.8453 9.57344 10.9051 9.47852 10.9613 9.47852C11.0176 9.47852 11.2426 9.51367 11.2637 9.35898C11.2812 9.20781 11.1195 9.24648 11.1793 9.15859C11.2426 9.06719 11.2285 9.0707 11.232 9.06016C11.232 9.06016 11.1793 9.08828 11.1512 9.16914C11.1266 9.26045 11.0706 9.34015 10.993 9.39414C10.9183 9.44106 10.8556 9.50488 10.8102 9.58047C10.8102 9.58047 10.7609 9.5875 10.7188 9.59805H10.7223Z" fill="white"/>
<path id="Vector_65" d="M10.9795 9.45664C10.9795 9.45664 10.9865 9.43203 11.0639 9.41445C11.1447 9.40039 11.1518 9.36523 11.1377 9.34414C11.1271 9.33359 11.0814 9.33359 11.1553 9.24219C11.1553 9.24219 11.1834 9.25273 11.201 9.27383C11.2221 9.29492 11.3064 9.47773 10.9795 9.46016V9.45664Z" fill="white"/>
<path id="Vector_66" d="M10.7926 9.29922C10.7926 9.45039 10.993 9.39414 10.993 9.39414C10.9399 9.43153 10.8915 9.4752 10.8488 9.52422C10.8629 9.45391 10.7363 9.43281 10.7363 9.43281C10.7479 9.38557 10.7668 9.34047 10.7926 9.29922ZM11.5168 8.49062L11.5801 8.39922C11.5801 8.39922 11.6504 8.44844 11.6539 8.53984C11.6539 8.53984 11.7488 8.38164 11.8227 8.31836C11.8227 8.31836 11.8895 8.38867 11.8789 8.52227C11.8789 8.52227 12.0125 8.45195 12.2199 8.45195C12.2199 8.45195 12.1391 8.53633 12.1391 8.59258C12.1391 8.59258 12.4238 8.55742 12.5785 8.58555C12.5785 8.58555 12.1813 8.80352 12.2902 8.82461C12.4063 8.8457 12.5188 8.82461 12.5188 8.82461C12.5188 8.82461 12.3922 8.95117 12.1918 8.97578C12.1918 8.97578 12.4484 8.97578 12.5012 9.03203C12.5012 9.03203 12.4238 9.04258 12.3254 9.07773C12.3254 9.07773 12.2551 9.00742 12.0406 9.02148C12.0406 9.02148 12.2059 8.92656 12.3395 8.89492C12.3395 8.89492 12.2832 8.82109 12.1883 8.88789C12.1883 8.88789 12.009 8.76484 12.1602 8.65937C12.1602 8.65937 12.0547 8.63828 11.9844 8.6875C11.9844 8.6875 11.9844 8.59961 12.0617 8.56445C12.0617 8.56445 11.8613 8.5293 11.8156 8.67695C11.8156 8.67695 11.7734 8.61719 11.7945 8.55039C11.7945 8.55039 11.6715 8.6207 11.6152 8.69805C11.6152 8.69805 11.5941 8.54687 11.5168 8.49062ZM11.1301 9.45039C11.0949 9.46094 11.0422 9.46445 10.9789 9.46094C10.9789 9.46094 10.9824 9.43984 11.0281 9.42578C11.0281 9.42578 11.0387 9.45039 11.1266 9.45039" fill="#999999"/>
<path id="Vector_67" d="M11.4957 8.87969C11.4957 8.87969 11.5871 8.95 11.6188 8.99219C11.6188 8.99219 11.7031 8.93594 11.7313 8.88672C11.7313 8.88672 11.8016 8.92891 11.8191 8.99219C11.8191 8.99219 11.8684 8.96406 11.8754 8.92188C11.8754 8.92188 11.9914 8.94297 12.0301 8.97812C12.0301 8.97812 12.0477 8.87266 12.0301 8.79883C12.0301 8.79883 12.1109 8.80586 12.1602 8.82695C12.1602 8.82695 12.1145 8.75313 12.3465 8.6582C12.3465 8.6582 12.1707 8.69687 12.1004 8.7707C12.1004 8.7707 12.0301 8.77773 11.9949 8.75664V8.92188C11.9949 8.92188 11.9527 8.90078 11.8648 8.87969C11.8648 8.87969 11.8438 8.91836 11.8297 8.92891C11.8297 8.92891 11.7699 8.87969 11.7488 8.82695C11.7488 8.82695 11.6609 8.9043 11.6328 8.93594C11.6328 8.93594 11.5484 8.87969 11.4922 8.87969H11.4957Z" fill="black"/>
<path id="Vector_68" d="M10.9684 10.0262C10.9684 10.0262 11.0035 10.0438 11.0879 9.97345C11.1723 9.90314 11.4148 9.75197 11.4359 9.62892C11.4605 9.50587 11.3586 9.49884 11.2812 9.534C11.2004 9.56916 11.2355 9.63947 11.2391 9.66056C11.2391 9.68166 11.2461 9.76603 11.116 9.88556L10.9648 10.0262H10.9684Z" fill="#FFC221"/>
<path id="Vector_69" d="M10.9409 10.0626C10.9409 10.0626 10.7475 9.98174 10.9198 9.89737C11.0921 9.81299 11.1694 9.78838 11.1905 9.71456C11.2116 9.64424 11.201 9.65479 11.1342 9.68292C11.071 9.71456 10.8249 9.82706 10.7897 9.72159C10.7897 9.72159 10.8882 9.76026 11.0147 9.70049C11.1413 9.63721 11.2467 9.61963 11.1659 9.59503C11.085 9.57042 10.7932 9.60206 10.7475 9.61612C10.6983 9.63018 10.7124 9.62667 10.7018 9.67237C10.6948 9.72159 10.6421 9.82354 10.621 9.84815C10.6034 9.87979 10.5507 10.0028 10.6421 10.0591C10.6879 10.0837 10.739 10.0968 10.791 10.0974C10.8431 10.098 10.8945 10.0861 10.9409 10.0626Z" fill="#FFC221"/>
<path id="Vector_70" d="M10.8631 9.6425C10.8631 9.6425 10.8209 9.64953 10.8279 9.66711C10.8385 9.68117 10.849 9.68117 10.8631 9.68117C10.8807 9.68117 10.9053 9.67062 10.9088 9.66359C10.9088 9.64953 10.8807 9.63546 10.8666 9.6425H10.8631Z" fill="black"/>
<path id="Vector_71" d="M10.9268 10.0191C10.9268 10.0191 10.8389 9.97695 10.9409 9.9207C11.0463 9.86445 11.1518 9.8082 11.1694 9.78711C11.1694 9.78711 11.1202 9.85742 10.9303 10.0191H10.9268Z" fill="white"/>
</g>
<defs>
<clipPath id="clip0_186_5133">
<rect width="18" height="18" fill="white"/>
</clipPath>
</defs>
</svg>
