<svg width="18" height="18" viewBox="0 0 18 18" fill="none" xmlns="http://www.w3.org/2000/svg">
<g id="az" clip-path="url(#clip0_186_5138)">
<path id="Vector" d="M0 0H18V18H0V0Z" fill="#3F9C35"/>
<path id="Vector_2" d="M0 0H18V11.9988H0V0Z" fill="#ED2939"/>
<path id="Vector_3" d="M0 0H18V6.00117H0V0Z" fill="#00B9E4"/>
<path id="Vector_4" d="M8.39531 11.7008C9.88648 11.7008 11.0953 10.492 11.0953 9.00078C11.0953 7.50961 9.88648 6.30078 8.39531 6.30078C6.90414 6.30078 5.69531 7.50961 5.69531 9.00078C5.69531 10.492 6.90414 11.7008 8.39531 11.7008Z" fill="white"/>
<path id="Vector_5" d="M8.99609 11.25C10.2387 11.25 11.2461 10.2426 11.2461 9C11.2461 7.75736 10.2387 6.75 8.99609 6.75C7.75345 6.75 6.74609 7.75736 6.74609 9C6.74609 10.2426 7.75345 11.25 8.99609 11.25Z" fill="#ED2939"/>
<path id="Vector_6" d="M11.3977 7.49805L11.6824 8.30664L12.4559 7.9375L12.0902 8.71094L12.8988 8.99922L12.0902 9.2875L12.4559 10.0609L11.6824 9.6918L11.3977 10.5004L11.1094 9.6918L10.3359 10.0609L10.7051 9.2875L9.89648 8.99922L10.7051 8.71094L10.3359 7.9375L11.1094 8.30664L11.3977 7.49805Z" fill="white"/>
</g>
<defs>
<clipPath id="clip0_186_5138">
<rect width="18" height="18" fill="white"/>
</clipPath>
</defs>
</svg>
