<svg width="18" height="18" viewBox="0 0 18 18" fill="none" xmlns="http://www.w3.org/2000/svg">
<g id="ba" clip-path="url(#clip0_186_5139)">
<g id="Clip path group">
<mask id="mask0_186_5139" style="mask-type:luminance" maskUnits="userSpaceOnUse" x="0" y="0" width="18" height="18">
<g id="ba-a">
<path id="Vector" d="M0 0H18V18H0V0Z" fill="white"/>
</g>
</mask>
<g mask="url(#mask0_186_5139)">
<g id="Group">
<path id="Vector_2" fill-rule="evenodd" clip-rule="evenodd" d="M0 0H18V18H0V0Z" fill="#000099"/>
<path id="Vector_3" fill-rule="evenodd" clip-rule="evenodd" d="M2.70703 0L18.0703 15.3633V0H2.70703Z" fill="#FFCC00"/>
<path id="Vector_4" fill-rule="evenodd" clip-rule="evenodd" d="M16.2215 16.5383L15.3039 15.8668L14.3582 16.5348L14.7168 15.4379L13.7887 14.7629H14.9383L15.2969 13.673L15.6484 14.7664L16.8016 14.7699L15.8805 15.452L16.2215 16.5383ZM18.918 16.9039H17.7684L17.4168 15.807L17.0582 16.9004H15.9051L16.8332 17.5754L16.4781 18.6723L17.4203 18.0043L18.3414 18.6723L17.9969 17.5859L18.918 16.9039ZM13.7746 13.3461L14.6957 12.6641H13.5461L13.191 11.5672L12.8324 12.657H11.6828L12.6109 13.3355L12.2559 14.4289L13.198 13.7609L14.1156 14.4324L13.7746 13.3461ZM11.6547 11.2227L12.5758 10.5406L11.4227 10.5371L11.0711 9.44023L10.7125 10.5371L9.56289 10.5336L10.491 11.2086L10.1324 12.3055L11.0781 11.6375L11.9957 12.309L11.6547 11.2227ZM9.55586 9.12383L10.477 8.4418H9.32734L8.97227 7.34492L8.61367 8.43828H7.46406L8.39219 9.11328L8.03711 10.2102L8.9793 9.54219L9.89687 10.2102L9.55586 9.12383ZM7.43242 7.00391L8.35352 6.32539L7.20039 6.32188L6.84883 5.225L6.49023 6.32188L5.34062 6.31836L6.26875 6.99336L5.91016 8.09023L6.85586 7.42227L7.77344 8.09023L7.43242 7.00742V7.00391ZM5.33359 4.89805L6.2582 4.21953L5.10859 4.21602L4.75703 3.11914L4.39492 4.2125H3.2418L4.16992 4.8875L3.81484 5.98438L4.75703 5.31641L5.67461 5.98438L5.33359 4.89805ZM3.22422 2.78867L4.14883 2.11016L2.99922 2.10664L2.64766 1.00977L2.28555 2.10312H1.13242L2.06055 2.77813L1.70547 3.875L2.64766 3.20703L3.56875 3.875L3.22422 2.78867ZM1.11484 0.679297L2.03945 0.000781223L0.886328 -0.00273442L0.534766 -1.09961L0.169141 -0.00625005H-0.980469L-0.0488281 0.66875L-0.403906 1.76562L0.538281 1.09766L1.45586 1.76562L1.11484 0.679297Z" fill="white"/>
</g>
</g>
</g>
</g>
<defs>
<clipPath id="clip0_186_5139">
<rect width="18" height="18" fill="white"/>
</clipPath>
</defs>
</svg>
