<svg width="18" height="18" viewBox="0 0 18 18" fill="none" xmlns="http://www.w3.org/2000/svg">
<g id="bb" clip-path="url(#clip0_186_5140)">
<path id="Vector" d="M0 -0.0078125H18V17.9992H0V-0.0078125Z" fill="#00267F"/>
<path id="Vector_2" d="M6.00098 -0.0078125H11.9986V17.9992H6.00098V-0.0078125Z" fill="#FFC726"/>
<path id="bb-a" d="M9 6.0918C8.80664 6.62266 8.60625 7.17812 8.18086 7.60352C8.3472 7.55212 8.52006 7.52489 8.69414 7.52266V9.75859L8.06133 9.85352C8.03672 9.85352 8.02969 9.81836 8.02969 9.76914C7.96397 9.12753 7.82599 8.4954 7.61836 7.88477C7.6043 7.80391 7.36523 7.4875 7.54805 7.54375C7.57266 7.54375 7.81875 7.64922 7.78008 7.6C7.4269 7.24372 6.9706 7.00758 6.47578 6.925C6.43359 6.91445 6.40547 6.93555 6.44414 6.98477C7.07695 7.95859 7.60781 9.1082 7.6043 10.4723C7.85039 10.4723 8.44805 10.3281 8.69414 10.3281V11.9066H9.00352L9.07383 7.49805L9 6.0918Z" fill="#000001"/>
<path id="bb-a_2" d="M9 6.0918C9.19336 6.62266 9.39375 7.17812 9.81914 7.60352C9.6528 7.55212 9.47994 7.52489 9.30586 7.52266V9.75859L9.93867 9.85352C9.96328 9.85352 9.97031 9.81836 9.97031 9.76914C10.036 9.12753 10.174 8.4954 10.3816 7.88477C10.3957 7.80391 10.6348 7.4875 10.452 7.54375C10.4273 7.54375 10.1812 7.64922 10.2199 7.6C10.5731 7.24372 11.0294 7.00758 11.5242 6.925C11.5664 6.91445 11.5945 6.93555 11.5559 6.98477C10.923 7.95859 10.3922 9.1082 10.3957 10.4723C10.1496 10.4723 9.55195 10.3281 9.30586 10.3281V11.9066H8.99648L8.92617 7.49805L9 6.0918Z" fill="#000001"/>
</g>
<defs>
<clipPath id="clip0_186_5140">
<rect width="18" height="18" fill="white"/>
</clipPath>
</defs>
</svg>
