<svg width="18" height="18" viewBox="0 0 18 18" fill="none" xmlns="http://www.w3.org/2000/svg">
<g id="bi" clip-path="url(#clip0_186_5341)">
<g id="Clip path group">
<mask id="mask0_186_5341" style="mask-type:luminance" maskUnits="userSpaceOnUse" x="-1" y="-1" width="19" height="19">
<g id="bi-a">
<path id="Vector" d="M-0.00390625 -0.00195312H17.996V17.998H-0.00390625V-0.00195312Z" fill="white"/>
</g>
</mask>
<g mask="url(#mask0_186_5341)">
<g id="Group">
<path id="Vector_2" fill-rule="evenodd" clip-rule="evenodd" d="M-6.25781 -0.00195312L8.82097 8.998L-6.25781 17.998V-0.00195312ZM23.8895 -0.00195312L8.82097 8.998L23.8792 17.998L23.8895 -0.00195312Z" fill="#18B637"/>
<path id="Vector_3" fill-rule="evenodd" clip-rule="evenodd" d="M-6.25781 -0.00195312L8.82097 8.998L23.8792 -0.00195312H-6.25781ZM-6.25781 17.998L8.82097 8.998L23.8792 17.998H-6.25781Z" fill="#CF0921"/>
<path id="Vector_4" fill-rule="evenodd" clip-rule="evenodd" d="M23.8895 -0.00195312H21.0815L-6.25781 16.3214V17.998H-3.44983L23.8895 1.67461V-0.00195312Z" fill="white"/>
<path id="Vector_5" fill-rule="evenodd" clip-rule="evenodd" d="M14.0253 8.99752C14.0253 10.3778 13.477 11.7016 12.5009 12.6777C11.5249 13.6537 10.2011 14.2021 8.82076 14.2021C7.44043 14.2021 6.11663 13.6537 5.14059 12.6777C4.16455 11.7016 3.61621 10.3778 3.61621 8.99752C3.61621 7.61718 4.16455 6.29339 5.14059 5.31735C6.11663 4.3413 7.44043 3.79297 8.82076 3.79297C10.2011 3.79297 11.5249 4.3413 12.5009 5.31735C13.477 6.29339 14.0253 7.61718 14.0253 8.99752Z" fill="white"/>
<path id="Vector_6" fill-rule="evenodd" clip-rule="evenodd" d="M-6.25781 -0.00195312V1.67461L21.0815 17.998H23.8895V16.3214L-3.44983 -0.00195312H-6.25781Z" fill="white"/>
<path id="Vector_7" fill-rule="evenodd" clip-rule="evenodd" d="M9.83951 7.03332L9.16066 7.04361L8.81094 7.61961L8.46123 7.04361L7.79266 7.03332L8.1218 6.43676L7.79266 5.85047L8.47152 5.8299L8.82123 5.25391L9.17094 5.84019H9.83951L9.52065 6.43676L9.83951 7.03332ZM7.57666 10.9624H6.89781L6.5481 11.5487L6.19838 10.9727L5.51953 10.9522L5.84867 10.3659L5.52982 9.76931L6.19838 9.75903L6.5481 9.18303L6.89781 9.75903L7.57666 9.7796L7.24752 10.3659L7.57666 10.9624ZM12.1641 10.9624H11.4852L11.1355 11.5487L10.7858 10.9727L10.1172 10.9522L10.4361 10.3659L10.1172 9.76931L10.7961 9.75903L11.1458 9.18303L11.4955 9.75903L12.1641 9.7796L11.8349 10.3659L12.1641 10.9624Z" fill="#CF0921" stroke="#18B637" stroke-width="3.90093"/>
</g>
</g>
</g>
</g>
<defs>
<clipPath id="clip0_186_5341">
<rect width="18" height="18" fill="white"/>
</clipPath>
</defs>
</svg>
