<svg width="18" height="18" viewBox="0 0 18 18" fill="none" xmlns="http://www.w3.org/2000/svg">
<g id="bm" clip-path="url(#clip0_186_5361)">
<path id="Vector" d="M0 0H18V18H0V0Z" fill="#CF142B"/>
<path id="Vector_2" d="M0 0H9V9H0V0Z" fill="#000066"/>
<path id="Vector_3" d="M9 0V1.125L5.66016 4.5L9 7.78711V9H7.82227L4.46484 5.69531L1.19531 9H0V7.80469L3.26953 4.51758L0 1.30078V0H1.08984L4.46484 3.30469L7.73438 0H9Z" fill="white"/>
<path id="Vector_4" d="M3.23438 5.69531L3.42773 6.29297L0.738281 9H0V8.94727L3.23438 5.69531ZM5.41406 5.48438L6.36328 5.625L9 8.20898V9L5.41406 5.48438ZM9 0L5.625 3.44531L5.55469 2.67188L8.19141 0H9ZM0 0.0175781L3.39258 3.33984L2.35547 3.19922L0 0.861328V0.0175781Z" fill="#C8102E"/>
<path id="Vector_5" d="M3.09375 0V9H5.90625V0H3.09375ZM0 3.09375V5.90625H9V3.09375H0Z" fill="white"/>
<path id="Vector_6" d="M0 3.65625V5.34375H9V3.65625H0ZM3.65625 0V9H5.34375V0H3.65625Z" fill="#C8102E"/>
<path id="Vector_7" d="M16.4176 5.1543V10.8355C16.4176 12.3508 13.3906 12.8465 13.3906 12.8465C13.3906 12.8465 10.3496 12.3543 10.3496 10.8285V5.1543H16.4176Z" fill="white"/>
<path id="Vector_8" d="M16.4176 10.8352C16.4176 12.3504 13.3906 12.8461 13.3906 12.8461C13.3906 12.8461 10.3496 12.3539 10.3496 10.8281C10.3496 10.8281 10.3496 10.7051 10.4129 10.6383C10.4129 10.6383 10.3777 10.8879 10.5711 11.0813C10.5711 11.0813 10.4199 10.807 10.5711 10.5434C10.5711 10.5434 10.5148 10.8879 10.7258 11.0813C10.7258 11.0813 10.6098 10.8035 10.7398 10.4941C10.7398 10.4941 10.6766 10.9969 10.9086 11.1023C10.9086 11.1023 10.9719 10.807 10.877 10.6242C10.877 10.6242 11.0387 10.6875 11.0281 11.1094C11.0281 11.1094 11.0809 11.0461 11.0914 10.7402C11.0914 10.7402 11.102 11.0918 11.218 11.1727C11.218 11.1727 11.2602 11.1375 11.2039 10.9793C11.1512 10.8246 11.225 10.7684 11.2391 10.7684C11.2391 10.7684 11.2145 10.9441 11.3586 11.0777C11.3586 11.0777 11.2988 10.8 11.3867 10.7613C11.3867 10.7613 11.3656 10.9969 11.552 11.0461C11.552 11.0461 11.566 10.9793 11.5238 10.9055C11.5238 10.9055 11.4887 10.8176 11.5168 10.7473C11.5168 10.7473 11.573 10.9582 11.6539 10.9934C11.6539 10.9934 11.6082 10.8668 11.6539 10.7473C11.6539 10.7473 11.6609 10.923 11.8227 10.9969C11.8227 10.9969 11.7172 10.8563 11.7523 10.7086L12.7648 10.7578L13.2887 10.7824L14.8602 10.677L15.1273 10.4414C15.1273 10.4414 15.2363 10.5855 15.0676 10.8211C15.0676 10.8211 15.2328 10.793 15.2891 10.5293C15.2891 10.5293 15.3559 10.6734 15.2645 10.8387C15.2645 10.8387 15.4473 10.6488 15.4754 10.4414C15.4754 10.4414 15.5457 10.6453 15.3699 10.8633C15.3699 10.8633 15.5281 10.807 15.5949 10.5785C15.5949 10.5785 15.6477 10.7191 15.4965 10.9125C15.4965 10.9125 15.7812 10.7684 15.7777 10.4555C15.7777 10.4555 15.8902 10.6242 15.7566 10.8633C15.7566 10.8633 15.8973 10.7332 15.9184 10.5363C15.9184 10.5363 15.9957 10.6242 15.9078 10.8668C15.9078 10.8668 16.0836 10.698 16.1152 10.5188C16.1152 10.5188 16.1504 10.6875 15.9992 10.8984C15.9992 10.8984 16.1047 10.8703 16.2031 10.6664C16.2031 10.6664 16.2277 10.7508 16.1398 10.8984C16.1398 10.8984 16.2348 10.8809 16.298 10.691C16.298 10.691 16.3121 10.8035 16.2805 10.902C16.2805 10.902 16.3578 10.8562 16.3754 10.6453C16.3754 10.6453 16.4141 10.7121 16.4141 10.8V10.8281L16.4176 10.8352Z" fill="#2F8F22"/>
<path id="Vector_9" d="M14.8609 7.54844C14.8609 7.54844 14.7555 7.56953 14.6184 7.52734C14.4848 7.48516 14.4285 7.50273 14.3863 7.52734C14.3863 7.52734 14.4426 7.41836 14.309 7.33047C14.309 7.33047 14.3512 7.44297 14.2914 7.49219C14.2914 7.49219 14.2668 7.5168 14.2316 7.48164C14.2316 7.48164 14.1859 7.42891 14.1367 7.39727C14.1367 7.39727 14.2492 7.35508 14.2281 7.23906C14.207 7.12305 14.1437 7.1125 14.1156 7.09492C14.1099 7.12276 14.1099 7.15146 14.1156 7.1793C14.1156 7.1793 13.9891 7.10898 14.1578 7.01406C14.3266 6.91914 14.2984 6.85937 14.2633 6.81016C14.2308 6.76043 14.189 6.71745 14.1402 6.68359C14.1402 6.68359 14.1754 6.73984 14.1648 6.78555C14.1613 6.82773 14.0805 6.85586 14.098 6.78203C14.1156 6.69766 14.098 6.71172 14.098 6.63086C14.098 6.63086 14.2457 6.68008 14.309 6.53242C14.309 6.53242 14.3617 6.38125 14.1754 6.30742C14.1754 6.30742 14.2211 6.3707 14.2 6.41289C14.2 6.41289 14.1578 6.49023 14.1121 6.43398C14.0664 6.37422 14.0313 6.35664 14.0348 6.28633C14.0348 6.28633 14.2105 6.31094 14.1613 6.12109C14.1613 6.12109 14.1332 6.24766 13.9082 6.07891C13.9082 6.07891 14.0559 5.93125 13.9961 5.81172C13.9961 5.81172 13.982 5.75898 13.8273 5.78711C13.8273 5.78711 13.9609 5.70273 13.9047 5.62891C13.9047 5.62891 13.8766 5.5832 13.7465 5.64297C13.7465 5.64297 13.7957 5.56211 13.6691 5.46719C13.6691 5.46719 13.5883 5.50937 13.5461 5.55156C13.5461 5.55156 13.4617 5.44609 13.4055 5.40039C13.4055 5.40039 13.307 5.43906 13.2824 5.55156C13.2824 5.55156 13.2332 5.49883 13.1312 5.46719C13.1312 5.46719 13.0785 5.56562 13.1453 5.64297C13.1453 5.64297 13.0961 5.64297 13.0082 5.6043C13.0082 5.6043 12.9062 5.56211 12.9238 5.64297C12.9379 5.72734 12.9449 5.74844 12.966 5.79062C12.966 5.79062 12.741 5.73789 12.748 5.86094C12.7505 5.90275 12.7614 5.94364 12.7802 5.9811C12.7989 6.01857 12.8251 6.05184 12.857 6.07891C12.857 6.07891 12.7305 6.24766 12.6215 6.12109C12.6215 6.12109 12.5793 6.16328 12.6637 6.26875C12.6637 6.26875 12.748 6.35664 12.6777 6.41641C12.6777 6.41641 12.5898 6.48672 12.5477 6.34609C12.5477 6.34609 12.4 6.49023 12.5723 6.59922C12.5723 6.59922 12.6812 6.6625 12.7937 6.56406C12.7937 6.56406 12.7586 6.84531 12.6531 6.78906C12.6531 6.78906 12.5898 6.74687 12.7023 6.68711C12.7023 6.68711 12.5336 6.66602 12.509 6.82773C12.509 6.82773 12.4879 6.95078 12.6355 7.00352C12.6355 7.00352 12.7445 7.0457 12.632 7.13008C12.632 7.13008 12.5477 7.18984 12.6004 7.28477C12.6004 7.28477 12.6637 7.3832 12.502 7.39727C12.502 7.39727 12.4176 7.39727 12.3824 7.3832C12.3824 7.3832 12.3473 7.45352 12.3719 7.52383C12.3719 7.52383 12.2875 7.46406 12.1082 7.53086C11.9219 7.60117 11.9324 7.55195 11.9219 7.57305L11.8691 7.65742C11.8691 7.65742 11.9641 7.78398 11.9676 7.77344L11.9465 7.91406L11.9992 7.93516L12.3754 7.76641L12.7621 7.56602L13.0785 7.58008L13.2719 7.62578L13.5285 7.64687L13.7184 7.54844H13.9855L14.2773 7.69609L14.6148 7.89648L14.7906 7.93164L14.9242 7.92109V7.64687L14.8609 7.54844Z" fill="#D40000" stroke="black" stroke-width="1.2" stroke-linejoin="round"/>
<path id="Vector_10" d="M11.7985 7.86456C11.7985 7.86456 11.9427 7.94191 12.0095 7.85402C12.0095 7.85402 12.0868 7.69933 11.911 7.64308C11.911 7.64308 12.0059 7.53058 11.9005 7.42511C11.9005 7.42511 11.8477 7.36886 11.7563 7.40753C11.7563 7.40753 11.7141 7.32667 11.6263 7.33019C11.6263 7.33019 11.5419 7.33019 11.5173 7.41808C11.5173 7.41808 11.4083 7.37589 11.3485 7.43917C11.3485 7.43917 11.243 7.55167 11.3837 7.64308L11.4891 7.65363L11.5876 7.60441L11.7001 7.63605C11.7001 7.63605 11.672 7.74855 11.7985 7.86456Z" fill="#D40000" stroke="black" stroke-width="1.2" stroke-linejoin="round"/>
<path id="Vector_11" d="M15.0817 7.59729C15.1305 7.59187 15.1798 7.60182 15.2226 7.62578C15.2655 7.64973 15.2998 7.68648 15.3208 7.73089C15.4157 7.94886 15.2153 8.06839 15.2153 8.06839C15.2294 8.11409 15.2329 8.18089 15.2329 8.18089C15.5106 8.21604 15.4614 8.52542 15.4614 8.52542L15.3665 8.44807C15.2083 8.38479 15.0395 8.52542 14.9235 8.75042C14.8075 8.98245 14.8602 9.0844 14.8813 9.35862C14.9024 9.62932 15.3419 9.79456 15.3419 9.79456L14.9973 10.6735C14.8637 11.025 14.579 10.8809 14.4946 10.8035C14.4173 10.7332 14.3962 10.7754 14.3575 10.8035C14.3153 10.8387 14.5438 11.0145 14.1255 11.1832C13.7176 11.3485 13.6438 11.475 13.5735 11.5172C13.5067 11.5594 13.2219 11.5348 13.1973 11.4961C13.1622 11.461 13.1798 11.461 13.0708 11.3942C12.9653 11.3344 12.786 11.2711 12.5891 11.1762C12.3923 11.0813 12.3958 10.9582 12.3993 10.9336C12.3993 10.909 12.4696 10.7051 12.2376 10.8668C12.0055 11.0321 11.8087 10.7895 11.8087 10.7895C11.7665 10.7297 11.5696 10.2129 11.5696 10.2129C11.529 10.069 11.4785 9.92802 11.4184 9.79104C11.4184 9.79104 11.4079 9.81917 11.5801 9.72073C11.7454 9.62581 11.8262 9.46409 11.886 9.30237C11.9423 9.14065 11.886 8.86292 11.8649 8.81018C11.8438 8.75393 11.7173 8.49729 11.5591 8.44456C11.4008 8.38831 11.2919 8.52893 11.2919 8.52893C11.2919 8.52893 11.2462 8.21253 11.5239 8.17737C11.5239 8.17737 11.5239 8.11409 11.5415 8.06839C11.5415 8.06839 11.3446 7.94886 11.436 7.73089C11.436 7.73089 11.4993 7.57972 11.6751 7.59729L11.6329 7.68167C11.6329 7.68167 11.5907 8.12464 12.2411 7.82932C12.8915 7.52698 12.8704 7.47073 13.2466 7.66057L13.5137 7.65706C13.5137 7.65706 13.904 7.47073 14.0305 7.55159C14.1571 7.63245 14.6036 7.88206 14.6036 7.88206C14.6036 7.88206 15.0395 8.04729 15.1309 7.74143L15.0817 7.59729Z" fill="#64B4D1" stroke="black" stroke-width="1.2"/>
<path id="Vector_12" d="M13.1166 9.52725C13.1166 9.52725 13.0955 9.39014 13.0744 9.30225C13.0744 9.30225 13.0252 9.16514 13.1096 9.06319L13.208 8.94717C13.208 8.94717 13.2713 8.8628 13.3486 8.85225C13.3486 8.85225 13.433 8.85225 13.4365 8.83467C13.4436 8.8171 13.5314 8.67647 13.7389 8.83467C13.7389 8.83467 13.7986 8.7292 13.9041 8.70811C13.9041 8.70811 14.0096 8.67999 14.0658 8.75733C14.0658 8.75733 14.1854 8.66592 14.2908 8.8171C14.2908 8.8171 14.4314 8.73272 14.5439 8.89796C14.5439 8.89796 14.6811 8.82764 14.7689 8.97178C14.8568 9.12295 14.8393 9.18272 14.8393 9.18272L14.9096 9.42178L15.1381 9.70303L14.6002 9.90694H14.3576L13.876 10.0335L13.0217 10.1003L12.7861 9.81905L13.1201 9.52725H13.1166Z" fill="white" stroke="#00247D" stroke-width="1.2" stroke-miterlimit="10"/>
<path id="Vector_13" d="M12.3963 10.9512C12.3963 10.9512 12.2697 10.9547 12.2029 10.9934C12.1396 11.0215 12.0904 11.0566 12.0166 11.1059C12.0166 11.1059 11.9779 11.1516 11.8303 11.1234C11.8303 11.1234 11.5807 11.0637 11.5807 11.2641C11.5807 11.2641 11.2678 11.2852 11.3943 11.5559C11.3943 11.5559 11.4787 11.7668 11.6545 11.6191C11.6545 11.6191 11.542 11.7773 11.76 11.8406C11.76 11.8406 11.9146 11.8828 11.9604 11.7176C11.9604 11.7176 11.985 11.6543 11.9252 11.577C11.9252 11.577 12.0025 11.5629 12.0518 11.482C12.0518 11.482 11.8936 11.6859 12.0693 11.7633C12.0693 11.7633 12.2908 11.816 12.3049 11.5875C12.3049 11.5875 12.2838 11.475 12.3717 11.4363C12.3717 11.4363 12.5475 11.3941 12.6213 11.2043C12.6213 11.2043 12.3717 11.0672 12.3963 10.9512ZM11.8795 8.92969C11.8795 8.92969 11.6826 8.8418 11.5877 8.92969C11.5877 8.92969 11.4611 8.85234 11.324 8.92969C11.324 8.92969 11.1939 9.01406 11.1025 9.1125C11.1025 9.1125 11.0393 9.16523 11.0604 9.3375C11.0604 9.3375 11.0955 9.46055 11.0744 9.5168C11.0744 9.5168 11.0322 9.50977 10.9443 9.61523C10.9443 9.61523 10.8389 9.73828 10.7334 9.62578C10.7334 9.62578 10.7686 9.7875 10.9514 9.75938C10.9514 9.75938 10.8635 9.82969 10.9373 10.0055C10.9373 10.0055 10.9971 10.132 10.9021 10.2937C10.9021 10.2937 11.0639 10.2305 11.0604 10.0406C11.0604 10.0406 11.0428 9.91406 11.0955 9.82969C11.0955 9.82969 11.0428 9.90703 11.1518 10.0793C11.1518 10.0793 11.2361 10.2059 11.1693 10.3324C11.1693 10.3324 11.324 10.2762 11.31 10.0863C11.2924 9.89648 11.2045 9.97383 11.2607 9.79805C11.2607 9.79805 11.2783 9.88945 11.324 9.93867C11.359 9.96822 11.3854 10.0067 11.4002 10.05C11.4151 10.0934 11.4179 10.14 11.4084 10.1848C11.4084 10.1848 11.4998 10.0652 11.4787 9.9457C11.4727 9.89185 11.4572 9.83949 11.433 9.79102L11.7248 9.62227L11.876 9.35859L11.8795 8.92969Z" fill="#D40000" stroke="black" stroke-width="1.2" stroke-linejoin="round"/>
<path id="Vector_14" d="M11.4328 9.68633C11.4328 9.68633 11.3063 9.6793 11.2922 9.58086M11.0742 9.51758C11.0742 9.51758 11.1164 9.51758 11.1586 9.55976C11.1586 9.55976 11.1832 9.60195 11.2289 9.59492" stroke="black" stroke-width="1.2" stroke-miterlimit="10"/>
<path id="Vector_15" d="M11.6117 9.32295C11.6117 9.32295 11.5484 9.32295 11.5098 9.29483C11.5098 9.29483 11.4746 9.27022 11.457 9.30889C11.457 9.30889 11.4219 9.36514 11.4816 9.38975C11.4816 9.38975 11.5625 9.43194 11.4395 9.50928C11.4395 9.50928 11.5801 9.45303 11.5238 9.38272C11.5238 9.38272 11.4605 9.34053 11.4816 9.32295C11.4816 9.32295 11.4887 9.30889 11.5168 9.32295C11.5414 9.34405 11.5906 9.33702 11.6117 9.32295Z" fill="black"/>
<path id="Vector_16" d="M13.5355 9.66758L13.6059 9.64648L13.1172 7.95898H13.0996L13.5355 9.66758Z" fill="#784421" stroke="black" stroke-width="1.2"/>
<path id="Vector_17" d="M11.9004 11.5425C11.9004 11.5425 11.7879 11.4757 11.6895 11.553C11.6895 11.553 11.7035 11.5109 11.7773 11.4933C11.7773 11.4933 11.816 11.3808 11.925 11.3913C11.925 11.3913 11.8793 11.4476 11.8195 11.4898C11.8195 11.4898 11.8863 11.4968 11.9074 11.5425H11.9004Z" fill="black"/>
<path id="Vector_18" d="M11.4965 11.8045C11.4965 11.8045 11.3137 11.692 11.4157 11.4987C11.4157 11.4987 11.4438 11.4459 11.5001 11.4565C11.5001 11.4565 11.6126 11.4916 11.5247 11.6498C11.5247 11.6498 11.479 11.7518 11.5001 11.808L11.4965 11.8045ZM11.8692 11.9908C11.8692 11.9908 11.609 11.8713 11.6899 11.6674C11.6899 11.6674 11.7145 11.5971 11.7708 11.6041C11.7708 11.6041 11.8727 11.6112 11.8516 11.7448C11.8516 11.7448 11.8235 11.8713 11.8692 11.9908Z" fill="#64B4D1" stroke="#00247D" stroke-width="1.2" stroke-miterlimit="2.6"/>
<path id="Vector_19" d="M11.8127 11.2363C11.8127 11.2363 11.7354 11.2961 11.7072 11.3348C11.7072 11.3348 11.6721 11.2926 11.6299 11.2715C11.6299 11.2715 11.6791 11.2609 11.7037 11.282C11.7037 11.282 11.7459 11.2469 11.8127 11.2363Z" fill="black"/>
<path id="Vector_20" d="M12.0449 11.9382C12.0449 11.9382 12.2559 11.889 12.2137 11.6745C12.2137 11.6745 12.1926 11.5831 12.1082 11.5972C12.1082 11.5972 12.0027 11.6253 12.0695 11.7589C12.0695 11.7589 12.1117 11.8503 12.0449 11.9382Z" fill="#64B4D1" stroke="#00247D" stroke-width="1.2" stroke-miterlimit="2.6"/>
<path id="Vector_21" d="M12.9723 7.47773L13.1727 7.54453C13.1727 7.54453 13.359 7.62539 13.6016 7.54453L13.7879 7.47422L13.6613 7.66406V7.76602L13.7387 7.87852C13.7387 7.87852 13.6895 7.89961 13.5488 7.8082C13.5488 7.8082 13.3941 7.68867 13.2078 7.8082C13.2078 7.8082 13.1023 7.87852 13.0215 7.87852L13.141 7.74492L13.0953 7.62188L12.9688 7.4707L12.9723 7.47773Z" fill="#F5CE00" stroke="black" stroke-width="1.2" stroke-miterlimit="2.6"/>
<path id="Vector_22" d="M12.1256 11.6895C12.1256 11.6895 12.1326 11.6754 12.1256 11.6719L12.108 11.6789C12.108 11.6789 12.0869 11.7141 12.108 11.7633C12.108 11.7633 12.1256 11.7949 12.115 11.8266L12.1186 11.8406C12.1186 11.8406 12.1291 11.8371 12.1291 11.8266C12.1291 11.8266 12.1396 11.7984 12.1186 11.7633C12.1186 11.7633 12.0975 11.7141 12.1256 11.6895Z" fill="white"/>
<path id="Vector_23" d="M14.9524 7.86456C14.9524 7.86456 14.8082 7.94191 14.7414 7.85402C14.7414 7.85402 14.6711 7.69933 14.8469 7.64308C14.8469 7.64308 14.7485 7.53058 14.8469 7.42511C14.8469 7.42511 14.9031 7.36886 14.9946 7.40753C14.9946 7.40753 15.0367 7.32667 15.1246 7.33019C15.1246 7.33019 15.209 7.33019 15.2336 7.41808C15.2336 7.41808 15.3461 7.37589 15.4094 7.43917C15.4094 7.43917 15.5078 7.55167 15.3637 7.64308L15.2653 7.65363L15.1633 7.60441L15.0543 7.63605C15.0543 7.63605 15.0824 7.74855 14.9524 7.86456Z" fill="#D40000" stroke="black" stroke-width="1.2" stroke-linejoin="round"/>
<path id="Vector_24" d="M13.7886 7.74791C13.7886 7.74791 13.7886 7.77604 13.7604 7.78307C13.7604 7.78307 13.7253 7.79362 13.7042 7.75143V7.74088C13.7042 7.7233 13.6972 7.67057 13.7534 7.62487C13.7534 7.62487 13.8483 7.55104 14.0241 7.64244C14.1937 7.73779 14.3673 7.82576 14.5444 7.90612C14.5444 7.90612 14.6499 7.96237 14.8186 7.9694C14.8186 7.9694 15.0507 7.98697 15.1456 7.82526C15.1456 7.82526 15.2229 7.70221 15.1456 7.62135C15.1456 7.62135 15.1175 7.58619 15.0682 7.59322C15.0426 7.59893 15.0201 7.61397 15.005 7.63541C15.005 7.63541 14.9663 7.68463 15.005 7.7233C15.005 7.7233 15.0612 7.75846 15.0823 7.68815C15.0823 7.69518 15.0999 7.74791 15.0718 7.7901C15.0718 7.7901 14.9311 8.00104 14.5444 7.78658L14.0452 7.50182C14.0452 7.50182 13.7921 7.37174 13.6374 7.57565C13.6374 7.57565 13.5143 7.7444 13.6725 7.85338C13.6725 7.85338 13.7921 7.92369 13.8624 7.81119C13.8624 7.81119 13.9257 7.70221 13.8272 7.65651C13.8272 7.65651 13.7464 7.61432 13.7112 7.69869C13.6761 7.78307 13.7745 7.80416 13.7815 7.7444C13.7815 7.7444 13.7815 7.73033 13.7921 7.7444L13.7886 7.74791Z" fill="#F5CE00" stroke="black" stroke-width="1.2" stroke-miterlimit="2.6"/>
<path id="Vector_25" d="M11.7881 8.62019V8.30378C11.7881 8.27566 11.7881 8.26159 11.8303 8.22644C11.8654 8.19831 11.9076 8.14558 11.9604 8.2862C11.9604 8.2862 12.0729 8.16316 12.1115 8.14558C12.1115 8.14558 12.1783 8.09284 12.224 8.17019C12.224 8.17019 12.2838 8.07878 12.3295 8.05769C12.3295 8.05769 12.442 7.98738 12.4455 8.20534L12.5334 8.12097C12.5334 8.12097 12.6037 8.06824 12.6811 8.14558C12.6811 8.14558 12.8076 8.27214 12.8217 8.3073C12.8217 8.3073 12.8533 8.34245 12.8568 8.40222C12.8568 8.40222 12.8568 8.47253 12.892 8.50769C12.892 8.50769 12.9342 8.54284 12.9693 8.54988C12.9693 8.54988 13.0572 8.55339 13.0959 8.64128C13.0959 8.64128 13.11 8.6237 13.1557 9.03503V9.79089L12.6494 10.3921L11.8338 10.16L11.5104 10.0229L11.4365 9.79089L11.7529 9.58347L11.9182 9.12644L11.8689 8.79949L11.7881 8.61667V8.62019Z" fill="#E4CB5E" stroke="black" stroke-width="1.2" stroke-miterlimit="2.6"/>
<path id="Vector_26" d="M14.0273 9.01367L14.0695 8.96094L14.1574 8.89062C14.1574 8.89062 14.298 9.25625 14.3051 9.33711V9.44961C14.3051 9.44961 14.516 9.50586 14.5547 9.82578L14.3789 10.1492L14.1082 9.99453L14.0273 9.9418V9.01367Z" fill="#784421" stroke="black" stroke-width="1.2"/>
<path id="Vector_27" d="M11.4503 11.5445C11.4503 11.5445 11.4574 11.534 11.4503 11.5234L11.4327 11.5375C11.4327 11.5375 11.3765 11.5973 11.4222 11.6922C11.4222 11.6922 11.4222 11.7063 11.4363 11.6992C11.4363 11.6992 11.4433 11.6992 11.4363 11.6887C11.4363 11.6887 11.3941 11.6043 11.4503 11.548V11.5445Z" fill="white"/>
<path id="Vector_28" d="M12.2697 11.4816C12.2697 11.4816 12.2732 11.4535 12.2592 11.4254C12.2592 11.4254 12.2451 11.4043 12.2486 11.3727M12.4455 8.20508C12.4455 8.20508 12.4455 8.28594 12.4701 8.3457C12.4912 8.40195 12.5756 8.50391 12.5756 8.55313" stroke="black" stroke-width="1.2" stroke-miterlimit="10"/>
<path id="Vector_29" d="M14.3578 10.9512C14.3578 10.9512 14.4844 10.9547 14.5512 10.9934C14.618 11.0215 14.6672 11.0566 14.7445 11.1059C14.7445 11.1059 14.7797 11.1516 14.9238 11.1234C14.9238 11.1234 15.1805 11.0637 15.1805 11.2641C15.1805 11.2641 15.4863 11.2852 15.3598 11.5559C15.3598 11.5559 15.2754 11.7668 15.0996 11.6191C15.0996 11.6191 15.2121 11.7773 14.9941 11.8406C14.9941 11.8406 14.8395 11.8828 14.7937 11.7176C14.7937 11.7176 14.7691 11.6543 14.8289 11.577C14.8289 11.577 14.7586 11.5629 14.7059 11.482C14.7059 11.482 14.8641 11.6859 14.6883 11.7633C14.6883 11.7633 14.4668 11.816 14.4527 11.5875C14.4527 11.5875 14.4703 11.475 14.3859 11.4363C14.3859 11.4363 14.2102 11.3941 14.1328 11.2043C14.1328 11.2043 14.3824 11.0672 14.3578 10.9512Z" fill="#D40000" stroke="black" stroke-width="1.2" stroke-linejoin="round"/>
<path id="Vector_30" d="M12.3467 8.55742L12.5576 10.2379M12.3959 8.55391L12.6314 10.1219M12.4381 8.54688L12.7088 10.1008" stroke="black" stroke-width="1.2" stroke-miterlimit="10"/>
<path id="Vector_31" d="M12.867 9.96602L12.9408 9.94141L12.4486 8.25391H12.4346L12.867 9.96602Z" fill="#784421" stroke="black" stroke-width="1.2"/>
<path id="Vector_32" d="M12.5857 8.48242L13.085 9.73047M12.5576 8.5L13.0322 9.80078" stroke="black" stroke-width="1.2" stroke-miterlimit="10"/>
<path id="Vector_33" d="M11.7771 11.8693C11.7771 11.8693 11.7174 11.8166 11.7244 11.7181C11.7244 11.7181 11.7244 11.697 11.7174 11.6935C11.7174 11.6935 11.7033 11.69 11.7033 11.7146C11.7033 11.7146 11.6892 11.8166 11.7595 11.8728C11.7595 11.8728 11.7631 11.8834 11.7701 11.8799C11.7701 11.8799 11.7806 11.8799 11.7701 11.8693H11.7771Z" fill="white"/>
<path id="Vector_34" d="M12.6141 8.46484L13.1168 9.60391M12.4805 8.53516L12.7969 10.0715" stroke="black" stroke-width="1.2" stroke-miterlimit="10"/>
<path id="Vector_35" d="M15.0253 9.66797C14.8003 9.54141 14.7511 9.26719 14.7511 9.26719C14.7204 9.0974 14.7412 8.92232 14.8108 8.76445C14.9515 8.46211 15.1976 8.40234 15.1976 8.40234C15.1976 8.40234 14.9585 8.57109 14.8882 8.79609C14.8882 8.79609 14.839 8.98945 14.8706 9.17227C14.8987 9.36562 14.8847 9.31641 14.9304 9.46406L15.0253 9.675V9.66797Z" fill="#F5CE00" stroke="black" stroke-width="1.2" stroke-miterlimit="2.6"/>
<path id="Vector_36" d="M14.0627 8.95508L13.1311 9.25391L13.0783 9.67578C12.8568 9.9957 12.4033 10.052 12.4033 10.052L12.7549 10.4281L13.4264 10.5688L13.785 10.2945L14.1084 9.99922C14.0732 9.84102 14.0908 9.60547 14.0908 9.60547C14.0908 9.56328 14.1084 9.47187 14.1084 9.47187C14.1084 9.47187 14.0521 9.0957 14.0662 8.96211L14.0627 8.95508Z" fill="#784421" stroke="black" stroke-width="1.2"/>
<path id="Vector_37" d="M13.0918 9.57031C13.0918 9.57031 13.707 9.37695 14.0762 9.21875M12.793 9.92188C12.793 9.92188 13.5664 9.78125 14.1078 9.47187L14.3047 9.33828" stroke="black" stroke-width="1.2" stroke-miterlimit="10"/>
<path id="Vector_38" d="M14.3055 9.44922L14.0945 9.60391C14.0945 9.60391 13.2297 9.99766 12.5723 10.0117M14.091 9.88516C14.091 9.88516 13.4266 10.2262 13.0504 10.2297" stroke="black" stroke-width="1.2" stroke-miterlimit="10"/>
<path id="Vector_39" d="M14.8779 8.92969C14.8779 8.92969 15.0748 8.8418 15.1697 8.92969C15.1697 8.92969 15.2963 8.85234 15.4404 8.92969C15.4404 8.92969 15.5635 9.01406 15.6584 9.1125C15.6584 9.1125 15.7217 9.16523 15.7006 9.3375C15.7006 9.3375 15.6654 9.46055 15.6865 9.5168C15.6865 9.5168 15.7287 9.50977 15.8131 9.61523C15.8131 9.61523 15.9256 9.73828 16.024 9.62578C16.024 9.62578 15.9924 9.7875 15.8131 9.75938C15.8131 9.75938 15.8975 9.82969 15.8201 10.0055C15.8201 10.0055 15.7674 10.132 15.8553 10.2937C15.8553 10.2937 15.6936 10.2305 15.7041 10.0406C15.7041 10.0406 15.7146 9.91406 15.6689 9.82969C15.6689 9.82969 15.7146 9.90703 15.6057 10.0793C15.6057 10.0793 15.5248 10.2059 15.5951 10.3324C15.5951 10.3324 15.4334 10.2762 15.4545 10.0863C15.465 9.89648 15.56 9.97383 15.4967 9.79805C15.4967 9.79805 15.4861 9.88945 15.4404 9.93867C15.4054 9.96822 15.3791 10.0067 15.3642 10.05C15.3493 10.0934 15.3465 10.14 15.3561 10.1848C15.3561 10.1848 15.2646 10.0652 15.2857 9.9457C15.3068 9.82266 15.3244 9.79102 15.3244 9.79102L15.0326 9.62227L14.885 9.35859L14.8779 8.92969Z" fill="#D40000" stroke="black" stroke-width="1.2" stroke-linejoin="round"/>
<path id="Vector_40" d="M11.5314 9.99803C11.5314 9.99803 11.5596 9.86795 11.6791 9.91365C11.6791 9.91365 11.7213 9.70271 11.9533 9.69568C12.1783 9.68865 12.1924 9.92068 12.1924 9.93475C12.1924 9.93475 12.2627 9.83631 12.3682 9.84686C12.3682 9.84686 12.565 9.83631 12.4982 10.1457L12.5334 10.1879C12.5334 10.1879 12.674 9.83982 12.9799 9.92771C12.9799 9.92771 13.2717 10.0191 13.0854 10.3039C13.0854 10.3039 13.2295 10.4972 13.3525 10.4797C13.4791 10.4621 13.5881 10.4234 13.7076 10.2054C13.8342 9.98748 14.1189 9.95232 14.1893 9.96639C14.2596 9.97693 14.3193 10.0297 14.3299 10.0789C14.3299 10.0789 14.4846 9.57615 15.0295 9.64998L15.2475 9.766L15.3318 9.80115L15.2053 10.1527L14.9064 10.8277L14.6779 10.898L14.4389 10.7609L14.3545 10.8031L14.351 11.0105L14.0346 11.2355L13.8166 11.3234L13.5775 11.4922L13.5213 11.6398C13.5213 11.6398 13.3912 11.5801 13.24 11.6398L13.1873 11.5133L13.0467 11.3832L12.5018 11.123L12.4033 10.8066L12.3049 10.7609L12.1924 10.8875L12.0307 10.9086L11.7881 10.7398L11.5244 10.0015L11.5314 9.99803Z" fill="white" stroke="#00247D" stroke-width="1.2" stroke-miterlimit="10"/>
<path id="Vector_41" d="M13.9039 7.52346C13.9039 7.52346 13.693 7.51643 13.7035 7.7344" stroke="black" stroke-width="1.2" stroke-miterlimit="2.6"/>
<path id="Vector_42" d="M15.2722 9.81917C14.9101 9.70667 14.8116 9.31644 14.8116 9.31644C14.7698 9.13447 14.7857 8.94397 14.8573 8.77152C15.0261 8.3848 15.3003 8.3848 15.3003 8.3848C15.3366 8.37863 15.3739 8.38696 15.4042 8.408C15.4344 8.42904 15.4552 8.4611 15.462 8.4973C15.4726 8.58167 15.4163 8.61331 15.4163 8.61331C15.3179 8.66605 15.2546 8.59574 15.2546 8.59574C15.2124 8.53949 15.2476 8.49378 15.2476 8.49378C15.2722 8.45863 15.3179 8.47972 15.3179 8.47972C15.3601 8.48675 15.353 8.53597 15.353 8.53597C15.353 8.53597 15.3636 8.47972 15.3109 8.47269C15.3109 8.47269 15.1984 8.44808 15.0718 8.60628C15.0718 8.60628 14.903 8.82074 14.903 9.10199C14.903 9.10199 14.882 9.6223 15.4234 9.75589C15.4234 9.75589 15.3636 9.84027 15.2581 10.1461C15.2581 10.1461 15.1421 10.5399 15.0331 10.7543C15.0331 10.7543 14.882 11.0567 14.548 10.9336C14.548 10.9336 14.3511 10.8457 14.3511 10.7051C14.3511 10.7051 14.337 10.5715 14.4566 10.5645C14.4566 10.5645 14.5726 10.5539 14.5726 10.6524C14.5726 10.6524 14.5726 10.7578 14.446 10.7368C14.446 10.7368 14.4038 10.7262 14.4109 10.684C14.4109 10.684 14.4179 10.6418 14.4706 10.6629C14.5269 10.684 14.4706 10.6629 14.4706 10.6594C14.4706 10.6594 14.4495 10.6489 14.4284 10.6594C14.4284 10.6594 14.4073 10.6594 14.4073 10.6946C14.4073 10.6946 14.4073 10.7157 14.4355 10.7332L14.4917 10.7403C14.4917 10.7403 14.5269 10.8106 14.6007 10.8352C14.6422 10.8476 14.686 10.8502 14.7287 10.8429C14.7714 10.8356 14.8118 10.8185 14.8468 10.793C14.8939 10.7521 14.9302 10.7002 14.9523 10.6418C15.0244 10.4878 15.0867 10.3292 15.1386 10.1672C15.1386 10.1672 15.2019 9.96683 15.2546 9.86136L15.2722 9.81917Z" fill="#F5CE00" stroke="black" stroke-width="1.2" stroke-miterlimit="2.6"/>
<path id="Vector_43" d="M14.2492 10.8072C14.2492 10.8072 14.3196 10.8002 14.3196 10.8599C14.3196 10.8599 14.3196 10.9443 14.2071 10.9267C14.2071 10.9267 14.1016 10.9056 14.1403 10.7861C14.1403 10.7861 14.1649 10.7052 14.2668 10.7158C14.2668 10.7158 14.3617 10.7158 14.4075 10.8494C14.4075 10.8494 14.4391 10.9654 14.3793 11.0603C14.316 11.1658 14.1614 11.2361 14.0875 11.2713C14.0875 11.2713 13.7782 11.3873 13.6867 11.4576C13.6867 11.4576 13.5461 11.5595 13.6129 11.6545C13.6129 11.6545 13.6375 11.6931 13.6692 11.6931C13.6692 11.6931 13.7114 11.6931 13.7184 11.6509C13.7184 11.6509 13.7184 11.6756 13.6903 11.6861C13.6903 11.6861 13.6621 11.7002 13.634 11.6756C13.634 11.6756 13.5989 11.6404 13.6235 11.5912C13.6235 11.5912 13.6621 11.5349 13.75 11.5701C13.75 11.5701 13.8203 11.6088 13.7922 11.6861C13.7922 11.6861 13.7641 11.7599 13.6762 11.7564C13.6762 11.7564 13.6059 11.7564 13.5602 11.7142C13.4934 11.6404 13.4899 11.5033 13.5532 11.433C13.5532 11.433 13.6094 11.3592 13.7219 11.3064L14.0383 11.1834C14.1227 11.1519 14.1994 11.1027 14.2633 11.0392C14.2633 11.0392 14.309 10.99 14.3266 10.8986C14.3266 10.8986 14.3371 10.8283 14.295 10.8142L14.2528 10.8037L14.2492 10.8072Z" fill="#F5CE00" stroke="black" stroke-width="1.2" stroke-miterlimit="2.6"/>
<path id="Vector_44" d="M14.2559 10.8074C14.2559 10.8074 14.3332 10.7934 14.3789 10.8848C14.3789 10.8848 14.4035 10.9375 14.407 10.9727M14.4352 10.6562C14.4352 10.6562 14.3578 10.6668 14.3965 10.7758C14.4387 10.8777 14.502 10.9059 14.523 10.9234" stroke="black" stroke-width="1.2" stroke-miterlimit="2.6"/>
<path id="Vector_45" d="M12.9729 7.74893C12.9729 7.74893 12.9729 7.77705 13.0045 7.78409C13.0045 7.78409 13.0326 7.79112 13.0502 7.75244L13.0537 7.7419C13.0537 7.72432 13.0643 7.67159 13.008 7.62588C13.008 7.62588 12.9131 7.55205 12.7373 7.64346C12.7373 7.64346 12.5967 7.71377 12.5018 7.77002C12.5018 7.77002 12.2486 7.90362 12.217 7.91065C12.217 7.91065 12.108 7.9669 11.9393 7.97393C11.9393 7.97393 11.7072 7.99151 11.6123 7.82979C11.6123 7.82979 11.5385 7.70674 11.6123 7.62588C11.6123 7.62588 11.6404 7.59073 11.6932 7.59776C11.7143 7.60127 11.7354 7.61182 11.7564 7.63994C11.7564 7.63994 11.7916 7.68916 11.7494 7.72784C11.7494 7.72784 11.6967 7.76299 11.6756 7.69268C11.6756 7.69971 11.6615 7.74893 11.6932 7.79815C11.6932 7.79815 11.8303 8.00557 12.2135 7.7876L12.7162 7.50635C12.7162 7.50635 12.9658 7.37627 13.1205 7.57666C13.1205 7.57666 13.2436 7.74541 13.0854 7.85791C13.0854 7.85791 12.9693 7.92823 12.8955 7.81573C12.8955 7.81573 12.8357 7.71026 12.9307 7.66104C12.9307 7.66104 13.0115 7.61885 13.0502 7.70323C13.0854 7.7876 12.9799 7.80869 12.9764 7.74893C12.9764 7.74893 12.9764 7.73487 12.9693 7.74893H12.9729ZM11.7354 9.67198C11.9568 9.54893 12.0061 9.26768 12.0061 9.26768C12.0553 8.98643 11.9463 8.76494 11.9463 8.76494C11.8057 8.4626 11.5596 8.40284 11.5596 8.40284C11.5596 8.40284 11.8021 8.57159 11.8689 8.79659C11.8689 8.79659 11.9217 8.98994 11.89 9.17276C11.8584 9.36612 11.8725 9.3169 11.8268 9.46455L11.7354 9.67198Z" fill="#F5CE00" stroke="black" stroke-width="1.2" stroke-miterlimit="2.6"/>
<path id="Vector_46" d="M12.8564 7.52346C12.8564 7.52346 13.0674 7.51643 13.0533 7.7344" stroke="black" stroke-width="1.2" stroke-miterlimit="2.6"/>
<path id="Vector_47" d="M11.4818 9.81864C11.8475 9.70614 11.9424 9.3159 11.9424 9.3159C11.9854 9.1343 11.9706 8.9438 11.9002 8.77098C11.735 8.38426 11.4572 8.38426 11.4572 8.38426C11.4214 8.37909 11.3851 8.38789 11.3556 8.40883C11.3261 8.42978 11.3059 8.46127 11.299 8.49676C11.285 8.58114 11.3447 8.61278 11.3447 8.61278C11.4396 8.66551 11.5029 8.5952 11.5029 8.5952C11.5451 8.53895 11.51 8.49325 11.51 8.49325C11.4853 8.45809 11.4396 8.47918 11.4396 8.47918C11.3975 8.48621 11.4045 8.53543 11.4045 8.53543C11.4045 8.53543 11.3939 8.47918 11.4502 8.47215C11.4502 8.47215 11.5627 8.44754 11.6893 8.60575C11.6893 8.60575 11.8545 8.8202 11.8545 9.10145C11.8545 9.10145 11.8756 9.62176 11.3342 9.75536C11.3342 9.75536 11.3939 9.83973 11.4994 10.1456C11.4994 10.1456 11.6154 10.5393 11.7279 10.7538C11.7279 10.7538 11.8756 11.0561 12.2131 10.9331C12.2131 10.9331 12.41 10.8452 12.41 10.7046C12.41 10.7046 12.4205 10.571 12.3045 10.5639C12.3045 10.5639 12.185 10.5534 12.185 10.6518C12.185 10.6518 12.185 10.7573 12.3115 10.7362C12.3115 10.7362 12.3537 10.7257 12.3467 10.6835C12.3467 10.6835 12.3432 10.6413 12.2869 10.6624C12.2342 10.6835 12.2869 10.6624 12.2869 10.6589C12.2869 10.6589 12.308 10.6483 12.3291 10.6589C12.3291 10.6589 12.3502 10.6589 12.3502 10.694C12.3502 10.694 12.3502 10.7151 12.3256 10.7327L12.2693 10.7397C12.2693 10.7397 12.2342 10.81 12.1568 10.8347C12.1155 10.8485 12.0714 10.8519 12.0285 10.8445C11.9855 10.8372 11.9451 10.8193 11.9107 10.7925C11.8636 10.7516 11.8273 10.6997 11.8053 10.6413C11.7331 10.4872 11.6709 10.3287 11.6189 10.1667C11.6189 10.1667 11.5592 9.96629 11.5064 9.86082L11.4853 9.81864H11.4818Z" fill="#F5CE00" stroke="black" stroke-width="1.2" stroke-miterlimit="2.6"/>
<path id="Vector_48" d="M12.5087 10.8072C12.5087 10.8072 12.4419 10.8002 12.4419 10.8599C12.4419 10.8599 12.4419 10.9443 12.5509 10.9267C12.5509 10.9267 12.6564 10.9056 12.6212 10.7861C12.6212 10.7861 12.5931 10.7052 12.4911 10.7158C12.4911 10.7158 12.3962 10.7158 12.354 10.8494C12.354 10.8494 12.3189 10.9654 12.3786 11.0603C12.4419 11.1658 12.5966 11.2361 12.6739 11.2713C12.6739 11.2713 12.9798 11.3873 13.0712 11.4576C13.0712 11.4576 13.2118 11.5595 13.145 11.6545C13.145 11.6545 13.1239 11.6931 13.0888 11.6931C13.0888 11.6931 13.0466 11.6931 13.0431 11.6509C13.0431 11.6509 13.0431 11.6756 13.0677 11.6861C13.0677 11.6861 13.0958 11.7002 13.1239 11.6756C13.1239 11.6756 13.1591 11.6404 13.1345 11.5912C13.1345 11.5912 13.0993 11.5349 13.0114 11.5701C13.0114 11.5701 12.9376 11.6088 12.9693 11.6861C12.9693 11.6861 12.9974 11.7599 13.0853 11.7564C13.0853 11.7564 13.1521 11.7564 13.1978 11.7142C13.2646 11.6404 13.2681 11.5033 13.2083 11.433C13.2083 11.433 13.1521 11.3592 13.0431 11.3064C12.9728 11.2853 12.8497 11.2326 12.7232 11.1834C12.638 11.1535 12.5609 11.1041 12.4982 11.0392C12.4982 11.0392 12.4525 10.99 12.4349 10.8986C12.4349 10.8986 12.4208 10.8283 12.463 10.8142L12.5052 10.8037L12.5087 10.8072Z" fill="#F5CE00" stroke="black" stroke-width="1.2" stroke-miterlimit="2.6"/>
<path id="Vector_49" d="M12.5018 10.8072C12.5018 10.8072 12.4244 10.7931 12.3787 10.8845C12.3787 10.8845 12.3541 10.9372 12.3506 10.9724M12.326 10.656C12.326 10.656 12.3998 10.6665 12.3611 10.7755C12.3225 10.8775 12.2557 10.9056 12.2381 10.9232M13.2014 7.72045C13.2014 7.72045 13.3807 7.60443 13.567 7.731M12.1713 8.83139C12.1713 8.83139 12.1959 8.72592 12.0764 8.55014L11.9639 8.28646M12.224 8.17045L12.3084 8.40248L12.4104 8.64154" stroke="black" stroke-width="1.2" stroke-miterlimit="2.6"/>
<path id="Vector_50" d="M12.2516 8.94102C12.2516 8.94102 12.3219 9.01484 12.3148 9.13789M12.0336 8.86016C12.0336 8.86016 12.1039 8.89531 12.0969 9.09922C12.0969 9.09922 12.0969 9.23984 12.2023 9.31719M12.0195 9.36641C12.0195 9.36641 12.2516 9.3418 12.2691 9.48945C12.2691 9.48945 12.2691 9.63008 12.3535 9.64063C12.3535 9.64063 12.4695 9.65117 12.4941 9.76719M12.0934 9.52813C12.0934 9.52813 12.1355 9.58789 12.1777 9.61953M12.3957 9.37344C12.3957 9.37344 12.4555 9.46836 12.466 9.51758M12.6559 8.28711C12.6559 8.28711 12.7086 8.36094 12.7613 8.39258M12.8738 8.73008C12.8738 8.73008 12.9898 8.78633 12.9758 9.08164C12.9758 9.08164 12.9582 9.25742 13.0109 9.35234" stroke="black" stroke-width="1.2" stroke-miterlimit="10"/>
<path id="Vector_51" d="M12.3223 8.5283L12.3328 8.55642C12.3328 8.55642 12.5437 8.56697 12.6562 8.42283L12.6422 8.3947C12.6422 8.3947 12.4594 8.38416 12.3258 8.5283H12.3223Z" fill="#784421" stroke="black" stroke-width="1.2"/>
<path id="Vector_52" d="M13.0781 9.65C13.0781 9.65 13.8059 9.43906 14.0871 9.3125" stroke="black" stroke-width="1.2" stroke-miterlimit="10"/>
<path id="Vector_53" d="M13.0041 8.31406L12.9971 8.29297L13.3486 8.15234L13.3592 8.18047L13.0041 8.31406Z" fill="#784421" stroke="black" stroke-width="1.2"/>
<path id="Vector_54" d="M13.0322 8.30039L13.2713 9.47109M13.0744 8.28984L13.3486 9.45M13.1201 8.26875L13.4189 9.42539M13.2396 8.22656L13.6439 9.09141M13.2924 8.2125L13.7248 9.06328M13.3311 8.19141L13.7986 9.0457M13.2537 9.47813L13.44 9.42188M13.1166 9.36562C13.1166 9.36562 13.6545 9.20742 14.0658 9.04219M13.1096 9.42188C13.1096 9.42188 13.7916 9.24609 14.0658 9.1125M13.317 9.97734L13.3521 10.0934L13.4506 10.0582L13.4189 9.94922M13.5947 9.90352L13.6299 10.009L13.7248 9.97734L13.6896 9.87187M13.1271 9.25313L13.1201 9.10547L14.0166 8.83477L14.0658 8.96133M13.5033 8.98945L13.549 9.12305M13.8127 8.89805L13.8725 9.02461M13.8865 8.87344L13.9428 8.98945M13.9604 8.84883L14.0131 8.97539M14.0131 8.83477L14.115 8.77852L14.1572 8.8875M14.0658 8.80664L14.115 8.92266" stroke="black" stroke-width="1.2" stroke-miterlimit="10"/>
<path id="Vector_55" d="M11.8438 10.5156C11.8438 10.5156 11.668 10.3363 11.8438 10.1641C11.8438 10.1641 11.6505 10.0727 11.6786 9.91797M12.1567 10.6562C12.1567 10.6562 11.9739 10.6809 12.0266 10.3258C12.0266 10.3258 11.9528 10.4664 11.9247 10.5367C11.9137 10.5717 11.9146 10.6093 11.9273 10.6437C11.9401 10.678 11.9639 10.7072 11.995 10.7266C12.0301 10.7477 12.1919 10.7898 12.2411 10.6844M11.9528 10.1148C11.9528 10.1148 11.8755 10.1816 11.9317 10.3047M12.0266 10.1289C12.0266 10.1289 12.0337 10.252 12.0969 10.3187M12.0829 10.0832C12.0829 10.0832 12.0829 10.2238 12.1813 10.3152M12.1321 10.034C12.1321 10.034 12.1321 10.1922 12.2481 10.2941M12.7227 10.2695C12.7227 10.2695 12.7825 10.1324 12.9055 10.143C12.9055 10.143 12.8493 10.1711 12.8493 10.2309C12.8493 10.2309 12.8387 10.3363 12.9477 10.3434C12.9477 10.3434 13.0356 10.3574 13.0848 10.3082" stroke="#00247D" stroke-width="1.2" stroke-miterlimit="10"/>
<path id="Vector_56" d="M13.025 10.8676C13.025 10.8676 12.7086 10.7199 12.7438 10.5125C12.7438 10.5125 12.7578 10.3859 12.8844 10.3227M12.8141 10.4562C12.8141 10.4562 12.7859 10.5441 12.8492 10.6074M12.8844 10.3965C12.8844 10.3965 12.8457 10.4949 12.9125 10.5652M12.9617 10.3438C12.9617 10.3438 12.916 10.4281 12.9688 10.502M12.677 10.8887C12.677 10.8887 12.8457 11.0398 12.9793 11.0398M12.6207 10.9379C12.6207 10.9379 12.7824 11.0645 12.8809 11.0855M12.5645 10.973C12.5645 10.973 12.7613 11.1453 12.8809 11.1559M13.3625 11.3176C13.3625 11.3176 13.1727 11.423 13.3238 11.5355M13.2395 11.2051L13.5559 11.0434M13.3168 11.2613C13.3168 11.2613 13.6367 11.068 13.7281 11.0258M13.482 11.2789C13.482 11.2789 13.7527 11.0961 13.9039 11.0152M13.6613 11.2648C13.6613 11.2648 13.8512 11.1242 14.0305 11.0152M14.0938 10.8359C14.0938 10.8359 14.0023 10.6988 13.7 10.8359C13.7 10.8359 13.8125 10.734 14.0305 10.6531M14.3328 10.0801C14.3328 10.0801 14.3574 10.1891 14.3328 10.2559" stroke="#00247D" stroke-width="1.2" stroke-miterlimit="10"/>
<path id="Vector_57" d="M13.8482 10.6059C13.8482 10.6059 13.908 10.5145 14.0697 10.4652C14.0697 10.4652 14.1119 10.5707 14.235 10.5531C14.235 10.5531 14.4213 10.5145 14.3615 10.307C14.3615 10.307 14.3264 10.1594 14.1119 10.1418M14.7447 9.88516C14.7447 9.88516 14.9627 9.92734 14.9557 10.0996C14.9557 10.0996 14.9803 10.3668 14.699 10.416M14.9275 9.99414C14.9275 9.99414 14.9873 9.86406 15.1209 9.81133M14.9627 9.73398C14.9627 9.73398 15.0189 9.83242 15.0576 9.84297M14.9311 9.80781L15.0014 9.8957M14.91 9.87812C14.926 9.89945 14.9449 9.91838 14.9662 9.93437M13.792 8.85156C13.792 8.85156 13.8342 8.78125 13.9432 8.80938M14.3721 9.36484C14.3721 9.36484 14.4389 9.09062 14.6674 9.18906M14.576 9.16797C14.576 9.16797 14.5971 9.04141 14.5408 8.97461M14.4178 9.15742C14.4178 9.15742 14.4459 9.21016 14.4178 9.25234" stroke="#00247D" stroke-width="1.2" stroke-miterlimit="10"/>
<path id="Vector_58" d="M14.8883 11.9892C14.8883 11.9892 15.1484 11.8732 15.0711 11.6692C15.0711 11.6692 15.0465 11.5989 14.9867 11.606C14.9867 11.606 14.8848 11.6095 14.9023 11.7466C14.9023 11.7466 14.9375 11.8802 14.8848 11.9927L14.8883 11.9892Z" fill="#64B4D1" stroke="#00247D" stroke-width="1.2" stroke-miterlimit="2.6"/>
<path id="Vector_59" d="M14.9834 11.8693C14.9834 11.8693 15.0397 11.8166 15.0326 11.7181C15.0326 11.7181 15.0291 11.697 15.0361 11.6935C15.0361 11.6935 15.0502 11.69 15.0502 11.7146C15.0502 11.7146 15.0678 11.8166 14.9975 11.8728C14.9975 11.8728 14.9975 11.8834 14.9869 11.8799C14.9869 11.8799 14.9799 11.8799 14.9834 11.8693Z" fill="white"/>
<path id="Vector_60" d="M15.2574 11.8045C15.2574 11.8045 15.4437 11.692 15.3418 11.4987C15.3418 11.4987 15.3136 11.4459 15.2574 11.4565C15.2574 11.4565 15.1449 11.4916 15.2328 11.6498C15.2328 11.6498 15.275 11.7518 15.2574 11.808V11.8045Z" fill="#64B4D1" stroke="#00247D" stroke-width="1.2" stroke-miterlimit="2.6"/>
<path id="Vector_61" d="M15.3074 11.5445C15.3074 11.5445 15.2969 11.534 15.3074 11.5234L15.318 11.5375C15.318 11.5375 15.3742 11.5973 15.332 11.6922C15.332 11.6922 15.325 11.7063 15.3145 11.6992V11.6887C15.3145 11.6887 15.3566 11.6043 15.3074 11.548V11.5445Z" fill="white"/>
<path id="Vector_62" d="M14.7092 11.9382C14.7092 11.9382 14.5053 11.889 14.5439 11.6745C14.5439 11.6745 14.5615 11.5831 14.6494 11.5972C14.6494 11.5972 14.7549 11.6253 14.6881 11.7589C14.6881 11.7589 14.6459 11.8503 14.7092 11.9382Z" fill="#64B4D1" stroke="#00247D" stroke-width="1.2" stroke-miterlimit="2.6"/>
<path id="Vector_63" d="M14.6324 11.6895C14.6324 11.6895 14.6254 11.6754 14.6324 11.6719C14.6324 11.6719 14.643 11.6719 14.6465 11.6789C14.6465 11.6789 14.6676 11.7141 14.6535 11.7633C14.6535 11.7633 14.636 11.7949 14.643 11.8266C14.643 11.8266 14.643 11.8371 14.636 11.8406L14.6254 11.8266C14.6254 11.8266 14.6184 11.7984 14.636 11.7633C14.636 11.7633 14.6571 11.7141 14.636 11.6895H14.6324Z" fill="white"/>
<path id="Vector_64" d="M14.857 11.5422C14.857 11.5422 14.973 11.4754 15.068 11.5527C15.068 11.5527 15.0574 11.5105 14.9836 11.493C14.9836 11.493 14.9449 11.3805 14.8359 11.391C14.8359 11.391 14.8781 11.4473 14.9414 11.4895C14.9414 11.4895 14.8781 11.4965 14.857 11.5422ZM14.9414 11.2363C14.9414 11.2363 15.0258 11.2961 15.0539 11.3348C15.0539 11.3348 15.082 11.2926 15.1242 11.2715C15.1242 11.2715 15.0785 11.2609 15.0539 11.282C15.0539 11.282 15.0117 11.2469 14.9449 11.2363H14.9414Z" fill="black"/>
<path id="Vector_65" d="M14.4875 11.4828C14.4875 11.4828 14.4804 11.4547 14.5015 11.4266C14.5015 11.4266 14.5121 11.4055 14.5085 11.3738M15.3312 9.68633C15.3312 9.68633 15.4507 9.6793 15.4718 9.58086M15.6828 9.51758C15.6828 9.51758 15.6406 9.51758 15.6019 9.55976C15.6019 9.55976 15.5738 9.60195 15.5316 9.59492" stroke="black" stroke-width="1.2" stroke-miterlimit="10"/>
<path id="Vector_66" d="M15.152 9.32295C15.152 9.32295 15.2117 9.32295 15.2469 9.29483C15.2469 9.29483 15.282 9.27022 15.3066 9.30889C15.3066 9.30889 15.3418 9.36514 15.275 9.38975C15.275 9.38975 15.2012 9.43194 15.3207 9.50928C15.3207 9.50928 15.1766 9.45303 15.2363 9.38272C15.2363 9.38272 15.2996 9.34053 15.275 9.32295C15.275 9.32295 15.268 9.30889 15.2398 9.32295C15.2152 9.34405 15.1695 9.33702 15.1484 9.32295H15.152Z" fill="black"/>
<path id="Vector_67" d="M15.2334 7.79056C15.2334 7.79056 15.265 7.74838 15.251 7.63588C15.2369 7.52338 15.3424 7.5058 15.3811 7.53744C15.3811 7.53744 15.4232 7.5726 15.3811 7.64642C15.351 7.71085 15.2985 7.7621 15.2334 7.79056Z" fill="#64B4D1" stroke="#00247D" stroke-width="1.2" stroke-miterlimit="2.6"/>
<path id="Vector_68" d="M15.2715 7.7C15.2715 7.7 15.3137 7.66133 15.2926 7.57344L15.2961 7.56641H15.3102C15.3102 7.56641 15.3313 7.66484 15.2891 7.71406C15.2891 7.71406 15.2785 7.72461 15.2715 7.71406V7.7Z" fill="white"/>
<path id="Vector_69" d="M15.2056 7.74805C15.2056 7.74805 15.202 7.69883 15.1212 7.62148C15.0368 7.53711 15.1036 7.4668 15.1563 7.4668C15.1563 7.4668 15.2056 7.4668 15.2267 7.54766C15.2436 7.61484 15.2362 7.68587 15.2056 7.74805Z" fill="#64B4D1" stroke="#00247D" stroke-width="1.2" stroke-miterlimit="2.6"/>
<path id="Vector_70" d="M15.191 7.64375C15.191 7.64375 15.191 7.5875 15.1172 7.52773V7.51367H15.1277C15.1277 7.51367 15.2086 7.57695 15.2086 7.64727C15.2086 7.64727 15.2086 7.65781 15.2016 7.65781C15.2016 7.65781 15.191 7.65781 15.191 7.64375Z" fill="white"/>
<path id="Vector_71" d="M15.0925 7.70924C15.0925 7.70924 15.0714 7.67408 14.9695 7.63541C14.871 7.60026 14.8956 7.51237 14.9343 7.49479C14.9343 7.49479 14.9835 7.47721 15.0292 7.53346C15.0708 7.58253 15.0933 7.64494 15.0925 7.70924Z" fill="#64B4D1" stroke="#00247D" stroke-width="1.2" stroke-miterlimit="2.6"/>
<path id="Vector_72" d="M15.0469 7.63966C15.0469 7.63966 15.0258 7.59044 14.9309 7.56583C14.9309 7.56583 14.9238 7.56583 14.9238 7.55528C14.9238 7.55528 14.9238 7.54825 14.9379 7.55177C14.9379 7.55177 15.0363 7.57286 15.068 7.63614L15.0609 7.64669C15.0609 7.64669 15.0539 7.64669 15.0504 7.63966H15.0469Z" fill="white"/>
<path id="Vector_73" d="M15.1525 7.74837C15.1525 7.74837 15.1067 7.76595 14.9978 7.71321C14.8923 7.66048 14.8431 7.75188 14.8642 7.79407C14.8642 7.79407 14.8817 7.85032 14.9661 7.83626C15.0376 7.83238 15.1052 7.80235 15.156 7.75189L15.1525 7.74837Z" fill="#64B4D1" stroke="#00247D" stroke-width="1.2" stroke-miterlimit="2.6"/>
<path id="Vector_74" d="M14.9064 7.7832C14.9064 7.7832 14.9521 7.81836 15.04 7.7832H15.0541C15.0541 7.7832 15.0541 7.79023 15.0471 7.79375C15.0471 7.79375 14.9521 7.83594 14.8889 7.79727C14.8889 7.79727 14.8818 7.79727 14.8889 7.78672H14.9029L14.9064 7.7832Z" fill="white"/>
<path id="Vector_75" d="M14.998 7.4082C14.998 7.4082 15.0508 7.43633 15.0402 7.49609" stroke="black" stroke-width="1.2" stroke-miterlimit="2.6"/>
<path id="Vector_76" d="M15.2334 7.41797C15.2334 7.41797 15.2545 7.48477 15.2334 7.52344" stroke="black" stroke-width="1.2" stroke-miterlimit="10"/>
<path id="Vector_77" d="M11.5175 7.78989C11.5175 7.78989 11.4859 7.74771 11.4999 7.63521C11.5105 7.51567 11.412 7.50513 11.3734 7.53677C11.3734 7.53677 11.3312 7.57192 11.3698 7.64575C11.3999 7.71018 11.4524 7.76143 11.5175 7.78989Z" fill="#64B4D1" stroke="#00247D" stroke-width="1.2" stroke-miterlimit="2.6"/>
<path id="Vector_78" d="M11.4788 7.7C11.4788 7.7 11.4437 7.66133 11.4577 7.57344V7.56641H11.4402C11.4402 7.56641 11.4226 7.66484 11.4648 7.71406C11.4648 7.71406 11.4753 7.72461 11.4788 7.71406V7.7Z" fill="white"/>
<path id="Vector_79" d="M11.5486 7.74805C11.5486 7.74805 11.5486 7.69883 11.6329 7.62148C11.7173 7.53711 11.6505 7.4668 11.5978 7.4668C11.5978 7.4668 11.545 7.4668 11.5275 7.54766C11.5105 7.61484 11.5179 7.68587 11.5486 7.74805Z" fill="#64B4D1" stroke="#00247D" stroke-width="1.2" stroke-miterlimit="2.6"/>
<path id="Vector_80" d="M11.5631 7.64375C11.5631 7.64375 11.5631 7.5875 11.6334 7.52773C11.6334 7.52773 11.6404 7.51719 11.6334 7.51367H11.6264C11.6264 7.51367 11.542 7.57695 11.542 7.64727C11.542 7.64727 11.542 7.65781 11.5525 7.65781C11.5525 7.65781 11.5631 7.65781 11.5631 7.64375Z" fill="white"/>
<path id="Vector_81" d="M11.6582 7.70924C11.6582 7.70924 11.6793 7.67408 11.7848 7.63541C11.8797 7.60026 11.8551 7.51237 11.8129 7.49479C11.8129 7.49479 11.7707 7.47721 11.7215 7.53346C11.6799 7.58253 11.6575 7.64494 11.6582 7.70924Z" fill="#64B4D1" stroke="#00247D" stroke-width="1.2" stroke-miterlimit="2.6"/>
<path id="Vector_82" d="M11.707 7.63966C11.707 7.63966 11.7246 7.59044 11.816 7.56583C11.816 7.56583 11.8266 7.56583 11.8266 7.55528C11.8266 7.55528 11.8266 7.54825 11.816 7.55177C11.816 7.55177 11.7176 7.57286 11.6895 7.63614V7.64669C11.6895 7.64669 11.7 7.64669 11.7035 7.63966H11.707Z" fill="white"/>
<path id="Vector_83" d="M11.5947 7.74837C11.5947 7.74837 11.6475 7.76595 11.7494 7.71321C11.8584 7.66048 11.9076 7.75188 11.89 7.79407C11.89 7.79407 11.8689 7.85032 11.7846 7.83626C11.7131 7.83238 11.6455 7.80235 11.5947 7.75189V7.74837Z" fill="#64B4D1" stroke="#00247D" stroke-width="1.2" stroke-miterlimit="2.6"/>
<path id="Vector_84" d="M11.8479 7.7832C11.8479 7.7832 11.8021 7.81836 11.7072 7.7832H11.7002V7.79375C11.7002 7.79375 11.8021 7.83594 11.8584 7.79727C11.8584 7.79727 11.8689 7.79727 11.8584 7.78672L11.8479 7.7832Z" fill="white"/>
<path id="Vector_85" d="M11.7564 7.4082C11.7564 7.4082 11.7001 7.43633 11.7142 7.49609" stroke="black" stroke-width="1.2" stroke-miterlimit="2.6"/>
<path id="Vector_86" d="M11.5172 7.41797C11.5172 7.41797 11.4961 7.48477 11.5172 7.52344" stroke="black" stroke-width="1.2" stroke-miterlimit="10"/>
<path id="Vector_87" d="M13.8549 6.80705C13.8549 6.80705 13.89 6.90197 13.876 6.98986C13.8619 7.07423 13.8795 7.09181 13.9111 7.10939C13.9357 7.11994 13.992 7.09533 13.9955 7.03205C13.9955 7.03205 14.0658 7.16564 13.9357 7.25353C13.9357 7.25353 13.8373 7.3133 13.76 7.23947C13.7283 7.20783 13.7178 7.134 13.7318 7.06369C13.7318 7.06369 13.7529 6.96877 13.7178 6.87033C13.7178 6.87033 13.7705 6.92658 13.76 7.04259C13.76 7.04259 13.7283 7.25353 13.883 7.23947C13.883 7.23947 13.9885 7.23947 13.992 7.11291C13.992 7.11291 13.9498 7.15509 13.9041 7.14103C13.8829 7.13599 13.8644 7.12292 13.8526 7.10457C13.8408 7.08621 13.8366 7.064 13.8408 7.04259C13.8479 6.98634 13.8619 6.89142 13.8549 6.80705ZM13.6861 7.14103C13.6861 7.14103 13.6756 7.30978 13.5279 7.34845C13.5279 7.34845 13.549 7.31681 13.5139 7.23244C13.5139 7.23244 13.4787 7.19025 13.4787 7.11642C13.4787 7.11642 13.44 7.15158 13.4893 7.25002C13.5244 7.30978 13.4928 7.37658 13.4857 7.38009C13.4717 7.38361 13.7318 7.34494 13.6826 7.14455L13.6861 7.14103ZM13.4893 6.98283C13.4893 6.98283 13.4541 6.94064 13.4471 6.84923C13.4471 6.75431 13.433 6.7297 13.4189 6.72267C13.4189 6.72267 13.4365 6.80353 13.433 6.84923C13.433 6.90197 13.433 6.93361 13.4436 6.9547C13.4436 6.9547 13.3592 6.96525 13.31 6.84923C13.2643 6.73322 13.215 6.74377 13.1869 6.74377C13.1869 6.74377 13.2186 6.74728 13.2713 6.84923C13.3311 6.9547 13.3486 6.97931 13.4893 6.97931V6.98283ZM13.1131 6.73673C13.1131 6.73673 13.1553 6.84923 13.1588 6.90548C13.1588 6.90548 13.0498 6.87033 13.0182 6.78244C13.0182 6.78244 12.9057 6.81759 12.9479 6.94767C12.9479 6.94767 12.8494 6.91252 12.8037 6.83517C12.8037 6.83517 12.8564 6.87736 12.9092 6.89494C12.9092 6.89494 12.9021 6.78595 13.0357 6.74728C13.0357 6.74728 13.0568 6.8422 13.1307 6.8633L13.1131 6.73673ZM13.2889 6.54689C13.2889 6.54689 13.3311 6.59962 13.4049 6.59962C13.4272 6.60188 13.4496 6.59819 13.47 6.58893C13.4904 6.57966 13.508 6.56516 13.5209 6.54689C13.5209 6.54689 13.5139 6.6383 13.4049 6.64181C13.4049 6.64181 13.2889 6.64181 13.2889 6.54689ZM12.8143 7.19728L12.8846 7.26408C12.8846 7.26408 12.9268 7.30627 12.9549 7.25353C12.9549 7.25353 13.0041 7.16916 13.0604 7.17619C13.0604 7.17619 13.0146 7.2008 12.976 7.28166C12.976 7.28166 12.9654 7.30627 12.9338 7.30978C12.9162 7.30978 12.8986 7.31681 12.8705 7.28517L12.8143 7.2008V7.19728ZM13.4014 6.16369C13.2889 6.16369 13.3838 6.24806 13.3838 6.24806C13.3838 6.38869 13.2783 6.43791 13.201 6.39572C13.1201 6.35353 13.1834 6.25509 13.1834 6.25509C13.1834 6.25509 13.099 6.30783 13.1482 6.3922C13.2045 6.47658 13.3521 6.43439 13.4014 6.36056C13.4576 6.43791 13.6018 6.47658 13.6545 6.3922C13.7107 6.30783 13.6229 6.25158 13.6229 6.25158C13.6229 6.25158 13.6861 6.35353 13.6088 6.3922C13.5314 6.43791 13.4189 6.3922 13.4225 6.25158C13.4225 6.25158 13.5209 6.16369 13.4049 6.16369H13.4014ZM13.4717 6.009C13.4717 6.009 13.5139 6.07931 13.5068 6.18478C13.5068 6.18478 13.542 6.07931 13.4717 6.01252V6.009ZM13.1201 6.17423C13.1201 6.17423 13.1131 6.09689 13.0357 6.08986C13.0357 6.08986 13.1061 6.13556 13.1201 6.17423ZM13.6861 6.17423C13.6861 6.17423 13.6967 6.09689 13.7705 6.08986C13.7705 6.08986 13.7072 6.13556 13.6861 6.17423ZM13.0076 6.28673C13.0076 6.28673 13.0674 6.30431 13.099 6.26213L13.0076 6.28673ZM12.8178 5.82619C12.8178 5.82619 12.8881 5.82267 12.9549 5.92111C12.9549 5.92111 12.8846 5.95627 12.8705 5.97736C12.8705 5.97736 12.8705 5.9422 12.9057 5.91759C12.9057 5.91759 12.8916 5.86838 12.8178 5.8297V5.82619ZM13.9428 5.82619C13.9428 5.82619 13.8725 5.82267 13.8092 5.92111C13.8092 5.92111 13.876 5.95627 13.8936 5.97736C13.8936 5.97736 13.8936 5.9422 13.8584 5.91759C13.8584 5.91759 13.8725 5.86838 13.9428 5.8297V5.82619ZM13.426 5.90353C13.426 5.90353 13.4857 5.92111 13.5596 5.87892C13.5596 5.87892 13.6545 5.8297 13.7107 5.87892C13.7107 5.87892 13.6615 5.85431 13.5596 5.90353C13.5596 5.90353 13.4646 5.95978 13.426 5.90353Z" fill="black"/>
<path id="Vector_88" d="M13.4893 5.96326C13.4893 5.96326 13.542 5.87537 13.7002 5.89295C13.7002 5.89295 13.658 6.01951 13.4893 5.96326Z" fill="white"/>
<path id="Vector_89" d="M13.5945 5.97383C13.6101 5.97383 13.6227 5.95651 13.6227 5.93516C13.6227 5.9138 13.6101 5.89648 13.5945 5.89648C13.579 5.89648 13.5664 5.9138 13.5664 5.93516C13.5664 5.95651 13.579 5.97383 13.5945 5.97383Z" fill="#784421"/>
<path id="Vector_90" d="M13.5947 5.95937C13.6044 5.95937 13.6123 5.94836 13.6123 5.93477C13.6123 5.92117 13.6044 5.91016 13.5947 5.91016C13.585 5.91016 13.5771 5.92117 13.5771 5.93477C13.5771 5.94836 13.585 5.95937 13.5947 5.95937Z" fill="black"/>
<path id="Vector_91" d="M13.1553 5.76953C13.1553 5.76953 13.2502 5.78008 13.3135 5.81172C13.3135 5.81172 13.3768 5.85391 13.4471 5.80117C13.4471 5.80117 13.5279 5.75195 13.5771 5.69219C13.5771 5.69219 13.4576 5.77305 13.4119 5.78711C13.4119 5.78711 13.3697 5.75195 13.3557 5.70625C13.3557 5.70625 13.3592 5.67109 13.426 5.61133C13.426 5.61133 13.3381 5.63945 13.3205 5.71328C13.3327 5.74337 13.3506 5.77082 13.3732 5.79414C13.3732 5.79414 13.3557 5.80469 13.3135 5.77305C13.3135 5.77305 13.2186 5.74492 13.1553 5.77305V5.76953ZM13.4049 6.36719C13.324 6.44102 13.4049 6.43398 13.4049 6.43398C13.4049 6.43398 13.4893 6.44102 13.4049 6.36367V6.36719ZM13.3557 5.90312C13.3557 5.90312 13.2924 5.9207 13.215 5.87852C13.215 5.87852 13.1236 5.8293 13.0674 5.87852C13.0674 5.87852 13.1166 5.85391 13.2186 5.90312C13.2186 5.90312 13.317 5.95937 13.3592 5.90312H13.3557Z" fill="black"/>
<path id="Vector_92" d="M13.293 5.96326C13.293 5.96326 13.2437 5.87537 13.082 5.89295C13.082 5.89295 13.1242 6.01951 13.293 5.96326Z" fill="white"/>
<path id="Vector_93" d="M13.1834 5.97383C13.1989 5.97383 13.2115 5.95651 13.2115 5.93516C13.2115 5.9138 13.1989 5.89648 13.1834 5.89648C13.1679 5.89648 13.1553 5.9138 13.1553 5.93516C13.1553 5.95651 13.1679 5.97383 13.1834 5.97383Z" fill="#784421"/>
<path id="Vector_94" d="M13.1836 5.95937C13.1933 5.95937 13.2012 5.94836 13.2012 5.93477C13.2012 5.92117 13.1933 5.91016 13.1836 5.91016C13.1739 5.91016 13.166 5.92117 13.166 5.93477C13.166 5.94836 13.1739 5.95937 13.1836 5.95937Z" fill="black"/>
<path id="Vector_95" d="M16.4287 5.1543V10.8355C16.4287 12.3508 13.3982 12.8465 13.3982 12.8465C13.3982 12.8465 10.3643 12.3543 10.3643 10.8355V5.1543H16.4287Z" stroke="black" stroke-width="1.2"/>
</g>
<defs>
<clipPath id="clip0_186_5361">
<rect width="18" height="18" fill="white"/>
</clipPath>
</defs>
</svg>
