<svg width="18" height="18" viewBox="0 0 18 18" fill="none" xmlns="http://www.w3.org/2000/svg">
<g id="bn" clip-path="url(#clip0_186_5462)">
<path id="Vector" d="M0 0H18V18H0V0Z" fill="#F7E017"/>
<path id="Vector_2" d="M0 1.25195V9.24648L18 12.9977V8.74375L0 1.25195Z" fill="white"/>
<path id="Vector_3" d="M0 5.49805V9.24922L18 16.748V13.0004L0 5.49805Z" fill="#000001"/>
<g id="Group">
<path id="Vector_4" d="M8.39231 14.2412C7.95351 14.1927 7.53133 14.0457 7.15731 13.8112C7.09731 13.7712 7.04231 13.7362 7.03231 13.7362C7.02231 13.7362 7.01731 13.7837 7.01731 13.8387C7.01731 13.9987 6.95232 14.0787 6.79232 14.1212C6.63732 14.1612 6.40232 14.0812 6.21232 13.9212C6.03215 13.767 5.82185 13.6521 5.59482 13.5837C5.35831 13.5274 5.10939 13.5594 4.89482 13.6737C4.87361 13.6886 4.8499 13.6996 4.82482 13.7062C4.79732 13.7062 4.79982 13.5337 4.82982 13.4812C4.86732 13.4062 4.95732 13.3362 5.06482 13.2987C5.11982 13.2787 5.16482 13.2537 5.16482 13.2412C5.16482 13.2312 5.14482 13.1912 5.12232 13.1512C5.04982 13.0237 5.07982 12.9012 5.20732 12.8037C5.33732 12.7037 5.55732 12.6887 5.74982 12.7612C5.78234 12.7751 5.81575 12.7868 5.84982 12.7962C5.87482 12.7962 5.85982 12.7587 5.78982 12.6562C5.70982 12.5387 5.69232 12.4812 5.70232 12.3387C5.70919 12.2515 5.74695 12.1696 5.80882 12.1077C5.87069 12.0458 5.95259 12.0081 6.03982 12.0012C6.18482 11.9912 6.27482 12.0412 6.48981 12.2437C7.06726 12.8249 7.82568 13.1918 8.63981 13.2837C8.84731 13.3087 9.25981 13.2962 9.50231 13.2587C10.2705 13.1305 10.9828 12.7753 11.5473 12.2387C11.7073 12.0887 11.7823 12.0487 11.9148 12.0487C12.0273 12.0487 12.1073 12.0837 12.1898 12.1737C12.2648 12.2562 12.2898 12.3337 12.2798 12.4612C12.2748 12.5412 12.2623 12.5787 12.2148 12.6587C12.1448 12.7712 12.1573 12.7837 12.2948 12.7287C12.4848 12.6537 12.7173 12.6887 12.8423 12.8087C12.9523 12.9137 12.9623 13.0187 12.8773 13.1587C12.8448 13.2112 12.8198 13.2587 12.8198 13.2687C12.8198 13.2837 12.8448 13.2887 12.9573 13.3087C13.1073 13.3337 13.1948 13.4437 13.1948 13.6137C13.1948 13.6637 13.1873 13.7062 13.1798 13.7062C13.1723 13.7062 13.1148 13.6837 13.0548 13.6587C12.8798 13.5862 12.7798 13.5687 12.5748 13.5712C12.4198 13.5712 12.3673 13.5787 12.2598 13.6137C12.0799 13.6763 11.9142 13.774 11.7723 13.9012C11.6123 14.0437 11.5123 14.0887 11.3573 14.0862C11.2123 14.0862 11.1148 14.0437 11.0623 13.9612C11.0348 13.9162 11.0298 13.8912 11.0373 13.7912C11.0423 13.7262 11.0398 13.6737 11.0373 13.6737C11.0298 13.6737 10.9748 13.7087 10.9123 13.7512C10.7696 13.8535 10.6141 13.9367 10.4498 13.9987C9.79183 14.237 9.08767 14.32 8.39231 14.2412Z" fill="#CF1126"/>
<path id="Vector_5" d="M8.65763 13.1283C8.17404 13.0838 7.70552 12.9366 7.28343 12.6965C6.86134 12.4563 6.49541 12.1288 6.21013 11.7358C5.60013 10.9058 5.41013 9.80828 5.59513 8.80578C5.69513 8.34828 5.89513 7.89078 6.23263 7.56578C5.9544 8.14319 5.87781 8.79721 6.01513 9.42328C6.24013 10.6683 7.29013 11.7208 8.54763 11.9033C9.04763 12.0458 9.56013 11.8933 10.0351 11.7408C11.0851 11.3708 11.8851 10.3758 11.9801 9.26328C12.0626 8.66328 11.9726 8.03578 11.7001 7.48828C11.8551 7.57078 12.0501 7.89328 12.1651 8.10828C12.5651 8.88328 12.5826 9.81078 12.3476 10.6383C12.0276 11.6908 11.2226 12.6133 10.1601 12.9483C9.67539 13.0997 9.16693 13.1607 8.66013 13.1283H8.65763Z" fill="#CF1126"/>
<g id="bn-a">
<path id="Vector_6" d="M3.8002 11.7472C3.7377 11.7372 3.6677 11.7997 3.6927 11.8647C3.7377 11.9297 3.8177 11.9647 3.8877 11.9947C4.07213 12.0667 4.27011 12.0974 4.4677 12.0847C4.61266 12.0847 4.7565 12.0593 4.89269 12.0097C4.96769 11.9847 5.06269 11.9597 5.09269 11.8747C5.12519 11.8222 5.06769 11.7672 5.01519 11.7772C4.94019 11.7947 4.86519 11.8272 4.79019 11.8497C4.62534 11.8963 4.45349 11.9133 4.2827 11.8997C4.1584 11.8816 4.03723 11.8462 3.9227 11.7947C3.8827 11.7772 3.8452 11.7522 3.8002 11.7472Z" fill="#CF1126"/>
<path id="Vector_7" d="M3.87015 11.4872C3.80765 11.4772 3.75265 11.5522 3.77765 11.6122C3.82765 11.6822 3.91015 11.7197 3.98765 11.7522C4.12286 11.8053 4.26752 11.8299 4.41265 11.8247H4.45015C4.57359 11.8253 4.69591 11.8015 4.81015 11.7547C4.87765 11.7272 4.96265 11.6997 4.99265 11.6247C5.01515 11.5822 4.99765 11.5222 4.94265 11.5172C4.89765 11.5172 4.85515 11.5472 4.81015 11.5597C4.6473 11.627 4.47074 11.6544 4.29515 11.6397C4.18515 11.6272 4.08265 11.5872 3.98265 11.5397C3.94515 11.5222 3.91265 11.4947 3.87015 11.4897V11.4872Z" fill="#CF1126"/>
<path id="Vector_8" d="M3.95716 11.2389C3.90216 11.2314 3.86466 11.2939 3.87466 11.3414C3.88216 11.3864 3.91966 11.4164 3.95216 11.4414C4.08828 11.5357 4.25179 11.5823 4.41716 11.5739H4.45716C4.56112 11.5731 4.6636 11.5492 4.75716 11.5039C4.81966 11.4789 4.89216 11.4464 4.91466 11.3739C4.92466 11.3414 4.92966 11.2939 4.89216 11.2739C4.85216 11.2539 4.81466 11.2864 4.77966 11.2989C4.66008 11.3617 4.52724 11.3952 4.39216 11.3964C4.27621 11.3918 4.16342 11.3573 4.06466 11.2964C4.02716 11.2789 3.99716 11.2464 3.95716 11.2389Z" fill="#CF1126"/>
<path id="Vector_9" d="M3.03729 7.56641C2.95729 7.64891 3.01979 7.79891 3.01229 7.90391C3.05729 8.23391 3.10979 8.5664 3.23229 8.8789C3.38229 9.1789 3.70229 9.3414 3.89479 9.6089C3.96479 9.7364 3.93979 9.8914 3.95479 10.0339C3.96479 10.4164 3.96229 10.8014 3.95479 11.1839C4.12979 11.2739 4.31729 11.3589 4.51729 11.3264C4.63479 11.2989 4.85479 11.2814 4.87979 11.1639L4.85479 9.1764C4.78729 8.9739 4.57979 8.8689 4.42729 8.7389C4.29983 8.61308 4.18121 8.47859 4.07229 8.3364C4.00729 8.2239 3.74979 8.18641 3.84229 8.3764C3.89729 8.5439 4.03479 8.6664 4.06979 8.8414C4.07729 8.9389 4.19479 9.1164 4.09479 9.1714C4.0332 9.06275 3.93986 8.97551 3.82729 8.9214C3.71729 8.8389 3.53479 8.8039 3.49479 8.6589C3.45877 8.45266 3.36318 8.26147 3.21979 8.1089C3.25729 7.92391 3.21979 7.69141 3.05979 7.57141L3.03729 7.56641Z" fill="#CF1126"/>
<path id="Vector_10" d="M3.28462 7.60352C3.20962 7.61602 3.21462 7.70852 3.24712 7.75851C3.28417 7.86612 3.29363 7.98131 3.27462 8.09351C3.41171 8.24617 3.50348 8.43405 3.53962 8.63601C3.53962 8.71101 3.61962 8.73601 3.67212 8.77351C3.79462 8.85101 3.92962 8.90851 4.03962 9.00601C4.06212 9.03101 4.07962 9.05601 4.06462 9.00601C4.04712 8.94101 4.03962 8.87101 3.98962 8.82351C3.91962 8.74851 3.83462 8.68351 3.73462 8.66351C3.72712 8.55851 3.67712 8.46351 3.63212 8.37351C3.58212 8.28601 3.52962 8.19351 3.44462 8.13851C3.44462 7.98601 3.44462 7.82601 3.37962 7.68352C3.35962 7.64852 3.32962 7.60602 3.28462 7.60352Z" fill="#CF1126"/>
<path id="Vector_11" d="M3.49229 7.66406C3.44229 7.67906 3.45229 7.74406 3.46729 7.78156C3.48912 7.89012 3.49752 8.00095 3.49229 8.11156C3.58979 8.18656 3.64729 8.29656 3.70229 8.40156C3.73729 8.47156 3.76729 8.54656 3.77979 8.62406C3.85729 8.64906 3.92479 8.69906 3.98479 8.74906C3.95979 8.67906 3.90979 8.62406 3.87229 8.55656C3.83479 8.48906 3.79729 8.41656 3.77979 8.33906C3.70479 8.26156 3.66479 8.14906 3.67979 8.03906C3.68479 7.92156 3.64729 7.79906 3.56729 7.70906C3.54729 7.68906 3.52229 7.66656 3.49229 7.66406Z" fill="#CF1126"/>
<path id="Vector_12" d="M3.73023 7.69793C3.70023 7.70293 3.68523 7.72793 3.67023 7.75043C3.66273 7.77293 3.69023 7.79543 3.69523 7.82043C3.7279 7.90295 3.73991 7.99221 3.73023 8.08043C3.72773 8.14293 3.75023 8.20543 3.78023 8.25543C3.78585 8.23618 3.79726 8.21913 3.81292 8.2066C3.82858 8.19408 3.84772 8.18668 3.86773 8.18543C3.88023 8.18543 3.90273 8.19043 3.89273 8.16793C3.88273 8.04793 3.86523 7.92793 3.82273 7.81793C3.81042 7.7746 3.78616 7.73562 3.75273 7.70543C3.74773 7.70043 3.73773 7.69543 3.72773 7.69793H3.73023Z" fill="#CF1126"/>
</g>
<g id="bn-a_2">
<path id="Vector_13" d="M14.1998 11.7472C14.2623 11.7372 14.3323 11.7997 14.3073 11.8647C14.2623 11.9297 14.1823 11.9647 14.1123 11.9947C13.9279 12.0667 13.7299 12.0974 13.5323 12.0847C13.3873 12.0847 13.2435 12.0593 13.1073 12.0097C13.0323 11.9847 12.9373 11.9597 12.9073 11.8747C12.8748 11.8222 12.9323 11.7672 12.9848 11.7772C13.0598 11.7947 13.1348 11.8272 13.2098 11.8497C13.3747 11.8963 13.5465 11.9133 13.7173 11.8997C13.8416 11.8816 13.9628 11.8462 14.0773 11.7947C14.1173 11.7772 14.1548 11.7522 14.1998 11.7472Z" fill="#CF1126"/>
<path id="Vector_14" d="M14.1298 11.4872C14.1923 11.4772 14.2473 11.5522 14.2223 11.6122C14.1723 11.6822 14.0898 11.7197 14.0123 11.7522C13.8771 11.8053 13.7325 11.8299 13.5873 11.8247H13.5498C13.4264 11.8253 13.3041 11.8015 13.1898 11.7547C13.1223 11.7272 13.0373 11.6997 13.0073 11.6247C12.9848 11.5822 13.0023 11.5222 13.0573 11.5172C13.1023 11.5172 13.1448 11.5472 13.1898 11.5597C13.3527 11.627 13.5293 11.6544 13.7048 11.6397C13.8148 11.6272 13.9173 11.5872 14.0173 11.5397C14.0548 11.5222 14.0873 11.4947 14.1298 11.4897V11.4872Z" fill="#CF1126"/>
<path id="Vector_15" d="M14.0428 11.2389C14.0978 11.2314 14.1353 11.2939 14.1253 11.3414C14.1178 11.3864 14.0803 11.4164 14.0478 11.4414C13.9117 11.5357 13.7482 11.5823 13.5828 11.5739H13.5428C13.4389 11.5731 13.3364 11.5492 13.2428 11.5039C13.1803 11.4789 13.1078 11.4464 13.0853 11.3739C13.0753 11.3414 13.0703 11.2939 13.1078 11.2739C13.1478 11.2539 13.1853 11.2864 13.2203 11.2989C13.3399 11.3617 13.4728 11.3952 13.6078 11.3964C13.7238 11.3918 13.8366 11.3573 13.9353 11.2964C13.9728 11.2789 14.0028 11.2464 14.0428 11.2389Z" fill="#CF1126"/>
<path id="Vector_16" d="M14.9627 7.56641C15.0427 7.64891 14.9802 7.79891 14.9877 7.90391C14.9427 8.23391 14.8902 8.5664 14.7677 8.8789C14.6177 9.1789 14.2977 9.3414 14.1052 9.6089C14.0352 9.7364 14.0602 9.8914 14.0452 10.0339C14.0352 10.4164 14.0377 10.8014 14.0452 11.1839C13.8702 11.2739 13.6827 11.3589 13.4827 11.3264C13.3652 11.2989 13.1452 11.2814 13.1202 11.1639L13.1452 9.1764C13.2127 8.9739 13.4202 8.8689 13.5727 8.7389C13.7002 8.61308 13.8188 8.47859 13.9277 8.3364C13.9927 8.2239 14.2502 8.18641 14.1577 8.3764C14.1027 8.5439 13.9652 8.6664 13.9302 8.8414C13.9227 8.9389 13.8052 9.1164 13.9052 9.1714C13.9668 9.06275 14.0601 8.97551 14.1727 8.9214C14.2827 8.8389 14.4652 8.8039 14.5052 8.6589C14.5412 8.45266 14.6368 8.26147 14.7802 8.1089C14.7427 7.92391 14.7802 7.69141 14.9402 7.57141L14.9627 7.56641Z" fill="#CF1126"/>
<path id="Vector_17" d="M14.7154 7.60352C14.7904 7.61602 14.7854 7.70852 14.7529 7.75851C14.7158 7.86612 14.7064 7.98131 14.7254 8.09351C14.5883 8.24617 14.4965 8.43405 14.4604 8.63601C14.4604 8.71101 14.3804 8.73601 14.3279 8.77351C14.2054 8.85101 14.0704 8.90851 13.9604 9.00601C13.9379 9.03101 13.9204 9.05601 13.9354 9.00601C13.9529 8.94101 13.9604 8.87101 14.0104 8.82351C14.0804 8.74851 14.1654 8.68351 14.2654 8.66351C14.2729 8.55851 14.3229 8.46351 14.3679 8.37351C14.4179 8.28601 14.4704 8.19351 14.5554 8.13851C14.5554 7.98601 14.5554 7.82601 14.6204 7.68352C14.6404 7.64852 14.6704 7.60602 14.7154 7.60352Z" fill="#CF1126"/>
<path id="Vector_18" d="M14.5077 7.66406C14.5577 7.67906 14.5477 7.74406 14.5327 7.78156C14.5109 7.89012 14.5025 8.00095 14.5077 8.11156C14.4102 8.18656 14.3527 8.29656 14.2977 8.40156C14.2627 8.47156 14.2327 8.54656 14.2202 8.62406C14.1427 8.64906 14.0752 8.69906 14.0152 8.74906C14.0402 8.67906 14.0902 8.62406 14.1277 8.55656C14.1652 8.48906 14.2027 8.41656 14.2202 8.33906C14.2952 8.26156 14.3352 8.14906 14.3202 8.03906C14.3152 7.92156 14.3527 7.79906 14.4327 7.70906C14.4527 7.68906 14.4777 7.66656 14.5077 7.66406Z" fill="#CF1126"/>
<path id="Vector_19" d="M14.2698 7.69793C14.2998 7.70293 14.3148 7.72793 14.3298 7.75043C14.3373 7.77293 14.3098 7.79543 14.3048 7.82043C14.2721 7.90295 14.2601 7.99221 14.2698 8.08043C14.2723 8.14293 14.2498 8.20543 14.2198 8.25543C14.2142 8.23618 14.2027 8.21913 14.1871 8.2066C14.1714 8.19408 14.1523 8.18668 14.1323 8.18543C14.1198 8.18543 14.0973 8.19043 14.1073 8.16793C14.1173 8.04793 14.1348 7.92793 14.1773 7.81793C14.1896 7.7746 14.2138 7.73562 14.2473 7.70543C14.2523 7.70043 14.2623 7.69543 14.2723 7.69793H14.2698Z" fill="#CF1126"/>
</g>
<path id="Vector_20" d="M8.89203 11.8988C8.72317 11.8805 8.56306 11.8143 8.43061 11.708C8.29816 11.6017 8.19889 11.4597 8.14453 11.2988C8.15203 11.2438 8.21953 11.3288 8.25203 11.3363C8.313 11.3726 8.38134 11.3948 8.45203 11.4013C8.53953 11.4388 8.59453 11.5263 8.67953 11.5738C8.71953 11.6038 8.85953 11.6638 8.83203 11.5663C8.79953 11.5163 8.77703 11.4513 8.80703 11.3913C8.85203 11.2888 8.92453 11.1988 8.99953 11.1113C9.05203 11.0938 9.08953 11.2013 9.12703 11.2363C9.17953 11.3188 9.24453 11.4188 9.21203 11.5188C9.18203 11.5563 9.16203 11.6688 9.24453 11.6338C9.34453 11.5888 9.42703 11.5138 9.50953 11.4438C9.58453 11.3938 9.67703 11.3913 9.75203 11.3438C9.78953 11.3363 9.86203 11.2663 9.87703 11.3038C9.83225 11.4155 9.76979 11.5194 9.69203 11.6113C9.57181 11.754 9.40561 11.8504 9.22203 11.8838C9.11203 11.9038 9.00203 11.9088 8.89203 11.8988Z" fill="#CF1126"/>
<path id="Vector_21" d="M9.28731 11.5044C9.29481 11.4369 9.27981 11.3694 9.24481 11.3044C9.19231 11.1994 9.11981 11.1044 9.04481 11.0069C8.97481 10.9669 8.93731 11.0994 8.89231 11.1369C8.81981 11.2444 8.72981 11.3544 8.72481 11.4869C8.68481 11.5494 8.60981 11.4369 8.57731 11.3994C8.51069 11.3137 8.4754 11.2079 8.47731 11.0994C8.47127 10.9233 8.50192 10.7479 8.56731 10.5844C8.61731 10.4444 8.69481 10.3094 8.68731 10.1594C8.69231 10.0419 8.66981 9.91688 8.57731 9.83938C8.48731 9.76938 8.63481 9.75438 8.67981 9.78938C8.75981 9.79688 8.80231 9.92688 8.87481 9.89438C8.90231 9.82688 8.90981 9.74438 8.96981 9.69188C9.02731 9.61188 9.08731 9.72438 9.10731 9.77938C9.14981 9.82438 9.10731 9.94188 9.17231 9.94438C9.25231 9.88688 9.30981 9.79438 9.41231 9.77188C9.45481 9.74688 9.52481 9.77188 9.46981 9.81688C9.39481 9.88938 9.32981 9.97688 9.31481 10.0844C9.29231 10.2169 9.32481 10.3519 9.38231 10.4694C9.49481 10.7044 9.58231 10.9694 9.52481 11.2319C9.49981 11.3469 9.41981 11.4469 9.32481 11.5144C9.31231 11.5219 9.29231 11.5219 9.28731 11.5044Z" fill="#CF1126"/>
<path id="Vector_22" d="M9.16762 9.73984C9.13396 9.6722 9.08622 9.61253 9.02762 9.56484C8.96762 9.56484 8.93012 9.63984 8.89012 9.67984C8.86262 9.73234 8.82762 9.81984 8.75762 9.75234C8.64512 9.68734 8.62762 9.54484 8.62762 9.42734C8.62012 9.23734 8.69762 9.05984 8.76512 8.88735C8.80762 8.77985 8.79762 8.65735 8.77012 8.54735C8.73762 8.42235 8.63512 8.33235 8.55762 8.23235C8.56262 8.19485 8.66262 8.21485 8.70012 8.22235C8.78512 8.24485 8.83512 8.31735 8.89762 8.37235C8.94262 8.35735 8.92262 8.26735 8.94512 8.22485C8.94512 8.16485 9.02512 8.08735 9.05762 8.17235C9.10762 8.22735 9.05762 8.33485 9.12012 8.36735C9.18012 8.34485 9.21012 8.27985 9.26512 8.24985C9.29384 8.23126 9.32684 8.22035 9.36099 8.21816C9.39513 8.21597 9.42926 8.22258 9.46012 8.23735C9.48262 8.29235 9.39512 8.33735 9.37012 8.38735C9.32014 8.44967 9.28551 8.52287 9.26901 8.60103C9.25251 8.67919 9.2546 8.76014 9.27512 8.83735C9.31012 8.96234 9.37012 9.07484 9.39262 9.19984C9.41961 9.34239 9.41535 9.4891 9.38012 9.62984C9.35762 9.71484 9.28512 9.76984 9.21012 9.80484C9.19012 9.78734 9.18012 9.76234 9.16762 9.73984Z" fill="#CF1126"/>
<path id="Vector_23" d="M8.79019 8.17178C8.70519 8.10928 8.67769 8.05178 8.67769 7.93428C8.67769 7.87678 8.69019 7.84428 8.72769 7.78928C8.78769 7.70928 8.77769 7.68428 8.69519 7.70678C8.56269 7.74428 8.50019 7.71178 8.49519 7.59928C8.49519 7.54428 8.50519 7.52178 8.57769 7.43178C8.63769 7.36178 8.66019 7.32428 8.64769 7.31178C8.63519 7.30178 8.56519 7.36178 8.42269 7.50678C8.33334 7.601 8.23815 7.6895 8.13769 7.77178C7.8927 7.93678 7.6577 7.96178 7.5502 7.83428C7.4952 7.76928 7.4977 7.73428 7.5602 7.69428C7.6 7.66739 7.63687 7.63639 7.6702 7.60178C7.79272 7.48991 7.92779 7.39259 8.0727 7.31178C8.1627 7.26678 8.18269 7.23678 8.12519 7.23678C8.05019 7.23678 7.8127 7.39178 7.6302 7.55678C7.5777 7.60678 7.5002 7.66178 7.4602 7.68178C7.34896 7.72235 7.22859 7.73101 7.1127 7.70678C7.0577 7.68928 6.9552 7.59428 6.9552 7.55928C6.9552 7.55178 6.9802 7.53178 7.0052 7.51428C7.04594 7.49126 7.08444 7.46448 7.1202 7.43428C7.2652 7.30928 7.5402 7.17678 7.75769 7.12928C7.82769 7.11678 7.8002 7.07928 7.7227 7.08428C7.49322 7.12811 7.27836 7.22866 7.0977 7.37678C6.8902 7.54928 6.5777 7.53178 6.4777 7.34428C6.4602 7.31178 6.4477 7.28178 6.4527 7.27678C6.62978 7.23208 6.80096 7.16663 6.9627 7.08178C7.10199 6.99968 7.2555 6.94456 7.4152 6.91928C7.4852 6.90678 7.4902 6.87178 7.4227 6.86428C7.3327 6.85428 7.1977 6.89928 6.9602 7.01428C6.6527 7.16678 6.5652 7.19428 6.4052 7.18428C6.2552 7.17428 6.1727 7.13678 6.0552 7.02428C5.9752 6.94928 5.8652 6.76178 5.8852 6.73928C6.01499 6.76657 6.14769 6.77749 6.2802 6.77178C6.4877 6.77178 6.5452 6.76678 6.6552 6.73428C6.87009 6.66619 7.07266 6.56406 7.2552 6.43178C7.51252 6.2141 7.83815 6.09376 8.17519 6.09178C8.48519 6.09178 8.68019 6.16178 8.85519 6.33928C8.91519 6.39928 8.96519 6.43678 8.97269 6.42928C8.98019 6.42178 8.98769 6.31678 8.99019 6.19678C8.99019 6.19678 9.08269 6.18678 9.10269 6.21428C9.10269 6.40678 9.10269 6.42428 9.13269 6.42428C9.15019 6.42428 9.17019 6.40428 9.18269 6.37428C9.20769 6.31178 9.30769 6.22428 9.41269 6.16928C9.63769 6.05678 10.0302 6.05178 10.3452 6.16178C10.4958 6.21892 10.6366 6.29904 10.7627 6.39928C10.9466 6.52864 11.1489 6.62976 11.3627 6.69928C11.5327 6.74928 11.8377 6.76178 11.9902 6.72428C12.0348 6.71396 12.0798 6.70562 12.1252 6.69928C12.1827 6.69928 12.0852 6.88928 11.9702 7.00178C11.7602 7.20678 11.4877 7.20428 11.1052 6.99928C10.8652 6.86928 10.5802 6.79928 10.5802 6.86928C10.5802 6.88428 10.5952 6.89428 10.6177 6.89428C10.7002 6.89428 10.8602 6.94928 11.0852 7.05678C11.2265 7.1383 11.3816 7.19337 11.5427 7.21928C11.6002 7.21928 11.6027 7.25678 11.5477 7.33678C11.4902 7.42178 11.3927 7.46178 11.2552 7.46178C11.1227 7.46178 11.0477 7.43428 10.9302 7.33678C10.7302 7.17178 10.2402 6.98678 10.2577 7.08678C10.2627 7.10428 10.2852 7.11678 10.3377 7.12428C10.5488 7.17016 10.7465 7.26428 10.9152 7.39928L11.0627 7.50678C11.0902 7.52178 11.0902 7.52678 11.0677 7.56928C11.0327 7.63928 10.9377 7.69178 10.8377 7.70178C10.7077 7.71678 10.5927 7.67678 10.4752 7.57678C10.2252 7.36928 9.99269 7.21928 9.91769 7.21928C9.85519 7.21928 9.88269 7.25428 9.99269 7.31178C10.135 7.38715 10.2676 7.47949 10.3877 7.58678C10.4377 7.63428 10.4952 7.67928 10.5127 7.68928C10.5602 7.71428 10.5577 7.74928 10.5077 7.81428C10.4577 7.87928 10.3727 7.90928 10.2652 7.89678C10.0502 7.87428 9.88019 7.77178 9.61519 7.49678C9.55218 7.42641 9.48363 7.3612 9.41019 7.30178C9.37519 7.30178 9.39769 7.34928 9.46519 7.42678C9.55019 7.51928 9.56519 7.57178 9.53269 7.65178C9.50519 7.71678 9.45769 7.73428 9.36269 7.70678C9.26269 7.68178 9.24769 7.70678 9.31269 7.78428C9.40769 7.90678 9.39519 8.05178 9.27519 8.15428C9.25037 8.17819 9.22162 8.19764 9.19019 8.21178C9.18019 8.21178 9.15519 8.18678 9.13269 8.15178C9.05769 8.03678 8.99019 8.03678 8.91519 8.15178C8.89937 8.17734 8.8827 8.20235 8.86519 8.22678C8.83989 8.20886 8.81489 8.19052 8.79019 8.17178Z" fill="#CF1126"/>
<path id="Vector_24" d="M9.16687 5.82422L9.03687 5.92422L8.92188 5.83922V6.53422H9.16687V5.82422Z" fill="#CF1126"/>
<path id="Vector_25" d="M8.37246 5.10625C8.34972 5.38732 8.27335 5.66142 8.14746 5.91375L8.42496 5.65625L8.61746 5.88625L8.82746 5.65125L9.03996 5.85125L9.24496 5.64375L9.45746 5.89375L9.64246 5.68875L9.95746 5.91375C9.84246 5.66375 9.68996 5.44875 9.70746 5.09375C9.40496 5.31875 8.68246 5.35875 8.37246 5.10375V5.10625Z" fill="#CF1126"/>
<path id="Vector_26" d="M8.92453 4.94C8.81203 4.94 8.69453 4.9425 8.58953 4.965C8.51999 4.97606 8.45356 5.00161 8.39453 5.04C8.40203 5.255 9.41953 5.3425 9.69203 5.045C9.6307 5.00255 9.56066 4.97437 9.48703 4.9625C9.38703 4.9425 9.27203 4.9425 9.16453 4.9375V5.115H8.92453V4.94Z" fill="#CF1126"/>
<path id="Vector_27" d="M9.12234 3.84961H8.96484V5.08461H9.12484L9.12234 3.84961Z" fill="#CF1126"/>
<path id="Vector_28" d="M9.12203 3.87906L9.06203 4.47156L9.66953 4.76906L9.36203 4.35656L9.78203 4.21906L9.12203 3.87906ZM9.05453 3.72656C8.96203 3.72656 8.89453 3.76156 8.89453 3.80156C8.89453 3.84156 8.96203 3.87656 9.05453 3.87656C9.14703 3.87656 9.21453 3.84156 9.21453 3.80156C9.21453 3.76156 9.14703 3.72656 9.05453 3.72656Z" fill="#CF1126"/>
</g>
<g id="Group_2">
<path id="Vector_29" d="M8.77589 14.0976C8.87785 14.0625 8.9341 14.0027 8.97277 13.8867C8.98958 13.8425 9.00137 13.7965 9.00793 13.7496C8.99738 13.7144 8.95168 13.7144 8.90597 13.7566C8.87082 13.7812 8.87082 13.7953 8.87785 13.8515C8.90246 13.9922 8.85324 14.0273 8.58605 14.0555C8.56144 14.0555 8.4841 14.0555 8.4173 14.0449C8.29074 14.0308 8.24855 14.0449 8.29425 14.0801C8.3178 14.0962 8.34397 14.1081 8.3716 14.1152C8.44191 14.1328 8.70207 14.1222 8.77589 14.0941V14.0976ZM9.32785 14.073C9.34191 14.059 9.39113 14.0379 9.44035 14.0203C9.50363 13.9992 9.53879 13.9781 9.56339 13.9359C9.64074 13.8199 9.62668 13.7215 9.51418 13.5844C9.45089 13.514 9.42277 13.514 9.37355 13.5984C9.33136 13.6687 9.33136 13.6687 9.39464 13.6863C9.4298 13.6933 9.45793 13.7215 9.4755 13.7496C9.5423 13.8656 9.52121 13.9359 9.42277 13.9359C9.33136 13.9359 9.30675 13.95 9.28214 14.0062C9.27211 14.0299 9.26502 14.0547 9.26105 14.0801C9.26105 14.1047 9.29621 14.1012 9.32785 14.073ZM9.14504 13.9394C9.16261 13.8937 9.16964 13.8129 9.16613 13.6441C9.16613 13.514 9.16261 13.4051 9.15558 13.398C9.14152 13.3875 9.06769 13.4332 9.05714 13.4648C9.05363 13.4824 9.06066 13.5176 9.07472 13.5457C9.09933 13.5914 9.10285 13.6336 9.09582 13.8094C9.08527 14.0308 9.09933 14.066 9.14504 13.9394Z" fill="#F7E017"/>
<path id="Vector_30" d="M8.72234 13.8374C8.73289 13.7952 8.74344 13.7109 8.74695 13.6476C8.75398 13.5878 8.76453 13.5069 8.77508 13.4718C8.8032 13.3874 8.77508 13.3663 8.70476 13.4155L8.65555 13.4507L8.66609 13.5737C8.67664 13.6862 8.65906 13.8937 8.63094 13.9745C8.62742 13.9991 8.63797 13.9921 8.66609 13.9605C8.69357 13.9227 8.71274 13.8796 8.72234 13.8339V13.8374ZM8.34617 13.8972C8.43758 13.8198 8.42703 13.6862 8.44812 13.5808C8.44812 13.5105 8.49383 13.4261 8.46219 13.3663C8.37781 13.3804 8.32156 13.4612 8.36726 13.5421C8.37078 13.637 8.36726 13.739 8.32156 13.8234C8.28289 13.8761 8.15633 13.8585 8.16336 13.7847C8.195 13.6687 8.05789 13.7249 8.00164 13.7566C7.95945 13.7847 7.87156 13.7882 7.9032 13.7144C7.88211 13.6159 7.75906 13.6792 7.69226 13.6792C7.62898 13.6792 7.68523 13.5491 7.59383 13.5737C7.42508 13.5562 7.23523 13.5737 7.08758 13.4683C7.0032 13.4296 7.01726 13.3277 7.05945 13.2573C7.1157 13.1659 7.12976 13.0499 7.21414 12.9796C7.29851 12.8987 7.1368 12.9339 7.09812 12.962C7.01726 13.0042 7.09109 13.1202 7.02781 13.1835C6.98562 13.2538 6.93289 13.3417 6.845 13.3312C6.7114 13.3066 6.63406 13.1835 6.54265 13.1027C6.4618 13.0851 6.5075 13.2327 6.54969 13.2644C6.63298 13.3261 6.72722 13.3714 6.82742 13.398C6.92586 13.3804 6.92937 13.5105 7.01375 13.5316C7.16844 13.6019 7.3407 13.623 7.50594 13.6335C7.57625 13.637 7.53758 13.7566 7.62547 13.7319C7.67469 13.746 7.78367 13.7144 7.78719 13.7706C7.71687 13.8585 7.8575 13.8585 7.91375 13.8409C7.98406 13.8304 8.06844 13.8058 8.08953 13.8972C8.14578 13.9605 8.25125 13.9499 8.31805 13.9148L8.34617 13.8972Z" fill="#F7E017"/>
<path id="Vector_31" d="M6.85572 13.1379C6.88033 13.1027 6.92252 13.0324 6.94713 12.9797C6.96629 12.9335 6.99109 12.8898 7.02096 12.8496C7.06666 12.8004 7.04205 12.7723 6.96822 12.7898C6.93306 12.7969 6.91549 12.8109 6.91197 12.8426C6.89088 12.948 6.85221 13.057 6.81705 13.1062C6.75377 13.1977 6.75377 13.2012 6.78189 13.2012C6.79244 13.2012 6.82408 13.173 6.85221 13.1379H6.85572ZM5.91353 12.5508C5.84322 12.5508 5.84322 12.5965 5.91002 12.6211C5.94166 12.6316 5.96978 12.6562 5.99088 12.7055C6.06119 12.8355 6.09635 12.8602 6.27213 12.8742L6.38814 12.8848L6.39166 12.9551C6.39517 12.9902 6.40572 13.0254 6.41275 13.0254C6.4233 13.0254 6.46549 13.0043 6.51119 12.9832C6.59205 12.941 6.67291 12.8426 6.67291 12.7828C6.67291 12.7441 6.6026 12.6984 6.54635 12.6984C6.50248 12.7049 6.46118 12.7231 6.42682 12.7512C6.30025 12.8426 6.16666 12.8215 6.09283 12.7055C6.03307 12.607 5.96978 12.5508 5.91353 12.5508ZM6.52525 12.7969C6.56041 12.7969 6.56744 12.8215 6.54986 12.8672C6.5358 12.9023 6.49361 12.9023 6.47955 12.8672C6.469 12.832 6.4901 12.7969 6.52525 12.7969ZM11.2678 12.6422C11.2221 12.6422 11.2081 12.6527 11.1799 12.6984C11.1307 12.7688 11.1272 12.9199 11.1729 12.9727C11.1975 13.0078 11.201 13.0078 11.2608 12.9832C11.3417 12.948 11.3557 12.9516 11.3522 12.9938C11.3522 13.1063 11.194 13.3172 11.0288 13.4332C10.995 13.4519 10.9651 13.477 10.9409 13.507C10.9268 13.5422 10.9901 13.5316 11.0639 13.493C11.1694 13.4402 11.303 13.3031 11.3592 13.1941C11.4014 13.1062 11.4085 13.0781 11.4155 12.927C11.4155 12.7863 11.4155 12.7477 11.3909 12.6984C11.3663 12.6457 11.3557 12.6422 11.2889 12.6422H11.2678ZM11.2749 12.7406C11.31 12.7406 11.3135 12.7477 11.317 12.7969C11.3206 12.8391 11.3171 12.8637 11.2924 12.8848C11.2573 12.9129 11.2573 12.9129 11.2292 12.8707C11.194 12.8109 11.2151 12.7406 11.2749 12.7406ZM10.5155 13.8059C10.6412 13.7535 10.7436 13.6573 10.8038 13.5352C10.8223 13.4979 10.8376 13.4591 10.8495 13.4191C10.8495 13.398 10.7792 13.3664 10.7335 13.3664C10.6878 13.3664 10.6842 13.3348 10.6983 13.2539C10.7194 13.173 10.6983 13.0746 10.6631 13.0746C10.6491 13.0746 10.628 13.0922 10.6139 13.1133C10.5893 13.1484 10.5893 13.166 10.6069 13.2188C10.6315 13.2891 10.6104 13.3488 10.5436 13.3945C10.5085 13.4191 10.4909 13.4473 10.4909 13.4719C10.4909 13.493 10.4944 13.5105 10.4979 13.5105L10.5788 13.4719L10.6491 13.4297L10.6948 13.4648C10.7159 13.4824 10.737 13.5141 10.737 13.5316C10.737 13.6195 10.4838 13.7707 10.3081 13.7848C10.2167 13.7918 10.2026 13.7848 10.1674 13.7566C10.1428 13.7285 10.1323 13.7074 10.1393 13.6758L10.1604 13.5809C10.178 13.5035 10.1428 13.5141 10.0866 13.6055C10.0374 13.6758 10.0233 13.7602 10.0514 13.8023C10.0725 13.8375 10.2167 13.8691 10.3186 13.8621C10.3819 13.8586 10.4487 13.841 10.5155 13.8059ZM11.4893 13.2609C11.5807 13.1695 11.6229 13.057 11.6229 12.8848V12.7547L11.6967 12.7195C11.7952 12.6738 11.8901 12.5789 11.8901 12.5297C11.8901 12.4734 11.8655 12.477 11.8233 12.5367C11.7917 12.5789 11.753 12.6035 11.5983 12.6738C11.5596 12.6914 11.5561 12.702 11.5491 12.8637C11.5385 13.05 11.5139 13.1168 11.4085 13.2469C11.3452 13.3207 11.3417 13.3313 11.3874 13.3313C11.4049 13.3313 11.4506 13.3031 11.4928 13.2609H11.4893ZM10.4874 13.1555C10.4979 13.1309 10.4452 13.1133 10.4241 13.1344C10.4135 13.1449 10.4135 13.159 10.4206 13.1695C10.4346 13.1941 10.4803 13.1871 10.4909 13.159L10.4874 13.1555ZM11.869 12.8004C11.8795 12.7723 11.8268 12.7547 11.8057 12.7758C11.7952 12.7863 11.7952 12.8039 11.8022 12.8109C11.8163 12.8355 11.862 12.8285 11.8725 12.8004H11.869ZM10.2061 11.8301C10.171 11.8477 10.1534 11.8863 10.1288 11.918C10.1112 11.9285 10.1253 11.9391 10.1358 11.9531C10.1991 12.0199 10.2237 12.1113 10.2553 12.1992C10.2835 12.2977 10.3221 12.4066 10.2905 12.5121C10.2764 12.5508 10.2448 12.593 10.1991 12.5824C10.1217 12.5754 10.0479 12.5578 9.97408 12.5578C9.90377 12.5578 9.85103 12.6211 9.78424 12.6141C9.73853 12.6176 9.74205 12.5262 9.69986 12.5508C9.67877 12.6 9.68931 12.6527 9.6858 12.7055C9.69635 12.7125 9.71744 12.7055 9.72799 12.7055H9.86861C9.87564 12.7547 9.87213 12.8109 9.90728 12.8461C9.9565 12.8637 10.0092 12.8461 10.0514 12.8285C10.1006 12.8074 10.1077 12.7477 10.1217 12.7055C10.1358 12.6562 10.1991 12.6703 10.2378 12.6492C10.2818 12.634 10.3197 12.6048 10.3457 12.5661C10.3718 12.5274 10.3844 12.4813 10.3819 12.4348C10.3784 12.2906 10.3221 12.1535 10.2799 12.0199C10.2588 11.9602 10.2448 11.9004 10.2202 11.8406C10.2202 11.8371 10.2131 11.8301 10.2061 11.8336V11.8301ZM9.98111 12.6492C10.0303 12.6492 10.0514 12.709 10.0444 12.7512C10.0233 12.8074 9.95299 12.7723 9.93892 12.7301C9.91432 12.6949 9.93189 12.6457 9.98111 12.6492Z" fill="#F7E017"/>
<path id="Vector_32" d="M8.10005 12.1816C8.07347 12.1819 8.04764 12.1905 8.02622 12.2063C7.89263 12.3012 7.85747 12.4102 7.94888 12.4523C8.01568 12.484 7.9981 12.5227 7.89263 12.5754C7.74497 12.6457 7.61138 12.6387 7.36529 12.5367C7.302 12.5086 7.28443 12.5191 7.29849 12.5754C7.31255 12.6316 7.36529 12.6598 7.48833 12.6914C7.62544 12.7195 7.78716 12.7125 7.89263 12.6668C7.95436 12.6357 8.00932 12.5927 8.05435 12.5402L8.13521 12.4523L8.23013 12.4629C8.34615 12.477 8.34966 12.4805 8.34966 12.5332C8.34966 12.5789 8.34966 12.5824 8.45865 12.5895L8.63443 12.6C8.68365 12.6 8.71177 12.6105 8.72583 12.6352C8.74693 12.6598 8.76099 12.6633 8.93677 12.6457C9.09849 12.6316 9.13364 12.6316 9.20747 12.6598C9.26021 12.6773 9.31646 12.6844 9.36216 12.6773C9.48872 12.6633 9.66099 12.5613 9.6856 12.484C9.68911 12.477 9.73482 12.4594 9.78755 12.4488C9.91411 12.4242 9.92114 12.3961 9.80161 12.382C9.74288 12.374 9.68515 12.3598 9.62935 12.3398C9.58778 12.323 9.54395 12.3123 9.49927 12.3082C9.43599 12.3082 9.37271 12.3469 9.37271 12.3891C9.37271 12.4172 9.38325 12.4207 9.4606 12.4137C9.53091 12.4031 9.552 12.4066 9.58716 12.4383C9.61529 12.4594 9.62935 12.4805 9.62232 12.4875C9.60825 12.5156 9.4606 12.5824 9.3938 12.593C9.35578 12.6008 9.31622 12.5959 9.2813 12.5789C9.22154 12.5508 9.13716 12.5438 9.11958 12.5684C9.11607 12.5824 9.09497 12.5754 9.07036 12.5508L9.03521 12.5156L8.9438 12.5508C8.85239 12.5859 8.82075 12.5859 8.82075 12.5437C8.82075 12.5227 8.79614 12.5227 8.66255 12.5297C8.51489 12.5402 8.50083 12.5367 8.47271 12.5086C8.4481 12.4805 8.4481 12.4699 8.46568 12.4383C8.48325 12.4137 8.48325 12.4031 8.46568 12.3855C8.45161 12.3715 8.43052 12.3715 8.37427 12.3855C8.23013 12.4242 8.18794 12.4031 8.18794 12.2906C8.18794 12.2203 8.14927 12.1816 8.10005 12.1816ZM8.06489 12.2871C8.07193 12.2871 8.07544 12.2871 8.08599 12.3012C8.10005 12.3117 8.10708 12.3363 8.10005 12.3504C8.0895 12.3855 8.02622 12.382 8.01216 12.3469C8.00864 12.3293 8.01216 12.3117 8.03325 12.2977L8.06138 12.2836L8.06489 12.2871Z" fill="#F7E017"/>
<path id="Vector_33" d="M7.80504 12.3891C7.88941 12.3328 7.88941 12.3398 7.89996 12.1816C7.91051 12.0762 7.91051 12.0656 7.87887 12.0656C7.83668 12.0656 7.81207 12.1113 7.81207 12.2027C7.81207 12.259 7.80504 12.2871 7.77691 12.3187C7.69957 12.3891 7.51676 12.3574 7.49566 12.266C7.48863 12.2344 7.49566 12.2063 7.53434 12.1535C7.6152 12.041 7.59762 12.0129 7.49918 12.0973C7.42887 12.157 7.41832 12.157 7.43238 12.1078C7.44293 12.0621 7.41832 12.041 7.36207 12.0551C7.33746 12.0621 7.3234 12.0797 7.31637 12.1148C7.30934 12.15 7.29176 12.1676 7.26715 12.1711C7.22145 12.1852 7.14762 12.143 7.14762 12.1043C7.14762 12.0797 7.26012 11.9426 7.40426 11.7879C7.44261 11.7533 7.47683 11.7144 7.50621 11.6719C7.50621 11.6648 7.47457 11.6578 7.43941 11.6578C7.38668 11.6578 7.37613 11.6648 7.37613 11.6895C7.37613 11.7035 7.30231 11.802 7.2109 11.9004C7.02457 12.1113 7.01051 12.157 7.10543 12.2098C7.14231 12.2319 7.18476 12.243 7.22775 12.2418C7.27074 12.2405 7.31248 12.227 7.34801 12.2027L7.40777 12.1605V12.2379C7.40777 12.3328 7.42535 12.3645 7.5027 12.4066C7.54965 12.4302 7.602 12.4411 7.65447 12.438C7.70694 12.4349 7.75766 12.418 7.80152 12.3891H7.80504ZM11.7179 11.0918C11.6476 11.134 11.7004 11.2219 11.7109 11.2781C11.6828 11.3555 11.5843 11.3766 11.5105 11.3941C11.405 11.4082 11.3312 11.4996 11.2925 11.591C11.2714 11.6508 11.2187 11.7422 11.1625 11.6508C11.1132 11.6016 11.0218 11.5629 10.9656 11.6191C10.9199 11.6613 10.9093 11.7246 10.8918 11.7809C10.8671 11.7387 10.8566 11.6754 10.8004 11.6613C10.7125 11.6719 10.7441 11.7844 10.7828 11.8301C10.8214 11.8828 10.8566 11.9531 10.8179 12.0164C10.7898 12.0937 10.6773 12.143 10.607 12.0797C10.5472 12.0445 10.5894 11.9285 10.5296 11.9215C10.498 11.9461 10.4945 12.0656 10.4488 11.9988C10.4136 11.9426 10.4312 11.8652 10.389 11.816C10.3398 11.823 10.2976 11.9074 10.3152 11.9566C10.376 12.0504 10.4167 12.1557 10.4347 12.266C10.4523 12.3117 10.4347 12.3961 10.4734 12.4137C10.5015 12.3434 10.4734 12.266 10.498 12.1957C10.5613 12.1887 10.6386 12.2168 10.7054 12.2027C10.8039 12.1887 10.8812 12.1078 10.9129 12.0199C10.9234 11.9496 10.9129 11.8863 10.9093 11.8195C10.9867 11.8301 11.0675 11.8301 11.1414 11.8547C11.1765 11.9109 11.1308 11.9918 11.1203 12.0516C11.0816 12.1781 10.9796 12.2695 10.8847 12.3539C10.8461 12.3785 10.839 12.4418 10.8988 12.4102C11.0289 12.3539 11.1238 12.2344 11.18 12.1078C11.2222 12.0129 11.1871 11.9039 11.2152 11.8055C11.2539 11.7281 11.3488 11.7457 11.4191 11.7457C11.4894 11.7422 11.5527 11.6578 11.5246 11.5875C11.5035 11.5066 11.5914 11.468 11.6476 11.4398C11.725 11.4012 11.7882 11.3203 11.7812 11.2289C11.7777 11.1832 11.7812 11.0953 11.7179 11.0918ZM11.4402 11.5594C11.5246 11.584 11.4261 11.7422 11.3804 11.6402C11.3699 11.6051 11.4015 11.5594 11.4402 11.5594ZM11.0535 11.6754C11.1625 11.6684 11.1238 11.8266 11.0324 11.7562C10.9832 11.7316 10.9972 11.6719 11.0535 11.6754ZM7.12652 12.2871C7.13004 12.2695 7.12301 12.259 7.10895 12.259C7.07731 12.259 7.05973 12.2871 7.07379 12.3082C7.08785 12.3328 7.12301 12.3187 7.12652 12.2871ZM8.39918 12.1465C8.39918 12.1219 8.38863 12.1113 8.37106 12.1184C8.32887 12.1254 8.32184 12.1781 8.36402 12.1781C8.38863 12.1781 8.39918 12.1676 8.39918 12.143V12.1465ZM6.8277 11.3836C6.77496 11.373 6.74332 11.4152 6.72574 11.4539C6.69059 11.5207 6.64137 11.584 6.57457 11.6191C6.52535 11.6332 6.4691 11.6121 6.43043 11.5875C6.3777 11.5629 6.39176 11.5031 6.36715 11.4609C6.33199 11.4328 6.26871 11.4715 6.26871 11.5172C6.2652 11.577 6.32145 11.6121 6.36715 11.6332C6.40582 11.6578 6.46207 11.6719 6.47965 11.7211C6.47965 11.7633 6.49371 11.809 6.54645 11.7914C6.6027 11.7914 6.61676 11.8617 6.59215 11.9039C6.56638 11.9498 6.5565 12.003 6.56402 12.0551C6.59215 12.0797 6.62027 12.0199 6.64137 11.9988L6.68004 11.9461C6.77848 11.9531 6.88043 11.9637 6.97887 11.9602C7.04918 11.9602 7.11246 11.9145 7.15465 11.8652C7.22145 11.7949 7.27418 11.7176 7.34801 11.6613C7.40074 11.6473 7.37262 11.5488 7.31637 11.577C7.26715 11.598 7.25309 11.6508 7.21793 11.6859C7.16168 11.7562 7.10191 11.8266 7.02809 11.8828C6.97535 11.9039 6.91559 11.8969 6.85934 11.8828C6.83824 11.8652 6.90504 11.8477 6.91559 11.8266C6.94723 11.7914 6.9859 11.7633 6.99996 11.7211C6.98238 11.6859 6.92965 11.6824 6.89449 11.6824C6.79957 11.693 6.72926 11.7703 6.63785 11.7773C6.56754 11.7773 6.6027 11.7035 6.63785 11.6789C6.69762 11.6051 6.76441 11.5348 6.83121 11.4609C6.84879 11.4398 6.91559 11.4188 6.8734 11.3906C6.85934 11.3836 6.84176 11.3836 6.8277 11.3836ZM6.8734 11.7562C6.9191 11.7809 6.84176 11.8266 6.81012 11.8195C6.76793 11.8301 6.76793 11.7879 6.80309 11.7809C6.82418 11.7703 6.84879 11.7562 6.8734 11.7562ZM6.72926 11.8547C6.75387 11.8547 6.81012 11.8793 6.75738 11.8934C6.72223 11.9215 6.68004 11.8652 6.72926 11.8547Z" fill="#F7E017"/>
<path id="Vector_34" d="M7.85432 11.9172C7.85432 11.882 7.79104 11.8855 7.78401 11.9242C7.7805 11.9453 7.78401 11.9523 7.81917 11.9488C7.83675 11.9453 7.85432 11.9313 7.85432 11.9172ZM10.6563 11.6711C10.6633 11.6359 10.6141 11.6148 10.5895 11.6359C10.5649 11.6641 10.5895 11.7098 10.6246 11.7063C10.6387 11.6992 10.6528 11.6852 10.6563 11.6711ZM6.2969 11.3266C6.33909 11.2914 6.33909 11.2879 6.32151 11.2035C6.29339 11.0875 6.2969 11.0734 6.33909 11.0629C6.39534 11.0488 6.53948 11.1262 6.57112 11.1859C6.59573 11.2352 6.59573 11.2352 6.55354 11.2738C6.50784 11.316 6.50784 11.3652 6.55354 11.3652C6.5887 11.3652 6.69417 11.2668 6.69417 11.2316C6.69417 11.1859 6.57815 11.0699 6.49026 11.0277C6.43507 11.0029 6.37498 10.9909 6.31448 10.9926C6.19847 10.9926 6.1844 11.0172 6.21253 11.1508C6.24768 11.3055 6.20198 11.3266 6.0719 11.2105C6.02727 11.1701 5.99261 11.1198 5.97065 11.0637C5.9487 11.0076 5.94003 10.9471 5.94534 10.8871C5.94534 10.7324 6.00511 10.6551 6.13518 10.641C6.22659 10.627 6.22307 10.6059 6.13518 10.5918C5.99807 10.5707 5.88909 10.6621 5.84339 10.8168C5.79768 10.9926 5.90667 11.207 6.09651 11.316C6.19846 11.3758 6.23714 11.3758 6.2969 11.3266ZM11.5176 11.1332C11.5282 11.1227 11.5352 11.098 11.5352 11.0805C11.5352 11.0629 11.5563 11.0207 11.5774 10.9926C11.5952 10.9716 11.6094 10.9478 11.6196 10.9223C11.6196 10.8906 11.5668 10.8941 11.5282 10.9223C11.486 10.9574 11.4578 10.9574 11.4578 10.9258C11.4578 10.9187 11.4754 10.9012 11.5 10.8906C11.5598 10.8625 11.5633 10.8344 11.5141 10.8098C11.4473 10.7816 11.384 10.8344 11.377 10.9223C11.3735 10.982 11.377 10.9926 11.4227 11.0172C11.4649 11.0418 11.4719 11.0559 11.4649 11.0875C11.4543 11.1508 11.4789 11.1719 11.5176 11.1332ZM12.0098 11.077C12.0449 11.0453 12.0731 11.0066 12.0731 10.9961C12.0731 10.9855 12.1047 10.9539 12.1434 10.9258C12.2489 10.8484 12.2735 10.7711 12.2242 10.648C12.2067 10.6023 12.1469 10.5355 12.0203 10.4195C11.9591 10.3591 11.8919 10.305 11.8199 10.2578C11.7848 10.2578 11.7883 10.3879 11.8235 10.3984C11.8903 10.4195 11.9289 10.4477 12.0274 10.5391C12.1469 10.6445 12.1996 10.743 12.168 10.7957C12.1434 10.8484 12.1047 10.8309 11.9992 10.7254C11.9465 10.6656 11.8938 10.6199 11.8832 10.6199C11.8692 10.6199 11.8621 10.6375 11.8621 10.6691C11.8621 10.7043 11.8797 10.7395 11.9324 10.7992C12.0203 10.8977 12.0309 10.9539 11.9676 11.0066C11.9395 11.0242 11.9184 11.0418 11.9114 11.0418C11.8262 10.8964 11.7126 10.7697 11.5774 10.6691C11.5598 10.6691 11.5528 10.6832 11.5528 10.7219C11.5528 10.7676 11.5633 10.7852 11.5985 10.8027C11.6407 10.8238 11.7532 10.9363 11.8621 11.0699C11.8938 11.1051 11.9254 11.1402 11.9324 11.1402C11.936 11.1402 11.9711 11.1121 12.0063 11.077H12.0098ZM12.2278 10.4512C12.2137 10.4055 11.9114 10.0996 11.8832 10.0996C11.8657 10.0996 11.8621 10.1172 11.8657 10.1664C11.8657 10.2262 11.8762 10.2367 11.9149 10.2438C11.943 10.2543 12.0203 10.3141 12.0907 10.3844C12.161 10.4547 12.2242 10.5039 12.2313 10.5004L12.2278 10.4512ZM10.4348 13.9211C10.4377 13.9275 10.4388 13.9345 10.4381 13.9414C10.4374 13.9483 10.4348 13.9549 10.4306 13.9607C10.4265 13.9665 10.4208 13.9712 10.4142 13.9745C10.4075 13.9778 10.4001 13.9795 10.3926 13.9795C10.3851 13.9795 10.3777 13.9778 10.371 13.9745C10.3644 13.9712 10.3588 13.9665 10.3546 13.9607C10.3504 13.9549 10.3478 13.9483 10.3471 13.9414C10.3464 13.9345 10.3475 13.9275 10.3504 13.9211C10.3485 13.9148 10.3481 13.9082 10.3494 13.9018C10.3507 13.8954 10.3536 13.8893 10.3579 13.8841C10.3621 13.8789 10.3676 13.8747 10.374 13.8717C10.3803 13.8688 10.3873 13.8673 10.3944 13.8673C10.4014 13.8673 10.4084 13.8688 10.4147 13.8717C10.4211 13.8747 10.4266 13.8789 10.4308 13.8841C10.4351 13.8893 10.438 13.8954 10.4393 13.9018C10.4406 13.9082 10.4403 13.9148 10.4383 13.9211H10.4348ZM10.5965 13.8684C10.5965 13.8795 10.5917 13.8903 10.5831 13.8982C10.5746 13.9061 10.5629 13.9105 10.5508 13.9105C10.5387 13.9105 10.5271 13.9061 10.5185 13.8982C10.5099 13.8903 10.5051 13.8795 10.5051 13.8684C10.5051 13.8572 10.5099 13.8464 10.5185 13.8385C10.5271 13.8306 10.5387 13.8262 10.5508 13.8262C10.5629 13.8262 10.5746 13.8306 10.5831 13.8385C10.5917 13.8464 10.5965 13.8572 10.5965 13.8684Z" fill="#F7E017"/>
</g>
</g>
<defs>
<clipPath id="clip0_186_5462">
<rect width="18" height="18" fill="white"/>
</clipPath>
</defs>
</svg>
