<svg width="18" height="18" viewBox="0 0 18 18" fill="none" xmlns="http://www.w3.org/2000/svg">
<g id="br" clip-path="url(#clip0_186_6178)">
<g id="Group">
<path id="Vector" fill-rule="evenodd" clip-rule="evenodd" d="M0 0H18V18H0V0Z" fill="#229E45"/>
<path id="Vector_2" fill-rule="evenodd" clip-rule="evenodd" d="M9.19004 14.2527L17.2689 9.00742L9.14082 3.74805L1.03027 9.02148L9.19004 14.2527Z" fill="#F8E509"/>
<path id="Vector_3" fill-rule="evenodd" clip-rule="evenodd" d="M12.7087 9.00062C12.7229 9.45837 12.645 9.91431 12.4795 10.3413C12.314 10.7684 12.0644 11.1578 11.7455 11.4864C11.4265 11.8151 11.0448 12.0763 10.6229 12.2545C10.201 12.4327 9.74762 12.5243 9.28965 12.5238C8.83168 12.5234 8.37847 12.4308 7.95696 12.2518C7.53546 12.0727 7.15424 11.8107 6.83598 11.4814C6.51772 11.1521 6.2689 10.7621 6.1043 10.3348C5.93971 9.90741 5.8627 9.45131 5.87785 8.99359C5.9072 8.10675 6.28037 7.2661 6.91842 6.64946C7.55647 6.03282 8.40935 5.68854 9.29668 5.68945C10.184 5.69037 11.0362 6.0364 11.673 6.65435C12.3097 7.2723 12.6812 8.11372 12.7087 9.00062Z" fill="#2B49A3"/>
<path id="Vector_4" fill-rule="evenodd" clip-rule="evenodd" d="M8.16719 11.0465L8.06172 10.9832L7.95273 11.0395L7.97734 10.9164L7.89297 10.8285L8.0125 10.8145L8.06875 10.702L8.12148 10.818L8.24102 10.8391L8.14961 10.9234M10.4594 11.6266L10.3539 11.5633L10.2414 11.6195L10.266 11.4965L10.1816 11.4086L10.3047 11.3945L10.3609 11.282L10.4102 11.398L10.5297 11.4191L10.4418 11.5035M9.47148 10.6984L9.38008 10.6457L9.28516 10.6914L9.30625 10.5859L9.23594 10.5086L9.33789 10.498L9.38711 10.4031L9.4293 10.5016L9.53477 10.5191L9.45742 10.5895M11.7848 10.3645L11.6934 10.3117L11.602 10.3574L11.623 10.2555L11.5527 10.1816L11.6547 10.1676L11.7004 10.0762L11.7461 10.1711L11.848 10.1887L11.7707 10.259M9.4293 9.67188L9.32383 9.60859L9.21484 9.66484L9.23945 9.5418L9.15508 9.45391L9.27461 9.43984L9.33086 9.33086L9.38359 9.44336L9.50312 9.46445L9.41172 9.54883M6.60977 8.61367L6.5043 8.55039L6.39883 8.60664L6.41992 8.48359L6.33555 8.3957L6.45859 8.38164L6.51484 8.26914L6.56406 8.38516L6.68359 8.40625L6.5957 8.49062M6.95078 10.0199L6.84531 9.96016L6.73633 10.0129L6.76094 9.89336L6.67656 9.80195L6.79609 9.78789L6.85234 9.68242L6.90508 9.79141L7.02461 9.81602L6.9332 9.89687M10.4699 8.09336L10.3785 8.04062L10.2801 8.08633L10.3012 7.98086L10.2309 7.9L10.3363 7.88945L10.3855 7.79102L10.4313 7.89297L10.5367 7.91055L10.4559 7.98438M10.2801 9.01094L10.1957 8.96523L10.1219 9.00039L10.1359 8.91602L10.0797 8.85625L10.1641 8.8457L10.2027 8.76836L10.2379 8.84922L10.3223 8.86328L10.259 8.91953M6.44805 10.273L6.37773 10.2309L6.30391 10.266L6.31797 10.1852L6.26172 10.1254L6.34609 10.1184L6.38125 10.048L6.41641 10.1184L6.49727 10.1359L6.4375 10.1922M11.8023 10.5965L11.7426 10.5684L11.6828 10.593L11.6969 10.5332L11.6512 10.4875L11.718 10.4805L11.7496 10.4277L11.7742 10.484L11.841 10.4945L11.7918 10.5367" fill="#FFFFEF"/>
<path id="Vector_5" fill-rule="evenodd" clip-rule="evenodd" d="M6.45098 10.2758L6.38066 10.2336L6.30684 10.2688L6.32441 10.1879L6.26465 10.1281L6.34551 10.1211L6.38418 10.0508L6.41934 10.1211L6.5002 10.1387L6.44043 10.1949" fill="#FFFFEF"/>
<path id="Vector_6" fill-rule="evenodd" clip-rule="evenodd" d="M6.45098 10.2758L6.38066 10.2336L6.30684 10.2688L6.32441 10.1879L6.26465 10.1281L6.34551 10.1211L6.38418 10.0508L6.41934 10.1211L6.5002 10.1387L6.44043 10.1949M7.57246 10.2758L7.50215 10.2336L7.43184 10.2688L7.4459 10.1879L7.38965 10.1281L7.47051 10.1211L7.50566 10.0473L7.54082 10.1211L7.62168 10.1387L7.56191 10.1949M7.43184 10.652L7.36152 10.6098L7.29121 10.6449L7.30527 10.5641L7.24902 10.5043L7.32988 10.4938L7.36504 10.4234L7.4002 10.4938L7.48105 10.5113L7.42129 10.5676M9.76621 9.96992L9.6959 9.92773L9.62207 9.96289L9.63613 9.88203L9.57988 9.82227L9.66074 9.81524L9.69941 9.74141L9.73457 9.81524L9.81191 9.8293L9.75215 9.88555M9.08066 9.96992L9.01035 9.92773L8.93652 9.96289L8.9541 9.88203L8.89785 9.82227L8.97871 9.81524L9.01387 9.74141L9.04902 9.81524L9.12988 9.8293L9.07012 9.88555M7.22441 9.73086L7.18223 9.70625L7.13652 9.72734L7.14355 9.67461L7.1084 9.63945L7.16113 9.63242L7.18574 9.58672L7.20332 9.63594L7.25605 9.64297L7.2209 9.67812M11.7139 10.898L11.6436 10.8594L11.5697 10.8945L11.5873 10.8137L11.5311 10.7539L11.6119 10.7434L11.6471 10.673L11.6822 10.7434L11.7631 10.7609L11.7033 10.8172M11.1408 10.9719L11.0846 10.9367L11.0248 10.9719L11.0389 10.9016L10.9896 10.8523L11.06 10.8453L11.0881 10.7855L11.1162 10.8453L11.1865 10.8594L11.1338 10.9051M11.415 10.9684L11.3588 10.9332L11.3025 10.9648L11.3131 10.9016L11.2709 10.8559L11.3342 10.8488L11.3623 10.7926L11.3869 10.8488L11.4502 10.8594L11.4045 10.9051M12.185 10.2934L12.1322 10.2617L12.076 10.2898L12.09 10.2301L12.0479 10.1844L12.1076 10.1773L12.1357 10.1246L12.1604 10.1809L12.2201 10.1914L12.1744 10.2336M11.1443 11.3516L11.074 11.3129L11.0037 11.348L11.0213 11.2707L10.965 11.218L11.0424 11.2074L11.0811 11.1406L11.1162 11.2109L11.19 11.225L11.1338 11.2742M11.1479 11.6574L11.0846 11.6223L11.0213 11.6539L11.0354 11.5766L10.9861 11.5238L11.0564 11.5133L11.0916 11.4465L11.1197 11.5168L11.19 11.5309L11.1373 11.5801M10.6275 10.9684L10.5748 10.9367L10.5186 10.9648L10.5326 10.9016L10.4904 10.8594L10.5502 10.8523L10.5783 10.7961L10.6029 10.8523L10.6627 10.8629L10.617 10.9051M10.1424 10.9684L10.0896 10.9367L10.0334 10.9648L10.0475 10.9016L10.0053 10.8594L10.065 10.8523L10.0932 10.7961L10.1178 10.8523L10.1775 10.8629L10.1354 10.9051M9.31621 10.2441L9.26348 10.2125L9.20723 10.2406L9.22129 10.1809L9.1791 10.1352L9.23887 10.1281L9.26699 10.0754L9.2916 10.1316L9.35137 10.1422L9.30566 10.1809M9.40762 11.7102L9.36191 11.6855L9.31621 11.7102L9.32676 11.6574L9.2916 11.6223L9.34082 11.6117L9.36543 11.566L9.38652 11.6152L9.43926 11.6223L9.40059 11.6574M8.16309 9.33711L8.05762 9.27734L7.94863 9.33008L7.97324 9.21055L7.88887 9.11914L8.0084 9.10508L8.06465 8.99609L8.11738 9.10859L8.23691 9.12969L8.14551 9.21406" fill="#FFFFEF"/>
<path id="Vector_7" fill-rule="evenodd" clip-rule="evenodd" d="M12.4844 10.2307C12.5505 10.0584 12.6023 9.8808 12.6391 9.69988C10.825 8.10378 8.8 7.28464 6.24062 7.45339C6.14894 7.63256 6.07363 7.81965 6.01562 8.01238C7.18976 7.8938 8.37566 8.03032 9.49214 8.41259C10.6086 8.79487 11.6293 9.41387 12.4844 10.2272V10.2307Z" fill="white"/>
<path id="Vector_8" d="M11.6684 9.33008L11.7316 9.36523C11.7218 9.3848 11.7193 9.40726 11.7246 9.42852C11.7281 9.44258 11.7422 9.46016 11.7598 9.4707C11.7809 9.48477 11.7984 9.4918 11.816 9.4918C11.8301 9.4918 11.8441 9.48125 11.8512 9.4707C11.8547 9.46367 11.8582 9.45664 11.8547 9.44609L11.8441 9.41797L11.802 9.37227C11.7795 9.34947 11.7627 9.32179 11.7527 9.29141C11.7466 9.26854 11.7489 9.24422 11.7592 9.22291C11.7696 9.2016 11.7872 9.18473 11.809 9.17539C11.8277 9.16709 11.8486 9.16464 11.8688 9.16836C11.8941 9.17389 11.9181 9.18467 11.9391 9.2C11.9695 9.22142 11.9938 9.25054 12.0094 9.28438C12.0136 9.29994 12.0143 9.31628 12.0112 9.33212C12.0082 9.34797 12.0015 9.36291 11.9918 9.37578L11.9285 9.33711C11.9355 9.31953 11.9391 9.30195 11.9355 9.28789C11.932 9.27734 11.918 9.26328 11.9004 9.25274C11.8828 9.23867 11.8652 9.23516 11.8512 9.23516C11.8471 9.23528 11.8431 9.23629 11.8395 9.23811C11.8358 9.23993 11.8326 9.24252 11.8301 9.2457C11.8276 9.24926 11.8261 9.25333 11.8255 9.2576C11.8248 9.26187 11.8252 9.26622 11.8266 9.27031C11.8266 9.28438 11.8441 9.30547 11.8688 9.33008L11.9215 9.40039C11.9311 9.41789 11.9355 9.43775 11.9343 9.45766C11.933 9.47757 11.9261 9.49672 11.9145 9.51289C11.9022 9.53032 11.8851 9.54376 11.8652 9.55156C11.8443 9.56112 11.8209 9.56359 11.7984 9.55859C11.7718 9.5518 11.7467 9.53986 11.7246 9.52344C11.6914 9.50351 11.6665 9.47232 11.6543 9.43555C11.6437 9.40391 11.6473 9.36875 11.6684 9.33008ZM11.359 9.12969L11.4293 9.16484C11.4211 9.18238 11.4186 9.20207 11.4223 9.22109C11.4258 9.23867 11.4398 9.25625 11.4574 9.2668C11.4785 9.28086 11.4961 9.28438 11.5137 9.28086C11.5277 9.28086 11.5418 9.27383 11.5488 9.25977C11.5522 9.25327 11.5534 9.2459 11.5523 9.23867C11.5523 9.22812 11.5488 9.22109 11.5383 9.21055L11.4961 9.16484C11.4729 9.14334 11.4549 9.11691 11.4434 9.0875C11.4387 9.07354 11.4372 9.05872 11.4391 9.04411C11.4409 9.02951 11.446 9.01551 11.4539 9.00313C11.4643 8.98764 11.479 8.97545 11.4961 8.96797C11.5149 8.95987 11.5357 8.95743 11.5559 8.96094C11.577 8.96094 11.598 8.97148 11.6262 8.98906C11.6613 9.01367 11.6895 9.03828 11.6965 9.06992C11.7017 9.08496 11.7035 9.101 11.7017 9.11684C11.6999 9.13267 11.6945 9.14788 11.6859 9.16133L11.6191 9.12266C11.6297 9.10508 11.6297 9.0875 11.6262 9.07695C11.6191 9.06289 11.6086 9.05234 11.591 9.0418C11.5759 9.03015 11.5573 9.02395 11.5383 9.02422C11.5339 9.02475 11.5297 9.0263 11.5261 9.02874C11.5224 9.03118 11.5194 9.03445 11.5172 9.03828C11.5153 9.04212 11.5144 9.04632 11.5144 9.05059C11.5144 9.05485 11.5153 9.05906 11.5172 9.06289C11.5172 9.07344 11.5348 9.09453 11.5594 9.12266C11.5875 9.14727 11.6051 9.17187 11.6156 9.18594C11.6264 9.2035 11.6319 9.22385 11.6313 9.24447C11.6306 9.26509 11.624 9.28508 11.6121 9.30195C11.6001 9.32018 11.5831 9.33453 11.5632 9.34327C11.5432 9.352 11.5211 9.35475 11.4996 9.35117C11.472 9.3458 11.4457 9.33505 11.4223 9.31953C11.3886 9.30087 11.3625 9.27103 11.3484 9.23516C11.3384 9.19994 11.3422 9.16223 11.359 9.12969ZM10.9793 9.02422L11.1762 8.70781L11.4117 8.84844L11.3766 8.90469L11.2078 8.79922L11.1621 8.86953L11.3238 8.96797L11.2887 9.02422L11.1305 8.92578L11.0777 9.01367L11.2535 9.11914L11.2219 9.17539L10.9793 9.02773V9.02422ZM10.4238 8.5707L10.4555 8.51445L10.5961 8.5918L10.5293 8.72188C10.4723 8.73452 10.4127 8.72706 10.3605 8.70078C10.3291 8.68446 10.3024 8.66023 10.2832 8.63047C10.2646 8.60363 10.2548 8.5717 10.2551 8.53906C10.2551 8.50391 10.2656 8.47227 10.2832 8.44063C10.2994 8.40816 10.3236 8.38034 10.3535 8.35977C10.3781 8.33867 10.4133 8.32812 10.4484 8.32812C10.473 8.32812 10.5047 8.33867 10.5363 8.35273C10.571 8.36902 10.5994 8.39618 10.6172 8.43008C10.6313 8.4582 10.6348 8.48984 10.6277 8.525L10.5539 8.50391C10.5579 8.48605 10.5554 8.46737 10.5469 8.45117C10.5375 8.43394 10.5227 8.42032 10.5047 8.4125C10.4922 8.40477 10.4782 8.39983 10.4637 8.39801C10.4491 8.39619 10.4343 8.39754 10.4203 8.40195C10.3957 8.4125 10.3711 8.43711 10.35 8.47227C10.3329 8.50459 10.3267 8.5416 10.3324 8.57773C10.3395 8.60586 10.357 8.62695 10.3887 8.64102L10.4344 8.65508H10.4801L10.5012 8.61289L10.4238 8.5707ZM8.00508 7.97305L8.06133 7.60039L8.17383 7.61797L8.20195 7.88164L8.30742 7.63555L8.41641 7.65313L8.36367 8.02578L8.29336 8.01523L8.33555 7.72344L8.21953 8.00469L8.14922 7.99414L8.11758 7.68828L8.07539 7.98359L8.00508 7.97305ZM7.62891 7.92734L7.66406 7.55469L7.93828 7.5793L7.93477 7.64258L7.73086 7.625L7.72383 7.70586L7.91016 7.72344L7.90664 7.78672L7.72031 7.76914L7.70977 7.87461L7.91719 7.89219L7.91016 7.95547L7.62891 7.92734Z" fill="#309E3A"/>
<g id="Group_2">
<path id="Vector_9" d="M6.37724 7.69232C6.37724 7.65716 6.38427 7.62201 6.39482 7.5974L6.42997 7.54818L6.48271 7.51302C6.50867 7.5041 6.53618 7.50051 6.56357 7.50248C6.58796 7.50231 6.61213 7.50723 6.63453 7.51691C6.65692 7.5266 6.67705 7.54084 6.69364 7.55873C6.7288 7.59388 6.73935 7.63959 6.73935 7.69935C6.73935 7.76263 6.71825 7.80834 6.68661 7.83998C6.66901 7.85704 6.64803 7.87024 6.62502 7.87872C6.60202 7.88719 6.57749 7.89076 6.55302 7.88919C6.52888 7.88981 6.50487 7.88545 6.48249 7.87637C6.46011 7.8673 6.43984 7.85371 6.42294 7.83646C6.40557 7.81775 6.39248 7.79547 6.38458 7.77119C6.37669 7.7469 6.37418 7.72119 6.37724 7.69584V7.69232Z" fill="#309E3A"/>
<path id="Vector_10" d="M6.45469 7.69297C6.45469 7.73516 6.46172 7.77031 6.48281 7.79141C6.50039 7.81602 6.525 7.82656 6.55312 7.82656C6.56749 7.82684 6.58176 7.82417 6.59506 7.81873C6.60836 7.81329 6.62041 7.80519 6.63047 7.79492C6.64805 7.77383 6.65859 7.74219 6.66211 7.7C6.66211 7.6543 6.65508 7.62266 6.63398 7.60156C6.62546 7.59102 6.61477 7.58243 6.60264 7.57636C6.59051 7.5703 6.57722 7.5669 6.56367 7.56641C6.52852 7.56641 6.50391 7.57695 6.48633 7.59805C6.46523 7.61914 6.45469 7.65078 6.45117 7.69297H6.45469Z" fill="#F7FFFF"/>
</g>
<g id="Group_3">
<path id="Vector_11" d="M6.82031 7.88984L6.82383 7.51367H6.98203C7.02422 7.51367 7.05234 7.5207 7.06992 7.52773C7.0875 7.53477 7.10508 7.54531 7.11211 7.56289C7.11914 7.58047 7.12969 7.59805 7.12969 7.62266C7.12969 7.65078 7.11914 7.67188 7.10508 7.69297C7.0875 7.71055 7.06289 7.72109 7.02773 7.72813C7.04531 7.73516 7.05938 7.7457 7.06992 7.75625L7.11211 7.81953L7.15781 7.88984H7.06641L7.01367 7.80898C7.0008 7.78937 6.98671 7.77059 6.97148 7.75273C6.96561 7.7465 6.9584 7.74169 6.95039 7.73867C6.93908 7.73462 6.92723 7.73226 6.91523 7.73164H6.89766V7.88984H6.82031Z" fill="#309E3A"/>
<path id="Vector_12" d="M6.89746 7.67148H6.95371C6.97706 7.67439 7.00068 7.67439 7.02402 7.67148L7.0416 7.65391C7.04863 7.64687 7.05215 7.63633 7.05215 7.62578C7.05215 7.61172 7.04863 7.60117 7.0416 7.59414C7.03419 7.58627 7.02422 7.58129 7.01348 7.58008H6.90098L6.89746 7.67148Z" fill="white"/>
</g>
<g id="Group_4">
<path id="Vector_13" d="M7.24961 7.53125L7.38672 7.53828C7.41052 7.53865 7.43417 7.5422 7.45703 7.54883C7.47706 7.55638 7.49509 7.56841 7.50977 7.58398C7.52618 7.60344 7.53818 7.62623 7.54492 7.65078C7.55195 7.67539 7.55195 7.70352 7.55195 7.73867C7.553 7.76559 7.5482 7.79242 7.53789 7.8173C7.52757 7.84218 7.51198 7.86454 7.49219 7.88281C7.47812 7.89336 7.46055 7.90391 7.43945 7.91094H7.36914L7.22852 7.90742L7.24961 7.53125Z" fill="#309E3A"/>
<path id="Vector_14" d="M7.32012 7.59766L7.30957 7.84375L7.36582 7.85078H7.41152L7.44316 7.8332C7.45371 7.82617 7.45723 7.81562 7.46426 7.79805L7.47481 7.72773L7.47129 7.66445C7.46426 7.64687 7.46074 7.63633 7.4502 7.6293C7.44083 7.61893 7.42859 7.61159 7.41504 7.6082C7.39537 7.60408 7.37537 7.60173 7.35527 7.60117L7.32012 7.59766Z" fill="white"/>
</g>
<g id="Group_5">
<path id="Vector_15" d="M9.08789 8.20156L9.17578 7.83594L9.2918 7.86406C9.3375 7.87461 9.36562 7.88516 9.37969 7.89219C9.39727 7.90273 9.41484 7.9168 9.42188 7.93789C9.43242 7.9625 9.43242 7.98711 9.42539 8.01523C9.42228 8.03337 9.41447 8.05037 9.40276 8.06456C9.39104 8.07874 9.37581 8.08961 9.35859 8.09609C9.3465 8.10205 9.33337 8.10563 9.31992 8.10664C9.29376 8.10437 9.26787 8.09966 9.24258 8.09258L9.19336 8.08203L9.1582 8.21914L9.08789 8.20156Z" fill="#309E3A"/>
<path id="Vector_16" d="M9.23164 7.91602L9.20703 8.02148L9.24922 8.02852C9.27734 8.03555 9.29844 8.03906 9.30898 8.03555C9.31871 8.03454 9.32792 8.03066 9.33544 8.0244C9.34295 8.01814 9.34843 8.00978 9.35117 8.00039L9.34766 7.96172C9.3416 7.95036 9.3316 7.9416 9.31953 7.93711L9.2668 7.92305L9.23164 7.91602Z" fill="white"/>
</g>
<g id="Group_6">
<path id="Vector_17" d="M9.43555 8.3082L9.55859 7.95312L9.70977 8.00586C9.73718 8.01359 9.76326 8.02545 9.78711 8.04102C9.80117 8.05508 9.81172 8.07266 9.81875 8.09375C9.82578 8.11484 9.81875 8.13242 9.81172 8.15352C9.80469 8.18164 9.78711 8.19922 9.76602 8.20977C9.75391 8.2168 9.74053 8.22136 9.72665 8.22317C9.71276 8.22498 9.69866 8.22401 9.68516 8.22031L9.71328 8.2625L9.73438 8.33281L9.75195 8.41719L9.66758 8.38906L9.64297 8.29414C9.63748 8.27142 9.63043 8.2491 9.62188 8.22734C9.61885 8.21933 9.61404 8.21212 9.60781 8.20625C9.59714 8.19849 9.58526 8.19255 9.57266 8.18867L9.55859 8.18516L9.50586 8.33281L9.43555 8.3082Z" fill="#309E3A"/>
<path id="Vector_18" d="M9.57617 8.12852L9.62891 8.14609L9.6957 8.16367C9.70625 8.16367 9.71328 8.16367 9.72031 8.15664L9.73789 8.13203V8.09687C9.73342 8.08768 9.72599 8.08025 9.7168 8.07578L9.66406 8.0582L9.60781 8.03711L9.57617 8.12852Z" fill="white"/>
</g>
<g id="Group_7">
<path id="Vector_19" d="M9.87526 8.29258C9.88419 8.26041 9.89976 8.23047 9.92096 8.20469C9.93151 8.18711 9.94908 8.17656 9.96666 8.16602C9.98404 8.15644 10.0032 8.15046 10.0229 8.14844C10.0475 8.14844 10.0756 8.14844 10.1038 8.15898C10.1276 8.16495 10.15 8.17586 10.1693 8.19099C10.1887 8.20613 10.2047 8.22517 10.2163 8.24688C10.2374 8.28906 10.2409 8.3418 10.2198 8.39805C10.214 8.42334 10.2032 8.44723 10.1881 8.46835C10.173 8.48946 10.1539 8.50739 10.1319 8.52109C10.1102 8.53189 10.0865 8.53809 10.0623 8.5393C10.0381 8.54051 10.0139 8.53671 9.99127 8.52813C9.96742 8.52216 9.94508 8.51125 9.9257 8.49611C9.90632 8.48098 9.89033 8.46194 9.87877 8.44023C9.85811 8.39342 9.85684 8.34032 9.87526 8.29258Z" fill="#309E3A"/>
<path id="Vector_20" d="M9.94932 8.31441C9.93877 8.35309 9.93877 8.38473 9.94932 8.41285C9.96338 8.44098 9.98447 8.45856 10.0126 8.4691C10.0407 8.47613 10.0653 8.47262 10.0899 8.45856C10.1146 8.44449 10.1356 8.41637 10.1497 8.37418C10.1603 8.33199 10.1603 8.30035 10.1497 8.27223C10.1438 8.25925 10.135 8.24777 10.1241 8.23864C10.1131 8.22951 10.1003 8.22296 10.0864 8.21949C10.073 8.21513 10.0588 8.21382 10.0448 8.21564C10.0308 8.21747 10.0174 8.22238 10.0056 8.23004C9.98096 8.2441 9.96338 8.27223 9.94932 8.31441Z" fill="white"/>
</g>
<g id="Group_8">
<path id="Vector_21" d="M10.6064 8.81641L10.7787 8.48242L10.9193 8.55273C10.9545 8.57383 10.9791 8.58789 10.9896 8.60195C11.0037 8.61953 11.0107 8.63711 11.0143 8.65469C11.0178 8.67227 11.0143 8.69687 11.0002 8.71445C10.9896 8.73906 10.9721 8.75664 10.9475 8.76719C10.9229 8.77422 10.8982 8.77422 10.8666 8.76367C10.8771 8.77773 10.8842 8.79531 10.8877 8.80938L10.8982 8.8832L10.9053 8.97109L10.8244 8.92891L10.8139 8.83047L10.8033 8.76016C10.8003 8.75215 10.7955 8.74493 10.7893 8.73906C10.7799 8.73043 10.7692 8.72332 10.7576 8.71797L10.7436 8.71094L10.6732 8.85156L10.6064 8.81641Z" fill="#309E3A"/>
<path id="Vector_22" d="M10.7715 8.65859L10.8207 8.6832L10.884 8.71133C10.8945 8.71133 10.9016 8.71133 10.9086 8.7043C10.9181 8.69939 10.9258 8.69171 10.9308 8.6823C10.9359 8.67288 10.9379 8.66217 10.9367 8.65156C10.9329 8.64106 10.9254 8.6323 10.9156 8.62695C10.9007 8.61703 10.8855 8.60765 10.8699 8.59883L10.8172 8.57422L10.7715 8.65859Z" fill="white"/>
</g>
<g id="Group_9">
<path id="Vector_23" d="M11.9951 9.50192C12.0162 9.46677 12.0373 9.44567 12.0654 9.43161C12.0826 9.42017 12.1016 9.41184 12.1216 9.407C12.1402 9.4034 12.1593 9.4034 12.1779 9.407C12.2025 9.41052 12.2306 9.42106 12.2552 9.44216C12.276 9.45484 12.2939 9.4717 12.3078 9.49167C12.3218 9.51165 12.3314 9.53429 12.3361 9.55817C12.3412 9.60933 12.3274 9.66058 12.2974 9.70231C12.2841 9.725 12.2663 9.74478 12.2452 9.76048C12.224 9.77618 12.2 9.78748 12.1744 9.79372C12.1506 9.79817 12.1261 9.79766 12.1025 9.79222C12.0789 9.78677 12.0567 9.77651 12.0373 9.76208C12.0165 9.74939 11.9986 9.73253 11.9847 9.71256C11.9707 9.69259 11.9611 9.66995 11.9564 9.64606C11.9525 9.6209 11.9536 9.59522 11.9596 9.57049C11.9656 9.54575 11.9765 9.52245 11.9916 9.50192H11.9951Z" fill="#309E3A"/>
<path id="Vector_24" d="M12.0581 9.54014C12.037 9.5753 12.0264 9.61046 12.03 9.63858C12.0324 9.6528 12.0377 9.66638 12.0455 9.67847C12.0534 9.69057 12.0636 9.70092 12.0757 9.70889C12.0868 9.71663 12.0995 9.72188 12.1128 9.72431C12.1262 9.72673 12.1399 9.72627 12.153 9.72296C12.1811 9.71592 12.2093 9.69483 12.2339 9.65616C12.2585 9.621 12.269 9.58936 12.262 9.56124C12.262 9.53311 12.2444 9.51202 12.2198 9.49092C12.1952 9.46983 12.1671 9.46983 12.1389 9.47686C12.1108 9.48389 12.0862 9.50499 12.0616 9.54014H12.0581Z" fill="white"/>
</g>
<path id="Vector_25" d="M8.66211 8.05039L8.72188 7.7832L8.91875 7.82891L8.9082 7.87461L8.76758 7.83945L8.75352 7.89922L8.88359 7.93086L8.87305 7.97656L8.74297 7.94141L8.72539 8.01523L8.87305 8.05039L8.8625 8.09609L8.66211 8.05039Z" fill="#309E3A"/>
</g>
</g>
<defs>
<clipPath id="clip0_186_6178">
<rect width="18" height="18" fill="white"/>
</clipPath>
</defs>
</svg>
