<svg width="18" height="18" viewBox="0 0 18 18" fill="none" xmlns="http://www.w3.org/2000/svg">
<g id="bt" clip-path="url(#clip0_186_6222)">
<path id="Vector" d="M0 0H18V18H0V0Z" fill="#FFD520"/>
<path id="Vector_2" d="M0 18H18V0L0 18Z" fill="#FF4E12"/>
<g id="Group">
<g id="Group_2">
<path id="Vector_3" d="M9.91007 5.71256C9.76944 5.66334 9.68507 5.73365 9.68858 5.91295C9.6921 6.08873 9.78702 6.19068 9.92413 6.12389L9.91007 5.71256Z" fill="white" stroke="black" stroke-width="0.4"/>
<path id="Vector_4" d="M10.0299 5.38216C9.91739 5.29075 9.8084 5.32942 9.75567 5.49817C9.70294 5.66692 9.75918 5.79349 9.91036 5.77591L10.0299 5.38216Z" fill="white" stroke="black" stroke-width="0.4"/>
<path id="Vector_5" d="M10.2196 5.06257C10.1212 4.9571 10.0087 4.97468 9.93133 5.13288C9.85399 5.29109 9.88563 5.42468 10.0368 5.43171L10.2196 5.06257ZM10.0966 6.61648C9.92782 6.67976 9.91024 6.90827 10.0157 7.0489C10.1212 7.18952 10.3145 7.21765 10.4235 7.0489L10.0966 6.61648Z" fill="white" stroke="black" stroke-width="0.4"/>
<path id="Vector_6" d="M9.89957 6.13116C9.74137 6.07842 9.59723 6.29288 9.57262 6.48272C9.5445 6.72882 9.19997 6.80616 9.38981 7.1753C9.42848 6.93975 9.58317 6.81319 9.70622 6.80264C9.82926 6.79561 10.0156 6.76749 10.0929 6.61632L9.89957 6.13116ZM10.4023 7.07686C10.2195 7.12257 10.1914 7.36866 10.325 7.54444C10.4375 7.69561 10.7925 7.66046 10.782 7.50928L10.4058 7.07686H10.4023ZM10.9297 8.56397C10.9367 8.40577 10.6836 8.34249 10.5605 8.37413C10.4339 8.40577 10.1984 8.37061 10.1422 8.23702C10.1 8.34249 10.1632 8.4585 10.3425 8.51827C10.4761 8.56046 10.4761 8.65889 10.4339 8.70108C10.5394 8.71866 10.8382 8.71866 10.9261 8.56397H10.9297Z" fill="white" stroke="black" stroke-width="0.4"/>
<path id="Vector_7" d="M10.7852 7.54799C10.6023 7.47065 10.4934 7.59018 10.4266 7.70971C10.3211 7.88198 10.0117 7.66049 9.90625 7.88901C10.0469 7.82924 10.1945 7.95932 10.2613 8.00503C10.4582 8.13159 10.8309 8.09292 10.8836 7.79409L10.7852 7.54799Z" fill="white" stroke="black" stroke-width="0.4"/>
<path id="Vector_8" d="M10.891 7.76172C10.7082 7.89531 10.6379 8.06055 10.645 8.16953C10.645 8.28203 10.8032 8.52109 10.9684 8.53867C11.0668 8.33828 11.116 7.91992 10.891 7.76172ZM10.1387 8.6125C10.1387 8.5457 10.2371 8.52109 10.3039 8.54219C10.3672 8.56328 10.4692 8.63008 10.434 8.70039L10.1387 8.6125ZM9.14027 8.25039C9.12269 8.16953 9.25277 8.03242 9.42152 8.10977C9.5973 8.18359 9.61839 8.33125 9.54808 8.3875L9.14027 8.25039Z" fill="white" stroke="black" stroke-width="0.4"/>
<path id="Vector_9" d="M9.56175 8.39453C9.54769 8.35234 9.67074 8.26445 9.88167 8.31719C10.0926 8.36992 10.1453 8.50703 10.1383 8.6125L9.56175 8.39453ZM9.11878 8.25039C9.22777 8.16602 9.18909 8.0043 9.08714 7.95859C8.90784 7.8707 8.97464 7.64219 8.85863 7.59648C8.74261 7.5543 8.63363 7.47344 8.63011 7.39258C8.57034 7.50508 8.6055 7.60352 8.68636 7.67383C8.76722 7.74414 8.62308 8.03242 8.72503 8.10977L9.11878 8.25039ZM6.75277 8.18711C6.66136 8.04297 6.43636 8.07109 6.34847 8.16953C6.25355 8.275 6.26761 8.42266 6.3555 8.48594L6.75277 8.18711ZM7.28011 7.97266C7.24495 7.7793 7.01292 7.75469 6.88636 7.80391C6.75628 7.85312 6.66839 8.05 6.75277 8.19062L7.28011 7.97266Z" fill="white" stroke="black" stroke-width="0.4"/>
<path id="Vector_10" d="M7.63516 7.94453C7.71953 7.78281 7.55781 7.54023 7.37148 7.50508C7.2168 7.47344 7.03398 7.47695 6.97422 7.32227C6.93906 7.45586 7.03398 7.54023 7.15 7.61406C7.26601 7.69141 7.12891 7.88477 7.31523 7.99375L7.63516 7.94453Z" fill="white" stroke="black" stroke-width="0.4"/>
<path id="Vector_11" d="M7.61774 7.95167C7.58258 7.83566 7.65993 7.67745 7.81813 7.688C7.97633 7.70206 8.06422 7.81456 7.99391 7.9587L7.61774 7.95167Z" fill="white" stroke="black" stroke-width="0.4"/>
<path id="Vector_12" d="M7.97339 7.95851C7.94878 7.83897 8.05073 7.69483 8.20542 7.72999C8.3601 7.76163 8.43393 7.88819 8.34604 8.02179L7.97339 7.95851Z" fill="white" stroke="black" stroke-width="0.4"/>
<path id="Vector_13" d="M8.32156 8.01663C8.30749 7.8971 8.41296 7.75648 8.56765 7.79867C8.72234 7.83734 8.78914 7.96742 8.6907 8.09749L8.32156 8.01663ZM5.66023 10.0416C5.36492 10.0416 5.29109 10.1119 5.2489 10.4143C5.19617 10.794 5.71296 10.8362 5.66023 10.0416Z" fill="white" stroke="black" stroke-width="0.4"/>
<path id="Vector_14" d="M5.78984 9.64302C5.33633 9.46724 5.08672 10.1879 4.64023 10.0614C4.80195 10.318 5.19219 10.0614 5.33633 10.086C5.58242 10.1317 6.1168 10.0403 5.79336 9.64302H5.78984ZM5.49453 10.6274C5.26953 10.5219 5.02695 10.8665 5.07266 11.0176C5.12891 11.211 5.64219 11.0528 5.49453 10.6274ZM4.44336 12.1075C4.56992 12.1426 4.71758 12.2129 4.68945 12.452C4.66484 12.6911 4.21484 13.1762 3.81055 13.2043C3.40273 13.229 3.25859 13.7211 2.90703 13.584C3.23398 13.5208 3.23398 13.1516 3.49063 13.0356C3.3043 12.9688 3.20937 13.3872 2.97031 13.3872C2.73125 13.3872 2.61875 13.7704 2.32695 13.7422C2.03516 13.7176 2.00352 14.2028 1.41992 14.2098C0.976953 14.2133 0.425 14.7372 0.224609 14.5122C0.657031 14.4489 0.832813 14.2098 1.08945 13.9461C1.5043 13.5243 1.97187 13.7106 2.13359 13.3379C1.94765 13.4622 1.72788 13.526 1.5043 13.5208C1.23359 13.5172 0.934766 13.9532 0.632422 13.7598C0.808203 13.7387 0.924219 13.6614 1.10703 13.468C1.29688 13.2711 1.57461 13.3977 1.79609 13.1938C2.14062 12.8774 2.43594 13.1411 2.76641 12.7438C2.675 12.7016 2.47461 12.7333 2.2918 12.8282C2.10547 12.9266 1.86992 12.7614 1.65547 12.8774C1.68008 12.6172 2.17578 12.7649 2.48516 12.5856C2.83672 12.3817 3.12148 12.445 3.39922 12.4661C3.0125 12.4661 2.86484 12.1004 2.33398 12.2059C2.10547 12.2516 1.91914 11.8895 1.69062 12.0723C1.69766 11.9352 1.93672 11.8262 2.18281 11.9598C2.42891 12.0899 2.53437 11.8438 3.02656 12.1532C3.22695 12.2797 3.575 12.0723 3.79648 12.2094C3.76836 12.1251 3.6418 12.0723 3.49414 12.0864C3.58555 11.8965 4.1832 11.9211 4.44336 12.111V12.1075Z" fill="white" stroke="black" stroke-width="0.4"/>
<path id="Vector_15" d="M4.83731 11.8236C4.64395 11.6724 4.37324 11.8553 4.19043 11.7814C4.19043 11.908 4.2502 12.0908 4.4541 12.1611C4.58883 12.0555 4.71792 11.9428 4.84082 11.8236H4.83731Z" fill="white" stroke="black" stroke-width="0.4"/>
<path id="Vector_16" d="M5.14258 11.3946C4.83672 11.2399 4.78398 11.6231 4.54492 11.5458C4.55547 11.6547 4.64336 11.7918 4.83672 11.8235L5.14258 11.3946Z" fill="white" stroke="black" stroke-width="0.4"/>
<path id="Vector_17" d="M5.32227 11.0471C4.87227 10.8713 4.81602 11.3037 4.54883 11.2194C4.61211 11.367 4.9918 11.4479 5.18516 11.3951L5.32578 11.0436L5.32227 11.0471ZM5.94102 9.15218C5.82148 8.98343 5.57188 9.12054 5.52969 9.32093C5.49102 9.5178 5.58945 9.79554 5.75469 9.73577L5.94102 9.15218Z" fill="white" stroke="black" stroke-width="0.4"/>
<path id="Vector_18" d="M6.24689 8.61982C6.03595 8.57412 5.8004 8.59521 5.82501 8.7956C5.74767 8.83076 5.72306 9.09443 5.94103 9.15068L6.24689 8.62334V8.61982Z" fill="white" stroke="black" stroke-width="0.4"/>
<path id="Vector_19" d="M6.38398 8.48328C6.18008 8.24774 5.95156 8.25125 5.825 8.35321C5.59297 8.53953 5.36797 8.43055 5.35742 8.61688C5.49805 8.51141 5.62461 8.63797 5.73711 8.5993C5.85313 8.56063 5.9375 8.78211 6.25391 8.68719L6.38398 8.48328ZM5.8918 12.0481C5.92344 12.1044 6.11328 12.1325 6.2082 12.0341C6.32773 11.904 6.19414 11.5489 5.99727 11.5208C5.80391 11.4962 5.78633 11.9251 5.8918 12.0481Z" fill="white" stroke="black" stroke-width="0.4"/>
<path id="Vector_20" d="M5.66992 12.059C5.95117 12.1574 6.06719 11.9289 5.91602 11.7812C5.8401 11.878 5.75789 11.9696 5.66992 12.0555V12.059Z" fill="white" stroke="black" stroke-width="0.4"/>
<g id="Vector_21">
<path d="M4.6293 12.4355C4.57656 12.5973 4.30234 12.6219 3.99648 13.1176C3.68359 13.6098 3.38828 13.4023 3.31445 13.7434C3.68359 13.4445 3.97539 13.6414 4.19687 13.3461C4.53437 12.8961 4.80859 12.9594 4.93867 12.657C5.125 12.2246 5.93711 12.2352 5.9793 11.5531C5.70859 11.5004 4.84023 12.2352 4.6293 12.4355ZM11.6008 5.76641C11.9523 5.88242 11.9629 6.33945 12.3672 6.49063C12.775 6.63828 12.8137 7.00039 13.1441 6.9125C12.8348 6.82813 12.8559 6.47305 12.5359 6.38516C12.1562 6.27969 12.0156 5.70312 11.7133 5.61523M13.218 8.16406C13.2813 8.30469 13.2707 8.5543 13.0527 8.62109C13.1723 8.69844 13.348 8.62461 13.443 8.46289C13.2988 8.78633 13.3973 9.07813 13.6258 9.13086C13.5168 8.90938 13.7629 8.80391 13.682 8.65625C13.8297 8.71953 13.9562 8.91641 13.9527 9.04297C14.1426 8.83203 13.8121 8.54727 13.8719 8.34687L13.218 8.16406ZM10.9328 10.4316C10.7148 10.2418 10.6234 10.4809 10.518 10.3965C10.4195 10.3227 10.2859 10.3121 10.2367 10.3895C10.4195 10.393 10.3316 10.5371 10.6902 10.5723C10.3316 10.5969 10.3949 10.9977 10.1559 10.9801C10.4125 11.2227 10.5426 10.7621 10.7535 10.8395C10.6902 10.857 10.8484 11.0012 10.7395 11.1945C10.9152 11.191 10.9891 10.9449 11.0137 10.8148L10.9328 10.4316ZM6.16914 12.4918C6.08828 12.4285 5.85977 12.3969 5.77187 12.4496C5.68398 12.5023 5.71563 12.5164 5.82109 12.5234C5.92656 12.534 6.06367 12.7027 5.83516 12.7133C5.72969 12.7168 5.76484 12.9734 5.54336 12.9945C5.63125 13.1 5.89141 13.0297 5.98281 12.9066C5.96523 13.0086 6.09883 13.0965 6.04609 13.216C6.20781 13.2336 6.11641 12.8855 6.37305 12.9031C6.26758 12.9172 6.30977 13.1562 6.49609 13.093C6.38711 13.1457 6.44336 13.2758 6.56641 13.2441C6.48906 13.2688 6.46094 13.3707 6.56992 13.4305C6.67539 13.2828 6.55937 12.7625 6.16914 12.4918ZM15.7844 7.61914C15.9466 7.61914 16.1022 7.55469 16.2169 7.43997C16.3316 7.32525 16.3961 7.16966 16.3961 7.00742C16.3961 6.84518 16.3316 6.68959 16.2169 6.57487C16.1022 6.46015 15.9466 6.3957 15.7844 6.3957C15.6221 6.3957 15.4665 6.46015 15.3518 6.57487C15.2371 6.68959 15.1727 6.84518 15.1727 7.00742C15.1727 7.16966 15.2371 7.32525 15.3518 7.43997C15.4665 7.55469 15.6221 7.61914 15.7844 7.61914Z" fill="white"/>
<path d="M11.6008 5.76641C11.9523 5.88242 11.9629 6.33945 12.3672 6.49063C12.775 6.63828 12.8137 7.00039 13.1441 6.9125C12.8348 6.82813 12.8559 6.47305 12.5359 6.38516C12.1562 6.27969 12.0156 5.70312 11.7133 5.61523M4.6293 12.4355C4.57656 12.5973 4.30234 12.6219 3.99648 13.1176C3.68359 13.6098 3.38828 13.4023 3.31445 13.7434C3.68359 13.4445 3.97539 13.6414 4.19687 13.3461C4.53437 12.8961 4.80859 12.9594 4.93867 12.657C5.125 12.2246 5.93711 12.2352 5.9793 11.5531C5.70859 11.5004 4.84023 12.2352 4.6293 12.4355ZM13.218 8.16406C13.2813 8.30469 13.2707 8.5543 13.0527 8.62109C13.1723 8.69844 13.348 8.62461 13.443 8.46289C13.2988 8.78633 13.3973 9.07813 13.6258 9.13086C13.5168 8.90938 13.7629 8.80391 13.682 8.65625C13.8297 8.71953 13.9562 8.91641 13.9527 9.04297C14.1426 8.83203 13.8121 8.54727 13.8719 8.34687L13.218 8.16406ZM10.9328 10.4316C10.7148 10.2418 10.6234 10.4809 10.518 10.3965C10.4195 10.3227 10.2859 10.3121 10.2367 10.3895C10.4195 10.393 10.3316 10.5371 10.6902 10.5723C10.3316 10.5969 10.3949 10.9977 10.1559 10.9801C10.4125 11.2227 10.5426 10.7621 10.7535 10.8395C10.6902 10.857 10.8484 11.0012 10.7395 11.1945C10.9152 11.191 10.9891 10.9449 11.0137 10.8148L10.9328 10.4316ZM6.16914 12.4918C6.08828 12.4285 5.85977 12.3969 5.77187 12.4496C5.68398 12.5023 5.71563 12.5164 5.82109 12.5234C5.92656 12.534 6.06367 12.7027 5.83516 12.7133C5.72969 12.7168 5.76484 12.9734 5.54336 12.9945C5.63125 13.1 5.89141 13.0297 5.98281 12.9066C5.96523 13.0086 6.09883 13.0965 6.04609 13.216C6.20781 13.2336 6.11641 12.8855 6.37305 12.9031C6.26758 12.9172 6.30977 13.1562 6.49609 13.093C6.38711 13.1457 6.44336 13.2758 6.56641 13.2441C6.48906 13.2688 6.46094 13.3707 6.56992 13.4305C6.67539 13.2828 6.55937 12.7625 6.16914 12.4918ZM15.7844 7.61914C15.9466 7.61914 16.1022 7.55469 16.2169 7.43997C16.3316 7.32525 16.3961 7.16966 16.3961 7.00742C16.3961 6.84518 16.3316 6.68959 16.2169 6.57487C16.1022 6.46015 15.9466 6.3957 15.7844 6.3957C15.6221 6.3957 15.4665 6.46015 15.3518 6.57487C15.2371 6.68959 15.1727 6.84518 15.1727 7.00742C15.1727 7.16966 15.2371 7.32525 15.3518 7.43997C15.4665 7.55469 15.6221 7.61914 15.7844 7.61914Z" stroke="black" stroke-width="0.4"/>
</g>
<path id="Vector_22" d="M12.5857 8.35625C12.7721 8.18047 13.0533 8.09258 13.2467 8.22617C13.44 8.35625 14.0869 8.51445 14.4068 8.29648C14.7232 8.075 14.8709 7.95898 15.0115 7.98711C15.117 8.14531 15.2471 8.21914 15.4053 8.2332C15.4545 8.28594 15.6268 8.33164 15.7217 8.31758C15.8623 8.35273 16.0381 8.30703 16.1752 8.15938C16.3861 8.1875 16.583 8.0293 16.6604 7.79023C16.8854 7.76563 16.8994 7.5125 16.7553 7.34727C16.6252 7.31914 16.7271 6.87266 16.2455 6.96055C16.4459 7.08359 16.2912 7.3332 16.46 7.4457C16.3475 7.4457 16.1998 7.49492 16.1646 7.66719C16.2068 7.54766 16.1576 7.47031 16.126 7.44219C16.1295 7.34023 15.9045 7.09063 15.6936 7.18203C15.8447 7.21719 15.7604 7.46328 15.8693 7.55469C15.8281 7.55679 15.7878 7.56797 15.7513 7.58741C15.7149 7.60685 15.6831 7.63409 15.6584 7.66719C15.5986 7.56523 15.3982 7.45977 15.2717 7.45273C15.2717 7.41758 15.2682 7.34727 15.2506 7.31211C15.1828 7.19273 15.1556 7.05452 15.1732 6.91836C15.0678 7.03086 14.9764 7.19258 14.9271 7.30508C14.7584 7.19258 14.3436 7.35781 14.1467 7.40352C13.9533 7.44922 13.3029 7.34023 13.1518 7.18203C12.9426 7.01533 12.6968 6.90084 12.4346 6.84805C12.0584 6.73906 12.0549 6.32773 11.64 6.04297C11.633 6.55625 12.41 8.18047 12.5857 8.35625ZM8.26152 12.2586C8.41817 12.2586 8.56839 12.1964 8.67916 12.0856C8.78992 11.9748 8.85215 11.8246 8.85215 11.668C8.85215 11.5113 8.78992 11.3611 8.67916 11.2503C8.56839 11.1396 8.41817 11.0773 8.26152 11.0773C8.10488 11.0773 7.95465 11.1396 7.84389 11.2503C7.73312 11.3611 7.6709 11.5113 7.6709 11.668C7.6709 11.8246 7.73312 11.9748 7.84389 12.0856C7.95465 12.1964 8.10488 12.2586 8.26152 12.2586Z" fill="white" stroke="black" stroke-width="0.4"/>
<g id="Vector_23">
<path d="M6.84453 11.8059C6.96406 11.9606 7.16797 11.95 7.25234 11.936C7.32266 12.1223 7.54766 12.1188 7.64609 12.2172C7.74102 12.3227 8.075 12.3121 8.17344 12.2524C8.08203 12.2453 7.96602 12.1926 7.85703 12.1012C7.72344 11.9887 7.78672 11.7672 7.68125 11.6864C7.75859 11.5985 7.77266 11.4508 7.75508 11.3946C7.83945 11.3453 7.90273 11.268 7.90977 11.2258C8.03175 11.2182 8.14732 11.1685 8.23672 11.0852C8.31055 11.1555 8.50039 11.0641 8.60234 11.1836C8.62695 10.8918 8.3457 10.7371 8.16289 10.8321C8.08555 10.7969 7.88867 10.8215 7.85352 10.8742C7.79023 10.8461 7.61797 10.934 7.53711 10.9938C7.62852 10.9446 7.64258 10.8004 7.60742 10.7477C7.67773 10.7125 7.76563 10.6141 7.77266 10.5367C7.87813 10.5543 8.03633 10.484 8.11016 10.5016C7.99414 10.3539 7.8043 10.3012 7.61094 10.3117C7.40703 10.3258 7.32266 10.4664 7.29453 10.6176C7.17852 10.6879 7.13633 10.927 7.18203 11.0114C7.11172 11.0114 7.04844 11.0746 7.02383 11.1133C6.92229 11.0708 6.81391 11.047 6.70391 11.043M6.74609 10.8039C6.70391 10.6879 6.75664 10.586 6.78125 10.4946C6.85156 10.2625 6.80938 10.2028 6.60547 10.2344C6.61723 10.4312 6.66489 10.6242 6.74609 10.8039Z" fill="white"/>
<path d="M6.84453 11.8059C6.96406 11.9606 7.16797 11.95 7.25234 11.936C7.32266 12.1223 7.54766 12.1188 7.64609 12.2172C7.74102 12.3227 8.075 12.3121 8.17344 12.2524C8.08203 12.2453 7.96602 12.1926 7.85703 12.1012C7.72344 11.9887 7.78672 11.7672 7.68125 11.6864C7.75859 11.5985 7.77266 11.4508 7.75508 11.3946C7.83945 11.3453 7.90273 11.268 7.90977 11.2258C8.03175 11.2182 8.14732 11.1685 8.23672 11.0852C8.31055 11.1555 8.50039 11.0641 8.60234 11.1836C8.62695 10.8918 8.3457 10.7371 8.16289 10.8321C8.08555 10.7969 7.88867 10.8215 7.85352 10.8742C7.79023 10.8461 7.61797 10.934 7.53711 10.9938C7.62852 10.9446 7.64258 10.8004 7.60742 10.7477C7.67773 10.7125 7.76563 10.6141 7.77266 10.5367C7.87813 10.5543 8.03633 10.484 8.11016 10.5016C7.99414 10.3539 7.8043 10.3012 7.61094 10.3117C7.40703 10.3258 7.32266 10.4664 7.29453 10.6176C7.17852 10.6879 7.13633 10.927 7.18203 11.0114C7.11172 11.0114 7.04844 11.0746 7.02383 11.1133C6.92229 11.0708 6.81391 11.047 6.70391 11.043M6.74609 10.8039C6.70391 10.6879 6.75664 10.586 6.78125 10.4946C6.85156 10.2625 6.80938 10.2028 6.60547 10.2344C6.61723 10.4312 6.66489 10.6242 6.74609 10.8039Z" stroke="black" stroke-width="0.4"/>
</g>
<path id="Vector_24" d="M6.5918 10.2449C6.64453 10.3012 6.83437 10.3258 6.85195 10.157C6.87656 9.96369 6.79922 9.88986 6.63047 9.96369C6.61641 10.0094 6.60234 10.1887 6.59531 10.2449H6.5918Z" fill="white" stroke="black" stroke-width="0.4"/>
<path id="Vector_25" d="M6.6334 9.95659C6.70371 9.98471 6.85488 10.0445 6.93926 9.87924C7.00957 9.74213 6.91816 9.63666 6.77051 9.64721C6.73535 9.68588 6.66504 9.82651 6.62988 9.95659H6.6334Z" fill="white" stroke="black" stroke-width="0.4"/>
<path id="Vector_26" d="M6.76367 9.63242C6.78125 9.68516 6.96055 9.86094 7.09414 9.73438C7.22422 9.60781 7.22422 9.41797 7.02734 9.34766C6.97461 9.35469 6.81641 9.54102 6.76367 9.63242Z" fill="white" stroke="black" stroke-width="0.4"/>
<path id="Vector_27" d="M7.02695 9.34492C7.06562 9.45742 7.18867 9.64726 7.4207 9.55586C7.64922 9.47148 7.55078 9.1832 7.44531 9.12695C7.38555 9.12695 7.13242 9.24297 7.02344 9.34492H7.02695Z" fill="white" stroke="black" stroke-width="0.4"/>
<path id="Vector_28" d="M7.44607 9.12734C7.42849 9.22227 7.44607 9.48945 7.76247 9.48242C8.07185 9.48242 7.98396 9.11328 7.9031 9.06055C7.77653 9.06055 7.56208 9.06406 7.44607 9.12734Z" fill="white" stroke="black" stroke-width="0.4"/>
<path id="Vector_29" d="M7.9206 9.07031C7.88544 9.14766 7.80458 9.63984 8.4163 9.50625C8.49716 9.48867 8.70458 9.03164 7.91708 9.07383L7.9206 9.07031Z" fill="white" stroke="black" stroke-width="0.4"/>
<path id="Vector_30" d="M8.25448 9.11665C8.1912 9.17993 8.35292 9.67915 8.76776 9.59478C9.18261 9.5104 8.83456 9.03579 8.25448 9.11665Z" fill="white" stroke="black" stroke-width="0.4"/>
<path id="Vector_31" d="M8.6059 9.18945C8.54262 9.33008 8.64105 9.73438 9.15082 9.73438C9.6184 9.73438 9.12973 9.2 8.60941 9.18945H8.6059Z" fill="white" stroke="black" stroke-width="0.4"/>
<path id="Vector_32" d="M9.01019 9.30943C8.97503 9.38677 8.93636 9.81568 9.53753 9.85435C9.97699 9.87896 9.87152 9.26021 9.01019 9.30943Z" fill="white" stroke="black" stroke-width="0.4"/>
<path id="Vector_33" d="M9.65679 9.49219C9.58296 9.62578 9.5021 9.95625 10.1666 9.98438C10.5884 9.99844 10.3283 9.49922 9.65679 9.49219Z" fill="white" stroke="black" stroke-width="0.4"/>
<path id="Vector_34" d="M10.2086 9.59375C10.1137 9.72383 10.184 9.98398 10.4301 10.0332C10.7395 10.0965 10.7817 9.80469 10.5707 9.66406C10.3598 9.52344 10.2086 9.59375 10.2086 9.59375Z" fill="white" stroke="black" stroke-width="0.4"/>
<path id="Vector_35" d="M10.5113 9.6543C10.441 9.77734 10.4832 10.0762 10.9508 10.0762C11.0492 10.0762 11.4184 9.7 10.5113 9.6543ZM6.88672 15.4129C7.069 15.4129 7.24382 15.3405 7.37272 15.2116C7.50161 15.0827 7.57402 14.9079 7.57402 14.7256C7.57402 14.5433 7.50161 14.3685 7.37272 14.2396C7.24382 14.1107 7.069 14.0383 6.88672 14.0383C6.7049 14.0383 6.53053 14.1105 6.40196 14.2391C6.2734 14.3676 6.20117 14.542 6.20117 14.7238C6.20117 14.9056 6.2734 15.08 6.40196 15.2086C6.53053 15.3371 6.7049 15.4094 6.88672 15.4094V15.4129Z" fill="white" stroke="black" stroke-width="0.4"/>
<path id="Vector_36" d="M11.921 5.42424C11.8683 5.47697 11.7593 5.63518 11.7382 5.69846C11.5062 6.38752 12.1214 6.90432 12.4765 7.6426C12.6245 7.97719 12.6844 8.34409 12.6506 8.70838C12.6167 9.07267 12.4902 9.42224 12.2831 9.72385C12.132 9.92424 12.1777 9.98049 11.9843 10.1844C11.9105 10.2617 11.8261 10.3602 11.8507 10.6414C11.9773 10.5992 12.1531 10.7117 12.1882 10.8102C12.2761 10.768 12.3992 10.7856 12.4449 10.8383C12.5925 10.768 12.7191 10.8031 12.8492 10.9438C12.9652 10.9262 13.0882 10.9438 13.2007 11.0668C13.264 10.9438 13.3871 10.8981 13.4749 10.9262C13.4679 10.768 13.6261 10.652 13.7667 10.7153C13.7553 10.6698 13.7563 10.622 13.7698 10.577C13.7832 10.5321 13.8086 10.4916 13.8432 10.4599C13.8778 10.4282 13.9203 10.4064 13.9663 10.3969C14.0122 10.3874 14.0599 10.3905 14.1042 10.4059C14.2624 10.2828 14.5788 10.2723 14.7371 10.4586C14.4558 10.3778 14.4663 10.6801 14.2273 10.652C14.2906 10.8278 14.1288 10.9332 13.9706 10.986C14.0726 10.9403 14.1816 10.8805 14.2167 10.9438C14.3046 10.8664 14.4839 10.8946 14.5261 10.9332C14.6456 10.8981 14.7581 10.9262 14.8074 11.0668C14.9691 11.1653 15.0746 11.4113 14.9585 11.5942C14.9234 11.4008 14.7933 11.4113 14.7406 11.3305C14.614 11.3762 14.4945 11.3762 14.4593 11.2953C14.389 11.3656 14.1464 11.4289 14.041 11.3235C14.0023 11.4817 13.8652 11.6153 13.707 11.6153C13.7492 11.7383 13.6261 11.9492 13.5312 12.0547C13.6788 12.1356 13.6367 12.3113 13.6015 12.4168C13.83 12.452 13.6367 12.6559 14.0339 12.7895C13.8371 12.8492 13.4574 12.7895 13.4046 12.5504C13.2113 12.5399 13.0777 12.3465 13.0882 12.1426C12.9371 12.002 12.9124 11.8016 13.1234 11.6574C12.9476 11.7102 12.8492 11.4289 12.596 11.5449C12.466 11.6012 12.132 11.5028 12.1355 11.3867C12.0828 11.4746 11.7593 11.4395 11.7136 11.2883C11.6081 11.3446 11.3621 11.2496 11.3656 11.102C11.2285 11.1653 11.0456 11.0528 11.0527 10.9121C10.9261 10.8946 10.9121 10.7821 10.9191 10.6836C10.8066 10.6309 10.8382 10.5184 10.8839 10.3883C10.8031 10.3004 10.8382 10.1774 10.898 10.0613C10.8101 9.97346 10.8277 9.86799 10.8558 9.74494C10.4304 9.70979 9.89955 9.60432 8.68314 9.23166C6.84799 8.66916 6.35229 9.99104 6.75658 10.8207C7.22768 11.777 6.70385 11.9844 6.86205 12.7016C7.0308 12.7367 7.11869 12.8774 7.10814 13.0285C7.2101 13.0285 7.28393 13.1235 7.24877 13.2992C7.29543 13.2917 7.34321 13.2951 7.38835 13.3091C7.43349 13.3231 7.47476 13.3474 7.50893 13.3801C7.56869 13.2641 7.7726 13.2395 7.87807 13.3731C8.1101 13.3555 8.2226 13.5383 8.21557 13.7703C8.27039 13.8742 8.29454 13.9914 8.2852 14.1085C8.27586 14.2255 8.23342 14.3375 8.16283 14.4313C8.17338 14.3399 8.16283 14.2063 8.1558 14.1254C8.14877 13.9813 7.94486 13.9496 7.96596 13.8301C7.86049 13.8406 7.75854 13.7809 7.72338 13.7035C7.69272 13.7294 7.65588 13.7469 7.61644 13.7543C7.57701 13.7617 7.53633 13.7587 7.49838 13.7457C7.61791 13.7985 7.70932 14.0129 7.67416 14.1535C7.73744 14.259 7.72338 14.4524 7.64955 14.5403C7.61439 14.709 7.4808 14.7723 7.30853 14.6949C7.35136 14.6662 7.3859 14.6267 7.40872 14.5804C7.43154 14.5342 7.44185 14.4828 7.43861 14.4313C7.38083 14.3727 7.34591 14.2954 7.34018 14.2133C7.16791 14.2414 6.92885 14.0938 6.88314 14.0375C6.79312 14.038 6.70406 14.0562 6.62106 14.091C6.53807 14.1259 6.46275 14.1768 6.39942 14.2408C6.33608 14.3048 6.28597 14.3806 6.25195 14.464C6.21792 14.5473 6.20065 14.6366 6.20111 14.7266C6.18353 14.586 6.00424 14.4453 6.02533 14.3258C5.91986 13.9988 6.07104 13.693 6.50346 13.6332C6.45072 13.5102 6.63354 13.3801 6.56322 13.2395C6.42585 12.9892 6.25689 12.7576 6.06049 12.5504C6.21166 12.2938 6.16596 11.9528 6.07807 11.7383C5.9515 11.4324 5.83197 11.5098 5.38197 12.002C4.64369 12.8106 3.66635 12.5856 2.8015 13.1164C2.57299 13.2571 2.34447 13.3098 2.59057 13.0637C2.83666 12.8176 3.49057 12.5715 3.91596 12.3571C4.71049 11.9598 5.38197 11.2953 5.64564 10.0086C6.26791 6.97815 8.5601 7.97658 10.005 8.5426C11.3656 9.06994 11.1195 7.87111 10.4304 7.1469C9.60424 6.27854 9.76947 5.59299 10.1562 5.04455C10.8558 4.94963 12.1917 5.19221 11.921 5.42424Z" fill="white" stroke="black" stroke-width="0.4"/>
<path id="Vector_37" d="M14.3789 12.8672C14.4782 12.8672 14.5765 12.8476 14.6682 12.8097C14.7599 12.7717 14.8432 12.716 14.9134 12.6458C14.9836 12.5756 15.0392 12.4923 15.0772 12.4006C15.1152 12.3089 15.1348 12.2106 15.1348 12.1113C15.1348 12.0121 15.1152 11.9138 15.0772 11.8221C15.0392 11.7304 14.9836 11.647 14.9134 11.5769C14.8432 11.5067 14.7599 11.451 14.6682 11.413C14.5765 11.375 14.4782 11.3555 14.3789 11.3555C14.1784 11.3555 13.9862 11.4351 13.8444 11.5769C13.7027 11.7186 13.623 11.9109 13.623 12.1113C13.623 12.3118 13.7027 12.5041 13.8444 12.6458C13.9862 12.7876 14.1784 12.8672 14.3789 12.8672Z" fill="white" stroke="black" stroke-width="0.4"/>
</g>
<g id="Group_3">
<path id="Vector_38" d="M11.4995 5.45898C11.3308 6.20078 11.4714 6.53828 11.721 6.86523C12.2308 7.54023 12.6351 9.08008 12.055 10.0855" stroke="black" stroke-width="0.4"/>
<g id="Group_4">
<path id="Vector_39" d="M12.3818 9.21797C12.4521 9.18984 12.5857 9.10898 12.6174 8.96133M12.4346 8.89453C12.4557 8.76797 12.6561 8.71172 12.6596 8.57812M12.4381 8.39531C12.4275 8.26523 12.6385 8.1457 12.6068 8.01211M12.3256 7.9207C12.308 7.84688 12.5014 7.70273 12.4486 7.5832M12.1779 7.45664C12.1393 7.37227 12.2729 7.27734 12.2131 7.18594M11.967 7.08398C11.9529 7.02773 12.0373 6.90117 11.9916 6.82734M11.7561 6.65156C11.7736 6.62695 11.8439 6.57422 11.8158 6.50742M11.6084 6.33164C11.64 6.31406 11.7244 6.28594 11.7139 6.22266" stroke="black" stroke-width="0.4" stroke-linecap="round"/>
<path id="Vector_40" d="M7.18945 14.6531C7.01367 14.5898 6.79219 14.6777 6.75 14.8289M6.88008 14.966C6.90469 14.8148 7.1332 14.748 7.20352 14.8184C7.05937 14.741 6.98906 15.0223 7.11562 15.0293M8.30391 11.475C8.19844 11.5277 8.16328 11.7211 8.30391 11.8652M8.46211 11.5172C8.38828 11.5805 8.3918 11.7633 8.50078 11.809C8.40938 11.7422 8.50078 11.6297 8.57109 11.6227C8.63438 11.6227 8.67656 11.7 8.59922 11.7773M14.6637 11.9531C14.4176 11.8898 14.2172 12.1746 14.4422 12.4313C14.4422 12.1852 14.618 12.0199 14.8289 12.0656M14.734 12.2344C14.7214 12.2339 14.7088 12.236 14.6971 12.2406C14.6853 12.2452 14.6747 12.2522 14.6658 12.2611C14.6568 12.27 14.6499 12.2807 14.6453 12.2924C14.6407 12.3041 14.6386 12.3167 14.6391 12.3293C14.6391 12.3785 14.6813 12.4242 14.748 12.4242C14.7937 12.4242 14.8289 12.375 14.8289 12.3328M15.6023 6.81328C15.6445 6.96797 15.8484 7.02773 16.0137 6.99258M16.0137 6.89414C15.8871 6.90117 15.7816 6.78164 15.7887 6.67969C15.7887 6.75352 15.9645 6.78867 16.0137 6.73945" stroke="black" stroke-width="0.4" stroke-linecap="round" stroke-linejoin="round"/>
<path id="Vector_41" d="M7.25293 11.9355C7.21777 11.8477 7.3584 11.7598 7.36191 11.6754C7.36894 11.591 7.52363 11.5277 7.67832 11.6859M7.60801 10.7438C7.57285 10.7578 7.54824 10.7789 7.52363 10.7859M7.91035 11.2254C7.8752 11.2254 7.79434 11.2254 7.75215 11.1937M7.75566 11.3941C7.72402 11.4082 7.65723 11.4363 7.61504 11.4434M6.24395 14.059C6.23691 14.1398 6.31426 14.2559 6.35996 14.291M6.58496 13.8691C6.54277 13.9395 6.51465 14.052 6.54277 14.1293M7.2459 14.1363C7.16504 14.0836 7.21777 13.9465 7.21074 13.8551C7.2002 13.7672 7.30215 13.6266 7.49902 13.7496M6.50059 13.6336C6.58144 13.6195 6.66582 13.623 6.71855 13.6441M7.50957 13.3805C7.48155 13.4211 7.46459 13.4684 7.46035 13.5176M7.88223 13.3699C7.81895 13.3699 7.76621 13.4156 7.73809 13.4613M7.02441 11.1094C7.09473 11.134 7.27754 11.2465 7.28457 11.3625M7.77324 10.5328C7.55527 10.5328 7.47441 10.3078 7.63613 10.3078M8.16348 10.8281C8.0791 10.8633 8.11777 11.0109 8.23379 11.0813M7.64668 12.2168C7.60449 12.1641 7.65723 12.0059 7.79434 12.0551M7.97012 13.827C7.97715 13.6934 8.1459 13.616 8.21621 13.7637M7.34082 14.2102C7.33027 14.0625 7.4041 14.0133 7.4709 14.0062C7.5377 13.9957 7.63262 14.052 7.6748 14.1469M6.02246 14.3227C6.03301 14.2348 6.11035 14.1398 6.1877 14.1539M14.1049 10.4062C14.0451 10.4484 14.01 10.6348 14.2279 10.6523M13.7709 10.7156C13.7709 10.7367 13.7955 10.7684 13.8131 10.7789M14.808 11.0672C14.7518 11.0215 14.6041 11.2008 14.7377 11.3309M13.4053 12.5508C13.3701 12.4242 13.4896 12.3926 13.5986 12.4172M13.124 11.6578C13.1908 11.6156 13.2576 11.5664 13.3385 11.5453M13.0889 12.143C13.0889 12.0375 13.1416 11.9496 13.1908 11.925M13.4756 10.9266C13.4737 11.0378 13.5029 11.1474 13.56 11.243M14.5268 10.9336C14.4635 10.9547 14.4072 10.9793 14.3826 11.032M14.4564 11.2957C14.4881 11.2711 14.5232 11.2395 14.5373 11.2184M16.1264 7.44258C16.1264 7.56562 15.9717 7.63242 15.8697 7.55508M16.4604 7.44961C16.5307 7.49883 16.7662 7.44961 16.71 7.3125M16.1721 8.15625C16.1079 8.13802 16.0504 8.10135 16.0068 8.05078M16.6607 7.79063C16.6019 7.80575 16.5396 7.79952 16.485 7.77305M15.4057 8.23359C15.4514 8.23359 15.5568 8.21602 15.6271 8.17734M15.2756 7.45312C15.2295 7.44457 15.182 7.45333 15.142 7.47773M16.1615 7.66758C16.1453 7.73661 16.1085 7.79912 16.0561 7.84687" stroke="black" stroke-width="0.4" stroke-linecap="round"/>
<path id="Vector_42" d="M15.124 7.86523C15.233 7.81602 15.3701 8.19219 15.6338 8.05859M15.6584 7.67188C15.6232 7.71758 15.5986 7.79141 15.5951 7.8582" stroke="black" stroke-width="0.4" stroke-linecap="round" stroke-linejoin="round"/>
</g>
<path id="Vector_43" d="M10.3781 7.09453C10.4133 7.09102 10.4766 7.07695 10.4871 7.03125M5.83594 11.2078C5.96953 11.2816 6.06094 11.4117 6.00469 11.6016M11.9039 6.69375C11.9461 6.71836 12.0937 6.71836 12.1781 6.68672M12.2836 6.78164C12.2836 6.84141 12.2977 7.07695 12.1781 7.12617M12.2238 7.09102C12.3328 7.12617 12.5543 7.11562 12.6246 6.91523M12.4699 7.08398C12.4888 7.11292 12.5013 7.14557 12.5066 7.17974C12.5119 7.21391 12.5098 7.24881 12.5005 7.2821C12.4911 7.31539 12.4748 7.3463 12.4526 7.37277C12.4303 7.39923 12.4027 7.42064 12.3715 7.43555M12.5121 7.23164C12.6422 7.27383 12.9375 7.27734 12.9059 7.02773M12.8074 7.23164C12.8953 7.35469 13.282 7.49883 13.2223 7.24219M12.4488 7.58672C12.6 7.62188 12.8109 7.51992 12.723 7.25625M13.1449 7.38984C13.1695 7.4918 13.6617 7.59727 13.5949 7.36875M13.5035 7.49883C13.5949 7.70977 14.0871 7.6957 13.9324 7.41094M13.8516 7.62891C13.95 7.74844 14.3789 7.67812 14.2102 7.38984M14.2066 7.62539C14.4738 7.82578 14.7867 7.5375 14.4492 7.32305M14.6039 7.55859C14.8395 7.74844 15.1313 7.40391 14.9238 7.30547M12.716 7.48125C12.7934 7.50234 12.9516 7.4918 12.9867 7.35469M12.927 7.44609C12.9199 7.65 13.2574 7.72734 13.3418 7.49531M13.2293 7.61836C13.2926 7.75195 13.5879 7.80469 13.6371 7.61836M13.5879 7.70273C13.6371 7.83633 13.8938 7.82227 13.9641 7.68516M13.8691 7.77305C13.95 7.94883 14.277 7.94883 14.3508 7.6957M14.2945 7.80469C14.4211 7.88555 14.6953 7.85391 14.6742 7.60781M14.6215 7.78359C14.8113 7.93828 15.0785 7.78711 14.9484 7.52695M14.9344 7.98398C15.0363 7.96992 15.0891 7.76602 14.9836 7.71328M12.5824 8.02266C12.7934 7.90664 12.832 7.71328 12.6879 7.52344M12.7617 7.8293C12.8953 7.90664 13.1484 7.82227 13.1906 7.62891M12.9445 7.85039C13.0148 7.94531 13.0324 8.06484 12.934 8.17734M13.0043 7.97344C13.2398 7.82578 13.5316 8.09648 13.3137 8.26172M13.275 7.95937C13.3277 7.94531 13.4191 7.85039 13.4297 7.73789M13.3805 8.06133C13.4754 7.95938 14.1398 8.1668 13.7215 8.37773M13.6863 7.78008C13.8164 7.83281 13.8832 8.01211 13.6863 8.07539M13.8551 8.22656C13.9957 8.07891 14.4387 8.17383 14.2805 8.35664M14.175 8.1668C14.2523 7.89961 14.727 8.06484 14.5723 8.17734M14.0801 7.89609C14.0906 7.95234 14.0941 8.08242 14.0098 8.15273M14.4738 7.84687C14.4827 7.8762 14.4852 7.90712 14.4809 7.93748C14.4767 7.96784 14.4658 7.9969 14.4492 8.02266M14.7762 7.84687C14.8008 7.89961 14.8465 7.9875 14.748 8.06484M10.9969 5.81836C11.0004 6.07148 11.0883 6.24023 11.4293 6.07852M11.1023 6.1207C10.9336 6.3457 11.1234 6.58828 11.4539 6.3457M10.5855 6.22969C10.8141 6.47578 11.2254 6.29648 10.9617 5.92031M11.2395 6.44062C11.1938 6.68672 11.3941 6.73242 11.5559 6.62344M10.3816 6.27187C10.4238 6.51445 10.6734 6.70781 10.916 6.55312M10.6875 6.60938C10.6875 6.95742 11.1691 6.99609 11.2781 6.63398M11.1023 6.85547C11.2605 7.17188 11.5945 7.04531 11.707 6.85195M10.7578 6.34219C10.8211 6.50039 10.9441 6.67266 11.2324 6.54258M9.87539 6.26836C9.91406 6.39844 10.1461 6.54961 10.4098 6.37383M10.0406 6.43359C9.9 6.64102 10.1813 6.83438 10.5188 6.525M10.2059 6.69023C10.2656 6.97852 10.3816 7.21406 10.793 6.83789M10.5855 6.98906C10.7367 7.17539 10.9652 7.28789 11.1832 6.975" stroke="black" stroke-width="0.4"/>
<path id="Vector_44" d="M11.3446 7.04102C11.3305 7.2625 11.3762 7.37148 11.5485 7.36445C11.6821 7.35742 11.8121 7.24844 11.886 7.13242M11.5168 7.36445C11.5133 7.61406 11.7102 7.81445 12.0793 7.55781M11.6715 7.65977C11.6012 7.84961 11.8121 8.15898 12.227 7.99727M10.7926 7.15352C10.7645 7.39961 10.993 7.56133 11.3551 7.24844M10.9684 7.42422C10.9824 7.62461 11.2074 7.86367 11.5379 7.51914M11.1266 7.67734C11.102 8.01484 11.4149 8.11328 11.6785 7.85312M10.659 7.42422C10.7293 7.42773 10.7821 7.36797 10.8172 7.32227M10.8067 7.67383C10.8664 7.68438 10.9719 7.62812 11.0071 7.55781M10.9614 8.07461C11.0317 8.14844 11.2707 8.0957 11.2989 7.99375M11.2285 8.06758C11.3586 8.37695 11.7102 8.36641 11.8578 8.01484M11.7875 8.14141C11.8578 8.3207 12.0231 8.43672 12.2973 8.37344M11.9211 8.32422C11.7664 8.57734 11.9703 8.87266 12.3149 8.58086M12.0055 8.70039C11.9879 8.85859 12.1356 9.04141 12.3324 9.0625M11.3551 8.23633C11.3024 8.59492 11.559 8.76367 11.8824 8.57734M10.9824 8.40859C11.0668 8.47539 11.2145 8.48242 11.3551 8.42969M11.5309 8.64062C11.45 8.93945 11.7594 9.15391 12.0231 8.81992M11.102 8.45781C11.102 8.6125 11.2567 8.78125 11.5168 8.73203M12.2446 9.04141C12.0688 9.16094 12.0336 9.37187 12.2797 9.50898M11.8121 8.98164C11.8192 9.15742 11.9035 9.26289 12.1039 9.27695M11.552 8.88672C11.2848 9.1293 11.5449 9.41406 11.8614 9.17148M11.7348 9.24883C11.6469 9.52656 11.9809 9.69531 12.1567 9.41055M11.1899 8.65469C11.0914 8.92891 11.2145 9.11172 11.4395 9.09414M10.8418 8.60195C10.8524 8.76719 10.993 8.82344 11.1547 8.78828M10.9438 8.77422C10.8207 9.00625 11.0035 9.12578 11.2426 9.04141M11.9668 9.55117C11.9282 9.69883 11.9492 9.8043 12.1637 9.85352M11.9809 9.75859C11.7172 9.87813 11.6996 10.1312 11.9 10.293M11.7699 9.48086C11.7385 9.5079 11.714 9.54206 11.6985 9.58048C11.683 9.6189 11.6768 9.66048 11.6806 9.70176C11.6844 9.74303 11.698 9.7828 11.7203 9.81776C11.7425 9.85272 11.7728 9.88185 11.8086 9.90273M10.6133 8.67227C10.4621 8.82344 10.6028 9.23125 10.9367 9.00625M11.4711 9.18906C11.2672 9.35781 11.3621 9.66367 11.6961 9.57578M11.1336 9.0625C11.0282 9.36133 11.1336 9.4668 11.3692 9.47383" stroke="black" stroke-width="0.4"/>
<path id="Vector_45" d="M10.3855 8.6625C10.3528 8.68523 10.3253 8.71464 10.3049 8.74879C10.2844 8.78294 10.2714 8.82105 10.2667 8.8606C10.2621 8.90015 10.2659 8.94023 10.2779 8.9782C10.2899 9.01617 10.3098 9.05116 10.3363 9.08086C10.4137 9.16875 10.5648 9.13008 10.6105 9.01406M10.0059 8.54297C9.80547 8.80313 10.0059 9.1125 10.2941 9.02109M11.0922 9.31641C10.8848 9.38672 10.7266 9.58008 10.8566 9.7418C10.927 9.84023 11.2574 9.8543 11.3488 9.47813M10.716 9.07383C10.6 9.24609 10.6387 9.40781 10.8566 9.49219M10.7055 9.39375C10.5789 9.46406 10.4945 9.54844 10.5227 9.70312M10.4172 9.12656C10.3715 9.33398 10.4277 9.46055 10.5578 9.52383M10.4137 9.37266C10.2168 9.35859 10.1148 9.44297 10.1816 9.63633M10.1992 9.42188C10.0023 9.35156 9.97422 9.18281 10.0586 9.00703M10.0305 9.26719C9.81953 9.27422 9.72461 9.37969 9.72461 9.52734" stroke="black" stroke-width="0.4"/>
<path id="Vector_46" d="M9.74175 8.44102C9.58706 8.50781 9.53784 8.71523 9.59761 8.82773C9.65386 8.94375 9.83667 8.9543 9.94565 8.87695M9.31284 8.2793C9.1687 8.4375 9.33042 8.74688 9.58354 8.66953M8.95073 8.15273C8.81714 8.33906 8.96128 8.64844 9.30229 8.56055M9.31987 9.42188C9.28472 9.20039 9.51323 9.05625 9.79448 9.34102M9.65737 8.89453C9.61779 8.93136 9.58733 8.97691 9.56842 9.02756C9.5495 9.07821 9.54264 9.13257 9.54839 9.18633M8.58511 8.05078C8.44097 8.29688 8.61675 8.52539 8.92964 8.4375M9.40425 8.66602C9.19331 8.87344 9.26362 9.08086 9.42183 9.20039M9.27065 8.90859C8.95425 8.91211 8.94018 9.27422 9.19683 9.39023M9.03159 8.54648C8.90503 8.63438 8.86284 8.87695 9.08433 8.97539M9.02456 9.08789C8.89097 9.02812 8.73276 9.10195 8.74331 9.25664M8.82417 9.09492C8.70464 8.81367 8.35659 8.85937 8.38823 9.15117M8.92261 8.74336C8.84526 8.75742 8.69761 8.80312 8.64136 8.91914M8.66245 8.42695C8.52183 8.58516 8.62729 8.77852 8.74331 8.81367M8.24058 7.98047C8.21597 8.17031 8.28979 8.26172 8.52886 8.24766M8.32495 8.22305C8.23354 8.45508 8.35659 8.55352 8.59565 8.53945M8.37768 8.5043C8.23706 8.67305 8.3355 8.85586 8.47261 8.92969M8.31089 8.71875C8.06128 8.68711 8.02261 8.97891 8.10347 9.11602" stroke="black" stroke-width="0.4"/>
<path id="Vector_47" d="M8.11085 7.95508C7.95617 8.02187 7.86476 8.21523 7.94914 8.33477C8.03351 8.4543 8.20226 8.41563 8.29367 8.35234M8.00187 8.3875C7.87531 8.58086 7.99132 8.72852 8.12843 8.78477" stroke="black" stroke-width="0.4"/>
<path id="Vector_48" d="M7.50927 7.93359C7.4038 8.03906 7.4706 8.25352 7.71669 8.26055C7.91357 8.26055 8.01552 8.07422 7.95576 7.94414M7.68154 8.26055C7.60068 8.43633 7.6499 8.62617 7.94873 8.59453M8.0788 8.87227C7.89248 8.78789 7.64638 8.87227 7.75185 9.09375M7.72373 8.55938C7.6499 8.66484 7.67802 8.81602 7.75888 8.91094M7.71318 8.84063C7.58662 8.86172 7.46709 8.92852 7.54443 9.12188M7.52685 8.96367C7.36865 8.91797 7.16474 9.03398 7.28779 9.1957M7.25966 9.04102C7.12607 9.01992 6.96084 9.16406 7.09443 9.3082M7.04169 9.18867C6.91865 9.22383 6.77099 9.36445 6.90107 9.46992M7.66396 8.49609C7.48818 8.57695 7.46709 8.77734 7.55146 8.91797M7.47763 8.13047C7.21396 8.23242 7.21748 8.5875 7.50927 8.69297M7.38623 8.61563C7.22451 8.71055 7.19638 8.88633 7.30185 9.00234M7.10849 7.99688C7.00302 8.03203 7.01005 8.35898 7.2913 8.34844M6.81669 8.10938C6.60576 8.25 6.85888 8.60859 7.20341 8.35195M7.01357 8.43984C6.98193 8.58398 7.02412 8.7457 7.25966 8.76328M7.02763 8.6332C6.9816 8.65649 6.9448 8.69466 6.92321 8.74152C6.90163 8.78837 6.89654 8.84115 6.90876 8.89127C6.92098 8.94139 6.94981 8.9859 6.99054 9.01755C7.03127 9.04921 7.08152 9.06615 7.1331 9.06562M6.49326 8.32031C6.2788 8.5207 6.66904 8.69297 6.81669 8.40469M6.19443 8.65078C6.08896 8.78086 6.4581 9.11484 6.61982 8.55586M6.66201 8.54531C6.66904 8.67891 6.7499 8.75625 6.91162 8.7668M6.91162 8.89336C6.64795 8.93555 6.56357 9.2625 6.85537 9.33281M6.42646 8.85117C6.41943 8.97422 6.54599 9.07617 6.69365 9.05508M6.82373 9.32227C6.58466 9.375 6.55654 9.68438 6.76748 9.6668M6.65849 9.95508C6.4581 9.89531 6.45459 9.65977 6.63037 9.56836" stroke="black" stroke-width="0.4"/>
<path id="Vector_49" d="M6.49336 9.74805C6.32461 9.84648 6.39141 10.0926 6.4793 10.1277C6.56719 10.1629 6.6375 10.1172 6.64805 10.0434M6.63398 10.3809C6.65156 10.4969 6.22617 10.4512 6.44414 10.0961M6.44414 10.402C6.3 10.627 6.53203 10.8098 6.67969 10.6199M6.46172 10.6727C6.40547 10.8555 6.62344 10.9855 6.76406 10.8449M5.98711 8.98164C5.90625 9.14336 6.30352 9.20312 6.33164 8.86914M5.87461 9.2207C5.79727 9.53711 6.39492 9.47383 6.24023 9.0625M6.2543 9.27344C6.29405 9.29199 6.33759 9.30098 6.38144 9.2997C6.42529 9.29842 6.46823 9.2869 6.50683 9.26606C6.54543 9.24523 6.57863 9.21565 6.60376 9.17969C6.62889 9.14373 6.64526 9.1024 6.65156 9.05898M6.47227 9.28398C6.48349 9.32874 6.50359 9.37078 6.53137 9.40762C6.55915 9.44446 6.59404 9.47534 6.63398 9.49844M6.18398 9.36836C6.15937 9.54062 6.33164 9.68125 6.52852 9.66719M6.21211 9.53359C6.11719 9.66719 6.08906 9.92031 6.39141 9.94141M5.75156 9.5793C5.70234 9.71641 5.99062 9.85703 6.15937 9.63203M5.66367 9.92734C5.63906 10.0328 5.89922 10.1734 6.04336 9.73047M5.92734 9.95547C5.99063 10.0645 6.19805 10.1523 6.32461 9.93789M6.11719 10.068C6.06445 10.2227 6.21211 10.3703 6.38789 10.3246M5.79023 10.0328C5.75508 10.2543 6.0082 10.3844 6.16641 10.2684M5.61797 10.1277C5.54414 10.4125 5.90625 10.518 6.03984 10.307M5.95195 10.3914C5.9625 10.5496 6.21211 10.6867 6.40547 10.5531M5.50898 10.525C5.49141 10.5953 5.79023 10.6656 5.83242 10.4195M5.68125 10.5848C5.75156 10.7676 5.99063 10.8098 6.12773 10.5883M6.04687 10.6762C6.07852 10.8449 6.29297 10.9398 6.48633 10.8238M6.56367 10.8906C6.51445 11.1156 6.75 11.2949 6.89414 11.1719M6.19102 10.852C6.1207 11.098 6.42656 11.2387 6.59883 11.1016M5.81836 10.7254C5.80078 10.9574 5.98008 11.0945 6.1875 10.9926M5.42461 10.7465C5.36484 10.8977 5.6918 11.0207 5.84648 10.8941M5.2207 11.1578C5.30508 11.2562 5.59687 11.1578 5.625 10.9434M5.54414 11.1016C5.64961 11.2246 5.90273 11.2914 6.00117 11.0277M5.9168 11.1648C5.90977 11.3547 6.25078 11.4918 6.35977 11.1402M6.76055 11.2105C6.72891 11.302 6.80273 11.4496 6.95391 11.4672M6.4793 11.1508C6.4582 11.2563 6.61289 11.4074 6.77461 11.3477M6.80977 11.3898C6.76406 11.5059 6.79922 11.6711 6.95391 11.6711M6.82383 11.6043C6.70781 11.7027 6.75352 11.875 6.92227 11.882M6.76406 11.7695C6.59883 11.8785 6.65859 12.1211 6.87305 12.107M6.26836 11.2984C6.26836 11.5375 6.56367 11.5727 6.61992 11.3547M6.50742 11.4953C6.46172 11.6359 6.57773 11.773 6.75703 11.7344M6.54258 13.2004C6.58125 13.2566 6.74648 13.1582 6.70078 13.0598C6.65859 12.9648 6.48281 13.0176 6.50391 13.1195M6.66211 13.0211C6.6832 12.8277 6.45117 12.7961 6.39492 12.9648M6.4793 12.8664C6.53906 12.7715 6.34219 12.6379 6.26484 12.7785M6.33516 12.7223C6.38789 12.5816 6.16641 12.5184 6.14883 12.6484M6.09961 12.4621C6.12773 12.3918 6.37383 12.434 6.26836 12.5816M6.4582 12.7574C6.55664 12.6695 6.39141 12.4867 6.28945 12.5535M7.11211 13.0281C7.03477 13.0352 6.95391 13.0844 7.01016 13.2496C7.05234 13.3621 7.22109 13.3691 7.2457 13.2988" stroke="black" stroke-width="0.4"/>
<path id="Vector_50" d="M6.99572 13.1094C6.92541 13.0602 6.76018 13.1445 6.834 13.2992M6.834 13.2992C6.89025 13.4187 7.0344 13.3695 7.05549 13.3098M6.834 13.2992C6.80236 13.373 6.61252 13.4047 6.57736 13.3344M6.70393 13.1164C6.74611 13.0918 6.81643 13.1234 6.834 13.1586M6.69338 12.0301C6.5633 12.1145 6.64416 12.3676 6.84104 12.3043M6.65119 12.234C6.54924 12.3148 6.64416 12.5645 6.834 12.4695M6.68283 12.4695C6.61252 12.5398 6.68283 12.7367 6.86565 12.7016M6.65471 12.568C6.61955 12.5504 6.51408 12.5645 6.46838 12.6277M6.53869 11.675C6.44377 11.7664 6.48947 11.9563 6.67229 11.9703M6.50705 11.8648C6.36643 11.9352 6.36643 12.2129 6.64768 12.2234M6.49651 12.1777C6.41916 12.241 6.45432 12.4801 6.65471 12.4484M6.55979 12.4414C6.53166 12.4695 6.52463 12.5398 6.54924 12.5715M6.4719 12.35C6.40158 12.35 6.30666 12.4027 6.28205 12.4766M6.15549 12.2199C6.18361 12.1496 6.40158 12.1531 6.41565 12.3605M6.43674 12.1145C6.41232 12.1195 6.38969 12.131 6.37116 12.1476C6.35262 12.1643 6.33886 12.1856 6.33127 12.2094M6.34182 11.4676C6.2469 11.552 6.20119 11.8227 6.48947 11.8754M6.15197 12.0266C6.15197 11.9563 6.34885 11.893 6.41565 12.002M6.02541 11.6328C6.05354 11.6855 6.19065 11.7629 6.2715 11.7031M5.31525 11.2004C5.31396 11.2321 5.31962 11.2638 5.33183 11.2931C5.34405 11.3224 5.36252 11.3487 5.38596 11.3701C5.40941 11.3916 5.43725 11.4076 5.46754 11.4172C5.49784 11.4267 5.52985 11.4295 5.56135 11.4254C5.709 11.4078 5.73713 11.2777 5.69494 11.1934M5.58244 11.4289C5.48752 11.5484 5.60705 11.7172 5.71604 11.668M5.69494 11.3445C5.75119 11.3234 5.94104 11.2953 5.99729 11.3832M5.08322 11.3832C5.03752 11.4465 5.31174 11.5133 5.39963 11.3832M5.31174 11.4535C5.30119 11.5379 5.3469 11.6891 5.5719 11.6293" stroke="black" stroke-width="0.4"/>
<path id="Vector_51" d="M5.60772 11.7621C5.64288 11.6918 5.47413 11.5652 5.34757 11.7023C5.21749 11.8395 5.36515 11.9941 5.44249 11.9414M5.02061 11.4668C4.9503 11.5828 5.21046 11.7937 5.3546 11.5969" stroke="black" stroke-width="0.4"/>
<path id="Vector_52" d="M4.852 11.6676C4.75708 11.7625 4.87309 11.9348 5.0102 11.882C5.15083 11.8293 5.13676 11.6852 5.10512 11.6465" stroke="black" stroke-width="0.4"/>
<path id="Vector_53" d="M4.66879 11.8434C4.59848 11.9137 4.66879 12.0719 4.77426 12.0719C4.87973 12.0719 4.9395 11.991 4.9184 11.8891M5.09419 11.8293C5.07661 11.9348 5.22778 12.0051 5.32622 11.9066M5.32973 11.7238C5.34379 11.6992 5.32973 11.6641 5.30864 11.6465M4.51059 11.9805C4.4227 12.0508 4.60903 12.2406 4.72504 12.0648M5.17504 11.9418C5.11879 11.9945 5.20669 12.1352 5.29458 12.093M4.8727 12.0402C4.88325 12.1352 5.06958 12.2055 5.18911 12.0613M4.97114 12.1316C4.94301 12.1949 5.00278 12.2898 5.07309 12.2758M6.72895 12.6801C6.65864 12.8137 6.88012 12.9719 7.03833 12.8102M6.88715 12.8805C6.852 12.9508 6.89419 13.0562 6.95747 13.0914M6.67973 13.0316C6.69731 12.9684 6.79223 12.9051 6.87661 12.9367M6.56723 12.8594C6.57778 12.7996 6.65864 12.7398 6.7184 12.7539M11.7633 10.1031C11.4504 10.1102 11.584 10.6129 11.8512 10.5109M11.6614 10.4758C11.6016 10.5777 11.7211 10.7395 11.8512 10.6445M11.8161 10.6621C11.7247 10.8168 12.0551 11.0523 12.1887 10.8098M12.0832 10.9047C12.0832 11.0488 12.5122 11.1402 12.4489 10.852M12.4102 11.0102C12.5086 11.1824 12.8883 11.2 12.8497 10.9398M12.7653 11.1191C12.8461 11.2352 13.2153 11.3055 13.2047 11.0664M11.2606 9.66719C11.3133 9.8043 11.4961 9.85352 11.693 9.77266M11.1446 9.76562C11.2711 9.84297 11.0883 10.2051 10.8985 10.0609M11.1446 9.99063C11.2852 10.0539 11.4504 10.0082 11.4961 9.81484M11.4153 9.9625C11.4293 10.0645 11.5735 10.1453 11.7668 10.1031M11.0743 10.068C11.25 10.2191 10.9969 10.525 10.8809 10.3844M11.1411 10.184C11.2254 10.2438 11.4434 10.2086 11.4645 10.0434M11.3661 10.184C11.3836 10.2895 11.4715 10.3281 11.5875 10.3352M11.0954 10.3281C11.1832 10.4512 11.4012 10.4898 11.4997 10.3246M11.6614 10.6059C11.5243 10.634 11.3942 10.5355 11.4012 10.416C11.4188 10.5848 11.2114 10.6727 11.0813 10.5988M10.9231 10.6832C11.0356 10.7395 11.1586 10.525 11.0637 10.3738M11.0532 10.9117C11.1938 10.9223 11.2079 10.7113 11.0813 10.5953M11.3661 11.1016C11.4821 11.0734 11.4469 10.8203 11.1692 10.8027M11.7141 11.2879C11.8266 11.2563 11.7387 10.9785 11.4329 10.9961M12.136 11.3828C12.2098 11.2703 11.9602 11.0734 11.7598 11.1754M12.3434 11.5445C12.4805 11.5797 12.5719 11.2211 12.1395 11.2773M12.5965 11.5445C12.7125 11.5094 12.7969 11.2984 12.4489 11.3687M12.8602 11.5621C12.9657 11.6148 13.0149 11.3055 12.6915 11.3863M11.3485 10.5637C11.3942 10.641 11.3766 10.7957 11.2922 10.8379M11.3625 10.75C11.4504 10.7852 11.57 10.75 11.6403 10.6094M11.5172 10.75C11.5418 10.8098 11.5524 10.9328 11.4961 10.9961M11.5383 10.8555C11.6368 10.9082 11.7493 10.8379 11.7985 10.7359M11.7387 10.8238C11.809 10.866 11.8688 11.0734 11.7528 11.1578M11.8161 11.0629C11.9004 11.0664 12.027 11.0664 12.1043 10.9574M12.0481 11.0172C12.1219 11.0383 12.2098 11.1648 12.1782 11.2738M12.1852 11.2352C12.2696 11.2246 12.4137 11.1648 12.4524 11.0664M12.4137 11.1332C12.4512 11.1558 12.4814 11.1887 12.5007 11.228C12.52 11.2672 12.5276 11.3112 12.5227 11.3547M12.5227 11.2844C12.6071 11.2773 12.6809 11.2352 12.7055 11.1437M12.6809 11.2035C12.7442 11.2246 12.8215 11.2949 12.8215 11.3793M12.8145 11.3266C12.8778 11.316 12.92 11.2773 12.9622 11.2176M13.1274 11.207C13.2082 11.2879 13.1028 11.5516 12.9375 11.5023M11.4329 5.85625C11.2711 5.95469 10.8071 5.92656 11.0356 5.53984M11.4786 5.59609C11.1551 5.72617 10.7579 5.47656 11.1727 5.20937M11.0637 5.12148C10.793 5.12148 10.6137 5.55391 10.9758 5.70156M10.0161 5.30078C9.94575 5.44141 10.1989 5.58906 10.3676 5.45195C10.5047 5.34648 10.4942 5.0582 10.4133 4.94922M9.87895 5.62422C9.79106 5.91602 10.4415 5.93359 10.336 5.46953M9.84379 6.05664C9.86489 6.27813 10.4661 6.20781 10.2727 5.76133M10.343 5.63828C10.3922 5.70508 10.5223 5.81758 10.7473 5.79648M10.4485 5.32539C10.4696 5.40273 10.6032 5.46602 10.7754 5.40625M4.42622 12.0438C4.27153 12.1527 4.50708 12.325 4.59145 12.1352M4.30669 12.1281C4.15551 12.2336 4.38754 12.4094 4.47544 12.2195M4.18012 12.209C4.02895 12.318 4.26098 12.4902 4.34887 12.3004M4.04653 12.2863C3.90239 12.3637 4.07114 12.5535 4.22231 12.3848M3.9059 12.3566C3.75825 12.434 3.93051 12.6238 4.07817 12.4586M4.64067 12.1316C4.64067 12.2441 4.85512 12.2898 4.93247 12.1211M4.78129 12.2336C4.7145 12.318 4.83754 12.4234 4.90434 12.3848M4.49653 12.2195C4.4895 12.3145 4.67583 12.3672 4.76723 12.2652M4.59848 12.318C4.53872 12.3953 4.65473 12.5008 4.73208 12.4691M4.37348 12.3039C4.38051 12.3812 4.48598 12.4656 4.602 12.4164M4.44028 12.4059C4.39809 12.4445 4.41919 12.5395 4.48247 12.5676M4.21176 12.3988C4.19419 12.4691 4.3102 12.5887 4.42973 12.5113M4.23637 12.4762C4.16606 12.5359 4.17309 12.6168 4.2645 12.6309M4.06762 12.4691C4.05708 12.5148 4.11684 12.5922 4.19419 12.5816M3.68794 12.4656C3.61762 12.5008 3.80044 12.6941 3.91294 12.5184M3.51567 12.5465C3.42778 12.5887 3.64575 12.7996 3.74419 12.5816M4.08872 12.5359C4.0184 12.5535 3.97622 12.652 4.03247 12.6906M3.86372 12.5711C3.85669 12.6133 3.93754 12.6766 4.00434 12.652M3.80747 12.5887C3.73715 12.6309 3.77231 12.7469 3.85317 12.7293M3.57192 12.666C3.50864 12.7117 3.55083 12.8066 3.6352 12.782M3.68442 12.659C3.68442 12.6836 3.74067 12.7223 3.78637 12.7082M3.35395 12.6203C3.27661 12.6555 3.28012 12.8488 3.54028 12.7434M3.17817 12.6977C3.0727 12.7504 3.10786 12.898 3.3434 12.7574M3.36098 12.768C3.33286 12.7891 3.30122 12.8875 3.4102 12.8488M3.16411 12.8137C3.1184 12.8523 3.14653 12.9367 3.24497 12.9051M2.93559 12.8277C2.85473 12.8734 3.03051 12.9332 3.14653 12.8137M2.98833 12.884C2.95317 12.9191 2.95317 13.0246 3.04458 12.9895M2.76333 12.9262C2.71059 12.9684 2.79848 13.0211 2.96723 12.9473M2.82661 12.9824C2.76684 13.0352 2.77387 13.0984 2.86176 13.0809M2.64731 13.0105C2.577 13.0738 2.67544 13.116 2.79497 13.0668M2.64731 13.0809C2.53129 13.1336 2.58051 13.232 2.65434 13.1934M6.55669 13.4184C6.52856 13.4781 6.61645 13.5238 6.70083 13.5133C6.78169 13.4992 6.85903 13.4324 6.79926 13.3375M6.79926 13.4535C6.88012 13.5168 7.02426 13.4465 7.02426 13.3516" stroke="black" stroke-width="0.4"/>
</g>
<g id="Group_5">
<path id="Vector_54" d="M11.6717 4.1013C11.3201 3.92552 10.5854 3.59506 10.3779 3.86224C10.5678 3.78138 11.1232 3.86576 11.5838 4.29115L11.6717 4.1013Z" fill="white" stroke="black" stroke-width="0.4"/>
<path id="Vector_55" d="M11.8828 4.08047C11.4785 3.60586 11.2359 3.71133 10.9441 3.54961C10.6664 3.39492 10.227 3.36328 10.1426 3.60938C10.5469 3.4125 10.916 3.71485 11.141 3.75C11.4574 3.79922 11.6332 4.0418 11.7246 4.1543L11.8863 4.08399L11.8828 4.08047ZM13.4227 4.02071C13.2117 3.53555 12.7582 3.66211 12.5578 3.45821C12.266 3.15586 11.5312 2.87813 11.2254 3.08555C11.8934 3.05039 12.1816 3.5461 12.5402 3.71836C12.7969 3.84492 13.0676 4.1086 13.4227 4.02071Z" fill="white" stroke="black" stroke-width="0.4"/>
<path id="Vector_56" d="M12.6275 3.96902C12.2654 3.51902 11.7135 3.12175 11.4533 3.27292C11.7908 3.2905 11.8963 3.52253 12.1354 3.6737C12.3744 3.82488 12.2654 4.03933 12.6275 3.96902ZM10.9049 4.76355C10.5287 4.62292 9.78691 4.55261 9.44238 4.98503C10.0154 5.07995 10.8838 5.02722 10.9084 4.76355H10.9049Z" fill="white" stroke="black" stroke-width="0.4"/>
<path id="Vector_57" d="M10.8383 4.93146C10.4586 4.75568 10.1598 5.00177 9.80469 4.96662C9.12266 4.89982 8.6375 4.93849 8.57422 5.26545C8.96445 4.9174 9.61836 5.20568 9.88203 5.13185C10.1492 5.06154 11.1266 5.12482 11.4359 5.25841C11.2777 5.06154 11.0316 5.01232 10.8383 4.93146ZM12.0301 3.91896C11.9387 3.62716 11.9457 3.3213 12.3816 3.3424C12.2727 3.20177 11.8648 3.13146 11.798 3.64474C11.3164 3.29318 10.7926 3.2299 10.6941 3.53576C10.9402 3.32482 11.327 3.47951 11.784 3.99982C11.8612 3.95993 11.9443 3.93263 12.0301 3.91896Z" fill="white" stroke="black" stroke-width="0.4"/>
<path id="Vector_58" d="M11.3655 4.32299C11.0913 4.14721 10.7221 3.85892 11.369 3.74291C11.0948 3.59174 10.687 3.65853 10.7327 4.17181C9.98737 3.86947 9.45651 3.97142 9.34401 4.26674C9.22097 4.59369 9.68151 4.7765 9.75886 4.56908C9.67448 4.60424 9.38972 4.5058 9.53737 4.32299C9.68854 4.13666 10.4585 4.27377 11.1897 4.65697C11.3936 4.76244 12.0897 4.74486 11.3655 4.32299Z" fill="white" stroke="black" stroke-width="0.4"/>
<path id="Vector_59" d="M11.1727 4.80859C10.9617 4.37617 10.2762 4.76641 10.1391 4.35156C9.94923 4.96328 11.1129 4.62227 11.1727 4.80859ZM15.532 5.27617C15.6727 5.34648 15.7992 5.23398 15.5777 5.14609C15.7184 5.21641 15.8485 5.11094 15.627 5.01953C15.7711 5.08984 15.8977 4.98437 15.6762 4.89297C15.6164 4.95273 15.5356 5.1707 15.5285 5.27617H15.532ZM15.6024 4.44648C15.9223 4.10898 15.5777 3.99648 15.968 3.65195C16.2844 3.3707 16.0277 3.18086 16.3301 2.96289C16.425 2.89258 16.6359 2.75195 16.657 2.61133C16.7836 2.92773 16.2598 2.96992 16.2949 3.4832C16.316 3.81016 16.0945 3.78203 16.0137 4.32695C15.9926 4.44648 15.9152 4.70312 15.6059 4.44648H15.6024Z" fill="white" stroke="black" stroke-width="0.4"/>
<path id="Vector_60" d="M15.7461 4.59336C15.9219 4.21367 16.1258 4.2207 16.2207 4.07305C16.407 3.7918 16.8008 4.12227 17.1348 3.86914C17.075 4.22773 16.6285 4.10117 16.4316 4.32969C16.2418 4.5582 16.0801 4.66367 15.7461 4.59336Z" fill="white" stroke="black" stroke-width="0.4"/>
<path id="Vector_61" d="M15.7878 4.72047C16.0972 4.47438 16.3257 4.6361 16.5401 4.50954C17.078 4.17907 17.296 4.57282 17.7741 4.41813C17.6476 4.72751 16.9374 4.46383 16.628 4.69235C16.3187 4.92086 15.2323 5.14235 15.7878 4.72047ZM14.8878 6.47829C14.8797 6.39369 14.844 6.3141 14.7862 6.25182C14.7284 6.18954 14.6517 6.14805 14.5679 6.13376C14.3816 6.11266 14.3007 5.9193 14.1601 5.90876C14.0194 5.90172 13.9245 5.62047 13.7312 5.62399C13.5378 5.62751 13.4569 5.88063 13.914 6.10915C14.371 6.33766 14.8702 6.60133 14.8878 6.47829ZM14.3148 6.59782C14.1214 6.60836 14.0933 6.88961 13.9069 6.90016C14.1636 7.03727 14.3499 6.83688 14.4835 6.6611L14.3148 6.59782Z" fill="white" stroke="black" stroke-width="0.4"/>
<path id="Vector_62" d="M14.473 6.63281C14.3077 6.77344 14.2585 7.07227 14.5011 7.15664C14.3534 6.95625 14.7577 6.86484 14.6312 6.67852L14.473 6.63281Z" fill="white" stroke="black" stroke-width="0.4"/>
<path id="Vector_63" d="M14.6418 6.64336C14.5082 6.9 14.8492 6.93164 14.7613 7.125C14.9547 7.0793 14.9863 6.71367 14.8105 6.61523L14.6418 6.64336Z" fill="white" stroke="black" stroke-width="0.4"/>
<path id="Vector_64" d="M13.3447 6.09444C13.6611 6.07686 13.9529 6.24913 14.1463 6.52686C14.2693 6.70264 14.6842 6.77295 14.8283 6.63233C14.9689 6.4917 14.8881 6.19288 14.5365 6.2878C14.4486 6.14014 14.192 6.19288 14.0689 6.06983C13.9459 5.94327 13.4678 5.5917 13.3447 6.09444Z" fill="white" stroke="black" stroke-width="0.4"/>
<g id="Vector_65">
<path d="M14.5367 6.29219C14.4523 6.30625 14.4242 6.45391 14.477 6.52773ZM14.716 6.38008C14.7441 6.42227 14.7266 6.48555 14.7125 6.51719ZM13.8477 6.10938C14.0094 6.11641 14.041 6.23594 14.2168 6.28164Z" fill="white"/>
<path d="M14.5367 6.29219C14.4523 6.30625 14.4242 6.45391 14.477 6.52773M14.716 6.38008C14.7441 6.42227 14.7266 6.48555 14.7125 6.51719M13.8477 6.10938C14.0094 6.11641 14.041 6.23594 14.2168 6.28164" stroke="black" stroke-width="0.4" stroke-linecap="round"/>
</g>
<path id="Vector_66" d="M13.7382 5.7077C14.3007 5.84833 14.7507 5.97137 15.0284 6.12958C15.3642 6.29721 15.7508 6.33235 16.1112 6.22801C16.4874 6.12254 17.2116 6.02411 17.1765 6.49169C17.3734 6.25965 17.1237 6.00653 16.621 5.96434C16.6316 5.73231 16.3855 5.52489 16.2097 5.662C16.3714 5.6409 16.512 5.94325 16.1921 6.06981C16.2088 6.01555 16.2092 5.95756 16.193 5.90311C16.1769 5.84867 16.1451 5.80019 16.1015 5.76377C16.058 5.72734 16.0046 5.70459 15.9482 5.69837C15.8918 5.69215 15.8347 5.70273 15.7843 5.72879C15.9355 5.7745 16.0902 6.02762 15.7491 6.12606C15.5347 6.18934 15.2218 6.10848 14.9898 5.96786C14.7577 5.82723 13.4499 5.31395 13.7347 5.70419L13.7382 5.7077Z" fill="white" stroke="black" stroke-width="0.4"/>
<path id="Vector_67" d="M15.1624 5.47691C14.9866 5.55777 15.0991 5.7441 14.8284 5.84957C14.5542 5.95503 14.3644 6.20113 14.4241 6.40503C14.6104 6.00074 14.9374 6.01832 15.0534 5.8566C15.1659 5.69839 15.3347 5.46636 15.1624 5.47691Z" fill="white" stroke="black" stroke-width="0.4"/>
<path id="Vector_68" d="M15.2121 5.50471C15.2016 5.82814 14.9484 5.70861 15.0469 6.16213C15.1116 6.3565 15.1091 6.56698 15.0398 6.75978C15.3211 6.55588 15.1418 6.11994 15.2684 5.9547C15.3425 5.86123 15.4018 5.75688 15.4441 5.64533C15.3738 5.83166 15.3809 6.17267 15.5602 6.26408C15.416 5.91955 15.9539 5.6383 15.5813 5.24103C15.5285 5.33596 15.3633 5.50822 15.2121 5.50471ZM14.3121 5.18127C14.3543 5.25158 14.4 5.41681 14.3613 5.50822C14.4677 5.43687 14.5547 5.34023 14.6145 5.22697C14.7973 5.25158 14.8676 5.47658 14.6953 5.57853C14.8008 5.57853 14.9836 5.57853 15.082 5.45549C14.959 5.31838 14.5758 5.10744 14.3086 5.18127H14.3121Z" fill="white" stroke="black" stroke-width="0.4"/>
<path id="Vector_69" d="M11.5664 4.54761C11.5187 4.50968 11.4616 4.48538 11.4012 4.47729C11.134 4.42456 11.2746 4.1855 11.4996 4.1855C11.9848 3.65815 12.259 4.06596 12.8496 3.89721C13.0605 3.83745 13.2012 3.85503 13.3137 3.90425C13.5773 3.72846 13.8867 3.77768 14.1117 3.98511C14.1363 3.94643 14.1715 3.91479 14.2172 3.90073C14.4281 3.84448 14.5934 4.02026 14.6496 4.25229C14.8113 4.21714 14.9977 4.30151 15.1207 4.4105C15.2859 4.32261 15.402 4.31909 15.4441 4.4105C15.5953 4.34018 15.7887 4.29448 15.8871 4.53354C15.9855 4.77261 15.6586 4.69878 15.6059 5.20151C15.5707 5.5144 15.2262 5.63745 14.952 5.44761C14.5125 5.15581 14.0871 5.10659 13.8727 5.55659C13.6617 6.00659 13.4965 6.27026 12.9832 6.11909C12.7969 6.06987 12.5613 6.14018 12.4102 6.34409C12.259 6.54448 12.0305 6.35464 11.7562 6.37925C12.1008 6.32651 11.9672 6.23862 12.266 6.21753C12.5402 6.19995 12.4699 5.94682 12.6457 5.90815C11.9602 6.08393 11.9848 5.83081 11.4187 6.00659C11.6648 5.69018 12.0551 5.86596 12.2484 5.67964C11.7387 5.67261 11.5102 5.33862 11.2781 5.47573C10.916 5.69721 11.0742 6.32651 10.132 6.27026C9.675 6.24565 9.37969 6.30542 9.10547 6.57964C9.58359 5.59526 10.2305 6.13667 10.5469 5.82026C10.7106 5.67352 10.8527 5.50425 10.9688 5.31753C10.9828 5.29021 11.0027 5.26631 11.027 5.24748C11.0513 5.22866 11.0794 5.21537 11.1094 5.20854C10.3219 4.96245 10.7965 4.57573 11.5664 4.54761Z" fill="white" stroke="black" stroke-width="0.4"/>
<g id="Vector_70">
<path d="M15.4434 4.41211C15.4574 4.43672 15.4609 4.46836 15.4609 4.50703C15.4609 4.70391 15.1727 4.71094 15.1551 4.99922C15.1445 5.14687 15.1269 5.23125 15.025 5.21367C14.923 5.19609 14.8351 5.03789 14.9336 4.85156" fill="white"/>
<path d="M15.4434 4.41211C15.4574 4.43672 15.4609 4.46836 15.4609 4.50703C15.4609 4.70391 15.1727 4.71094 15.1551 4.99922C15.1445 5.14687 15.1269 5.23125 15.025 5.21367C14.923 5.19609 14.8351 5.03789 14.9336 4.85156" stroke="black" stroke-width="0.4" stroke-linecap="round"/>
</g>
<g id="Vector_71">
<path d="M11.71 4.25937C11.6484 4.21502 11.5749 4.19049 11.499 4.18906ZM13.3096 3.9043C13.5451 4.00625 13.6576 4.24883 13.9986 4.25586C14.3256 4.26992 14.526 4.74453 15.0744 4.43516L15.1166 4.41406M14.1111 3.98516C14.0646 4.07105 14.0485 4.17019 14.0654 4.26641ZM13.0459 4.98359C12.6275 4.98359 12.5221 5.19453 12.5221 5.39844C12.5221 5.60234 12.7189 5.86602 13.06 5.86602C13.4045 5.86602 13.5908 5.65508 13.5908 5.42305C13.5908 5.19102 13.3799 4.98359 13.0424 4.98359H13.0459Z" fill="white"/>
<path d="M11.71 4.25937C11.6484 4.21502 11.5749 4.19049 11.499 4.18906M13.3096 3.9043C13.5451 4.00625 13.6576 4.24883 13.9986 4.25586C14.3256 4.26992 14.526 4.74453 15.0744 4.43516L15.1166 4.41406M14.1111 3.98516C14.0646 4.07105 14.0485 4.17019 14.0654 4.26641M13.0459 4.98359C12.6275 4.98359 12.5221 5.19453 12.5221 5.39844C12.5221 5.60234 12.7189 5.86602 13.06 5.86602C13.4045 5.86602 13.5908 5.65508 13.5908 5.42305C13.5908 5.19102 13.3799 4.98359 13.0424 4.98359H13.0459Z" stroke="black" stroke-width="0.4"/>
</g>
<g id="Vector_72">
<path d="M13.1203 5.85544C13.1097 5.74294 12.9023 5.76051 12.9094 5.67262C12.9164 5.58473 13.0254 5.54606 13.0254 5.42653C13.0254 5.307 13.2117 5.29294 13.2715 5.39137C13.3347 5.48629 13.5211 5.67262 13.5597 5.5777M13.275 5.38786C13.2184 5.44836 13.1857 5.52739 13.1831 5.61021C13.1805 5.69302 13.2082 5.77394 13.2609 5.83786M13.4051 5.53903C13.3769 5.60583 13.3699 5.70778 13.4051 5.76754Z" fill="white"/>
<path d="M13.1203 5.85544C13.1097 5.74294 12.9023 5.76051 12.9094 5.67262C12.9164 5.58473 13.0254 5.54606 13.0254 5.42653C13.0254 5.307 13.2117 5.29294 13.2715 5.39137C13.3347 5.48629 13.5211 5.67262 13.5597 5.5777M13.275 5.38786C13.2184 5.44836 13.1857 5.52739 13.1831 5.61021C13.1805 5.69302 13.2082 5.77394 13.2609 5.83786M13.4051 5.53903C13.3769 5.60583 13.3699 5.70778 13.4051 5.76754" stroke="black" stroke-width="0.4"/>
</g>
<path id="Vector_73" d="M15.0537 5.21619C15.3807 5.2408 15.4334 4.88572 15.1943 4.86463M14.6564 4.24939C14.5439 4.10877 14.2838 4.05955 14.2803 4.36189" stroke="black" stroke-width="0.4"/>
<g id="Vector_74">
<path d="M14.2484 4.70939C14.1395 4.43517 13.8547 4.39298 13.707 4.5336C13.5805 4.6461 13.577 4.94142 13.8477 5.0047C13.9391 4.89571 14.1219 4.74806 14.2484 4.70939ZM14.1289 4.53712C13.9672 4.3965 13.7352 4.66368 13.9461 4.90978ZM11.109 5.20157C11.2145 5.17696 11.3691 5.2297 11.6082 5.3422C11.7594 5.41251 12.2059 5.56368 12.4906 5.41251C12.1988 5.51798 11.9809 5.07501 11.7594 5.13126C11.5379 5.184 11.1336 5.26485 10.9648 5.10314C11.3797 5.13126 11.6012 4.80079 12.0758 5.08556C12.2104 5.16989 12.3669 5.21269 12.5258 5.2086C12.1391 4.74103 11.6258 5.03986 11.573 4.66017C11.8086 4.91329 12.3816 4.60392 12.6699 5.07501M11.6574 4.73048C11.6012 4.66368 11.6258 4.59689 11.5695 4.54415Z" fill="white"/>
<path d="M14.1289 4.53712C13.9672 4.3965 13.7352 4.66368 13.9461 4.90978M11.109 5.20157C11.2145 5.17696 11.3691 5.2297 11.6082 5.3422C11.7594 5.41251 12.2059 5.56368 12.4906 5.41251C12.1988 5.51798 11.9809 5.07501 11.7594 5.13126C11.5379 5.184 11.1336 5.26485 10.9648 5.10314C11.3797 5.13126 11.6012 4.80079 12.0758 5.08556C12.2104 5.16989 12.3669 5.21269 12.5258 5.2086C12.1391 4.74103 11.6258 5.03986 11.573 4.66017C11.8086 4.91329 12.3816 4.60392 12.6699 5.07501M11.6574 4.73048C11.6012 4.66368 11.6258 4.59689 11.5695 4.54415M14.2484 4.70939C14.1395 4.43517 13.8547 4.39298 13.707 4.5336C13.5805 4.6461 13.577 4.94142 13.8477 5.0047C13.9391 4.89571 14.1219 4.74806 14.2484 4.70939Z" stroke="black" stroke-width="0.4"/>
</g>
</g>
<path id="Vector_75" d="M14.6567 4.25317C14.5583 4.1477 14.3473 4.22856 14.4071 4.4395C14.4294 4.3901 14.4635 4.34695 14.5064 4.31384C14.5493 4.28073 14.5997 4.25869 14.6532 4.24965L14.6567 4.25317ZM14.0555 4.81567C14.1142 4.77086 14.1794 4.73529 14.2489 4.7102C14.2223 4.63992 14.1774 4.57802 14.1188 4.5309C14.0696 4.49575 13.9219 4.69262 14.0555 4.81567Z" fill="black"/>
<path id="Vector_76" d="M13.795 4.45622C13.6368 4.35075 13.4891 4.3613 13.4434 4.44919C13.3274 4.44568 13.2325 4.53005 13.2254 4.69529M13.4715 4.7656C13.2817 4.63552 13.0215 4.68474 13.0391 4.97654M12.9266 5.14177C13.018 5.06794 13.1516 5.01521 13.25 5.14528M14.3399 4.85349C14.3047 4.90271 14.2801 4.98005 14.3399 5.09255C14.2696 5.00114 14.0903 5.00114 13.9004 5.24724M14.7618 4.84294C14.5332 4.86755 14.5368 5.01872 14.7231 5.08552M13.127 4.28044C12.9336 4.24177 12.793 4.35779 13.0602 4.45622M13.4996 4.14685C13.2254 4.07654 13.1129 4.14685 13.2395 4.21013M12.7086 5.24372C12.6981 5.34216 12.7543 5.46872 12.9125 5.32458M12.7614 5.53552C12.7614 5.56364 12.7578 5.59177 12.7403 5.61638M12.125 4.24529C11.9598 4.19255 11.9282 4.03786 12.1215 4.05193M12.0688 4.60036C11.8825 4.53708 11.8825 4.35427 12.0371 4.37536M12.4133 4.50544C12.1953 4.45271 12.1883 4.30505 12.35 4.32614M12.4379 4.04489C12.3254 4.03786 12.1461 4.16794 12.445 4.24177M12.7614 4.30505C12.4907 4.26286 12.4977 4.37536 12.6559 4.44568M12.9653 4.04841C12.7543 4.00974 12.684 4.13279 12.8246 4.18552M12.3149 4.81482C12.2657 4.77263 12.2235 4.57224 12.466 4.632M12.8176 4.75154C12.6559 4.70935 12.5012 4.86755 12.6489 4.96247M13.0356 4.56169C12.8598 4.53357 12.7192 4.57927 12.8106 4.64255" stroke="black" stroke-width="0.4" stroke-linecap="round"/>
<g id="Vector_77">
<path d="M14.6453 4.25391C14.5934 4.26336 14.5445 4.28525 14.5029 4.31769C14.4613 4.35014 14.4281 4.39219 14.4062 4.44023" fill="white"/>
<path d="M14.6453 4.25391C14.5934 4.26336 14.5445 4.28525 14.5029 4.31769C14.4613 4.35014 14.4281 4.39219 14.4062 4.44023" stroke="black" stroke-width="0.4"/>
</g>
</g>
</g>
<defs>
<clipPath id="clip0_186_6222">
<rect width="18" height="18" fill="white"/>
</clipPath>
</defs>
</svg>
