<svg width="18" height="18" viewBox="0 0 18 18" fill="none" xmlns="http://www.w3.org/2000/svg">
<g id="ca" clip-path="url(#clip0_186_5305)">
<path id="Vector" d="M2.85156 0H15.5887V18H2.85156V0Z" fill="white"/>
<path id="Vector_2" d="M-3.51562 0H2.85117V18H-3.51562V0ZM15.5883 0H21.9551V18H15.5883V0ZM4.75664 8.69766L4.26445 8.86641L6.56367 10.8879C6.73945 11.4082 6.50391 11.5594 6.35273 11.8336L8.84883 11.5172L8.78555 14.0309L9.30586 14.0133L9.18984 11.5207L11.693 11.816C11.5383 11.4891 11.4012 11.3168 11.5418 10.7965L13.841 8.88047L13.4402 8.73633C13.1098 8.47969 13.5809 7.51289 13.6512 6.90117C13.6512 6.90117 12.3117 7.36172 12.2238 7.11914L11.8758 6.46875L10.6594 7.80469C10.5258 7.83984 10.4695 7.78359 10.4379 7.67109L11.0004 4.86914L10.1074 5.37188C10.0336 5.40352 9.95977 5.37187 9.91055 5.2875L9.04922 3.56484L8.16328 5.3543C8.09648 5.41758 8.02969 5.42461 7.97344 5.38242L7.12266 4.9043L7.63242 7.68867C7.59375 7.79414 7.49531 7.8293 7.38281 7.76953L6.21211 6.44062C6.06094 6.68672 5.95547 7.0875 5.75508 7.17891C5.55469 7.25977 4.87617 7.00664 4.42266 6.9082C4.57734 7.46719 5.0625 8.39531 4.75664 8.70117V8.69766Z" fill="#D52B1E"/>
</g>
<defs>
<clipPath id="clip0_186_5305">
<rect width="18" height="18" fill="white"/>
</clipPath>
</defs>
</svg>
