<svg width="18" height="18" viewBox="0 0 18 18" fill="none" xmlns="http://www.w3.org/2000/svg">
<g id="cc" clip-path="url(#clip0_186_5310)">
<path id="Vector" d="M0 0H18V18H0V0Z" fill="#008000"/>
<path id="Vector_2" d="M9.42891 10.9555C10.6172 10.9555 11.5805 9.99218 11.5805 8.80391C11.5805 7.61563 10.6172 6.65234 9.42891 6.65234C8.24063 6.65234 7.27734 7.61563 7.27734 8.80391C7.27734 9.99218 8.24063 10.9555 9.42891 10.9555Z" fill="#FFE000"/>
<path id="Vector_3" d="M10.1 10.575C11.0786 10.575 11.8719 9.7817 11.8719 8.80312C11.8719 7.82455 11.0786 7.03125 10.1 7.03125C9.12142 7.03125 8.32812 7.82455 8.32812 8.80312C8.32812 9.7817 9.12142 10.575 10.1 10.575Z" fill="#008000"/>
<path id="Vector_4" d="M2.64375 8.90859C3.89027 8.90859 4.90078 7.89809 4.90078 6.65156C4.90078 5.40504 3.89027 4.39453 2.64375 4.39453C1.39723 4.39453 0.386719 5.40504 0.386719 6.65156C0.386719 7.89809 1.39723 8.90859 2.64375 8.90859Z" fill="#FFE000"/>
<path id="Vector_5" d="M2.48535 8.35273H3.04785C3.04785 8.35273 3.07598 8.3 3.04434 8.27539C3.0127 8.24727 2.89316 8.24023 2.9248 8.15234C2.99512 7.9625 3.00215 8.02227 3.04434 7.57578C3.08652 7.1293 3.1041 6.42969 3.1041 6.42969H3.02324C3.02324 6.42969 3.04082 6.64766 2.9916 6.93242C2.9459 7.21367 2.93184 7.23828 2.8791 7.45977C2.82988 7.67422 2.81934 7.6918 2.77363 7.82188C2.72793 7.94844 2.7209 7.95195 2.65059 8.06797L2.5627 8.21563C2.5416 8.25078 2.51699 8.24023 2.50293 8.26484C2.48887 8.29297 2.48535 8.35273 2.48535 8.35273Z" fill="#802000" stroke="#7B3100" stroke-width="1.4"/>
<path id="Vector_6" d="M2.91777 5.00938C2.91777 5.09727 2.91074 5.20977 2.87559 5.30469C2.84043 5.41016 2.79824 5.51562 2.80176 5.62109C2.74199 5.6457 2.68223 5.49805 2.62598 5.58594C2.66816 5.70195 2.7666 5.79688 2.8334 5.90234C2.84395 5.9375 2.93887 6.02539 2.88613 6.04297C2.74551 5.99727 2.71035 5.81797 2.62246 5.70898C2.5725 5.61858 2.50058 5.5422 2.41334 5.48691C2.32609 5.43161 2.22633 5.39917 2.12324 5.39258C2.04238 5.39258 1.78574 5.37148 1.85254 5.50508C1.95098 5.57539 2.07402 5.61758 2.16895 5.69141C2.24277 5.69844 2.37285 5.81797 2.36582 5.86719C2.23926 5.81445 2.17949 5.75117 2.04238 5.69844C1.85605 5.62813 1.59941 5.6668 1.49746 5.85313C1.47637 5.90234 1.44824 6.03945 1.50801 6.05352C1.57832 5.94453 1.68379 5.82148 1.83145 5.85313C1.94746 5.86367 1.69785 6.07461 1.79629 6.02891C1.82441 6.01836 1.89473 5.97266 1.94043 5.96914C1.98965 5.96211 2.01777 5.99727 2.05293 6.0043C2.12676 6.01484 2.14785 6.04297 2.14082 6.06055C2.13379 6.08164 2.10566 6.06406 2.03535 6.08867C2.0002 6.09922 1.9791 6.13437 1.9334 6.14844C1.89121 6.1625 1.7998 6.1625 1.76816 6.14844C1.64863 6.09922 1.45527 6.10977 1.4166 6.25391C1.4166 6.32422 1.36035 6.25039 1.33574 6.27852C1.31465 6.34883 1.30762 6.41914 1.20215 6.41563C1.13887 6.48242 1.07559 6.55273 0.991211 6.59844C1.04043 6.70742 1.23027 6.48945 1.21973 6.58086C1.13887 6.69336 1.26191 6.71797 1.31816 6.63008C1.40957 6.53164 1.52559 6.41563 1.6627 6.51406C1.72949 6.57383 1.76816 6.47891 1.81387 6.48594C1.84551 6.56328 1.88418 6.48594 1.91934 6.46836C1.97207 6.46133 1.95449 6.53867 2.0248 6.48945C2.15488 6.40156 2.3166 6.47539 2.44668 6.39102C2.58027 6.32773 2.46426 6.44023 2.42559 6.48594C2.36582 6.60195 2.41855 6.75664 2.28496 6.82695C2.23574 6.96758 2.34824 7.15039 2.23223 7.25234C2.21465 7.31914 2.3834 7.31211 2.4291 7.33672C2.51348 7.34023 2.4291 7.15039 2.50645 7.12578C2.61543 7.19258 2.61191 7.00273 2.59082 6.94297C2.60137 6.81289 2.6084 6.66875 2.67168 6.5457C2.74199 6.40156 2.80879 6.60547 2.72793 6.66523C2.68574 6.79883 2.62246 6.97109 2.7209 7.09414C2.75254 7.10117 2.77363 7.17148 2.8123 7.19258C2.84746 7.21719 2.9002 7.18906 2.91074 7.12227C2.95996 6.93242 2.93535 6.72148 3.00566 6.53516C3.05137 6.47539 3.12168 6.52461 3.1498 6.57734C3.24824 6.68984 3.31504 6.83047 3.43105 6.92539C3.54114 6.97071 3.63107 7.05439 3.68418 7.16094C3.68418 7.24531 3.92324 7.25586 3.85293 7.16094C3.78262 7.07305 3.82832 6.97813 3.89863 6.91836C3.93379 6.92891 3.92324 6.86211 3.89863 6.88672C3.84941 6.87617 3.8459 6.78828 3.90918 6.83047C4.02168 6.86563 3.90215 6.74961 3.86348 6.74609C3.76855 6.68984 3.66309 6.62305 3.61738 6.52109C3.73691 6.52109 3.86348 6.59141 3.98652 6.54922C4.08848 6.49648 4.18691 6.55273 4.22207 6.64062C4.29941 6.62656 4.26777 6.55273 4.22207 6.52461C4.27832 6.50352 4.31699 6.4543 4.2502 6.41211C4.21504 6.36289 4.29941 6.28555 4.19395 6.28906C4.19746 6.2082 4.16582 6.13789 4.08145 6.10977C3.99355 6.03594 3.74043 6.21523 3.74746 6.05C3.72285 5.96211 3.85293 6.03945 3.88809 5.99375C3.92324 5.89883 3.7123 5.90938 3.78262 5.83555C3.8248 5.80742 4.04277 5.76523 3.87402 5.73008C3.83625 5.74116 3.79649 5.74375 3.75759 5.73767C3.71869 5.73159 3.68162 5.717 3.64902 5.69492C3.58926 5.80039 3.41348 5.63867 3.44512 5.82148C3.42051 5.8918 3.26934 6.06758 3.22363 5.93047C3.25879 5.825 3.44512 5.78984 3.38535 5.64922C3.37832 5.55781 3.30449 5.66328 3.26934 5.65625C3.25176 5.6 3.32207 5.5332 3.3748 5.51914C3.46973 5.59648 3.47324 5.42422 3.56816 5.43828C3.63848 5.42422 3.54355 5.39609 3.52598 5.38203C3.54355 5.33281 3.64902 5.30469 3.54707 5.2625C3.45566 5.19219 3.38887 5.33281 3.31504 5.33633C3.24473 5.25547 3.37832 5.2168 3.41699 5.17461C3.41699 5.13945 3.33613 5.16406 3.36074 5.13945C3.38184 5.09727 3.52949 5.09375 3.45918 5.0375C3.35723 5.00234 3.22715 5.01289 3.12871 5.05508C3.06543 5.07617 3.04785 5.2168 2.99512 5.20977C2.96699 5.15 3.00215 5.02695 2.91777 5.00586V5.00938ZM3.39941 6.37695C3.48027 6.36289 3.39941 6.49297 3.36426 6.49297C3.36777 6.44727 3.25176 6.45078 3.32559 6.40859C3.34796 6.39266 3.37294 6.38076 3.39941 6.37344V6.37695Z" fill="#008000"/>
<g id="Group">
<path id="Vector_7" d="M14.5958 11.5137L14.7381 11.9562L15.1728 11.7915L14.9157 12.1789L15.3155 12.4162L14.8521 12.4566L14.9159 12.9171L14.5958 12.58L14.2754 12.9169L14.3392 12.4566L13.876 12.416L14.2759 12.1787L14.0185 11.7913L14.4532 11.956L14.5958 11.5137Z" fill="#FFE000"/>
<path id="Vector_8" d="M12.0118 7.42188L12.1541 7.86441L12.5888 7.69974L12.3317 8.08711L12.7316 8.32437L12.2681 8.36477L12.3319 8.82535L12.0118 8.48822L11.6915 8.82514L11.7552 8.36477L11.292 8.32417L11.6919 8.08691L11.4345 7.69953L11.8693 7.8642L12.0118 7.42188Z" fill="#FFE000"/>
<path id="Vector_9" d="M14.5958 4.62305L14.7381 5.06558L15.1728 4.90091L14.9157 5.28828L15.3155 5.52554L14.8521 5.56594L14.9159 6.02652L14.5958 5.68939L14.2754 6.02632L14.3392 5.56594L13.876 5.52534L14.2759 5.28808L14.0185 4.90071L14.4532 5.06538L14.5958 4.62305Z" fill="#FFE000"/>
<path id="Vector_10" d="M16.8926 6.73242L17.035 7.17496L17.4697 7.01029L17.2125 7.39766L17.6124 7.63492L17.149 7.67532L17.2127 8.1359L16.8926 7.79877L16.5723 8.13569L16.6361 7.67532L16.1729 7.63471L16.5727 7.39745L16.3154 7.01008L16.7501 7.17475L16.8926 6.73242Z" fill="#FFE000"/>
<path id="Vector_11" d="M15.6294 8.80664L15.742 9.08245L16.039 9.10419L15.8113 9.29654L15.8825 9.58569L15.6294 9.42861L15.3764 9.58589L15.4474 9.29675L15.2197 9.1044L15.5171 9.08266L15.6294 8.80664Z" fill="#FFE000"/>
</g>
</g>
<defs>
<clipPath id="clip0_186_5310">
<rect width="18" height="18" fill="white"/>
</clipPath>
</defs>
</svg>
