<svg width="18" height="18" viewBox="0 0 18 18" fill="none" xmlns="http://www.w3.org/2000/svg">
<g id="cefta" clip-path="url(#clip0_186_6339)">
<path id="Vector" d="M0 0H18V18H0V0Z" fill="#003399"/>
<path id="Vector_2" d="M9 10.5117C9.63103 10.5117 10.1426 10.0002 10.1426 9.36914C10.1426 8.73811 9.63103 8.22656 9 8.22656C8.36897 8.22656 7.85742 8.73811 7.85742 9.36914C7.85742 10.0002 8.36897 10.5117 9 10.5117Z" stroke="#FFCC00" stroke-width="29.3"/>
<path id="Vector_3" d="M9.0002 12.6801C10.8292 12.6801 12.3119 11.1974 12.3119 9.36836C12.3119 7.53935 10.8292 6.05664 9.0002 6.05664C7.17118 6.05664 5.68848 7.53935 5.68848 9.36836C5.68848 11.1974 7.17118 12.6801 9.0002 12.6801Z" stroke="#FFCC00" stroke-width="29.3"/>
<path id="Vector_4" d="M12.1746 6.19141L15.3492 9.36602L12.1746 12.5406L9 9.36602L12.1746 6.19141Z" fill="#003399"/>
<path id="Vector_5" d="M3.58984 8.85156H5.81172V9.88164H3.58984V8.85156ZM13.307 8.85156H16.6188V9.88164H13.307V8.85156ZM10.6141 7.02695L12.066 5.575L12.7937 6.30273L11.3418 7.75469L10.6141 7.02695ZM8.48359 1.82031H9.51367V5.83516H8.48359V1.82031Z" fill="#FFCC00"/>
<path id="Vector_6" d="M5.44258 6.5043C5.728 6.5043 5.95937 6.27292 5.95937 5.9875C5.95937 5.70208 5.728 5.4707 5.44258 5.4707C5.15716 5.4707 4.92578 5.70208 4.92578 5.9875C4.92578 6.27292 5.15716 6.5043 5.44258 6.5043Z" fill="#FFCC00"/>
<path id="Vector_7" d="M2.41133 9.88516C2.69675 9.88516 2.92813 9.65378 2.92813 9.36836C2.92813 9.08294 2.69675 8.85156 2.41133 8.85156C2.12591 8.85156 1.89453 9.08294 1.89453 9.36836C1.89453 9.65378 2.12591 9.88516 2.41133 9.88516Z" fill="#FFCC00"/>
<path id="Vector_8" d="M9.0002 14.8187C9.28561 14.8187 9.51699 14.5874 9.51699 14.302C9.51699 14.0165 9.28561 13.7852 9.0002 13.7852C8.71478 13.7852 8.4834 14.0165 8.4834 14.302C8.4834 14.5874 8.71478 14.8187 9.0002 14.8187Z" fill="#FFCC00"/>
<path id="Vector_9" d="M9.0002 16.475C9.28561 16.475 9.51699 16.2436 9.51699 15.9582C9.51699 15.6728 9.28561 15.4414 9.0002 15.4414C8.71478 15.4414 8.4834 15.6728 8.4834 15.9582C8.4834 16.2436 8.71478 16.475 9.0002 16.475Z" fill="#FFCC00"/>
<path id="Vector_10" d="M12.3117 9.88516C12.5971 9.88516 12.8285 9.65378 12.8285 9.36836C12.8285 9.08294 12.5971 8.85156 12.3117 8.85156C12.0263 8.85156 11.7949 9.08294 11.7949 9.36836C11.7949 9.65378 12.0263 9.88516 12.3117 9.88516Z" fill="#FFCC00"/>
<path id="Vector_11" d="M4.8125 12.8078L5.54023 12.0801L6.26797 12.8078L5.54023 13.5355L4.8125 12.8078ZM12.4941 13.5918L13.2184 12.8676L13.9461 13.5953L13.2184 14.3266L12.4941 13.5918Z" fill="#FFCC00"/>
</g>
<defs>
<clipPath id="clip0_186_6339">
<rect width="18" height="18" fill="white"/>
</clipPath>
</defs>
</svg>
