<svg width="18" height="18" viewBox="0 0 18 18" fill="none" xmlns="http://www.w3.org/2000/svg">
<g id="ck" clip-path="url(#clip0_186_6376)">
<path id="Vector" d="M0 0H18V18H0V0Z" fill="#000066"/>
<path id="Vector_2" fill-rule="evenodd" clip-rule="evenodd" d="M12.1221 8.7918L12.3225 8.14844L11.7811 7.73711L12.4631 7.73008L12.6916 7.09375L12.9131 7.73008L13.5951 7.75117L13.0467 8.15195L13.2436 8.79883L12.6846 8.41211M13.7287 8.91836L14.1295 8.38047L13.7568 7.80742L14.4037 8.03242L14.8256 7.51211V8.19062L15.4584 8.44023L14.8115 8.63359L14.7799 9.30859L14.3826 8.75312M10.5857 9.3332L10.5576 8.6582L9.91074 8.45781L10.5506 8.21172V7.54023L10.9725 8.06406L11.6193 7.84609L11.2396 8.41211L11.6404 8.95352L10.9865 8.77773M9.45371 10.3598L9.17246 9.74805L8.49746 9.81836L8.98965 9.34375L8.73652 8.72148L9.32363 9.03789L9.83691 8.58086L9.70684 9.25234L10.2799 9.59336L9.61191 9.6918M8.93691 11.8363L8.42363 11.4109L7.84355 11.7625L8.08965 11.1191L7.59746 10.6691L8.26191 10.7008L8.53262 10.068L8.69785 10.7289L9.3623 10.7887L8.7998 11.1684M8.92285 13.4992L8.28301 13.3129L7.89629 13.8754L7.86816 13.1828L7.23535 12.9719L7.85762 12.7293V12.0367L8.26895 12.5816L8.90176 12.3672L8.53262 12.9402M9.67168 14.9055L9.01426 14.9969L8.88066 15.6684L8.57832 15.0461L7.91738 15.1094L8.39199 14.6348L8.11426 14.002L8.7084 14.3289L9.20059 13.8719L9.09512 14.5504M10.8318 16.0164L10.2447 16.3328L10.3502 17.0113L9.85449 16.5332L9.25684 16.825L9.53809 16.2133L9.06348 15.7176L9.73144 15.816L10.0373 15.2184L10.1674 15.8863M12.2451 16.2379L11.9287 16.8285L12.3787 17.3383L11.7072 17.2117L11.3627 17.7883L11.2678 17.1203L10.6033 16.9656L11.215 16.6773L11.1482 16.0094L11.6229 16.498M13.8377 15.9918L13.8131 16.6668L14.4459 16.9129L13.792 17.1098L13.7463 17.7812L13.3596 17.2293L12.6986 17.4016L13.117 16.8602L12.7549 16.2941L13.3982 16.5121M15.5006 8.66523L15.9611 9.15391L16.5764 8.86914L16.26 9.48086L16.6994 9.98359L16.042 9.87812L15.6975 10.4758L15.6096 9.79727L14.9557 9.65664L15.5604 9.35078M16.8822 10.1629L17.0932 10.8062L17.7646 10.8168L17.2197 11.2281L17.4025 11.882L16.8541 11.4953L16.2916 11.8855L16.5025 11.2352L15.9682 10.8273L16.6467 10.8098M17.399 12.093L17.3217 12.7609L17.9299 13.0633L17.2619 13.2039L17.1564 13.8719L16.8225 13.2848L16.151 13.3973L16.608 12.8945L16.2986 12.2969L16.9209 12.5746M17.0334 14.1109L16.7346 14.7121L17.2021 15.2043L16.5307 15.1059L16.2037 15.693L16.0877 15.0285L15.4197 14.8984L16.0174 14.5891L15.9295 13.9211L16.4217 14.3957M16.0385 15.9074L15.4725 16.259L15.6166 16.927L15.0963 16.484L14.5162 16.8145L14.7623 16.1816L14.2561 15.7176L14.9275 15.7738L15.1982 15.1551L15.3705 15.823" fill="white"/>
<path id="Vector_3" d="M0 -0.0175781H9V8.98242H0V-0.0175781Z" fill="#000066"/>
<path id="Vector_4" d="M9 -0.0175781V1.10742L5.66016 4.48242L9 7.76953V8.98242H7.82227L4.46484 5.67773L1.19531 8.98242H0V7.78711L3.26953 4.5L0 1.2832V-0.0175781H1.08984L4.46484 3.28711L7.73438 -0.0175781H9Z" fill="white"/>
<path id="Vector_5" d="M3.23438 5.67773L3.42773 6.27539L0.738281 8.98242H0V8.92969L3.23438 5.67773ZM5.41406 5.4668L6.36328 5.60742L9 8.19141V8.98242L5.41406 5.4668ZM9 -0.0175781L5.625 3.42773L5.55469 2.6543L8.19141 -0.0175781H9ZM0 0L3.39258 3.32227L2.35547 3.18164L0 0.84375V0Z" fill="#C8102E"/>
<path id="Vector_6" d="M3.09375 -0.0175781V8.98242H5.90625V-0.0175781H3.09375ZM0 3.07617V5.88867H9V3.07617H0Z" fill="white"/>
<path id="Vector_7" d="M0 3.63867V5.32617H9V3.63867H0ZM3.65625 -0.0175781V8.98242H5.34375V-0.0175781H3.65625Z" fill="#C8102E"/>
</g>
<defs>
<clipPath id="clip0_186_6376">
<rect width="18" height="18" fill="white"/>
</clipPath>
</defs>
</svg>
