<svg width="18" height="18" viewBox="0 0 18 18" fill="none" xmlns="http://www.w3.org/2000/svg">
<g id="cm" clip-path="url(#clip0_186_6384)">
<path id="Vector" d="M0 0H6.00117V18H0V0Z" fill="#007A5E"/>
<path id="Vector_2" d="M6.00098 0H11.9986V18H6.00098V0Z" fill="#CE1126"/>
<path id="Vector_3" d="M11.999 0H18.0002V18H11.999V0Z" fill="#FCD116"/>
<g id="Group">
<g id="cm-b">
<path id="cm-a" d="M9 7.40039L8.5 8.92039L9.26 9.18039L9 7.40039Z" fill="#FCD116"/>
<path id="cm-a_2" d="M9 7.40039L9.5 8.92039L8.74 9.18039L9 7.40039Z" fill="#FCD116"/>
</g>
<g id="cm-b_2">
<path id="cm-a_3" d="M10.5217 8.50678L8.92158 8.50096L8.90916 9.30411L10.5217 8.50678Z" fill="#FCD116"/>
<path id="cm-a_4" d="M10.5213 8.50689L9.23017 9.45213L8.74804 8.80967L10.5213 8.50689Z" fill="#FCD116"/>
</g>
<g id="cm-b_3">
<path id="cm-a_5" d="M9.94119 10.2939L9.45227 8.77029L8.68459 9.00666L9.94119 10.2939Z" fill="#FCD116"/>
<path id="cm-a_6" d="M9.94162 10.294L8.64367 9.35818L9.1057 8.70112L9.94162 10.294Z" fill="#FCD116"/>
</g>
<g id="cm-b_4">
<path id="cm-a_7" d="M8.06033 10.294L9.35828 9.35818L8.89625 8.70112L8.06033 10.294Z" fill="#FCD116"/>
<path id="cm-a_8" d="M8.06076 10.2939L8.54969 8.77029L9.31736 9.00666L8.06076 10.2939Z" fill="#FCD116"/>
</g>
<g id="cm-b_5">
<path id="cm-a_9" d="M7.47873 8.50689L8.76983 9.45213L9.25196 8.80967L7.47873 8.50689Z" fill="#FCD116"/>
<path id="cm-a_10" d="M7.4783 8.50678L9.07842 8.50096L9.09084 9.30411L7.4783 8.50678Z" fill="#FCD116"/>
</g>
</g>
</g>
<defs>
<clipPath id="clip0_186_6384">
<rect width="18" height="18" fill="white"/>
</clipPath>
</defs>
</svg>
