<svg width="18" height="18" viewBox="0 0 18 18" fill="none" xmlns="http://www.w3.org/2000/svg">
<g id="cn" clip-path="url(#clip0_186_6405)">
<path id="Vector" d="M0 0H18V18H0V0Z" fill="#EE1C25"/>
<path id="Vector_2" d="M7.1998 3.69078L2.6098 6.66078L4.4998 1.80078L6.1198 6.66078L1.7998 3.69078H7.1998Z" fill="#FFFF00"/>
<path id="Vector_3" d="M8.31731 1.16123L9.95281 1.96227L8.24088 2.25641L9.35062 0.960059L9.24375 2.70309L8.31731 1.16123Z" fill="#FFFF00"/>
<path id="Vector_4" d="M10.4013 2.75028L11.597 4.12553L9.90444 3.73007L11.4322 2.9672L10.655 4.53233L10.4013 2.75028Z" fill="#FFFF00"/>
<path id="Vector_5" d="M10.7781 5.36247L11.3083 7.10701L9.92399 6.05432L11.631 5.98174L10.2817 7.09367L10.7781 5.36247Z" fill="#FFFF00"/>
<path id="Vector_6" d="M9.35175 7.22998L9.1677 9.04213L8.29785 7.53823L9.89895 8.12953L8.22675 8.63398L9.35175 7.22998Z" fill="#FFFF00"/>
</g>
<defs>
<clipPath id="clip0_186_6405">
<rect width="18" height="18" fill="white"/>
</clipPath>
</defs>
</svg>
