<svg width="18" height="18" viewBox="0 0 18 18" fill="none" xmlns="http://www.w3.org/2000/svg">
<g id="cu" clip-path="url(#clip0_186_6417)">
<g id="Clip path group">
<mask id="mask0_186_6417" style="mask-type:luminance" maskUnits="userSpaceOnUse" x="0" y="0" width="18" height="18">
<g id="cu-a">
<path id="Vector" d="M0 0H18V18H0V0Z" fill="white"/>
</g>
</mask>
<g mask="url(#mask0_186_6417)">
<g id="Group">
<path id="Vector_2" fill-rule="evenodd" clip-rule="evenodd" d="M-1.125 0H25.875V18H-1.125V0Z" fill="#002A8F"/>
<path id="Vector_3" fill-rule="evenodd" clip-rule="evenodd" d="M-1.125 3.59961H25.875V7.19961H-1.125V3.59961ZM-1.125 10.7996H25.875V14.3996H-1.125V10.7996Z" fill="white"/>
<path id="Vector_4" fill-rule="evenodd" clip-rule="evenodd" d="M-1.125 0L14.3684 8.98945L-1.125 17.9648V0Z" fill="#CB1515"/>
<path id="Vector_5" fill-rule="evenodd" clip-rule="evenodd" d="M5.68828 11.4426L4.01836 10.1945L2.35898 11.4531L2.97773 9.41055L1.31836 8.14492L3.36797 8.13086L4.0043 6.0918L4.65469 8.12383L6.7043 8.12734L5.05547 9.40352L5.68828 11.4426Z" fill="white"/>
</g>
</g>
</g>
</g>
<defs>
<clipPath id="clip0_186_6417">
<rect width="18" height="18" fill="white"/>
</clipPath>
</defs>
</svg>
