<svg width="18" height="18" viewBox="0 0 18 18" fill="none" xmlns="http://www.w3.org/2000/svg">
<g id="cv" clip-path="url(#clip0_186_6441)">
<g id="Clip path group">
<mask id="mask0_186_6441" style="mask-type:luminance" maskUnits="userSpaceOnUse" x="0" y="0" width="18" height="18">
<g id="cv-a">
<path id="Vector" d="M0 0H18V18H0V0Z" fill="white"/>
</g>
</mask>
<g mask="url(#mask0_186_6441)">
<g id="Group">
<path id="Vector_2" fill-rule="evenodd" clip-rule="evenodd" d="M-4.33828 8.19141H25.418V15.4336H-4.3418L-4.33828 8.19141Z" fill="white"/>
<path id="Vector_3" fill-rule="evenodd" clip-rule="evenodd" d="M-4.31738 0H25.4248V9.02109H-4.31738V0ZM-4.30684 13.5668H25.6498V18H-4.30684V13.5668Z" fill="#081873"/>
<path id="Vector_4" fill-rule="evenodd" clip-rule="evenodd" d="M-4.30664 10.6387H25.4355V12.0309H-4.30664V10.6387Z" fill="#DE3929"/>
<path id="Vector_5" fill-rule="evenodd" clip-rule="evenodd" d="M4.60547 14.034L4.8375 14.7512H5.58984L4.97813 15.1977L5.21016 15.9184L4.60547 15.4684L3.99375 15.9148L4.2293 15.1941L3.61758 14.7477H4.37344M11.1445 8.80273L11.3801 9.52344H12.1289L11.5172 9.96641L11.7492 10.6871L11.1375 10.2406L10.5258 10.6871L10.7578 9.96641L10.1461 9.52344H10.9055M3.10078 11.7875L3.33281 12.5082H4.08867L3.48047 12.9582L3.71602 13.6754L3.1043 13.2324L2.49258 13.6754L2.72461 12.9582L2.11289 12.5117H2.86875M11.1445 11.5836L11.3801 12.3008H12.1289L11.5172 12.7473L11.7492 13.4645L11.1375 13.0215L10.5258 13.468L10.7578 12.7473L10.1461 12.3008H10.9055M9.48164 6.61602L9.71719 7.3332H10.4766L9.86484 7.77969L10.0969 8.50039L9.48516 8.05391L8.87344 8.50039L9.10898 7.77969L8.49375 7.3332H9.25313M6.98555 5.74414L7.22109 6.46484H7.97695L7.36523 6.90781L7.59727 7.62852L6.98555 7.18555L6.37383 7.62852L6.60938 6.90781L5.99766 6.46484H6.75M4.48242 6.5668L4.71797 7.2875H5.47383L4.86211 7.73047L5.09766 8.45117L4.48242 8.00469L3.8707 8.45117L4.10625 7.73047L3.49453 7.2875H4.25391M3.03047 8.80625L3.2625 9.52695H4.02188L3.40664 9.96992L3.64219 10.6906L3.03047 10.2441L2.41875 10.6906L2.65078 9.96992L2.03906 9.52695H2.79492M6.98555 14.7793L7.22109 15.5H7.97695L7.36523 15.943L7.60078 16.6637L6.98555 16.2172L6.37383 16.6637L6.60938 15.943L5.99766 15.5H6.75M9.63984 14.034L9.87187 14.7512H10.6277L10.0195 15.1977L10.2551 15.9184L9.64336 15.4719L9.02812 15.9184L9.26367 15.1977L8.65195 14.7512H9.40781" fill="#FFCE08"/>
</g>
</g>
</g>
</g>
<defs>
<clipPath id="clip0_186_6441">
<rect width="18" height="18" fill="white"/>
</clipPath>
</defs>
</svg>
