<svg width="18" height="18" viewBox="0 0 18 18" fill="none" xmlns="http://www.w3.org/2000/svg">
<g id="cw" clip-path="url(#clip0_186_6432)">
<g id="Clip path group">
<mask id="mask0_186_6432" style="mask-type:luminance" maskUnits="userSpaceOnUse" x="0" y="0" width="19" height="19">
<g id="cw-a">
<path id="Vector" d="M0 0H18.0352V18.0352H0V0Z" fill="white"/>
</g>
</mask>
<g mask="url(#mask0_186_6432)">
<g id="Group">
<path id="Vector_2" d="M0 0H27.0527V18.0352H0V0Z" fill="#002B7F"/>
<path id="Vector_3" d="M0 11.2715H27.0527V13.5259H0V11.2715Z" fill="#F9E814"/>
<path id="Vector_4" d="M3.00596 1.50391L3.30654 2.55596H4.50889L3.45684 3.00684L3.75742 4.05889L3.00596 3.60801L2.1042 4.20918L2.40479 3.15713L1.65332 2.55596H2.70537L3.00596 1.50391Z" fill="white"/>
<path id="Vector_5" d="M6.01152 4.00781L6.4123 5.41055H8.01543L6.6127 6.01172L7.01348 7.41445L6.01152 6.81328L4.80918 7.61484L5.20996 6.21211L4.20801 5.41055H5.61074L6.01152 4.00781Z" fill="white"/>
</g>
</g>
</g>
</g>
<defs>
<clipPath id="clip0_186_6432">
<rect width="18" height="18" fill="white"/>
</clipPath>
</defs>
</svg>
