<svg width="18" height="18" viewBox="0 0 18 18" fill="none" xmlns="http://www.w3.org/2000/svg">
<g id="cx" clip-path="url(#clip0_186_6310)">
<path id="Vector" d="M0 0H18V18H0V0Z" fill="#0021AD"/>
<path id="Vector_2" d="M0 0H18V18L0 0Z" fill="#1C8A42"/>
<path id="Vector_3" d="M9.0002 11.1684C10.1982 11.1684 11.1693 10.1972 11.1693 8.99922C11.1693 7.80124 10.1982 6.83008 9.0002 6.83008C7.80221 6.83008 6.83105 7.80124 6.83105 8.99922C6.83105 10.1972 7.80221 11.1684 9.0002 11.1684Z" fill="#FFC639"/>
<path id="Vector_4" d="M7.67441 8.02559C7.82559 8.22949 8.04707 8.57051 8.22988 8.48262C8.37051 8.48262 8.44082 8.49316 8.46191 8.58809C8.69747 8.61164 8.93513 8.57459 9.15234 8.48045C9.36954 8.3863 9.55907 8.2382 9.70293 8.0502C9.70293 8.0502 9.73105 8.0502 9.72051 7.88145C9.72051 7.8041 9.82598 7.82168 9.82598 7.84629C9.84004 7.88145 9.83652 7.90957 9.85762 7.90957C9.8998 7.89551 9.95957 7.80059 10.0088 7.74082C10.0193 7.7127 10.0123 7.68457 10.0158 7.64941C10.0439 7.58613 10.1072 7.6002 10.1213 7.63535C10.1318 7.65645 10.1318 7.67051 10.1459 7.69512C10.2092 7.7373 10.3287 7.69512 10.3393 7.69512C10.3498 7.64238 10.385 7.64941 10.385 7.64941C10.4271 7.63887 10.4096 7.64238 10.4412 7.65645C10.4131 7.94473 10.4975 7.95879 10.4904 8.10645C10.4904 8.27168 10.4412 8.31738 10.4412 8.38066C10.4553 8.45801 10.6979 8.46152 10.617 8.5248C10.5396 8.56699 10.617 8.64082 10.501 8.66895C10.1705 8.8377 10.1072 8.98184 10.1072 8.98184C10.1072 8.98184 10.0264 9.13652 10.0158 9.13652C9.95957 9.24199 9.89277 9.18574 9.85059 9.23496C9.83301 9.29824 9.81191 9.44238 9.85059 9.51621C9.86816 9.61465 9.85059 9.6709 9.82246 9.77285C9.80137 9.98379 9.71699 10.0154 9.70645 10.0893C9.67129 10.1666 9.71699 10.5393 9.67832 10.5393C9.43223 10.5428 9.2459 10.4936 9.15098 10.4725C9.24238 10.0646 9.20723 9.70605 9.20723 9.6709C9.18262 9.3791 8.77129 9.44941 8.70801 9.41074C8.65527 9.4002 8.62363 9.35801 8.60254 9.34043C8.54629 9.3334 8.5252 9.31934 8.46543 9.3123C8.4373 9.32637 8.45488 9.34394 8.38809 9.36152C8.22637 9.38262 8.15254 9.2209 8.15254 9.2209C8.15957 9.16465 7.7834 9.23144 7.57598 9.18574C7.4916 9.23144 7.45645 9.36855 7.38613 9.38613C7.38613 9.42832 7.27363 9.35098 7.24902 9.30879C7.24902 9.18574 7.35801 9.13301 7.35801 9.13301C7.4459 9.06621 7.49863 9.05566 7.54434 9.01348C7.56543 8.90801 7.55488 8.82715 7.60059 8.74629C7.63574 8.68652 7.69551 8.71113 7.73418 8.68652C7.77637 8.6584 7.79395 8.47559 7.75527 8.42988L7.57949 8.27168C7.52324 8.11348 7.64277 8.01504 7.67441 8.02559Z" fill="#1C8A42"/>
<path id="Vector_5" d="M15.9012 2.23973C15.8028 1.85301 14.9203 1.0163 14.2629 0.481921C14.1047 0.376453 14.0028 0.439734 14.0203 0.590906C14.1047 0.731531 14.1645 0.879187 14.2489 1.0163C14.2699 1.1077 14.3156 1.17098 14.3367 1.26239C14.3367 1.26239 14.3438 1.42059 14.3578 1.43817C14.4718 1.55252 14.5521 1.69605 14.5899 1.85301C14.6939 2.07432 14.8408 2.2727 15.0223 2.43661C15.2543 2.58427 15.0856 3.03778 15.0926 3.28036C15.0926 3.43153 14.9801 3.41395 14.8852 3.39637C14.1293 2.70028 13.3805 2.70028 12.7196 2.49989C12.4594 2.47176 12.4559 2.59481 12.5403 2.66161C13.0008 3.1538 13.4367 3.4913 14.0063 3.77255L14.2946 3.95184L14.625 4.22606C14.8781 4.3913 14.8992 4.54247 14.8992 4.55653C14.9063 4.86591 14.741 5.10497 14.6953 5.19989C14.6074 5.52684 14.4317 5.58661 14.4317 5.58661C13.0219 6.53583 12.2801 6.78192 9.98792 6.49012C9.95276 6.47255 9.73479 6.5077 9.98792 6.59911C10.5715 6.79247 12.0024 7.10536 13.3875 6.44794C13.7215 6.21591 13.9465 6.29325 14.1856 6.15262C14.5828 5.90653 15.1453 5.60419 15.2508 5.57255C15.5567 5.40731 16.4215 5.22098 16.6219 5.05575C16.8504 5.03817 17.086 5.00653 17.1035 4.80966C17.1774 4.76395 17.2864 4.79911 17.3672 4.63739C17.55 4.60575 17.5184 4.54247 17.5184 4.54247C17.4727 4.41239 17.3074 4.35966 17.1844 4.26825C17.0051 4.20848 16.8821 4.19091 16.752 4.25419L16.6289 4.31044C16.6289 4.31044 16.4356 4.28231 16.4356 4.26825C16.0102 4.24364 16.0489 2.82684 15.9012 2.23973Z" fill="#FFC639"/>
<g id="Group">
<path id="cx-a" d="M4.10192 10.9957L3.79472 10.7077L3.48512 10.9909L3.51872 10.5733L3.10352 10.5061L3.45152 10.2709L3.24512 9.90613L3.64592 10.0333L3.80192 9.64453L3.95312 10.0357L4.35392 9.91573L4.14272 10.2757L4.48832 10.5157L4.07312 10.5757L4.10192 10.9957Z" fill="white"/>
<path id="Vector_6" d="M5.18627 14.4637L4.85507 14.2453L4.53347 14.4757L4.64867 14.1037L4.32227 13.8757L4.72067 13.8661L4.84067 13.4941L4.97507 13.8613L5.37587 13.8589L5.05667 14.0917L5.18387 14.4613L5.18627 14.4637Z" fill="white"/>
<path id="cx-a_2" d="M4.16149 17.4547L3.85429 17.1667L3.54469 17.4499L3.57829 17.0323L3.16309 16.9651L3.51109 16.7299L3.30469 16.3651L3.70549 16.4923L3.86149 16.1035L4.01269 16.4947L4.41349 16.3747L4.20229 16.7347L4.54789 16.9747L4.13269 17.0347L4.16149 17.4547Z" fill="white"/>
<path id="cx-a_3" d="M1.41149 13.9528L1.10429 13.6648L0.794688 13.948L0.828288 13.5304L0.413086 13.4632L0.761088 13.228L0.554686 12.8632L0.955488 12.9904L1.11149 12.6016L1.26269 12.9928L1.66349 12.8728L1.45229 13.2328L1.79789 13.4728L1.38269 13.5328L1.41149 13.9528Z" fill="white"/>
<path id="cx-a_4" d="M6.70348 13.0348L6.39628 12.7468L6.08668 13.03L6.12028 12.6124L5.70508 12.5452L6.05308 12.31L5.84668 11.9452L6.24748 12.0724L6.40348 11.6836L6.55468 12.0748L6.95548 11.9548L6.74428 12.3148L7.08988 12.5548L6.67468 12.6148L6.70348 13.0348Z" fill="white"/>
</g>
</g>
<defs>
<clipPath id="clip0_186_6310">
<rect width="18" height="18" fill="white"/>
</clipPath>
</defs>
</svg>
