<svg width="18" height="18" viewBox="0 0 18 18" fill="none" xmlns="http://www.w3.org/2000/svg">
<g id="cy" clip-path="url(#clip0_186_6305)">
<path id="Vector" d="M0 0H18V18H0V0Z" fill="white"/>
<path id="cy-a" d="M8.54256 14.9484C8.53861 14.9468 8.53502 14.9444 8.53202 14.9414V14.9379L8.4828 14.8887C8.43355 14.8332 8.38663 14.7758 8.34217 14.7164L8.15585 14.4844L8.13124 14.4527L7.8992 14.3824L7.73045 14.3016L7.81835 14.1996L8.13475 14.3332L8.36678 14.3824L8.79569 14.6988C8.71316 14.7708 8.63342 14.8458 8.55663 14.9238C8.55381 14.9283 8.55146 14.933 8.5496 14.9379L8.57772 14.9203L8.60585 14.9449L8.54608 14.9484H8.54256ZM6.94295 14.4668C6.73905 14.4668 6.53866 14.4105 6.3453 14.298C6.15194 14.1855 6.37342 14.2523 6.43319 14.2066C6.48944 14.1645 6.59491 14.1117 6.76717 14.1117C6.97108 14.1117 7.21717 14.182 7.50194 14.3156C7.49139 14.3227 7.26639 14.4668 6.94295 14.4668ZM6.06405 14.2734C6.02538 14.2734 5.99374 14.2559 5.96561 14.2312C5.94427 14.206 5.92975 14.1758 5.92342 14.1434C5.91413 14.103 5.91058 14.0616 5.91288 14.0203C5.92819 14.0124 5.94492 14.0076 5.9621 14.0062C6.03944 14.0062 6.0992 14.0766 6.12381 14.1398C6.13788 14.175 6.14139 14.2066 6.13436 14.2312C6.12733 14.2559 6.09569 14.2699 6.06405 14.2699V14.2734ZM7.61092 14.0906C7.09061 14.0203 6.87264 13.8305 6.77772 13.6828C6.71787 13.5952 6.68938 13.4899 6.69686 13.384C6.69686 13.384 6.73202 13.377 6.77772 13.377C6.91835 13.377 7.26991 13.4473 7.61092 14.0906ZM6.54569 13.9887C6.3242 13.9887 6.15194 13.9535 6.04295 13.8762C5.99441 13.8453 5.95545 13.8014 5.93045 13.7496C5.92157 13.7307 5.91564 13.7105 5.91288 13.6898C5.99774 13.6557 6.0886 13.6389 6.18006 13.6406C6.35585 13.6406 6.616 13.6969 6.89022 13.9641C6.7759 13.9784 6.66089 13.9866 6.54569 13.9887ZM5.46991 13.9465C5.23436 13.9465 4.91092 13.8762 4.71053 13.6758C4.87763 13.6361 5.04858 13.6149 5.2203 13.6125C5.44178 13.6125 5.60702 13.6547 5.71952 13.7391C5.7617 13.7672 5.7828 13.7953 5.78631 13.8234C5.78983 13.8445 5.77928 13.8691 5.75467 13.8867C5.70545 13.9219 5.61405 13.9465 5.48749 13.9465H5.46991ZM4.70702 13.5598C4.69347 13.5593 4.68018 13.5559 4.66805 13.5498C4.65592 13.5437 4.64523 13.5352 4.6367 13.5246C4.61884 13.5021 4.60677 13.4755 4.60155 13.4473C4.58749 13.391 4.591 13.3383 4.591 13.3383C4.60158 13.3317 4.61371 13.3281 4.62616 13.3277C4.66131 13.3277 4.68944 13.3453 4.70702 13.3629C4.72889 13.3848 4.7457 13.4112 4.75624 13.4402C4.76678 13.4754 4.7703 13.5 4.76327 13.5211C4.75624 13.5387 4.73514 13.5563 4.70702 13.5563V13.5598ZM6.46483 13.5176C6.42616 13.5176 6.39452 13.5035 6.36991 13.4789C6.34857 13.4537 6.33404 13.4234 6.32772 13.391C6.31809 13.3496 6.31454 13.3069 6.31717 13.2645C6.33164 13.2582 6.34713 13.2546 6.36288 13.2539C6.44022 13.2539 6.5035 13.3207 6.5246 13.384C6.53866 13.4191 6.54217 13.4543 6.53514 13.4754C6.52459 13.5 6.49647 13.5176 6.46483 13.5176ZM5.60702 13.4824C5.13592 13.4648 4.88983 13.3313 4.7703 13.2223C4.71675 13.176 4.67259 13.1199 4.64022 13.057C4.62955 13.0345 4.6213 13.011 4.61561 12.9867C4.61561 12.9867 4.6578 12.9691 4.73163 12.9691H4.74217C4.90038 12.9691 5.22733 13.0359 5.60702 13.4824ZM6.1203 13.4332C5.85103 13.4043 5.60069 13.281 5.41366 13.0852C5.34308 13.0106 5.28916 12.9219 5.25545 12.825C5.25545 12.825 5.30467 12.8145 5.37499 12.8109C5.38553 12.8106 5.39608 12.8106 5.40663 12.8109C5.59647 12.8145 5.94452 12.9023 6.1203 13.4332ZM4.17264 13.2504C4.04608 13.2504 3.92655 13.2398 3.81405 13.2082C3.61366 13.159 3.52928 13.0852 3.49061 13.0289C3.47569 13.0055 3.46609 12.9791 3.46249 12.9516C3.46116 12.9411 3.46116 12.9304 3.46249 12.9199C3.46249 12.9199 3.59256 12.8848 3.77538 12.8812C3.86857 12.8796 3.96167 12.8878 4.05311 12.9059C4.24473 12.9456 4.41567 13.0529 4.53475 13.2082C4.53475 13.2082 4.38358 13.2504 4.17264 13.2504ZM5.05155 12.934C5.01639 12.934 4.98124 12.9164 4.95663 12.8918C4.93529 12.8666 4.92076 12.8363 4.91444 12.8039C4.90505 12.7636 4.9015 12.7222 4.90389 12.6809C4.91836 12.6746 4.93385 12.671 4.9496 12.6703H4.95311C5.03045 12.6703 5.09022 12.7336 5.11483 12.8004C5.12889 12.8355 5.13241 12.8637 5.12186 12.8918C5.11131 12.9164 5.0867 12.9305 5.05155 12.9305V12.934ZM4.39061 12.8391C4.3871 12.8391 4.21131 12.7969 4.03202 12.6844C3.86327 12.5789 3.66288 12.4031 3.63475 12.1219C3.60663 11.8406 3.65233 12.1148 3.67694 12.1148H3.68397C3.73319 12.1148 3.83514 12.1289 3.95819 12.2203C4.11639 12.3398 4.26053 12.5508 4.39061 12.8426V12.8391ZM4.82303 12.825C4.82303 12.825 4.69647 12.7758 4.54178 12.6422C4.31897 12.4533 4.14526 12.2133 4.03553 11.9426C4.03553 11.9426 4.07069 11.925 4.12342 11.9215C4.12694 11.9213 4.13046 11.9213 4.13397 11.9215H4.14803C4.21835 11.9215 4.32733 11.9531 4.45038 12.0867C4.62638 12.3031 4.75351 12.5549 4.82303 12.825ZM3.69803 12.7898C3.55741 12.7898 3.50819 12.7125 3.49061 12.6809C3.47683 12.6451 3.47201 12.6064 3.47655 12.5684C3.49952 12.5622 3.5231 12.5587 3.54686 12.5578H3.55389C3.66639 12.5578 3.7578 12.6176 3.79647 12.6738C3.8035 12.6844 3.82811 12.7266 3.80702 12.7547C3.79295 12.7793 3.7578 12.7898 3.70155 12.7898H3.69803ZM3.38163 12.3891C3.30077 12.3891 3.17772 12.382 3.04764 12.3609C2.91756 12.3363 2.84374 12.2273 2.80506 12.1395C2.77914 12.08 2.7614 12.0173 2.75233 11.9531C3.1496 11.9637 3.33944 12.0797 3.42733 12.1746C3.48186 12.2322 3.51531 12.3065 3.52225 12.3855L3.38163 12.3891ZM3.79647 11.9742C3.76396 11.9335 3.73346 11.8913 3.70506 11.8477C3.65585 11.7738 3.61366 11.6965 3.61366 11.6367C3.61042 11.5497 3.60338 11.4629 3.59256 11.3766L3.56795 11.2008C3.5785 11.2078 3.81756 11.2957 3.81756 11.5207C3.81756 11.7457 3.79647 11.9707 3.79647 11.9742ZM3.4871 11.9531H3.47655C3.40624 11.9391 3.28319 11.8828 3.14608 11.8055C3.01595 11.7363 2.89735 11.6474 2.79452 11.5418C2.73124 11.468 2.68905 11.3484 2.68202 11.1902C2.67631 11.12 2.67631 11.0495 2.68202 10.9793C2.69534 10.9733 2.70963 10.9697 2.7242 10.9688C2.77694 10.9688 2.82967 10.9934 2.90702 11.0461C2.97728 11.0954 3.04315 11.1507 3.10389 11.2113C3.17963 11.2871 3.25122 11.3669 3.31835 11.4504C3.39307 11.5897 3.45769 11.7342 3.5117 11.8828V11.9355C3.50889 11.9418 3.50389 11.9468 3.49764 11.9496C3.493 11.9506 3.48822 11.9506 3.48358 11.9496L3.4871 11.9531Z" fill="#435125"/>
<path id="cy-a_2" d="M7.72404 14.9484C7.72799 14.9468 7.73158 14.9444 7.73458 14.9414V14.9379L7.7838 14.8887C7.83305 14.8332 7.87997 14.7758 7.92443 14.7164L8.11076 14.4844L8.13537 14.4527L8.3674 14.3824L8.53615 14.3016L8.44826 14.1996L8.13185 14.3332L7.89982 14.3824L7.47091 14.6988C7.55344 14.7708 7.63318 14.8458 7.70998 14.9238C7.71279 14.9283 7.71515 14.933 7.71701 14.9379L7.68888 14.9203L7.66076 14.9449L7.72052 14.9484H7.72404ZM9.32365 14.4668C9.52755 14.4668 9.72794 14.4105 9.9213 14.298C10.1147 14.1855 9.89318 14.2523 9.83341 14.2066C9.77716 14.1645 9.67169 14.1117 9.49943 14.1117C9.29552 14.1117 9.04943 14.182 8.76466 14.3156C8.77521 14.3227 9.00021 14.4668 9.32365 14.4668ZM10.2026 14.2734C10.2412 14.2734 10.2729 14.2559 10.301 14.2312C10.3223 14.206 10.3369 14.1758 10.3432 14.1434C10.3525 14.103 10.356 14.0616 10.3537 14.0203C10.3384 14.0124 10.3217 14.0076 10.3045 14.0062C10.2272 14.0062 10.1674 14.0766 10.1428 14.1398C10.1287 14.175 10.1252 14.2066 10.1322 14.2312C10.1393 14.2559 10.1709 14.2699 10.2026 14.2699V14.2734ZM8.65568 14.0906C9.17599 14.0203 9.39396 13.8305 9.48888 13.6828C9.54873 13.5952 9.57722 13.4899 9.56974 13.384C9.56974 13.384 9.53458 13.377 9.48888 13.377C9.34826 13.377 8.99669 13.4473 8.65568 14.0906ZM9.72091 13.9887C9.9424 13.9887 10.1147 13.9535 10.2236 13.8762C10.2722 13.8453 10.3111 13.8014 10.3361 13.7496C10.345 13.7307 10.351 13.7105 10.3537 13.6898C10.2689 13.6557 10.178 13.6389 10.0865 13.6406C9.91076 13.6406 9.6506 13.6969 9.37638 13.9641C9.4907 13.9784 9.60571 13.9866 9.72091 13.9887ZM10.7967 13.9465C11.0322 13.9465 11.3557 13.8762 11.5561 13.6758C11.389 13.6361 11.218 13.6149 11.0463 13.6125C10.8248 13.6125 10.6596 13.6547 10.5471 13.7391C10.5049 13.7672 10.4838 13.7953 10.4803 13.8234C10.4768 13.8445 10.4873 13.8691 10.5119 13.8867C10.5611 13.9219 10.6526 13.9465 10.7791 13.9465H10.7967ZM11.5596 13.5598C11.5731 13.5593 11.5864 13.5559 11.5986 13.5498C11.6107 13.5437 11.6214 13.5352 11.6299 13.5246C11.6478 13.5021 11.6598 13.4755 11.6651 13.4473C11.6791 13.391 11.6756 13.3383 11.6756 13.3383C11.665 13.3317 11.6529 13.3281 11.6404 13.3277C11.6053 13.3277 11.5772 13.3453 11.5596 13.3629C11.5377 13.3848 11.5209 13.4112 11.5104 13.4402C11.4998 13.4754 11.4963 13.5 11.5033 13.5211C11.5104 13.5387 11.5315 13.5563 11.5596 13.5563V13.5598ZM9.80177 13.5176C9.84044 13.5176 9.87208 13.5035 9.89669 13.4789C9.91803 13.4537 9.93256 13.4234 9.93888 13.391C9.94851 13.3496 9.95206 13.3069 9.94943 13.2645C9.93496 13.2582 9.91947 13.2546 9.90373 13.2539C9.82638 13.2539 9.7631 13.3207 9.74201 13.384C9.72794 13.4191 9.72443 13.4543 9.73146 13.4754C9.74201 13.5 9.77013 13.5176 9.80177 13.5176ZM10.6596 13.4824C11.1307 13.4648 11.3768 13.3313 11.4963 13.2223C11.5499 13.176 11.594 13.1199 11.6264 13.057C11.6371 13.0345 11.6453 13.011 11.651 12.9867C11.651 12.9867 11.6088 12.9691 11.535 12.9691H11.5244C11.3662 12.9691 11.0393 13.0359 10.6596 13.4824ZM10.1463 13.4332C10.4156 13.4043 10.6659 13.281 10.8529 13.0852C10.9235 13.0106 10.9774 12.9219 11.0111 12.825C11.0111 12.825 10.9619 12.8145 10.8916 12.8109C10.8811 12.8106 10.8705 12.8106 10.86 12.8109C10.6701 12.8145 10.3221 12.9023 10.1463 13.4332ZM12.094 13.2504C12.2205 13.2504 12.3401 13.2398 12.4526 13.2082C12.6529 13.159 12.7373 13.0852 12.776 13.0289C12.7909 13.0055 12.8005 12.9791 12.8041 12.9516C12.8054 12.9411 12.8054 12.9304 12.8041 12.9199C12.8041 12.9199 12.674 12.8848 12.4912 12.8812C12.398 12.8796 12.3049 12.8878 12.2135 12.9059C12.0219 12.9456 11.8509 13.0529 11.7319 13.2082C11.7319 13.2082 11.883 13.2504 12.094 13.2504ZM11.2151 12.934C11.2502 12.934 11.2854 12.9164 11.31 12.8918C11.3313 12.8666 11.3458 12.8363 11.3522 12.8039C11.3615 12.7636 11.3651 12.7222 11.3627 12.6809C11.3482 12.6746 11.3328 12.671 11.317 12.6703H11.3135C11.2361 12.6703 11.1764 12.7336 11.1518 12.8004C11.1377 12.8355 11.1342 12.8637 11.1447 12.8918C11.1553 12.9164 11.1799 12.9305 11.2151 12.9305V12.934ZM11.876 12.8391C11.8795 12.8391 12.0553 12.7969 12.2346 12.6844C12.4033 12.5789 12.6037 12.4031 12.6319 12.1219C12.66 11.8406 12.6143 12.1148 12.5897 12.1148H12.5826C12.5334 12.1148 12.4315 12.1289 12.3084 12.2203C12.1502 12.3398 12.0061 12.5508 11.876 12.8426V12.8391ZM11.4436 12.825C11.4436 12.825 11.5701 12.7758 11.7248 12.6422C11.9476 12.4533 12.1213 12.2133 12.2311 11.9426C12.2311 11.9426 12.1959 11.925 12.1432 11.9215C12.1397 11.9213 12.1361 11.9213 12.1326 11.9215H12.1186C12.0483 11.9215 11.9393 11.9531 11.8162 12.0867C11.6402 12.3031 11.5131 12.5549 11.4436 12.825ZM12.5686 12.7898C12.7092 12.7898 12.7584 12.7125 12.776 12.6809C12.7898 12.6451 12.7946 12.6064 12.7901 12.5684C12.7671 12.5622 12.7435 12.5587 12.7197 12.5578H12.7127C12.6002 12.5578 12.5088 12.6176 12.4701 12.6738C12.4631 12.6844 12.4385 12.7266 12.4596 12.7547C12.4736 12.7793 12.5088 12.7898 12.5651 12.7898H12.5686ZM12.885 12.3891C12.9658 12.3891 13.0889 12.382 13.219 12.3609C13.349 12.3363 13.4229 12.2273 13.4615 12.1395C13.4875 12.08 13.5052 12.0173 13.5143 11.9531C13.117 11.9637 12.9272 12.0797 12.8393 12.1746C12.7847 12.2322 12.7513 12.3065 12.7444 12.3855L12.885 12.3891ZM12.4701 11.9742C12.5026 11.9335 12.5331 11.8913 12.5615 11.8477C12.6108 11.7738 12.6529 11.6965 12.6529 11.6367C12.6562 11.5497 12.6632 11.4629 12.674 11.3766L12.6986 11.2008C12.6881 11.2078 12.449 11.2957 12.449 11.5207C12.449 11.7457 12.4701 11.9707 12.4701 11.9742ZM12.7795 11.9531H12.7901C12.8604 11.9391 12.9834 11.8828 13.1205 11.8055C13.2506 11.7363 13.3692 11.6474 13.4721 11.5418C13.5354 11.468 13.5776 11.3484 13.5846 11.1902C13.5903 11.12 13.5903 11.0495 13.5846 10.9793C13.5713 10.9733 13.557 10.9697 13.5424 10.9688C13.4897 10.9688 13.4369 10.9934 13.3596 11.0461C13.2893 11.0954 13.2235 11.1507 13.1627 11.2113C13.087 11.2871 13.0154 11.3669 12.9483 11.4504C12.8735 11.5897 12.8089 11.7342 12.7549 11.8828V11.9355C12.7577 11.9418 12.7627 11.9468 12.769 11.9496C12.7736 11.9506 12.7784 11.9506 12.783 11.9496L12.7795 11.9531Z" fill="#435125"/>
<path id="Vector_2" d="M16.4633 2.86523L16.393 2.89336L16.3648 2.90391L16.2805 2.89688L16.1996 2.93555L16.059 3.03398L16.052 3.0375L15.9992 3.05156L15.95 3.03047L15.9219 3.04453L15.9113 3.10078L15.8867 3.14297L15.8516 3.16758L15.7391 3.17813L15.6441 3.22734L15.5176 3.19219L15.4613 3.2168L15.3383 3.32578L15.275 3.35742H15.2539L15.1695 3.35039L15.1344 3.36445L15.0816 3.41016L14.9832 3.41719L14.9516 3.43828L14.9023 3.53672L14.8496 3.59297L14.8215 3.59648L14.7863 3.58594L14.7617 3.58945L14.7512 3.65273L14.7301 3.68086L14.6598 3.70195L14.6105 3.74766L14.5613 3.76875H14.484L14.4242 3.80391L14.3047 3.81445L14.259 3.86016L14.2449 3.8707L14.2238 3.88477L14.1887 3.90586L14.1781 3.91289L14.1324 3.90234L14.0797 3.92344L14.0586 3.88828L14.0234 3.91289H13.9742L13.9145 3.88828L13.8688 3.86719L13.8336 3.87422L13.823 3.93047V3.9375L13.7879 3.9832L13.7211 4.02188L13.7141 4.03594L13.6402 4.13086L13.4996 4.28203L13.3766 4.3418L13.2535 4.37695L13.1656 4.44727L12.9371 4.56328L12.5785 4.74258L12.5047 4.76719L12.3992 4.78125L12.2129 4.85156L12.0441 4.90078L12.0336 4.9043L12.002 4.91484L11.7699 4.98516L11.6609 4.97461L11.5941 4.99922L11.4254 4.97813L11.3094 4.98164L11.2391 4.9957L11.0984 5.06602L10.8629 5.175L10.7855 5.24531L10.6625 5.31211L10.5219 5.3543V5.29453L10.4727 5.30859L10.4375 5.31914L10.3215 5.33672H10.2582L10.2195 5.32617H10.2125L9.97695 5.40703L9.7168 5.43164L9.58672 5.47383H9.48828L9.425 5.48789L9.30547 5.50547L9.26328 5.49141H9.25274L8.90117 5.50547L8.73945 5.48789L8.66211 5.50547L8.53555 5.45977L8.3457 5.43867L8.30352 5.42461L8.20508 5.39648L8.15938 5.42109L8.12422 5.42461L8.04688 5.39648H8.01523L7.95195 5.42109L7.91328 5.41055L7.87813 5.38242L7.79375 5.37188L7.74453 5.32617L7.46328 5.36484L7.38594 5.34375L7.1293 5.26641L7.08711 5.26992L7.03789 5.30508L6.96055 5.33672L6.89375 5.3543H6.80234L6.69688 5.32969L6.59141 5.27695L6.54922 5.26641L6.46133 5.27695H6.4332L6.27148 5.18906L6.06055 5.05898L5.91641 4.98867L5.86016 4.98164L5.85312 5.00625L5.88125 5.09063L5.8918 5.175L5.88828 5.24883V5.29805L5.89883 5.34023L5.95156 5.39648L5.97266 5.45625L5.99023 5.61445V5.77617L5.96211 6.03281L5.95508 6.06797L5.92344 6.20508L5.89883 6.32461L5.79336 6.65156L5.76172 6.69023L5.69141 6.73945L5.52617 6.85195L5.40664 6.92227L5.37148 6.93633L5.27305 6.94336L5.21328 6.93984L5.13594 6.89766L5.06563 6.88008L4.96719 6.80977L4.8582 6.78867L4.73867 6.71836L4.71055 6.6832L4.64375 6.67617L4.55586 6.64805L4.5207 6.64102L4.49961 6.63398L4.38711 6.63047L4.28164 6.58125L4.22539 6.56719L4.14805 6.56367L4.06719 6.59883L4.02852 6.61992L3.97578 6.59883H3.94062L3.89492 6.66563L3.89141 6.67617L3.86328 6.69023H3.79648L3.76836 6.70078L3.72617 6.71836L3.69102 6.73594L3.67344 6.74297H3.65937L3.6418 6.75H3.61719L3.575 6.72891L3.55391 6.71484L3.51523 6.70781L3.49414 6.72187V6.79219L3.47305 6.83086L3.40977 6.89062L3.35 6.94336L3.30781 7.00664L3.19883 7.25625L3.12852 7.36172L3.10742 7.38281L3.03711 7.46367L2.97031 7.51289L2.82266 7.62539L2.68203 7.67812L2.5625 7.70273H2.50625L2.39375 7.68867L2.29531 7.65703L2.18633 7.58672L2.06328 7.4918L1.89102 7.31953L1.86641 7.30547H1.86289L1.81016 7.27031H1.76797L1.75391 7.29492L1.74336 7.33008L1.73633 7.36523L1.71875 7.55859V7.56914L1.7293 7.64648L1.86289 7.83281L1.90156 7.93125L1.90859 7.9418L1.93672 7.9875L1.95781 8.02266L2.00352 8.15625L1.97187 8.23359L1.98945 8.28281L1.94727 8.31445L1.94023 8.35664L2.05977 8.50781L2.08437 8.57109L2.05625 8.6625L2.01055 8.71172L1.99648 8.72578L2.00352 8.76445L2.05977 8.81367L2.15117 8.89805L2.20039 9.02109L2.23555 9.05273L2.28125 9.04219L2.30586 9.06328H2.34102L2.37617 9.09844L2.40078 9.10898L2.43945 9.12656L2.46758 9.16523L2.47461 9.28125L2.53086 9.42891V9.52031L2.56602 9.57656L2.57656 9.62227L2.55898 9.74531L2.60117 9.78398L2.64688 9.77344L2.67852 9.78047L2.72773 9.81914L2.7875 9.91055L2.84375 9.90352L2.87891 9.92109L3.05469 10.0793L3.09687 10.1004L3.13203 10.1145L3.16719 10.1496L3.21992 10.1145H3.22695L3.28672 10.1074L3.31484 10.125L3.36406 10.1602H3.43437L3.575 10.2059L3.6418 10.2199L3.76836 10.3008L3.82461 10.3359L3.85625 10.3605L3.89844 10.3957L3.98281 10.4309L4.05313 10.4484L4.09531 10.459L4.12695 10.4695L4.28516 10.5328L4.36953 10.5504L4.45039 10.582L4.50664 10.6031H4.54883L4.60859 10.5504H4.66836L4.71758 10.5609L4.76328 10.5539L4.83711 10.5082L4.85469 10.4836L4.90742 10.459L5.0832 10.4379L5.13594 10.4555L5.26953 10.3957L5.36094 10.4203L5.43828 10.3922L5.61406 10.4309L5.65977 10.466L5.70898 10.5223H5.77227L5.75117 10.5645L5.825 10.6453L5.89531 10.7508V10.7613L5.94805 10.9055L5.9832 10.9582L6.01133 11.0285V11.0777L5.97266 11.1094L5.96562 11.127V11.134L5.97266 11.1516L5.98672 11.1445L6.01484 11.127L6.05 11.1234L6.11328 11.1305H6.15195L6.21875 11.1023L6.26094 11.0813L6.33125 11.1094H6.40508L6.43672 11.1234L6.52812 11.1621L6.57383 11.1691L6.59141 11.1551L6.60195 11.1305L6.59492 11.1023L6.55977 11.0602L6.48594 10.9723L6.45078 10.9266L6.42969 10.8633L6.42266 10.7789L6.41563 10.7227L6.42617 10.6488L6.44727 10.6207L6.46133 10.5609L6.46484 10.5469L6.50703 10.4906L6.61953 10.4203L6.73906 10.3148L6.83398 10.248L6.93242 10.2059V10.1953L6.94648 10.1988L7.19258 10.1145H7.19961L7.30859 10.0934L8.05742 10.1461L8.08555 10.1391L8.11016 10.0687L8.12422 10.0547L8.13125 10.0477L8.21562 10.0125L8.25078 10.0055L8.35625 10.0336L8.40195 10.0441L8.47227 10.0055H8.52148L8.62695 9.94922H8.69023L8.71133 9.94219L8.83437 9.85078L8.95391 9.81563L8.98906 9.80156L8.99609 9.79453L9.11914 9.73125L9.19648 9.67148L9.26328 9.63633L9.33359 9.61875L9.52695 9.60469L9.56563 9.54141L9.64648 9.52734L9.69922 9.47109L9.75547 9.45L9.79414 9.39023L9.8293 9.34102L9.87852 9.31289L10.0297 9.30586L10.2125 9.32695L10.2371 9.31289L10.2758 9.16523L10.318 9.13711L10.434 8.97187V8.85938L10.4551 8.78555L10.441 8.65195L10.4586 8.51836L10.5289 8.34961L10.5922 8.2793L10.6941 8.2125L10.7469 8.19141L10.8172 8.17734H10.8313L10.8488 8.17383L11.102 8.17031H11.1934L11.2777 8.1668L11.4887 8.20195L11.5062 8.20898L11.5766 8.23008L11.6609 8.29688L11.7488 8.38125L11.7664 8.39883L11.8227 8.41992L11.8402 8.43047L11.8895 8.41992L11.9563 8.38477L12.0055 8.34258L12.0758 8.30742V8.30391L12.1145 8.24414L12.132 8.21953L12.2656 8.1668L12.4238 8.15977L12.4414 8.14922L12.452 8.1457L12.4906 8.09648H12.5293L12.6242 8.13164L12.691 8.11758L12.7438 8.13867L12.7824 8.13164L12.8598 8.12461L12.9441 8.18086L12.9934 8.18789L13.1621 8.28633H13.1762L13.1832 8.28984L13.2043 8.28633L13.2359 8.27578L13.243 8.2793L13.2605 8.30742L13.2887 8.31094L13.3203 8.26875L13.3063 8.25117L13.3027 8.24414L13.243 8.23008L13.1867 8.13867L13.2395 8.08242L13.1586 7.98398L13.1445 7.96641L13.141 7.95937L13.1129 7.91719L12.9723 7.69922L12.7824 7.55156L12.7191 7.49883L12.6945 7.48125L12.5961 7.3793L12.5258 7.28789L12.5152 7.2668L12.5012 7.23164L12.459 7.14375L12.3887 7.08398L12.3254 7.0207V7.01719L12.1988 6.84844L12.1777 6.82031L12.1496 6.80273H12.0863L12.0793 6.7957V6.79219L12.1074 6.75703L12.1426 6.75L12.1566 6.71836L12.0934 6.53555V6.52852L12.0863 6.47227L12.1391 6.20508L12.1461 6.16992L12.234 5.99414L12.2902 5.94844L12.3465 5.83242L12.3992 5.75859L12.4484 5.70937L12.4555 5.70586L12.5434 5.65313L12.6172 5.64258L12.6875 5.63203L12.8105 5.66719H12.9512L13.0039 5.66016L13.0918 5.63203L13.134 5.60742L13.1551 5.57227L13.1973 5.42461L13.2148 5.37539L13.2395 5.32617L13.4012 5.13984L13.5207 5.03086L13.7914 4.83047L13.925 4.75312L13.9918 4.71094L14.5965 4.44375L14.7512 4.28555L14.832 4.20117L14.9797 4.10625L15.1484 4.03594L15.2926 3.91992L15.3242 3.88125L15.3664 3.75117L15.398 3.74414L15.4297 3.67734L15.4367 3.65977L15.5563 3.57539L15.5703 3.56836L16.0309 3.33984L16.1012 3.34687L16.1363 3.29414L16.2699 3.27305L16.291 3.26602L16.3262 3.25195L16.3543 3.20273V3.19219L16.3578 3.06562L16.3859 3.03047L16.4035 2.94609L16.4176 2.925L16.4316 2.90742L16.4703 2.8793L16.4633 2.86523Z" fill="#D47600"/>
</g>
<defs>
<clipPath id="clip0_186_6305">
<rect width="18" height="18" fill="white"/>
</clipPath>
</defs>
</svg>
