<svg width="18" height="18" viewBox="0 0 18 18" fill="none" xmlns="http://www.w3.org/2000/svg">
<g id="dg" clip-path="url(#clip0_186_7006)">
<path id="Vector" d="M0 0H18V18H0V0Z" fill="white"/>
<path id="Vector_2" fill-rule="evenodd" clip-rule="evenodd" d="M18 15.6094C17.7996 15.8555 17.6273 16.432 17.0895 16.432C16.0172 16.432 15.75 15.2156 14.9449 15.2156C14.4105 15.2156 14.1434 16.4355 13.609 16.4355C12.5332 16.4355 12.266 15.2156 11.4645 15.2156C10.9266 15.2156 10.6594 16.4355 10.1285 16.4355C9.05273 16.4355 8.78555 15.2156 7.98398 15.2156C7.44609 15.2156 7.17891 16.4355 6.64453 16.4355C5.57227 16.4355 5.30508 15.2156 4.5 15.2156C3.96211 15.2156 3.69492 16.4355 3.16055 16.4355C2.08828 16.4355 1.82109 15.2156 1.01602 15.2156C0.481641 15.2156 0.323437 16.084 0 16.084V17.6484C0.323437 17.6484 0.481641 16.7801 1.01953 16.7801C1.82109 16.7801 2.0918 18 3.16055 18C3.69844 18 3.96563 16.7801 4.5 16.7801C5.30508 16.7801 5.57227 18 6.64453 18C7.17891 18 7.44609 16.7801 7.98047 16.7801C8.78555 16.7801 9.05625 18 10.125 18C10.6629 18 10.9301 16.7801 11.4645 16.7801C12.2695 16.7801 12.5367 18 13.609 18C14.1434 18 14.4105 16.7801 14.9449 16.7801C15.75 16.7801 16.0207 18 17.0895 18C17.6273 18 17.7996 17.6555 18 17.4094V15.6094ZM18 12.5648C17.7996 12.8145 17.6273 13.3875 17.0895 13.3875C16.0172 13.3875 15.75 12.1711 14.9449 12.1711C14.4105 12.1711 14.1434 13.3875 13.609 13.3875C12.5332 13.3875 12.266 12.1711 11.4645 12.1711C10.9266 12.1711 10.6594 13.3875 10.1285 13.3875C9.05273 13.3875 8.78555 12.1711 7.98398 12.1711C7.44609 12.1711 7.17891 13.3875 6.64453 13.3875C5.57227 13.3875 5.30508 12.1711 4.5 12.1711C3.96211 12.1711 3.69492 13.3875 3.16055 13.3875C2.08828 13.3875 1.82109 12.1711 1.01602 12.1711C0.481641 12.1711 0.323437 13.0395 0 13.0395V14.6074C0.323437 14.6074 0.481641 13.7391 1.01953 13.7391C1.82109 13.7391 2.0918 14.959 3.16055 14.959C3.69844 14.959 3.96563 13.7391 4.5 13.7391C5.30508 13.7391 5.57227 14.959 6.64453 14.959C7.17891 14.959 7.44609 13.7391 7.98047 13.7391C8.78555 13.7391 9.05625 14.959 10.125 14.959C10.6629 14.959 10.9301 13.7391 11.4645 13.7391C12.2695 13.7391 12.5367 14.959 13.609 14.959C14.1434 14.959 14.4105 13.7391 14.9449 13.7391C15.75 13.7391 16.0207 14.959 17.0895 14.959C17.6273 14.959 17.7996 14.6145 18 14.3648V12.5648ZM18 9.52031C17.7996 9.77344 17.6273 10.3465 17.0895 10.3465C16.0172 10.3465 15.75 9.12656 14.9449 9.12656C14.4105 9.12656 14.1434 10.3465 13.609 10.3465C12.5332 10.3465 12.266 9.12656 11.4645 9.12656C10.9266 9.12656 10.6594 10.3465 10.1285 10.3465C9.05273 10.3465 8.78555 9.12656 7.98398 9.12656C7.44609 9.12656 7.17891 10.3465 6.64453 10.3465C5.57227 10.3465 5.30508 9.12656 4.5 9.12656C3.96211 9.12656 3.69492 10.3465 3.16055 10.3465C2.08828 10.3465 1.82109 9.12656 1.01602 9.12656C0.481641 9.12656 0.323437 9.99844 0 9.99844V11.5629C0.323437 11.5629 0.481641 10.698 1.01953 10.698C1.82109 10.698 2.0918 11.9145 3.16055 11.9145C3.69844 11.9145 3.96563 10.698 4.5 10.698C5.30508 10.698 5.57227 11.9145 6.64453 11.9145C7.17891 11.9145 7.44609 10.698 7.98047 10.698C8.78555 10.698 9.05625 11.9145 10.125 11.9145C10.6629 11.9145 10.9301 10.698 11.4645 10.698C12.2695 10.698 12.5367 11.9145 13.609 11.9145C14.1434 11.9145 14.4105 10.698 14.9449 10.698C15.75 10.698 16.0207 11.9145 17.0895 11.9145C17.6273 11.9145 17.7996 11.5664 18 11.3203V9.52031ZM18 6.4793C17.7996 6.72539 17.6273 7.30195 17.0895 7.30195C16.0172 7.30195 15.75 6.08555 14.9449 6.08555C14.4105 6.08555 14.1434 7.30195 13.609 7.30195C12.5332 7.30195 12.266 6.08555 11.4645 6.08555C10.9266 6.08555 10.6594 7.30195 10.1285 7.30195C9.05273 7.30195 8.78555 6.08555 7.98398 6.08555C7.44609 6.08555 7.17891 7.30195 6.64453 7.30195C5.57227 7.30195 5.30508 6.08555 4.5 6.08555C3.96211 6.08555 3.69492 7.30195 3.16055 7.30195C2.08828 7.30195 1.82109 6.08555 1.01602 6.08555C0.481641 6.08555 0.323437 6.95391 0 6.95391V8.52187C0.323437 8.52187 0.481641 7.65352 1.01953 7.65352C1.82109 7.65352 2.0918 8.87344 3.16055 8.87344C3.69844 8.87344 3.96563 7.65352 4.5 7.65352C5.30508 7.65352 5.57227 8.87344 6.64453 8.87344C7.17891 8.87344 7.44609 7.65352 7.98047 7.65352C8.78555 7.65352 9.05625 8.87344 10.125 8.87344C10.6629 8.87344 10.9301 7.65352 11.4645 7.65352C12.2695 7.65352 12.5367 8.87344 13.609 8.87344C14.1434 8.87344 14.4105 7.65352 14.9449 7.65352C15.75 7.65352 16.0207 8.87344 17.0895 8.87344C17.6273 8.87344 17.7996 8.52187 18 8.27578V6.4793ZM18 3.43477C17.7996 3.68086 17.6273 4.26094 17.0895 4.26094C16.0172 4.26094 15.75 3.04102 14.9449 3.04102C14.4105 3.04102 14.1434 4.26094 13.609 4.26094C12.5332 4.26094 12.266 3.04102 11.4645 3.04102C10.9266 3.04102 10.6594 4.26094 10.1285 4.26094C9.05273 4.26094 8.78555 3.04102 7.98398 3.04102C7.44609 3.04102 7.17891 4.26094 6.64453 4.26094C5.57227 4.26094 5.30508 3.04102 4.5 3.04102C3.96211 3.04102 3.69492 4.26094 3.16055 4.26094C2.08828 4.26094 1.82109 3.04102 1.01602 3.04102C0.481641 3.04453 0.319922 3.91992 0 3.91992V5.48438C0.323437 5.48438 0.481641 4.61602 1.01953 4.61602C1.82109 4.61602 2.08828 5.83242 3.16406 5.83242C3.69844 5.83242 3.96563 4.61602 4.5 4.61602C5.30508 4.61602 5.57227 5.83242 6.64453 5.83242C7.17891 5.83242 7.44609 4.61602 7.98047 4.61602C8.78555 4.61602 9.05273 5.83242 10.125 5.83242C10.6629 5.83242 10.9301 4.61602 11.4645 4.61602C12.2695 4.61602 12.5367 5.83242 13.609 5.83242C14.1434 5.83242 14.4105 4.61602 14.9449 4.61602C15.75 4.61602 16.0207 5.83242 17.0895 5.83242C17.6238 5.83242 17.7996 5.48789 18 5.23828V3.44531V3.43477ZM18 0.39375C17.7996 0.639844 17.6273 1.21992 17.0895 1.21992C16.0172 1.21992 15.75 0 14.9449 0C14.4105 0 14.1434 1.21992 13.609 1.21992C12.5332 1.21992 12.266 0 11.4645 0C10.9266 0 10.6594 1.21992 10.1285 1.21992C9.05273 1.21992 8.78555 0 7.98398 0C7.44609 0 7.17891 1.21992 6.64102 1.21992C5.56875 1.21992 5.30859 0 4.5 0C3.96211 0 3.69844 1.21992 3.16055 1.21992C2.08828 1.21992 1.82109 0 1.01602 0C0.485156 0 0.323437 0.871875 0 0.871875V2.43984C0.323437 2.43984 0.481641 1.57148 1.01953 1.57148C1.82109 1.57148 2.08828 2.79141 3.16406 2.79141C3.69844 2.79141 3.96563 1.57148 4.5 1.57148C5.30508 1.57148 5.57227 2.79141 6.64453 2.79141C7.17891 2.79141 7.44609 1.57148 7.98047 1.57148C8.78555 1.57148 9.05273 2.79141 10.125 2.79141C10.6629 2.79141 10.9301 1.57148 11.4645 1.57148C12.2695 1.57148 12.5367 2.79141 13.609 2.79141C14.1434 2.79141 14.4105 1.57148 14.9449 1.57148C15.75 1.57148 16.0207 2.79141 17.0895 2.79141C17.6238 2.79141 17.7996 2.44336 18 2.19375V0.39375Z" fill="#000063"/>
<path id="Vector_3" fill-rule="evenodd" clip-rule="evenodd" d="M13.2645 5.94141L13.1484 16.5305C13.1484 17.0895 13.6512 17.0895 13.7039 16.5305L13.5949 5.94844L13.2645 5.94141Z" fill="#A24300" stroke="white" stroke-width="1.9"/>
<path id="Vector_4" fill-rule="evenodd" clip-rule="evenodd" d="M14.418 9.87969L14.0664 9.49297L13.982 9.8832L13.8273 9.3207L13.6867 9.60195L13.6621 9.0043L13.5215 9.28906L13.4934 8.69141L13.3527 8.97266L13.2684 8.26953L13.1277 8.55078L13.0469 7.84766L12.9062 8.12891L12.8219 7.42578L12.7832 7.07422L12.8535 6.93359L13.0363 7.00391L13.3316 7.28164L13.9187 7.84063L13.5531 7.7L14.1437 8.2625L13.7781 8.12188L14.3688 8.68438L14.0031 8.54375L14.534 9.00078L14.1684 8.86016L14.7027 9.31367L14.3371 9.17305L14.7414 9.66523L14.3195 9.41914L14.418 9.87969Z" fill="#006D00" stroke="white" stroke-width="1.7"/>
<path id="Vector_5" d="M14.418 9.87969L12.8535 6.93359M13.9223 7.84063L13.0785 7.35547L12.9062 8.12891" stroke="black" stroke-width="0.3"/>
<path id="Vector_6" d="M14.143 8.26211L13.2992 7.77344L13.127 8.55391" stroke="black" stroke-width="0.3"/>
<path id="Vector_7" d="M14.3682 8.68398L13.5244 8.19531L13.3486 8.97227" stroke="black" stroke-width="0.3"/>
<path id="Vector_8" d="M14.5336 9L13.7461 8.61328L13.5176 9.28477" stroke="black" stroke-width="0.3"/>
<path id="Vector_9" d="M14.7025 9.31641L13.915 8.92969L13.6865 9.60469" stroke="black" stroke-width="0.3"/>
<path id="Vector_10" d="M14.7414 9.66797L14.0277 9.14062L13.9785 9.88242" stroke="black" stroke-width="0.3"/>
<path id="Vector_11" fill-rule="evenodd" clip-rule="evenodd" d="M10.3078 4.85117L10.8809 5.07266L10.7156 4.63672L11.2148 5.12891L11.1691 4.77734L11.5734 5.36797L11.5242 5.01641L11.932 5.60703L11.8828 5.25195L12.4102 5.91992L12.3609 5.56836L12.8848 6.23633L12.8355 5.88477L13.3629 6.55273L13.623 6.89023L13.6477 7.06602L13.4332 7.08359L12.9762 6.94297L12.0727 6.66523L12.5016 6.63008L11.5945 6.34883L12.027 6.31367L11.1199 6.03242L11.5488 5.99727L10.7613 5.79688L11.1902 5.76172L10.4027 5.56133L10.8316 5.52266L10.1426 5.22383L10.691 5.26602L10.3113 4.85117H10.3078Z" fill="#006D00" stroke="white" stroke-width="1.8"/>
<path id="Vector_12" d="M10.3076 4.85156L13.6475 7.06641M12.0725 6.66563L13.1693 6.75L12.8354 5.88516" stroke="black" stroke-width="0.3"/>
<path id="Vector_13" d="M11.5947 6.34883L12.6916 6.4332L12.3611 5.56836" stroke="black" stroke-width="0.3"/>
<path id="Vector_14" d="M11.1201 6.03594L12.217 6.1168L11.883 5.25195" stroke="black" stroke-width="0.3"/>
<path id="Vector_15" d="M10.7617 5.80117H11.7391L11.5281 5.01367" stroke="black" stroke-width="0.3"/>
<path id="Vector_16" d="M10.4062 5.56133H11.3836L11.1691 4.77734" stroke="black" stroke-width="0.3"/>
<path id="Vector_17" d="M10.1426 5.22383L11.1445 5.40664L10.7156 4.63672" stroke="black" stroke-width="0.3"/>
<path id="Vector_18" fill-rule="evenodd" clip-rule="evenodd" d="M16.9625 5.58906L16.4879 5.94062L17.0152 6.00039L16.277 6.17617L16.6707 6.28867L15.8762 6.34844L16.2664 6.46445L15.4719 6.5207L15.8621 6.63672L14.934 6.75273L15.3242 6.86875L14.3961 6.98477L14.7863 7.1043L13.8582 7.22031L13.3941 7.27656L13.1973 7.22031L13.2676 7.04453L13.6121 6.75273L14.2977 6.17266L14.15 6.5207L14.8355 5.94062L14.6879 6.28867L15.3734 5.70859L15.2258 6.05664L15.7777 5.53281L15.6301 5.88437L16.1785 5.35703L16.0344 5.70859L16.6461 5.30078L16.3648 5.70859L16.9625 5.58906Z" fill="#006D00" stroke="white" stroke-width="1.8"/>
<path id="Vector_19" d="M16.9629 5.58984L13.2012 7.21758M14.298 6.17344L13.7355 6.98555L14.7902 7.10508" stroke="black" stroke-width="0.3"/>
<path id="Vector_20" d="M14.8359 5.94141L14.2734 6.75L15.3281 6.86602" stroke="black" stroke-width="0.3"/>
<path id="Vector_21" d="M15.374 5.70898L14.8115 6.52109L15.8662 6.63711" stroke="black" stroke-width="0.3"/>
<path id="Vector_22" d="M15.7785 5.5332L15.3496 6.28906L16.2672 6.46484" stroke="black" stroke-width="0.3"/>
<path id="Vector_23" d="M16.1824 5.35742L15.75 6.1168L16.6641 6.29258" stroke="black" stroke-width="0.3"/>
<path id="Vector_24" d="M16.6463 5.30078L16.0205 5.99688H17.0154" stroke="black" stroke-width="0.3"/>
<path id="Vector_25" fill-rule="evenodd" clip-rule="evenodd" d="M16.8895 9.11641L16.2918 8.94062L16.5062 9.3625L15.9543 8.90898L16.0387 9.26055L15.5746 8.70156L15.659 9.05312L15.1914 8.49414L15.2758 8.8457L14.6852 8.21641L14.7695 8.56797L14.1754 7.94219L14.2598 8.29023L13.6656 7.66445L13.3703 7.34805L13.3281 7.17578L13.5391 7.14062L14.0066 7.24609L14.9383 7.45L14.5164 7.52031L15.4445 7.72773L15.0227 7.79805L15.9543 8.00195L15.5324 8.07227L16.3375 8.21289L15.9156 8.2832L16.7172 8.4168L16.2953 8.48711L17.0125 8.7332H16.4641L16.8859 9.11641H16.8895Z" fill="#006D00" stroke="white" stroke-width="1.8"/>
<path id="Vector_26" d="M16.8891 9.11602L13.3242 7.17188M14.9344 7.44609L13.8305 7.44961L14.2559 8.28633" stroke="black" stroke-width="0.3"/>
<path id="Vector_27" d="M15.4441 7.72656H14.3438L14.7656 8.56328" stroke="black" stroke-width="0.3"/>
<path id="Vector_28" d="M15.9539 8.00195L14.8535 8.00898L15.2754 8.84219" stroke="black" stroke-width="0.3"/>
<path id="Vector_29" d="M16.3367 8.20898L15.3594 8.28281L15.6582 9.04922" stroke="black" stroke-width="0.3"/>
<path id="Vector_30" d="M16.717 8.41602L15.7432 8.48984L16.0385 9.25625" stroke="black" stroke-width="0.3"/>
<path id="Vector_31" d="M17.0156 8.7293L15.9961 8.63086L16.5059 9.36211" stroke="black" stroke-width="0.3"/>
<path id="Vector_32" fill-rule="evenodd" clip-rule="evenodd" d="M10.7012 9.31562L11 8.90078L10.543 8.96758L11.1055 8.65117L10.7469 8.63359L11.3938 8.40156L11.0352 8.3875L11.6785 8.15898L11.3199 8.14141L12.0582 7.83203L11.7031 7.81445L12.4414 7.50508L12.0828 7.49102L12.8246 7.17812L13.1937 7.02344L13.373 7.03047L13.3625 7.20625L13.1621 7.53672L12.7543 8.20469L12.7789 7.86367L12.3746 8.53164L12.3957 8.19062L11.9914 8.85859L12.016 8.51758L11.7066 9.10469L11.7277 8.76367L11.4184 9.35078L11.443 9.00625L11.0492 9.50547L11.1688 9.08008L10.7012 9.31562Z" fill="#006D00" stroke="white" stroke-width="1.7"/>
<path id="Vector_33" d="M10.7012 9.31641L13.373 7.03125M12.7613 8.20898L12.9969 7.36523L12.0863 7.49531" stroke="black" stroke-width="0.3"/>
<path id="Vector_34" d="M12.3746 8.53633L12.6102 7.68555L11.7031 7.81562" stroke="black" stroke-width="0.3"/>
<path id="Vector_35" d="M11.9922 8.85938L12.2348 8.01562L11.3242 8.1457" stroke="black" stroke-width="0.3"/>
<path id="Vector_36" d="M11.7066 9.10625L11.8473 8.33984L11.0352 8.38906" stroke="black" stroke-width="0.3"/>
<path id="Vector_37" d="M11.4189 9.35195L11.5596 8.58203L10.751 8.63477" stroke="black" stroke-width="0.3"/>
<path id="Vector_38" d="M11.0496 9.50547L11.3695 8.74609L10.5469 8.96758" stroke="black" stroke-width="0.3"/>
<path id="Vector_39" fill-rule="evenodd" clip-rule="evenodd" d="M16.1016 3.83125L15.525 4.21797L15.4336 3.80664L15.0926 4.37617L15.0293 4.10195L14.7551 4.68906L14.7164 4.41836L14.4984 5.01953L14.3754 4.73125L14.1609 5.4625L14.0379 5.1707L13.8234 5.90195L13.7004 5.61367L13.4824 6.34141L13.377 6.70703L13.4367 6.85469L13.6687 6.77734L14.0695 6.48203L14.8676 5.88789L14.4105 6.03906L15.2086 5.44844L14.7445 5.59961L15.5461 5.00547L15.0855 5.15664L15.8871 4.69609L15.3387 4.82617L16.2035 4.37969L15.6762 4.5168L16.309 4.01406L15.7641 4.27422L16.1016 3.83125Z" fill="#006D00" stroke="white" stroke-width="1.8"/>
<path id="Vector_40" d="M15.8799 4.04297L15.0467 4.75664L13.4365 6.85547" stroke="black" stroke-width="0.3"/>
<path id="Vector_41" d="M14.6957 5.97617L13.7746 6.41211L13.6973 5.74414" stroke="black" stroke-width="0.3"/>
<path id="Vector_42" d="M15.0471 5.54023L14.1154 5.97266L14.0381 5.30469" stroke="black" stroke-width="0.3"/>
<path id="Vector_43" d="M15.3777 5.09687L14.4531 5.5293L14.3828 4.86133" stroke="black" stroke-width="0.3"/>
<path id="Vector_44" d="M15.6547 4.76992L14.7934 5.08633L14.6914 4.54492" stroke="black" stroke-width="0.3"/>
<path id="Vector_45" d="M15.9715 4.45352L15.0469 4.75937L15.0117 4.22852" stroke="black" stroke-width="0.3"/>
<path id="Vector_46" d="M16.0945 4.15469L15.2402 4.59414L15.4055 3.92969" stroke="black" stroke-width="0.3"/>
<path id="Vector_47" fill-rule="evenodd" clip-rule="evenodd" d="M12.9832 3.11133L13.2434 3.69844L13.5738 3.38906L13.5141 4.02891L13.7355 3.82148L13.616 4.44727L13.8129 4.23281L13.6301 4.84102L13.9113 4.65117L13.6547 5.37188L13.9359 5.17852L13.6758 5.89922L13.957 5.70586L13.6969 6.42656L13.5668 6.78867L13.4262 6.88359L13.275 6.71484L13.1133 6.28242L12.7898 5.41758L13.0922 5.75508L12.7688 4.89023L13.0711 5.22422L12.7477 4.35938L13.0465 4.69688L12.6457 3.94453L13.0324 4.29961L12.5684 3.5332L12.934 3.88477L12.6984 3.17109L13.0043 3.64219L12.9832 3.11133Z" fill="#006D00" stroke="white" stroke-width="1.8"/>
<path id="Vector_48" d="M13.0498 3.38867L13.324 4.37305L13.426 6.8832" stroke="black" stroke-width="0.3"/>
<path id="Vector_49" d="M12.8848 5.57227L13.4051 6.35625L13.8762 5.81836" stroke="black" stroke-width="0.3"/>
<path id="Vector_50" d="M12.8496 5.04102L13.384 5.825L13.8551 5.29063" stroke="black" stroke-width="0.3"/>
<path id="Vector_51" d="M12.8359 4.51367L13.3633 5.29766L13.8273 4.75977" stroke="black" stroke-width="0.3"/>
<path id="Vector_52" d="M12.7969 4.11328L13.3418 4.7707L13.7566 4.34883" stroke="black" stroke-width="0.3"/>
<path id="Vector_53" d="M12.7197 3.70117L13.3244 4.37266L13.676 3.93672" stroke="black" stroke-width="0.3"/>
<path id="Vector_54" d="M12.7969 3.38867L13.2609 4.14805L13.5211 3.50469" stroke="black" stroke-width="0.3"/>
<path id="Vector_55" fill-rule="evenodd" clip-rule="evenodd" d="M9.53418 7.42773L10.2865 6.90742L9.91035 6.71406L10.5678 6.82656L10.3428 6.52773L10.9826 6.7668L10.7541 6.46797L11.3975 6.70703L11.1689 6.41172L11.9424 6.67188L11.7174 6.37305L12.4697 6.75977L12.2412 6.46445L13.0146 6.72461L13.3908 6.91797L13.5033 7.06914L13.3521 7.17461L12.9408 7.23086L12.2729 7.50508L12.3959 7.26953L11.5662 7.38203L11.8686 7.17461L11.0213 7.4207L11.3201 7.20977L10.6064 7.48047L10.9264 7.14297L10.1916 7.53672L10.5115 7.20273L9.91387 7.62109L10.2479 7.15703L9.53418 7.42773Z" fill="#006D00" stroke="white" stroke-width="1.7"/>
<path id="Vector_56" d="M9.77344 7.2875L10.5469 6.95352L10.9688 6.89023L11.3133 6.88672L11.9109 6.92188L12.4453 6.94648L13.5 7.06602" stroke="black" stroke-width="0.3"/>
<path id="Vector_57" d="M12.3748 7.39687L12.9725 7.03125L12.3643 6.55664" stroke="black" stroke-width="0.3"/>
<path id="Vector_58" d="M11.707 7.34141L12.4418 6.95117L11.8371 6.47656" stroke="black" stroke-width="0.3"/>
<path id="Vector_59" d="M11.2326 7.33008L11.9041 6.92578L11.2959 6.48633M10.3467 7.43555L10.9654 6.89414L10.4627 6.61992" stroke="black" stroke-width="0.3"/>
<path id="Vector_60" d="M10.0684 7.47422L10.55 6.95391L10.1633 6.81328M10.7574 7.37578L11.3691 6.89062L10.877 6.55664" stroke="black" stroke-width="0.3"/>
<g id="Group">
<path id="Vector_61" fill-rule="evenodd" clip-rule="evenodd" d="M12.0629 13.1328L12.0558 12.2551L11.8015 11.8452C11.7378 11.6437 11.7691 11.5464 11.8723 11.5395C11.9751 11.5334 12.077 11.5916 12.2252 11.5981C12.3734 11.6046 12.3455 11.3706 12.5644 11.3771C12.7833 11.3836 13.1649 11.5008 13.4895 11.5204C13.8146 11.5395 13.984 11.4162 14.3585 11.4031C14.7331 11.3901 14.8317 11.5656 14.853 11.5656C14.8742 11.5656 14.9803 11.4943 15.086 11.4813C15.1921 11.4683 15.2275 11.5204 15.2275 11.5204C15.2275 11.5204 15.2204 11.7414 15.1709 11.8713C15.1214 12.0015 14.9449 12.2161 14.9379 12.2161C14.9308 12.2161 14.8742 13.1719 14.8742 13.1784C14.8742 13.1849 12.0629 13.1524 12.0629 13.1328Z" fill="#CC0000" stroke="black" stroke-width="0.151437"/>
<g id="Group_2">
<path id="Vector_62" fill-rule="evenodd" clip-rule="evenodd" d="M14.9692 12.2355C14.9692 12.2355 15.2522 12.0363 15.2597 11.5571C15.2638 11.2812 15.1165 11.082 14.7478 11.082C14.2317 11.082 13.4947 11.2855 13.4947 11.2855V11.3533C13.4947 11.3533 14.0844 11.1498 14.7482 11.1498C15.0429 11.1498 15.1906 11.3491 15.1906 11.5529C15.1906 11.8923 14.8951 12.2359 14.8951 12.2359V12.7788H14.9692V12.2355Z" fill="#FFF100" stroke="black" stroke-width="0.151437"/>
<path id="Vector_63" fill-rule="evenodd" clip-rule="evenodd" d="M15.1235 12.0924C15.1228 12.1017 15.1241 12.1111 15.1275 12.12C15.1308 12.1289 15.1362 12.137 15.1431 12.1439C15.15 12.1507 15.1584 12.1562 15.1678 12.16C15.1771 12.1637 15.1872 12.1657 15.1974 12.1657C15.2076 12.1657 15.2177 12.1637 15.227 12.16C15.2364 12.1562 15.2448 12.1507 15.2517 12.1439C15.2586 12.137 15.264 12.1289 15.2673 12.12C15.2707 12.1111 15.272 12.1017 15.2713 12.0924C15.2699 12.0752 15.2615 12.0592 15.2478 12.0475C15.2341 12.0358 15.2161 12.0293 15.1974 12.0293C15.1787 12.0293 15.1607 12.0358 15.147 12.0475C15.1333 12.0592 15.1249 12.0752 15.1235 12.0924Z" fill="white" stroke="black" stroke-width="0.151437"/>
<path id="Vector_64" fill-rule="evenodd" clip-rule="evenodd" d="M15.1978 11.9381C15.197 11.9474 15.1983 11.9568 15.2017 11.9657C15.2051 11.9746 15.2104 11.9827 15.2173 11.9896C15.2242 11.9964 15.2327 12.0019 15.242 12.0057C15.2513 12.0094 15.2614 12.0114 15.2716 12.0114C15.2818 12.0114 15.2919 12.0094 15.3013 12.0057C15.3106 12.0019 15.319 11.9964 15.3259 11.9896C15.3329 11.9827 15.3382 11.9746 15.3415 11.9657C15.3449 11.9568 15.3463 11.9474 15.3455 11.9381C15.3441 11.9209 15.3357 11.9049 15.322 11.8932C15.3083 11.8815 15.2903 11.875 15.2716 11.875C15.2529 11.875 15.2349 11.8815 15.2212 11.8932C15.2075 11.9049 15.1992 11.9209 15.1978 11.9381Z" fill="white" stroke="black" stroke-width="0.151437"/>
<path id="Vector_65" fill-rule="evenodd" clip-rule="evenodd" d="M15.2368 11.7799C15.2361 11.7892 15.2374 11.7986 15.2408 11.8075C15.2441 11.8164 15.2494 11.8245 15.2564 11.8314C15.2633 11.8382 15.2717 11.8437 15.2811 11.8475C15.2904 11.8512 15.3005 11.8532 15.3107 11.8532C15.3209 11.8532 15.331 11.8512 15.3403 11.8475C15.3497 11.8437 15.3581 11.8382 15.365 11.8314C15.3719 11.8245 15.3772 11.8164 15.3806 11.8075C15.384 11.7986 15.3853 11.7892 15.3846 11.7799C15.3832 11.7627 15.3748 11.7467 15.3611 11.735C15.3474 11.7233 15.3294 11.7168 15.3107 11.7168C15.292 11.7168 15.274 11.7233 15.2603 11.735C15.2466 11.7467 15.2382 11.7627 15.2368 11.7799Z" fill="white" stroke="black" stroke-width="0.151437"/>
<path id="Vector_66" fill-rule="evenodd" clip-rule="evenodd" d="M15.2642 11.61C15.2634 11.6193 15.2647 11.6287 15.2681 11.6376C15.2715 11.6464 15.2768 11.6546 15.2837 11.6614C15.2907 11.6683 15.2991 11.6738 15.3084 11.6776C15.3177 11.6813 15.3278 11.6833 15.338 11.6833C15.3482 11.6833 15.3583 11.6813 15.3677 11.6776C15.377 11.6738 15.3854 11.6683 15.3923 11.6614C15.3993 11.6546 15.4046 11.6464 15.408 11.6376C15.4113 11.6287 15.4127 11.6193 15.4119 11.61C15.4105 11.5928 15.4021 11.5768 15.3884 11.5651C15.3747 11.5534 15.3567 11.5469 15.338 11.5469C15.3193 11.5469 15.3013 11.5534 15.2876 11.5651C15.2739 11.5768 15.2656 11.5928 15.2642 11.61Z" fill="white" stroke="black" stroke-width="0.151437"/>
<path id="Vector_67" fill-rule="evenodd" clip-rule="evenodd" d="M15.2573 11.4283C15.2566 11.4377 15.2579 11.4471 15.2613 11.4559C15.2646 11.4648 15.27 11.4729 15.2769 11.4798C15.2838 11.4867 15.2922 11.4922 15.3016 11.4959C15.3109 11.4997 15.321 11.5016 15.3312 11.5016C15.3414 11.5016 15.3515 11.4997 15.3608 11.4959C15.3702 11.4922 15.3786 11.4867 15.3855 11.4798C15.3924 11.4729 15.3978 11.4648 15.4011 11.4559C15.4045 11.4471 15.4058 11.4377 15.4051 11.4283C15.4037 11.4112 15.3953 11.3951 15.3816 11.3834C15.3679 11.3717 15.3499 11.3652 15.3312 11.3652C15.3125 11.3652 15.2945 11.3717 15.2808 11.3834C15.2671 11.3951 15.2587 11.4112 15.2573 11.4283Z" fill="white" stroke="black" stroke-width="0.151437"/>
<path id="Vector_68" fill-rule="evenodd" clip-rule="evenodd" d="M15.0181 12.2291C15.0173 12.2385 15.0186 12.2479 15.022 12.2567C15.0254 12.2656 15.0307 12.2737 15.0376 12.2806C15.0446 12.2875 15.053 12.293 15.0623 12.2967C15.0717 12.3005 15.0817 12.3024 15.0919 12.3024C15.1021 12.3024 15.1122 12.3005 15.1216 12.2967C15.1309 12.293 15.1393 12.2875 15.1462 12.2806C15.1532 12.2737 15.1585 12.2656 15.1619 12.2567C15.1652 12.2479 15.1666 12.2385 15.1658 12.2291C15.1644 12.2119 15.156 12.1959 15.1423 12.1842C15.1286 12.1725 15.1106 12.166 15.0919 12.166C15.0732 12.166 15.0553 12.1725 15.0416 12.1842C15.0279 12.1959 15.0195 12.2119 15.0181 12.2291Z" fill="white" stroke="black" stroke-width="0.151437"/>
<path id="Vector_69" fill-rule="evenodd" clip-rule="evenodd" d="M15.1938 11.2545C15.1931 11.2638 15.1944 11.2733 15.1978 11.2821C15.2012 11.291 15.2065 11.2991 15.2134 11.306C15.2203 11.3129 15.2287 11.3183 15.2381 11.3221C15.2474 11.3259 15.2575 11.3278 15.2677 11.3278C15.2779 11.3278 15.288 11.3259 15.2973 11.3221C15.3067 11.3183 15.3151 11.3129 15.322 11.306C15.329 11.2991 15.3343 11.291 15.3376 11.2821C15.341 11.2733 15.3424 11.2638 15.3416 11.2545C15.3402 11.2373 15.3318 11.2213 15.3181 11.2096C15.3044 11.1979 15.2864 11.1914 15.2677 11.1914C15.249 11.1914 15.231 11.1979 15.2173 11.2096C15.2036 11.2213 15.1952 11.2373 15.1938 11.2545Z" fill="white" stroke="black" stroke-width="0.151437"/>
<path id="Vector_70" fill-rule="evenodd" clip-rule="evenodd" d="M15.0571 11.1178C15.0564 11.1271 15.0577 11.1365 15.0611 11.1454C15.0644 11.1543 15.0698 11.1624 15.0767 11.1693C15.0836 11.1761 15.092 11.1816 15.1014 11.1854C15.1107 11.1891 15.1208 11.1911 15.131 11.1911C15.1412 11.1911 15.1513 11.1891 15.1606 11.1854C15.17 11.1816 15.1784 11.1761 15.1853 11.1693C15.1922 11.1624 15.1976 11.1543 15.2009 11.1454C15.2043 11.1365 15.2056 11.1271 15.2049 11.1178C15.2035 11.1006 15.1951 11.0846 15.1814 11.0729C15.1677 11.0612 15.1497 11.0547 15.131 11.0547C15.1123 11.0547 15.0943 11.0612 15.0806 11.0729C15.0669 11.0846 15.0585 11.1006 15.0571 11.1178Z" fill="white" stroke="black" stroke-width="0.151437"/>
<path id="Vector_71" fill-rule="evenodd" clip-rule="evenodd" d="M14.8745 11.026C14.8737 11.0353 14.8751 11.0447 14.8785 11.0536C14.8818 11.0625 14.8871 11.0706 14.8941 11.0775C14.901 11.0843 14.9094 11.0898 14.9188 11.0936C14.9281 11.0973 14.9382 11.0993 14.9484 11.0993C14.9586 11.0993 14.9687 11.0973 14.978 11.0936C14.9874 11.0898 14.9958 11.0843 15.0027 11.0775C15.0096 11.0706 15.0149 11.0625 15.0183 11.0536C15.0217 11.0447 15.023 11.0353 15.0223 11.026C15.0209 11.0088 15.0125 10.9928 14.9988 10.9811C14.9851 10.9694 14.9671 10.9629 14.9484 10.9629C14.9297 10.9629 14.9117 10.9694 14.898 10.9811C14.8843 10.9928 14.8759 11.0088 14.8745 11.026Z" fill="white" stroke="black" stroke-width="0.151437"/>
<path id="Vector_72" fill-rule="evenodd" clip-rule="evenodd" d="M14.6919 11.0162C14.6911 11.0256 14.6925 11.035 14.6958 11.0438C14.6992 11.0527 14.7045 11.0608 14.7115 11.0677C14.7184 11.0746 14.7268 11.0801 14.7361 11.0838C14.7455 11.0876 14.7556 11.0895 14.7658 11.0895C14.776 11.0895 14.786 11.0876 14.7954 11.0838C14.8047 11.0801 14.8131 11.0746 14.8201 11.0677C14.827 11.0608 14.8323 11.0527 14.8357 11.0438C14.8391 11.035 14.8404 11.0256 14.8396 11.0162C14.8382 10.9991 14.8298 10.983 14.8161 10.9713C14.8024 10.9596 14.7845 10.9531 14.7658 10.9531C14.7471 10.9531 14.7291 10.9596 14.7154 10.9713C14.7017 10.983 14.6933 10.9991 14.6919 11.0162Z" fill="white" stroke="black" stroke-width="0.151437"/>
<path id="Vector_73" fill-rule="evenodd" clip-rule="evenodd" d="M14.4946 11.0201C14.4939 11.0295 14.4952 11.0389 14.4986 11.0477C14.5019 11.0566 14.5073 11.0647 14.5142 11.0716C14.5211 11.0785 14.5295 11.084 14.5389 11.0877C14.5482 11.0915 14.5583 11.0934 14.5685 11.0934C14.5787 11.0934 14.5888 11.0915 14.5981 11.0877C14.6075 11.084 14.6159 11.0785 14.6228 11.0716C14.6297 11.0647 14.6351 11.0566 14.6384 11.0477C14.6418 11.0389 14.6431 11.0295 14.6424 11.0201C14.641 11.003 14.6326 10.9869 14.6189 10.9752C14.6052 10.9635 14.5872 10.957 14.5685 10.957C14.5498 10.957 14.5318 10.9635 14.5181 10.9752C14.5044 10.9869 14.496 11.003 14.4946 11.0201Z" fill="white" stroke="black" stroke-width="0.151437"/>
<path id="Vector_74" fill-rule="evenodd" clip-rule="evenodd" d="M14.2944 11.0475C14.2937 11.0568 14.295 11.0662 14.2984 11.0751C14.3017 11.0839 14.3071 11.0921 14.314 11.0989C14.3209 11.1058 14.3293 11.1113 14.3387 11.1151C14.348 11.1188 14.3581 11.1208 14.3683 11.1208C14.3785 11.1208 14.3886 11.1188 14.3979 11.1151C14.4073 11.1113 14.4157 11.1058 14.4226 11.0989C14.4295 11.0921 14.4349 11.0839 14.4382 11.0751C14.4416 11.0662 14.4429 11.0568 14.4422 11.0475C14.4408 11.0303 14.4324 11.0143 14.4187 11.0026C14.405 10.9909 14.387 10.9844 14.3683 10.9844C14.3496 10.9844 14.3316 10.9909 14.3179 11.0026C14.3042 11.0143 14.2958 11.0303 14.2944 11.0475Z" fill="white" stroke="black" stroke-width="0.151437"/>
<path id="Vector_75" fill-rule="evenodd" clip-rule="evenodd" d="M14.1011 11.0728C14.1003 11.0822 14.1017 11.0916 14.105 11.1005C14.1084 11.1093 14.1137 11.1175 14.1206 11.1243C14.1276 11.1312 14.136 11.1367 14.1453 11.1405C14.1547 11.1442 14.1647 11.1461 14.1749 11.1461C14.1851 11.1461 14.1952 11.1442 14.2046 11.1405C14.2139 11.1367 14.2223 11.1312 14.2293 11.1243C14.2362 11.1175 14.2415 11.1093 14.2449 11.1005C14.2482 11.0916 14.2496 11.0822 14.2488 11.0728C14.2474 11.0557 14.239 11.0397 14.2253 11.028C14.2116 11.0163 14.1936 11.0098 14.1749 11.0098C14.1563 11.0098 14.1383 11.0163 14.1246 11.028C14.1109 11.0397 14.1025 11.0557 14.1011 11.0728Z" fill="white" stroke="black" stroke-width="0.151437"/>
<path id="Vector_76" fill-rule="evenodd" clip-rule="evenodd" d="M13.8862 11.1041C13.8855 11.1135 13.8868 11.1229 13.8902 11.1317C13.8935 11.1406 13.8989 11.1487 13.9058 11.1556C13.9127 11.1625 13.9211 11.168 13.9305 11.1717C13.9398 11.1755 13.9499 11.1774 13.9601 11.1774C13.9703 11.1774 13.9804 11.1755 13.9897 11.1717C13.9991 11.168 14.0075 11.1625 14.0144 11.1556C14.0213 11.1487 14.0267 11.1406 14.03 11.1317C14.0334 11.1229 14.0347 11.1135 14.034 11.1041C14.0326 11.0869 14.0242 11.0709 14.0105 11.0592C13.9968 11.0475 13.9788 11.041 13.9601 11.041C13.9414 11.041 13.9234 11.0475 13.9097 11.0592C13.896 11.0709 13.8876 11.0869 13.8862 11.1041Z" fill="white" stroke="black" stroke-width="0.151437"/>
<path id="Vector_77" fill-rule="evenodd" clip-rule="evenodd" d="M13.7036 11.1529C13.7028 11.1623 13.7042 11.1717 13.7076 11.1805C13.7109 11.1894 13.7162 11.1975 13.7232 11.2044C13.7301 11.2113 13.7385 11.2168 13.7479 11.2205C13.7572 11.2243 13.7673 11.2262 13.7775 11.2262C13.7877 11.2262 13.7978 11.2243 13.8071 11.2205C13.8165 11.2168 13.8249 11.2113 13.8318 11.2044C13.8387 11.1975 13.844 11.1894 13.8474 11.1805C13.8508 11.1717 13.8521 11.1623 13.8514 11.1529C13.85 11.1358 13.8416 11.1197 13.8279 11.108C13.8142 11.0963 13.7962 11.0898 13.7775 11.0898C13.7588 11.0898 13.7408 11.0963 13.7271 11.108C13.7134 11.1197 13.705 11.1358 13.7036 11.1529Z" fill="white" stroke="black" stroke-width="0.151437"/>
</g>
<path id="Vector_78" fill-rule="evenodd" clip-rule="evenodd" d="M11.8667 12.0924C11.8675 12.1017 11.8661 12.1111 11.8628 12.12C11.8594 12.1289 11.8541 12.137 11.8471 12.1439C11.8402 12.1507 11.8318 12.1562 11.8225 12.16C11.8131 12.1637 11.803 12.1657 11.7928 12.1657C11.7826 12.1657 11.7725 12.1637 11.7632 12.16C11.7539 12.1562 11.7455 12.1507 11.7385 12.1439C11.7316 12.137 11.7263 12.1289 11.7229 12.12C11.7195 12.1111 11.7182 12.1017 11.719 12.0924C11.7204 12.0752 11.7287 12.0592 11.7424 12.0475C11.7561 12.0358 11.7741 12.0293 11.7928 12.0293C11.8115 12.0293 11.8295 12.0358 11.8432 12.0475C11.8569 12.0592 11.8653 12.0752 11.8667 12.0924Z" fill="white" stroke="black" stroke-width="0.151437"/>
<path id="Vector_79" fill-rule="evenodd" clip-rule="evenodd" d="M11.7896 11.9381C11.7903 11.9474 11.789 11.9568 11.7856 11.9657C11.7822 11.9746 11.7769 11.9827 11.77 11.9896C11.7631 11.9964 11.7547 12.0019 11.7453 12.0057C11.736 12.0094 11.7259 12.0114 11.7157 12.0114C11.7055 12.0114 11.6954 12.0094 11.6861 12.0057C11.6767 12.0019 11.6683 11.9964 11.6614 11.9896C11.6544 11.9827 11.6491 11.9746 11.6458 11.9657C11.6424 11.9568 11.641 11.9474 11.6418 11.9381C11.6432 11.9209 11.6516 11.9049 11.6653 11.8932C11.679 11.8815 11.697 11.875 11.7157 11.875C11.7344 11.875 11.7524 11.8815 11.7661 11.8932C11.7798 11.9049 11.7882 11.9209 11.7896 11.9381Z" fill="white" stroke="black" stroke-width="0.151437"/>
<path id="Vector_80" fill-rule="evenodd" clip-rule="evenodd" d="M11.7544 11.7799C11.7552 11.7892 11.7538 11.7986 11.7505 11.8075C11.7471 11.8164 11.7418 11.8245 11.7348 11.8314C11.7279 11.8382 11.7195 11.8437 11.7102 11.8475C11.7008 11.8512 11.6907 11.8532 11.6805 11.8532C11.6703 11.8532 11.6602 11.8512 11.6509 11.8475C11.6416 11.8437 11.6332 11.8382 11.6262 11.8314C11.6193 11.8245 11.614 11.8164 11.6106 11.8075C11.6072 11.7986 11.6059 11.7892 11.6067 11.7799C11.6081 11.7627 11.6164 11.7467 11.6301 11.735C11.6438 11.7233 11.6618 11.7168 11.6805 11.7168C11.6992 11.7168 11.7172 11.7233 11.7309 11.735C11.7446 11.7467 11.753 11.7627 11.7544 11.7799Z" fill="white" stroke="black" stroke-width="0.151437"/>
<path id="Vector_81" fill-rule="evenodd" clip-rule="evenodd" d="M11.7261 11.6119C11.7268 11.6213 11.7255 11.6307 11.7221 11.6395C11.7188 11.6484 11.7134 11.6565 11.7065 11.6634C11.6996 11.6703 11.6912 11.6758 11.6818 11.6795C11.6725 11.6833 11.6624 11.6852 11.6522 11.6852C11.642 11.6852 11.6319 11.6833 11.6226 11.6795C11.6132 11.6758 11.6048 11.6703 11.5979 11.6634C11.591 11.6565 11.5856 11.6484 11.5823 11.6395C11.5789 11.6307 11.5776 11.6213 11.5783 11.6119C11.5797 11.5948 11.5881 11.5787 11.6018 11.567C11.6155 11.5553 11.6335 11.5488 11.6522 11.5488C11.6709 11.5488 11.6889 11.5553 11.7026 11.567C11.7163 11.5787 11.7247 11.5948 11.7261 11.6119Z" fill="white" stroke="black" stroke-width="0.151437"/>
<path id="Vector_82" fill-rule="evenodd" clip-rule="evenodd" d="M11.73 11.4283C11.7307 11.4377 11.7294 11.4471 11.726 11.4559C11.7227 11.4648 11.7174 11.4729 11.7104 11.4798C11.7035 11.4867 11.6951 11.4922 11.6857 11.4959C11.6764 11.4997 11.6663 11.5016 11.6561 11.5016C11.6459 11.5016 11.6358 11.4997 11.6265 11.4959C11.6171 11.4922 11.6087 11.4867 11.6018 11.4798C11.5949 11.4729 11.5896 11.4648 11.5862 11.4559C11.5828 11.4471 11.5815 11.4377 11.5822 11.4283C11.5836 11.4112 11.592 11.3951 11.6057 11.3834C11.6194 11.3717 11.6374 11.3652 11.6561 11.3652C11.6748 11.3652 11.6928 11.3717 11.7065 11.3834C11.7202 11.3951 11.7286 11.4112 11.73 11.4283Z" fill="white" stroke="black" stroke-width="0.151437"/>
<path id="Vector_83" fill-rule="evenodd" clip-rule="evenodd" d="M11.7925 11.2564C11.7932 11.2658 11.7919 11.2752 11.7885 11.2841C11.7852 11.2929 11.7799 11.301 11.7729 11.3079C11.766 11.3148 11.7576 11.3203 11.7482 11.3241C11.7389 11.3278 11.7288 11.3297 11.7186 11.3297C11.7084 11.3297 11.6983 11.3278 11.689 11.3241C11.6796 11.3203 11.6712 11.3148 11.6643 11.3079C11.6574 11.301 11.6521 11.2929 11.6487 11.2841C11.6453 11.2752 11.644 11.2658 11.6447 11.2564C11.6461 11.2393 11.6545 11.2233 11.6682 11.2116C11.6819 11.1999 11.6999 11.1934 11.7186 11.1934C11.7373 11.1934 11.7553 11.1999 11.769 11.2116C11.7827 11.2233 11.7911 11.2393 11.7925 11.2564Z" fill="white" stroke="black" stroke-width="0.151437"/>
<path id="Vector_84" fill-rule="evenodd" clip-rule="evenodd" d="M11.9263 11.1197C11.927 11.1291 11.9257 11.1385 11.9223 11.1473C11.919 11.1562 11.9136 11.1643 11.9067 11.1712C11.8998 11.1781 11.8914 11.1836 11.882 11.1873C11.8727 11.1911 11.8626 11.193 11.8524 11.193C11.8422 11.193 11.8321 11.1911 11.8228 11.1873C11.8134 11.1836 11.805 11.1781 11.7981 11.1712C11.7912 11.1643 11.7858 11.1562 11.7825 11.1473C11.7791 11.1385 11.7778 11.1291 11.7785 11.1197C11.7799 11.1026 11.7883 11.0865 11.802 11.0748C11.8157 11.0631 11.8337 11.0566 11.8524 11.0566C11.8711 11.0566 11.8891 11.0631 11.9028 11.0748C11.9165 11.0865 11.9249 11.1026 11.9263 11.1197Z" fill="white" stroke="black" stroke-width="0.151437"/>
<path id="Vector_85" fill-rule="evenodd" clip-rule="evenodd" d="M12.1167 11.0279C12.1175 11.0373 12.1161 11.0467 12.1128 11.0555C12.1094 11.0644 12.1041 11.0725 12.0971 11.0794C12.0902 11.0863 12.0818 11.0918 12.0725 11.0955C12.0631 11.0993 12.053 11.1012 12.0428 11.1012C12.0326 11.1012 12.0225 11.0993 12.0132 11.0955C12.0039 11.0918 11.9955 11.0863 11.9885 11.0794C11.9816 11.0725 11.9763 11.0644 11.9729 11.0555C11.9695 11.0467 11.9682 11.0373 11.969 11.0279C11.9704 11.0108 11.9787 10.9947 11.9924 10.983C12.0061 10.9713 12.0241 10.9648 12.0428 10.9648C12.0615 10.9648 12.0795 10.9713 12.0932 10.983C12.1069 10.9947 12.1153 11.0108 12.1167 11.0279Z" fill="white" stroke="black" stroke-width="0.151437"/>
<path id="Vector_86" fill-rule="evenodd" clip-rule="evenodd" d="M12.2954 11.0162C12.2962 11.0256 12.2948 11.035 12.2915 11.0438C12.2881 11.0527 12.2828 11.0608 12.2758 11.0677C12.2689 11.0746 12.2605 11.0801 12.2512 11.0838C12.2418 11.0876 12.2317 11.0895 12.2215 11.0895C12.2113 11.0895 12.2013 11.0876 12.1919 11.0838C12.1826 11.0801 12.1742 11.0746 12.1672 11.0677C12.1603 11.0608 12.155 11.0527 12.1516 11.0438C12.1482 11.035 12.1469 11.0256 12.1477 11.0162C12.1491 10.9991 12.1575 10.983 12.1712 10.9713C12.1849 10.9596 12.2029 10.9531 12.2215 10.9531C12.2402 10.9531 12.2582 10.9596 12.2719 10.9713C12.2856 10.983 12.294 10.9991 12.2954 11.0162Z" fill="white" stroke="black" stroke-width="0.151437"/>
<path id="Vector_87" fill-rule="evenodd" clip-rule="evenodd" d="M12.4927 11.0201C12.4934 11.0295 12.4921 11.0389 12.4887 11.0477C12.4854 11.0566 12.48 11.0647 12.4731 11.0716C12.4662 11.0785 12.4578 11.084 12.4484 11.0877C12.4391 11.0915 12.429 11.0934 12.4188 11.0934C12.4086 11.0934 12.3985 11.0915 12.3892 11.0877C12.3798 11.084 12.3714 11.0785 12.3645 11.0716C12.3576 11.0647 12.3522 11.0566 12.3489 11.0477C12.3455 11.0389 12.3442 11.0295 12.3449 11.0201C12.3463 11.003 12.3547 10.9869 12.3684 10.9752C12.3821 10.9635 12.4001 10.957 12.4188 10.957C12.4375 10.957 12.4555 10.9635 12.4692 10.9752C12.4829 10.9869 12.4913 11.003 12.4927 11.0201Z" fill="white" stroke="black" stroke-width="0.151437"/>
<path id="Vector_88" fill-rule="evenodd" clip-rule="evenodd" d="M12.6929 11.0494C12.6936 11.0588 12.6923 11.0682 12.6889 11.077C12.6856 11.0859 12.6802 11.094 12.6733 11.1009C12.6664 11.1078 12.658 11.1133 12.6486 11.117C12.6393 11.1208 12.6292 11.1227 12.619 11.1227C12.6088 11.1227 12.5987 11.1208 12.5894 11.117C12.58 11.1133 12.5716 11.1078 12.5647 11.1009C12.5578 11.094 12.5524 11.0859 12.5491 11.077C12.5457 11.0682 12.5444 11.0588 12.5451 11.0494C12.5465 11.0323 12.5549 11.0162 12.5686 11.0045C12.5823 10.9928 12.6003 10.9863 12.619 10.9863C12.6377 10.9863 12.6557 10.9928 12.6694 11.0045C12.6831 11.0162 12.6915 11.0323 12.6929 11.0494Z" fill="white" stroke="black" stroke-width="0.151437"/>
<path id="Vector_89" fill-rule="evenodd" clip-rule="evenodd" d="M12.8901 11.0728C12.8909 11.0822 12.8896 11.0916 12.8862 11.1005C12.8828 11.1093 12.8775 11.1175 12.8706 11.1243C12.8636 11.1312 12.8552 11.1367 12.8459 11.1405C12.8365 11.1442 12.8265 11.1461 12.8163 11.1461C12.8061 11.1461 12.796 11.1442 12.7866 11.1405C12.7773 11.1367 12.7689 11.1312 12.762 11.1243C12.755 11.1175 12.7497 11.1093 12.7463 11.1005C12.743 11.0916 12.7416 11.0822 12.7424 11.0728C12.7438 11.0557 12.7522 11.0397 12.7659 11.028C12.7796 11.0163 12.7976 11.0098 12.8163 11.0098C12.835 11.0098 12.853 11.0163 12.8667 11.028C12.8803 11.0397 12.8887 11.0557 12.8901 11.0728Z" fill="white" stroke="black" stroke-width="0.151437"/>
<path id="Vector_90" fill-rule="evenodd" clip-rule="evenodd" d="M13.1011 11.1041C13.1018 11.1135 13.1005 11.1229 13.0971 11.1317C13.0938 11.1406 13.0884 11.1487 13.0815 11.1556C13.0746 11.1625 13.0662 11.168 13.0568 11.1717C13.0475 11.1755 13.0374 11.1774 13.0272 11.1774C13.017 11.1774 13.0069 11.1755 12.9976 11.1717C12.9882 11.168 12.9798 11.1625 12.9729 11.1556C12.966 11.1487 12.9606 11.1406 12.9573 11.1317C12.9539 11.1229 12.9526 11.1135 12.9533 11.1041C12.9547 11.0869 12.9631 11.0709 12.9768 11.0592C12.9905 11.0475 13.0085 11.041 13.0272 11.041C13.0459 11.041 13.0639 11.0475 13.0776 11.0592C13.0913 11.0709 13.0997 11.0869 13.1011 11.1041Z" fill="white" stroke="black" stroke-width="0.151437"/>
<path id="Vector_91" fill-rule="evenodd" clip-rule="evenodd" d="M13.2837 11.1549C13.2845 11.1642 13.2831 11.1736 13.2797 11.1825C13.2764 11.1914 13.2711 11.1995 13.2641 11.2064C13.2572 11.2132 13.2488 11.2187 13.2394 11.2225C13.2301 11.2262 13.22 11.2282 13.2098 11.2282C13.1996 11.2282 13.1895 11.2262 13.1802 11.2225C13.1709 11.2187 13.1624 11.2132 13.1555 11.2064C13.1486 11.1995 13.1433 11.1914 13.1399 11.1825C13.1365 11.1736 13.1352 11.1642 13.136 11.1549C13.1373 11.1377 13.1457 11.1217 13.1594 11.11C13.1731 11.0983 13.1911 11.0918 13.2098 11.0918C13.2285 11.0918 13.2465 11.0983 13.2602 11.11C13.2739 11.1217 13.2823 11.1377 13.2837 11.1549Z" fill="white" stroke="black" stroke-width="0.151437"/>
<path id="Vector_92" fill-rule="evenodd" clip-rule="evenodd" d="M11.9683 12.2291C11.969 12.2385 11.9677 12.2479 11.9643 12.2567C11.961 12.2656 11.9556 12.2737 11.9487 12.2806C11.9418 12.2875 11.9334 12.293 11.924 12.2967C11.9147 12.3005 11.9046 12.3024 11.8944 12.3024C11.8842 12.3024 11.8741 12.3005 11.8648 12.2967C11.8554 12.293 11.847 12.2875 11.8401 12.2806C11.8331 12.2737 11.8278 12.2656 11.8245 12.2567C11.8211 12.2479 11.8198 12.2385 11.8205 12.2291C11.8219 12.2119 11.8303 12.1959 11.844 12.1842C11.8577 12.1725 11.8757 12.166 11.8944 12.166C11.9131 12.166 11.9311 12.1725 11.9448 12.1842C11.9585 12.1959 11.9669 12.2119 11.9683 12.2291Z" fill="white" stroke="black" stroke-width="0.151437"/>
<path id="Vector_93" fill-rule="evenodd" clip-rule="evenodd" d="M12.021 12.2355C12.021 12.2355 11.738 12.0363 11.7306 11.5571C11.7264 11.2812 11.8737 11.082 12.2425 11.082C12.7585 11.082 13.4956 11.2855 13.4956 11.2855V11.3533C13.4956 11.3533 12.9058 11.1498 12.242 11.1498C11.9474 11.1498 11.7996 11.3491 11.7996 11.5529C11.7996 11.8923 12.0951 12.2359 12.0951 12.2359V12.7788H12.021V12.2355Z" fill="#FFF100" stroke="black" stroke-width="0.151437"/>
<path id="Vector_94" fill-rule="evenodd" clip-rule="evenodd" d="M12.5352 12.4875C12.5352 12.4875 12.5564 12.4358 12.6335 12.4358C12.686 12.4358 12.7317 12.4875 12.7317 12.5392V12.6426H12.781V12.5392C12.781 12.4875 12.8301 12.4358 12.8792 12.4358C12.953 12.4358 12.9776 12.4875 12.9776 12.4875C12.9776 12.4875 12.9776 12.3324 12.8792 12.3324C12.8055 12.3324 12.781 12.384 12.781 12.384C12.781 12.384 12.8055 12.3065 12.8055 12.2289C12.8055 12.1513 12.7564 12.0996 12.7564 12.0996C12.7564 12.1095 12.7072 12.1514 12.7072 12.2289C12.7072 12.3064 12.7317 12.384 12.7317 12.384C12.7317 12.384 12.7072 12.3324 12.6335 12.3324C12.5352 12.3324 12.5352 12.4875 12.5352 12.4875Z" fill="#FFF100" stroke="black" stroke-width="0.121416"/>
<path id="Vector_95" fill-rule="evenodd" clip-rule="evenodd" d="M14.0078 12.4875C14.0078 12.4875 14.029 12.4358 14.1062 12.4358C14.1586 12.4358 14.2044 12.4875 14.2044 12.5392V12.6426H14.2536V12.5392C14.2536 12.4875 14.3027 12.4358 14.3519 12.4358C14.4257 12.4358 14.4502 12.4875 14.4502 12.4875C14.4502 12.4875 14.4502 12.3324 14.3519 12.3324C14.2782 12.3324 14.2536 12.384 14.2536 12.384C14.2536 12.384 14.2782 12.3065 14.2782 12.2289C14.2782 12.1513 14.2291 12.0996 14.2291 12.0996C14.2291 12.1095 14.1798 12.1514 14.1798 12.2289C14.1798 12.3064 14.2044 12.384 14.2044 12.384C14.2044 12.384 14.1798 12.3324 14.1062 12.3324C14.0078 12.3324 14.0078 12.4875 14.0078 12.4875Z" fill="#FFF100" stroke="black" stroke-width="0.121416"/>
<path id="Vector_96" fill-rule="evenodd" clip-rule="evenodd" d="M12.0205 13.1851V12.5741C12.0205 12.5741 12.1678 12.7779 12.3892 12.7779C12.5703 12.7779 12.758 12.5063 12.758 12.5063C12.758 12.5063 12.9307 12.7101 13.1267 12.7101C13.3015 12.7101 13.495 12.4473 13.495 12.4473C13.495 12.4473 13.6748 12.7101 13.8638 12.7101C14.0531 12.7101 14.2325 12.5063 14.2325 12.5063C14.2325 12.5063 14.4252 12.7779 14.6749 12.7779C14.8959 12.7779 14.97 12.5741 14.97 12.5741V13.1851H12.0205Z" fill="#FFF100" stroke="black" stroke-width="0.151437"/>
<path id="Vector_97" fill-rule="evenodd" clip-rule="evenodd" d="M12.0205 13.186V12.7109C12.0205 12.7109 12.4629 12.8462 12.4629 13.186H12.0205Z" fill="#FFF100" stroke="black" stroke-width="0.151437"/>
<path id="Vector_98" fill-rule="evenodd" clip-rule="evenodd" d="M14.9668 13.186V12.7109C14.9668 12.7109 14.5244 12.8462 14.5244 13.186H14.9668Z" fill="#FFF100" stroke="black" stroke-width="0.151437"/>
<path id="Vector_99" fill-rule="evenodd" clip-rule="evenodd" d="M12.3164 13.1852C12.3164 12.8454 12.7588 12.6309 12.7588 12.6309C12.7588 12.6309 13.2012 12.8454 13.2012 13.1852H12.3164Z" fill="#FFF100" stroke="black" stroke-width="0.151437"/>
<path id="Vector_100" fill-rule="evenodd" clip-rule="evenodd" d="M13.793 13.1852C13.793 12.8454 14.2354 12.6309 14.2354 12.6309C14.2354 12.6309 14.6778 12.8454 14.6778 13.1852H13.793Z" fill="#FFF100" stroke="black" stroke-width="0.151437"/>
<path id="Vector_101" fill-rule="evenodd" clip-rule="evenodd" d="M12.9805 13.1868C12.9805 12.8474 13.4969 12.5762 13.4969 12.5762C13.4969 12.5762 14.013 12.8474 14.013 13.1868H12.9809H12.9805Z" fill="#FFF100" stroke="black" stroke-width="0.151437"/>
<path id="Vector_102" fill-rule="evenodd" clip-rule="evenodd" d="M15.0397 13.1844C14.8941 13.1166 14.3567 13.0488 13.4914 13.0488C12.626 13.0488 12.0512 13.1166 11.9051 13.1844C11.7595 13.2523 11.7595 13.3883 11.9051 13.4561C12.0508 13.5239 12.6264 13.5917 13.4914 13.5917C14.3563 13.5917 14.8941 13.5239 15.0397 13.4561C15.1854 13.3883 15.1854 13.2523 15.0397 13.1844Z" fill="white" stroke="black" stroke-width="0.150577"/>
<path id="Vector_103" fill-rule="evenodd" clip-rule="evenodd" d="M14.9701 13.4594C14.9701 13.5965 13.7396 13.5965 13.4936 13.5965C13.2264 13.5965 12.0205 13.6316 12.0205 13.4559C12.0205 13.3223 13.2369 13.3223 13.4971 13.3223C13.7502 13.3223 14.9701 13.3504 14.9701 13.4594Z" fill="#808080"/>
<path id="Vector_104" fill-rule="evenodd" clip-rule="evenodd" d="M12.1646 12.9695C12.1646 13.0152 12.1365 13.0504 12.0943 13.0504C12.0521 13.0504 12.0205 13.0152 12.0205 12.9695C12.0205 12.9238 12.0521 12.8887 12.0908 12.8887C12.133 12.8887 12.1682 12.9238 12.1682 12.9695H12.1646ZM14.9701 12.9695C14.9701 13.0152 14.935 13.0504 14.8928 13.0504C14.8541 13.0504 14.8225 13.0152 14.8225 12.9695C14.8225 12.9238 14.8541 12.8887 14.8928 12.8887C14.935 12.8887 14.9666 12.9238 14.9666 12.9695H14.9701Z" fill="#CC0000"/>
<path id="Vector_105" fill-rule="evenodd" clip-rule="evenodd" d="M13.641 12.932C13.641 12.9742 13.5742 13.0094 13.4934 13.0094C13.416 13.0094 13.3457 12.9742 13.3457 12.9285C13.3457 12.8828 13.416 12.8477 13.4934 12.8477C13.5707 12.8477 13.641 12.8828 13.641 12.9285V12.932Z" fill="black"/>
<path id="Vector_106" fill-rule="evenodd" clip-rule="evenodd" d="M14.3477 12.932C14.3477 12.9742 14.2984 13.0094 14.2387 13.0094C14.1789 13.0094 14.1297 12.9742 14.1297 12.9285C14.1297 12.8828 14.1789 12.8477 14.2352 12.8477C14.2914 12.8477 14.3477 12.8828 14.3477 12.9285V12.932ZM12.8324 12.932C12.8324 12.9742 12.7832 13.0094 12.7199 13.0094C12.6566 13.0094 12.6074 12.9742 12.6074 12.9285C12.6074 12.8828 12.6566 12.8477 12.7199 12.8477C12.7832 12.8477 12.8324 12.8828 12.8324 12.9285V12.932Z" fill="#006300"/>
<path id="Vector_107" fill-rule="evenodd" clip-rule="evenodd" d="M13.1975 12.4636C13.1975 12.4636 13.2817 12.3475 13.3661 12.3475H13.4503V12.4248C13.4503 12.5413 13.324 12.5802 13.324 12.5802H13.661C13.661 12.5802 13.5345 12.5413 13.5345 12.4248V12.3475H13.6189C13.7031 12.3475 13.7872 12.464 13.7872 12.464V12.1534C13.7872 12.1534 13.7031 12.2698 13.6189 12.2698H13.5345V12.1921C13.5345 12.0759 13.661 12.0371 13.661 12.0371H13.3238C13.3238 12.0371 13.45 12.0759 13.45 12.1921V12.2698H13.3659C13.2814 12.2698 13.1973 12.1534 13.1973 12.1534V12.4638L13.1975 12.4636Z" fill="#FFF100" stroke="black" stroke-width="0.142779"/>
<path id="Vector_108" fill-rule="evenodd" clip-rule="evenodd" d="M12.0186 12.7114H12.1029C12.1029 12.7114 12.0396 12.6775 12.0396 12.5756V12.508H12.0817C12.1239 12.508 12.1662 12.6099 12.1662 12.6099V12.338C12.1662 12.338 12.1239 12.44 12.0817 12.44H12.0396V12.372C12.0396 12.2702 12.1029 12.2363 12.1029 12.2363H12.0186V12.7114Z" fill="#FFF100" stroke="black" stroke-width="0.141685"/>
<path id="Vector_109" fill-rule="evenodd" clip-rule="evenodd" d="M14.9678 12.7114H14.8834C14.8834 12.7114 14.9467 12.6775 14.9467 12.5756V12.508H14.9046C14.8624 12.508 14.8202 12.6099 14.8202 12.6099V12.338C14.8202 12.338 14.8624 12.44 14.9046 12.44H14.9467V12.372C14.9467 12.2702 14.8834 12.2363 14.8834 12.2363H14.9678V12.7114Z" fill="#FFF100" stroke="black" stroke-width="0.141685"/>
<path id="Vector_110" fill-rule="evenodd" clip-rule="evenodd" d="M13.5692 12.3041C13.5692 12.3221 13.5614 12.3394 13.5476 12.3521C13.5338 12.3648 13.5151 12.3719 13.4955 12.3719C13.476 12.3719 13.4573 12.3648 13.4435 12.3521C13.4296 12.3394 13.4219 12.3221 13.4219 12.3041C13.4219 12.2862 13.4296 12.2689 13.4435 12.2562C13.4573 12.2435 13.476 12.2363 13.4955 12.2363C13.5151 12.2363 13.5338 12.2435 13.5476 12.2562C13.5614 12.2689 13.5692 12.2862 13.5692 12.3041Z" fill="white" stroke="black" stroke-width="0.151437"/>
<path id="Vector_111" fill-rule="evenodd" clip-rule="evenodd" d="M13.1975 11.0358C13.1975 11.0358 13.2817 10.9198 13.3661 10.9198H13.4503V10.9971C13.4503 11.1135 13.324 11.1525 13.324 11.1525H13.661C13.661 11.1525 13.5345 11.1135 13.5345 10.9971V10.9198H13.6189C13.7031 10.9198 13.7872 11.0363 13.7872 11.0363V10.7256C13.7872 10.7256 13.7031 10.8421 13.6189 10.8421H13.5345V10.7644C13.5345 10.6481 13.661 10.6094 13.661 10.6094H13.3238C13.3238 10.6094 13.45 10.6481 13.45 10.7644V10.8421H13.3659C13.2814 10.8421 13.1973 10.7256 13.1973 10.7256V11.036L13.1975 11.0358Z" fill="#FFF100" stroke="black" stroke-width="0.142779"/>
<path id="Vector_112" fill-rule="evenodd" clip-rule="evenodd" d="M13.576 10.8862C13.576 10.9042 13.5683 10.9214 13.5545 10.9341C13.5406 10.9468 13.5219 10.954 13.5024 10.954C13.4828 10.954 13.4641 10.9468 13.4503 10.9341C13.4365 10.9214 13.4287 10.9042 13.4287 10.8862C13.4287 10.8682 13.4365 10.8509 13.4503 10.8382C13.4641 10.8255 13.4828 10.8184 13.5024 10.8184C13.5219 10.8184 13.5406 10.8255 13.5545 10.8382C13.5683 10.8509 13.576 10.8682 13.576 10.8862Z" fill="white" stroke="black" stroke-width="0.151437"/>
<path id="Vector_113" fill-rule="evenodd" clip-rule="evenodd" d="M13.3481 11.1504H13.6431V11.3542H13.3477L13.3481 11.1504Z" fill="#FFF100" stroke="black" stroke-width="0.151437"/>
<path id="Vector_114" fill-rule="evenodd" clip-rule="evenodd" d="M13.3481 11.2559H13.6431V12.0316H13.3477L13.3481 11.2559Z" fill="#FFF100" stroke="black" stroke-width="0.151437"/>
<path id="Vector_115" fill-rule="evenodd" clip-rule="evenodd" d="M13.5649 11.8951C13.5657 11.9045 13.5644 11.9139 13.561 11.9227C13.5576 11.9316 13.5523 11.9397 13.5454 11.9466C13.5384 11.9535 13.53 11.959 13.5207 11.9627C13.5114 11.9665 13.5013 11.9684 13.4911 11.9684C13.4809 11.9684 13.4708 11.9665 13.4614 11.9627C13.4521 11.959 13.4437 11.9535 13.4368 11.9466C13.4298 11.9397 13.4245 11.9316 13.4211 11.9227C13.4178 11.9139 13.4164 11.9045 13.4172 11.8951C13.4186 11.878 13.427 11.8619 13.4407 11.8502C13.4544 11.8385 13.4724 11.832 13.4911 11.832C13.5098 11.832 13.5278 11.8385 13.5415 11.8502C13.5552 11.8619 13.5635 11.878 13.5649 11.8951Z" fill="white" stroke="black" stroke-width="0.151437"/>
<path id="Vector_116" fill-rule="evenodd" clip-rule="evenodd" d="M13.5649 11.7232C13.5657 11.7326 13.5644 11.742 13.561 11.7509C13.5576 11.7597 13.5523 11.7678 13.5454 11.7747C13.5384 11.7816 13.53 11.7871 13.5207 11.7908C13.5114 11.7946 13.5013 11.7965 13.4911 11.7965C13.4809 11.7965 13.4708 11.7946 13.4614 11.7908C13.4521 11.7871 13.4437 11.7816 13.4368 11.7747C13.4298 11.7678 13.4245 11.7597 13.4211 11.7509C13.4178 11.742 13.4164 11.7326 13.4172 11.7232C13.4186 11.7061 13.427 11.6901 13.4407 11.6784C13.4544 11.6667 13.4724 11.6602 13.4911 11.6602C13.5098 11.6602 13.5278 11.6667 13.5415 11.6784C13.5552 11.6901 13.5635 11.7061 13.5649 11.7232Z" fill="white" stroke="black" stroke-width="0.151437"/>
<path id="Vector_117" fill-rule="evenodd" clip-rule="evenodd" d="M13.5649 11.5611C13.5657 11.5705 13.5644 11.5799 13.561 11.5888C13.5576 11.5976 13.5523 11.6057 13.5454 11.6126C13.5384 11.6195 13.53 11.625 13.5207 11.6287C13.5114 11.6325 13.5013 11.6344 13.4911 11.6344C13.4809 11.6344 13.4708 11.6325 13.4614 11.6287C13.4521 11.625 13.4437 11.6195 13.4368 11.6126C13.4298 11.6057 13.4245 11.5976 13.4211 11.5888C13.4178 11.5799 13.4164 11.5705 13.4172 11.5611C13.4186 11.544 13.427 11.5279 13.4407 11.5162C13.4544 11.5045 13.4724 11.498 13.4911 11.498C13.5098 11.498 13.5278 11.5045 13.5415 11.5162C13.5552 11.5279 13.5635 11.544 13.5649 11.5611Z" fill="white" stroke="black" stroke-width="0.151437"/>
<path id="Vector_118" fill-rule="evenodd" clip-rule="evenodd" d="M13.5649 11.3893C13.5657 11.3986 13.5644 11.408 13.561 11.4169C13.5576 11.4257 13.5523 11.4339 13.5454 11.4407C13.5384 11.4476 13.53 11.4531 13.5207 11.4569C13.5114 11.4606 13.5013 11.4626 13.4911 11.4626C13.4809 11.4626 13.4708 11.4606 13.4614 11.4569C13.4521 11.4531 13.4437 11.4476 13.4368 11.4407C13.4298 11.4339 13.4245 11.4257 13.4211 11.4169C13.4178 11.408 13.4164 11.3986 13.4172 11.3893C13.4186 11.3721 13.427 11.3561 13.4407 11.3444C13.4544 11.3327 13.4724 11.3262 13.4911 11.3262C13.5098 11.3262 13.5278 11.3327 13.5415 11.3444C13.5552 11.3561 13.5635 11.3721 13.5649 11.3893Z" fill="white" stroke="black" stroke-width="0.151437"/>
<path id="Vector_119" fill-rule="evenodd" clip-rule="evenodd" d="M13.6515 13.1875C13.6515 13.2191 13.5812 13.2438 13.4969 13.2438C13.4125 13.2438 13.3527 13.2191 13.3527 13.1875C13.3527 13.1559 13.4195 13.1348 13.5004 13.1348C13.5812 13.1348 13.6515 13.1594 13.6515 13.1875ZM15.0086 13.3211C15.0015 13.3457 14.9277 13.3457 14.8433 13.3246C14.7625 13.307 14.7027 13.2754 14.7097 13.2543C14.7203 13.2332 14.7941 13.2297 14.875 13.2543C14.9558 13.2719 15.0156 13.3 15.0086 13.3246V13.3211ZM14.439 13.2297C14.439 13.2578 14.3687 13.2754 14.2808 13.2719C14.2 13.2648 14.1332 13.2367 14.1332 13.2086C14.1367 13.184 14.2105 13.1664 14.2949 13.1734C14.3793 13.1805 14.4461 13.2051 14.439 13.2297ZM11.9465 13.3211C11.9535 13.3457 12.0273 13.3457 12.1082 13.3246C12.1926 13.307 12.2488 13.2754 12.2418 13.2543C12.2347 13.2332 12.1609 13.2297 12.0765 13.2543C11.9992 13.2719 11.9359 13.3 11.9465 13.3246V13.3211ZM12.5441 13.2191C12.5441 13.2473 12.6144 13.2613 12.6988 13.2543C12.7867 13.2508 12.8535 13.2262 12.8465 13.1945C12.8465 13.1699 12.7762 13.1523 12.6883 13.1594C12.6039 13.1629 12.5371 13.1875 12.5406 13.2191H12.5441Z" fill="black"/>
</g>
<path id="Vector_120" d="M0 0H9V9H0V0Z" fill="#012169"/>
<path id="Vector_121" d="M9 0V1.125L5.66016 4.5L9 7.78711V9H7.82227L4.46484 5.69531L1.19531 9H0V7.80469L3.26953 4.51758L0 1.30078V0H1.08984L4.46484 3.30469L7.73438 0H9Z" fill="white"/>
<path id="Vector_122" d="M3.23438 5.69531L3.42773 6.29297L0.738281 9H0V8.94727L3.23438 5.69531ZM5.41406 5.48438L6.36328 5.625L9 8.20898V9L5.41406 5.48438ZM9 0L5.625 3.44531L5.55469 2.67188L8.19141 0H9ZM0 0.0175781L3.39258 3.33984L2.35547 3.19922L0 0.861328V0.0175781Z" fill="#C8102E"/>
<path id="Vector_123" d="M3.09375 0V9H5.90625V0H3.09375ZM0 3.09375V5.90625H9V3.09375H0Z" fill="white"/>
<path id="Vector_124" d="M0 3.65625V5.34375H9V3.65625H0ZM3.65625 0V9H5.34375V0H3.65625Z" fill="#C8102E"/>
</g>
<defs>
<clipPath id="clip0_186_7006">
<rect width="18" height="18" fill="white"/>
</clipPath>
</defs>
</svg>
