<svg width="18" height="18" viewBox="0 0 18 18" fill="none" xmlns="http://www.w3.org/2000/svg">
<g id="dm" clip-path="url(#clip0_186_7146)">
<g id="Clip path group">
<mask id="mask0_186_7146" style="mask-type:luminance" maskUnits="userSpaceOnUse" x="0" y="0" width="18" height="18">
<g id="dm-a">
<path id="Vector" d="M0 0H18V18H0V0Z" fill="white"/>
</g>
</mask>
<g mask="url(#mask0_186_7146)">
<g id="Group">
<path id="Vector_2" fill-rule="evenodd" clip-rule="evenodd" d="M-9.08105 0H27.042V18H-9.08105V0Z" fill="#108C00"/>
<path id="Vector_3" fill-rule="evenodd" clip-rule="evenodd" d="M-9.14062 6.26562H27.1617V8.02695H-9.14062V6.26562Z" fill="#FFD600"/>
<path id="Vector_4" fill-rule="evenodd" clip-rule="evenodd" d="M6.36328 0H8.06836V18H6.3668L6.36328 0Z" fill="#FFD600"/>
<path id="Vector_5" fill-rule="evenodd" clip-rule="evenodd" d="M8.00879 0H9.71035V18H8.00879V0Z" fill="#000001"/>
<path id="Vector_6" fill-rule="evenodd" clip-rule="evenodd" d="M-9.14062 7.9668H27.1617V9.73164H-9.14062V7.9668Z" fill="#000001"/>
<path id="Vector_7" fill-rule="evenodd" clip-rule="evenodd" d="M-9.14062 9.73047H27.1617V11.4918H-9.14062V9.73047Z" fill="white"/>
<path id="Vector_8" fill-rule="evenodd" clip-rule="evenodd" d="M9.70996 0H11.415V18H9.70996V0Z" fill="white"/>
<path id="Vector_9" d="M4.24727 9.01367C4.24727 11.6834 6.40207 13.8477 9.06016 13.8477C11.7182 13.8477 13.873 11.6834 13.873 9.01367C13.873 6.34394 11.7182 4.17969 9.06016 4.17969C6.40207 4.17969 4.24727 6.34394 4.24727 9.01367Z" fill="#E72910"/>
<g id="Group_2">
<path id="Vector_10" fill-rule="evenodd" clip-rule="evenodd" d="M8.80625 4.81641L9.00313 4.25391L9.18242 4.80586C9.18242 4.80586 9.78359 4.82344 9.78359 4.81289C9.78359 4.80234 9.30898 5.175 9.30898 5.175L9.52344 5.79375C9.51641 5.77617 9.00313 5.41055 9.00313 5.41055C9.00313 5.41055 8.48281 5.77617 8.49336 5.77617C8.50391 5.77617 8.69023 5.17852 8.69023 5.17852L8.22266 4.82344L8.80625 4.81289V4.81641Z" fill="black"/>
<path id="Vector_11" fill-rule="evenodd" clip-rule="evenodd" d="M8.83398 4.84102L8.99922 4.35938L9.15391 4.8375C9.15391 4.8375 9.67773 4.85156 9.67773 4.84453C9.67773 4.8375 9.26641 5.16094 9.26641 5.16094L9.44922 5.69531C9.44219 5.67773 8.99922 5.36484 8.99922 5.36484C8.99922 5.36484 8.54922 5.68125 8.55625 5.68125C8.56328 5.68125 8.73203 5.16094 8.73203 5.16094L8.32422 4.85156L8.83047 4.84453L8.83398 4.84102Z" fill="#FFE700"/>
<path id="Vector_12" fill-rule="evenodd" clip-rule="evenodd" d="M8.90449 4.92188L9.00293 4.64062L9.09434 4.91836C9.09434 4.91836 9.39316 4.92539 9.39316 4.91836C9.39316 4.91133 9.15762 5.10117 9.15762 5.10117L9.26309 5.41055C9.25957 5.4 9.00293 5.2207 9.00293 5.2207L8.7498 5.40352C8.75684 5.40352 8.84824 5.10469 8.84824 5.10469L8.61621 4.92891L8.90449 4.92188Z" fill="#108C00"/>
</g>
<g id="Group_3">
<path id="Vector_13" fill-rule="evenodd" clip-rule="evenodd" d="M12.5475 7.44531L12.7443 6.88281L12.9201 7.43477C12.9201 7.43477 13.5248 7.45586 13.5248 7.44531C13.5248 7.43477 13.0502 7.80742 13.0502 7.80742L13.2611 8.42617C13.2541 8.40859 12.7443 8.04297 12.7443 8.04297C12.7443 8.04297 12.224 8.40859 12.2346 8.40859C12.2451 8.40859 12.4314 7.81094 12.4314 7.81094L11.9639 7.45234L12.5475 7.4418V7.44531Z" fill="black"/>
<path id="Vector_14" fill-rule="evenodd" clip-rule="evenodd" d="M12.5721 7.47305L12.7443 6.98438L12.899 7.46602C12.899 7.46602 13.4193 7.48008 13.4193 7.47305C13.4193 7.46602 13.008 7.78945 13.008 7.78945L13.1943 8.32031C13.1873 8.30625 12.7443 7.98984 12.7443 7.98984C12.7443 7.98984 12.2943 8.30625 12.3014 8.30625C12.3084 8.30625 12.4736 7.78594 12.4736 7.78594L12.0693 7.48008L12.5721 7.47305Z" fill="#FFE700"/>
<path id="Vector_15" fill-rule="evenodd" clip-rule="evenodd" d="M12.6463 7.55469L12.7447 7.27344L12.8326 7.54766L13.135 7.55469L12.8959 7.73398C12.8959 7.73398 13.0084 8.05039 13.0014 8.04336C13.0014 8.03281 12.7447 7.85352 12.7447 7.85352L12.4881 8.03281L12.5865 7.73398L12.3545 7.5582L12.6463 7.55469Z" fill="#108C00"/>
</g>
<g id="Group_4">
<path id="Vector_16" fill-rule="evenodd" clip-rule="evenodd" d="M11.4576 11.623L11.6545 11.0605L11.8303 11.616C11.8303 11.616 12.435 11.6336 12.435 11.6266C12.435 11.6195 11.9604 11.9887 11.9604 11.9887L12.1713 12.6039C12.1643 12.5863 11.6545 12.2242 11.6545 12.2242C11.6545 12.2242 11.1342 12.5863 11.1412 12.5863C11.1482 12.5863 11.3416 11.9887 11.3416 11.9887L10.874 11.6371L11.4576 11.623Z" fill="black"/>
<path id="Vector_17" fill-rule="evenodd" clip-rule="evenodd" d="M11.4822 11.6512L11.6545 11.166L11.8092 11.6441C11.8092 11.6441 12.3295 11.6617 12.3295 11.6512C12.3295 11.6406 11.9182 11.9676 11.9182 11.9676L12.1045 12.502C12.0975 12.4844 11.6545 12.1715 11.6545 12.1715C11.6545 12.1715 11.2045 12.4879 11.2115 12.4879C11.2186 12.4879 11.3838 11.9676 11.3838 11.9676L10.9795 11.6617L11.4822 11.6512Z" fill="#FFE700"/>
<path id="Vector_18" fill-rule="evenodd" clip-rule="evenodd" d="M11.5564 11.7324L11.6549 11.4512L11.7428 11.7289C11.7428 11.7289 12.0451 11.7395 12.0451 11.7324C12.0451 11.7254 11.8061 11.9152 11.8061 11.9152L11.9115 12.2211C11.9115 12.2141 11.6549 12.0312 11.6549 12.0312L11.3982 12.2141L11.4967 11.9152L11.2646 11.7395L11.5564 11.7324Z" fill="#108C00"/>
</g>
<g id="Group_5">
<path id="Vector_19" fill-rule="evenodd" clip-rule="evenodd" d="M6.23008 11.623L6.42695 11.0605L6.60273 11.616C6.60273 11.616 7.20391 11.6336 7.20391 11.6266C7.20391 11.6195 6.7293 11.9887 6.7293 11.9887L6.94727 12.6039C6.93672 12.5863 6.42695 12.2242 6.42695 12.2242C6.42695 12.2242 5.90664 12.5863 5.91367 12.5863C5.9207 12.5863 6.11406 11.9887 6.11406 11.9887L5.64648 11.6371L6.23008 11.623Z" fill="black"/>
<path id="Vector_20" fill-rule="evenodd" clip-rule="evenodd" d="M6.2582 11.6512L6.42695 11.166L6.58164 11.6441C6.58164 11.6441 7.10195 11.6617 7.10195 11.6512C7.10195 11.6406 6.69062 11.9676 6.69062 11.9676L6.87695 12.502C6.86992 12.4844 6.42695 12.1715 6.42695 12.1715C6.42695 12.1715 5.97695 12.4879 5.98398 12.4879C5.99102 12.4879 6.15625 11.9676 6.15625 11.9676L5.75195 11.6617L6.2582 11.6512Z" fill="#FFE700"/>
<path id="Vector_21" fill-rule="evenodd" clip-rule="evenodd" d="M6.32891 11.7324L6.42734 11.4512L6.51523 11.7289C6.51523 11.7289 6.81758 11.7395 6.81758 11.7324C6.81758 11.7254 6.57852 11.9152 6.57852 11.9152L6.68398 12.2211C6.68398 12.2141 6.42734 12.0312 6.42734 12.0312L6.1707 12.2141L6.26914 11.9152L6.03711 11.7395L6.32891 11.7324Z" fill="#108C00"/>
</g>
<g id="Group_6">
<path id="Vector_22" fill-rule="evenodd" clip-rule="evenodd" d="M5.27305 7.33789L5.46992 6.77539L5.64922 7.33086C5.64922 7.33086 6.25039 7.34844 6.25039 7.33789C6.25039 7.32734 5.77578 7.70352 5.77578 7.70352L5.99023 8.31875C5.97969 8.30117 5.46992 7.93906 5.46992 7.93906C5.46992 7.93906 4.94961 8.29766 4.96016 8.29766C4.9707 8.29766 5.15703 7.7 5.15703 7.7L4.68945 7.34844L5.27305 7.33789Z" fill="black"/>
<path id="Vector_23" fill-rule="evenodd" clip-rule="evenodd" d="M5.30117 7.36602L5.46992 6.88086L5.62813 7.35898C5.62813 7.35898 6.14492 7.37656 6.14492 7.36602C6.14492 7.35547 5.73359 7.68242 5.73359 7.68242L5.91992 8.2168C5.91289 8.19922 5.46992 7.88633 5.46992 7.88633C5.46992 7.88633 5.01992 8.20273 5.03047 8.20273C5.04102 8.20273 5.19922 7.68242 5.19922 7.68242L4.79492 7.37656L5.30117 7.36602Z" fill="#FFE700"/>
<path id="Vector_24" fill-rule="evenodd" clip-rule="evenodd" d="M5.37129 7.44727L5.46973 7.16602L5.56113 7.44375L5.85996 7.44727L5.62441 7.63008L5.72988 7.93594C5.72637 7.92891 5.46973 7.74609 5.46973 7.74609L5.2166 7.92891C5.22363 7.92891 5.31504 7.63008 5.31504 7.63008L5.08301 7.4543L5.37129 7.44727Z" fill="#108C00"/>
</g>
<g id="Group_7">
<path id="Vector_25" fill-rule="evenodd" clip-rule="evenodd" d="M11.4119 6.11992L11.215 6.68242L11.0393 6.13047C11.0393 6.13047 10.4346 6.11289 10.4346 6.11992C10.4346 6.12695 10.9092 5.75781 10.9092 5.75781L10.6982 5.14258C10.7053 5.16016 11.215 5.52227 11.215 5.52227C11.215 5.52227 11.7354 5.16016 11.7248 5.16016C11.7143 5.16016 11.5279 5.75781 11.5279 5.75781L11.9955 6.10938L11.4119 6.11992Z" fill="black"/>
<path id="Vector_26" fill-rule="evenodd" clip-rule="evenodd" d="M11.3873 6.09141C11.3873 6.10195 11.2115 6.58008 11.2115 6.58008L11.0604 6.10195C11.0604 6.10195 10.54 6.08438 10.54 6.09141C10.54 6.09844 10.9514 5.77852 10.9514 5.77852L10.765 5.24414C10.7721 5.26172 11.215 5.57461 11.215 5.57461C11.215 5.57461 11.665 5.2582 11.658 5.2582C11.651 5.2582 11.4857 5.77852 11.4857 5.77852L11.89 6.08438L11.3873 6.09141Z" fill="#FFE700"/>
<path id="Vector_27" fill-rule="evenodd" clip-rule="evenodd" d="M11.3139 6.01055L11.2154 6.2918L11.1275 6.01758C11.1275 6.01758 10.8252 6.00703 10.8252 6.01406C10.8252 6.02109 11.0643 5.83125 11.0643 5.83125L10.9588 5.52539C10.9588 5.53242 11.2154 5.71523 11.2154 5.71523L11.4721 5.53242C11.465 5.53242 11.3701 5.83125 11.3701 5.83125L11.6057 6.00703L11.3139 6.01406V6.01055Z" fill="#108C00"/>
</g>
<g id="Group_8">
<path id="Vector_28" fill-rule="evenodd" clip-rule="evenodd" d="M12.9129 10.2055L12.716 10.768L12.5402 10.2125C12.5402 10.2125 11.9355 10.1949 11.9355 10.2055C11.9355 10.216 12.4102 9.84336 12.4102 9.84336L12.1992 9.22461C12.2063 9.24219 12.716 9.6043 12.716 9.6043C12.716 9.6043 13.2363 9.24219 13.2258 9.24219C13.2152 9.24219 13.0289 9.83984 13.0289 9.83984L13.5 10.1949L12.9129 10.2055Z" fill="black"/>
<path id="Vector_29" fill-rule="evenodd" clip-rule="evenodd" d="M12.8883 10.177L12.716 10.6621L12.5613 10.184C12.5613 10.184 12.041 10.1699 12.041 10.177C12.041 10.184 12.4523 9.86055 12.4523 9.86055L12.266 9.32617C12.273 9.34375 12.716 9.65664 12.716 9.65664C12.716 9.65664 13.166 9.34024 13.159 9.34024C13.152 9.34024 12.9867 9.86055 12.9867 9.86055L13.391 10.1699L12.8883 10.177Z" fill="#FFE700"/>
<path id="Vector_30" fill-rule="evenodd" clip-rule="evenodd" d="M12.8148 10.0961L12.7164 10.3773L12.6285 10.0996C12.6285 10.0996 12.3262 10.0926 12.3262 10.0996C12.3262 10.1066 12.5652 9.9168 12.5652 9.9168L12.4598 9.60742C12.4598 9.61797 12.7164 9.79727 12.7164 9.79727L12.973 9.61445C12.966 9.61445 12.8711 9.9168 12.8711 9.9168L13.1066 10.0926L12.8148 10.0961Z" fill="#108C00"/>
</g>
<g id="Group_9">
<path id="Vector_31" fill-rule="evenodd" clip-rule="evenodd" d="M9.19023 13.1937L8.99336 13.7562L8.81758 13.2008C8.81758 13.2008 8.21289 13.1832 8.21289 13.1902C8.21289 13.1973 8.6875 12.8281 8.6875 12.8281L8.47656 12.2129C8.48359 12.2305 8.99336 12.5926 8.99336 12.5926C8.99336 12.5926 9.51367 12.2305 9.50312 12.2305C9.49258 12.2305 9.30625 12.8281 9.30625 12.8281L9.77383 13.1832L9.19023 13.1937Z" fill="black"/>
<path id="Vector_32" fill-rule="evenodd" clip-rule="evenodd" d="M9.16563 13.1617L8.99336 13.6539L8.83867 13.1723C8.83867 13.1723 8.31836 13.1547 8.31836 13.1652C8.31836 13.1758 8.72969 12.8488 8.72969 12.8488L8.54336 12.3145C8.55039 12.332 8.99336 12.6449 8.99336 12.6449C8.99336 12.6449 9.44336 12.3285 9.43633 12.3285C9.4293 12.3285 9.26406 12.8488 9.26406 12.8488L9.66836 13.1547L9.16563 13.1652V13.1617Z" fill="#FFE700"/>
<path id="Vector_33" fill-rule="evenodd" clip-rule="evenodd" d="M9.09219 13.0844L8.99375 13.3656L8.90586 13.0879C8.90586 13.0879 8.60352 13.0773 8.60352 13.0844C8.60352 13.0914 8.84258 12.9016 8.84258 12.9016L8.73711 12.5957C8.73711 12.6027 8.99375 12.7855 8.99375 12.7855L9.25039 12.6027L9.15195 12.9016L9.38398 13.0773L9.09219 13.0844Z" fill="#108C00"/>
</g>
<g id="Group_10">
<path id="Vector_34" fill-rule="evenodd" clip-rule="evenodd" d="M5.6957 10.2055L5.49531 10.768L5.31953 10.2125C5.31953 10.2125 4.71484 10.1949 4.71484 10.2055C4.71484 10.216 5.18945 9.84336 5.18945 9.84336L4.97852 9.22461C4.98555 9.24219 5.49531 9.6043 5.49531 9.6043L6.01211 9.2457L5.81172 9.84336L6.2793 10.1984L5.6957 10.209V10.2055Z" fill="black"/>
<path id="Vector_35" fill-rule="evenodd" clip-rule="evenodd" d="M5.66758 10.177L5.49531 10.6621L5.34062 10.184C5.34062 10.184 4.82031 10.1699 4.82031 10.177C4.82031 10.184 5.23164 9.86055 5.23164 9.86055L5.04531 9.32617C5.05234 9.34375 5.49531 9.65664 5.49531 9.65664C5.49531 9.65664 5.94531 9.34024 5.93828 9.34024C5.93125 9.34024 5.76602 9.86055 5.76602 9.86055L6.17031 10.1699L5.66758 10.177Z" fill="#FFE700"/>
<path id="Vector_36" fill-rule="evenodd" clip-rule="evenodd" d="M5.59414 10.0961L5.4957 10.3773L5.40781 10.0996C5.40781 10.0996 5.10547 10.0926 5.10547 10.0996C5.10547 10.1066 5.34453 9.9168 5.34453 9.9168L5.23906 9.60742C5.23906 9.61797 5.4957 9.79727 5.4957 9.79727L5.75234 9.61445L5.65391 9.9168L5.88594 10.0926L5.59414 10.0961Z" fill="#108C00"/>
</g>
<g id="Group_11">
<path id="Vector_37" fill-rule="evenodd" clip-rule="evenodd" d="M6.98516 6.18047L6.78828 6.74297L6.60547 6.19102C6.60547 6.19102 6.00781 6.17344 6.00781 6.18047C6.00781 6.1875 6.48242 5.81836 6.48242 5.81836L6.26797 5.20312C6.275 5.2207 6.78477 5.58281 6.78477 5.58281C6.78477 5.58281 7.30508 5.2207 7.29805 5.2207C7.29102 5.2207 7.10117 5.81836 7.10117 5.81836L7.56523 6.16992L6.98516 6.18047Z" fill="black"/>
<path id="Vector_38" fill-rule="evenodd" clip-rule="evenodd" d="M6.95664 6.15195L6.78437 6.64414L6.62969 6.1625C6.62969 6.1625 6.10938 6.14492 6.10938 6.15547C6.10938 6.16602 6.5207 5.83906 6.5207 5.83906L6.33437 5.30469C6.34141 5.32227 6.78437 5.63516 6.78437 5.63516C6.78437 5.63516 7.23438 5.31875 7.22734 5.31875C7.22031 5.31875 7.05859 5.83906 7.05859 5.83906L7.45937 6.14492L6.95664 6.15547V6.15195Z" fill="#FFE700"/>
<path id="Vector_39" fill-rule="evenodd" clip-rule="evenodd" d="M6.88359 6.07461L6.78516 6.35586L6.69727 6.07812C6.69727 6.07812 6.39844 6.06758 6.39844 6.07461C6.39844 6.08164 6.63398 5.8918 6.63398 5.8918L6.52852 5.58594C6.52852 5.59297 6.78516 5.77578 6.78516 5.77578L7.0418 5.59297L6.94336 5.8918L7.17539 6.06758L6.88359 6.07461Z" fill="#108C00"/>
</g>
<g id="Group_12">
<g id="Group_13">
<path id="Vector_40" d="M9.85065 11.4727C9.99337 11.4581 10.0679 10.8772 10.017 10.1752C9.96621 9.4732 9.80932 8.91596 9.66661 8.93057C9.52389 8.94519 9.4494 9.52611 9.50023 10.2281C9.55105 10.9301 9.70794 11.4874 9.85065 11.4727Z" fill="#009200" stroke="black" stroke-width="0.535138"/>
<path id="Vector_41" d="M10.1133 11.4689C10.2642 11.4535 10.3443 10.872 10.2923 10.1701C10.2402 9.46824 10.0756 8.91175 9.92467 8.92717C9.77373 8.94258 9.69358 9.52406 9.74566 10.2259C9.79773 10.9278 9.96231 11.4843 10.1133 11.4689Z" fill="#009200" stroke="black" stroke-width="0.550352"/>
<path id="Vector_42" d="M9.99715 11.6736C10.118 11.6611 10.1714 11.0221 10.1164 10.2463C10.0614 9.47045 9.91882 8.85164 9.79795 8.86412C9.67708 8.8766 9.62369 9.51565 9.6787 10.2915C9.73371 11.0673 9.87628 11.6861 9.99715 11.6736Z" fill="#009200" stroke="black" stroke-width="0.517704"/>
</g>
<g id="Group_14">
<path id="Vector_43" fill-rule="evenodd" clip-rule="evenodd" d="M7.8727 10.872C8.09367 10.862 7.998 10.7437 8.10957 10.6806C8.22114 10.6175 8.37932 10.6589 8.42716 10.7376C8.47426 10.8162 8.43602 10.8936 8.49782 10.8945C8.55888 10.8954 10.2249 10.8212 10.2848 10.8868C10.3454 10.9524 10.3547 11.0827 10.2927 11.1333C10.2307 11.1838 8.1239 11.2133 8.0513 11.16C7.97869 11.1075 7.87247 10.8845 7.8727 10.872Z" fill="#A95600" stroke="black" stroke-width="0.538573"/>
<path id="Vector_44" fill-rule="evenodd" clip-rule="evenodd" d="M9.05369 11.0392C9.04932 11.2068 9.29646 11.159 9.29928 11.299C9.29163 11.4472 8.88545 11.308 8.88227 11.0369C8.8996 10.7656 9.29727 10.6319 9.30239 10.787C9.30551 10.9152 9.05752 10.8717 9.05315 11.0392L9.05369 11.0392Z" fill="#FFFF00" stroke="black" stroke-width="0.527227"/>
<path id="Vector_45" fill-rule="evenodd" clip-rule="evenodd" d="M9.1992 11.0431C9.19483 11.2107 9.44196 11.1629 9.44478 11.3029C9.43714 11.4511 9.03095 11.3119 9.02778 11.0408C9.0451 10.7695 9.44277 10.6358 9.44789 10.7909C9.45102 10.9191 9.20303 10.8756 9.19866 11.0431L9.1992 11.0431Z" fill="#FFFF00" stroke="black" stroke-width="0.527227"/>
<path id="Vector_46" fill-rule="evenodd" clip-rule="evenodd" d="M9.35545 11.0373C9.35108 11.2048 9.59821 11.157 9.60103 11.297C9.59339 11.4452 9.1872 11.3061 9.18403 11.0349C9.20135 10.7637 9.59902 10.6299 9.60414 10.785C9.60727 10.9133 9.35928 10.8697 9.35491 11.0373L9.35545 11.0373Z" fill="#FFFF00" stroke="black" stroke-width="0.527227"/>
<path id="Vector_47" fill-rule="evenodd" clip-rule="evenodd" d="M9.50193 11.0373C9.49756 11.2048 9.7447 11.157 9.74752 11.297C9.73988 11.4452 9.33369 11.3061 9.33052 11.0349C9.34784 10.7637 9.74551 10.6299 9.75063 10.785C9.75375 10.9133 9.50576 10.8697 9.50139 11.0373L9.50193 11.0373Z" fill="#FFFF00" stroke="black" stroke-width="0.527227"/>
<path id="Vector_48" d="M10.204 11.1433C10.281 11.1444 10.3449 11.0814 10.3465 11.0025C10.3482 10.9235 10.287 10.8586 10.2099 10.8575C10.1328 10.8564 10.069 10.9194 10.0673 10.9984C10.0657 11.0773 10.1269 11.1422 10.204 11.1433Z" fill="#A95600" stroke="black" stroke-width="0.465908"/>
</g>
<g id="Group_15">
<path id="Vector_49" d="M9.38993 10.8026C9.45869 10.7922 9.50114 10.6607 9.48475 10.5089C9.46835 10.3571 9.39932 10.2424 9.33056 10.2527C9.2618 10.2631 9.21935 10.3946 9.23574 10.5464C9.25214 10.6982 9.32117 10.8129 9.38993 10.8026Z" fill="#009200" stroke="black" stroke-width="0.592605"/>
<path id="Vector_50" d="M9.17509 10.783C9.24385 10.7727 9.2863 10.6412 9.2699 10.4894C9.25351 10.3376 9.18447 10.2229 9.11571 10.2332C9.04695 10.2436 9.0045 10.375 9.0209 10.5269C9.0373 10.6787 9.10633 10.7934 9.17509 10.783Z" fill="#009200" stroke="black" stroke-width="0.592605"/>
<path id="Vector_51" d="M9.02274 10.5096C9.09151 10.4992 9.13395 10.3678 9.11756 10.2159C9.10116 10.0641 9.03213 9.94943 8.96337 9.95978C8.89461 9.97013 8.85216 10.1016 8.86856 10.2534C8.88495 10.4052 8.95398 10.5199 9.02274 10.5096Z" fill="#009200" stroke="black" stroke-width="0.592605"/>
<path id="Vector_52" d="M9.24951 10.5232C9.31569 10.5123 9.35473 10.3674 9.33672 10.1997C9.31871 10.032 9.25046 9.90483 9.18428 9.91576C9.1181 9.92669 9.07906 10.0715 9.09707 10.2393C9.11508 10.407 9.18333 10.5341 9.24951 10.5232Z" fill="#009200" stroke="black" stroke-width="0.611753"/>
<path id="Vector_53" d="M9.54556 10.5234C9.61183 10.5133 9.65182 10.3777 9.63488 10.2206C9.61794 10.0635 9.5505 9.94428 9.48424 9.95438C9.41797 9.96447 9.37799 10.1 9.39492 10.2572C9.41186 10.4143 9.4793 10.5335 9.54556 10.5234Z" fill="#009200" stroke="black" stroke-width="0.591894"/>
<path id="Vector_54" d="M9.3815 10.4218C9.44776 10.4117 9.48775 10.2762 9.47082 10.119C9.45388 9.96192 9.38644 9.84272 9.32017 9.85281C9.25391 9.86291 9.21392 9.99847 9.23086 10.1556C9.24779 10.3127 9.31524 10.4319 9.3815 10.4218Z" fill="#009200" stroke="black" stroke-width="0.591894"/>
<path id="Vector_55" d="M9.17642 10.2793C9.24269 10.2692 9.28267 10.1336 9.26574 9.97647C9.2488 9.81934 9.18136 9.70014 9.1151 9.71024C9.04883 9.72033 9.00885 9.85589 9.02578 10.013C9.04272 10.1702 9.11016 10.2894 9.17642 10.2793Z" fill="#009200" stroke="black" stroke-width="0.591894"/>
<path id="Vector_56" d="M8.98502 10.1953C9.05128 10.1852 9.09127 10.0496 9.07433 9.89248C9.0574 9.73535 8.98995 9.61616 8.92369 9.62625C8.85743 9.63635 8.81744 9.77191 8.83437 9.92904C8.85131 10.0862 8.91876 10.2054 8.98502 10.1953Z" fill="#009200" stroke="black" stroke-width="0.591894"/>
</g>
<path id="Vector_57" fill-rule="evenodd" clip-rule="evenodd" d="M8.74763 7.53522C8.74763 7.53522 8.32731 7.90226 8.38217 8.89449C8.44401 9.89275 9.32939 10.3614 9.32939 10.3614C9.32939 10.3614 9.55212 10.0774 9.51954 9.27623C9.44742 8.10272 9.02742 7.58581 9.02742 7.58581L8.74828 7.53534L8.74763 7.53522Z" fill="#804BFF" stroke="black" stroke-width="0.471764"/>
<g id="Group_16">
<path id="Vector_58" d="M9.68557 10.8405C9.75507 10.8427 9.82034 10.7209 9.83136 10.5686C9.84237 10.4163 9.79496 10.2911 9.72545 10.289C9.65595 10.2869 9.59068 10.4086 9.57967 10.5609C9.56865 10.7132 9.61607 10.8384 9.68557 10.8405Z" fill="#009200" stroke="black" stroke-width="0.592605"/>
<path id="Vector_59" d="M9.47854 10.7839C9.54804 10.786 9.61331 10.6643 9.62433 10.5119C9.63534 10.3596 9.58793 10.2345 9.51842 10.2323C9.44892 10.2302 9.38365 10.352 9.37263 10.5043C9.36162 10.6566 9.40903 10.7818 9.47854 10.7839Z" fill="#009200" stroke="black" stroke-width="0.592605"/>
<path id="Vector_60" d="M9.37697 10.487C9.44648 10.4891 9.51175 10.3674 9.52276 10.2151C9.53378 10.0628 9.48636 9.93758 9.41686 9.93547C9.34736 9.93335 9.28209 10.0551 9.27107 10.2074C9.26006 10.3597 9.30747 10.4849 9.37697 10.487Z" fill="#009200" stroke="black" stroke-width="0.592605"/>
<path id="Vector_61" d="M9.59751 10.5429C9.66457 10.544 9.72889 10.4085 9.74116 10.2402C9.75343 10.072 9.70901 9.93468 9.64194 9.9336C9.57488 9.93252 9.51056 10.068 9.49829 10.2363C9.48602 10.4046 9.53044 10.5418 9.59751 10.5429Z" fill="#009200" stroke="black" stroke-width="0.611753"/>
<path id="Vector_62" d="M9.88948 10.5938C9.95648 10.5957 10.0201 10.4695 10.0315 10.3119C10.0429 10.1542 9.99788 10.0249 9.93088 10.023C9.86388 10.0211 9.8003 10.1473 9.78887 10.3049C9.77744 10.4626 9.82248 10.5919 9.88948 10.5938Z" fill="#009200" stroke="black" stroke-width="0.591894"/>
<path id="Vector_63" d="M9.74593 10.4669C9.81293 10.4688 9.87651 10.3425 9.88794 10.1849C9.89938 10.0273 9.85433 9.89796 9.78733 9.89605C9.72033 9.89413 9.65675 10.0204 9.64531 10.178C9.63388 10.3356 9.67893 10.4649 9.74593 10.4669Z" fill="#009200" stroke="black" stroke-width="0.591894"/>
<path id="Vector_64" d="M9.57015 10.2891C9.63715 10.291 9.70073 10.1648 9.71216 10.0072C9.72359 9.84956 9.67855 9.72023 9.61155 9.71831C9.54455 9.7164 9.48097 9.84262 9.46953 10.0003C9.4581 10.1579 9.50315 10.2872 9.57015 10.2891Z" fill="#009200" stroke="black" stroke-width="0.591894"/>
<path id="Vector_65" d="M9.39632 10.1719C9.46332 10.1739 9.5269 10.0476 9.53833 9.89C9.54977 9.73237 9.50472 9.60304 9.43772 9.60112C9.37072 9.59921 9.30714 9.72544 9.29571 9.88306C9.28427 10.0407 9.32932 10.17 9.39632 10.1719Z" fill="#009200" stroke="black" stroke-width="0.591894"/>
</g>
<path id="Vector_66" d="M10.069 10.2621C10.2532 10.1918 10.2078 9.68464 9.96769 9.12942C9.72759 8.57419 9.3837 8.18114 9.19958 8.2515C9.01547 8.32187 9.06085 8.829 9.30094 9.38422C9.54104 9.93944 9.88493 10.3325 10.069 10.2621Z" fill="#C90000" stroke="black" stroke-width="0.227401"/>
<g id="Group_17">
<path id="Vector_67" d="M9.36637 8.35808C9.45217 8.35957 9.52279 8.29916 9.52412 8.22314C9.52545 8.14713 9.45697 8.08429 9.37117 8.08279C9.28537 8.08129 9.21474 8.1417 9.21342 8.21772C9.21209 8.29374 9.28057 8.35658 9.36637 8.35808Z" fill="#009200" stroke="black" stroke-width="0.528668"/>
<path id="Vector_68" d="M9.48891 8.16053C9.56581 8.16187 9.62922 8.10133 9.63054 8.02532C9.63187 7.9493 9.57061 7.88658 9.49372 7.88524C9.41683 7.8839 9.35342 7.94444 9.35209 8.02046C9.35076 8.09647 9.41202 8.15919 9.48891 8.16053Z" fill="#009200" stroke="black" stroke-width="0.533845"/>
<path id="Vector_69" d="M9.29946 8.15662C9.37635 8.15796 9.43976 8.09743 9.44109 8.02141C9.44242 7.94539 9.38116 7.88268 9.30427 7.88134C9.22737 7.87999 9.16396 7.94053 9.16264 8.01655C9.16131 8.09257 9.22257 8.15528 9.29946 8.15662Z" fill="#009200" stroke="black" stroke-width="0.533845"/>
<path id="Vector_70" d="M9.33828 8.00701C9.41864 8.00841 9.4848 7.95171 9.48605 7.88036C9.4873 7.80901 9.42315 7.75004 9.34279 7.74863C9.26242 7.74723 9.19626 7.80393 9.19501 7.87528C9.19377 7.94663 9.25791 8.0056 9.33828 8.00701Z" fill="#009200" stroke="black" stroke-width="0.528746"/>
<path id="Vector_71" d="M9.32265 7.84295C9.40302 7.84435 9.46918 7.78765 9.47042 7.7163C9.47167 7.64495 9.40753 7.58597 9.32716 7.58457C9.24679 7.58317 9.18063 7.63987 9.17939 7.71122C9.17814 7.78257 9.24228 7.84154 9.32265 7.84295Z" fill="#009200" stroke="black" stroke-width="0.528746"/>
<path id="Vector_72" d="M9.1188 8.05311C9.19569 8.05445 9.2591 7.99391 9.26043 7.91789C9.26175 7.84188 9.20049 7.77916 9.1236 7.77782C9.04671 7.77648 8.9833 7.83702 8.98197 7.91303C8.98065 7.98905 9.0419 8.05176 9.1188 8.05311Z" fill="#009200" stroke="black" stroke-width="0.533845"/>
<path id="Vector_73" d="M9.15893 7.86974C9.23583 7.87108 9.29921 7.8118 9.30051 7.73734C9.30181 7.66288 9.24053 7.60143 9.16364 7.60009C9.08675 7.59874 9.02336 7.65802 9.02206 7.73248C9.02076 7.80694 9.08204 7.86839 9.15893 7.86974Z" fill="#009200" stroke="black" stroke-width="0.528351"/>
<path id="Vector_74" d="M8.93082 7.87761C9.01662 7.8791 9.08725 7.81869 9.08857 7.74268C9.0899 7.66666 9.02142 7.60382 8.93563 7.60232C8.84983 7.60082 8.7792 7.66123 8.77787 7.73725C8.77654 7.81327 8.84502 7.87611 8.93082 7.87761Z" fill="#009200" stroke="black" stroke-width="0.528668"/>
<path id="Vector_75" d="M9.21718 7.63982C9.29755 7.64122 9.36371 7.58452 9.36496 7.51317C9.3662 7.44183 9.30206 7.38285 9.22169 7.38145C9.14132 7.38004 9.07516 7.43675 9.07392 7.50809C9.07267 7.57944 9.13681 7.63842 9.21718 7.63982Z" fill="#009200" stroke="black" stroke-width="0.528746"/>
<path id="Vector_76" d="M9.02417 7.67052C9.10106 7.67186 9.16445 7.61258 9.16575 7.53812C9.16705 7.46366 9.10577 7.40221 9.02888 7.40087C8.95198 7.39953 8.88859 7.4588 8.8873 7.53326C8.886 7.60772 8.94728 7.66917 9.02417 7.67052Z" fill="#009200" stroke="black" stroke-width="0.528351"/>
<path id="Vector_77" d="M8.72524 7.88514C8.80214 7.88648 8.86554 7.82594 8.86687 7.74993C8.8682 7.67391 8.80694 7.61119 8.73005 7.60985C8.65315 7.60851 8.58974 7.66905 8.58842 7.74506C8.58709 7.82108 8.64835 7.8838 8.72524 7.88514Z" fill="#009200" stroke="black" stroke-width="0.533845"/>
<path id="Vector_78" d="M8.77417 7.77989C8.85106 7.78123 8.91445 7.72196 8.91575 7.6475C8.91705 7.57304 8.85577 7.51158 8.77888 7.51024C8.70198 7.5089 8.63859 7.56818 8.6373 7.64264C8.636 7.7171 8.69728 7.77855 8.77417 7.77989Z" fill="#009200" stroke="black" stroke-width="0.528351"/>
<path id="Vector_79" d="M8.83472 7.66856C8.91161 7.66991 8.975 7.61063 8.9763 7.53617C8.9776 7.46171 8.91632 7.40026 8.83942 7.39891C8.76253 7.39757 8.69914 7.45685 8.69784 7.53131C8.69654 7.60577 8.75782 7.66722 8.83472 7.66856Z" fill="#009200" stroke="black" stroke-width="0.528351"/>
</g>
<g id="Group_18">
<path id="Vector_80" d="M10.2492 10.2621C10.4857 10.1782 10.4467 9.57421 10.162 8.91302C9.8773 8.25182 9.45479 7.78381 9.21828 7.86768C8.98177 7.95154 9.02082 8.55554 9.30551 9.21673C9.59019 9.87792 10.0127 10.3459 10.2492 10.2621Z" fill="#009200" stroke="black" stroke-width="0.464966"/>
<path id="Vector_81" d="M10.2177 9.52534C10.2614 9.50446 10.2469 9.37589 10.1852 9.23818C10.1235 9.10046 10.0381 9.00576 9.99429 9.02664C9.95052 9.04752 9.96504 9.17609 10.0267 9.3138C10.0884 9.45152 10.1739 9.54623 10.2177 9.52534Z" fill="#009200" stroke="black" stroke-width="0.472824"/>
<path id="Vector_82" fill-rule="evenodd" clip-rule="evenodd" d="M10.065 9.2761C10.4355 9.72563 10.3876 10.0119 10.3483 10.2536C10.2318 9.97478 10.1702 9.7994 9.79981 9.34987C9.42938 8.90034 9.6144 8.58456 9.63979 8.41757C9.69544 8.56202 9.69459 8.82657 10.065 9.2761Z" fill="#009200" stroke="black" stroke-width="0.484337"/>
<path id="Vector_83" fill-rule="evenodd" clip-rule="evenodd" d="M10.0982 9.63743C10.4687 10.087 10.4208 10.3732 10.3815 10.6149C10.265 10.3361 10.2034 10.1607 9.83301 9.7112C9.46258 9.26167 9.6476 8.94589 9.67299 8.77889C9.72864 8.92335 9.72779 9.1879 10.0982 9.63743Z" fill="#009200" stroke="black" stroke-width="0.484337"/>
<path id="Vector_84" fill-rule="evenodd" clip-rule="evenodd" d="M10.1122 9.93059C10.4919 10.3721 10.45 10.6593 10.4157 10.9018C10.2934 10.6255 10.2282 10.4515 9.84851 10.01C9.46879 9.56851 9.64726 9.24888 9.6692 9.08139C9.72783 9.22461 9.73246 9.4891 10.1122 9.93059Z" fill="#009200" stroke="black" stroke-width="0.484326"/>
<path id="Vector_85" d="M10.048 9.29755C10.1348 9.27533 10.1169 9.05841 10.0081 8.81304C9.89934 8.56767 9.74085 8.38677 9.65412 8.40899C9.56738 8.43121 9.58525 8.64813 9.69403 8.8935C9.8028 9.13887 9.96129 9.31977 10.048 9.29755Z" fill="#009200" stroke="black" stroke-width="0.480043"/>
<path id="Vector_86" d="M9.85655 9.47303C9.9346 9.45947 9.92937 9.28375 9.84486 9.08055C9.76035 8.87735 9.62857 8.72361 9.55051 8.73717C9.47246 8.75073 9.47769 8.92645 9.5622 9.12965C9.64671 9.33285 9.77849 9.48659 9.85655 9.47303Z" fill="#009200" stroke="black" stroke-width="0.467386"/>
<path id="Vector_87" d="M9.67067 9.64206C9.74895 9.63013 9.74735 9.4544 9.66709 9.24956C9.58683 9.04473 9.45831 8.88834 9.38003 8.90027C9.30174 8.9122 9.30334 9.08793 9.3836 9.29277C9.46386 9.49761 9.59238 9.65399 9.67067 9.64206Z" fill="#009200" stroke="black" stroke-width="0.467205"/>
<path id="Vector_88" d="M9.80634 8.93348C9.8694 8.92183 9.86155 8.78963 9.7888 8.63821C9.71605 8.48679 9.60596 8.37349 9.5429 8.38514C9.47983 8.3968 9.48768 8.529 9.56043 8.68042C9.63318 8.83184 9.74327 8.94514 9.80634 8.93348Z" fill="#009200" stroke="black" stroke-width="0.482248"/>
<path id="Vector_89" d="M9.63425 9.05493C9.69797 9.04672 9.69861 8.91427 9.63569 8.75908C9.57276 8.60389 9.4701 8.48474 9.40638 8.49295C9.34267 8.50116 9.34203 8.63362 9.40495 8.7888C9.46788 8.94399 9.57054 9.06314 9.63425 9.05493Z" fill="#009200" stroke="black" stroke-width="0.481917"/>
<g id="Vector_90">
<path fill-rule="evenodd" clip-rule="evenodd" d="M9.40452 8.59592C9.51378 8.86269 9.55792 9.10275 9.50275 9.13187C9.44757 9.16099 9.31433 8.96794 9.20508 8.70117" fill="#009200"/>
<path d="M9.40452 8.59592C9.51378 8.86269 9.55792 9.10275 9.50275 9.13187C9.44757 9.16099 9.31433 8.96794 9.20508 8.70117" stroke="black" stroke-width="0.476786"/>
</g>
<path id="Vector_91" d="M9.61668 8.74243C9.68039 8.73422 9.68103 8.60177 9.61811 8.44658C9.55518 8.29139 9.45252 8.17224 9.3888 8.18045C9.32509 8.18866 9.32445 8.32112 9.38737 8.4763C9.4503 8.63149 9.55296 8.75064 9.61668 8.74243Z" fill="#009200" stroke="black" stroke-width="0.481917"/>
<path id="Vector_92" d="M9.43395 8.82893C9.49789 8.82195 9.50144 8.68956 9.44189 8.53321C9.38234 8.37687 9.28224 8.25578 9.2183 8.26276C9.15437 8.26974 9.15081 8.40213 9.21036 8.55848C9.26991 8.71482 9.37002 8.83591 9.43395 8.82893Z" fill="#009200" stroke="black" stroke-width="0.481966"/>
<g id="Vector_93">
<path fill-rule="evenodd" clip-rule="evenodd" d="M9.21897 8.23881C9.32547 8.41924 9.38286 8.58783 9.34687 8.61524C9.31087 8.64265 9.19536 8.51832 9.08887 8.33789" fill="#009200"/>
<path d="M9.21897 8.23881C9.32547 8.41924 9.38286 8.58783 9.34687 8.61524C9.31087 8.64265 9.19536 8.51832 9.08887 8.33789" stroke="black" stroke-width="0.478022"/>
</g>
<g id="Vector_94">
<path fill-rule="evenodd" clip-rule="evenodd" d="M9.29221 8.11771C9.39871 8.29814 9.45611 8.46673 9.42011 8.49415C9.38411 8.52156 9.26861 8.39722 9.16211 8.2168" fill="#009200"/>
<path d="M9.29221 8.11771C9.39871 8.29814 9.45611 8.46673 9.42011 8.49415C9.38411 8.52156 9.26861 8.39722 9.16211 8.2168" stroke="black" stroke-width="0.478022"/>
</g>
<g id="Vector_95">
<path fill-rule="evenodd" clip-rule="evenodd" d="M9.61994 8.13989C9.76801 8.3861 9.84768 8.61622 9.79747 8.65371C9.74727 8.6912 9.58654 8.5216 9.43848 8.27539" fill="#009200"/>
<path d="M9.61994 8.13989C9.76801 8.3861 9.84768 8.61622 9.79747 8.65371C9.74727 8.6912 9.58654 8.5216 9.43848 8.27539" stroke="black" stroke-width="0.477028"/>
</g>
<g id="Vector_96">
<path fill-rule="evenodd" clip-rule="evenodd" d="M9.40529 8.00645C9.51218 8.2052 9.56994 8.39084 9.534 8.42094C9.49807 8.45103 9.38228 8.31399 9.27539 8.11523" fill="#009200"/>
<path d="M9.40529 8.00645C9.51218 8.2052 9.56994 8.39084 9.534 8.42094C9.49807 8.45103 9.38228 8.31399 9.27539 8.11523" stroke="black" stroke-width="0.470102"/>
</g>
</g>
<g id="Group_19">
<path id="Vector_97" fill-rule="evenodd" clip-rule="evenodd" d="M9.39127 7.73175C9.32004 7.80401 9.38987 7.93837 9.45498 7.9864C9.52772 8.05281 9.93855 8.48542 10.2277 8.11948C9.99573 8.11564 9.56244 7.5713 9.39127 7.73175Z" fill="#804BFF" stroke="black" stroke-width="0.485519"/>
<path id="Vector_98" fill-rule="evenodd" clip-rule="evenodd" d="M9.33951 7.51691C9.26829 7.58917 9.33811 7.72352 9.40322 7.77155C9.47596 7.83797 9.88679 8.27057 10.1759 7.90464C9.94397 7.90079 9.51068 7.35646 9.33951 7.51691Z" fill="#804BFF" stroke="black" stroke-width="0.485519"/>
<path id="Vector_99" fill-rule="evenodd" clip-rule="evenodd" d="M9.27408 7.31183C9.20286 7.38409 9.27268 7.51844 9.33779 7.56647C9.41053 7.63289 9.82136 8.0655 10.1105 7.69956C9.87854 7.69572 9.44525 7.15138 9.27408 7.31183Z" fill="#804BFF" stroke="black" stroke-width="0.485519"/>
<path id="Vector_100" fill-rule="evenodd" clip-rule="evenodd" d="M9.13248 7.07941C9.06126 7.15167 9.13108 7.28602 9.19619 7.33405C9.26893 7.40047 9.67976 7.83307 9.96887 7.46714C9.73694 7.46329 9.30365 6.91896 9.13248 7.07941Z" fill="#804BFF" stroke="black" stroke-width="0.485519"/>
</g>
<g id="Group_20">
<path id="Vector_101" fill-rule="evenodd" clip-rule="evenodd" d="M8.62203 6.84372C8.76937 6.73599 9.04066 6.7043 9.25145 6.81201C9.42745 6.89829 9.71913 7.24725 9.93906 7.33007C9.8807 7.34296 9.81983 7.34568 9.76005 7.33808C9.70027 7.33048 9.64279 7.31271 9.59099 7.28581C9.39477 7.42599 9.32533 7.44619 9.12501 7.47388C8.84808 7.51203 8.61795 7.43989 8.53841 7.29651C8.45525 7.1613 8.49139 6.94446 8.62203 6.84372Z" fill="#804BFF" stroke="black" stroke-width="0.516507"/>
<path id="Vector_102" d="M8.92199 7.12517C8.99196 7.12639 9.04925 7.09461 9.04996 7.05418C9.05066 7.01376 8.99451 6.98 8.92454 6.97877C8.85457 6.97755 8.79728 7.00933 8.79657 7.04976C8.79587 7.09018 8.85202 7.12395 8.92199 7.12517Z" fill="#FF0000" stroke="black" stroke-width="0.469283"/>
<path id="Vector_103" d="M8.58864 7.46042C8.68017 7.42639 8.73753 7.35365 8.71675 7.29794C8.69597 7.24224 8.60492 7.22467 8.51339 7.2587C8.42186 7.29273 8.3645 7.36547 8.38528 7.42117C8.40606 7.47687 8.49711 7.49444 8.58864 7.46042Z" fill="#FFFF00" stroke="black" stroke-width="0.509711"/>
<path id="Vector_104" d="M8.91884 7.09066C8.9438 7.09109 8.96434 7.07395 8.96472 7.05237C8.96509 7.03079 8.94516 7.01294 8.9202 7.01251C8.89524 7.01207 8.87469 7.02921 8.87432 7.05079C8.87394 7.07237 8.89387 7.09022 8.91884 7.09066Z" fill="black"/>
<path id="Vector_105" fill-rule="evenodd" clip-rule="evenodd" d="M8.6486 7.13988C8.6604 7.19582 8.61913 7.27251 8.52911 7.30066C8.43717 7.33993 8.36784 7.42727 8.32813 7.56963C8.18685 7.24762 8.27529 7.10952 8.42332 7.07495C8.55097 7.03259 8.62787 7.03703 8.6486 7.13988Z" fill="#FFFF00" stroke="black" stroke-width="0.604842"/>
<path id="Vector_106" d="M8.51617 7.19432C8.53387 7.1934 8.5474 7.17807 8.54639 7.16009C8.54538 7.1421 8.53021 7.12827 8.51251 7.12919C8.49482 7.13011 8.48129 7.14544 8.4823 7.16342C8.48331 7.1814 8.49847 7.19524 8.51617 7.19432Z" fill="black"/>
</g>
</g>
</g>
</g>
</g>
</g>
<defs>
<clipPath id="clip0_186_7146">
<rect width="18" height="18" fill="white"/>
</clipPath>
</defs>
</svg>
