<svg width="18" height="18" viewBox="0 0 18 18" fill="none" xmlns="http://www.w3.org/2000/svg">
<g id="dz" clip-path="url(#clip0_186_7398)">
<path id="Vector" d="M9 0H18V18H9V0Z" fill="white"/>
<path id="Vector_2" d="M0 0H9V18H0V0Z" fill="#006233"/>
<path id="Vector_3" d="M12.902 6.75C12.4067 5.89211 11.6422 5.22163 10.727 4.84254C9.81176 4.46346 8.79705 4.39695 7.8402 4.65334C6.88335 4.90972 6.03783 5.47468 5.43479 6.26058C4.83175 7.04647 4.50488 8.0094 4.50488 9C4.50488 9.99061 4.83175 10.9535 5.43479 11.7394C6.03783 12.5253 6.88335 13.0903 7.8402 13.3467C8.79705 13.6031 9.81176 13.5365 10.727 13.1575C11.6422 12.7784 12.4067 12.1079 12.902 11.25C12.4358 11.8322 11.8003 12.2553 11.0833 12.4607C10.3663 12.6662 9.60322 12.6439 8.89946 12.3968C8.1957 12.1498 7.58603 11.6903 7.15472 11.0818C6.72341 10.4733 6.49175 9.74586 6.49175 9C6.49175 8.25415 6.72341 7.5267 7.15472 6.9182C7.58603 6.3097 8.1957 5.85019 8.89946 5.60317C9.60322 5.35615 10.3663 5.33382 11.0833 5.53926C11.8003 5.7447 12.4358 6.16777 12.902 6.75ZM13.0497 9L8.99965 7.67813L11.5204 11.1305V6.86953L8.99965 10.3219L13.0497 9Z" fill="#D21034"/>
</g>
<defs>
<clipPath id="clip0_186_7398">
<rect width="18" height="18" fill="white"/>
</clipPath>
</defs>
</svg>
