<svg width="18" height="18" viewBox="0 0 18 18" fill="none" xmlns="http://www.w3.org/2000/svg">
<g id="eac" clip-path="url(#clip0_186_7402)">
<path id="eac-a" d="M0 12.2422H18V13.0508H0V12.2422Z" fill="white"/>
<path id="eac-a_2" d="M0 4.94922H18V5.75781H0V4.94922Z" fill="white"/>
<path id="eac-b" d="M0 13.0508H18V18.0008H0V13.0508Z" fill="#0087FF"/>
<path id="eac-b_2" d="M0 0H18V4.95H0V0Z" fill="#0087FF"/>
<path id="Vector" d="M0 10.8906H18V12.2406H0V10.8906Z" fill="#FF0000"/>
<path id="Vector_2" d="M0 5.75781H18V7.10781H0V5.75781Z" fill="#000001"/>
<path id="Vector_3" d="M0 7.74219H18V10.2629H0V7.74219Z" fill="#FFFF00"/>
<path id="eac-c" d="M0 10.2578H18V10.8871H0V10.2578Z" fill="#008300"/>
<path id="eac-c_2" d="M0 7.10938H18V7.73867H0V7.10938Z" fill="#008300"/>
<g id="Group">
<path id="Vector_4" d="M9.001 6.00586C8.48461 6.00674 7.98002 6.1603 7.55068 6.44722C7.12134 6.73415 6.78644 7.14163 6.58811 7.61841C6.38977 8.0952 6.33685 8.61998 6.43601 9.12676C6.53517 9.63354 6.78197 10.0997 7.14538 10.4665L6.02612 10.8265L6.12757 11.0818L5.76758 11.1604L6.02939 11.9982H11.9726L12.2312 11.1604L11.8712 11.0818L11.9726 10.8233L10.8533 10.4665C11.2166 10.0999 11.4633 9.63403 11.5626 9.12756C11.6618 8.62108 11.6092 8.09657 11.4113 7.61992C11.2133 7.14327 10.8789 6.73576 10.4501 6.44858C10.0213 6.1614 9.51711 6.00738 9.001 6.00586Z" fill="white" stroke="black" stroke-width="1.8618"/>
<path id="Vector_5" d="M6.08496 11.1738L6.31405 11.9135H11.6878L11.9136 11.1738H6.08496Z" fill="#008300"/>
<path id="Vector_6" d="M6.22949 11.2676L6.3964 11.8174H11.6033L11.7702 11.2676H7.55493H6.22949Z" fill="white"/>
<path id="Vector_7" d="M6.59592 11.5917C6.59592 11.6037 6.59468 11.6152 6.59221 11.6263C6.58973 11.6369 6.5854 11.6462 6.57922 11.654C6.57303 11.6623 6.56478 11.6688 6.55447 11.6734C6.54416 11.678 6.53097 11.6803 6.51488 11.6803C6.50045 11.6803 6.48808 11.6785 6.47777 11.6748C6.46705 11.6706 6.45818 11.666 6.45117 11.6609L6.46787 11.6173C6.47406 11.6215 6.48086 11.6249 6.48829 11.6277C6.4953 11.6309 6.50293 11.6326 6.51117 11.6326C6.52354 11.6326 6.53241 11.6291 6.53777 11.6222C6.54313 11.6157 6.54581 11.6044 6.54581 11.5882V11.4255H6.59592V11.5917ZM6.732 11.6803C6.71592 11.6803 6.70231 11.678 6.69118 11.6734C6.67963 11.6683 6.67015 11.6614 6.66272 11.6526C6.6553 11.6439 6.64973 11.6335 6.64602 11.6215C6.64272 11.609 6.64107 11.5956 6.64107 11.5813V11.4255H6.69118V11.5758C6.69118 11.5859 6.69221 11.5945 6.69427 11.6014C6.69633 11.6083 6.69922 11.6141 6.70293 11.6187C6.70623 11.6233 6.71035 11.6265 6.7153 11.6284C6.72066 11.6302 6.72644 11.6312 6.73262 11.6312C6.74499 11.6312 6.75489 11.627 6.76231 11.6187C6.76974 11.6104 6.77345 11.5961 6.77345 11.5758V11.4248H6.82417V11.5806C6.82417 11.5949 6.82211 11.6083 6.81799 11.6208C6.81469 11.6328 6.80933 11.6434 6.8019 11.6526C6.79407 11.6614 6.78438 11.6681 6.77283 11.6727C6.76128 11.6773 6.74767 11.6796 6.732 11.6796V11.6803ZM6.93118 11.4255C6.93531 11.4333 6.93984 11.4432 6.94479 11.4552L6.96088 11.4926L6.97696 11.5342L6.99242 11.5744L7.00727 11.5342L7.02335 11.4926L7.03943 11.4552C7.04438 11.4432 7.04892 11.4333 7.05304 11.4255H7.09882L7.105 11.4809L7.10933 11.5453C7.11098 11.5674 7.11222 11.5898 7.11304 11.6125L7.11614 11.6755H7.06727L7.0648 11.5958L7.05985 11.5093L7.04748 11.5432L7.03263 11.5799C7.02851 11.5924 7.02418 11.6042 7.01964 11.6152L7.00851 11.6436H6.97325L6.96273 11.6152L6.94912 11.5799L6.9349 11.5432L6.92252 11.5093C6.92005 11.5384 6.9184 11.5672 6.91758 11.5958L6.9151 11.6755H6.86562L6.86871 11.6125L6.87242 11.5453L6.87737 11.4816L6.88355 11.4255H6.93118ZM7.24913 11.6803C7.23346 11.6803 7.21985 11.678 7.2083 11.6734C7.19676 11.6683 7.18727 11.6614 7.17985 11.6526C7.17243 11.6439 7.16686 11.6335 7.16315 11.6215C7.15985 11.609 7.1582 11.5956 7.1582 11.5813V11.4255H7.2083V11.5758C7.2083 11.5859 7.20934 11.5945 7.2114 11.6014C7.21346 11.6083 7.21635 11.6141 7.22006 11.6187C7.22377 11.6233 7.22789 11.6265 7.23243 11.6284C7.23779 11.6302 7.24356 11.6312 7.24975 11.6312C7.26212 11.6312 7.27202 11.627 7.27944 11.6187C7.28686 11.6104 7.29057 11.5961 7.29057 11.5758V11.4248H7.3413V11.5806C7.3413 11.5949 7.33924 11.6083 7.33511 11.6208C7.33181 11.6328 7.32645 11.6434 7.31903 11.6526C7.31119 11.6614 7.3015 11.6681 7.28996 11.6727C7.27841 11.6773 7.2648 11.6796 7.24913 11.6796V11.6803ZM7.38893 11.4255H7.43965V11.6755H7.38955L7.38893 11.4255ZM7.57326 11.528L7.59924 11.4767C7.60749 11.4596 7.61491 11.4425 7.62151 11.4255H7.67718C7.66481 11.4522 7.65203 11.4783 7.63883 11.5037C7.62563 11.5291 7.61182 11.5545 7.59739 11.5799V11.6755H7.54728V11.5806C7.53244 11.5552 7.51842 11.5298 7.50522 11.5044C7.49202 11.4786 7.47924 11.4522 7.46687 11.4255H7.52563C7.53223 11.4425 7.53965 11.4596 7.5479 11.4767L7.57326 11.528ZM7.82193 11.6755L7.81389 11.6492L7.80523 11.6215H7.71863L7.70935 11.6492L7.70192 11.6755H7.64873L7.67285 11.6007L7.6945 11.5363L7.71615 11.4788C7.72316 11.4603 7.73038 11.4425 7.7378 11.4255H7.78605C7.79347 11.4425 7.80069 11.4603 7.8077 11.4788L7.82873 11.5363L7.851 11.6007L7.87513 11.6755H7.82193ZM7.76131 11.4816C7.76048 11.4857 7.75883 11.4908 7.75636 11.4968L7.74894 11.5183L7.73966 11.546L7.72976 11.5764H7.79347L7.78358 11.5453L7.7743 11.5183L7.76687 11.4975L7.76131 11.4816ZM8.06379 11.528L8.08977 11.4767C8.09802 11.4596 8.10544 11.4425 8.11204 11.4255H8.16771C8.15534 11.4522 8.14276 11.4783 8.12998 11.5037C8.11678 11.5291 8.10276 11.5545 8.08791 11.5799V11.6755H8.03843V11.5806L7.99637 11.5044C7.98317 11.4786 7.97059 11.4522 7.95863 11.4255H8.01678L8.03905 11.4767L8.06379 11.528ZM8.31246 11.6755L8.30441 11.6492L8.29575 11.6215H8.20915L8.20049 11.6492L8.19245 11.6755H8.14049L8.164 11.6007L8.18627 11.5363L8.2073 11.4788C8.21431 11.4603 8.22173 11.4425 8.22957 11.4255H8.2772C8.28462 11.4425 8.29184 11.4603 8.29885 11.4788L8.3205 11.5363L8.34277 11.6007L8.36627 11.6755H8.31246ZM8.25245 11.4816L8.24751 11.4968L8.24008 11.5183L8.2308 11.546L8.22091 11.5764H8.284L8.2741 11.5453L8.26483 11.5183L8.2574 11.4975L8.25245 11.4816ZM8.62236 11.6755L8.61432 11.6492L8.60566 11.6215H8.51906L8.5104 11.6492L8.50236 11.6755H8.4504L8.4739 11.6007C8.48133 11.5776 8.48875 11.5561 8.49617 11.5363L8.5172 11.4788C8.52421 11.4603 8.53143 11.4425 8.53885 11.4255H8.5871C8.59452 11.4425 8.60174 11.4603 8.60875 11.4788L8.62978 11.5363L8.65205 11.6007L8.67618 11.6755H8.62236ZM8.56174 11.4816L8.55741 11.4968L8.54999 11.5183L8.54071 11.546L8.53019 11.5764H8.59391L8.58401 11.5453L8.57473 11.5183L8.56731 11.4975L8.56174 11.4816ZM8.70525 11.6755V11.4255H8.85494V11.4726H8.75597V11.5252H8.84381V11.5723H8.75535V11.6762L8.70525 11.6755ZM8.95577 11.4227C8.98917 11.4227 9.01474 11.4294 9.03247 11.4428C9.05062 11.4562 9.05969 11.4769 9.05969 11.5051C9.05969 11.5227 9.05598 11.537 9.04856 11.5481C9.04155 11.5587 9.03124 11.5672 9.01763 11.5737L9.03185 11.5945L9.04608 11.6201L9.06031 11.6478L9.07268 11.6755H9.01701L9.00402 11.6506L8.99165 11.6263L8.97804 11.6035L8.96567 11.5841H8.94093V11.6755H8.8902V11.4289C8.90134 11.4266 8.91268 11.425 8.92422 11.4241L8.95515 11.4227H8.95577ZM8.95886 11.4705H8.94773L8.93969 11.4719V11.5397H8.95391C8.97288 11.5397 8.98649 11.537 8.99474 11.5314C9.00299 11.5264 9.00711 11.5173 9.00711 11.5044C9.00711 11.492 9.00299 11.4834 8.99474 11.4788C8.98649 11.4733 8.97412 11.4705 8.95763 11.4705H8.95886ZM9.10547 11.4255H9.15557V11.6755H9.10547V11.4255ZM9.33929 11.6755C9.33475 11.6672 9.32939 11.6584 9.3232 11.6492L9.30279 11.6208C9.29578 11.6111 9.28836 11.6018 9.28052 11.5931C9.27269 11.5843 9.26506 11.5764 9.25763 11.5695V11.6755H9.20691V11.4255H9.25763V11.5197C9.27083 11.5044 9.28382 11.4885 9.2966 11.4719L9.33372 11.4255H9.39372C9.37846 11.4458 9.363 11.4652 9.34733 11.4836C9.33207 11.5026 9.31599 11.5215 9.29908 11.5404C9.31681 11.5571 9.33392 11.5769 9.35042 11.6C9.36733 11.6231 9.38341 11.6485 9.39867 11.6762L9.33929 11.6755ZM9.58486 11.6755L9.57744 11.6492L9.56878 11.6215H9.48218L9.4729 11.6492L9.46547 11.6755H9.4129L9.43702 11.6007L9.45867 11.5363L9.48032 11.4788C9.48733 11.4603 9.49455 11.4425 9.50197 11.4255H9.55022C9.55764 11.4425 9.56486 11.4603 9.57187 11.4788L9.5929 11.5363L9.61517 11.6007L9.63929 11.6755H9.58486ZM9.52486 11.4816L9.52053 11.4968L9.5131 11.5183L9.50321 11.546L9.49331 11.5764H9.55702L9.54713 11.5453L9.53785 11.5183L9.53042 11.4975L9.52486 11.4816ZM9.80507 11.4255C9.80919 11.4333 9.81352 11.4432 9.81806 11.4552L9.83414 11.4926L9.85023 11.5342L9.86569 11.5744L9.88054 11.5342L9.89662 11.4926L9.9127 11.4552C9.91765 11.4432 9.92219 11.4333 9.92631 11.4255H9.97208L9.97827 11.4809L9.9826 11.5453C9.98425 11.5674 9.98549 11.5898 9.98631 11.6125L9.9894 11.6755H9.94054L9.93806 11.5958L9.93311 11.5093L9.92074 11.5432L9.9059 11.5799C9.90177 11.5924 9.89744 11.6042 9.89291 11.6152L9.88177 11.6436H9.84651L9.836 11.6152L9.82239 11.5799L9.80816 11.5432L9.79579 11.5093C9.79332 11.5384 9.79167 11.5672 9.79084 11.5958L9.78837 11.6755H9.73888L9.74198 11.6125L9.74569 11.5453L9.75064 11.4816L9.75682 11.4255H9.80507ZM10.1849 11.6755L10.1762 11.6492L10.1682 11.6215H10.081L10.0723 11.6492L10.0643 11.6755H10.0123L10.0358 11.6007L10.0581 11.5363L10.0791 11.4788C10.0861 11.4603 10.0935 11.4425 10.1014 11.4255H10.149C10.1564 11.4425 10.1636 11.4603 10.1706 11.4788C10.1781 11.4973 10.1853 11.5164 10.1923 11.5363L10.2146 11.6007L10.2381 11.6755H10.1849ZM10.1243 11.4816L10.1193 11.4968L10.1119 11.5183L10.1026 11.546L10.0927 11.5764H10.1558L10.1459 11.5453L10.1366 11.5183L10.1292 11.4975L10.1243 11.4816ZM10.3346 11.6326C10.3416 11.6326 10.3474 11.6319 10.3519 11.6305C10.3564 11.6291 10.3601 11.6275 10.363 11.6256C10.3659 11.6229 10.368 11.6201 10.3692 11.6173C10.37 11.6141 10.3704 11.6106 10.3704 11.6069C10.3704 11.5986 10.3669 11.5917 10.3599 11.5861C10.3533 11.5806 10.3416 11.5748 10.3247 11.5688L10.3024 11.5591C10.2954 11.555 10.289 11.5504 10.2832 11.5453C10.2775 11.5393 10.2727 11.5324 10.269 11.5245C10.2649 11.5162 10.2628 11.5063 10.2628 11.4947C10.2628 11.4832 10.2649 11.4728 10.269 11.4636C10.2731 11.4543 10.2787 11.4465 10.2857 11.44C10.2927 11.4335 10.3014 11.4285 10.3117 11.4248C10.3216 11.4215 10.3329 11.4199 10.3457 11.4199C10.3605 11.4199 10.3735 11.4215 10.3847 11.4248C10.3954 11.4285 10.4045 11.4326 10.4119 11.4372L10.397 11.4816C10.3909 11.4779 10.3838 11.4746 10.376 11.4719C10.3686 11.4691 10.3595 11.4677 10.3488 11.4677C10.3364 11.4677 10.3278 11.4696 10.3228 11.4733C10.3175 11.4769 10.3148 11.4827 10.3148 11.4906C10.3148 11.4952 10.3158 11.4989 10.3179 11.5016C10.3199 11.5049 10.3226 11.5079 10.3259 11.5107L10.3383 11.5176L10.3537 11.5238C10.3653 11.5284 10.3754 11.533 10.3841 11.5377C10.3923 11.5423 10.3993 11.5478 10.4051 11.5543C10.4109 11.5608 10.4152 11.5681 10.4181 11.5764C10.421 11.5848 10.4224 11.5949 10.4224 11.6069C10.4224 11.63 10.415 11.6482 10.4001 11.6616C10.3857 11.6741 10.3638 11.6803 10.3346 11.6803C10.3247 11.6803 10.3156 11.6796 10.3074 11.6783C10.2995 11.6773 10.2925 11.6757 10.2863 11.6734L10.2702 11.6679L10.2597 11.6609L10.2739 11.6166C10.2805 11.6208 10.2888 11.6245 10.2987 11.6277C10.3082 11.6309 10.3201 11.6326 10.3346 11.6326ZM10.5956 11.4255H10.6463V11.6755H10.5956V11.5695H10.5115V11.6755H10.4608V11.4255H10.5115V11.5203H10.5956V11.4255ZM10.8467 11.6755L10.8393 11.6492L10.8307 11.6215H10.7441L10.7348 11.6492L10.7274 11.6755H10.6748C10.683 11.6487 10.6913 11.6238 10.6995 11.6007C10.7065 11.5776 10.7138 11.5561 10.7212 11.5363L10.7422 11.4788C10.7492 11.4603 10.7564 11.4425 10.7639 11.4255H10.8121C10.8195 11.4425 10.8267 11.4603 10.8338 11.4788L10.8548 11.5363L10.8771 11.6007L10.9012 11.6755H10.8467ZM10.7867 11.4816L10.7824 11.4968L10.775 11.5183L10.7651 11.546L10.7552 11.5764H10.8189L10.809 11.5453L10.7997 11.5183L10.7923 11.4975L10.7867 11.4816ZM10.9952 11.4227C11.029 11.4227 11.0548 11.4294 11.0725 11.4428C11.0903 11.4562 11.0991 11.4769 11.0991 11.5051C11.0991 11.5227 11.0956 11.537 11.0886 11.5481C11.0812 11.5587 11.0709 11.5672 11.0577 11.5737L11.0719 11.5945L11.0861 11.6201L11.1004 11.6478L11.1127 11.6755H11.0571L11.0441 11.6506L11.0311 11.6263L11.0187 11.6035L11.0051 11.5841H10.9804V11.6755H10.9303V11.4289C10.941 11.4266 10.9521 11.425 10.9637 11.4241L10.9952 11.4227ZM10.9983 11.4705H10.989L10.981 11.4719V11.5397H10.9952C11.0142 11.5397 11.0278 11.537 11.036 11.5314C11.0443 11.5264 11.0484 11.5173 11.0484 11.5044C11.0484 11.492 11.0443 11.4834 11.036 11.4788C11.0278 11.4733 11.0154 11.4705 10.9989 11.4705H10.9983ZM11.1449 11.4255H11.1956V11.6755H11.1449V11.4255ZM11.3787 11.6755C11.3746 11.6672 11.3692 11.6584 11.3626 11.6492C11.3569 11.6399 11.3503 11.6305 11.3428 11.6208C11.3358 11.6111 11.3284 11.6018 11.3206 11.5931C11.3127 11.5843 11.3049 11.5764 11.2971 11.5695V11.6755H11.2476V11.4255H11.2971V11.5197C11.3103 11.5044 11.3235 11.4885 11.3367 11.4719L11.3738 11.4255H11.4332C11.4179 11.4458 11.4026 11.4652 11.3874 11.4836C11.3721 11.5026 11.356 11.5215 11.3391 11.5404C11.3569 11.5571 11.374 11.5769 11.3905 11.6C11.407 11.6231 11.423 11.6485 11.4387 11.6762L11.3787 11.6755ZM11.4678 11.4255H11.5173V11.6755H11.4678V11.4255Z" fill="black"/>
<g id="eac-d">
<path id="Vector_8" fill-rule="evenodd" clip-rule="evenodd" d="M6.08496 11.1732L6.42532 11.0816L6.32059 10.8951L6.90641 10.6758V10.8754H7.08641V11.1798H6.1046L6.08496 11.1732Z" fill="#008300"/>
<path id="Vector_9" fill-rule="evenodd" clip-rule="evenodd" d="M7.00153 11.1794H6.28809L7.00153 10.9863V11.1794ZM6.84444 10.8783H6.52699L6.85426 10.7539L6.84444 10.8783ZM6.42881 10.9306L6.50081 11.0615L6.97535 10.9306H6.42881Z" fill="white"/>
</g>
<g id="eac-d_2">
<path id="Vector_10" fill-rule="evenodd" clip-rule="evenodd" d="M11.9141 11.1732L11.5737 11.0816L11.6784 10.8951L11.0926 10.6758V10.8754H10.9126V11.1798H11.8944L11.9141 11.1732Z" fill="#008300"/>
<path id="Vector_11" fill-rule="evenodd" clip-rule="evenodd" d="M10.9975 11.1794H11.7109L10.9975 10.9863V11.1794ZM11.1546 10.8783H11.472L11.1448 10.7539L11.1546 10.8783ZM11.5702 10.9306L11.4982 11.0615L11.0237 10.9306H11.5702Z" fill="white"/>
</g>
<path id="Vector_12" d="M8.93883 6.31641C8.40642 6.33399 7.89633 6.53449 7.49444 6.88415C7.09255 7.2338 6.82342 7.71126 6.73235 8.23612C6.64129 8.76099 6.73386 9.30119 6.99447 9.76579C7.25509 10.2304 7.66783 10.591 8.16321 10.7869V10.5316C7.72806 10.3397 7.3719 10.0044 7.15417 9.58162C6.93643 9.15882 6.8703 8.67413 6.9668 8.20845C7.06331 7.74277 7.31662 7.32428 7.68444 7.02283C8.05227 6.72137 8.51236 6.5552 8.98793 6.55204H9.00429C9.48097 6.55223 9.94309 6.71628 10.3132 7.0167C10.6833 7.31711 10.9389 7.73563 11.0371 8.20208C11.1353 8.66853 11.0701 9.15457 10.8526 9.5787C10.635 10.0028 10.2782 10.3393 9.8421 10.5316V10.7869C10.3454 10.5913 10.7645 10.2259 11.0267 9.75391C11.2889 9.2819 11.3778 8.73304 11.278 8.20239C11.1782 7.67174 10.8959 7.19271 10.48 6.84828C10.0642 6.50384 9.54098 6.31569 9.00102 6.31641H8.93883Z" fill="#FFFF00" stroke="black" stroke-width="1.11708"/>
<path id="Vector_13" fill-rule="evenodd" clip-rule="evenodd" d="M9.63596 10.2998L9.63923 10.6467C9.42978 10.6794 9.19742 10.8954 9.13524 10.9347C9.07306 10.9772 8.9716 11.0591 8.91597 11.0525C8.82106 11.0394 8.88978 10.9642 8.88978 10.9642C8.88978 10.9642 8.82433 11.0427 8.77851 11.0067C8.73269 10.9772 8.80469 10.9183 8.80469 10.9183C8.80469 10.9183 8.78178 10.9511 8.73269 10.9347C8.68688 10.9216 8.7196 10.8692 8.7196 10.8692C8.7196 10.8692 8.59524 10.9347 8.57233 10.9118C8.53961 10.8692 8.58542 10.83 8.58542 10.83L8.87669 10.5845C9.03705 10.5191 9.08287 10.6107 9.15487 10.6042C9.27641 10.572 9.39004 10.5152 9.48869 10.4372C9.54432 10.3816 9.52796 10.3227 9.5705 10.3063C9.61305 10.29 9.63596 10.2998 9.63596 10.2998Z" fill="white" stroke="black" stroke-width="0.83781"/>
<path id="Vector_14" fill-rule="evenodd" clip-rule="evenodd" d="M8.35972 10.3249L8.35645 10.6456C8.55281 10.6718 8.77208 10.8812 8.83099 10.9205C8.88662 10.9565 8.9848 11.0187 9.03717 11.0121C9.12226 11.0023 9.10262 10.9696 9.10262 10.9696C9.10262 10.9696 9.14189 10.9892 9.19426 10.9696C9.24662 10.95 9.22044 10.914 9.22044 10.914C9.22044 10.914 9.29898 10.9369 9.33171 10.8943C9.36444 10.8583 9.29898 10.819 9.29898 10.819C9.29898 10.819 9.33171 10.7961 9.27935 10.8256C9.22698 10.8518 9.12226 10.734 9.01753 10.7274C8.90953 10.7274 8.89971 10.8321 8.83426 10.783C8.76553 10.7307 8.88662 10.6456 8.92917 10.6325C9.09607 10.5769 9.25316 10.6456 9.05026 10.5671C8.94553 10.5278 8.86371 10.6031 8.79499 10.5998C8.72299 10.5965 8.54626 10.5016 8.50044 10.4492C8.44808 10.3969 8.46117 10.3445 8.4219 10.3281C8.38263 10.3151 8.35972 10.3216 8.35645 10.3249H8.35972Z" fill="white" stroke="black" stroke-width="0.74472"/>
<path id="Vector_15" d="M9.22344 10.9144L9.08271 10.8555M9.11871 10.9766L8.95508 10.8784" stroke="black" stroke-width="0.74472"/>
<g id="eac-e">
<path id="Vector_16" fill-rule="evenodd" clip-rule="evenodd" d="M8.09114 10.1573C7.68533 10.3537 7.66569 9.83662 7.48242 9.84316C7.82605 9.61407 7.77042 10.0395 8.09114 10.1573ZM7.93405 9.58789C7.73115 9.95771 8.20569 10.0068 8.18932 10.1868C8.42168 9.87261 8.02569 9.8988 7.93405 9.58789Z" fill="#008300" stroke="black" stroke-width="0.37236"/>
<path id="Vector_17" fill-rule="evenodd" clip-rule="evenodd" d="M7.73776 9.7329C7.23704 9.81799 7.37449 9.386 7.16504 9.35C7.60685 9.21909 7.41704 9.55291 7.73776 9.7329Z" fill="#008300" stroke="black" stroke-width="0.37236"/>
<path id="Vector_18" fill-rule="evenodd" clip-rule="evenodd" d="M7.68529 9.22211C7.41038 9.5461 7.80638 9.56247 7.76056 9.73265C8.04529 9.47083 7.75074 9.48065 7.68529 9.22211ZM7.39729 9.28102C6.89984 9.20902 7.21402 8.70175 7.06348 8.59375C7.47256 8.6232 7.20748 9.06829 7.39729 9.28102Z" fill="#008300" stroke="black" stroke-width="0.37236"/>
<path id="Vector_19" fill-rule="evenodd" clip-rule="evenodd" d="M7.58759 8.63996C7.12941 8.85923 7.59086 9.09487 7.41087 9.2945C7.8625 9.27159 7.46323 8.97705 7.58759 8.64651V8.63996ZM7.33232 8.65633C6.79887 8.41415 7.35523 7.95597 7.26032 7.78906C7.62359 8.15888 7.07051 8.29633 7.33232 8.65633Z" fill="#008300" stroke="black" stroke-width="0.37236"/>
<path id="Vector_20" fill-rule="evenodd" clip-rule="evenodd" d="M7.67263 8.04078C7.21445 8.09969 7.44354 8.52186 7.34863 8.67241C7.70863 8.59059 7.42063 8.37787 7.6759 8.04078H7.67263ZM7.45009 7.91314C7.19154 7.52042 7.62354 7.43206 7.65299 7.23242C7.77736 7.74951 7.48281 7.5826 7.45009 7.91314Z" fill="#008300" stroke="black" stroke-width="0.37236"/>
<path id="Vector_21" fill-rule="evenodd" clip-rule="evenodd" d="M7.96649 7.58574C7.54104 7.46465 7.61958 7.89337 7.47559 7.99483C7.83558 8.05373 7.76031 7.7101 7.96649 7.58574ZM7.77013 7.40247C7.68504 7.06211 7.85522 7.11774 8.04831 6.9672C8.15303 7.24211 7.89449 7.20938 7.77013 7.40247ZM8.3134 7.3501C7.98613 7.10792 7.95013 7.43519 7.77995 7.48101C8.09412 7.66756 8.10722 7.38938 8.3134 7.35338V7.3501ZM8.11703 7.18647C8.12685 7.0392 8.32321 6.84611 8.52612 6.91156C8.5163 7.15702 8.28067 7.2192 8.11703 7.18974V7.18647Z" fill="#008300" stroke="black" stroke-width="0.37236"/>
</g>
<g id="eac-e_2">
<path id="Vector_22" fill-rule="evenodd" clip-rule="evenodd" d="M9.90788 10.1573C10.3137 10.3537 10.3333 9.83662 10.5166 9.84316C10.173 9.61407 10.2286 10.0395 9.90788 10.1573ZM10.065 9.58789C10.2679 9.95771 9.79334 10.0068 9.8097 10.1868C9.57734 9.87261 9.97333 9.8988 10.065 9.58789Z" fill="#008300" stroke="black" stroke-width="0.37236"/>
<path id="Vector_23" fill-rule="evenodd" clip-rule="evenodd" d="M10.2613 9.7329C10.762 9.81799 10.6245 9.386 10.834 9.35C10.3922 9.21909 10.582 9.55291 10.2613 9.7329Z" fill="#008300" stroke="black" stroke-width="0.37236"/>
<path id="Vector_24" fill-rule="evenodd" clip-rule="evenodd" d="M10.3137 9.22211C10.5886 9.5461 10.1926 9.56247 10.2385 9.73265C9.95374 9.47083 10.2483 9.48065 10.3137 9.22211ZM10.6017 9.28102C11.0992 9.20902 10.785 8.70175 10.9355 8.59375C10.5265 8.6232 10.7915 9.06829 10.6017 9.28102Z" fill="#008300" stroke="black" stroke-width="0.37236"/>
<path id="Vector_25" fill-rule="evenodd" clip-rule="evenodd" d="M10.4114 8.63996C10.8696 8.85923 10.4082 9.09487 10.5882 9.2945C10.1365 9.27159 10.5358 8.97705 10.4114 8.64651V8.63996ZM10.6667 8.65633C11.2002 8.41415 10.6438 7.95597 10.7387 7.78906C10.3754 8.15888 10.9285 8.29633 10.6667 8.65633Z" fill="#008300" stroke="black" stroke-width="0.37236"/>
<path id="Vector_26" fill-rule="evenodd" clip-rule="evenodd" d="M10.3264 8.04078C10.7846 8.09969 10.5555 8.52186 10.6504 8.67241C10.2904 8.59059 10.5784 8.37787 10.3231 8.04078H10.3264ZM10.5489 7.91314C10.8075 7.52042 10.3755 7.43206 10.346 7.23242C10.2217 7.74951 10.5162 7.5826 10.5489 7.91314Z" fill="#008300" stroke="black" stroke-width="0.37236"/>
<path id="Vector_27" fill-rule="evenodd" clip-rule="evenodd" d="M10.0325 7.58574C10.458 7.46465 10.3794 7.89337 10.5234 7.99483C10.1634 8.05373 10.2387 7.7101 10.0325 7.58574ZM10.2289 7.40247C10.314 7.06211 10.1438 7.11774 9.95072 6.9672C9.84599 7.24211 10.1045 7.20938 10.2289 7.40247ZM9.68563 7.3501C10.0129 7.10792 10.0489 7.43519 10.2191 7.48101C9.9049 7.66756 9.89181 7.38938 9.68563 7.35338V7.3501ZM9.88199 7.18647C9.87217 7.0392 9.67581 6.84611 9.4729 6.91156C9.48272 7.15702 9.71835 7.2192 9.88199 7.18974V7.18647Z" fill="#008300" stroke="black" stroke-width="0.37236"/>
</g>
<path id="Vector_28" d="M8.59858 6.76217L8.6181 6.87685L8.6791 6.86465C8.69618 6.86465 8.70594 6.85733 8.71082 6.85245C8.71814 6.84513 8.72058 6.83293 8.71814 6.81585H8.72546L8.74254 6.91345H8.73522L8.72546 6.88905L8.71082 6.87929H8.68398L8.62054 6.89149L8.63518 6.98665L8.6425 7.01105L8.64982 7.01349H8.66446L8.71326 7.00617L8.74742 6.99641L8.76694 6.97933C8.77426 6.96957 8.78158 6.95493 8.78646 6.93541H8.79622L8.78402 7.00861L8.56442 7.04765L8.56198 7.04033H8.57174L8.58882 7.03057C8.5937 7.02569 8.59614 7.02325 8.59614 7.01837V6.98909L8.56198 6.80365C8.56198 6.78657 8.5571 6.77437 8.55222 6.77193C8.5449 6.76705 8.53758 6.76461 8.52538 6.76705H8.51562V6.76217L8.73522 6.72313L8.74742 6.78657H8.7401C8.73691 6.77606 8.73196 6.76616 8.72546 6.75729L8.70594 6.74753C8.69624 6.74606 8.68637 6.74606 8.67666 6.74753L8.59858 6.76217ZM9.01826 6.90125H8.90602L8.8865 6.94761C8.88266 6.95525 8.88018 6.96351 8.87918 6.97201C8.87918 6.97689 8.88162 6.98177 8.8865 6.98421C8.89138 6.98909 8.8987 6.98909 8.91334 6.99153V6.99885H8.82306V6.99153C8.83526 6.99153 8.84258 6.98665 8.84746 6.98421L8.87186 6.94029L8.96946 6.70117H8.97922L9.0817 6.94273C9.08902 6.96225 9.09634 6.97445 9.10366 6.97933C9.11098 6.98665 9.1183 6.98909 9.1305 6.98909V6.99885H9.01582V6.99153C9.02802 6.99153 9.03534 6.98909 9.04022 6.98421C9.0451 6.98177 9.0451 6.97689 9.0451 6.97201C9.0451 6.96713 9.0451 6.95737 9.03778 6.94273L9.01826 6.90125ZM9.01338 6.88417L8.96458 6.76705L8.91334 6.88661L9.01338 6.88417ZM9.4477 6.74997L9.43794 6.84757H9.43062C9.42945 6.82288 9.42096 6.7991 9.40622 6.77925C9.39129 6.76353 9.37154 6.75323 9.3501 6.74997C9.33211 6.74653 9.3135 6.74822 9.29642 6.75485C9.27722 6.76262 9.26098 6.77629 9.25006 6.79389C9.23786 6.81341 9.23054 6.84025 9.22566 6.87197C9.22106 6.89451 9.22106 6.91775 9.22566 6.94029C9.23054 6.96225 9.2403 6.97933 9.25494 6.98909C9.26958 7.00373 9.2891 7.01349 9.31106 7.01593C9.32814 7.01837 9.34522 7.01837 9.35986 7.01349C9.37694 7.00861 9.39402 6.99397 9.41598 6.97445L9.4233 6.97933C9.40378 7.00373 9.38426 7.01837 9.3623 7.02813C9.34034 7.03545 9.31838 7.03789 9.2891 7.03301C9.24274 7.02325 9.20858 7.00129 9.1915 6.95981C9.17603 6.92977 9.17088 6.89547 9.17686 6.86221C9.18174 6.83537 9.1915 6.80853 9.20858 6.78901C9.22566 6.76461 9.24762 6.74997 9.27202 6.74021C9.29448 6.73104 9.31897 6.72802 9.34299 6.73145C9.367 6.73488 9.38967 6.74464 9.40866 6.75973L9.41842 6.76705L9.43062 6.76461L9.44038 6.74997H9.4477Z" fill="black"/>
<path id="Vector_29" d="M8.92278 7.2891C8.89006 7.2891 8.85733 7.29565 8.82787 7.30219C8.77684 7.39097 8.6955 7.45837 8.59879 7.49201L8.57915 7.49855C8.47828 7.54138 8.36503 7.54488 8.2617 7.50837C8.17052 7.569 8.087 7.64042 8.01297 7.7211C8.03178 7.82929 8.00835 7.94058 7.94752 8.03201C7.89765 8.12862 7.81368 8.20326 7.71189 8.24146C7.67916 8.34618 7.65952 8.45745 7.65625 8.56873C7.7217 8.61782 7.77734 8.71273 7.80025 8.82727L7.80679 8.85018C7.8297 8.97454 7.80679 9.09236 7.76098 9.16108C7.80352 9.26254 7.85916 9.35745 7.92461 9.44581C8.00316 9.43926 8.10788 9.47854 8.19952 9.54726L8.21588 9.56363C8.31406 9.64544 8.37297 9.7469 8.37952 9.83199C8.48097 9.88435 8.5857 9.92362 8.69697 9.94653C8.75588 9.8909 8.8606 9.84835 8.97842 9.84835H9.00133C9.12896 9.84835 9.24023 9.88762 9.30242 9.94653C9.41369 9.92362 9.51841 9.88108 9.61659 9.83199C9.63473 9.72397 9.69322 9.62688 9.78023 9.56035C9.86109 9.48743 9.96588 9.44668 10.0748 9.44581C10.1402 9.36072 10.1959 9.26581 10.2384 9.16763C10.1878 9.07952 10.1704 8.9762 10.1893 8.87636V8.85672C10.2155 8.72909 10.2744 8.62764 10.3431 8.57527C10.3382 8.4643 10.3195 8.35437 10.2875 8.248C10.1927 8.2122 10.1138 8.14373 10.065 8.05491L10.0519 8.03528C9.98641 7.92401 9.96677 7.80619 9.98641 7.72437C9.91036 7.64011 9.82341 7.56637 9.72787 7.5051C9.63282 7.54017 9.52837 7.54017 9.43332 7.5051L9.41041 7.49528C9.30608 7.46284 9.21746 7.39288 9.16169 7.29892C9.10933 7.29238 9.05369 7.2891 8.99805 7.2891H8.93915C8.93806 7.28905 8.93696 7.28905 8.93587 7.2891H8.91951H8.92278Z" fill="#FF0000"/>
<path id="Vector_30" d="M10.1493 8.62691C10.1493 8.93201 10.0281 9.2246 9.81241 9.44034C9.59667 9.65607 9.30408 9.77727 8.99898 9.77727C8.69389 9.77727 8.4013 9.65607 8.18556 9.44034C7.96983 9.2246 7.84863 8.93201 7.84863 8.62691C7.84863 8.32182 7.96983 8.02922 8.18556 7.81349C8.4013 7.59776 8.69389 7.47656 8.99898 7.47656C9.30408 7.47656 9.59667 7.59776 9.81241 7.81349C10.0281 8.02922 10.1493 8.32182 10.1493 8.62691Z" fill="#FBF014" stroke="black" stroke-width="0.37236"/>
<path id="Vector_31" d="M10.052 8.62803C10.052 8.90751 9.94093 9.17555 9.7433 9.37318C9.54567 9.57081 9.27763 9.68183 8.99814 9.68183C8.71866 9.68183 8.45062 9.57081 8.25299 9.37318C8.05536 9.17555 7.94434 8.90751 7.94434 8.62803C7.94434 8.34854 8.05536 8.0805 8.25299 7.88287C8.45062 7.68524 8.71866 7.57422 8.99814 7.57422C9.27763 7.57422 9.54567 7.68524 9.7433 7.88287C9.94093 8.0805 10.052 8.34854 10.052 8.62803Z" fill="#FBF014" stroke="black" stroke-width="0.37236"/>
<g id="Group_2">
<path id="Vector_32" fill-rule="evenodd" clip-rule="evenodd" d="M8.68736 8.11133L9.03427 8.17351L8.98845 8.52042L8.69391 8.72332L8.53027 8.54332L8.54009 8.2586L8.68736 8.11133Z" fill="#0087FF" stroke="black" stroke-width="0.37236"/>
<path id="Vector_33" fill-rule="evenodd" clip-rule="evenodd" d="M8.58881 8.36495L8.45135 8.3715H8.43826V8.37804H8.43499L8.43172 8.38786L8.41863 8.39441V8.40095L8.40881 8.4075L8.39572 8.41404H8.39245L8.38917 8.40095H8.36954L8.35972 8.40422V8.38786L8.35645 8.38459V8.35186H8.36299V8.32241L8.36626 8.31586V8.30932L8.37608 8.2995L8.3859 8.29623V8.28641L8.38917 8.27659L8.39245 8.27332L8.38917 8.26677L8.37935 8.27332L8.36954 8.26677V8.24714L8.37935 8.24059L8.38263 8.24386L8.38917 8.21768L8.39899 8.20786L8.39245 8.1915L8.39899 8.18168L8.39572 8.16859L8.42517 8.15877V8.14895L8.42845 8.13586L8.44154 8.13259L8.45135 8.12605L8.4579 8.14241V8.15223H8.46444L8.47099 8.13914L8.47754 8.13586V8.12605L8.49717 8.10314L8.50372 8.09659L8.51681 8.09005H8.5299L8.53972 8.07696V8.06387H8.54626L8.55281 8.05732L8.54953 8.0475V8.02459H8.54299V8.01805L8.53644 8.02786L8.5299 8.02459V8.01478H8.51026L8.50372 8.00168L8.49717 8.00496V8.01478L8.49063 8.0115V7.99841H8.47754L8.48081 7.98532L8.4939 7.96241V7.94932L8.48081 7.93623L8.49063 7.91005L8.50372 7.89696V7.88059L8.4939 7.88387L8.50699 7.8675L8.5299 7.85768H8.54299L8.56263 7.87078L8.56917 7.8675H8.57899L8.59535 7.85441L8.61172 7.8675V7.87732H8.62481L8.62808 7.88387H8.6379V7.87405L8.66081 7.86423L8.69353 7.86096L8.72299 7.84459L8.73935 7.85768H8.77535L8.83099 7.80859L9.00117 7.84787L8.99135 8.14241L8.81462 8.24059L8.8048 8.23404L8.80153 8.23732H8.79826V8.22095H8.78844V8.24059H8.77535L8.76226 8.23404V8.2275H8.77535V8.22423L8.76553 8.22095H8.75571V8.21441L8.76553 8.20786V8.20459L8.75571 8.21114L8.74917 8.20786L8.74262 8.21114L8.74917 8.22095L8.73935 8.2275V8.23404L8.72626 8.23077V8.23732H8.73281L8.71317 8.25041L8.70662 8.24386V8.24059L8.69681 8.24714H8.68371V8.24386L8.69681 8.24059L8.69353 8.23732H8.68371V8.2275L8.68044 8.23732H8.6739V8.25368H8.66081L8.65753 8.24714C8.65753 8.24714 8.64772 8.24714 8.65099 8.25368V8.2635L8.64117 8.25695H8.63462V8.26677H8.62808L8.61499 8.26023L8.62153 8.27004H8.60844L8.6019 8.27332L8.60844 8.27986L8.61172 8.28641L8.61826 8.29295L8.61499 8.29623H8.61172L8.6019 8.30604H8.59535L8.59208 8.31586L8.58553 8.31914L8.58881 8.32568H8.59208V8.33222H8.58881L8.57572 8.34532V8.34859H8.58553L8.58881 8.36495Z" fill="white" stroke="black" stroke-width="0.37236"/>
<path id="Vector_34" fill-rule="evenodd" clip-rule="evenodd" d="M8.82427 8.36902L9.20063 8.5752L9.2039 8.60465L9.19081 8.6112L9.19409 8.62429L9.20718 8.62756L9.21045 8.64065L9.35772 8.74538L9.36754 8.73883L9.38063 8.74538L9.3839 8.73228L9.39372 8.72247L9.41008 8.68647L9.40027 8.68319L9.40681 8.6701H9.41336L9.42645 8.65374V8.64065L9.4199 8.63083L9.42972 8.6341L9.44281 8.60465L9.4559 8.60138L9.45917 8.57847L9.46572 8.57192C9.46572 8.57192 9.45917 8.54574 9.46572 8.53592C9.47554 8.5261 9.50826 8.52611 9.50826 8.52611L9.5279 8.5032V8.49665L9.54099 8.48683L9.5279 8.46392L9.55408 8.47047L9.57372 8.46392H9.58681L9.60645 8.43774V8.42792L9.54426 8.34938V7.96648L9.58026 7.93375L9.63917 7.85193L9.62281 7.84539L9.5639 7.85193L9.54754 7.83229H9.54099L9.53772 7.8192L9.52463 7.81266L9.42645 7.85847L9.42317 7.87484L9.40027 7.89448V7.90757H9.39372L9.38717 7.90429L9.28572 7.88138L9.27918 7.88793H9.24645L9.12536 7.79957H9.037L9.01736 7.79302V7.7832H8.85373L8.821 7.81593L8.82754 7.85847H8.84391L8.85045 7.87811H8.86682L8.86354 7.89775H8.86027V7.92066L8.86682 7.93047L8.87663 7.93702V7.95338L8.89627 7.9632L8.89954 7.98611L8.91263 7.99266V8.00247L8.90609 8.01557L8.91918 8.0352L8.91591 8.04829L8.92245 8.06466V8.0712L8.91918 8.09084L8.90936 8.09738L8.90609 8.11047H8.89954V8.13665H8.88318L8.87663 8.14647L8.86682 8.1432V8.16611L8.857 8.1792H8.84718V8.18902L8.83409 8.19556L8.83082 8.21193V8.22829L8.81445 8.23483V8.26429L8.82427 8.26756H8.83082L8.82754 8.27738L8.83736 8.28065L8.84391 8.29702L8.857 8.2872V8.27738H8.87336L8.893 8.26756L8.89954 8.28065L8.90609 8.29047H8.893L8.88973 8.29702H8.87991L8.86354 8.29374V8.30029L8.87009 8.30683L8.86027 8.31338L8.857 8.30683L8.84718 8.31011H8.84064L8.83082 8.30356V8.31665H8.82427L8.81773 8.33302L8.82754 8.34284L8.83736 8.34938L8.82754 8.36247L8.82427 8.36902ZM9.40027 9.08246L9.41336 9.07265V9.0661H9.42645L9.43299 9.04974V9.0661L9.42645 9.07265V9.08246H9.4199V9.09228L9.41663 9.08574L9.40027 9.08246ZM9.36099 8.89919V8.87628L9.35772 8.87301L9.37081 8.86319V8.8501L9.38717 8.84356V8.85665H9.37736V8.87628L9.3839 8.8861V8.89592L9.39372 8.90247L9.40354 8.91556V8.92537L9.39372 8.92865L9.38063 8.91228L9.36754 8.91556L9.36099 8.89919ZM9.41008 8.8141V8.80101L9.41663 8.78792L9.40681 8.76174H9.4199L9.42317 8.77483H9.42972V8.76501C9.42972 8.76501 9.43627 8.76174 9.43627 8.76501L9.43299 8.79447L9.43627 8.80756L9.42972 8.81737L9.4199 8.82719L9.41008 8.8141Z" fill="white" stroke="black" stroke-width="0.37236"/>
<path id="Vector_35" fill-rule="evenodd" clip-rule="evenodd" d="M9.48582 9.34509L9.44327 9.37782L9.38436 9.404L9.368 9.41382H9.33854L9.31564 9.42036L9.30254 9.42691L9.28618 9.44327L9.26 9.42691H9.22727L9.21745 9.43672V9.45309L9.19455 9.46291H9.18473L9.17491 9.46945L9.14218 9.46618L9.12909 9.45309L9.11273 9.45636L9.08655 9.476L9.07346 9.47272V9.46618H9.06364L9.05709 9.47272L9.04073 9.46945V9.45636H9.03091L9.01782 9.43672H9.00146L8.99818 9.44654L8.98509 9.45636L8.972 9.45309H8.92291L8.90982 9.43018H8.89673L8.88364 9.39745V9.38109L8.89019 9.37454V9.35491L8.87709 9.34509L8.88037 9.31236L8.87709 9.30582L8.87382 9.29273L8.85091 9.26982V9.26L8.82473 9.24036H8.81491V9.26L8.80182 9.25673L8.79528 9.24691L8.76255 9.25345L8.74946 9.23709L8.7331 9.24036L8.72 9.23055H8.70364L8.69055 9.21745H8.6611L8.65455 9.19782H8.63491L8.62837 9.19455H8.60546V9.18473L8.57928 9.18146L8.56619 9.17164V9.15527L8.54655 9.14546L8.53019 9.14873L8.52364 9.12909L8.50728 9.116L8.50401 9.09636L8.4811 9.06364V9.05055L8.46801 9.03746V9.01127L8.45819 8.99818V8.98509H8.46473V8.97528L8.44837 8.96218L8.44183 8.94909L8.41564 8.92946H8.39601L8.3731 8.90328V8.89019L8.38292 8.87709H8.39601L8.39928 8.86728V8.85746L8.37637 8.82473V8.80837L8.38619 8.80182L8.38292 8.78219L8.36328 8.76255V8.74291L8.36655 8.72655V8.72L8.38619 8.71346L8.39601 8.70691L8.40583 8.6971V8.68728L8.42546 8.68073V8.67091L8.44183 8.65128V8.64146L8.45164 8.6251L8.47455 8.61528V8.60873L8.49092 8.59892V8.56619L8.48437 8.56292H8.47455L8.46473 8.55964H8.44837V8.54983L8.45819 8.53673L8.45164 8.53019L8.46146 8.51055L8.49419 8.50728V8.48437L8.49746 8.47455L8.48437 8.45819V8.42546L8.47783 8.41564V8.40583L8.46146 8.39601L8.44837 8.3731H8.46801L8.47783 8.36328H8.59237L8.59564 8.3731V8.38619L8.5891 8.40255L8.58582 8.41237V8.41892L8.58255 8.43201V8.4451L8.57601 8.45164V8.46146L8.56946 8.46801H8.57928V8.48437L8.57273 8.49746H8.59891L8.5891 8.5171L8.58582 8.53019L8.5891 8.54983L8.60219 8.53673L8.61201 8.54655V8.53019L8.61528 8.5171L8.62837 8.52364L8.63164 8.5171L8.6251 8.50401L8.63819 8.49092L8.65128 8.50728L8.6611 8.51055L8.66764 8.52692L8.67746 8.50728L8.68073 8.52037H8.69382V8.53346L8.70364 8.54655L8.69055 8.5531V8.56946H8.70037V8.5531H8.71346L8.70691 8.53673L8.70364 8.52364L8.71673 8.50401H8.72982L8.73637 8.52037H8.75928L8.77891 8.50073L8.8051 8.49092L8.79855 8.47455H8.792L8.78219 8.48437L8.75273 8.4811L8.74291 8.47455L8.73637 8.4811H8.72655L8.70037 8.47128V8.46146L8.69382 8.45819L8.70691 8.45164L8.71346 8.46146H8.72L8.72982 8.45819L8.74291 8.46801L8.76255 8.46473V8.45492L8.74946 8.45164V8.44183H8.77237L8.77564 8.43528L8.792 8.42874L8.78219 8.41564V8.4091L8.81491 8.41564L8.79855 8.40255L8.80182 8.38946L8.82146 8.40255V8.39601L8.80837 8.38619L8.828 8.36655L9.20764 8.57273L9.21091 8.60219L9.19782 8.61201V8.6251H9.21418V8.63819L9.36145 8.73637L9.37127 8.75273L9.36145 8.76255L9.35491 8.77564L9.35163 8.79855L9.34509 8.81164V8.83128L9.332 8.84437L9.32218 8.86728V8.88364L9.332 8.89673L9.32545 8.91637L9.34182 8.92946H9.35163L9.38109 8.96218L9.39418 8.97528L9.40072 8.99164L9.39418 9.008L9.38436 9.01127L9.37454 9.044V9.06364L9.38763 9.07673L9.38436 9.08982L9.37782 9.10946L9.37127 9.12909L9.37782 9.14873L9.38436 9.16509L9.39091 9.17164V9.18473H9.38436L9.39418 9.20109L9.40727 9.20764V9.23382H9.404V9.24036L9.41709 9.25018L9.42363 9.28291L9.41709 9.29273V9.29927H9.43672L9.44327 9.31564L9.45636 9.31236L9.47927 9.32218L9.48909 9.33854L9.48582 9.34509Z" fill="white" stroke="black" stroke-width="0.37236"/>
</g>
<path id="Vector_36" fill-rule="evenodd" clip-rule="evenodd" d="M8.29738 8.51261C8.28756 8.50279 8.3301 8.47988 8.32356 8.46352C8.32356 8.43079 8.33992 8.42098 8.37592 8.40789L8.39556 8.39479C8.40538 8.40134 8.40538 8.4177 8.41519 8.40789C8.42501 8.40134 8.44792 8.36534 8.46428 8.37189C8.45447 8.38498 8.4741 8.41116 8.48719 8.42098L8.50683 8.48316C8.50028 8.50607 8.48719 8.50607 8.46101 8.50279C8.43483 8.49298 8.42828 8.51261 8.40865 8.49625C8.40538 8.51916 8.40865 8.53879 8.37919 8.54861C8.36283 8.54861 8.34647 8.54861 8.34647 8.53879C8.33338 8.52243 8.31374 8.52243 8.30719 8.53879C8.30392 8.53225 8.29738 8.52897 8.29738 8.51261Z" fill="white" stroke="black" stroke-width="0.46545"/>
<g id="Vector_37">
<path fill-rule="evenodd" clip-rule="evenodd" d="M8.30762 8.53801C8.32398 8.50201 8.34362 8.54128 8.35016 8.54128C8.39925 8.54782 8.39925 8.53801 8.40907 8.49219C8.43525 8.51182 8.42543 8.49219 8.48107 8.50528C8.47125 8.50528 8.44834 8.53146 8.46471 8.53146C8.45162 8.56746 8.48107 8.56746 8.50071 8.56419C8.49089 8.57728 8.51707 8.58382 8.49089 8.59691C8.47452 8.60673 8.47452 8.59691 8.47452 8.61982L8.45489 8.6231C8.45162 8.62964 8.46471 8.64273 8.46143 8.64273C8.46143 8.64273 8.45489 8.65909 8.4418 8.66891C8.42543 8.67873 8.41889 8.69509 8.39925 8.70164L8.37634 8.70819L8.34362 8.64928C8.34034 8.63291 8.34362 8.61328 8.3338 8.59691V8.56746C8.32398 8.55764 8.31416 8.5511 8.30762 8.53473" fill="white"/>
<path d="M8.30762 8.53801C8.32398 8.50201 8.34362 8.54128 8.35016 8.54128C8.39925 8.54782 8.39925 8.53801 8.40907 8.49219C8.43525 8.51182 8.42543 8.49219 8.48107 8.50528C8.47125 8.50528 8.44834 8.53146 8.46471 8.53146C8.45162 8.56746 8.48107 8.56746 8.50071 8.56419C8.49089 8.57728 8.51707 8.58382 8.49089 8.59691C8.47452 8.60673 8.47452 8.59691 8.47452 8.61982L8.45489 8.6231C8.45162 8.62964 8.46471 8.64273 8.46143 8.64273C8.46143 8.64273 8.45489 8.65909 8.4418 8.66891C8.42543 8.67873 8.41889 8.69509 8.39925 8.70164L8.37634 8.70819L8.34362 8.64928C8.34034 8.63291 8.34362 8.61328 8.3338 8.59691V8.56746C8.32398 8.55764 8.31416 8.5511 8.30762 8.53473" stroke="black" stroke-width="0.46545"/>
</g>
</g>
</g>
<defs>
<clipPath id="clip0_186_7402">
<rect width="18" height="18" fill="white"/>
</clipPath>
</defs>
</svg>
