<svg width="18" height="18" viewBox="0 0 18 18" fill="none" xmlns="http://www.w3.org/2000/svg">
<g id="ec" clip-path="url(#clip0_186_7453)">
<g id="Group">
<path id="Vector" fill-rule="evenodd" clip-rule="evenodd" d="M0 0H18V18H0V0Z" fill="#FFE800"/>
<path id="Vector_2" fill-rule="evenodd" clip-rule="evenodd" d="M0 9H18V18H0V9Z" fill="#00148E"/>
<path id="Vector_3" fill-rule="evenodd" clip-rule="evenodd" d="M0 13.5H18V18H0V13.5Z" fill="#DA0010"/>
</g>
<g id="Group_2">
<path id="Vector_4" fill-rule="evenodd" clip-rule="evenodd" d="M7.50605 8.58477L5.58301 10.6133L5.54785 10.5711L7.4709 8.53906L7.50605 8.58477ZM8.84199 8.91523L6.32832 11.566L6.28613 11.5238L8.7998 8.87305L8.84551 8.91523H8.84199Z" fill="black"/>
<path id="Vector_5" fill-rule="evenodd" clip-rule="evenodd" d="M6.36621 11.5684L6.15752 11.7802L5.91646 11.9609L6.0928 11.7179L6.3015 11.5061L6.36621 11.5684Z" fill="#808080" stroke="black" stroke-width="0.340239"/>
<path id="Vector_6" fill-rule="evenodd" clip-rule="evenodd" d="M5.71973 10.5312L5.51103 10.7431L5.26998 10.9238L5.44632 10.6808L5.65501 10.469L5.71973 10.5312Z" fill="#808080" stroke="black" stroke-width="0.340239"/>
</g>
<path id="Vector_7" fill-rule="evenodd" clip-rule="evenodd" d="M5.87507 3.93945C5.87507 3.93945 5.6635 9.69058 6.50978 9.69058C7.35606 9.69058 7.7804 9.08574 7.7804 9.08574L7.77084 5.92484L5.87507 3.93945Z" fill="#FFDF00" stroke="black" stroke-width="0.541996"/>
<path id="Vector_8" fill-rule="evenodd" clip-rule="evenodd" d="M6.39278 4.47656C6.39278 4.77898 6.29835 9.08635 6.72149 9.08635C7.14463 9.08635 7.78054 8.78393 7.78054 8.78393L7.77098 5.92545L6.39278 4.47656Z" fill="#0000C4" stroke="black" stroke-width="0.541996"/>
<path id="Vector_9" fill-rule="evenodd" clip-rule="evenodd" d="M6.66699 4.76758C6.66699 5.07 6.72078 8.48206 7.14512 8.48206H7.77983L7.77027 5.926L6.66699 4.76758Z" fill="#E10000" stroke="black" stroke-width="0.541996"/>
<path id="Vector_10" fill-rule="evenodd" clip-rule="evenodd" d="M5.82578 3.94453L7.74531 5.97305L7.78047 5.93086L5.85742 3.90234L5.82227 3.94453H5.82578Z" fill="black"/>
<path id="Vector_11" fill-rule="evenodd" clip-rule="evenodd" d="M5.2673 5.05664C5.2673 5.05664 4.71971 10.5593 6.36249 10.5593C7.73147 10.5593 7.73147 9.6912 8.00527 9.6912L7.73147 7.66409L5.2673 5.05664Z" fill="#FFDF00" stroke="black" stroke-width="0.603103"/>
<g id="Group_3">
<path id="Vector_12" d="M6.47815 6.03348C6.48937 6.03271 6.89226 5.13784 7.88805 4.57844" stroke="black" stroke-width="0.641616"/>
<path id="Vector_13" fill-rule="evenodd" clip-rule="evenodd" d="M6.41877 5.16033C6.55876 5.22714 6.64696 5.30419 6.72705 5.39408C6.56639 5.35994 6.48345 5.3462 6.34346 5.27938C6.20347 5.21257 6.09709 5.11013 6.01257 5.02724C6.11697 5.05959 6.278 5.09314 6.41877 5.16033Z" fill="#005B00" stroke="black" stroke-width="0.291759"/>
<path id="Vector_14" fill-rule="evenodd" clip-rule="evenodd" d="M6.85103 5.67791C6.86045 5.69647 6.85016 5.7224 6.82752 5.73496C6.80488 5.74752 6.77881 5.74236 6.76915 5.72333C6.75949 5.7043 6.77026 5.6793 6.79289 5.66674C6.81553 5.65418 6.84161 5.65935 6.85103 5.67791Z" fill="#FF0000" stroke="black" stroke-width="0.203051"/>
<path id="Vector_15" fill-rule="evenodd" clip-rule="evenodd" d="M7.19274 4.57851C7.13165 4.73759 7.06425 4.84257 6.98655 4.94059C7.02145 4.76379 7.03627 4.67305 7.09736 4.51396C7.15844 4.35488 7.24761 4.22698 7.3197 4.12517C7.2886 4.24143 7.25417 4.41855 7.19274 4.57851Z" fill="#005B00" stroke="black" stroke-width="0.276504"/>
<path id="Vector_16" fill-rule="evenodd" clip-rule="evenodd" d="M7.08361 4.57875C7.06897 4.73465 7.03663 4.85551 6.99408 4.97815C6.98273 4.82678 6.97431 4.75115 6.98894 4.59525C7.00358 4.43935 7.04888 4.28742 7.08586 4.16575C7.08651 4.2707 7.09833 4.42199 7.08361 4.57875Z" fill="#005B00" stroke="black" stroke-width="0.242108"/>
<path id="Vector_17" fill-rule="evenodd" clip-rule="evenodd" d="M7.20541 4.78467C7.12268 4.87757 7.05276 4.91665 6.97913 4.94104C7.05241 4.81073 7.08826 4.74131 7.17098 4.64841C7.2537 4.5555 7.34287 4.51367 7.41448 4.48127C7.36169 4.56028 7.28859 4.69125 7.20541 4.78467Z" fill="#005B00" stroke="black" stroke-width="0.260972"/>
<path id="Vector_18" fill-rule="evenodd" clip-rule="evenodd" d="M6.54884 5.06177C6.63793 5.17504 6.67964 5.28278 6.70928 5.40136C6.58948 5.31566 6.52605 5.27544 6.43696 5.16218C6.34788 5.04891 6.3015 4.90906 6.26527 4.79639C6.33892 4.86267 6.45926 4.94788 6.54884 5.06177Z" fill="#005B00" stroke="black" stroke-width="0.290495"/>
<path id="Vector_19" fill-rule="evenodd" clip-rule="evenodd" d="M6.24175 5.72402C6.36265 5.82137 6.42697 5.92202 6.47861 6.03581C6.32542 5.97192 6.24503 5.9433 6.12413 5.84594C6.00323 5.74858 5.92888 5.6165 5.87032 5.50988C5.96641 5.56283 6.12018 5.62612 6.24175 5.72402Z" fill="#005B00" stroke="black" stroke-width="0.320063"/>
<path id="Vector_20" fill-rule="evenodd" clip-rule="evenodd" d="M6.79908 5.67934C6.70681 5.83206 6.60611 5.93517 6.49041 6.0327C6.54448 5.86581 6.56768 5.78042 6.65995 5.6277C6.75221 5.47498 6.88525 5.34876 6.99277 5.24818C6.94525 5.35863 6.89186 5.52578 6.79908 5.67934Z" fill="#005B00" stroke="black" stroke-width="0.321174"/>
<path id="Vector_21" fill-rule="evenodd" clip-rule="evenodd" d="M6.95161 5.83088C6.79762 5.93715 6.66348 5.99144 6.52052 6.03352C6.65206 5.89614 6.71586 5.82383 6.86985 5.71756C7.02384 5.6113 7.19573 5.54926 7.33388 5.50052C7.2376 5.5861 7.10645 5.72402 6.95161 5.83088Z" fill="#005B00" stroke="black" stroke-width="0.319128"/>
<path id="Vector_22" fill-rule="evenodd" clip-rule="evenodd" d="M7.9641 4.47863C7.89919 4.5569 7.84072 4.60503 7.77761 4.64806C7.8307 4.5568 7.85616 4.50956 7.92107 4.43129C7.98597 4.35302 8.06128 4.29529 8.12186 4.24947C8.08225 4.30843 8.02936 4.39993 7.9641 4.47863Z" fill="#005B00" stroke="black" stroke-width="0.15918"/>
<path id="Vector_23" fill-rule="evenodd" clip-rule="evenodd" d="M7.89703 4.45201C7.85885 4.53473 7.81723 4.59624 7.76941 4.65744C7.79184 4.57393 7.80148 4.53186 7.83966 4.44914C7.87784 4.36641 7.93282 4.28968 7.97726 4.22831C7.95757 4.2853 7.93542 4.36883 7.89703 4.45201Z" fill="#005B00" stroke="black" stroke-width="0.142789"/>
<path id="Vector_24" fill-rule="evenodd" clip-rule="evenodd" d="M7.94949 4.60496C7.88395 4.64442 7.83584 4.65627 7.78826 4.65962C7.85518 4.59851 7.88897 4.56552 7.95451 4.52607C8.02005 4.48662 8.07994 4.47586 8.12781 4.46787C8.08234 4.5038 8.0154 4.56529 7.94949 4.60496Z" fill="#005B00" stroke="black" stroke-width="0.153484"/>
<path id="Vector_25" fill-rule="evenodd" clip-rule="evenodd" d="M7.08458 5.14015C6.96368 5.21332 6.86475 5.25424 6.76195 5.28843C6.87301 5.19812 6.92782 5.15093 7.04872 5.07775C7.16962 5.00457 7.29513 4.95664 7.39582 4.91879C7.31704 4.97595 7.20615 5.06657 7.08458 5.14015Z" fill="#005B00" stroke="black" stroke-width="0.199045"/>
<path id="Vector_26" fill-rule="evenodd" clip-rule="evenodd" d="M7.4777 5.10973C7.31735 5.20517 7.18101 5.24972 7.03709 5.28128C7.17815 5.15276 7.24706 5.08469 7.40742 4.98924C7.56777 4.89379 7.74181 4.8443 7.88159 4.80566C7.77966 4.88463 7.63894 5.01375 7.4777 5.10973Z" fill="#005B00" stroke="black" stroke-width="0.318436"/>
<path id="Vector_27" d="M6.42384 6.65511C6.43413 6.64939 6.33489 5.81388 6.98295 4.94919" stroke="black" stroke-width="0.642841"/>
<path id="Vector_28" fill-rule="evenodd" clip-rule="evenodd" d="M7.45552 4.8283C7.46494 4.84686 7.45465 4.87279 7.43201 4.88535C7.40937 4.89791 7.3833 4.89275 7.37364 4.87372C7.36398 4.85469 7.37475 4.82969 7.39738 4.81713C7.42002 4.80457 7.4461 4.80974 7.45552 4.8283Z" fill="#FF0000" stroke="black" stroke-width="0.203051"/>
<path id="Vector_29" fill-rule="evenodd" clip-rule="evenodd" d="M7.74361 4.65838C7.75303 4.67694 7.74273 4.70287 7.7201 4.71543C7.69746 4.72799 7.67138 4.72283 7.66173 4.7038C7.65207 4.68477 7.66283 4.65977 7.68547 4.64721C7.70811 4.63465 7.73418 4.63981 7.74361 4.65838Z" fill="#FF0000" stroke="black" stroke-width="0.203051"/>
<path id="Vector_30" fill-rule="evenodd" clip-rule="evenodd" d="M6.71857 5.16926C6.72561 5.18332 6.71288 5.20596 6.68975 5.21918C6.66661 5.2324 6.64211 5.23148 6.6349 5.21707C6.6277 5.20266 6.64077 5.18072 6.66391 5.1675C6.68704 5.15428 6.71154 5.1552 6.71857 5.16926Z" fill="#FF0000" stroke="black" stroke-width="0.179023"/>
<path id="Vector_31" fill-rule="evenodd" clip-rule="evenodd" d="M6.79963 5.1341C6.80666 5.14816 6.79393 5.1708 6.7708 5.18402C6.74767 5.19724 6.72316 5.19633 6.71596 5.18191C6.70875 5.1675 6.72183 5.14556 6.74496 5.13234C6.76809 5.11913 6.7926 5.12004 6.79963 5.1341Z" fill="#FF0000" stroke="black" stroke-width="0.179023"/>
<path id="Vector_32" fill-rule="evenodd" clip-rule="evenodd" d="M6.75373 5.20637C6.76076 5.22043 6.74804 5.24307 6.7249 5.25629C6.70177 5.26951 6.67727 5.26859 6.67006 5.25418C6.66285 5.23977 6.67593 5.21783 6.69906 5.20461C6.7222 5.19139 6.7467 5.1923 6.75373 5.20637Z" fill="#FF0000" stroke="black" stroke-width="0.179023"/>
<path id="Vector_33" fill-rule="evenodd" clip-rule="evenodd" d="M7.08444 5.19065C7.09485 5.21132 7.08339 5.24011 7.05827 5.25399C7.03316 5.26787 7.00427 5.26204 6.9936 5.24085C6.98293 5.21966 6.99492 5.1919 7.02003 5.17802C7.04515 5.16414 7.07404 5.16998 7.08444 5.19065Z" fill="#FF0000" stroke="black" stroke-width="0.225413"/>
<path id="Vector_34" fill-rule="evenodd" clip-rule="evenodd" d="M7.14401 5.1301C7.15442 5.15077 7.14296 5.17957 7.11784 5.19345C7.09273 5.20733 7.06384 5.20149 7.05317 5.1803C7.0425 5.15912 7.05449 5.13136 7.0796 5.11748C7.10472 5.1036 7.13361 5.10943 7.14401 5.1301Z" fill="#FF0000" stroke="black" stroke-width="0.225413"/>
<path id="Vector_35" fill-rule="evenodd" clip-rule="evenodd" d="M7.15769 5.1594C7.16809 5.18007 7.15663 5.20886 7.13152 5.22274C7.1064 5.23662 7.07751 5.23079 7.06684 5.2096C7.05618 5.18841 7.06816 5.16065 7.09327 5.14677C7.11839 5.13289 7.14728 5.13873 7.15769 5.1594Z" fill="#FF0000" stroke="black" stroke-width="0.225413"/>
</g>
<path id="Vector_36" fill-rule="evenodd" clip-rule="evenodd" d="M5.81506 5.63672C5.81506 5.92607 5.26747 9.11223 6.638 9.98029C7.18559 10.2696 8.00698 9.69094 8.00698 9.98029L7.73319 7.66383L5.81506 5.63672Z" fill="#0000C4" stroke="black" stroke-width="0.603103"/>
<path id="Vector_37" fill-rule="evenodd" clip-rule="evenodd" d="M6.36304 6.2168C6.36304 6.50615 6.08925 8.82261 6.91219 9.40295C7.45978 9.98166 8.83031 9.82472 8.83031 9.82472L7.73358 7.6652L6.36304 6.2168Z" fill="#E10000" stroke="black" stroke-width="0.603103"/>
<path id="Vector_38" fill-rule="evenodd" clip-rule="evenodd" d="M5.23145 5.06172L7.74512 7.7125L7.79082 7.67031L5.27363 5.01953L5.23145 5.06172Z" fill="black"/>
<path id="Vector_39" fill-rule="evenodd" clip-rule="evenodd" d="M4.81332 4.76472L4.97635 4.80019L5.02613 4.85121C5.01961 4.85047 5.07591 4.90224 5.01244 4.96882C4.94897 5.0354 4.84977 4.93298 4.84977 4.93298C4.84977 4.93298 4.88586 5.10161 4.9857 5.20395C5.08555 5.30629 5.19852 5.29044 5.19852 5.29044C5.19852 5.29044 5.08598 5.19443 5.16243 5.12181C5.23895 5.04853 5.27568 5.10625 5.27568 5.10625L5.37524 5.20831L5.43907 5.14135L5.04054 4.73285L5.00445 4.56422L4.75729 4.51317L4.8134 4.76405L4.81332 4.76472Z" fill="#CECECC" stroke="black" stroke-width="0.173513"/>
<path id="Vector_40" fill-rule="evenodd" clip-rule="evenodd" d="M5.29697 3.62712L5.48435 3.91231L5.73052 3.96856L5.56562 4.07434L5.86119 4.05568L5.99224 4.14304L6.0423 4.06795L5.91089 3.98034L5.81472 3.69989L5.78021 3.89322L5.63389 3.6872L5.29688 3.62645L5.29697 3.62712Z" fill="#CECECC" stroke="black" stroke-width="0.179877"/>
<path id="Vector_41" fill-rule="evenodd" clip-rule="evenodd" d="M6.01276 3.84523C6.01276 3.86168 5.99146 3.87566 5.96696 3.87566C5.94246 3.87566 5.92009 3.86168 5.92009 3.84523C5.92009 3.82877 5.94139 3.81397 5.96696 3.81397C5.99252 3.81397 6.01276 3.82795 6.01276 3.84523ZM5.94672 3.91022C5.94672 4.20473 6.16935 5.45516 6.18746 5.4856C6.18853 5.52262 6.13633 5.53825 6.11183 5.49301C6.04152 5.34986 5.89026 4.17676 5.88493 3.90281C5.88174 3.79011 5.92435 3.78106 5.97335 3.78353C6.01276 3.78517 6.06176 3.81397 6.06176 3.84852C6.06176 3.88965 5.99998 3.92009 5.94672 3.91022Z" fill="#E10000" stroke="black" stroke-width="0.355032"/>
<path id="Vector_42" fill-rule="evenodd" clip-rule="evenodd" d="M6.05404 3.98046C6.04603 3.99593 6.01918 4.00416 5.99613 3.9985C5.97309 3.99284 5.95886 3.97452 5.96687 3.95905C5.97489 3.94358 6.00214 3.93458 6.02619 3.94049C6.05024 3.94639 6.06246 3.96422 6.05404 3.98046ZM5.96026 4.0263C6.0298 4.57871 5.78011 5.43547 5.78191 5.46905C5.76528 5.50332 5.70817 5.50673 5.70757 5.45776C5.69575 5.42609 5.9819 4.65152 5.90575 4.00507C5.95766 3.89837 6.00214 3.89971 6.04703 3.91335C6.0833 3.924 6.11536 3.96239 6.09853 3.99487C6.07849 4.03355 6.00555 4.04789 5.96026 4.0263Z" fill="#0000C4" stroke="black" stroke-width="0.359547"/>
<path id="Vector_43" fill-rule="evenodd" clip-rule="evenodd" d="M5.44571 4.89955C5.44571 4.92627 5.4185 4.94898 5.3872 4.94898C5.35591 4.94898 5.32734 4.92627 5.32734 4.89955C5.32734 4.87283 5.35455 4.84878 5.3872 4.84878C5.41986 4.84878 5.44571 4.87149 5.44571 4.89955ZM5.36135 5.00509C5.36135 5.48335 5.64571 7.51398 5.66884 7.56341C5.6702 7.62353 5.60353 7.64891 5.57224 7.57543C5.48244 7.34298 5.28925 5.43793 5.28244 4.99307C5.27836 4.81004 5.33278 4.79535 5.39537 4.79935C5.44571 4.80203 5.50829 4.84878 5.50829 4.90489C5.50829 4.97169 5.42938 5.02112 5.36135 5.00509Z" fill="#E10000" stroke="black" stroke-width="0.511312"/>
<path id="Vector_44" fill-rule="evenodd" clip-rule="evenodd" d="M5.5181 5.10172C5.5079 5.12703 5.47357 5.14067 5.44406 5.13161C5.41455 5.12256 5.39626 5.09277 5.40646 5.06746C5.41665 5.04215 5.4515 5.02724 5.48229 5.03669C5.51309 5.04614 5.5288 5.07514 5.5181 5.10172ZM5.39827 5.17729C5.48948 6.07841 5.17341 7.47884 5.17585 7.53363C5.15471 7.58971 5.08163 7.59573 5.08067 7.5158C5.06541 7.46419 5.42849 6.19764 5.32843 5.14306C5.39442 4.96849 5.45135 4.97032 5.50885 4.99223C5.55531 5.00933 5.5965 5.07174 5.57509 5.12489C5.5496 5.18817 5.45631 5.21216 5.39827 5.17729Z" fill="#0000C4" stroke="black" stroke-width="0.51325"/>
<g id="Group_4">
<path id="Vector_45" fill-rule="evenodd" clip-rule="evenodd" d="M10.1809 8.58477L12.1039 10.6133L12.1391 10.5711L10.216 8.53906L10.1809 8.58477ZM8.84492 8.91523L11.3551 11.566L11.3973 11.5238L8.88359 8.87305L8.83789 8.91523H8.84492Z" fill="black"/>
<path id="Vector_46" fill-rule="evenodd" clip-rule="evenodd" d="M11.3164 11.5684L11.5251 11.7802L11.7662 11.9609L11.5898 11.7179L11.3811 11.5061L11.3164 11.5684Z" fill="#808080" stroke="black" stroke-width="0.340239"/>
<path id="Vector_47" fill-rule="evenodd" clip-rule="evenodd" d="M11.9668 10.5312L12.1755 10.7431L12.4165 10.9238L12.2402 10.6808L12.0315 10.469L11.9668 10.5312Z" fill="#808080" stroke="black" stroke-width="0.340239"/>
</g>
<g id="Group_5">
<path id="Vector_48" fill-rule="evenodd" clip-rule="evenodd" d="M11.8163 3.93945C11.8163 3.93945 12.0279 9.69058 11.1816 9.69058C10.3353 9.69058 9.91101 9.08574 9.91101 9.08574L9.92057 5.92484L11.8163 3.93945Z" fill="#FFDF00" stroke="black" stroke-width="0.541996"/>
<path id="Vector_49" fill-rule="evenodd" clip-rule="evenodd" d="M11.2986 4.47656C11.2986 4.77898 11.3931 9.08635 10.9699 9.08635C10.5468 9.08635 9.91087 8.78393 9.91087 8.78393L9.92043 5.92545L11.2986 4.47656Z" fill="#0000C4" stroke="black" stroke-width="0.541996"/>
<path id="Vector_50" fill-rule="evenodd" clip-rule="evenodd" d="M11.0234 4.76758C11.0234 5.07 10.9696 8.48206 10.5453 8.48206H9.9106L9.92016 5.926L11.0234 4.76758Z" fill="#E10000" stroke="black" stroke-width="0.541996"/>
<path id="Vector_51" fill-rule="evenodd" clip-rule="evenodd" d="M11.8619 3.94492L9.94238 5.97695L9.90723 5.93477L11.8303 3.90625L11.8654 3.94844L11.8619 3.94492Z" fill="black"/>
<g id="Group_6">
<path id="Vector_52" fill-rule="evenodd" clip-rule="evenodd" d="M10.3957 5.46279C10.3957 5.46279 10.9423 6.15053 11.2047 6.68534C11.4668 7.22128 11.7715 8.03989 11.7715 8.03989C11.7715 8.03989 11.5997 7.23132 11.2694 6.58705C10.8364 5.77691 10.3952 5.5094 10.3957 5.46279Z" fill="#005B00" stroke="black" stroke-width="0.256821"/>
<path id="Vector_53" fill-rule="evenodd" clip-rule="evenodd" d="M10.2835 4.92962C10.2835 4.92962 10.8733 5.75248 11.1427 6.36629C11.4118 6.98128 11.7115 7.9053 11.7115 7.9053C11.7115 7.9053 11.5657 7.01332 11.2246 6.27159C10.7751 5.33607 10.2797 4.97936 10.2835 4.92962Z" fill="#005B00" stroke="black" stroke-width="0.285261"/>
<path id="Vector_54" fill-rule="evenodd" clip-rule="evenodd" d="M10.8675 4.1369C10.8675 4.1369 11.2988 5.40008 11.4312 6.17973C11.563 6.96005 11.645 8.03284 11.645 8.03284C11.645 8.03284 11.7251 7.13409 11.5478 6.17715C11.3027 4.95179 10.8499 4.17571 10.8675 4.1369Z" fill="#005B00" stroke="black" stroke-width="0.331196"/>
<path id="Vector_55" fill-rule="evenodd" clip-rule="evenodd" d="M10.4261 4.06254C10.4261 4.06254 10.9973 5.19027 11.2169 5.95635C11.436 6.72352 11.6386 7.83014 11.6386 7.83014C11.6386 7.83014 11.6167 6.82512 11.3325 5.89255C10.9506 4.70781 10.413 4.11336 10.4261 4.06254Z" fill="#005B00" stroke="black" stroke-width="0.333201"/>
<path id="Vector_56" fill-rule="evenodd" clip-rule="evenodd" d="M11.1702 4.37912C11.1702 4.37912 11.4705 5.59471 11.5492 6.32273C11.6272 7.05125 11.6554 8.03634 11.6554 8.03634C11.6554 8.03634 11.7506 7.23581 11.6423 6.33978C11.4893 5.18942 11.1547 4.41133 11.1702 4.37912Z" fill="#005B00" stroke="black" stroke-width="0.298014"/>
<path id="Vector_57" fill-rule="evenodd" clip-rule="evenodd" d="M10.3421 4.44727C10.3421 4.44727 10.9121 5.41662 11.1463 6.09421C11.3801 6.77287 11.6143 7.76467 11.6143 7.76467C11.6143 7.76467 11.5489 6.84554 11.2484 6.0226C10.8478 4.9795 10.3325 4.49536 10.3421 4.44727Z" fill="#005B00" stroke="black" stroke-width="0.303663"/>
<path id="Vector_58" fill-rule="evenodd" clip-rule="evenodd" d="M10.2796 5.10147C10.2796 5.10147 10.8688 5.87146 11.1358 6.46184C11.4024 7.05343 11.6974 7.95209 11.6974 7.95209C11.6974 7.95209 11.5578 7.07112 11.2195 6.35917C10.7731 5.46302 10.2753 5.15171 10.2796 5.10147Z" fill="#005B00" stroke="black" stroke-width="0.288799"/>
<path id="Vector_59" fill-rule="evenodd" clip-rule="evenodd" d="M10.3567 4.73629C10.3567 4.73629 10.9077 5.61488 11.1479 6.25316C11.3878 6.89259 11.6436 7.84284 11.6436 7.84284C11.6436 7.84284 11.5403 6.93992 11.2344 6.16706C10.8293 5.19034 10.3506 4.78545 10.3567 4.73629Z" fill="#005B00" stroke="black" stroke-width="0.284983"/>
<path id="Vector_60" fill-rule="evenodd" clip-rule="evenodd" d="M11.0003 4.16426C11.0003 4.16426 11.3605 5.40253 11.45 6.15704C11.5388 6.91214 11.5625 7.94303 11.5625 7.94303C11.5625 7.94303 11.6904 7.09024 11.5659 6.16309C11.3885 4.97454 10.9807 4.20005 11.0003 4.16426Z" fill="#005B00" stroke="black" stroke-width="0.322592"/>
<path id="Vector_61" fill-rule="evenodd" clip-rule="evenodd" d="M10.5247 3.8614C10.5247 3.8614 11.0392 5.03783 11.2211 5.82154C11.4023 6.60628 11.551 7.72785 11.551 7.72785C11.551 7.72785 11.5773 6.72414 11.3391 5.76856C11.0158 4.55269 10.5092 3.91084 10.5247 3.8614Z" fill="#005B00" stroke="black" stroke-width="0.333887"/>
<path id="Vector_62" fill-rule="evenodd" clip-rule="evenodd" d="M11.301 4.50022C11.301 4.50022 11.5306 5.66414 11.5675 6.35411C11.6039 7.04452 11.5761 7.97265 11.5761 7.97265C11.5761 7.97265 11.716 7.22669 11.6591 6.37668C11.5722 5.28442 11.2838 4.52942 11.301 4.50022Z" fill="#005B00" stroke="black" stroke-width="0.285717"/>
<path id="Vector_63" fill-rule="evenodd" clip-rule="evenodd" d="M10.3958 4.22853C10.3958 4.22853 10.9307 5.24567 11.1307 5.94701C11.3302 6.64939 11.508 7.66956 11.508 7.66956C11.508 7.66956 11.5037 6.73306 11.2439 5.88035C10.8936 4.79835 10.3822 4.27677 10.3958 4.22853Z" fill="#005B00" stroke="black" stroke-width="0.315233"/>
</g>
<path id="Vector_64" fill-rule="evenodd" clip-rule="evenodd" d="M12.4202 5.05664C12.4202 5.05664 12.9678 10.5593 11.325 10.5593C9.95603 10.5593 9.95603 9.6912 9.68223 9.6912L9.95603 7.66409L12.4202 5.05664Z" fill="#FFDF00" stroke="black" stroke-width="0.603103"/>
<path id="Vector_65" fill-rule="evenodd" clip-rule="evenodd" d="M11.8724 5.63672C11.8724 5.92607 12.42 9.11223 11.0495 9.98029C10.5019 10.2696 9.68052 9.69094 9.68052 9.98029L9.95431 7.66383L11.8724 5.63672Z" fill="#0000C4" stroke="black" stroke-width="0.603103"/>
<path id="Vector_66" fill-rule="evenodd" clip-rule="evenodd" d="M11.3245 6.2168C11.3245 6.50615 11.5983 8.82261 10.7753 9.40295C10.2277 9.98166 8.85719 9.82472 8.85719 9.82472L9.95392 7.6652L11.3245 6.2168Z" fill="#E10000" stroke="black" stroke-width="0.603103"/>
<path id="Vector_67" fill-rule="evenodd" clip-rule="evenodd" d="M12.4559 5.06172L9.94219 7.7125L9.89648 7.67031L12.4137 5.01953L12.4559 5.06172Z" fill="black"/>
<path id="Vector_68" fill-rule="evenodd" clip-rule="evenodd" d="M12.8771 4.76472L12.7141 4.80019L12.6643 4.85121C12.6708 4.85047 12.6145 4.90224 12.678 4.96882C12.7415 5.0354 12.8407 4.93298 12.8407 4.93298C12.8407 4.93298 12.8046 5.10161 12.7047 5.20395C12.6049 5.30629 12.4919 5.29044 12.4919 5.29044C12.4919 5.29044 12.6045 5.19443 12.528 5.12181C12.4515 5.04853 12.4148 5.10625 12.4148 5.10625L12.3152 5.20831L12.2514 5.14135L12.6499 4.73285L12.686 4.56422L12.9331 4.51317L12.877 4.76405L12.8771 4.76472Z" fill="#CECECC" stroke="black" stroke-width="0.173513"/>
<path id="Vector_69" fill-rule="evenodd" clip-rule="evenodd" d="M12.3866 3.62712L12.1992 3.91231L11.9531 3.96856L12.118 4.07434L11.8224 4.05568L11.6914 4.14304L11.6413 4.06795L11.7727 3.98034L11.8689 3.69989L11.9034 3.89322L12.0497 3.6872L12.3867 3.62645L12.3866 3.62712Z" fill="#CECECC" stroke="black" stroke-width="0.179877"/>
<path id="Vector_70" fill-rule="evenodd" clip-rule="evenodd" d="M11.6718 3.84327C11.6718 3.85973 11.6931 3.87371 11.7176 3.87371C11.7421 3.87371 11.7645 3.85973 11.7645 3.84327C11.7645 3.82682 11.7432 3.81201 11.7176 3.81201C11.692 3.81201 11.6718 3.826 11.6718 3.84327ZM11.7379 3.90826C11.7379 4.20277 11.5152 5.45321 11.4971 5.48365C11.496 5.52067 11.5482 5.5363 11.5727 5.49105C11.643 5.34791 11.7943 4.1748 11.7996 3.90086C11.8028 3.78816 11.7602 3.77911 11.7112 3.78157C11.6718 3.78322 11.6228 3.81201 11.6228 3.84656C11.6228 3.8877 11.6846 3.91813 11.7379 3.90826Z" fill="#E10000" stroke="black" stroke-width="0.355032"/>
<path id="Vector_71" fill-rule="evenodd" clip-rule="evenodd" d="M11.6335 3.98046C11.6415 3.99593 11.6683 4.00416 11.6914 3.9985C11.7144 3.99284 11.7286 3.97452 11.7206 3.95905C11.7126 3.94358 11.6854 3.93458 11.6613 3.94049C11.6373 3.94639 11.625 3.96422 11.6335 3.98046ZM11.7272 4.0263C11.6577 4.57871 11.9074 5.43547 11.9056 5.46905C11.9222 5.50332 11.9793 5.50673 11.9799 5.45776C11.9918 5.42609 11.7056 4.65152 11.7817 4.00507C11.7298 3.89837 11.6854 3.89971 11.6405 3.91335C11.6042 3.924 11.5721 3.96239 11.589 3.99487C11.609 4.03355 11.682 4.04789 11.7272 4.0263Z" fill="#0000C4" stroke="black" stroke-width="0.359547"/>
<path id="Vector_72" fill-rule="evenodd" clip-rule="evenodd" d="M12.2379 4.89955C12.2379 4.92627 12.2651 4.94898 12.2964 4.94898C12.3277 4.94898 12.3563 4.92627 12.3563 4.89955C12.3563 4.87283 12.329 4.84878 12.2964 4.84878C12.2637 4.84878 12.2379 4.87149 12.2379 4.89955ZM12.3222 5.00509C12.3222 5.48335 12.0379 7.51398 12.0148 7.56341C12.0134 7.62353 12.0801 7.64891 12.1114 7.57543C12.2012 7.34298 12.3943 5.43793 12.4012 4.99307C12.4052 4.81004 12.3508 4.79535 12.2882 4.79935C12.2379 4.80203 12.1753 4.84878 12.1753 4.90489C12.1753 4.97169 12.2542 5.02112 12.3222 5.00509Z" fill="#E10000" stroke="black" stroke-width="0.511312"/>
<path id="Vector_73" fill-rule="evenodd" clip-rule="evenodd" d="M12.1694 5.10172C12.1796 5.12703 12.2139 5.14067 12.2434 5.13161C12.273 5.12256 12.2912 5.09277 12.281 5.06746C12.2708 5.04215 12.236 5.02724 12.2052 5.03669C12.1744 5.04614 12.1587 5.07514 12.1694 5.10172ZM12.2892 5.17729C12.198 6.07841 12.5141 7.47884 12.5116 7.53363C12.5328 7.58971 12.6059 7.59573 12.6068 7.5158C12.6221 7.46419 12.259 6.19764 12.3591 5.14306C12.2931 4.96849 12.2361 4.97032 12.1786 4.99223C12.1322 5.00933 12.091 5.07174 12.1124 5.12489C12.1379 5.18817 12.2312 5.21216 12.2892 5.17729Z" fill="#0000C4" stroke="black" stroke-width="0.51325"/>
</g>
<g id="Group_7">
<path id="Vector_74" fill-rule="evenodd" clip-rule="evenodd" d="M8.00838 12.0079C8.13335 12.0837 8.27496 12.1237 8.41908 12.1237C8.5632 12.1237 8.7048 12.0837 8.82977 12.0079V9.69141H8.28218C8.55598 10.5595 8.55598 11.4292 8.00684 12.0079H8.00838Z" fill="#E10000" stroke="black" stroke-width="0.603103"/>
<path id="Vector_75" fill-rule="evenodd" clip-rule="evenodd" d="M8.4145 9.70928C8.4145 11.3396 8.01855 11.7025 8.01855 12.0304C8.18346 12.0304 8.29339 11.8775 8.4145 11.6675C8.5794 11.3396 8.59524 9.68349 8.5794 9.70928H8.4145Z" fill="#0000C4" stroke="black" stroke-width="0.496852"/>
<path id="Vector_76" fill-rule="evenodd" clip-rule="evenodd" d="M8.08512 9.70913C8.07674 10.6615 7.66775 11.5439 7.74508 11.7392C7.83265 11.9142 8.08512 11.3395 8.41493 11.6655C8.57983 11.3395 8.59566 9.68334 8.57983 9.70729L8.08512 9.70913Z" fill="#0000C4" stroke="black" stroke-width="0.496852"/>
<path id="Vector_77" fill-rule="evenodd" clip-rule="evenodd" d="M8.12625 9.717C8.12625 10.806 7.74707 10.8786 7.74707 11.1689C7.91197 11.1689 8.12532 11.0102 8.12625 11.025C8.29115 10.806 8.30699 9.69977 8.29115 9.717H8.12625Z" fill="#FFDF00" stroke="black" stroke-width="0.406065"/>
<path id="Vector_78" fill-rule="evenodd" clip-rule="evenodd" d="M7.79671 9.717C7.78833 10.3531 7.38865 10.8946 7.46598 11.025C7.55448 11.1406 7.79671 10.806 8.12651 11.025C8.29141 10.806 8.30725 9.69977 8.29141 9.717H7.79671Z" fill="#FFDF00" stroke="black" stroke-width="0.406065"/>
<path id="Vector_79" fill-rule="evenodd" clip-rule="evenodd" d="M9.67814 12.0079C9.55317 12.0837 9.41157 12.1237 9.26744 12.1237C9.12332 12.1237 8.98172 12.0837 8.85675 12.0079V9.69141H9.40434C9.13055 10.5595 9.13055 11.4292 9.67969 12.0079H9.67814Z" fill="#E10000" stroke="black" stroke-width="0.603103"/>
<path id="Vector_80" fill-rule="evenodd" clip-rule="evenodd" d="M9.27202 9.70928C9.27202 11.3396 9.66797 11.7025 9.66797 12.0304C9.50307 12.0304 9.39313 11.8775 9.27202 11.6675C9.10712 11.3396 9.09128 9.68349 9.10712 9.70928H9.27202Z" fill="#0000C4" stroke="black" stroke-width="0.496852"/>
<path id="Vector_81" fill-rule="evenodd" clip-rule="evenodd" d="M9.60238 9.70913C9.61076 10.6615 10.0198 11.5439 9.94242 11.7392C9.85485 11.9142 9.60238 11.3395 9.27257 11.6655C9.10767 11.3395 9.09184 9.68334 9.10767 9.70729L9.60238 9.70913Z" fill="#0000C4" stroke="black" stroke-width="0.496852"/>
<path id="Vector_82" fill-rule="evenodd" clip-rule="evenodd" d="M9.56418 9.717C9.56418 10.806 9.94336 10.8786 9.94336 11.1689C9.77846 11.1689 9.56511 11.0102 9.56418 11.025C9.39928 10.806 9.38344 9.69977 9.39928 9.717H9.56418Z" fill="#FFDF00" stroke="black" stroke-width="0.406065"/>
<path id="Vector_83" fill-rule="evenodd" clip-rule="evenodd" d="M9.89372 9.717C9.9021 10.3531 10.3018 10.8946 10.2245 11.025C10.1359 11.1406 9.89372 10.806 9.56392 11.025C9.39902 10.806 9.38318 9.69977 9.39902 9.717H9.89372Z" fill="#FFDF00" stroke="black" stroke-width="0.406065"/>
</g>
<g id="Group_8">
<path id="Vector_84" fill-rule="evenodd" clip-rule="evenodd" d="M6.7594 9.94163L6.47559 10.1532L6.7594 10.3648L6.90115 10.259L6.97203 10.3648L7.0429 10.5763L7.11409 10.3648L7.18497 10.259H10.9879V10.0474H7.18465L7.11378 9.94104C7.11378 9.83525 7.12865 9.72946 7.18497 9.72946H7.46847C7.46847 9.62368 7.32672 9.41211 7.0429 9.41211C6.7594 9.41211 6.61734 9.62368 6.61734 9.72946H6.90115C6.95716 9.72946 6.97203 9.83525 6.97203 9.94163L6.90115 10.0474L6.7594 9.94163Z" fill="#908F8A" stroke="black" stroke-width="0.556619"/>
<g id="Vector_85">
<path fill-rule="evenodd" clip-rule="evenodd" d="M7.59375 10.4435H10.0795V10.5723H7.59449L7.59375 10.4435ZM7.59375 10.314H10.0795V10.4435H7.59449L7.59375 10.314ZM7.59375 10.1852H10.0795V10.3147H7.59449L7.59375 10.1852ZM7.59375 10.0563H10.0795V10.1852H7.59449L7.59375 10.0563ZM7.59375 9.92754H10.0795V10.0563H7.59449L7.59375 9.92754ZM7.59375 9.798H10.0795V9.92754H7.59449L7.59375 9.798ZM7.59375 9.66992H10.0795V9.798H7.59449L7.59375 9.66992Z" fill="#B74D00"/>
<path d="M10.0795 10.4435H7.59375L7.59449 10.5723H10.0795V10.4435ZM10.0795 10.4435V10.314H7.59375L7.59449 10.4435H10.0795ZM10.0795 10.1852H7.59375L7.59449 10.3147H10.0795V10.1852ZM10.0795 10.1852V10.0563M10.0795 10.1852H7.59449L7.59375 10.0563H10.0795M10.0795 10.0563V9.92754M10.0795 10.0563H7.59449L7.59375 9.92754H10.0795M10.0795 9.92754V9.798M10.0795 9.92754H7.59449L7.59375 9.798H10.0795M10.0795 9.798V9.66992H7.59375L7.59449 9.798H10.0795Z" stroke="black" stroke-width="0.37529"/>
</g>
<path id="Vector_86" fill-rule="evenodd" clip-rule="evenodd" d="M7.74121 9.66797L8.66167 10.5704H8.79326L7.87347 9.6687H7.74188L7.74121 9.66797Z" fill="#908F8A" stroke="black" stroke-width="0.654449"/>
<path id="Vector_87" fill-rule="evenodd" clip-rule="evenodd" d="M7.74121 10.5703L8.66167 9.66792H8.79326L7.87347 10.5696H7.74188L7.74121 10.5703Z" fill="#908F8A" stroke="black" stroke-width="0.654449"/>
<path id="Vector_88" fill-rule="evenodd" clip-rule="evenodd" d="M7.72656 9.66797V10.5704H7.85724V9.66797H7.72656Z" fill="#908F8A" stroke="black" stroke-width="0.646333"/>
<path id="Vector_89" fill-rule="evenodd" clip-rule="evenodd" d="M8.91602 9.66797L9.83648 10.5704H9.96807L9.04827 9.6687H8.91668L8.91602 9.66797Z" fill="#908F8A" stroke="black" stroke-width="0.654449"/>
<path id="Vector_90" fill-rule="evenodd" clip-rule="evenodd" d="M8.91602 10.5703L9.83648 9.66792H9.96807L9.04827 10.5696H8.91668L8.91602 10.5703Z" fill="#908F8A" stroke="black" stroke-width="0.654449"/>
<path id="Vector_91" fill-rule="evenodd" clip-rule="evenodd" d="M9.81836 9.66797V10.5704H9.94904V9.66797H9.81836Z" fill="#908F8A" stroke="black" stroke-width="0.646333"/>
<path id="Vector_92" fill-rule="evenodd" clip-rule="evenodd" d="M8.9043 9.66797V10.5704H9.03497V9.66797H8.9043Z" fill="#908F8A" stroke="black" stroke-width="0.646333"/>
<path id="Vector_93" fill-rule="evenodd" clip-rule="evenodd" d="M8.64062 9.66797V10.5704H8.7713V9.66797H8.64062Z" fill="#908F8A" stroke="black" stroke-width="0.646333"/>
</g>
<g id="Group_9">
<path id="Vector_94" fill-rule="evenodd" clip-rule="evenodd" d="M10.7484 7.08597C10.7484 8.52456 9.8883 9.69178 8.83023 9.69178C7.77217 9.69178 6.91211 8.52456 6.91211 7.08597C6.91211 5.64737 7.77063 4.47852 8.83023 4.47852C9.88984 4.47852 10.7484 5.64574 10.7484 7.08433V7.08597ZM10.4746 7.08597C10.4746 8.36435 9.73825 9.40243 8.83023 9.40243C7.92222 9.40243 7.18591 8.36435 7.18591 7.08597C7.18591 5.80595 7.92222 4.76787 8.83023 4.76787C9.73825 4.76787 10.4746 5.80595 10.4746 7.08597Z" fill="#FFDF00" stroke="black" stroke-width="0.603103"/>
<path id="Vector_95" fill-rule="evenodd" clip-rule="evenodd" d="M9.57729 4.6845C9.3468 4.55208 9.09466 4.47852 8.83015 4.47852C8.56563 4.47852 8.31349 4.55208 8.08301 4.68286L8.19129 4.95096C8.38581 4.83246 8.60639 4.77009 8.83092 4.77009C9.05545 4.77009 9.27603 4.83246 9.47055 4.95096L9.57729 4.6845Z" fill="#FFDF00" stroke="black" stroke-width="0.603103"/>
<path id="Vector_96" fill-rule="evenodd" clip-rule="evenodd" d="M9.5812 9.49714C9.35071 9.62956 9.09857 9.70312 8.83405 9.70312C8.56954 9.70312 8.3174 9.62956 8.08691 9.49878L8.1952 9.23068C8.38972 9.34918 8.6103 9.41155 8.83483 9.41155C9.05935 9.41155 9.27994 9.34918 9.47446 9.23068L9.5812 9.49714Z" fill="#FFDF00" stroke="black" stroke-width="0.603103"/>
</g>
<path id="Vector_97" fill-rule="evenodd" clip-rule="evenodd" d="M10.4762 7.08437C10.4762 8.36406 9.73789 9.40117 8.83086 9.40117C7.92031 9.40117 7.18555 8.36406 7.18555 7.08437C7.18555 5.80469 7.92383 4.76758 8.83086 4.76758C9.73789 4.76758 10.4727 5.80469 10.4727 7.08437H10.4762Z" fill="#A7CFFF"/>
<path id="Vector_98" fill-rule="evenodd" clip-rule="evenodd" d="M10.4746 7.08693C10.4916 7.52177 10.4034 7.73429 10.2905 8.18712C10.2611 8.23617 10.1203 8.08086 10.0368 8.00403C9.95327 7.9272 9.91615 8.07269 9.81096 7.95499C9.70732 7.83401 9.6408 7.98768 9.56346 7.88633C9.48612 7.78497 8.76991 7.77189 8.76991 7.76208C8.84107 7.72612 9.20613 7.76535 9.14735 7.58062C9.08084 7.38772 8.66782 7.57409 8.61213 7.32887C8.57346 7.08366 7.78301 7.07385 7.72577 7.015C7.74898 7.10654 8.34143 7.14578 8.32751 7.38282C8.31359 7.4809 7.74434 7.5087 7.68865 7.59043C7.64224 7.69342 8.13724 7.56264 8.15426 7.68852C8.15426 7.74083 8.08155 7.68852 7.82477 7.77026C7.69484 7.81113 8.06299 7.93864 7.92377 8.00893C7.78455 8.07923 7.48601 8.11029 7.49838 8.13971C7.54479 8.28684 8.18984 8.46013 8.12641 8.48465C7.89748 8.59254 7.77682 8.66284 7.66699 8.72496C7.34518 8.24727 7.17659 7.67323 7.18591 7.08693C7.67627 6.90056 7.57263 6.86133 8.4791 6.86133C9.38557 6.86133 9.68566 6.89893 10.4746 7.08693Z" fill="#AFFF7B" stroke="black" stroke-width="0.603103"/>
<path id="Vector_99" fill-rule="evenodd" clip-rule="evenodd" d="M10.4742 7.08539C10.3505 7.08539 10.2205 7.14098 10.0875 7.14098C9.95291 7.14098 9.81678 7.08376 9.67756 7.08376C9.53834 7.08376 9.37902 7.15896 9.2367 7.15896C9.09284 7.15896 8.96755 7.08539 8.82369 7.08539C8.67983 7.08539 8.53597 7.14098 8.39366 7.14098C8.25134 7.14098 8.11058 7.08376 7.97291 7.08376C7.83523 7.08376 7.69911 7.14098 7.56762 7.14098C7.43614 7.14098 7.30775 7.08376 7.18555 7.08376C7.18555 6.76498 7.23195 6.46091 7.31548 6.183C7.73314 6.2157 7.48564 5.92634 7.73314 5.92634C7.80539 5.92221 7.87765 5.93436 7.94512 5.96198C8.01259 5.9896 8.07374 6.03206 8.1245 6.08655C8.16162 6.08655 8.34725 5.90019 8.55608 5.92634C8.76336 5.9525 8.68756 6.37264 8.96445 6.39389C9.10367 6.50505 9.18566 6.57535 9.37747 6.62112C9.65127 6.64728 10.4355 6.58025 10.4402 6.61785C10.4628 6.77256 10.4741 6.92886 10.4742 7.08539Z" fill="white" stroke="black" stroke-width="0.603103"/>
<path id="Vector_100" fill-rule="evenodd" clip-rule="evenodd" d="M9.11383 8.49665C9.11383 8.42391 9.18739 8.37542 9.18739 8.25928C9.18739 8.14315 9.122 8.1406 9.11982 8.03213C9.11873 7.98746 9.17595 7.94279 9.20101 7.93769C9.22608 7.93258 9.24733 8.03213 9.24733 8.05382C9.24733 8.07552 9.22172 8.00022 9.20047 7.99895C9.17922 7.99767 9.13344 8.0066 9.13344 8.0283C9.13344 8.07169 9.21409 8.12529 9.2081 8.27077C9.2021 8.4137 9.13889 8.45709 9.13889 8.50048C9.13889 8.54387 9.16614 8.66383 9.16614 8.66383C9.16614 8.66383 9.11328 8.56812 9.11328 8.49538L9.11383 8.49665Z" fill="black" stroke="black" stroke-width="0.31627"/>
<path id="Vector_101" fill-rule="evenodd" clip-rule="evenodd" d="M9.185 8.48628C9.185 8.41354 9.11144 8.36504 9.11144 8.24891C9.11144 8.13278 9.17683 8.13023 9.17901 8.02175C9.18446 7.9707 9.11471 7.93752 9.08964 7.93369C9.06457 7.92987 9.03515 8.03579 9.03515 8.05621C9.03515 8.07663 9.06457 7.98985 9.08583 7.98857C9.10708 7.98729 9.16538 7.99623 9.16538 8.01792C9.16538 8.06131 9.08474 8.11491 9.09073 8.26039C9.09672 8.40333 9.15994 8.44672 9.15994 8.49011C9.15994 8.5335 9.13269 8.65346 9.13269 8.65346C9.13269 8.65346 9.18555 8.55774 9.18555 8.485L9.185 8.48628Z" fill="black" stroke="black" stroke-width="0.31627"/>
<path id="Vector_102" fill-rule="evenodd" clip-rule="evenodd" d="M9.18672 7.89336C9.18672 7.92852 9.16914 7.96016 9.15156 7.96016C9.12695 7.96016 9.10938 7.93203 9.10938 7.89336C9.10938 7.85469 9.12695 7.83008 9.14805 7.83008C9.16914 7.83008 9.18672 7.8582 9.18672 7.89336ZM9.68242 8.08672H9.69648V8.60352H9.68242V8.08672ZM9.79492 8.04453H9.80898V8.56484H9.79492V8.04453Z" fill="black"/>
<path id="Vector_103" fill-rule="evenodd" clip-rule="evenodd" d="M9.70703 8.33203V8.31445L9.8125 8.33555V8.34609L9.70703 8.33203Z" fill="black"/>
<path id="Vector_104" fill-rule="evenodd" clip-rule="evenodd" d="M8.23006 8.43025C8.23006 8.43025 8.63225 8.61662 8.72042 8.72778C8.80705 8.83895 8.77302 8.83895 8.77302 8.83895L9.66556 8.87654C9.66556 8.82096 9.82334 8.82096 9.85892 8.69018C9.8945 8.56104 9.8945 8.52344 9.8945 8.52344L9.61452 8.61662L9.62998 8.44987H9.38558L9.35 8.61662L8.82406 8.59863L8.85964 8.15234L8.75445 8.17033L8.73898 8.59537C8.72042 8.59537 8.24708 8.46622 8.22852 8.43025H8.23006Z" fill="#B74D00" stroke="black" stroke-width="0.603103"/>
<path id="Vector_105" fill-rule="evenodd" clip-rule="evenodd" d="M7.42188 5.76744C7.42188 5.76744 8.00505 5.58435 8.84655 5.59743C9.68805 5.61051 10.2712 5.80668 10.2588 5.80668C10.2465 5.80668 10.098 5.50588 10.098 5.50588C10.098 5.50588 9.50397 5.33423 8.83417 5.32115C8.16592 5.30807 7.58275 5.45193 7.59667 5.46501L7.42188 5.76744Z" fill="#FEDE00" stroke="#FEDE00" stroke-width="0.603103"/>
<path id="Vector_106" fill-rule="evenodd" clip-rule="evenodd" d="M8.47285 5.37188L8.83496 5.36484V5.57578L8.47637 5.58281L8.47285 5.37188ZM7.64316 5.48789L7.5166 5.69531L7.94551 5.64258L7.91035 5.43164L7.64316 5.48789ZM8.00879 5.40703L8.36738 5.37539L8.38496 5.58633L8.02637 5.61797L8.00879 5.40703ZM9.30606 5.38594L8.94746 5.36133L8.9334 5.57227L9.29199 5.59687L9.30606 5.38594ZM10.0795 5.51953L10.2096 5.77617L9.82285 5.67773L9.86504 5.47383L10.0795 5.51953ZM9.7666 5.44219L9.41152 5.39648L9.38691 5.60391L9.74199 5.64961L9.7666 5.44219Z" fill="#38A9F9"/>
<path id="Vector_107" fill-rule="evenodd" clip-rule="evenodd" d="M8.84685 5.88628L8.80818 5.66558L8.69062 5.85358L8.73393 5.63289L8.55913 5.75876L8.67669 5.57403L8.46941 5.61981L8.6473 5.49557L8.43848 5.4547L8.6473 5.41219L8.46941 5.28795L8.67669 5.33372L8.55759 5.149L8.73393 5.27487L8.69062 5.05418L8.80818 5.24218L8.84685 5.02148L8.88707 5.24218L9.00309 5.05418L8.96132 5.27487L9.13612 5.149L9.01701 5.33372L9.22584 5.28795L9.04794 5.41219L9.25677 5.4547L9.04794 5.49557L9.22584 5.61981L9.01701 5.57403L9.13612 5.75876L8.96132 5.63289L9.00463 5.85358L8.88707 5.66558L8.84685 5.88628Z" fill="#FFDF00" stroke="black" stroke-width="0.603103"/>
<path id="Vector_108" fill-rule="evenodd" clip-rule="evenodd" d="M9.10567 5.45123C9.10567 5.57809 9.0059 5.68039 8.88194 5.68039C8.75798 5.68039 8.6582 5.57809 8.6582 5.45123C8.6582 5.32437 8.75798 5.2207 8.88194 5.2207C9.0059 5.2207 9.10567 5.32437 9.10567 5.45259V5.45123Z" fill="#FFDF00" stroke="black" stroke-width="0.544614"/>
<path id="Vector_109" fill-rule="evenodd" clip-rule="evenodd" d="M8.85957 5.39336C8.85957 5.40742 8.82793 5.41797 8.78926 5.41797C8.75059 5.41797 8.71191 5.40742 8.71191 5.39336C8.71191 5.3793 8.74707 5.36523 8.78574 5.36523C8.82441 5.36523 8.86309 5.3793 8.86309 5.39336H8.85957ZM9.02481 5.39336C9.02481 5.40742 8.99668 5.41797 8.96855 5.41797C8.94043 5.41797 8.9123 5.40742 8.9123 5.39336C8.9123 5.3793 8.93691 5.36523 8.96855 5.36523C9.0002 5.36523 9.02129 5.3793 9.02129 5.39336H9.02481Z" fill="black"/>
<path id="Vector_110" d="M8.82651 5.4832L8.84192 5.49203C8.80487 5.46948 8.82177 5.47785 8.87977 5.53478C8.91327 5.5158 8.91972 5.49844 8.94061 5.47487" stroke="black" stroke-width="0.604054"/>
<path id="Vector_111" d="M8.74839 5.57303L8.76076 5.58611C8.73137 5.55341 8.74529 5.56976 8.81026 5.61227C8.87214 5.62044 8.93556 5.59265 8.97268 5.54688" stroke="black" stroke-width="0.603103"/>
<path id="Vector_112" fill-rule="evenodd" clip-rule="evenodd" d="M7.85742 6.00195C7.85742 6.00195 7.88203 6.21289 7.7168 6.47656C7.55859 6.73672 7.5832 6.64531 7.5832 6.64531C7.5832 6.64531 7.65703 6.78594 7.64648 6.78594C7.63594 6.78594 7.51992 6.65937 7.51992 6.65937L7.38633 6.8C7.38633 6.8 7.50937 6.57852 7.49531 6.57852C7.48125 6.57852 7.46016 6.50117 7.46016 6.50117L7.55859 6.4625C7.55859 6.4625 7.70625 6.18828 7.70625 6.19883C7.70625 6.20938 7.25977 6.50117 7.25977 6.50117L7.85742 6.00195ZM7.95586 6.08281C7.9418 6.08281 8.01563 6.29375 8.07891 6.39922C8.11759 6.47066 8.13925 6.55006 8.14219 6.63125L8.35313 6.73672L8.07891 6.33242L8.25469 6.3957L7.95586 6.08281ZM7.95586 6.63125C7.95586 6.63125 8.10352 6.78945 8.11758 6.84219C8.13164 6.89492 8.12812 7.01094 8.12812 7.01094L8.06836 6.88086L7.98047 7.00039C7.98047 7.00039 8.04375 6.81406 8.02969 6.80352C8.01562 6.79297 7.93125 6.8668 7.93125 6.8668L7.96641 6.75078C7.96641 6.74023 7.96641 6.66992 7.95586 6.63125ZM7.20703 7.00039C7.25625 6.9582 7.3582 6.93008 7.3582 6.93008C7.3582 6.93008 7.29492 7.03555 7.28086 7.03555C7.2668 7.03555 7.23164 7.03555 7.21055 7.00039H7.20703ZM8.91914 6.42383C8.91914 6.42383 9.23906 6.6207 9.23906 6.63477C9.23906 6.64883 9.02812 6.53984 9.02812 6.53984L8.91914 6.42383ZM8.33906 6.0125C8.36367 6.02656 8.81016 6.39219 8.79609 6.39219C8.78203 6.39219 8.59922 6.28672 8.59922 6.30078V6.39219L8.50078 6.18125L8.47617 6.26211L8.33906 6.01602V6.0125ZM8.45156 6.60313L8.57461 6.84922L8.69766 6.82461C8.69766 6.82461 8.46211 6.60313 8.45156 6.60313ZM8.83828 6.44492L8.84883 6.68047C8.84883 6.68047 8.91914 6.74727 8.91914 6.7332C8.91914 6.71914 8.84883 6.45898 8.83477 6.44492H8.83828Z" fill="#B7E1FF"/>
<path id="Vector_113" fill-rule="evenodd" clip-rule="evenodd" d="M5.19629 3.2418C5.19629 3.2418 5.75527 2.93594 6.3916 2.70391C6.85702 2.53346 7.33718 2.40636 7.82598 2.32422C8.01582 2.32422 8.33574 2.79531 8.38848 2.79531C8.44473 2.79531 8.65918 2.66523 8.92637 2.66523C9.19355 2.66523 9.35527 2.87617 9.41152 2.87617H9.89316C9.9459 2.87617 9.73144 2.34883 9.89316 2.37695C9.97402 2.39102 10.6596 2.49648 11.2959 2.70039C11.9322 2.91133 12.8357 3.27344 12.8357 3.27344C12.8357 3.27344 11.3592 3.47031 10.9654 3.41406C10.9127 3.43867 10.9654 3.75859 10.8881 3.61797C10.765 3.58984 10.3115 3.51953 10.2307 3.51953C10.1498 3.51953 10.0021 3.61094 9.78769 3.66016C9.62514 3.70159 9.46339 3.74612 9.30254 3.79375L9.6541 4.34219L9.22168 4.55313C9.22168 4.55313 8.95449 3.92383 8.84551 3.92383C8.73652 3.92383 8.6873 4.37031 8.5502 4.3457C8.4166 4.31758 8.36387 3.92383 8.2584 3.81836C8.14941 3.71289 7.5834 3.67773 7.36895 3.625C7.15449 3.57227 6.80645 3.53008 6.62012 3.47734C6.43379 3.42461 6.24395 3.61094 6.16309 3.61094C6.08223 3.61094 6.26855 3.45273 6.19121 3.42461C6.11387 3.39648 6.05762 3.50547 6.00137 3.50547C5.94863 3.50547 5.38613 3.4 5.3334 3.37188C5.27715 3.34727 5.46699 3.2418 5.41426 3.2418H5.19629Z" fill="#984000"/>
<path id="Vector_114" fill-rule="evenodd" clip-rule="evenodd" d="M9.18232 2.97047C9.18232 3.11953 9.06283 3.24047 8.91607 3.24047C8.76931 3.24047 8.65039 3.11953 8.65039 2.97047C8.65039 2.82141 8.76931 2.70117 8.91607 2.70117C9.06283 2.70117 9.18232 2.82211 9.18232 2.97047Z" fill="#808080" stroke="#772600" stroke-width="0.672138"/>
<path id="Vector_115" fill-rule="evenodd" clip-rule="evenodd" d="M7.8623 3.0298C7.91083 2.97411 7.97094 2.88973 8.12809 2.88973C8.1643 2.87539 8.1643 2.79102 8.24831 2.79102C8.33305 2.79102 8.30842 2.87539 8.36926 2.90408C8.42937 2.93192 8.92401 2.87539 8.92401 2.87539C8.92401 2.87539 8.97181 2.91758 8.97181 2.97411C8.97181 3.03064 8.9356 3.07198 8.92401 3.07198C8.91242 3.07198 8.42937 3.0298 8.39316 3.04414C8.35695 3.05848 8.33305 3.07198 8.24831 3.07198C8.1643 3.07198 8.13968 2.97411 8.07957 2.97411C8.01946 2.97411 7.95935 2.95977 7.8623 3.03064V3.0298Z" fill="#984000" stroke="#772600" stroke-width="1.17846"/>
<path id="Vector_116" d="M9.33413 3.00266H9.52677C9.59629 3.0035 9.62019 3.02797 9.68393 3.0305H9.85267C9.91423 3.02797 9.94682 3.01109 10.0091 3.00266C10.1141 3.00097 10.0786 2.99169 10.0576 2.91828C10.0388 2.86344 10.0359 2.83728 10.0091 2.80606C9.99896 2.73856 9.97579 2.71494 9.97289 2.63731C9.96203 2.57825 9.94175 2.53859 9.9613 2.46856C9.98882 2.51666 9.99968 2.53606 10.0699 2.53944C10.1424 2.53944 10.1706 2.53691 10.2148 2.56728C10.2481 2.60862 10.293 2.59512 10.3596 2.59512C10.4147 2.60694 10.4241 2.63984 10.4675 2.66516C10.5189 2.69891 10.5523 2.70734 10.624 2.70734C10.6819 2.72 10.7326 2.72928 10.7688 2.74953C10.7999 2.79256 10.8485 2.80353 10.9136 2.80606C10.9499 2.80606 10.9788 2.80184 11.01 2.79172C11.0657 2.79509 11.1222 2.79172 11.191 2.79172C11.2359 2.85247 11.2461 2.87525 11.3236 2.87609C11.3771 2.91997 11.4221 2.92672 11.4684 2.94612H11.6495C11.7146 2.95203 11.7349 2.98325 11.7943 3.00266C11.8452 3.02948 11.8975 3.05286 11.9507 3.07269C12.0026 3.08362 12.0552 3.08843 12.1079 3.08703C12.1521 3.11403 12.2064 3.11572 12.2404 3.14272C12.2904 3.15537 12.3585 3.17056 12.3968 3.1849C12.4606 3.19503 12.4852 3.21865 12.5417 3.22709C12.5902 3.24397 12.5258 3.25747 12.4932 3.26928C12.4222 3.26675 12.4171 3.23553 12.3483 3.22709C12.3121 3.20262 12.2571 3.206 12.2035 3.1849H12.1919C12.2397 3.21865 12.286 3.23975 12.2643 3.29797C12.2028 3.29797 12.1528 3.28869 12.0956 3.28362C12.0347 3.27012 12.0072 3.25578 11.9391 3.25578C12.0072 3.23637 12.0246 3.25747 12.0717 3.28362C12.0891 3.35112 12.0514 3.32581 11.9869 3.32581C11.9319 3.30303 11.8986 3.27519 11.8305 3.26928H11.6857C11.7574 3.27265 11.7726 3.30387 11.8182 3.34015C11.8218 3.36209 11.8175 3.36041 11.782 3.368C11.7443 3.33003 11.6958 3.31737 11.6371 3.29797C11.5799 3.29544 11.5198 3.28953 11.4684 3.26928C11.4329 3.26675 11.4387 3.21781 11.5169 3.29797C11.564 3.33003 11.5807 3.35703 11.577 3.38234C11.5148 3.36378 11.4843 3.33509 11.4445 3.31147C11.3903 3.28958 11.333 3.28012 11.2758 3.28362C11.2135 3.26422 11.2823 3.25325 11.3236 3.32581C11.4134 3.40006 11.312 3.368 11.2758 3.35365C11.2214 3.33594 11.165 3.30978 11.1186 3.29797C11.0824 3.28531 11.0505 3.2735 11.01 3.26928C11.073 3.27603 11.094 3.30219 11.1186 3.35365C11.1823 3.40428 11.1157 3.37981 11.0585 3.368C11.0223 3.33087 10.9752 3.31147 10.9499 3.26928C10.8897 3.23469 10.8876 3.19334 10.926 3.28362C10.9354 3.31231 10.9332 3.37475 10.9375 3.38234C10.8934 3.32581 10.9028 3.31147 10.8535 3.31147C10.8195 3.28447 10.7703 3.26337 10.7449 3.22709C10.6986 3.22203 10.6957 3.20262 10.6486 3.1849C10.687 3.23806 10.7384 3.29037 10.7688 3.34015C10.8238 3.37559 10.8391 3.40765 10.8774 3.43803C10.8926 3.46925 10.9354 3.49456 10.8897 3.45237C10.8376 3.39331 10.7992 3.37897 10.721 3.34015C10.6761 3.29797 10.6602 3.28109 10.6124 3.24144C10.5472 3.21697 10.5725 3.20347 10.6124 3.28362C10.658 3.33256 10.6928 3.38656 10.7326 3.42453C10.7638 3.468 10.8004 3.50582 10.8412 3.53675C10.8521 3.55531 10.8847 3.55869 10.8412 3.56459C10.805 3.52578 10.7514 3.50131 10.7087 3.46587C10.6486 3.44647 10.6203 3.41019 10.5762 3.368C10.5472 3.31822 10.5008 3.28025 10.4675 3.24144C10.398 3.20937 10.4813 3.27181 10.5037 3.31147C10.5189 3.36294 10.5385 3.40428 10.5515 3.45237C10.5718 3.49878 10.4907 3.4414 10.4675 3.42453C10.4199 3.38857 10.3664 3.36444 10.3104 3.35365C10.2624 3.34246 10.2141 3.33318 10.1655 3.32581C10.1112 3.30894 10.1952 3.36631 10.2264 3.42453C10.2872 3.49119 10.1663 3.43634 10.13 3.42453C10.0703 3.4127 10.0096 3.40789 9.94899 3.41019C9.8715 3.41525 9.92726 3.42706 9.94899 3.46587C9.97289 3.48781 9.98955 3.53337 9.9852 3.55025C9.9345 3.54181 9.89105 3.52494 9.82804 3.5224C9.77735 3.54181 9.71724 3.53675 9.6593 3.53675C9.65713 3.57219 9.67016 3.54181 9.69551 3.57894C9.73752 3.59834 9.76504 3.62197 9.75635 3.64897H9.40655C9.36817 3.66078 9.41452 3.65487 9.44276 3.7055C9.42683 3.75106 9.40655 3.73334 9.35803 3.73334C9.32544 3.71815 9.25953 3.7114 9.22549 3.69115C9.19146 3.69115 9.19435 3.68103 9.16538 3.67681C9.26678 3.76119 9.21608 3.74009 9.27402 3.80337C9.28343 3.80759 9.30661 3.81772 9.2856 3.81772M8.48969 4.26744C8.48245 4.26744 8.46651 4.22187 8.44189 4.18306C8.42451 4.13244 8.40278 4.16112 8.38106 4.08434C8.38395 4.00503 8.38613 3.99153 8.38106 3.91559C8.33181 3.87509 8.31081 3.86328 8.27242 3.78903C8.21159 3.72997 8.28184 3.62872 8.29343 3.55447C8.23983 3.54097 8.21376 3.6515 8.13192 3.69115C8.07254 3.73756 8.12468 3.59497 8.09571 3.51228C8.07616 3.395 8.0175 3.57134 7.99577 3.62112C7.95594 3.65234 7.94363 3.69284 7.88714 3.63462C7.88714 3.59159 7.92263 3.47009 7.90742 3.44647C7.85093 3.47937 7.77706 3.57725 7.7184 3.59244C7.65901 3.57809 7.73071 3.46756 7.73071 3.38572C7.70898 3.37728 7.62425 3.6034 7.58948 3.60509C7.55472 3.60678 7.56993 3.38572 7.55327 3.39078C7.52793 3.43297 7.47651 3.52072 7.44102 3.55109C7.37222 3.54012 7.45116 3.40344 7.4613 3.35281C7.47289 3.29206 7.39684 3.46925 7.35629 3.48022C7.32659 3.51059 7.26793 3.53084 7.24765 3.53675C7.27083 3.48444 7.38525 3.37897 7.37801 3.34859C7.31066 3.35112 7.20855 3.45406 7.15133 3.46672C7.11367 3.46672 7.06153 3.48106 7.05501 3.48022C7.05791 3.41272 7.19551 3.35703 7.21724 3.31569C7.14988 3.32834 7.02025 3.39753 6.98259 3.45237C6.93769 3.46334 6.8812 3.47769 6.83775 3.45237C6.84426 3.38909 6.94565 3.26675 6.9681 3.22625C6.90655 3.25747 6.87613 3.28194 6.81095 3.29628C6.79864 3.31062 6.76388 3.341 6.77474 3.31062C6.79429 3.25156 6.82326 3.22625 6.84716 3.18406C6.79284 3.19587 6.77257 3.23215 6.71463 3.26844C6.67769 3.27012 6.57196 3.39415 6.53647 3.39584C6.47641 3.451 6.4063 3.48939 6.33152 3.50806C6.27648 3.51987 6.24968 3.53337 6.22288 3.56459C6.2504 3.50806 6.29241 3.4549 6.33152 3.42453C6.35539 3.37331 6.39379 3.33335 6.44015 3.31147C6.45391 3.29206 6.49157 3.287 6.45174 3.28362C6.4177 3.31906 6.35976 3.35956 6.33152 3.38234C6.29458 3.40934 6.25185 3.43634 6.23447 3.42453C6.25403 3.36378 6.28879 3.34859 6.3192 3.29797C6.38294 3.25072 6.3192 3.28109 6.27068 3.29797C6.23954 3.33003 6.18378 3.3545 6.13815 3.38234C6.08745 3.39753 6.05342 3.43297 5.99331 3.45237C5.99331 3.47262 6.01069 3.41609 6.01793 3.39584C6.06718 3.3334 6.08021 3.31569 6.13815 3.29797C6.15263 3.2735 6.17002 3.28362 6.12656 3.28362C6.09325 3.31737 6.04835 3.33594 6.00562 3.368C5.96289 3.37897 5.90712 3.38234 5.84919 3.38234C5.77387 3.39247 5.78039 3.39922 5.84919 3.35365C5.88757 3.31147 5.91944 3.32244 5.92161 3.26928C5.87598 3.30809 5.82022 3.33678 5.76445 3.368C5.7181 3.36969 5.70579 3.38234 5.65582 3.38234C5.67972 3.35365 5.6942 3.31737 5.72824 3.29797C5.77894 3.233 5.69638 3.28531 5.67972 3.29797H5.49866C5.4668 3.34522 5.49722 3.29797 5.52329 3.26928C5.55443 3.25072 5.58702 3.22625 5.5834 3.21359C5.54719 3.24987 5.50591 3.26675 5.47477 3.29797C5.44145 3.30978 5.40234 3.31484 5.40234 3.32581C5.42914 3.28109 5.47187 3.25325 5.49939 3.21359C5.53995 3.20347 5.57471 3.18828 5.5834 3.17141H5.41466H5.53488C5.59643 3.17141 5.64858 3.16466 5.70434 3.15706C5.79994 3.1385 5.69565 3.12922 5.64351 3.12922C5.63409 3.10728 5.67393 3.09547 5.71593 3.08703C5.75214 3.06678 5.79777 3.04906 5.83688 3.0305C5.8714 3.01825 5.90394 2.99943 5.9332 2.97481C5.89699 2.9765 5.89699 2.98662 5.86077 2.98831C5.91509 2.98409 5.95347 2.97481 6.01793 2.97481C6.07101 2.95442 6.12322 2.93105 6.17436 2.90478C6.19609 2.87441 6.20478 2.87609 6.15046 2.87609C6.19898 2.85837 6.26779 2.84909 6.30689 2.83391C6.35681 2.82172 6.4054 2.80304 6.45174 2.77822C6.48722 2.75037 6.5075 2.71747 6.54806 2.69384C6.59513 2.73097 6.59586 2.73603 6.68059 2.73603C6.74867 2.73519 6.79067 2.71578 6.82543 2.6795C6.87758 2.66262 6.88699 2.63394 6.94638 2.62381C7.00218 2.63402 7.05864 2.63854 7.11512 2.63731C7.17306 2.61959 7.22882 2.58669 7.27155 2.55294C7.30849 2.53184 7.35266 2.50147 7.3925 2.48291C7.43595 2.50906 7.47071 2.53016 7.52503 2.53944C7.58079 2.52931 7.61049 2.49725 7.65756 2.48291C7.6866 2.4469 7.72459 2.42241 7.76619 2.41287C7.83644 2.37237 7.83137 2.42553 7.86252 2.46856C7.89873 2.51244 7.94508 2.49134 7.99505 2.51075C8.02329 2.56137 8.04357 2.59512 8.07978 2.62297C8.10803 2.66347 8.14134 2.67359 8.20073 2.6795C8.22245 2.71325 8.20507 2.73687 8.24852 2.74953C8.2659 2.77147 8.2956 2.77991 8.32095 2.79172" stroke="#772600" stroke-width="0.778229"/>
<path id="Vector_117" d="M9.19517 3.90937V3.91613C9.19517 3.89672 9.19517 3.90769 9.20749 3.94481C9.21183 3.97519 9.20169 3.97181 9.18938 3.99375C9.18721 4.02497 9.18359 4.04775 9.18359 4.08487C9.17924 4.11525 9.16476 4.14394 9.15317 4.16925C9.14158 4.19541 9.09161 4.21059 9.09306 4.24688C9.06409 4.25616 9.06337 4.23422 9.06264 4.19709C9.04526 4.17431 9.03947 4.14309 9.02643 4.11272C9.01919 4.08403 9.00181 4.06209 8.99022 4.02834C8.97284 3.99713 8.95763 3.98784 8.94242 3.95156C8.9359 3.93469 8.93735 3.91275 8.92432 3.90263C8.90476 3.87309 8.89173 3.86887 8.85769 3.86719C8.83162 3.87394 8.82148 3.88744 8.79758 3.89503C8.77875 3.90263 8.74254 3.90009 8.71936 3.90937C8.71357 3.92034 8.73095 3.92625 8.73747 3.95156C8.72154 3.96675 8.71574 3.99291 8.70705 4.01484C8.69257 4.03594 8.68315 4.04606 8.67663 4.07812C8.68677 4.09753 8.67808 4.12369 8.66505 4.14141C8.6607 4.17347 8.64694 4.19119 8.64042 4.21819C8.62159 4.23422 8.61435 4.24856 8.59842 4.27472C8.58466 4.2975 8.57235 4.29581 8.53831 4.29581C8.51151 4.28737 8.50789 4.2705 8.48399 4.26037C8.48182 4.25194 8.47965 4.24941 8.47168 4.24688" stroke="#782600" stroke-width="0.689288"/>
<path id="Vector_118" fill-rule="evenodd" clip-rule="evenodd" d="M8.51523 4.19687C8.51523 4.19687 8.50469 4.32695 8.42031 4.41484C8.33594 4.50273 8.16016 4.60469 8.16016 4.60469C8.16016 4.60469 8.3957 4.4957 8.42031 4.5168C8.44492 4.54141 8.26914 4.73828 8.26914 4.73828C8.26914 4.73828 8.49766 4.53086 8.5293 4.53086C8.56094 4.53086 8.62422 4.73125 8.64883 4.72773C8.67344 4.72422 8.59609 4.47461 8.60664 4.43594C8.61719 4.39727 8.60664 4.18984 8.60664 4.18984L8.51523 4.19687ZM9.06016 4.1793C9.06016 4.1793 9.04961 4.31992 8.96172 4.41133C8.87383 4.50273 8.70156 4.61523 8.70156 4.61523C8.70156 4.61523 8.94062 4.4957 8.96172 4.52383C8.98633 4.54844 8.81055 4.75586 8.81055 4.75586C8.81055 4.75586 9.04258 4.53789 9.0707 4.53789C9.09883 4.53789 9.16914 4.74883 9.19375 4.74883C9.21836 4.7418 9.1375 4.47461 9.15156 4.43242C9.16211 4.39375 9.15156 4.16875 9.15156 4.16875L9.06016 4.1793ZM8.29727 2.90312C8.29727 2.93125 8.27266 2.95234 8.24102 2.95234C8.20937 2.95234 8.18477 2.93125 8.18477 2.90312C8.18477 2.875 8.20937 2.85742 8.24102 2.85742C8.27266 2.85742 8.29727 2.87852 8.29727 2.90312Z" fill="#812E00"/>
</g>
<defs>
<clipPath id="clip0_186_7453">
<rect width="18" height="18" fill="white"/>
</clipPath>
</defs>
</svg>
