<svg width="18" height="18" viewBox="0 0 18 18" fill="none" xmlns="http://www.w3.org/2000/svg">
<g id="eg" clip-path="url(#clip0_186_7581)">
<path id="Vector" d="M0 11.998H18V17.9992H0V11.998Z" fill="#000001"/>
<path id="Vector_2" d="M0 6.00195H18V11.9996H0V6.00195Z" fill="white"/>
<path id="Vector_3" d="M0 0H18V6.00117H0V0Z" fill="#CE1126"/>
<g id="Group">
<path id="Vector_4" d="M9.02389 9.07265L11.0789 10.9806L10.9319 7.51565C10.9109 6.99066 10.4549 7.11065 10.1219 7.29965C9.78889 7.51565 9.40189 7.51565 8.99989 7.37465C8.59489 7.51565 8.21089 7.51565 7.87789 7.29965C7.5479 7.11065 7.0889 6.99066 7.0679 7.51565L6.9209 10.9806L9.02389 9.07265Z" fill="white" stroke="#C09300" stroke-width="1.10933" stroke-linejoin="round"/>
<path id="eg-a" d="M7.3049 7.39453L7.1609 10.7635L6.9209 10.9795L7.0679 7.51453C7.13877 7.46018 7.21914 7.41949 7.3049 7.39453ZM7.5929 7.63453L7.4729 10.4545L7.2329 10.7005L7.3769 7.44553C7.4249 7.49353 7.5659 7.61053 7.5929 7.63453ZM7.85389 7.85053L7.7609 10.2025L7.5659 10.3915L7.6859 7.70953C7.7339 7.75453 7.82989 7.82353 7.85389 7.85053ZM8.13889 7.97053L8.04589 9.97452L7.85689 10.1275L7.94989 7.89853C7.99789 7.91953 8.09089 7.97053 8.13889 7.97053ZM8.40289 7.97053L8.33389 9.64152L8.13889 9.83052L8.21389 7.99153C8.25889 7.99153 8.38189 7.99153 8.40289 7.97053Z" fill="#C09300"/>
<path id="eg-a_2" d="M10.6951 7.39453L10.8391 10.7635L11.0791 10.9795L10.9321 7.51453C10.8612 7.46018 10.7809 7.41949 10.6951 7.39453ZM10.4071 7.63453L10.5271 10.4545L10.7671 10.7005L10.6231 7.44553C10.5751 7.49353 10.4341 7.61053 10.4071 7.63453ZM10.1461 7.85053L10.2391 10.2025L10.4341 10.3915L10.3141 7.70953C10.2661 7.75453 10.1701 7.82353 10.1461 7.85053ZM9.86111 7.97053L9.95411 9.97452L10.1431 10.1275L10.0501 7.89853C10.0021 7.91953 9.90911 7.97053 9.86111 7.97053ZM9.59711 7.97053L9.66611 9.64152L9.86111 9.83052L9.78611 7.99153C9.74111 7.99153 9.61811 7.99153 9.59711 7.97053Z" fill="#C09300"/>
<path id="Vector_5" d="M9.09621 9.44922L9.38421 10.7632L9.28821 10.8592L9.18921 10.7842L9.02721 9.61422L9.09621 10.7842L9.00021 10.9042L8.90721 10.7842L8.97621 9.61422L8.81121 10.7842L8.71221 10.8592L8.61621 10.7632L8.90421 9.45222H9.09621V9.44922Z" fill="#C09300" stroke="#C09300" stroke-width="0.938663"/>
<g id="eg-b">
<path id="Vector_6" d="M8.35522 8.875L7.78223 10.906L8.57122 11.026L8.90422 9.499L8.35522 8.875Z" fill="white" stroke="#C09300" stroke-width="1.024" stroke-linejoin="round"/>
<path id="Vector_7" d="M8.16602 9.57181L8.23501 9.73681L8.60701 9.38281" stroke="#C09300" stroke-width="1.10933" stroke-linejoin="round"/>
<path id="Vector_8" d="M8.42426 9.15039L8.50226 9.87939L8.73925 9.56739M8.64326 9.68739L8.77225 10.1374M8.82326 9.97239L8.56226 10.3684M8.64326 10.7644L8.55926 10.3684M8.55926 10.3684L8.48726 9.96639L8.31026 10.2034L8.23526 9.93039L7.98926 10.1824L8.11226 10.6384L8.28626 10.3564L8.37926 10.6444L8.55926 10.3684Z" stroke="#C09300" stroke-width="1.10933" stroke-linejoin="round"/>
<path id="Vector_9" d="M7.9502 10.8617L8.10919 10.6367L8.21119 10.9817L8.35519 10.7417L8.44819 11.0297" stroke="#C09300" stroke-width="1.10933" stroke-linejoin="round"/>
</g>
<g id="eg-b_2">
<path id="Vector_10" d="M9.64478 8.875L10.2178 10.906L9.42878 11.026L9.09578 9.499L9.64478 8.875Z" fill="white" stroke="#C09300" stroke-width="1.024" stroke-linejoin="round"/>
<path id="Vector_11" d="M9.83398 9.57181L9.76499 9.73681L9.39299 9.38281" stroke="#C09300" stroke-width="1.10933" stroke-linejoin="round"/>
<path id="Vector_12" d="M9.57574 9.15039L9.49774 9.87939L9.26075 9.56739M9.35674 9.68739L9.22775 10.1374M9.17674 9.97239L9.43774 10.3684M9.35674 10.7644L9.44074 10.3684M9.44074 10.3684L9.51274 9.96639L9.68974 10.2034L9.76474 9.93039L10.0107 10.1824L9.88774 10.6384L9.71374 10.3564L9.62074 10.6444L9.44074 10.3684Z" stroke="#C09300" stroke-width="1.10933" stroke-linejoin="round"/>
<path id="Vector_13" d="M10.0498 10.8617L9.89081 10.6367L9.78881 10.9817L9.64481 10.7417L9.55181 11.0297" stroke="#C09300" stroke-width="1.10933" stroke-linejoin="round"/>
</g>
<g id="Group_2">
<path id="Vector_14" d="M8.99956 11.8146C9.59956 11.8146 10.1696 11.7666 10.5056 11.6736C10.6466 11.6466 10.6466 11.5746 10.6466 11.4786C10.7906 11.4306 10.7186 11.2626 10.8176 11.2626C10.7156 11.2926 10.6976 11.0976 10.5776 11.1216C10.5776 10.9536 10.4066 10.9326 10.2656 10.9806C9.98056 11.0736 9.47656 11.0976 8.99956 11.0976C8.51957 11.0736 8.02157 11.0736 7.73357 10.9776C7.59257 10.9326 7.42457 10.9536 7.42457 11.1216C7.30457 11.0976 7.28357 11.2896 7.18457 11.2626C7.28357 11.2626 7.20857 11.4336 7.35257 11.4786C7.35257 11.5746 7.35257 11.6466 7.49657 11.6736C7.82657 11.7666 8.40257 11.8146 8.99956 11.8146Z" fill="white" stroke="#C09300" stroke-width="2.04799" stroke-linecap="round" stroke-linejoin="round"/>
<path id="Vector_15" d="M8.18632 10.9048C8.37832 10.9318 8.59432 10.9528 8.76232 10.9318C8.85832 10.9318 8.92732 11.0968 8.73532 11.1208C8.57032 11.1418 8.30632 11.1208 8.16532 11.0968C7.97977 11.0643 7.79562 11.0243 7.61332 10.9768C7.44532 10.9048 7.56532 10.7668 7.66132 10.7848C7.83259 10.8397 8.00823 10.8798 8.18632 10.9048ZM9.81232 10.9048C9.62032 10.9318 9.40432 10.9528 9.24232 10.9318C9.14032 10.9318 9.07132 11.0968 9.26332 11.1208C9.43132 11.1418 9.69232 11.1208 9.83332 11.0968C9.95331 11.0728 10.2173 11.0278 10.3853 10.9768C10.5533 10.9048 10.4333 10.7668 10.3373 10.7848C10.1661 10.8397 9.99041 10.8798 9.81232 10.9048Z" fill="white" stroke="#C09300" stroke-width="1.10933" stroke-linecap="round" stroke-linejoin="round"/>
<path id="Vector_16" d="M7.58913 10.8115C7.44513 10.7845 7.37913 10.9525 7.42413 11.0485C7.44513 11.0005 7.54413 11.0005 7.56513 10.9525C7.59213 10.8805 7.54413 10.8805 7.59213 10.8115H7.58913ZM8.16512 11.2525C8.16512 11.1565 8.25812 11.1685 8.25812 11.0725C8.25812 11.0275 8.23412 10.9525 8.18612 10.9525C8.16113 10.9539 8.13753 10.9645 8.11983 10.9822C8.10213 10.9999 8.09156 11.0235 8.09012 11.0485C8.06912 11.1415 8.16512 11.1565 8.16512 11.2525ZM8.84612 10.9795C8.98712 10.9795 8.97212 11.1685 8.90612 11.2645C8.90612 11.1955 8.78612 11.1685 8.78612 11.1205C8.78612 11.0485 8.89412 11.0485 8.84612 10.9795ZM10.4061 10.8115C10.5531 10.7845 10.6221 10.9525 10.5741 11.0485C10.5531 11.0005 10.4541 11.0005 10.4331 10.9525C10.4061 10.8805 10.4541 10.8805 10.4061 10.8115ZM9.83912 11.2495C9.83912 11.1535 9.74312 11.1655 9.74312 11.0695C9.74312 11.0245 9.76712 10.9495 9.81512 10.9495C9.84011 10.9509 9.86371 10.9615 9.88141 10.9792C9.89911 10.9969 9.90969 11.0205 9.91112 11.0455C9.93212 11.1385 9.83612 11.1535 9.83612 11.2495H9.83912ZM9.14912 10.9795C9.00812 10.9795 9.02312 11.1685 9.08912 11.2645C9.08912 11.1955 9.20912 11.1685 9.20912 11.1205C9.20912 11.0485 9.10112 11.0485 9.14912 10.9795Z" fill="white" stroke="#C09300" stroke-width="1.10933" stroke-linecap="round" stroke-linejoin="round"/>
<path id="Vector_17" d="M7.64062 10.8594C7.68862 10.8594 7.76062 10.8804 7.78162 10.9074L7.64062 10.8594ZM7.87762 10.9314C7.90162 10.9314 7.99762 10.9524 8.04262 10.9794L7.87762 10.9314ZM8.73562 11.0274C8.69062 11.0274 8.59462 11.0274 8.57062 11.0484L8.73562 11.0244V11.0274ZM8.47462 11.0274C8.44762 11.0004 8.35462 11.0004 8.30662 11.0274H8.47462ZM10.3586 10.8594C10.3077 10.86 10.2583 10.8768 10.2176 10.9074L10.3586 10.8594ZM10.1246 10.9314C10.0946 10.9314 10.0046 10.9524 9.95662 10.9794L10.1246 10.9314ZM9.26362 11.0274C9.30862 11.0274 9.40462 11.0274 9.43162 11.0484L9.26362 11.0244V11.0274ZM9.52462 11.0274C9.55162 11.0004 9.64462 11.0004 9.69262 11.0274H9.52462Z" fill="white" stroke="#C09300" stroke-width="0.767997" stroke-linecap="round" stroke-linejoin="round"/>
<g id="Group_3">
<path id="Vector_18" d="M7.598 11.2375C7.583 11.2345 7.574 11.2195 7.58 11.2075C7.583 11.1865 7.598 11.1775 7.61 11.1835C7.622 11.1835 7.637 11.2015 7.637 11.2075L7.625 11.2285L7.619 11.2315C7.619 11.2375 7.607 11.2375 7.598 11.2375ZM9.248 11.3545C9.242 11.3545 9.23 11.3395 9.23 11.3335C9.23 11.3215 9.248 11.3035 9.26 11.3035L9.284 11.3155C9.293 11.3245 9.293 11.3425 9.281 11.3515C9.275 11.3575 9.257 11.3575 9.248 11.3515V11.3545ZM9.257 11.4295C9.245 11.4235 9.242 11.4175 9.239 11.4055C9.239 11.3905 9.239 11.3875 9.254 11.3785L9.266 11.3725L9.278 11.3785C9.29 11.3845 9.299 11.3905 9.299 11.4025C9.299 11.4115 9.29 11.4205 9.278 11.4265C9.269 11.4325 9.266 11.4325 9.257 11.4265V11.4295Z" fill="#C09300"/>
<path id="Vector_19" d="M7.73315 11.0996C7.72115 11.0996 7.70616 11.1116 7.69716 11.1176C7.67916 11.1206 7.65516 11.1326 7.63716 11.1176C7.61916 11.1146 7.59516 11.1176 7.59216 11.1416C7.59516 11.1626 7.62216 11.1716 7.64016 11.1596C7.65216 11.1446 7.68516 11.1326 7.69116 11.1596C7.67616 11.1836 7.67916 11.2106 7.66716 11.2316C7.66716 11.2466 7.65816 11.2586 7.65216 11.2706C7.63716 11.2706 7.62216 11.2706 7.61016 11.2796C7.60084 11.2796 7.59165 11.2818 7.58332 11.2859C7.57499 11.2901 7.56774 11.2962 7.56216 11.3036C7.55016 11.3216 7.53816 11.3396 7.53516 11.3636C7.53816 11.3816 7.56516 11.3876 7.58316 11.3906L7.64316 11.4086L7.73916 11.4356C7.78715 11.4506 7.83515 11.4566 7.88315 11.4686L7.89815 11.4716C7.91915 11.4776 7.92815 11.4566 7.92815 11.4416L7.95815 11.3336C7.96415 11.3186 7.97315 11.2886 7.94615 11.2946C7.93115 11.3036 7.91615 11.3186 7.89815 11.3186C7.87115 11.3186 7.88615 11.3486 7.89815 11.3576C7.89815 11.3756 7.89215 11.3966 7.88315 11.4116C7.86515 11.4206 7.84715 11.4116 7.82915 11.4056C7.81415 11.4056 7.77815 11.3966 7.79315 11.3756L7.80815 11.3216C7.81715 11.3036 7.81715 11.2826 7.82315 11.2616C7.81115 11.2406 7.79315 11.2706 7.77815 11.2736C7.76615 11.2796 7.73015 11.2826 7.74815 11.3036C7.76615 11.3156 7.75415 11.3366 7.74815 11.3546C7.74815 11.3756 7.72415 11.3846 7.70616 11.3756C7.68816 11.3756 7.66116 11.3606 7.67616 11.3426L7.69116 11.2886L7.71216 11.2286C7.71216 11.2076 7.72116 11.1926 7.73016 11.1746C7.73016 11.1536 7.74516 11.1356 7.74516 11.1146C7.74516 11.1056 7.73915 11.1026 7.73315 11.1026V11.0996ZM7.62216 11.3186C7.62352 11.3178 7.62508 11.3174 7.62666 11.3174C7.62824 11.3174 7.62979 11.3178 7.63116 11.3186C7.63716 11.3246 7.63716 11.3306 7.63116 11.3366L7.62216 11.3426C7.60716 11.3426 7.60416 11.3396 7.60416 11.3336C7.60416 11.3306 7.60416 11.3276 7.61316 11.3246C7.61681 11.322 7.62086 11.32 7.62516 11.3186H7.62216ZM7.59216 11.4686C7.57716 11.4566 7.58016 11.4476 7.60116 11.4296C7.61316 11.4236 7.61616 11.4236 7.62816 11.4326C7.64616 11.4476 7.64616 11.4566 7.62816 11.4716C7.62216 11.4776 7.61916 11.4776 7.61316 11.4776C7.60416 11.4776 7.60116 11.4776 7.59216 11.4716V11.4686ZM7.68216 11.4986C7.67546 11.4965 7.66983 11.4919 7.66647 11.4858C7.66311 11.4796 7.66228 11.4724 7.66416 11.4656C7.67016 11.4536 7.67316 11.4506 7.69116 11.4506C7.71216 11.4506 7.71515 11.4536 7.71815 11.4716C7.71815 11.4836 7.71816 11.4866 7.70916 11.4926C7.70581 11.4953 7.70194 11.4972 7.6978 11.4982C7.69366 11.4992 7.68935 11.4994 7.68516 11.4986H7.68216ZM10.3581 11.4986C10.3521 11.4956 10.3491 11.4926 10.3491 11.4836C10.3491 11.4716 10.3551 11.4626 10.3731 11.4566C10.3911 11.4476 10.4031 11.4476 10.4091 11.4626C10.4181 11.4806 10.4181 11.4866 10.4061 11.4986C10.4001 11.5076 10.3971 11.5076 10.3821 11.5076C10.3671 11.5076 10.3641 11.5076 10.3581 11.5016V11.4986ZM7.80815 11.5346C7.79615 11.5346 7.79016 11.5226 7.79016 11.5106C7.79016 11.5016 7.79015 11.4986 7.79615 11.4926L7.81415 11.4866L7.83215 11.4896C7.84715 11.5016 7.85015 11.5136 7.84115 11.5256C7.83215 11.5376 7.82316 11.5376 7.80516 11.5346H7.80815ZM8.46215 11.5646L8.45615 11.5556C8.45615 11.5376 8.45615 11.5226 8.46215 11.5046C8.46515 11.4896 8.46215 11.4746 8.46815 11.4596L8.48015 11.3756C8.48015 11.3606 8.48015 11.3456 8.48615 11.3336C8.48915 11.3096 8.48615 11.2886 8.49215 11.2676C8.49215 11.2586 8.50115 11.2376 8.51015 11.2496C8.52215 11.2676 8.53715 11.2796 8.55215 11.2946C8.56415 11.3036 8.55215 11.3156 8.54315 11.3186C8.53115 11.3216 8.52815 11.3366 8.52815 11.3486L8.52215 11.3846C8.52215 11.4056 8.52215 11.4236 8.51615 11.4446L8.51315 11.4986L8.50715 11.5346C8.50715 11.5466 8.50715 11.5616 8.49515 11.5676C8.48615 11.5736 8.47115 11.5736 8.46515 11.5646H8.46215ZM9.35315 11.2706L9.31415 11.3066C9.29615 11.3216 9.32915 11.3276 9.33215 11.3396C9.33815 11.3576 9.33815 11.3756 9.33815 11.3936C9.34415 11.4116 9.34715 11.4266 9.34415 11.4446C9.34415 11.4656 9.32015 11.4596 9.30815 11.4716C9.29315 11.4776 9.28715 11.4926 9.27815 11.5016C9.27102 11.5167 9.26694 11.533 9.26615 11.5496C9.26615 11.5646 9.25715 11.5796 9.26615 11.5916L9.26915 11.5976H9.28415L9.32915 11.5946C9.36515 11.5886 9.40415 11.5886 9.44015 11.5856L9.50615 11.5796C9.52415 11.5826 9.53315 11.5646 9.53315 11.5496C9.52115 11.5286 9.53015 11.5076 9.52115 11.4896C9.51515 11.4656 9.51815 11.4446 9.51515 11.4236C9.51515 11.4056 9.49415 11.3996 9.48515 11.4116C9.47315 11.4236 9.45515 11.4266 9.44915 11.4386C9.44015 11.4566 9.46715 11.4566 9.47315 11.4686L9.47615 11.5136C9.47915 11.5316 9.46115 11.5316 9.44615 11.5346C9.43115 11.5406 9.41015 11.5436 9.40115 11.5256C9.39515 11.5106 9.39515 11.4956 9.39515 11.4806C9.39515 11.4506 9.38615 11.4266 9.38615 11.3996C9.38615 11.3696 9.37715 11.3366 9.37715 11.3036C9.37715 11.2886 9.37415 11.2676 9.35315 11.2706ZM9.33515 11.5166H9.34415V11.5406L9.33515 11.5436C9.33122 11.5449 9.32721 11.5459 9.32315 11.5466C9.32115 11.5467 9.31915 11.5467 9.31715 11.5466C9.31115 11.5406 9.31115 11.5316 9.32015 11.5226L9.33515 11.5166ZM8.43515 11.2406C8.42615 11.2406 8.41115 11.2616 8.39915 11.2586C8.37215 11.2616 8.37515 11.2886 8.39615 11.2976V11.3216C8.39915 11.3456 8.38415 11.3666 8.38715 11.3906C8.38715 11.4146 8.37815 11.4416 8.37815 11.4686C8.36915 11.4956 8.36915 11.5226 8.36615 11.5496C8.36315 11.5736 8.34515 11.5646 8.33015 11.5586V11.5286C8.33315 11.5016 8.31515 11.4956 8.29415 11.4926C8.27315 11.4926 8.26415 11.4776 8.27015 11.4596C8.27915 11.4476 8.30015 11.4506 8.31515 11.4506C8.34515 11.4566 8.34215 11.4176 8.32715 11.4026C8.31515 11.3846 8.29115 11.3726 8.28515 11.3546C8.28515 11.3306 8.27015 11.3036 8.24915 11.2916C8.21615 11.2886 8.18915 11.3156 8.18015 11.3456C8.16515 11.3456 8.15015 11.3516 8.13815 11.3576C8.11715 11.3636 8.08715 11.3996 8.11715 11.4146C8.13215 11.4176 8.18315 11.4296 8.15915 11.4506C8.14715 11.4746 8.12315 11.4746 8.10215 11.4686C8.08115 11.4686 8.05715 11.4566 8.05715 11.4326C8.05415 11.4086 8.05415 11.3846 8.04515 11.3636C8.03915 11.3396 8.01215 11.3456 8.00915 11.3696C7.98815 11.3846 7.99115 11.4116 8.00615 11.4296C8.01515 11.4506 8.00615 11.4776 7.99715 11.4956C7.99115 11.5256 7.96115 11.5256 7.94015 11.5316C7.93115 11.5376 7.89215 11.5316 7.90715 11.5526C7.92965 11.563 7.9548 11.5661 7.97915 11.5616C8.00315 11.5616 8.02415 11.5406 8.03915 11.5196C8.05415 11.5046 8.08115 11.5136 8.10515 11.5136C8.12615 11.5136 8.15015 11.5286 8.17415 11.5166C8.18015 11.5016 8.21015 11.4716 8.21915 11.5016C8.21915 11.5286 8.24015 11.5406 8.26415 11.5376C8.29115 11.5376 8.27915 11.5556 8.27915 11.5736C8.27915 11.6006 8.30015 11.6156 8.32415 11.6276H8.34815C8.36915 11.6186 8.39315 11.6096 8.40215 11.5856C8.41115 11.5646 8.41115 11.5406 8.41715 11.5196C8.42315 11.4866 8.42915 11.4506 8.42915 11.4176C8.43815 11.3876 8.43515 11.3546 8.44115 11.3216L8.45015 11.2526C8.45015 11.2376 8.44415 11.2376 8.43515 11.2406ZM8.23415 11.3636C8.23715 11.3636 8.24015 11.3696 8.24015 11.3786C8.24015 11.3906 8.24615 11.3996 8.25515 11.4026V11.4116L8.23115 11.4176C8.21615 11.4176 8.20415 11.4116 8.19515 11.4026L8.18915 11.3966L8.19815 11.3906L8.21315 11.3756C8.22215 11.3666 8.22815 11.3636 8.23415 11.3636ZM10.2141 11.1266C10.1969 11.1278 10.1798 11.1309 10.1631 11.1356C10.1331 11.1356 10.1181 11.1656 10.1481 11.1836C10.1661 11.2286 10.1931 11.1716 10.2231 11.1776C10.2651 11.1836 10.2681 11.2316 10.2771 11.2676C10.2771 11.3006 10.2891 11.3336 10.2981 11.3666C10.3281 11.3996 10.2771 11.4206 10.2561 11.3966C10.2381 11.3756 10.1961 11.3516 10.1751 11.3786C10.1481 11.3906 10.1451 11.4266 10.1241 11.4386C10.0881 11.4476 10.0851 11.4026 10.0641 11.3846C10.0461 11.3576 10.0131 11.3546 9.98615 11.3486C9.97415 11.3216 9.98015 11.2766 9.95615 11.2586C9.93215 11.2676 9.89015 11.3096 9.92615 11.3306C9.95615 11.3606 9.91115 11.3726 9.89615 11.3906C9.87215 11.4176 9.86615 11.4506 9.86615 11.4806C9.82715 11.5016 9.82115 11.4566 9.81515 11.4296C9.81515 11.3966 9.78515 11.4056 9.76415 11.4176C9.73415 11.4296 9.72215 11.4566 9.70415 11.4776V11.5376C9.71015 11.5646 9.74015 11.5526 9.75815 11.5496C9.78815 11.5376 9.80015 11.5706 9.77615 11.5886C9.75815 11.6066 9.71015 11.5976 9.71615 11.6306H9.76415C9.79415 11.6216 9.83015 11.5976 9.83315 11.5616C9.83915 11.5316 9.88415 11.5346 9.90815 11.5286C9.93815 11.5196 9.97715 11.5166 9.98615 11.5586C10.0071 11.5796 10.0521 11.6036 10.0761 11.5736C10.0876 11.5664 10.0967 11.5561 10.1026 11.5439C10.1084 11.5316 10.1107 11.518 10.1091 11.5046C10.1061 11.4806 10.1481 11.4806 10.1601 11.4956C10.1751 11.5196 10.2231 11.5136 10.2471 11.4956C10.2711 11.4806 10.2771 11.4476 10.3131 11.4476L10.4751 11.4026C10.5171 11.3936 10.4691 11.3666 10.4571 11.3486C10.4271 11.3336 10.3971 11.3996 10.3611 11.3666C10.3311 11.3456 10.3341 11.3066 10.3251 11.2736C10.3161 11.2316 10.3191 11.1836 10.2891 11.1536C10.2711 11.1326 10.2411 11.1266 10.2141 11.1266ZM10.0101 11.4116C10.0131 11.4116 10.0191 11.4116 10.0251 11.4176C10.0371 11.4236 10.0461 11.4356 10.0461 11.4476C10.0461 11.4536 10.0461 11.4536 10.0371 11.4566L10.0221 11.4626C10.0161 11.4626 10.0011 11.4536 10.0011 11.4476V11.4356C9.99515 11.4236 9.99515 11.4236 10.0011 11.4176L10.0101 11.4116ZM10.2051 11.4236C10.2171 11.4236 10.2231 11.4236 10.2291 11.4326C10.2321 11.4446 10.2291 11.4506 10.2171 11.4566L10.2021 11.4626L10.1901 11.4536C10.1841 11.4506 10.1811 11.4476 10.1811 11.4416C10.1811 11.4326 10.1931 11.4236 10.2051 11.4206V11.4236ZM9.93515 11.4236C9.94115 11.4236 9.94415 11.4236 9.94715 11.4296C9.95315 11.4356 9.95615 11.4386 9.95615 11.4476V11.4656C9.95615 11.4746 9.95615 11.4716 9.93815 11.4716C9.92015 11.4716 9.91715 11.4716 9.91715 11.4536C9.91715 11.4416 9.91715 11.4386 9.92615 11.4326C9.92915 11.4266 9.93515 11.4266 9.93815 11.4266L9.93515 11.4236ZM9.77315 11.4686C9.77598 11.4695 9.77856 11.471 9.78065 11.4731C9.78274 11.4752 9.78429 11.4778 9.78515 11.4806C9.78515 11.4896 9.78515 11.4956 9.77915 11.4986C9.77015 11.5016 9.75515 11.5046 9.74915 11.4986C9.74906 11.4976 9.74906 11.4966 9.74915 11.4956C9.74315 11.4926 9.74315 11.4896 9.74915 11.4866V11.4836L9.75515 11.4746C9.757 11.4717 9.7598 11.4695 9.76308 11.4684C9.76636 11.4673 9.76991 11.4674 9.77315 11.4686ZM10.0491 11.5046L10.0641 11.5076V11.5256H10.0281L10.0251 11.5196C10.0251 11.5136 10.0251 11.5106 10.0311 11.5076L10.0491 11.5046ZM9.53615 11.6486C9.53315 11.6486 9.52715 11.6456 9.53315 11.6426C9.53615 11.6336 9.54815 11.6306 9.55715 11.6246C9.57349 11.6184 9.58795 11.608 9.59915 11.5946C9.59915 11.5826 9.61115 11.5766 9.61115 11.5646L9.60815 11.5226C9.6041 11.51 9.59555 11.4993 9.58415 11.4926C9.57515 11.4896 9.56315 11.4866 9.56015 11.4746C9.56015 11.4656 9.56915 11.4566 9.57215 11.4476L9.59015 11.4116C9.59915 11.4026 9.61115 11.4116 9.61415 11.4176L9.62915 11.4476C9.63815 11.4566 9.64415 11.4656 9.64715 11.4776C9.65315 11.4896 9.65915 11.4986 9.65915 11.5076L9.66515 11.5466C9.66515 11.5616 9.66515 11.5796 9.65915 11.5946L9.64115 11.6186C9.63215 11.6276 9.62315 11.6366 9.61115 11.6396C9.60215 11.6426 9.59615 11.6516 9.58415 11.6516H9.53915L9.53615 11.6486ZM9.32915 11.6606C9.32315 11.6546 9.32015 11.6516 9.32015 11.6426C9.32015 11.6336 9.32015 11.6336 9.32915 11.6246C9.34115 11.6126 9.34715 11.6126 9.37115 11.6246C9.39215 11.6366 9.40115 11.6366 9.40115 11.6276C9.40415 11.6216 9.41615 11.6126 9.43115 11.6126C9.43669 11.6128 9.44199 11.6149 9.44615 11.6186C9.45215 11.6246 9.45515 11.6276 9.45515 11.6396C9.45515 11.6546 9.45515 11.6546 9.44615 11.6636C9.43715 11.6696 9.43715 11.6696 9.42515 11.6696C9.41982 11.6693 9.41469 11.6675 9.41042 11.6642C9.40615 11.661 9.40292 11.6566 9.40115 11.6516C9.40115 11.6456 9.40115 11.6426 9.39515 11.6486L9.38915 11.6516C9.38315 11.6516 9.37115 11.6606 9.36515 11.6666L9.35015 11.6696C9.33815 11.6696 9.33815 11.6696 9.32915 11.6606ZM8.73515 11.3936C8.71415 11.3936 8.69315 11.4116 8.69015 11.4326C8.69615 11.4536 8.71415 11.4776 8.70215 11.4986C8.71115 11.5286 8.67815 11.5406 8.65715 11.5256C8.64515 11.4956 8.63915 11.4656 8.61815 11.4356C8.59415 11.4296 8.58515 11.4686 8.56715 11.4836C8.57615 11.5046 8.60015 11.5256 8.60315 11.5526C8.60915 11.5826 8.59115 11.6126 8.57015 11.6246C8.54915 11.6456 8.51915 11.6396 8.49515 11.6426C8.46515 11.6606 8.51615 11.6666 8.53115 11.6666C8.56115 11.6696 8.59415 11.6666 8.62115 11.6426C8.64215 11.6336 8.63915 11.5916 8.66615 11.5886L8.81015 11.5976C8.83415 11.6036 8.87315 11.5946 8.89115 11.6126C8.89115 11.6426 8.92115 11.6666 8.94815 11.6786C8.96315 11.6846 8.97815 11.6636 8.99315 11.6606C9.02315 11.6516 9.01415 11.6156 9.03215 11.6006H9.18215C9.18815 11.6006 9.19115 11.5856 9.20015 11.5796L9.19415 11.5226C9.18515 11.4986 9.19415 11.4686 9.17915 11.4476C9.15215 11.4416 9.13115 11.4626 9.10715 11.4656C9.07715 11.4776 9.05615 11.5046 9.05315 11.5346C9.03815 11.5616 9.01115 11.5286 9.02315 11.5046L9.02015 11.4746C9.00515 11.4596 8.97815 11.4656 8.95715 11.4626L8.86715 11.4566C8.83715 11.4566 8.81015 11.4596 8.78615 11.4536C8.75615 11.4536 8.75615 11.4236 8.75615 11.3996C8.75015 11.395 8.74266 11.3929 8.73515 11.3936ZM8.79515 11.5046L8.82515 11.5076H8.86415C8.89415 11.5136 8.92415 11.5136 8.95415 11.5136C8.96015 11.5136 8.96615 11.5196 8.97215 11.5256V11.5856C8.97215 11.5946 8.97215 11.6066 8.96615 11.6096C8.96458 11.612 8.96254 11.614 8.96015 11.6156C8.95575 11.6148 8.95159 11.6131 8.94796 11.6105C8.94432 11.6079 8.94131 11.6045 8.93915 11.6006V11.5586C8.93321 11.5536 8.92589 11.5504 8.91815 11.5496L8.84015 11.5466L8.78015 11.5436C8.77115 11.5406 8.75915 11.5436 8.75315 11.5316C8.74715 11.5256 8.75615 11.5136 8.76515 11.5106C8.77458 11.5064 8.78483 11.5043 8.79515 11.5046ZM9.13415 11.5136C9.13715 11.5136 9.14015 11.5136 9.14015 11.5226L9.14615 11.5376C9.14615 11.5406 9.14615 11.5436 9.14015 11.5436C9.12515 11.5496 9.11015 11.5496 9.10415 11.5436C9.10415 11.5406 9.10415 11.5286 9.11015 11.5256L9.13415 11.5136Z" fill="#C09300"/>
</g>
</g>
<path id="Vector_20" d="M8.99949 9.81616C9.97748 9.06617 9.89348 7.96217 9.89348 7.96217L9.81848 7.96817C9.61148 7.96817 9.12249 7.84817 9.00849 7.70117C8.88849 7.83617 8.38449 7.97117 8.18049 7.97117L8.10549 7.96217C8.10549 7.96217 8.01849 9.06317 8.99949 9.81616Z" fill="white" stroke="#C09300" stroke-width="0.938663"/>
<path id="Vector_21" d="M9.81559 8.03973H9.79159C9.60559 8.03973 9.17359 7.94673 9.00559 7.80273C8.83159 7.93473 8.39059 8.04273 8.20759 8.04273C8.19952 8.04242 8.19149 8.04142 8.18359 8.03973C8.18523 8.22932 8.21145 8.41789 8.26159 8.60073C8.38192 9.04125 8.64064 9.43143 8.99959 9.71373C9.35875 9.43036 9.61745 9.03916 9.73759 8.59773C9.78747 8.41586 9.81369 8.22831 9.81559 8.03973Z" fill="white" stroke="#C09300" stroke-width="0.767997"/>
<path id="Vector_22" d="M8.68159 7.95027C8.52045 8.00274 8.35291 8.03302 8.18359 8.04027L8.18659 8.16327C8.19684 8.31043 8.22197 8.45617 8.26159 8.59826C8.34224 8.89331 8.48549 9.16753 8.68159 9.40226V7.95027ZM9.29959 7.95027V9.42626C9.50514 9.18612 9.65474 8.90331 9.73759 8.59826C9.77717 8.45616 9.8023 8.31042 9.81259 8.16327L9.81559 8.04327H9.79159C9.67759 8.04327 9.47959 8.00727 9.29959 7.94727V7.95027Z" fill="#C09300"/>
<g id="Group_4">
<path id="Vector_23" d="M9.36932 7.59008C9.39032 7.59308 9.34232 7.48508 9.34232 7.48508C9.39632 7.53908 9.59432 7.55408 9.59432 7.55408C9.47432 7.50008 9.35432 7.10108 9.36932 6.78008C9.38132 6.46208 9.32432 6.33608 9.27932 6.28808C9.21932 6.22808 9.02432 6.17408 8.89832 6.16808C8.82332 6.16508 8.83832 6.22208 8.83832 6.22208C8.70332 6.18908 8.56832 6.17408 8.50832 6.21608C8.45432 6.25208 8.44232 6.44108 8.48432 6.40808C8.58332 6.32708 8.67032 6.40208 8.73032 6.48908C8.78432 6.56408 8.78132 6.78008 8.70332 7.03508C8.63425 7.22785 8.5328 7.40743 8.40332 7.56608C8.52332 7.56608 8.69132 7.46108 8.69132 7.46108L8.65232 7.62608C8.77832 7.56608 8.87732 7.47308 8.87732 7.47308L8.99732 7.59908C9.03632 7.54508 9.11732 7.47308 9.11732 7.47308C9.11732 7.47308 9.21632 7.57808 9.36932 7.59308V7.59008Z" fill="white" stroke="#C09300" stroke-width="1.024"/>
<path id="Vector_24" d="M8.88341 6.8275C8.88341 6.8275 8.81741 7.3195 8.69141 7.4575M8.99141 6.8125C8.99141 6.8125 8.9614 7.3135 8.8774 7.4725M9.0844 6.8335C9.0844 6.8335 9.0844 7.3795 9.1144 7.4725M9.2044 6.8605C9.2044 6.8605 9.2284 7.3195 9.3424 7.4845" stroke="#C09300" stroke-width="1.10933"/>
<path id="Vector_25" d="M8.76037 6.58892C8.75769 6.55413 8.74745 6.52035 8.73037 6.48992C8.67037 6.39992 8.58337 6.32792 8.48438 6.40892C8.48438 6.40892 8.51738 6.30392 8.59237 6.30092C8.64637 6.29792 8.77537 6.34292 8.88937 6.53492C8.88937 6.53492 8.80537 6.51692 8.78437 6.53492C8.74837 6.56492 8.76337 6.58892 8.76337 6.58892H8.76037Z" fill="#C09300" stroke="#C09300" stroke-width="0.255999"/>
<path id="Vector_26" d="M8.47266 6.27908C8.48166 6.24908 8.49366 6.22508 8.51166 6.21608C8.57166 6.17408 8.70366 6.18608 8.83866 6.22208C8.83866 6.22208 8.82666 6.16508 8.89865 6.16808C9.02465 6.17408 9.21665 6.22808 9.27665 6.28808C9.29587 6.30918 9.31111 6.33357 9.32165 6.36008C9.29165 6.31808 9.20765 6.32108 9.18665 6.32408C9.15665 6.32708 9.13565 6.32408 9.09365 6.33608C9.07265 6.34208 9.04265 6.34808 9.02465 6.36008C9.01265 6.37208 9.00065 6.40808 8.98265 6.40808C8.95265 6.40808 8.95265 6.40208 8.94365 6.39308C8.93465 6.37808 8.92866 6.36008 8.91666 6.36308C8.88666 6.36608 8.83266 6.34208 8.76666 6.28808C8.69766 6.23408 8.67066 6.22208 8.58666 6.22808C8.49666 6.23408 8.47266 6.28508 8.47266 6.28508V6.27908Z" fill="#C09300" stroke="#C09300" stroke-width="0.255999"/>
<path id="Vector_27" d="M8.96471 6.35716C8.98459 6.35716 9.00071 6.34104 9.00071 6.32116C9.00071 6.30127 8.98459 6.28516 8.96471 6.28516C8.94483 6.28516 8.92871 6.30127 8.92871 6.32116C8.92871 6.34104 8.94483 6.35716 8.96471 6.35716Z" fill="white"/>
</g>
</g>
</g>
<defs>
<clipPath id="clip0_186_7581">
<rect width="18" height="18" fill="white"/>
</clipPath>
</defs>
</svg>
