<svg width="18" height="18" viewBox="0 0 18 18" fill="none" xmlns="http://www.w3.org/2000/svg">
<g id="eh" clip-path="url(#clip0_186_7622)">
<path id="Vector" d="M0 0H18V9H0V0Z" fill="#000001"/>
<path id="Vector_2" d="M0 9H18V18H0V9Z" fill="#007A3D"/>
<path id="Vector_3" d="M0 5.24805H18V12.7469H0V5.24805Z" fill="white"/>
<path id="Vector_4" d="M0 0L9 9L0 18V0Z" fill="#C4111B"/>
<g id="Group">
<path id="Vector_5" d="M13.7112 11.4614C15.071 11.4614 16.1733 10.359 16.1733 8.99925C16.1733 7.63945 15.071 6.53711 13.7112 6.53711C12.3514 6.53711 11.249 7.63945 11.249 8.99925C11.249 10.359 12.3514 11.4614 13.7112 11.4614Z" fill="#C4111B"/>
<path id="Vector_6" d="M14.634 11.4614C15.9938 11.4614 17.0962 10.359 17.0962 8.99925C17.0962 7.63945 15.9938 6.53711 14.634 6.53711C13.2742 6.53711 12.1719 7.63945 12.1719 8.99925C12.1719 10.359 13.2742 11.4614 14.634 11.4614Z" fill="white"/>
<path id="Vector_7" d="M13.0515 10.4876L14.0969 9.73783L15.1423 10.5021L14.753 9.26919L15.7984 8.51217L14.5078 8.50496L14.1113 7.2793L13.7039 8.50135L12.417 8.49775L13.4516 9.26198L13.0515 10.4876Z" fill="#C4111B"/>
</g>
</g>
<defs>
<clipPath id="clip0_186_7622">
<rect width="18" height="18" fill="white"/>
</clipPath>
</defs>
</svg>
