<svg width="18" height="18" viewBox="0 0 18 18" fill="none" xmlns="http://www.w3.org/2000/svg">
<g id="er" clip-path="url(#clip0_186_7631)">
<g id="Clip path group">
<mask id="mask0_186_7631" style="mask-type:luminance" maskUnits="userSpaceOnUse" x="0" y="0" width="18" height="18">
<g id="er-a">
<path id="Vector" d="M0 0H18V18H0V0Z" fill="white"/>
</g>
</mask>
<g mask="url(#mask0_186_7631)">
<g id="Group">
<path id="Vector_2" fill-rule="evenodd" clip-rule="evenodd" d="M-1.6875 0H19.1074V18H-1.6875V0Z" fill="#BE0027"/>
<path id="Vector_3" fill-rule="evenodd" clip-rule="evenodd" d="M-1.6875 18L19.1074 17.9895V9L-1.6875 18Z" fill="#B4D7F4"/>
<path id="Vector_4" fill-rule="evenodd" clip-rule="evenodd" d="M-1.6875 0L19.1074 0.0105469V9L-1.6875 0Z" fill="#239E46"/>
<path id="Vector_5" fill-rule="evenodd" clip-rule="evenodd" d="M5.23105 12.3547C4.9252 12.4391 4.74941 12.6781 4.75293 12.9031L6.25762 12.8961C6.27168 12.6535 6.0748 12.432 5.77246 12.3441C7.24902 12.316 8.52871 11.7605 8.76074 11.409C8.53223 11.307 8.26504 11.4688 8.0752 11.4301C8.5252 11.2227 9.8752 10.3473 9.65723 9.41211C9.47947 9.8568 9.16087 10.231 8.7502 10.4773C9.25293 9.71094 9.94551 8.91289 9.34785 8.29766C9.37598 8.65625 9.11582 9.05 9.00332 9.07813C9.29512 8.26953 9.57637 7.25 8.94004 6.58203C9.02441 6.82461 8.99277 7.50664 8.87676 7.53828C8.8416 6.98633 8.74668 5.82969 8.1666 5.84727C8.35293 6.00898 8.43027 6.45898 8.4373 6.90898C8.30371 6.59961 8.15605 6.36758 7.83262 6.13555C7.54626 5.63969 7.13858 5.22475 6.64785 4.92969C6.65656 5.13689 6.7159 5.33881 6.82071 5.51777C6.92551 5.69673 7.07257 5.84728 7.24902 5.95625C6.98535 5.93867 6.72168 5.43945 6.44043 5.42539C6.21543 5.41484 6.03965 5.6293 5.67051 5.50625C5.7127 5.62578 5.88145 5.68203 5.9166 5.76992C5.84277 5.82266 5.65293 5.76289 5.49824 5.68203C5.7127 5.97031 6.04316 6.13906 6.32441 6.08281C6.6584 6.01953 7.01699 6.05469 7.35801 6.24805C7.14518 6.29263 6.92607 6.29858 6.71113 6.26562C6.91152 6.46602 7.0416 6.59961 7.38613 6.59609C7.69551 6.59609 7.85723 6.43438 7.93457 6.53281C8.12793 6.76133 8.25801 6.98984 8.41973 7.25703C8.06113 7.29922 8.17012 6.85625 7.77285 6.62773C7.55137 7.0918 8.02949 7.63672 8.35645 7.86523C8.35645 8.21328 8.40918 8.49805 8.55684 8.76523C8.65527 8.95156 8.78535 9.14141 8.73613 9.56328C8.54277 9.42266 8.34941 8.94102 8.41973 8.56133C8.17363 8.62813 8.08223 9.05352 8.19473 9.27148C8.28262 9.43672 8.33887 9.75312 8.24043 9.89375C8.14199 10.0238 8.13496 10.0098 8.13496 10.291C8.13496 10.4598 8.04355 10.6602 7.88887 10.7973C7.92402 10.6813 7.95918 10.4738 7.92402 10.3473C7.80098 10.5547 7.49863 10.7656 7.40371 10.9871C7.30879 11.2086 7.28418 11.5918 6.83066 11.6797C6.24355 11.7957 6.03965 11.8977 5.66348 12.0523C5.62129 11.7676 5.74785 11.1699 5.98691 11.2051C6.22246 11.2473 6.9291 10.959 6.67598 10.3613C6.62676 10.5512 6.45801 10.734 6.27871 10.7445C6.47207 10.4914 6.82012 10.2277 6.65137 9.80586C6.54942 10.0202 6.38685 10.1998 6.18379 10.3227C6.42637 9.86211 6.21191 9.725 5.92715 10.1012C5.82168 10.2488 5.75137 10.5441 5.68457 10.9168C5.57207 10.6145 5.5791 10.2137 5.44551 9.89023C5.30488 9.53867 5.63184 9.44375 5.78301 9.47187C6.15566 9.57383 6.78145 9.57383 6.73223 8.95508C6.57402 9.16602 6.28926 9.2293 5.9834 9.15547C6.32793 8.90234 6.59863 8.43477 6.21543 8.18867C6.19794 8.33381 6.14481 8.47236 6.06077 8.59198C5.97673 8.71159 5.8644 8.80856 5.73379 8.87422C5.67169 8.6432 5.66806 8.40035 5.72324 8.16758C5.57207 8.32578 5.46309 8.65273 5.3752 9.02891C5.37247 8.74581 5.41156 8.46386 5.49121 8.19219C5.56855 7.90039 5.76543 8.09023 6.06426 8.11133C6.35254 8.12891 6.7498 7.9707 6.67598 7.57695C6.57754 7.73164 6.37363 7.79141 6.16621 7.77734C6.41582 7.62617 6.84824 7.35547 6.6127 6.94766C6.51074 7.10234 6.4791 7.23594 6.19082 7.28516C6.26465 7.10938 6.27871 6.86328 6.50371 6.76836C6.10293 6.6875 5.87441 6.95117 5.7584 7.35898C5.70918 7.07773 5.65293 6.97227 5.64238 6.76133C5.86035 6.52227 5.88145 6.05117 5.41387 5.94922C5.38574 6.18828 5.39629 6.24805 5.44902 6.44141C5.22754 6.31484 4.92168 6.24102 4.71074 6.42734C4.85137 6.57852 5.06934 6.70859 5.40332 6.54688C5.32246 6.80352 5.11856 6.75781 4.83731 6.65937C5.00957 6.98281 5.22402 7.04258 5.4666 7.00391C5.58965 7.33437 5.59668 7.58398 5.23105 8.06562C5.24512 7.7668 5.22402 7.54531 4.98496 7.30273C4.78457 7.10234 4.61934 7.31328 4.93574 7.75625C4.7042 7.57244 4.53883 7.31821 4.46465 7.03203C4.40137 7.38711 4.45762 7.80547 4.65449 8.04453C4.55957 8.14297 4.4541 8.03398 4.29941 7.79141C4.35566 8.57188 4.68965 8.71953 5.13965 8.54727C5.1502 8.97617 5.1502 9.37344 5.1748 9.89023C4.98128 9.58822 4.71543 9.33929 4.40137 9.16602C4.3416 9.37695 4.55957 9.64766 4.68262 9.79883C4.49629 9.76367 4.09551 9.45781 4.09551 9.45781C4.05332 9.80586 4.50332 10.1258 4.79512 10.2699C4.4541 10.2559 4.30293 10.1293 4.08145 9.91836C4.08496 10.8816 5.12559 10.7129 5.32246 10.5652L5.41035 12.0629C5.11504 12.0137 5.13965 11.9223 4.88652 11.9012C4.18691 11.873 3.63145 11.0609 3.44863 10.4633C3.3959 10.5617 3.43809 10.6637 3.38887 10.7867C3.27637 10.4914 3.13223 10.1152 2.93535 9.93945C2.98457 10.1082 2.9916 10.284 2.97402 10.6004C2.90723 10.393 2.84395 10.3297 2.84043 10.0871C2.84395 9.90078 3.01973 9.76367 3.0127 9.5C3.00566 9.31016 2.82988 8.89531 2.80176 8.57188C2.71738 8.90586 2.66465 9.25391 2.53457 9.45781C2.60137 9.10625 2.58027 8.86016 2.68926 8.62461C2.81582 8.37148 2.92129 8.15 2.83691 7.89688C2.75605 7.99531 2.78418 8.0832 2.58379 8.31875C2.53809 8.06211 2.84395 7.65078 3.13926 7.48203C3.3502 7.37656 3.61035 6.9793 3.4416 6.70859C3.24473 6.84922 3.15684 7.04258 2.8791 7.36602C3.07598 6.59258 3.58926 6.39219 4.20449 6.38867C4.34512 6.38867 4.61582 6.33945 4.69668 6.16016C4.5209 6.22695 4.31348 6.23398 4.13418 6.19531C4.26426 6.00547 4.54551 6.03008 4.80566 6.02656C5.00957 6.02656 5.32949 5.99844 5.45957 5.71016C5.17665 5.81817 4.86737 5.83658 4.57363 5.76289C4.96387 5.55898 5.57559 5.53789 5.88848 5.2707C5.52988 5.00703 4.63691 5.3375 4.07441 5.72422C4.23262 5.58008 4.48223 5.32344 4.61934 5.11602C4.30996 4.96836 3.52949 5.8332 3.2623 6.34648C3.00918 6.48711 2.90723 6.71563 2.80527 6.87383C2.9459 6.41328 2.95645 6.0793 3.06895 5.70312C2.19707 6.00195 2.55918 7.61914 2.36934 8.00586C2.39043 7.57695 2.37285 7.02852 2.19707 6.74727C1.92988 6.95117 1.90527 8.16055 2.16191 9.16953C2.06699 8.89883 1.89473 8.6457 1.84199 8.31875C1.44121 9.04648 2.07402 9.90078 2.60137 10.5793C2.1809 10.3183 1.82318 9.96781 1.55371 9.55273C1.62402 10.8535 2.98457 11.1242 3.19551 11.4441C2.90723 11.3105 2.3623 11.0469 2.12676 11.3246C2.45304 11.3853 2.76605 11.5031 3.05137 11.6727C3.40293 12.1121 4.0709 12.3055 5.23105 12.3547Z" fill="#F3E295"/>
</g>
</g>
</g>
</g>
<defs>
<clipPath id="clip0_186_7631">
<rect width="18" height="18" fill="white"/>
</clipPath>
</defs>
</svg>
