<svg width="18" height="18" viewBox="0 0 18 18" fill="none" xmlns="http://www.w3.org/2000/svg">
<g id="es-ga" clip-path="url(#clip0_186_6473)">
<g id="Group">
<path id="Vector" fill-rule="evenodd" clip-rule="evenodd" d="M0 -0.00390625H18V17.9961H0V-0.00390625Z" fill="white"/>
<path id="Vector_2" d="M18 15.3773L2.58047 0H0V2.56641L15.4793 18H18V15.3809" fill="#0099CC"/>
</g>
<g id="Group_2">
<path id="Vector_3" d="M8.85966 13.2113C6.462 13.2113 6.53935 10.9473 6.53935 10.9473V7.4668H11.1905V10.9473C11.1905 10.9473 11.2714 13.2113 8.86317 13.2113" fill="#005BBF"/>
<path id="Vector_4" d="M8.86236 13.2097C6.46236 13.2097 6.53836 10.9477 6.53836 10.9477V7.46875H11.1904V10.9477C11.1904 10.9477 11.2704 13.2097 8.86236 13.2097Z" stroke="black" stroke-width="1.13826"/>
<path id="Vector_5" d="M8.84201 5.28447C8.84201 5.28447 8.34631 5.04541 7.87873 5.39697C7.87873 5.39697 7.03498 5.27744 6.96819 6.08603C6.96819 6.11767 6.96115 6.17744 6.97873 6.19853C6.9928 6.21259 7.01037 6.24423 7.01037 6.26884C7.01037 6.29345 7.02092 6.304 7.03147 6.31455C7.03147 6.32509 7.04553 6.34267 7.04905 6.38134C7.04905 6.42353 7.04201 6.44462 7.0842 6.48681C7.12639 6.529 7.12639 6.65205 7.12639 6.69072C7.12639 6.72587 7.151 6.8208 7.16506 6.84189C7.18615 6.86298 7.2178 6.9122 7.2178 6.95791C7.2178 6.99658 7.23537 7.11611 7.22483 7.14423C7.2178 7.17939 7.27405 7.21455 7.32326 7.22861C7.36897 7.24619 7.96311 7.43955 8.82444 7.42197C9.68928 7.41142 10.0022 7.3622 10.3608 7.23564C10.3802 7.22926 10.3968 7.21628 10.4078 7.19895C10.4187 7.18162 10.4232 7.16103 10.4205 7.14072C10.4135 7.11611 10.4205 7.03525 10.4346 7.01767C10.4487 6.99658 10.5541 6.83486 10.5295 6.80673C10.5084 6.77158 10.5084 6.7083 10.5295 6.6872C10.5506 6.65908 10.6139 6.53603 10.6244 6.48681C10.6385 6.43759 10.642 6.37783 10.6666 6.36025C10.6842 6.34619 10.6947 6.28642 10.6983 6.27236C10.7091 6.24747 10.726 6.22571 10.7475 6.20908C10.7475 6.20908 10.7826 6.00517 10.7615 5.90322C10.7334 5.80478 10.5822 5.37236 9.97053 5.46376C9.97053 5.46376 9.5135 5.11572 8.84201 5.28447Z" fill="#D81126"/>
<path id="Vector_6" d="M8.84178 5.28307C8.84178 5.28307 8.34578 5.04287 7.87778 5.39517C7.87778 5.39517 7.03377 5.27507 6.96977 6.08376C6.96977 6.11579 6.96177 6.17584 6.97777 6.19585C6.99377 6.21187 7.00977 6.2439 7.00977 6.26792C7.00977 6.29194 7.02177 6.30395 7.02977 6.31195C7.02977 6.32396 7.04577 6.33998 7.04977 6.38001C7.04977 6.42405 7.04177 6.44407 7.08577 6.4881C7.12577 6.52814 7.12577 6.65224 7.12577 6.68827C7.12577 6.72431 7.14977 6.82039 7.16577 6.8404C7.18577 6.86042 7.21777 6.91247 7.21777 6.9565C7.21777 6.99654 7.23377 7.11664 7.22577 7.14466C7.21777 7.17669 7.27377 7.21272 7.32177 7.22874C7.36977 7.24475 7.96178 7.43691 8.82578 7.4209C9.68978 7.40889 10.0018 7.36085 10.3618 7.23274C10.3807 7.22648 10.397 7.21395 10.4079 7.19722C10.4188 7.18049 10.4237 7.16054 10.4218 7.14066C10.4138 7.11664 10.4218 7.03657 10.4338 7.01655C10.4498 6.99654 10.5538 6.8324 10.5298 6.80437C10.5098 6.77235 10.5098 6.70829 10.5298 6.68427C10.5498 6.65625 10.6138 6.53614 10.6258 6.4841C10.6378 6.43606 10.6418 6.37601 10.6658 6.35999C10.6858 6.34398 10.6938 6.28393 10.6978 6.27192C10.7081 6.24684 10.7246 6.2248 10.7458 6.20786C10.7458 6.20786 10.7858 6.00369 10.7618 5.9036C10.7338 5.80352 10.5818 5.37115 9.96978 5.46323C9.96978 5.46323 9.51378 5.11493 8.84178 5.28307Z" stroke="black" stroke-width="1.7074"/>
<path id="Vector_7" d="M10.5014 6.78874C8.62051 6.19109 7.16504 6.76062 7.16504 6.76062C7.16504 6.76062 7.18262 6.8239 7.2002 6.84499C7.21777 6.86609 7.23535 6.91531 7.23535 6.95046V7.06296C7.23535 7.09109 7.22129 7.21062 7.32676 7.20359C7.32676 7.20359 8.63809 6.69382 10.3432 7.23523C10.3432 7.23523 10.3889 7.19304 10.3889 7.13327C10.3884 7.07658 10.4029 7.02077 10.4311 6.97156C10.4486 6.93991 10.5014 6.83796 10.5014 6.78874Z" fill="#BCAC0B"/>
<path id="Vector_8" d="M8.75804 9.93164H7.9389C7.9389 9.93164 7.85804 10.6629 8.49085 10.8879V10.9512H8.62093V11.0391C8.62093 11.0391 8.3889 11.25 8.5928 11.4891V11.5594H8.62796V11.6824H8.66312V11.8688C8.66312 11.8688 8.63499 12.5508 7.95999 12.8777V12.9199H9.75296V12.8777C9.55965 12.7832 9.39364 12.6409 9.27061 12.4644C9.14758 12.2878 9.07159 12.0828 9.04983 11.8688V11.6824H9.09202V11.5629H9.12366V11.4891C9.32405 11.25 9.08851 11.0391 9.08851 11.0391V10.9512H9.22913V10.8879C9.85491 10.6629 9.77405 9.93164 9.77405 9.93164H8.75804Z" fill="#C8B100" fill-opacity="0.9"/>
<path id="Vector_9" d="M8.75784 9.93164H7.93784C7.93784 9.93164 7.85783 10.6643 8.48984 10.8885V10.9525H8.62184V11.0406C8.62184 11.0406 8.38984 11.2488 8.59384 11.489V11.561H8.62584V11.6811H8.66584V11.8693C8.66584 11.8693 8.63384 12.5499 7.96184 12.8782V12.9182H9.74984V12.8782C9.08184 12.5539 9.04984 11.8693 9.04984 11.8693V11.6811H9.08984V11.561H9.12184V11.489C9.32184 11.2488 9.08984 11.0406 9.08984 11.0406V10.9525H9.22584V10.8885C9.85384 10.6643 9.77384 9.93164 9.77384 9.93164H8.75784Z" stroke="black" stroke-width="1.13826"/>
<path id="Vector_10" d="M8.46214 10.877H9.25014M8.49014 10.937H9.22614M8.62614 11.0371H9.08614M8.59414 11.4975H9.11814M8.62214 11.5535H9.08614M8.62214 11.6656H9.08214M8.34214 12.5944H9.36214M8.05414 12.8306H9.65414M7.99414 12.8667H9.71414" stroke="black" stroke-width="0.341479"/>
<path id="Vector_11" d="M8.85996 9.89336C8.99796 9.89336 9.1303 9.83817 9.22788 9.73993C9.32546 9.6417 9.38027 9.50846 9.38027 9.36953C9.38027 9.2306 9.32546 9.09737 9.22788 8.99913C9.1303 8.90089 8.99796 8.8457 8.85996 8.8457C8.7215 8.8457 8.58871 8.90071 8.4908 8.99861C8.39289 9.09652 8.33789 9.22931 8.33789 9.36777C8.33789 9.50624 8.39289 9.63903 8.4908 9.73693C8.58871 9.83484 8.7215 9.88984 8.85996 9.88984" fill="#CCCCCC"/>
<path id="Vector_12" d="M8.8618 9.89255C9.00024 9.89255 9.13301 9.8375 9.23091 9.73953C9.3288 9.64155 9.3838 9.50866 9.3838 9.3701C9.3838 9.23154 9.3288 9.09865 9.23091 9.00068C9.13301 8.9027 9.00024 8.84766 8.8618 8.84766C8.72389 8.84766 8.59162 8.90249 8.4941 9.00009C8.39658 9.09769 8.3418 9.23007 8.3418 9.3681C8.3418 9.50613 8.39658 9.63851 8.4941 9.73611C8.59162 9.83371 8.72389 9.88854 8.8618 9.88854V9.89255Z" stroke="black" stroke-width="1.13826"/>
<path id="Vector_13" d="M7.65059 8.35625H7.32715V8.0293H7.03887V8.35625H6.71191V8.64453H7.03887V8.96797H7.32715V8.64453H7.64355V8.35625" fill="#CCCCCC"/>
<path id="Vector_14" d="M7.64996 8.35758H7.32596V8.0293H7.03796V8.35758H6.70996V8.64582H7.03796V8.9661H7.32596V8.64582H7.64596V8.35758" stroke="black" stroke-width="1.13826"/>
<path id="Vector_15" d="M11.0285 8.35625H10.7051V8.0293H10.4168V8.35625H10.0898V8.64453H10.4168V8.96797H10.7051V8.64453H11.0285V8.35625Z" fill="#CCCCCC"/>
<path id="Vector_16" d="M11.0298 8.35758H10.7058V8.0293H10.4178V8.35758H10.0898V8.64582H10.4178V8.9661H10.7058V8.64582H11.0298V8.35758Z" stroke="black" stroke-width="1.13826"/>
<path id="Vector_17" d="M9.31641 7.94531H8.98945V7.62891H8.70117V7.94531H8.38477V8.23359H8.70117V8.56406H8.98945V8.23359H9.31641V7.94531Z" fill="#CCCCCC"/>
<path id="Vector_18" d="M9.31784 7.94527H8.98984V7.625H8.70184V7.94527H8.38184V8.23352H8.70184V8.5618H8.98984V8.23352H9.31784V7.94527Z" stroke="black" stroke-width="1.13826"/>
<path id="Vector_19" d="M7.65059 9.76641H7.32715V9.43945H7.03887V9.76641H6.71191V10.0547H7.03887V10.3746H7.32715V10.0582H7.64355V9.76641" fill="#CCCCCC"/>
<path id="Vector_20" d="M7.64996 9.76773H7.32596V9.43945H7.03796V9.76773H6.70996V10.056H7.03796V10.3763H7.32596V10.056H7.64596V9.76773" stroke="black" stroke-width="1.13826"/>
<path id="Vector_21" d="M11.0285 9.76641H10.7051V9.43945H10.4168V9.76641H10.0898V10.0547H10.4168V10.3746H10.7051V10.0582H11.0285V9.76641Z" fill="#CCCCCC"/>
<path id="Vector_22" d="M11.0298 9.76773H10.7058V9.43945H10.4178V9.76773H10.0898V10.056H10.4178V10.3763H10.7058V10.056H11.0298V9.76773Z" stroke="black" stroke-width="1.13826"/>
<path id="Vector_23" d="M7.65059 11.1902H7.32715V10.8633H7.03887V11.1902H6.71191V11.4785H7.03887V11.802H7.32715V11.482H7.64355V11.1902" fill="#CCCCCC"/>
<path id="Vector_24" d="M7.64996 11.1895H7.32596V10.8652H7.03796V11.1895H6.70996V11.4778H7.03796V11.802H7.32596V11.4818H7.64596V11.1895" stroke="black" stroke-width="1.13826"/>
<path id="Vector_25" d="M11.0285 11.1902H10.7051V10.8633H10.4168V11.1902H10.0898V11.4785H10.4168V11.802H10.7051V11.482H11.0285V11.1902Z" fill="#CCCCCC"/>
<path id="Vector_26" d="M11.0298 11.1895H10.7058V10.8652H10.4178V11.1895H10.0898V11.4778H10.4178V11.802H10.7058V11.4818H11.0298V11.1895Z" stroke="black" stroke-width="1.13826"/>
<path id="Vector_27" d="M8.85927 4.58809C8.90339 4.59276 8.94799 4.5881 8.99019 4.57441C9.03238 4.56073 9.07123 4.53832 9.10421 4.50865C9.13719 4.47898 9.16356 4.44271 9.18161 4.40219C9.19966 4.36166 9.20898 4.3178 9.20898 4.27344C9.20898 4.22908 9.19966 4.18521 9.18161 4.14469C9.16356 4.10417 9.13719 4.06789 9.10421 4.03822C9.07123 4.00855 9.03238 3.98615 8.99019 3.97246C8.94799 3.95878 8.90339 3.95412 8.85927 3.95879C8.78156 3.96702 8.70964 4.00371 8.65736 4.06181C8.60509 4.1199 8.57617 4.19529 8.57617 4.27344C8.57617 4.35159 8.60509 4.42697 8.65736 4.48507C8.70964 4.54316 8.78156 4.57986 8.85927 4.58809Z" fill="#005BBF"/>
<path id="Vector_28" d="M8.85795 4.58752C8.94122 4.58752 9.02109 4.55441 9.07998 4.49547C9.13886 4.43654 9.17195 4.3566 9.17195 4.27325C9.17195 4.1899 9.13886 4.10997 9.07998 4.05103C9.02109 3.99209 8.94122 3.95898 8.85795 3.95898C8.77467 3.95898 8.6948 3.99209 8.63591 4.05103C8.57703 4.10997 8.54395 4.1899 8.54395 4.27325C8.54395 4.3566 8.57703 4.43654 8.63591 4.49547C8.6948 4.55441 8.77467 4.58752 8.85795 4.58752Z" stroke="black" stroke-width="1.13826"/>
<path id="Vector_29" d="M9.15137 4.21875H8.89473V3.80391H8.99316V3.72305H8.89473V3.62109H8.81387V3.71953H8.71543V3.80391H8.81035V4.21875H8.57129V4.275H9.15137V4.21875Z" fill="#FFCC00"/>
<path id="Vector_30" d="M9.15031 4.21956H8.89431V3.8032H8.99431V3.72313H8.89431V3.62305H8.81431V3.71913H8.71431V3.8032H8.81031V4.21956H8.57031V4.2756H9.15031V4.21956Z" fill="#BCAC0B" stroke="black" stroke-width="0.569132"/>
<path id="Vector_31" d="M7.60477 4.95645C7.60477 4.95645 7.8368 4.93536 7.97039 4.98809C7.97039 4.98809 7.81922 5.16388 7.85086 5.39239C7.85721 5.47661 7.88244 5.55832 7.92469 5.63145C7.95985 5.68419 7.995 5.80372 7.97391 5.89513H8.01961C8.01961 5.89513 8.0618 5.70528 7.99149 5.59981C7.94773 5.54156 7.92068 5.47248 7.91325 5.40001C7.90582 5.32754 7.91828 5.25441 7.9493 5.18849C8.02664 5.0338 8.13563 4.97755 8.13563 4.97755C8.25516 5.02325 8.51883 4.97755 8.59266 4.9213C8.66297 4.87208 8.70164 4.79474 8.56453 4.79122C8.42391 4.78419 8.19539 4.7877 8.03719 4.90724C8.03719 4.90724 7.9493 4.81231 7.53094 4.8545C7.10906 4.90372 6.81024 5.08302 6.71531 5.45919C6.6661 5.65255 6.84539 6.05684 7.01063 6.15177C7.01063 6.15177 7.00711 6.08849 7.02117 6.03927C7.02117 6.03927 6.73992 5.72286 6.82078 5.43106C6.90867 5.14278 7.24617 4.94942 7.60477 4.95997" fill="#FFCC00"/>
<path id="Vector_32" d="M7.60595 4.95976C7.60595 4.95976 7.83795 4.93574 7.96995 4.98778C7.96995 4.98778 7.81795 5.16393 7.84995 5.39213C7.86595 5.51223 7.88995 5.57228 7.92595 5.63233C7.95795 5.68438 7.99395 5.80448 7.97395 5.89656H8.01795C8.01795 5.89656 8.06195 5.70439 7.98995 5.6003C7.94634 5.54176 7.91956 5.47239 7.91251 5.39971C7.90546 5.32703 7.91841 5.2538 7.94995 5.18795C8.02595 5.03582 8.13395 4.97577 8.13395 4.97577C8.25395 5.02381 8.51795 4.97577 8.58995 4.92373C8.66595 4.87168 8.70195 4.79562 8.56595 4.79161C8.42595 4.78361 8.19395 4.78761 8.03395 4.90771C8.03395 4.90771 7.94995 4.81163 7.52995 4.85567C7.10995 4.90371 6.80995 5.08386 6.71395 5.46019C6.66595 5.65235 6.84595 6.05669 7.00995 6.15278C7.00995 6.15278 7.00595 6.08872 7.02195 6.04068C7.02195 6.04068 6.74195 5.72441 6.82195 5.43216C6.90995 5.14391 7.24595 4.95175 7.60595 4.95976Z" fill="#BCAC0B" stroke="black" stroke-width="0.796785"/>
<path id="Vector_33" d="M8.39531 4.90501C8.46563 4.89446 8.52539 4.88392 8.52187 4.87688C8.52187 4.86282 8.46211 4.86282 8.38828 4.86985C8.31797 4.86985 8.26172 4.88743 8.26172 4.89446C8.26172 4.90852 8.32148 4.90852 8.39531 4.90501Z" fill="white"/>
<path id="Vector_34" d="M8.13028 4.972C8.21028 4.89194 8.38628 4.8439 8.48628 4.86391C8.58228 4.88793 8.46628 4.89994 8.43428 4.90395C8.40228 4.90395 8.33828 4.91596 8.24228 4.90395" stroke="black" stroke-width="0.796785"/>
<path id="Vector_35" d="M10.1081 4.9882C10.1081 4.9882 9.87958 4.96008 9.74247 5.01281C9.8123 5.10299 9.85417 5.21164 9.86292 5.32536C9.87167 5.43907 9.8469 5.55286 9.79169 5.65265C9.75653 5.71242 9.72138 5.82843 9.73895 5.91984H9.69677C9.69677 5.91984 9.65106 5.73 9.72489 5.62453C9.76686 5.56599 9.79227 5.49721 9.79846 5.42545C9.80465 5.35368 9.79138 5.28158 9.76005 5.21672C9.72328 5.12888 9.66232 5.05329 9.58427 4.99875C9.4577 5.05148 9.19755 4.99875 9.12372 4.94601C9.05341 4.89328 9.01122 4.82297 9.15184 4.81593C9.28544 4.80539 9.52099 4.81242 9.67919 4.93547C9.67919 4.93547 9.76356 4.83351 10.1854 4.88273C10.6038 4.92843 10.9061 5.10773 10.9975 5.48039C11.0468 5.67726 10.871 6.07804 10.7058 6.17648C10.7058 6.17648 10.7058 6.1132 10.6952 6.06398C10.6952 6.06398 10.9765 5.75109 10.8921 5.45929C10.8077 5.1675 10.4702 4.97765 10.1081 4.9882Z" fill="#FFCC00"/>
<path id="Vector_36" d="M10.1062 4.98717C10.1062 4.98717 9.87821 4.95915 9.74221 5.01119C9.81183 5.10161 9.85347 5.21045 9.862 5.32428C9.87053 5.43811 9.84557 5.55194 9.7902 5.65174C9.7542 5.71179 9.71821 5.82789 9.73821 5.91997H9.69821C9.69821 5.91997 9.65021 5.73181 9.72621 5.62372C9.76842 5.56522 9.79405 5.49639 9.80039 5.4245C9.80673 5.35262 9.79353 5.28036 9.76221 5.21537C9.72391 5.12768 9.66148 5.0527 9.58221 4.99918C9.45821 5.05123 9.1942 4.99918 9.1222 4.94714C9.0502 4.8951 9.0102 4.82303 9.1502 4.81503C9.2862 4.80702 9.52221 4.81102 9.68221 4.93513C9.68221 4.93513 9.76221 4.83504 10.1862 4.88308C10.6022 4.92712 10.9062 5.10728 10.9982 5.4836C11.0462 5.67576 10.8702 6.08011 10.7062 6.17619C10.7062 6.17619 10.7062 6.11213 10.6942 6.06409C10.6942 6.06409 10.9742 5.75183 10.8902 5.45958C10.8062 5.16733 10.4702 4.97917 10.1062 4.98717Z" fill="#BCAC0B" stroke="black" stroke-width="0.796785"/>
<path id="Vector_37" d="M9.31699 4.92866C9.24668 4.92163 9.19043 4.91108 9.19043 4.90054C9.19043 4.88999 9.2502 4.88647 9.32402 4.88999C9.39434 4.90054 9.4541 4.91108 9.4541 4.91811C9.4541 4.93218 9.39434 4.93569 9.31699 4.92866Z" fill="white"/>
<path id="Vector_38" d="M9.58225 4.99477C9.50225 4.9187 9.32625 4.86666 9.23025 4.89068C9.13025 4.9107 9.24625 4.92271 9.27825 4.92671C9.31425 4.92671 9.37825 4.94272 9.47425 4.92671" stroke="black" stroke-width="0.796785"/>
<path id="Vector_39" d="M8.64192 4.72852V5.62148C8.63488 5.70937 8.74738 5.83242 8.83527 5.86758C8.83527 5.86758 9.03567 5.8043 9.04621 5.62148V4.67578H8.9759V5.49141C8.9759 5.57227 8.92317 5.72344 8.84582 5.74805C8.84582 5.74805 8.7052 5.72344 8.69465 5.49141V4.70039L8.64192 4.725" fill="#FFCC00"/>
<path id="Vector_40" d="M8.64199 4.72773V5.62049C8.63399 5.70857 8.74999 5.83267 8.83399 5.8687C8.83399 5.8687 9.034 5.80465 9.046 5.62049V4.67969H8.97799V5.49638C8.97799 5.57645 8.92199 5.72858 8.84599 5.7526C8.84599 5.7526 8.70199 5.72858 8.69399 5.49638V4.70371L8.64199 4.72773Z" fill="#BCAC0B" stroke="black" stroke-width="0.796785"/>
<path id="Vector_41" d="M6.66895 5.94922C6.69692 5.94922 6.72374 5.93811 6.74352 5.91833C6.7633 5.89855 6.77441 5.87172 6.77441 5.84375C6.77441 5.81578 6.7633 5.78895 6.74352 5.76917C6.72374 5.74939 6.69692 5.73828 6.66895 5.73828C6.64097 5.73828 6.61415 5.74939 6.59437 5.76917C6.57459 5.78895 6.56348 5.81578 6.56348 5.84375C6.56348 5.87172 6.57459 5.89855 6.59437 5.91833C6.61415 5.93811 6.64097 5.94922 6.66895 5.94922Z" fill="white"/>
<path id="Vector_42" d="M6.67032 5.94856C6.68596 5.95161 6.70208 5.95117 6.71753 5.94725C6.73298 5.94333 6.74737 5.93604 6.75967 5.9259C6.77197 5.91576 6.78188 5.90302 6.78868 5.88859C6.79548 5.87417 6.79901 5.85842 6.79901 5.84247C6.79901 5.82652 6.79548 5.81076 6.78868 5.79634C6.78188 5.78192 6.77197 5.76918 6.75967 5.75903C6.74737 5.74889 6.73298 5.7416 6.71753 5.73769C6.70208 5.73377 6.68596 5.73332 6.67032 5.73638C6.64573 5.74118 6.62357 5.75439 6.60765 5.77374C6.59172 5.7931 6.58301 5.81739 6.58301 5.84247C6.58301 5.86754 6.59172 5.89184 6.60765 5.91119C6.62357 5.93055 6.64573 5.94375 6.67032 5.94856Z" stroke="black" stroke-width="1.13826"/>
<path id="Vector_43" d="M6.60254 5.70508C6.63051 5.70508 6.65734 5.69397 6.67712 5.67419C6.6969 5.65441 6.70801 5.62758 6.70801 5.59961C6.70801 5.57164 6.6969 5.54481 6.67712 5.52503C6.65734 5.50525 6.63051 5.49414 6.60254 5.49414C6.57457 5.49414 6.54774 5.50525 6.52796 5.52503C6.50818 5.54481 6.49707 5.57164 6.49707 5.59961C6.49707 5.62758 6.50818 5.65441 6.52796 5.67419C6.54774 5.69397 6.57457 5.70508 6.60254 5.70508Z" fill="white"/>
<path id="Vector_44" d="M6.60196 5.70442C6.6176 5.70747 6.63372 5.70703 6.64917 5.70311C6.66462 5.69919 6.67901 5.6919 6.69131 5.68176C6.70361 5.67162 6.71352 5.65888 6.72032 5.64445C6.72712 5.63003 6.73065 5.61428 6.73065 5.59833C6.73065 5.58238 6.72712 5.56662 6.72032 5.5522C6.71352 5.53777 6.70361 5.52503 6.69131 5.51489C6.67901 5.50475 6.66462 5.49746 6.64917 5.49355C6.63372 5.48963 6.6176 5.48918 6.60196 5.49224C6.57737 5.49704 6.55521 5.51025 6.53929 5.5296C6.52336 5.54896 6.51465 5.57325 6.51465 5.59833C6.51465 5.6234 6.52336 5.6477 6.53929 5.66705C6.55521 5.6864 6.57737 5.69961 6.60196 5.70442Z" stroke="black" stroke-width="1.13826"/>
<path id="Vector_45" d="M6.6377 5.40625C6.66567 5.40625 6.69249 5.39514 6.71227 5.37536C6.73205 5.35558 6.74316 5.32875 6.74316 5.30078C6.74316 5.27281 6.73205 5.24598 6.71227 5.2262C6.69249 5.20642 6.66567 5.19531 6.6377 5.19531C6.60972 5.19531 6.5829 5.20642 6.56312 5.2262C6.54334 5.24598 6.53223 5.27281 6.53223 5.30078C6.53223 5.32875 6.54334 5.35558 6.56312 5.37536C6.5829 5.39514 6.60972 5.40625 6.6377 5.40625Z" fill="white"/>
<path id="Vector_46" d="M6.63809 5.40754C6.65373 5.4106 6.66986 5.41015 6.68531 5.40623C6.70076 5.40232 6.71515 5.39503 6.72745 5.38488C6.73975 5.37474 6.74965 5.362 6.75645 5.34758C6.76326 5.33315 6.76678 5.3174 6.76678 5.30145C6.76678 5.2855 6.76326 5.26975 6.75645 5.25532C6.74965 5.2409 6.73975 5.22816 6.72745 5.21802C6.71515 5.20788 6.70076 5.20059 6.68531 5.19667C6.66986 5.19275 6.65373 5.19231 6.63809 5.19536C6.6135 5.20016 6.59135 5.21337 6.57542 5.23273C6.55949 5.25208 6.55078 5.27638 6.55078 5.30145C6.55078 5.32653 6.55949 5.35082 6.57542 5.37018C6.59135 5.38953 6.6135 5.40274 6.63809 5.40754Z" stroke="black" stroke-width="1.13826"/>
<path id="Vector_47" d="M6.80273 5.16016C6.83071 5.16016 6.85753 5.14904 6.87731 5.12927C6.89709 5.10949 6.9082 5.08266 6.9082 5.05469C6.9082 5.02672 6.89709 4.99989 6.87731 4.98011C6.85753 4.96033 6.83071 4.94922 6.80273 4.94922C6.77476 4.94922 6.74794 4.96033 6.72816 4.98011C6.70838 4.99989 6.69727 5.02672 6.69727 5.05469C6.69727 5.08266 6.70838 5.10949 6.72816 5.12927C6.74794 5.14904 6.77476 5.16016 6.80273 5.16016Z" fill="white"/>
<path id="Vector_48" d="M6.80216 5.1595C6.8178 5.16255 6.83392 5.1621 6.84937 5.15819C6.86482 5.15427 6.87921 5.14698 6.89151 5.13684C6.90381 5.1267 6.91372 5.11396 6.92052 5.09953C6.92732 5.08511 6.93084 5.06935 6.93084 5.0534C6.93084 5.03745 6.92732 5.0217 6.92052 5.00728C6.91372 4.99285 6.90381 4.98011 6.89151 4.96997C6.87921 4.95983 6.86482 4.95254 6.84937 4.94862C6.83392 4.94471 6.8178 4.94426 6.80216 4.94731C6.77757 4.95212 6.75541 4.96533 6.73948 4.98468C6.72355 5.00404 6.71484 5.02833 6.71484 5.0534C6.71484 5.07848 6.72355 5.10277 6.73948 5.12213C6.75541 5.14148 6.77757 5.15469 6.80216 5.1595Z" stroke="black" stroke-width="1.13826"/>
<path id="Vector_49" d="M6.99609 4.97852C7.02407 4.97852 7.05089 4.9674 7.07067 4.94762C7.09045 4.92784 7.10156 4.90102 7.10156 4.87305C7.10156 4.84507 7.09045 4.81825 7.07067 4.79847C7.05089 4.77869 7.02407 4.76758 6.99609 4.76758C6.96812 4.76758 6.9413 4.77869 6.92152 4.79847C6.90174 4.81825 6.89062 4.84507 6.89062 4.87305C6.89062 4.90102 6.90174 4.92784 6.92152 4.94762C6.9413 4.9674 6.96812 4.97852 6.99609 4.97852Z" fill="white"/>
<path id="Vector_50" d="M6.99747 4.97981C7.01311 4.98286 7.02923 4.98242 7.04468 4.9785C7.06013 4.97458 7.07452 4.96729 7.08682 4.95715C7.09912 4.94701 7.10903 4.93427 7.11583 4.91984C7.12263 4.90542 7.12616 4.88967 7.12616 4.87372C7.12616 4.85777 7.12263 4.84201 7.11583 4.82759C7.10903 4.81317 7.09912 4.80043 7.08682 4.79028C7.07452 4.78014 7.06013 4.77285 7.04468 4.76894C7.02923 4.76502 7.01311 4.76457 6.99747 4.76763C6.97288 4.77243 6.95072 4.78564 6.93479 4.80499C6.91887 4.82435 6.91016 4.84864 6.91016 4.87372C6.91016 4.89879 6.91887 4.92309 6.93479 4.94244C6.95072 4.96179 6.97288 4.975 6.99747 4.97981Z" stroke="black" stroke-width="1.13826"/>
<path id="Vector_51" d="M7.25293 4.87891C7.2809 4.87891 7.30773 4.86779 7.32751 4.84802C7.34729 4.82824 7.3584 4.80141 7.3584 4.77344C7.3584 4.74547 7.34729 4.71864 7.32751 4.69886C7.30773 4.67908 7.2809 4.66797 7.25293 4.66797C7.22496 4.66797 7.19813 4.67908 7.17835 4.69886C7.15857 4.71864 7.14746 4.74547 7.14746 4.77344C7.14746 4.80141 7.15857 4.82824 7.17835 4.84802C7.19813 4.86779 7.22496 4.87891 7.25293 4.87891Z" fill="white"/>
<path id="Vector_52" d="M7.2543 4.8802C7.26995 4.88325 7.28607 4.88281 7.30152 4.87889C7.31697 4.87497 7.33136 4.86768 7.34366 4.85754C7.35596 4.8474 7.36586 4.83466 7.37266 4.82024C7.37947 4.80581 7.38299 4.79006 7.38299 4.77411C7.38299 4.75816 7.37947 4.74241 7.37266 4.72798C7.36586 4.71356 7.35596 4.70082 7.34366 4.69068C7.33136 4.68053 7.31697 4.67324 7.30152 4.66933C7.28607 4.66541 7.26995 4.66496 7.2543 4.66802C7.22971 4.67282 7.20756 4.68603 7.19163 4.70538C7.1757 4.72474 7.16699 4.74903 7.16699 4.77411C7.16699 4.79918 7.1757 4.82348 7.19163 4.84283C7.20756 4.86219 7.22971 4.8754 7.2543 4.8802Z" stroke="black" stroke-width="1.13826"/>
<path id="Vector_53" d="M7.5166 4.83359C7.54504 4.83359 7.57231 4.8223 7.59242 4.80219C7.61253 4.78208 7.62383 4.75481 7.62383 4.72637C7.62383 4.69793 7.61253 4.67066 7.59242 4.65055C7.57231 4.63044 7.54504 4.61914 7.5166 4.61914C7.48863 4.61914 7.4618 4.63025 7.44202 4.65003C7.42224 4.66981 7.41113 4.69664 7.41113 4.72461C7.41113 4.75258 7.42224 4.77941 7.44202 4.79919C7.4618 4.81897 7.48863 4.83008 7.5166 4.83008" fill="white"/>
<path id="Vector_54" d="M7.51798 4.83532C7.54662 4.83532 7.57409 4.82394 7.59434 4.80367C7.6146 4.78339 7.62598 4.7559 7.62598 4.72723C7.62598 4.69856 7.6146 4.67107 7.59434 4.6508C7.57409 4.63053 7.54662 4.61914 7.51798 4.61914C7.49339 4.62394 7.47123 4.63715 7.4553 4.65651C7.43937 4.67586 7.43066 4.70016 7.43066 4.72523C7.43066 4.75031 7.43937 4.7746 7.4553 4.79395C7.47123 4.81331 7.49339 4.82652 7.51798 4.83132V4.83532Z" stroke="black" stroke-width="1.13826"/>
<path id="Vector_55" d="M7.76953 4.81641C7.7975 4.81641 7.82433 4.80529 7.84411 4.78552C7.86389 4.76574 7.875 4.73891 7.875 4.71094C7.875 4.68297 7.86389 4.65614 7.84411 4.63636C7.82433 4.61658 7.7975 4.60547 7.76953 4.60547C7.74156 4.60547 7.71473 4.61658 7.69495 4.63636C7.67517 4.65614 7.66406 4.68297 7.66406 4.71094C7.66406 4.73891 7.67517 4.76574 7.69495 4.78552C7.71473 4.80529 7.74156 4.81641 7.76953 4.81641Z" fill="white"/>
<path id="Vector_56" d="M7.77011 4.8197C7.79875 4.8197 7.82622 4.80831 7.84648 4.78804C7.86673 4.76777 7.87811 4.74028 7.87811 4.71161C7.87811 4.68294 7.86673 4.65545 7.84648 4.63518C7.82622 4.6149 7.79875 4.60352 7.77011 4.60352C7.74147 4.60352 7.714 4.6149 7.69374 4.63518C7.67349 4.65545 7.66211 4.68294 7.66211 4.71161C7.66211 4.74028 7.67349 4.76777 7.69374 4.78804C7.714 4.80831 7.74147 4.8197 7.77011 4.8197Z" stroke="black" stroke-width="1.13826"/>
<path id="Vector_57" d="M7.99863 4.83398C8.02661 4.83398 8.05343 4.82287 8.07321 4.80309C8.09299 4.78331 8.1041 4.75649 8.1041 4.72852C8.1041 4.70054 8.09299 4.67372 8.07321 4.65394C8.05343 4.63416 8.02661 4.62305 7.99863 4.62305C7.96973 4.62305 7.94201 4.63453 7.92157 4.65497C7.90113 4.67541 7.88965 4.70313 7.88965 4.73203C7.88965 4.76094 7.90113 4.78866 7.92157 4.8091C7.94201 4.82953 7.96973 4.84102 7.99863 4.84102" fill="white"/>
<path id="Vector_58" d="M7.99765 4.83528C8.01329 4.83833 8.02941 4.83788 8.04486 4.83397C8.06031 4.83005 8.0747 4.82276 8.087 4.81262C8.0993 4.80248 8.10921 4.78974 8.11601 4.77531C8.12281 4.76089 8.12634 4.74514 8.12634 4.72919C8.12634 4.71324 8.12281 4.69748 8.11601 4.68306C8.10921 4.66863 8.0993 4.65589 8.087 4.64575C8.0747 4.63561 8.06031 4.62832 8.04486 4.6244C8.02941 4.62049 8.01329 4.62004 7.99765 4.6231C7.96901 4.6231 7.94154 4.63448 7.92128 4.65476C7.90103 4.67503 7.88965 4.70252 7.88965 4.73119C7.88965 4.75986 7.90103 4.78735 7.92128 4.80762C7.94154 4.82789 7.96901 4.83928 7.99765 4.83928V4.83528Z" stroke="black" stroke-width="1.13826"/>
<path id="Vector_59" d="M8.6377 4.75586C8.66567 4.75586 8.69249 4.74475 8.71227 4.72497C8.73205 4.70519 8.74316 4.67836 8.74316 4.65039C8.74316 4.62242 8.73205 4.59559 8.71227 4.57581C8.69249 4.55603 8.66567 4.54492 8.6377 4.54492C8.60972 4.54492 8.5829 4.55603 8.56312 4.57581C8.54334 4.59559 8.53223 4.62242 8.53223 4.65039C8.53223 4.67836 8.54334 4.70519 8.56312 4.72497C8.5829 4.74475 8.60972 4.75586 8.6377 4.75586Z" fill="white"/>
<path id="Vector_60" d="M8.63809 4.7552C8.65373 4.75825 8.66986 4.75781 8.68531 4.75389C8.70076 4.74997 8.71515 4.74268 8.72745 4.73254C8.73975 4.7224 8.74965 4.70966 8.75645 4.69524C8.76326 4.68081 8.76678 4.66506 8.76678 4.64911C8.76678 4.63316 8.76326 4.61741 8.75645 4.60298C8.74965 4.58856 8.73975 4.57582 8.72745 4.56568C8.71515 4.55553 8.70076 4.54824 8.68531 4.54433C8.66986 4.54041 8.65373 4.53996 8.63809 4.54302C8.6135 4.54782 8.59135 4.56103 8.57542 4.58038C8.55949 4.59974 8.55078 4.62403 8.55078 4.64911C8.55078 4.67418 8.55949 4.69848 8.57542 4.71783C8.59135 4.73719 8.6135 4.7504 8.63809 4.7552Z" stroke="black" stroke-width="1.13826"/>
<path id="Vector_61" d="M8.8457 4.8125C8.87368 4.8125 8.9005 4.80139 8.92028 4.78161C8.94006 4.76183 8.95117 4.735 8.95117 4.70703C8.95117 4.67906 8.94006 4.65223 8.92028 4.63245C8.9005 4.61267 8.87368 4.60156 8.8457 4.60156C8.81773 4.60156 8.7909 4.61267 8.77113 4.63245C8.75135 4.65223 8.74023 4.67906 8.74023 4.70703C8.74023 4.735 8.75135 4.76183 8.77113 4.78161C8.7909 4.80139 8.81773 4.8125 8.8457 4.8125Z" fill="white"/>
<path id="Vector_62" d="M8.8461 4.81184C8.86174 4.81489 8.87786 4.81445 8.89331 4.81053C8.90876 4.80661 8.92315 4.79932 8.93545 4.78918C8.94775 4.77904 8.95766 4.7663 8.96446 4.75188C8.97126 4.73745 8.97479 4.7217 8.97479 4.70575C8.97479 4.6898 8.97126 4.67405 8.96446 4.65962C8.95766 4.6452 8.94775 4.63246 8.93545 4.62232C8.92315 4.61217 8.90876 4.60488 8.89331 4.60097C8.87786 4.59705 8.86174 4.5966 8.8461 4.59966C8.82151 4.60446 8.79935 4.61767 8.78343 4.63703C8.7675 4.65638 8.75879 4.68067 8.75879 4.70575C8.75879 4.73082 8.7675 4.75512 8.78343 4.77447C8.79935 4.79383 8.82151 4.80704 8.8461 4.81184Z" stroke="black" stroke-width="1.13826"/>
<path id="Vector_63" d="M8.84551 5.60312C8.87395 5.60312 8.90122 5.59183 8.92133 5.57172C8.94144 5.55161 8.95273 5.52434 8.95273 5.4959C8.95273 5.46746 8.94144 5.44019 8.92133 5.42008C8.90122 5.39997 8.87395 5.38867 8.84551 5.38867C8.81707 5.38867 8.7898 5.39997 8.76969 5.42008C8.74958 5.44019 8.73828 5.46746 8.73828 5.4959C8.73828 5.52434 8.74958 5.55161 8.76969 5.57172C8.7898 5.59183 8.81707 5.60312 8.84551 5.60312Z" fill="white"/>
<path id="Vector_64" d="M8.84628 5.60486C8.87493 5.60486 8.9024 5.59347 8.92265 5.5732C8.9429 5.55293 8.95428 5.52543 8.95428 5.49676C8.95428 5.4681 8.9429 5.4406 8.92265 5.42033C8.9024 5.40006 8.87493 5.38867 8.84628 5.38867C8.81764 5.38867 8.79017 5.40006 8.76991 5.42033C8.74966 5.4406 8.73828 5.4681 8.73828 5.49676C8.73828 5.52543 8.74966 5.55293 8.76991 5.5732C8.79017 5.59347 8.81764 5.60486 8.84628 5.60486Z" stroke="black" stroke-width="1.13826"/>
<path id="Vector_65" d="M11.0498 6.01562C11.0778 6.01562 11.1046 6.00451 11.1244 5.98473C11.1442 5.96495 11.1553 5.93813 11.1553 5.91016C11.1553 5.88218 11.1442 5.85536 11.1244 5.83558C11.1046 5.8158 11.0778 5.80469 11.0498 5.80469C11.0218 5.80469 10.995 5.8158 10.9752 5.83558C10.9554 5.85536 10.9443 5.88218 10.9443 5.91016C10.9443 5.93813 10.9554 5.96495 10.9752 5.98473C10.995 6.00451 11.0218 6.01562 11.0498 6.01562Z" fill="white"/>
<path id="Vector_66" d="M11.0502 6.01692C11.0658 6.01997 11.082 6.01953 11.0974 6.01561C11.1129 6.01169 11.1273 6.0044 11.1396 5.99426C11.1519 5.98412 11.1618 5.97138 11.1686 5.95695C11.1754 5.94253 11.1789 5.92678 11.1789 5.91083C11.1789 5.89488 11.1754 5.87912 11.1686 5.8647C11.1618 5.85027 11.1519 5.83753 11.1396 5.82739C11.1273 5.81725 11.1129 5.80996 11.0974 5.80605C11.082 5.80213 11.0658 5.80168 11.0502 5.80474C11.0256 5.80954 11.0035 5.82275 10.9875 5.8421C10.9716 5.86146 10.9629 5.88575 10.9629 5.91083C10.9629 5.9359 10.9716 5.9602 10.9875 5.97955C11.0035 5.9989 11.0256 6.01211 11.0502 6.01692Z" stroke="black" stroke-width="1.13826"/>
<path id="Vector_67" d="M11.1064 5.75547C11.1349 5.75547 11.1622 5.74417 11.1823 5.72406C11.2024 5.70395 11.2137 5.67668 11.2137 5.64824C11.2137 5.6198 11.2024 5.59253 11.1823 5.57242C11.1622 5.55231 11.1349 5.54102 11.1064 5.54102C11.0785 5.54102 11.0516 5.55213 11.0319 5.57191C11.0121 5.59169 11.001 5.61851 11.001 5.64648C11.001 5.67446 11.0121 5.70128 11.0319 5.72106C11.0516 5.74084 11.0785 5.75195 11.1064 5.75195" fill="white"/>
<path id="Vector_68" d="M11.1059 5.75525C11.1345 5.75525 11.162 5.74386 11.1822 5.72359C11.2025 5.70332 11.2139 5.67582 11.2139 5.64715C11.2139 5.61849 11.2025 5.59099 11.1822 5.57072C11.162 5.55045 11.1345 5.53906 11.1059 5.53906C11.0813 5.54387 11.0591 5.55708 11.0432 5.57643C11.0273 5.59578 11.0186 5.62008 11.0186 5.64515C11.0186 5.67023 11.0273 5.69452 11.0432 5.71388C11.0591 5.73323 11.0813 5.74644 11.1059 5.75124V5.75525Z" stroke="black" stroke-width="1.13826"/>
<path id="Vector_69" d="M11.0605 5.47656C11.0885 5.47656 11.1153 5.46545 11.1351 5.44567C11.1549 5.42589 11.166 5.39907 11.166 5.37109C11.166 5.34312 11.1549 5.3163 11.1351 5.29652C11.1153 5.27674 11.0885 5.26562 11.0605 5.26562C11.0326 5.26562 11.0057 5.27674 10.986 5.29652C10.9662 5.3163 10.9551 5.34312 10.9551 5.37109C10.9551 5.39907 10.9662 5.42589 10.986 5.44567C11.0057 5.46545 11.0326 5.47656 11.0605 5.47656Z" fill="white"/>
<path id="Vector_70" d="M11.0619 5.4759C11.0776 5.47896 11.0937 5.47851 11.1091 5.47459C11.1246 5.47068 11.139 5.46338 11.1513 5.45324C11.1636 5.4431 11.1735 5.43036 11.1803 5.41594C11.1871 5.40151 11.1906 5.38576 11.1906 5.36981C11.1906 5.35386 11.1871 5.33811 11.1803 5.32368C11.1735 5.30926 11.1636 5.29652 11.1513 5.28638C11.139 5.27624 11.1246 5.26895 11.1091 5.26503C11.0937 5.26111 11.0776 5.26067 11.0619 5.26372C11.0373 5.26852 11.0152 5.28173 10.9992 5.30109C10.9833 5.32044 10.9746 5.34474 10.9746 5.36981C10.9746 5.39489 10.9833 5.41918 10.9992 5.43853C11.0152 5.45789 11.0373 5.4711 11.0619 5.4759Z" stroke="black" stroke-width="1.13826"/>
<path id="Vector_71" d="M10.9439 5.21797C10.9728 5.21797 11.0006 5.20649 11.021 5.18605C11.0414 5.16561 11.0529 5.13789 11.0529 5.10898C11.0529 5.08008 11.0414 5.05236 11.021 5.03192C11.0006 5.01148 10.9728 5 10.9439 5C10.915 5 10.8873 5.01148 10.8669 5.03192C10.8464 5.05236 10.835 5.08008 10.835 5.10898C10.835 5.13789 10.8464 5.16561 10.8669 5.18605C10.8873 5.20649 10.915 5.21797 10.9439 5.21797Z" fill="white"/>
<path id="Vector_72" d="M10.9459 5.21618C10.9745 5.21618 11.002 5.2048 11.0223 5.18452C11.0425 5.16425 11.0539 5.13676 11.0539 5.10809C11.0539 5.07942 11.0425 5.05193 11.0223 5.03166C11.002 5.01139 10.9745 5 10.9459 5C10.9172 5 10.8898 5.01139 10.8695 5.03166C10.8493 5.05193 10.8379 5.07942 10.8379 5.10809C10.8379 5.13676 10.8493 5.16425 10.8695 5.18452C10.8898 5.2048 10.9172 5.21618 10.9459 5.21618Z" stroke="black" stroke-width="1.13826"/>
<path id="Vector_73" d="M10.751 5.03477C10.7794 5.03477 10.8067 5.02347 10.8268 5.00336C10.8469 4.98325 10.8582 4.95598 10.8582 4.92754C10.8582 4.8991 10.8469 4.87183 10.8268 4.85172C10.8067 4.83161 10.7794 4.82031 10.751 4.82031C10.723 4.82031 10.6962 4.83142 10.6764 4.8512C10.6566 4.87098 10.6455 4.89781 10.6455 4.92578C10.6455 4.95375 10.6566 4.98058 10.6764 5.00036C10.6962 5.02014 10.723 5.03125 10.751 5.03125" fill="white"/>
<path id="Vector_74" d="M10.7494 5.0365C10.7781 5.0365 10.8055 5.02511 10.8258 5.00484C10.846 4.98457 10.8574 4.95707 10.8574 4.9284C10.8574 4.89974 10.846 4.87224 10.8258 4.85197C10.8055 4.8317 10.7781 4.82031 10.7494 4.82031C10.7248 4.82512 10.7027 4.83833 10.6867 4.85768C10.6708 4.87703 10.6621 4.90133 10.6621 4.9264C10.6621 4.95148 10.6708 4.97577 10.6867 4.99513C10.7027 5.01448 10.7248 5.02769 10.7494 5.03249V5.0365Z" stroke="black" stroke-width="1.13826"/>
<path id="Vector_75" d="M10.5117 4.91406C10.5397 4.91406 10.5665 4.90295 10.5863 4.88317C10.6061 4.86339 10.6172 4.83657 10.6172 4.80859C10.6172 4.78062 10.6061 4.7538 10.5863 4.73402C10.5665 4.71424 10.5397 4.70312 10.5117 4.70312C10.4837 4.70312 10.4569 4.71424 10.4371 4.73402C10.4174 4.7538 10.4062 4.78062 10.4062 4.80859C10.4062 4.83657 10.4174 4.86339 10.4371 4.88317C10.4569 4.90295 10.4837 4.91406 10.5117 4.91406Z" fill="white"/>
<path id="Vector_76" d="M10.5141 4.91535C10.5297 4.91841 10.5458 4.91796 10.5613 4.91405C10.5767 4.91013 10.5911 4.90284 10.6034 4.8927C10.6157 4.88256 10.6256 4.86982 10.6324 4.85539C10.6392 4.84097 10.6428 4.82521 10.6428 4.80926C10.6428 4.79331 10.6392 4.77756 10.6324 4.76314C10.6256 4.74871 10.6157 4.73597 10.6034 4.72583C10.5911 4.71569 10.5767 4.7084 10.5613 4.70448C10.5458 4.70057 10.5297 4.70012 10.5141 4.70317C10.4895 4.70798 10.4673 4.72119 10.4514 4.74054C10.4355 4.75989 10.4268 4.78419 10.4268 4.80926C10.4268 4.83434 10.4355 4.85863 10.4514 4.87799C10.4673 4.89734 10.4895 4.91055 10.5141 4.91535Z" stroke="black" stroke-width="1.13826"/>
<path id="Vector_77" d="M10.2412 4.85547C10.2692 4.85547 10.296 4.84436 10.3158 4.82458C10.3356 4.8048 10.3467 4.77797 10.3467 4.75C10.3467 4.72203 10.3356 4.6952 10.3158 4.67542C10.296 4.65564 10.2692 4.64453 10.2412 4.64453C10.2132 4.64453 10.1864 4.65564 10.1666 4.67542C10.1469 4.6952 10.1357 4.72203 10.1357 4.75C10.1357 4.77797 10.1469 4.8048 10.1666 4.82458C10.1864 4.84436 10.2132 4.85547 10.2412 4.85547Z" fill="white"/>
<path id="Vector_78" d="M10.2416 4.85481C10.2573 4.85786 10.2734 4.85742 10.2888 4.8535C10.3043 4.84958 10.3187 4.84229 10.331 4.83215C10.3433 4.82201 10.3532 4.80927 10.36 4.79484C10.3668 4.78042 10.3703 4.76467 10.3703 4.74872C10.3703 4.73277 10.3668 4.71701 10.36 4.70259C10.3532 4.68817 10.3433 4.67543 10.331 4.66528C10.3187 4.65514 10.3043 4.64785 10.2888 4.64394C10.2734 4.64002 10.2573 4.63957 10.2416 4.64263C10.217 4.64743 10.1949 4.66064 10.1789 4.67999C10.163 4.69935 10.1543 4.72364 10.1543 4.74872C10.1543 4.77379 10.163 4.79809 10.1789 4.81744C10.1949 4.8368 10.217 4.85 10.2416 4.85481Z" stroke="black" stroke-width="1.13826"/>
<path id="Vector_79" d="M9.99902 4.83398C10.027 4.83398 10.0538 4.82287 10.0736 4.80309C10.0934 4.78331 10.1045 4.75649 10.1045 4.72852C10.1045 4.70054 10.0934 4.67372 10.0736 4.65394C10.0538 4.63416 10.027 4.62305 9.99902 4.62305C9.97105 4.62305 9.94423 4.63416 9.92445 4.65394C9.90467 4.67372 9.89355 4.70054 9.89355 4.72852C9.89355 4.75649 9.90467 4.78331 9.92445 4.80309C9.94423 4.82287 9.97105 4.83398 9.99902 4.83398Z" fill="white"/>
<path id="Vector_80" d="M9.99747 4.83528C10.0131 4.83833 10.0292 4.83788 10.0447 4.83397C10.0601 4.83005 10.0745 4.82276 10.0868 4.81262C10.0991 4.80248 10.109 4.78974 10.1158 4.77531C10.1226 4.76089 10.1262 4.74514 10.1262 4.72919C10.1262 4.71324 10.1226 4.69748 10.1158 4.68306C10.109 4.66863 10.0991 4.65589 10.0868 4.64575C10.0745 4.63561 10.0601 4.62832 10.0447 4.6244C10.0292 4.62049 10.0131 4.62004 9.99747 4.6231C9.97288 4.6279 9.95072 4.64111 9.93479 4.66046C9.91887 4.67982 9.91016 4.70411 9.91016 4.72919C9.91016 4.75426 9.91887 4.77856 9.93479 4.79791C9.95072 4.81726 9.97288 4.83047 9.99747 4.83528Z" stroke="black" stroke-width="1.13826"/>
<path id="Vector_81" d="M9.77324 4.80625C9.80168 4.80625 9.82895 4.79495 9.84906 4.77484C9.86917 4.75473 9.88047 4.72746 9.88047 4.69902C9.88047 4.67058 9.86917 4.64331 9.84906 4.6232C9.82895 4.60309 9.80168 4.5918 9.77324 4.5918C9.7448 4.5918 9.71753 4.60309 9.69742 4.6232C9.67731 4.64331 9.66602 4.67058 9.66602 4.69902C9.66602 4.72746 9.67731 4.75473 9.69742 4.77484C9.71753 4.79495 9.7448 4.80625 9.77324 4.80625Z" fill="white"/>
<path id="Vector_82" d="M9.77402 4.80798C9.80266 4.80798 9.83013 4.79659 9.85038 4.77632C9.87064 4.75605 9.88202 4.72856 9.88202 4.69989C9.88202 4.67122 9.87064 4.64373 9.85038 4.62346C9.83013 4.60319 9.80266 4.5918 9.77402 4.5918C9.74537 4.5918 9.7179 4.60319 9.69765 4.62346C9.67739 4.64373 9.66602 4.67122 9.66602 4.69989C9.66602 4.72856 9.67739 4.75605 9.69765 4.77632C9.7179 4.79659 9.74537 4.80798 9.77402 4.80798Z" stroke="black" stroke-width="1.13826"/>
<path id="Vector_83" d="M9.91797 5.67773C9.94594 5.67773 9.97277 5.66662 9.99255 5.64684C10.0123 5.62706 10.0234 5.60024 10.0234 5.57227C10.0234 5.54429 10.0123 5.51747 9.99255 5.49769C9.97277 5.47791 9.94594 5.4668 9.91797 5.4668C9.89 5.4668 9.86317 5.47791 9.84339 5.49769C9.82361 5.51747 9.8125 5.54429 9.8125 5.57227C9.8125 5.60024 9.82361 5.62706 9.84339 5.64684C9.86317 5.66662 9.89 5.67773 9.91797 5.67773Z" fill="white"/>
<path id="Vector_84" d="M9.91757 5.67707C9.93321 5.68013 9.94934 5.67968 9.96478 5.67576C9.98023 5.67185 9.99462 5.66456 10.0069 5.65442C10.0192 5.64427 10.0291 5.63154 10.0359 5.61711C10.0427 5.60269 10.0463 5.58693 10.0463 5.57098C10.0463 5.55503 10.0427 5.53928 10.0359 5.52486C10.0291 5.51043 10.0192 5.49769 10.0069 5.48755C9.99462 5.47741 9.98023 5.47012 9.96478 5.4662C9.94934 5.46228 9.93321 5.46184 9.91757 5.46489C9.88893 5.46489 9.86146 5.47628 9.8412 5.49655C9.82095 5.51682 9.80957 5.54432 9.80957 5.57298C9.80957 5.60165 9.82095 5.62915 9.8412 5.64942C9.86146 5.66969 9.88893 5.68108 9.91757 5.68108V5.67707Z" stroke="black" stroke-width="1.13826"/>
<path id="Vector_85" d="M9.97363 5.47773C10.0025 5.47773 10.0303 5.46625 10.0507 5.44581C10.0711 5.42537 10.0826 5.39765 10.0826 5.36875C10.0826 5.33985 10.0711 5.31212 10.0507 5.29169C10.0303 5.27125 10.0025 5.25977 9.97363 5.25977C9.94566 5.25977 9.91883 5.27088 9.89905 5.29066C9.87928 5.31044 9.86816 5.33726 9.86816 5.36523C9.86816 5.39321 9.87928 5.42003 9.89905 5.43981C9.91883 5.45959 9.94566 5.4707 9.97363 5.4707" fill="white"/>
<path id="Vector_86" d="M9.97403 5.47595C10.0027 5.47595 10.0301 5.46456 10.0504 5.44429C10.0707 5.42402 10.082 5.39653 10.082 5.36786C10.082 5.33919 10.0707 5.3117 10.0504 5.29142C10.0301 5.27115 10.0027 5.25977 9.97403 5.25977C9.94944 5.26457 9.92729 5.27778 9.91136 5.29713C9.89543 5.31649 9.88672 5.34078 9.88672 5.36586C9.88672 5.39093 9.89543 5.41522 9.91136 5.43458C9.92729 5.45393 9.94944 5.46714 9.97403 5.47195V5.47595Z" stroke="black" stroke-width="1.13826"/>
<path id="Vector_87" d="M9.07773 4.79219C9.10664 4.79219 9.13436 4.7807 9.1548 4.76027C9.17524 4.73983 9.18672 4.71211 9.18672 4.6832C9.18672 4.6543 9.17524 4.62658 9.1548 4.60614C9.13436 4.5857 9.10664 4.57422 9.07773 4.57422C9.04883 4.57422 9.02111 4.5857 9.00067 4.60614C8.98023 4.62658 8.96875 4.6543 8.96875 4.6832C8.96875 4.71211 8.98023 4.73983 9.00067 4.76027C9.02111 4.7807 9.04883 4.79219 9.07773 4.79219Z" fill="white"/>
<path id="Vector_88" d="M9.07773 4.7904C9.10637 4.7904 9.13384 4.77902 9.15409 4.75874C9.17435 4.73847 9.18573 4.71098 9.18573 4.68231C9.18573 4.65364 9.17435 4.62615 9.15409 4.60588C9.13384 4.58561 9.10637 4.57422 9.07773 4.57422C9.04908 4.57422 9.02161 4.58561 9.00136 4.60588C8.98111 4.62615 8.96973 4.65364 8.96973 4.68231C8.96973 4.71098 8.98111 4.73847 9.00136 4.75874C9.02161 4.77902 9.04908 4.7904 9.07773 4.7904Z" stroke="black" stroke-width="1.13826"/>
<path id="Vector_89" d="M8.55762 4.75977C8.58559 4.75977 8.61242 4.74865 8.63219 4.72887C8.65197 4.7091 8.66309 4.68227 8.66309 4.6543C8.66309 4.62632 8.65197 4.5995 8.63219 4.57972C8.61242 4.55994 8.58559 4.54883 8.55762 4.54883C8.52965 4.54883 8.50282 4.55994 8.48304 4.57972C8.46326 4.5995 8.45215 4.62632 8.45215 4.6543C8.45215 4.68227 8.46326 4.7091 8.48304 4.72887C8.50282 4.74865 8.52965 4.75977 8.55762 4.75977Z" fill="white"/>
<path id="Vector_90" d="M8.55802 4.7591C8.57366 4.76216 8.58978 4.76171 8.60523 4.7578C8.62068 4.75388 8.63507 4.74659 8.64737 4.73645C8.65967 4.72631 8.66958 4.71357 8.67638 4.69914C8.68318 4.68472 8.6867 4.66896 8.6867 4.65301C8.6867 4.63706 8.68318 4.62131 8.67638 4.60689C8.66958 4.59246 8.65967 4.57972 8.64737 4.56958C8.63507 4.55944 8.62068 4.55215 8.60523 4.54823C8.58978 4.54432 8.57366 4.54387 8.55802 4.54692C8.53343 4.55173 8.51127 4.56494 8.49534 4.58429C8.47941 4.60364 8.4707 4.62794 8.4707 4.65301C8.4707 4.67809 8.47941 4.70238 8.49534 4.72174C8.51127 4.74109 8.53343 4.7543 8.55802 4.7591Z" stroke="black" stroke-width="1.13826"/>
<path id="Vector_91" d="M8.43066 4.75586C8.45864 4.75586 8.48546 4.74475 8.50524 4.72497C8.52502 4.70519 8.53613 4.67836 8.53613 4.65039C8.53613 4.62242 8.52502 4.59559 8.50524 4.57581C8.48546 4.55603 8.45864 4.54492 8.43066 4.54492C8.40269 4.54492 8.37587 4.55603 8.35609 4.57581C8.33631 4.59559 8.3252 4.62242 8.3252 4.65039C8.3252 4.67836 8.33631 4.70519 8.35609 4.72497C8.37587 4.74475 8.40269 4.75586 8.43066 4.75586Z" fill="white"/>
<path id="Vector_92" d="M8.43008 4.7552C8.44573 4.75825 8.46185 4.75781 8.4773 4.75389C8.49275 4.74997 8.50714 4.74268 8.51944 4.73254C8.53174 4.7224 8.54164 4.70966 8.54845 4.69524C8.55525 4.68081 8.55877 4.66506 8.55877 4.64911C8.55877 4.63316 8.55525 4.61741 8.54845 4.60298C8.54164 4.58856 8.53174 4.57582 8.51944 4.56568C8.50714 4.55553 8.49275 4.54824 8.4773 4.54433C8.46185 4.54041 8.44573 4.53996 8.43008 4.54302C8.4055 4.54782 8.38334 4.56103 8.36741 4.58038C8.35148 4.59974 8.34277 4.62403 8.34277 4.64911C8.34277 4.67418 8.35148 4.69848 8.36741 4.71783C8.38334 4.73719 8.4055 4.7504 8.43008 4.7552Z" stroke="black" stroke-width="1.13826"/>
<path id="Vector_93" d="M7.74902 5.68164C7.777 5.68164 7.80382 5.67053 7.8236 5.65075C7.84338 5.63097 7.85449 5.60414 7.85449 5.57617C7.85449 5.5482 7.84338 5.52137 7.8236 5.50159C7.80382 5.48181 7.777 5.4707 7.74902 5.4707C7.72105 5.4707 7.69423 5.48181 7.67445 5.50159C7.65467 5.52137 7.64355 5.5482 7.64355 5.57617C7.64355 5.60414 7.65467 5.63097 7.67445 5.65075C7.69423 5.67053 7.72105 5.68164 7.74902 5.68164Z" fill="white"/>
<path id="Vector_94" d="M7.74942 5.68098C7.76506 5.68404 7.78119 5.68359 7.79663 5.67967C7.81208 5.67575 7.82647 5.66846 7.83877 5.65832C7.85107 5.64818 7.86098 5.63544 7.86778 5.62102C7.87458 5.60659 7.87811 5.59084 7.87811 5.57489C7.87811 5.55894 7.87458 5.54319 7.86778 5.52876C7.86098 5.51434 7.85107 5.5016 7.83877 5.49146C7.82647 5.48132 7.81208 5.47402 7.79663 5.47011C7.78119 5.46619 7.76506 5.46574 7.74942 5.4688C7.72483 5.4736 7.70268 5.48681 7.68675 5.50617C7.67082 5.52552 7.66211 5.54981 7.66211 5.57489C7.66211 5.59996 7.67082 5.62426 7.68675 5.64361C7.70268 5.66297 7.72483 5.67618 7.74942 5.68098Z" stroke="black" stroke-width="1.13826"/>
<path id="Vector_95" d="M7.71738 5.42891C7.74629 5.42891 7.77401 5.41742 7.79445 5.39699C7.81489 5.37655 7.82637 5.34883 7.82637 5.31992C7.82637 5.29102 7.81489 5.2633 7.79445 5.24286C7.77401 5.22242 7.74629 5.21094 7.71738 5.21094C7.68848 5.21094 7.66076 5.22242 7.64032 5.24286C7.61988 5.2633 7.6084 5.29102 7.6084 5.31992C7.6084 5.34883 7.61988 5.37655 7.64032 5.39699C7.66076 5.41742 7.68848 5.42891 7.71738 5.42891Z" fill="white"/>
<path id="Vector_96" d="M7.71835 5.42712C7.747 5.42712 7.77447 5.41573 7.79472 5.39546C7.81497 5.37519 7.82635 5.3477 7.82635 5.31903C7.82635 5.29036 7.81497 5.26287 7.79472 5.2426C7.77447 5.22233 7.747 5.21094 7.71835 5.21094C7.68971 5.21094 7.66224 5.22233 7.64198 5.2426C7.62173 5.26287 7.61035 5.29036 7.61035 5.31903C7.61035 5.3477 7.62173 5.37519 7.64198 5.39546C7.66224 5.41573 7.68971 5.42712 7.71835 5.42712Z" stroke="black" stroke-width="1.13826"/>
<path id="Vector_97" d="M7.79785 5.17773C7.82582 5.17773 7.85265 5.16662 7.87243 5.14684C7.89221 5.12706 7.90332 5.10024 7.90332 5.07227C7.90332 5.04429 7.89221 5.01747 7.87243 4.99769C7.85265 4.97791 7.82582 4.9668 7.79785 4.9668C7.76988 4.9668 7.74305 4.97791 7.72327 4.99769C7.70349 5.01747 7.69238 5.04429 7.69238 5.07227C7.69238 5.10024 7.70349 5.12706 7.72327 5.14684C7.74305 5.16662 7.76988 5.17773 7.79785 5.17773Z" fill="white"/>
<path id="Vector_98" d="M7.79825 5.17903C7.81389 5.18208 7.83001 5.18163 7.84546 5.17772C7.86091 5.1738 7.8753 5.16651 7.8876 5.15637C7.8999 5.14623 7.90981 5.13349 7.91661 5.11906C7.92341 5.10464 7.92694 5.08889 7.92694 5.07294C7.92694 5.05699 7.92341 5.04123 7.91661 5.02681C7.90981 5.01238 7.8999 4.99964 7.8876 4.9895C7.8753 4.97936 7.86091 4.97207 7.84546 4.96815C7.83001 4.96424 7.81389 4.96379 7.79825 4.96685C7.77366 4.97165 7.7515 4.98486 7.73558 5.00421C7.71965 5.02357 7.71094 5.04786 7.71094 5.07294C7.71094 5.09801 7.71965 5.1223 7.73558 5.14166C7.7515 5.16101 7.77366 5.17422 7.79825 5.17903Z" stroke="black" stroke-width="1.13826"/>
<path id="Vector_99" d="M8.26562 4.78125C8.2936 4.78125 8.32042 4.77014 8.3402 4.75036C8.35998 4.73058 8.37109 4.70375 8.37109 4.67578C8.37109 4.64781 8.35998 4.62098 8.3402 4.6012C8.32042 4.58142 8.2936 4.57031 8.26562 4.57031C8.23765 4.57031 8.21083 4.58142 8.19105 4.6012C8.17127 4.62098 8.16016 4.64781 8.16016 4.67578C8.16016 4.70375 8.17127 4.73058 8.19105 4.75036C8.21083 4.77014 8.23765 4.78125 8.26562 4.78125Z" fill="white"/>
<path id="Vector_100" d="M8.26602 4.77864C8.28166 4.78169 8.29779 4.78124 8.31324 4.77733C8.32868 4.77341 8.34307 4.76612 8.35538 4.75598C8.36768 4.74584 8.37758 4.7331 8.38438 4.71867C8.39118 4.70425 8.39471 4.6885 8.39471 4.67255C8.39471 4.6566 8.39118 4.64084 8.38438 4.62642C8.37758 4.61199 8.36768 4.59925 8.35538 4.58911C8.34307 4.57897 8.32868 4.57168 8.31324 4.56776C8.29779 4.56385 8.28166 4.5634 8.26602 4.56645C8.24143 4.57126 8.21928 4.58447 8.20335 4.60382C8.18742 4.62318 8.17871 4.64747 8.17871 4.67255C8.17871 4.69762 8.18742 4.72191 8.20335 4.74127C8.21928 4.76062 8.24143 4.77383 8.26602 4.77864Z" stroke="black" stroke-width="1.13826"/>
<path id="Vector_101" d="M8.08594 4.85156C8.11391 4.85156 8.14074 4.84045 8.16052 4.82067C8.18029 4.80089 8.19141 4.77407 8.19141 4.74609C8.19141 4.71812 8.18029 4.6913 8.16052 4.67152C8.14074 4.65174 8.11391 4.64062 8.08594 4.64062C8.05797 4.64062 8.03114 4.65174 8.01136 4.67152C7.99158 4.6913 7.98047 4.71812 7.98047 4.74609C7.98047 4.77407 7.99158 4.80089 8.01136 4.82067C8.03114 4.84045 8.05797 4.85156 8.08594 4.85156Z" fill="white"/>
<path id="Vector_102" d="M8.08634 4.8509C8.10198 4.85396 8.1181 4.85351 8.13355 4.84959C8.149 4.84568 8.16339 4.83838 8.17569 4.82824C8.18799 4.8181 8.1979 4.80536 8.2047 4.79094C8.2115 4.77651 8.21502 4.76076 8.21502 4.74481C8.21502 4.72886 8.2115 4.71311 8.2047 4.69868C8.1979 4.68426 8.18799 4.67152 8.17569 4.66138C8.16339 4.65124 8.149 4.64395 8.13355 4.64003C8.1181 4.63611 8.10198 4.63567 8.08634 4.63872C8.06175 4.64352 8.03959 4.65673 8.02366 4.67609C8.00773 4.69544 7.99902 4.71974 7.99902 4.74481C7.99902 4.76989 8.00773 4.79418 8.02366 4.81353C8.03959 4.83289 8.06175 4.8461 8.08634 4.8509Z" stroke="black" stroke-width="1.13826"/>
<path id="Vector_103" d="M7.91777 4.99219C7.94575 4.99219 7.97257 4.98108 7.99235 4.9613C8.01213 4.94152 8.02324 4.91469 8.02324 4.88672C8.02324 4.85875 8.01213 4.83192 7.99235 4.81214C7.97257 4.79236 7.94575 4.78125 7.91777 4.78125C7.88934 4.78125 7.86206 4.79255 7.84195 4.81266C7.82184 4.83276 7.81055 4.86004 7.81055 4.88848C7.81055 4.91691 7.82184 4.94419 7.84195 4.9643C7.86206 4.98441 7.88934 4.9957 7.91777 4.9957" fill="white"/>
<path id="Vector_104" d="M7.91739 4.99543C7.93303 4.99849 7.94916 4.99804 7.9646 4.99412C7.98005 4.99021 7.99444 4.98292 8.00674 4.97278C8.01904 4.96263 8.02895 4.94989 8.03575 4.93547C8.04255 4.92104 8.04608 4.90529 8.04608 4.88934C8.04608 4.87339 8.04255 4.85764 8.03575 4.84321C8.02895 4.82879 8.01904 4.81605 8.00674 4.80591C7.99444 4.79577 7.98005 4.78848 7.9646 4.78456C7.94916 4.78064 7.93303 4.7802 7.91739 4.78325C7.8928 4.78805 7.87065 4.80126 7.85472 4.82062C7.83879 4.83997 7.83008 4.86427 7.83008 4.88934C7.83008 4.91442 7.83879 4.93871 7.85472 4.95807C7.87065 4.97742 7.8928 4.99063 7.91739 4.99543Z" stroke="black" stroke-width="1.13826"/>
<path id="Vector_105" d="M8.8457 4.93164C8.87368 4.93164 8.9005 4.92053 8.92028 4.90075C8.94006 4.88097 8.95117 4.85414 8.95117 4.82617C8.95117 4.7982 8.94006 4.77137 8.92028 4.75159C8.9005 4.73181 8.87368 4.7207 8.8457 4.7207C8.81773 4.7207 8.7909 4.73181 8.77113 4.75159C8.75135 4.77137 8.74023 4.7982 8.74023 4.82617C8.74023 4.85414 8.75135 4.88097 8.77113 4.90075C8.7909 4.92053 8.81773 4.93164 8.8457 4.93164Z" fill="white"/>
<path id="Vector_106" d="M8.8461 4.93098C8.86174 4.93403 8.87786 4.93359 8.89331 4.92967C8.90876 4.92575 8.92315 4.91846 8.93545 4.90832C8.94775 4.89818 8.95766 4.88544 8.96446 4.87102C8.97126 4.85659 8.97479 4.84084 8.97479 4.82489C8.97479 4.80894 8.97126 4.79319 8.96446 4.77876C8.95766 4.76434 8.94775 4.7516 8.93545 4.74146C8.92315 4.73132 8.90876 4.72402 8.89331 4.72011C8.87786 4.71619 8.86174 4.71574 8.8461 4.7188C8.82151 4.7236 8.79935 4.73681 8.78343 4.75617C8.7675 4.77552 8.75879 4.79981 8.75879 4.82489C8.75879 4.84996 8.7675 4.87426 8.78343 4.89361C8.79935 4.91297 8.82151 4.92618 8.8461 4.93098Z" stroke="black" stroke-width="1.13826"/>
<path id="Vector_107" d="M8.8457 5.13281C8.87368 5.13281 8.9005 5.1217 8.92028 5.10192C8.94006 5.08214 8.95117 5.05532 8.95117 5.02734C8.95117 4.99937 8.94006 4.97255 8.92028 4.95277C8.9005 4.93299 8.87368 4.92188 8.8457 4.92188C8.81773 4.92188 8.7909 4.93299 8.77113 4.95277C8.75135 4.97255 8.74023 4.99937 8.74023 5.02734C8.74023 5.05532 8.75135 5.08214 8.77113 5.10192C8.7909 5.1217 8.81773 5.13281 8.8457 5.13281Z" fill="white"/>
<path id="Vector_108" d="M8.84628 5.13611C8.87493 5.13611 8.9024 5.12472 8.92265 5.10445C8.9429 5.08418 8.95428 5.05668 8.95428 5.02801C8.95428 4.99935 8.9429 4.97185 8.92265 4.95158C8.9024 4.93131 8.87493 4.91992 8.84628 4.91992C8.81764 4.91992 8.79017 4.93131 8.76991 4.95158C8.74966 4.97185 8.73828 4.99935 8.73828 5.02801C8.73828 5.05668 8.74966 5.08418 8.76991 5.10445C8.79017 5.12472 8.81764 5.13611 8.84628 5.13611Z" stroke="black" stroke-width="1.13826"/>
<path id="Vector_109" d="M8.84551 5.35117C8.87395 5.35117 8.90122 5.33987 8.92133 5.31977C8.94144 5.29966 8.95273 5.27238 8.95273 5.24394C8.95273 5.21551 8.94144 5.18823 8.92133 5.16812C8.90122 5.14802 8.87395 5.13672 8.84551 5.13672C8.81707 5.13672 8.7898 5.14802 8.76969 5.16812C8.74958 5.18823 8.73828 5.21551 8.73828 5.24394C8.73828 5.27238 8.74958 5.29966 8.76969 5.31977C8.7898 5.33987 8.81707 5.35117 8.84551 5.35117Z" fill="white"/>
<path id="Vector_110" d="M8.84628 5.35095C8.87493 5.35095 8.9024 5.33956 8.92265 5.31929C8.9429 5.29902 8.95428 5.27153 8.95428 5.24286C8.95428 5.21419 8.9429 5.1867 8.92265 5.16643C8.9024 5.14615 8.87493 5.13477 8.84628 5.13477C8.81764 5.13477 8.79017 5.14615 8.76991 5.16643C8.74966 5.1867 8.73828 5.21419 8.73828 5.24286C8.73828 5.27153 8.74966 5.29902 8.76991 5.31929C8.79017 5.33956 8.81764 5.35095 8.84628 5.35095Z" stroke="black" stroke-width="1.13826"/>
<path id="Vector_111" d="M9.21152 4.76289C9.24043 4.76289 9.26815 4.75141 9.28859 4.73097C9.30903 4.71053 9.32051 4.68281 9.32051 4.65391C9.32051 4.625 9.30903 4.59728 9.28859 4.57684C9.26815 4.5564 9.24043 4.54492 9.21152 4.54492C9.18262 4.54492 9.1549 4.5564 9.13446 4.57684C9.11402 4.59728 9.10254 4.625 9.10254 4.65391C9.10254 4.68281 9.11402 4.71053 9.13446 4.73097C9.1549 4.75141 9.18262 4.76289 9.21152 4.76289Z" fill="white"/>
<path id="Vector_112" d="M9.21347 4.76306C9.24211 4.76306 9.26958 4.75167 9.28984 4.7314C9.31009 4.71113 9.32147 4.68364 9.32147 4.65497C9.32147 4.6263 9.31009 4.59881 9.28984 4.57853C9.26958 4.55826 9.24211 4.54687 9.21347 4.54688C9.18482 4.54687 9.15735 4.55826 9.1371 4.57853C9.11685 4.59881 9.10547 4.6263 9.10547 4.65497C9.10547 4.68364 9.11685 4.71113 9.1371 4.7314C9.15735 4.75167 9.18482 4.76306 9.21347 4.76306Z" stroke="black" stroke-width="1.13826"/>
<path id="Vector_113" d="M9.3584 4.73242C9.38637 4.73242 9.4132 4.72131 9.43298 4.70153C9.45275 4.68175 9.46387 4.65493 9.46387 4.62695C9.46387 4.59898 9.45275 4.57215 9.43298 4.55238C9.4132 4.5326 9.38637 4.52148 9.3584 4.52148C9.33043 4.52148 9.3036 4.5326 9.28382 4.55238C9.26404 4.57215 9.25293 4.59898 9.25293 4.62695C9.25293 4.65493 9.26404 4.68175 9.28382 4.70153C9.3036 4.72131 9.33043 4.73242 9.3584 4.73242Z" fill="white"/>
<path id="Vector_114" d="M9.35782 4.73176C9.37346 4.73482 9.38958 4.73437 9.40503 4.73045C9.42048 4.72653 9.43487 4.71924 9.44717 4.7091C9.45947 4.69896 9.46938 4.68622 9.47618 4.6718C9.48298 4.65737 9.48651 4.64162 9.48651 4.62567C9.48651 4.60972 9.48298 4.59397 9.47618 4.57954C9.46938 4.56512 9.45947 4.55238 9.44717 4.54224C9.43487 4.5321 9.42048 4.52481 9.40503 4.52089C9.38958 4.51697 9.37346 4.51652 9.35782 4.51958C9.33323 4.52438 9.31107 4.53759 9.29515 4.55695C9.27922 4.5763 9.27051 4.6006 9.27051 4.62567C9.27051 4.65074 9.27922 4.67504 9.29515 4.69439C9.31107 4.71375 9.33323 4.72696 9.35782 4.73176Z" stroke="black" stroke-width="1.13826"/>
<path id="Vector_115" d="M9.52734 4.75586C9.55532 4.75586 9.58214 4.74475 9.60192 4.72497C9.6217 4.70519 9.63281 4.67836 9.63281 4.65039C9.63281 4.62242 9.6217 4.59559 9.60192 4.57581C9.58214 4.55603 9.55532 4.54492 9.52734 4.54492C9.49937 4.54492 9.47255 4.55603 9.45277 4.57581C9.43299 4.59559 9.42188 4.62242 9.42188 4.65039C9.42188 4.67836 9.43299 4.70519 9.45277 4.72497C9.47255 4.74475 9.49937 4.75586 9.52734 4.75586Z" fill="white"/>
<path id="Vector_116" d="M9.52597 4.7552C9.54161 4.75825 9.55773 4.75781 9.57318 4.75389C9.58863 4.74997 9.60302 4.74268 9.61532 4.73254C9.62762 4.7224 9.63753 4.70966 9.64433 4.69524C9.65113 4.68081 9.65466 4.66506 9.65466 4.64911C9.65466 4.63316 9.65113 4.61741 9.64433 4.60298C9.63753 4.58856 9.62762 4.57582 9.61532 4.56568C9.60302 4.55553 9.58863 4.54824 9.57318 4.54433C9.55773 4.54041 9.54161 4.53996 9.52597 4.54302C9.49733 4.54302 9.46985 4.55441 9.4496 4.57468C9.42935 4.59495 9.41797 4.62244 9.41797 4.65111C9.41797 4.67978 9.42935 4.70727 9.4496 4.72754C9.46985 4.74781 9.49733 4.7592 9.52597 4.7592V4.7552Z" stroke="black" stroke-width="1.13826"/>
<path id="Vector_117" d="M9.93848 5.21094C9.96645 5.21094 9.99327 5.19983 10.0131 5.18005C10.0328 5.16027 10.0439 5.13344 10.0439 5.10547C10.0439 5.0775 10.0328 5.05067 10.0131 5.03089C9.99327 5.01111 9.96645 5 9.93848 5C9.9105 5 9.88368 5.01111 9.8639 5.03089C9.84412 5.05067 9.83301 5.0775 9.83301 5.10547C9.83301 5.13344 9.84412 5.16027 9.8639 5.18005C9.88368 5.19983 9.9105 5.21094 9.93848 5.21094Z" fill="white"/>
<path id="Vector_118" d="M9.9379 5.21223C9.95354 5.21528 9.96966 5.21484 9.98511 5.21092C10.0006 5.207 10.015 5.19971 10.0273 5.18957C10.0396 5.17943 10.0495 5.16669 10.0563 5.15227C10.0631 5.13784 10.0666 5.12209 10.0666 5.10614C10.0666 5.09019 10.0631 5.07444 10.0563 5.06001C10.0495 5.04559 10.0396 5.03285 10.0273 5.02271C10.015 5.01257 10.0006 5.00527 9.98511 5.00136C9.96966 4.99744 9.95354 4.99699 9.9379 5.00005C9.91331 5.00485 9.89115 5.01806 9.87522 5.03742C9.8593 5.05677 9.85059 5.08106 9.85059 5.10614C9.85059 5.13121 9.8593 5.15551 9.87522 5.17486C9.89115 5.19422 9.91331 5.20743 9.9379 5.21223Z" stroke="black" stroke-width="1.13826"/>
<path id="Vector_119" d="M9.68926 4.85508C9.7177 4.85508 9.74497 4.84378 9.76508 4.82367C9.78519 4.80356 9.79648 4.77629 9.79648 4.74785C9.79648 4.71941 9.78519 4.69214 9.76508 4.67203C9.74497 4.65192 9.7177 4.64062 9.68926 4.64062C9.66082 4.64062 9.63355 4.65192 9.61344 4.67203C9.59333 4.69214 9.58203 4.71941 9.58203 4.74785C9.58203 4.77629 9.59333 4.80356 9.61344 4.82367C9.63355 4.84378 9.66082 4.85508 9.68926 4.85508Z" fill="white"/>
<path id="Vector_120" d="M9.69003 4.85486C9.71867 4.85486 9.74615 4.84347 9.7664 4.8232C9.78665 4.80293 9.79803 4.77543 9.79803 4.74676C9.79803 4.7181 9.78665 4.6906 9.7664 4.67033C9.74615 4.65006 9.71867 4.63867 9.69003 4.63867C9.66139 4.63867 9.63392 4.65006 9.61366 4.67033C9.59341 4.6906 9.58203 4.7181 9.58203 4.74676C9.58203 4.77543 9.59341 4.80293 9.61366 4.8232C9.63392 4.84347 9.66139 4.85486 9.69003 4.85486Z" stroke="black" stroke-width="1.13826"/>
<path id="Vector_121" d="M9.84375 5C9.87172 5 9.89855 4.98889 9.91833 4.96911C9.93811 4.94933 9.94922 4.9225 9.94922 4.89453C9.94922 4.86656 9.93811 4.83973 9.91833 4.81995C9.89855 4.80017 9.87172 4.78906 9.84375 4.78906C9.81578 4.78906 9.78895 4.80017 9.76917 4.81995C9.74939 4.83973 9.73828 4.86656 9.73828 4.89453C9.73828 4.9225 9.74939 4.94933 9.76917 4.96911C9.78895 4.98889 9.81578 5 9.84375 5Z" fill="white"/>
<path id="Vector_122" d="M9.84219 4.99934C9.85784 5.00239 9.87396 5.00195 9.88941 4.99803C9.90486 4.99411 9.91925 4.98682 9.93155 4.97668C9.94385 4.96654 9.95376 4.9538 9.96056 4.93938C9.96736 4.92495 9.97088 4.9092 9.97088 4.89325C9.97088 4.8773 9.96736 4.86155 9.96056 4.84712C9.95376 4.8327 9.94385 4.81996 9.93155 4.80982C9.91925 4.79967 9.90486 4.79238 9.88941 4.78847C9.87396 4.78455 9.85784 4.7841 9.84219 4.78716C9.81761 4.79196 9.79545 4.80517 9.77952 4.82453C9.76359 4.84388 9.75488 4.86817 9.75488 4.89325C9.75488 4.91832 9.76359 4.94262 9.77952 4.96197C9.79545 4.98133 9.81761 4.99454 9.84219 4.99934Z" stroke="black" stroke-width="1.13826"/>
<path id="Vector_123" d="M8.83887 6.5957L8.55762 6.73984L8.81074 6.90156L9.10957 6.75039L8.83887 6.5957Z" fill="white"/>
<path id="Vector_124" d="M8.83762 6.59766L8.55762 6.74178L8.80962 6.90192L9.10962 6.74979L8.83762 6.59766Z" stroke="black" stroke-width="0.569132"/>
<path id="Vector_125" d="M8.2228 6.63086L7.80093 6.69414C7.80093 6.69414 7.7939 6.92266 7.81499 6.97539L8.25093 6.91914C8.25093 6.91914 8.26851 6.7082 8.2228 6.63086Z" fill="white"/>
<path id="Vector_126" d="M8.22139 6.62891L7.80139 6.69296C7.80139 6.69296 7.79338 6.92116 7.81338 6.9732L8.24939 6.91715C8.24939 6.91715 8.26939 6.70497 8.22139 6.62891Z" stroke="black" stroke-width="0.569132"/>
<path id="Vector_127" d="M8.17773 6.70703C8.17773 6.70703 7.92109 6.73164 7.86133 6.75625V6.90742C7.86133 6.90742 8.03008 6.8793 8.18125 6.86875L8.17773 6.70703Z" fill="#058E6E" fill-opacity="0.9"/>
<path id="Vector_128" d="M8.17742 6.70898C8.17742 6.70898 7.92142 6.733 7.85742 6.75703V6.90916C7.85742 6.90916 8.02942 6.88113 8.18142 6.86912L8.17742 6.70898Z" stroke="black" stroke-width="0.569132"/>
<path id="Vector_129" d="M9.4257 6.63672L9.84758 6.70703C9.84758 6.70703 9.85461 6.93203 9.83352 6.98477L9.40109 6.92852C9.40109 6.92852 9.38351 6.71758 9.4257 6.64023" fill="white"/>
<path id="Vector_130" d="M9.426 6.63672L9.85 6.70478C9.85 6.70478 9.854 6.93297 9.834 6.98502L9.402 6.92897C9.402 6.92897 9.382 6.71679 9.426 6.64072V6.63672Z" stroke="black" stroke-width="0.569132"/>
<path id="Vector_131" d="M9.47871 6.72266C9.47871 6.72266 9.73184 6.74727 9.79512 6.76836L9.7916 6.92305C9.7916 6.92305 9.62285 6.89492 9.47168 6.88086V6.72266" fill="#058E6E" fill-opacity="0.9"/>
<path id="Vector_132" d="M9.47773 6.7207C9.47773 6.7207 9.72973 6.74472 9.79373 6.76874L9.78973 6.92087C9.78973 6.92087 9.62173 6.89285 9.46973 6.88084L9.47373 6.7207" stroke="black" stroke-width="0.569132"/>
<path id="Vector_133" d="M7.16602 6.82974C7.16602 6.82974 8.64602 6.28127 10.534 6.87778M7.22602 7.14601C7.22602 7.14601 8.66202 6.60955 10.426 7.17003M7.23402 6.80972L7.52202 6.89379L7.32202 7.10998" stroke="black" stroke-width="0.569132"/>
<path id="Vector_134" d="M7.23887 7.0668L7.40762 6.92969L7.21777 6.89453C7.21777 6.89453 7.24238 6.92266 7.23887 6.95078V7.0668Z" fill="#FF0000"/>
<path id="Vector_135" d="M10.5018 6.86523L10.1938 6.92128L10.4018 7.16149M7.23777 7.06941L7.40577 6.92929L7.21777 6.89326C7.21777 6.89326 7.24177 6.92128 7.23777 6.94931V7.06941Z" stroke="black" stroke-width="0.569132"/>
<path id="Vector_136" d="M10.41 7.07656L10.2939 6.95703L10.4627 6.93945C10.4627 6.93945 10.4135 6.96758 10.4135 6.9957C10.4135 7.02031 10.4205 7.05547 10.4135 7.07656" fill="#FF0000"/>
<path id="Vector_137" d="M10.4095 7.07651L10.2935 6.95641L10.4615 6.9404C10.4615 6.9404 10.4135 6.96842 10.4135 6.99644C10.4135 7.02046 10.4215 7.05649 10.4135 7.07651H10.4095ZM7.60952 6.8283C7.63352 6.8283 7.65752 6.81229 7.65752 6.78827C7.65752 6.77225 7.63352 6.75223 7.60952 6.75223C7.58152 6.75223 7.56152 6.77225 7.56152 6.79227C7.56152 6.81229 7.58152 6.8323 7.60952 6.8323V6.8283ZM8.43352 6.73622C8.46152 6.73622 8.48153 6.72021 8.48153 6.69619C8.48153 6.67617 8.46152 6.66016 8.43352 6.66016C8.40552 6.66016 8.38553 6.67617 8.38553 6.70019C8.38553 6.72021 8.40552 6.73622 8.43352 6.73622ZM8.43352 6.86833C8.46152 6.86833 8.48153 6.85232 8.48153 6.8323C8.48153 6.81229 8.46152 6.79227 8.43352 6.79227C8.40552 6.79227 8.38553 6.81229 8.38553 6.8323C8.38553 6.85232 8.40552 6.87234 8.43352 6.87234V6.86833ZM9.24553 6.74423C9.26953 6.74423 9.29353 6.72421 9.29353 6.70419C9.29353 6.68418 9.26953 6.66416 9.24553 6.66416C9.21753 6.66416 9.19753 6.68418 9.19753 6.70419C9.19753 6.72421 9.21753 6.74423 9.24553 6.74423ZM10.0495 6.89235C10.0775 6.89235 10.0975 6.87234 10.0975 6.85232C10.0975 6.8323 10.0775 6.81229 10.0495 6.81229C10.0215 6.81229 10.0015 6.8323 10.0015 6.85232C10.0015 6.87234 10.0215 6.89235 10.0495 6.89235ZM10.0375 6.99644C10.0615 6.99644 10.0855 6.98043 10.0855 6.95641C10.0855 6.9404 10.0615 6.92038 10.0375 6.92038C10.0095 6.92038 9.98953 6.9404 9.98953 6.96041C9.98953 6.98043 10.0095 7.00045 10.0375 7.00045V6.99644ZM9.24553 6.87634C9.26953 6.87634 9.29353 6.86033 9.29353 6.83631C9.29353 6.81629 9.26953 6.80028 9.24553 6.80028C9.21753 6.80028 9.19753 6.81629 9.19753 6.84031C9.19753 6.86033 9.21753 6.88034 9.24553 6.88034V6.87634ZM7.64552 6.99644C7.67352 6.99644 7.69752 6.98043 7.69752 6.95641C7.69752 6.9404 7.67352 6.92038 7.64952 6.92038C7.62152 6.92038 7.60152 6.9404 7.60152 6.96041C7.60152 6.98043 7.62152 7.00045 7.64952 7.00045L7.64552 6.99644Z" stroke="black" stroke-width="0.569132"/>
<path id="Vector_138" d="M7.13997 6.39844C7.13997 6.39844 7.147 6.68672 7.33333 6.64453C7.51966 6.60234 7.50208 6.37031 7.51262 6.35625C7.5302 6.3457 7.54778 6.3457 7.54778 6.3457C7.54778 6.3457 7.57239 6.57422 7.74817 6.54609C7.92395 6.51797 7.91692 6.23672 7.89583 6.1875L7.93802 6.17695C7.93802 6.17695 8.00833 6.50391 8.2052 6.4582C8.40559 6.40898 8.3845 6.20156 8.3845 6.20156H8.40208C8.40208 6.20156 8.44427 6.42305 8.6095 6.40898C8.7677 6.39844 8.80286 6.3457 8.78177 6.1207L8.88723 6.09961C8.88723 6.09961 8.85208 6.41953 9.04544 6.41953C9.2388 6.40898 9.24583 6.25781 9.25637 6.22969H9.29153C9.29153 6.22969 9.29856 6.4582 9.46028 6.4582C9.622 6.4582 9.65364 6.26484 9.65364 6.1875L9.81184 6.19805C9.81184 6.19805 9.64661 6.49687 9.88919 6.53555C10.1282 6.57773 10.1353 6.3457 10.1353 6.3457H10.1845C10.1845 6.3457 10.1775 6.64453 10.3111 6.65156C10.4447 6.65859 10.5255 6.61289 10.5361 6.38789L10.6134 6.41602C10.6134 6.41602 10.5501 6.77812 10.297 6.71133C10.1669 6.67617 10.1212 6.525 10.1283 6.48633C10.1283 6.48633 10.0368 6.65156 9.85403 6.59531C9.67473 6.54609 9.69231 6.41953 9.69231 6.37734C9.69231 6.37734 9.58684 6.57773 9.43216 6.53203C9.29856 6.49336 9.24583 6.44414 9.24583 6.34922C9.24583 6.34922 9.17552 6.50391 9.04544 6.49688C8.90833 6.49336 8.84505 6.40898 8.8345 6.33516C8.8345 6.33516 8.80989 6.4793 8.63059 6.49336C8.51106 6.49687 8.44075 6.43711 8.41262 6.35625C8.41262 6.35625 8.37747 6.50039 8.2052 6.525C8.09973 6.53555 7.99075 6.47578 7.96614 6.37734C7.96614 6.37734 7.93802 6.57422 7.76575 6.59531C7.58997 6.62344 7.54778 6.50391 7.54778 6.50391C7.54778 6.50391 7.51262 6.65859 7.372 6.69375C7.23137 6.72539 7.13997 6.66563 7.10481 6.525C7.07317 6.38438 7.08372 6.32461 7.08372 6.32461L7.13997 6.39844Z" fill="#FFCC00"/>
<path id="Vector_139" d="M7.14219 6.39586C7.14219 6.39586 7.14619 6.68411 7.33419 6.64407C7.52219 6.60404 7.50219 6.36784 7.51419 6.35583C7.53019 6.34382 7.55019 6.34382 7.55019 6.34382C7.55019 6.34382 7.57419 6.57201 7.75019 6.54399C7.92619 6.51596 7.91819 6.23573 7.89819 6.18768L7.93819 6.17567C7.93819 6.17567 8.00619 6.50395 8.20619 6.45591C8.40619 6.40787 8.38619 6.19969 8.38619 6.19969H8.40219C8.40219 6.19969 8.44619 6.42389 8.61019 6.40787C8.77019 6.39586 8.80219 6.34382 8.78219 6.11963L8.89019 6.09961C8.89019 6.09961 8.85019 6.41988 9.04619 6.41988C9.23819 6.40787 9.24619 6.25574 9.25819 6.22772H9.29019C9.29019 6.22772 9.29819 6.45591 9.46219 6.45591C9.62219 6.45591 9.65419 6.26375 9.65419 6.18768L9.81419 6.19569C9.81419 6.19569 9.64619 6.49595 9.89019 6.53598C10.1302 6.57602 10.1382 6.34382 10.1382 6.34382H10.1862C10.1862 6.34382 10.1782 6.64407 10.3102 6.65208C10.4462 6.65608 10.5262 6.61205 10.5382 6.38786L10.6142 6.41588C10.6142 6.41588 10.5502 6.77619 10.2982 6.71213C10.1662 6.6761 10.1222 6.52397 10.1302 6.48394C10.1302 6.48394 10.0382 6.65208 9.85419 6.59603C9.67419 6.54399 9.69419 6.41588 9.69419 6.37584C9.69419 6.37584 9.58619 6.57602 9.43419 6.53198C9.29819 6.49194 9.24619 6.4439 9.24619 6.34782C9.24619 6.34782 9.17819 6.50395 9.04619 6.49595C8.91019 6.49194 8.84619 6.40787 8.83819 6.33581C8.83819 6.33581 8.81019 6.47993 8.63019 6.49194C8.51019 6.49595 8.44219 6.4359 8.41419 6.35583C8.41419 6.35583 8.37819 6.49995 8.20619 6.52397C8.09819 6.53598 7.99019 6.47593 7.96619 6.37584C7.96619 6.37584 7.93819 6.57201 7.76619 6.59603C7.59019 6.62406 7.55019 6.50395 7.55019 6.50395C7.55019 6.50395 7.51419 6.65608 7.37419 6.69211C7.23419 6.72414 7.14219 6.66409 7.10619 6.52397C7.07419 6.38385 7.08619 6.3238 7.08619 6.3238L7.14219 6.39586Z" fill="#BCAC0B" stroke="black" stroke-width="0.796785"/>
<path id="Vector_140" d="M7.53078 6.40859C7.54134 6.41207 7.55257 6.41298 7.56356 6.41127C7.57454 6.40956 7.58496 6.40527 7.59397 6.39875C7.60297 6.39223 7.6103 6.38367 7.61536 6.37377C7.62041 6.36387 7.62305 6.35291 7.62305 6.3418C7.62305 6.33068 7.62041 6.31972 7.61536 6.30982C7.6103 6.29992 7.60297 6.29136 7.59397 6.28484C7.58496 6.27832 7.57454 6.27403 7.56356 6.27232C7.55257 6.27061 7.54134 6.27153 7.53078 6.275C7.51671 6.27962 7.50446 6.28857 7.49578 6.30057C7.4871 6.31256 7.48242 6.32699 7.48242 6.3418C7.48242 6.3566 7.4871 6.37103 7.49578 6.38303C7.50446 6.39502 7.51671 6.40397 7.53078 6.40859Z" fill="#FFCC00"/>
<path id="Vector_141" d="M7.53014 6.40951C7.54016 6.41199 7.55062 6.41216 7.56071 6.41001C7.57081 6.40785 7.58028 6.40342 7.58841 6.39705C7.59654 6.39069 7.60312 6.38255 7.60764 6.37327C7.61217 6.36398 7.61452 6.35378 7.61452 6.34345C7.61452 6.33312 7.61217 6.32292 7.60764 6.31363C7.60312 6.30434 7.59654 6.29621 7.58841 6.28984C7.58028 6.28348 7.57081 6.27905 7.56071 6.27689C7.55062 6.27473 7.54016 6.2749 7.53014 6.27739C7.5154 6.28105 7.50231 6.28954 7.49296 6.30152C7.4836 6.31349 7.47852 6.32825 7.47852 6.34345C7.47852 6.35865 7.4836 6.37341 7.49296 6.38538C7.50231 6.39735 7.5154 6.40585 7.53014 6.40951Z" fill="#BCAC0B" stroke="black" stroke-width="0.796785"/>
<path id="Vector_142" d="M8.40285 6.26797C8.41341 6.27144 8.42464 6.27236 8.43563 6.27065C8.44661 6.26894 8.45703 6.26464 8.46604 6.25813C8.47504 6.25161 8.48237 6.24305 8.48743 6.23315C8.49248 6.22325 8.49512 6.21229 8.49512 6.20117C8.49512 6.19006 8.49248 6.1791 8.48743 6.1692C8.48237 6.1593 8.47504 6.15074 8.46604 6.14422C8.45703 6.1377 8.44661 6.13341 8.43563 6.1317C8.42464 6.12999 8.41341 6.1309 8.40285 6.13438C8.38878 6.139 8.37653 6.14795 8.36785 6.15994C8.35917 6.17193 8.35449 6.18636 8.35449 6.20117C8.35449 6.21598 8.35917 6.23041 8.36785 6.2424C8.37653 6.2544 8.38878 6.26335 8.40285 6.26797Z" fill="#FFCC00"/>
<path id="Vector_143" d="M8.40222 6.26888C8.41224 6.27137 8.42269 6.27154 8.43278 6.26938C8.44288 6.26722 8.45235 6.26279 8.46048 6.25643C8.46861 6.25006 8.47519 6.24193 8.47971 6.23264C8.48424 6.22335 8.48659 6.21316 8.48659 6.20282C8.48659 6.19249 8.48424 6.1823 8.47971 6.17301C8.47519 6.16372 8.46861 6.15558 8.46048 6.14922C8.45235 6.14285 8.44288 6.13842 8.43278 6.13627C8.42269 6.13411 8.41224 6.13428 8.40222 6.13677C8.38748 6.14043 8.37438 6.14892 8.36503 6.16089C8.35567 6.17286 8.35059 6.18762 8.35059 6.20282C8.35059 6.21802 8.35567 6.23279 8.36503 6.24476C8.37438 6.25673 8.38748 6.26522 8.40222 6.26888Z" fill="#BCAC0B" stroke="black" stroke-width="0.796785"/>
<path id="Vector_144" d="M9.28859 6.29727C9.29915 6.30074 9.31039 6.30165 9.32137 6.29994C9.33235 6.29823 9.34277 6.29394 9.35178 6.28742C9.36078 6.2809 9.36811 6.27234 9.37317 6.26244C9.37822 6.25254 9.38086 6.24158 9.38086 6.23047C9.38086 6.21935 9.37822 6.20839 9.37317 6.19849C9.36811 6.18859 9.36078 6.18003 9.35178 6.17351C9.34277 6.167 9.33235 6.16271 9.32137 6.16099C9.31039 6.15928 9.29915 6.1602 9.28859 6.16367C9.27453 6.1683 9.26228 6.17724 9.25359 6.18924C9.24491 6.20123 9.24023 6.21566 9.24023 6.23047C9.24023 6.24528 9.24491 6.25971 9.25359 6.2717C9.26228 6.2837 9.27453 6.29264 9.28859 6.29727Z" fill="#FFCC00"/>
<path id="Vector_145" d="M9.28991 6.29622C9.29993 6.29871 9.31038 6.29888 9.32048 6.29673C9.33058 6.29457 9.34005 6.29014 9.34818 6.28377C9.35631 6.27741 9.36289 6.26927 9.36741 6.25998C9.37193 6.2507 9.37428 6.2405 9.37428 6.23017C9.37428 6.21984 9.37193 6.20964 9.36741 6.20035C9.36289 6.19106 9.35631 6.18293 9.34818 6.17656C9.34005 6.1702 9.33058 6.16577 9.32048 6.16361C9.31038 6.16145 9.29993 6.16162 9.28991 6.16411C9.27517 6.16777 9.26208 6.17626 9.25272 6.18823C9.24336 6.20021 9.23828 6.21497 9.23828 6.23017C9.23828 6.24537 9.24336 6.26013 9.25272 6.2721C9.26208 6.28407 9.27517 6.29256 9.28991 6.29622Z" fill="#BCAC0B" stroke="black" stroke-width="0.796785"/>
<path id="Vector_146" d="M10.1675 6.43418C10.1782 6.43857 10.1898 6.44026 10.2013 6.4391C10.2127 6.43794 10.2238 6.43397 10.2334 6.42755C10.243 6.42112 10.2508 6.41243 10.2562 6.40224C10.2617 6.39205 10.2645 6.38069 10.2645 6.36914C10.2645 6.3576 10.2617 6.34623 10.2562 6.33604C10.2508 6.32585 10.243 6.31716 10.2334 6.31074C10.2238 6.30431 10.2127 6.30034 10.2013 6.29918C10.1898 6.29803 10.1782 6.29971 10.1675 6.3041C10.1534 6.30873 10.1412 6.31767 10.1325 6.32967C10.1238 6.34166 10.1191 6.35609 10.1191 6.3709C10.1191 6.38571 10.1238 6.40014 10.1325 6.41213C10.1412 6.42412 10.1534 6.43307 10.1675 6.4377" fill="#FFCC00"/>
<path id="Vector_147" d="M10.1659 6.43685C10.1759 6.43934 10.1864 6.43951 10.1965 6.43735C10.2066 6.43519 10.216 6.43076 10.2242 6.4244C10.2323 6.41803 10.2389 6.4099 10.2434 6.40061C10.2479 6.39132 10.2503 6.38112 10.2503 6.37079C10.2503 6.36046 10.2479 6.35026 10.2434 6.34098C10.2389 6.33169 10.2323 6.32355 10.2242 6.31719C10.216 6.31082 10.2066 6.30639 10.1965 6.30423C10.1864 6.30208 10.1759 6.30225 10.1659 6.30474C10.1511 6.3084 10.1381 6.31689 10.1287 6.32886C10.1193 6.34083 10.1143 6.35559 10.1143 6.37079C10.1143 6.38599 10.1193 6.40075 10.1287 6.41273C10.1381 6.4247 10.1511 6.43319 10.1659 6.43685Z" fill="#BCAC0B" stroke="black" stroke-width="0.796785"/>
<path id="Vector_148" d="M8.80664 6.19727H8.74688C8.7293 6.25703 8.60273 6.29219 8.60273 6.29219C8.58516 6.24297 8.62031 6.17617 8.62031 6.17617C8.47266 6.13398 8.47266 6.08828 8.47266 6.08828C8.49375 6.03555 8.63438 6.02852 8.63438 6.02852C8.59219 5.98281 8.59922 5.90898 8.59922 5.90898C8.69414 5.91602 8.76797 6.00742 8.76797 6.00742C8.76797 6.00742 8.67656 5.9582 8.69062 5.79648C8.69062 5.79648 8.73633 5.79648 8.76797 5.83164C8.76797 5.83164 8.76797 5.65586 8.8418 5.63477H8.84883C8.91914 5.65586 8.91914 5.83164 8.91914 5.83164C8.9543 5.79648 9 5.79648 9 5.79648C9.01406 5.9582 8.92266 6.00742 8.92266 6.00742C8.92266 6.00742 8.99648 5.91602 9.09141 5.9125C9.09141 5.9125 9.09141 5.98281 9.06328 6.03203C9.06328 6.03203 9.19687 6.03555 9.22148 6.08828C9.22148 6.08828 9.22148 6.14102 9.07031 6.17617C9.07031 6.17617 9.10195 6.24648 9.09141 6.2957C9.09141 6.2957 8.95781 6.25703 8.94727 6.19727H8.80664Z" fill="#FFCC00"/>
<path id="Vector_149" d="M8.80563 6.1972H8.74563C8.72963 6.25725 8.60163 6.29328 8.60163 6.29328C8.58563 6.24524 8.62163 6.17718 8.62163 6.17718C8.47363 6.13715 8.47363 6.08911 8.47363 6.08911C8.49363 6.03706 8.63363 6.02905 8.63363 6.02905C8.59363 5.98502 8.60163 5.90895 8.60163 5.90895C8.69363 5.91696 8.76963 6.00904 8.76963 6.00904C8.76963 6.00904 8.67763 5.961 8.68963 5.80086C8.68963 5.80086 8.73763 5.80086 8.76963 5.83289C8.76963 5.83289 8.76963 5.65674 8.84163 5.63672H8.84963C8.92163 5.65674 8.92163 5.83289 8.92163 5.83289C8.95363 5.79686 9.00163 5.80086 9.00163 5.80086C9.01363 5.961 8.92163 6.00904 8.92163 6.00904C8.92163 6.00904 8.99763 5.91696 9.08963 5.91295C9.08963 5.91295 9.09363 5.98502 9.06163 6.03306C9.06163 6.03306 9.19763 6.03706 9.22163 6.08911C9.22163 6.08911 9.22163 6.14115 9.06963 6.17718C9.06963 6.17718 9.10163 6.24524 9.08963 6.29728C9.08963 6.29728 8.95763 6.25725 8.94563 6.1972H8.80563Z" fill="#BCAC0B" stroke="black" stroke-width="0.796785"/>
<path id="Vector_150" d="M8.83809 6.22891C8.87025 6.22891 8.9011 6.21613 8.92385 6.19338C8.9466 6.17064 8.95938 6.13978 8.95938 6.10762C8.95938 6.07545 8.9466 6.0446 8.92385 6.02185C8.9011 5.99911 8.87025 5.98633 8.83809 5.98633C8.80592 5.98633 8.77507 5.99911 8.75232 6.02185C8.72958 6.0446 8.7168 6.07545 8.7168 6.10762C8.7168 6.13978 8.72958 6.17064 8.75232 6.19338C8.77507 6.21613 8.80592 6.22891 8.83809 6.22891Z" fill="white"/>
<path id="Vector_151" d="M8.83777 6.22849C8.8696 6.22849 8.90012 6.21583 8.92263 6.19331C8.94513 6.17079 8.95777 6.14024 8.95777 6.10838C8.95777 6.07653 8.94513 6.04598 8.92263 6.02346C8.90012 6.00093 8.8696 5.98828 8.83777 5.98828C8.80595 5.98828 8.77543 6.00093 8.75292 6.02346C8.73042 6.04598 8.71777 6.07653 8.71777 6.10838C8.71777 6.14024 8.73042 6.17079 8.75292 6.19331C8.77543 6.21583 8.80595 6.22849 8.83777 6.22849Z" stroke="black" stroke-width="0.455306"/>
<path id="Vector_152" d="M8.83887 6.17793C8.84917 6.18028 8.85986 6.18027 8.87016 6.17792C8.88045 6.17557 8.89008 6.17093 8.89834 6.16434C8.9066 6.15775 8.91326 6.14939 8.91784 6.13988C8.92243 6.13036 8.9248 6.11994 8.9248 6.10938C8.9248 6.09881 8.92243 6.08839 8.91784 6.07887C8.91326 6.06936 8.9066 6.061 8.89834 6.05441C8.89008 6.04782 8.88045 6.04318 8.87016 6.04083C8.85986 6.03848 8.84917 6.03847 8.83887 6.04082C8.82333 6.04436 8.80946 6.05307 8.79953 6.06553C8.78959 6.07798 8.78418 6.09344 8.78418 6.10938C8.78418 6.12531 8.78959 6.14077 8.79953 6.15322C8.80946 6.16568 8.82333 6.17439 8.83887 6.17793Z" fill="white"/>
<path id="Vector_153" d="M8.83753 6.17713C8.85557 6.17713 8.87286 6.16996 8.88562 6.1572C8.89837 6.14443 8.90553 6.12712 8.90553 6.10907C8.90553 6.09102 8.89837 6.07371 8.88562 6.06095C8.87286 6.04819 8.85557 6.04102 8.83753 6.04102C8.8195 6.04102 8.8022 6.04819 8.78945 6.06095C8.7767 6.07371 8.76953 6.09102 8.76953 6.10907C8.76953 6.12712 8.7767 6.14443 8.78945 6.1572C8.8022 6.16996 8.8195 6.17713 8.83753 6.17713Z" stroke="black" stroke-width="0.341479"/>
<path id="Vector_154" d="M9.76291 6.27461L9.82267 6.28867C9.82267 6.34844 9.9422 6.41172 9.9422 6.41172C9.96681 6.37305 9.94572 6.2957 9.94572 6.2957C10.1004 6.29219 10.111 6.23945 10.111 6.23945C10.1004 6.1832 9.97033 6.14805 9.97033 6.14805C10.009 6.11289 10.0231 6.04258 10.0231 6.04258C9.92814 6.025 9.83674 6.09531 9.83674 6.09531C9.83674 6.09531 9.93869 6.0707 9.95627 5.9125C9.95627 5.9125 9.91408 5.89844 9.87892 5.92305C9.87892 5.92305 9.91408 5.7543 9.84377 5.72266H9.83674C9.76291 5.72266 9.72424 5.89141 9.72424 5.89141C9.70314 5.85273 9.65392 5.84922 9.65392 5.84922C9.60822 6.00039 9.68908 6.06367 9.68908 6.06367C9.68908 6.06367 9.63283 5.9582 9.54845 5.93711C9.54845 5.93711 9.52736 6.00742 9.54845 6.05664C9.54845 6.05664 9.41486 6.03555 9.38322 6.08125C9.38322 6.08125 9.36916 6.13047 9.50627 6.20078C9.50627 6.20078 9.46056 6.26055 9.46408 6.31328C9.46408 6.31328 9.59767 6.29922 9.6258 6.24297L9.68556 6.25703L9.76642 6.27109" fill="#FFCC00"/>
<g id="Vector_155">
<path d="M9.76211 6.27718L9.82211 6.28919C9.82211 6.34924 9.94211 6.41329 9.94211 6.41329C9.96611 6.37326 9.94611 6.2972 9.94611 6.2972C10.1021 6.29319 10.1101 6.24115 10.1101 6.24115C10.1021 6.1851 9.97011 6.14907 9.97011 6.14907C10.0101 6.11304 10.0221 6.04098 10.0221 6.04098C9.93011 6.02496 9.83811 6.09702 9.83811 6.09702C9.83811 6.09702 9.93811 6.073 9.95811 5.91287C9.95811 5.91287 9.91411 5.90086 9.87811 5.92488C9.87811 5.92488 9.91411 5.75673 9.84611 5.72471L9.83811 5.7207C9.76211 5.7207 9.72611 5.89285 9.72611 5.89285C9.70211 5.85282 9.65411 5.84881 9.65411 5.84881C9.61011 6.00094 9.69011 6.065 9.69011 6.065C9.69011 6.065 9.63411 5.96091 9.54611 5.93689C9.54611 5.93689 9.52611 6.00895 9.54611 6.05699C9.54611 6.05699 9.41411 6.03697 9.38211 6.08101C9.38211 6.08101 9.37011 6.13306 9.50611 6.20111C9.50611 6.20111 9.46211 6.26116 9.46611 6.31321C9.46611 6.31321 9.59811 6.3012 9.62611 6.24515L9.68611 6.25716L9.76611 6.27317" fill="#BCAC0B"/>
<path d="M9.76211 6.27718L9.82211 6.28919C9.82211 6.34924 9.94211 6.41329 9.94211 6.41329C9.96611 6.37326 9.94611 6.2972 9.94611 6.2972C10.1021 6.29319 10.1101 6.24115 10.1101 6.24115C10.1021 6.1851 9.97011 6.14907 9.97011 6.14907C10.0101 6.11304 10.0221 6.04098 10.0221 6.04098C9.93011 6.02496 9.83811 6.09702 9.83811 6.09702C9.83811 6.09702 9.93811 6.073 9.95811 5.91287C9.95811 5.91287 9.91411 5.90086 9.87811 5.92488C9.87811 5.92488 9.91411 5.75673 9.84611 5.72471L9.83811 5.7207C9.76211 5.7207 9.72611 5.89285 9.72611 5.89285C9.70211 5.85282 9.65411 5.84881 9.65411 5.84881C9.61011 6.00094 9.69011 6.065 9.69011 6.065C9.69011 6.065 9.63411 5.96091 9.54611 5.93689C9.54611 5.93689 9.52611 6.00895 9.54611 6.05699C9.54611 6.05699 9.41411 6.03697 9.38211 6.08101C9.38211 6.08101 9.37011 6.13306 9.50611 6.20111C9.50611 6.20111 9.46211 6.26116 9.46611 6.31321C9.46611 6.31321 9.59811 6.3012 9.62611 6.24515L9.68611 6.25716L9.76611 6.27317" stroke="black" stroke-width="0.796785"/>
</g>
<path id="Vector_156" d="M9.71781 6.29907C9.70122 6.29627 9.68539 6.2901 9.67128 6.28094C9.65717 6.27178 9.64509 6.25982 9.63578 6.24581C9.62648 6.2318 9.62014 6.21603 9.61717 6.19947C9.6142 6.18292 9.61465 6.16593 9.61851 6.14955C9.62236 6.13318 9.62953 6.11777 9.63957 6.10427C9.64961 6.09078 9.66231 6.07949 9.67689 6.0711C9.69147 6.0627 9.70761 6.05739 9.72433 6.05548C9.74104 6.05357 9.75796 6.05511 9.77406 6.06C9.80298 6.06957 9.82733 6.08952 9.84239 6.11599C9.85745 6.14247 9.86215 6.17359 9.85559 6.20334C9.84903 6.23308 9.83167 6.25934 9.80687 6.27702C9.78206 6.2947 9.75158 6.30256 9.72132 6.29907" fill="white"/>
<path id="Vector_157" d="M9.71827 6.30007C9.70251 6.29639 9.68763 6.28964 9.67448 6.28021C9.66133 6.27077 9.65016 6.25883 9.64162 6.24508C9.63308 6.23132 9.62732 6.21602 9.62469 6.20004C9.62206 6.18406 9.62259 6.16772 9.62627 6.15194C9.62995 6.13617 9.63669 6.12128 9.64612 6.10812C9.65555 6.09495 9.66747 6.08378 9.68122 6.07523C9.69496 6.06668 9.71025 6.06092 9.72622 6.05828C9.74218 6.05565 9.75851 6.05619 9.77427 6.05987C9.8061 6.06677 9.83388 6.08604 9.85151 6.11344C9.86914 6.14085 9.87517 6.17414 9.86827 6.20599C9.86137 6.23784 9.84212 6.26565 9.81474 6.28329C9.78736 6.30094 9.7541 6.30697 9.72227 6.30007H9.71827Z" stroke="black" stroke-width="0.455306"/>
<path id="Vector_158" d="M9.7347 6.24757C9.72359 6.24887 9.71234 6.2475 9.70187 6.24357C9.69139 6.23964 9.68201 6.23327 9.67449 6.22499C9.66698 6.2167 9.66155 6.20675 9.65865 6.19595C9.65575 6.18514 9.65547 6.17381 9.65784 6.16288C9.6602 6.15194 9.66514 6.14173 9.67224 6.13309C9.67934 6.12445 9.6884 6.11763 9.69867 6.11319C9.70893 6.10876 9.72011 6.10683 9.73127 6.10758C9.74243 6.10833 9.75325 6.11173 9.76283 6.1175C9.7754 6.12506 9.78528 6.13637 9.7911 6.14984C9.79692 6.1633 9.79839 6.17825 9.79529 6.19259C9.79219 6.20693 9.78468 6.21994 9.77381 6.2298C9.76295 6.23966 9.74927 6.24588 9.7347 6.24757Z" fill="white"/>
<path id="Vector_159" d="M9.73418 6.24916C9.72456 6.24835 9.71523 6.2455 9.7068 6.24081C9.69838 6.23611 9.69104 6.22967 9.68529 6.22192C9.67954 6.21417 9.6755 6.20529 9.67344 6.19586C9.67138 6.18642 9.67135 6.17666 9.67335 6.16722C9.67536 6.15777 9.67934 6.14886 9.68505 6.14108C9.69076 6.13329 9.69805 6.12681 9.70645 6.12207C9.71485 6.11732 9.72417 6.11442 9.73377 6.11356C9.74338 6.11269 9.75306 6.11388 9.76218 6.11705C9.77782 6.12248 9.79095 6.13345 9.79909 6.14789C9.80724 6.16233 9.80983 6.17924 9.80639 6.19546C9.80296 6.21168 9.79372 6.22608 9.78043 6.23597C9.76713 6.24586 9.75068 6.25055 9.73418 6.24916Z" stroke="black" stroke-width="0.341479"/>
<path id="Vector_160" d="M7.88906 6.25703L7.8293 6.26758C7.82227 6.33086 7.69922 6.38711 7.69922 6.38711C7.67812 6.34141 7.69922 6.26758 7.69922 6.26758C7.54805 6.25352 7.54102 6.19727 7.54102 6.19727C7.55859 6.14805 7.69219 6.11992 7.69219 6.11992C7.65352 6.08125 7.65 6.00742 7.65 6.00742C7.73789 6.00039 7.82578 6.07773 7.82578 6.07773C7.82578 6.07773 7.73086 6.04609 7.72031 5.88789C7.72031 5.88789 7.76953 5.87383 7.80117 5.90195C7.80117 5.90195 7.78008 5.72969 7.85039 5.70508H7.85742C7.93477 5.71211 7.95234 5.88086 7.95234 5.88086C7.98047 5.8457 8.0332 5.8457 8.0332 5.8457C8.06133 6.00391 7.97695 6.05664 7.97695 6.05664C7.97695 6.05664 8.04023 5.9582 8.12812 5.94062C8.12812 5.94062 8.1457 6.01445 8.11758 6.06367C8.11758 6.06367 8.25469 6.05313 8.28281 6.10234C8.28281 6.10234 8.28984 6.15156 8.1457 6.20781C8.1457 6.20781 8.18437 6.27109 8.18086 6.32031C8.18086 6.32031 8.05078 6.29922 8.02266 6.23945L7.96641 6.25352L7.88906 6.25703Z" fill="#FFCC00"/>
<g id="Vector_161">
<path d="M7.88999 6.26155L7.82999 6.26956C7.82199 6.33361 7.69799 6.38966 7.69799 6.38966C7.67799 6.34162 7.69799 6.26956 7.69799 6.26956C7.54999 6.25355 7.54199 6.2015 7.54199 6.2015C7.55799 6.14946 7.69399 6.12143 7.69399 6.12143C7.65399 6.0814 7.64999 6.00934 7.64999 6.00934C7.73799 6.00133 7.82599 6.0814 7.82599 6.0814C7.82599 6.0814 7.72999 6.04937 7.71799 5.88924C7.71799 5.88924 7.76999 5.87723 7.80199 5.90525C7.80199 5.90525 7.78199 5.7331 7.84999 5.70508H7.85799C7.93399 5.71308 7.95399 5.88523 7.95399 5.88523C7.98199 5.8492 8.03399 5.8452 8.03399 5.8452C8.06199 6.00533 7.97799 6.06138 7.97799 6.06138C7.97799 6.06138 8.04199 5.9613 8.12999 5.94128C8.12999 5.94128 8.14599 6.01734 8.11799 6.06539C8.11799 6.06539 8.25399 6.05338 8.28199 6.10542C8.28199 6.10542 8.28999 6.15346 8.14599 6.20951C8.14599 6.20951 8.18599 6.27356 8.18199 6.3216C8.18199 6.3216 8.04999 6.30159 8.02199 6.24154L7.96599 6.25355L7.88599 6.26155" fill="#BCAC0B"/>
<path d="M7.88999 6.26155L7.82999 6.26956C7.82199 6.33361 7.69799 6.38966 7.69799 6.38966C7.67799 6.34162 7.69799 6.26956 7.69799 6.26956C7.54999 6.25355 7.54199 6.2015 7.54199 6.2015C7.55799 6.14946 7.69399 6.12143 7.69399 6.12143C7.65399 6.0814 7.64999 6.00934 7.64999 6.00934C7.73799 6.00133 7.82599 6.0814 7.82599 6.0814C7.82599 6.0814 7.72999 6.04937 7.71799 5.88924C7.71799 5.88924 7.76999 5.87723 7.80199 5.90525C7.80199 5.90525 7.78199 5.7331 7.84999 5.70508H7.85799C7.93399 5.71308 7.95399 5.88523 7.95399 5.88523C7.98199 5.8492 8.03399 5.8452 8.03399 5.8452C8.06199 6.00533 7.97799 6.06138 7.97799 6.06138C7.97799 6.06138 8.04199 5.9613 8.12999 5.94128C8.12999 5.94128 8.14599 6.01734 8.11799 6.06539C8.11799 6.06539 8.25399 6.05338 8.28199 6.10542C8.28199 6.10542 8.28999 6.15346 8.14599 6.20951C8.14599 6.20951 8.18599 6.27356 8.18199 6.3216C8.18199 6.3216 8.04999 6.30159 8.02199 6.24154L7.96599 6.25355L7.88599 6.26155" stroke="black" stroke-width="0.796785"/>
</g>
<path id="Vector_162" d="M7.92394 6.29284C7.93964 6.29076 7.95477 6.28561 7.96848 6.27769C7.98219 6.26976 7.9942 6.25921 8.00383 6.24664C8.01346 6.23407 8.02052 6.21973 8.02461 6.20443C8.0287 6.18914 8.02973 6.17318 8.02765 6.15749C8.02558 6.14179 8.02043 6.12666 8.0125 6.11295C8.00457 6.09924 7.99403 6.08723 7.98146 6.0776C7.96889 6.06797 7.95455 6.06091 7.93925 6.05682C7.92395 6.05273 7.908 6.0517 7.8923 6.05378C7.8606 6.05844 7.83205 6.0755 7.81293 6.10122C7.79381 6.12693 7.78569 6.15918 7.79035 6.19089C7.79501 6.22259 7.81207 6.25114 7.83779 6.27026C7.8635 6.28938 7.89576 6.2975 7.92746 6.29284" fill="white"/>
<path id="Vector_163" d="M7.92613 6.29205C7.94188 6.28995 7.95707 6.28476 7.97083 6.27678C7.98458 6.2688 7.99663 6.25819 8.00629 6.24555C8.01595 6.23291 8.02302 6.21849 8.02711 6.20311C8.0312 6.18774 8.03223 6.17171 8.03013 6.15593C8.02802 6.14016 8.02284 6.12496 8.01487 6.11119C8.0069 6.09742 7.99629 6.08536 7.98367 6.0757C7.97104 6.06603 7.95663 6.05895 7.94127 6.05486C7.9259 6.05077 7.90988 6.04974 7.89413 6.05184C7.8623 6.05609 7.83346 6.07282 7.81396 6.09835C7.79446 6.12387 7.78588 6.15611 7.79012 6.18796C7.79437 6.21981 7.81108 6.24868 7.83659 6.2682C7.86209 6.28772 7.8943 6.2963 7.92613 6.29205Z" stroke="black" stroke-width="0.455306"/>
<path id="Vector_164" d="M7.91701 6.23694C7.92781 6.23908 7.93897 6.23865 7.94958 6.23569C7.96019 6.23273 7.96995 6.22731 7.97808 6.21989C7.98621 6.21246 7.99249 6.20323 7.9964 6.19293C8.00031 6.18263 8.00174 6.17156 8.00059 6.16061C7.99944 6.14965 7.99573 6.13913 7.98976 6.12987C7.98379 6.12061 7.97573 6.11289 7.96623 6.10732C7.95673 6.10174 7.94605 6.09848 7.93506 6.09779C7.92407 6.0971 7.91307 6.09901 7.90295 6.10335C7.88915 6.10927 7.87761 6.11945 7.87001 6.1324C7.86242 6.14535 7.85917 6.1604 7.86074 6.17533C7.86231 6.19026 7.86862 6.2043 7.87875 6.21539C7.88887 6.22647 7.90228 6.23403 7.91701 6.23694Z" fill="white"/>
<path id="Vector_165" d="M7.91827 6.2374C7.92837 6.23832 7.93855 6.23697 7.94806 6.23344C7.95757 6.22992 7.96617 6.22431 7.97324 6.21703C7.9803 6.20974 7.98565 6.20097 7.98889 6.19135C7.99213 6.18173 7.99317 6.17151 7.99195 6.16143C7.99073 6.15135 7.98727 6.14168 7.98183 6.13311C7.97639 6.12454 7.96911 6.1173 7.96051 6.11192C7.95191 6.10654 7.94221 6.10315 7.93214 6.102C7.92206 6.10085 7.91185 6.10197 7.90227 6.10528C7.88756 6.11036 7.87504 6.12033 7.86679 6.13353C7.85855 6.14673 7.85507 6.16236 7.85694 6.17781C7.85881 6.19326 7.86592 6.20761 7.87708 6.21845C7.88824 6.2293 7.90278 6.23598 7.91827 6.2374Z" stroke="black" stroke-width="0.341479"/>
<path id="Vector_166" d="M10.6064 6.52178C10.6064 6.52178 10.5713 6.44092 10.5045 6.46905C10.4377 6.49717 10.4447 6.50772 10.385 6.50772C10.385 6.50772 10.3604 6.43389 10.392 6.40225C10.392 6.40225 10.2971 6.36709 10.2725 6.2792C10.2725 6.2792 10.3252 6.21944 10.4482 6.24405C10.4482 6.24405 10.4482 6.18428 10.4623 6.15616C10.4623 6.15616 10.5924 6.19834 10.5924 6.27217C10.5924 6.27217 10.5537 6.13155 10.6275 6.02608C10.6275 6.02608 10.6838 6.04717 10.6803 6.11748C10.6803 6.11748 10.7084 5.98037 10.8912 6.01553C10.8912 6.01553 10.7928 6.10342 10.7893 6.14561C10.7822 6.18428 10.7014 6.25108 10.6979 6.27569C10.6979 6.29678 10.6908 6.33545 10.6627 6.36006C10.6416 6.38467 10.6381 6.42334 10.6381 6.44092C10.6381 6.44795 10.6381 6.5042 10.6029 6.52178" fill="#FFCC00"/>
<path id="Vector_167" d="M10.6054 6.52027C10.6054 6.52027 10.5734 6.4402 10.5054 6.46822C10.4374 6.49625 10.4454 6.50826 10.3854 6.50826C10.3854 6.50826 10.3614 6.43219 10.3934 6.40016C10.3934 6.40016 10.2974 6.36413 10.2734 6.28006C10.2734 6.28006 10.3254 6.22001 10.4494 6.24403C10.4494 6.24403 10.4454 6.18398 10.4614 6.15596C10.4614 6.15596 10.5934 6.19599 10.5934 6.27206C10.5934 6.27206 10.5534 6.12793 10.6254 6.02384C10.6254 6.02384 10.6854 6.04786 10.6814 6.11592C10.6814 6.11592 10.7094 5.97981 10.8894 6.01584C10.8894 6.01584 10.7934 6.10391 10.7894 6.14395C10.7814 6.18398 10.7014 6.25204 10.6974 6.27606C10.6974 6.29608 10.6894 6.33611 10.6654 6.36013C10.6414 6.38415 10.6374 6.42419 10.6374 6.4402C10.6374 6.44821 10.6374 6.50425 10.6054 6.52027Z" fill="#BCAC0B" stroke="black" stroke-width="0.796785"/>
<path id="Vector_168" d="M10.5051 6.36423C10.5084 6.34353 10.5171 6.32406 10.5304 6.30779C10.5436 6.29152 10.5609 6.27902 10.5805 6.27154C10.6001 6.26405 10.6213 6.26186 10.642 6.26517C10.6627 6.26848 10.6822 6.27719 10.6984 6.29041C10.6984 6.30798 10.6844 6.34314 10.6633 6.36072C10.6422 6.38533 10.6387 6.424 10.6387 6.44158C10.6388 6.4639 10.6328 6.48582 10.6211 6.50486H10.6035C10.5877 6.50232 10.5726 6.49664 10.559 6.48814C10.5454 6.47964 10.5337 6.4685 10.5245 6.45538C10.5154 6.44227 10.5089 6.42744 10.5056 6.41178C10.5022 6.39613 10.5021 6.37996 10.5051 6.36423Z" fill="white"/>
<path id="Vector_169" d="M10.5058 6.36137C10.5096 6.34112 10.5186 6.32219 10.5319 6.30642C10.5451 6.29065 10.5622 6.27856 10.5815 6.27132C10.6008 6.26408 10.6216 6.26193 10.642 6.26508C10.6623 6.26823 10.6816 6.27658 10.6978 6.28931C10.6978 6.30933 10.6858 6.34135 10.6658 6.36137C10.6418 6.38539 10.6378 6.42543 10.6378 6.44144C10.6385 6.46387 10.633 6.48606 10.6218 6.50549H10.6018C10.5858 6.50264 10.5707 6.4966 10.5572 6.48773C10.5436 6.47887 10.532 6.46736 10.5231 6.4539C10.5141 6.44044 10.508 6.4253 10.505 6.4094C10.502 6.39351 10.5023 6.37717 10.5058 6.36137Z" stroke="black" stroke-width="0.455306"/>
<path id="Vector_170" d="M10.5576 6.37329C10.5611 6.36125 10.5676 6.35035 10.5767 6.34171C10.5857 6.33307 10.5969 6.327 10.6091 6.32413C10.6213 6.32127 10.634 6.32171 10.646 6.3254C10.658 6.3291 10.6687 6.33592 10.6771 6.34516L10.6666 6.35922C10.642 6.38383 10.6385 6.4225 10.6385 6.44008V6.44711H10.6139C10.5752 6.44711 10.5541 6.40844 10.5611 6.36977" fill="white"/>
<path id="Vector_171" d="M10.5576 6.37238C10.5603 6.35971 10.5665 6.34807 10.5756 6.33881C10.5846 6.32956 10.5961 6.32308 10.6087 6.32014C10.6213 6.3172 10.6345 6.31791 10.6467 6.3222C10.6589 6.32649 10.6696 6.33418 10.6776 6.34436L10.6656 6.36037C10.6416 6.38439 10.6376 6.42443 10.6376 6.44044V6.44845H10.6136C10.5736 6.44444 10.5536 6.40841 10.5616 6.36838L10.5576 6.37238Z" stroke="black" stroke-width="0.341479"/>
<path id="Vector_172" d="M7.08418 6.48905C7.08418 6.48905 7.11934 6.40819 7.18613 6.43983C7.24941 6.47498 7.24238 6.48553 7.30566 6.48553C7.30566 6.48553 7.33027 6.41522 7.30566 6.38006C7.30566 6.38006 7.40059 6.35194 7.4252 6.26756C7.4252 6.26756 7.37949 6.20428 7.25293 6.21834C7.25293 6.21834 7.26348 6.15858 7.2459 6.13045C7.2459 6.13045 7.1123 6.16561 7.10879 6.23592C7.10879 6.23592 7.15801 6.0953 7.09473 5.98983C7.09473 5.98983 7.03145 6.01092 7.03145 6.0742C7.03145 6.0742 7.01035 5.94061 6.83105 5.96873C6.83105 5.96873 6.92246 6.06014 6.92246 6.09881C6.92246 6.13748 7.00332 6.21131 7.00332 6.23592C7.00354 6.26797 7.01471 6.29898 7.03496 6.32381C7.05957 6.34842 7.05957 6.38709 7.05254 6.40467C7.05254 6.4117 7.05254 6.46795 7.0877 6.48553" fill="#FFCC00"/>
<path id="Vector_173" d="M7.08608 6.48909C7.08608 6.48909 7.11808 6.40902 7.18608 6.44105C7.25008 6.47708 7.24208 6.48509 7.30608 6.48509C7.30608 6.48509 7.33008 6.41302 7.30608 6.381C7.30608 6.381 7.40208 6.35297 7.42608 6.2689C7.42608 6.2689 7.37808 6.20485 7.25408 6.22086C7.25408 6.22086 7.26208 6.16081 7.24608 6.13278C7.24608 6.13278 7.11408 6.16481 7.11008 6.23687C7.11008 6.23687 7.15808 6.09675 7.09408 5.98866C7.09408 5.98866 7.03008 6.01268 7.03008 6.07674C7.03008 6.07674 7.01008 5.94062 6.83008 5.96865C6.83008 5.96865 6.92208 6.06072 6.92208 6.10076C6.92208 6.14079 7.00208 6.21285 7.00208 6.23687C7.00208 6.25689 7.01008 6.30093 7.03408 6.32495C7.05808 6.34897 7.05808 6.389 7.05408 6.40502C7.05408 6.41302 7.05408 6.46907 7.08608 6.48509V6.48909Z" fill="#BCAC0B" stroke="black" stroke-width="0.796785"/>
<path id="Vector_174" d="M7.18965 6.33123C7.18593 6.31197 7.17752 6.29392 7.16518 6.27868C7.15283 6.26344 7.13693 6.25146 7.11886 6.24382C7.1008 6.23618 7.08113 6.2331 7.06159 6.23485C7.04205 6.23661 7.02325 6.24315 7.00684 6.25389C7.00684 6.27147 7.01387 6.30311 7.03496 6.3242C7.05957 6.34881 7.05957 6.38748 7.05254 6.40506C7.05254 6.41209 7.05254 6.44373 7.07012 6.47537H7.08418C7.10061 6.4737 7.11652 6.46865 7.1309 6.46052C7.14528 6.4524 7.15782 6.44138 7.16773 6.42817C7.17764 6.41496 7.1847 6.39983 7.18848 6.38375C7.19225 6.36768 7.19265 6.35099 7.18965 6.33475" fill="white"/>
<path id="Vector_175" d="M7.18986 6.33212C7.18648 6.31249 7.17827 6.29401 7.16598 6.27835C7.15369 6.26268 7.1377 6.25032 7.11945 6.24238C7.1012 6.23444 7.08126 6.23117 7.06144 6.23285C7.04161 6.23454 7.02251 6.24114 7.00586 6.25205C7.00586 6.27207 7.01386 6.3041 7.03386 6.32411C7.05786 6.34813 7.05786 6.38817 7.05386 6.40418C7.05386 6.41219 7.05386 6.44421 7.06986 6.47224H7.08586C7.10207 6.47031 7.11772 6.46509 7.13184 6.4569C7.14597 6.4487 7.15828 6.43771 7.16801 6.4246C7.17775 6.41148 7.18471 6.39651 7.18846 6.38061C7.19222 6.36471 7.1927 6.34821 7.18986 6.33212Z" stroke="black" stroke-width="0.455306"/>
<path id="Vector_176" d="M7.13711 6.34177C7.13461 6.32918 7.12871 6.31751 7.12005 6.30804C7.11139 6.29856 7.1003 6.29164 7.08798 6.28801C7.07567 6.28439 7.0626 6.28421 7.05019 6.28749C7.03777 6.29077 7.0265 6.29738 7.01758 6.30661L7.03516 6.32419C7.05977 6.3488 7.05977 6.38747 7.05273 6.40505V6.41208H7.08086C7.11602 6.41208 7.14062 6.37693 7.13711 6.34177Z" fill="white"/>
<path id="Vector_177" d="M7.13758 6.34001C7.13613 6.32671 7.13081 6.31412 7.12226 6.30384C7.11371 6.29355 7.10232 6.28601 7.08952 6.28217C7.07671 6.27832 7.06306 6.27834 7.05026 6.28222C7.03747 6.2861 7.0261 6.29367 7.01758 6.30398L7.03358 6.32399C7.05758 6.34801 7.05758 6.38805 7.05358 6.40406V6.41207H7.08158C7.11758 6.41207 7.14158 6.37604 7.13758 6.34001Z" stroke="black" stroke-width="0.341479"/>
<path id="Vector_178" d="M7.28613 7.22158C7.28613 7.22158 8.63814 6.69313 10.3421 7.23359" stroke="black" stroke-width="1.7074"/>
<path id="Vector_179" d="M10.5335 6.80085C8.64951 6.20034 7.14551 6.76882 7.14551 6.76882" stroke="black" stroke-width="0.569132"/>
<path id="Vector_180" d="M8.83867 6.66992L8.6875 6.74727L8.82109 6.82812L8.98281 6.75078L8.83867 6.66992Z" fill="#FF0000"/>
<path id="Vector_181" d="M8.83755 6.66992L8.68555 6.74599L8.82155 6.83006L8.98155 6.74999L8.83755 6.66992Z" stroke="black" stroke-width="0.569132"/>
</g>
</g>
<defs>
<clipPath id="clip0_186_6473">
<rect width="18" height="18" fill="white"/>
</clipPath>
</defs>
</svg>
