<svg width="18" height="18" viewBox="0 0 18 18" fill="none" xmlns="http://www.w3.org/2000/svg">
<g id="es-pv" clip-path="url(#clip0_186_6469)">
<path id="Vector" d="M0 0H18V18H0V0Z" fill="#D52B1E"/>
<path id="Vector_2" d="M0 0H1.49414L5.24531 3.75117L9 7.50234L16.5059 0H18V1.49414L14.2488 5.24531L10.4977 9L18 16.5059V18H16.5059L12.7547 14.2488L9 10.4977L1.49414 18H0V16.5059L3.75117 12.7547L7.50234 9L0 1.49414V0.748828V0Z" fill="#009B48"/>
<path id="Vector_3" d="M7.80117 0H10.1988V7.80117H18V10.1988H10.1988V18H7.80117V10.1988H0V7.80117H7.80117V3.89883V0Z" fill="white"/>
</g>
<defs>
<clipPath id="clip0_186_6469">
<rect width="18" height="18" fill="white"/>
</clipPath>
</defs>
</svg>
