<svg width="18" height="18" viewBox="0 0 18 18" fill="none" xmlns="http://www.w3.org/2000/svg">
<g id="et" clip-path="url(#clip0_186_6657)">
<g id="Clip path group">
<mask id="mask0_186_6657" style="mask-type:luminance" maskUnits="userSpaceOnUse" x="-1" y="0" width="19" height="18">
<g id="et-a">
<path id="Vector" d="M-0.00488281 0H17.9884V17.9932H-0.00488281V0Z" fill="white"/>
</g>
</mask>
<g mask="url(#mask0_186_6657)">
<g id="Group">
<path id="Vector_2" fill-rule="evenodd" clip-rule="evenodd" d="M-8.36351 0.125H28.1084V17.6255H-8.36719L-8.36351 0.125Z" fill="#FFC621"/>
<path id="Vector_3" fill-rule="evenodd" clip-rule="evenodd" d="M-8.4375 12.0352H28.0859V17.9925H-8.4375V12.0352Z" fill="#EF2118"/>
<path id="Vector_4" fill-rule="evenodd" clip-rule="evenodd" d="M-8.36426 0H28.1076V6.32503H-8.36426V0Z" fill="#298C08"/>
<path id="Vector_5" d="M9.20679 13.0679C11.2955 13.0679 12.9888 11.3746 12.9888 9.28589C12.9888 7.19716 11.2955 5.50391 9.20679 5.50391C7.11806 5.50391 5.4248 7.19716 5.4248 9.28589C5.4248 11.3746 7.11806 13.0679 9.20679 13.0679Z" fill="#006BC6"/>
<path id="Vector_6" fill-rule="evenodd" clip-rule="evenodd" d="M7.52204 6.61639L7.3014 6.77452L8.12512 7.93656L8.34576 7.79314L7.52204 6.61639ZM8.55905 9.35601L8.22073 9.11698L8.36047 8.6757L6.6689 8.69777L6.17981 8.32268L8.4855 8.29694L8.91575 6.99883L9.14007 7.52837L8.5517 9.35969L8.55905 9.35601ZM11.2472 6.87013L11.0265 6.70465L10.1697 7.84462L10.372 8.0101L11.2472 6.87013ZM8.94885 8.68306L9.0702 8.28958H9.53722L9.00401 6.68258L9.21362 6.10156L9.93438 8.29694L11.3023 8.31165L10.8721 8.69041L8.94885 8.68306ZM12.1334 10.485L12.2254 10.2202L10.8795 9.75684L10.7838 9.99587L12.1334 10.4813V10.485ZM9.70638 8.85222L10.1182 8.84486L10.2653 9.28982L11.626 8.28958L12.2401 8.31165L10.3757 9.67226L10.7802 10.9777L10.2874 10.6835L9.7027 8.85222H9.70638ZM9.00769 12.4376L9.28716 12.4413L9.2982 11.0182L9.04078 11.0035L9.01136 12.4376H9.00769ZM9.77993 9.61343L9.91599 10.0032L9.54458 10.2864L10.9273 11.2609L11.1038 11.8493L9.22097 10.5181L8.11409 11.316L8.23544 10.7571L9.78361 9.6171L9.77993 9.61343ZM6.15039 10.0694L6.23497 10.3342L7.59191 9.90394L7.52572 9.65388L6.15039 10.0694ZM9.07756 9.92968L8.74659 10.1797L8.36415 9.90761L7.86771 11.5256L7.36024 11.875L8.0479 9.66859L6.9447 8.86693L7.51468 8.80809L9.07756 9.92968Z" fill="#FFC621"/>
</g>
</g>
</g>
</g>
<defs>
<clipPath id="clip0_186_6657">
<rect width="18" height="18" fill="white"/>
</clipPath>
</defs>
</svg>
