<svg width="18" height="18" viewBox="0 0 18 18" fill="none" xmlns="http://www.w3.org/2000/svg">
<g id="eu" clip-path="url(#clip0_186_6669)">
<path id="Vector" d="M0 0H18V18H0V0Z" fill="#003399"/>
<g id="Group">
<g id="eu-d">
<g id="eu-b">
<path id="eu-a" d="M9.00007 2.86133L8.7334 3.75022L9.17784 3.83911L9.00007 2.86133Z" fill="#FFCC00"/>
<path id="Vector_2" d="M8.99993 2.86133L9.2666 3.75022L8.82216 3.83911L8.99993 2.86133Z" fill="#FFCC00"/>
</g>
<g id="eu-c">
<g id="eu-b_2">
<path id="eu-a_2" d="M9.84608 3.47627L8.91829 3.49734L8.97109 3.9475L9.84608 3.47627Z" fill="#FFCC00"/>
<path id="Vector_3" d="M9.84631 3.47685L9.08333 4.00515L8.86145 3.60993L9.84631 3.47685Z" fill="#FFCC00"/>
</g>
<g id="eu-b_3">
<path id="eu-a_3" d="M9.52254 4.46924L9.21581 3.59337L8.80399 3.7827L9.52254 4.46924Z" fill="#FFCC00"/>
<path id="Vector_4" d="M9.52238 4.47021L8.78416 3.90783L9.09148 3.57468L9.52238 4.47021Z" fill="#FFCC00"/>
</g>
</g>
<g id="eu-c_2">
<g id="eu-b_4">
<path id="eu-a_4" d="M8.15392 3.47627L9.08171 3.49734L9.02891 3.9475L8.15392 3.47627Z" fill="#FFCC00"/>
<path id="Vector_5" d="M8.15369 3.47685L8.91667 4.00515L9.13855 3.60993L8.15369 3.47685Z" fill="#FFCC00"/>
</g>
<g id="eu-b_5">
<path id="eu-a_5" d="M8.47746 4.46924L8.78419 3.59337L9.19601 3.7827L8.47746 4.46924Z" fill="#FFCC00"/>
<path id="Vector_6" d="M8.47762 4.47021L9.21584 3.90783L8.90852 3.57468L8.47762 4.47021Z" fill="#FFCC00"/>
</g>
</g>
</g>
<g id="eu-d_2">
<g id="eu-b_6">
<path id="eu-a_6" d="M9.00007 13.5273L8.7334 14.4162L9.17784 14.5051L9.00007 13.5273Z" fill="#FFCC00"/>
<path id="Vector_7" d="M8.99993 13.5273L9.2666 14.4162L8.82216 14.5051L8.99993 13.5273Z" fill="#FFCC00"/>
</g>
<g id="eu-c_3">
<g id="eu-b_7">
<path id="eu-a_7" d="M9.84608 14.1423L8.91829 14.1634L8.97109 14.6135L9.84608 14.1423Z" fill="#FFCC00"/>
<path id="Vector_8" d="M9.84631 14.1429L9.08333 14.6712L8.86145 14.2759L9.84631 14.1429Z" fill="#FFCC00"/>
</g>
<g id="eu-b_8">
<path id="eu-a_8" d="M9.52254 15.1353L9.21581 14.2594L8.80399 14.4487L9.52254 15.1353Z" fill="#FFCC00"/>
<path id="Vector_9" d="M9.52238 15.1362L8.78416 14.5738L9.09148 14.2407L9.52238 15.1362Z" fill="#FFCC00"/>
</g>
</g>
<g id="eu-c_4">
<g id="eu-b_9">
<path id="eu-a_9" d="M8.15392 14.1423L9.08171 14.1634L9.02891 14.6135L8.15392 14.1423Z" fill="#FFCC00"/>
<path id="Vector_10" d="M8.15369 14.1429L8.91667 14.6712L9.13855 14.2759L8.15369 14.1429Z" fill="#FFCC00"/>
</g>
<g id="eu-b_10">
<path id="eu-a_10" d="M8.47746 15.1353L8.78419 14.2594L9.19601 14.4487L8.47746 15.1353Z" fill="#FFCC00"/>
<path id="Vector_11" d="M8.47762 15.1362L9.21584 14.5738L8.90852 14.2407L8.47762 15.1362Z" fill="#FFCC00"/>
</g>
</g>
</g>
<g id="eu-e">
<g id="eu-d_3">
<g id="eu-b_11">
<path id="eu-a_11" d="M3.66706 8.19531L3.40039 9.0842L3.84484 9.17309L3.66706 8.19531Z" fill="#FFCC00"/>
<path id="Vector_12" d="M3.66693 8.19531L3.93359 9.0842L3.48915 9.17309L3.66693 8.19531Z" fill="#FFCC00"/>
</g>
<g id="eu-c_5">
<g id="eu-b_12">
<path id="eu-a_12" d="M4.51307 8.81026L3.58528 8.83132L3.63808 9.28148L4.51307 8.81026Z" fill="#FFCC00"/>
<path id="Vector_13" d="M4.5133 8.81084L3.75032 9.33913L3.52844 8.94391L4.5133 8.81084Z" fill="#FFCC00"/>
</g>
<g id="eu-b_13">
<path id="eu-a_13" d="M4.18954 9.80323L3.8828 8.92736L3.47099 9.11668L4.18954 9.80323Z" fill="#FFCC00"/>
<path id="Vector_14" d="M4.18937 9.80419L3.45116 9.24181L3.75847 8.90866L4.18937 9.80419Z" fill="#FFCC00"/>
</g>
</g>
<g id="eu-c_6">
<g id="eu-b_14">
<path id="eu-a_14" d="M2.82092 8.81026L3.7487 8.83132L3.6959 9.28148L2.82092 8.81026Z" fill="#FFCC00"/>
<path id="Vector_15" d="M2.82069 8.81084L3.58366 9.33913L3.80554 8.94391L2.82069 8.81084Z" fill="#FFCC00"/>
</g>
<g id="eu-b_15">
<path id="eu-a_15" d="M3.14445 9.80323L3.45119 8.92736L3.863 9.11668L3.14445 9.80323Z" fill="#FFCC00"/>
<path id="Vector_16" d="M3.14461 9.80419L3.88283 9.24181L3.57551 8.90866L3.14461 9.80419Z" fill="#FFCC00"/>
</g>
</g>
</g>
<g id="eu-d_4">
<g id="eu-b_16">
<path id="eu-a_16" d="M5.87606 5.22412L6.61427 4.66173L6.30696 4.32858L5.87606 5.22412Z" fill="#FFCC00"/>
<path id="Vector_17" d="M5.87589 5.22315L6.18263 4.34728L6.59444 4.53661L5.87589 5.22315Z" fill="#FFCC00"/>
</g>
<g id="eu-c_7">
<g id="eu-b_17">
<path id="eu-a_17" d="M5.55311 4.23076L6.31609 4.75906L6.53797 4.36383L5.55311 4.23076Z" fill="#FFCC00"/>
<path id="Vector_18" d="M5.55334 4.23018L6.48113 4.25124L6.42832 4.7014L5.55334 4.23018Z" fill="#FFCC00"/>
</g>
<g id="eu-b_18">
<path id="eu-a_18" d="M6.3985 3.61523L6.13184 4.50412L6.57628 4.59301L6.3985 3.61523Z" fill="#FFCC00"/>
<path id="Vector_19" d="M6.39837 3.61523L6.66504 4.50412L6.22059 4.59301L6.39837 3.61523Z" fill="#FFCC00"/>
</g>
</g>
<g id="eu-c_8">
<g id="eu-b_19">
<path id="eu-a_19" d="M6.92082 5.22412L6.1826 4.66173L6.48992 4.32858L6.92082 5.22412Z" fill="#FFCC00"/>
<path id="Vector_20" d="M6.92098 5.22315L6.61424 4.34728L6.20243 4.53661L6.92098 5.22315Z" fill="#FFCC00"/>
</g>
<g id="eu-b_20">
<path id="eu-a_20" d="M7.24377 4.23076L6.48079 4.75906L6.25891 4.36383L7.24377 4.23076Z" fill="#FFCC00"/>
<path id="Vector_21" d="M7.24354 4.23018L6.31575 4.25124L6.36855 4.7014L7.24354 4.23018Z" fill="#FFCC00"/>
</g>
</g>
</g>
<g id="eu-d_5">
<g id="eu-b_21">
<path id="eu-a_21" d="M4.94442 7.20166L4.63768 6.3258L4.22587 6.51512L4.94442 7.20166Z" fill="#FFCC00"/>
<path id="Vector_22" d="M4.94425 7.20263L4.20604 6.64025L4.51336 6.3071L4.94425 7.20263Z" fill="#FFCC00"/>
</g>
<g id="eu-c_9">
<g id="eu-b_22">
<path id="eu-a_22" d="M3.8995 7.20068L4.63771 6.6383L4.33039 6.30515L3.8995 7.20068Z" fill="#FFCC00"/>
<path id="Vector_23" d="M3.89933 7.19971L4.20607 6.32384L4.61788 6.51317L3.89933 7.19971Z" fill="#FFCC00"/>
</g>
<g id="eu-b_23">
<path id="eu-a_23" d="M3.57655 6.20732L4.33952 6.73562L4.5614 6.3404L3.57655 6.20732Z" fill="#FFCC00"/>
<path id="Vector_24" d="M3.57678 6.20674L4.50456 6.22781L4.45176 6.67797L3.57678 6.20674Z" fill="#FFCC00"/>
</g>
</g>
<g id="eu-c_10">
<g id="eu-b_24">
<path id="eu-a_24" d="M5.2672 6.20928L4.50423 6.73757L4.28235 6.34235L5.2672 6.20928Z" fill="#FFCC00"/>
<path id="Vector_25" d="M5.26697 6.20869L4.33919 6.22976L4.39199 6.67992L5.26697 6.20869Z" fill="#FFCC00"/>
</g>
<g id="eu-b_25">
<path id="eu-a_25" d="M4.42181 5.59375L4.68848 6.48264L4.24403 6.57153L4.42181 5.59375Z" fill="#FFCC00"/>
<path id="Vector_26" d="M4.42194 5.59375L4.15527 6.48264L4.59972 6.57153L4.42194 5.59375Z" fill="#FFCC00"/>
</g>
</g>
</g>
<g id="eu-d_6">
<g id="eu-b_26">
<path id="eu-a_26" d="M5.26795 11.5544L4.34016 11.5755L4.39297 12.0256L5.26795 11.5544Z" fill="#FFCC00"/>
<path id="Vector_27" d="M5.26818 11.555L4.5052 12.0833L4.28332 11.6881L5.26818 11.555Z" fill="#FFCC00"/>
</g>
<g id="eu-c_11">
<g id="eu-b_27">
<path id="eu-a_27" d="M4.94539 12.5474L4.63866 11.6715L4.22685 11.8608L4.94539 12.5474Z" fill="#FFCC00"/>
<path id="Vector_28" d="M4.94523 12.5483L4.20702 11.986L4.51433 11.6528L4.94523 12.5483Z" fill="#FFCC00"/>
</g>
<g id="eu-b_28">
<path id="eu-a_28" d="M3.90047 12.5483L4.63869 11.986L4.33137 11.6528L3.90047 12.5483Z" fill="#FFCC00"/>
<path id="Vector_29" d="M3.90031 12.5474L4.20705 11.6715L4.61886 11.8608L3.90031 12.5474Z" fill="#FFCC00"/>
</g>
</g>
<g id="eu-c_12">
<g id="eu-b_29">
<path id="eu-a_29" d="M4.42279 10.9395L4.68945 11.8283L4.24501 11.9172L4.42279 10.9395Z" fill="#FFCC00"/>
<path id="Vector_30" d="M4.42292 10.9395L4.15625 11.8283L4.60069 11.9172L4.42292 10.9395Z" fill="#FFCC00"/>
</g>
<g id="eu-b_30">
<path id="eu-a_30" d="M3.57678 11.5544L4.50456 11.5755L4.45176 12.0256L3.57678 11.5544Z" fill="#FFCC00"/>
<path id="Vector_31" d="M3.57655 11.555L4.33952 12.0833L4.5614 11.6881L3.57655 11.555Z" fill="#FFCC00"/>
</g>
</g>
</g>
<g id="eu-d_7">
<g id="eu-b_31">
<path id="eu-a_31" d="M7.19764 13.3435L6.26985 13.3645L6.32265 13.8147L7.19764 13.3435Z" fill="#FFCC00"/>
<path id="Vector_32" d="M7.19787 13.344L6.43489 13.8723L6.21301 13.4771L7.19787 13.344Z" fill="#FFCC00"/>
</g>
<g id="eu-c_13">
<g id="eu-b_32">
<path id="eu-a_32" d="M6.87508 14.3364L6.56834 13.4606L6.15653 13.6499L6.87508 14.3364Z" fill="#FFCC00"/>
<path id="Vector_33" d="M6.87492 14.3374L6.1367 13.775L6.44402 13.4419L6.87492 14.3374Z" fill="#FFCC00"/>
</g>
<g id="eu-b_33">
<path id="eu-a_33" d="M5.83016 14.3374L6.56837 13.775L6.26106 13.4419L5.83016 14.3374Z" fill="#FFCC00"/>
<path id="Vector_34" d="M5.83 14.3364L6.13673 13.4606L6.54854 13.6499L5.83 14.3364Z" fill="#FFCC00"/>
</g>
</g>
<g id="eu-c_14">
<g id="eu-b_34">
<path id="eu-a_34" d="M6.35247 12.7285L6.61914 13.6174L6.1747 13.7063L6.35247 12.7285Z" fill="#FFCC00"/>
<path id="Vector_35" d="M6.3526 12.7285L6.08594 13.6174L6.53038 13.7063L6.3526 12.7285Z" fill="#FFCC00"/>
</g>
<g id="eu-b_35">
<path id="eu-a_35" d="M5.50646 13.3435L6.43425 13.3645L6.38145 13.8147L5.50646 13.3435Z" fill="#FFCC00"/>
<path id="Vector_36" d="M5.50623 13.344L6.26921 13.8723L6.49109 13.4771L5.50623 13.344Z" fill="#FFCC00"/>
</g>
</g>
</g>
</g>
<g id="eu-e_2">
<g id="eu-d_8">
<g id="eu-b_36">
<path id="eu-a_36" d="M14.3339 8.19531L14.6006 9.0842L14.1561 9.17309L14.3339 8.19531Z" fill="#FFCC00"/>
<path id="Vector_37" d="M14.334 8.19531L14.0674 9.0842L14.5118 9.17309L14.334 8.19531Z" fill="#FFCC00"/>
</g>
<g id="eu-c_15">
<g id="eu-b_37">
<path id="eu-a_37" d="M13.4879 8.81026L14.4157 8.83132L14.3629 9.28148L13.4879 8.81026Z" fill="#FFCC00"/>
<path id="Vector_38" d="M13.4877 8.81084L14.2507 9.33913L14.4725 8.94391L13.4877 8.81084Z" fill="#FFCC00"/>
</g>
<g id="eu-b_38">
<path id="eu-a_38" d="M13.8114 9.80323L14.1182 8.92736L14.53 9.11668L13.8114 9.80323Z" fill="#FFCC00"/>
<path id="Vector_39" d="M13.8116 9.80419L14.5498 9.24181L14.2425 8.90866L13.8116 9.80419Z" fill="#FFCC00"/>
</g>
</g>
<g id="eu-c_16">
<g id="eu-b_39">
<path id="eu-a_39" d="M15.1801 8.81026L14.2523 8.83132L14.3051 9.28148L15.1801 8.81026Z" fill="#FFCC00"/>
<path id="Vector_40" d="M15.1803 8.81084L14.4173 9.33913L14.1954 8.94391L15.1803 8.81084Z" fill="#FFCC00"/>
</g>
<g id="eu-b_40">
<path id="eu-a_40" d="M14.8565 9.80323L14.5498 8.92736L14.138 9.11668L14.8565 9.80323Z" fill="#FFCC00"/>
<path id="Vector_41" d="M14.8564 9.80419L14.1181 9.24181L14.4255 8.90866L14.8564 9.80419Z" fill="#FFCC00"/>
</g>
</g>
</g>
<g id="eu-d_9">
<g id="eu-b_41">
<path id="eu-a_41" d="M12.1249 5.22412L11.3867 4.66173L11.694 4.32858L12.1249 5.22412Z" fill="#FFCC00"/>
<path id="Vector_42" d="M12.1251 5.22315L11.8183 4.34728L11.4065 4.53661L12.1251 5.22315Z" fill="#FFCC00"/>
</g>
<g id="eu-c_17">
<g id="eu-b_42">
<path id="eu-a_42" d="M12.4479 4.23076L11.6849 4.75906L11.463 4.36383L12.4479 4.23076Z" fill="#FFCC00"/>
<path id="Vector_43" d="M12.4476 4.23018L11.5199 4.25124L11.5727 4.7014L12.4476 4.23018Z" fill="#FFCC00"/>
</g>
<g id="eu-b_43">
<path id="eu-a_43" d="M11.6025 3.61523L11.8691 4.50412L11.4247 4.59301L11.6025 3.61523Z" fill="#FFCC00"/>
<path id="Vector_44" d="M11.6026 3.61523L11.3359 4.50412L11.7804 4.59301L11.6026 3.61523Z" fill="#FFCC00"/>
</g>
</g>
<g id="eu-c_18">
<g id="eu-b_44">
<path id="eu-a_44" d="M11.0802 5.22412L11.8184 4.66173L11.5111 4.32858L11.0802 5.22412Z" fill="#FFCC00"/>
<path id="Vector_45" d="M11.08 5.22315L11.3867 4.34728L11.7985 4.53661L11.08 5.22315Z" fill="#FFCC00"/>
</g>
<g id="eu-b_45">
<path id="eu-a_45" d="M10.7572 4.23076L11.5202 4.75906L11.7421 4.36383L10.7572 4.23076Z" fill="#FFCC00"/>
<path id="Vector_46" d="M10.7574 4.23018L11.6852 4.25124L11.6324 4.7014L10.7574 4.23018Z" fill="#FFCC00"/>
</g>
</g>
</g>
<g id="eu-d_10">
<g id="eu-b_46">
<path id="eu-a_46" d="M13.0566 7.20166L13.3633 6.3258L13.7751 6.51512L13.0566 7.20166Z" fill="#FFCC00"/>
<path id="Vector_47" d="M13.0567 7.20263L13.7949 6.64025L13.4876 6.3071L13.0567 7.20263Z" fill="#FFCC00"/>
</g>
<g id="eu-c_19">
<g id="eu-b_47">
<path id="eu-a_47" d="M14.1015 7.20068L13.3633 6.6383L13.6706 6.30515L14.1015 7.20068Z" fill="#FFCC00"/>
<path id="Vector_48" d="M14.1016 7.19971L13.7949 6.32384L13.3831 6.51317L14.1016 7.19971Z" fill="#FFCC00"/>
</g>
<g id="eu-b_48">
<path id="eu-a_48" d="M14.4244 6.20732L13.6615 6.73562L13.4396 6.3404L14.4244 6.20732Z" fill="#FFCC00"/>
<path id="Vector_49" d="M14.4242 6.20674L13.4964 6.22781L13.5492 6.67797L14.4242 6.20674Z" fill="#FFCC00"/>
</g>
</g>
<g id="eu-c_20">
<g id="eu-b_49">
<path id="eu-a_49" d="M12.7338 6.20928L13.4968 6.73757L13.7186 6.34235L12.7338 6.20928Z" fill="#FFCC00"/>
<path id="Vector_50" d="M12.734 6.20869L13.6618 6.22976L13.609 6.67992L12.734 6.20869Z" fill="#FFCC00"/>
</g>
<g id="eu-b_50">
<path id="eu-a_50" d="M13.5792 5.59375L13.3125 6.48264L13.7569 6.57153L13.5792 5.59375Z" fill="#FFCC00"/>
<path id="Vector_51" d="M13.579 5.59375L13.8457 6.48264L13.4013 6.57153L13.579 5.59375Z" fill="#FFCC00"/>
</g>
</g>
</g>
<g id="eu-d_11">
<g id="eu-b_51">
<path id="eu-a_51" d="M12.733 11.5544L13.6608 11.5755L13.608 12.0256L12.733 11.5544Z" fill="#FFCC00"/>
<path id="Vector_52" d="M12.7328 11.555L13.4958 12.0833L13.7177 11.6881L12.7328 11.555Z" fill="#FFCC00"/>
</g>
<g id="eu-c_21">
<g id="eu-b_52">
<path id="eu-a_52" d="M13.0556 12.5474L13.3623 11.6715L13.7741 11.8608L13.0556 12.5474Z" fill="#FFCC00"/>
<path id="Vector_53" d="M13.0557 12.5483L13.794 11.986L13.4866 11.6528L13.0557 12.5483Z" fill="#FFCC00"/>
</g>
<g id="eu-b_53">
<path id="eu-a_53" d="M14.1005 12.5483L13.3623 11.986L13.6696 11.6528L14.1005 12.5483Z" fill="#FFCC00"/>
<path id="Vector_54" d="M14.1007 12.5474L13.7939 11.6715L13.3821 11.8608L14.1007 12.5474Z" fill="#FFCC00"/>
</g>
</g>
<g id="eu-c_22">
<g id="eu-b_54">
<path id="eu-a_54" d="M13.5782 10.9395L13.3115 11.8283L13.756 11.9172L13.5782 10.9395Z" fill="#FFCC00"/>
<path id="Vector_55" d="M13.5781 10.9395L13.8447 11.8283L13.4003 11.9172L13.5781 10.9395Z" fill="#FFCC00"/>
</g>
<g id="eu-b_55">
<path id="eu-a_55" d="M14.4242 11.5544L13.4964 11.5755L13.5492 12.0256L14.4242 11.5544Z" fill="#FFCC00"/>
<path id="Vector_56" d="M14.4244 11.555L13.6615 12.0833L13.4396 11.6881L14.4244 11.555Z" fill="#FFCC00"/>
</g>
</g>
</g>
<g id="eu-d_12">
<g id="eu-b_56">
<path id="eu-a_56" d="M10.8033 13.3435L11.7311 13.3645L11.6783 13.8147L10.8033 13.3435Z" fill="#FFCC00"/>
<path id="Vector_57" d="M10.8031 13.344L11.5661 13.8723L11.788 13.4771L10.8031 13.344Z" fill="#FFCC00"/>
</g>
<g id="eu-c_23">
<g id="eu-b_57">
<path id="eu-a_57" d="M11.1259 14.3364L11.4326 13.4606L11.8444 13.6499L11.1259 14.3364Z" fill="#FFCC00"/>
<path id="Vector_58" d="M11.1261 14.3374L11.8643 13.775L11.557 13.4419L11.1261 14.3374Z" fill="#FFCC00"/>
</g>
<g id="eu-b_58">
<path id="eu-a_58" d="M12.1708 14.3374L11.4326 13.775L11.7399 13.4419L12.1708 14.3374Z" fill="#FFCC00"/>
<path id="Vector_59" d="M12.171 14.3364L11.8642 13.4606L11.4524 13.6499L12.171 14.3364Z" fill="#FFCC00"/>
</g>
</g>
<g id="eu-c_24">
<g id="eu-b_59">
<path id="eu-a_59" d="M11.6485 12.7285L11.3818 13.6174L11.8263 13.7063L11.6485 12.7285Z" fill="#FFCC00"/>
<path id="Vector_60" d="M11.6484 12.7285L11.915 13.6174L11.4706 13.7063L11.6484 12.7285Z" fill="#FFCC00"/>
</g>
<g id="eu-b_60">
<path id="eu-a_60" d="M12.4945 13.3435L11.5667 13.3645L11.6195 13.8147L12.4945 13.3435Z" fill="#FFCC00"/>
<path id="Vector_61" d="M12.4947 13.344L11.7318 13.8723L11.5099 13.4771L12.4947 13.344Z" fill="#FFCC00"/>
</g>
</g>
</g>
</g>
</g>
</g>
<defs>
<clipPath id="clip0_186_6669">
<rect width="18" height="18" fill="white"/>
</clipPath>
</defs>
</svg>
