<svg width="18" height="18" viewBox="0 0 18 18" fill="none" xmlns="http://www.w3.org/2000/svg">
<g id="fj" clip-path="url(#clip0_186_6894)">
<path id="Vector" d="M0 0V18H18V0.00703125H11.3203V0H0Z" fill="#68BFE5"/>
<g id="Group">
<path id="Vector_2" d="M10.9053 8.92969V13.725C10.9053 15.293 13.7389 16.2246 13.7389 16.2246C13.7389 16.2246 16.5725 15.293 16.5725 13.7285V8.92969H10.9053Z" fill="white"/>
<path id="Vector_3" d="M13.3451 10.6172V12.7758H10.9053V13.5598H13.3486V16.0734L13.7389 16.2246L14.1326 16.0734V13.5598H16.5725V12.7758H14.1326V10.6172H13.3451Z" fill="#D21034"/>
<path id="Vector_4" d="M10.9053 8.92969H16.5725V10.7824H10.9053V8.92969Z" fill="#D21034"/>
<g id="Group_2">
<g id="Group_3">
<path id="Vector_5" d="M11.3589 10.3189C11.5345 10.3189 11.6768 10.2038 11.6768 10.0618C11.6768 9.9198 11.5345 9.80469 11.3589 9.80469C11.1833 9.80469 11.041 9.9198 11.041 10.0618C11.041 10.2038 11.1833 10.3189 11.3589 10.3189Z" fill="white" stroke="black" stroke-width="0.531888" stroke-miterlimit="3"/>
<path id="Vector_6" d="M11.359 10.0703C11.5152 10.0703 11.6418 10.0065 11.6418 9.92774C11.6418 9.84899 11.5152 9.78516 11.359 9.78516C11.2028 9.78516 11.0762 9.84899 11.0762 9.92774C11.0762 10.0065 11.2028 10.0703 11.359 10.0703Z" fill="white" stroke="black" stroke-width="0.531888" stroke-miterlimit="3"/>
<path id="Vector_7" d="M11.359 10.3574C11.5152 10.3574 11.6418 10.2936 11.6418 10.2148C11.6418 10.1361 11.5152 10.0723 11.359 10.0723C11.2028 10.0723 11.0762 10.1361 11.0762 10.2148C11.0762 10.2936 11.2028 10.3574 11.359 10.3574Z" fill="white" stroke="black" stroke-width="0.531888" stroke-miterlimit="3"/>
<path id="Vector_8" d="M11.359 10.2031C11.5152 10.2031 11.6418 10.1393 11.6418 10.0605C11.6418 9.9818 11.5152 9.91797 11.359 9.91797C11.2028 9.91797 11.0762 9.9818 11.0762 10.0605C11.0762 10.1393 11.2028 10.2031 11.359 10.2031Z" fill="white" stroke="black" stroke-width="0.531888" stroke-miterlimit="3"/>
</g>
<path id="Vector_9" d="M16.4327 10.416L16.387 10.2859C16.387 10.2859 16.2604 10.2367 16.2499 10.1664C16.2288 9.99063 16.162 9.92031 16.0671 9.8957C16.0405 9.88725 16.0126 9.88414 15.9848 9.88656C15.957 9.88897 15.93 9.89686 15.9053 9.90977C15.8772 9.95195 15.7331 9.95195 15.6522 9.95547C15.5714 9.95899 15.5714 9.92031 15.5714 9.92031C15.554 9.9208 15.5369 9.91685 15.5215 9.90885C15.5061 9.90086 15.493 9.88907 15.4835 9.87461C15.4413 9.79375 15.4132 9.76211 15.3921 9.75508C15.4975 9.75508 15.5749 9.70586 15.6909 9.58281C15.821 9.44922 15.9124 9.50195 15.9124 9.50195C15.8491 9.625 15.9335 9.61445 15.9335 9.61445C16.1022 9.53008 15.9546 9.30859 15.9018 9.31914C15.8526 9.32969 15.8386 9.29453 15.8386 9.29453C15.8386 9.3332 15.7788 9.35078 15.7788 9.35078C15.8245 9.10117 15.6733 9.03438 15.6733 9.03438C15.6522 9.05547 15.6382 9.10469 15.6382 9.10469C15.5995 9.25234 15.4624 9.23125 15.3077 9.15742C15.153 9.08359 14.7417 9.23477 14.6116 9.28399C14.485 9.33672 14.2495 9.41758 14.0386 9.29805C13.8276 9.17852 13.7749 9.19961 13.6905 9.22422C13.6061 9.24531 13.4585 9.28047 13.4057 9.25234C13.3685 9.23358 13.3278 9.2228 13.2862 9.2207C13.3038 9.21367 13.2792 9.17852 13.2792 9.17852C13.2159 9.09063 13.2862 9.03789 13.2862 9.03789C13.2862 9.03789 13.1702 9.07305 13.2159 9.27695L13.237 9.30859C13.237 9.30859 13.2546 9.37188 13.2897 9.38945V9.40352C13.2897 9.40352 13.3178 9.38945 13.3249 9.43164C13.3389 9.47383 13.3811 9.43516 13.4022 9.4C13.4022 9.4 13.3671 9.58633 13.5991 9.63203C13.5991 9.63203 13.5745 9.60391 13.585 9.58281C13.5956 9.56524 13.5569 9.54766 13.5604 9.51953C13.5604 9.49141 13.5007 9.47734 13.5499 9.45625C13.5991 9.43164 13.6202 9.38594 13.7257 9.44922C13.8241 9.50898 13.905 9.49492 13.905 9.49492C13.905 9.49492 13.8417 9.36836 13.8768 9.36836C13.912 9.36836 14.0667 9.56172 14.144 9.55117C14.2214 9.54063 14.369 9.45625 14.4428 9.48789C14.4428 9.48789 14.4499 9.44922 14.7311 9.4C15.0124 9.35078 15.3639 9.21016 15.494 9.3332C15.494 9.3332 15.5081 9.43164 15.5643 9.45625C15.5643 9.45625 15.5538 9.66016 15.2022 9.54766L15.0757 9.5125C15.0757 9.5125 15.0581 9.45273 14.3901 9.625C14.3901 9.625 14.355 9.63906 14.3268 9.66016C14.3022 9.67773 14.2671 9.64609 14.1335 9.69531C13.9999 9.74453 13.5112 9.90625 13.2089 9.84649C13.1421 9.82891 13.0788 9.83594 13.0788 9.82891C13.0753 9.81484 13.1139 9.82891 13.1139 9.82891C13.0893 9.8043 13.0788 9.80078 13.0788 9.80078C12.8257 9.77617 12.8714 9.66016 12.8714 9.66016L12.8854 9.69531C12.9276 9.64258 12.8678 9.5125 12.8678 9.5125C12.8668 9.50894 12.8656 9.50542 12.8643 9.50195L12.8854 9.48789C13.0085 9.38242 13.1491 9.36484 13.1491 9.36484C13.0647 9.25938 12.8889 9.31563 12.8889 9.31563C12.8889 9.19258 12.8397 9.04844 12.8397 9.04844C12.6639 9.06602 12.5655 9.21016 12.5655 9.21016C12.562 9.08359 12.3968 9.00977 12.3968 9.00977C12.4565 9.08008 12.4178 9.25586 12.4178 9.25586L12.4249 9.26289H12.4108L12.4073 9.29805H12.4003C12.4003 9.29805 12.3405 9.31914 12.2667 9.48086C12.2667 9.48086 12.2596 9.51602 12.2315 9.55117V9.54063C12.2315 9.54063 12.1542 9.64609 11.9714 9.54063C11.9714 9.54063 11.7253 9.39297 11.6374 9.4C11.5495 9.40352 11.4932 9.4457 11.4968 9.47031C11.4968 9.47031 11.2999 9.45274 11.2331 9.56524C11.2331 9.56524 11.0819 9.62149 11.212 9.74102C11.212 9.74102 11.2261 9.79727 11.2647 9.82539C11.2647 9.82539 11.2577 9.71289 11.2858 9.74805C11.2858 9.74805 11.2928 9.75859 11.3069 9.76562C11.3069 9.77969 11.321 9.82539 11.3491 9.84649L11.3667 9.83945C11.3693 9.81304 11.3752 9.78705 11.3843 9.76211H11.3913L11.3878 9.76562L11.4229 9.81836L11.4616 9.79727C11.4827 9.79727 11.5073 9.81484 11.5073 9.81484L11.553 9.77969V9.77617C11.5987 9.7832 11.6093 9.69531 11.6093 9.69531C11.6284 9.69988 11.6484 9.70036 11.6677 9.69673C11.6871 9.6931 11.7055 9.68543 11.7218 9.67422C11.7428 9.74453 11.9046 9.82539 11.9046 9.82539H11.9116L11.8905 9.83945C11.9608 9.89219 12.1014 9.87813 12.1014 9.87813C12.0452 9.90273 12.0522 10.0082 12.0522 10.0082C12.0171 10.0223 12.0171 10.0539 12.0171 10.0539C12.1261 10.0996 12.2034 10.0645 12.2034 10.0645C12.2104 10.0996 12.2034 10.1031 12.2034 10.1031C12.1577 10.198 12.1366 10.293 12.1366 10.293V10.3C12.1366 10.3 11.9397 10.3703 11.8553 10.4652C11.8553 10.4652 11.8448 10.4371 11.8202 10.4371C11.7956 10.4371 11.7182 10.3738 11.6831 10.3668C11.6479 10.3527 11.5952 10.3738 11.5811 10.3598C11.5706 10.3422 11.5776 10.2332 11.553 10.2156L11.5284 10.1453C11.5108 10.1805 11.444 10.1734 11.444 10.1734C11.4345 10.1803 11.4251 10.1873 11.4159 10.1945L11.3878 10.191C11.3807 10.191 11.3737 10.2121 11.3667 10.2297C11.3643 10.232 11.362 10.2343 11.3596 10.2367V10.2156C11.3456 10.2262 11.3175 10.2121 11.3069 10.2121L11.2893 10.2438L11.2261 10.2508C11.2155 10.2543 11.2261 10.3387 11.2261 10.3387C11.1452 10.3844 11.1839 10.4477 11.1839 10.4477C11.2261 10.6586 11.5882 10.5672 11.6163 10.5918C11.6409 10.6199 11.7042 10.627 11.7393 10.627C11.771 10.627 11.8096 10.7043 11.8589 10.7113C11.9046 10.7219 11.8589 10.6516 12.0698 10.5988C12.2878 10.5461 12.3581 10.4582 12.3581 10.4582C12.4284 10.4477 12.446 10.3633 12.4495 10.3316L12.453 10.3844C12.4636 10.4547 12.4143 10.4828 12.4143 10.4828L12.5971 10.4266C12.671 10.409 12.6639 10.3457 12.6639 10.3457C12.7343 10.5461 12.8608 10.5566 12.8608 10.5566C12.8889 10.4828 12.8854 10.4582 12.8854 10.4582H12.9417C12.9417 10.4125 12.9065 10.3809 12.8854 10.3668L12.9733 10.423L13.0085 10.416C13.0085 10.4477 13.0577 10.4758 13.0577 10.4758L13.0647 10.4336C13.1069 10.4898 13.1843 10.4688 13.1843 10.4688C13.1824 10.4593 13.1801 10.4499 13.1772 10.4406C13.3425 10.5426 13.6026 10.4125 13.6026 10.4125C13.6729 10.4266 13.6835 10.3844 13.6835 10.3844C13.7643 10.3949 13.7819 10.3422 13.7819 10.3422C13.9718 10.3246 14.1053 10.191 14.1053 10.191C14.1968 10.184 14.2003 10.1207 14.2003 10.1207C14.2003 10.1207 14.2952 10.1348 14.3831 10.0223C14.594 9.72344 14.9034 9.88164 14.9034 9.88164L14.7276 9.89219C14.253 9.88867 14.4464 10.2086 14.4464 10.2086H14.478C14.5237 10.2156 14.6749 10.3387 14.6186 10.4301V10.4336C14.5202 10.5637 14.3409 10.4406 14.2917 10.3281C14.2389 10.2156 14.137 10.2402 14.137 10.2402C14.137 10.2402 13.8698 10.2859 13.9788 10.4969H13.9823C13.9858 10.5496 14.0175 10.6094 14.1124 10.6691C14.1651 10.743 14.3409 10.75 14.471 10.7219C14.5307 10.7113 14.8471 10.5742 14.8471 10.5742C14.8718 10.5039 14.9526 10.5215 15.0229 10.423C15.0932 10.3211 14.9175 10.2859 14.8823 10.2332C14.8436 10.177 14.8928 10.1875 14.8928 10.1875C15.044 10.2719 15.0581 10.0047 15.0581 10.0047C15.0621 10.0485 15.0784 10.0902 15.1051 10.125C15.1319 10.1599 15.168 10.1864 15.2093 10.2016C15.2936 10.1172 15.2303 9.94492 15.2303 9.94492C15.4307 10.3035 15.5538 10.2473 15.5538 10.2473C15.4448 10.177 15.4975 10.0891 15.4975 10.0891C15.596 10.4688 15.9897 10.1383 15.9897 10.1383C15.9721 10.1945 15.9897 10.2262 16.0249 10.2613C16.06 10.2965 16.1022 10.3105 16.0846 10.3773C16.0636 10.4406 15.8807 10.4266 15.8807 10.4266C15.8807 10.4266 15.7014 10.4195 15.719 10.5672C15.7261 10.6023 15.8456 10.6164 15.8913 10.6094C15.8913 10.6094 15.8737 10.6094 15.937 10.6199L16.0143 10.6234C16.0917 10.6234 16.1725 10.6094 16.1725 10.6094C16.278 10.5848 16.2604 10.5496 16.2604 10.5496C16.4186 10.5215 16.4362 10.416 16.4362 10.416H16.4327Z" fill="#FFD100" stroke="black" stroke-width="0.8" stroke-miterlimit="3"/>
<path id="Vector_10" d="M11.215 9.75781C11.215 9.75781 11.2221 9.73672 11.2396 9.7332C11.2502 9.7332 11.2678 9.74023 11.2818 9.76133L11.2889 9.7543C11.2889 9.7543 11.2467 9.69102 11.2643 9.64883C11.2713 9.63125 11.2924 9.61367 11.3205 9.61367V9.59961C11.2854 9.60664 11.2643 9.6207 11.2537 9.64531C11.2506 9.65435 11.2494 9.66392 11.2502 9.67344C11.2502 9.69453 11.2572 9.71562 11.2643 9.72969C11.2561 9.72378 11.2461 9.72126 11.2361 9.72266C11.2221 9.72617 11.2115 9.73672 11.208 9.74375L11.215 9.75781ZM16.1721 10.598C16.0666 10.6156 15.9049 10.6227 15.8908 10.591C15.8908 10.5875 15.8908 10.5629 15.9787 10.5066L15.9682 10.4891C15.8979 10.5383 15.8627 10.5734 15.8768 10.598C15.8979 10.6578 16.1299 10.6227 16.1756 10.6156L16.1721 10.598ZM14.1189 10.6613C14.0943 10.6227 14.1049 10.5699 14.1541 10.5066L14.1365 10.4961C14.0838 10.5664 14.0732 10.6262 14.1014 10.6719L14.1189 10.6613Z" fill="black"/>
<path id="Vector_11" d="M13.9749 10.5C13.9749 10.5633 14.0206 10.623 14.1085 10.6758L14.119 10.6617C14.0382 10.6125 13.996 10.5562 13.9925 10.4965C13.9925 10.4086 14.0839 10.3418 14.0839 10.3383L14.0733 10.3242C14.0698 10.3242 13.9678 10.398 13.9749 10.5ZM15.803 10.5211C15.7749 10.5668 15.7854 10.6195 15.7854 10.6195H15.803C15.803 10.6195 15.796 10.5703 15.8206 10.5316C15.8289 10.5203 15.8394 10.5107 15.8515 10.5034C15.8635 10.4962 15.8769 10.4914 15.8909 10.4895V10.4719C15.8522 10.4789 15.8206 10.4965 15.803 10.5211ZM11.6124 9.70195H11.6053V9.70547C11.6053 9.70547 11.5948 9.76172 11.5702 9.77578C11.5666 9.77821 11.5626 9.7798 11.5583 9.78041C11.554 9.78101 11.5497 9.78064 11.5456 9.7793L11.5034 9.75469C11.4928 9.74414 11.4858 9.74062 11.4753 9.74414C11.4648 9.73133 11.4597 9.71492 11.4612 9.69844C11.4647 9.67031 11.4823 9.6457 11.5139 9.62461L11.5104 9.61406C11.4753 9.63867 11.4542 9.6668 11.4507 9.69492C11.4471 9.73008 11.4647 9.75117 11.4682 9.75469H11.4718C11.4823 9.75117 11.4858 9.75469 11.4964 9.76172L11.5421 9.78984H11.5772C11.6018 9.77227 11.6124 9.72305 11.6124 9.7125C11.7284 9.73711 11.8233 9.59648 11.8233 9.59297L11.8163 9.58594C11.8163 9.58594 11.7214 9.72656 11.6124 9.70195Z" fill="black"/>
<path id="Vector_12" d="M11.3377 9.68086C11.3307 9.70195 11.3377 9.72656 11.3482 9.74766C11.3623 9.76875 11.3729 9.7793 11.3869 9.78281C11.4045 9.78281 11.415 9.77227 11.4256 9.76172C11.4326 9.75117 11.4432 9.74414 11.4467 9.74766L11.4572 9.75469L11.4678 9.74766L11.4502 9.73711C11.4396 9.73711 11.4291 9.74414 11.4186 9.75117C11.408 9.76172 11.3975 9.77226 11.3869 9.76875C11.3799 9.76875 11.3693 9.7582 11.3588 9.74062C11.3531 9.73189 11.3492 9.72209 11.3474 9.71182C11.3456 9.70155 11.3459 9.69102 11.3482 9.68086C11.3588 9.63164 11.4186 9.59297 11.4186 9.59297V9.58594C11.415 9.58594 11.3482 9.62109 11.3377 9.68086ZM11.1795 10.4051C11.1865 10.384 11.2006 10.3699 11.2252 10.3559C11.2217 10.3559 11.2498 10.3805 11.2744 10.377L11.2885 10.3699C11.2955 10.3734 11.3377 10.4121 11.3377 10.4613C11.3377 10.4719 11.3377 10.4824 11.3307 10.493L11.3412 10.4965C11.3764 10.4262 11.2955 10.3559 11.2955 10.3559H11.2885L11.2709 10.3664C11.2533 10.3664 11.2287 10.3453 11.2252 10.3453C11.1936 10.3594 11.176 10.3805 11.1689 10.4016L11.1795 10.4051ZM11.5451 10.2188C11.5205 10.2188 11.4537 10.2328 11.4326 10.2645C11.4256 10.2785 11.4256 10.2926 11.4326 10.3066L11.4396 10.3312C11.4607 10.384 11.4818 10.4402 11.5029 10.4543L11.51 10.4437C11.4889 10.4332 11.4678 10.3734 11.4502 10.3242L11.4396 10.3031C11.4372 10.2982 11.4359 10.2928 11.4359 10.2873C11.4359 10.2818 11.4372 10.2764 11.4396 10.2715C11.4607 10.2434 11.517 10.2293 11.5451 10.2293C11.5592 10.2293 11.5627 10.282 11.5662 10.3172H11.5768C11.5768 10.2645 11.5697 10.2152 11.5416 10.2188H11.5451Z" fill="black"/>
<path id="Vector_13" d="M11.3665 10.2716C11.3623 10.2756 11.3591 10.2806 11.3573 10.2861C11.3554 10.2916 11.355 10.2975 11.356 10.3032C11.356 10.3068 11.3595 10.4439 11.4263 10.472L11.4298 10.4614C11.3701 10.4368 11.3665 10.3032 11.3665 10.3032C11.3665 10.3032 11.363 10.2892 11.3736 10.2786C11.3806 10.2716 11.4017 10.2716 11.4298 10.2786V10.2681C11.4017 10.2575 11.3771 10.2611 11.3665 10.2716Z" fill="black"/>
<path id="Vector_14" d="M11.3133 10.2826C11.2852 10.3037 11.2852 10.36 11.2852 10.3635H11.2957C11.2957 10.3635 11.2957 10.3072 11.3203 10.2932C11.3273 10.2861 11.3414 10.2861 11.3555 10.2932V10.2826C11.3414 10.2756 11.3238 10.2756 11.3133 10.2826Z" fill="black"/>
<g id="Group_4">
<path id="Vector_15" d="M12.8575 9.53045C12.8575 9.53045 12.8879 9.60057 12.8879 9.65433C12.8879 9.66368 12.8832 9.67069 12.8809 9.67771L12.8692 9.64732L12.8622 9.67069C12.8622 9.67069 12.8481 9.70342 12.8692 9.73848C12.8972 9.78523 12.9673 9.81328 13.0795 9.82496V9.8273C13.0763 9.82725 13.073 9.82805 13.0702 9.82964L13.0655 9.83431V9.84366C13.0702 9.85535 13.0819 9.85535 13.1076 9.85535L13.1239 9.85769L13.138 9.86236L13.1356 9.86002C13.159 9.86002 13.1894 9.86704 13.2198 9.87872L13.1964 9.8834L13.2221 9.89508C13.2244 9.89508 13.4255 9.97689 13.5073 10.0423C13.4839 10.0634 13.3834 10.1358 13.2104 10.0938L13.1824 10.0868L13.2011 10.1101C13.2011 10.1101 13.3156 10.241 13.339 10.3205C13.2992 10.3205 13.1473 10.3205 13.0936 10.2737L13.0819 10.2854C13.0819 10.2854 13.152 10.3929 13.1707 10.4748C13.1473 10.4794 13.1006 10.4818 13.0702 10.442L13.0562 10.4257L13.0491 10.4724C13.0351 10.4607 13.0164 10.4467 13.0164 10.428V10.4187L12.9743 10.4257L12.8855 10.3719C12.881 10.3686 12.8763 10.3655 12.8715 10.3626L12.8622 10.3789L12.8762 10.3859C12.8949 10.4 12.9276 10.4257 12.9299 10.4631H12.8738V10.4748C12.8738 10.4818 12.8738 10.5075 12.8528 10.5612C12.8271 10.5566 12.7289 10.5215 12.6705 10.3556L12.6518 10.3602V10.3649C12.6518 10.3813 12.6471 10.4187 12.5957 10.4327L12.4438 10.4794C12.4571 10.4603 12.4636 10.4373 12.4625 10.414V10.3953C12.4596 10.3752 12.458 10.3549 12.4578 10.3345C12.4578 10.2995 12.4648 10.2784 12.4905 10.2644L12.4812 10.2457C12.4788 10.2457 12.2568 10.3369 12.1469 10.2995C12.1516 10.2761 12.1703 10.2013 12.2077 10.1218L12.203 10.1265C12.21 10.1218 12.217 10.1125 12.21 10.0751V10.0634L12.1983 10.0681C12.1983 10.0681 12.1282 10.1008 12.0254 10.0634C12.0254 10.054 12.0324 10.04 12.0534 10.0307L12.0604 10.0283V10.0096C12.0604 9.98157 12.0628 9.91612 12.1025 9.9021L12.0978 9.8834C12.0978 9.8834 11.9786 9.89275 11.9062 9.85301C11.9374 9.83051 11.9734 9.81533 12.0113 9.8086H12.0184V9.79925C12.018 9.78073 12.0141 9.76246 12.0067 9.74549C12.0347 9.75484 12.0674 9.76185 12.0791 9.7525L12.0838 9.75017L12.0791 9.67771H12.0604L12.0628 9.73848L11.9926 9.72212L11.9646 9.71277L11.9833 9.73614C11.9946 9.75261 12.0003 9.77227 11.9997 9.79224C11.9572 9.8014 11.9173 9.81975 11.8828 9.846L11.8711 9.85535L11.8828 9.86236C11.9389 9.89976 12.0254 9.90443 12.0698 9.9021C12.0499 9.93357 12.0393 9.97005 12.0394 10.0073V10.0166C12.0301 10.0221 12.0221 10.0295 12.0161 10.0384C12.01 10.0473 12.006 10.0574 12.0043 10.0681V10.0751L12.009 10.0774C12.067 10.1041 12.1328 10.1082 12.1937 10.0891V10.1101C12.1469 10.2083 12.1235 10.3041 12.1235 10.3041V10.3135H12.1305C12.2217 10.3509 12.3806 10.3018 12.4531 10.2761C12.4438 10.2924 12.4367 10.3111 12.4367 10.3345C12.437 10.3611 12.4394 10.3877 12.4438 10.414C12.4438 10.4677 12.4087 10.4888 12.4064 10.4888L12.4134 10.5075L12.6004 10.4514C12.6424 10.4397 12.6588 10.414 12.6658 10.3929C12.7383 10.5659 12.8528 10.5799 12.8598 10.5823H12.8668L12.8692 10.5753C12.8815 10.5454 12.8894 10.5139 12.8925 10.4818C12.9112 10.481 12.9299 10.4803 12.9486 10.4794V10.4677C12.9486 10.4514 12.9463 10.4374 12.9393 10.4257L12.972 10.4444L13.0024 10.4397C13.0094 10.4701 13.0468 10.4958 13.0515 10.4981L13.0632 10.5051L13.0702 10.4654C13.1169 10.5051 13.18 10.4935 13.1847 10.4935L13.1917 10.4911V10.4818C13.1824 10.4187 13.1403 10.3439 13.1146 10.3041C13.1964 10.3415 13.346 10.3392 13.353 10.3392H13.3624V10.3275C13.3316 10.2502 13.2872 10.1789 13.2315 10.1171C13.4231 10.1522 13.526 10.0517 13.5306 10.047L13.5377 10.04L13.5283 10.0353C13.4443 9.9753 13.3533 9.92584 13.2572 9.88807L13.2782 9.8834L13.2548 9.87171C13.2129 9.85028 13.1664 9.83906 13.1193 9.83899C13.0959 9.81094 13.0842 9.8086 13.0819 9.80626C12.951 9.79224 12.9042 9.75718 12.8855 9.72913V9.72212L12.8902 9.7151C12.9019 9.69874 12.9066 9.67771 12.9066 9.65433C12.9066 9.59356 12.8762 9.52577 12.8762 9.52344L12.8575 9.53045Z" fill="black"/>
<path id="Vector_16" d="M12.2618 9.49363C12.2618 9.49363 12.2478 9.56375 12.187 9.59882C12.1402 9.62219 12.0818 9.62219 12.0094 9.5918L12 9.58947V9.59882C12.0052 9.6289 12.022 9.65574 12.0467 9.67361C12.0771 9.69699 12.1239 9.70634 12.1847 9.70166C12.1636 9.72504 12.1005 9.80451 12.1005 9.88398V9.89567C12.1099 9.90034 12.208 9.92839 12.2548 9.86995C12.2548 9.89333 12.2641 9.97514 12.2945 10.0055C12.3132 10.0242 12.3179 10.0476 12.3179 10.0686C12.3179 10.0873 12.3132 10.1014 12.3132 10.1014L12.3085 10.1154L12.3202 10.106C12.3249 10.1037 12.4161 10.0359 12.4441 9.94943C12.4441 9.94943 12.4605 9.92605 12.4885 9.91904V9.93073C12.4885 9.96579 12.5025 10.0266 12.6007 10.064L12.6077 10.0663V10.0593C12.6075 10.0538 12.6075 10.0484 12.6077 10.0429C12.6077 10.0172 12.6077 9.9728 12.6334 9.94943C12.6438 9.93981 12.6507 9.92709 12.6533 9.91319C12.6558 9.89929 12.6538 9.88494 12.6475 9.87229C12.6685 9.87697 12.7152 9.89333 12.7339 9.92839C12.762 9.97981 12.8578 9.93774 12.8625 9.93774L12.8602 9.92605C12.8602 9.92605 12.8181 9.9354 12.7924 9.91904C12.787 9.91482 12.7825 9.90952 12.7793 9.90349C12.7761 9.89745 12.7742 9.8908 12.7737 9.88398L12.769 9.82788C12.769 9.80451 12.7643 9.78814 12.7526 9.77646C12.7643 9.77646 12.79 9.77646 12.7994 9.79983C12.8181 9.83723 12.8765 9.83957 12.8789 9.83957L12.8999 9.84191L12.8835 9.83022C12.8835 9.83022 12.8321 9.79749 12.8415 9.75308L12.8485 9.72036C12.8625 9.66193 12.8859 9.56609 12.8648 9.50532L12.8555 9.50999C12.8602 9.52402 12.8625 9.54272 12.8625 9.56142C12.8625 9.61284 12.8461 9.67829 12.8391 9.71802L12.8298 9.75075C12.8294 9.75463 12.8294 9.75855 12.8298 9.76243C12.8298 9.79282 12.8461 9.81386 12.8602 9.82554C12.8438 9.82321 12.8204 9.81386 12.8134 9.79516C12.7971 9.76243 12.7597 9.76243 12.7433 9.76477L12.7293 9.76711L12.7386 9.77646C12.755 9.78581 12.7573 9.79983 12.7573 9.83022L12.762 9.88398C12.7643 9.90268 12.7737 9.9167 12.7854 9.92605C12.7994 9.9354 12.8134 9.9354 12.8251 9.93774C12.7971 9.94475 12.7573 9.94943 12.7433 9.92371C12.7176 9.87229 12.6428 9.8606 12.6404 9.85827H12.6288L12.6334 9.86762C12.6334 9.86762 12.6428 9.88164 12.6428 9.90034C12.6428 9.91203 12.6381 9.92839 12.6264 9.94008C12.6007 9.96579 12.596 10.0149 12.596 10.0406V10.0499C12.5119 10.0149 12.4979 9.96345 12.4979 9.93306V9.90969L12.5025 9.90268H12.4932C12.4809 9.90477 12.4692 9.90965 12.4591 9.91694C12.449 9.92423 12.4406 9.93374 12.4348 9.94475C12.4115 10.0019 12.3736 10.0519 12.3249 10.0897C12.3262 10.0819 12.327 10.0741 12.3272 10.0663C12.3272 10.0453 12.3226 10.0195 12.3039 9.99851C12.2688 9.96579 12.2641 9.85827 12.2641 9.85827V9.83957L12.2548 9.85593C12.2174 9.92138 12.1099 9.88865 12.1075 9.88865C12.1028 9.80684 12.201 9.69932 12.201 9.69699L12.2104 9.68764H12.1963C12.1332 9.69699 12.0841 9.68764 12.0514 9.66426C12.0328 9.64945 12.0197 9.6289 12.014 9.60583C12.0841 9.63154 12.1449 9.63388 12.1917 9.60817C12.2119 9.59589 12.2294 9.5796 12.243 9.5603C12.2567 9.54101 12.2663 9.51911 12.2711 9.49597C12.3413 9.3417 12.3997 9.31599 12.3997 9.31599L12.3974 9.30664C12.3927 9.30664 12.3319 9.33001 12.2618 9.49363Z" fill="black"/>
<path id="Vector_17" d="M12.4182 9.26173H12.4135L12.3574 9.33886H12.3738C12.5482 9.3526 12.7118 9.42898 12.8343 9.5539L12.8413 9.56091L12.895 9.50248L12.8903 9.49547C12.7384 9.25705 12.4205 9.26173 12.4159 9.26173H12.4182ZM12.4229 9.28276C12.4603 9.28276 12.7314 9.28977 12.8716 9.50014L12.8413 9.53286C12.7179 9.41567 12.5593 9.34253 12.3901 9.32484C12.401 9.31079 12.4119 9.29677 12.4229 9.28276Z" fill="black"/>
<path id="Vector_18" d="M12.3741 9.42088C12.349 9.45378 12.3321 9.49227 12.325 9.53308L12.3274 9.54243C12.3111 9.55947 12.2986 9.57969 12.2905 9.60182C12.2825 9.62394 12.2791 9.64749 12.2806 9.67099C12.2806 9.70137 12.2853 9.73176 12.2946 9.75981L12.3017 9.77617C12.3297 9.85564 12.3554 9.92576 12.484 9.88369C12.6055 9.84629 12.6102 9.83694 12.6406 9.78552L12.6499 9.77383C12.6663 9.74578 12.685 9.74111 12.7037 9.7341C12.7271 9.72708 12.7504 9.72007 12.7738 9.678L12.7925 9.64761C12.8159 9.61723 12.8439 9.57749 12.8463 9.53074H12.8369C12.83 9.57132 12.8122 9.60927 12.7855 9.6406L12.7621 9.67332C12.757 9.68624 12.7488 9.6977 12.7382 9.70668C12.7276 9.71565 12.7149 9.72186 12.7014 9.72475C12.6888 9.72713 12.677 9.7321 12.6665 9.73935C12.656 9.74659 12.6472 9.75595 12.6406 9.76682L12.6312 9.78084C12.6032 9.82993 12.5985 9.83694 12.4793 9.87434C12.3624 9.91174 12.3391 9.8533 12.311 9.77149L12.304 9.75513C12.2713 9.66631 12.297 9.57749 12.3414 9.54477L12.3554 9.53308L12.3344 9.53542V9.53308C12.3344 9.51672 12.3507 9.47231 12.3811 9.4279C12.4092 9.3905 12.4746 9.35544 12.4746 9.3531L12.4699 9.34375C12.4653 9.34609 12.4022 9.38349 12.3741 9.42088Z" fill="black"/>
<path id="Vector_19" d="M12.3178 9.74466C12.3389 9.75868 12.3669 9.75634 12.4043 9.74466C12.4043 9.75634 12.4043 9.78439 12.4277 9.80309C12.4557 9.82646 12.4978 9.83114 12.5562 9.81711V9.80543C12.5001 9.81945 12.4581 9.81478 12.4347 9.79374C12.4273 9.78652 12.4215 9.77775 12.4179 9.76805C12.4142 9.75835 12.4128 9.74797 12.4137 9.73764V9.72829L12.4066 9.73297C12.3716 9.74699 12.3435 9.74933 12.3225 9.73297C12.2874 9.70959 12.2898 9.64648 12.2898 9.64648H12.2804C12.2804 9.64648 12.2758 9.71661 12.3178 9.74466Z" fill="black"/>
<path id="Vector_20" d="M12.3835 9.65981C12.3694 9.66448 12.3648 9.67617 12.3648 9.68552V9.69253C12.3694 9.72058 12.3998 9.73928 12.4255 9.74629C12.4536 9.7533 12.4863 9.75564 12.498 9.73928C12.5027 9.73227 12.5073 9.72058 12.498 9.69954C12.4879 9.67982 12.4707 9.6647 12.4498 9.65731C12.4289 9.64991 12.406 9.65081 12.3858 9.65981H12.3835ZM12.4302 9.73694C12.4068 9.72993 12.3788 9.71357 12.3764 9.69019C12.3764 9.69019 12.3741 9.67383 12.3881 9.66916C12.4062 9.66184 12.4264 9.66162 12.4446 9.66856C12.4628 9.6755 12.4777 9.68907 12.4863 9.70656C12.4933 9.71591 12.4933 9.72526 12.4886 9.72993C12.4816 9.74162 12.4559 9.74395 12.4302 9.73694ZM12.4209 9.80005C12.4138 9.85849 12.4209 9.86082 12.4232 9.86082H12.4279L12.4325 9.85849L12.4653 9.81174L12.4232 9.79304V9.80005H12.4209ZM12.4325 9.8094L12.4489 9.81641L12.4302 9.84213L12.4325 9.8094ZM12.3344 9.7533L12.332 9.80706L12.3788 9.75097L12.332 9.74629V9.7533H12.3344ZM12.3437 9.75798H12.3577L12.3437 9.77668V9.75798Z" fill="black"/>
<path id="Vector_21" d="M12.3013 9.73342C12.3013 9.73342 12.3364 9.8012 12.3434 9.82691C12.3458 9.84094 12.3668 9.85964 12.3902 9.86665C12.4135 9.876 12.4369 9.876 12.4533 9.86431L12.4837 9.8386C12.493 9.82691 12.4977 9.82458 12.507 9.82691V9.81523C12.493 9.81523 12.486 9.8199 12.4766 9.82925L12.4463 9.85263C12.4276 9.86665 12.4065 9.86198 12.3948 9.8573C12.3715 9.85029 12.3551 9.83393 12.3528 9.82224C12.3458 9.79887 12.313 9.73108 12.3107 9.72874L12.3013 9.73342ZM12.3481 9.5324C12.3217 9.54627 12.3017 9.56968 12.292 9.59785L12.3013 9.60019C12.3013 9.60019 12.3177 9.55811 12.3504 9.54175C12.3592 9.53775 12.3688 9.53568 12.3785 9.53568C12.3882 9.53568 12.3977 9.53775 12.4065 9.54175L12.4089 9.5324C12.3855 9.52305 12.3668 9.52305 12.3458 9.5324H12.3481ZM12.6005 9.65395C12.6052 9.65395 12.6753 9.71004 12.6356 9.77549L12.6426 9.7825C12.6893 9.70537 12.6075 9.6446 12.6075 9.64226L12.6005 9.65395ZM12.3855 9.6633C12.3855 9.6633 12.3738 9.70303 12.4322 9.71706C12.4322 9.71706 12.3785 9.71706 12.3738 9.70303C12.3715 9.68901 12.3738 9.65862 12.3855 9.6633ZM12.5608 9.71004C12.5608 9.71472 12.5561 9.71706 12.5538 9.71706C12.5523 9.71714 12.5508 9.71673 12.5495 9.71589C12.5482 9.71505 12.5473 9.71382 12.5468 9.71238C12.5468 9.70771 12.5491 9.70537 12.5538 9.70537C12.5561 9.70537 12.5608 9.70771 12.5608 9.71238V9.71004ZM12.5655 9.73809C12.5655 9.74043 12.5655 9.74277 12.5608 9.74277C12.5593 9.74285 12.5578 9.74245 12.5565 9.7416C12.5552 9.74076 12.5543 9.73953 12.5538 9.73809C12.5538 9.73623 12.5545 9.73445 12.5558 9.73314C12.5572 9.73182 12.5589 9.73108 12.5608 9.73108C12.5631 9.73108 12.5655 9.73342 12.5655 9.73809Z" fill="black"/>
<path id="Vector_22" d="M12.5236 9.73082C12.5275 9.73082 12.5306 9.72768 12.5306 9.72381C12.5306 9.71994 12.5275 9.7168 12.5236 9.7168C12.5197 9.7168 12.5166 9.71994 12.5166 9.72381C12.5166 9.72768 12.5197 9.73082 12.5236 9.73082Z" fill="black"/>
<path id="Vector_23" d="M12.5423 9.76166C12.5423 9.76352 12.5415 9.7653 12.5402 9.76662C12.5389 9.76793 12.5371 9.76867 12.5353 9.76867C12.5334 9.76867 12.5316 9.76793 12.5303 9.76662C12.529 9.7653 12.5283 9.76352 12.5283 9.76166C12.5283 9.75932 12.5306 9.75698 12.5353 9.75698L12.5423 9.76166ZM12.3763 9.59103C12.3763 9.59289 12.3756 9.59467 12.3743 9.59598C12.373 9.5973 12.3712 9.59804 12.3693 9.59804C12.3675 9.59804 12.3657 9.5973 12.3644 9.59598C12.363 9.59467 12.3623 9.59289 12.3623 9.59103C12.3629 9.59006 12.3638 9.58927 12.3648 9.58872C12.3659 9.58818 12.367 9.58789 12.3681 9.58789C12.3693 9.58789 12.3704 9.58818 12.3715 9.58872C12.3725 9.58927 12.3734 9.59006 12.374 9.59103H12.3763Z" fill="black"/>
<path id="Vector_24" d="M12.3732 9.6234C12.3771 9.6234 12.3802 9.62026 12.3802 9.61639C12.3802 9.61251 12.3771 9.60938 12.3732 9.60938C12.3694 9.60938 12.3662 9.61251 12.3662 9.61639C12.3662 9.62026 12.3694 9.6234 12.3732 9.6234Z" fill="black"/>
<path id="Vector_25" d="M12.339 9.61168C12.3429 9.61168 12.3461 9.60854 12.3461 9.60467C12.3461 9.6008 12.3429 9.59766 12.339 9.59766C12.3352 9.59766 12.332 9.6008 12.332 9.60467C12.332 9.60854 12.3352 9.61168 12.339 9.61168Z" fill="black"/>
<path id="Vector_26" d="M12.3545 9.64226C12.3545 9.64378 12.3541 9.64528 12.3533 9.64655C12.3525 9.64781 12.3512 9.64877 12.3498 9.64927C12.3479 9.64927 12.3461 9.64854 12.3448 9.64722C12.3435 9.64591 12.3428 9.64412 12.3428 9.64226C12.3428 9.6404 12.3435 9.63862 12.3448 9.6373C12.3461 9.63599 12.3479 9.63525 12.3498 9.63525C12.3512 9.63575 12.3525 9.63671 12.3533 9.63798C12.3541 9.63924 12.3545 9.64074 12.3545 9.64226ZM12.4667 9.41787C12.4667 9.41787 12.5485 9.46929 12.469 9.56513C12.469 9.56513 12.5087 9.53474 12.5111 9.48566C12.5157 9.43657 12.483 9.39684 12.4643 9.41787H12.4667ZM12.7822 9.55578C12.7542 9.5698 12.7168 9.54409 12.6981 9.52072C12.6794 9.49734 12.6396 9.49033 12.6139 9.53474C12.5905 9.57681 12.5555 9.59318 12.5555 9.59318C12.5555 9.59318 12.5905 9.57448 12.6256 9.53474C12.6607 9.49734 12.6817 9.52773 12.7168 9.54643C12.7495 9.56513 12.7565 9.5698 12.7799 9.55812V9.55578H12.7822Z" fill="black"/>
<path id="Vector_27" d="M12.776 9.56396C12.7686 9.56974 12.7593 9.57267 12.7499 9.57224C12.7405 9.57182 12.7315 9.56805 12.7246 9.56162C12.7012 9.54292 12.6849 9.51955 12.6592 9.53357C12.6311 9.5476 12.582 9.585 12.582 9.585C12.582 9.585 12.6638 9.5289 12.6802 9.54292C12.6942 9.55461 12.7316 9.585 12.7527 9.57565L12.776 9.56396Z" fill="black"/>
<path id="Vector_28" d="M12.7128 9.59564C12.6871 9.57694 12.6614 9.61901 12.6403 9.61434C12.6169 9.60966 12.6006 9.57227 12.6006 9.57227C12.6006 9.57227 12.6193 9.60966 12.6473 9.60265C12.6777 9.5933 12.6964 9.5746 12.7151 9.58863C12.7315 9.60265 12.7128 9.59564 12.7128 9.59564Z" fill="black"/>
<path id="Vector_29" d="M12.6733 9.603C12.6666 9.60437 12.6597 9.60426 12.6531 9.60268C12.6464 9.6011 12.6402 9.59809 12.6349 9.59386C12.6296 9.58963 12.6252 9.58428 12.6221 9.57819C12.6191 9.57209 12.6174 9.56541 12.6172 9.55859C12.6172 9.55859 12.6335 9.60067 12.678 9.59365L12.6733 9.603Z" fill="black"/>
<path id="Vector_30" d="M12.6703 9.57086C12.6727 9.58255 12.6727 9.58956 12.6586 9.58956C12.6446 9.58956 12.6353 9.58488 12.6353 9.57086C12.6353 9.55917 12.668 9.56151 12.6703 9.57086ZM12.488 9.50074C12.4874 9.50466 12.4855 9.50824 12.4825 9.51082C12.4795 9.5134 12.4756 9.5148 12.4716 9.51476C12.4623 9.51476 12.46 9.51009 12.46 9.50074C12.46 9.49139 12.46 9.48438 12.4716 9.48438C12.4833 9.48438 12.488 9.49139 12.488 9.50074Z" fill="black"/>
<path id="Vector_31" d="M12.43 9.44241C12.43 9.44241 12.5188 9.44241 12.4768 9.55227C12.4768 9.55227 12.5095 9.49851 12.4885 9.45878C12.4651 9.42138 12.4347 9.43073 12.4347 9.43073C12.4347 9.43073 12.4253 9.43774 12.43 9.44241Z" fill="black"/>
<path id="Vector_32" d="M12.4301 9.48662C12.4301 9.50999 12.4441 9.53103 12.4721 9.5544L12.4792 9.54505C12.4534 9.52402 12.4394 9.50532 12.4394 9.48662C12.4394 9.46792 12.4534 9.45623 12.4534 9.45623L12.4464 9.44922C12.4464 9.44922 12.4301 9.46324 12.4277 9.48662H12.4301Z" fill="black"/>
<path id="Vector_33" d="M12.448 9.50455C12.4504 9.51623 12.4621 9.52792 12.4761 9.5326L12.4808 9.52325C12.4691 9.51857 12.4597 9.50922 12.4574 9.49987C12.4527 9.48117 12.4667 9.46014 12.4667 9.46014L12.4574 9.45312C12.4574 9.45312 12.441 9.48117 12.448 9.50455ZM12.5672 9.56532C12.5672 9.56532 12.5836 9.60038 12.5602 9.63778L12.5369 9.67518C12.5369 9.67518 12.5649 9.62142 12.5532 9.60038C12.5439 9.57701 12.5672 9.56532 12.5672 9.56532ZM12.9085 9.93463C12.9973 9.95099 13.2007 10.1099 13.2007 10.1099L13.2124 10.0959C13.2054 10.0889 13.0043 9.93229 12.9108 9.91593L12.9062 9.93463H12.9085ZM12.988 10.1567C12.9927 10.2385 13.0815 10.2876 13.0815 10.2899L13.0932 10.2736C13.0932 10.2736 13.0113 10.2268 13.0067 10.1567H12.988ZM12.7706 10.1754C12.7706 10.2642 12.8547 10.3717 12.8594 10.3764L12.8734 10.3647C12.8734 10.3647 12.7893 10.2572 12.7893 10.1754H12.7706ZM12.4878 10.1847C12.5018 10.2151 12.5018 10.2291 12.4971 10.2362C12.4924 10.2455 12.4831 10.2455 12.4831 10.2455L12.4854 10.2642C12.4924 10.2642 12.5065 10.2595 12.5135 10.2455C12.5228 10.2291 12.5205 10.2058 12.5041 10.1754L12.4878 10.1847Z" fill="black"/>
</g>
<g id="Group_5">
<path id="Vector_34" d="M11.2154 9.74141C11.2154 9.74141 11.2154 9.80117 11.2646 9.83633C11.2646 9.83633 11.2576 9.77305 11.2717 9.74492C11.2717 9.74492 11.2471 9.7168 11.2119 9.74492L11.2154 9.74141ZM11.3068 9.78008C11.3068 9.78008 11.3174 9.83281 11.349 9.85742L11.3666 9.85391C11.3666 9.85391 11.3771 9.78359 11.3877 9.77656C11.3982 9.76953 11.342 9.80117 11.3068 9.78008Z" fill="white" stroke="black" stroke-width="0.2" stroke-miterlimit="3"/>
<path id="Vector_35" d="M11.3873 9.77622L11.4225 9.83247L11.4646 9.81138L11.4541 9.74458C11.4541 9.74458 11.4295 9.73755 11.3838 9.77974L11.3873 9.77622Z" fill="white" stroke="black" stroke-width="0.2" stroke-miterlimit="3"/>
<path id="Vector_36" d="M11.5525 9.78627L11.5068 9.82494C11.5068 9.82494 11.4822 9.80736 11.4611 9.81088L11.4716 9.75111C11.4716 9.75111 11.5068 9.7265 11.5525 9.78627ZM11.222 10.3488C11.222 10.3488 11.215 10.2679 11.2255 10.2609C11.2255 10.2609 11.2607 10.2714 11.2712 10.2609C11.2712 10.2609 11.2923 10.3277 11.2853 10.3523C11.2818 10.3804 11.2501 10.3699 11.222 10.3523V10.3488ZM11.433 10.2644C11.433 10.2644 11.433 10.1941 11.4435 10.1835C11.4435 10.1835 11.5138 10.1941 11.5279 10.1589L11.5525 10.2257C11.5525 10.2257 11.4751 10.2187 11.433 10.2609V10.2644Z" fill="white" stroke="black" stroke-width="0.2" stroke-miterlimit="3"/>
<g id="Vector_37">
<path d="M11.3596 10.2785C11.3596 10.2785 11.3736 10.2047 11.3877 10.2012C11.3877 10.2012 11.4229 10.2117 11.4334 10.2012V10.2891C11.4334 10.2891 11.4334 10.2504 11.3631 10.2785H11.3596ZM11.2822 10.2891C11.2822 10.2891 11.2963 10.2223 11.3068 10.2223C11.3174 10.2223 11.3455 10.2398 11.3596 10.2293V10.2785C11.3596 10.2785 11.2998 10.2645 11.2893 10.3488L11.2822 10.2891Z" fill="white"/>
<path d="M11.3596 10.2785C11.3596 10.2785 11.3736 10.2047 11.3877 10.2012C11.3877 10.2012 11.4229 10.2117 11.4334 10.2012V10.2891C11.4334 10.2891 11.4334 10.2504 11.3631 10.2785H11.3596ZM11.3596 10.2785V10.2293C11.3455 10.2398 11.3174 10.2223 11.3068 10.2223C11.2963 10.2223 11.2822 10.2891 11.2822 10.2891L11.2893 10.3488C11.2998 10.2645 11.3596 10.2785 11.3596 10.2785Z" stroke="black" stroke-width="0.2" stroke-miterlimit="3"/>
</g>
</g>
</g>
<g id="Group_6">
<path id="Vector_38" d="M12.3396 11.643C12.3396 11.643 12.526 11.8187 12.4802 11.9664C12.4802 11.9664 12.5963 11.7098 12.4697 11.6359C12.3396 11.5586 12.3361 11.6183 12.3396 11.643Z" fill="#00A651" stroke="black" stroke-width="0.5" stroke-miterlimit="4.8"/>
<path id="Vector_39" d="M12.1071 11.8132C12.1071 11.8132 12.0579 11.88 12.1106 11.9257C12.1106 11.9257 12.0544 12.0101 12.0966 12.0804C12.0966 12.0804 12.0614 12.1542 12.0719 12.2351C12.0719 12.2351 12.0403 12.3581 12.1071 12.4144C12.1071 12.4144 12.1774 12.4495 12.2091 12.4214C12.2091 12.4214 12.2688 12.3265 12.2301 12.2316C12.2301 12.2316 12.2758 12.1507 12.2266 12.0523C12.2266 12.0523 12.2407 11.9925 12.1985 11.9257C12.1985 11.9257 12.2266 11.8835 12.202 11.8484C12.202 11.8484 12.1141 11.757 12.1071 11.8132Z" fill="#964B36" stroke="black" stroke-width="0.5" stroke-miterlimit="4.8"/>
<path id="Vector_40" d="M12.16 11.5945C12.16 11.5945 11.9385 11.1727 11.7838 11.1551C11.6326 11.1375 11.6221 10.9863 11.6221 10.9863C11.6221 10.9863 11.6396 11.0566 11.7627 11.0566C11.8857 11.0566 12.1248 11.2324 12.1494 11.3625C12.1775 11.4961 12.2021 11.4785 12.2021 11.4785L12.16 11.5945Z" fill="#00A651" stroke="black" stroke-width="0.5" stroke-miterlimit="4.8"/>
<path id="Vector_41" d="M12.1601 11.5672C12.1601 11.5672 12.2409 11.0328 12.589 11.0223C12.937 11.0117 12.821 11.0504 12.9054 10.9941C12.9054 10.9941 12.6698 11.1172 12.5257 11.1348C12.3816 11.1523 12.262 11.4336 12.2655 11.4863C12.2691 11.5391 12.1882 11.641 12.146 11.6059C12.1073 11.5707 12.1601 11.5672 12.1601 11.5672Z" fill="#00A651" stroke="black" stroke-width="0.5" stroke-miterlimit="4.8"/>
<path id="Vector_42" d="M12.2371 11.7636C12.2371 11.7636 12.318 11.5527 12.4551 11.623C12.4551 11.623 12.3496 11.4191 12.1598 11.5949C12.1598 11.5949 12.2441 11.7109 12.2406 11.7636H12.2371ZM11.9734 11.5527C11.9734 11.5527 12.093 12.0238 11.9172 12.1644C11.9172 12.1644 11.9207 11.9218 11.8152 11.7777C11.7098 11.6336 11.9207 11.4754 11.977 11.5492L11.9734 11.5527Z" fill="#00A651" stroke="black" stroke-width="0.5" stroke-miterlimit="4.8"/>
<path id="Vector_43" d="M11.9873 11.6375C11.9873 11.6375 12.1982 11.8344 12.2088 11.9012C12.2229 11.968 12.2686 11.7043 12.1736 11.627C12.1134 11.5823 12.0436 11.5522 11.9697 11.5391L11.9873 11.6375Z" fill="#00A651" stroke="black" stroke-width="0.5" stroke-miterlimit="4.8"/>
<path id="Vector_44" d="M11.6045 12.1562C11.6045 12.1562 11.6256 12.2371 11.6748 12.2547C11.6748 12.2547 11.6783 12.3145 11.724 12.3355C11.724 12.3355 11.6994 12.3848 11.7416 12.4164C11.7416 12.4164 11.7311 12.5219 11.7697 12.543C11.7697 12.543 11.8611 12.5359 11.8928 12.5078C11.8928 12.5078 11.9139 12.441 11.8611 12.3742C11.8611 12.3742 11.8682 12.3109 11.8189 12.2758C11.8189 12.2758 11.833 12.1879 11.7697 12.1562C11.7697 12.1562 11.7592 12.0859 11.7205 12.0508C11.7205 12.0508 11.6396 12.1633 11.6045 12.1562Z" fill="#964B36" stroke="black" stroke-width="0.5" stroke-miterlimit="4.8"/>
<path id="Vector_45" d="M11.7061 12.0545C11.7061 12.0545 11.4354 11.9526 11.2842 12.0967C11.2842 12.0967 11.5162 12.1284 11.5479 12.1741C11.576 12.2198 11.7201 12.1002 11.7096 12.0545H11.7061Z" fill="#00A651" stroke="black" stroke-width="0.5" stroke-miterlimit="4.8"/>
<g id="Vector_46">
<path d="M11.6256 12.2243L11.5763 12.1856C11.5482 12.168 11.3197 12.1047 11.2881 12.3262C11.2881 12.3262 11.2072 12.1083 11.3267 12.0801C11.4463 12.045 11.5447 12.1153 11.6256 12.2208M11.4463 11.7743C11.4463 11.7743 11.5306 11.9501 11.5623 11.9641C11.5904 11.9711 11.615 11.9395 11.615 11.9395C11.615 11.9395 11.5025 11.7778 11.4463 11.7743ZM11.383 11.493C11.383 11.493 11.3127 11.261 11.2318 11.3243C11.1474 11.384 11.1685 11.5528 11.1685 11.5528C11.1685 11.5528 10.9998 11.3805 11.0982 11.2434C11.1967 11.1063 11.3865 11.2575 11.3865 11.4965L11.383 11.493Z" fill="#00A651"/>
<path d="M11.6256 12.2243L11.5763 12.1856C11.5482 12.168 11.3197 12.1047 11.2881 12.3262C11.2881 12.3262 11.2072 12.1083 11.3267 12.0801C11.4463 12.045 11.5447 12.1153 11.6256 12.2208M11.4463 11.7743C11.4463 11.7743 11.5306 11.9501 11.5623 11.9641C11.5904 11.9711 11.615 11.9395 11.615 11.9395C11.615 11.9395 11.5025 11.7778 11.4463 11.7743ZM11.383 11.493C11.383 11.493 11.3127 11.261 11.2318 11.3243C11.1474 11.384 11.1685 11.5528 11.1685 11.5528C11.1685 11.5528 10.9998 11.3805 11.0982 11.2434C11.1967 11.1063 11.3865 11.2575 11.3865 11.4965L11.383 11.493Z" stroke="black" stroke-width="0.5" stroke-miterlimit="4.8"/>
</g>
<path id="Vector_47" d="M11.5732 11.9738C11.5732 11.9738 11.5732 12.0195 11.6084 12.0301C11.6365 12.0441 11.6928 12.0652 11.6928 12.0406C11.6928 12.016 11.6506 11.914 11.633 11.9246C11.6154 11.9387 11.5838 11.9387 11.5732 11.9738Z" fill="#964B36" stroke="black" stroke-width="0.5" stroke-miterlimit="4.8"/>
<g id="Vector_48">
<path d="M11.5206 11.7031C11.5206 11.7031 11.5135 11.4992 11.6436 11.4219C11.6436 11.4219 11.6717 11.4289 11.6858 11.3867C11.6858 11.3867 11.5803 11.6434 11.6085 11.7734V11.791" fill="#00A651"/>
<path d="M11.5206 11.7031C11.5206 11.7031 11.5135 11.4992 11.6436 11.4219C11.6436 11.4219 11.6717 11.4289 11.6858 11.3867C11.6858 11.3867 11.5803 11.6434 11.6085 11.7734V11.791" stroke="black" stroke-width="0.5" stroke-miterlimit="4.8"/>
</g>
<path id="Vector_49" d="M11.5479 11.4542C11.5479 11.4542 11.7869 10.962 12.0752 11.1342C12.0752 11.1342 11.7729 11.194 11.6639 11.412L11.5514 11.5737L11.5479 11.4542Z" fill="#00A651" stroke="black" stroke-width="0.5" stroke-miterlimit="4.8"/>
<g id="Vector_50">
<path d="M11.4221 11.6372C11.4221 11.6372 11.3518 11.3068 11.3061 11.2611C11.2604 11.2189 11.1865 11.1697 11.0986 11.2435C11.0986 11.2435 11.2533 11.1064 11.415 11.2224C11.5803 11.3384 11.5451 11.5177 11.5451 11.5177L11.5275 11.7462L11.415 11.6443" fill="#00A651"/>
<path d="M11.4221 11.6372C11.4221 11.6372 11.3518 11.3068 11.3061 11.2611C11.2604 11.2189 11.1865 11.1697 11.0986 11.2435C11.0986 11.2435 11.2533 11.1064 11.415 11.2224C11.5803 11.3384 11.5451 11.5177 11.5451 11.5177L11.5275 11.7462L11.415 11.6443" stroke="black" stroke-width="0.5" stroke-miterlimit="4.8"/>
</g>
<path id="Vector_51" d="M11.6744 12.0276C11.6744 12.0276 11.3826 11.4791 11.1963 11.8693C11.1963 11.8693 11.1611 11.9713 11.1963 12.01C11.1963 12.01 11.0908 11.9326 11.14 11.7358C11.1893 11.5459 11.5127 11.6303 11.6041 11.792C11.6955 11.9502 11.7236 12.0276 11.7096 12.0381C11.6955 12.0451 11.6744 12.0276 11.6744 12.0276ZM12.4936 12.1858C12.4936 12.1858 12.7045 11.7498 12.8311 11.9502C12.8311 11.9502 12.8662 12.0451 12.81 12.0873C12.81 12.0873 12.7291 11.9818 12.6518 12.1084C12.5814 12.2315 12.6096 12.2209 12.6096 12.2209C12.6096 12.2209 12.5287 12.2455 12.4936 12.1858Z" fill="#00A651" stroke="black" stroke-width="0.5" stroke-miterlimit="4.8"/>
<path id="Vector_52" d="M12.8105 12.0863C12.8105 12.0863 12.9266 12.1461 12.8879 12.2691C12.8879 12.2691 13.0426 11.9738 12.8281 11.9492C12.8281 11.9492 12.8703 12.0406 12.8141 12.0863H12.8105ZM12.8246 11.784C12.8246 11.784 13.1059 11.8648 13.1129 11.9844C13.1129 11.9844 13.1586 11.7559 13.0004 11.6855C13.0004 11.6855 12.8105 11.7137 12.8246 11.784Z" fill="#00A651" stroke="black" stroke-width="0.5" stroke-miterlimit="4.8"/>
<g id="Vector_53">
<path d="M12.9479 11.4183C13.0674 11.1863 13.2186 11.4956 13.2186 11.4956C13.2186 11.4956 13.2713 11.2495 13.1201 11.2074C12.9689 11.1652 12.874 11.7241 12.874 11.7241L12.6982 11.7628C12.6982 11.7628 12.7475 11.2741 13.0111 11.2284L13.0428 11.2355" fill="#00A651"/>
<path d="M12.9479 11.4183C13.0674 11.1863 13.2186 11.4956 13.2186 11.4956C13.2186 11.4956 13.2713 11.2495 13.1201 11.2074C12.9689 11.1652 12.874 11.7241 12.874 11.7241L12.6982 11.7628C12.6982 11.7628 12.7475 11.2741 13.0111 11.2284L13.0428 11.2355" stroke="black" stroke-width="0.5" stroke-miterlimit="4.8"/>
</g>
<path id="Vector_54" d="M12.7364 11.5593C12.7364 11.5593 12.5676 11.2182 12.4551 11.1831C12.3391 11.1479 12.5184 11.0952 12.5887 11.1585C12.659 11.2288 12.7891 11.3096 12.775 11.4854L12.7399 11.5593H12.7364ZM12.5641 12.0303C12.5641 12.0303 12.6133 11.7983 12.7469 11.728C12.877 11.6577 13 11.6823 13 11.6823C13 11.6823 12.8418 11.7175 12.8172 11.7983C12.7891 11.8792 12.7469 11.8827 12.7469 11.8827L12.5641 12.0303Z" fill="#00A651" stroke="black" stroke-width="0.5" stroke-miterlimit="4.8"/>
<path id="Vector_55" d="M12.4937 12.1855C12.4937 12.1855 12.4198 12.3262 12.4374 12.3508C12.4374 12.3508 12.3566 12.4633 12.3882 12.523C12.3882 12.523 12.4691 12.5828 12.5042 12.5582C12.5042 12.5582 12.5956 12.4281 12.571 12.3578C12.571 12.3578 12.6308 12.2734 12.6062 12.2207C12.6062 12.2207 12.5183 12.2277 12.4937 12.1855Z" fill="#964B36" stroke="black" stroke-width="0.5" stroke-miterlimit="4.8"/>
<path id="Vector_56" d="M12.1072 11.9355C12.1107 11.9355 12.1564 11.9602 12.1881 11.9496L12.2092 11.932L12.1916 11.9215C12.1811 11.9426 12.1318 11.925 12.1143 11.918L12.1072 11.9355ZM12.1002 12.0727L12.0967 12.0902C12.1002 12.0902 12.1881 12.1078 12.2338 12.0691L12.2197 12.0551C12.1846 12.0902 12.1002 12.0727 12.1002 12.0727ZM12.0756 12.2273L12.065 12.2414C12.065 12.2414 12.1705 12.3188 12.2408 12.2379L12.2232 12.2238C12.167 12.2941 12.0826 12.2309 12.0791 12.2238L12.0756 12.2273ZM11.6748 12.2484V12.259C11.6818 12.259 11.7697 12.2238 11.7768 12.157H11.7662C11.7592 12.2168 11.6748 12.2484 11.6748 12.2484ZM11.724 12.3293V12.3398C11.7275 12.3398 11.8084 12.3328 11.8225 12.2766H11.8119C11.8014 12.3258 11.724 12.3293 11.724 12.3293ZM11.7416 12.4137V12.4242C11.7416 12.4242 11.8365 12.4277 11.8646 12.3785L11.8576 12.3715C11.8295 12.4172 11.7416 12.4137 11.7416 12.4137ZM12.4307 12.3574C12.4307 12.3574 12.4729 12.3961 12.5186 12.3926C12.5299 12.3924 12.5411 12.3897 12.5514 12.3849C12.5617 12.38 12.5709 12.3731 12.5783 12.3645L12.5643 12.3539C12.5521 12.3663 12.5359 12.3738 12.5186 12.375C12.5045 12.3743 12.4908 12.3709 12.4781 12.3649C12.4654 12.3588 12.4541 12.3503 12.4447 12.3398L12.4307 12.3574Z" fill="#000001"/>
</g>
<g id="Group_7">
<g id="Vector_57">
<path d="M15.1664 12.6766C15.161 12.679 15.1562 12.6826 15.1523 12.6871L15.1664 12.6766ZM15.4898 12.5957C15.4898 12.5887 15.4863 12.5922 15.4828 12.5887L15.4688 12.5605H15.4582L15.4336 12.5113C15.4342 12.509 15.4342 12.5066 15.4336 12.5043C15.4337 12.4996 15.4337 12.4949 15.4336 12.4902C15.4301 12.4867 15.4266 12.4902 15.423 12.4832V12.4586L15.4195 12.4445V12.4234C15.42 12.4188 15.42 12.4141 15.4195 12.4094C15.4125 12.3953 15.4055 12.3848 15.4055 12.3672L15.409 12.332L15.402 12.2969L15.409 12.2652V12.0789C15.402 12.0648 15.4055 12.0543 15.402 12.0438V11.9734L15.3984 12.0613C15.3984 11.984 15.3914 11.9102 15.3914 11.9102L15.2754 11.8574C15.2754 11.8574 15.2648 12.0719 15.2684 12.1035C15.2684 12.1316 15.2789 12.3391 15.2754 12.3637C15.2684 12.3883 15.2578 12.5113 15.2578 12.5113C15.2578 12.5113 15.2016 12.5535 15.177 12.5992C15.1559 12.6414 15.1594 12.659 15.1523 12.659L15.2086 12.6484L15.1664 12.6766C15.1705 12.6749 15.1749 12.6744 15.1792 12.675C15.1835 12.6756 15.1876 12.6774 15.191 12.6801L15.2016 12.6871L15.2086 12.6801L15.2332 12.6941L15.2473 12.6836L15.2543 12.6695H15.293C15.3035 12.6695 15.3105 12.6555 15.3211 12.6449C15.3316 12.6379 15.3387 12.6344 15.3492 12.6344C15.3598 12.6344 15.3703 12.6449 15.3809 12.6484C15.3879 12.6484 15.3949 12.6484 15.402 12.6379L15.4125 12.6168H15.4793L15.4898 12.6238L15.4934 12.6098V12.5957H15.4898Z" fill="#964B36"/>
<path d="M15.1664 12.6766C15.161 12.679 15.1562 12.6826 15.1523 12.6871L15.1664 12.6766ZM15.1664 12.6766L15.2086 12.6484L15.1523 12.659C15.1594 12.659 15.1559 12.6414 15.177 12.5992C15.2016 12.5535 15.2578 12.5113 15.2578 12.5113C15.2578 12.5113 15.2684 12.3883 15.2754 12.3637C15.2789 12.3391 15.2684 12.1316 15.2684 12.1035C15.2648 12.0719 15.2754 11.8574 15.2754 11.8574L15.3914 11.9102C15.3914 11.9102 15.3984 11.984 15.3984 12.0613L15.402 11.9734V12.0438C15.4055 12.0543 15.402 12.0648 15.409 12.0789V12.2652L15.402 12.2969L15.409 12.332L15.4055 12.3672C15.4055 12.3848 15.4125 12.3953 15.4195 12.4094C15.42 12.4141 15.42 12.4188 15.4195 12.4234V12.4445L15.423 12.4586V12.4832C15.4266 12.4902 15.4301 12.4867 15.4336 12.4902C15.4337 12.4949 15.4337 12.4996 15.4336 12.5043C15.4342 12.5066 15.4342 12.509 15.4336 12.5113L15.4582 12.5605H15.4688L15.4828 12.5887C15.4863 12.5922 15.4898 12.5887 15.4898 12.5957H15.4934V12.6098L15.4898 12.6238L15.4793 12.6168H15.4125L15.402 12.6379C15.3949 12.6484 15.3879 12.6484 15.3809 12.6484C15.3703 12.6449 15.3598 12.6344 15.3492 12.6344C15.3387 12.6344 15.3316 12.6379 15.3211 12.6449C15.3105 12.6555 15.3035 12.6695 15.293 12.6695H15.2543L15.2473 12.6836L15.2332 12.6941L15.2086 12.6801L15.2016 12.6871L15.191 12.6801C15.1876 12.6774 15.1835 12.6756 15.1792 12.675C15.1749 12.6744 15.1705 12.6749 15.1664 12.6766Z" stroke="black" stroke-width="0.3" stroke-miterlimit="4.8"/>
</g>
<g id="Vector_58">
<path d="M15.2543 12.6728L15.2719 12.6763L15.2754 12.6834C15.2765 12.684 15.2777 12.6843 15.2789 12.6843C15.2801 12.6843 15.2814 12.684 15.2824 12.6834L15.293 12.6869H15.3035L15.3176 12.6904C15.3246 12.6939 15.3316 12.6904 15.3387 12.6869C15.3457 12.6799 15.3492 12.6869 15.3562 12.6939C15.3633 12.701 15.3633 12.6974 15.3668 12.6939C15.3668 12.6927 15.3668 12.6916 15.3668 12.6904L15.3773 12.6869L15.3914 12.6834L15.402 12.6763L15.416 12.6834C15.4185 12.6842 15.4209 12.6854 15.423 12.6869C15.4301 12.6763 15.4441 12.6728 15.4512 12.6658H15.4969C15.5004 12.6623 15.5004 12.6588 15.5074 12.6588L15.532 12.6728C15.5355 12.6728 15.5566 12.6799 15.5531 12.6623C15.5531 12.6482 15.5391 12.6588 15.5355 12.6482V12.6271C15.5343 12.6239 15.5324 12.621 15.53 12.6186C15.5276 12.6162 15.5247 12.6143 15.5215 12.6131H15.5109L15.5039 12.5955C15.5004 12.5955 15.4969 12.599 15.4898 12.5955L15.4828 12.5885C15.4723 12.5779 15.4652 12.5955 15.4582 12.592C15.4512 12.592 15.4441 12.5744 15.4371 12.5674C15.4371 12.5638 15.4266 12.5498 15.423 12.5533C15.416 12.5568 15.423 12.5709 15.4195 12.5779C15.416 12.5814 15.4055 12.5779 15.4055 12.5779C15.3984 12.5779 15.3984 12.5779 15.3949 12.5885C15.3844 12.599 15.3809 12.6095 15.3703 12.6095L15.3527 12.6025C15.3492 12.606 15.3457 12.6131 15.3387 12.6131C15.334 12.614 15.3292 12.614 15.3246 12.6131C15.3176 12.6131 15.3141 12.6025 15.3105 12.599C15.3105 12.5981 15.3102 12.5972 15.3095 12.5965C15.3089 12.5959 15.308 12.5955 15.307 12.5955C15.3061 12.5955 15.3052 12.5959 15.3045 12.5965C15.3039 12.5972 15.3035 12.5981 15.3035 12.599L15.2965 12.5955C15.2895 12.592 15.2895 12.5955 15.2859 12.6025V12.6201L15.2719 12.6342L15.2578 12.6377C15.2543 12.6377 15.2473 12.6482 15.2438 12.6377C15.2402 12.6236 15.2543 12.599 15.2367 12.6025C15.2367 12.6025 15.2297 12.6025 15.2262 12.6131V12.6342C15.2262 12.6447 15.2051 12.6623 15.2086 12.6693C15.2086 12.6799 15.2191 12.6693 15.2227 12.6693C15.2262 12.6728 15.2227 12.6799 15.2297 12.6834C15.2332 12.6939 15.2543 12.6693 15.2543 12.6834M15.1805 12.5885V12.5849L15.1629 12.5779L15.1488 12.592C15.1383 12.6095 15.1418 12.6271 15.1242 12.6271H15.1102C15.1031 12.6306 15.1102 12.6447 15.1102 12.6517V12.6623C15.1066 12.6623 15.1031 12.6623 15.0996 12.6693C15.0996 12.6834 15.1102 12.6799 15.1137 12.6799H15.1488L15.1699 12.6728L15.1875 12.6693C15.1906 12.6638 15.1929 12.6579 15.1945 12.6517V12.6377C15.1945 12.6306 15.2016 12.6342 15.2051 12.6236C15.2051 12.599 15.1805 12.6166 15.184 12.592" fill="#964B36"/>
<path d="M15.2543 12.6728L15.2719 12.6763L15.2754 12.6834C15.2765 12.684 15.2777 12.6843 15.2789 12.6843C15.2801 12.6843 15.2814 12.684 15.2824 12.6834L15.293 12.6869H15.3035L15.3176 12.6904C15.3246 12.6939 15.3316 12.6904 15.3387 12.6869C15.3457 12.6799 15.3492 12.6869 15.3562 12.6939C15.3633 12.701 15.3633 12.6974 15.3668 12.6939C15.3668 12.6927 15.3668 12.6916 15.3668 12.6904L15.3773 12.6869L15.3914 12.6834L15.402 12.6763L15.416 12.6834C15.4185 12.6842 15.4209 12.6854 15.423 12.6869C15.4301 12.6763 15.4441 12.6728 15.4512 12.6658H15.4969C15.5004 12.6623 15.5004 12.6588 15.5074 12.6588L15.532 12.6728C15.5355 12.6728 15.5566 12.6799 15.5531 12.6623C15.5531 12.6482 15.5391 12.6588 15.5355 12.6482V12.6271C15.5343 12.6239 15.5324 12.621 15.53 12.6186C15.5276 12.6162 15.5247 12.6143 15.5215 12.6131H15.5109L15.5039 12.5955C15.5004 12.5955 15.4969 12.599 15.4898 12.5955L15.4828 12.5885C15.4723 12.5779 15.4652 12.5955 15.4582 12.592C15.4512 12.592 15.4441 12.5744 15.4371 12.5674C15.4371 12.5638 15.4266 12.5498 15.423 12.5533C15.416 12.5568 15.423 12.5709 15.4195 12.5779C15.416 12.5814 15.4055 12.5779 15.4055 12.5779C15.3984 12.5779 15.3984 12.5779 15.3949 12.5885C15.3844 12.599 15.3809 12.6095 15.3703 12.6095L15.3527 12.6025C15.3492 12.606 15.3457 12.6131 15.3387 12.6131C15.334 12.614 15.3292 12.614 15.3246 12.6131C15.3176 12.6131 15.3141 12.6025 15.3105 12.599C15.3105 12.5981 15.3102 12.5972 15.3095 12.5965C15.3089 12.5959 15.308 12.5955 15.307 12.5955C15.3061 12.5955 15.3052 12.5959 15.3045 12.5965C15.3039 12.5972 15.3035 12.5981 15.3035 12.599L15.2965 12.5955C15.2895 12.592 15.2895 12.5955 15.2859 12.6025V12.6201L15.2719 12.6342L15.2578 12.6377C15.2543 12.6377 15.2473 12.6482 15.2438 12.6377C15.2402 12.6236 15.2543 12.599 15.2367 12.6025C15.2367 12.6025 15.2297 12.6025 15.2262 12.6131V12.6342C15.2262 12.6447 15.2051 12.6623 15.2086 12.6693C15.2086 12.6799 15.2191 12.6693 15.2227 12.6693C15.2262 12.6728 15.2227 12.6799 15.2297 12.6834C15.2332 12.6939 15.2543 12.6693 15.2543 12.6834M15.1805 12.5885V12.5849L15.1629 12.5779L15.1488 12.592C15.1383 12.6095 15.1418 12.6271 15.1242 12.6271H15.1102C15.1031 12.6306 15.1102 12.6447 15.1102 12.6517V12.6623C15.1066 12.6623 15.1031 12.6623 15.0996 12.6693C15.0996 12.6834 15.1102 12.6799 15.1137 12.6799H15.1488L15.1699 12.6728L15.1875 12.6693C15.1906 12.6638 15.1929 12.6579 15.1945 12.6517V12.6377C15.1945 12.6306 15.2016 12.6342 15.2051 12.6236C15.2051 12.599 15.1805 12.6166 15.184 12.592" stroke="black" stroke-width="0.3" stroke-miterlimit="4.8"/>
</g>
</g>
<g id="Group_8">
<path id="Vector_59" d="M15.4754 11.9078C15.4754 11.943 15.4543 11.9676 15.4262 11.9676C15.398 11.9676 15.377 11.9395 15.377 11.9078C15.377 11.8762 15.398 11.8516 15.4262 11.8516C15.4543 11.8516 15.4754 11.8762 15.4754 11.9078ZM15.3172 11.8375C15.3172 11.8727 15.2926 11.8937 15.268 11.8937C15.2398 11.8937 15.2188 11.8691 15.2188 11.8375C15.2188 11.8059 15.2398 11.7812 15.268 11.7812C15.2926 11.7812 15.3172 11.8059 15.3172 11.8375Z" fill="black" stroke="black" stroke-width="0.5" stroke-miterlimit="4.8"/>
<path id="Vector_60" d="M15.3977 11.859C15.3977 11.8941 15.3766 11.9187 15.352 11.9187C15.3238 11.9187 15.3027 11.8906 15.3027 11.859C15.3027 11.8273 15.3238 11.8027 15.352 11.8027C15.3766 11.8027 15.3977 11.8273 15.3977 11.859Z" fill="black" stroke="black" stroke-width="0.5" stroke-miterlimit="4.8"/>
<path id="Vector_61" d="M15.3176 11.9117C15.3176 11.9469 15.2965 11.9715 15.2719 11.9715C15.2437 11.9715 15.2227 11.9434 15.2227 11.9117C15.2227 11.8801 15.2437 11.8555 15.2719 11.8555C15.2965 11.8555 15.3176 11.8801 15.3176 11.9117Z" fill="black" stroke="black" stroke-width="0.5" stroke-miterlimit="4.8"/>
<path id="Vector_62" d="M15.3943 11.9527C15.3943 11.9879 15.3732 12.0125 15.3451 12.0125C15.317 12.0125 15.2959 11.9879 15.2959 11.9563C15.2959 11.9211 15.317 11.8965 15.3451 11.8965C15.3732 11.8965 15.3943 11.9246 15.3943 11.9563V11.9527Z" fill="black" stroke="black" stroke-width="0.5" stroke-miterlimit="4.8"/>
</g>
<path id="Vector_63" d="M15.4156 11.3316C15.4156 11.3316 15.9078 10.6496 16.4316 11.3598C16.4316 11.3598 16.4316 11.4301 16.3859 11.5004L16.3719 11.4477L16.3438 11.4547L16.3332 11.4195L16.277 11.416L16.2945 11.3422L16.2313 11.3879L16.2418 11.3352L16.1715 11.4055L16.1785 11.2578L16.1047 11.3844L16.1117 11.2965L16.0871 11.3352L16.0695 11.2859L16.0484 11.3352L16.0133 11.3105V11.3457L15.95 11.293L15.9289 11.3633L15.8938 11.2895L15.8867 11.3387L15.8586 11.2789L15.8516 11.3457L15.7531 11.3L15.7742 11.3633L15.725 11.3281L15.7355 11.3633L15.6652 11.3492L15.6723 11.3879L15.602 11.3773L15.616 11.4125L15.5176 11.3984L15.5527 11.4371L15.5422 11.4547C15.5422 11.4547 16.073 11.2789 16.1082 11.9398L16.0133 11.9891L16.0379 11.9363L16.0133 11.9187L15.9324 11.8555L15.9535 11.7711L15.9289 11.7816L15.9219 11.7324L15.9113 11.743L15.8762 11.6937L15.8691 11.7113L15.848 11.6516L15.827 11.6937L15.8129 11.5953L15.7777 11.6586L15.7742 11.6234L15.7602 11.6445L15.718 11.5918L15.7039 11.627L15.6863 11.5988L15.6723 11.634L15.623 11.5883V11.6234L15.5949 11.5953L15.5809 11.6129L15.5035 11.5742V11.6094L15.4613 11.5742L15.4473 11.6094C15.4473 11.6094 15.9289 11.8836 15.7777 12.3266L15.7531 12.3863L15.7426 12.2352L15.7004 12.316L15.7285 12.1402L15.7004 12.1754L15.6934 12.1051L15.6547 12.1754L15.6406 12.098L15.623 12.1191L15.5984 12.0066L15.5738 12.0559L15.5387 11.9258L15.5141 11.9785L15.4965 11.8695L15.4789 11.9363L15.4262 11.8379L15.4156 11.8766L15.3875 11.7992L15.3699 11.8238C15.3699 11.8238 15.282 11.8238 15.2539 11.7992C15.2258 11.7781 15.152 11.9328 15.152 11.9328L15.1625 11.8379L15.1273 11.9012V11.8379L15.0746 12.0242L15.0605 11.8906L15.0289 12.0066L15.0148 11.9715L15.0078 12.0207L14.9902 12.0031L14.9727 12.0523L14.9445 12.0312V12.1016L14.9199 12.0664L14.8953 12.1719L14.8848 12.1297V12.1789L14.8602 12.1508L14.8391 12.2562L14.8074 12.2141V12.2879L14.818 12.3441L14.7828 12.3266L14.7969 12.4215C14.7969 12.4215 14.6563 12.1648 14.8215 11.9187C14.9867 11.6727 15.2082 11.6023 15.2082 11.6023L15.1836 11.5848L15.1801 11.5602L15.0465 11.6305L15.05 11.5883L15.0148 11.6164L15.0078 11.5742L14.9867 11.6129L14.9797 11.5953L14.9516 11.6445L14.934 11.5742L14.9094 11.6586L14.8883 11.5988L14.8426 11.7254V11.6305L14.8074 11.7289L14.7969 11.6234L14.7688 11.7465V11.634L14.7301 11.7465L14.702 11.641L14.6844 11.743L14.6598 11.6621L14.6316 11.7816L14.593 11.6762L14.5719 11.8344L14.5438 11.7711L14.5402 11.8871L14.5086 11.8168L14.5402 11.9645L14.5016 11.9082L14.5121 11.9996L14.4559 11.9012L14.4594 12.0207L14.4313 11.9785L14.4172 12.0242C14.4172 12.0242 14.4031 11.5672 14.716 11.4758C15.0289 11.3879 15.2328 11.5039 15.2328 11.5039L15.1133 11.4055L15.1273 11.3773H15.0816L15.0992 11.3422H15.0113L15.0359 11.307L14.9656 11.3176V11.2965L14.9234 11.3316L14.941 11.293L14.8777 11.3316V11.2719L14.8426 11.3246L14.825 11.2719L14.6844 11.4125L14.723 11.2648L14.6984 11.3L14.6949 11.2648L14.6527 11.3281L14.6457 11.2824L14.6281 11.3352L14.6141 11.2754L14.5824 11.3352L14.5543 11.2789L14.5402 11.3527L14.5156 11.3176L14.491 11.3703L14.4559 11.3352L14.4523 11.3703L14.382 11.3422L14.3996 11.3949L14.3469 11.3492L14.3328 11.4195L14.3012 11.3844L14.2801 11.4723L14.259 11.3879L14.2344 11.4582C14.2344 11.4582 14.5121 10.748 15.2082 11.2121C15.2082 11.2121 15.2855 11.2824 15.3031 11.3352C15.3207 11.3879 15.3031 11.3457 15.3031 11.3457L15.2926 10.8535L15.3207 11.0645L15.3383 10.9941L15.3313 11.0996L15.4016 10.9484C15.4016 10.9484 15.3207 11.2051 15.3488 11.3C15.3488 11.3 15.384 11.0012 15.4895 10.966L15.391 11.177L15.4191 11.1734L15.398 11.2156H15.4262L15.391 11.2859L15.377 11.3211L15.3945 11.3562L15.4191 11.3316H15.4156Z" fill="#00A651" stroke="black" stroke-width="0.5" stroke-miterlimit="4.8"/>
<path id="Vector_64" d="M15.3455 11.6184L15.3596 11.6289C15.3596 11.6289 15.4053 11.5832 15.4756 11.643L15.4896 11.6289C15.4018 11.5551 15.3455 11.6184 15.3455 11.6184ZM15.3244 11.3793L15.3209 11.3934L15.3561 11.3793L15.3314 11.4215L15.3807 11.4039L15.3174 11.4848L15.335 11.4988L15.4334 11.3652L15.3701 11.3863L15.3982 11.3406L15.3455 11.3652L15.3561 11.2949H15.3385L15.3244 11.3793Z" fill="black"/>
<path id="Vector_65" d="M15.2293 11.3836L15.2504 11.4328L15.2152 11.4187L15.3207 11.5945L15.3313 11.5805L15.3102 11.6332L15.3277 11.6402L15.3734 11.5277L15.3559 11.5172L15.3207 11.5629L15.2609 11.4574L15.2891 11.468L15.2609 11.4047L15.2961 11.4293V11.359H15.2785V11.3941L15.2223 11.3555L15.2328 11.3836H15.2293ZM15.166 11.6086L15.173 11.6262C15.2012 11.6156 15.2223 11.6121 15.2434 11.6227C15.2609 11.6297 15.268 11.6508 15.268 11.6508L15.2855 11.6473C15.2855 11.6473 15.2785 11.6191 15.2504 11.6051C15.2258 11.5945 15.1977 11.5945 15.166 11.6086ZM15.2434 11.7984L15.2293 11.7H15.2469L15.2645 11.7984H15.2434ZM15.3805 11.7844L15.3559 11.707L15.3734 11.7035L15.398 11.7773L15.3805 11.7844ZM15.4297 11.8406L15.4121 11.7633L15.4297 11.7598L15.4473 11.8336L15.4297 11.8406Z" fill="black"/>
<g id="Vector_66">
<path d="M11.6721 14.0969C11.6721 14.0969 11.5877 14.0617 11.549 14.0898C11.5139 14.118 11.5139 14.1566 11.4822 14.1531C11.4822 14.1531 11.6088 14.1813 11.6369 14.1496L11.6721 14.1074M11.6861 14.1355C11.6861 14.1355 11.6299 14.2059 11.651 14.248C11.6686 14.2902 11.7072 14.2938 11.7002 14.3254C11.7002 14.3254 11.7529 14.2094 11.7283 14.1777L11.6932 14.1355M11.5947 13.9316C11.5947 13.9316 11.5068 13.9598 11.4963 14.002C11.4857 14.0512 11.5174 14.0758 11.4928 14.0969C11.4928 14.0969 11.6018 14.0336 11.6018 13.9914C11.6021 13.9738 11.6009 13.9561 11.5982 13.9387M11.6439 13.9633C11.6439 13.9633 11.6861 13.8824 11.658 13.8438C11.6334 13.8051 11.5912 13.8086 11.5982 13.7734C11.5982 13.7734 11.5631 13.9 11.5982 13.9281L11.6334 13.9633M11.5596 13.9316C11.5596 13.9316 11.5596 13.8438 11.5209 13.8191C11.4822 13.7945 11.4471 13.8156 11.4365 13.784C11.4365 13.784 11.4576 13.9105 11.4998 13.9246L11.5525 13.9352M11.7072 14.0828C11.7072 14.0828 11.8021 14.0512 11.8127 14.1531C11.8162 14.2586 11.8057 14.2234 11.8057 14.2234C11.8057 14.2234 11.7564 14.1109 11.7002 14.0934L11.7072 14.0828Z" fill="#00A651"/>
<path d="M11.6721 14.0969C11.6721 14.0969 11.5877 14.0617 11.549 14.0898C11.5139 14.118 11.5139 14.1566 11.4822 14.1531C11.4822 14.1531 11.6088 14.1813 11.6369 14.1496L11.6721 14.1074M11.6861 14.1355C11.6861 14.1355 11.6299 14.2059 11.651 14.248C11.6686 14.2902 11.7072 14.2938 11.7002 14.3254C11.7002 14.3254 11.7529 14.2094 11.7283 14.1777L11.6932 14.1355M11.5947 13.9316C11.5947 13.9316 11.5068 13.9598 11.4963 14.002C11.4857 14.0512 11.5174 14.0758 11.4928 14.0969C11.4928 14.0969 11.6018 14.0336 11.6018 13.9914C11.6021 13.9738 11.6009 13.9561 11.5982 13.9387M11.6439 13.9633C11.6439 13.9633 11.6861 13.8824 11.658 13.8438C11.6334 13.8051 11.5912 13.8086 11.5982 13.7734C11.5982 13.7734 11.5631 13.9 11.5982 13.9281L11.6334 13.9633M11.5596 13.9316C11.5596 13.9316 11.5596 13.8438 11.5209 13.8191C11.4822 13.7945 11.4471 13.8156 11.4365 13.784C11.4365 13.784 11.4576 13.9105 11.4998 13.9246L11.5525 13.9352M11.7072 14.0828C11.7072 14.0828 11.8021 14.0512 11.8127 14.1531C11.8162 14.2586 11.8057 14.2234 11.8057 14.2234C11.8057 14.2234 11.7564 14.1109 11.7002 14.0934L11.7072 14.0828Z" stroke="black" stroke-width="0.5" stroke-miterlimit="4.8"/>
</g>
<path id="Vector_67" d="M11.6826 14.1371L11.6932 14.218H11.7072L11.6967 14.1371L11.7318 13.9648H11.7143L11.6826 14.1371Z" fill="black"/>
<path id="Vector_68" d="M11.5979 14.1117L11.5908 14.1223C11.6365 14.1398 11.6998 14.0871 11.7033 14.0871L11.6963 14.0766C11.6963 14.0766 11.633 14.1258 11.5979 14.1117ZM11.7139 14.0098L11.5029 13.9043L11.51 13.8867L11.7209 13.9922L11.7139 14.0098Z" fill="black"/>
<path id="Vector_69" d="M11.5629 13.9859L11.5488 13.9754L11.591 13.9297L11.6051 13.9437L11.5629 13.9859ZM11.6332 13.9648L11.591 13.8699L11.6086 13.8594L11.6543 13.9578L11.6332 13.9648ZM11.7 14.0844V14.1055C11.7562 14.102 11.7703 14.1406 11.7703 14.1406L11.7914 14.1336C11.7914 14.123 11.7668 14.0809 11.7 14.0844Z" fill="black"/>
<g id="Vector_70">
<path d="M12.6738 14.1285C12.7441 14.0898 12.7582 13.9492 12.7582 13.9492C12.7441 13.9984 12.6141 14.0512 12.6141 14.0512C12.709 13.9914 12.825 13.7207 12.825 13.7207C12.7934 13.8191 12.5438 13.8965 12.3785 13.9879C12.2168 14.0793 12.3012 14.3395 12.3012 14.3395C12.2241 14.259 12.1728 14.1574 12.1535 14.0477C12.1359 13.9246 12.0867 13.8789 11.9777 13.8648C11.8652 13.8508 11.802 13.9738 11.802 13.9738L11.6367 14.0617L11.802 14.0688C11.802 14.0688 11.9215 14.1074 11.9215 14.2023C11.9215 14.2973 11.816 14.6699 11.9918 14.8809C12.1113 15.025 12.5543 15.1094 12.5543 15.1094" fill="white"/>
<path d="M12.6738 14.1285C12.7441 14.0898 12.7582 13.9492 12.7582 13.9492C12.7441 13.9984 12.6141 14.0512 12.6141 14.0512C12.709 13.9914 12.825 13.7207 12.825 13.7207C12.7934 13.8191 12.5438 13.8965 12.3785 13.9879C12.2168 14.0793 12.3012 14.3395 12.3012 14.3395C12.2241 14.259 12.1728 14.1574 12.1535 14.0477C12.1359 13.9246 12.0867 13.8789 11.9777 13.8648C11.8652 13.8508 11.802 13.9738 11.802 13.9738L11.6367 14.0617L11.802 14.0688C11.802 14.0688 11.9215 14.1074 11.9215 14.2023C11.9215 14.2973 11.816 14.6699 11.9918 14.8809C12.1113 15.025 12.5543 15.1094 12.5543 15.1094" stroke="black" stroke-width="0.7" stroke-miterlimit="4.8"/>
</g>
<g id="Vector_71">
<path d="M12.3506 14.418C12.3506 14.418 12.3857 14.2492 12.4912 14.2562C12.6037 14.2633 12.6354 14.1332 12.7021 14.1121C12.7654 14.091 13.1029 14.0031 13.1416 13.8379C13.1416 13.8379 13.1064 14.1051 12.8006 14.2387C12.8006 14.2387 13.0467 14.1578 13.0783 14.1016C13.0783 14.1016 12.9658 14.3406 12.6986 14.3793C12.6986 14.3793 12.9518 14.3582 12.9869 14.2914C12.9869 14.2914 12.8744 14.4426 12.6881 14.4602C12.6881 14.4602 12.8604 14.5305 12.9061 14.4707C12.9061 14.4707 12.8111 14.5832 12.6951 14.5902L12.7268 14.6008C12.7268 14.6008 12.6143 14.7309 12.4947 14.643C12.3717 14.5551 12.3682 14.6641 12.3682 14.6641" fill="white"/>
<path d="M12.3506 14.418C12.3506 14.418 12.3857 14.2492 12.4912 14.2562C12.6037 14.2633 12.6354 14.1332 12.7021 14.1121C12.7654 14.091 13.1029 14.0031 13.1416 13.8379C13.1416 13.8379 13.1064 14.1051 12.8006 14.2387C12.8006 14.2387 13.0467 14.1578 13.0783 14.1016C13.0783 14.1016 12.9658 14.3406 12.6986 14.3793C12.6986 14.3793 12.9518 14.3582 12.9869 14.2914C12.9869 14.2914 12.8744 14.4426 12.6881 14.4602C12.6881 14.4602 12.8604 14.5305 12.9061 14.4707C12.9061 14.4707 12.8111 14.5832 12.6951 14.5902L12.7268 14.6008C12.7268 14.6008 12.6143 14.7309 12.4947 14.643C12.3717 14.5551 12.3682 14.6641 12.3682 14.6641" stroke="black" stroke-width="0.7" stroke-miterlimit="4.8"/>
</g>
<g id="Vector_72">
<path d="M12.5994 14.6699C12.5994 14.6699 12.74 14.909 12.7576 15.0355C12.7576 15.0355 13.0283 15.3379 13.1303 15.352C13.1303 15.352 13.0846 15.373 12.9967 15.2992C12.9967 15.2992 13.067 15.3766 13.0846 15.3801C13.0986 15.3801 13.0248 15.373 13.0143 15.352C13.0143 15.352 13.0424 15.3977 13.0635 15.4047L13.0424 15.3977C13.0424 15.3977 13.0072 15.3941 12.9896 15.3801C12.9721 15.366 12.9826 15.4152 12.9826 15.4152C12.9826 15.4152 12.9404 15.4047 12.9264 15.3906C12.9123 15.3766 12.9334 15.4223 12.9334 15.4223L12.8982 15.4117L12.8701 15.4293C12.8701 15.4293 12.8701 15.4469 12.849 15.4328C12.835 15.4188 12.8033 15.4328 12.8033 15.4328C12.8033 15.4328 12.7787 15.4539 12.7682 15.4398C12.7576 15.4258 12.7154 15.4926 12.7154 15.4926L12.5361 15.0602" fill="white"/>
<path d="M12.5994 14.6699C12.5994 14.6699 12.74 14.909 12.7576 15.0355C12.7576 15.0355 13.0283 15.3379 13.1303 15.352C13.1303 15.352 13.0846 15.373 12.9967 15.2992C12.9967 15.2992 13.067 15.3766 13.0846 15.3801C13.0986 15.3801 13.0248 15.373 13.0143 15.352C13.0143 15.352 13.0424 15.3977 13.0635 15.4047L13.0424 15.3977C13.0424 15.3977 13.0072 15.3941 12.9896 15.3801C12.9721 15.366 12.9826 15.4152 12.9826 15.4152C12.9826 15.4152 12.9404 15.4047 12.9264 15.3906C12.9123 15.3766 12.9334 15.4223 12.9334 15.4223L12.8982 15.4117L12.8701 15.4293C12.8701 15.4293 12.8701 15.4469 12.849 15.4328C12.835 15.4188 12.8033 15.4328 12.8033 15.4328C12.8033 15.4328 12.7787 15.4539 12.7682 15.4398C12.7576 15.4258 12.7154 15.4926 12.7154 15.4926L12.5361 15.0602" stroke="black" stroke-width="0.7" stroke-miterlimit="4.8"/>
</g>
<path id="Vector_73" d="M12.7689 15.4543L12.5439 15.0219L12.5686 15.0113L12.7936 15.4402L12.7689 15.4543ZM12.9658 15.4227L12.5791 14.9902L12.6002 14.9727L12.9869 15.4051L12.9658 15.4227ZM13.0572 15.3875L12.6143 14.9762L12.6318 14.9551L13.0783 15.3629L13.0572 15.3875Z" fill="black"/>
<g id="Group_9">
<path id="Vector_74" d="M11.9476 14.0022C11.9476 14.0022 11.9196 13.9508 11.8939 13.9719C11.8705 13.9906 11.8565 13.9952 11.8518 13.9929C11.8518 13.9929 11.8752 13.9929 11.8915 13.9812C11.9055 13.9672 11.9289 13.9742 11.9476 14.0046V14.0022ZM11.7934 13.9789L11.8097 14.0116L11.791 14.0653L11.805 14.07L11.8214 14.0116L11.805 13.9742L11.7934 13.9789Z" fill="black"/>
<path id="Vector_75" d="M11.9431 13.9961C11.9431 13.9961 11.9198 14.0195 11.8917 14.0148L11.8613 14.0078H11.9034C11.9198 14.0078 11.9408 14.0008 11.9431 13.9961Z" fill="black"/>
<path id="Vector_76" d="M11.9364 13.9996C11.9364 13.9996 11.9083 13.9716 11.8896 13.9809C11.8896 13.9809 11.9224 13.9692 11.9411 13.9973L11.9364 13.9996Z" fill="black"/>
<path id="Vector_77" d="M11.9317 13.9949C11.9317 13.9949 11.9013 14.0159 11.8685 13.9949L11.8662 13.9902H11.8709C11.8709 13.9902 11.9106 14.0066 11.9317 13.9949Z" fill="black"/>
<path id="Vector_78" d="M11.9058 13.9992C11.911 13.9992 11.9152 13.995 11.9152 13.9898C11.9152 13.9847 11.911 13.9805 11.9058 13.9805C11.9007 13.9805 11.8965 13.9847 11.8965 13.9898C11.8965 13.995 11.9007 13.9992 11.9058 13.9992Z" fill="black"/>
</g>
<path id="Vector_79" d="M11.9319 14.7793C11.9319 14.7793 11.9073 14.825 11.9213 14.8496C11.9319 14.8742 11.9881 14.8883 11.9916 14.9234C12.0022 14.9586 12.0198 14.9586 12.0444 14.9516L12.0795 14.948C12.0795 14.948 11.9706 14.8883 11.9389 14.7969L11.9319 14.7793Z" fill="black"/>
<g id="Group_10">
<path id="Vector_80" d="M15.4262 13.907C15.4262 13.907 15.6195 13.6468 15.7953 13.7171C15.9711 13.7874 16.0836 13.8191 16.0836 13.8191C16.0836 13.8191 16.0871 13.9949 15.9957 13.9949C15.9008 13.9949 15.8129 13.8191 15.7285 13.8683C15.6441 13.921 15.5738 13.9914 15.5703 14.016C15.5633 14.0406 15.3453 14.0476 15.4262 13.9105V13.907Z" fill="#964B36" stroke="black" stroke-width="0.3" stroke-miterlimit="4.8"/>
<path id="Vector_81" d="M14.6772 15.1591C14.6772 15.1591 14.6245 15.2154 14.6491 15.2294C14.6737 15.2435 14.7194 15.2294 14.7194 15.2083C14.7194 15.1872 14.6878 15.1521 14.6772 15.1591Z" fill="#964B36" stroke="black" stroke-width="0.5" stroke-miterlimit="4.8"/>
<path id="Vector_82" d="M14.6354 15.2141C14.6354 15.2141 14.5334 15.1544 14.4561 15.2915C14.3752 15.4286 14.3084 15.6501 14.2627 15.6782C14.217 15.7063 14.7127 15.4602 14.7198 15.3583C14.7198 15.3583 14.7549 15.2247 14.6987 15.2247C14.6495 15.2282 14.6459 15.2352 14.6354 15.2106V15.2141Z" fill="#964B36" stroke="black" stroke-width="0.5" stroke-miterlimit="4.8"/>
<g id="Vector_83">
<path d="M14.649 15.2297C14.649 15.2297 14.5436 15.2543 14.5225 15.402C14.5014 15.5496 14.3572 15.6234 14.3467 15.6305M16.0834 13.8164C16.0834 13.8164 15.9252 13.8727 15.9533 13.9816Z" fill="#964B36"/>
<path d="M14.649 15.2297C14.649 15.2297 14.5436 15.2543 14.5225 15.402C14.5014 15.5496 14.3572 15.6234 14.3467 15.6305M16.0834 13.8164C16.0834 13.8164 15.9252 13.8727 15.9533 13.9816" stroke="black" stroke-width="0.3" stroke-miterlimit="4.8"/>
</g>
</g>
<g id="Vector_84">
<path d="M14.874 14.1369C14.874 14.1369 14.8775 13.7643 15.1834 13.7819C15.2432 13.7854 15.215 13.8522 15.215 13.8522C15.215 13.8522 15.2818 13.8065 15.31 13.8803C15.31 13.8803 15.4084 13.8381 15.4154 13.933C15.4154 13.933 15.5209 13.919 15.5104 14.0033C15.5104 14.0033 15.5807 13.9893 15.5807 14.049C15.5807 14.049 15.6615 14.0139 15.651 14.0983C15.651 14.0983 15.7424 14.0385 15.7283 14.1475C15.7283 14.1475 15.8232 14.0842 15.8549 14.1932C15.89 14.2987 15.76 14.5342 15.6369 14.594" fill="#FFF200"/>
<path d="M14.874 14.1369C14.874 14.1369 14.8775 13.7643 15.1834 13.7819C15.2432 13.7854 15.215 13.8522 15.215 13.8522C15.215 13.8522 15.2818 13.8065 15.31 13.8803C15.31 13.8803 15.4084 13.8381 15.4154 13.933C15.4154 13.933 15.5209 13.919 15.5104 14.0033C15.5104 14.0033 15.5807 13.9893 15.5807 14.049C15.5807 14.049 15.6615 14.0139 15.651 14.0983C15.651 14.0983 15.7424 14.0385 15.7283 14.1475C15.7283 14.1475 15.8232 14.0842 15.8549 14.1932C15.89 14.2987 15.76 14.5342 15.6369 14.594" stroke="black" stroke-width="0.3" stroke-miterlimit="4.8"/>
</g>
<path id="Vector_85" d="M15.7221 14.1605C15.7221 14.1605 15.7643 14.4523 15.599 14.5578L15.6061 14.5648C15.7748 14.4594 15.7326 14.1605 15.7326 14.157H15.7221V14.1605ZM15.5252 14.477L15.5322 14.484C15.6377 14.382 15.6588 14.1113 15.6588 14.0973H15.6482C15.6482 14.1008 15.6271 14.3785 15.5252 14.477ZM15.4268 14.4102H15.4373C15.4514 14.2449 15.585 14.0516 15.585 14.0516L15.5744 14.0445C15.5744 14.0445 15.4408 14.2414 15.4268 14.4102ZM15.3529 14.3609H15.3635C15.3811 14.1605 15.5146 14.0094 15.5146 14.0094L15.5076 13.9988C15.5076 13.9988 15.3705 14.157 15.3529 14.3609ZM15.2475 14.2941H15.2545C15.265 14.0551 15.4232 13.9391 15.4268 13.9355L15.4197 13.9285C15.4197 13.9285 15.2545 14.048 15.2439 14.2941H15.2475ZM15.1455 14.2344H15.1596C15.149 14.0164 15.3178 13.8828 15.3178 13.8828L15.3143 13.8758C15.3143 13.8758 15.1385 14.0129 15.1455 14.2344ZM14.9697 14.157H14.9803C14.9881 14.0893 15.0151 14.0252 15.0581 13.9723C15.101 13.9194 15.1582 13.8798 15.2229 13.8582L15.2193 13.8477C15.1532 13.8706 15.095 13.9118 15.0514 13.9666C15.0078 14.0214 14.9807 14.0874 14.9732 14.157H14.9697Z" fill="black"/>
<g id="Vector_86">
<path d="M14.6954 14.5902C14.6954 14.5902 14.6427 14.2457 14.8501 14.1332C14.8501 14.1332 14.8853 14.1261 14.9099 14.1753C14.9099 14.1753 15.0189 14.1296 15.0224 14.2211C15.0224 14.2211 15.0751 14.1789 15.0927 14.2386C15.0927 14.2386 15.2087 14.214 15.1841 14.3019C15.1841 14.3019 15.2826 14.2738 15.2755 14.3582C15.2755 14.3582 15.374 14.323 15.3564 14.3933C15.3564 14.3933 15.4619 14.3722 15.4372 14.4566C15.4372 14.4566 15.5638 14.4425 15.5251 14.5339C15.5251 14.5339 15.6201 14.5093 15.599 14.5832C15.599 14.5832 15.7255 14.6043 15.6693 14.6816C15.5781 14.7942 15.4594 14.8813 15.3247 14.9347" fill="#00A651"/>
<path d="M14.6954 14.5902C14.6954 14.5902 14.6427 14.2457 14.8501 14.1332C14.8501 14.1332 14.8853 14.1261 14.9099 14.1753C14.9099 14.1753 15.0189 14.1296 15.0224 14.2211C15.0224 14.2211 15.0751 14.1789 15.0927 14.2386C15.0927 14.2386 15.2087 14.214 15.1841 14.3019C15.1841 14.3019 15.2826 14.2738 15.2755 14.3582C15.2755 14.3582 15.374 14.323 15.3564 14.3933C15.3564 14.3933 15.4619 14.3722 15.4372 14.4566C15.4372 14.4566 15.5638 14.4425 15.5251 14.5339C15.5251 14.5339 15.6201 14.5093 15.599 14.5832C15.599 14.5832 15.7255 14.6043 15.6693 14.6816C15.5781 14.7942 15.4594 14.8813 15.3247 14.9347" stroke="black" stroke-width="0.3" stroke-miterlimit="4.8"/>
</g>
<g id="Vector_87">
<path d="M14.5825 14.9406C14.5825 14.9406 14.4982 14.6488 14.6599 14.575C14.6599 14.575 14.688 14.568 14.695 14.5961C14.695 14.5961 14.7302 14.5504 14.7583 14.5926C14.7583 14.5926 14.8392 14.5539 14.8568 14.6137C14.8568 14.6137 14.913 14.568 14.9411 14.6348C14.9411 14.6348 14.9904 14.6137 14.9904 14.6699C14.9904 14.6699 15.0607 14.6348 15.0607 14.7051C15.0607 14.7051 15.131 14.677 15.1169 14.7508C15.1169 14.7508 15.2224 14.7648 15.1872 14.8141C15.1872 14.8141 15.2822 14.8387 15.247 14.8773C15.247 14.8773 15.349 14.8668 15.2927 14.9336C15.2927 14.9336 15.37 14.909 15.3279 14.9934C15.2822 15.0777 15.1486 15.1691 15.0501 15.1832" fill="#00A651"/>
<path d="M14.5825 14.9406C14.5825 14.9406 14.4982 14.6488 14.6599 14.575C14.6599 14.575 14.688 14.568 14.695 14.5961C14.695 14.5961 14.7302 14.5504 14.7583 14.5926C14.7583 14.5926 14.8392 14.5539 14.8568 14.6137C14.8568 14.6137 14.913 14.568 14.9411 14.6348C14.9411 14.6348 14.9904 14.6137 14.9904 14.6699C14.9904 14.6699 15.0607 14.6348 15.0607 14.7051C15.0607 14.7051 15.131 14.677 15.1169 14.7508C15.1169 14.7508 15.2224 14.7648 15.1872 14.8141C15.1872 14.8141 15.2822 14.8387 15.247 14.8773C15.247 14.8773 15.349 14.8668 15.2927 14.9336C15.2927 14.9336 15.37 14.909 15.3279 14.9934C15.2822 15.0777 15.1486 15.1691 15.0501 15.1832" stroke="black" stroke-width="0.3" stroke-miterlimit="4.8"/>
</g>
<path id="Vector_88" d="M14.6849 15.1664C14.6849 15.1664 14.5056 14.9906 14.59 14.9414C14.59 14.9414 14.6251 14.952 14.6392 14.9906C14.6392 14.9906 14.6849 14.9273 14.7095 14.9906C14.7095 14.9906 14.7728 14.9695 14.7728 15.0152L14.8255 15.0504C14.8255 15.0504 14.8853 15.0504 14.8747 15.0855C14.8747 15.0855 14.9415 15.0785 14.938 15.1137C14.938 15.1137 14.9943 15.1137 14.9907 15.1523C14.9907 15.1523 15.0857 15.1699 15.0435 15.2191C15.0435 15.2191 14.8712 15.2543 14.7517 15.2051C14.7517 15.2051 14.6884 15.184 14.6814 15.1699L14.6849 15.1664Z" fill="#00A651" stroke="black" stroke-width="0.3" stroke-miterlimit="4.8"/>
<path id="Vector_89" d="M15.2998 14.8785L15.3033 14.8891C15.4088 14.8469 15.5951 14.5973 15.6021 14.5832L15.5951 14.5797C15.5951 14.5797 15.4053 14.8398 15.2998 14.8785ZM15.24 14.8328L15.2435 14.8434C15.351 14.7539 15.4467 14.6511 15.5283 14.5375L15.5213 14.5305C15.5213 14.5305 15.3314 14.7836 15.24 14.8328ZM15.1873 14.8117L15.1943 14.8187C15.2928 14.7379 15.4334 14.4672 15.4404 14.4602L15.4299 14.4531C15.4299 14.4566 15.2822 14.7344 15.1838 14.8117H15.1873ZM15.1381 14.7484H15.1486C15.1697 14.6148 15.3595 14.4039 15.3595 14.3969L15.3525 14.3934C15.3455 14.4004 15.1592 14.6113 15.1416 14.7484H15.1381ZM14.7584 14.5867H14.7689C14.7513 14.3934 14.9095 14.1824 14.9131 14.1789L14.906 14.1719C14.906 14.1719 14.7408 14.3898 14.7584 14.5867ZM14.8568 14.6008H14.8674C14.8427 14.4461 15.022 14.2281 15.0256 14.2246L15.0185 14.2176C15.008 14.2281 14.8322 14.4426 14.8568 14.6043V14.6008ZM15.0115 14.657H15.022C15.022 14.4812 15.1873 14.3055 15.1873 14.3055L15.1802 14.2984C15.1802 14.2984 15.008 14.4777 15.0115 14.657ZM14.6424 14.9734H14.6529C14.5931 14.8117 14.6986 14.6043 14.6986 14.6008L14.6881 14.5973C14.6881 14.5973 14.5826 14.8082 14.6424 14.977V14.9734ZM14.7127 14.9875L14.7232 14.984C14.6705 14.8188 14.7584 14.5973 14.7619 14.5973L14.7513 14.5902C14.7513 14.5902 14.6599 14.8187 14.7162 14.9875H14.7127ZM15.0045 15.1527L15.008 15.1633C15.1838 15.1 15.2963 14.9418 15.2998 14.9383L15.2892 14.9348C15.2892 14.9348 15.1767 15.0895 15.008 15.1527H15.0045ZM14.9693 15.1141L14.9728 15.1246C15.1135 15.0613 15.2435 14.8855 15.2435 14.8855L15.2365 14.8785C15.2365 14.8785 15.1064 15.0543 14.9693 15.1141ZM14.9342 15.1L14.9412 15.1105C15.0502 15.0297 15.1873 14.8293 15.1908 14.8293L15.1838 14.8223C15.1838 14.8223 15.0431 15.0227 14.9377 15.1035L14.9342 15.1ZM14.7619 14.998H14.7724C14.7683 14.8656 14.7998 14.7344 14.8638 14.6184L14.8533 14.6113C14.8533 14.6113 14.7373 14.8223 14.7619 14.998ZM14.8392 15.0473L14.8463 15.0543C14.9588 14.9523 14.9939 14.6816 14.9974 14.6676H14.9869C14.9869 14.6711 14.9482 14.9488 14.8392 15.0473Z" fill="black"/>
<path id="Vector_90" d="M14.9164 15.0781L14.9199 15.0887C15.0781 14.9727 15.1203 14.7512 15.1238 14.7512H15.1133C15.1133 14.7512 15.0711 14.9656 14.9164 15.0781ZM14.934 14.607V14.6352L14.8145 15.0219L14.825 15.0254L14.9445 14.6387C14.927 14.4488 15.0922 14.2414 15.0922 14.2414L15.0852 14.2344C15.0852 14.2344 14.934 14.4242 14.934 14.607Z" fill="black"/>
<path id="Vector_91" d="M15.0576 14.698C15.0576 14.7051 15.0225 14.9723 14.8783 15.0707L14.8818 15.0777C15.0295 14.9758 15.0682 14.7156 15.0682 14.7051C15.1314 14.6277 15.2791 14.3605 15.2791 14.3605L15.2721 14.3535C15.2721 14.357 15.1244 14.6207 15.0611 14.698H15.0576ZM14.6357 14.9898C14.6357 14.9969 14.6604 15.1305 14.6885 15.1762L14.6955 15.1691C14.6709 15.1234 14.6463 14.9934 14.6463 14.9898H14.6357ZM14.7061 14.9898C14.7061 15.0602 14.7061 15.1656 14.699 15.1762H14.7096C14.7166 15.1656 14.7131 15.0215 14.7131 14.9934H14.7025L14.7061 14.9898Z" fill="black"/>
<path id="Vector_92" d="M14.709 15.1809L14.7195 15.1879C14.7652 15.0859 14.7793 15.0156 14.7793 15.0156H14.7688C14.7688 15.0156 14.7547 15.0859 14.709 15.1809Z" fill="black"/>
<path id="Vector_93" d="M14.7197 15.1883L14.7232 15.1953C14.7755 15.1641 14.8134 15.1136 14.8287 15.0547H14.8182C14.8182 15.0547 14.8006 15.1391 14.7197 15.1848V15.1883ZM14.7338 15.1918V15.2023C14.8182 15.1953 14.8744 15.0934 14.8779 15.0898L14.8709 15.0828C14.8709 15.0828 14.8111 15.1883 14.7338 15.1918Z" fill="black"/>
<path id="Vector_94" d="M14.7441 15.1973V15.2078C14.7815 15.2072 14.8184 15.1987 14.8523 15.183C14.8862 15.1673 14.9164 15.1446 14.941 15.1164L14.934 15.1094C14.934 15.1094 14.8707 15.1902 14.7441 15.1973Z" fill="black"/>
<path id="Vector_95" d="M14.751 15.2016V15.2121C14.758 15.2121 14.9268 15.2473 14.9865 15.1594L14.9795 15.1523C14.9232 15.2367 14.7545 15.2016 14.751 15.2016Z" fill="black"/>
<path id="Vector_96" d="M10.9053 8.92969V13.725C10.9053 15.293 13.7389 16.2246 13.7389 16.2246C13.7389 16.2246 16.5725 15.293 16.5725 13.7285V8.92969H10.9053Z" stroke="black" stroke-width="2.8" stroke-miterlimit="4.8"/>
</g>
<path id="Vector_97" d="M0 0H9V9H0V0Z" fill="#012169"/>
<path id="Vector_98" d="M9 0V1.125L5.66016 4.5L9 7.78711V9H7.82227L4.46484 5.69531L1.19531 9H0V7.80469L3.26953 4.51758L0 1.30078V0H1.08984L4.46484 3.30469L7.73438 0H9Z" fill="white"/>
<path id="Vector_99" d="M3.23438 5.69531L3.42773 6.29297L0.738281 9H0V8.94727L3.23438 5.69531ZM5.41406 5.48438L6.36328 5.625L9 8.20898V9L5.41406 5.48438ZM9 0L5.625 3.44531L5.55469 2.67188L8.19141 0H9ZM0 0.0175781L3.39258 3.33984L2.35547 3.19922L0 0.861328V0.0175781Z" fill="#C8102E"/>
<path id="Vector_100" d="M3.09375 0V9H5.90625V0H3.09375ZM0 3.09375V5.90625H9V3.09375H0Z" fill="white"/>
<path id="Vector_101" d="M0 3.65625V5.34375H9V3.65625H0ZM3.65625 0V9H5.34375V0H3.65625Z" fill="#C8102E"/>
</g>
<defs>
<clipPath id="clip0_186_6894">
<rect width="18" height="18" fill="white"/>
</clipPath>
</defs>
</svg>
