<svg width="18" height="18" viewBox="0 0 18 18" fill="none" xmlns="http://www.w3.org/2000/svg">
<g id="fk" clip-path="url(#clip0_186_8451)">
<path id="Vector" d="M0 0H18V18H0V0Z" fill="#012169"/>
<path id="Vector_2" fill-rule="evenodd" clip-rule="evenodd" d="M11.0805 11.3614C11.0581 11.3608 11.0357 11.3619 11.0136 11.3648C10.8998 11.3848 10.719 11.7563 10.622 11.9739C10.4647 12.1613 10.3843 12.3086 10.3207 12.4157C10.294 12.4592 10.2538 12.506 10.2672 12.5629C10.0329 12.6198 10.0195 12.8206 10.0195 12.8976C10.0195 12.9846 10.0463 13.0248 10.0463 13.0248L10.1869 13.2859V13.2892C10.3375 13.6005 10.555 14.0155 10.6822 14.0489C10.8562 14.0992 11.3114 13.9318 11.6528 13.6406C12.3106 13.9145 13.0154 14.0578 13.7279 14.0623C14.5244 14.0623 15.2407 13.8716 15.7996 13.6406C16.141 13.9318 16.5928 14.0992 16.7702 14.0489C16.894 14.0155 17.1149 13.5971 17.2655 13.2892L17.4027 13.0248C17.4027 13.0248 17.4295 12.9846 17.4295 12.901C17.4295 12.824 17.4161 12.6198 17.1818 12.5663C17.1952 12.5094 17.1584 12.4592 17.1316 12.4157C17.0647 12.3052 16.9844 12.158 16.8304 11.9672C16.73 11.7496 16.5493 11.3848 16.4388 11.3648C16.2782 11.338 15.9368 11.4183 15.9368 11.4484V11.4652L15.244 12.1111C15.244 12.1278 15.2775 12.5964 15.4113 13.0148C14.8689 13.2078 14.2969 13.304 13.7212 13.2992C13.0585 13.2992 12.4929 13.1821 12.0344 13.0114C12.1205 12.7166 12.1765 12.4139 12.2017 12.1078L11.5156 11.4652V11.4484C11.5156 11.425 11.2512 11.3614 11.0805 11.3614ZM11.2545 12.1647C11.3415 12.1647 11.4319 12.2383 11.5089 12.3153L11.5022 12.3621C11.4749 12.4827 11.4391 12.6013 11.3951 12.7169C11.2242 12.6187 11.0638 12.5032 10.9165 12.3722C10.9901 12.2918 11.1106 12.1847 11.2378 12.168L11.2545 12.1647ZM16.1945 12.1647H16.2112C16.3384 12.1847 16.4589 12.2918 16.5359 12.3722C16.3876 12.5034 16.2261 12.6189 16.0539 12.7169C16.0099 12.6013 15.9741 12.4828 15.9468 12.3621C15.944 12.3466 15.9417 12.331 15.9402 12.3153C16.0138 12.2349 16.1075 12.1647 16.1945 12.1647ZM10.6387 13.0817C10.7291 13.152 10.8496 13.2323 10.9935 13.316C10.9546 13.342 10.9116 13.3613 10.8663 13.3729C10.806 13.3863 10.7458 13.3829 10.6822 13.3695C10.6583 13.3086 10.6447 13.2441 10.6421 13.1788C10.6403 13.1464 10.6392 13.1141 10.6387 13.0817ZM16.8137 13.0817L16.807 13.1788C16.8043 13.2441 16.7907 13.3086 16.7668 13.3695C16.714 13.3821 16.6592 13.3838 16.6057 13.3746C16.5522 13.3654 16.5011 13.3455 16.4556 13.316C16.6028 13.2323 16.7233 13.152 16.8137 13.0817Z" fill="url(#paint0_linear_186_8451)" stroke="white" stroke-width="9.52"/>
<path id="Vector_3" fill-rule="evenodd" clip-rule="evenodd" d="M11.6758 12.5545C11.6758 12.5545 11.4345 12.1647 11.2398 12.1957C11.0409 12.2222 10.8546 12.4703 10.8419 12.4836C10.7317 12.386 10.6336 12.2744 10.5499 12.1514C10.5626 12.1381 10.8546 11.4205 11.0155 11.3895C11.1857 11.3729 11.3572 11.4003 11.5149 11.4692L11.6758 12.5545Z" fill="url(#paint1_linear_186_8451)" stroke="black" stroke-width="1.47802"/>
<path id="Vector_4" fill-rule="evenodd" clip-rule="evenodd" d="M12.2048 12.1394C12.2048 12.166 12.1201 13.1937 11.7815 13.5525C11.4428 13.9113 10.8799 14.1328 10.6809 14.0796C10.4862 14.0221 10.0333 12.9855 10.0333 12.9855C10.0333 12.9855 10.5116 13.4816 10.8672 13.3975C11.2227 13.3177 11.4344 12.6932 11.5021 12.3875C11.5698 12.0863 11.5148 11.4883 11.5148 11.4883L12.209 12.1394H12.2048Z" fill="url(#paint2_linear_186_8451)" stroke="black" stroke-width="1.47802"/>
<path id="Vector_5" fill-rule="evenodd" clip-rule="evenodd" d="M15.7783 12.5545C15.7783 12.5545 16.0196 12.1647 16.2143 12.1957C16.4132 12.2222 16.5995 12.4703 16.6122 12.4836C16.7224 12.386 16.8205 12.2744 16.9042 12.1514C16.8916 12.1381 16.5995 11.4205 16.4386 11.3895C16.2684 11.3729 16.0969 11.4003 15.9392 11.4692L15.7783 12.5545Z" fill="url(#paint3_linear_186_8451)" stroke="black" stroke-width="1.47802"/>
<path id="Vector_6" fill-rule="evenodd" clip-rule="evenodd" d="M15.2494 12.1394C15.2494 12.166 15.334 13.1937 15.6726 13.5525C16.0113 13.9113 16.5742 14.1328 16.7732 14.0796C16.9679 14.0221 17.4208 12.9855 17.4208 12.9855C17.4208 12.9855 16.9425 13.4816 16.5869 13.3975C16.2314 13.3177 16.0197 12.6932 15.952 12.3875C15.8843 12.0863 15.9393 11.4883 15.9393 11.4883L15.2451 12.1394H15.2494Z" fill="url(#paint4_linear_186_8451)" stroke="black" stroke-width="1.47802"/>
<path id="Vector_7" fill-rule="evenodd" clip-rule="evenodd" d="M10.6273 11.9648C10.47 12.1556 10.3863 12.3062 10.3194 12.4167C10.2524 12.5271 10.2926 12.6844 10.4432 12.902C10.6105 13.1362 11.9627 14.0633 13.7265 14.0633C15.4903 14.0633 16.8424 13.1396 17.0064 12.902C17.1604 12.6811 17.2005 12.5271 17.1336 12.4167C17.0667 12.3062 16.983 12.1556 16.8257 11.9648C16.8257 12.2527 15.7045 13.3036 13.7265 13.3036C11.7485 13.3036 10.6273 12.2527 10.6273 11.9648Z" fill="url(#paint5_linear_186_8451)" stroke="black" stroke-width="1.428"/>
<path id="Vector_8" fill-rule="evenodd" clip-rule="evenodd" d="M16.7426 13.9269L17.0473 13.3998L16.8949 13.2891C16.8526 13.422 16.6791 13.4663 16.6494 13.6346C16.6198 13.8029 16.768 13.9668 16.7426 13.9269Z" fill="url(#paint6_linear_186_8451)" stroke="black" stroke-width="1.47802"/>
<path id="Vector_9" fill-rule="evenodd" clip-rule="evenodd" d="M17.0228 13.7733C17.0228 13.7733 17.0778 13.5386 16.9043 13.5076C16.7349 13.481 16.6418 13.6405 16.6672 13.5784C16.6926 13.5076 16.7942 13.4411 16.8111 13.2063C16.8238 12.9716 16.7984 12.8431 16.7984 12.8431C16.7984 12.8431 16.8662 12.5419 17.1413 12.5818C17.4207 12.6261 17.4334 12.8475 17.4334 12.9273C17.4334 13.007 17.408 13.0513 17.408 13.0513L17.0228 13.7733Z" fill="url(#paint7_linear_186_8451)" stroke="black" stroke-width="1.47802"/>
<path id="Vector_10" d="M16.0598 12.8707L16.116 12.9727L16.1512 12.948L16.1266 12.8848L16.1336 12.8707L16.2004 12.8285L16.3691 13.1344V13.1484L16.334 13.173L16.3516 13.2012L16.5133 13.0957L16.4992 13.0676L16.4641 13.0887H16.4465L16.2777 12.7828L16.341 12.7406H16.3551L16.3973 12.7969L16.4324 12.7723L16.3762 12.6738L16.0598 12.8742V12.8707ZM15.6484 13.1062L15.6625 13.1344L15.6977 13.1203L15.7117 13.1238L15.8594 13.4332V13.4473L15.8242 13.4684L15.8383 13.4965L16 13.4121L15.9859 13.3805L15.9508 13.3945H15.9367L15.8664 13.2469L16.0316 13.1625L16.102 13.3031V13.3172L16.0668 13.3418L16.0809 13.3699L16.2461 13.2855L16.232 13.2574L16.1969 13.2715L16.1828 13.2645L16.0316 12.9586L16.0352 12.9445L16.0703 12.9234L16.0563 12.8953L15.891 12.9797L15.9051 13.0078L15.9402 12.9938L15.9543 12.9973L16.0176 13.1238L15.8523 13.2117L15.7891 13.0852L15.7961 13.0711L15.8277 13.05L15.8137 13.0219L15.6484 13.1062ZM15.5535 13.3699L15.5641 13.398L15.6098 13.3875L15.6238 13.3945L15.659 13.5211L15.6238 13.5352C15.5324 13.5633 15.4551 13.5176 15.4234 13.4051C15.3883 13.2961 15.427 13.2117 15.5184 13.1836C15.5367 13.1786 15.5558 13.1774 15.5746 13.1801L15.5852 13.1871L15.6203 13.2469L15.6625 13.2328L15.6344 13.1273C15.5816 13.1273 15.5359 13.1344 15.4938 13.1484C15.3602 13.1941 15.2969 13.3031 15.332 13.4332C15.3672 13.5633 15.4832 13.623 15.6133 13.5809C15.6603 13.5649 15.7042 13.5411 15.7434 13.5105L15.7012 13.3699L15.7082 13.3594L15.7434 13.3453L15.7363 13.3102L15.5535 13.3699ZM15.1738 13.7285L15.3566 13.6723L15.3496 13.6371L15.3039 13.6477L15.2934 13.6441L15.1949 13.3102L15.1984 13.2996L15.2406 13.282L15.2301 13.2539L15.0473 13.3102L15.0543 13.3383L15.1 13.3313L15.1105 13.3348L15.209 13.6687L15.202 13.6793L15.1668 13.6969L15.1738 13.7285ZM14.1754 13.8902L14.4988 13.8621L14.4883 13.7461H14.4496L14.4426 13.8164L14.4355 13.8305L14.2949 13.8445L14.2809 13.6687H14.3617L14.3723 13.6758L14.3793 13.7215H14.4145L14.4039 13.5668H14.3688V13.616L14.3582 13.6301L14.2809 13.6336L14.2668 13.4789L14.3863 13.4719L14.3969 13.4754L14.4074 13.5352L14.4496 13.5316L14.4426 13.4262L14.1402 13.4578V13.4859H14.1789L14.1859 13.4965L14.2176 13.841L14.2105 13.8516L14.1754 13.8586V13.8902ZM13.6902 13.4648V13.5H13.7289L13.7359 13.5105L13.743 13.8551L13.7359 13.8656L13.7008 13.8727V13.9008H13.873V13.8691H13.8379L13.8238 13.8551V13.6934L13.9961 13.6898L13.9996 13.8516L13.9926 13.8656H13.9574V13.9008H14.1262V13.8656H14.091L14.0805 13.8516L14.077 13.507L14.084 13.493H14.1191V13.4578H13.9469V13.493L13.982 13.4965L13.9961 13.507V13.6477L13.8203 13.6512V13.5105L13.8309 13.5H13.866V13.4648H13.6902ZM13.3246 13.4543V13.5703H13.3668L13.3773 13.5L13.3844 13.493H13.4547V13.8445L13.4441 13.8586H13.4055V13.8938H13.5848V13.8656L13.5461 13.8586L13.5355 13.848L13.5391 13.4965H13.6094L13.6234 13.5035L13.6305 13.5738H13.6727V13.4613L13.3246 13.4543ZM12.7656 13.8234L13.082 13.8375L13.0855 13.725L13.0504 13.7215L13.0363 13.7918L13.0258 13.7988L12.8887 13.7918L12.8992 13.6195L12.9766 13.6266L12.9801 13.6336L12.9871 13.6828H13.0223L13.0258 13.5352H12.9906L12.9836 13.5773L12.9766 13.5844H12.8992L12.9062 13.4297L13.0223 13.4332L13.0293 13.4437L13.0398 13.5H13.0785V13.3945L12.7867 13.3805V13.4156L12.8219 13.4191L12.8289 13.4297L12.8148 13.7742L12.8043 13.7848H12.7691V13.8199L12.7656 13.8234ZM12.0414 13.6336L12.2066 13.6934L12.2172 13.6617L12.182 13.6477L12.175 13.6336L12.277 13.3031L12.2875 13.2961L12.3297 13.3066L12.3367 13.275L12.168 13.2188L12.1574 13.2469L12.1926 13.2645L12.2031 13.275L12.0977 13.6055L12.0871 13.616L12.052 13.602L12.0414 13.6336ZM11.7391 13.5211C11.7705 13.5462 11.8062 13.5652 11.8445 13.5773C11.9359 13.6055 12.0098 13.5703 12.0344 13.5C12.0401 13.4807 12.0408 13.4603 12.0365 13.4406C12.0322 13.4209 12.023 13.4027 12.0098 13.3875C11.9816 13.3523 11.957 13.3348 11.943 13.3172C11.9184 13.2891 11.9078 13.2609 11.9148 13.2328C11.9254 13.2012 11.9605 13.1836 12.0027 13.1977L12.0414 13.2223V13.2328L12.0344 13.2996L12.0766 13.3137L12.1047 13.2152C12.0758 13.1895 12.0424 13.1692 12.0062 13.1555C11.9254 13.1273 11.8586 13.166 11.834 13.2328C11.8294 13.2493 11.8282 13.2666 11.8306 13.2835C11.833 13.3005 11.839 13.3167 11.848 13.3313C11.8691 13.3629 11.8937 13.384 11.9113 13.4016C11.9465 13.4367 11.957 13.4684 11.9465 13.5C11.9359 13.5352 11.9008 13.5527 11.8551 13.5352C11.8384 13.5285 11.8229 13.5189 11.8094 13.507L11.8023 13.4965L11.8164 13.4191L11.7742 13.4051L11.7391 13.5211ZM11.3594 13.3594L11.6477 13.5L11.6934 13.3945L11.6582 13.3805L11.623 13.4367L11.6125 13.4437L11.4859 13.3805L11.5563 13.2293L11.6266 13.2645V13.275L11.616 13.3207L11.6477 13.3383L11.7074 13.1977L11.6793 13.1836L11.6512 13.2223L11.6406 13.2293L11.5703 13.1941L11.6336 13.0535L11.7391 13.1062L11.7461 13.1203L11.7285 13.173L11.7637 13.1906L11.8094 13.0992L11.5387 12.9656L11.5281 12.9938L11.5563 13.0113L11.5633 13.0289L11.4227 13.3383L11.4086 13.3418L11.3734 13.3313L11.3594 13.3594ZM11.3137 12.8391L11.173 12.7371L11.152 12.7652L11.1836 12.7898V12.8039L11.0008 13.0887L10.9867 13.0922L10.9586 13.0746L10.9375 13.1062L11.0816 13.2012C11.1344 13.2363 11.1766 13.2539 11.2223 13.2469C11.282 13.2434 11.3383 13.2082 11.377 13.1414C11.4473 13.0289 11.4297 12.9164 11.3137 12.8391ZM11.2539 12.8391L11.282 12.8602C11.3594 12.9129 11.3664 12.9902 11.3031 13.0887C11.2398 13.1871 11.166 13.2152 11.0922 13.159L11.0605 13.1449L11.2539 12.8426V12.8391ZM12.4 13.2926L12.393 13.3207L12.4281 13.3313L12.4352 13.3418L12.3648 13.6793L12.3543 13.6898L12.3191 13.6863L12.3121 13.7145L12.4773 13.7496L12.4844 13.725L12.4492 13.7109L12.4387 13.6969L12.4668 13.5563H12.4809C12.5371 13.5703 12.5512 13.602 12.5512 13.6652C12.5512 13.7004 12.5512 13.725 12.5793 13.7602C12.5898 13.7742 12.6074 13.7883 12.6391 13.7953C12.6576 13.799 12.6764 13.8014 12.6953 13.8023L12.6988 13.7707H12.6953C12.6531 13.7602 12.6391 13.7461 12.6355 13.7109C12.632 13.6758 12.6355 13.6406 12.6215 13.6055C12.6112 13.5819 12.5924 13.563 12.5687 13.5527C12.6391 13.5527 12.6742 13.5246 12.6883 13.4684C12.7023 13.398 12.6672 13.3488 12.5758 13.3277L12.4 13.2926ZM12.5125 13.3523L12.5371 13.3559C12.5934 13.3699 12.618 13.4051 12.6074 13.4578C12.5934 13.5176 12.5617 13.5387 12.4984 13.5246C12.4914 13.5246 12.4844 13.5246 12.4773 13.5176L12.5125 13.3523ZM14.6359 13.3875L14.6395 13.4227H14.6887L14.7449 13.7707L14.7344 13.7777L14.6992 13.7883L14.7027 13.8164L14.8785 13.7883V13.7566L14.8363 13.7602L14.8258 13.7531L14.8047 13.609H14.8152C14.8785 13.5949 14.8996 13.6195 14.9313 13.6793C14.9453 13.7074 14.9523 13.7355 14.991 13.7566C15.0086 13.7637 15.0332 13.7707 15.0613 13.7637C15.0828 13.7593 15.104 13.7534 15.1246 13.7461L15.1176 13.718H15.1105C15.0684 13.725 15.0473 13.718 15.0262 13.6863C15.0086 13.6582 14.998 13.623 14.977 13.5984C14.9594 13.5809 14.9348 13.5703 14.9066 13.5703C14.9734 13.5422 15.0051 13.5 14.9945 13.4402C14.984 13.3699 14.9242 13.3383 14.8293 13.3523L14.6359 13.3875ZM14.773 13.4016H14.8012C14.8609 13.3875 14.8996 13.4121 14.9066 13.4648C14.9137 13.5246 14.8891 13.5562 14.8223 13.5703H14.7977L14.7695 13.4016H14.773Z" fill="black"/>
<path id="Vector_11" fill-rule="evenodd" clip-rule="evenodd" d="M10.7106 13.9269L10.4058 13.3998L10.5582 13.2891C10.6005 13.422 10.7741 13.4663 10.8037 13.6346C10.8333 13.8029 10.6852 13.9668 10.7106 13.9269Z" fill="url(#paint8_linear_186_8451)" stroke="black" stroke-width="1.47802"/>
<path id="Vector_12" fill-rule="evenodd" clip-rule="evenodd" d="M10.4313 13.7733C10.4313 13.7733 10.3763 13.5386 10.5498 13.5076C10.7192 13.481 10.8123 13.6405 10.7869 13.5784C10.7615 13.5076 10.6599 13.4411 10.643 13.2063C10.6303 12.9716 10.6557 12.8431 10.6557 12.8431C10.6557 12.8431 10.5879 12.5419 10.3128 12.5818C10.0334 12.6261 10.0207 12.8475 10.0207 12.9273C10.0207 13.007 10.0461 13.0513 10.0461 13.0513L10.4313 13.7733Z" fill="url(#paint9_linear_186_8451)" stroke="black" stroke-width="1.47802"/>
<path id="Vector_13" fill-rule="evenodd" clip-rule="evenodd" d="M13.7314 13.1321C13.7314 13.1321 10.5356 12.1842 10.5567 8.605L10.5779 3.86523H16.8806L16.9017 8.57842C16.9229 12.1576 13.7271 13.1277 13.7271 13.1277L13.7314 13.1321Z" fill="#0072C4" stroke="white" stroke-width="4.80356"/>
<g id="Group">
<path id="Vector_14" fill-rule="evenodd" clip-rule="evenodd" d="M11.0146 4.925C11.0217 4.925 11.0568 4.88984 11.0955 4.85469C11.1447 4.83008 11.1904 4.79844 11.2361 4.77031C11.2783 4.75273 11.3521 4.73516 11.3838 4.71758C11.4313 4.69531 11.4733 4.66291 11.5068 4.62266C11.5104 4.55937 11.5209 4.51367 11.5209 4.44336L11.6615 4.37305C11.7318 4.35195 11.7424 4.32734 11.8092 4.3168C11.8514 4.30273 11.9217 4.30273 11.9814 4.30273C12.0482 4.30273 12.0869 4.35195 12.1467 4.35898C12.217 4.38711 12.2521 4.4082 12.3084 4.45742C12.3365 4.49609 12.3576 4.52773 12.4139 4.55937C12.4525 4.58398 12.4947 4.61562 12.5439 4.62969C12.6002 4.66133 12.6459 4.67891 12.6881 4.72461C12.7303 4.75273 12.7479 4.79492 12.7795 4.82305C12.8224 4.85954 12.8683 4.89246 12.9166 4.92148C12.9729 4.95664 13.0291 4.98477 13.117 4.97773C13.1662 4.97773 13.2189 4.9707 13.2752 4.97773C13.342 4.97773 13.4053 4.97773 13.4615 4.99531C13.5318 4.99531 13.5846 5.00234 13.6479 5.00937C13.7076 5.01992 13.7674 5.01992 13.8307 5.01992C13.8904 5.0375 13.9537 5.03398 14.017 5.03398H14.3896C14.46 5.03398 14.5268 5.0375 14.5725 5.04805C14.6348 5.04734 14.697 5.04264 14.7588 5.03398C14.8291 5.03398 14.8854 5.02344 14.9592 5.01992H15.1807C15.2404 5.0375 15.3143 5.04805 15.3564 5.07969C15.4092 5.09375 15.4338 5.11836 15.4865 5.13594C15.5375 5.15727 15.5832 5.1897 15.6201 5.23086C15.6617 5.27643 15.6972 5.32725 15.7256 5.38203C15.7607 5.43477 15.7748 5.49805 15.8029 5.56133C15.817 5.62461 15.8311 5.68437 15.8311 5.75469C15.8451 5.81445 15.8451 5.88125 15.8451 5.94805C15.8275 6.01133 15.8275 6.08164 15.8029 6.14141C15.8029 6.21172 15.7889 6.27148 15.7783 6.3207C15.7678 6.38047 15.7502 6.41563 15.7502 6.48945V6.68281C15.7502 6.74609 15.7326 6.78828 15.7256 6.85859C15.69 6.92705 15.6583 6.99748 15.6307 7.06953C15.5895 7.09814 15.5538 7.13386 15.5252 7.175C15.4971 7.19961 15.483 7.22422 15.4865 7.23477C15.5393 7.25234 15.5252 7.29102 15.5252 7.35781C15.5322 7.41406 15.5357 7.48086 15.5533 7.54062C15.5568 7.60391 15.5709 7.64609 15.5885 7.6918C15.6131 7.71992 15.6201 7.70586 15.5639 7.70586C15.5287 7.73398 15.4865 7.71992 15.4725 7.66367C15.4427 7.61709 15.4246 7.56403 15.4197 7.50898C15.4127 7.44922 15.4021 7.38594 15.3846 7.34375C15.374 7.26641 15.3529 7.26641 15.2791 7.26289C15.2404 7.22773 15.1912 7.2207 15.1174 7.2207C15.0471 7.2207 15.04 7.21367 15.0365 7.29102V7.48437C15.0225 7.54062 15.0014 7.58633 14.9838 7.63555C14.9451 7.66367 14.9275 7.71289 14.8783 7.74453C14.8537 7.80781 14.8221 7.81836 14.7588 7.83242L14.6814 7.73398C14.7166 7.6707 14.7518 7.66367 14.7729 7.59336C14.801 7.54062 14.8186 7.50547 14.8361 7.45625C14.808 7.41406 14.7869 7.39297 14.7588 7.3332C14.7298 7.28557 14.7062 7.23487 14.6885 7.18203C14.6498 7.16445 14.583 7.16094 14.5479 7.13984C14.4811 7.12227 14.467 7.19609 14.3896 7.19609H14.2033C14.1225 7.19609 14.1014 7.23828 14.0311 7.23477C14.01 7.2418 13.9607 7.23477 13.8869 7.23477C13.8307 7.25586 13.7639 7.24883 13.7006 7.24883C13.6338 7.24883 13.5811 7.23125 13.5283 7.2207C13.4686 7.20312 13.4088 7.18555 13.3455 7.18203C13.2646 7.18203 13.2365 7.18555 13.1838 7.2207C13.1451 7.24531 13.0854 7.30156 13.0432 7.3332C13.0221 7.37891 13.0115 7.45625 12.9834 7.50898C12.9729 7.56875 12.9482 7.60039 12.9307 7.64961C12.9098 7.70355 12.8979 7.76056 12.8955 7.81836C12.8885 7.90977 12.8709 7.89922 12.8146 7.87109C12.7936 7.83242 12.7584 7.79023 12.7338 7.74453C12.7479 7.67422 12.7619 7.64258 12.7619 7.56875C12.7479 7.50898 12.7197 7.51602 12.6846 7.55469C12.6846 7.625 12.6846 7.68125 12.6529 7.71992C12.642 7.76388 12.6142 7.80177 12.5756 7.82539C12.558 7.88164 12.5123 7.90625 12.4701 7.92734V7.86758C12.4385 7.80781 12.4701 7.75508 12.4701 7.67773C12.4701 7.60742 12.4666 7.56172 12.4842 7.50195C12.4842 7.43164 12.4561 7.36836 12.4455 7.31914C12.4209 7.26641 12.4068 7.2418 12.34 7.2207C12.2908 7.19961 12.224 7.17852 12.1924 7.13633C12.1623 7.09401 12.1209 7.0611 12.0729 7.04141C12.0166 7.02031 11.985 6.99922 11.9393 6.97109C11.9041 6.92539 11.8689 6.90781 11.8479 6.84805C11.8197 6.80586 11.8162 6.725 11.7986 6.66875C11.7922 6.612 11.778 6.5564 11.7564 6.50352C11.7506 6.44588 11.7376 6.38919 11.7178 6.33477L11.6791 6.15547C11.6791 6.08867 11.6791 6.02188 11.6615 5.96211V5.76875C11.6545 5.7125 11.651 5.62812 11.6369 5.58945C11.6369 5.51211 11.6299 5.47344 11.6088 5.4207C11.5807 5.37148 11.5807 5.35039 11.5314 5.33984C11.4963 5.38203 11.4436 5.40312 11.3732 5.41016C11.324 5.39961 11.2572 5.38906 11.201 5.36797C11.1482 5.35742 11.1131 5.33281 11.0709 5.31172C11.046 5.27394 11.019 5.23756 10.99 5.20273C10.9795 5.13242 10.9654 5.09375 10.9619 5.01992C10.9619 4.9707 10.9619 4.99883 11.0182 4.925H11.0146Z" fill="#BCBCBC"/>
<path id="Vector_15" fill-rule="evenodd" clip-rule="evenodd" d="M11.7986 5.42422L11.8092 5.41367C11.7846 5.43477 11.7951 5.42422 11.8443 5.40312C11.876 5.38906 11.9287 5.35742 11.9498 5.33281C11.9709 5.32578 12.0131 5.3082 12.0342 5.28711C12.0588 5.25898 12.0834 5.23437 12.1186 5.20977C12.1537 5.17812 12.1889 5.16758 12.2311 5.13945C12.2803 5.13594 12.3014 5.11133 12.3506 5.12891C12.3963 5.13945 12.4174 5.13945 12.4561 5.10078C12.4912 5.07969 12.5334 5.05156 12.5475 5.01641V4.95312C12.5475 5.01641 12.5334 5.04102 12.4912 5.05859C12.4631 5.09727 12.4209 5.13594 12.4068 5.17109C12.3752 5.21328 12.3717 5.23437 12.3436 5.25547C12.3154 5.28711 12.2732 5.30469 12.2662 5.35742C12.2803 5.37852 12.2662 5.39258 12.2979 5.39258C12.3225 5.41719 12.3506 5.40664 12.3893 5.39258C12.4187 5.35917 12.4424 5.32116 12.4596 5.28008L12.5299 5.17813C12.565 5.15703 12.5826 5.13945 12.5932 5.10078C12.6283 5.07969 12.6635 5.05508 12.6881 5.03047C12.7162 5.01641 12.7303 5.00234 12.7725 4.99531C12.7748 5.03259 12.7649 5.0696 12.7443 5.10078C12.7338 5.15703 12.7373 5.18164 12.7549 5.2168C12.7795 5.23437 12.776 5.25195 12.79 5.28711C12.8076 5.25195 12.8146 5.18867 12.8217 5.14648V5.13945C12.8217 5.18164 12.8217 5.23789 12.8076 5.26602C12.8076 5.32578 12.8252 5.35039 12.8393 5.39258C12.8533 5.41719 12.8674 5.42773 12.885 5.4418C12.885 5.38555 12.9025 5.35039 12.9025 5.30117C12.9166 5.33633 12.9131 5.38906 12.9201 5.43477C12.9236 5.48047 12.9412 5.51211 12.9553 5.55078C12.9799 5.56133 12.9869 5.60352 12.9939 5.57187C13.0186 5.50156 13.0186 5.42773 13.0326 5.35742C13.0319 5.31659 13.039 5.276 13.0537 5.23789L13.0326 5.35391C13.0326 5.31875 13.0396 5.26602 13.0537 5.23789V5.22734C13.0633 5.27959 13.0692 5.33246 13.0713 5.38555C13.0713 5.42773 13.0713 5.46992 13.0818 5.51211C13.11 5.49805 13.1311 5.46289 13.1486 5.42422C13.1677 5.38633 13.1913 5.35091 13.2189 5.31875L13.1486 5.42422C13.1677 5.38633 13.1913 5.35091 13.2189 5.31875V5.3082C13.214 5.35256 13.2117 5.39717 13.2119 5.4418C13.2119 5.4875 13.2119 5.54023 13.2225 5.57187C13.233 5.62109 13.2471 5.63164 13.2506 5.68437C13.2506 5.7125 13.2436 5.74414 13.2576 5.75469C13.2998 5.76523 13.2998 5.74414 13.3033 5.68789C13.3033 5.62461 13.3209 5.58242 13.3244 5.52266C13.3244 5.44883 13.335 5.52969 13.342 5.55781C13.3591 5.59913 13.3686 5.64319 13.3701 5.68789C13.3701 5.71602 13.3701 5.74414 13.3807 5.7582C13.4158 5.74063 13.4299 5.69844 13.451 5.67734L13.5107 5.57891C13.56 5.57187 13.5564 5.55078 13.5564 5.49453C13.5564 5.44531 13.5564 5.39609 13.567 5.35391C13.5823 5.31248 13.5952 5.27022 13.6057 5.22734C13.6232 5.2168 13.6408 5.24492 13.6514 5.26602C13.6725 5.30117 13.6689 5.34336 13.6689 5.39258C13.681 5.43408 13.6975 5.47416 13.7182 5.51211C13.736 5.54663 13.7585 5.57856 13.785 5.60703C13.792 5.64219 13.792 5.69492 13.792 5.73711C13.8271 5.69492 13.8342 5.63164 13.8377 5.57187C13.8307 5.52969 13.8307 5.47344 13.8201 5.43125C13.8181 5.39183 13.811 5.35283 13.799 5.31523C13.7709 5.30117 13.7639 5.28711 13.792 5.24492C13.8201 5.22031 13.8553 5.23437 13.9045 5.23789C13.9291 5.26602 13.9396 5.28008 13.9396 5.33633C13.9396 5.38906 13.9396 5.42773 13.9607 5.46289C13.9783 5.49102 13.9959 5.51211 14.0064 5.55781C14.0205 5.57539 14.0311 5.59297 14.0521 5.57187C14.0627 5.54375 14.0732 5.48398 14.0803 5.45234C14.0908 5.41719 14.1084 5.39609 14.126 5.38203C14.126 5.43828 14.126 5.46992 14.1471 5.51211L14.1928 5.61758C14.2139 5.63516 14.2174 5.66328 14.242 5.67734C14.249 5.63164 14.249 5.57891 14.249 5.52266V5.38203C14.2525 5.33984 14.2631 5.31172 14.2807 5.27656C14.3088 5.31523 14.3088 5.3293 14.3088 5.38203C14.3369 5.37148 14.3439 5.35039 14.3545 5.31523C14.3721 5.29414 14.3826 5.28711 14.3896 5.33633L14.4178 5.48047C14.4354 5.50508 14.46 5.55781 14.4811 5.57891C14.498 5.60791 14.5181 5.63502 14.5408 5.65977C14.5549 5.68789 14.5584 5.70898 14.5971 5.71602C14.5971 5.65273 14.5971 5.58594 14.5865 5.52266C14.5865 5.46641 14.5725 5.44531 14.5689 5.39258C14.5514 5.36094 14.5443 5.31172 14.5479 5.29414C14.5862 5.32646 14.6163 5.36743 14.6357 5.41367L14.692 5.54375C14.7186 5.57288 14.7422 5.60469 14.7623 5.63867C14.7975 5.6668 14.815 5.69844 14.8502 5.72656C14.8678 5.74414 14.9064 5.75469 14.9135 5.74414C14.9135 5.68789 14.9029 5.63867 14.8854 5.58945C14.8852 5.54911 14.8756 5.50936 14.8572 5.47344C14.8221 5.4418 14.7904 5.4207 14.7729 5.375C14.7588 5.36094 14.7588 5.35391 14.7553 5.32578C14.8042 5.36583 14.8479 5.4119 14.8854 5.46289C14.9045 5.49276 14.9311 5.51702 14.9627 5.5332C14.9768 5.5543 15.033 5.57891 15.0717 5.58945C15.0952 5.62006 15.1288 5.64126 15.1666 5.64922L15.0717 5.58945C15.0952 5.62006 15.1288 5.64126 15.1666 5.64922V5.65977C15.1601 5.60344 15.1409 5.54933 15.1104 5.50156C15.0913 5.45898 15.0609 5.42248 15.0225 5.39609C14.9995 5.35989 14.9681 5.32974 14.9311 5.3082C14.9064 5.28008 14.8678 5.22734 14.8467 5.20977C14.8889 5.18164 14.9346 5.22734 14.9768 5.24492C15.0154 5.28711 15.0471 5.33984 15.0717 5.36445C15.0942 5.41204 15.1238 5.4559 15.1596 5.49453C15.1982 5.51563 15.2229 5.54023 15.258 5.57187C15.3178 5.58594 15.2932 5.56484 15.2791 5.52266C15.258 5.46641 15.2791 5.46641 15.3143 5.50156C15.3424 5.52266 15.374 5.55078 15.4092 5.57187C15.4268 5.58945 15.4514 5.60703 15.4725 5.58945C15.4865 5.57539 15.4865 5.57539 15.4865 5.56133C15.4654 5.49805 15.4443 5.45586 15.3986 5.43477C15.3775 5.40313 15.3424 5.375 15.3143 5.34688L15.258 5.26602L15.3178 5.34336C15.2967 5.31523 15.2756 5.30117 15.258 5.26602H15.251C15.3072 5.26602 15.3283 5.28359 15.3705 5.3082C15.4048 5.32299 15.4341 5.34742 15.4549 5.37852C15.4725 5.39961 15.5041 5.42422 15.5252 5.45234L15.6131 5.52266C15.6482 5.56133 15.6482 5.58945 15.6482 5.64922C15.6729 5.67734 15.6729 5.73359 15.6834 5.76523C15.6729 5.82148 15.6553 5.77578 15.6482 5.74414C15.6482 5.70195 15.6271 5.70547 15.5955 5.71602C15.5955 5.77578 15.6025 5.78984 15.6236 5.83555C15.6192 5.86942 15.6071 5.90185 15.5885 5.93047C15.5639 5.94453 15.5604 5.90234 15.5393 5.88477C15.5393 5.825 15.5217 5.81445 15.483 5.78633V5.825C15.5041 5.86719 15.5287 5.90234 15.5322 5.96211C15.5459 6.00283 15.5519 6.04576 15.5498 6.08867C15.5498 6.13789 15.5498 6.18359 15.5393 6.2293L15.5322 6.35234V6.62656C15.5247 6.66832 15.5212 6.7107 15.5217 6.75313L15.5322 6.62656C15.5252 6.66172 15.5217 6.70391 15.5217 6.75313V6.76367C15.5041 6.71445 15.4865 6.67227 15.4725 6.61953C15.4446 6.59024 15.4231 6.55553 15.4092 6.51758L15.3916 6.39453C15.3775 6.35937 15.3635 6.32422 15.3318 6.34531C15.3213 6.41562 15.3389 6.45781 15.3635 6.52812C15.3775 6.57383 15.3775 6.6125 15.3916 6.6582C15.4127 6.70742 15.4303 6.71445 15.3916 6.7707C15.3705 6.80586 15.3635 6.81289 15.3564 6.85156C15.3213 6.86914 15.3107 6.87969 15.3072 6.92187C15.2967 6.8832 15.2686 6.8375 15.251 6.79531L15.2053 6.65469C15.1807 6.61953 15.1561 6.57031 15.1314 6.54922C15.1033 6.51758 15.0717 6.46133 15.0541 6.4332C15.0189 6.39102 15.0084 6.36289 14.9768 6.34531C14.9732 6.32422 14.9627 6.29961 14.9416 6.31719C14.9416 6.36289 14.9416 6.41211 14.9521 6.45078C14.9627 6.50703 14.9768 6.53867 14.9803 6.59492V6.70391C14.9592 6.64766 14.9311 6.60195 14.9135 6.54922C14.8924 6.51758 14.8783 6.46133 14.8502 6.44375C14.8326 6.40156 14.8221 6.37344 14.801 6.34531C14.7975 6.31719 14.7834 6.31719 14.7729 6.29609C14.7729 6.34883 14.7904 6.36992 14.801 6.41211C14.8187 6.44932 14.8259 6.49062 14.8221 6.53164C14.7975 6.46133 14.7764 6.3875 14.7447 6.32422C14.7166 6.28555 14.6885 6.23281 14.6744 6.19414C14.6428 6.1625 14.6146 6.15898 14.5865 6.13789C14.5618 6.12681 14.5401 6.10992 14.5232 6.08867C14.5268 6.14141 14.5479 6.17656 14.5584 6.21523C14.5654 6.26445 14.59 6.30312 14.5971 6.34531C14.5865 6.41211 14.5689 6.32422 14.5619 6.29609C14.5538 6.25439 14.5371 6.21486 14.5127 6.18008C14.4846 6.15898 14.467 6.12734 14.4354 6.10977C14.4072 6.09922 14.4178 6.10977 14.4178 6.14492C14.4178 6.2082 14.4178 6.25039 14.4354 6.28555C14.4564 6.31367 14.4564 6.34883 14.4564 6.40156C14.4564 6.45078 14.4459 6.48945 14.4459 6.54219V6.61602C14.4248 6.57734 14.4037 6.54922 14.3896 6.5C14.358 6.4543 14.3475 6.42266 14.3264 6.37344C14.3053 6.36289 14.2666 6.35586 14.249 6.37344C14.2525 6.42266 14.2771 6.44375 14.2807 6.5C14.242 6.53516 14.2455 6.54922 14.2209 6.48945C14.2033 6.44375 14.1752 6.44727 14.1471 6.41914C14.1014 6.41914 14.1154 6.38398 14.1014 6.3418C14.1014 6.30664 14.1014 6.26797 14.0908 6.23633C14.0381 6.23633 14.01 6.23633 13.9783 6.26445C13.9643 6.29258 13.9713 6.34883 13.9783 6.39453V6.52812C13.9678 6.56328 13.9502 6.56328 13.9432 6.60898C13.9221 6.64766 13.9186 6.69336 13.9045 6.72148C13.8693 6.75664 13.8834 6.75664 13.8693 6.70391V6.3875L13.8764 6.26445C13.8588 6.22578 13.8518 6.21523 13.7885 6.21523C13.7779 6.23984 13.785 6.28555 13.7885 6.31367C13.7885 6.36289 13.7955 6.40859 13.799 6.44023C13.799 6.49297 13.8061 6.52461 13.8096 6.5668C13.8096 6.61953 13.799 6.6582 13.7744 6.68281C13.7393 6.69336 13.7674 6.71797 13.7357 6.725C13.6973 6.70692 13.6618 6.68322 13.6303 6.65469C13.5951 6.64414 13.56 6.63711 13.5107 6.63711C13.4475 6.63711 13.4475 6.62656 13.4264 6.58086C13.4099 6.52929 13.3981 6.47634 13.3912 6.42266C13.3666 6.37695 13.3631 6.34531 13.3561 6.29258C13.3428 6.26424 13.3221 6.23996 13.2963 6.22227C13.2822 6.275 13.2682 6.31719 13.2682 6.37344C13.2576 6.39453 13.2541 6.4543 13.2506 6.47891C13.2295 6.45078 13.2225 6.39453 13.2119 6.35234C13.1943 6.29609 13.1768 6.25742 13.117 6.275C13.0572 6.275 13.0537 6.275 13.0537 6.34531L13.124 6.45781V6.59844C13.124 6.65469 13.1311 6.66875 13.0889 6.68281C13.0707 6.62318 13.0422 6.56724 13.0045 6.51758C13.001 6.48242 12.9904 6.48945 12.9482 6.48945C12.9236 6.48945 12.899 6.48594 12.885 6.5V6.58438C12.8604 6.59141 12.8533 6.58438 12.8393 6.5668C12.8217 6.59492 12.8357 6.63711 12.8393 6.67227C12.8308 6.71107 12.8153 6.748 12.7936 6.78125C12.7865 6.76719 12.776 6.77422 12.7936 6.77422L12.6178 6.71797C12.5896 6.71797 12.565 6.74961 12.5475 6.77422C12.4982 6.78828 12.4771 6.80234 12.4244 6.80234C12.3752 6.80234 12.3506 6.81289 12.3049 6.81289C12.2697 6.81992 12.2275 6.82344 12.1818 6.82344C12.1572 6.81289 12.1115 6.81289 12.0975 6.80234C12.1186 6.77422 12.1396 6.76016 12.1572 6.71797C12.1827 6.69661 12.2062 6.67309 12.2275 6.64766L12.3049 6.5668C12.3189 6.51758 12.34 6.51055 12.3717 6.48945C12.4279 6.48945 12.435 6.51055 12.4912 6.51758C12.5439 6.53867 12.5756 6.54922 12.6072 6.50703C12.6494 6.48945 12.6846 6.45781 12.7338 6.45078L12.8287 6.39453C12.8709 6.36641 12.885 6.3418 12.9201 6.31367C12.9307 6.27148 12.9623 6.24336 12.9482 6.19766C12.899 6.18359 12.8674 6.18711 12.8357 6.21523C12.8006 6.25039 12.79 6.26445 12.7443 6.29258C12.7092 6.30312 12.6846 6.3207 12.6389 6.33477C12.6037 6.34883 12.5545 6.3418 12.5123 6.3418C12.4701 6.3418 12.4139 6.3418 12.3893 6.35234C12.4291 6.32291 12.4729 6.29924 12.5193 6.28203C12.5545 6.25742 12.5721 6.24687 12.6248 6.24687C12.6459 6.21523 12.6705 6.21523 12.6811 6.16602C12.6951 6.10977 12.6459 6.12734 12.6037 6.14844C12.5686 6.15547 12.5229 6.18359 12.4912 6.19414C12.4526 6.20704 12.4123 6.21415 12.3717 6.21523C12.3576 6.19766 12.3787 6.18359 12.3893 6.15898C12.4314 6.14141 12.4385 6.13437 12.4455 6.08867C12.3963 6.0957 12.3752 6.11328 12.3295 6.1168C12.2838 6.13086 12.2346 6.13438 12.1818 6.13789H12.0518C12.0061 6.13789 11.9814 6.12734 11.9287 6.12734C11.8936 6.10625 11.8936 6.09922 11.8936 6.03945C11.9217 6.0043 11.9498 6.01133 12.0061 6.01133L12.108 5.96211C12.1432 5.95508 12.1643 5.94102 12.1572 5.92344H12.0236C11.9709 5.89883 12.0236 5.8918 12.0518 5.87422C12.0975 5.87422 12.1432 5.87422 12.1748 5.8918C12.2311 5.8918 12.2521 5.8707 12.2979 5.83555C12.333 5.80742 12.3471 5.78633 12.3893 5.76523C12.4174 5.73359 12.4455 5.71602 12.4596 5.68789C12.5018 5.65273 12.5299 5.63164 12.5475 5.6C12.5721 5.58594 12.5896 5.57187 12.5756 5.55078C12.5158 5.55781 12.4912 5.57891 12.4525 5.60703C12.4325 5.63064 12.4088 5.65083 12.3822 5.6668C12.346 5.69213 12.3033 5.70675 12.2592 5.70898C12.21 5.70898 12.1748 5.69844 12.1256 5.69844C12.0764 5.69141 12.1221 5.68086 12.1361 5.65625C12.1572 5.6457 12.1713 5.61406 12.1572 5.58945C12.115 5.57539 12.0693 5.57891 12.0236 5.57891H11.8936C11.8443 5.57891 11.8232 5.56836 11.7881 5.55078C11.7811 5.52266 11.7881 5.52969 11.8232 5.52969C11.866 5.52909 11.9085 5.52318 11.9498 5.51211C11.992 5.49805 11.999 5.48047 12.0061 5.43477C11.9604 5.43477 11.9111 5.43477 11.883 5.42422H11.7986ZM10.99 5.20273C10.9795 5.13242 10.9654 5.09375 10.9619 5.01992C10.9619 4.9707 10.9619 4.99883 11.0146 4.925C11.0217 4.925 11.0568 4.88984 11.0955 4.85469C11.1447 4.83008 11.1904 4.79844 11.2361 4.77031C11.2748 4.75273 11.3521 4.73516 11.3838 4.71758C11.4313 4.69531 11.4733 4.66291 11.5068 4.62266C11.5068 4.55937 11.5174 4.51367 11.5174 4.44336L11.6615 4.37305C11.7318 4.35195 11.7424 4.32734 11.8092 4.3168C11.8514 4.30273 11.9217 4.30273 11.9814 4.30273C12.0482 4.30273 12.0869 4.35195 12.1467 4.35898C12.217 4.38711 12.2521 4.4082 12.3049 4.45742C12.3365 4.49609 12.3576 4.52773 12.4104 4.55937C12.4525 4.58398 12.4947 4.61562 12.5439 4.62969C12.5439 4.67891 12.5545 4.67187 12.5193 4.67187C12.5123 4.72109 12.5018 4.72109 12.4525 4.72109C12.4183 4.70289 12.3893 4.67627 12.3682 4.64375C12.3893 4.59102 12.3752 4.68242 12.3682 4.7C12.3436 4.72109 12.333 4.73867 12.3049 4.72109C12.2873 4.67188 12.2768 4.64023 12.2768 4.58047C12.2662 4.5207 12.2521 4.56641 12.2416 4.59102C12.224 4.64375 12.2311 4.66133 12.2486 4.7L12.1256 4.69297C12.0904 4.68242 12.0553 4.69297 12.0131 4.70703C11.9639 4.74219 11.9779 4.74219 12.0025 4.77734C12.0482 4.79141 12.0799 4.8125 12.1186 4.83359C12.1572 4.83008 12.2029 4.81602 12.2486 4.80547C12.2943 4.79141 12.333 4.80547 12.3787 4.80547C12.4033 4.81953 12.4314 4.82305 12.4455 4.83359C12.4455 4.86875 12.4455 4.89688 12.435 4.91445C12.4174 4.92852 12.3998 4.96367 12.3646 4.9707C12.3253 4.9945 12.2827 5.01227 12.2381 5.02344C12.1818 5.02344 12.1572 5.0375 12.115 5.05859C12.1115 5.11133 12.0939 5.12539 12.0482 5.13945C12.0089 5.1593 11.9657 5.17011 11.9217 5.17109C11.8936 5.17109 11.8654 5.17109 11.8549 5.15703C11.8862 5.12442 11.9113 5.08628 11.9287 5.04453C11.9393 5.02344 11.9568 5.00937 11.9393 4.9918C11.883 4.9918 11.8689 4.9918 11.8619 5.04805C11.8584 5.1043 11.8373 5.11133 11.7986 5.12891C11.8092 5.0832 11.8127 5.04453 11.8268 5.00234C11.7873 5.00919 11.7473 5.01272 11.7072 5.01289C11.6791 5.03398 11.665 5.0375 11.6791 5.06914C11.6404 5.0832 11.5912 5.07617 11.5455 5.06914C11.5068 5.06914 11.5279 5.05156 11.4998 5.03398C11.4787 4.99531 11.4611 4.98477 11.4154 4.98477C11.3943 5.01289 11.3557 5.01992 11.3311 5.04102C11.2889 5.05508 11.2643 5.04102 11.2256 5.02344C11.1834 5.02344 11.1904 5.0375 11.1975 5.07266C11.2186 5.0832 11.1975 5.09727 11.2291 5.10078C11.2572 5.12539 11.2783 5.12891 11.3311 5.12891C11.3697 5.12187 11.4154 5.12187 11.4611 5.12187C11.5068 5.12187 11.4998 5.13242 11.4998 5.17813C11.4717 5.20273 11.426 5.19922 11.3768 5.19922C11.3382 5.19448 11.3005 5.18503 11.2643 5.17109C11.2221 5.16758 11.1869 5.15703 11.1518 5.17109C11.1377 5.18867 11.0955 5.19219 11.1447 5.19922C11.1658 5.2168 11.2748 5.20625 11.2783 5.24141C11.3064 5.26953 11.2994 5.3082 11.2572 5.3082C11.2472 5.30197 11.2356 5.29867 11.2238 5.29867C11.212 5.29867 11.2005 5.30197 11.1904 5.3082L11.0674 5.31172C11.1377 5.31875 11.0146 5.23437 10.99 5.20273Z" fill="#FEFEFE"/>
<path id="Vector_16" fill-rule="evenodd" clip-rule="evenodd" d="M11.2857 4.87656L11.2295 4.91523C11.1904 4.93856 11.1528 4.96439 11.117 4.99258C11.0959 5.01016 11.0959 5.0207 11.0713 5.0207C11.1135 5.01719 11.1346 5.00313 11.1768 4.98555C11.2225 4.97852 11.2682 4.96797 11.2928 4.94336C11.3209 4.93633 11.2928 4.89766 11.2857 4.87305V4.87656ZM11.7146 4.41953C11.7217 4.41953 11.7322 4.44414 11.7498 4.46523C11.7674 4.50039 11.7814 4.52852 11.7814 4.57422C11.792 4.525 11.8096 4.48984 11.8166 4.43711C11.8025 4.40898 11.8025 4.40195 11.7604 4.39844C11.7604 4.42656 11.7674 4.40547 11.7146 4.41602V4.41953Z" fill="#BCBCBC"/>
<path id="Vector_17" fill-rule="evenodd" clip-rule="evenodd" d="M11.4286 4.83288C11.4074 4.83288 11.4625 4.81073 11.4836 4.8063C11.5005 4.77086 11.509 4.74871 11.5386 4.72656C11.5852 4.72656 11.6106 4.74428 11.6318 4.77529C11.6741 4.78858 11.6868 4.8063 11.7334 4.81516C11.7545 4.83288 11.7757 4.83288 11.7334 4.84616C11.708 4.85945 11.6699 4.86388 11.6233 4.86388C11.5851 4.86688 11.5477 4.87741 11.5132 4.89489C11.4498 4.89489 11.4582 4.89489 11.4286 4.83288Z" fill="#C4C4C2" stroke="black" stroke-width="1.10851"/>
<path id="Vector_18" fill-rule="evenodd" clip-rule="evenodd" d="M11.8828 4.42566V4.43621C11.8828 4.40808 11.8828 4.42215 11.8934 4.47137C11.9074 4.50652 11.9109 4.54168 11.9109 4.59441C11.9387 4.57127 11.9594 4.54083 11.9707 4.50652C11.9707 4.42918 11.9566 4.42918 11.8828 4.42566ZM12.2273 5.55066H12.2379C12.2098 5.55066 12.2273 5.55066 12.273 5.52254C12.3082 5.49793 12.3328 5.46629 12.3785 5.45223C12.4136 5.42152 12.4542 5.39766 12.498 5.38191C12.5227 5.37137 12.5438 5.3573 12.5684 5.37137C12.5613 5.42058 12.5508 5.44168 12.5086 5.46277C12.4875 5.4909 12.4559 5.50848 12.4242 5.51902C12.3961 5.53308 12.3609 5.5366 12.3504 5.57176C12.2977 5.59285 12.2941 5.58933 12.2309 5.55066H12.2273ZM12.4066 5.83191L12.5121 5.73699C12.5372 5.69958 12.5681 5.66636 12.6035 5.63855C12.6316 5.59637 12.6668 5.56824 12.6879 5.53308L12.7617 5.43465C12.7617 5.47683 12.7582 5.53308 12.7723 5.55769C12.7756 5.5995 12.7658 5.64131 12.7441 5.67723C12.723 5.71238 12.709 5.73348 12.6562 5.75808C12.6176 5.77918 12.5895 5.78621 12.5578 5.81433C12.5297 5.8327 12.5003 5.84915 12.4699 5.86355C12.4453 5.8741 12.4559 5.87058 12.4066 5.83543V5.83191ZM12.1148 6.05691H12.1254C12.0973 6.05691 12.1113 6.06043 12.1641 6.02879C12.2027 5.99012 12.2344 5.97254 12.2836 5.95144C12.3238 5.95006 12.3633 5.94049 12.3996 5.92332C12.4207 5.91629 12.4348 5.90223 12.4523 5.92332C12.484 5.96199 12.491 5.97605 12.4453 6.00066C12.4173 6.02322 12.385 6.03995 12.3504 6.04988C12.3293 6.07098 12.2801 6.07097 12.2344 6.07801C12.1992 6.07801 12.1781 6.08504 12.1641 6.05691L12.2379 6.07801C12.2027 6.07801 12.1816 6.08504 12.1148 6.05691ZM12.5156 6.05691V6.04988C12.5156 6.07801 12.5156 6.06394 12.5367 6.00769C12.5719 5.95496 12.5859 5.92332 12.6316 5.91277C12.6527 5.88465 12.6879 5.87762 12.7371 5.86355C12.7512 5.89168 12.7371 5.92683 12.7371 5.96199C12.723 5.99715 12.6879 6.02176 12.6668 6.04988C12.6387 6.07098 12.6316 6.08855 12.5824 6.0991C12.5473 6.0991 12.5684 6.0991 12.5191 6.05691H12.5156Z" fill="#BCBCBC"/>
<path id="Vector_19" fill-rule="evenodd" clip-rule="evenodd" d="M11.6018 4.7875C11.6018 4.81562 11.5842 4.83672 11.5561 4.83672C11.5279 4.83672 11.5068 4.81562 11.5068 4.7875C11.5068 4.75937 11.5314 4.73828 11.5561 4.73828C11.5842 4.73828 11.6018 4.75937 11.6018 4.7875Z" fill="black"/>
</g>
<g id="Group_2">
<path id="Vector_20" fill-rule="evenodd" clip-rule="evenodd" d="M11.7167 7.53329H11.7548C11.6363 7.53329 11.7082 7.52443 11.903 7.68833C11.9876 7.61745 11.9876 7.60859 12.0511 7.73262C12.0934 7.79907 12.1019 7.72376 12.1654 7.65289C12.195 7.79464 12.2119 7.94082 12.3135 7.80793C12.4321 7.80793 12.5506 7.79907 12.6141 7.8478C12.6903 7.99398 12.6649 7.82122 12.7241 7.88766C12.8934 7.90538 12.8892 7.73705 13.067 7.69276C13.177 7.83894 13.2278 7.72819 13.3633 7.65732C13.4691 7.6839 13.5664 7.8478 13.5876 7.68833C13.6723 7.54658 13.6765 7.55544 13.7358 7.68833C13.8204 7.76806 13.8543 7.65289 13.922 7.61302C14.049 7.68833 14.1887 7.70161 14.3707 7.65289C14.4045 7.78135 14.4807 7.72376 14.5612 7.68833C14.7262 7.76363 14.7813 7.78578 14.9717 7.68833C15.0649 7.57315 15.0141 7.69276 15.0818 7.76806C15.2215 7.72376 15.1834 7.7149 15.3442 7.72819C15.5093 7.72819 15.522 7.72819 15.5686 7.61302C15.6532 7.69719 15.6786 7.7592 15.7929 7.65289C15.9707 7.65289 15.9157 7.67504 16.0172 7.60859C16.0977 7.78578 16.1146 7.66175 16.2077 7.72819C16.1554 7.85905 16.0631 7.96808 15.9453 8.03827C15.8733 8.17116 15.8268 8.30405 15.6829 8.35721C15.577 8.46795 15.4627 8.5344 15.3442 8.63185C15.1834 8.67615 15.0056 8.66729 14.8236 8.66729H13.249C13.1389 8.7293 12.9527 8.75588 12.8003 8.78689C12.631 8.78689 12.4321 8.78689 12.3135 8.74702C12.2331 8.66286 12.0934 8.56983 12.0172 8.47238C11.9326 8.40594 11.9326 8.27747 11.8649 8.19774C11.8056 8.087 11.7802 7.90981 11.7167 7.80793V7.53329Z" fill="#005120" stroke="#002B0D" stroke-width="1.64224"/>
<g id="Vector_21">
<path fill-rule="evenodd" clip-rule="evenodd" d="M15.3446 7.88833V7.92377C15.3446 7.81745 15.3488 7.87504 15.2684 8.08323C15.2557 8.13196 15.2176 8.14525 15.1583 8.16297M15.0102 8.04337H15.0483C14.9086 8.17626 14.8155 8.2427 14.7859 8.39774L15.0483 8.04337C14.9086 8.17626 14.8155 8.2427 14.7859 8.39774M14.4853 7.84846C14.4853 7.84846 14.4811 7.98578 14.4472 8.04337ZM14.0366 7.88833H14.0747H14.0324C14.062 7.88833 14.0493 7.88833 14.0324 7.88833H14.0366ZM11.9414 7.88833C11.9583 7.88833 12.0345 8.01236 12.1276 8.08323C12.1065 8.19841 12.0684 8.3313 12.1276 8.43761M12.2419 8.1231C12.2589 8.1231 12.3308 8.24713 12.4282 8.31801L12.2419 8.1231C12.2589 8.1231 12.3308 8.24713 12.4282 8.31801V8.35788C12.4282 8.23384 12.4197 8.10981 12.4663 8.04337C12.5086 8.11867 12.5594 8.23384 12.5763 8.1231C12.788 8.11424 12.8896 8.05223 13.025 8.0035C13.025 8.06109 13.0165 8.03451 13.0673 8.08323M15.607 7.92377H15.6451C15.5732 7.98578 15.5181 8.11424 15.4589 8.19841M14.0747 7.80859H14.371Z" fill="#005120"/>
<path d="M15.3446 7.88833V7.92377C15.3446 7.81745 15.3488 7.87504 15.2684 8.08323C15.2557 8.13196 15.2176 8.14525 15.1583 8.16297M15.0102 8.04337H15.0483M15.0483 8.04337C14.9086 8.17626 14.8155 8.2427 14.7859 8.39774L15.0483 8.04337ZM14.4853 7.84846C14.4853 7.84846 14.4811 7.98578 14.4472 8.04337M14.3372 8.1231V8.15854M14.0324 7.88833H14.0747H14.0366H14.0324ZM14.0324 7.88833C14.0493 7.88833 14.062 7.88833 14.0324 7.88833ZM11.9414 7.88833C11.9583 7.88833 12.0345 8.01236 12.1276 8.08323C12.1065 8.19841 12.0684 8.3313 12.1276 8.43761M12.4282 8.31801C12.3308 8.24713 12.2589 8.1231 12.2419 8.1231L12.4282 8.31801ZM12.4282 8.31801V8.35788C12.4282 8.23384 12.4197 8.10981 12.4663 8.04337C12.5086 8.11867 12.5594 8.23384 12.5763 8.1231C12.788 8.11424 12.8896 8.05223 13.025 8.0035C13.025 8.06109 13.0165 8.03451 13.0673 8.08323M15.607 7.92377H15.6451C15.5732 7.98578 15.5181 8.11424 15.4589 8.19841M14.0747 7.80859H14.371" stroke="#002B0D" stroke-width="1.64224"/>
</g>
</g>
<path id="Vector_22" fill-rule="evenodd" clip-rule="evenodd" d="M11.6266 8.08594C11.1766 8.08594 11.0289 8.55703 10.5789 8.55703H10.5508V8.58516C10.5508 8.91211 10.5754 9.21797 10.6211 9.49922C11.0395 9.47109 11.1906 9.02812 11.6266 9.02812C12.0766 9.02812 12.2277 9.49922 12.6777 9.49922C13.1277 9.49922 13.2754 9.02812 13.7254 9.02812C14.1754 9.02812 14.3266 9.49922 14.7801 9.49922C15.2266 9.49922 15.3777 9.02812 15.8277 9.02812C16.2602 9.02812 16.4148 9.46406 16.8297 9.4957C16.88 9.18659 16.9035 8.87371 16.9 8.56055H16.8754C16.4254 8.56055 16.2777 8.08945 15.8277 8.08945C15.3777 8.08945 15.223 8.56055 14.7766 8.56055C14.3301 8.56055 14.1789 8.08945 13.7254 8.08945C13.2754 8.08945 13.1277 8.56055 12.6777 8.56055C12.2313 8.56055 12.0766 8.08945 11.623 8.08945L11.6266 8.08594ZM11.6266 9.92461C11.275 9.92461 11.1098 10.2094 10.8391 10.3324C10.9287 10.5787 11.0405 10.8164 11.173 11.0426C11.3 10.9344 11.4599 10.8725 11.6266 10.8668C12.0766 10.8668 12.2277 11.3379 12.6742 11.3379C13.1277 11.3379 13.2754 10.8668 13.7289 10.8668C14.1754 10.8668 14.3266 11.3379 14.7766 11.3379C15.223 11.3379 15.3742 10.8668 15.8277 10.8668C15.9907 10.8722 16.1469 10.933 16.2707 11.0391C16.4031 10.8128 16.5148 10.5751 16.6047 10.3289C16.341 10.2023 16.1723 9.92461 15.8277 9.92461C15.3777 9.92461 15.223 10.3922 14.773 10.3922C14.3266 10.3922 14.1754 9.92461 13.7254 9.92461C13.2754 9.92461 13.1277 10.3922 12.6742 10.3922C12.2242 10.3922 12.0766 9.92461 11.6266 9.92461ZM13.7254 11.7562C13.2754 11.7562 13.1277 12.2309 12.6777 12.2309C12.2523 12.2309 12.0941 11.809 11.6969 11.7633C12.1324 12.24 12.655 12.629 13.2367 12.9094C13.3773 12.8004 13.518 13.0395 13.7219 13.0395C13.9328 13.0395 14.0734 12.7969 14.2105 12.9023C14.7865 12.6239 15.3043 12.2386 15.7363 11.7668C15.3531 11.823 15.1949 12.2309 14.7766 12.2309C14.3266 12.2309 14.1789 11.7598 13.7254 11.7598V11.7562Z" fill="white"/>
<g id="Group_3">
<path id="Vector_23" d="M10.9521 10.1719C11.0982 10.12 11.2466 10.0756 11.3969 10.0391L12.0873 10.7343L11.5197 10.8538L10.9521 10.1719Z" stroke="#512007" stroke-width="0.615928"/>
<path id="Vector_24" d="M12.2939 11.0757C12.3047 10.9158 12.6097 9.99805 12.6097 9.99805M12.398 11.0861L12.6384 10.005M12.4805 11.0896L12.6814 10.005M12.3047 10.9436C12.3585 10.9158 12.5128 10.8741 12.5128 10.8741M12.38 10.7837C12.4303 10.7837 12.5343 10.742 12.5343 10.742M12.4087 10.662C12.4599 10.6433 12.5127 10.6293 12.5666 10.6203M12.4303 10.5091L12.5989 10.4812M12.5056 10.377C12.5056 10.3874 12.6204 10.3874 12.6204 10.3874M12.5343 10.2588L12.6491 10.2761" stroke="#512007" stroke-width="0.602709"/>
<path id="Vector_25" d="M14.1465 11.7771C14.1338 11.5035 13.7737 9.93359 13.7737 9.93359M14.0237 11.7236L13.7399 9.93954M13.8966 11.5868C13.8881 11.4857 13.689 9.94549 13.689 9.94549M14.1338 11.5511C14.0702 11.5035 13.8881 11.4322 13.8881 11.4322M14.0448 11.2776C13.9855 11.2776 13.8627 11.2062 13.8627 11.2062M14.0109 11.0694C13.9506 11.0374 13.8882 11.0135 13.8246 10.9981M13.9855 10.8078L13.7865 10.7602M13.8966 10.5818C13.8966 10.5996 13.761 10.5996 13.761 10.5996M13.8627 10.3796L13.7272 10.4093" stroke="#512007" stroke-width="0.571026"/>
<path id="Vector_26" d="M15.1895 11.3746C15.1767 11.1709 14.8167 10.002 14.8167 10.002M15.0666 11.3348L14.7828 10.0064M14.9396 11.2329C14.9311 11.1577 14.732 10.0108 14.732 10.0108M15.1767 11.2064C15.1132 11.1709 14.9311 11.1178 14.9311 11.1178M15.0878 11.0027C15.0285 11.0027 14.9057 10.9495 14.9057 10.9495M15.0539 10.8477C14.9935 10.8238 14.9311 10.8061 14.8675 10.7946M15.0285 10.6529L14.8294 10.6174M14.9396 10.4846C14.9396 10.4979 14.804 10.4979 14.804 10.4979M14.9057 10.3341L14.7701 10.3562" stroke="#512007" stroke-width="0.615928"/>
<path id="Vector_27" fill-rule="evenodd" clip-rule="evenodd" d="M13.6122 11.5352L13.6504 8.30278C13.6504 8.30278 13.7605 8.28949 13.7605 8.30278C13.7605 8.31606 13.7478 11.5219 13.7351 11.5352C13.7224 11.5485 13.5995 11.5574 13.6122 11.5352ZM14.8194 8.44447L14.794 11.1588L14.7093 11.2651L14.7347 8.44447H14.8194Z" fill="#DD8B59" stroke="#512007" stroke-width="0.615928"/>
<path id="Vector_28" fill-rule="evenodd" clip-rule="evenodd" d="M12.2438 11.0047C12.2438 11.0047 12.3708 12.3331 13.7855 12.2932C15.2002 12.2534 15.5941 10.956 15.5941 10.956L14.98 10.9294C14.9673 10.9294 14.4886 11.5493 13.8702 11.536C13.2518 11.5228 13.057 11.3678 12.9215 11.2394C12.7859 11.1065 12.6673 10.9161 12.6673 10.9161L11.9473 10.6194L11.9896 10.9028L12.2438 11.0047ZM16.0685 10.8718L16.0262 10.6947V10.5442L16.0939 10.3848C16.0939 10.3848 15.0223 10.5486 15.0223 10.5619L15.0181 10.863L16.0685 10.8674V10.8718Z" fill="#DD8B59" stroke="#512007" stroke-width="0.615928"/>
<path id="Vector_29" d="M12.1973 10.9902C12.2354 10.9902 12.5192 11.0566 12.5192 11.0566L12.8157 11.4684M15.8653 10.543L15.8399 10.8086H16.0136L16.0009 10.543H15.8653ZM15.6832 10.5563L15.6705 10.8396L15.7806 10.8264L15.7933 10.5563H15.6832ZM15.4968 10.8396V10.6182L15.6069 10.5784L15.6197 10.7998L15.4968 10.8396ZM15.285 10.8264L15.3105 10.6315L15.4375 10.6448L15.446 10.8529L15.285 10.8264ZM15.0521 10.8264L15.0648 10.6581L15.1919 10.6448V10.8396L15.0521 10.8264Z" stroke="#512007" stroke-width="0.615928"/>
<path id="Vector_30" d="M12.4043 11.0432C12.417 11.0565 12.6627 11.92 13.8444 11.92C15.0261 11.92 15.3099 10.9414 15.3099 10.9414" stroke="#512007" stroke-width="0.615928"/>
<path id="Vector_31" d="M15.497 10.9688C15.497 10.9688 14.9294 12.2529 13.8451 12.1643C12.765 12.0758 12.5913 11.6507 12.5066 11.4293C12.4219 11.2079 12.3711 11.0307 12.3711 11.0307" stroke="#512007" stroke-width="0.615928"/>
<path id="Vector_32" fill-rule="evenodd" clip-rule="evenodd" d="M12.6758 10.9157C12.6885 10.8405 12.6885 8.5069 12.6885 8.5069L12.6165 8.49805L12.6037 10.8759L12.6758 10.9202V10.9157ZM10.918 10.1585L11.8498 10.6323L11.8286 10.6988C11.8286 10.6988 10.9307 10.256 10.9307 10.2427C10.9307 10.2294 10.9391 10.1763 10.918 10.1541V10.1585Z" fill="#DD8B59" stroke="#512007" stroke-width="0.615928"/>
<path id="Vector_33" fill-rule="evenodd" clip-rule="evenodd" d="M11.3457 10.016C11.3457 10.0515 11.4812 10.8396 11.4812 10.8396C11.4812 10.8396 11.566 10.8529 11.566 10.8396L11.4219 10.0293L11.3457 10.016ZM12.2098 10.0382C12.2564 10.0382 13.0993 9.89648 13.0993 9.89648L13.0823 10.0382L12.2564 10.1267L12.2098 10.0382Z" fill="#DD8B59" stroke="#512007" stroke-width="0.615928"/>
<path id="Vector_34" fill-rule="evenodd" clip-rule="evenodd" d="M12.3281 8.97207C12.3578 8.97207 12.6246 9.11377 12.739 9.07834C12.8533 9.04292 12.7771 8.9455 12.7983 8.9455C12.8237 8.9455 12.9084 9.01192 12.9592 8.95879C13.0101 8.91008 13.0439 8.7551 13.0228 8.76838C12.9974 8.78167 12.3451 9.02521 12.3324 8.97207H12.3281Z" fill="#FECF3E" stroke="#512007" stroke-width="0.615928"/>
<path id="Vector_35" fill-rule="evenodd" clip-rule="evenodd" d="M12.2227 9.2955C12.2692 9.30878 13.2307 9.02539 13.2307 9.02539C13.2307 9.02539 13.2307 9.11395 13.218 9.11395L12.2227 9.38406V9.2955Z" fill="#DD8B59" stroke="#512007" stroke-width="0.615928"/>
<path id="Vector_36" fill-rule="evenodd" clip-rule="evenodd" d="M14.4465 8.89523C14.4465 8.89523 14.51 9.05021 14.5735 9.02364C14.6371 8.99707 14.6964 8.94394 14.6964 8.94394C14.6964 8.94394 14.7472 9.07677 14.8319 9.05021C14.9166 9.02364 14.9674 8.88194 14.9674 8.88194C14.9674 8.88194 15.0521 8.90851 15.0903 8.89523C15.1284 8.88194 15.175 8.67383 15.175 8.67383L14.4465 8.89523ZM14.3744 10.1439C14.3617 10.1705 14.438 10.2325 14.5015 10.2325C14.5651 10.2325 14.5862 10.1439 14.5989 10.1705C14.6116 10.1926 14.6116 10.3122 14.7684 10.2723C14.9251 10.2325 14.9293 10.1174 14.9293 10.1174C14.9293 10.1174 14.8827 10.1572 14.9928 10.1705C15.103 10.1838 15.2131 10.0022 15.2046 10.0022C15.1877 10.0022 14.3999 10.1572 14.3744 10.1439Z" fill="#FECF3E" stroke="#512007" stroke-width="0.615928"/>
<path id="Vector_37" fill-rule="evenodd" clip-rule="evenodd" d="M12.2611 8.91793C12.2534 8.95784 12.2563 8.99921 12.2696 9.03749L13.0744 8.75409C13.0744 8.75409 13.1083 8.68767 13.0744 8.68767C13.0405 8.68767 12.2484 8.9445 12.2569 8.92236L12.2611 8.91793ZM13.32 8.74081C13.3412 8.74081 14.1418 8.4707 14.1418 8.4707C14.1418 8.4707 14.1545 8.58583 14.1418 8.58583L13.3921 8.81609L13.3158 8.74081H13.32Z" fill="#DD8B59" stroke="#512007" stroke-width="0.615928"/>
<path id="Vector_38" fill-rule="evenodd" clip-rule="evenodd" d="M14.3743 9.30722C14.3743 9.30722 14.2514 9.44891 14.2896 9.63932C14.3277 9.83415 14.3743 10.0024 14.387 10.0024C14.3997 10.0024 14.5352 9.74559 14.6835 9.73231C14.8317 9.71902 15.1028 9.874 15.1028 9.874C15.1028 9.874 15.0647 9.56404 15.0774 9.42235C15.0901 9.28065 15.2976 9.03711 15.2976 9.03711L14.3743 9.30279V9.30722Z" fill="#FECF3E" stroke="#512007" stroke-width="0.615928"/>
<path id="Vector_39" fill-rule="evenodd" clip-rule="evenodd" d="M13.2565 9.07414C13.2565 9.07414 13.2311 9.1937 13.2438 9.1937L14.29 8.9103V8.82617L13.2565 9.06971V9.07414Z" fill="#DD8B59" stroke="#512007" stroke-width="0.615928"/>
<path id="Vector_40" fill-rule="evenodd" clip-rule="evenodd" d="M11.9258 10.6312C11.9258 10.6312 11.6802 10.5957 11.6929 10.6577C11.7056 10.7242 11.8157 10.7862 11.8284 10.826C11.8411 10.8659 11.7903 11.0031 11.8665 10.9943C11.9385 10.981 12.0105 10.9278 12.0105 10.888L11.9978 10.6666L11.9258 10.6312Z" fill="#B6B6B4" stroke="#512007" stroke-width="0.615928"/>
<path id="Vector_41" fill-rule="evenodd" clip-rule="evenodd" d="M13.2939 9.98908V10.0776L14.1792 9.94923L14.1538 9.88281L13.2939 9.98908Z" fill="#DD8B59" stroke="#512007" stroke-width="0.615928"/>
<path id="Vector_42" fill-rule="evenodd" clip-rule="evenodd" d="M12.2441 10.1458C12.261 10.1458 12.2441 10.2609 12.3457 10.2343C12.4432 10.2078 12.4686 10.1458 12.4686 10.1458C12.4686 10.1458 12.494 10.2875 12.6295 10.2742C12.7651 10.2609 12.8413 10.1059 12.8413 10.1059C12.8413 10.1059 12.8498 10.2211 12.9345 10.1812C13.0192 10.1414 13.0446 10.0528 13.0446 10.0528L12.2695 10.1679L12.2441 10.1458ZM12.2441 9.38417C12.2441 9.38417 12.134 9.42402 12.1721 9.65427C12.2102 9.88453 12.2992 10.0174 12.3076 10.0174C12.3203 10.0174 12.4178 9.79597 12.566 9.76055C12.7142 9.71627 12.9726 9.87567 12.9726 9.87567C12.9726 9.87567 12.9472 9.66756 12.9853 9.47715C13.0125 9.35316 13.0677 9.23777 13.1463 9.14062C13.1463 9.14062 12.2822 9.38417 12.2483 9.38417H12.2441Z" fill="#FECF3E" stroke="#512007" stroke-width="0.615928"/>
<path id="Vector_43" fill-rule="evenodd" clip-rule="evenodd" d="M14.3145 10.0523L14.3272 10.132C14.3272 10.132 15.2167 10.0169 15.2167 9.99918C15.2167 9.99032 15.2167 9.91062 15.1997 9.91062C15.187 9.91062 14.3272 10.0656 14.3102 10.0523H14.3145ZM14.3018 9.2287L14.3145 9.31726L15.3607 9.02502C15.3607 9.02502 15.3861 8.94531 15.3734 8.94531C15.3607 8.94531 14.3272 9.26855 14.3018 9.2287Z" fill="#DD8B59" stroke="#512007" stroke-width="0.615928"/>
<path id="Vector_44" d="M16.0511 10.3088L15.2887 9.05126M15.187 9.92358C15.1997 9.88816 15.2378 9.11326 15.2378 9.11326M14.4119 8.81658C14.4119 8.81658 14.3992 8.89628 14.4119 8.89628C14.4246 8.89628 15.187 8.70145 15.187 8.68817C15.187 8.67488 15.2633 8.59961 15.1997 8.61289C15.1404 8.62618 14.4373 8.85643 14.4119 8.81658Z" stroke="#512007" stroke-width="0.615928"/>
<path id="Vector_45" fill-rule="evenodd" clip-rule="evenodd" d="M13.3453 8.78195C13.3877 8.7908 13.4766 8.92364 13.5275 8.89707C13.5783 8.87051 13.6503 8.7908 13.6503 8.7908C13.6503 8.7908 13.6376 8.94578 13.735 8.92364C13.8367 8.89708 13.8494 8.7908 13.8494 8.7908C13.8494 8.7908 13.9214 8.83508 13.9849 8.7908C14.0442 8.75538 14.1035 8.56055 14.0823 8.56055C14.0612 8.56055 13.3665 8.7908 13.3411 8.78195H13.3453ZM13.3199 9.1539C13.3199 9.18047 13.1929 9.38415 13.2352 9.57899C13.2776 9.77382 13.3411 9.95094 13.3538 9.95094C13.3665 9.95094 13.5529 9.74725 13.7138 9.7074C13.8706 9.66755 14.1077 9.83581 14.095 9.83581C14.0823 9.83581 14.0315 9.64098 14.0315 9.49928C14.0315 9.35759 14.2179 8.92364 14.2179 8.92364L13.3199 9.1539ZM13.3199 10.0838C13.3199 10.0926 13.3538 10.1812 13.4428 10.1812C13.5275 10.1812 13.5402 10.0926 13.5402 10.0926C13.5402 10.0926 13.5275 10.2476 13.663 10.2343C13.7985 10.221 13.8451 10.0794 13.8451 10.0794C13.8451 10.0794 13.8578 10.1591 13.9722 10.1192C14.0823 10.0794 14.2263 9.95094 14.2179 9.95094C14.2052 9.95094 13.3284 10.1192 13.3157 10.0838H13.3199Z" fill="#FECF3E" stroke="#512007" stroke-width="0.615928"/>
<path id="fk-l" fill-rule="evenodd" clip-rule="evenodd" d="M13.4194 9.39652C13.4368 9.39726 13.4533 9.4052 13.4651 9.41861C13.4769 9.43202 13.4832 9.44979 13.4825 9.46802C13.4818 9.48625 13.4743 9.50345 13.4615 9.51582C13.4487 9.5282 13.4317 9.53474 13.4143 9.53401C13.3969 9.53328 13.3804 9.52533 13.3686 9.51192C13.3568 9.49852 13.3505 9.48074 13.3512 9.46251C13.3519 9.44428 13.3594 9.42708 13.3722 9.41471C13.385 9.40233 13.402 9.39579 13.4194 9.39652Z" fill="#BE0F17" stroke="#512007" stroke-width="0.603966"/>
<path id="fk-l_2" fill-rule="evenodd" clip-rule="evenodd" d="M13.8647 9.27934C13.8822 9.28007 13.8986 9.28801 13.9104 9.30142C13.9223 9.31483 13.9285 9.3326 13.9278 9.35084C13.9272 9.36907 13.9196 9.38626 13.9068 9.39864C13.894 9.41101 13.877 9.41755 13.8596 9.41682C13.8422 9.41609 13.8258 9.40815 13.8139 9.39474C13.8021 9.38133 13.7958 9.36355 13.7965 9.34532C13.7972 9.32709 13.8048 9.30989 13.8176 9.29752C13.8304 9.28515 13.8473 9.27861 13.8647 9.27934Z" fill="#BE0F17" stroke="#512007" stroke-width="0.603966"/>
<path id="fk-l_3" fill-rule="evenodd" clip-rule="evenodd" d="M13.6421 9.52152C13.6595 9.52226 13.6759 9.5302 13.6878 9.54361C13.6996 9.55702 13.7059 9.57479 13.7052 9.59302C13.7045 9.61125 13.6969 9.62845 13.6841 9.64082C13.6713 9.6532 13.6544 9.65974 13.637 9.65901C13.6195 9.65828 13.6031 9.65033 13.5913 9.63692C13.5794 9.62352 13.5732 9.60574 13.5739 9.58751C13.5745 9.56928 13.5821 9.55208 13.5949 9.53971C13.6077 9.52733 13.6247 9.52079 13.6421 9.52152Z" fill="#BE0F17" stroke="#512007" stroke-width="0.603966"/>
<path id="fk-l_4" fill-rule="evenodd" clip-rule="evenodd" d="M13.6421 9.15043C13.6595 9.15116 13.6759 9.1591 13.6878 9.17251C13.6996 9.18592 13.7059 9.2037 13.7052 9.22193C13.7045 9.24016 13.6969 9.25736 13.6841 9.26973C13.6713 9.2821 13.6544 9.28864 13.637 9.28791C13.6195 9.28718 13.6031 9.27924 13.5913 9.26583C13.5794 9.25242 13.5732 9.23465 13.5739 9.21641C13.5745 9.19818 13.5821 9.18099 13.5949 9.16861C13.6077 9.15624 13.6247 9.1497 13.6421 9.15043Z" fill="#BE0F17" stroke="#512007" stroke-width="0.603966"/>
<path id="Vector_46" d="M13.7349 8.33821C13.7349 8.32936 14.1161 8.50648 14.1161 8.51976C14.1161 8.53304 15.4715 10.4149 15.4842 10.4149M14.8065 8.51976L15.1538 8.67474L15.264 8.95813M12.6633 8.49762C12.6506 8.49762 13.0445 8.80758 13.0445 8.80758L13.0953 9.05998M11.3248 10.3751C11.4943 10.2998 12.6887 9.2061 12.6887 9.2061M11.0029 10.167L12.3456 8.9847M13.2436 9.16182L14.5143 11.367M14.3618 10.074C14.3618 10.074 14.51 10.5921 14.6583 10.6718C14.7689 10.7338 14.8763 10.8018 14.9802 10.8755" stroke="#512007" stroke-width="0.615928"/>
<path id="Vector_47" d="M14.3447 10.0879C14.3447 10.0879 14.4506 10.699 14.5989 10.8141C14.7471 10.9292 14.8954 11.0576 14.8954 11.0576" stroke="#512007" stroke-width="0.615928"/>
<path id="Vector_48" d="M13.3252 10.041C13.3252 10.041 13.4692 10.8912 13.7657 11.086C13.9473 11.2041 14.1281 11.3236 14.3079 11.4447" stroke="#512007" stroke-width="0.615928"/>
<path id="Vector_49" d="M13.3128 10.0273C13.3128 10.0273 13.6305 10.7004 13.9058 10.9041C14.1726 11.1122 14.5411 11.3026 14.5411 11.3026M12.2793 10.0849C12.364 10.2399 12.3513 10.5366 12.4487 10.6384C12.5383 10.7442 12.6204 10.8567 12.6944 10.9749M12.3005 10.0938C12.3513 10.169 12.4868 10.5543 12.5716 10.6694C12.6351 10.7757 13.262 11.431 13.262 11.431" stroke="#512007" stroke-width="0.615928"/>
<path id="Vector_50" fill-rule="evenodd" clip-rule="evenodd" d="M13.0536 11.4624C13.0536 11.4752 13.0511 11.4879 13.0465 11.4997C13.0418 11.5115 13.0349 11.5223 13.0263 11.5313C13.0176 11.5404 13.0073 11.5475 12.996 11.5524C12.9847 11.5573 12.9726 11.5598 12.9604 11.5598C12.9481 11.5598 12.936 11.5573 12.9247 11.5524C12.9134 11.5475 12.9031 11.5404 12.8945 11.5313C12.8858 11.5223 12.879 11.5115 12.8743 11.4997C12.8696 11.4879 12.8672 11.4752 12.8672 11.4624C12.8672 11.4366 12.877 11.4118 12.8945 11.3935C12.912 11.3753 12.9357 11.365 12.9604 11.365C12.9851 11.365 13.0088 11.3753 13.0263 11.3935C13.0437 11.4118 13.0536 11.4366 13.0536 11.4624ZM13.5068 11.6705C13.5068 11.6929 13.4983 11.7143 13.4832 11.73C13.4681 11.7458 13.4476 11.7547 13.4263 11.7547C13.4049 11.7547 13.3845 11.7458 13.3694 11.73C13.3543 11.7143 13.3458 11.6929 13.3458 11.6705C13.3458 11.6482 13.3543 11.6268 13.3694 11.611C13.3845 11.5953 13.4049 11.5864 13.4263 11.5864C13.4476 11.5864 13.4681 11.5953 13.4832 11.611C13.4983 11.6268 13.5068 11.6482 13.5068 11.6705ZM14.087 11.7237C14.087 11.746 14.0786 11.7674 14.0635 11.7832C14.0484 11.7989 14.0279 11.8078 14.0066 11.8078C13.9852 11.8078 13.9648 11.7989 13.9497 11.7832C13.9346 11.7674 13.9261 11.746 13.9261 11.7237C13.9261 11.7014 13.9346 11.68 13.9497 11.6642C13.9648 11.6484 13.9852 11.6395 14.0066 11.6395C14.0279 11.6395 14.0484 11.6484 14.0635 11.6642C14.0786 11.68 14.087 11.7014 14.087 11.7237ZM14.5911 11.5244C14.5911 11.5687 14.5614 11.5997 14.5233 11.5997C14.4852 11.5997 14.4555 11.5643 14.4555 11.5244C14.4555 11.4846 14.4852 11.4447 14.5233 11.4447C14.5614 11.4447 14.5911 11.4801 14.5911 11.5244ZM14.9977 11.272C14.9977 11.3119 14.9596 11.3429 14.9172 11.3429C14.8749 11.3429 14.8368 11.3119 14.8368 11.272C14.8368 11.2322 14.8749 11.2012 14.9172 11.2012C14.9596 11.2012 14.9977 11.2322 14.9977 11.272Z" fill="black" stroke="#512007" stroke-width="0.615928"/>
<path id="Vector_51" fill-rule="evenodd" clip-rule="evenodd" d="M12.6088 8.50876C12.5707 8.53533 11.9565 8.69031 12.0412 8.67703C12.1259 8.66374 12.6215 8.80987 12.6088 8.76559C12.5961 8.72131 12.6088 8.53533 12.6088 8.50876ZM13.655 8.31836C13.6296 8.31836 13.2738 8.46005 13.2865 8.46005C13.2992 8.46005 13.6931 8.57518 13.6804 8.54861C13.6677 8.52205 13.6677 8.35378 13.655 8.31836ZM14.7266 8.44677C14.7012 8.46006 14.2819 8.5619 14.3581 8.57518C14.4343 8.58847 14.7139 8.69031 14.7139 8.66374C14.7139 8.6416 14.7139 8.46005 14.7266 8.44234V8.44677Z" fill="#FF0000" stroke="#512007" stroke-width="0.615928"/>
<path id="Vector_52" d="M14.2822 11.4586C14.2949 11.2549 14.655 10.0859 14.655 10.0859M14.4051 11.4188L14.6888 10.0904M14.5321 11.3169C14.5406 11.2416 14.7397 10.0948 14.7397 10.0948M14.2949 11.2904C14.3585 11.2549 14.5406 11.2018 14.5406 11.2018M14.3839 11.0867C14.4432 11.0867 14.566 11.0335 14.566 11.0335M14.4178 10.9317C14.4781 10.9078 14.5405 10.89 14.6041 10.8785M14.4432 10.7369L14.6423 10.7014M14.5321 10.5686C14.5321 10.5819 14.6677 10.5819 14.6677 10.5819M14.566 10.418L14.7016 10.4402" stroke="#512007" stroke-width="0.615928"/>
<path id="Vector_53" d="M13.2363 11.4631C13.249 11.2515 13.6091 10.0371 13.6091 10.0371M13.3592 11.4769L13.6429 10.0463M13.4566 11.4815L13.6938 10.0463M13.249 11.2883C13.3126 11.2515 13.4947 11.1963 13.4947 11.1963M13.338 11.0767C13.3973 11.0767 13.5201 11.0215 13.5201 11.0215M13.3719 10.9157C13.4322 10.8909 13.4946 10.8725 13.5582 10.8605M13.3973 10.7133L13.5964 10.6765M13.4862 10.5385C13.4862 10.5523 13.6218 10.5523 13.6218 10.5523M13.5201 10.3821L13.6557 10.4051" stroke="#512007" stroke-width="0.627785"/>
<path id="Vector_54" d="M13.0928 11.3225C13.0801 11.1175 12.72 9.94141 12.72 9.94141M12.9699 11.2824L12.6862 9.94586M12.8429 11.1799C12.8344 11.1042 12.6353 9.95032 12.6353 9.95032M13.0801 11.1532C13.0165 11.1175 12.8344 11.0641 12.8344 11.0641M12.9911 10.9482C12.9318 10.9482 12.809 10.8948 12.809 10.8948M12.9572 10.7923C12.8969 10.7683 12.8345 10.7504 12.7709 10.7389M12.9318 10.5963L12.7327 10.5607M12.8429 10.427C12.8429 10.4404 12.7073 10.4404 12.7073 10.4404M12.809 10.2755L12.6734 10.2978" stroke="#512007" stroke-width="0.617803"/>
<path id="Vector_55" fill-rule="evenodd" clip-rule="evenodd" d="M14.9287 10.9293L16.0978 10.9559L16.1105 10.8673L14.9033 10.854L14.9287 10.9293ZM14.9796 10.6061C15.1151 10.6061 16.1359 10.4024 16.1359 10.4024C16.1359 10.4024 16.174 10.2695 16.1359 10.2695C16.0978 10.2695 14.9796 10.5175 14.9796 10.5175V10.6061Z" fill="#DD8B59" stroke="#512007" stroke-width="0.615928"/>
<path id="fk-l_5" fill-rule="evenodd" clip-rule="evenodd" d="M13.6421 9.33598C13.6595 9.33671 13.6759 9.34465 13.6878 9.35806C13.6996 9.37147 13.7059 9.38924 13.7052 9.40748C13.7045 9.42571 13.6969 9.4429 13.6841 9.45528C13.6713 9.46765 13.6544 9.47419 13.637 9.47346C13.6195 9.47273 13.6031 9.46479 13.5913 9.45138C13.5794 9.43797 13.5732 9.42019 13.5739 9.40196C13.5745 9.38373 13.5821 9.36654 13.5949 9.35416C13.6077 9.34179 13.6247 9.33525 13.6421 9.33598Z" fill="#BE0F17" stroke="#512007" stroke-width="0.603966"/>
</g>
<path id="Vector_56" d="M0 0H9V9H0V0Z" fill="#012169"/>
<path id="Vector_57" d="M9 0V1.125L5.66016 4.5L9 7.78711V9H7.82227L4.46484 5.69531L1.19531 9H0V7.80469L3.26953 4.51758L0 1.30078V0H1.08984L4.46484 3.30469L7.73438 0H9Z" fill="white"/>
<path id="Vector_58" d="M3.23438 5.69531L3.42773 6.29297L0.738281 9H0V8.94727L3.23438 5.69531ZM5.41406 5.48438L6.36328 5.625L9 8.20898V9L5.41406 5.48438ZM9 0L5.625 3.44531L5.55469 2.67188L8.19141 0H9ZM0 0.0175781L3.39258 3.33984L2.35547 3.19922L0 0.861328V0.0175781Z" fill="#C8102E"/>
<path id="Vector_59" d="M3.09375 0V9H5.90625V0H3.09375ZM0 3.09375V5.90625H9V3.09375H0Z" fill="white"/>
<path id="Vector_60" d="M0 3.65625V5.34375H9V3.65625H0ZM3.65625 0V9H5.34375V0H3.65625Z" fill="#C8102E"/>
</g>
<defs>
<linearGradient id="paint0_linear_186_8451" x1="3.54109" y1="20.3586" x2="4.42805" y2="19.8501" gradientUnits="userSpaceOnUse">
<stop stop-color="#A43907"/>
<stop offset="1" stop-color="white"/>
</linearGradient>
<linearGradient id="paint1_linear_186_8451" x1="11.6701" y1="12.3296" x2="10.5238" y2="11.7016" gradientUnits="userSpaceOnUse">
<stop stop-color="#A43907"/>
<stop offset="1" stop-color="white"/>
</linearGradient>
<linearGradient id="paint2_linear_186_8451" x1="12.3836" y1="12.7884" x2="9.89774" y2="12.4643" gradientUnits="userSpaceOnUse">
<stop stop-color="#A43907"/>
<stop offset="1" stop-color="white"/>
</linearGradient>
<linearGradient id="paint3_linear_186_8451" x1="16.9727" y1="11.7334" x2="15.8219" y2="11.7946" gradientUnits="userSpaceOnUse">
<stop stop-color="#A43907"/>
<stop offset="1" stop-color="white"/>
</linearGradient>
<linearGradient id="paint4_linear_186_8451" x1="17.4397" y1="12.3721" x2="14.9955" y2="12.5183" gradientUnits="userSpaceOnUse">
<stop stop-color="#A43907"/>
<stop offset="1" stop-color="white"/>
</linearGradient>
<linearGradient id="paint5_linear_186_8451" x1="17.1671" y1="13.0124" x2="10.2859" y2="13.0124" gradientUnits="userSpaceOnUse">
<stop stop-color="#A43907"/>
<stop offset="1" stop-color="white"/>
</linearGradient>
<linearGradient id="paint6_linear_186_8451" x1="10.4753" y1="13.5171" x2="20.5396" y2="13.5532" gradientUnits="userSpaceOnUse">
<stop stop-color="#A43907"/>
<stop offset="1" stop-color="white"/>
</linearGradient>
<linearGradient id="paint7_linear_186_8451" x1="17.4094" y1="12.9703" x2="16.5956" y2="12.9938" gradientUnits="userSpaceOnUse">
<stop stop-color="#A43907"/>
<stop offset="1" stop-color="white"/>
</linearGradient>
<linearGradient id="paint8_linear_186_8451" x1="10.258" y1="13.7754" x2="11.0465" y2="13.8276" gradientUnits="userSpaceOnUse">
<stop stop-color="#A43907"/>
<stop offset="1" stop-color="white"/>
</linearGradient>
<linearGradient id="paint9_linear_186_8451" x1="11.0273" y1="13.6601" x2="9.59518" y2="13.3069" gradientUnits="userSpaceOnUse">
<stop stop-color="#A43907"/>
<stop offset="1" stop-color="white"/>
</linearGradient>
<clipPath id="clip0_186_8451">
<rect width="18" height="18" fill="white"/>
</clipPath>
</defs>
</svg>
