<svg width="18" height="18" viewBox="0 0 18 18" fill="none" xmlns="http://www.w3.org/2000/svg">
<g id="gb-nir" clip-path="url(#clip0_186_8554)">
<path id="Vector" d="M0 0H18V18H0V0Z" fill="white"/>
<path id="gb-nir-a" d="M18 7.19922H0V10.7992H18V7.19922Z" fill="#CC0000"/>
<path id="gb-nir-a_2" d="M10.6875 18V0H7.3125V18H10.6875Z" fill="#CC0000"/>
<path id="Vector_2" fill-rule="evenodd" clip-rule="evenodd" d="M10.2379 5.49805C10.3434 5.31523 10.2801 5.19922 10.1184 5.16406C10.1184 5.16406 9.59456 5.33984 9.02854 5.36094C8.46604 5.38203 7.79807 5.20977 7.79807 5.20977C7.67503 5.29063 7.70315 5.48398 7.76292 5.60352C7.76292 5.60352 8.35354 5.81094 9.02854 5.78984C9.38918 5.77253 9.7455 5.70387 10.0867 5.58594C10.2168 5.54023 10.2379 5.49805 10.2379 5.49805Z" fill="#EBEAE3" stroke="black" stroke-width="0.5"/>
<path id="Vector_3" d="M8.9998 13.412L7.91348 11.0045L5.4209 11.207L6.82715 9.00197L5.4209 6.79696L7.91699 6.99946L8.9998 4.5957L10.0861 6.99571L12.5787 6.79696L11.1725 9.00197L12.5787 11.207L10.0826 11.0045L8.9998 13.412Z" fill="white" stroke="#161111" stroke-width="1.65248"/>
<path id="Vector_4" fill-rule="evenodd" clip-rule="evenodd" d="M8.98203 4.58517C10.3461 4.82423 10.2969 4.89103 10.2969 4.89103L10.652 3.76251C10.652 3.76251 10.6906 3.53751 10.5922 3.4004C10.4937 3.26329 10.223 3.34064 10.223 3.34064C10.223 3.34064 10.1879 3.15782 10.0648 3.11564C9.94531 3.06993 9.50234 3.2879 9.36172 3.3336C9.22109 3.38282 9.15078 3.42853 8.95742 3.42501C8.74315 3.38787 8.5372 3.31288 8.34922 3.20353C8.27525 3.16079 8.192 3.13666 8.10664 3.13321C8.02227 3.13673 7.93086 3.16134 7.88516 3.22462C7.84297 3.29142 7.84297 3.36876 7.84297 3.36876C7.84297 3.36876 7.77266 3.32306 7.65664 3.32306C7.54414 3.32306 7.48086 3.33712 7.42813 3.4004C7.37891 3.4672 7.30859 3.6465 7.30859 3.6465L7.43867 3.95235L7.4457 4.37423L7.70938 4.82423L8.98203 4.58517Z" fill="#B02320" stroke="black" stroke-width="1.4"/>
<path id="Vector_5" fill-rule="evenodd" clip-rule="evenodd" d="M10.2555 5.22422C10.2555 5.22422 10.3258 5.31211 10.3223 5.34375C10.3188 5.37188 10.2871 5.4 10.2871 5.4C10.2871 5.4 10.3117 5.42461 10.3047 5.45977C10.3012 5.49492 10.2555 5.49492 10.2555 5.49492C10.2555 5.49492 10.266 5.52656 10.2379 5.54063C10.2098 5.55469 10.1043 5.57578 10.1043 5.57578C10.1043 5.57578 9.57696 5.41758 9.01446 5.41758C8.45196 5.41758 7.78399 5.61445 7.78399 5.61445C7.78399 5.61445 7.71368 5.58633 7.71368 5.54063C7.70665 5.49141 7.71719 5.45625 7.71719 5.45625C7.71719 5.45625 7.68204 5.46328 7.67149 5.42812C7.65743 5.37891 7.67501 5.34023 7.67501 5.34023C7.67501 5.34023 7.6504 5.34727 7.67852 5.28398C7.68878 5.25681 7.7072 5.23347 7.73125 5.21719C7.73125 5.21719 8.32188 4.99219 8.99688 4.99219C9.427 4.99266 9.85346 5.07128 10.2555 5.22422Z" fill="#EBEAE3" stroke="black" stroke-width="0.5"/>
<path id="Vector_6" d="M7.46055 3.80731C7.46055 3.80731 7.43945 3.72293 7.48867 3.65262C7.50676 3.62709 7.53266 3.60813 7.56247 3.59862C7.59228 3.58911 7.62437 3.58955 7.65391 3.59989C7.68203 3.61395 7.67852 3.64559 7.71367 3.65614C7.74883 3.66668 7.77695 3.63856 7.77695 3.63856" stroke="black" stroke-width="1.2"/>
<path id="Vector_7" fill-rule="evenodd" clip-rule="evenodd" d="M10.7512 3.99805L10.5473 4.44805L10.4664 4.46563C10.4664 4.46563 10.4172 4.43047 10.2766 4.44453C10.1781 4.45156 10.1465 4.47969 10.1465 4.47969L10.3293 4.02969C10.3293 4.02969 10.3434 4.12461 10.3645 4.18086C10.3926 4.25117 10.4945 4.32148 10.4945 4.32148C10.4945 4.32148 10.5086 4.23711 10.4805 4.13164C10.4523 4.01563 10.382 3.85742 10.382 3.85742L10.7512 3.99805Z" fill="#FFCC00" fill-opacity="0.9" stroke="black" stroke-width="1.2"/>
<path id="Vector_8" d="M8.87695 2.59375H9.10547V3.63086H8.87695V2.59375Z" fill="#121116" stroke="#121116" stroke-width="1.2" stroke-linejoin="round"/>
<path id="Vector_9" fill-rule="evenodd" clip-rule="evenodd" d="M7.47461 4.51016L7.61875 4.84414C7.61875 4.84414 8.24805 4.58398 8.98633 4.5875C10.0938 4.59453 10.4102 4.83359 10.4102 4.83359L10.5719 4.41875L10.4488 4.49258L10.3223 4.57695L10.1816 4.63672L10.0059 4.62266L9.85117 4.49961L9.77383 4.32383L9.64375 4.45391L9.41172 4.51016L9.18672 4.44687L8.98984 4.17969C8.98984 4.17969 8.84219 4.475 8.65234 4.49609C8.38164 4.5207 8.22695 4.35547 8.22695 4.35547C8.22695 4.35547 8.125 4.59453 7.95977 4.63672C7.69609 4.70703 7.47813 4.51016 7.47461 4.51016Z" fill="#F6CA1F" stroke="black"/>
<g id="Group">
<path id="Vector_10" d="M10.0012 2.46307C10.0012 2.49645 9.98888 2.52849 9.96692 2.55227C9.94497 2.57606 9.91512 2.58968 9.88383 2.59019C9.85222 2.59019 9.82191 2.5768 9.79956 2.55296C9.77721 2.52912 9.76465 2.49678 9.76465 2.46307C9.76464 2.42969 9.77695 2.39764 9.79891 2.37386C9.82086 2.35007 9.85071 2.33645 9.882 2.33594C9.91361 2.33594 9.94392 2.34933 9.96627 2.37317C9.98862 2.39701 10.0012 2.42935 10.0012 2.46307Z" fill="#EEEEEE" stroke="#1E1E1E" stroke-width="1.18504" stroke-linejoin="round"/>
<path id="Vector_11" fill-rule="evenodd" clip-rule="evenodd" d="M9.82617 2.52773C9.82617 2.52773 9.92109 2.52773 9.93164 2.48555C9.94219 2.44336 9.92461 2.39062 9.92461 2.39062C9.92461 2.39062 9.97031 2.44336 9.95977 2.48555C9.9457 2.52422 9.93164 2.53477 9.9 2.54531C9.87891 2.54883 9.84375 2.5418 9.82969 2.52773H9.82617Z" fill="#A3AFB8"/>
<path id="Vector_12" d="M9.71212 2.6076C9.71212 2.64098 9.69982 2.67302 9.67786 2.69681C9.6559 2.72059 9.62606 2.73421 9.59477 2.73472C9.56316 2.73472 9.53284 2.72133 9.51049 2.69749C9.48814 2.67365 9.47559 2.64131 9.47559 2.6076C9.47558 2.57422 9.48789 2.54217 9.50984 2.51839C9.5318 2.4946 9.56164 2.48098 9.59293 2.48047C9.62454 2.48047 9.65486 2.49386 9.67721 2.5177C9.69956 2.54154 9.71212 2.57388 9.71212 2.6076Z" fill="#EEEEEE" stroke="#1E1E1E" stroke-width="1.18504" stroke-linejoin="round"/>
<path id="Vector_13" fill-rule="evenodd" clip-rule="evenodd" d="M9.53711 2.67188C9.53711 2.67188 9.63555 2.67187 9.64258 2.62617C9.65313 2.5875 9.63555 2.53125 9.63555 2.53125C9.63555 2.53125 9.68125 2.5875 9.6707 2.62617C9.65664 2.66836 9.64258 2.67891 9.61094 2.68945C9.58984 2.69297 9.55469 2.68594 9.54063 2.67188H9.53711Z" fill="#A3AFB8"/>
<path id="Vector_14" d="M10.3313 2.37908C10.3313 2.41246 10.319 2.4445 10.297 2.46829C10.275 2.49208 10.2452 2.5057 10.2139 2.50621C10.1823 2.50621 10.152 2.49282 10.1296 2.46897C10.1073 2.44513 10.0947 2.4128 10.0947 2.37908C10.0947 2.3457 10.107 2.31366 10.129 2.28987C10.1509 2.26609 10.1808 2.25247 10.2121 2.25195C10.2437 2.25195 10.274 2.26535 10.2963 2.28919C10.3187 2.31303 10.3313 2.34536 10.3313 2.37908Z" fill="#EEEEEE" stroke="#1E1E1E" stroke-width="1.18504" stroke-linejoin="round"/>
<path id="Vector_15" fill-rule="evenodd" clip-rule="evenodd" d="M10.1602 2.44375C10.1602 2.44375 10.2551 2.44375 10.2656 2.40156C10.2762 2.35938 10.2586 2.30664 10.2586 2.30664C10.2586 2.30664 10.3043 2.35938 10.2937 2.40156C10.2797 2.44023 10.2656 2.4543 10.234 2.46133C10.208 2.46483 10.1817 2.45857 10.1602 2.44375Z" fill="#A3AFB8"/>
<path id="Vector_16" d="M10.7072 2.45916C10.7072 2.49254 10.6949 2.52458 10.673 2.54837C10.651 2.57215 10.6212 2.58577 10.5899 2.58629C10.5583 2.58629 10.528 2.57289 10.5056 2.54905C10.4833 2.52521 10.4707 2.49288 10.4707 2.45916C10.4707 2.42578 10.483 2.39374 10.505 2.36995C10.5269 2.34617 10.5568 2.33254 10.5881 2.33203C10.6197 2.33203 10.65 2.34543 10.6723 2.36927C10.6947 2.39311 10.7072 2.42544 10.7072 2.45916Z" fill="#EEEEEE" stroke="#1E1E1E" stroke-width="1.18504" stroke-linejoin="round"/>
<path id="Vector_17" fill-rule="evenodd" clip-rule="evenodd" d="M10.5361 2.52383C10.5361 2.52383 10.6311 2.52383 10.6416 2.48164C10.6521 2.43945 10.6346 2.38672 10.6346 2.38672C10.6346 2.38672 10.6803 2.43945 10.6697 2.48164C10.6557 2.52031 10.6416 2.53438 10.61 2.54141C10.5854 2.54844 10.5537 2.53789 10.5361 2.52383Z" fill="#A3AFB8"/>
<path id="Vector_18" d="M10.9953 2.71307C10.9953 2.74645 10.983 2.77849 10.9611 2.80227C10.9391 2.82606 10.9093 2.83968 10.878 2.84019C10.8464 2.84019 10.816 2.8268 10.7937 2.80296C10.7713 2.77912 10.7588 2.74678 10.7588 2.71307C10.7588 2.67969 10.7711 2.64764 10.793 2.62386C10.815 2.60007 10.8448 2.58645 10.8761 2.58594C10.9077 2.58594 10.9381 2.59933 10.9604 2.62317C10.9828 2.64701 10.9953 2.67935 10.9953 2.71307Z" fill="#EEEEEE" stroke="#1E1E1E" stroke-width="1.18504" stroke-linejoin="round"/>
<path id="Vector_19" fill-rule="evenodd" clip-rule="evenodd" d="M10.8242 2.77734C10.8242 2.77734 10.9191 2.77734 10.9297 2.73164C10.9367 2.68945 10.9227 2.63672 10.9227 2.63672C10.9227 2.63672 10.9684 2.68945 10.9543 2.73164C10.9402 2.77383 10.9297 2.78438 10.8945 2.79141C10.8734 2.79844 10.8418 2.79141 10.8242 2.77383V2.77734Z" fill="#A3AFB8"/>
<path id="Vector_20" d="M11.1184 3.12322C11.1184 3.1566 11.1061 3.18864 11.0841 3.21243C11.0622 3.23622 11.0323 3.24984 11.001 3.25035C10.9694 3.25035 10.9391 3.23696 10.9167 3.21311C10.8944 3.18927 10.8818 3.15694 10.8818 3.12322C10.8818 3.08984 10.8941 3.0578 10.9161 3.03401C10.938 3.01023 10.9679 2.99661 10.9992 2.99609C11.0308 2.99609 11.0611 3.00949 11.0835 3.03333C11.1058 3.05717 11.1184 3.08951 11.1184 3.12322Z" fill="#EEEEEE" stroke="#1E1E1E" stroke-width="1.18504" stroke-linejoin="round"/>
<path id="Vector_21" fill-rule="evenodd" clip-rule="evenodd" d="M10.9473 3.18984C10.9473 3.18984 11.0422 3.18984 11.0527 3.14766C11.0598 3.10547 11.0457 3.05273 11.0457 3.05273C11.0457 3.05273 11.0914 3.10547 11.0773 3.14766C11.0633 3.18984 11.0527 3.20039 11.0176 3.20742C10.9965 3.21445 10.9648 3.20391 10.9473 3.18984Z" fill="#A3AFB8"/>
<path id="Vector_22" d="M11.0734 3.54119C11.0734 3.57457 11.0611 3.60661 11.0392 3.6304C11.0172 3.65418 10.9874 3.6678 10.9561 3.66832C10.9245 3.66832 10.8942 3.65492 10.8718 3.63108C10.8495 3.60724 10.8369 3.57491 10.8369 3.54119C10.8369 3.50781 10.8492 3.47577 10.8712 3.45198C10.8931 3.4282 10.923 3.41458 10.9543 3.41406C10.9859 3.41406 11.0162 3.42746 11.0385 3.4513C11.0609 3.47514 11.0734 3.50747 11.0734 3.54119Z" fill="#EEEEEE" stroke="#1E1E1E" stroke-width="1.18504" stroke-linejoin="round"/>
<path id="Vector_23" fill-rule="evenodd" clip-rule="evenodd" d="M10.8984 3.60781C10.8984 3.60781 10.9969 3.60781 11.0039 3.56563C11.0145 3.52344 11.0004 3.4707 11.0004 3.4707C11.0004 3.4707 11.0461 3.52344 11.032 3.56563C11.018 3.6043 11.0074 3.61836 10.9723 3.62539C10.9512 3.62891 10.9195 3.62188 10.902 3.60781H10.8984Z" fill="#A3AFB8"/>
<path id="Vector_24" d="M10.9006 3.90838C10.9006 3.94176 10.8883 3.9738 10.8663 3.99759C10.8444 4.02137 10.8145 4.03499 10.7832 4.03551C10.7516 4.03551 10.7213 4.02211 10.699 3.99827C10.6766 3.97443 10.6641 3.94209 10.6641 3.90838C10.6641 3.875 10.6764 3.84296 10.6983 3.81917C10.7203 3.79538 10.7501 3.78176 10.7814 3.78125C10.813 3.78125 10.8433 3.79464 10.8657 3.81848C10.888 3.84233 10.9006 3.87466 10.9006 3.90838Z" fill="#EEEEEE" stroke="#1E1E1E" stroke-width="1.18504" stroke-linejoin="round"/>
<path id="Vector_25" fill-rule="evenodd" clip-rule="evenodd" d="M10.7256 3.97305C10.7256 3.97305 10.8205 3.97305 10.8311 3.93086C10.8416 3.88867 10.824 3.83594 10.824 3.83594C10.824 3.83594 10.8697 3.88867 10.8592 3.93086C10.8451 3.97305 10.8311 3.98359 10.7994 3.99063C10.7783 3.99766 10.7432 3.99063 10.7291 3.97305H10.7256Z" fill="#A3AFB8"/>
<path id="Vector_26" d="M9.43087 2.71502C9.43087 2.7484 9.41857 2.78044 9.39661 2.80423C9.37465 2.82801 9.34481 2.84163 9.31352 2.84215C9.28191 2.84215 9.25159 2.82875 9.22924 2.80491C9.20689 2.78107 9.19434 2.74873 9.19434 2.71502C9.19433 2.68164 9.20664 2.6496 9.22859 2.62581C9.25055 2.60202 9.28039 2.5884 9.31168 2.58789C9.34329 2.58789 9.37361 2.60128 9.39596 2.62513C9.41831 2.64897 9.43087 2.6813 9.43087 2.71502Z" fill="#EEEEEE" stroke="#1E1E1E" stroke-width="1.18504" stroke-linejoin="round"/>
<path id="Vector_27" fill-rule="evenodd" clip-rule="evenodd" d="M9.25977 2.78164C9.25977 2.78164 9.35469 2.78164 9.36523 2.73945C9.37578 2.69727 9.3582 2.64453 9.3582 2.64453C9.3582 2.64453 9.40391 2.69727 9.39336 2.73945C9.3793 2.77813 9.36523 2.78867 9.33359 2.79922C9.30766 2.80272 9.28134 2.79646 9.25977 2.78164Z" fill="#A3AFB8"/>
<g id="Group_2">
<path id="Vector_28" d="M9.07378 2.68248C9.07378 2.7104 9.06349 2.73719 9.04513 2.75709C9.02677 2.77698 9.00181 2.78837 8.97565 2.7888C8.94921 2.7888 8.92386 2.7776 8.90517 2.75766C8.88648 2.73772 8.87598 2.71068 8.87598 2.68248C8.87597 2.65457 8.88626 2.62777 8.90462 2.60788C8.92299 2.58799 8.94795 2.5766 8.97411 2.57617C9.00055 2.57617 9.0259 2.58737 9.04459 2.60731C9.06328 2.62725 9.07378 2.65429 9.07378 2.68248Z" fill="#EEEEEE" stroke="#1E1E1E" stroke-width="1.21624" stroke-linejoin="round"/>
<path id="Vector_29" fill-rule="evenodd" clip-rule="evenodd" d="M8.92969 2.73906C8.92969 2.73906 9.01055 2.73906 9.01758 2.70391C9.02813 2.66875 9.01406 2.62305 9.01406 2.62305C9.01406 2.62305 9.04922 2.66523 9.04219 2.70039C9.02813 2.73555 9.01758 2.74609 8.99297 2.75313C8.98202 2.75527 8.97075 2.75513 8.95986 2.75271C8.94897 2.75029 8.93869 2.74565 8.92969 2.73906Z" fill="#A3AFB8"/>
</g>
<g id="Group_3">
<path id="Vector_30" d="M9.07769 2.81725C9.07769 2.84516 9.0674 2.87196 9.04904 2.89185C9.03068 2.91174 9.00572 2.92313 8.97955 2.92356C8.95312 2.92356 8.92777 2.91236 8.90908 2.89242C8.89038 2.87249 8.87988 2.84545 8.87988 2.81725C8.87988 2.78934 8.89017 2.76254 8.90853 2.74265C8.92689 2.72276 8.95185 2.71137 8.97802 2.71094C9.00445 2.71094 9.0298 2.72214 9.0485 2.74208C9.06719 2.76201 9.07769 2.78905 9.07769 2.81725Z" fill="#EEEEEE" stroke="#1E1E1E" stroke-width="1.21624" stroke-linejoin="round"/>
<path id="Vector_31" fill-rule="evenodd" clip-rule="evenodd" d="M8.92969 2.87031C8.92969 2.87031 9.01055 2.87031 9.02109 2.83516C9.02813 2.8 9.01406 2.75781 9.01406 2.75781C9.01406 2.75781 9.04922 2.8 9.04219 2.83516C9.03164 2.87031 9.02109 2.88086 8.99297 2.88789C8.97197 2.89124 8.9505 2.88619 8.9332 2.87383L8.92969 2.87031Z" fill="#A3AFB8"/>
</g>
<g id="Group_4">
<path id="Vector_32" d="M9.08452 3.01061C9.08453 3.03852 9.07424 3.06532 9.05588 3.08521C9.03751 3.1051 9.01256 3.11649 8.98639 3.11692C8.95995 3.11692 8.9346 3.10572 8.91591 3.08578C8.89722 3.06585 8.88672 3.0388 8.88672 3.01061C8.88672 2.98269 8.89701 2.9559 8.91537 2.93601C8.93373 2.91612 8.95869 2.90473 8.98485 2.9043C9.01129 2.9043 9.03664 2.9155 9.05533 2.93544C9.07402 2.95537 9.08452 2.98241 9.08452 3.01061Z" fill="#EEEEEE" stroke="#1E1E1E" stroke-width="1.21624" stroke-linejoin="round"/>
<path id="Vector_33" fill-rule="evenodd" clip-rule="evenodd" d="M8.94043 3.06719C8.94043 3.06719 9.01777 3.06719 9.02832 3.03203C9.03535 2.99687 9.02129 2.95117 9.02129 2.95117C9.02129 2.95117 9.05644 2.99687 9.04941 3.03203C9.03887 3.06719 9.02832 3.07422 9.0002 3.08125C8.9792 3.0846 8.95773 3.07955 8.94043 3.06719Z" fill="#A3AFB8"/>
</g>
<g id="Group_5">
<path id="Vector_34" d="M9.09087 3.21654C9.09087 3.24672 9.07974 3.2757 9.05989 3.29721C9.04003 3.31873 9.01304 3.33104 8.98474 3.33151C8.95615 3.33151 8.92874 3.3194 8.90852 3.29783C8.88831 3.27627 8.87695 3.24703 8.87695 3.21654C8.87695 3.18635 8.88808 3.15737 8.90793 3.13586C8.92779 3.11435 8.95478 3.10203 8.98308 3.10156C9.01167 3.10156 9.03908 3.11368 9.0593 3.13524C9.07951 3.1568 9.09087 3.18604 9.09087 3.21654Z" fill="#EEEEEE" stroke="#1E1E1E" stroke-width="1.21788" stroke-linejoin="round"/>
<path id="Vector_35" fill-rule="evenodd" clip-rule="evenodd" d="M8.93555 3.28086C8.93555 3.28086 9.02344 3.27734 9.03047 3.23867C9.04102 3.20352 9.02695 3.1543 9.02695 3.1543C9.02695 3.1543 9.06563 3.20352 9.05508 3.23867C9.04102 3.27734 9.03047 3.28789 9.00234 3.29492C8.9906 3.29665 8.97863 3.29599 8.96715 3.29297C8.95567 3.28995 8.94492 3.28463 8.93555 3.27734V3.28086Z" fill="#A3AFB8"/>
</g>
<path id="Vector_36" d="M9.1047 3.49627C9.1047 3.52965 9.09239 3.56169 9.07044 3.58548C9.04848 3.60926 9.01864 3.62288 8.98735 3.6234C8.95574 3.6234 8.92542 3.61 8.90307 3.58616C8.88072 3.56232 8.86816 3.52998 8.86816 3.49627C8.86816 3.46289 8.88047 3.43085 8.90242 3.40706C8.92438 3.38327 8.95422 3.36965 8.98551 3.36914C9.01712 3.36914 9.04744 3.38253 9.06979 3.40638C9.09214 3.43022 9.1047 3.46255 9.1047 3.49627Z" fill="#EEEEEE" stroke="#1E1E1E" stroke-width="1.18504" stroke-linejoin="round"/>
<path id="Vector_37" fill-rule="evenodd" clip-rule="evenodd" d="M8.92969 3.56094C8.92969 3.56094 9.02813 3.56094 9.03516 3.51875C9.0457 3.47656 9.03164 3.42383 9.03164 3.42383C9.03164 3.42383 9.07734 3.47656 9.06328 3.51875C9.04922 3.56094 9.03867 3.57148 9.00352 3.57852C8.98242 3.58555 8.95078 3.57852 8.9332 3.56094H8.92969Z" fill="#A3AFB8"/>
<g id="Group_6">
<path id="Vector_38" d="M9.09128 4.07057C9.09129 4.10192 9.07973 4.13201 9.05911 4.15435C9.03849 4.17669 9.01046 4.18948 8.98107 4.18996C8.95139 4.18996 8.92292 4.17738 8.90192 4.15499C8.88093 4.1326 8.86914 4.10223 8.86914 4.07057C8.86914 4.03922 8.88069 4.00912 8.90131 3.98678C8.92193 3.96445 8.94996 3.95165 8.97935 3.95117C9.00904 3.95117 9.03751 3.96375 9.0585 3.98614C9.07949 4.00853 9.09128 4.0389 9.09128 4.07057Z" fill="#EEEEEE" stroke="#1E1E1E" stroke-width="1.21413" stroke-linejoin="round"/>
<path id="Vector_39" fill-rule="evenodd" clip-rule="evenodd" d="M8.92871 4.13203C8.92871 4.13203 9.02012 4.13203 9.02715 4.09336C9.03769 4.05117 9.02363 4.00195 9.02363 4.00195C9.02363 4.00195 9.06582 4.05117 9.05176 4.08984C9.04121 4.13203 9.02715 4.13906 8.99902 4.14961C8.98672 4.15163 8.97414 4.15111 8.96205 4.14809C8.94996 4.14506 8.93861 4.1396 8.92871 4.13203Z" fill="#A3AFB8"/>
</g>
<path id="Vector_40" d="M8.77364 2.71307C8.77364 2.74645 8.76134 2.77849 8.73938 2.80227C8.71743 2.82606 8.68758 2.83968 8.65629 2.84019C8.62468 2.84019 8.59437 2.8268 8.57202 2.80296C8.54967 2.77912 8.53711 2.74678 8.53711 2.71307C8.53711 2.67969 8.54941 2.64764 8.57137 2.62386C8.59332 2.60007 8.62317 2.58645 8.65446 2.58594C8.68607 2.58594 8.71638 2.59933 8.73873 2.62317C8.76108 2.64701 8.77364 2.67935 8.77364 2.71307Z" fill="#EEEEEE" stroke="#1E1E1E" stroke-width="1.18504" stroke-linejoin="round"/>
<path id="Vector_41" fill-rule="evenodd" clip-rule="evenodd" d="M8.59863 2.77773C8.59863 2.77773 8.69355 2.77773 8.7041 2.73555C8.71465 2.69336 8.69707 2.64062 8.69707 2.64062C8.69707 2.64062 8.74277 2.69336 8.73223 2.73555C8.71816 2.77422 8.7041 2.78828 8.67246 2.79531C8.65137 2.79883 8.61621 2.7918 8.60215 2.77773H8.59863Z" fill="#A3AFB8"/>
<path id="Vector_42" d="M8.47872 2.59002C8.47872 2.6234 8.46642 2.65544 8.44446 2.67923C8.42251 2.70301 8.39266 2.71663 8.36137 2.71715C8.32976 2.71715 8.29945 2.70375 8.2771 2.67991C8.25474 2.65607 8.24219 2.62373 8.24219 2.59002C8.24218 2.55664 8.25449 2.5246 8.27644 2.50081C8.2984 2.47702 8.32825 2.4634 8.35954 2.46289C8.39115 2.46289 8.42146 2.47628 8.44381 2.50013C8.46616 2.52397 8.47872 2.5563 8.47872 2.59002Z" fill="#EEEEEE" stroke="#1E1E1E" stroke-width="1.18504" stroke-linejoin="round"/>
<path id="Vector_43" fill-rule="evenodd" clip-rule="evenodd" d="M8.30664 2.65469C8.30664 2.65469 8.40156 2.65469 8.41211 2.6125C8.41914 2.57031 8.40508 2.51758 8.40508 2.51758C8.40508 2.51758 8.45078 2.57031 8.44023 2.6125C8.42266 2.65117 8.41211 2.66172 8.37695 2.67227C8.35586 2.67578 8.32422 2.66875 8.30664 2.65469Z" fill="#A3AFB8"/>
<path id="Vector_44" d="M8.19747 2.44939C8.19747 2.48277 8.18517 2.51482 8.16321 2.5386C8.14126 2.56239 8.11141 2.57601 8.08012 2.57652C8.04851 2.57652 8.0182 2.56313 7.99585 2.53929C7.97349 2.51545 7.96094 2.48311 7.96094 2.44939C7.96093 2.41601 7.97324 2.38397 7.99519 2.36019C8.01715 2.3364 8.047 2.32278 8.07829 2.32227C8.1099 2.32227 8.14021 2.33566 8.16256 2.3595C8.18491 2.38334 8.19747 2.41568 8.19747 2.44939Z" fill="#EEEEEE" stroke="#1E1E1E" stroke-width="1.18504" stroke-linejoin="round"/>
<path id="Vector_45" fill-rule="evenodd" clip-rule="evenodd" d="M8.02539 2.51406C8.02539 2.51406 8.12031 2.51406 8.13086 2.47188C8.14141 2.42969 8.12383 2.37695 8.12383 2.37695C8.12383 2.37695 8.16953 2.42969 8.15898 2.47188C8.14492 2.51055 8.13086 2.52109 8.09922 2.53164C8.07328 2.53515 8.04697 2.52888 8.02539 2.51406Z" fill="#A3AFB8"/>
<path id="Vector_46" d="M7.87716 2.37127C7.87716 2.40465 7.86485 2.43669 7.8429 2.46048C7.82094 2.48426 7.7911 2.49788 7.75981 2.4984C7.7282 2.4984 7.69788 2.485 7.67553 2.46116C7.65318 2.43732 7.64063 2.40498 7.64063 2.37127C7.64062 2.33789 7.65293 2.30585 7.67488 2.28206C7.69684 2.25827 7.72668 2.24465 7.75797 2.24414C7.78958 2.24414 7.8199 2.25753 7.84225 2.28138C7.8646 2.30522 7.87716 2.33755 7.87716 2.37127Z" fill="#EEEEEE" stroke="#1E1E1E" stroke-width="1.18504" stroke-linejoin="round"/>
<path id="Vector_47" fill-rule="evenodd" clip-rule="evenodd" d="M7.70215 2.43594C7.70215 2.43594 7.79707 2.43594 7.80762 2.39375C7.81816 2.35156 7.80059 2.29883 7.80059 2.29883C7.80059 2.29883 7.84629 2.35156 7.83574 2.39375C7.82168 2.43594 7.80762 2.44648 7.77598 2.45352C7.75488 2.46055 7.71973 2.45352 7.70566 2.43594H7.70215Z" fill="#A3AFB8"/>
<path id="Vector_48" d="M7.49434 2.46892C7.49435 2.5023 7.48204 2.53435 7.46009 2.55813C7.43813 2.58192 7.40829 2.59554 7.37699 2.59605C7.34539 2.59605 7.31507 2.58266 7.29272 2.55882C7.27037 2.53498 7.25781 2.50264 7.25781 2.46892C7.25781 2.43554 7.27011 2.4035 7.29207 2.37972C7.31403 2.35593 7.34387 2.34231 7.37516 2.3418C7.40677 2.3418 7.43708 2.35519 7.45944 2.37903C7.48179 2.40287 7.49434 2.43521 7.49434 2.46892Z" fill="#EEEEEE" stroke="#1E1E1E" stroke-width="1.18504" stroke-linejoin="round"/>
<path id="Vector_49" fill-rule="evenodd" clip-rule="evenodd" d="M7.32227 2.53555C7.32227 2.53555 7.41719 2.53555 7.42773 2.49336C7.43828 2.45117 7.4207 2.39844 7.4207 2.39844C7.4207 2.39844 7.46641 2.45117 7.45586 2.49336C7.4418 2.53555 7.42773 2.54609 7.39609 2.55313C7.37148 2.56016 7.33984 2.54961 7.32578 2.53555H7.32227Z" fill="#A3AFB8"/>
<path id="Vector_50" d="M7.22677 2.75408C7.22677 2.78746 7.21446 2.8195 7.19251 2.84329C7.17055 2.86708 7.14071 2.8807 7.10942 2.88121C7.07781 2.88121 7.04749 2.86782 7.02514 2.84397C7.00279 2.82013 6.99023 2.7878 6.99023 2.75408C6.99023 2.7207 7.00254 2.68866 7.02449 2.66487C7.04645 2.64109 7.07629 2.62747 7.10758 2.62695C7.13919 2.62695 7.16951 2.64035 7.19186 2.66419C7.21421 2.68803 7.22677 2.72036 7.22677 2.75408Z" fill="#EEEEEE" stroke="#1E1E1E" stroke-width="1.18504" stroke-linejoin="round"/>
<path id="Vector_51" fill-rule="evenodd" clip-rule="evenodd" d="M7.05566 2.82422C7.05566 2.82422 7.15059 2.8207 7.16113 2.77852C7.16816 2.73633 7.1541 2.68359 7.1541 2.68359C7.1541 2.68359 7.1998 2.73633 7.18574 2.77852C7.17168 2.8207 7.16113 2.83125 7.12598 2.83828C7.10488 2.84531 7.07324 2.83828 7.05566 2.8207V2.82422Z" fill="#A3AFB8"/>
<path id="Vector_52" d="M7.11446 3.15447C7.11446 3.18785 7.10216 3.21989 7.0802 3.24368C7.05825 3.26747 7.0284 3.28109 6.99711 3.2816C6.9655 3.2816 6.93519 3.26821 6.91284 3.24436C6.89049 3.22052 6.87793 3.18819 6.87793 3.15447C6.87793 3.12109 6.89023 3.08905 6.91219 3.06526C6.93414 3.04148 6.96399 3.02786 6.99528 3.02734C7.02689 3.02734 7.0572 3.04074 7.07955 3.06458C7.1019 3.08842 7.11446 3.12076 7.11446 3.15447Z" fill="#EEEEEE" stroke="#1E1E1E" stroke-width="1.18504" stroke-linejoin="round"/>
<path id="Vector_53" fill-rule="evenodd" clip-rule="evenodd" d="M6.94336 3.22461C6.94336 3.22461 7.03828 3.22461 7.04883 3.17891C7.05938 3.13672 7.0418 3.08398 7.0418 3.08398C7.0418 3.08398 7.0875 3.13672 7.07695 3.17891C7.06289 3.22109 7.04883 3.23164 7.01719 3.23867C6.99258 3.2457 6.96094 3.23867 6.94336 3.22461Z" fill="#A3AFB8"/>
<path id="Vector_54" d="M7.16329 3.57439C7.16329 3.60777 7.15099 3.63982 7.12903 3.6636C7.10708 3.68739 7.07723 3.70101 7.04594 3.70152C7.01433 3.70152 6.98402 3.68813 6.96167 3.66429C6.93931 3.64045 6.92676 3.60811 6.92676 3.57439C6.92675 3.54101 6.93906 3.50897 6.96101 3.48519C6.98297 3.4614 7.01282 3.44778 7.04411 3.44727C7.07572 3.44727 7.10603 3.46066 7.12838 3.4845C7.15073 3.50834 7.16329 3.54068 7.16329 3.57439Z" fill="#EEEEEE" stroke="#1E1E1E" stroke-width="1.18504" stroke-linejoin="round"/>
<path id="Vector_55" fill-rule="evenodd" clip-rule="evenodd" d="M6.99219 3.64258C6.99219 3.64258 7.08711 3.64258 7.09766 3.59688C7.1082 3.5582 7.09063 3.50195 7.09063 3.50195C7.09063 3.50195 7.13633 3.5582 7.12578 3.59688C7.11172 3.63906 7.09766 3.64961 7.06602 3.66016C7.04008 3.66366 7.01376 3.6574 6.99219 3.64258Z" fill="#A3AFB8"/>
<path id="Vector_56" d="M7.34688 3.9533C7.34689 3.98668 7.33458 4.01872 7.31263 4.04251C7.29067 4.06629 7.26082 4.07991 7.22953 4.08043C7.19792 4.08043 7.16761 4.06703 7.14526 4.04319C7.12291 4.01935 7.11035 3.98702 7.11035 3.9533C7.11035 3.91992 7.12265 3.88788 7.14461 3.86409C7.16656 3.84031 7.19641 3.82669 7.2277 3.82617C7.25931 3.82617 7.28962 3.83957 7.31197 3.86341C7.33433 3.88725 7.34688 3.91958 7.34688 3.9533Z" fill="#EEEEEE" stroke="#1E1E1E" stroke-width="1.18504" stroke-linejoin="round"/>
<path id="Vector_57" fill-rule="evenodd" clip-rule="evenodd" d="M7.17188 4.01797C7.17188 4.01797 7.27031 4.01797 7.27734 3.97578C7.28789 3.93359 7.27383 3.88086 7.27383 3.88086C7.27383 3.88086 7.31953 3.93359 7.30898 3.97578C7.29141 4.01797 7.28086 4.02852 7.2457 4.03555C7.22461 4.04258 7.19297 4.03555 7.17539 4.01797H7.17188Z" fill="#A3AFB8"/>
<g id="Group_7">
<path id="Vector_58" d="M7.55305 4.43341C7.56115 4.46565 7.56147 4.49873 7.55394 4.52551C7.54641 4.55229 7.53164 4.57061 7.5128 4.57652C7.49366 4.582 7.47204 4.57431 7.45271 4.55515C7.43339 4.53599 7.41793 4.50693 7.40975 4.47436C7.40165 4.44212 7.40133 4.40904 7.40886 4.38226C7.41639 4.35548 7.43117 4.33716 7.45 4.33125C7.46915 4.32577 7.49076 4.33346 7.51009 4.35262C7.52942 4.37178 7.54487 4.40084 7.55305 4.43341Z" fill="#EEEEEE" stroke="#1E1E1E" stroke-width="1.19477" stroke-linejoin="round"/>
<path id="Vector_59" fill-rule="evenodd" clip-rule="evenodd" d="M7.46289 4.52617C7.46289 4.52617 7.51914 4.50859 7.51562 4.46641C7.51562 4.42422 7.49102 4.375 7.49102 4.375C7.49102 4.375 7.52969 4.4207 7.5332 4.46289C7.5332 4.50508 7.52969 4.51562 7.51211 4.5332C7.50156 4.54023 7.47695 4.53672 7.46289 4.52617Z" fill="#A3AFB8"/>
</g>
<g id="Group_8">
<path id="Vector_60" d="M10.6116 4.45627C10.6041 4.48868 10.5894 4.51781 10.5707 4.53739C10.5519 4.55696 10.5307 4.5654 10.5115 4.56088C10.4923 4.55581 10.4768 4.53795 10.4686 4.51122C10.4603 4.48449 10.46 4.45108 10.4675 4.41835C10.475 4.38594 10.4897 4.3568 10.5084 4.33723C10.5271 4.31766 10.5484 4.30922 10.5675 4.31374C10.5868 4.3188 10.6022 4.33667 10.6105 4.3634C10.6188 4.39013 10.6191 4.42353 10.6116 4.45627Z" fill="#EEEEEE" stroke="#1E1E1E" stroke-width="1.19473" stroke-linejoin="round"/>
<path id="Vector_61" fill-rule="evenodd" clip-rule="evenodd" d="M10.4873 4.49453C10.4873 4.49453 10.5471 4.50859 10.5611 4.46992C10.5787 4.43125 10.5787 4.375 10.5787 4.375C10.5787 4.375 10.5963 4.43477 10.5787 4.47344C10.5611 4.51211 10.5506 4.51914 10.5295 4.52266C10.5154 4.52266 10.4943 4.50859 10.4873 4.49453Z" fill="#A3AFB8"/>
</g>
</g>
<path id="Vector_62" fill-rule="evenodd" clip-rule="evenodd" d="M8.88374 2.01719L8.89428 2.22813C8.89428 2.22813 8.65522 2.25273 8.64819 2.27734C8.59897 2.38633 8.70093 2.53398 8.70093 2.53398C8.70093 2.53398 8.78178 2.4707 8.98218 2.4707C9.17553 2.4707 9.27397 2.52344 9.27397 2.52344C9.27397 2.52344 9.32319 2.43555 9.32319 2.37227C9.32319 2.30898 9.3021 2.2457 9.3021 2.2457L9.17553 2.23164H9.08764L9.08061 2.01367L8.88374 2.01719Z" fill="#B3A192" stroke="black" stroke-width="1.2"/>
<g id="Vector_63">
<path d="M9.22534 2.34766C9.22534 2.37227 9.20425 2.39336 9.18315 2.39336C9.17702 2.3939 9.17084 2.39308 9.16505 2.39098C9.15926 2.38887 9.154 2.38552 9.14965 2.38116C9.14529 2.37681 9.14194 2.37155 9.13984 2.36576C9.13773 2.35997 9.13691 2.35379 9.13745 2.34766C9.13745 2.33647 9.1419 2.32574 9.14981 2.31783C9.15772 2.30991 9.16845 2.30547 9.17964 2.30547C9.18547 2.30498 9.19133 2.30571 9.19687 2.30761C9.2024 2.30951 9.20747 2.31254 9.21177 2.31651C9.21607 2.32048 9.21949 2.32529 9.22183 2.33066C9.22417 2.33602 9.22536 2.34181 9.22534 2.34766ZM9.32026 2.37227C9.32026 2.39688 9.30269 2.41797 9.27808 2.41797C9.25347 2.41797 9.23237 2.39688 9.23237 2.37227C9.23237 2.36626 9.23355 2.36032 9.23585 2.35478C9.23815 2.34923 9.24152 2.34419 9.24576 2.33995C9.25 2.3357 9.25504 2.33234 9.26059 2.33004C9.26613 2.32774 9.27207 2.32656 9.27808 2.32656C9.30269 2.32656 9.32026 2.34766 9.32026 2.37227ZM9.1269 2.34766C9.1269 2.37227 9.10581 2.38984 9.08472 2.38984C9.06011 2.38984 9.04253 2.37227 9.04253 2.34766C9.04205 2.34211 9.04267 2.33653 9.04435 2.33122C9.04604 2.32592 9.04876 2.321 9.05235 2.31676C9.05595 2.31251 9.06035 2.30901 9.0653 2.30647C9.07025 2.30393 9.07565 2.3024 9.0812 2.30195C9.08734 2.30142 9.09352 2.30223 9.09931 2.30434C9.1051 2.30644 9.11035 2.30979 9.11471 2.31415C9.11906 2.31851 9.12241 2.32376 9.12452 2.32955C9.12663 2.33534 9.12744 2.34152 9.1269 2.34766ZM8.93003 2.34766C8.93003 2.37578 8.90894 2.39336 8.88433 2.39336C8.85972 2.39336 8.84214 2.37578 8.84214 2.35117C8.84214 2.32305 8.85972 2.30547 8.88433 2.30547C8.90894 2.30547 8.93003 2.32305 8.93003 2.34766ZM8.82104 2.3582C8.82104 2.38281 8.79995 2.40391 8.77534 2.40391C8.75073 2.40391 8.73315 2.38281 8.73315 2.3582C8.73315 2.33359 8.75073 2.3125 8.77534 2.3125C8.79995 2.3125 8.82104 2.33359 8.82104 2.3582ZM9.02144 2.22813C9.02144 2.24922 9.00386 2.26328 8.98628 2.26328C8.98138 2.26377 8.97642 2.26323 8.97174 2.26169C8.96706 2.26014 8.96276 2.25763 8.95911 2.25431C8.95547 2.251 8.95256 2.24696 8.95058 2.24244C8.94859 2.23793 8.94758 2.23305 8.94761 2.22813C8.94711 2.22322 8.94766 2.21827 8.9492 2.21359C8.95075 2.20891 8.95326 2.20461 8.95657 2.20096C8.95989 2.19731 8.96393 2.1944 8.96845 2.19242C8.97296 2.19044 8.97784 2.18943 8.98276 2.18945C8.99209 2.18945 9.00103 2.19316 9.00762 2.19975C9.01422 2.20634 9.01792 2.21529 9.01792 2.22461M9.01792 2.04883C9.01792 2.06992 9.00386 2.08398 8.98276 2.08398C8.97344 2.08398 8.9645 2.08028 8.9579 2.07369C8.95131 2.06709 8.94761 2.05815 8.94761 2.04883C8.94761 2.0395 8.95131 2.03056 8.9579 2.02397C8.9645 2.01738 8.97344 2.01367 8.98276 2.01367C8.99209 2.01367 9.00103 2.01738 9.00762 2.02397C9.01422 2.03056 9.01792 2.0395 9.01792 2.04883ZM9.01792 2.14375C9.01792 2.16484 9.00386 2.18242 8.98276 2.18242C8.97344 2.18242 8.9645 2.17872 8.9579 2.17212C8.95131 2.16553 8.94761 2.15659 8.94761 2.14727C8.94655 2.1421 8.94667 2.13676 8.94796 2.13165C8.94925 2.12653 8.95167 2.12177 8.95504 2.11772C8.95842 2.11367 8.96267 2.11043 8.96746 2.10824C8.97226 2.10605 8.97749 2.10497 8.98276 2.10508C8.98769 2.10505 8.99257 2.10607 8.99708 2.10805C9.00159 2.11003 9.00564 2.11294 9.00895 2.11659C9.01227 2.12023 9.01478 2.12453 9.01632 2.12921C9.01787 2.13389 9.01841 2.13885 9.01792 2.14375ZM8.70854 2.38984C8.70854 2.41445 8.69097 2.43203 8.66636 2.43203C8.64526 2.43203 8.62417 2.41445 8.62417 2.38984C8.62368 2.38402 8.62441 2.37815 8.62631 2.37262C8.62821 2.36709 8.63124 2.36201 8.63521 2.35771C8.63918 2.35342 8.644 2.34999 8.64936 2.34765C8.65472 2.34532 8.66051 2.34412 8.66636 2.34414C8.67221 2.34412 8.678 2.34532 8.68336 2.34765C8.68872 2.34999 8.69354 2.35342 8.6975 2.35771C8.70147 2.36201 8.7045 2.36709 8.7064 2.37262C8.7083 2.37815 8.70903 2.38402 8.70854 2.38984Z" fill="#F0DDCB"/>
<path d="M9.02144 2.22813C9.02144 2.24922 9.00386 2.26328 8.98628 2.26328C8.98138 2.26377 8.97642 2.26323 8.97174 2.26169C8.96706 2.26014 8.96276 2.25763 8.95911 2.25431C8.95547 2.251 8.95256 2.24696 8.95058 2.24244C8.94859 2.23793 8.94758 2.23305 8.94761 2.22813C8.94711 2.22322 8.94766 2.21827 8.9492 2.21359C8.95075 2.20891 8.95326 2.20461 8.95657 2.20096C8.95989 2.19731 8.96393 2.1944 8.96845 2.19242C8.97296 2.19044 8.97784 2.18943 8.98276 2.18945C8.99209 2.18945 9.00103 2.19316 9.00762 2.19975C9.01422 2.20634 9.01792 2.21529 9.01792 2.22461M9.22534 2.34766C9.22534 2.37227 9.20425 2.39336 9.18315 2.39336C9.17702 2.3939 9.17084 2.39308 9.16505 2.39098C9.15926 2.38887 9.154 2.38552 9.14965 2.38116C9.14529 2.37681 9.14194 2.37155 9.13984 2.36576C9.13773 2.35997 9.13691 2.35379 9.13745 2.34766C9.13745 2.33647 9.1419 2.32574 9.14981 2.31783C9.15772 2.30991 9.16845 2.30547 9.17964 2.30547C9.18547 2.30498 9.19133 2.30571 9.19687 2.30761C9.2024 2.30951 9.20747 2.31254 9.21177 2.31651C9.21607 2.32048 9.21949 2.32529 9.22183 2.33066C9.22417 2.33602 9.22536 2.34181 9.22534 2.34766ZM9.32026 2.37227C9.32026 2.39688 9.30269 2.41797 9.27808 2.41797C9.25347 2.41797 9.23237 2.39688 9.23237 2.37227C9.23237 2.36626 9.23355 2.36032 9.23585 2.35478C9.23815 2.34923 9.24152 2.34419 9.24576 2.33995C9.25 2.3357 9.25504 2.33234 9.26059 2.33004C9.26613 2.32774 9.27207 2.32656 9.27808 2.32656C9.30269 2.32656 9.32026 2.34766 9.32026 2.37227ZM9.1269 2.34766C9.1269 2.37227 9.10581 2.38984 9.08472 2.38984C9.06011 2.38984 9.04253 2.37227 9.04253 2.34766C9.04205 2.34211 9.04267 2.33653 9.04435 2.33122C9.04604 2.32592 9.04876 2.321 9.05235 2.31676C9.05595 2.31251 9.06035 2.30901 9.0653 2.30647C9.07025 2.30393 9.07565 2.3024 9.0812 2.30195C9.08734 2.30142 9.09352 2.30223 9.09931 2.30434C9.1051 2.30644 9.11035 2.30979 9.11471 2.31415C9.11906 2.31851 9.12241 2.32376 9.12452 2.32955C9.12663 2.33534 9.12744 2.34152 9.1269 2.34766ZM8.93003 2.34766C8.93003 2.37578 8.90894 2.39336 8.88433 2.39336C8.85972 2.39336 8.84214 2.37578 8.84214 2.35117C8.84214 2.32305 8.85972 2.30547 8.88433 2.30547C8.90894 2.30547 8.93003 2.32305 8.93003 2.34766ZM8.82104 2.3582C8.82104 2.38281 8.79995 2.40391 8.77534 2.40391C8.75073 2.40391 8.73315 2.38281 8.73315 2.3582C8.73315 2.33359 8.75073 2.3125 8.77534 2.3125C8.79995 2.3125 8.82104 2.33359 8.82104 2.3582ZM9.01792 2.04883C9.01792 2.06992 9.00386 2.08398 8.98276 2.08398C8.97344 2.08398 8.9645 2.08028 8.9579 2.07369C8.95131 2.06709 8.94761 2.05815 8.94761 2.04883C8.94761 2.0395 8.95131 2.03056 8.9579 2.02397C8.9645 2.01738 8.97344 2.01367 8.98276 2.01367C8.99209 2.01367 9.00103 2.01738 9.00762 2.02397C9.01422 2.03056 9.01792 2.0395 9.01792 2.04883ZM9.01792 2.14375C9.01792 2.16484 9.00386 2.18242 8.98276 2.18242C8.97344 2.18242 8.9645 2.17872 8.9579 2.17212C8.95131 2.16553 8.94761 2.15659 8.94761 2.14727C8.94655 2.1421 8.94667 2.13676 8.94796 2.13165C8.94925 2.12653 8.95167 2.12177 8.95504 2.11772C8.95842 2.11367 8.96267 2.11043 8.96746 2.10824C8.97226 2.10605 8.97749 2.10497 8.98276 2.10508C8.98769 2.10505 8.99257 2.10607 8.99708 2.10805C9.00159 2.11003 9.00564 2.11294 9.00895 2.11659C9.01227 2.12023 9.01478 2.12453 9.01632 2.12921C9.01787 2.13389 9.01841 2.13885 9.01792 2.14375ZM8.70854 2.38984C8.70854 2.41445 8.69097 2.43203 8.66636 2.43203C8.64526 2.43203 8.62417 2.41445 8.62417 2.38984C8.62368 2.38402 8.62441 2.37815 8.62631 2.37262C8.62821 2.36709 8.63124 2.36201 8.63521 2.35771C8.63918 2.35342 8.644 2.34999 8.64936 2.34765C8.65472 2.34532 8.66051 2.34412 8.66636 2.34414C8.67221 2.34412 8.678 2.34532 8.68336 2.34765C8.68872 2.34999 8.69354 2.35342 8.6975 2.35771C8.70147 2.36201 8.7045 2.36709 8.7064 2.37262C8.7083 2.37815 8.70903 2.38402 8.70854 2.38984Z" stroke="#121116" stroke-width="0.6" stroke-linejoin="round"/>
</g>
<path id="Vector_64" d="M9.03145 2.33867C9.03145 2.3668 9.01035 2.38789 8.98223 2.38789C8.96979 2.387 8.95816 2.38142 8.94968 2.37229C8.94119 2.36315 8.93649 2.35114 8.93652 2.33867C8.93734 2.32682 8.94242 2.31567 8.95082 2.30727C8.95922 2.29887 8.97038 2.29379 8.98223 2.29297C8.99469 2.29294 9.00671 2.29764 9.01584 2.30612C9.02498 2.3146 9.03055 2.32624 9.03145 2.33867Z" fill="#916C68" stroke="#4D3126" stroke-width="0.6" stroke-linejoin="round"/>
<g id="Group_9">
<path id="Vector_65" d="M9.07056 1.70346C9.07057 1.72817 9.06146 1.75188 9.04521 1.76948C9.02896 1.78709 9.00687 1.79717 8.98371 1.79755C8.96032 1.79755 8.93789 1.78764 8.92134 1.76999C8.9048 1.75235 8.89551 1.72842 8.89551 1.70346C8.89551 1.67876 8.90461 1.65504 8.92086 1.63744C8.93711 1.61984 8.9592 1.60976 8.98236 1.60938C9.00575 1.60938 9.02819 1.61929 9.04473 1.63693C9.06127 1.65458 9.07056 1.67851 9.07056 1.70346Z" fill="#EEEEEE" stroke="#1E1E1E" stroke-width="1.19597" stroke-linejoin="round"/>
<path id="Vector_66" fill-rule="evenodd" clip-rule="evenodd" d="M8.94336 1.75391C8.94336 1.75391 9.01367 1.75391 9.0207 1.71875C9.02773 1.69062 9.01719 1.64844 9.01719 1.64844C9.01719 1.64844 9.05234 1.69062 9.0418 1.71875C9.03125 1.75391 9.0207 1.76094 8.99961 1.76445C8.99002 1.76674 8.98005 1.76698 8.97036 1.76516C8.96067 1.76334 8.95147 1.75951 8.94336 1.75391Z" fill="#A3AFB8"/>
</g>
<path id="Vector_67" fill-rule="evenodd" clip-rule="evenodd" d="M7.59375 4.87884C7.59375 4.87884 7.67109 4.95619 7.69219 5.0265C7.71328 5.09681 7.74492 5.28314 7.74492 5.28314C7.74492 5.28314 8.56055 5.03704 8.96133 5.05814C9.36211 5.07923 10.2867 5.2972 10.2867 5.2972L10.3219 5.07923C10.3395 4.96673 10.4168 4.8472 10.4168 4.8472C10.4168 4.8472 9.53086 4.55189 8.97539 4.58001C8.41641 4.60814 8.13867 4.67142 8.01562 4.71361C7.8736 4.76503 7.73292 4.82013 7.59375 4.87884Z" fill="#FFCC00" stroke="black" stroke-width="0.5"/>
<path id="Vector_68" fill-rule="evenodd" clip-rule="evenodd" d="M8.81348 1.35366H9.16504C9.16504 1.35366 9.07715 1.41694 9.05957 1.4767C9.04551 1.52944 9.04902 1.61733 9.04902 1.61733C9.04902 1.61733 9.14395 1.61733 9.18965 1.57866L9.31973 1.47319V1.9478C9.31973 1.9478 9.23184 1.85991 9.1791 1.82827C9.11934 1.79311 9.05606 1.78256 9.05606 1.78256C9.05606 1.78256 9.05605 1.85991 9.08418 1.90561L9.23535 2.12358L8.73262 2.14467C8.73262 2.14467 8.85215 2.01108 8.89785 1.91264C8.93301 1.84936 8.91895 1.78256 8.91895 1.78256C8.91895 1.78256 8.83457 1.78256 8.79238 1.8142C8.74668 1.84584 8.67285 1.94077 8.67285 1.94077V1.48373C8.67285 1.48373 8.70801 1.57162 8.77832 1.60327C8.84863 1.63842 8.91191 1.62084 8.91191 1.62084C8.91191 1.62084 8.92598 1.52944 8.89785 1.47319C8.86621 1.41342 8.80645 1.35014 8.81348 1.35366Z" fill="#FFCC00" stroke="black" stroke-width="1.2"/>
<path id="Vector_69" fill-rule="evenodd" clip-rule="evenodd" d="M8.78537 2.8658C8.78537 2.8658 8.53576 2.8658 8.32131 2.72869C8.10685 2.5951 7.88888 2.45447 7.57248 2.53182C7.5092 2.5494 7.26662 2.6619 7.16115 3.02401C7.09084 3.28065 7.17521 3.58651 7.24904 3.72713C7.32638 3.86424 7.44592 4.00487 7.44592 4.00487L7.57599 3.90994C7.57599 3.90994 7.24553 3.61463 7.28771 3.22791C7.32287 2.84119 7.50568 2.7533 7.50568 2.7533C7.50568 2.7533 7.73068 2.56697 8.02951 2.74276C8.30464 2.9021 8.60575 3.01159 8.91896 3.06619C8.94006 3.06619 8.77834 2.8658 8.78537 2.8658Z" fill="#FFCC00" stroke="#121116" stroke-width="1.2"/>
<path id="Vector_70" fill-rule="evenodd" clip-rule="evenodd" d="M7.4002 4.31367L7.2666 4.03242L7.66738 3.86719C7.66738 3.86719 7.56895 4.00781 7.54785 4.10273C7.51973 4.22227 7.53027 4.32422 7.53027 4.32422C7.53027 4.32422 7.56543 4.29258 7.61113 4.21875C7.64629 4.15547 7.70254 3.94102 7.70254 3.94102L7.88184 4.55273C7.88184 4.55273 7.79043 4.4543 7.72363 4.44375C7.65332 4.42969 7.56191 4.4543 7.56191 4.4543L7.45645 4.48945L7.4002 4.31367Z" fill="#FFCC00" stroke="black" stroke-width="1.2"/>
<path id="Vector_71" fill-rule="evenodd" clip-rule="evenodd" d="M9.23571 2.86166C9.23571 2.86166 9.48531 2.86166 9.69977 2.72104C9.91422 2.58745 10.1287 2.44682 10.4486 2.52768C10.5119 2.54526 10.7509 2.65424 10.8564 3.01987C10.9302 3.27299 10.8459 3.58237 10.7685 3.72299L10.642 3.94096L10.4873 3.8812C10.4873 3.8812 10.772 3.60698 10.7334 3.22026C10.6947 2.83354 10.5154 2.74565 10.5154 2.74565C10.5154 2.74565 10.2904 2.55932 9.99156 2.7351C9.69274 2.91088 9.40094 2.99174 9.40094 2.99174C9.40094 2.99174 9.12672 3.06206 9.10211 3.06206C9.0775 3.05854 9.24274 2.85815 9.23571 2.86166Z" fill="#FFCC00" stroke="#121116" stroke-width="1.2"/>
<path id="Vector_72" d="M9.10547 2.59727H9.21094V3.63437H9.10547V2.59727ZM8.75391 2.59375H8.87695V3.63086H8.75391V2.59375Z" fill="#FFCC00" stroke="#121116" stroke-width="1.2" stroke-linejoin="round"/>
<g id="Vector_73">
<path d="M9.32363 2.35164C9.32317 2.39596 9.31399 2.43976 9.2966 2.48053C9.27922 2.5213 9.25397 2.55825 9.2223 2.58926C9.19063 2.62028 9.15317 2.64475 9.11204 2.66128C9.07092 2.67781 9.02694 2.68609 8.98262 2.68562C8.9383 2.68609 8.89432 2.67781 8.85319 2.66128C8.81207 2.64475 8.7746 2.62028 8.74293 2.58926C8.71127 2.55825 8.68602 2.5213 8.66863 2.48053C8.65125 2.43976 8.64206 2.39596 8.6416 2.35164C8.64253 2.26274 8.67849 2.17779 8.74169 2.11526C8.80488 2.05272 8.8902 2.01765 8.9791 2.01765C9.02342 2.01672 9.0675 2.02453 9.1088 2.04063C9.15011 2.05674 9.18784 2.08082 9.21983 2.11151C9.25183 2.1422 9.27746 2.17889 9.29527 2.21949C9.31308 2.26009 9.32272 2.3038 9.32363 2.34812" fill="#FFCC00"/>
<path d="M9.32363 2.35164C9.32317 2.39596 9.31399 2.43976 9.2966 2.48053C9.27922 2.5213 9.25397 2.55825 9.2223 2.58926C9.19063 2.62028 9.15317 2.64475 9.11204 2.66128C9.07092 2.67781 9.02694 2.68609 8.98262 2.68562C8.9383 2.68609 8.89432 2.67781 8.85319 2.66128C8.81207 2.64475 8.7746 2.62028 8.74293 2.58926C8.71127 2.55825 8.68602 2.5213 8.66863 2.48053C8.65125 2.43976 8.64206 2.39596 8.6416 2.35164C8.64253 2.26274 8.67849 2.17779 8.74169 2.11526C8.80488 2.05272 8.8902 2.01765 8.9791 2.01765C9.02342 2.01672 9.0675 2.02453 9.1088 2.04063C9.15011 2.05674 9.18784 2.08082 9.21983 2.11151C9.25183 2.1422 9.27746 2.17889 9.29527 2.21949C9.31308 2.26009 9.32272 2.3038 9.32363 2.34812" stroke="#121116" stroke-width="1.2" stroke-linejoin="round"/>
</g>
<path id="Vector_74" fill-rule="evenodd" clip-rule="evenodd" d="M8.68008 3.62852L9.26719 3.625C9.26719 3.625 9.19688 3.66719 9.14062 3.77969C9.08086 3.89219 9.08789 3.9625 9.08789 3.9625C9.08789 3.9625 9.1793 3.9625 9.23906 3.90977C9.30234 3.86406 9.37266 3.76914 9.37266 3.76914V4.34922C9.37266 4.34922 9.32695 4.27539 9.25664 4.22969C9.18633 4.1875 9.08789 4.1875 9.08789 4.1875H8.8875C8.8875 4.1875 8.79609 4.19453 8.75742 4.22266C8.71079 4.25878 8.66727 4.29876 8.62734 4.34219L8.61328 3.79727C8.61328 3.79727 8.64141 3.89219 8.73633 3.93086C8.83125 3.96953 8.88398 3.96602 8.88398 3.96602C8.88398 3.96602 8.88398 3.84297 8.83477 3.77969C8.78555 3.71641 8.67656 3.63203 8.67656 3.62852H8.68008Z" fill="#FFCC00" stroke="black"/>
<path id="Vector_75" fill-rule="evenodd" clip-rule="evenodd" d="M9.00723 4.07773C9.00723 4.07773 9.0916 4.29219 9.19355 4.38711C9.2498 4.44336 9.42559 4.48555 9.50293 4.46445C9.67871 4.41523 9.80527 4.26406 9.80527 4.26406C9.80527 4.26406 9.79824 4.4293 9.91074 4.5207C10.0197 4.61211 10.1076 4.63672 10.199 4.60859C10.2939 4.58047 10.5506 4.37656 10.5506 4.37656L10.6068 4.42578C10.6068 4.42578 10.4557 4.58047 10.301 4.66133C10.2201 4.70352 9.97402 4.68242 9.89668 4.61211C9.81582 4.54531 9.77012 4.38359 9.77012 4.38359C9.77012 4.38359 9.7209 4.48906 9.61543 4.52422C9.50996 4.55937 9.36934 4.55937 9.23223 4.51719C9.14434 4.48906 9.0248 4.35898 9.00371 4.31328C8.98262 4.27109 8.98965 4.24297 8.98965 4.24297C8.98965 4.24297 8.91934 4.44688 8.78574 4.50313C8.65636 4.55298 8.51398 4.55793 8.38144 4.51719C8.25488 4.47852 8.24434 4.40117 8.24434 4.40117C8.24434 4.40117 8.2373 4.61211 7.96309 4.67539C7.68184 4.73867 7.46387 4.5207 7.46387 4.5207L7.50254 4.46094C7.50254 4.46094 7.65723 4.64727 7.89629 4.62969C8.13535 4.61211 8.2127 4.28516 8.2127 4.28516C8.2127 4.28516 8.31816 4.45742 8.59941 4.46094C8.87715 4.46094 8.95801 4.07422 8.95801 4.07422L9.00723 4.07773Z" fill="#F6CA1F" stroke="black"/>
<g id="Group_10">
<path id="Vector_76" fill-rule="evenodd" clip-rule="evenodd" d="M8.3185 4.20358C8.3185 4.20358 8.3185 4.09993 8.3405 4.06863C8.34999 4.05267 8.36396 4.04029 8.38042 4.03327C8.39687 4.02625 8.41499 4.02494 8.43218 4.02952C8.45602 4.03734 8.48352 4.06081 8.47802 4.13318C8.47435 4.20554 8.45602 4.24075 8.47619 4.26813C8.49452 4.29551 8.49819 4.31311 8.53853 4.30724C8.5752 4.30138 8.59354 4.28769 8.58437 4.24857C8.57703 4.20945 8.56603 4.25248 8.55687 4.21923C8.54953 4.18794 8.59537 4.04908 8.58804 3.96302C8.5807 3.87892 8.55136 3.81047 8.49086 3.79482C8.43402 3.77917 8.38451 3.77917 8.33134 3.82025C8.28485 3.87029 8.24589 3.92768 8.21582 3.9904V4.27008L8.32033 4.26226L8.3185 4.20358Z" fill="#FFCC00" stroke="black" stroke-width="1.18504"/>
<path id="Vector_77" fill-rule="evenodd" clip-rule="evenodd" d="M8.12029 4.27931C8.12029 4.27931 8.07812 4.18543 8.04695 4.16587C8.03245 4.15573 8.01542 4.1505 7.99808 4.15084C7.98074 4.15119 7.96391 4.15711 7.94977 4.16783C7.93144 4.18739 7.91493 4.21868 7.94611 4.28518C7.97728 4.34777 8.00661 4.37319 7.99928 4.40644C7.99011 4.43969 7.99561 4.45729 7.95711 4.46903C7.9186 4.48076 7.89843 4.47489 7.8911 4.43578C7.8856 4.39666 7.91127 4.42991 7.90577 4.39666C7.90027 4.36537 7.80675 4.25584 7.78292 4.1737C7.75725 4.09547 7.75908 4.01723 7.80859 3.97812C7.85443 3.939 7.90027 3.91944 7.96261 3.93509C8.02495 3.94878 8.13313 4.0407 8.13313 4.0407L8.23948 4.29496L8.13863 4.33407L8.12029 4.27931Z" fill="#FFCC00" stroke="black" stroke-width="1.18504"/>
<path id="Vector_78" fill-rule="evenodd" clip-rule="evenodd" d="M8.10009 3.45312C8.10009 3.45312 7.99557 3.63893 8.01941 3.7817C8.04141 3.92448 8.18076 4.23154 8.18076 4.23154V4.27065L8.25411 4.26283L8.23944 4.2198C8.23944 4.2198 8.27611 3.85407 8.25227 3.73867C8.23577 3.65262 8.10009 3.45508 8.10009 3.45312ZM8.26511 4.30195C8.26511 4.30195 8.31645 4.36845 8.37879 4.39974C8.4448 4.43494 8.47414 4.43494 8.49981 4.41343C8.51814 4.39778 8.51264 4.33128 8.49064 4.31173C8.4668 4.29412 8.44113 4.3039 8.43563 4.32151C8.43013 4.3528 8.42096 4.35084 8.39896 4.33911L8.29811 4.27457L8.26511 4.30195ZM8.18443 4.31759C8.18443 4.31759 8.16243 4.39974 8.11842 4.4545C8.07075 4.51709 8.04508 4.53078 8.01208 4.52295C7.98824 4.51709 7.9699 4.45255 7.98274 4.42516C7.99741 4.39778 8.02491 4.39583 8.03408 4.41147C8.05241 4.43494 8.06158 4.43103 8.07625 4.41147C8.09959 4.3768 8.12221 4.34159 8.14409 4.30586L8.18443 4.31759Z" fill="#FFCC00" stroke="black" stroke-width="1.18504"/>
<g id="Vector_79">
<path d="M8.38452 4.25238C8.38816 4.27553 8.31886 4.30776 8.23206 4.3233C8.14527 4.33883 8.06809 4.33281 8.06234 4.30806C8.0587 4.28491 8.128 4.25268 8.2166 4.23682C8.30521 4.22096 8.38058 4.2273 8.38422 4.25045" fill="#FFCC00"/>
<path d="M8.38452 4.25238C8.38816 4.27553 8.31886 4.30776 8.23206 4.3233C8.14527 4.33883 8.06809 4.33281 8.06234 4.30806C8.0587 4.28491 8.128 4.25268 8.2166 4.23682C8.30521 4.22096 8.38058 4.2273 8.38422 4.25045" stroke="black" stroke-width="1.18518" stroke-linejoin="round"/>
</g>
</g>
<g id="Group_11">
<path id="Vector_80" fill-rule="evenodd" clip-rule="evenodd" d="M9.90195 4.24668C9.90195 4.24668 9.93603 4.1496 9.96693 4.12853C9.98106 4.11712 9.99821 4.11076 10.0159 4.11034C10.0337 4.10992 10.051 4.11547 10.0656 4.12619C10.0854 4.14243 10.1034 4.1747 10.0745 4.24041C10.0473 4.30681 10.0185 4.33292 10.0284 4.36611C10.0366 4.39861 10.0342 4.41647 10.0739 4.42606C10.1102 4.43429 10.1319 4.42833 10.1361 4.38826C10.1421 4.34889 10.1177 4.38507 10.12 4.3505C10.1235 4.31845 10.212 4.20555 10.2335 4.12222C10.2542 4.04071 10.2493 3.96563 10.1978 3.92834C10.1497 3.89243 10.1033 3.87391 10.04 3.89248C9.98002 3.92195 9.92466 3.96113 9.87588 4.00862L9.78393 4.27055L9.88438 4.30231L9.90195 4.24668Z" fill="#FFCC00" stroke="black" stroke-width="1.18559"/>
<path id="Vector_81" fill-rule="evenodd" clip-rule="evenodd" d="M9.69187 4.24294C9.69187 4.24294 9.68324 4.13924 9.66048 4.10927C9.65024 4.09435 9.63601 4.08307 9.61965 4.07691C9.6033 4.07075 9.58559 4.07 9.56883 4.07475C9.54523 4.0862 9.51949 4.10934 9.52682 4.18327C9.53543 4.25355 9.55455 4.28833 9.53675 4.31673C9.51723 4.34443 9.51659 4.36298 9.47668 4.35956C9.43676 4.35615 9.4198 4.34311 9.42579 4.30373C9.4335 4.26504 9.44661 4.30578 9.45239 4.27259C9.45752 4.24122 9.40596 4.10367 9.41064 4.01783C9.41232 3.93496 9.43976 3.86238 9.49898 3.84426C9.55477 3.82478 9.60413 3.82361 9.65737 3.86158C9.71125 3.89773 9.78234 4.02428 9.78234 4.02428L9.79834 4.30218L9.69104 4.30108L9.69187 4.24294Z" fill="#FFCC00" stroke="black" stroke-width="1.18559"/>
<path id="Vector_82" fill-rule="evenodd" clip-rule="evenodd" d="M9.94491 3.46149C9.94491 3.46149 9.78594 3.5964 9.76133 3.73903C9.73499 3.88097 9.76454 4.22067 9.76454 4.22067L9.75168 4.2573L9.82294 4.27741L9.82335 4.23162C9.82335 4.23162 9.97793 3.90283 9.99355 3.78584C10.0064 3.69908 9.94426 3.46332 9.94491 3.46149ZM9.82038 4.31816C9.82038 4.31816 9.8466 4.39964 9.89469 4.45226C9.94494 4.50992 9.97241 4.5209 10.0035 4.51035C10.0258 4.50256 10.0426 4.43823 10.0284 4.41168C10.0118 4.38628 9.98458 4.38583 9.97365 4.40026C9.95821 4.42751 9.95026 4.42225 9.93352 4.40303L9.86029 4.30486L9.82038 4.31816ZM9.73968 4.30263C9.73968 4.30263 9.69207 4.37133 9.63286 4.40615C9.56764 4.44693 9.53909 4.45015 9.51076 4.43048C9.49036 4.41607 9.49441 4.34876 9.51543 4.32792C9.53817 4.30776 9.56457 4.31622 9.56802 4.3343C9.57747 4.36314 9.58734 4.36291 9.60751 4.35008C9.64076 4.32634 9.67352 4.30182 9.70577 4.27655L9.73968 4.30263Z" fill="#FFCC00" stroke="black" stroke-width="1.18559"/>
<g id="Vector_83">
<path d="M9.94514 4.31765C9.94094 4.34068 9.86544 4.34495 9.77905 4.32703C9.69266 4.30911 9.62236 4.2746 9.62511 4.24927C9.62931 4.22623 9.70481 4.22197 9.793 4.24026C9.88119 4.25855 9.94969 4.29269 9.94549 4.31573" fill="#FFCC00"/>
<path d="M9.94514 4.31765C9.94094 4.34068 9.86544 4.34495 9.77905 4.32703C9.69266 4.30911 9.62236 4.2746 9.62511 4.24927C9.62931 4.22623 9.70481 4.22197 9.793 4.24026C9.88119 4.25855 9.94969 4.29269 9.94549 4.31573" stroke="black" stroke-width="1.18522" stroke-linejoin="round"/>
</g>
</g>
<path id="Vector_84" fill-rule="evenodd" clip-rule="evenodd" d="M7.55894 4.8684C7.55894 4.8684 7.58003 4.94574 7.62222 4.90355C7.66089 4.8684 8.22691 4.62933 9.02144 4.62933C9.81597 4.62933 10.3433 4.86136 10.375 4.87543C10.4066 4.88949 10.4207 4.91058 10.4453 4.87543C10.4734 4.84379 10.4207 4.79105 10.4207 4.79105C10.4207 4.79105 9.86519 4.54144 9.00034 4.54496C8.13199 4.54496 7.573 4.81215 7.573 4.81215C7.573 4.81215 7.53784 4.84027 7.56245 4.8684H7.55894Z" fill="#CCA715" stroke="black" stroke-width="0.5"/>
<path id="Vector_85" fill-rule="evenodd" clip-rule="evenodd" d="M8.57109 5.2237C8.57109 5.2237 8.59922 5.14635 8.64141 5.13229C8.67656 5.12174 8.73281 5.16042 8.73281 5.16042C8.73281 5.16042 8.66602 5.15338 8.64492 5.16393C8.62734 5.17799 8.62031 5.20964 8.62031 5.20964C8.62031 5.20964 8.63438 5.18503 8.68711 5.18503L8.74336 5.18854C8.74336 5.18854 8.65547 5.19557 8.63789 5.2237C8.6168 5.24831 8.71875 5.25885 8.71875 5.25885C8.71875 5.25885 8.56055 5.26237 8.54297 5.25182C8.51836 5.24128 8.50781 5.20963 8.47266 5.21667C8.4375 5.23073 8.40234 5.26237 8.40234 5.26237C8.40234 5.26237 8.4375 5.19206 8.46563 5.19206C8.49023 5.19206 8.5043 5.19206 8.52891 5.19909C8.55352 5.20612 8.57109 5.2237 8.57109 5.2237ZM7.98398 5.36081C7.98398 5.36081 7.99453 5.27995 8.03672 5.25534C8.07188 5.23776 8.13164 5.26589 8.13164 5.26589C8.13164 5.26589 8.06133 5.2694 8.04375 5.28698C8.02969 5.30456 8.02969 5.3362 8.02969 5.3362C8.02969 5.3362 8.03672 5.30807 8.08945 5.30104L8.1457 5.29049C8.1457 5.29049 8.06133 5.3151 8.04727 5.34674C8.02969 5.37839 8.13516 5.36784 8.13516 5.36784C8.13516 5.36784 7.98047 5.40299 7.95937 5.39596C7.93477 5.38893 7.91719 5.36081 7.88203 5.37487C7.85039 5.39245 7.82227 5.43112 7.82227 5.43112C7.82227 5.43112 7.85039 5.35378 7.875 5.34674C7.89961 5.34323 7.91016 5.33971 7.93828 5.34674C7.96289 5.35026 7.98398 5.36081 7.98398 5.36081ZM9.07031 5.19557C9.07031 5.19557 9.09844 5.12174 9.14062 5.1112C9.1793 5.10065 9.23203 5.13932 9.23203 5.13932C9.23203 5.13932 9.16523 5.13229 9.14414 5.13932C9.12656 5.15339 9.11602 5.18503 9.11602 5.18503C9.11602 5.18503 9.13359 5.16042 9.18633 5.16745L9.24258 5.17096C9.24258 5.17096 9.15469 5.17096 9.13359 5.19909C9.1125 5.2237 9.21445 5.24479 9.21445 5.24479C9.21445 5.24479 9.05625 5.23424 9.03867 5.2237C9.01758 5.21315 9.00352 5.17799 8.96836 5.18503C8.9332 5.19206 8.89805 5.2237 8.89805 5.2237C8.89805 5.2237 8.94023 5.15339 8.96484 5.15339C8.98945 5.1569 9.00352 5.1569 9.02812 5.17096L9.07031 5.19557ZM9.56602 5.25534C9.56602 5.25534 9.60117 5.18503 9.65039 5.18151C9.68555 5.17448 9.73477 5.22018 9.73477 5.22018C9.73477 5.22018 9.67148 5.2026 9.64687 5.20964C9.62578 5.22018 9.61523 5.25182 9.61523 5.25182C9.61523 5.25182 9.63281 5.22721 9.68555 5.24128L9.7418 5.25182C9.7418 5.25182 9.65391 5.24479 9.6293 5.26589C9.60469 5.29049 9.70312 5.32213 9.70312 5.32213C9.70312 5.32213 9.54844 5.29401 9.52734 5.27995C9.51328 5.26589 9.50273 5.22721 9.46758 5.23073C9.43242 5.23424 9.39023 5.26589 9.39023 5.26589C9.39023 5.26589 9.44297 5.19909 9.46758 5.2026C9.49219 5.20612 9.50625 5.20964 9.52734 5.2237L9.56602 5.25534ZM10.0582 5.35026C10.0582 5.35026 10.0934 5.29753 10.132 5.29401C10.1637 5.29401 10.1988 5.3362 10.1988 5.3362C10.1988 5.3362 10.1461 5.3151 10.1285 5.32213C10.1109 5.32213 10.1004 5.35026 10.1004 5.35026C10.1004 5.35026 10.118 5.33268 10.1566 5.34674L10.2023 5.36081C10.2023 5.36081 10.132 5.34674 10.1109 5.36081C10.0898 5.37839 10.1672 5.41354 10.1672 5.41354C10.1672 5.41354 10.0441 5.37839 10.0266 5.36432C10.016 5.35378 10.0125 5.32213 9.98438 5.32213C9.95273 5.32213 9.91758 5.34323 9.91758 5.34323C9.91758 5.34323 9.96328 5.29401 9.98438 5.30104C10.002 5.30456 10.016 5.30807 10.0301 5.32213L10.0617 5.35026H10.0582Z" fill="black"/>
<path id="Vector_86" d="M8.47277 4.86473C8.48684 4.92801 8.41652 4.9948 8.31809 5.0159C8.22316 5.03699 8.13176 5.00184 8.12121 4.93855C8.11066 4.87527 8.17746 4.80848 8.2759 4.78738C8.37434 4.76629 8.46223 4.80144 8.47277 4.86473Z" fill="#0F6545" stroke="black" stroke-width="0.7" stroke-linejoin="round"/>
<path id="Vector_87" d="M8.25469 4.85074C8.25469 4.86832 8.24063 4.8859 8.21953 4.88941C8.19844 4.89293 8.17734 4.8859 8.17383 4.87184C8.17383 4.85426 8.18789 4.83668 8.20898 4.83668C8.23008 4.82965 8.25117 4.83668 8.25469 4.85426V4.85074Z" fill="#CECFC1"/>
<path id="Vector_88" d="M9.84755 4.94033C9.82997 5.00361 9.74208 5.02822 9.64365 4.99658C9.54872 4.96142 9.48896 4.89111 9.50302 4.82783C9.52411 4.76455 9.61552 4.73994 9.71044 4.77158C9.80536 4.80674 9.86865 4.87705 9.85107 4.94033H9.84755Z" fill="#0F6545" stroke="black" stroke-width="0.7" stroke-linejoin="round"/>
<path id="Vector_89" d="M9.66089 4.81682C9.65386 4.8344 9.63628 4.84143 9.61519 4.8344C9.59409 4.82737 9.58003 4.80979 9.58355 4.79221C9.58706 4.77815 9.60816 4.77112 9.62925 4.77815C9.65034 4.78518 9.6644 4.80276 9.66089 4.82034V4.81682Z" fill="#CECFC1"/>
<path id="Vector_90" d="M8.81055 4.7207H9.16563V4.91406H8.81055V4.7207Z" fill="#1F2D86" stroke="black" stroke-linejoin="round"/>
<path id="Vector_91" d="M8.96094 4.76406C8.96094 4.77461 8.94336 4.78164 8.92578 4.78164C8.9082 4.78164 8.89062 4.77109 8.89062 4.76406C8.89062 4.75703 8.9082 4.75 8.92578 4.75C8.94336 4.75 8.96094 4.75703 8.96094 4.76406Z" fill="#707C8B"/>
<path id="Vector_92" fill-rule="evenodd" clip-rule="evenodd" d="M7.80437 4.91427L7.86062 5.10059L7.75515 5.16388C7.75515 5.16388 7.70242 5.19903 7.64968 5.17091C7.60398 5.14278 7.57234 5.05841 7.60046 5.02325C7.6532 4.95294 7.80085 4.91075 7.80085 4.91427H7.80437Z" fill="#9F1209" stroke="black" stroke-width="0.5"/>
<path id="Vector_93" d="M7.70977 5.04805C7.70977 5.07617 7.68867 5.1043 7.66055 5.1043C7.63242 5.1043 7.61133 5.07617 7.61133 5.04805C7.61133 5.01289 7.63242 4.98828 7.66055 4.98828C7.68867 4.98828 7.70977 5.01641 7.70977 5.04453V5.04805Z" fill="#8F322F"/>
<path id="Vector_94" d="M7.66383 5.02824C7.66383 5.03585 7.66136 5.04325 7.6568 5.04934C7.65328 5.05637 7.64625 5.05637 7.63922 5.05285C7.63219 5.05285 7.62867 5.0423 7.62516 5.03176C7.62432 5.02296 7.62684 5.01418 7.63219 5.00715C7.63425 5.00461 7.63714 5.00287 7.64034 5.00223C7.64355 5.00158 7.64688 5.00208 7.64977 5.00363C7.6568 5.00363 7.66383 5.01418 7.66383 5.02473V5.02824Z" fill="#E2A494"/>
<path id="Vector_95" fill-rule="evenodd" clip-rule="evenodd" d="M10.1916 4.93945L10.1318 5.10469L10.2725 5.18203C10.2725 5.18203 10.3322 5.21016 10.3709 5.175C10.4061 5.14336 10.4131 5.06953 10.385 5.03437C10.3604 4.99922 10.1881 4.93945 10.1916 4.93945Z" fill="#9F1209" stroke="black" stroke-width="0.5"/>
<path id="Vector_96" d="M10.3574 5.07383C10.3574 5.09141 10.3363 5.10898 10.3117 5.10898C10.2871 5.10898 10.2695 5.09141 10.2695 5.07383C10.2695 5.05273 10.2906 5.03516 10.3117 5.03516C10.3363 5.03516 10.3574 5.05273 10.3574 5.07031V5.07383Z" fill="#AA675D"/>
<path id="Vector_97" d="M10.3148 5.06172C10.3148 5.07578 10.3112 5.08281 10.3042 5.08984C10.3012 5.09213 10.2975 5.09336 10.2937 5.09336C10.2899 5.09336 10.2862 5.09213 10.2831 5.08984C10.2795 5.08694 10.2766 5.08317 10.2747 5.07887C10.2729 5.07458 10.2722 5.06989 10.2726 5.06523C10.2726 5.05469 10.2761 5.04766 10.2831 5.04062C10.2862 5.03834 10.2899 5.03711 10.2937 5.03711C10.2975 5.03711 10.3012 5.03834 10.3042 5.04062C10.3112 5.04766 10.3148 5.05469 10.3148 5.06523V5.06172Z" fill="#E2A494"/>
<path id="Vector_98" d="M9.30198 4.73971C9.30201 4.74326 9.30128 4.74677 9.29983 4.75001C9.29838 4.75325 9.29625 4.75614 9.29358 4.75848C9.2909 4.76082 9.28776 4.76255 9.28435 4.76356C9.28095 4.76456 9.27737 4.76482 9.27385 4.76431C9.26733 4.76431 9.26107 4.76172 9.25645 4.75711C9.25184 4.75249 9.24924 4.74623 9.24924 4.73971C9.24924 4.73318 9.25184 4.72692 9.25645 4.7223C9.26107 4.71769 9.26733 4.7151 9.27385 4.7151C9.27737 4.71459 9.28095 4.71485 9.28435 4.71585C9.28776 4.71686 9.2909 4.71859 9.29358 4.72093C9.29625 4.72327 9.29838 4.72616 9.29983 4.7294C9.30128 4.73264 9.30201 4.73616 9.30198 4.73971ZM9.45315 4.75025C9.45315 4.75678 9.45056 4.76304 9.44594 4.76765C9.44133 4.77227 9.43507 4.77486 9.42854 4.77486C9.42503 4.77537 9.42144 4.77511 9.41804 4.7741C9.41464 4.7731 9.41149 4.77136 9.40882 4.76903C9.40615 4.76669 9.40401 4.7638 9.40256 4.76056C9.40111 4.75732 9.40038 4.7538 9.40042 4.75025C9.40038 4.7467 9.40111 4.74319 9.40256 4.73995C9.40401 4.73671 9.40615 4.73382 9.40882 4.73148C9.41149 4.72914 9.41464 4.72741 9.41804 4.7264C9.42144 4.72539 9.42503 4.72514 9.42854 4.72564C9.43507 4.72564 9.44133 4.72824 9.44594 4.73285C9.45056 4.73747 9.45315 4.74373 9.45315 4.75025ZM9.37581 4.81353C9.37583 4.818 9.37491 4.82243 9.37311 4.82651C9.3713 4.8306 9.36865 4.83426 9.36533 4.83725C9.36201 4.84024 9.35809 4.84249 9.35384 4.84386C9.34959 4.84522 9.34509 4.84567 9.34065 4.84517C9.33649 4.84474 9.33245 4.84348 9.32877 4.84147C9.3251 4.83946 9.32186 4.83674 9.31924 4.83347C9.31663 4.8302 9.31469 4.82644 9.31353 4.82242C9.31238 4.81839 9.31204 4.81418 9.31252 4.81002C9.31252 4.79596 9.32659 4.78189 9.34417 4.78189C9.36174 4.78189 9.37581 4.79596 9.37581 4.81353ZM9.44612 4.919C9.44618 4.92496 9.44408 4.93074 9.4402 4.93527C9.43632 4.9398 9.43093 4.94276 9.42503 4.94361C9.42151 4.94412 9.41793 4.94386 9.41452 4.94285C9.41112 4.94185 9.40797 4.94011 9.4053 4.93778C9.40263 4.93544 9.4005 4.93255 9.39905 4.92931C9.3976 4.92607 9.39686 4.92255 9.3969 4.919C9.39639 4.91549 9.39665 4.91191 9.39766 4.9085C9.39867 4.9051 9.4004 4.90195 9.40274 4.89928C9.40507 4.89661 9.40796 4.89447 9.4112 4.89302C9.41444 4.89157 9.41796 4.89084 9.42151 4.89088C9.42534 4.89028 9.42926 4.89059 9.43294 4.89179C9.43663 4.89299 9.43998 4.89505 9.44272 4.89779C9.44547 4.90053 9.44752 4.90388 9.44872 4.90757C9.44992 4.91125 9.45023 4.91517 9.44963 4.919H9.44612ZM9.30198 4.89791C9.30198 4.90444 9.29939 4.91069 9.29477 4.91531C9.29016 4.91993 9.2839 4.92252 9.27737 4.92252C9.27084 4.92252 9.26458 4.91993 9.25997 4.91531C9.25535 4.91069 9.25276 4.90444 9.25276 4.89791C9.25276 4.89138 9.25535 4.88512 9.25997 4.88051C9.26458 4.87589 9.27084 4.8733 9.27737 4.8733C9.2839 4.8733 9.29016 4.87589 9.29477 4.88051C9.29939 4.88512 9.30198 4.89138 9.30198 4.89791ZM8.56721 4.76783C8.56828 4.77106 8.56867 4.77448 8.56835 4.77786C8.56803 4.78125 8.56701 4.78453 8.56536 4.7875C8.56371 4.79048 8.56146 4.79308 8.55875 4.79514C8.55604 4.7972 8.55294 4.79867 8.54963 4.79947C8.54615 4.80053 8.54248 4.8008 8.53889 4.80027C8.53529 4.79974 8.53186 4.79842 8.52883 4.7964C8.5258 4.79438 8.52326 4.79172 8.52139 4.78861C8.51952 4.78549 8.51836 4.782 8.51799 4.77838C8.5175 4.77514 8.51765 4.77184 8.51845 4.76866C8.51925 4.76549 8.52067 4.7625 8.52263 4.75988C8.5246 4.75726 8.52706 4.75506 8.52989 4.75341C8.53271 4.75176 8.53584 4.75068 8.53909 4.75025C8.54512 4.74915 8.55135 4.75034 8.55656 4.75359C8.56176 4.75684 8.56556 4.76192 8.56721 4.76783ZM8.71838 4.73971C8.71944 4.74318 8.71971 4.74685 8.71918 4.75045C8.71865 4.75405 8.71733 4.75748 8.71531 4.76051C8.7133 4.76354 8.71063 4.76608 8.70752 4.76795C8.7044 4.76982 8.70091 4.77098 8.69729 4.77135C8.69125 4.77245 8.68503 4.77126 8.67982 4.76801C8.67462 4.76475 8.67082 4.75968 8.66917 4.75377C8.66747 4.75036 8.66659 4.7466 8.66659 4.74279C8.6666 4.73897 8.66749 4.73522 8.66919 4.73181C8.6709 4.7284 8.67337 4.72543 8.67641 4.72314C8.67946 4.72085 8.683 4.7193 8.68674 4.71861C8.69022 4.71755 8.69389 4.71728 8.69749 4.71781C8.70109 4.71834 8.70452 4.71967 8.70755 4.72168C8.71057 4.7237 8.71311 4.72636 8.71499 4.72948C8.71686 4.73259 8.71802 4.73609 8.71838 4.73971ZM8.6551 4.82057C8.65571 4.8279 8.654 4.83523 8.65021 4.84154C8.64643 4.84784 8.64076 4.8528 8.63401 4.85572C8.62609 4.85792 8.61762 4.85695 8.6104 4.85301C8.60318 4.84907 8.59778 4.84248 8.59534 4.83463C8.59498 4.82687 8.5972 4.81922 8.60166 4.81286C8.60611 4.8065 8.61254 4.80179 8.61995 4.79947C8.62736 4.79824 8.63496 4.79969 8.6414 4.80355C8.64784 4.80742 8.6527 4.81345 8.6551 4.82057ZM8.75002 4.90494C8.75109 4.90817 8.75148 4.91158 8.75116 4.91497C8.75084 4.91836 8.74982 4.92164 8.74817 4.92461C8.74652 4.92759 8.74427 4.93018 8.74156 4.93224C8.73886 4.9343 8.73575 4.93578 8.73245 4.93658C8.72922 4.93765 8.7258 4.93803 8.72242 4.93771C8.71903 4.9374 8.71575 4.93638 8.71277 4.93473C8.7098 4.93307 8.7072 4.93082 8.70514 4.92812C8.70308 4.92541 8.70161 4.92231 8.70081 4.919C8.69911 4.91559 8.69823 4.91183 8.69823 4.90802C8.69824 4.90421 8.69913 4.90045 8.70083 4.89704C8.70254 4.89363 8.70501 4.89067 8.70805 4.88838C8.7111 4.88609 8.71464 4.88454 8.71838 4.88385C8.72186 4.88279 8.72553 4.88252 8.72913 4.88305C8.73273 4.88358 8.73616 4.8849 8.73919 4.88692C8.74221 4.88893 8.74476 4.8916 8.74663 4.89471C8.7485 4.89783 8.74966 4.90132 8.75002 4.90494ZM8.60237 4.92252C8.60347 4.92855 8.60228 4.93478 8.59903 4.93999C8.59578 4.94519 8.5907 4.94899 8.58479 4.95064C8.58156 4.95171 8.57815 4.9521 8.57476 4.95178C8.57137 4.95146 8.56809 4.95044 8.56512 4.94879C8.56214 4.94714 8.55955 4.94489 8.55749 4.94218C8.55543 4.93947 8.55395 4.93637 8.55315 4.93307C8.55209 4.92959 8.55182 4.92592 8.55235 4.92232C8.55288 4.91872 8.5542 4.91529 8.55622 4.91226C8.55824 4.90923 8.5609 4.90669 8.56402 4.90482C8.56713 4.90295 8.57063 4.90179 8.57424 4.90142C8.57748 4.90093 8.58078 4.90108 8.58396 4.90188C8.58713 4.90268 8.59012 4.9041 8.59274 4.90606C8.59536 4.90803 8.59756 4.91049 8.59921 4.91332C8.60087 4.91615 8.60194 4.91927 8.60237 4.92252ZM7.92737 4.91549C7.92982 4.92205 7.92974 4.92928 7.92714 4.93579C7.92454 4.94229 7.91961 4.94759 7.91331 4.95064C7.91008 4.95171 7.90666 4.9521 7.90328 4.95178C7.89989 4.95146 7.89661 4.95044 7.89363 4.94879C7.89066 4.94714 7.88806 4.94489 7.886 4.94218C7.88394 4.93947 7.88247 4.93637 7.88167 4.93307C7.87921 4.92651 7.87929 4.91927 7.88189 4.91277C7.8845 4.90626 7.88943 4.90097 7.89573 4.89791C7.89914 4.89621 7.9029 4.89533 7.90671 4.89534C7.91052 4.89534 7.91428 4.89623 7.91769 4.89793C7.9211 4.89964 7.92406 4.90211 7.92635 4.90516C7.92864 4.9082 7.93019 4.91174 7.93088 4.91549H7.92737ZM8.07151 4.86627C8.07396 4.87283 8.07388 4.88007 8.07128 4.88657C8.06868 4.89307 8.06375 4.89837 8.05745 4.90142C8.05422 4.90249 8.0508 4.90288 8.04742 4.90256C8.04403 4.90224 8.04075 4.90122 8.03777 4.89957C8.0348 4.89792 8.0322 4.89567 8.03014 4.89296C8.02808 4.89026 8.02661 4.88715 8.02581 4.88385C8.02335 4.87729 8.02343 4.87005 8.02604 4.86355C8.02864 4.85705 8.03357 4.85175 8.03987 4.84869C8.04328 4.84699 8.04704 4.84611 8.05085 4.84612C8.05466 4.84612 8.05842 4.84701 8.06183 4.84872C8.06524 4.85042 8.0682 4.85289 8.07049 4.85594C8.07278 4.85898 8.07433 4.86252 8.07502 4.86627H8.07151ZM8.02229 4.95416C8.02487 4.96213 8.02451 4.97076 8.02129 4.9785C8.01807 4.98623 8.01219 4.99256 8.00471 4.99635C8.0008 4.99806 7.99658 4.99896 7.99231 4.999C7.98804 4.99903 7.98381 4.99821 7.97987 4.99656C7.97592 4.99492 7.97236 4.9925 7.96938 4.98944C7.9664 4.98638 7.96407 4.98275 7.96252 4.97877C7.96019 4.97037 7.96105 4.96141 7.96495 4.95361C7.96884 4.94582 7.9755 4.93975 7.98362 4.93658C7.9911 4.93419 7.9992 4.93467 8.00634 4.93792C8.01349 4.94116 8.01917 4.94695 8.02229 4.95416ZM8.12776 5.02447C8.13021 5.03103 8.13013 5.03827 8.12753 5.04477C8.12493 5.05127 8.12 5.05657 8.1137 5.05963C8.11028 5.06132 8.10652 5.0622 8.10271 5.0622C8.0989 5.0622 8.09515 5.06131 8.09174 5.0596C8.08833 5.0579 8.08536 5.05543 8.08307 5.05238C8.08078 5.04933 8.07923 5.0458 8.07854 5.04205C8.0763 5.03505 8.07688 5.02746 8.08017 5.02089C8.08345 5.01432 8.08918 5.0093 8.09612 5.00689C8.09935 5.00583 8.10276 5.00544 8.10615 5.00576C8.10954 5.00608 8.11282 5.0071 8.11579 5.00875C8.11876 5.0104 8.12136 5.01265 8.12342 5.01536C8.12548 5.01806 8.12696 5.02117 8.12776 5.02447ZM7.98362 5.05963C7.98607 5.06619 7.98599 5.07342 7.98339 5.07993C7.98079 5.08643 7.97586 5.09173 7.96956 5.09478C7.96638 5.09651 7.96286 5.09751 7.95925 5.09772C7.95564 5.09793 7.95203 5.09735 7.94868 5.096C7.94532 5.09466 7.9423 5.0926 7.93983 5.08995C7.93737 5.08731 7.93551 5.08416 7.9344 5.08072C7.93216 5.07373 7.93274 5.06613 7.93603 5.05956C7.93931 5.05299 7.94504 5.04797 7.95198 5.04556C7.95804 5.04327 7.96476 5.04346 7.97069 5.04609C7.97661 5.04872 7.98126 5.05359 7.98362 5.05963ZM9.9594 4.84166C9.957 4.8486 9.95197 4.85432 9.9454 4.85761C9.93883 4.86089 9.93124 4.86148 9.92424 4.85924C9.9173 4.85683 9.91158 4.85181 9.90829 4.84524C9.90501 4.83867 9.90442 4.83108 9.90667 4.82408C9.90907 4.81714 9.91409 4.81142 9.92066 4.80813C9.92723 4.80485 9.93483 4.80426 9.94182 4.8065C9.94876 4.80891 9.95449 4.81393 9.95777 4.8205C9.96106 4.82707 9.96164 4.83466 9.9594 4.84166ZM10.1141 4.89088C10.1124 4.89772 10.1082 4.90368 10.1024 4.90758C10.0965 4.91149 10.0894 4.91305 10.0824 4.91197C10.0787 4.91116 10.0751 4.90958 10.072 4.90734C10.0689 4.9051 10.0663 4.90225 10.0643 4.89896C10.0623 4.89566 10.061 4.892 10.0605 4.88819C10.06 4.88438 10.0603 4.88051 10.0614 4.87681C10.0638 4.86987 10.0688 4.86415 10.0754 4.86087C10.0819 4.85758 10.0895 4.857 10.0965 4.85924C10.1035 4.86164 10.1092 4.86667 10.1125 4.87323C10.1157 4.8798 10.1163 4.8874 10.1141 4.89439V4.89088ZM10.0192 4.93658C10.0167 4.94463 10.0115 4.95154 10.0044 4.95605C9.9973 4.96057 9.98882 4.96239 9.98049 4.96119C9.97583 4.96035 9.97139 4.95859 9.96743 4.95599C9.96347 4.9534 9.96007 4.95003 9.95745 4.94609C9.95482 4.94215 9.95301 4.93772 9.95214 4.93306C9.95127 4.92841 9.95135 4.92363 9.95237 4.919C9.95484 4.91023 9.96062 4.90277 9.96849 4.89818C9.97636 4.89359 9.98571 4.89223 9.99456 4.89439C10.0121 4.89791 10.0227 4.919 10.0192 4.93658ZM10.0719 5.06666C10.0711 5.07041 10.0695 5.07396 10.0673 5.07708C10.065 5.0802 10.0622 5.08283 10.0589 5.08481C10.0556 5.08679 10.0519 5.08807 10.0481 5.08857C10.0443 5.08908 10.0404 5.0888 10.0367 5.08775C10.0298 5.08535 10.0241 5.08032 10.0208 5.07375C10.0175 5.06718 10.0169 5.05959 10.0192 5.0526C10.0215 5.04641 10.026 5.04126 10.0318 5.03804C10.0376 5.03483 10.0443 5.03376 10.0508 5.03502C10.0546 5.03583 10.0581 5.03741 10.0612 5.03965C10.0644 5.04188 10.067 5.04474 10.069 5.04803C10.0709 5.05133 10.0722 5.05499 10.0727 5.0588C10.0732 5.06261 10.0729 5.06648 10.0719 5.07017V5.06666ZM9.92073 5.00689C9.91837 5.01308 9.9139 5.01823 9.90811 5.02145C9.90232 5.02466 9.89559 5.02573 9.88909 5.02447C9.88215 5.02207 9.87642 5.01704 9.87314 5.01047C9.86985 5.0039 9.86927 4.99631 9.87151 4.98931C9.87387 4.98313 9.87834 4.97797 9.88413 4.97476C9.88991 4.97154 9.89665 4.97047 9.90315 4.97174C9.91009 4.97414 9.91581 4.97916 9.9191 4.98573C9.92238 4.9923 9.92297 4.9999 9.92073 5.00689Z" fill="#F5D8BC"/>
<path id="Vector_99" d="M10.2654 3.33672C10.2654 3.33672 10.1951 3.40703 10.1072 3.40703C10.0483 3.40824 9.99091 3.38828 9.94548 3.35078C9.91735 3.32969 9.95251 3.27344 9.95251 3.27344" stroke="black" stroke-width="1.2"/>
<path id="Vector_100" d="M8.75059 3.48086C8.75059 3.48086 8.62051 3.45625 8.56426 3.43516C8.51152 3.41758 8.52559 3.37891 8.45879 3.38242C8.39902 3.38945 8.33574 3.43516 8.3498 3.50195C8.36387 3.57227 8.40957 3.5793 8.45527 3.56523C8.49746 3.55117 8.4834 3.47031 8.42715 3.47383C8.36738 3.48086 8.4166 3.53359 8.4166 3.53359M7.85059 3.37539C7.85059 3.37539 7.88574 3.43164 7.98066 3.42109C8.07559 3.41406 8.11074 3.35781 8.11426 3.33672C8.11777 3.31211 8.11426 3.26641 8.09668 3.24883C8.0791 3.23125 8.01582 3.2207 8.01582 3.2207" stroke="black" stroke-width="1.1"/>
<g id="Group_12">
<g id="Vector_101">
<path d="M9.67452 10.1403C9.76452 10.0503 9.89952 9.94832 9.97827 9.72632C10.0514 9.51632 10.0908 9.13832 10.1583 8.94632C10.2426 8.61632 10.417 8.29832 10.2145 8.31632C10.012 8.34032 9.94452 8.54432 9.87139 8.69432C9.83764 8.75432 9.75889 8.87432 9.74202 8.93432C9.74202 8.82632 9.68577 8.49032 9.67452 8.15432C9.66327 7.84231 9.67452 7.51831 9.66327 7.39831C9.65202 7.23631 9.65202 7.08631 9.61827 6.96631C9.60139 6.90631 9.52827 6.85831 9.48889 6.85831C9.40452 6.85831 9.35952 6.93631 9.34827 7.00831L9.33702 7.11031L9.33139 7.42231V7.75832L9.30327 8.19032C9.30327 8.11232 9.26952 7.75231 9.25827 7.41031C9.25363 7.28435 9.24988 7.15834 9.24702 7.03231L9.24139 6.75631C9.22452 6.62431 9.18514 6.57031 9.10077 6.57031C9.04452 6.57031 8.95452 6.61231 8.93202 6.75631C8.91713 6.8474 8.91148 6.93993 8.91514 7.03231L8.92077 7.33231C8.91514 7.72231 8.90952 8.14232 8.89264 8.26232C8.89264 8.22032 8.85327 8.01632 8.84764 7.74031C8.84244 7.62029 8.83681 7.50029 8.83077 7.38031L8.81952 7.02031C8.81952 6.96031 8.79702 6.78631 8.69014 6.79831C8.63389 6.79231 8.57202 6.83431 8.54952 6.99631C8.53264 7.08631 8.53264 7.24231 8.53264 7.36231C8.53264 7.59631 8.52139 7.79432 8.53264 7.99832V8.28632C8.53264 8.30432 8.50452 8.17832 8.48764 8.01032L8.45952 7.68632C8.45952 7.60231 8.45952 7.47631 8.44827 7.36831C8.44827 7.29031 8.44827 7.20031 8.36389 7.20631C8.27952 7.21231 8.22889 7.24231 8.21202 7.39831C8.20077 7.49431 8.19514 7.71031 8.19514 7.78832C8.1932 8.0536 8.17252 8.31835 8.13327 8.58032C8.12764 8.67632 8.08827 8.79632 8.07702 8.92832C8.05252 9.18668 8.06389 9.44749 8.11077 9.70232C8.17827 9.96632 8.35827 10.0863 8.34702 10.2663V10.9023C8.34702 11.0463 8.45952 11.0523 8.70139 10.9983C9.09514 10.9083 9.30889 11.0883 9.62952 10.9563C9.59014 10.5603 9.66889 10.3263 9.66889 10.1823L9.67452 10.1403ZM9.44952 9.21632C9.52827 8.97632 9.62952 8.88032 9.73077 8.83232Z" fill="#CC0000"/>
<path d="M9.44952 9.21632C9.52827 8.97632 9.62952 8.88032 9.73077 8.83232M9.67452 10.1403C9.76452 10.0503 9.89952 9.94832 9.97827 9.72632C10.0514 9.51632 10.0908 9.13832 10.1583 8.94632C10.2426 8.61632 10.417 8.29832 10.2145 8.31632C10.012 8.34032 9.94452 8.54432 9.87139 8.69432C9.83764 8.75432 9.75889 8.87432 9.74202 8.93432C9.74202 8.82632 9.68577 8.49032 9.67452 8.15432C9.66327 7.84231 9.67452 7.51831 9.66327 7.39831C9.65202 7.23631 9.65202 7.08631 9.61827 6.96631C9.60139 6.90631 9.52827 6.85831 9.48889 6.85831C9.40452 6.85831 9.35952 6.93631 9.34827 7.00831L9.33702 7.11031L9.33139 7.42231V7.75832L9.30327 8.19032C9.30327 8.11232 9.26952 7.75231 9.25827 7.41031C9.25363 7.28435 9.24988 7.15834 9.24702 7.03231L9.24139 6.75631C9.22452 6.62431 9.18514 6.57031 9.10077 6.57031C9.04452 6.57031 8.95452 6.61231 8.93202 6.75631C8.91713 6.8474 8.91148 6.93993 8.91514 7.03231L8.92077 7.33231C8.91514 7.72231 8.90952 8.14232 8.89264 8.26232C8.89264 8.22032 8.85327 8.01632 8.84764 7.74031C8.84244 7.62029 8.83681 7.50029 8.83077 7.38031L8.81952 7.02031C8.81952 6.96031 8.79702 6.78631 8.69014 6.79831C8.63389 6.79231 8.57202 6.83431 8.54952 6.99631C8.53264 7.08631 8.53264 7.24231 8.53264 7.36231C8.53264 7.59631 8.52139 7.79432 8.53264 7.99832V8.28632C8.53264 8.30432 8.50452 8.17832 8.48764 8.01032L8.45952 7.68632C8.45952 7.60231 8.45952 7.47631 8.44827 7.36831C8.44827 7.29031 8.44827 7.20031 8.36389 7.20631C8.27952 7.21231 8.22889 7.24231 8.21202 7.39831C8.20077 7.49431 8.19514 7.71031 8.19514 7.78832C8.1932 8.0536 8.17252 8.31835 8.13327 8.58032C8.12764 8.67632 8.08827 8.79632 8.07702 8.92832C8.05252 9.18668 8.06389 9.44749 8.11077 9.70232C8.17827 9.96632 8.35827 10.0863 8.34702 10.2663V10.9023C8.34702 11.0463 8.45952 11.0523 8.70139 10.9983C9.09514 10.9083 9.30889 11.0883 9.62952 10.9563C9.59014 10.5603 9.66889 10.3263 9.66889 10.1823L9.67452 10.1403Z" stroke="#161111" stroke-width="1.65247"/>
</g>
<path id="Vector_102" d="M8.55555 8.9702C8.6793 8.9162 8.80305 8.8802 8.9268 8.8322C9.0843 8.7902 9.23055 8.7242 9.38242 8.7002C9.46117 8.6822 9.5343 8.6642 9.60742 8.6582M8.3418 10.2362C8.35867 10.2242 8.37555 10.2482 8.39242 10.2482C8.41492 10.2542 8.43742 10.2662 8.45992 10.2602C8.50867 10.2592 8.55743 10.2592 8.60617 10.2602C8.66242 10.2602 8.70742 10.2602 8.75242 10.2242M9.1068 10.2422C9.12367 10.2602 9.14055 10.2722 9.16305 10.2782C9.19117 10.2902 9.2193 10.2962 9.4218 10.2782C9.53992 10.2842 9.6468 10.1762 9.68055 10.1402" stroke="#161111" stroke-width="1.65247"/>
</g>
</g>
<defs>
<clipPath id="clip0_186_8554">
<rect width="18" height="18" fill="white"/>
</clipPath>
</defs>
</svg>
