<svg width="18" height="18" viewBox="0 0 18 18" fill="none" xmlns="http://www.w3.org/2000/svg">
<g id="gb-wls" clip-path="url(#clip0_186_8675)">
<path id="Vector" d="M0 9H18V18H0V9Z" fill="#00AB39"/>
<path id="Vector_2" d="M0 0H18V9H0V0Z" fill="white"/>
<g id="Group">
<path id="Vector_3" d="M11.9352 3.98047C10.7593 4.61286 9.64786 5.35817 8.61641 6.20586C8.11367 6.64883 8.2543 7.00039 8.23672 7.39414C8.25078 7.66133 8.17695 7.90742 8.01523 8.05508L6.89023 8.28359L6.78477 7.97422C6.81992 7.81602 6.95 7.73516 7.22773 7.83359C7.24883 7.6332 7.08711 7.55234 6.89375 7.47852C6.82344 7.42578 6.74609 7.38711 6.75313 7.21133C6.72148 6.81055 7.36484 7.23945 7.36836 7.23945C7.37539 7.23945 7.34727 6.83516 7.05195 6.7543C6.89375 6.69805 6.82695 6.5293 6.88672 6.40273C7.01328 6.14609 7.25586 6.42383 7.44219 6.43438C7.43516 6.26563 7.38594 6.14609 7.2418 6.0125C7.16445 5.96328 6.97461 5.92813 6.97109 5.84727C6.96758 5.7418 7.14688 5.69258 7.4 5.72422C7.34727 5.56953 7.17852 5.47109 6.94648 5.40078L6.80937 5.16172C6.74609 5.04219 6.71445 5.03867 6.86562 4.81016L7.31563 4.51133L7.16797 4.49375C7.18555 4.33203 7.18906 4.27578 7.22773 4.00508C7.08008 4.20195 6.90078 4.1668 6.73555 4.25117C6.73555 4.25117 6.27148 4.33203 6.12383 4.53242L4.95312 4.46914C4.70703 4.5043 4.49609 4.57461 4.45039 4.81719C3.88789 4.87344 3.29023 4.82422 2.85781 5.36563C3.15313 5.35156 3.40977 5.28125 3.74023 5.32344C3.74023 5.32344 4.02148 5.33047 4.08125 5.6293C4.08828 5.63984 4.17617 5.63984 4.17617 5.63984L4.28164 5.72422L4.32734 5.6082L4.42227 5.67852L4.45039 5.55195L4.54531 5.61523L4.55234 5.46758L4.67891 5.55547V5.35859C4.67891 5.35859 5.13945 5.35859 5.28008 5.65391C5.28711 5.65742 3.98633 5.89297 2.72773 5.78398L3.08984 5.60469C2.63281 5.50977 2.20039 5.42891 1.79609 5.10898C1.95078 5.68555 2.73828 6.36055 2.9 6.35703L2.74531 6.07578L4.11289 6.13555C4.16211 6.28672 4.14102 6.45547 4.26055 6.58906C4.26055 6.58906 4.18672 6.83867 4.35195 6.94062C4.35898 6.95469 4.55234 6.43438 4.55234 6.43438C4.55234 6.43438 4.61211 6.575 4.67187 6.66641C4.75977 6.21992 5.24492 6.14609 5.24492 6.14609L5.35039 6.38516C5.1957 6.40977 5.00586 6.71914 5.10781 6.88789C5.00586 6.88789 4.82656 7.19023 4.88281 7.35195C4.79492 7.43633 4.58398 7.55234 4.63672 7.90742C4.46797 7.94258 4.36953 8.25195 4.42227 8.57539C4.16211 8.81797 4.22539 9.26094 4.45742 9.44023C4.3625 9.52813 4.30273 9.59141 4.30273 9.69687C4.21133 9.66172 4.12695 9.69336 4.08828 9.75312C3.97578 9.63711 3.81406 9.53516 3.70156 9.64414C3.66992 9.50703 3.49063 9.35938 3.30078 9.37695C3.31133 9.23281 3.2375 9.05703 3.03008 8.99375C3.03008 8.99375 2.99141 8.32227 2.78398 8.1043C2.76641 7.98125 2.79805 7.90039 2.9668 7.80195C3.13203 7.71055 3.1707 7.64023 3.15664 7.38711C3.22344 7.21836 3.27266 7.04609 3.06875 6.93008C3.07227 7.13047 3.0125 7.22891 2.92813 7.3168C2.8332 7.30273 2.79805 7.41523 2.73477 7.46797C2.63984 7.34141 2.92812 7.15156 2.71367 6.87383C2.70312 6.86328 2.56602 6.51523 2.23203 6.52227C2.30319 6.56412 2.36168 6.62446 2.40129 6.69688C2.44091 6.7693 2.46017 6.8511 2.45703 6.93359C2.33342 7.20799 2.31466 7.51817 2.4043 7.80547C2.26367 7.59453 2.18633 7.20078 2.07031 7.13047C1.96836 7.11289 1.91914 6.87383 1.52891 6.94062C1.69766 6.98633 1.75039 7.11641 1.79609 7.23242C1.69062 7.28867 1.74336 7.4293 1.8207 7.52422C1.80664 7.75625 1.94375 7.88984 2.14766 7.97422L2.0457 8.90937C1.96484 8.89883 1.83828 9.21875 1.78906 9.22578C1.71172 9.275 1.57109 9.40859 1.7293 9.44727C1.68359 9.61953 1.63789 9.72148 1.38477 9.75664C1.38477 9.75664 1.65547 9.91836 1.87695 9.64414C2.11602 9.63711 2.03867 9.35234 2.15469 9.22578C2.15469 9.22227 2.21797 9.18008 2.31641 8.92695C2.35859 9.15195 2.58711 9.84102 3.10742 10.182C3.56445 10.6672 3.93711 11.1277 3.93359 11.7746C4.10938 11.6094 4.21484 11.3492 4.2957 11.0996C4.5418 11.0152 4.89336 10.9836 5.20977 10.9941C5.15703 11.1102 5.09727 11.2191 5.17461 11.293C4.95312 11.3668 4.90742 11.525 4.99531 11.6867C4.76328 11.8414 4.74922 11.9434 4.7457 12.2035C4.3168 12.752 4.05312 12.7344 3.62773 12.5902C3.48711 12.5094 3.27617 12.3934 3.17422 12.4566C2.99141 12.3336 2.72773 12.316 2.68203 12.5938C2.82266 12.4777 2.90352 12.5023 3.0125 12.6113C2.99141 12.6676 2.97383 12.7203 3.05469 12.752L2.94922 12.8715C2.75234 12.8434 2.48516 12.8434 2.41836 13.1281C2.5168 13.0473 2.7418 13.0227 2.92461 13.107L3.02656 13.1422L3.03711 13.2793C3.03711 13.2793 2.76992 13.2371 2.69609 13.673C2.94922 13.4059 3.12852 13.4762 3.12852 13.4762C3.22344 13.6168 3.58203 13.5957 3.83867 13.3637C4.19727 13.1598 4.30273 13.4516 4.53477 13.2582C4.72812 13.1176 4.95664 13.2125 5.11484 13.3813C5.29414 13.448 5.48398 13.5043 5.63516 13.3813C5.63516 13.3813 5.81445 13.2652 5.99727 13.4516C5.99727 13.2406 5.84961 13.1281 5.6457 13.1246L5.58594 13.0648C5.39609 13.0227 5.18164 13.0402 5.01289 12.9453C5.07849 12.6456 5.22291 12.3689 5.43125 12.1437C5.70547 11.8484 5.90938 11.7148 6.26094 11.2578C6.24688 11.5145 6.44375 11.7992 6.5457 12.0629C6.5457 12.0629 6.75664 11.7289 6.78477 11.4582C6.7918 11.4582 7.04492 11.3246 7.15391 11.2121C7.38594 11.3527 7.75859 11.0996 8.00117 10.8852C8.1413 10.94 8.29698 10.94 8.43711 10.8852C8.29648 11.1664 8.51797 11.4301 8.86953 11.5426C8.90117 11.7922 9.15078 11.8449 9.5375 11.8449C9.55156 11.9926 9.78359 12.0137 9.78359 12.0137C9.63594 12.084 9.56211 12.1473 9.56563 12.302C9.41797 12.302 9.30547 12.3371 9.2668 12.5094C9.0653 12.4993 8.86453 12.5405 8.6832 12.6289C8.47366 12.6036 8.27712 12.514 8.1207 12.3723C8.04688 12.309 8.02578 12.2176 7.8957 12.1824C7.81133 12.0805 7.71289 12.1051 7.68125 12.2C7.59336 12.1297 7.26992 12.098 7.21367 12.4074C7.36484 12.2949 7.50195 12.2527 7.60039 12.3898C7.54414 12.4848 7.72344 12.5375 7.87813 12.5762C7.98359 12.5832 8.18047 12.6816 8.24023 12.8504C8.15721 12.8732 8.07025 12.8777 7.9853 12.8638C7.90035 12.8498 7.81942 12.8177 7.74805 12.7695C7.6945 12.7248 7.62789 12.6985 7.55819 12.6947C7.48849 12.6909 7.41943 12.7098 7.36133 12.7484C7.22773 12.6641 6.92188 12.8188 6.91133 13.0684C7.03789 12.9488 7.15742 12.8926 7.27344 12.9699C7.21719 12.984 7.23828 12.9875 7.24531 13.0227L7.54414 13.1949C7.39648 13.2336 7.25937 13.2934 7.32266 13.5641C7.32266 13.5641 7.44219 13.3285 7.70937 13.4164C7.71641 13.4094 7.74453 13.5008 7.82188 13.441C7.93789 13.3074 8.20859 13.2477 8.43711 13.2266C8.62695 13.202 8.81328 13.1492 8.975 13.2547C9.11914 13.1809 9.28086 13.1281 9.44609 13.2477C9.64297 13.3109 9.78359 13.5359 10.0332 13.434C10.1562 13.3496 10.3074 13.3426 10.4621 13.5184C10.4621 13.3004 10.3004 13.2266 10.0684 13.1773L9.90664 13.0824C9.75898 13.0578 9.60781 13.0859 9.45664 13.0156C9.81204 12.9307 10.1469 12.7756 10.4415 12.5595C10.7361 12.3434 10.9846 12.0705 11.1723 11.757L11.5414 11.8871C11.6293 11.8941 11.6363 11.9223 11.8156 11.9785C11.8227 11.7113 11.7102 11.4371 11.232 11.4125L10.6027 11.1734C10.4727 11.0328 10.4094 10.734 10.5816 10.5582C10.7469 10.4105 10.775 10.4281 10.884 10.2488C11.0176 10.2348 11.1441 10.3719 11.2672 10.3719C11.327 10.5477 11.6609 10.6988 11.8754 10.6461C12.009 10.7656 12.2621 10.8324 12.5434 10.7375C12.7016 10.8781 12.909 10.9344 13.1516 10.8254C13.2184 10.8887 13.352 10.9414 13.5102 10.9098C13.5242 10.9098 13.591 11.082 13.7633 11.1418C13.6859 11.2121 13.7316 11.5285 13.809 11.6445C13.7562 11.7641 13.7387 11.8906 13.7844 12.0207C13.6121 12.1297 13.577 12.2141 13.6543 12.4004C13.4293 12.766 13.1586 12.8047 12.902 12.6922L12.6277 12.5199L12.3359 12.2352C12.2867 12.1859 12.1848 12.1719 12.1602 12.2773C12.1602 12.2773 11.7875 12.193 11.7559 12.5094C11.9105 12.3582 12.132 12.4918 12.132 12.4953C12.132 12.5023 12.0793 12.5375 12.1215 12.6008C12.1285 12.5902 12.3957 12.6992 12.6312 12.7977C12.5278 12.7512 12.4173 12.7227 12.3043 12.7133C12.1707 12.6992 12.0301 12.6816 11.9668 12.7836C11.8227 12.8434 11.5977 12.8926 11.6082 13.1598C11.7031 13.0016 11.8367 13.0086 12.0055 13.0191C12.0055 13.0332 11.9984 13.0473 11.9949 13.0578C12.1777 13.1422 12.1461 13.0332 12.3148 13.0191C12.459 13.0051 12.6664 13.0578 12.7719 13.093C12.6348 13.1316 12.452 13.1176 12.3641 13.2125C12.35 13.2477 12.2938 13.2301 12.3184 13.3074C12.3184 13.3074 12.0547 13.3004 11.9844 13.666C12.2516 13.4937 12.4555 13.5008 12.459 13.5008L12.5434 13.5184C12.5434 13.5184 12.8668 13.3004 12.8738 13.3004C12.8773 13.3004 13.1832 13.1668 13.3273 13.3215C13.4469 13.3813 13.5805 13.3848 13.707 13.3074C13.9602 13.202 14.1922 13.1914 14.4242 13.3426L14.6352 13.4691L14.723 13.4094C14.723 13.4094 14.9586 13.3426 15.1309 13.55C15.0605 13.1879 14.8004 13.1773 14.8004 13.1773L14.7406 13.1246L14.3715 12.9805C14.3152 12.8469 14.1816 12.7414 14.3152 12.5797C14.4559 11.8941 14.6176 11.3844 14.3504 10.6883C14.6 10.7938 14.7863 11.1277 15.0992 11.0117C15.0992 10.7305 14.0727 10.2031 13.2887 9.78125C14.5719 9.71094 16.1152 8.76523 15.5211 7.56289L15.8023 6.69102C15.9406 6.94809 16.1682 7.14567 16.4422 7.24648C16.2453 6.8668 16.1293 5.71367 16.2453 4.91914C15.7203 5.54877 15.1542 6.14303 14.5508 6.69805C14.8461 6.76836 15.1098 6.71914 15.3945 6.68398L15.1555 7.18672C14.3645 6.72266 13.4398 7.0707 13.4328 7.68594C13.4609 8.40664 14.3469 8.50859 14.8602 8.25898C14.7582 8.91289 13.2535 8.67031 13.2535 8.67031C12.7191 8.4875 12.2094 8.51914 11.6504 8.52266C11.7664 8.16406 12.4133 7.84414 12.909 7.98477C12.2164 7.21133 13.0074 6.24805 13.9566 5.94922C12.9195 5.6082 13.816 4.81719 14.5895 4.25117C14.5895 4.25117 12.357 5.18984 12.1531 5.18633C11.5203 5.14063 11.6926 4.38828 11.9316 3.98398L11.9352 3.98047ZM4.92148 4.8875C4.97422 4.8875 5.03398 4.89453 5.0832 4.90508C5.18516 4.92969 5.3082 4.94375 5.30469 4.97539C5.25898 5.05273 5.14297 5.14766 5.03047 5.14062C4.91797 5.13711 4.85469 5.07031 4.81602 4.89805C4.82656 4.89102 4.86875 4.8875 4.92148 4.8875ZM14.3258 7.53828C14.4699 7.53828 14.6457 7.59805 14.818 7.78086C14.7336 8.01641 14.0199 8.13945 13.9742 7.78789C13.9602 7.68242 14.1113 7.5418 14.3258 7.5418V7.53828Z" fill="#D21034" stroke="black" stroke-width="1.2"/>
<path id="Vector_4" d="M5.66016 6.95859L5.76562 7.1168M5.76562 7.12031C5.76562 7.12031 5.76562 7.33125 5.80781 7.33828M5.70937 7.45078L5.82188 7.63711M5.5125 7.68633L5.65313 7.84102M5.76562 7.72148C5.76562 7.72852 5.89219 7.96406 5.90273 7.96406M5.60039 7.8832C5.60039 7.8832 5.64609 8.17148 5.68477 8.16094M5.41406 8.40703L5.54063 8.60039M5.64961 8.20664C5.64961 8.20664 5.71992 8.47734 5.77266 8.45273M5.82891 8.04141C5.83242 8.04844 5.95547 8.22422 5.99062 8.19961M5.9625 8.26992L6.07852 8.50547M5.76211 8.45273C5.76914 8.45977 5.86055 8.73398 5.86055 8.73398M5.53711 8.59336C5.53711 8.59336 5.625 8.8957 5.70586 8.84648M5.50195 8.99414C5.50195 8.99414 5.50898 9.15234 5.58633 9.15937M5.63906 8.91328C5.63906 8.92031 5.71992 9.0293 5.71992 9.0293M5.86406 8.72695L5.93086 8.83242M6.07148 8.53711L6.17344 8.66016M5.61797 7.12383C5.62148 7.25742 5.83242 7.07461 5.9168 6.96211M5.53008 7.58437C5.53008 7.58437 5.75859 7.42266 5.93789 7.17656M5.44922 7.97461C5.61094 7.92891 5.90977 7.5668 5.96953 7.37695M5.41758 8.3332C5.46328 8.3543 6.02227 7.95 6.03633 7.65469M5.40352 8.64258C5.40352 8.63906 5.91328 8.5125 6.12773 7.95M5.37539 9.07148C5.37539 9.07148 6.19102 8.58281 6.23672 8.22422M11.7422 9.89062C11.7422 9.89062 11.6895 10.3125 11.2676 10.3758M11.8758 10.643C11.8828 10.6395 12.2801 10.2 12.1781 10.0664M12.8039 10.2211C12.8039 10.2211 12.7969 10.527 12.5473 10.7379M13.2996 10.309C13.2996 10.309 13.3102 10.6781 13.152 10.8258M13.7566 10.5305C13.7566 10.5305 13.5809 10.875 13.5176 10.9102M13.7496 11.1422C13.7496 11.1422 13.9816 11.202 14.0555 11.0473M13.8094 11.6449C13.8094 11.6449 14.0273 11.6836 14.1258 11.4762M13.7883 12.0316C13.7883 12.0316 13.9641 12.1793 14.0801 11.9859M11.2922 9.1875C11.2922 9.1875 11.2711 9.93633 12.3258 10.0875C13.5035 10.4145 14.059 10.2422 14.1293 11.5605C14.0836 12.0633 14.0238 12.6293 13.6582 12.4148M10.1742 9.87656C10.1742 9.87656 10.3395 10.1754 10.5434 10.1578C10.807 10.077 10.9055 10.2422 10.9055 10.2422M9.45352 10.1754C9.45352 10.1754 9.89648 10.3934 10.2762 10.0418M9.50273 9.86602C9.54141 10.3828 8.90508 10.6781 8.65547 10.6289M9.53438 11.8488C9.53789 11.8488 9.87891 11.6449 9.80859 11.5008M8.85938 11.5465C8.86641 11.5359 9.42891 11.4832 9.53086 11.2793M8.5957 10.7168C8.5957 10.7133 9.39375 10.7203 9.44648 10.868M9.65742 10.2457C9.65742 10.2457 8.87695 11.5746 10.3148 11.5746M8.83125 10.2246C8.83125 10.2246 8.66602 10.7238 8.42695 10.8926M8.00508 10.0523C8.00508 10.0523 8.29336 10.6148 8.00508 10.8891M7.25273 10.2105C7.25625 10.2211 7.34414 11.0051 7.14727 11.2266M6.87656 10.2352C6.87656 10.2352 6.9082 10.7344 6.76055 10.9102C6.61289 11.0859 6.7957 11.4551 6.7957 11.4551M4.99922 11.6941C4.99922 11.6941 5.10469 11.8805 5.25234 11.8172M5.17852 11.2898C5.17852 11.2898 5.41406 11.3953 5.49492 11.3531M5.43516 10.4531C5.43516 10.4531 5.08359 10.5516 5.21719 10.9629C5.41758 11.1281 5.61797 11.1035 5.61797 11.1035M4.74609 12.2109C4.73906 12.2109 4.78125 12.5344 5.00977 12.2883C5.16797 11.9578 5.66719 11.0297 5.77969 10.7062M6.01172 10.5551C6.01172 10.5551 5.76914 10.3687 5.77969 10.6289C5.77266 10.7906 5.85 10.8328 5.85 10.8328C5.86406 10.9488 5.96602 11.1141 6.05039 10.9629C6.08555 10.8187 6.02578 10.752 6.02578 10.752M6.16641 10.4883C5.94492 10.4707 5.82891 10.9488 6.24727 10.65M6.38789 10.323C6.38789 10.323 6.33516 10.3969 6.25078 10.3195C6.20859 10.2422 6.05039 10.6711 6.32461 10.6887C6.37383 10.5621 6.52852 10.527 6.52852 10.527M6.65508 10.1191C6.65508 10.1191 6.53203 10.1754 6.48984 10.1684C6.34219 10.2035 6.37031 10.5445 6.56016 10.527C6.61992 10.4531 6.69023 10.3512 6.69023 10.3512M5.49492 9.66562C5.48789 9.66562 5.00273 10.4285 5.76562 10.6289M11.6367 8.51953C11.6367 8.51953 11.3414 8.77266 11.6156 9.17695C10.7016 9.16289 10.2094 9.58477 10.1672 9.86953C9 9.78867 9.21094 10.1332 8.83125 10.2457C8.325 9.82383 7.57969 10.0594 7.62891 10.4813C7.29141 10.0031 6.76758 10.2352 6.7043 10.3547C6.64102 10.4707 6.66563 9.76758 6.66563 9.76758C6.66563 9.76758 6.32461 9.91875 6.08906 10.2V9.60937C5.80781 9.66562 5.53008 9.66914 5.23828 9.66562M4.46836 9.44766C4.46836 9.44766 4.89023 9.6832 5.41758 9.36328M4.4332 8.59336C4.4332 8.59336 4.76367 8.89219 5.38242 8.79727M4.64062 7.91133C4.64062 7.91133 4.71445 8.15391 5.42461 8.16797M4.87969 7.35234C4.87969 7.35234 5.14687 7.6793 5.50898 7.63359M5.1082 6.88477C5.1082 6.88477 5.21367 7.06406 5.60742 7.0957M5.34023 6.36797C5.34023 6.36797 5.54766 6.59648 5.7832 6.55781M6.5707 4.5293C6.5707 4.5293 6.66211 4.43789 6.8168 4.48359M6.50391 5.01094C6.50391 5.01094 6.22266 5.00039 6.24023 4.88789C6.26133 4.76133 6.53906 4.66992 6.53906 4.66992C6.53906 4.66992 6.91172 4.43086 6.96797 4.35M5.2875 5.65078L5.64961 6.34336L5.82539 6.0832L5.91328 6.2625L6.06094 6.00234L6.31758 6.16758L6.21914 5.85117L6.43359 5.83711C6.43359 5.83711 6.37734 5.68242 6.18398 5.65078C6.25882 5.59727 6.33502 5.54569 6.4125 5.49609C6.4125 5.49609 6.31055 5.37656 6.15234 5.37305C6.20508 5.3168 6.27539 5.17969 6.27187 5.17969L6.11367 5.14453C6.11367 5.14453 6.47578 5.26055 6.75352 5.09883M6.06094 4.53633C6.06797 4.54336 6.04336 4.68047 5.96602 4.76133M4.66523 4.91953C4.66523 4.91953 4.89023 4.85977 5.05898 4.89141C5.22422 4.92656 5.4457 4.98633 5.4457 4.98633C5.4457 4.98633 5.71289 4.95117 5.79727 4.88789M4.11328 5.06719C4.11328 5.06719 4.08164 5.17266 4.07109 5.24297C4.07109 5.2957 3.90937 5.3625 3.90937 5.3625M4.21875 4.85273C4.21875 4.85273 4.35937 5.02852 4.36641 5.13398C4.36992 5.23594 4.26094 5.30977 4.26094 5.30977M2.74922 6.06914L2.60156 5.83008L2.73164 5.78437M5.41406 9.37031C5.29453 9.21562 5.50195 6.87422 5.94141 6.25898C5.78672 7.36289 6.29297 8.49141 6.42305 8.48789M4.08164 5.60508C4.08164 5.60508 4.27852 5.68242 4.69336 5.35547M5.25586 6.14648L5.55117 6.15M14.4598 4.30781C14.4598 4.30781 9.51328 6.62109 9.44297 6.74062C10.2762 6.49102 13.8164 5.89687 13.9043 5.94961C13.6934 6.00234 9.39727 6.98672 9.19688 7.22578C10.2691 7.19062 12.5156 7.57031 12.8672 7.93594C12.1043 7.76367 9.82266 7.42617 9.12656 7.57734C9.63633 7.70039 11.5945 8.96602 11.5945 9.16992C11.2992 8.88867 8.94375 7.91484 8.85234 8.00977C9.39023 8.3332 10.1531 9.53555 10.1531 9.83086C9.99492 9.57773 8.63437 8.11523 8.55703 8.21367C8.69766 8.41055 8.98594 10.1367 8.83828 10.2176C8.83828 10.0066 8.31094 8.49844 8.26875 8.45625C8.16328 8.48437 7.48828 10.2984 7.62188 10.4672C7.53398 9.8625 7.63594 8.60039 7.79766 8.64961C7.50586 8.6918 6.56367 9.93281 6.66563 10.1262C6.69375 9.82031 6.73594 9.61289 7.2668 8.58633C6.67617 8.62148 5.45273 9.39141 5.24531 9.66562C5.41055 9.17344 6.44766 8.34727 6.89766 8.29102M9.03516 6.4875C9.55898 6.19922 11.1727 5.60859 12.252 5.17266M8.01562 8.04844C8.01562 8.04844 8.36719 8.04492 8.72578 7.07812C9.07734 5.75273 11.8617 4.27969 11.918 4.00195M3.30469 9.38086C3.30469 9.38086 3.22031 9.55664 3.11836 9.60586M3.70195 9.64805C3.70195 9.64805 3.58945 9.85898 3.56484 9.96445M4.08164 9.75352C4.08164 9.75352 4.17656 10.0453 4.09922 10.1824M3.02344 8.99062C2.74219 9.14883 3.18164 10.1473 4.51055 10.2422M4.29961 9.7043C4.29961 9.7043 4.26094 9.88008 4.51055 10.2387C4.44023 10.6359 4.81289 10.9453 4.96055 10.998M4.18711 6.12539L4.2293 6.01992L4.275 6.13594H4.34531L4.39453 6.01641L4.43672 6.13594H4.50703L4.55273 6.00234L4.62305 6.12891H4.6793L4.725 5.97773L4.81641 6.08672L4.85156 6.07266L4.87969 5.92148L4.97109 6.02695L4.99922 6.01289L5.04141 5.86523L5.11875 5.97422L5.15391 5.96367L5.18906 5.83711L5.26289 5.95312M4.10625 6.13945L4.66172 6.12891C4.8375 6.12891 5.1293 5.88281 5.45625 5.96016M2.93555 7.32773C2.93555 7.32773 3.02695 7.52461 3.15703 7.41211M2.72461 7.45781C2.72461 7.45781 2.54531 7.93945 2.75977 8.04844M2.46797 6.93047C2.46797 6.93047 2.46797 7.04297 2.70352 6.86719M1.74023 9.44414C1.74023 9.44414 1.93008 9.50039 1.89844 9.64453M1.81055 7.24336C1.81055 7.24336 1.93008 7.30312 2.04258 7.12734M3.05508 12.7523C3.23789 12.7418 3.27656 12.8227 3.4418 12.8227C3.63516 12.8297 3.82148 12.7523 4.06758 12.6855M5.63906 13.1285C5.63555 13.1285 5.55117 13.3043 5.625 13.3887M3.02695 13.1426C3.02695 13.1426 3.31875 12.907 3.46992 13.0547C3.61758 13.1039 3.69844 13.0934 3.69844 13.0934M3.18164 12.4605C3.18164 12.4605 3.25195 12.6469 3.01289 12.6223M2.94258 12.8859C2.94258 12.8859 3.09375 12.9809 2.92148 13.1074M3.03398 13.2832C3.03398 13.2832 3.24492 13.3113 3.12188 13.4801M9.57305 12.2953C9.78398 12.4676 9.69609 12.5695 10.3605 12.1195M9.2707 12.5063C9.2707 12.5063 9.58359 12.8438 9.80859 12.4359M8.67305 12.6293L8.25117 12.8508M7.48828 13.1637C7.48828 13.1637 7.74492 12.9422 7.86445 13.0582C7.9875 13.1777 8.49727 12.9598 8.49727 12.9598M7.68164 12.2004C7.68164 12.2004 7.76953 12.3762 7.59727 12.3973M7.34414 12.7488C7.34414 12.7488 7.43555 12.9141 7.25977 12.9598M7.54102 13.1988C7.54102 13.1988 7.81172 13.2129 7.7168 13.4133M10.0406 13.1637C10.0406 13.1637 9.89297 13.2867 10.0055 13.4273M12.1676 12.2742C12.1676 12.2742 12.3363 12.3551 12.1324 12.4957M11.9672 12.7875C11.9672 12.7875 12.0938 12.9211 12.0094 13.0336M12.3223 13.3008C12.3223 13.3008 12.498 13.35 12.477 13.4941M14.7832 13.1707C14.7832 13.1707 14.6355 13.2762 14.7129 13.4168M12.1781 8.8957C12.5297 8.85352 13.0324 9.63398 13.2891 9.78867M14.8289 7.78828C14.8289 7.78828 15.0047 7.94297 14.85 8.31914M15.1594 7.19062C15.2086 7.2293 15.402 7.33125 15.5285 7.5668M15.648 6.01992L15.402 6.68789M15.9258 5.98477C15.9258 5.98477 15.8766 6.58242 15.8063 6.70195M9.77344 12.0141C9.77344 12.0141 10.3395 12.0738 10.3676 12.116C10.4309 12.0457 10.9371 11.6379 10.3148 11.5781C10.2859 11.7006 10.217 11.81 10.1189 11.889C10.0209 11.9679 9.89931 12.012 9.77344 12.0141ZM14.8219 7.78125C14.741 8.02031 14.0238 8.13984 13.9781 7.78828C13.9535 7.6125 14.4 7.33125 14.8219 7.78125Z" stroke="black" stroke-width="1.2" stroke-linejoin="round"/>
<path id="Vector_5" d="M4.91406 4.88672L5.1918 4.93594C5.1918 4.93594 4.99844 5.19609 4.91406 4.88672Z" fill="black" stroke="black" stroke-width="1.2" stroke-linejoin="round"/>
</g>
</g>
<defs>
<clipPath id="clip0_186_8675">
<rect width="18" height="18" fill="white"/>
</clipPath>
</defs>
</svg>
