<svg width="18" height="18" viewBox="0 0 18 18" fill="none" xmlns="http://www.w3.org/2000/svg">
<g id="gd" clip-path="url(#clip0_186_8684)">
<path id="Vector" d="M0 0H18V18H0V0Z" fill="#CE1126"/>
<path id="Vector_2" d="M2.52051 2.52148H15.4791V15.4801H2.52051V2.52148Z" fill="#007A5E"/>
<path id="Vector_3" d="M2.52051 2.52148H15.4791L2.52051 15.4836H15.4791L2.52051 2.52148Z" fill="#FCD116"/>
<path id="Vector_4" d="M8.99648 11.1629C10.1886 11.1629 11.1551 10.1965 11.1551 9.0043C11.1551 7.81214 10.1886 6.8457 8.99648 6.8457C7.80433 6.8457 6.83789 7.81214 6.83789 9.0043C6.83789 10.1965 7.80433 11.1629 8.99648 11.1629Z" fill="#CE1126"/>
<g id="gd-c">
<g id="gd-b">
<path id="gd-a" d="M9 7.01953L8.38815 8.90262L9.32969 9.20855" fill="#FCD116"/>
<path id="Vector_5" d="M9 7.01953L9.61185 8.90262L8.67031 9.20855" fill="#FCD116"/>
</g>
<g id="gd-b_2">
<path id="gd-a_2" d="M10.8838 8.38672H8.90379V9.37672" fill="#FCD116"/>
<path id="Vector_6" d="M10.8838 8.38672L9.28194 9.55053L8.70003 8.74961" fill="#FCD116"/>
</g>
<g id="gd-b_3">
<path id="gd-a_3" d="M10.1641 10.6016L9.55221 8.71847L8.61066 9.0244" fill="#FCD116"/>
<path id="Vector_7" d="M10.1641 10.6016L8.56221 9.43775L9.14412 8.63682" fill="#FCD116"/>
</g>
<g id="gd-b_4">
<path id="gd-a_4" d="M7.83594 10.6016L9.43779 9.43775L8.85588 8.63682" fill="#FCD116"/>
<path id="Vector_8" d="M7.83594 10.6016L8.44779 8.71847L9.38934 9.0244" fill="#FCD116"/>
</g>
<g id="gd-b_5">
<path id="gd-a_5" d="M7.11719 8.38867L8.71904 9.55249L9.30095 8.75156" fill="#FCD116"/>
<path id="Vector_9" d="M7.11719 8.38867H9.09719V9.37867" fill="#FCD116"/>
</g>
</g>
<g id="gd-d">
<g id="gd-b_6">
<path id="gd-a_6" d="M4.9082 0.0878906L4.54665 1.20063L5.10302 1.3814" fill="#FCD116"/>
<path id="Vector_10" d="M4.9082 0.0878906L5.26975 1.20063L4.71338 1.3814" fill="#FCD116"/>
</g>
<g id="gd-b_7">
<path id="gd-a_7" d="M6.02051 0.896484H4.85051V1.48148" fill="#FCD116"/>
<path id="Vector_11" d="M6.02051 0.896484L5.07396 1.58419L4.7301 1.11092" fill="#FCD116"/>
</g>
<g id="gd-b_8">
<path id="gd-a_8" d="M5.5957 2.20312L5.23415 1.09039L4.67779 1.27116" fill="#FCD116"/>
<path id="Vector_12" d="M5.5957 2.20312L4.64915 1.51542L4.99301 1.04214" fill="#FCD116"/>
</g>
<g id="gd-b_9">
<path id="gd-a_9" d="M4.21973 2.20508L5.16628 1.51737L4.82242 1.04409" fill="#FCD116"/>
<path id="Vector_13" d="M4.21973 2.20508L4.58128 1.09234L5.13764 1.27312" fill="#FCD116"/>
</g>
<g id="gd-b_10">
<path id="gd-a_10" d="M3.79492 0.896484L4.74147 1.58419L5.08533 1.11092" fill="#FCD116"/>
<path id="Vector_14" d="M3.79492 0.896484H4.96492V1.48148" fill="#FCD116"/>
</g>
</g>
<g id="gd-d_2">
<g id="gd-b_11">
<path id="gd-a_11" d="M9.00098 0.0917969L8.63943 1.20453L9.19579 1.38531" fill="#FCD116"/>
<path id="Vector_15" d="M9.00098 0.0917969L9.36253 1.20453L8.80616 1.38531" fill="#FCD116"/>
</g>
<g id="gd-b_12">
<path id="gd-a_12" d="M10.1133 0.900391H8.94328V1.48539" fill="#FCD116"/>
<path id="Vector_16" d="M10.1133 0.900391L9.16673 1.5881L8.82288 1.11482" fill="#FCD116"/>
</g>
<g id="gd-b_13">
<path id="gd-a_13" d="M9.68848 2.20703L9.32693 1.0943L8.77056 1.27507" fill="#FCD116"/>
<path id="Vector_17" d="M9.68848 2.20703L8.74193 1.51932L9.08578 1.04605" fill="#FCD116"/>
</g>
<g id="gd-b_14">
<path id="gd-a_14" d="M8.3125 2.20898L9.25905 1.52128L8.9152 1.048" fill="#FCD116"/>
<path id="Vector_18" d="M8.3125 2.20898L8.67405 1.09625L9.23042 1.27702" fill="#FCD116"/>
</g>
<g id="gd-b_15">
<path id="gd-a_15" d="M7.8877 0.900391L8.83425 1.5881L9.1781 1.11482" fill="#FCD116"/>
<path id="Vector_19" d="M7.8877 0.900391H9.0577V1.48539" fill="#FCD116"/>
</g>
</g>
<g id="gd-d_3">
<g id="gd-b_16">
<path id="gd-a_16" d="M13.0928 0.0917969L12.7312 1.20453L13.2876 1.38531" fill="#FCD116"/>
<path id="Vector_20" d="M13.0928 0.0917969L13.4543 1.20453L12.898 1.38531" fill="#FCD116"/>
</g>
<g id="gd-b_17">
<path id="gd-a_17" d="M14.2051 0.900391H13.0351V1.48539" fill="#FCD116"/>
<path id="Vector_21" d="M14.2051 0.900391L13.2585 1.5881L12.9147 1.11482" fill="#FCD116"/>
</g>
<g id="gd-b_18">
<path id="gd-a_18" d="M13.7803 2.20703L13.4187 1.0943L12.8624 1.27507" fill="#FCD116"/>
<path id="Vector_22" d="M13.7803 2.20703L12.8337 1.51932L13.1776 1.04605" fill="#FCD116"/>
</g>
<g id="gd-b_19">
<path id="gd-a_19" d="M12.4043 2.20898L13.3508 1.52128L13.007 1.048" fill="#FCD116"/>
<path id="Vector_23" d="M12.4043 2.20898L12.7658 1.09625L13.3222 1.27702" fill="#FCD116"/>
</g>
<g id="gd-b_20">
<path id="gd-a_20" d="M11.9795 0.900391L12.926 1.5881L13.2699 1.11482" fill="#FCD116"/>
<path id="Vector_24" d="M11.9795 0.900391H13.1495V1.48539" fill="#FCD116"/>
</g>
</g>
<path id="Vector_25" d="M3.50879 9.02851C3.77949 9.53125 4.30332 10.0762 4.76387 10.2695C4.7709 9.75977 4.58809 9.10234 4.34199 8.58203L3.50879 9.02851Z" fill="#CE1126"/>
<path id="Vector_26" d="M3.05163 7.29883C3.44186 8.11797 2.03209 10.0656 4.38053 10.5227C4.0653 10.0626 3.92216 9.50623 3.97623 8.95117C4.49561 9.19408 4.92236 9.59863 5.19264 10.1043C5.80788 7.87539 3.61764 8.0125 3.04811 7.29883H3.05163Z" fill="#FCD116"/>
<g id="gd-d_4">
<g id="gd-b_21">
<path id="gd-a_21" d="M4.9082 15.6309L4.54665 16.7436L5.10302 16.9244" fill="#FCD116"/>
<path id="Vector_27" d="M4.9082 15.6309L5.26975 16.7436L4.71338 16.9244" fill="#FCD116"/>
</g>
<g id="gd-b_22">
<path id="gd-a_22" d="M6.02051 16.4395H4.85051V17.0245" fill="#FCD116"/>
<path id="Vector_28" d="M6.02051 16.4395L5.07396 17.1272L4.7301 16.6539" fill="#FCD116"/>
</g>
<g id="gd-b_23">
<path id="gd-a_23" d="M5.5957 17.7461L5.23415 16.6334L4.67779 16.8141" fill="#FCD116"/>
<path id="Vector_29" d="M5.5957 17.7461L4.64915 17.0584L4.99301 16.5851" fill="#FCD116"/>
</g>
<g id="gd-b_24">
<path id="gd-a_24" d="M4.21973 17.748L5.16628 17.0603L4.82242 16.5871" fill="#FCD116"/>
<path id="Vector_30" d="M4.21973 17.748L4.58128 16.6353L5.13764 16.8161" fill="#FCD116"/>
</g>
<g id="gd-b_25">
<path id="gd-a_25" d="M3.79492 16.4395L4.74147 17.1272L5.08533 16.6539" fill="#FCD116"/>
<path id="Vector_31" d="M3.79492 16.4395H4.96492V17.0245" fill="#FCD116"/>
</g>
</g>
<g id="gd-c_2">
<g id="gd-b_26">
<path id="gd-a_26" d="M9.00098 15.6348L8.63943 16.7475L9.19579 16.9283" fill="#FCD116"/>
<path id="Vector_32" d="M9.00098 15.6348L9.36253 16.7475L8.80616 16.9283" fill="#FCD116"/>
</g>
<g id="gd-b_27">
<path id="gd-a_27" d="M10.1133 16.4434H8.94328V17.0284" fill="#FCD116"/>
<path id="Vector_33" d="M10.1133 16.4434L9.16673 17.1311L8.82288 16.6578" fill="#FCD116"/>
</g>
<g id="gd-b_28">
<path id="gd-a_28" d="M9.68848 17.75L9.32693 16.6373L8.77056 16.818" fill="#FCD116"/>
<path id="Vector_34" d="M9.68848 17.75L8.74193 17.0623L9.08578 16.589" fill="#FCD116"/>
</g>
<g id="gd-b_29">
<path id="gd-a_29" d="M8.3125 17.752L9.25905 17.0642L8.9152 16.591" fill="#FCD116"/>
<path id="Vector_35" d="M8.3125 17.752L8.67405 16.6392L9.23042 16.82" fill="#FCD116"/>
</g>
<g id="gd-b_30">
<path id="gd-a_30" d="M7.8877 16.4434L8.83425 17.1311L9.1781 16.6578" fill="#FCD116"/>
<path id="Vector_36" d="M7.8877 16.4434H9.0577V17.0284" fill="#FCD116"/>
</g>
</g>
<g id="gd-d_5">
<g id="gd-b_31">
<path id="gd-a_31" d="M13.0928 15.6387L12.7312 16.7514L13.2876 16.9322" fill="#FCD116"/>
<path id="Vector_37" d="M13.0928 15.6387L13.4543 16.7514L12.898 16.9322" fill="#FCD116"/>
</g>
<g id="gd-b_32">
<path id="gd-a_32" d="M14.2051 16.4473H13.0351V17.0323" fill="#FCD116"/>
<path id="Vector_38" d="M14.2051 16.4473L13.2585 17.135L12.9147 16.6617" fill="#FCD116"/>
</g>
<g id="gd-b_33">
<path id="gd-a_33" d="M13.7803 17.7539L13.4187 16.6412L12.8624 16.8219" fill="#FCD116"/>
<path id="Vector_39" d="M13.7803 17.7539L12.8337 17.0662L13.1776 16.5929" fill="#FCD116"/>
</g>
<g id="gd-b_34">
<path id="gd-a_34" d="M12.4043 17.7559L13.3508 17.0682L13.007 16.5949" fill="#FCD116"/>
<path id="Vector_40" d="M12.4043 17.7559L12.7658 16.6431L13.3222 16.8239" fill="#FCD116"/>
</g>
<g id="gd-b_35">
<path id="gd-a_35" d="M11.9795 16.4473L12.926 17.135L13.2699 16.6617" fill="#FCD116"/>
<path id="Vector_41" d="M11.9795 16.4473H13.1495V17.0323" fill="#FCD116"/>
</g>
</g>
</g>
<defs>
<clipPath id="clip0_186_8684">
<rect width="18" height="18" fill="white"/>
</clipPath>
</defs>
</svg>
