<svg width="18" height="18" viewBox="0 0 18 18" fill="none" xmlns="http://www.w3.org/2000/svg">
<g id="ge" clip-path="url(#clip0_186_8803)">
<path id="Vector" d="M0 0H18V18H0V0Z" fill="white"/>
<path id="Vector_2" d="M7.20703 0H10.793V18H7.20703V0Z" fill="#FF0000"/>
<path id="Vector_3" d="M0 7.20703H18V10.793H0V7.20703Z" fill="#FF0000"/>
<path id="Vector_4" fill-rule="evenodd" clip-rule="evenodd" d="M4.01133 13.9887C4.05 13.3559 4.1625 12.8145 4.1625 12.8145C4.1625 12.8145 3.78984 12.8496 3.60352 12.8496C3.41719 12.8496 3.04453 12.8145 3.04453 12.8145C3.04453 12.8145 3.15703 13.3523 3.1957 13.9887C2.56289 13.95 2.02148 13.8375 2.02148 13.8375C2.02148 13.8375 2.05664 14.1187 2.05664 14.3965C2.05664 14.6742 2.02148 14.9555 2.02148 14.9555C2.02148 14.9555 2.55938 14.843 3.1957 14.8043C3.15703 15.4371 3.04453 15.9785 3.04453 15.9785C3.04453 15.9785 3.32578 15.9434 3.60352 15.9434C3.88477 15.9434 4.1625 15.9785 4.1625 15.9785C4.1625 15.9785 4.05 15.4406 4.01133 14.8043C4.64414 14.843 5.18555 14.9555 5.18555 14.9555C5.18555 14.9555 5.15039 14.5828 5.15039 14.3965C5.15039 14.2102 5.18555 13.8375 5.18555 13.8375C5.18555 13.8375 4.64766 13.95 4.01133 13.9887ZM14.8043 3.1957C14.843 2.56289 14.9555 2.02148 14.9555 2.02148C14.9555 2.02148 14.5828 2.05664 14.3965 2.05664C14.2102 2.05664 13.8375 2.02148 13.8375 2.02148C13.8375 2.02148 13.95 2.56289 13.9887 3.1957C13.3559 3.15703 12.8145 3.04453 12.8145 3.04453C12.8145 3.04453 12.8496 3.32578 12.8496 3.60352C12.8496 3.88477 12.8145 4.1625 12.8145 4.1625C12.8145 4.1625 13.3523 4.05 13.9887 4.01133C13.95 4.64414 13.8375 5.18555 13.8375 5.18555C13.8375 5.18555 14.1187 5.15039 14.3965 5.15039C14.6742 5.15039 14.9555 5.18555 14.9555 5.18555C14.9555 5.18555 14.843 4.64766 14.8043 4.01133C15.4371 4.05 15.9785 4.1625 15.9785 4.1625C15.9785 4.1625 15.9434 3.78984 15.9434 3.60352C15.9434 3.4207 15.9785 3.04453 15.9785 3.04453C15.9785 3.04453 15.4371 3.15703 14.8043 3.1957ZM4.01133 3.1957C4.05 2.56289 4.1625 2.02148 4.1625 2.02148C4.1625 2.02148 3.78984 2.05664 3.60352 2.05664C3.41719 2.05664 3.04453 2.02148 3.04453 2.02148C3.04453 2.02148 3.15703 2.56289 3.1957 3.1957C2.56289 3.15703 2.02148 3.04453 2.02148 3.04453C2.02148 3.04453 2.05664 3.32578 2.05664 3.60352C2.05664 3.88477 2.02148 4.1625 2.02148 4.1625C2.02148 4.1625 2.55938 4.05 3.1957 4.01133C3.15703 4.64414 3.04453 5.18555 3.04453 5.18555C3.04453 5.18555 3.32578 5.15039 3.60352 5.15039C3.88477 5.15039 4.1625 5.18555 4.1625 5.18555C4.1625 5.18555 4.05 4.64766 4.01133 4.01133C4.64414 4.05 5.18555 4.1625 5.18555 4.1625C5.18555 4.1625 5.15039 3.78984 5.15039 3.60352C5.15039 3.4207 5.18555 3.04453 5.18555 3.04453C5.18555 3.04453 4.64766 3.15703 4.01133 3.1957ZM14.8043 13.9887C14.843 13.3559 14.9555 12.8145 14.9555 12.8145C14.9555 12.8145 14.5828 12.8496 14.3965 12.8496C14.2102 12.8496 13.8375 12.8145 13.8375 12.8145C13.8375 12.8145 13.95 13.3523 13.9887 13.9887C13.3559 13.95 12.8145 13.8375 12.8145 13.8375C12.8145 13.8375 12.8496 14.1187 12.8496 14.3965C12.8496 14.6742 12.8145 14.9555 12.8145 14.9555C12.8145 14.9555 13.3523 14.843 13.9887 14.8043C13.95 15.4371 13.8375 15.9785 13.8375 15.9785C13.8375 15.9785 14.1187 15.9434 14.3965 15.9434C14.6742 15.9434 14.9555 15.9785 14.9555 15.9785C14.9555 15.9785 14.843 15.4406 14.8043 14.8043C15.4371 14.843 15.9785 14.9555 15.9785 14.9555C15.9785 14.9555 15.9434 14.5828 15.9434 14.3965C15.9434 14.2102 15.9785 13.8375 15.9785 13.8375C15.9785 13.8375 15.4371 13.95 14.8043 13.9887Z" fill="#FF0000"/>
</g>
<defs>
<clipPath id="clip0_186_8803">
<rect width="18" height="18" fill="white"/>
</clipPath>
</defs>
</svg>
