<svg width="18" height="18" viewBox="0 0 18 18" fill="none" xmlns="http://www.w3.org/2000/svg">
<g id="gg" clip-path="url(#clip0_186_8812)">
<path id="Vector" d="M0 0H18V18H0V0Z" fill="white"/>
<path id="Vector_2" d="M6.75 0H11.25V18H6.75V0Z" fill="#E8112D"/>
<path id="Vector_3" d="M0 6.59961H18V11.402H0V6.59961Z" fill="#E8112D"/>
<path id="gg-a" d="M1.61719 10.7516L2.43633 9.87266H9.81914V8.12539H2.43633L1.61719 7.25V10.7516Z" fill="#F9DD16"/>
<path id="gg-a_2" d="M7.35889 1.12695L8.18286 2.00071V9.87573H9.82092V2.00071L10.6416 1.12695H7.35889Z" fill="#F9DD16"/>
<path id="gg-a_3" d="M10.6411 16.873L9.81714 15.9993V8.12427H8.17908V15.9993L7.3584 16.873H10.6411Z" fill="#F9DD16"/>
<path id="gg-a_4" d="M16.3828 7.24844L15.5637 8.12734H8.18086V9.87461L15.5637 9.87461L16.3828 10.75V7.24844Z" fill="#F9DD16"/>
</g>
<defs>
<clipPath id="clip0_186_8812">
<rect width="18" height="18" fill="white"/>
</clipPath>
</defs>
</svg>
