<svg width="18" height="18" viewBox="0 0 18 18" fill="none" xmlns="http://www.w3.org/2000/svg">
<g id="gi" clip-path="url(#clip0_186_8825)">
<path id="Vector" d="M0 0H18V18H0V0Z" fill="#DA000C"/>
<path id="Vector_2" d="M0 0H18V12.0586H0V0Z" fill="white"/>
<g id="Group">
<g id="gi-a">
<path id="Vector_3" d="M4.82324 8.17969H9.32324V11.2734H4.82324V8.17969Z" fill="#000001"/>
<g id="Vector_4">
<path d="M7.15762 10.8234H4.41543L3.80371 11.2242V11.6461H7.15762M6.01152 9.04453C6.40527 9.04453 6.72871 9.375 6.72871 9.78281V10.8164H7.24199V6.87891H4.4084V10.8164H5.29434V9.78281C5.29434 9.38906 5.61074 9.04453 6.01152 9.04453Z" fill="#DA000C"/>
<path d="M7.15762 10.8234H4.41543L3.80371 11.2242V11.6461H7.15762M6.01152 9.04453C6.40527 9.04453 6.72871 9.375 6.72871 9.78281V10.8164H7.24199V6.87891H4.4084V10.8164H5.29434V9.78281C5.29434 9.38906 5.61074 9.04453 6.01152 9.04453Z" stroke="black" stroke-width="2" stroke-linecap="square"/>
</g>
<path id="Vector_5" d="M5.37891 4.2207H6.68672V6.61133H5.37891V4.2207Z" fill="#000001"/>
<g id="Vector_6">
<path d="M6.67969 6.23828H5.54063V5.83047H4.70391V6.23828H4.14141V5.83047H3.79688V6.56172H6.67969M4.13438 6.56172H6.59531V6.87813H4.13438V6.56172ZM5.11875 3.34844V5.8375H5.54063V5.15547C5.54063 4.90234 5.71641 4.69141 5.96953 4.67734H5.99766C6.06044 4.67734 6.12262 4.68971 6.18063 4.71374C6.23864 4.73777 6.29134 4.77299 6.33574 4.81738C6.38014 4.86178 6.41536 4.91449 6.43939 4.9725C6.46341 5.03051 6.47578 5.09268 6.47578 5.15547V5.8375H6.87656V3.34844H5.11875ZM4.95703 3.01094V3.34844H7.01719V3.01094H4.95703ZM4.69688 2.37109V3.01094H7.15781V2.37109H6.78516V2.70156H6.32109V2.37109H5.61797V2.70156H5.16094V2.37109H4.69688ZM3.79688 11.2234H7.17188ZM9.35156 11.0266H7.07344L6.38438 11.357V11.8492H9.35156" fill="#DA000C"/>
<path d="M6.67969 6.23828H5.54063V5.83047H4.70391V6.23828H4.14141V5.83047H3.79688V6.56172H6.67969M3.79688 11.2234H7.17188M9.35156 11.0266H7.07344L6.38438 11.357V11.8492H9.35156M4.13438 6.56172H6.59531V6.87813H4.13438V6.56172ZM5.11875 3.34844V5.8375H5.54063V5.15547C5.54063 4.90234 5.71641 4.69141 5.96953 4.67734H5.99766C6.06044 4.67734 6.12262 4.68971 6.18063 4.71374C6.23864 4.73777 6.29134 4.77299 6.33574 4.81738C6.38014 4.86178 6.41536 4.91449 6.43939 4.9725C6.46341 5.03051 6.47578 5.09268 6.47578 5.15547V5.8375H6.87656V3.34844H5.11875ZM4.95703 3.01094V3.34844H7.01719V3.01094H4.95703ZM4.69688 2.37109V3.01094H7.15781V2.37109H6.78516V2.70156H6.32109V2.37109H5.61797V2.70156H5.16094V2.37109H4.69688Z" stroke="black" stroke-width="2" stroke-linecap="square"/>
</g>
<g id="Vector_7">
<path d="M6.38477 11.3574H9.42227Z" fill="#DA000C"/>
<path d="M6.38477 11.3574H9.42227" stroke="black" stroke-width="2"/>
</g>
</g>
<g id="gi-a_2">
<path id="Vector_8" d="M13.1768 8.17969H8.67676V11.2734H13.1768V8.17969Z" fill="#000001"/>
<g id="Vector_9">
<path d="M10.8424 10.8234H13.5846L14.1963 11.2242V11.6461H10.8424M11.9885 9.04453C11.5947 9.04453 11.2713 9.375 11.2713 9.78281V10.8164H10.758V6.87891H13.5916V10.8164H12.7057V9.78281C12.7057 9.38906 12.3893 9.04453 11.9885 9.04453Z" fill="#DA000C"/>
<path d="M10.8424 10.8234H13.5846L14.1963 11.2242V11.6461H10.8424M11.9885 9.04453C11.5947 9.04453 11.2713 9.375 11.2713 9.78281V10.8164H10.758V6.87891H13.5916V10.8164H12.7057V9.78281C12.7057 9.38906 12.3893 9.04453 11.9885 9.04453Z" stroke="black" stroke-width="2" stroke-linecap="square"/>
</g>
<path id="Vector_10" d="M12.6211 4.2207H11.3133V6.61133H12.6211V4.2207Z" fill="#000001"/>
<g id="Vector_11">
<path d="M11.3203 6.23828H12.4594V5.83047H13.2961V6.23828H13.8586V5.83047H14.2031V6.56172H11.3203M13.8656 6.56172H11.4047V6.87813H13.8656V6.56172ZM12.8812 3.34844V5.8375H12.4594V5.15547C12.4594 4.90234 12.2836 4.69141 12.0305 4.67734H12.0023C11.9396 4.67734 11.8774 4.68971 11.8194 4.71374C11.7614 4.73777 11.7087 4.77299 11.6643 4.81738C11.6199 4.86178 11.5846 4.91449 11.5606 4.9725C11.5366 5.03051 11.5242 5.09268 11.5242 5.15547V5.8375H11.1234V3.34844H12.8812ZM13.043 3.01094V3.34844H10.9828V3.01094H13.043ZM13.3031 2.37109V3.01094H10.8422V2.37109H11.2148V2.70156H11.6789V2.37109H12.382V2.70156H12.8391V2.37109H13.3031ZM14.2031 11.2234H10.8281ZM8.64844 11.0266H10.9266L11.6156 11.357V11.8492H8.64844" fill="#DA000C"/>
<path d="M11.3203 6.23828H12.4594V5.83047H13.2961V6.23828H13.8586V5.83047H14.2031V6.56172H11.3203M14.2031 11.2234H10.8281M8.64844 11.0266H10.9266L11.6156 11.357V11.8492H8.64844M13.8656 6.56172H11.4047V6.87813H13.8656V6.56172ZM12.8812 3.34844V5.8375H12.4594V5.15547C12.4594 4.90234 12.2836 4.69141 12.0305 4.67734H12.0023C11.9396 4.67734 11.8774 4.68971 11.8194 4.71374C11.7614 4.73777 11.7087 4.77299 11.6643 4.81738C11.6199 4.86178 11.5846 4.91449 11.5606 4.9725C11.5366 5.03051 11.5242 5.09268 11.5242 5.15547V5.8375H11.1234V3.34844H12.8812ZM13.043 3.01094V3.34844H10.9828V3.01094H13.043ZM13.3031 2.37109V3.01094H10.8422V2.37109H11.2148V2.70156H11.6789V2.37109H12.382V2.70156H12.8391V2.37109H13.3031Z" stroke="black" stroke-width="2" stroke-linecap="square"/>
</g>
<g id="Vector_12">
<path d="M11.6152 11.3574H8.57773Z" fill="#DA000C"/>
<path d="M11.6152 11.3574H8.57773" stroke="black" stroke-width="2"/>
</g>
</g>
<g id="Group_2">
<g id="Group_3">
<path id="Vector_13" d="M10.2174 10.5469C10.0276 10.6172 9.86587 10.7156 9.69009 10.8141C9.47135 10.939 9.26218 11.08 9.06431 11.2359C8.994 11.2852 8.92369 11.3344 8.87447 11.4047C8.80415 11.4609 8.73384 11.5453 8.7479 11.6508C8.7479 11.693 8.80415 11.5945 8.84634 11.5875C8.91311 11.5518 8.99066 11.5418 9.06431 11.5594C9.15572 11.4609 9.27525 11.3977 9.37368 11.3203C9.66028 11.1129 9.96642 10.9339 10.2877 10.7859L10.2174 10.5469Z" fill="#F8D80E" stroke="black" stroke-width="1.6" stroke-linecap="round"/>
<g id="Vector_14">
<path d="M9.30957 11.0668V11.341ZM9.47832 10.9473V11.2215ZM9.64707 10.8418V11.109ZM9.82285 10.7363V11.0176Z" fill="#F8D80E"/>
<path d="M9.30957 11.0668V11.341M9.47832 10.9473V11.2215M9.64707 10.8418V11.109M9.82285 10.7363V11.0176" stroke="black" stroke-width="2" stroke-linecap="round"/>
</g>
<path id="Vector_15" d="M7.79824 10.5605L7.71387 10.7926C8.10243 10.9416 8.47469 11.1301 8.8248 11.3551C8.94434 11.4395 9.0709 11.5168 9.1623 11.6293C9.1834 11.6855 9.12715 11.7348 9.0709 11.7137C9.02168 11.6996 8.96543 11.6785 8.91621 11.7137C8.83887 11.7488 8.76856 11.8684 8.88106 11.9035C9.04981 12.016 9.30996 11.9668 9.3873 11.777C9.42949 11.6785 9.43652 11.552 9.35215 11.4676C9.21152 11.3059 9.01465 11.1863 8.83184 11.0668C8.50355 10.8667 8.15756 10.6973 7.79824 10.5605Z" fill="#F8D80E" stroke="black" stroke-width="1.6" stroke-linecap="round"/>
<g id="Vector_16">
<path d="M8.85996 11.1086L8.83887 11.3477ZM9.05684 11.2281L9.00059 11.4602ZM9.26777 11.3898L9.14121 11.5727ZM9.33106 11.8258L9.14824 11.7273ZM9.3873 11.6289L9.17637 11.65ZM9.12012 11.9313L9.10605 11.7484ZM9.03574 11.7273L8.86699 11.8539ZM8.20605 10.75V10.968ZM8.64902 10.9891V11.2352ZM8.42402 10.8695V11.1016Z" fill="#F8D80E"/>
<path d="M8.85996 11.1086L8.83887 11.3477M9.05684 11.2281L9.00059 11.4602M9.26777 11.3898L9.14121 11.5727M9.33106 11.8258L9.14824 11.7273M9.3873 11.6289L9.17637 11.65M9.12012 11.9313L9.10605 11.7484M9.03574 11.7273L8.86699 11.8539M8.20605 10.75V10.968M8.64902 10.9891V11.2352M8.42402 10.8695V11.1016" stroke="black" stroke-width="2" stroke-linecap="round"/>
</g>
</g>
<path id="Vector_17" d="M7.58008 16.0039V16.5664H7.93164V16.2852H8.4168V16.5664H8.79648V16.0039H7.58008ZM7.58008 16.7773V17.3398H8.78945V16.7773H8.40977V17.0586H7.92461V16.7773H7.58008Z" fill="#F8D80E" stroke="black" stroke-width="2"/>
<path id="Vector_18" d="M8.78906 13.6191H9.14062V17.6973H8.78906V13.6191Z" fill="#F8D80E" stroke="black" stroke-width="2"/>
<path id="Vector_19" d="M8.78984 13.9719H9.14141V17.4875H8.78984V13.9719ZM8.97266 12.6148L9.71797 13.0508L8.97266 13.4867L8.22031 13.0508L8.97266 12.6148ZM7.96719 12.8961H7.77734V13.2055H7.96719L8.97266 13.7891L9.97109 13.2055H10.168V12.8961H9.97109L8.97266 12.3125L7.96719 12.8961Z" fill="#F8D80E" stroke="black" stroke-width="2"/>
<path id="Vector_20" d="M8.95145 11.5527C8.86963 11.5694 8.79639 11.6146 8.74486 11.6803C8.69332 11.746 8.66686 11.8279 8.6702 11.9113V12.6988C8.67667 12.7825 8.71282 12.861 8.77213 12.9203C8.83144 12.9797 8.91001 13.0158 8.99364 13.0223C9.06321 13.0275 9.13273 13.0115 9.193 12.9763C9.25326 12.9411 9.30144 12.8885 9.33114 12.8254L9.21161 12.7551C9.19502 12.7963 9.16545 12.8309 9.12738 12.8538C9.0893 12.8766 9.04482 12.8864 9.00067 12.8816C8.88817 12.8816 8.79677 12.7691 8.81083 12.6637V11.8762C8.81615 11.8246 8.84093 11.777 8.88011 11.743C8.9193 11.7091 8.96995 11.6913 9.02177 11.6934C9.06395 11.6793 9.12724 11.7426 9.15536 11.6934C9.19755 11.6301 9.12724 11.5879 9.08505 11.5527H8.95145ZM9.35927 11.827C9.32491 11.8751 9.27896 11.9138 9.22567 11.9395V12.4668L9.3663 12.5441V11.827H9.35927Z" fill="#F8D80E" stroke="black" stroke-width="2"/>
</g>
<g id="Group_4">
<path id="Vector_21" d="M7.93164 2.70117H9.9918V6.4418H7.93164V2.70117Z" fill="#000001"/>
<path id="Vector_22" d="M7.79102 2.70078V5.82969H8.44492V4.90156C8.44492 4.69062 8.58555 4.38828 9.00039 4.38828C9.41523 4.38828 9.56289 4.69062 9.56289 4.90156V5.83672H10.2098V2.70078H7.79102ZM8.90195 3.05234H9.09883V4.12109H8.90195V3.05234ZM8.31836 3.26328H8.5293V4.04375H8.31836V3.26328ZM9.47851 3.26328H9.68242V4.04375H9.47149L9.47851 3.26328ZM7.56602 2.25078V2.69375H10.4348V2.25078H7.56602ZM7.29883 1.73047V2.25078H10.709V1.73047H10.2801V2.01172H9.78789V1.73047H9.23945V2.01172H8.76133V1.73047H8.20586V2.01172H7.73477V1.73047H7.29883ZM6.66602 6.87734V7.20078H11.3418V6.87734H6.66602Z" fill="#DA000C" stroke="black" stroke-width="2"/>
<path id="Vector_23" d="M6.46875 5.83008V6.88477H11.5312V5.83008H11.0531V6.23789H10.4062V5.83008H9.54844V6.23789H8.4375V5.83008H7.57969V6.23789H6.94688V5.83008H6.46875Z" fill="#DA000C" stroke="black" stroke-width="2"/>
<path id="Vector_24" d="M7.08008 7.20117V11.0262H7.98008V9.5918C7.98008 8.92383 8.43008 8.60742 8.99961 8.60742C9.54805 8.60742 10.0191 8.92383 10.0191 9.5918V11.0262H10.9191V7.20117H7.08008Z" fill="#DA000C" stroke="black" stroke-width="2" stroke-linejoin="round"/>
</g>
</g>
</g>
<defs>
<clipPath id="clip0_186_8825">
<rect width="18" height="18" fill="white"/>
</clipPath>
</defs>
</svg>
