<svg width="18" height="18" viewBox="0 0 18 18" fill="none" xmlns="http://www.w3.org/2000/svg">
<g id="gl" clip-path="url(#clip0_186_8856)">
<path id="Vector" d="M0 0H18V18H0V0Z" fill="white"/>
<path id="Vector_2" d="M0 8.99922H18V17.9992H0V8.99922ZM1.87383 8.99922C1.87383 9.7873 2.02905 10.5677 2.33064 11.2958C2.63223 12.0239 3.07427 12.6854 3.63153 13.2427C4.18879 13.7999 4.85036 14.242 5.57845 14.5436C6.30655 14.8452 7.08691 15.0004 7.875 15.0004C8.66309 15.0004 9.44345 14.8452 10.1715 14.5436C10.8996 14.242 11.5612 13.7999 12.1185 13.2427C12.6757 12.6854 13.1178 12.0239 13.4194 11.2958C13.7209 10.5677 13.8762 9.7873 13.8762 8.99922C13.8762 7.40761 13.2439 5.88119 12.1185 4.75575C10.993 3.63031 9.46661 2.99805 7.875 2.99805C6.28339 2.99805 4.75697 3.63031 3.63153 4.75575C2.50609 5.88119 1.87383 7.40761 1.87383 8.99922Z" fill="#D00C33"/>
</g>
<defs>
<clipPath id="clip0_186_8856">
<rect width="18" height="18" fill="white"/>
</clipPath>
</defs>
</svg>
