<svg width="18" height="18" viewBox="0 0 18 18" fill="none" xmlns="http://www.w3.org/2000/svg">
<g id="gq" clip-path="url(#clip0_186_8875)">
<path id="Vector" d="M0 0H18V18H0V0Z" fill="#E32118"/>
<path id="Vector_2" d="M0 0H18V11.9988H0V0Z" fill="white"/>
<path id="Vector_3" d="M0 0H18V6.00117H0V0Z" fill="#3E9A00"/>
<path id="Vector_4" d="M0 0V18L5.625 9L0 0Z" fill="#0073CE"/>
<g id="Group">
<path id="Vector_5" d="M7.55859 7.18945H10.4309V10.1988C10.4309 11.2113 9.1125 10.4309 9 10.9723C8.80313 10.4168 7.56562 11.2184 7.56562 10.1391L7.55859 7.18945Z" fill="white" stroke="black"/>
<path id="Vector_6" d="M9.20078 10.4914C9.20078 10.4914 9.16563 10.5301 9.09531 10.502C9.02852 10.4703 9.02148 8.57188 9.02148 8.57188C9.17266 8.40664 9.29219 8.35742 9.29219 8.35742L9.38008 8.42773C9.04258 8.60352 9.07422 8.84961 9.10234 9.27852C9.11289 9.43672 9.11289 9.63711 9.14805 9.83398C9.20078 10.0801 9.30625 10.291 9.31328 10.4492C9.32031 10.5477 9.20078 10.4949 9.20078 10.4949V10.4914Z" fill="#73452B" stroke="black" stroke-width="0.2"/>
<path id="Vector_7" d="M8.96816 8.31055H9.10527C8.98926 9.40039 9.0877 10.0438 9.0877 10.3566C9.0877 10.4621 9.14746 10.4973 9.14043 10.4973C9.00684 10.6484 8.93652 10.4902 8.93652 10.4902L8.96816 8.31055Z" fill="#73452B" stroke="black" stroke-width="0.2"/>
<g id="Vector_8">
<path d="M8.75811 10.4902C8.63155 10.5535 8.61749 10.434 8.62452 10.4199C8.90225 9.85742 9.02178 8.61641 8.76514 8.48281L8.78272 8.36328C8.87764 8.39141 8.96905 8.51797 8.96905 8.51797C9.00421 9.90664 8.96905 10.4762 8.94796 10.5008C8.81085 10.6414 8.75811 10.4762 8.75108 10.4621" fill="#A36629"/>
<path d="M8.75811 10.4902C8.63155 10.5535 8.61749 10.434 8.62452 10.4199C8.90225 9.85742 9.02178 8.61641 8.76514 8.48281L8.78272 8.36328C8.87764 8.39141 8.96905 8.51797 8.96905 8.51797C9.00421 9.90664 8.96905 10.4762 8.94796 10.5008C8.81085 10.6414 8.75811 10.4762 8.75108 10.4621" stroke="black" stroke-width="0.2"/>
</g>
<path id="Vector_9" d="M8.75389 10.4695C8.72928 10.35 8.94725 10.0406 8.92967 9.7207M9.11952 9.98438C9.18631 10.1707 9.21796 10.3359 9.20038 10.4941" stroke="black" stroke-width="0.2"/>
<path id="Vector_10" d="M9.41189 7.80051C9.4576 7.74778 9.4576 7.74778 9.53845 7.74778C9.55252 7.63528 9.74236 7.63528 9.75642 7.7759C9.9076 7.74778 9.93572 7.83567 9.87595 7.92708C10.0166 7.89192 10.1467 7.92708 10.108 8.09231C10.3646 8.16262 10.2662 8.3384 10.1537 8.37356C10.1396 8.48958 10.0342 8.52825 9.89002 8.47903C9.71424 8.60911 9.60877 8.5634 9.52439 8.43684C9.32049 8.46497 9.30642 8.42278 9.21853 8.31028C9.06033 8.37708 9.02869 8.37708 8.8951 8.2927C8.88806 8.39817 8.84939 8.37004 8.7826 8.36301C8.78963 8.49661 8.73689 8.55637 8.61736 8.51067C8.70525 8.70051 8.47674 8.78137 8.36072 8.62317C8.25525 8.6302 8.24822 8.60208 8.19549 8.5634C8.1533 8.71458 7.98455 8.69348 7.95642 8.60911C7.74549 8.57747 7.7701 8.46848 7.94236 8.45794C7.95642 8.3384 8.06189 8.36301 8.12869 8.37708C8.13572 8.30325 8.18142 8.31731 8.2201 8.33137C8.19549 8.27864 8.21306 8.25051 8.27986 8.23293C8.18142 8.10637 8.2447 8.06067 8.33963 8.01497C8.28689 7.89544 8.37478 7.90247 8.4451 7.89544C8.43806 7.76887 8.47322 7.74778 8.61033 7.7302C8.59275 7.68801 8.61736 7.64934 8.69119 7.64934C8.64549 7.52278 8.70525 7.49114 8.84236 7.51575C8.86345 7.32942 9.26424 7.41731 9.22908 7.67043C9.3451 7.68801 9.38025 7.70911 9.41189 7.80051Z" fill="#009A3B" stroke="black" stroke-width="0.2"/>
<path id="Vector_11" d="M8.60996 7.73516C8.63809 7.74922 8.67676 7.73516 8.68379 7.81602C8.74355 7.71055 8.81738 7.77031 8.81738 7.88984M9.23223 7.67188C9.20059 7.71758 9.0916 7.71758 9.10215 7.83711C9.06699 7.78437 8.99316 7.77031 8.96152 7.82305M9.41152 7.80195C9.41152 7.83008 9.40449 7.92148 9.37637 7.96719M9.87559 7.92852C9.88262 7.93555 9.77012 7.92852 9.71738 7.96367M10.1533 8.37852C10.1252 8.36445 10.0619 8.32578 10.0197 8.38555C10.0197 8.35391 10.0197 8.27305 9.93535 8.27305M9.89316 8.48398C9.89316 8.40664 9.87559 8.38555 9.85801 8.36445M9.64707 8.37852C9.58379 8.33281 9.52402 8.39961 9.52402 8.43828M9.20762 8.31172C9.20762 8.28008 9.18652 8.22031 9.23926 8.19922M8.35332 8.62461C8.36738 8.55078 8.42363 8.55078 8.41309 8.51211M8.41309 8.51211C8.40605 8.45234 8.33926 8.39961 8.25488 8.48398M8.41309 8.51211C8.45879 8.49805 8.50449 8.50508 8.51855 8.52969M8.28652 8.23438C8.31816 8.20625 8.39199 8.21328 8.4377 8.23438M8.4377 8.05859C8.47285 8.05859 8.54316 8.04102 8.56426 8.10781C8.64512 7.98125 8.70488 7.99531 8.72246 8.02695M8.87012 8.00938C8.92988 7.98828 9.03535 8.04805 9.09512 8.15C9.12676 8.07266 9.17246 8.08672 9.21816 8.07969M9.49941 8.15C9.59785 8.10781 9.65762 8.19922 9.68926 8.23438C9.73496 8.17461 9.77012 8.17461 9.81582 8.17461M8.59238 8.33281C8.61699 8.29766 8.66973 8.28711 8.70488 8.31172C8.69785 8.24141 8.74355 8.21328 8.7752 8.22734" stroke="black" stroke-width="0.2"/>
<path id="Vector_12" d="M8.90176 6.77109L8.73652 6.77813L8.65566 6.92578L8.56426 6.78516L8.39902 6.79219L8.47285 6.64102L8.38496 6.50039L8.55723 6.49336L8.63105 6.3457L8.72246 6.48633L8.8877 6.4793L8.81035 6.62695L8.90176 6.77109ZM8.19863 6.82383L8.02988 6.86602L7.9877 7.02422L7.86816 6.90469L7.70996 6.94336L7.75215 6.78516L7.64316 6.66211L7.79785 6.62344L7.84355 6.46172L7.96309 6.58125L8.12832 6.54609L8.07559 6.7043L8.19863 6.82383ZM7.51309 6.96445L7.36543 7.03828L7.35488 7.20703L7.21426 7.11562L7.06309 7.18594L7.07715 7.0207L6.93652 6.9293L7.0877 6.85195L7.10176 6.68672L7.23535 6.77813L7.38652 6.70781L7.37949 6.87305L7.51309 6.96445ZM9.11973 6.77109L9.28496 6.77813L9.35879 6.92578L9.45019 6.78516L9.61543 6.79219L9.53809 6.64102L9.62949 6.50039L9.46426 6.49336L9.37988 6.3457L9.29199 6.48633L9.12676 6.4793L9.20059 6.62695L9.11973 6.77109ZM9.82285 6.82383L9.98105 6.86602L10.0268 7.02422L10.1463 6.90469L10.3045 6.94336L10.2588 6.78516L10.3783 6.66211L10.2131 6.62344L10.1674 6.46172L10.0479 6.58125L9.89316 6.54609L9.93535 6.7043L9.82285 6.82383ZM10.4979 6.96445L10.649 7.03828L10.6561 7.20703L10.7967 7.11562L10.9479 7.18594L10.9408 7.0207L11.0744 6.9293L10.9268 6.85195L10.9197 6.68672L10.7791 6.77813L10.6244 6.70781L10.642 6.87305L10.4979 6.96445Z" fill="#FFD700" stroke="black" stroke-width="0.8"/>
<g id="Group_2">
<path id="Vector_13" d="M10.7016 10.1395L10.8879 10.4102L11.0637 10.1535L10.9406 9.93906L10.7016 10.1395ZM9.50625 10.927L9.52383 11.1977C9.52383 11.1977 9.59766 11.1977 9.66445 11.1766C9.72773 11.152 9.78047 11.1062 9.78047 11.1062L9.76992 10.9656L9.50625 10.927ZM8.5043 10.927L8.48672 11.1906C8.48672 11.1906 8.41992 11.1906 8.35313 11.1766C8.31303 11.1652 8.27504 11.1474 8.24062 11.1238L8.1668 10.941L8.5043 10.927ZM7.29492 10.1395L7.10156 10.4102L6.89062 10.0656L7.04883 9.90039L7.29492 10.1395Z" fill="white" stroke="black" stroke-width="0.8"/>
<path id="Vector_14" d="M8.2334 11.468C8.2334 11.7211 9.78027 11.7211 9.78027 11.468V11.1094C9.78027 11.2957 8.2334 11.257 8.2334 11.1094V11.468Z" fill="white" stroke="black" stroke-width="0.8"/>
<path id="Vector_15" d="M6.85605 10.6352C6.98965 11.3242 8.23418 11.3383 8.23418 11.3383V11.1098C8.20605 11.0184 8.25527 10.9867 8.45918 10.9586C8.54356 10.9516 8.50488 10.832 8.50488 10.832C8.50488 10.832 7.96348 10.927 7.58027 10.7793C7.06348 10.5684 6.98965 10.1641 6.98965 10.1641C6.98965 10.1641 6.95449 10.4805 6.85254 10.6352H6.85605ZM11.1521 10.6352C11.0256 11.3242 9.78106 11.3383 9.78106 11.3383V11.1098C9.80215 11.0184 9.7459 10.9867 9.54551 10.9586C9.46465 10.9516 9.51035 10.832 9.51035 10.832C9.51035 10.832 10.0482 10.927 10.4314 10.7793C10.9412 10.5684 11.001 10.1641 11.001 10.1641C11.001 10.1641 11.0537 10.4805 11.1521 10.6352Z" fill="white" stroke="black" stroke-width="0.8"/>
<path id="Vector_16" d="M6.95066 10.3707C6.60613 10.1844 6.87683 9.99102 6.90496 9.43555C6.95769 9.77305 7.3409 9.91367 7.29519 10.1316C7.13699 10.1387 7.06316 9.89961 6.98933 10.1633L6.95066 10.3707ZM11.0534 10.3707C11.3979 10.1773 11.1132 9.99102 11.085 9.43555C11.0323 9.77305 10.6561 9.91367 10.6983 10.1316C10.853 10.1387 10.9268 9.89961 11.0007 10.1633L11.0534 10.3637V10.3707Z" fill="white" stroke="black" stroke-width="0.8"/>
</g>
<path id="Vector_17" d="M7.16121 10.6273L7.19637 10.6555L7.11551 10.7469C7.08035 10.782 7.07332 10.8066 7.09793 10.8277C7.12606 10.8559 7.14715 10.8453 7.17527 10.8137L7.26668 10.7188L7.29481 10.7469L7.20692 10.8523C7.1577 10.9086 7.11199 10.8945 7.07332 10.8594C7.03817 10.8312 7.02059 10.7855 7.07332 10.7293L7.16121 10.6273ZM7.31238 10.7539L7.34754 10.7785L7.34051 10.9543L7.42488 10.8277L7.46004 10.8523L7.34051 11.0457L7.29481 11.0246L7.30184 10.8453L7.22098 10.9719L7.18582 10.9508L7.31238 10.7539ZM7.37918 11.0703L7.48465 10.8594L7.51981 10.8805L7.42488 11.0844L7.37918 11.0703ZM7.54442 10.891L7.46004 11.1055L7.54442 11.1371C7.62176 11.1652 7.65692 11.1301 7.68152 11.0668C7.70613 10.9965 7.69559 10.9508 7.61824 10.9191L7.54442 10.891ZM7.57254 10.9437C7.64988 10.9684 7.65692 11 7.63582 11.0492C7.61473 11.102 7.59363 11.1195 7.51981 11.0844L7.57254 10.9437ZM7.79051 10.9719L7.65692 11.1758L7.70965 11.1898L7.73777 11.1371L7.82918 11.1582L7.83621 11.2109L7.88895 11.218L7.83621 10.9789L7.79051 10.9719ZM7.80457 11.0246L7.82215 11.116L7.76238 11.109L7.80457 11.0246ZM7.92059 10.9895L7.91004 11.225H7.99793C8.08231 11.225 8.1034 11.1828 8.10692 11.1125C8.10692 11.0422 8.08231 11 8.00145 10.9965L7.92059 10.9895ZM7.96277 11.0316C8.04715 11.0316 8.06121 11.0598 8.0577 11.116C8.0577 11.1723 8.04363 11.1969 7.95926 11.1863L7.96277 11.0316ZM8.70457 11.3164V11.5555H8.75731V11.4676C8.75731 11.4676 8.80301 11.4676 8.84168 11.4605C8.86981 11.4535 8.8909 11.4324 8.8909 11.3867C8.8909 11.341 8.86629 11.3164 8.82059 11.3164H8.70457ZM8.75731 11.3516L8.81004 11.3551C8.85574 11.3551 8.8452 11.4219 8.81004 11.4219H8.75731V11.3516ZM8.97527 11.3164L8.87684 11.5555H8.92957L8.95418 11.4957H9.05262L9.07371 11.5555H9.12645L9.02801 11.3164H8.97527ZM8.99988 11.3691L9.03504 11.4605H8.96824L8.99988 11.3691ZM9.12645 11.5098L9.25301 11.3551H9.14051V11.3199H9.31981V11.3551L9.18621 11.5133H9.31981V11.559H9.12645V11.5098ZM9.88231 11.0457L9.92801 11.0387L9.9491 11.1758C9.95965 11.2215 9.93504 11.2566 9.9034 11.2672C9.86473 11.2813 9.81551 11.2672 9.80848 11.2039L9.84363 11.1969C9.85418 11.2355 9.87176 11.2391 9.88934 11.232C9.9034 11.2285 9.91043 11.2039 9.90691 11.1828L9.88231 11.0457ZM9.95965 11.0352L10.0018 11.0246L10.0229 11.1371C10.0335 11.1863 10.0475 11.2074 10.0792 11.2004C10.1143 11.1934 10.1214 11.1723 10.1143 11.1301L10.0862 11.0105L10.1319 11.0035L10.16 11.1266C10.1776 11.1969 10.1425 11.232 10.0897 11.2391C10.044 11.2461 9.99832 11.2355 9.98426 11.1652L9.95965 11.0352ZM10.1917 11.1371L10.2268 11.123C10.2479 11.1582 10.2761 11.1547 10.2971 11.1441C10.3288 11.1301 10.3323 11.102 10.3182 11.0949C10.2936 11.0809 10.2444 11.0984 10.2128 11.0879C10.1811 11.0773 10.1671 11.0563 10.1671 11.0281C10.1706 10.993 10.2022 10.9754 10.2374 10.9648C10.2725 10.9543 10.3077 10.9578 10.3323 11L10.2901 11.0176C10.2725 10.993 10.255 10.993 10.2374 11C10.2233 11.007 10.2022 11.0211 10.2128 11.0422C10.2233 11.0563 10.2796 11.0457 10.3077 11.0457C10.3393 11.0457 10.3639 11.0703 10.3675 11.0984C10.371 11.1371 10.3569 11.1582 10.3112 11.1793C10.2514 11.2004 10.2022 11.1758 10.1917 11.1371ZM10.3921 10.9508L10.3323 10.9789L10.3182 10.9437L10.4835 10.8734L10.4975 10.9051L10.4378 10.9332L10.5081 11.0984L10.4694 11.123L10.3921 10.9508ZM10.4905 10.8664L10.5257 10.8453L10.6311 11.0387L10.596 11.0633L10.4905 10.8664ZM10.7471 10.8805L10.7893 10.8664C10.7945 10.8804 10.7962 10.8954 10.7942 10.9102C10.7922 10.925 10.7866 10.9391 10.778 10.9512C10.7693 10.9633 10.7578 10.9732 10.7445 10.9798C10.7311 10.9865 10.7164 10.9898 10.7014 10.9895C10.5889 10.9895 10.5749 10.8629 10.596 10.8207C10.6241 10.7504 10.7085 10.7539 10.7471 10.7926L10.7085 10.8207C10.6839 10.7926 10.6311 10.8102 10.6276 10.8383C10.6245 10.86 10.6282 10.8822 10.6383 10.9018C10.6484 10.9213 10.6643 10.9372 10.6839 10.9473C10.719 10.9648 10.7718 10.9227 10.7471 10.8805ZM10.7225 10.7258L10.7577 10.6941L10.8983 10.8734L10.8596 10.9051L10.7225 10.7258ZM10.8632 10.6133L10.828 10.6414L10.9124 10.8664L10.9475 10.8313L10.9264 10.7855L10.9932 10.7258L11.0389 10.7469L11.0741 10.7188L10.8632 10.6133ZM10.8807 10.666L10.9546 10.7012L10.9124 10.7469L10.8807 10.666Z" fill="black"/>
</g>
</g>
<defs>
<clipPath id="clip0_186_8875">
<rect width="18" height="18" fill="white"/>
</clipPath>
</defs>
</svg>
