<svg width="18" height="18" viewBox="0 0 18 18" fill="none" xmlns="http://www.w3.org/2000/svg">
<g id="gr" clip-path="url(#clip0_186_8895)">
<path id="Vector" fill-rule="evenodd" clip-rule="evenodd" d="M0 0H18V2.00391H0V0Z" fill="#0D5EAF"/>
<path id="Vector_2" fill-rule="evenodd" clip-rule="evenodd" d="M0 2.00391H18V4.00781H0V2.00391Z" fill="white"/>
<path id="Vector_3" fill-rule="evenodd" clip-rule="evenodd" d="M0 4.00781H18V6.01172H0V4.00781Z" fill="#0D5EAF"/>
<path id="Vector_4" fill-rule="evenodd" clip-rule="evenodd" d="M0 6.01172H18V8.01562H0V6.01172Z" fill="white"/>
<path id="Vector_5" fill-rule="evenodd" clip-rule="evenodd" d="M0 8.01562H18V10.016H0V8.01562Z" fill="#0D5EAF"/>
<path id="Vector_6" fill-rule="evenodd" clip-rule="evenodd" d="M0 10.0156H18V12.0195H0V10.0156Z" fill="white"/>
<path id="Vector_7" fill-rule="evenodd" clip-rule="evenodd" d="M0 12.0195H18V14.0234H0V12.0195Z" fill="#0D5EAF"/>
<path id="Vector_8" fill-rule="evenodd" clip-rule="evenodd" d="M0 14.0234H18V16.0273H0V14.0234Z" fill="white"/>
<path id="Vector_9" d="M0 0H10.016V10.016H0V0Z" fill="#0D5EAF"/>
<g id="Group">
<path id="Vector_10" fill-rule="evenodd" clip-rule="evenodd" d="M4.00781 0H6.01172V10.016H4.00781V0Z" fill="white"/>
<path id="Vector_11" fill-rule="evenodd" clip-rule="evenodd" d="M0 4.00781H10.016V6.01172H0V4.00781Z" fill="white"/>
</g>
<path id="Vector_12" fill-rule="evenodd" clip-rule="evenodd" d="M0 15.9961H18V18H0V15.9961Z" fill="#0D5EAF"/>
</g>
<defs>
<clipPath id="clip0_186_8895">
<rect width="18" height="18" fill="white"/>
</clipPath>
</defs>
</svg>
