<svg width="18" height="18" viewBox="0 0 18 18" fill="none" xmlns="http://www.w3.org/2000/svg">
<g id="gs" clip-path="url(#clip0_186_8909)">
<path id="Vector" d="M0 0H18V18H0V0Z" fill="#000066"/>
<path id="Vector_2" d="M13.1275 12.2555C13.1275 12.2555 13.0467 12.4664 13.001 12.4664C12.9553 12.4664 12.79 12.3785 12.79 12.3785C12.79 12.3785 12.667 12.5719 12.6037 12.5824C12.5404 12.5965 12.3717 12.5543 12.3717 12.5543C12.3717 12.5543 12.2135 12.5543 12.2064 12.5332C12.1994 12.5086 12.2135 12.4629 12.2135 12.4629C12.2135 12.4629 11.9814 12.6457 11.9322 12.6352C11.8795 12.6246 11.7072 12.4066 11.7072 12.4066L11.6791 12.5191L11.3521 12.5086L11.0639 12.3258C11.0639 12.3258 10.9021 12.5895 10.8951 12.5824C10.8916 12.5789 10.6139 12.6457 10.6139 12.6457L10.5963 12.5965L10.4135 12.4875C10.4135 12.4875 10.5541 12.2836 10.5541 12.2766L10.4873 12.252L10.3818 12.3363L10.1709 12.477L9.95996 12.3785L10.0514 12.2027L10.0619 12.0762L10.2307 11.8266L12.2697 9.84375L13.2752 11.7L13.1275 12.2555Z" fill="#6A4C2D" stroke="black" stroke-width="0.9"/>
<path id="Vector_3" d="M14.5758 12.375L15.1031 12.3574L14.8816 12.2449L16.9031 12.1676L16.6184 12.0621L16.3652 11.7176L15.3176 11.6367C15.3176 11.6367 15.2367 11.577 15.1066 11.6086C15.1066 11.5277 15.0047 11.4187 15.0047 11.4187L14.3613 11.373L13.957 11.6473L14.2277 12.3434L14.5758 12.375Z" fill="white" stroke="black" stroke-width="0.9"/>
<path id="Vector_4" d="M12.5088 6.43047L12.5615 6.24766C12.5615 6.24766 12.6564 6.08945 12.6564 6.01914C12.6564 5.94883 12.7268 5.86797 12.7268 5.86797C12.7268 5.86797 12.9377 5.8082 12.9869 5.93828C13.2154 5.59023 13.4861 5.9207 13.4861 5.9207L13.56 5.83281L13.7111 5.64648C13.7111 5.64648 13.9291 5.85039 13.9326 5.88555C13.9326 5.9207 13.9678 5.89609 13.9678 5.89609L14.2033 5.875C14.1956 5.92202 14.1999 5.97024 14.2159 6.01513C14.2319 6.06002 14.259 6.10011 14.2947 6.13164C14.3756 6.18086 14.4494 6.46914 14.4494 6.46914L12.5088 6.43047Z" fill="url(#paint0_linear_186_8909)" stroke="black" stroke-width="0.9"/>
<path id="Vector_5" d="M14.5762 8.59219C14.6184 8.56758 14.7449 8.52891 14.7273 8.33906C14.7133 8.15273 14.5516 8.13164 14.4602 8.13867C14.3955 8.14873 14.3355 8.17815 14.2879 8.22305L13.9891 8.0332C13.9891 8.0332 14.1402 7.08398 14.2984 7.02773C14.4496 6.91875 14.4742 6.87305 14.4742 6.84844C14.4742 6.82031 14.4215 6.76055 14.4215 6.76055L13.4441 6.64453L12.5195 6.75C12.5195 6.75 12.4492 6.8625 12.4598 6.90469C12.4668 6.95039 12.4703 6.99609 12.6355 7.12266C12.8184 7.26328 12.9449 8.07188 12.9449 8.07188C12.9449 8.07188 12.6848 8.19844 12.6707 8.18438C12.6531 8.17031 12.5758 8.15273 12.5371 8.15977C12.4949 8.1668 12.3613 8.23359 12.3613 8.41289C12.3613 8.58867 12.4949 8.69414 12.4949 8.69414C12.4949 8.69414 13.3773 8.58867 13.5109 8.83477C13.6375 8.53945 14.4777 8.64141 14.5762 8.59219Z" fill="#656263" stroke="black" stroke-width="0.9"/>
<path id="Vector_6" d="M15.5248 7.61183C15.5248 7.61183 15.5354 7.50636 15.6092 7.46066C15.6795 7.41144 16.1717 7.38683 16.2877 7.46066C16.4072 7.53097 16.4494 7.89308 16.4494 7.89308C16.4494 7.89308 16.5197 8.02316 16.5268 8.11456L16.5408 8.26925C16.5408 8.26925 16.9346 8.77902 16.9381 9.23956C16.9803 9.54894 16.9732 10.3857 16.8502 10.7021C16.8498 10.9312 16.7905 11.1564 16.6779 11.356C16.6779 11.356 16.7166 11.4263 16.7131 11.4966C16.7096 11.5739 16.6709 11.6407 16.6709 11.6407L17.2404 11.922L17.0295 11.8446L17.2404 12.0204L17.0014 11.9079L17.142 12.0485L16.7975 11.8939L16.9486 12.0415L16.6885 11.9185L16.8396 12.0767C16.8361 12.0661 16.6146 11.9782 16.6146 11.9782L16.6252 12.0626C16.6252 12.0626 16.4494 12.0521 16.4494 11.922C16.3615 11.8693 16.3018 11.8025 16.3018 11.8025L15.8975 11.7321L15.4404 10.361L15.5459 8.04074L15.574 7.92472L15.5248 7.61183Z" fill="black" stroke="black" stroke-width="0.9" stroke-linejoin="round"/>
<path id="Vector_7" d="M15.223 15.025C15.223 15.025 14.9839 14.5328 14.8679 14.5223C14.7625 14.3219 15.2371 12.673 16.1511 12.5781C16.6539 12.6203 16.1933 13.1582 15.8629 12.993C15.9015 13.1371 16.0668 13.3445 16.0668 13.3445C16.0668 13.3445 15.4129 13.6258 15.223 15.025ZM12.066 15.0953C12.066 15.0953 12.2629 14.5328 12.3824 14.5258C12.4984 14.5188 12.066 12.6484 11.1273 12.6344C10.6211 12.6766 11.0851 13.218 11.4191 13.0527C11.3804 13.2004 11.2117 13.4043 11.2117 13.4043C11.2117 13.4043 11.8726 13.6926 12.066 15.0953Z" fill="#FFBB00" stroke="black" stroke-width="0.9"/>
<path id="Vector_8" d="M12.9265 11.5797C12.9265 11.5762 12.6945 11.65 12.8421 11.9031C12.8562 11.8047 12.9581 11.7449 12.9581 11.7449C12.9581 11.7449 12.7999 11.9348 12.9687 12.093C12.9898 11.9418 13.0847 11.8961 13.0847 11.8961C13.0847 11.8961 12.9652 12.2406 13.0847 12.3109C13.0988 12.1738 13.1902 12.1141 13.1902 12.1141C13.1902 12.1141 13.0812 12.4234 13.1761 12.4938C13.1867 12.3742 13.2675 12.325 13.2675 12.325C13.2675 12.325 13.2183 12.6414 13.3413 12.666C13.3449 12.5535 13.4363 12.4445 13.4363 12.4445C13.4363 12.4445 13.3941 12.7047 13.591 12.7188C13.591 12.6168 13.6261 12.5043 13.6261 12.5043C13.6261 12.5043 13.7175 12.7855 13.8441 12.7363V12.5008C13.8441 12.5008 13.9249 12.768 14.0796 12.7188C14.0585 12.6414 14.0902 12.5535 14.0902 12.5535C14.0902 12.5535 14.171 12.7188 14.3187 12.666C14.3433 12.6168 14.3117 12.5184 14.3117 12.5184C14.3117 12.5184 14.5226 12.7398 14.5929 12.6063C14.6562 12.4727 14.4171 12.4305 14.4171 12.4305H14.5788C14.5788 12.4305 14.5296 12.2898 14.3117 12.2617C14.3855 12.2266 14.4628 12.2547 14.4628 12.2547C14.4628 12.2547 14.4171 12.0824 14.1956 12.0648C14.28 12.0367 14.3749 12.0578 14.3749 12.0578C14.3749 12.0578 14.3468 11.8961 14.1042 11.8504C14.1394 11.8082 14.2449 11.8223 14.2449 11.8223C14.2449 11.8223 14.1464 11.6711 14.0339 11.6816C13.9285 11.6887 12.923 11.5762 12.9265 11.5762V11.5797Z" fill="#00713D" stroke="black" stroke-width="0.9"/>
<path id="Vector_9" d="M13.9152 12.3969C13.9152 12.3969 14.0031 12.4391 14.0031 12.4777M13.968 12.3266C13.968 12.3266 14.0805 12.4074 14.0805 12.4672M14.0664 12.2879C14.0664 12.2879 14.1578 12.3441 14.1613 12.4285M14.2176 12.323C14.2176 12.323 14.2633 12.4215 14.2492 12.4391M14.309 12.3758C14.316 12.4531 14.302 12.4566 14.302 12.4566M13.1945 11.8871C13.1945 11.8871 13.3 11.9574 13.293 12.0523M13.1875 11.9715C13.1875 11.9715 13.2367 12.0172 13.2262 12.0488M13.3176 11.8906C13.3176 11.8906 13.3879 11.9891 13.3668 12.0559M13.4371 11.9539C13.4371 11.9539 13.4723 12.0137 13.4406 12.0488M13.4969 11.982C13.4969 11.982 13.532 12.0453 13.4969 12.0664M13.4512 12.1859C13.4512 12.1859 13.5531 12.207 13.5672 12.2809M13.5109 12.1156C13.5109 12.1156 13.6164 12.1227 13.627 12.2352M13.648 12.077C13.6516 12.077 13.7184 12.2 13.7078 12.2352M13.7816 12.091C13.7816 12.091 13.8098 12.2035 13.7887 12.2422M13.8695 12.1332V12.2668M13.7359 11.9539C13.7359 11.9539 13.8027 11.9785 13.7992 12.0418M13.7992 11.8941C13.7992 11.8941 13.8836 11.9434 13.873 12.0348M13.8941 11.8555C13.8941 11.8555 13.968 11.9434 13.9398 12.0383M14.0207 11.8766C14.0207 11.8766 13.9961 11.982 14.0066 12.0277M14.098 11.9504C14.098 11.9504 14.0523 11.9855 14.077 12.0312M13.6867 12.3617C13.6867 12.3617 13.7043 12.4461 13.6867 12.4566M13.5848 12.316C13.5848 12.316 13.634 12.4074 13.6199 12.4531M13.4723 12.3125C13.4723 12.3125 13.532 12.3793 13.5285 12.432M13.3809 12.3266C13.3809 12.3266 13.4371 12.3758 13.4336 12.4074M13.3352 12.4039C13.3352 12.4039 13.3879 12.4566 13.3844 12.4707" stroke="#3EC26D" stroke-width="0.9" stroke-linecap="round"/>
<path id="Vector_10" d="M12.21 8.69023L12.9588 8.67617C12.9588 8.67617 13.451 8.67617 13.5037 8.83789C13.5986 8.62344 14.0275 8.6375 14.0275 8.6375L14.801 8.60938L14.815 10.4797C14.7449 10.8082 14.5931 11.1137 14.3737 11.368C14.1544 11.6224 13.8745 11.8174 13.56 11.9352C13.2367 11.8255 12.9486 11.6314 12.7255 11.3731C12.5023 11.1147 12.3523 10.8014 12.2908 10.4656L12.21 8.69023Z" fill="white" stroke="black" stroke-width="0.9"/>
<path id="Vector_11" d="M12.4766 8.68438L13.5664 11.5883L14.5508 8.62109C14.2449 8.64219 13.5875 8.57188 13.5066 8.85313C13.3801 8.60352 12.691 8.70195 12.4766 8.68438Z" fill="#006B00" stroke="black" stroke-width="0.9"/>
<path id="Vector_12" d="M13.2189 10.2553C13.2611 10.2764 13.2576 9.46777 13.3139 9.44316L13.3561 9.27441C13.3104 9.19004 13.0959 9.19707 13.0186 9.26738C13.0342 9.31841 13.0518 9.36884 13.0713 9.41855C13.1768 9.59082 13.1557 10.2729 13.2189 10.2553Z" fill="#FFC900" stroke="#006B00" stroke-width="0.5" stroke-linecap="round"/>
<path id="Vector_13" d="M12.9273 3.99636C12.9273 3.99636 13.0047 3.90847 13.0082 3.88738C13.0082 3.86628 13.3598 3.85222 13.5637 3.4655C13.6797 3.26511 13.5637 3.38113 13.5637 3.38113L13.5566 3.2862C13.5566 3.2862 13.6973 3.14558 13.648 3.07527C13.5953 3.00144 13.6129 3.17019 13.5285 3.16667C13.4441 3.16316 13.4898 2.98386 13.4898 2.98386C13.4898 2.98386 13.4828 2.96277 13.4582 2.95222C13.423 2.95574 13.4336 3.01902 13.402 3.02253C13.3703 3.03308 13.3422 2.88191 13.3422 2.88191C13.3422 2.88191 13.2895 2.81159 13.2438 3.02956C13.2684 3.26511 13.4195 3.21941 13.4195 3.37058C13.4195 3.52527 13.2859 3.6448 13.2473 3.65183C13.2121 3.65183 13.2227 3.51824 13.2227 3.51824C13.2227 3.51824 13.2016 3.45495 13.1875 3.45495C13.1734 3.45495 13.2648 3.44089 13.2508 3.26863C13.2191 3.05769 13.1945 3.31784 13.1383 3.30378C13.082 3.29675 13.1242 3.11394 13.1453 3.09284C13.1664 3.07175 13.1207 2.98386 13.0012 3.20886C12.9906 3.31433 12.9766 3.18073 12.952 3.18777C12.9098 3.27566 12.9168 3.33542 12.9766 3.41628C13.0645 3.49714 13.1172 3.578 13.1172 3.62019C13.1102 3.66238 13.0645 3.7573 13.0047 3.7573C12.9414 3.7573 13.0047 3.64128 13.0047 3.60261C13.0012 3.56745 12.8957 3.42683 12.8957 3.42683C12.8957 3.42683 12.8219 3.3073 12.8254 3.30378C12.8359 3.30027 12.8219 3.28269 12.7867 3.40222C12.7516 3.52527 12.7094 3.32488 12.7094 3.32488C12.7094 3.32488 12.6602 3.47253 12.7656 3.56394C12.6848 3.55339 12.6777 3.58503 12.6777 3.58503C12.6777 3.62722 12.7832 3.6448 12.8008 3.71863C12.8148 3.78894 12.6883 3.83464 12.6883 3.83464C12.6883 3.83464 12.741 3.90495 12.8887 3.76433C12.8898 3.82109 12.8697 3.87623 12.8324 3.91902C12.8816 3.94011 12.9203 3.93659 12.9273 3.99636Z" fill="#CDAD56" stroke="black" stroke-width="0.9" stroke-linejoin="round"/>
<path id="Vector_14" d="M12.4455 3.99707L12.3752 3.88106C12.3752 3.85997 12.0587 3.90215 11.9041 3.51543C11.8056 3.32911 11.9041 3.43809 11.9041 3.43809L11.9111 3.3502C11.9111 3.3502 11.8056 3.22012 11.8513 3.15332C11.897 3.08653 11.8759 3.24122 11.9357 3.24122C12.006 3.24122 11.9673 3.07598 11.9673 3.07598C11.9673 3.07598 11.9744 3.05489 11.9955 3.04786C12.0236 3.04786 12.0377 3.14629 12.0658 3.15332C12.0904 3.16036 12.1431 3.04082 12.1607 3.0127C12.1853 3.0127 12.1853 2.91778 12.224 3.11817C12.2029 3.32911 12.0271 3.29043 12.0271 3.42754C12.0271 3.56817 12.1396 3.67715 12.1712 3.68067C12.2064 3.68067 12.1923 3.56114 12.1923 3.56114C12.1923 3.56114 12.2099 3.50489 12.224 3.50489C12.2345 3.50489 12.1185 3.52598 12.1326 3.36778C12.1572 3.22012 12.217 3.37832 12.2662 3.36778C12.3119 3.35723 12.2591 3.20957 12.2732 3.18848C12.2732 3.16739 12.3435 3.06895 12.3716 3.2834C12.3822 3.38184 12.4349 3.19903 12.456 3.20254C12.4912 3.2834 12.442 3.38887 12.3892 3.4627C12.3189 3.53653 12.2837 3.61739 12.2837 3.65606C12.2873 3.69122 12.3048 3.74043 12.3611 3.74043C12.4138 3.74043 12.3787 3.67364 12.3822 3.63848C12.3822 3.60332 12.4736 3.49082 12.4736 3.49082C12.4912 3.4627 12.4736 3.40997 12.4947 3.38536C12.5228 3.38536 12.5334 3.34668 12.565 3.45567C12.5931 3.56817 12.6318 3.38536 12.6318 3.38536C12.6318 3.38536 12.6705 3.52247 12.5826 3.60332C12.6529 3.59278 12.6564 3.62442 12.6564 3.62442C12.6564 3.65957 12.6212 3.67715 12.6107 3.74395C12.6002 3.81426 12.6459 3.84942 12.6459 3.84942C12.6459 3.84942 12.6037 3.91622 12.4771 3.78614C12.4786 3.83697 12.4958 3.8861 12.5263 3.92676C12.4841 3.94434 12.4525 3.94434 12.4455 3.99707Z" fill="#CDAD56" stroke="black" stroke-width="0.8" stroke-linejoin="round"/>
<path id="Vector_15" d="M14.3684 9.11602C14.3016 9.05625 14.298 9.10898 14.2629 9.09492C14.2488 9.09141 14.2348 9.07383 14.2207 9.05977C14.2102 9.04922 14.1961 9.0457 14.1785 9.03867L14.1609 9.09141C14.1574 9.10898 14.1785 9.13711 14.1785 9.16172C14.175 9.20039 14.1574 9.23203 14.1082 9.24609C14.1223 9.22148 14.1293 9.21797 14.1258 9.18633C14.1258 9.16875 14.0766 9.13711 14.0836 9.12305C14.0906 9.09492 14.1047 9.0668 14.0941 9.04219C14.0766 9.05625 14.0484 9.04922 14.0273 9.05625C14.0133 9.06328 14.0098 9.09492 13.9887 9.10898C13.9641 9.11953 13.9113 9.1125 13.8656 9.08789C13.8937 9.0668 13.9148 9.08086 13.943 9.05977C13.957 9.04922 13.9535 9.00703 13.9676 8.99648L14.0273 8.96484C14.0168 8.95078 14.0168 8.92969 14.0062 8.91563C13.9922 8.90156 13.9359 8.90508 13.9254 8.89102C13.9008 8.86289 13.9078 8.82773 13.8832 8.79961C13.9465 8.8207 13.9359 8.85234 13.9535 8.84883C13.9816 8.83477 14.0098 8.83125 14.0238 8.83828C14.0414 8.84531 14.073 8.88398 14.0871 8.89102L14.1082 8.83477C14.1152 8.81719 14.0836 8.78555 14.0871 8.76797C14.1012 8.73281 14.1293 8.70117 14.1398 8.66602L14.1539 8.76445C14.1574 8.77852 14.1891 8.78906 14.1926 8.80664C14.1926 8.82422 14.175 8.86289 14.1785 8.87695H14.2418C14.2594 8.86992 14.2699 8.82773 14.2875 8.82422C14.3227 8.81719 14.3508 8.8207 14.3895 8.82422C14.3613 8.85234 14.3402 8.84883 14.3227 8.87344C14.3086 8.88398 14.3297 8.91914 14.2875 8.94375C14.2734 8.95078 14.2348 8.94023 14.2207 8.95078L14.2559 8.99297C14.2699 9.00703 14.3262 9.01055 14.3367 9.02812C14.3613 9.05273 14.3719 9.08789 14.3684 9.11602ZM12.6914 9.14414C12.7582 9.08789 12.7652 9.13711 12.7969 9.12305C12.8145 9.11953 12.825 9.10195 12.8391 9.08789C12.8496 9.07734 12.8637 9.07383 12.8812 9.0668L12.8988 9.11953C12.9059 9.13711 12.8812 9.16523 12.8812 9.18984C12.8883 9.23203 12.9023 9.26016 12.9516 9.27773C12.9375 9.24961 12.9305 9.24609 12.934 9.21445C12.934 9.19688 12.9832 9.16523 12.9797 9.15117C12.9691 9.12656 12.9551 9.09492 12.9656 9.07031C12.9867 9.08438 13.0113 9.07734 13.0324 9.08437C13.05 9.09141 13.05 9.12305 13.0746 9.13711C13.0992 9.14766 13.152 9.14062 13.1941 9.11602C13.1695 9.09492 13.1449 9.10898 13.1203 9.09141C13.1063 9.08086 13.1062 9.03516 13.0922 9.02461L13.0324 8.99297C13.0465 8.97891 13.043 8.95781 13.057 8.94375C13.0676 8.92969 13.1238 8.9332 13.1344 8.91914C13.159 8.89102 13.1555 8.85586 13.1801 8.82773C13.1168 8.84883 13.1238 8.88047 13.1098 8.87695C13.0781 8.86289 13.05 8.85937 13.0324 8.86641C13.0184 8.87344 12.9867 8.91211 12.9727 8.91914L12.9516 8.86289C12.9445 8.84531 12.9797 8.81367 12.9727 8.79609C12.9621 8.76094 12.9305 8.73281 12.9199 8.69766L12.9059 8.79258C12.9059 8.81016 12.8707 8.81719 12.8707 8.83477C12.8672 8.85234 12.8848 8.89102 12.8848 8.90508H12.8215C12.8039 8.89805 12.7898 8.85586 12.7723 8.85234C12.7371 8.84531 12.709 8.84883 12.6738 8.85234C12.6984 8.88047 12.7195 8.88047 12.7371 8.90156C12.7512 8.91211 12.7336 8.94727 12.7723 8.97187C12.7863 8.97891 12.825 8.96836 12.8391 8.97891L12.8039 9.02109C12.7898 9.03516 12.7336 9.04219 12.723 9.05625C12.6984 9.08086 12.6879 9.11602 12.6914 9.14414Z" fill="#FFC900"/>
<path id="Vector_16" d="M14.3088 9.30203C14.249 9.35125 13.8693 9.44617 13.8658 9.77664C13.8623 10.1071 13.9326 10.1844 13.8623 10.1915C13.7217 10.1915 13.7041 9.82234 13.7076 9.66062C13.7111 9.49539 13.7146 9.51999 13.7146 9.51999C13.7146 9.51999 13.8096 9.54812 13.8025 9.62546C13.7955 9.70632 13.8974 9.42859 13.8623 9.35476C13.9256 9.41804 14.0064 9.38992 14.0064 9.38992C14.0064 9.38289 13.9607 9.33367 13.9396 9.29499C13.9221 9.25984 14.0099 9.31609 14.0099 9.31609C14.0099 9.31609 14.0135 9.25281 13.9361 9.25632C13.8306 9.25632 13.9537 9.22117 13.9537 9.22117C13.9537 9.22117 14.0099 9.27742 14.0521 9.22117C14.0064 9.17195 13.9467 9.15085 13.9467 9.15085C13.9467 9.15085 13.8904 9.04539 13.8131 9.02429C13.7287 9.0032 13.7428 9.05945 13.6408 9.05242C13.6232 9.08757 13.6232 9.0946 13.6619 9.10515C13.5916 9.15085 13.6267 9.24578 13.6267 9.24578C13.6267 9.24578 13.7357 9.20007 13.7322 9.2739C13.7287 9.35124 13.6689 9.33718 13.6267 9.29148C13.5916 9.27039 13.581 9.31257 13.581 9.31257L13.6373 9.36882C13.6373 9.36882 13.5318 9.36882 13.5037 9.43914C13.5346 9.43447 13.5661 9.43811 13.5951 9.44968C13.5951 9.44968 13.4721 9.50593 13.4615 9.53406C13.4474 9.56218 13.4439 9.4989 13.4404 9.4989L13.3244 9.46023L13.2822 9.63953C13.2822 9.63953 13.3631 9.71687 13.4053 9.69226C13.4474 9.66765 13.5283 9.59382 13.574 9.61492C13.4369 9.72039 13.2998 9.86804 13.2224 9.88914C13.2049 9.87507 13.1381 9.80476 13.1099 9.83992C13.0818 9.87507 13.1029 9.91374 13.1381 9.91023C13.1732 9.91023 13.0256 9.94539 13.0572 10.0087C13.0853 10.0719 13.0818 10.0649 13.1099 10.0509C13.1381 10.0333 13.0853 10.0298 13.1908 9.99812C13.2928 9.96999 13.2892 9.94187 13.2892 9.94187C13.2892 9.94187 13.2681 9.98757 13.2119 9.99812C13.1592 10.0122 13.1135 10.0122 13.1275 10.0298C13.1381 10.0438 13.1627 10.0755 13.1521 10.093C13.1451 10.1071 13.2681 10.0052 13.2998 10.086C13.3806 10.086 13.4369 9.98054 13.3982 9.92429C13.3982 9.98757 13.4404 10.0087 13.4158 10.0368C13.3947 10.0649 13.6021 9.94187 13.5002 9.86453C13.5283 9.92781 13.5318 9.97703 13.5318 9.97703C13.5318 9.97703 13.5775 9.97703 13.5916 9.95593C13.6021 9.94187 13.567 10.0052 13.581 10.0157C13.5986 10.0298 13.6724 10.1001 13.6408 10.1493C13.6232 10.1212 13.6162 10.0755 13.5951 10.079C13.5705 10.0825 13.4721 10.1528 13.4123 10.1598C13.356 10.1598 13.4826 10.3778 13.4826 10.3778C13.4826 10.3778 13.3947 10.3637 13.3806 10.3708C13.3701 10.3813 13.3103 10.2969 13.2998 10.3462C13.2787 10.4094 13.3174 10.3848 13.3174 10.3848C13.3174 10.3848 13.2681 10.3602 13.24 10.3884C13.2119 10.42 13.1838 10.4481 13.2049 10.4587C13.226 10.4727 13.3103 10.4727 13.3244 10.4692C13.3349 10.4657 13.226 10.4762 13.2189 10.4903C13.2084 10.5009 13.1943 10.5501 13.2189 10.5641C13.24 10.5817 13.2998 10.5571 13.3033 10.543C13.3068 10.5325 13.3103 10.5887 13.3103 10.5887C13.3103 10.5887 13.4158 10.5993 13.4158 10.4938C13.4158 10.3884 13.4228 10.5677 13.4228 10.5677C13.4228 10.5677 13.5248 10.5852 13.5283 10.4798C13.5283 10.3743 13.5389 10.5501 13.5389 10.5501C13.5389 10.5501 13.6092 10.5325 13.6092 10.5149C13.6092 10.4973 13.6021 10.7259 13.5564 10.7891C13.4791 10.7364 13.4334 10.8208 13.4334 10.8208C13.4334 10.8208 13.4369 10.9438 13.4299 10.9719C13.4228 11.0001 13.4791 10.9544 13.4826 10.9438C13.4896 10.9298 13.5599 10.8946 13.5635 10.8876L13.5846 10.8384C13.5846 10.8384 13.5705 10.8946 13.5424 10.9052C13.5142 10.9122 13.4896 10.9403 13.5002 10.9684C13.5107 10.993 13.5564 11.0106 13.5705 11.0352C13.5846 11.0598 13.6408 10.8876 13.6408 10.8876L13.6443 10.9227C13.6443 10.9227 13.7146 10.9087 13.7252 10.877C13.7322 10.8419 13.6478 10.8137 13.7146 10.7575C13.7849 10.7048 13.7146 10.8067 13.7146 10.8067C13.7146 10.8067 13.7392 10.8876 13.7568 10.8876C13.7709 10.8876 13.8096 10.7364 13.7709 10.6977L13.8306 10.7469C13.8306 10.7469 13.8869 10.5887 13.8271 10.5712L13.7392 10.5395C13.7392 10.5395 13.7744 10.4973 13.7568 10.4938C13.7392 10.4903 13.8377 10.5852 13.8553 10.5641C13.8693 10.536 13.8904 10.4587 13.7779 10.42C13.6654 10.3778 13.7779 10.2583 13.7779 10.2583C13.7779 10.2583 13.8482 10.3427 13.8974 10.2969C13.9467 10.2512 13.8939 10.2512 13.8939 10.2512C13.8939 10.2512 14.0381 10.1598 14.0416 10.1106L13.9678 10.1177C13.9678 10.1177 14.0486 10.0614 14.031 9.97703C13.9959 10.0192 13.9572 10.0192 13.9572 10.0192C13.9572 10.0192 14.0275 9.9489 14.0135 9.8821C13.9713 9.91726 13.9783 9.94187 13.9467 9.93132C13.9221 9.92429 13.8764 9.66062 13.9818 9.64304C14.0943 9.62546 14.0346 9.77312 14.0381 9.77312C14.0416 9.77312 14.2033 9.70281 14.0381 9.59734C14.0767 9.58328 14.1611 9.66062 14.1611 9.66062C14.1611 9.66062 14.126 9.47429 13.9502 9.59031C13.9924 9.54109 14.0205 9.51296 14.0556 9.51999C14.0908 9.53054 14.2139 9.52 14.2139 9.48132C14.1857 9.4532 14.1189 9.49187 14.0803 9.48132C14.0451 9.46726 14.3334 9.44617 14.3088 9.30554V9.30203Z" fill="#FFC900" stroke="#006B00" stroke-width="0.5" stroke-linecap="round" stroke-linejoin="round"/>
<path id="Vector_17" d="M13.0645 9.41044C13.0645 9.41044 13.2227 9.32255 13.3 9.43154M13.3598 9.60029C13.3598 9.60029 13.307 9.65654 13.2965 9.65654M13.4688 9.77607C13.4688 9.77607 13.6129 9.79013 13.7078 9.63544" stroke="#006B00" stroke-width="0.5" stroke-linecap="round"/>
<path id="Vector_18" d="M13.6268 9.73047C13.6268 9.73047 13.6373 9.81484 13.6619 9.81484C13.683 9.81484 13.6232 9.83594 13.5986 9.81836C13.6268 9.85352 13.6408 9.92383 13.5986 9.94844" stroke="#006B00" stroke-width="0.5" stroke-linecap="round"/>
<g id="Vector_19">
<path d="M13.549 10.7852C13.549 10.7852 13.4998 10.8449 13.4365 10.8484Z" fill="#E80000"/>
<path d="M13.549 10.7852C13.549 10.7852 13.4998 10.8449 13.4365 10.8484" stroke="#006B00" stroke-width="0.5" stroke-linecap="round"/>
</g>
<path id="Vector_20" d="M13.6086 10.5191C13.6086 10.5191 13.577 10.3504 13.5981 10.3082C13.6086 10.2555 13.6614 10.2379 13.7 10.1641" stroke="#006B00" stroke-width="0.5" stroke-linecap="round"/>
<path id="Vector_21" d="M13.5947 10.3988C13.5947 10.3988 13.5561 10.4973 13.3838 10.4656M13.6404 10.1457C13.6404 10.1457 13.651 10.2793 13.4963 10.2301M13.4471 9.54102C13.4471 9.54102 13.3838 9.60078 13.4119 9.68164" stroke="#006B00" stroke-width="0.5" stroke-linecap="round"/>
<path id="Vector_22" d="M13.6826 9.39788C13.6826 9.39788 13.767 9.36273 13.7811 9.34515C13.8031 9.32402 13.8209 9.29899 13.8338 9.27132C13.8408 9.24671 13.7775 9.20804 13.8092 9.15179C13.8303 9.12718 13.8584 9.12366 13.9041 9.15179C13.9498 9.18343 13.8619 9.06038 13.8127 9.05687C13.767 9.05335 13.7354 9.09202 13.7248 9.08148C13.7107 9.07444 13.7248 9.11663 13.7072 9.11663C13.6896 9.11663 13.7459 9.15179 13.7424 9.16937C13.7424 9.19046 13.8057 9.26077 13.8021 9.27835C13.7986 9.29593 13.7037 9.39085 13.6826 9.39788Z" fill="#006B00"/>
<path id="Vector_23" d="M13.7461 9.11914C13.7812 9.10859 13.7848 9.11914 13.7812 9.15429C13.7637 9.14375 13.7566 9.13671 13.7461 9.11914Z" fill="#FFC900" stroke="#FFC900" stroke-width="0.5" stroke-linecap="round" stroke-linejoin="round"/>
<path id="Vector_24" d="M13.4926 10.9867C13.4926 10.9867 13.4785 11.0746 13.5102 11.0817C13.5102 11.0465 13.5172 11.0254 13.5242 11.0149L13.4891 10.9867H13.4926ZM13.4188 10.8778C13.3906 10.8778 13.3379 10.9024 13.352 10.934C13.3766 10.9094 13.4012 10.934 13.4152 10.9129C13.4223 10.9059 13.4223 10.8883 13.4188 10.8778ZM13.4188 10.818C13.4188 10.818 13.373 10.8074 13.366 10.8426C13.3977 10.8391 13.4082 10.8356 13.4188 10.8426V10.818ZM13.2184 10.3223C13.2184 10.3223 13.2465 10.3328 13.2535 10.3645C13.2781 10.3504 13.2887 10.2836 13.2184 10.3223ZM13.148 10.3961C13.1516 10.3961 13.2078 10.361 13.2184 10.3961C13.2043 10.4067 13.1973 10.4172 13.1867 10.4172C13.1797 10.4172 13.1656 10.3961 13.1516 10.3961H13.148ZM13.1445 10.5192C13.1445 10.5192 13.1797 10.484 13.1973 10.5051C13.2078 10.5297 13.1832 10.5262 13.1832 10.5262L13.1445 10.5192ZM13.0953 9.84417C13.0953 9.84417 13.0461 9.82307 13.025 9.85823C13.0602 9.86174 13.0707 9.87229 13.0848 9.88635C13.0777 9.87229 13.0742 9.8512 13.0953 9.84417ZM13.0074 10.0973C13.0074 10.0973 13.0074 10.041 13.032 10.0164C13.0461 10.027 13.0496 10.0375 13.0602 10.0551C13.0426 10.0621 13.0145 10.0621 13.0039 10.0973H13.0074ZM13.127 10.0551C13.127 10.0551 13.0777 10.0797 13.0918 10.1078C13.1094 10.0903 13.127 10.0973 13.127 10.0938V10.0586V10.0551Z" fill="#E80000" stroke="#006B00" stroke-width="0.5" stroke-linejoin="round"/>
<path id="Vector_25" d="M13.0539 9.50917C13.0363 9.53026 13.0785 9.57948 13.1207 9.56893C13.1312 9.51971 13.0644 9.49159 13.0539 9.50917Z" fill="#FFC900" stroke="#006B00" stroke-width="0.5" stroke-linejoin="round"/>
<path id="Vector_26" d="M13.1025 9.47187C13.1025 9.47187 13.1096 9.51055 13.1447 9.5C13.1412 9.46836 13.1131 9.44727 13.1131 9.44727C13.1131 9.4543 13.1201 9.46836 13.1025 9.47187ZM13.1271 9.58789C13.1271 9.58789 13.1447 9.6125 13.1869 9.56328C13.1693 9.57031 13.1342 9.55273 13.1342 9.55273C13.1342 9.55273 13.1342 9.58789 13.1271 9.58789Z" fill="#E80000" stroke="#006B00" stroke-width="0.5" stroke-linejoin="round"/>
<path id="Vector_27" d="M13.0536 9.4181C13.036 9.43919 13.0606 9.46732 13.1028 9.46029C13.1134 9.41107 13.0641 9.40052 13.0536 9.4181Z" fill="#FFC900" stroke="#006B00" stroke-width="0.5" stroke-linejoin="round"/>
<path id="Vector_28" d="M13.071 9.21367C13.071 9.21367 13.2398 9.16797 13.3277 9.23828C13.4191 9.30859 13.4191 9.24531 13.4191 9.24531C13.4191 9.24531 13.5492 9.29453 13.5878 9.28398C13.623 9.27344 13.5597 9.2875 13.6124 9.25586C13.6652 9.22422 13.507 9.26289 13.4929 9.19609C13.4718 9.15742 13.4964 9.10469 13.4437 9.12227C13.405 9.07305 13.4683 9.03789 13.4542 8.98867C13.4156 9.01328 13.3945 8.97812 13.3628 9.04492C13.2925 9.03086 13.3523 8.93242 13.2749 8.92188C13.2749 8.99219 13.2152 8.99922 13.2117 9.03789C13.1765 9.0625 13.0253 9.15391 13.071 9.21367Z" fill="url(#paint1_linear_186_8909)"/>
<path id="Vector_29" d="M11.1234 14.7238C11.2289 14.6957 11.8266 14.8539 12.0551 15.1C12.0059 14.6605 11.8863 14.3266 11.8863 14.3266C11.8863 14.3266 11.5313 14.2246 11.482 14.2738C11.4117 14.3477 11.1973 14.5727 11.1234 14.7238ZM10.9406 12.6988C10.8984 12.7059 10.8563 12.734 10.8141 12.8043C10.7648 12.9203 10.7332 13.2191 10.6629 13.2895C10.5926 13.3598 10.5293 13.3668 10.5293 13.4301C10.5293 13.4934 10.5363 13.641 10.7262 13.6937C10.9125 13.7008 11.2113 13.3949 11.2113 13.3949C11.2113 13.3949 11.366 13.2262 11.4258 13.0469C11.0672 13.1734 10.807 12.8359 10.9406 12.6988ZM16.1719 14.6535C15.8264 14.6755 15.4967 14.8059 15.2297 15.0262C15.2593 14.7656 15.3159 14.5087 15.3984 14.2598C15.4406 14.2457 15.75 14.1578 15.7957 14.207C15.866 14.2809 16.0945 14.5059 16.1684 14.6535H16.1719ZM16.3371 12.6426C16.3793 12.6496 16.3934 12.7023 16.4285 12.7727C16.4742 12.8887 16.5234 13.0609 16.5938 13.1312C16.6641 13.2016 16.7238 13.3 16.7238 13.3633C16.7238 13.4266 16.7098 13.5109 16.5234 13.5637C16.3371 13.5707 16.0664 13.3316 16.0664 13.3316C16.0664 13.3316 15.9152 13.1664 15.8555 12.9871C16.2141 13.1102 16.4461 12.7902 16.3371 12.6426Z" fill="#C01500" stroke="black" stroke-width="0.9"/>
<path id="Vector_30" d="M10.7334 14.3406C10.7334 14.3406 11.1061 14.5973 11.1131 14.7168C12.1221 13.2191 14.6955 12.7551 16.1615 14.6113C16.264 14.4668 16.4004 14.3497 16.5588 14.2703C15.0119 12.2559 11.9428 12.5055 10.7334 14.3406Z" fill="#FFBB00" stroke="black" stroke-width="0.9"/>
<path id="Vector_31" d="M14.5543 8.62109H14.702L14.4418 8.95156L14.7582 9.31719L14.1359 10.0977L14.7195 10.8008C14.6563 10.959 14.5789 11.1031 14.4805 11.2332L14.1465 10.8605L14.7547 10.1012L14.2555 9.53516L14.5543 8.62109ZM12.4555 8.68789L12.3008 8.69141L12.5926 9.00781L12.2832 9.39805L12.9301 10.1012L12.3922 10.8184C12.4581 10.982 12.5444 11.1367 12.6488 11.2789L12.9652 10.8781L12.3148 10.1504L12.793 9.54219L12.4555 8.68789Z" fill="#1E5AA6" stroke="black" stroke-width="0.9"/>
<path id="Vector_32" d="M13.1838 10.5742L12.9553 10.8836L13.7779 11.8398C13.9256 11.766 14.0381 11.6816 14.1646 11.5797L13.7357 11.084L13.9115 10.5672L14.1611 10.859L13.3736 11.8645C13.2265 11.7996 13.0893 11.7144 12.9658 11.6113L13.3807 11.084L13.1838 10.5742ZM12.9307 10.0961L13.0783 10.2859L12.9834 10.0293L12.9307 10.0961ZM14.0064 10.2648L14.1295 10.1031L14.0838 10.0398L14.0064 10.2648Z" fill="#1E5AA6" stroke="black" stroke-width="0.9"/>
<path id="Vector_33" d="M15.7461 7.63633C15.7461 7.63633 15.8902 7.51328 15.9922 7.50977" stroke="#FFF700" stroke-width="0.9" stroke-linecap="round"/>
<path id="Vector_34" d="M15.7676 7.61797C15.7676 7.61797 16.6359 7.49492 16.6605 7.4668M15.7711 7.62852C15.7711 7.62148 16.7379 7.54414 16.7379 7.54414" stroke="#FFF700" stroke-width="0.9" stroke-linecap="round"/>
<path id="Vector_35" d="M16.8572 7.63181C16.7939 7.57907 15.7674 7.62829 15.7674 7.62829L16.7342 7.70563M15.7639 7.62829C15.7639 7.62829 16.7693 7.63181 16.7834 7.65642M15.7568 7.63181C15.7604 7.63181 16.7412 7.7197 16.8361 7.84274" stroke="#FFF700" stroke-width="0.9" stroke-linecap="round"/>
<path id="Vector_36" d="M16.8895 8.01974C16.8895 8.01974 16.5555 7.62247 15.7539 7.63302" stroke="#FFF700" stroke-width="0.9" stroke-linecap="round"/>
<path id="Vector_37" d="M15.7568 7.63672C15.7568 7.63672 16.3123 7.67539 16.4881 7.86875" stroke="#FFF700" stroke-width="0.9" stroke-linecap="round"/>
<path id="Vector_38" d="M15.7676 7.62889C15.7676 7.62889 16.1262 7.55858 16.5059 8.01561" stroke="#FFF700" stroke-width="0.9" stroke-linecap="round"/>
<path id="Vector_39" d="M15.5391 8.04102C15.5391 8.04102 16.0383 8.06211 16.0383 8.11133C16.0383 8.15703 15.6692 8.25195 15.6622 8.45586C15.6586 8.66328 15.9434 8.67734 15.9645 8.93398C15.9856 9.19414 15.743 9.23281 15.6938 9.30313C15.6446 9.33828 15.525 9.70039 15.5426 9.91836C15.5567 10.1293 15.62 10.8605 15.7325 11.0082C15.8204 11.075 15.9504 11.293 16.0946 11.2262C16.2352 11.1559 16.1368 10.9098 16.1227 10.8395C16.1086 10.7691 16.1825 10.6602 16.1825 10.5582C16.1825 10.4527 16.1262 10.3719 16.1332 10.3473C16.1368 10.3227 16.527 10.4387 16.5024 10.8254C16.4778 11.2121 16.3231 11.0926 16.3231 11.0926C16.3231 11.0926 16.3723 11.5672 16.2493 11.6305C16.0313 11.75 15.8696 11.6059 15.8696 11.6059L15.8907 11.7043L15.7219 11.6164C15.7219 11.6164 15.5075 11.3105 15.4582 11.1734C15.3955 10.8848 15.366 10.5899 15.3704 10.2945C15.3915 10.1609 15.4055 9.39102 15.395 9.34883C15.3844 9.31367 15.3457 8.6668 15.3704 8.56836C15.395 8.46992 15.5461 8.04102 15.5426 8.04102H15.5391Z" fill="url(#paint2_linear_186_8909)" stroke="black" stroke-width="0.9"/>
<path id="Vector_40" d="M15.0049 7.90976C15.0049 7.90976 15.3494 7.57577 15.5498 7.61444C15.6553 7.61444 15.5568 7.68827 15.5568 7.68827C15.5568 7.68827 15.7326 7.70234 15.7572 7.77968C15.7607 7.81484 15.6729 7.82538 15.6729 7.82538C15.6729 7.82538 15.7432 7.83944 15.7502 7.90273C15.7572 7.96601 15.0119 7.91679 15.0049 7.91327V7.90976Z" fill="#FF7000" stroke="black" stroke-width="0.9"/>
<path id="Vector_41" d="M15.0225 7.89883C15.0225 7.89883 15.3951 7.84961 15.5498 7.69141" stroke="black" stroke-width="0.9"/>
<path id="Vector_42" d="M15.3984 7.79819C15.3984 7.79819 15.6727 7.78764 15.6727 7.82631" stroke="black" stroke-width="0.9"/>
<path id="Vector_43" d="M16.3721 11.7911C16.3721 11.7911 16.6041 11.7384 16.6709 11.654C16.7061 11.6259 16.9135 11.9634 16.3721 11.7946V11.7911Z" fill="white" stroke="black" stroke-width="0.9" stroke-linejoin="round"/>
<path id="Vector_44" d="M16.3092 9.85469C16.3092 9.85469 16.3373 10.034 16.2529 10.157C16.2107 10.2062 16.0771 10.2871 16.0771 10.3469C16.0771 10.4066 16.1264 10.484 16.1193 10.5508C16.1088 10.6211 16.035 10.6914 16.0385 10.7477C16.0385 10.8039 16.1229 11.1168 16.1123 11.1238M15.8803 9.26758C15.8803 9.26758 15.6939 9.33086 15.6553 9.51367" stroke="white" stroke-width="0.9" stroke-linecap="round"/>
<path id="Vector_45" d="M15.7988 7.79832C15.7988 7.79832 15.8621 7.9741 16.0695 7.80535C15.9359 7.62606 15.7988 7.80184 15.7988 7.79832Z" fill="#C75B00" stroke="black" stroke-width="0.9"/>
<path id="Vector_46" d="M15.9504 7.79102C15.9504 7.79805 15.9434 7.80508 15.9293 7.80508C15.9188 7.80508 15.9082 7.79805 15.9082 7.79102C15.9082 7.78047 15.9188 7.77344 15.9293 7.77344C15.9434 7.77344 15.9504 7.78047 15.9504 7.79102Z" fill="black"/>
<path id="Vector_47" d="M14.1223 7.38945C14.1223 7.38945 14.509 7.81133 14.7621 7.8043C14.8078 7.92734 14.6496 8.04336 14.5863 8.09609C14.4562 8.05742 14.3402 8.10664 14.0449 7.7375C14.0625 7.50547 14.1258 7.39648 14.1223 7.38594V7.38945ZM14.6496 6.40859C14.6988 6.25391 14.8008 6.12734 14.8852 6.1168C14.8641 5.99727 15.0715 5.46992 15.6691 5.26953C15.7043 5.54023 15.4125 5.80391 15.4125 5.80391C15.4125 5.80391 16.2949 5.65273 16.4742 5.42773C16.4566 5.52969 16.2773 6.15547 15.3352 6.15195C15.6938 6.48945 15.2227 6.76016 15.0188 6.6793C15.3914 6.39805 14.9133 6.22227 14.6496 6.40859Z" fill="white" stroke="black" stroke-width="0.9"/>
<path id="Vector_48" d="M14.9521 6.18817C15.1279 6.07567 15.1947 6.07567 15.3389 6.09676C15.2334 6.11082 15.2334 6.11785 15.2334 6.11785C15.2334 6.11785 15.2264 6.13192 15.2896 6.18817C15.2193 6.17059 15.1525 6.13192 14.9521 6.18817Z" fill="#CCCCCD" stroke="#CCCCCC" stroke-width="0.9"/>
<path id="Vector_49" d="M14.8818 6.11719C14.8818 6.11719 15.2334 5.92734 15.4303 5.80078" stroke="black" stroke-width="0.9"/>
<path id="Vector_50" d="M14.579 8.09715C14.579 8.09715 15.0642 8.23074 15.1204 7.53465C15.015 7.2323 14.8673 6.58543 15.0923 6.39559C14.8849 6.25496 14.6634 6.3991 14.6634 6.3991C14.6493 6.43426 14.4665 6.69441 14.7126 7.15145C14.1255 6.99676 14.3646 7.54871 14.3646 7.54871C14.3892 7.46082 14.6986 7.37996 14.7759 7.82293C14.8111 7.93191 14.565 8.10418 14.579 8.09715Z" fill="#0000FF" stroke="black" stroke-width="0.9"/>
<path id="Vector_51" d="M15.1246 7.54023C15.1246 7.54023 15.6379 7.2625 15.6238 6.61914C15.1879 6.62617 15.0332 7.19219 15.0332 7.19219L15.1246 7.54023Z" fill="#0000FF" stroke="black" stroke-width="0.9"/>
<path id="Vector_52" d="M12.8289 7.50586C12.8289 7.50586 12.4492 7.83633 12.2312 7.73086C12.073 7.8293 11.8867 7.66055 11.8867 7.66055C11.8867 7.66055 12.1047 8.46914 12.8922 7.88203C12.884 7.75481 12.8628 7.62875 12.8289 7.50586Z" fill="white" stroke="black" stroke-width="0.9"/>
<path id="Vector_53" d="M12.2275 7.71758C12.2626 7.54883 12.3927 7.46797 12.4982 7.62617C12.6388 7.6543 12.7794 7.07422 12.2767 7.16914C12.4173 6.40977 11.9954 6.125 11.9954 6.125C11.9954 6.125 11.8443 6.96875 11.9111 7.12344C11.9814 7.27813 11.8126 6.83516 11.2677 6.71211C11.2572 7.34492 11.8759 7.64375 11.8759 7.64375C11.8759 7.64375 12.0517 7.80547 12.2275 7.71758Z" fill="#0000FF" stroke="black" stroke-width="0.9"/>
<path id="Vector_54" d="M12.2761 7.16484C12.2761 7.16484 12.0406 7.36523 12.0933 7.63945M11.9175 7.13672C11.9175 7.13672 11.8613 7.33359 11.9808 7.61133" stroke="black" stroke-width="0.9"/>
<path id="Vector_55" d="M11.8828 7.67821C11.8828 7.67821 11.9883 7.49892 12.2273 7.72743" stroke="black" stroke-width="0.9"/>
<path id="Vector_56" d="M11.925 6.43984C11.925 6.43633 11.5629 6.43984 11.7809 6.80547C11.6191 6.8582 11.2605 6.62266 11.5102 6.31328C10.7016 6.29219 10.3711 5.90547 10.3711 5.54688C10.6066 5.79297 11.1762 5.69453 11.3766 5.8457C11.1305 5.61719 11.1797 5.30078 11.1797 5.30078C11.1797 5.30078 11.8723 5.5082 11.9953 6.11992C11.9531 6.23945 11.9355 6.45039 11.925 6.43984Z" fill="white" stroke="black" stroke-width="0.9"/>
<path id="Vector_57" d="M11.3691 5.82812C11.5027 5.96523 11.8438 6.00391 12.0195 6.15508" stroke="black" stroke-width="0.9"/>
<path id="Vector_58" d="M11.5273 6.22876C11.5273 6.22876 11.8086 6.1936 11.893 6.29204C11.7805 6.29204 11.7453 6.26743 11.5836 6.3272C11.6293 6.30259 11.6188 6.2604 11.6434 6.2604C11.668 6.2604 11.5379 6.22876 11.5273 6.22876Z" fill="#CCCCCD" stroke="#CCCCCC" stroke-width="0.6"/>
<path id="Vector_59" d="M12.9412 4.00731C12.9412 4.00731 13.0959 3.87371 13.2682 3.99676C13.1908 4.22527 12.9166 4.13738 12.9166 4.13738C12.9166 4.13738 12.9236 4.2534 12.8955 4.30613C12.9518 4.34832 12.9975 4.48543 12.9975 4.48543C12.9975 4.48543 13.2787 4.41512 13.342 4.54168C13.4475 4.52762 13.5283 4.54168 13.5283 4.54168C13.5283 4.54168 13.7463 4.48543 13.8236 4.48543C13.9045 4.48543 14.1506 4.54871 14.1752 4.59442C14.1963 4.64012 14.2807 4.94598 14.3334 4.94598C14.3896 4.93895 14.1998 5.01629 14.1506 4.93895C14.1014 4.8616 14.1154 5.0409 14.1154 5.0409C14.1154 5.0409 14.2701 5.20613 14.2877 5.24129C14.3053 5.27645 14.1928 5.57527 14.2771 5.7827C14.2033 5.78973 14.1963 5.86707 14.1963 5.86707C14.1928 5.95848 14.0768 5.98309 14.0768 5.98309L14.0486 5.86004L13.9713 5.90574L14.0064 5.80731C14.0064 5.80731 14.1119 5.55418 14.1189 5.46981C14.126 5.38895 14.0205 5.24129 13.9396 5.24129C13.8588 5.24129 13.799 5.50145 13.799 5.50145C13.799 5.50145 13.7568 5.69832 13.7709 5.7159L13.7146 5.65262C13.7146 5.65262 13.6795 5.77215 13.6514 5.80731C13.6232 5.84246 13.5635 5.86004 13.5635 5.86004C13.5635 5.86004 13.5248 5.74051 13.5354 5.69481C13.5494 5.6491 13.7604 5.46981 13.7463 5.34324C13.7252 5.21317 13.7463 5.24481 13.7393 5.24129C13.7322 5.23778 13.6303 5.14637 13.6232 5.09363C13.6197 5.04442 13.4861 5.16043 13.3139 5.12176C13.2611 5.21668 13.2541 5.44871 13.2541 5.44871C13.2541 5.44871 13.2365 5.72645 13.2717 5.75809C13.3068 5.79324 13.1803 5.86004 13.1803 5.86004L13.0889 5.98309L13.0537 5.91277L12.9939 5.95496L13.0291 5.86356C13.0291 5.79324 13.117 5.6034 13.117 5.44168C13.117 5.28348 13.1311 5.11473 13.1311 5.11473C13.1311 5.11473 12.9588 5.10418 12.9658 5.27645C12.9693 5.45223 12.9236 5.46278 12.9307 5.51199C12.9412 5.56121 12.9869 5.70184 12.9729 5.74402C12.9588 5.78621 12.9025 5.80027 12.9025 5.80027L12.892 5.82137C12.892 5.82137 12.7232 5.89871 12.7268 5.93387L12.7232 5.84246L12.7127 5.70887C12.7127 5.70887 12.8146 5.64559 12.8146 5.48387C12.8146 5.32215 12.79 5.30106 12.7971 5.2659C12.7971 5.23074 12.8217 5.09363 12.8182 5.07957C12.8146 5.06902 12.7232 5.11473 12.6951 5.11473C12.667 5.11473 12.7443 5.02332 12.7549 4.95301C12.7619 4.8827 12.6635 5.01629 12.5791 4.93895C12.6178 4.85457 12.6775 4.82996 12.6846 4.76317C12.6951 4.69988 12.6213 4.81942 12.558 4.77371C12.5615 4.71395 12.6283 4.66121 12.6283 4.66121C12.6283 4.66121 12.5756 4.65418 12.5545 4.66121C12.5123 4.64715 12.6002 4.58387 12.6037 4.48895C12.6072 4.39754 12.5545 4.36238 12.5545 4.35887C12.5545 4.35184 12.4631 4.27449 12.449 4.24285C12.435 4.21121 12.435 4.17254 12.435 4.17254C12.435 4.17254 12.2838 4.28504 12.1045 4.05301C12.2662 3.91238 12.442 4.01785 12.442 4.01785C12.442 4.01785 12.4877 3.88778 12.6986 3.89481C12.9096 3.90535 12.9518 4.02488 12.9447 4.01082L12.9412 4.00731Z" fill="#923F00" stroke="black" stroke-width="0.9"/>
<path id="Vector_60" d="M14.0945 6.37695C14.0945 6.37695 14.4812 6.3875 14.4848 6.59492C14.4883 6.80234 14.3688 6.74609 14.3652 6.74609L14.084 6.71094L14.0945 6.37695Z" fill="#0000FF" stroke="black" stroke-width="0.9"/>
<path id="Vector_61" d="M13.7178 6.32032C13.7178 6.32032 14.1994 6.3168 14.1748 6.52422C14.1467 6.73516 14.0236 6.69297 14.0236 6.69297L13.7916 6.67539L13.7178 6.32032Z" fill="#FFFEFF" stroke="black" stroke-width="0.9"/>
<path id="Vector_62" d="M13.4469 6.29688L13.7281 6.32148C13.7281 6.32148 13.8934 6.34258 13.8863 6.5043C13.8793 6.66602 13.7141 6.66953 13.7141 6.66953L13.4434 6.65195L13.4469 6.29688Z" fill="#0000FF" stroke="black" stroke-width="0.9"/>
<path id="Vector_63" d="M12.7971 6.37695C12.7936 6.37695 12.4104 6.3875 12.4033 6.59492C12.4033 6.80234 12.5229 6.74609 12.5264 6.74609L12.8076 6.71094L12.7971 6.37695Z" fill="white" stroke="black" stroke-width="0.9"/>
<path id="Vector_64" d="M13.1693 6.32032C13.1693 6.32032 12.6912 6.3168 12.7158 6.52422C12.7439 6.73516 12.8669 6.69297 12.8669 6.69297L13.099 6.67539L13.1693 6.32032Z" fill="#0000FF" stroke="black" stroke-width="0.9"/>
<path id="Vector_65" d="M13.4403 6.29688L13.1626 6.32148C13.1626 6.32148 12.9938 6.34258 13.0044 6.5043C13.0114 6.66602 13.1731 6.66953 13.1731 6.66953L13.4438 6.65195L13.4403 6.29688Z" fill="white" stroke="black" stroke-width="0.9"/>
<path id="Vector_66" d="M14.1858 8.6137C14.1858 8.6137 14.3862 8.31839 14.4706 8.35003C14.5444 8.37464 14.4882 8.60315 14.453 8.62425L14.1858 8.6137ZM12.8147 8.66643C12.7515 8.57854 12.66 8.33597 12.5757 8.40276C12.5054 8.42737 12.5581 8.65589 12.5933 8.67698L12.8147 8.66643Z" fill="#5E0043" stroke="black" stroke-width="0.9"/>
<path id="Vector_67" d="M12.9482 8.08242C12.9482 8.08242 13.335 8.32148 13.465 8.32852C13.5951 8.33555 13.9994 8.01562 13.9994 8.01562" stroke="black" stroke-width="0.9"/>
<path id="Vector_68" d="M12.9863 7.13633L13.0566 7.04492L13.4328 7.23477L13.816 7.06602L13.8863 7.14688L13.4645 7.4457L12.9863 7.13633Z" fill="#5E0043" stroke="black" stroke-width="0.9"/>
<path id="Vector_69" d="M12.6883 7.13672C12.7199 7.17188 12.959 7.46719 13.0047 7.70977C13.0469 7.95586 12.9801 7.37578 12.9801 7.37578C12.9801 7.37578 13.2789 7.52344 13.2895 7.61836C13.2965 7.70977 13.4301 7.61133 13.4371 7.59375L12.5723 7.03125L12.6883 7.13672ZM14.1684 7.11914C14.1684 7.11914 13.852 7.53398 13.8871 7.98398C13.8238 7.76953 13.8766 7.41094 13.8766 7.41094L13.8063 7.45664C13.8063 7.45664 13.7359 7.75898 13.648 7.8082C13.6305 7.77305 13.634 7.75898 13.634 7.75898C13.634 7.75898 13.5391 7.88203 13.518 7.89609C13.5004 7.90664 13.525 8.31797 13.525 8.31797C13.525 8.31797 13.5602 8.61328 13.5953 8.60977C13.5629 8.62598 13.5313 8.64357 13.5004 8.6625L13.4617 7.87148L13.5496 7.78359C13.5496 7.78359 13.6691 7.63945 13.6762 7.49883C13.6455 7.52492 13.6095 7.5441 13.5707 7.55508C13.5707 7.55508 13.5531 7.75547 13.5074 7.78359C13.4582 7.81172 13.4582 7.86094 13.4582 7.86094L13.4477 7.60078L14.1684 7.11914Z" fill="#474747" stroke="#474747" stroke-width="0.9" stroke-linejoin="round"/>
<path id="Vector_70" d="M13.4473 7.59766L13.507 8.8457" stroke="black" stroke-width="0.9" stroke-linecap="round"/>
<path id="Vector_71" d="M12.6807 8.19141C12.6807 8.19141 12.8213 8.2793 12.874 8.53242C13.3451 8.49727 13.4893 8.66602 13.4893 8.66602C13.4893 8.66602 13.876 8.47969 14.0518 8.51484C14.1171 8.40455 14.1976 8.30396 14.2908 8.21602" stroke="black" stroke-width="0.9"/>
<path id="Vector_72" d="M12.48 6.97186L13.4468 7.60467L14.3116 7.01756C14.3116 7.01756 14.4944 6.91913 14.4769 6.84881C14.4628 6.7785 14.3995 6.80311 14.3714 6.81366C14.3362 6.82772 13.4609 7.44647 13.4609 7.44647L12.5292 6.85936C12.5292 6.85936 12.4589 6.83827 12.4484 6.88046C12.4343 6.92616 12.473 6.95077 12.4835 6.97186H12.48Z" fill="#B4B6B9" stroke="black" stroke-width="0.9"/>
<path id="Vector_73" d="M14.2029 6.80664C14.2029 6.80664 13.9568 6.70117 13.9568 6.79258C13.9568 6.88398 13.9674 6.89453 14.0061 6.95078C14.0447 7.01055 13.9744 7.0457 13.9744 7.0457L13.9533 6.98242C13.9393 6.94375 13.8057 6.91211 13.7951 6.86992C13.7811 6.8207 13.8232 6.74687 13.7424 6.73984C13.665 6.7293 13.5877 6.77148 13.5701 6.86289C13.5561 6.95078 13.4541 7.16523 13.4541 7.16523L13.4646 6.68359C13.6404 6.69414 13.9639 6.73281 14.21 6.76094C14.1361 6.75039 14.2381 6.76797 14.2346 6.79258C14.2275 6.81367 14.2029 6.81367 14.2064 6.80664H14.2029ZM13.3346 6.68711C13.2889 6.68711 13.0674 6.71172 13.0146 6.74687C12.9584 6.77852 13.1025 6.82773 13.085 6.87344C13.0674 6.91562 13.0639 7.00703 12.9936 6.98594C12.9232 6.96836 12.6912 6.85234 12.6842 6.81016C12.6771 6.775 12.6279 6.77148 12.6279 6.77148C12.6279 6.77148 13.3029 6.68008 13.3311 6.68711H13.3346Z" fill="#474747" stroke="#474747" stroke-width="0.9" stroke-linejoin="round"/>
<path id="Vector_74" d="M13.4402 6.62969V7.22031M12.9867 5.93359L12.709 6.38711" stroke="black" stroke-width="0.9"/>
<g id="Vector_75">
<path d="M13.4824 5.92383C13.4824 5.92383 13.602 6.08555 13.5879 6.13125C13.6321 6.18717 13.6666 6.25017 13.6898 6.31758" fill="url(#paint3_linear_186_8909)"/>
<path d="M13.4824 5.92383C13.4824 5.92383 13.602 6.08555 13.5879 6.13125C13.6321 6.18717 13.6666 6.25017 13.6898 6.31758" stroke="black" stroke-width="0.9"/>
</g>
<path id="Vector_76" d="M13.9357 5.89844C13.9357 5.89844 13.6826 6.25352 13.6896 6.28164" stroke="black" stroke-width="0.9"/>
<path id="Vector_77" d="M12.635 4.19508C12.6315 4.21617 12.5998 4.22321 12.5647 4.21266C12.5295 4.20211 12.5049 4.1775 12.5119 4.15641C12.519 4.13531 12.5471 4.12828 12.5823 4.13883C12.6174 4.14938 12.642 4.17399 12.635 4.19508ZM12.7369 4.18453C12.744 4.20914 12.7756 4.21617 12.8108 4.20563C12.8459 4.19508 12.867 4.17047 12.8635 4.14938C12.8565 4.12828 12.8248 4.12125 12.7932 4.1318C12.758 4.14235 12.7334 4.16695 12.7369 4.18805V4.18453Z" fill="black"/>
<path id="Vector_78" d="M15.7146 11.6094C15.7146 11.6094 15.6162 11.627 15.6197 11.6375C15.6232 11.6445 15.3455 11.6551 15.3385 11.6445C15.335 11.6375 15.2998 11.6937 15.2998 11.6937L15.342 11.6656C15.342 11.6656 15.4123 11.7359 15.4334 11.7289C15.451 11.7254 15.4229 11.757 15.4299 11.7641C15.4334 11.7676 15.4545 11.75 15.4545 11.75L15.9115 11.743L15.7146 11.6094ZM15.8834 11.7535L15.5072 11.7641C15.5072 11.7641 15.4158 11.8484 15.4088 11.8695C15.4018 11.8906 15.4686 11.8941 15.4686 11.8941L15.4896 11.9645L15.5389 11.9469C15.5389 11.9469 15.8553 11.9961 16.1471 11.9293C16.2947 11.8801 16.3229 11.8168 16.2174 11.7781C16.1119 11.743 15.8834 11.7535 15.8834 11.7535Z" fill="#FF7000" stroke="black" stroke-width="0.9" stroke-linejoin="round"/>
<path id="Vector_79" d="M14.6037 12.5156L15.2717 12.4875L15.1486 12.382L16.9697 12.3082L16.9064 12.1641L14.8674 12.2449L15.1135 12.3609L14.565 12.375L14.5791 12.4348L14.4385 12.4277C14.4385 12.4277 14.5967 12.491 14.6037 12.5191V12.5156Z" fill="url(#paint4_linear_186_8909)" stroke="black" stroke-width="0.9"/>
<path id="Vector_80" d="M15.3561 8.80346C15.3033 8.77534 15.0678 8.7437 14.8076 8.91596L14.8182 9.51713C14.8182 9.51713 15.2014 9.30971 15.3877 9.35893C15.3771 9.1726 15.3771 8.93002 15.3561 8.80346Z" fill="url(#paint5_linear_186_8909)" stroke="black" stroke-width="0.9"/>
<path id="Vector_81" d="M11.6367 10.634L10.0547 12.209M12.3434 10.6445L11.0566 12.3426M12.2871 10.2051L10.568 12.2828M10.5152 12.2547L10.684 12.0613M12.6141 11.2492L11.9461 12.1703M11.918 12.2898L11.9355 12.6414M12.9199 11.5727L12.2133 12.4551M12.7934 12.3883L13.0781 11.9172M12.9023 11.8258L12.5578 12.2125M12.7969 11.4566L12.5613 11.7449M12.4945 11.0383C12.4945 11.0383 11.7738 12.0895 11.7879 12.1738M12.4207 10.8977C12.4031 10.9117 11.7984 11.7063 11.7984 11.7063M11.7633 11.9629L11.6578 12.093M11.5172 12.2969L11.352 12.5148" stroke="black" stroke-width="0.9"/>
<path id="Vector_82" d="M11.5595 8.21646C11.5595 8.21646 11.5103 8.36764 11.5595 8.44498C11.6087 8.52232 11.911 9.14107 11.911 9.14107C11.911 9.14107 12.122 8.88443 12.1993 8.8774C12.2767 8.87037 12.2415 9.54537 12.2415 9.54537C12.2415 9.54537 12.1149 9.66139 12.0376 9.65435C11.9638 9.64732 12.2274 9.91803 12.2204 10.1465C12.2134 10.3786 11.8689 11.5176 11.7458 11.5387C11.6228 11.5598 11.8021 11.3278 11.795 11.268C11.788 11.2047 11.7528 11.2469 11.7247 11.1766C11.6966 11.1063 11.7669 11.0008 11.7528 10.9305C11.7388 10.8637 11.679 10.8778 11.672 10.8286C11.6649 10.7794 11.7107 10.7653 11.7071 10.7126C11.6966 10.6563 11.6228 10.6704 11.6298 10.6212C11.6368 10.5719 11.6439 10.593 11.6368 10.5016C11.6298 10.4137 11.6157 10.5649 11.5384 10.5719C11.461 10.579 11.3978 10.7547 11.3978 10.7547C11.3978 10.7547 11.2466 10.9657 11.0919 10.8708C11.1833 11.0676 11.113 11.152 11.0778 11.1555C11.0427 11.1626 11.106 11.3102 11.0251 11.3172C10.9407 11.3243 11.0849 11.6442 10.9899 11.6688C11.0954 11.718 11.011 11.7813 11.011 11.7813C11.011 11.7813 10.7685 11.8024 10.8212 12.1153C10.1146 11.8657 9.76651 11.4333 9.77354 10.9973C9.78057 10.5579 9.91768 10.1606 10.2587 10.0129C10.3571 9.65435 10.5224 9.26412 10.5224 9.26412C10.5224 9.26412 10.4942 9.10592 10.5153 9.00045C10.5364 8.89498 10.6349 8.78951 10.6349 8.78951C10.6349 8.78951 10.6208 8.54342 10.6278 8.41685C10.6349 8.29029 10.6841 8.23756 10.6911 8.16725C10.6982 8.09693 10.67 7.74537 10.7403 7.67857C10.8107 7.61881 10.9407 7.62584 11.011 7.58365C11.0814 7.54146 11.1692 7.46412 11.2571 7.47115C11.3521 7.47818 11.4259 7.54146 11.4259 7.54146C11.4259 7.54146 11.7669 7.54146 11.788 7.67154C11.8091 7.80514 11.7177 7.85435 11.7177 7.85435C11.7177 7.85435 11.7669 8.04068 11.5595 8.21646Z" fill="#8A9396" stroke="#2B2B2B" stroke-width="0.9"/>
<path id="Vector_83" d="M11.2571 7.73487C11.2677 7.75245 11.2431 7.78761 11.2009 7.81222C11.1587 7.83331 11.1165 7.83683 11.106 7.81222C11.0954 7.79464 11.12 7.75948 11.1622 7.73839C11.2044 7.7173 11.2466 7.71378 11.2571 7.73487Z" fill="#CECFCF" stroke="#2B2B2B" stroke-width="0.9"/>
<path id="Vector_84" d="M11.1977 7.76875C11.1977 7.7793 11.1871 7.78984 11.173 7.78984C11.159 7.78984 11.1484 7.7793 11.1484 7.76875C11.1484 7.75469 11.159 7.74414 11.173 7.74414C11.1871 7.74414 11.1977 7.75469 11.1977 7.76875Z" fill="black"/>
<path id="Vector_85" d="M11.707 7.99844C11.707 7.99844 11.7914 8.37461 11.6895 8.63477M11.7316 7.8332C11.7316 7.8332 11.8969 8.05117 11.8758 8.32539M11.7492 7.7875C11.7527 7.7875 11.8898 7.90352 11.8828 7.98438M11.7809 7.73828C11.7809 7.73828 11.8723 7.80156 11.8934 7.86484" stroke="#2B2B2B" stroke-width="0.4"/>
<path id="Vector_86" d="M11.7391 7.69922C11.7391 7.69922 11.4157 8.22656 11.4579 8.55703" stroke="black" stroke-width="0.9"/>
<path id="Vector_87" d="M11.7598 7.68555C11.7598 7.68555 11.3309 7.93867 11.25 8.77539" stroke="#2B2B2B" stroke-width="0.4"/>
<path id="Vector_88" d="M11.7107 7.83984L11.542 7.96641" stroke="black" stroke-width="0.9"/>
<path id="Vector_89" d="M11.0918 8.82461C11.0918 8.82461 11.3309 7.82969 11.7527 7.68555" stroke="#2B2B2B" stroke-width="0.4"/>
<path id="Vector_90" d="M11.9178 9.15888C11.9178 9.15888 12.1463 8.87059 12.199 8.88114C12.2553 8.89169 12.2377 9.54559 12.2377 9.54559C12.2377 9.54559 12.069 9.67216 12.0303 9.66864C11.9951 9.66161 12.2201 9.9745 12.2166 10.0905L12.2061 10.21C12.2061 10.21 12.2061 10.1397 12.1533 10.0272C12.1006 9.91825 12.1322 9.78817 11.7877 9.50692C11.6998 9.33114 11.9565 9.61239 12.0092 9.5702C12.0619 9.52802 11.9143 9.16239 11.9178 9.15888Z" fill="#2B2B2B" stroke="#2B2B2B" stroke-width="0.9"/>
<path id="Vector_91" d="M11.5137 7.54102C11.5137 7.54102 11.4152 7.56562 11.4047 7.60781C11.3906 7.64297 11.3344 7.68516 11.3027 7.67109C11.2711 7.65703 11.2148 7.61133 11.2148 7.61133" stroke="#2B2B2B" stroke-width="0.9"/>
<path id="Vector_92" d="M10.9683 7.875C10.9683 7.875 10.8241 8.02266 10.8909 8.04023C10.9612 8.0543 11.0351 7.92422 11.0351 7.92422C11.0351 7.92422 11.0351 8.14922 11.0984 8.11406C11.1581 8.07891 11.3374 7.95234 11.3374 7.95234C11.3374 7.95234 11.4007 7.94531 11.4112 7.95234C11.4253 7.95234 11.5765 8.08594 11.6784 8.04023C11.6222 8.18789 11.5554 8.20547 11.5554 8.20547C11.5554 8.20547 11.4499 8.33906 11.3163 8.31094C11.1792 8.27578 11.1441 8.22305 11.1441 8.22305C11.1441 8.22305 11.0316 8.23008 10.9964 8.17734C10.9612 8.12461 10.9507 8.09648 10.9507 8.09648C10.9507 8.09648 10.8839 8.15977 10.8663 8.13164C10.8487 8.09648 10.8663 7.9207 10.9683 7.87852V7.875Z" fill="#2B2B2B" stroke="#2B2B2B" stroke-width="0.9" stroke-linejoin="round"/>
<path id="Vector_93" d="M11.7842 7.67517C11.7842 7.67517 11.517 7.59782 11.4256 7.7279C11.3342 7.86149 11.3553 7.93532 11.4045 7.94587" stroke="#2B2B2B" stroke-width="0.9"/>
<path id="Vector_94" d="M11.823 7.66758C11.823 7.70273 11.802 7.72383 11.7738 7.72383C11.7457 7.72383 11.7246 7.69922 11.7246 7.66758C11.7246 7.63594 11.7457 7.61133 11.7738 7.61133C11.802 7.61133 11.823 7.63594 11.823 7.66758Z" fill="black"/>
<path id="Vector_95" d="M11.05 8.349C11.05 8.349 11.1554 8.51423 11.289 8.55994C11.4191 8.60564 11.1976 8.64783 11.0675 8.55994C10.9761 8.42986 10.9972 8.33845 10.9972 8.33845C10.9972 8.33845 11.0253 8.31384 11.05 8.349ZM11.9781 9.33337C11.9781 9.33337 11.6757 8.9115 11.5878 8.88689C11.5 8.86228 11.6546 8.8447 11.746 8.93611C11.841 9.024 11.7214 8.78845 11.7214 8.78845L11.9781 9.33337Z" fill="#2B2B2B" stroke="#2B2B2B" stroke-width="0.9"/>
<path id="Vector_96" d="M11.0218 11.7834C11.1378 11.7518 11.6475 12.0752 11.76 12.1561C11.8761 12.2369 12.1186 12.1877 12.1186 12.1877C12.1186 12.1877 12.0061 12.2545 11.9358 12.2686C11.8655 12.2862 12.1432 12.2862 12.1432 12.2862C12.1432 12.2862 11.4893 12.4655 10.8284 12.1174C10.7686 11.8467 10.969 11.7869 11.0218 11.7834Z" fill="#2B2B2B" stroke="#2B2B2B" stroke-width="0.9" stroke-linejoin="round"/>
<path id="Vector_97" d="M11.7672 9.43854C11.7672 9.43854 11.6793 9.42096 11.6371 9.36823C11.5914 9.32252 11.5316 9.19596 11.4649 9.14674C11.4016 9.09401 11.0781 8.91471 10.9586 8.92877C10.8426 8.93932 10.8074 8.91471 10.7934 8.90065C10.7793 8.88659 10.7301 8.90768 10.7371 8.97096C10.7477 9.02721 10.6492 9.1608 10.6844 9.22409C10.7195 9.28737 10.8883 9.54049 10.9199 9.55104C10.9551 9.55807 10.934 9.6987 10.934 9.6987C10.934 9.6987 11.0816 9.84987 11.1203 9.8569C11.1555 9.86745 11.1941 9.89205 11.1906 9.92721C11.1871 9.96237 11.0254 10.1592 11.0254 10.1592C11.0254 10.1592 10.8566 10.2471 10.8531 10.2999C10.8531 10.3491 10.8953 10.451 11.0289 10.4862C11.2033 10.5147 11.3818 10.5063 11.5527 10.4616C11.5789 10.3847 11.5908 10.3037 11.5879 10.2225C11.5738 10.2049 11.4824 10.1487 11.4367 10.1557C11.391 10.1663 11.3524 10.2014 11.3559 10.212C11.3559 10.219 11.2891 10.2542 11.2891 10.2225C11.2891 10.1874 11.4262 10.0362 11.4367 10.0467C11.4508 10.0608 11.6441 10.0819 11.6793 10.1768C11.7145 10.2717 11.7145 10.3421 11.8129 10.3315C11.9149 10.321 12.0555 10.226 12.066 10.0362C12.0801 9.84635 11.9535 9.71627 11.9254 9.69518C11.8902 9.6776 11.7848 9.61432 11.7777 9.5862C11.7707 9.55807 11.7496 9.45963 11.7672 9.43854Z" fill="#2B2B2B" stroke="#2B2B2B" stroke-width="0.9"/>
<path id="Vector_98" d="M9.95957 10.286C9.95957 10.286 10.283 10.2017 10.3674 10.2052C10.4482 10.2052 10.7646 10.3528 10.8596 10.4442C10.9475 10.5321 11.1373 10.7466 11.2604 10.7255C11.3834 10.7079 11.4186 10.6833 11.4186 10.6833L11.3693 10.7747C11.3693 10.7747 11.2709 10.8028 11.2217 10.7888C11.1689 10.7782 11.074 10.7466 10.9756 10.6482C10.8771 10.5532 10.5748 10.2966 10.3146 10.3142C10.058 10.3317 9.91035 10.5849 9.91035 10.5849C9.91035 10.5849 9.91035 10.4618 9.92441 10.4337C9.93496 10.4056 9.86816 10.4935 9.86816 10.4935L9.95957 10.286Z" fill="#2B2B2B" stroke="#2B2B2B" stroke-width="0.9"/>
<path id="Vector_99" d="M11.1519 10.5371C11.1519 10.5371 11.2327 10.5617 11.3663 10.5617C11.4999 10.5617 11.5737 10.502 11.5737 10.502L11.5632 10.4492L11.5843 10.3789C11.5843 10.3789 11.6897 10.4844 11.6862 10.502C11.6827 10.523 11.644 10.5336 11.644 10.5336L11.63 10.4809L11.5948 10.5266C11.5948 10.5266 11.3979 10.6812 11.2925 10.6566C11.187 10.6355 11.0886 10.5652 11.1167 10.5512C11.1413 10.5336 11.1554 10.5371 11.1519 10.5371ZM10.6808 10.8113C10.6808 10.8113 10.5647 10.8113 10.512 10.8359C10.4593 10.8605 10.4417 10.8922 10.4065 10.8852C10.3714 10.8852 10.3433 10.8359 10.3538 10.8148C10.3679 10.7902 10.4347 10.7516 10.5647 10.7621C10.6983 10.7727 10.6808 10.8113 10.6808 10.8113ZM11.0886 11.1277C11.0886 11.1242 11.0815 10.959 11.0183 10.8922C10.9954 10.8674 10.9667 10.8489 10.9346 10.8385C10.9026 10.828 10.8685 10.8259 10.8354 10.8324C10.8003 10.8395 10.969 10.9133 10.9866 10.9625C11.0007 11.0117 11.0569 11.1453 11.0429 11.177C11.0253 11.2121 11.0007 11.082 10.8987 11.0469C10.7933 11.0117 10.6526 11.0328 10.6808 11.0785C10.7124 11.1242 10.8249 11.0785 10.8847 11.1805C10.9444 11.2789 10.9901 11.3809 10.9901 11.3809L11.0077 11.3105L11.0569 11.2965L11.064 11.1594L11.0886 11.1277Z" fill="#2B2B2B" stroke="#2B2B2B" stroke-width="0.9"/>
<path id="Vector_100" d="M11.0037 11.6609L10.8982 11.45C10.8982 11.45 10.8631 11.3129 10.7752 11.2742C10.6873 11.2391 10.5643 11.2461 10.5643 11.2918C10.5643 11.3375 10.7576 11.3973 10.7682 11.4219C10.7822 11.4465 10.7752 11.4887 10.7576 11.4922C10.7436 11.4922 10.6557 11.457 10.6135 11.4676C10.5678 11.4781 10.5432 11.5379 10.4799 11.5203C10.4131 11.5027 10.3604 11.2953 10.385 11.2742C10.4096 11.2531 10.3357 11.3094 10.3217 11.2566C10.3076 11.2039 10.3428 11.0352 10.3217 11.0105C10.2936 10.993 10.1705 10.9191 10.1705 10.9051C10.1705 10.891 10.1775 10.0719 10.8596 10.7504C10.5678 10.4023 10.4518 10.441 10.399 10.4375C10.3568 10.4375 10.0932 10.4621 10.0264 10.7996C9.95606 11.1371 9.87872 10.9262 9.87872 10.9262C9.87872 10.9262 9.86465 11.0738 9.93497 11.116C10.0053 11.1582 9.89981 11.2777 9.89981 11.2777C9.89981 11.2777 9.77676 10.9684 9.79434 10.8313C9.76507 11.0645 9.81457 11.3008 9.93497 11.5027C10.1624 11.7624 10.4478 11.9648 10.7682 12.0934C11.0178 11.7137 11.0072 11.668 11.0072 11.6609H11.0037Z" fill="#2B2B2B" stroke="#2B2B2B" stroke-width="0.9" stroke-linejoin="round"/>
<path id="Vector_101" d="M10.5572 11.6657C10.5572 11.6657 10.6978 11.6833 10.7329 11.7536C10.7716 11.8239 10.7892 11.9329 10.7892 11.9329C10.8103 11.8872 10.8244 11.8485 10.8665 11.8134C10.9122 11.7782 10.9474 11.7782 10.9439 11.7501C10.9439 11.7255 10.7997 11.5743 10.7259 11.5673C10.6556 11.5567 10.5255 11.6446 10.5255 11.6446C10.5255 11.6446 10.5009 11.6798 10.5607 11.6657H10.5572Z" fill="#8A9396" stroke="#2B2B2B" stroke-width="0.9" stroke-linejoin="round"/>
<path id="Vector_102" d="M10.874 12.0234C10.874 12.0234 11.2326 12.1887 11.8197 12.1992" stroke="#8A9396" stroke-width="0.9" stroke-linecap="round"/>
<path id="Vector_103" d="M12.0658 10.3672C12.0658 10.3672 12.0342 10.666 11.8057 11.2566" stroke="#2B2B2B" stroke-width="0.9" stroke-linecap="round"/>
<path id="Vector_104" d="M12.0234 10.5508C12.0234 10.5508 11.9531 10.7652 11.7598 10.927" stroke="#2B2B2B" stroke-width="0.9"/>
<path id="Vector_105" d="M10.9756 14.2727L11.0389 14.2023L11.0564 14.2199L11.0529 14.227L11.0459 14.234V14.2375L11.0529 14.2445L11.1338 14.3148L11.1408 14.3219H11.1443L11.1514 14.3184L11.1654 14.2938C11.1678 14.2844 11.1678 14.275 11.1654 14.2656C11.1654 14.2586 11.1619 14.2492 11.1549 14.2375L11.1795 14.2234L11.2146 14.2902L11.1197 14.3957L11.0986 14.3816L11.1057 14.3746L11.1092 14.3676V14.3605L11.1021 14.3535L11.0213 14.2832L11.0143 14.2762H11.0072L11.0037 14.2832L10.9967 14.2902L10.9756 14.2727ZM11.1092 14.1215L11.2252 14.009L11.2814 14.0371L11.2709 14.0582L11.2428 14.0547H11.2217L11.2041 14.0723L11.183 14.0934L11.2182 14.1285L11.2217 14.1215L11.2322 14.1074V14.1004L11.2252 14.0898L11.2182 14.0863L11.2357 14.0688L11.292 14.125L11.2779 14.1426L11.2709 14.1355L11.2604 14.1285H11.2533L11.2428 14.1391L11.2357 14.1461L11.2674 14.1777L11.2709 14.1813H11.2744L11.2814 14.1777L11.2955 14.1637L11.3131 14.1391V14.1145C11.3131 14.1027 11.3107 14.0922 11.3061 14.0828L11.3307 14.0723L11.3658 14.1426L11.2463 14.2551L11.2287 14.2375V14.234L11.2393 14.2234V14.2164L11.2322 14.2094L11.1584 14.1355L11.1479 14.1285H11.1443L11.1373 14.132L11.1303 14.1391L11.1127 14.1215H11.1092ZM11.3518 13.893C11.3752 13.8719 11.3986 13.8625 11.4221 13.8648C11.4502 13.8648 11.4736 13.8766 11.4924 13.9C11.5041 13.9141 11.5123 13.9305 11.517 13.9492C11.5193 13.9656 11.517 13.982 11.51 13.9984C11.5053 14.0148 11.4936 14.0301 11.4748 14.0441C11.4561 14.0605 11.435 14.0688 11.4115 14.0688C11.3811 14.0688 11.3564 14.057 11.3377 14.0336C11.3189 14.0102 11.3107 13.9867 11.3131 13.9633C11.3131 13.9352 11.3248 13.9117 11.3482 13.893H11.3518ZM11.3693 13.9141C11.36 13.9234 11.3553 13.9352 11.3553 13.9492C11.3553 13.9656 11.3623 13.982 11.3764 13.9984C11.3904 14.0148 11.4057 14.0254 11.4221 14.0301C11.4361 14.0301 11.4479 14.0266 11.4572 14.0195C11.4689 14.0102 11.4748 13.9984 11.4748 13.9844C11.4748 13.968 11.4678 13.9516 11.4537 13.9352L11.4221 13.9105L11.3939 13.9035C11.3846 13.9035 11.3764 13.907 11.3693 13.9141ZM11.5592 13.7242L11.5732 13.7137H11.5768L11.6682 13.6539L11.6646 13.6469L11.6787 13.6363L11.7385 13.6785L11.7209 13.6996L11.6998 13.6891H11.6611V13.7031L11.7244 13.791L11.7314 13.8016H11.742L11.7561 13.7945L11.7701 13.8156L11.6928 13.8684L11.6787 13.8473H11.6822L11.6928 13.8367V13.8297L11.6857 13.8191L11.6225 13.7277L11.6189 13.7242H11.6154C11.6107 13.7266 11.6072 13.7312 11.6049 13.7383L11.6014 13.7594V13.784L11.5768 13.791L11.5592 13.7207V13.7242ZM11.7314 13.6117L11.8686 13.5273L11.9178 13.5695L11.9002 13.5906C11.8932 13.5836 11.885 13.5789 11.8756 13.5766H11.8545C11.8475 13.5766 11.8404 13.5801 11.8334 13.5871L11.8088 13.6012L11.8334 13.6434L11.8404 13.6363L11.851 13.6293C11.8533 13.627 11.8533 13.6246 11.851 13.6223V13.6082L11.8439 13.6012L11.865 13.5906L11.9072 13.6609L11.8861 13.6715L11.8826 13.6645L11.8756 13.6539H11.8686L11.8545 13.6609L11.8475 13.6645L11.8686 13.6996L11.8721 13.7102H11.8756L11.8861 13.7066L11.9002 13.6961C11.9096 13.6914 11.9166 13.6855 11.9213 13.6785L11.9318 13.6539V13.6188H11.9564L11.9705 13.6891L11.8299 13.7734L11.8158 13.7523H11.8229L11.8299 13.7418C11.8322 13.7418 11.8322 13.7395 11.8299 13.7348V13.7242L11.7736 13.6363L11.7666 13.6258H11.7631L11.7525 13.6293L11.7455 13.6328L11.7314 13.6117ZM11.9248 13.4957L12.0303 13.443L12.0514 13.4324L12.0795 13.4289L12.1006 13.4359L12.1182 13.4535C12.1252 13.4676 12.1252 13.4805 12.1182 13.4922C12.1135 13.5063 12.1064 13.518 12.0971 13.5273L12.1533 13.5484L12.1639 13.552H12.1779L12.185 13.5449L12.199 13.5695L12.1428 13.5977L12.0514 13.552L12.0373 13.559L12.0549 13.5941L12.0619 13.6047H12.076L12.083 13.5977L12.0971 13.6223L12.0127 13.6645L12.0021 13.6434L12.0092 13.6363L12.0162 13.6328V13.6188L11.9635 13.5203L11.96 13.5133H11.9459L11.9389 13.5203L11.9248 13.4957ZM12.0021 13.4922L12.0232 13.5344L12.0514 13.5203L12.0689 13.5063C12.0736 13.5039 12.076 13.5004 12.076 13.4957V13.4781L12.0654 13.4711C12.0607 13.4688 12.0561 13.4688 12.0514 13.4711L12.0303 13.4781L12.0021 13.4922ZM12.1393 13.3867L12.2482 13.3375L12.2729 13.3305H12.2975C12.3068 13.3305 12.315 13.3328 12.3221 13.3375L12.3361 13.3586C12.3408 13.3703 12.3408 13.382 12.3361 13.3938C12.3291 13.4078 12.3197 13.4195 12.308 13.4289L12.3643 13.4535L12.3748 13.457H12.3924L12.3994 13.4535L12.41 13.4746L12.3537 13.4992L12.2623 13.45L12.2482 13.457L12.2658 13.4922L12.2693 13.5027H12.2834L12.2939 13.4992L12.3045 13.5238L12.2166 13.559L12.2061 13.5344H12.2131L12.2236 13.5273V13.5133L12.1779 13.4148L12.1744 13.4043H12.1604L12.1533 13.4113L12.1393 13.3867ZM12.2166 13.3867L12.2377 13.4324L12.2623 13.4184L12.2869 13.4078L12.2939 13.3938V13.3797L12.2834 13.3691C12.2787 13.3668 12.274 13.3668 12.2693 13.3691L12.2482 13.3727L12.2166 13.3867ZM12.4275 13.2672L12.4697 13.2496L12.5752 13.3691L12.5857 13.3797H12.5998L12.6068 13.4043L12.5225 13.4359L12.5154 13.4078H12.5189C12.5236 13.4078 12.5271 13.4055 12.5295 13.4008V13.3973L12.5225 13.3867L12.5119 13.3727L12.4592 13.3938V13.4254H12.4803L12.4873 13.4465L12.417 13.4711L12.41 13.4465L12.4205 13.443V13.4359L12.424 13.4289L12.4275 13.2672ZM12.4592 13.3656L12.4943 13.3516L12.4592 13.3094V13.3656ZM12.5787 13.2109L12.6596 13.1863L12.7229 13.2918V13.1688L12.8107 13.1441L12.8178 13.1688L12.8072 13.1723C12.8025 13.1723 12.8002 13.1746 12.8002 13.1793V13.1898L12.8283 13.2953L12.8318 13.3059H12.8564L12.8635 13.327L12.7756 13.3551L12.7686 13.327H12.7756L12.7826 13.3234L12.7861 13.3164V13.3094L12.751 13.1969V13.3621L12.7264 13.3691L12.642 13.232L12.6736 13.3445V13.3516H12.6982L12.7053 13.3727L12.6314 13.3973L12.6244 13.3691H12.6314L12.6385 13.3656L12.642 13.3586V13.348L12.6104 13.2426V13.2355H12.5857L12.5787 13.2109ZM12.9584 13.1125L13.0568 13.0949L13.092 13.0914L13.1131 13.0984L13.1307 13.116L13.1412 13.1371C13.1436 13.1535 13.14 13.1676 13.1307 13.1793C13.1189 13.1934 13.1025 13.2027 13.0814 13.2074L13.0463 13.2109L13.0568 13.2461V13.2566H13.0814L13.085 13.2812L12.9936 13.2988L12.99 13.2742H12.9971L13.0076 13.2707V13.2531L12.99 13.1477L12.9865 13.1406L12.983 13.1371H12.9654L12.9584 13.1125ZM13.0322 13.1301L13.0428 13.1828H13.0604L13.0814 13.1723C13.0861 13.1699 13.0885 13.1664 13.0885 13.1617V13.1441C13.0885 13.1371 13.085 13.1313 13.0779 13.1266L13.0322 13.1301ZM13.1623 13.0773L13.2783 13.0598H13.3029L13.3275 13.0633C13.3369 13.068 13.3439 13.0738 13.3486 13.0809L13.3557 13.102C13.358 13.1184 13.3545 13.1312 13.3451 13.1406C13.3357 13.15 13.324 13.157 13.31 13.1617L13.3557 13.2039L13.3662 13.2109H13.3908V13.2391L13.3311 13.2461L13.2607 13.1723H13.2467V13.2109L13.2537 13.225C13.2584 13.2273 13.2631 13.2273 13.2678 13.225H13.2748L13.2783 13.2531L13.1869 13.2637L13.1834 13.2391H13.1904L13.201 13.2355V13.218L13.1904 13.1125V13.1055L13.1834 13.102H13.1658L13.1623 13.0773ZM13.2326 13.0984L13.2432 13.1477L13.2713 13.1441L13.2959 13.1371L13.3064 13.1266V13.1125L13.3029 13.0984L13.2889 13.0914H13.2678L13.2326 13.0984ZM13.5068 13.0352C13.5373 13.0352 13.5619 13.0434 13.5807 13.0598C13.5994 13.0785 13.6111 13.102 13.6158 13.1301C13.6158 13.1488 13.6111 13.1664 13.6018 13.1828C13.5947 13.1969 13.583 13.2086 13.5666 13.218C13.5549 13.2273 13.5373 13.2332 13.5139 13.2355C13.4857 13.2355 13.4623 13.2285 13.4436 13.2145C13.4201 13.198 13.4084 13.1746 13.4084 13.1441C13.4084 13.1137 13.4166 13.0891 13.433 13.0703C13.4518 13.0492 13.4752 13.0375 13.5033 13.0352H13.5068ZM13.5068 13.0703C13.4928 13.0703 13.4811 13.075 13.4717 13.0844C13.4623 13.0984 13.4588 13.1172 13.4611 13.1406C13.4611 13.1617 13.467 13.1781 13.4787 13.1898C13.4881 13.1992 13.4998 13.2039 13.5139 13.2039C13.5279 13.2039 13.5396 13.198 13.549 13.1863C13.5584 13.1723 13.5619 13.1547 13.5596 13.1336C13.5596 13.1172 13.5572 13.1055 13.5525 13.0984C13.5479 13.0867 13.5408 13.0785 13.5314 13.0738C13.5244 13.0691 13.5162 13.0668 13.5068 13.0668V13.0703ZM13.651 13.0352H13.7846L13.8057 13.0492L13.8197 13.0703L13.8232 13.0914C13.8232 13.1078 13.8174 13.1219 13.8057 13.1336C13.7939 13.1453 13.7764 13.1512 13.7529 13.1512H13.7178V13.1863L13.7213 13.1934L13.7248 13.1969H13.7424V13.225H13.651V13.1969H13.6686L13.6721 13.1934V13.0598H13.651V13.0352ZM13.7213 13.0668V13.1195H13.76L13.7705 13.109L13.774 13.0914C13.774 13.082 13.7705 13.075 13.7635 13.0703L13.7424 13.0668H13.7213ZM13.8584 13.0352L13.9744 13.0422C13.9838 13.0422 13.992 13.0445 13.999 13.0492C14.0084 13.0492 14.0166 13.0527 14.0236 13.0598L14.0412 13.0773V13.102C14.0412 13.116 14.0365 13.1277 14.0271 13.1371C14.0154 13.1441 14.0025 13.1488 13.9885 13.1512L14.0236 13.2004L14.0307 13.2074L14.0377 13.2109H14.0482L14.0553 13.2145V13.2391H13.992L13.9357 13.1512H13.9217L13.9182 13.1863V13.2004L13.9217 13.2039H13.9393V13.232L13.8443 13.225V13.2004H13.8654L13.8689 13.1969V13.1863L13.8795 13.0809V13.0703L13.876 13.0668H13.8619L13.8549 13.0633L13.8584 13.0352ZM13.9287 13.0703L13.9217 13.123H13.9779L13.9885 13.1125C13.9932 13.1102 13.9955 13.1066 13.9955 13.102L13.992 13.0879L13.9814 13.0773H13.9568L13.9252 13.0703H13.9287ZM14.0975 13.0527L14.1854 13.0668V13.0914H14.1643L14.1572 13.1055L14.1467 13.2109V13.225H14.1572L14.1678 13.2285L14.1643 13.2566L14.0729 13.2426V13.218H14.0939L14.0975 13.2074L14.1115 13.102V13.0844H14.101L14.0904 13.0809L14.0939 13.0527H14.0975ZM14.2943 13.0809L14.3365 13.0879L14.3682 13.2461L14.3717 13.2602L14.3857 13.2637L14.3822 13.2918L14.2908 13.2742L14.2943 13.2496H14.3119L14.3154 13.2461V13.218L14.2557 13.2074L14.2451 13.225L14.2416 13.232V13.2355L14.2451 13.2391L14.2592 13.2426L14.2557 13.2707L14.1818 13.2566L14.1854 13.232H14.1959L14.2029 13.2285L14.21 13.2215L14.2943 13.0809ZM14.2697 13.1828L14.3049 13.1898L14.2979 13.1336L14.2697 13.1828ZM14.449 13.1125L14.5334 13.1301L14.5369 13.2531L14.6002 13.1477L14.6846 13.1688L14.6775 13.1934H14.66L14.6529 13.2039L14.6283 13.3094C14.626 13.3141 14.626 13.3164 14.6283 13.3164V13.3234H14.6354L14.6459 13.327L14.6389 13.3551L14.551 13.3305L14.558 13.3059H14.5791V13.2988L14.6107 13.1828L14.5264 13.3234L14.5018 13.3199L14.4947 13.1582L14.4666 13.2707V13.2848H14.4771L14.4877 13.2883L14.4807 13.3129L14.4033 13.2953L14.4104 13.2707H14.4314L14.4385 13.2602L14.4631 13.1547V13.1406H14.4561L14.4455 13.1371L14.4525 13.109L14.449 13.1125ZM14.8357 13.218L14.9307 13.2531C14.9424 13.2555 14.9518 13.2602 14.9588 13.2672C14.9658 13.2719 14.9705 13.2777 14.9729 13.2848L14.9799 13.3059V13.3305C14.9729 13.3469 14.9611 13.3586 14.9447 13.3656C14.9307 13.3703 14.9131 13.368 14.892 13.3586L14.8604 13.348L14.8498 13.3832L14.8463 13.3902V13.3973H14.8568L14.8639 13.4043L14.8568 13.4289L14.7689 13.3938L14.7795 13.3727H14.783L14.7936 13.3762H14.8006L14.8041 13.3656L14.8393 13.2637L14.8428 13.2531V13.2496L14.8322 13.2461L14.8252 13.2426L14.8357 13.218ZM14.8885 13.2707L14.8709 13.3199L14.885 13.327L14.9061 13.3305L14.9201 13.327L14.9307 13.3129V13.2918C14.926 13.2848 14.9189 13.2801 14.9096 13.2777L14.8885 13.2707ZM15.0291 13.2883L15.1346 13.3375L15.1592 13.348L15.1768 13.3656L15.1873 13.3902L15.1803 13.4148C15.1756 13.4266 15.1662 13.4348 15.1521 13.4395C15.1404 13.4441 15.1275 13.4441 15.1135 13.4395L15.1311 13.4992V13.5098L15.1381 13.5168L15.1451 13.5203L15.1521 13.5238L15.1416 13.5484L15.0889 13.5238L15.0643 13.4219L15.0502 13.4184L15.0361 13.4535L15.0291 13.4641V13.4676L15.0396 13.4746H15.0467L15.0361 13.5027L14.9518 13.4641L14.9623 13.4395L14.9693 13.443H14.9869V13.4324L15.0326 13.334L15.0361 13.327V13.3234L15.0291 13.3164H15.0186L15.0291 13.2883ZM15.0818 13.3445L15.0607 13.3902L15.0854 13.4043L15.11 13.4113L15.1275 13.4078L15.1346 13.3973C15.1369 13.3926 15.1369 13.3879 15.1346 13.3832L15.1311 13.3691L15.11 13.3586L15.0818 13.3445ZM15.3455 13.4359C15.3713 13.45 15.3889 13.4687 15.3982 13.4922C15.4053 13.518 15.4018 13.5438 15.3877 13.5695C15.3783 13.5859 15.3666 13.5988 15.3525 13.6082C15.3385 13.6176 15.3221 13.6223 15.3033 13.6223C15.2869 13.6223 15.2693 13.6176 15.2506 13.6082C15.2271 13.5941 15.2107 13.5766 15.2014 13.5555C15.1896 13.5297 15.192 13.5027 15.2084 13.4746C15.2225 13.4488 15.2412 13.4324 15.2646 13.4254C15.2904 13.416 15.3174 13.4195 15.3455 13.4359ZM15.3314 13.4605C15.3174 13.4535 15.3057 13.4535 15.2963 13.4605C15.2775 13.4676 15.2635 13.4805 15.2541 13.4992C15.2447 13.518 15.2412 13.5355 15.2436 13.552C15.2459 13.566 15.2529 13.5766 15.2646 13.5836C15.2787 13.5883 15.2916 13.5883 15.3033 13.5836C15.3197 13.5766 15.3314 13.5648 15.3385 13.5484C15.3479 13.532 15.3525 13.5191 15.3525 13.5098L15.349 13.4816C15.3443 13.4723 15.3385 13.4652 15.3314 13.4605ZM15.4861 13.5098L15.5037 13.5203V13.5273L15.5916 13.5836L15.5986 13.5801L15.6127 13.5871L15.5986 13.6574L15.5705 13.6504V13.6258L15.567 13.6047L15.5564 13.5941H15.5529L15.5459 13.5977L15.4896 13.6926L15.4826 13.7031V13.7066L15.4861 13.7102L15.5002 13.7207L15.4861 13.7418L15.4053 13.6926L15.4193 13.6715H15.4264L15.4369 13.6785H15.4404L15.4475 13.668L15.5072 13.573C15.5096 13.5684 15.5096 13.566 15.5072 13.566V13.5625L15.4896 13.559L15.4686 13.5625L15.4475 13.5766L15.4334 13.5555L15.4861 13.5098ZM15.6584 13.6258L15.7885 13.7172L15.7709 13.7805L15.7463 13.7734V13.7453L15.7393 13.7242L15.7217 13.7102L15.6971 13.6926L15.6689 13.7277L15.676 13.7348L15.69 13.7418H15.6971L15.7076 13.7313V13.7277L15.7322 13.7418L15.683 13.8051L15.6654 13.791V13.784C15.6701 13.7816 15.6725 13.7781 15.6725 13.7734V13.7664L15.6619 13.7559L15.6549 13.7523L15.6303 13.7875L15.6232 13.7945V13.798L15.6303 13.8051L15.6443 13.8121L15.6725 13.8262C15.6818 13.8285 15.6912 13.8285 15.7006 13.8262L15.7287 13.8121L15.7428 13.8332L15.683 13.8789L15.5459 13.7805L15.5635 13.7594L15.5775 13.7699H15.5846L15.5916 13.7594L15.6514 13.675L15.6584 13.6645V13.6609L15.6514 13.6539L15.6443 13.6469L15.6584 13.6258ZM15.8729 13.9L15.9432 13.9563L15.9256 13.9773H15.9221L15.9115 13.9703H15.908L15.901 13.9773L15.8658 14.023L15.8412 14.0055V13.9914C15.8318 13.9914 15.8236 13.9891 15.8166 13.9844L15.792 13.9668C15.7779 13.9574 15.7674 13.9445 15.7604 13.9281C15.7557 13.9117 15.7557 13.8953 15.7604 13.8789C15.7604 13.8625 15.7674 13.8461 15.7814 13.8297C15.7932 13.8156 15.8072 13.8063 15.8236 13.8016C15.8377 13.7945 15.8529 13.7922 15.8693 13.7945C15.8881 13.7969 15.9033 13.8039 15.915 13.8156L15.9326 13.8332L15.9467 13.8543H15.9537L15.9678 13.8648L15.9432 13.9246L15.9186 13.9141V13.8789L15.915 13.8578L15.901 13.8438L15.8799 13.8332L15.8518 13.8402L15.8236 13.8613C15.8143 13.873 15.8084 13.8848 15.8061 13.8965C15.8014 13.9082 15.8014 13.9199 15.8061 13.9316C15.8061 13.9387 15.8096 13.9445 15.8166 13.9492L15.8342 13.9598H15.8518L15.8623 13.9527V13.9457L15.8693 13.9387V13.9352L15.8623 13.9246L15.8553 13.9211L15.8729 13.9ZM16.0768 13.9598L16.1119 13.9914L16.0486 14.1355V14.1531L16.0557 14.1637L16.0381 14.1848L15.9678 14.1215L15.9889 14.1039H15.9924L16.0029 14.1109H16.0064L16.0135 14.1004L16.0205 14.0828L15.9783 14.0477L15.9572 14.0547L15.9502 14.0582V14.0688L15.9607 14.0758L15.9432 14.0969L15.8904 14.0441L15.908 14.0266L15.915 14.0336H15.9221L15.9326 14.0301L16.0768 13.9598ZM16.0064 14.0301L16.0311 14.0582L16.0521 14.0055L16.0029 14.0301H16.0064ZM16.2033 14.0723L16.2174 14.0863L16.2139 14.0898L16.2842 14.1707L16.2947 14.1672L16.3053 14.1777L16.2736 14.241L16.249 14.2305L16.2561 14.2059V14.1848C16.2561 14.1777 16.2537 14.173 16.249 14.1707H16.2385L16.1611 14.248L16.1506 14.2586V14.2656L16.1611 14.2762L16.1436 14.2973L16.0803 14.227L16.0979 14.2094L16.1014 14.2129L16.1119 14.2234H16.1154L16.126 14.2129L16.2068 14.1355L16.2104 14.132V14.1285L16.1963 14.1215H16.1717L16.1506 14.125L16.14 14.1004L16.2033 14.0723Z" fill="black"/>
<path id="Vector_106" d="M0 0H9V9H0V0Z" fill="#012169"/>
<path id="Vector_107" d="M9 0V1.125L5.66016 4.5L9 7.78711V9H7.82227L4.46484 5.69531L1.19531 9H0V7.80469L3.26953 4.51758L0 1.30078V0H1.08984L4.46484 3.30469L7.73438 0H9Z" fill="white"/>
<path id="Vector_108" d="M3.23438 5.69531L3.42773 6.29297L0.738281 9H0V8.94727L3.23438 5.69531ZM5.41406 5.48438L6.36328 5.625L9 8.20898V9L5.41406 5.48438ZM9 0L5.625 3.44531L5.55469 2.67188L8.19141 0H9ZM0 0.0175781L3.39258 3.33984L2.35547 3.19922L0 0.861328V0.0175781Z" fill="#C8102E"/>
<path id="Vector_109" d="M3.09375 0V9H5.90625V0H3.09375ZM0 3.09375V5.90625H9V3.09375H0Z" fill="white"/>
<path id="Vector_110" d="M0 3.65625V5.34375H9V3.65625H0ZM3.65625 0V9H5.34375V0H3.65625Z" fill="#C8102E"/>
</g>
<defs>
<linearGradient id="paint0_linear_186_8909" x1="14.5339" y1="6.23095" x2="14.5447" y2="5.52326" gradientUnits="userSpaceOnUse">
<stop stop-color="#474747"/>
<stop offset="1" stop-color="#FF5500"/>
</linearGradient>
<linearGradient id="paint1_linear_186_8909" x1="14.2929" y1="8.8862" x2="14.2942" y2="9.28601" gradientUnits="userSpaceOnUse">
<stop stop-color="#B50000"/>
<stop offset="1" stop-color="#FFC500"/>
</linearGradient>
<linearGradient id="paint2_linear_186_8909" x1="16.0482" y1="9.13202" x2="16.7012" y2="9.12347" gradientUnits="userSpaceOnUse">
<stop stop-color="#D5DFFF"/>
<stop offset="1" stop-color="white"/>
</linearGradient>
<linearGradient id="paint3_linear_186_8909" x1="14.4092" y1="6.09632" x2="14.6444" y2="6.09632" gradientUnits="userSpaceOnUse">
<stop stop-color="#474747"/>
<stop offset="1" stop-color="#FF5500"/>
</linearGradient>
<linearGradient id="paint4_linear_186_8909" x1="17.8117" y1="12.4152" x2="17.6972" y2="11.704" gradientUnits="userSpaceOnUse">
<stop stop-color="#D5DFFF"/>
<stop offset="1" stop-color="white"/>
</linearGradient>
<linearGradient id="paint5_linear_186_8909" x1="16.2062" y1="9.37533" x2="15.9144" y2="8.90467" gradientUnits="userSpaceOnUse">
<stop stop-color="#D5DFFF"/>
<stop offset="1" stop-color="white"/>
</linearGradient>
<clipPath id="clip0_186_8909">
<rect width="18" height="18" fill="white"/>
</clipPath>
</defs>
</svg>
