<svg width="18" height="18" viewBox="0 0 18 18" fill="none" xmlns="http://www.w3.org/2000/svg">
<g id="gt" clip-path="url(#clip0_186_9021)">
<path id="Vector" d="M0 0H18V18H0V0Z" fill="#4997D0"/>
<path id="Vector_2" d="M6.00098 0H11.9986V18H6.00098V0Z" fill="white"/>
<g id="Group">
<g id="Group_2">
<path id="Vector_3" d="M8.30891 10.9622C8.37595 10.9521 8.4132 10.9318 8.45789 10.9167M8.515 10.813C8.54798 10.8466 8.5734 10.8872 8.5895 10.9318M8.38837 10.8029C8.41992 10.8328 8.44525 10.869 8.46286 10.9091M7.23373 7.45418C7.2089 7.49465 7.15924 7.52247 7.11454 7.54017M7.10709 7.53511C7.10709 7.4997 7.10213 7.45924 7.10709 7.42383M7.05991 7.55029C7.05991 7.56041 7.06985 7.5857 7.07481 7.60087M7.12696 7.62616L7.0773 7.63375M6.97797 7.61099C6.97797 7.67675 6.98542 7.75263 6.99039 7.8108M6.94569 7.7855C6.95811 7.80574 6.97052 7.82344 6.98542 7.83356M6.8712 7.99796C6.88362 8.02072 6.89603 8.04854 6.90348 8.09913M6.99536 7.98025L6.94569 8.01819M6.98791 8.12948C6.96307 8.15224 6.93328 8.16742 6.901 8.18259M6.80664 9.20439C6.83186 9.25021 6.8656 9.29058 6.90596 9.32327M6.92086 9.36626C6.89463 9.36296 6.8693 9.35436 6.84637 9.34097M6.95563 9.55595L6.99784 9.58124M6.98791 9.66724C7.0177 9.68747 7.04998 9.72541 7.07978 9.76588M7.04502 9.8367C7.07978 9.84428 7.10709 9.8544 7.12448 9.86199M7.09964 9.92522H7.14931M7.18159 9.79117L7.16917 9.8974M7.194 9.93786L7.20393 9.8974M7.32064 10.0491L7.31816 10.1301M8.29153 10.8357L8.26173 10.8762M8.20213 10.7776L8.18475 10.732" stroke="#24420E" stroke-width="0.285132"/>
<g id="Group_3">
<g id="Vector_4">
<path d="M9.15301 11.1518C9.13245 11.1217 9.10408 11.0981 9.07107 11.0835C8.87987 10.9823 8.68867 10.9343 8.47513 10.8989C8.42298 10.8913 8.37332 10.8432 8.32118 10.8179C8.19702 10.7597 8.06045 10.737 7.94126 10.6738C7.93381 10.6712 7.90402 10.6535 7.8916 10.6358C7.84194 10.5802 7.75503 10.5625 7.70289 10.5094C7.49431 10.3121 7.2758 10.13 7.16157 9.8644C7.02252 9.54319 6.85119 9.21187 6.87354 8.84766C6.88843 8.61497 6.85615 8.38229 6.91078 8.16477C6.99521 7.83598 7.0995 7.51477 7.29318 7.24414L7.2609 7.26437C7.07701 7.54271 6.9472 7.85437 6.8785 8.18248C6.82139 8.40252 6.85367 8.63774 6.84126 8.86536C6.81643 9.2321 6.99024 9.56343 7.12681 9.88464C7.24103 10.1477 7.46203 10.3323 7.66812 10.5321C7.72275 10.5827 7.80718 10.6004 7.85684 10.6586C7.87177 10.6733 7.88845 10.686 7.9065 10.6965C8.02817 10.7572 8.16474 10.78 8.28889 10.8407C8.33856 10.866 8.38822 10.9115 8.43788 10.9216C8.6467 10.948 8.84977 11.0095 9.03879 11.1037C9.07166 11.1185 9.09998 11.1421 9.12073 11.172L9.15301 11.1492" fill="#406325"/>
<path d="M9.15301 11.1518C9.13245 11.1217 9.10408 11.0981 9.07107 11.0835C8.87987 10.9823 8.68867 10.9343 8.47513 10.8989C8.42298 10.8913 8.37332 10.8432 8.32118 10.8179C8.19702 10.7597 8.06045 10.737 7.94126 10.6738C7.93381 10.6712 7.90402 10.6535 7.8916 10.6358C7.84194 10.5802 7.75503 10.5625 7.70289 10.5094C7.49431 10.3121 7.2758 10.13 7.16157 9.8644C7.02252 9.54319 6.85119 9.21187 6.87354 8.84766C6.88843 8.61497 6.85615 8.38229 6.91078 8.16477C6.99521 7.83598 7.0995 7.51477 7.29318 7.24414L7.2609 7.26437C7.07701 7.54271 6.9472 7.85437 6.8785 8.18248C6.82139 8.40252 6.85367 8.63774 6.84126 8.86536C6.81643 9.2321 6.99024 9.56343 7.12681 9.88464C7.24103 10.1477 7.46203 10.3323 7.66812 10.5321C7.72275 10.5827 7.80718 10.6004 7.85684 10.6586C7.87177 10.6733 7.88845 10.686 7.9065 10.6965C8.02817 10.7572 8.16474 10.78 8.28889 10.8407C8.33856 10.866 8.38822 10.9115 8.43788 10.9216C8.6467 10.948 8.84977 11.0095 9.03879 11.1037C9.07166 11.1185 9.09998 11.1421 9.12073 11.172L9.15301 11.1492" stroke="#24420E" stroke-width="0.142566"/>
</g>
<g id="Group_4">
<path id="Vector_5" d="M7.1715 9.8014C7.12035 9.60691 7.11864 9.40237 7.16654 9.20703C7.3329 9.53583 7.27828 9.80645 7.1715 9.8014ZM8.31124 10.9497C8.10878 10.9969 7.92158 11.0962 7.76744 11.238C8.14239 11.2405 8.36338 11.0534 8.31124 10.9497ZM8.49747 10.8409C8.32789 10.651 8.20829 10.4204 8.14984 10.1707C8.5223 10.4463 8.61914 10.7853 8.49747 10.8409Z" fill="#67923D" stroke="#24420E" stroke-width="0.142566"/>
<path id="Vector_6" d="M8.37027 10.8427C8.19154 10.6883 8.05474 10.4897 7.97298 10.266C8.35289 10.4734 8.47704 10.7769 8.37027 10.8427ZM7.98291 10.6707C8.00774 10.4734 7.84386 10.0586 7.79668 10.0131C7.72218 10.4304 7.87117 10.7112 7.98291 10.6707ZM7.30503 10.0561C7.26493 9.88083 7.2692 9.69807 7.31744 9.52496C7.45401 9.82088 7.39938 10.0612 7.30503 10.0561ZM6.96484 8.11366C7.10078 7.93449 7.28062 7.79492 7.48629 7.70898C7.31744 8.07825 7.03934 8.2123 6.96484 8.11366Z" fill="#67923D" stroke="#24420E" stroke-width="0.142566"/>
<path id="Vector_7" d="M6.98258 7.97264C7.08108 7.76871 7.22998 7.59438 7.41463 7.4668C7.32276 7.86388 7.07445 8.05357 6.98258 7.97264ZM7.67536 10.4816C7.56062 10.2782 7.49827 10.0485 7.49409 9.8139C7.7722 10.1301 7.79206 10.4538 7.67287 10.4816H7.67536ZM6.96271 9.55845C6.7889 9.58628 6.43133 9.44211 6.3916 9.39911C6.75413 9.31818 6.99747 9.4497 6.96271 9.55845ZM6.90808 9.31312C6.92795 9.17401 7.12163 8.91351 7.16384 8.89327C7.13901 9.19678 6.98009 9.3637 6.90808 9.31312ZM8.18191 10.7952C7.94004 10.8501 7.71656 10.9687 7.53382 11.1392C7.98078 11.1417 8.24647 10.9192 8.18191 10.7952Z" fill="#67923D" stroke="#24420E" stroke-width="0.142566"/>
</g>
<g id="Group_5">
<path id="Vector_8" d="M7.17361 9.79811C7.2779 9.80317 7.33252 9.53507 7.16616 9.20627C7.19751 9.40208 7.20002 9.60155 7.17361 9.79811ZM7.45171 10.304C7.29857 10.1645 7.11316 10.0671 6.91288 10.0207C7.13388 10.3267 7.40702 10.4026 7.45171 10.304ZM6.84584 8.96347C6.77538 8.73289 6.64898 8.52412 6.47834 8.35646C6.51559 8.79148 6.74155 9.03176 6.84584 8.96347ZM7.05442 9.83099C6.93026 9.73741 6.58263 9.69441 6.53297 9.70959C6.78625 9.92204 7.03455 9.92457 7.05442 9.83099ZM6.82101 9.20374C6.71376 9.05178 6.56899 8.93137 6.40137 8.85471C6.53794 9.16833 6.7639 9.28468 6.82101 9.20121V9.20374ZM6.89054 7.99984C6.9104 7.80762 6.75148 7.408 6.70679 7.36248C6.63478 7.76715 6.7788 8.03778 6.88805 7.99984H6.89054ZM6.99979 7.62299C7.06683 7.45859 7.01966 7.05644 6.98738 7.00586C6.82846 7.3473 6.89302 7.62805 6.99979 7.62299Z" fill="#406325" stroke="#24420E" stroke-width="0.142566"/>
<path id="Vector_9" d="M7.1241 7.42835C7.1925 7.27464 7.22236 7.10604 7.21101 6.93768C7.03223 7.18302 7.03719 7.4157 7.1241 7.42835ZM7.27309 7.27407C7.38331 7.14926 7.46025 6.99773 7.49656 6.83398C7.2557 7.01103 7.19363 7.2336 7.27309 7.27407ZM6.87331 8.36669C6.87579 8.38945 6.84848 8.15929 6.625 7.90384C6.63493 8.27816 6.77895 8.4198 6.87331 8.36669ZM7.68279 10.5367C7.4853 10.4317 7.26487 10.3795 7.04216 10.385C7.35503 10.648 7.66045 10.6531 7.68279 10.5367ZM7.98325 10.6708C7.86903 10.7087 7.72252 10.4305 7.79453 10.0132C7.82677 10.24 7.88943 10.4613 7.98077 10.6708H7.98325ZM8.3135 10.949C8.36316 11.0527 8.14465 11.2399 7.77219 11.2373C8.07016 11.1109 8.2986 10.9869 8.3135 10.9515V10.949ZM8.49476 10.8377C8.61644 10.7796 8.52208 10.4457 8.14713 10.17C8.36068 10.5039 8.50718 10.7922 8.49476 10.8377Z" fill="#406325" stroke="#24420E" stroke-width="0.142566"/>
<path id="Vector_10" d="M8.37027 10.8396C8.47456 10.7713 8.35289 10.4728 7.97298 10.2654C8.20887 10.5487 8.37524 10.7966 8.37027 10.8396ZM7.30751 10.0555C7.39938 10.0606 7.45649 9.8203 7.31992 9.52438C7.33731 9.8026 7.32986 10.0302 7.30751 10.0555ZM6.96484 8.11561C7.03934 8.21172 7.31248 8.0802 7.48381 7.71094C7.33108 7.87084 7.15625 8.00717 6.96484 8.11561Z" fill="#406325" stroke="#24420E" stroke-width="0.142566"/>
<path id="Vector_11" d="M6.98754 7.97264C7.07693 8.05357 7.32276 7.86388 7.41463 7.4668C7.21599 7.7526 7.02727 7.96758 6.98754 7.97264ZM7.67536 10.4791C7.79206 10.4513 7.77468 10.1301 7.49409 9.8139C7.61825 10.1553 7.69274 10.4411 7.67536 10.4791ZM6.95775 9.55845C6.99251 9.4497 6.75165 9.32071 6.3916 9.39911C6.69702 9.45476 6.93788 9.52557 6.95775 9.55845ZM6.91057 9.31565C6.98258 9.36118 7.13653 9.19678 7.16632 8.89327C7.10138 9.04582 7.01525 9.18807 6.91057 9.31565ZM8.18191 10.7978C8.24398 10.9242 7.98326 11.1443 7.5363 11.1417C7.8889 10.9925 8.16453 10.8433 8.18191 10.7978Z" fill="#406325" stroke="#24420E" stroke-width="0.142566"/>
<path id="Vector_12" d="M7.00025 9.66719C6.89627 9.49868 6.75072 9.3609 6.57812 9.26758C6.70228 9.61155 6.93072 9.75066 7.00025 9.66719Z" fill="#406325" stroke="#24420E" stroke-width="0.142566"/>
</g>
<g id="Group_6">
<path id="Vector_13" d="M6.82598 8.34335C6.9253 8.22447 7.26052 8.11066 7.31266 8.11572C7.11401 8.38129 6.8657 8.4344 6.82598 8.34335ZM7.44923 10.3035C7.40453 10.4047 7.13388 10.3288 6.9104 10.0227C7.07573 10.1424 7.25723 10.237 7.44923 10.3035ZM6.84336 8.963C6.73907 9.03129 6.51807 8.79102 6.47834 8.35599C6.64223 8.69238 6.80114 8.95036 6.84336 8.963ZM7.05194 9.83052C7.03455 9.9241 6.78625 9.92158 6.53545 9.71165C6.70108 9.77647 6.87504 9.81651 7.05194 9.83052ZM6.81604 9.20075C6.75893 9.28168 6.53794 9.16787 6.40137 8.85425C6.60498 9.05659 6.78625 9.20075 6.81853 9.20075H6.81604ZM6.88557 7.99685C6.77631 8.03731 6.63478 7.76922 6.7043 7.36454C6.77135 7.70599 6.85329 7.97661 6.88557 7.99685ZM6.99731 7.61999C6.89054 7.62758 6.82597 7.34684 6.98489 7.00539C6.96503 7.32913 6.97248 7.5947 6.99731 7.61999ZM7.12146 7.42777C7.03704 7.4126 7.02959 7.18244 7.21085 6.93711C7.15716 7.09519 7.12703 7.26059 7.12146 7.42777ZM7.27045 7.27349C7.19347 7.23049 7.25307 7.01045 7.49392 6.83594C7.39863 6.96975 7.32333 7.1172 7.27045 7.27349Z" fill="#67923D" stroke="#24420E" stroke-width="0.142566"/>
<path id="Vector_14" d="M6.87317 8.36519C6.77633 8.4183 6.63479 8.27667 6.62486 7.90234C6.74901 8.19826 6.8384 8.35254 6.87317 8.36519ZM7.68017 10.5353C7.65782 10.6516 7.35488 10.6465 7.04202 10.386C7.36978 10.4948 7.64541 10.5555 7.68017 10.5353ZM7.47656 10.295C7.38282 10.1497 7.32647 9.98267 7.31267 9.80937C7.53615 10.0294 7.56595 10.2672 7.48152 10.295H7.47656ZM7.0594 9.66267C6.97001 9.51598 6.96007 9.13407 6.9849 9.08096C7.191 9.38193 7.16617 9.65509 7.0594 9.66267ZM6.99235 9.6652C6.92531 9.74867 6.69687 9.61209 6.5752 9.26559C6.69385 9.41929 6.83447 9.554 6.99235 9.6652Z" fill="#67923D" stroke="#24420E" stroke-width="0.142566"/>
</g>
<g id="Group_7">
<path id="Vector_15" d="M6.82617 8.34424C6.8659 8.43529 7.10924 8.38218 7.31037 8.11914C7.0124 8.29113 6.8957 8.367 6.82617 8.34424ZM7.0571 9.65943C7.16387 9.65184 7.1887 9.38122 6.98261 9.08277C7.03758 9.27056 7.06273 9.46609 7.0571 9.66196V9.65943ZM7.47922 10.2968C7.56365 10.2715 7.53385 10.0312 7.31286 9.81118C7.42211 10.0565 7.49164 10.2664 7.47922 10.2968Z" fill="#406325" stroke="#24420E" stroke-width="0.142566"/>
<path id="Vector_16" d="M6.87114 8.79396C6.9208 8.58151 6.82893 8.22236 6.76437 8.14648C6.64766 8.53598 6.7594 8.81925 6.87114 8.79396Z" fill="#406325" stroke="#24420E" stroke-width="0.142566"/>
</g>
<path id="Vector_17" d="M6.86544 8.84557C6.71645 8.87845 6.64941 8.54207 6.76363 8.16016C6.78846 8.5016 6.83316 8.82028 6.86296 8.84304L6.86544 8.84557Z" fill="#67923D" stroke="#24420E" stroke-width="0.142566"/>
<path id="Vector_18" d="M6.83398 8.84151C6.85579 8.61746 6.93264 8.40261 7.05746 8.2168C7.10712 8.61641 6.94572 8.88198 6.83398 8.84151Z" fill="#67923D" stroke="#24420E" stroke-width="0.142566"/>
<path id="Vector_19" d="M6.83594 8.83898C6.94768 8.87945 7.10659 8.61641 7.05693 8.2168C6.97002 8.55318 6.8707 8.81875 6.83594 8.83898Z" fill="#406325" stroke="#24420E" stroke-width="0.142566"/>
<path id="Vector_20" d="M6.86816 9.08575C6.90255 8.86582 6.99335 8.65904 7.13137 8.48633C7.15124 8.89606 6.97494 9.14139 6.86816 9.08575Z" fill="#67923D" stroke="#24420E" stroke-width="0.142566"/>
<path id="Vector_21" d="M6.87109 9.08655C6.97538 9.14219 7.15168 8.89939 7.13182 8.49219C7.02256 8.81593 6.90834 9.07138 6.87109 9.08655Z" fill="#406325" stroke="#24420E" stroke-width="0.142566"/>
</g>
<g id="Group_8">
<path id="Vector_22" d="M6.93454 7.79783C6.94962 7.79783 6.96185 7.78537 6.96185 7.77001C6.96185 7.75464 6.94962 7.74219 6.93454 7.74219C6.91945 7.74219 6.90723 7.75464 6.90723 7.77001C6.90723 7.78537 6.91945 7.79783 6.93454 7.79783Z" fill="#BA1F3E" stroke="#511124" stroke-width="0.142566"/>
<path id="Vector_23" d="M7.14353 7.64158C7.15861 7.64158 7.17084 7.62912 7.17084 7.61376C7.17084 7.59839 7.15861 7.58594 7.14353 7.58594C7.12844 7.58594 7.11621 7.59839 7.11621 7.61376C7.11621 7.62912 7.12844 7.64158 7.14353 7.64158Z" fill="#BA1F3E" stroke="#511124" stroke-width="0.142566"/>
<path id="Vector_24" d="M7.05368 7.55564C7.06877 7.55564 7.081 7.54319 7.081 7.52782C7.081 7.51246 7.06877 7.5 7.05368 7.5C7.0386 7.5 7.02637 7.51246 7.02637 7.52782C7.02637 7.54319 7.0386 7.55564 7.05368 7.55564Z" fill="#BA1F3E" stroke="#511124" stroke-width="0.142566"/>
<path id="Vector_25" d="M6.82818 9.36654C6.84601 9.36654 6.86046 9.35182 6.86046 9.33366C6.86046 9.3155 6.84601 9.30078 6.82818 9.30078C6.81035 9.30078 6.7959 9.3155 6.7959 9.33366C6.7959 9.35182 6.81035 9.36654 6.82818 9.36654Z" fill="#BA1F3E" stroke="#511124" stroke-width="0.142566"/>
<path id="Vector_26" d="M6.89068 8.96224C6.90851 8.96224 6.92296 8.94752 6.92296 8.92936C6.92296 8.91121 6.90851 8.89648 6.89068 8.89648C6.87285 8.89648 6.8584 8.91121 6.8584 8.92936C6.8584 8.94752 6.87285 8.96224 6.89068 8.96224Z" fill="#BA1F3E" stroke="#511124" stroke-width="0.142566"/>
<path id="Vector_27" d="M7.21783 9.90756C7.23566 9.90756 7.25011 9.89284 7.25011 9.87468C7.25011 9.85652 7.23566 9.8418 7.21783 9.8418C7.2 9.8418 7.18555 9.85652 7.18555 9.87468C7.18555 9.89284 7.2 9.90756 7.21783 9.90756Z" fill="#BA1F3E" stroke="#511124" stroke-width="0.142566"/>
<path id="Vector_28" d="M7.07427 9.95638C7.0921 9.95638 7.10655 9.94166 7.10655 9.9235C7.10655 9.90535 7.0921 9.89062 7.07427 9.89062C7.05644 9.89062 7.04199 9.90535 7.04199 9.9235C7.04199 9.94166 7.05644 9.95638 7.07427 9.95638Z" fill="#BA1F3E" stroke="#511124" stroke-width="0.142566"/>
<path id="Vector_29" d="M8.17388 10.7454C8.19171 10.7454 8.20616 10.7307 8.20616 10.7126C8.20616 10.6944 8.19171 10.6797 8.17388 10.6797C8.15605 10.6797 8.1416 10.6944 8.1416 10.7126C8.1416 10.7307 8.15605 10.7454 8.17388 10.7454Z" fill="#BA1F3E" stroke="#511124" stroke-width="0.142566"/>
<path id="Vector_30" d="M8.24615 10.9251C8.26398 10.9251 8.27843 10.9104 8.27843 10.8923C8.27843 10.8741 8.26398 10.8594 8.24615 10.8594C8.22832 10.8594 8.21387 10.8741 8.21387 10.8923C8.21387 10.9104 8.22832 10.9251 8.24615 10.9251Z" fill="#BA1F3E" stroke="#511124" stroke-width="0.142566"/>
</g>
</g>
<g id="Group_9">
<path id="Vector_31" d="M11.0148 7.96268C11.0322 7.97785 11.0446 7.98291 11.0719 8.01073M10.908 7.53271C10.908 7.4973 10.8931 7.43913 10.8857 7.40625M10.9726 7.48213C10.9726 7.53018 10.9652 7.57571 10.9453 7.6187M10.841 7.60606C10.8857 7.64652 10.9279 7.68193 10.9726 7.7047M11.067 7.73505C11.0694 7.78563 11.0645 7.83622 11.0496 7.8868M11.0595 7.92474L11.0918 7.86657M11.0446 8.17513C11.0794 8.18272 11.1141 8.22571 11.1315 8.26365M11.1439 8.23077L11.1837 8.17513M11.2259 8.95413C11.2085 8.9845 11.1886 9.01327 11.1663 9.04012M11.067 9.04012C11.0868 9.07553 11.1067 9.116 11.1315 9.14129M11.1936 9.29051C11.1645 9.33255 11.1263 9.36718 11.0819 9.39168M11.0868 9.5055C11.0595 9.52573 11.0247 9.58137 10.9949 9.62437M11.2035 9.11347L11.1514 9.13623M11.1166 8.94907L11.1464 8.97436M10.9155 9.92029H10.8658M10.8137 9.87476L10.8286 9.91523M10.6399 10.0442C10.6324 10.0923 10.6374 10.1378 10.6423 10.1859M10.7491 9.95822L10.774 10.0139M10.8708 10.0113L10.8087 10.0189M10.0439 10.6588L10.0191 10.7043M10.3146 10.6032C10.2773 10.6082 10.2451 10.6032 10.2128 10.5981M10.0762 10.7499C10.0514 10.7372 10.0265 10.7322 10.0017 10.7246M9.6367 10.7929C9.61435 10.8106 9.58704 10.8536 9.56221 10.894M9.54731 10.7802C9.48772 10.8131 9.46785 10.8738 9.43805 10.9269M9.50758 10.9977C9.46785 10.9876 9.42316 10.9674 9.37598 10.9471M9.79065 10.9294C9.73354 10.8991 9.67395 10.9041 9.61435 10.894M9.88253 10.8839C9.79065 10.8662 9.70871 10.8687 9.62677 10.8814M9.82045 10.8156L9.78569 10.8005M9.64663 10.9396L9.58952 10.9067M11.0272 9.66231C10.9974 9.68254 10.9652 9.72048 10.9354 9.76095M10.9801 7.74769L10.9254 7.72746" stroke="#24420E" stroke-width="0.285132"/>
<g id="Group_10">
<path id="Vector_32" d="M8.8623 11.1479C8.88217 11.115 8.91445 11.0973 8.94425 11.0796C9.13544 10.9784 9.32664 10.9329 9.54019 10.8975C9.59233 10.8874 9.64199 10.8393 9.69414 10.8165C9.81829 10.7558 9.95486 10.7331 10.0741 10.6724C10.0815 10.6673 10.1113 10.6496 10.1237 10.6319C10.1734 10.5763 10.2603 10.5586 10.3124 10.5054C10.521 10.3082 10.7395 10.1261 10.8537 9.8605C10.9928 9.53929 11.1641 9.20796 11.1418 8.84375C11.1269 8.61107 11.1592 8.37838 11.1045 8.16087C11.0357 7.83203 10.9059 7.51957 10.7221 7.24023L10.7544 7.26047C10.9386 7.53957 11.0684 7.85211 11.1368 8.1811C11.1939 8.39861 11.1616 8.63383 11.1741 8.86399C11.1989 9.22819 11.0251 9.55952 10.8885 9.88326C10.7743 10.1463 10.5533 10.3284 10.3472 10.5282C10.2926 10.5788 10.2081 10.5965 10.1585 10.6547C10.1435 10.6694 10.1269 10.6821 10.1088 10.6926C9.98714 10.7533 9.85057 10.7786 9.72642 10.8368C9.67676 10.8621 9.6271 10.9076 9.57743 10.9177C9.36861 10.9441 9.16554 11.0056 8.97653 11.0998C8.94365 11.1146 8.91533 11.1382 8.89459 11.1681L8.8623 11.1479Z" fill="#406325" stroke="#24420E" stroke-width="0.142566"/>
<g id="Group_11">
<path id="Vector_33" d="M10.8289 9.87429C10.8985 9.68713 10.8289 9.24705 10.7942 9.19141C10.6278 9.5809 10.7097 9.88947 10.8289 9.87429Z" fill="#406325" stroke="#24420E" stroke-width="0.142566"/>
<path id="Vector_34" d="M10.6528 10.052C10.71 9.91037 10.6702 9.56387 10.6429 9.52087C10.5063 9.81679 10.561 10.0596 10.6528 10.052ZM11.0725 8.17786C10.9472 8.01419 10.782 7.88686 10.5932 7.80859C10.7472 8.14498 11.003 8.26891 11.0725 8.17786Z" fill="#406325" stroke="#24420E" stroke-width="0.142566"/>
<path id="Vector_35" d="M11.0329 7.97511C10.9508 7.80495 10.8267 7.65941 10.6729 7.55273C10.7498 7.88153 10.9559 8.04087 11.0329 7.97511ZM11.1496 8.35196C11.0627 8.2508 10.7722 8.15216 10.7275 8.15722C10.9013 8.38485 11.1148 8.4329 11.1496 8.35196ZM11.0801 9.52552C11.2577 9.52425 11.4318 9.47446 11.5841 9.38135C11.2638 9.31054 11.0503 9.42941 11.0801 9.52552ZM11.0751 9.38135C11.0751 9.23972 10.9187 8.95645 10.8765 8.9261C10.864 9.2296 10.9981 9.41929 11.0751 9.38135Z" fill="#406325" stroke="#24420E" stroke-width="0.142566"/>
<path id="Vector_36" d="M11.0875 9.03439C11.0527 8.81535 10.9619 8.6095 10.8243 8.4375C10.8044 8.84723 10.9807 9.09004 11.0875 9.03439ZM9.77148 10.9389C9.92797 11.0795 10.1181 11.1754 10.3227 11.2171C10.1042 10.906 9.82363 10.8352 9.77397 10.9389H9.77148Z" fill="#406325" stroke="#24420E" stroke-width="0.142566"/>
</g>
<g id="Group_12">
<path id="Vector_37" d="M10.8285 9.87073C10.7069 9.88591 10.6274 9.5824 10.7938 9.19291C10.7814 9.55205 10.7987 9.84291 10.8285 9.87073ZM9.50257 10.9735C9.7049 11.0225 9.89188 11.1225 10.0464 11.2643C9.67142 11.2669 9.45043 11.0797 9.50009 10.976L9.50257 10.9735ZM9.50257 10.7737C9.55224 10.5713 9.87504 10.2375 9.93711 10.2147C9.84772 10.6472 9.59693 10.8597 9.50257 10.7737ZM10.0315 10.67C10.0377 10.4382 10.1018 10.2119 10.2177 10.0124C10.2922 10.4272 10.1432 10.7079 10.0315 10.67ZM10.5653 10.3007C10.7178 10.1617 10.9023 10.0642 11.1017 10.0174C10.8807 10.3235 10.61 10.3993 10.5629 10.3007H10.5653ZM11.2035 8.95263C11.2283 8.79329 11.4443 8.4999 11.4915 8.47461C11.4617 8.81858 11.2854 9.00574 11.2035 8.95516V8.95263Z" fill="#67923D" stroke="#24420E" stroke-width="0.142566"/>
<path id="Vector_38" d="M10.9131 9.91631C11.1004 9.81892 11.3087 9.77109 11.519 9.7772C11.226 10.0225 10.9354 10.0251 10.9131 9.91631ZM11.1688 9.29665C11.2814 9.13799 11.433 9.01237 11.6083 8.93244C11.4643 9.26124 11.2284 9.38264 11.1688 9.29665ZM11.1316 8.14333C11.1316 7.95111 11.3302 7.5692 11.3799 7.53126C11.4072 7.93846 11.2384 8.19391 11.1316 8.14333ZM10.9603 7.48826C10.9178 7.32253 10.917 7.14858 10.9578 6.98242C11.0944 7.25811 11.0497 7.48826 10.9578 7.48826H10.9603Z" fill="#67923D" stroke="#24420E" stroke-width="0.142566"/>
<path id="Vector_39" d="M10.8531 7.432C10.7227 7.27046 10.6339 7.07834 10.5948 6.87305C10.8878 7.10826 10.9524 7.38901 10.8531 7.432ZM11.1436 8.30458C11.1362 8.32734 11.2181 8.10983 11.4962 7.91761C11.3969 8.27929 11.2231 8.38046 11.1436 8.30458ZM10.2969 10.5783C10.521 10.4613 10.7702 10.4031 11.0219 10.4089C10.6693 10.7073 10.3217 10.7124 10.2969 10.5783ZM10.652 10.0523C10.5601 10.0573 10.503 9.81705 10.6395 9.52113C10.6222 9.79934 10.6296 10.027 10.652 10.0523ZM11.0716 8.17812C11.0046 8.26917 10.7488 8.14777 10.5948 7.80885C10.7342 7.95613 10.895 8.08068 11.0716 8.17812ZM11.0294 7.97578C10.9524 8.04154 10.7488 7.88473 10.6718 7.5534C10.8382 7.79115 10.9946 7.97072 11.0294 7.97578ZM11.1486 8.35516C11.1138 8.43357 10.9027 8.38804 10.7289 8.16042C10.9872 8.30964 11.089 8.37287 11.1511 8.35516H11.1486ZM11.084 9.52366C11.0517 9.42755 11.2653 9.31374 11.5856 9.38455C11.4124 9.40467 11.2433 9.45158 11.084 9.52366ZM11.0741 9.38202C10.9946 9.41996 10.863 9.2328 10.8754 8.9293C10.9198 9.08998 10.9867 9.24331 11.0741 9.38455V9.38202Z" fill="#67923D" stroke="#24420E" stroke-width="0.142566"/>
<path id="Vector_40" d="M11.084 9.03968C10.9772 9.09532 10.8034 8.85252 10.8233 8.44531C10.9325 8.76905 11.0467 9.0245 11.084 9.03968ZM9.77539 10.9391C9.82505 10.8329 10.1007 10.9037 10.3217 11.2123C10.0485 11.0428 9.81264 10.9265 9.77539 10.9391Z" fill="#67923D" stroke="#24420E" stroke-width="0.142566"/>
</g>
<g id="Group_13">
<path id="Vector_41" d="M10.0312 10.6648C10.1455 10.7053 10.292 10.4271 10.22 10.0098C10.1504 10.3639 10.066 10.6446 10.0312 10.6674V10.6648Z" fill="#406325" stroke="#24420E" stroke-width="0.142566"/>
<path id="Vector_42" d="M10.2874 10.5328C10.3814 10.3186 10.4206 10.0837 10.4016 9.84993C10.1533 10.1939 10.1682 10.5151 10.2874 10.5328ZM9.50022 10.9754C9.45055 11.0791 9.66658 11.2663 10.0415 11.2612C9.74356 11.1398 9.51511 11.0134 9.50022 10.9754ZM9.50518 10.7706C9.59954 10.8566 9.84785 10.6466 9.93724 10.2141C9.73611 10.5278 9.54739 10.7655 9.50518 10.7706ZM10.5655 10.3001C10.6102 10.4013 10.8808 10.3254 11.1043 10.0194C10.939 10.139 10.7575 10.2336 10.5655 10.3001ZM11.2061 8.95206C11.288 9.00517 11.4619 8.81801 11.4917 8.47657C11.42 8.64856 11.3238 8.80879 11.2061 8.95206ZM10.9131 9.91569C10.9379 10.027 11.2235 10.0219 11.519 9.77658C11.2086 9.87775 10.9479 9.93339 10.9156 9.91569H10.9131ZM11.1713 9.2935C11.2334 9.3795 11.4668 9.25809 11.6108 8.9293C11.4834 9.07282 11.3352 9.19564 11.1713 9.2935ZM11.1366 8.14018C11.2409 8.19077 11.4097 7.93784 11.3799 7.53317C11.2806 7.86197 11.1713 8.12248 11.1341 8.14018H11.1366ZM10.9628 7.48512C11.0497 7.48765 11.0968 7.25749 10.9578 6.97927C10.9826 7.24484 10.9826 7.46235 10.9628 7.48512ZM10.856 7.42947C10.9553 7.38648 10.8907 7.10826 10.5977 6.87305C10.7106 7.04435 10.7977 7.23191 10.856 7.42947ZM11.144 8.30711C11.2235 8.38299 11.3973 8.28182 11.4966 7.91761C11.3029 8.17306 11.1813 8.30205 11.144 8.30711ZM10.2998 10.5809C10.3246 10.7124 10.6697 10.7073 11.0199 10.4114C10.6499 10.5328 10.3395 10.6036 10.2998 10.5809Z" fill="#406325" stroke="#24420E" stroke-width="0.142566"/>
<path id="Vector_43" d="M10.4682 10.3857C10.5396 10.2267 10.5704 10.0518 10.5576 9.87736C10.3714 10.1303 10.3788 10.3706 10.4682 10.3832V10.3857ZM10.9549 9.65984C11.0443 9.51568 11.0542 9.13124 11.0294 9.07812C10.8233 9.3791 10.8481 9.65226 10.9549 9.65984Z" fill="#406325" stroke="#24420E" stroke-width="0.142566"/>
</g>
<path id="Vector_44" d="M10.2878 10.5308C10.1686 10.5156 10.1562 10.1944 10.3995 9.85294C10.3101 10.202 10.2654 10.4954 10.2878 10.5308ZM11.1618 8.80332C11.137 8.60604 11.2612 8.29494 11.3257 8.23424C11.3903 8.59845 11.2587 8.84125 11.1618 8.80332ZM10.4691 10.3841C10.3797 10.3714 10.3722 10.1312 10.5584 9.87823C10.5037 10.0413 10.4736 10.2118 10.4691 10.3841ZM11.0501 7.74863C10.9955 7.59688 11.0501 7.24279 11.0799 7.19727C11.2115 7.50583 11.1445 7.75622 11.0501 7.74863ZM9.60742 10.7862C9.6695 10.5839 10.0097 10.2551 10.0742 10.2298C9.96747 10.6724 9.70178 10.8773 9.60742 10.7862ZM10.9632 9.73406C11.0665 9.56588 11.2111 9.42813 11.3828 9.33445C11.2587 9.67842 11.0302 9.81753 10.9607 9.73406H10.9632ZM10.9582 9.65819C10.8514 9.64807 10.8266 9.37998 11.0327 9.079C10.9777 9.26679 10.9526 9.46232 10.9582 9.65819Z" fill="#67923D" stroke="#24420E" stroke-width="0.142566"/>
<path id="Vector_45" d="M11.1621 8.84862C11.2912 8.89668 11.3856 8.60076 11.326 8.24414C11.2969 8.45275 11.2418 8.65673 11.1621 8.85115V8.84862Z" fill="#406325" stroke="#24420E" stroke-width="0.142566"/>
<path id="Vector_46" d="M11.1812 8.83872C11.1936 8.64903 11.0074 8.257 10.9577 8.21401C10.908 8.61362 11.0694 8.87919 11.1812 8.83872ZM11.0496 7.7461C11.1464 7.75622 11.211 7.50836 11.0794 7.19727C11.0893 7.48812 11.0744 7.72334 11.0496 7.7461ZM9.60938 10.7837C9.70373 10.8773 9.96694 10.6724 10.0737 10.2323C9.8552 10.5434 9.65159 10.7786 9.60938 10.7837ZM10.9651 9.73406C11.0347 9.81753 11.2631 9.68095 11.3873 9.33445C11.2671 9.48853 11.1248 9.62326 10.9651 9.73406Z" fill="#406325" stroke="#24420E" stroke-width="0.142566"/>
<path id="Vector_47" d="M11.1786 8.83645C11.0669 8.87945 10.9079 8.61641 10.9576 8.2168C11.0445 8.55065 11.1438 8.81622 11.1786 8.83645Z" fill="#67923D" stroke="#24420E" stroke-width="0.142566"/>
</g>
<g id="Group_14">
<path id="Vector_48" d="M11.1025 7.88767C11.1176 7.88767 11.1298 7.87522 11.1298 7.85985C11.1298 7.84449 11.1176 7.83203 11.1025 7.83203C11.0874 7.83203 11.0752 7.84449 11.0752 7.85985C11.0752 7.87522 11.0874 7.88767 11.1025 7.88767Z" fill="#BA1F3E" stroke="#511124" stroke-width="0.142566"/>
<path id="Vector_49" d="M11.1963 8.18845C11.2113 8.18845 11.2236 8.176 11.2236 8.16063C11.2236 8.14527 11.2113 8.13281 11.1963 8.13281C11.1812 8.13281 11.1689 8.14527 11.1689 8.16063C11.1689 8.176 11.1812 8.18845 11.1963 8.18845Z" fill="#BA1F3E" stroke="#511124" stroke-width="0.142566"/>
<path id="Vector_50" d="M11.2315 9.14193C11.2493 9.14193 11.2638 9.12721 11.2638 9.10905C11.2638 9.09089 11.2493 9.07617 11.2315 9.07617C11.2137 9.07617 11.1992 9.09089 11.1992 9.10905C11.1992 9.12721 11.2137 9.14193 11.2315 9.14193Z" fill="#BA1F3E" stroke="#511124" stroke-width="0.142566"/>
<path id="Vector_51" d="M11.1026 8.9642C11.1204 8.9642 11.1349 8.94948 11.1349 8.93132C11.1349 8.91316 11.1204 8.89844 11.1026 8.89844C11.0848 8.89844 11.0703 8.91316 11.0703 8.93132C11.0703 8.94948 11.0848 8.9642 11.1026 8.9642Z" fill="#BA1F3E" stroke="#511124" stroke-width="0.142566"/>
<path id="Vector_52" d="M10.7374 9.97396C10.7552 9.97396 10.7696 9.95924 10.7696 9.94108C10.7696 9.92292 10.7552 9.9082 10.7374 9.9082C10.7195 9.9082 10.7051 9.92292 10.7051 9.94108C10.7051 9.95924 10.7195 9.97396 10.7374 9.97396Z" fill="#BA1F3E" stroke="#511124" stroke-width="0.142566"/>
<path id="Vector_53" d="M10.8936 10.0423C10.9114 10.0423 10.9259 10.0276 10.9259 10.0094C10.9259 9.99128 10.9114 9.97656 10.8936 9.97656C10.8758 9.97656 10.8613 9.99128 10.8613 10.0094C10.8613 10.0276 10.8758 10.0423 10.8936 10.0423Z" fill="#BA1F3E" stroke="#511124" stroke-width="0.142566"/>
<path id="Vector_54" d="M9.84087 10.8607C9.8587 10.8607 9.87315 10.846 9.87315 10.8278C9.87315 10.8096 9.8587 10.7949 9.84087 10.7949C9.82305 10.7949 9.80859 10.8096 9.80859 10.8278C9.80859 10.846 9.82305 10.8607 9.84087 10.8607Z" fill="#BA1F3E" stroke="#511124" stroke-width="0.142566"/>
<path id="Vector_55" d="M9.66705 10.9876C9.68487 10.9876 9.69933 10.9729 9.69933 10.9548C9.69933 10.9366 9.68487 10.9219 9.66705 10.9219C9.64922 10.9219 9.63477 10.9366 9.63477 10.9548C9.63477 10.9729 9.64922 10.9876 9.66705 10.9876Z" fill="#BA1F3E" stroke="#511124" stroke-width="0.142566"/>
<path id="Vector_56" d="M10.916 7.7451C10.9311 7.7451 10.9433 7.73264 10.9433 7.71727C10.9433 7.70191 10.9311 7.68945 10.916 7.68945C10.9009 7.68945 10.8887 7.70191 10.8887 7.71727C10.8887 7.73264 10.9009 7.7451 10.916 7.7451Z" fill="#BA1F3E" stroke="#511124" stroke-width="0.142566"/>
</g>
</g>
<g id="gt-b">
<path id="Vector_57" d="M7.86587 9.91867C7.8609 9.94396 7.88574 9.97684 7.91553 9.96926C7.92795 9.96926 7.93291 9.95661 7.9205 9.95661C7.91057 9.96167 7.89815 9.95661 7.8907 9.94902C7.88474 9.94227 7.88068 9.93402 7.87893 9.92512C7.87718 9.91622 7.87782 9.907 7.88077 9.89844L7.86587 9.91867Z" fill="#8C959D" stroke="#485654" stroke-width="0.071283"/>
<path id="Vector_58" d="M7.93808 9.96963C7.91325 9.99998 7.876 10.0126 7.85365 9.9924C7.83875 9.97722 7.83379 9.96205 7.84124 9.94181L7.81641 9.97469C7.81641 9.97469 7.8313 10.0076 7.85614 10.0202C7.88842 10.0329 7.93063 10.0126 7.95546 9.97975C7.97532 9.95446 7.99519 9.91905 7.98029 9.8887C7.96896 9.86909 7.95146 9.85394 7.93063 9.8457L7.9058 9.871C7.91821 9.86594 7.93559 9.871 7.94801 9.88111C7.98029 9.9064 7.96291 9.94434 7.93808 9.96963Z" fill="#8C959D"/>
<path id="Vector_59" d="M7.93861 9.97021C7.93113 9.98031 7.92187 9.98888 7.91129 9.9955C7.89888 10.0006 7.88646 10.0056 7.87405 10.0031C7.8675 10.003 7.86125 10.0003 7.85667 9.9955C7.8537 9.99395 7.85108 9.99181 7.84894 9.9892C7.84681 9.98659 7.84521 9.98358 7.84425 9.98033C7.83928 9.97527 7.83928 9.97021 7.8368 9.96262C7.8368 9.95504 7.8368 9.94998 7.84177 9.94239L7.84425 9.94492L7.81694 9.9778V9.97527L7.84177 10.0081L7.85915 10.0183L7.87901 10.0208C7.89317 10.0205 7.90695 10.0161 7.91874 10.0081C7.93116 10.0031 7.94357 9.99297 7.95102 9.98286L7.97585 9.94745C7.98082 9.9348 7.98579 9.92216 7.9833 9.90698C7.9833 9.89939 7.9833 9.89433 7.97834 9.88675C7.96698 9.86872 7.95053 9.85461 7.93116 9.84628H7.93364L7.90881 9.8741H7.90633C7.91129 9.86904 7.91874 9.86904 7.92371 9.86904L7.94357 9.8741C7.95351 9.88169 7.96344 9.89181 7.96592 9.90445C7.9684 9.9171 7.96592 9.92974 7.96096 9.93986C7.95599 9.95251 7.94854 9.96262 7.93861 9.97021ZM7.93861 9.97021C7.94854 9.96262 7.95351 9.95251 7.95847 9.93986C7.96344 9.92974 7.96592 9.91457 7.96344 9.90445C7.96096 9.89181 7.95102 9.88422 7.94109 9.87916C7.93116 9.87157 7.91626 9.86904 7.90881 9.8741H7.90633L7.93116 9.84375C7.9518 9.85231 7.9692 9.86738 7.98082 9.88675C7.98579 9.89181 7.98827 9.89939 7.98827 9.90698C7.98827 9.92216 7.98579 9.93733 7.97834 9.94998C7.97337 9.96262 7.96592 9.97527 7.95351 9.98539C7.94606 9.99803 7.93364 10.0056 7.92123 10.0132C7.90881 10.0208 7.89639 10.0259 7.87901 10.0259C7.87173 10.0262 7.86447 10.025 7.85764 10.0224C7.85082 10.0197 7.84458 10.0158 7.83928 10.0107C7.82906 10.0004 7.82066 9.98844 7.81445 9.97527L7.83928 9.94239H7.84425L7.84177 9.96262C7.84177 9.96768 7.84177 9.97527 7.84673 9.98033L7.85915 9.99297C7.86163 9.99803 7.86908 10.0006 7.87405 10.0006C7.88646 10.0031 7.89888 10.0006 7.91129 9.9955L7.93861 9.97021Z" fill="#485654"/>
<path id="Vector_60" d="M9.87515 7.71875L8.87943 8.71779L7.85888 9.70924L7.74466 9.84582C7.695 9.90399 7.63541 9.97986 7.56588 10.0482C7.55346 10.0659 7.53856 10.0583 7.52367 10.0684C7.47897 10.0937 7.43179 10.1392 7.39951 10.1771L7.09409 10.5186C7.07671 10.5413 7.06926 10.554 7.08416 10.5692L7.24804 10.7917C7.27784 10.8221 7.3126 10.8373 7.3275 10.812C7.40448 10.6729 7.60064 10.4629 7.67513 10.2985C7.71735 10.1974 7.77198 10.0178 7.8117 9.97481C7.86137 9.91916 7.988 9.77753 8.10471 9.6536L8.12954 9.6283C8.13451 9.61819 8.14195 9.6106 8.15189 9.60301C8.73541 8.996 9.41081 8.26 9.90246 7.74151L9.87515 7.71875Z" fill="#6C301E" stroke="#351710" stroke-width="0.142566" stroke-linejoin="round"/>
<path id="Vector_61" d="M7.80638 9.71119C7.77659 9.71119 7.75672 9.69349 7.73438 9.67578C7.76417 9.6859 7.79397 9.69601 7.82128 9.68337L7.80638 9.71119Z" fill="#8C959D" stroke="#485654" stroke-width="0.071283"/>
<path id="Vector_62" d="M10.913 6.98047L10.1234 7.64312C10.1159 7.65324 10.1085 7.65071 10.101 7.64312L10.029 7.58242V7.56725L10.0638 7.53184C10.0687 7.52678 10.0638 7.52425 10.0613 7.51666L10.0464 7.50149C10.0389 7.49896 10.034 7.50149 10.029 7.50654L9.99423 7.54448C9.97685 7.54448 9.96195 7.55966 9.95947 7.57989C9.48272 8.05285 9.07053 8.47523 8.59626 8.94061L8.03508 9.48692C8.01521 9.51221 7.92831 9.56026 7.87119 9.5982C7.85133 9.61085 7.83395 9.62349 7.8265 9.63614L7.7818 9.77525C7.76691 9.8056 7.71973 9.87641 7.71973 9.88147L7.81408 9.97505L8.08971 9.67408L8.11205 9.64879C8.09381 9.62303 8.07207 9.60004 8.04749 9.5805L8.03011 9.56785C8.02763 9.56279 8.03756 9.55521 8.04253 9.55015C8.69806 8.90267 9.40822 8.19196 9.9843 7.61277C9.9923 7.61589 10.0011 7.61589 10.0091 7.61277L10.0811 7.69118C10.096 7.70888 10.1109 7.70888 10.1234 7.70129L10.9155 6.98047H10.913Z" fill="#B2B6BA" stroke="#485654" stroke-width="0.142566"/>
<path id="Vector_63" d="M7.78418 9.77077H7.79908L7.81149 9.76824L7.82887 9.70754L7.84874 9.64684L7.83136 9.70754L7.81398 9.76824L7.79908 9.7733L7.78418 9.77077Z" fill="#485654"/>
<path id="Vector_64" d="M7.96314 9.72762C7.97137 9.72762 7.97804 9.72082 7.97804 9.71244C7.97804 9.70406 7.97137 9.69727 7.96314 9.69727C7.95491 9.69727 7.94824 9.70406 7.94824 9.71244C7.94824 9.72082 7.95491 9.72762 7.96314 9.72762Z" stroke="#485654" stroke-width="0.142566"/>
<path id="Vector_65" d="M7.86841 9.82332C7.87664 9.82332 7.88331 9.81653 7.88331 9.80814C7.88331 9.79976 7.87664 9.79297 7.86841 9.79297C7.86019 9.79297 7.85352 9.79976 7.85352 9.80814C7.85352 9.81653 7.86019 9.82332 7.86841 9.82332Z" stroke="#485654" stroke-width="0.142566"/>
<path id="Vector_66" d="M8.03298 9.56781C8.01675 9.55592 8.00177 9.54236 7.98828 9.52734C8.00452 9.53922 8.0195 9.55278 8.03298 9.56781Z" fill="#485654"/>
<path id="Vector_67" d="M9.55273 7.96382L9.63964 8.05234L9.65454 8.03716L9.56763 7.95117L9.55273 7.96635V7.96382Z" fill="#8C959D" stroke="#485654" stroke-width="0.071283"/>
</g>
<g id="gt-b_2">
<path id="Vector_68" d="M9.72691 9.95377C9.73066 9.97928 9.70428 10.0109 9.67488 10.0018C9.66248 10.0012 9.65813 9.98833 9.67053 9.98895C9.68021 9.99449 9.69285 9.99006 9.70065 9.98285C9.70693 9.97641 9.71139 9.96836 9.71356 9.95956C9.71573 9.95076 9.71554 9.94152 9.713 9.93282L9.72691 9.95377Z" fill="#8C959D" stroke="#485654" stroke-width="0.071283"/>
<path id="Vector_69" d="M9.6528 10.0025C9.67615 10.034 9.71274 10.0485 9.73604 10.0294C9.75164 10.015 9.75733 10.0001 9.75086 9.97953L9.77409 10.0136C9.77409 10.0136 9.75763 10.0457 9.73222 10.0571C9.69937 10.0681 9.65818 10.0458 9.63496 10.0117C9.61633 9.98549 9.59819 9.94913 9.61452 9.91956C9.62678 9.90053 9.64499 9.88627 9.66619 9.87908L9.68978 9.90558C9.67762 9.89991 9.66001 9.9041 9.64713 9.91358C9.61367 9.93724 9.62922 9.976 9.6528 10.0025Z" fill="#8C959D"/>
<path id="Vector_70" d="M9.65313 10.001C9.66011 10.0114 9.66895 10.0205 9.6792 10.0276C9.69136 10.0333 9.70352 10.039 9.71604 10.037C9.72258 10.0373 9.72896 10.0349 9.73376 10.0303C9.7368 10.0289 9.73952 10.0269 9.74178 10.0244C9.74403 10.0219 9.74577 10.019 9.74689 10.0158C9.75209 10.011 9.75234 10.0059 9.75518 9.99848C9.75555 9.9909 9.75579 9.98585 9.75119 9.97802L9.74859 9.98042L9.77429 10.0146L9.77442 10.0121L9.74804 10.0437L9.73019 10.0529L9.71023 10.0545C9.69611 10.0535 9.68255 10.0484 9.67115 10.0399C9.659 10.0342 9.64708 10.0235 9.64013 10.013L9.61702 9.9764C9.61267 9.96352 9.60831 9.95065 9.61152 9.93561C9.61189 9.92803 9.61213 9.92298 9.61745 9.91565C9.62967 9.89821 9.64677 9.88494 9.66652 9.87758L9.66404 9.87746L9.6875 9.90648L9.68998 9.9066C9.68527 9.9013 9.67783 9.90093 9.67286 9.90069L9.65278 9.90475C9.6425 9.91183 9.63209 9.92144 9.62901 9.93395C9.62592 9.94646 9.62779 9.95921 9.63227 9.96957C9.63662 9.98244 9.64358 9.99292 9.65313 10.001ZM9.65313 10.001C9.64358 9.99292 9.6391 9.98257 9.63475 9.96969C9.63027 9.95934 9.62852 9.94406 9.63148 9.93408C9.63457 9.92157 9.64486 9.91448 9.65502 9.90993C9.6653 9.90284 9.68031 9.90106 9.6875 9.90648L9.68998 9.9066L9.66664 9.87505C9.64561 9.88258 9.62751 9.89676 9.61497 9.91553C9.60977 9.92033 9.60693 9.92779 9.60656 9.93537C9.60583 9.95052 9.60759 9.9658 9.61442 9.97881C9.61877 9.99168 9.62561 10.0047 9.63752 10.0154C9.64436 10.0284 9.65639 10.0366 9.66843 10.0448C9.68047 10.053 9.69263 10.0587 9.70999 10.0595C9.71725 10.0602 9.72456 10.0594 9.7315 10.0571C9.73844 10.0548 9.74486 10.0512 9.7504 10.0464C9.7611 10.0366 9.77006 10.0251 9.7769 10.0122L9.75367 9.97815L9.74871 9.9779L9.75022 9.99823C9.74998 10.0033 9.74961 10.0109 9.74441 10.0157L9.7314 10.0277C9.72868 10.0326 9.72112 10.0348 9.71616 10.0345C9.70364 10.0364 9.69136 10.0333 9.6792 10.0276L9.65313 10.001Z" fill="#485654"/>
<path id="Vector_71" d="M7.82643 7.65761L8.77305 8.705L9.74483 9.74604L9.85237 9.88814C9.89918 9.94871 9.95506 10.0275 10.0212 10.0991C10.0328 10.1174 10.048 10.1106 10.0624 10.1214C10.1059 10.1489 10.1508 10.1967 10.1812 10.2362L10.4699 10.5925C10.4862 10.6161 10.493 10.6291 10.4774 10.6435L10.303 10.8576C10.2718 10.8865 10.2364 10.8999 10.2227 10.8739C10.1525 10.7311 9.96662 10.5117 9.9001 10.3438C9.86279 10.2406 9.81684 10.0586 9.77922 10.0136C9.73228 9.95559 9.61259 9.80782 9.50197 9.67823L9.47838 9.65174C9.47391 9.64138 9.46683 9.63344 9.45727 9.62536C8.90356 8.99004 8.26426 8.22131 7.79806 7.67898L7.82643 7.65761Z" fill="#6C301E" stroke="#351710" stroke-width="0.142566" stroke-linejoin="round"/>
<path id="Vector_72" d="M9.7965 9.75053C9.82626 9.75202 9.84695 9.73532 9.87012 9.71875C9.83987 9.72737 9.80962 9.73599 9.78295 9.722L9.7965 9.75053Z" fill="#8C959D" stroke="#485654" stroke-width="0.071283"/>
<path id="Vector_73" d="M6.82521 6.86846L7.58211 7.56961C7.58907 7.58008 7.59663 7.57793 7.60443 7.57072L7.67927 7.51367L7.67999 7.49852L7.64697 7.46142C7.64225 7.45612 7.64733 7.45384 7.65018 7.44639L7.66579 7.43197C7.67335 7.42982 7.67819 7.43259 7.6829 7.43789L7.71581 7.47751C7.73317 7.47838 7.74732 7.49427 7.74883 7.51461C8.20233 8.01073 8.59377 8.45311 9.04516 8.94153L9.57947 9.51511C9.59809 9.54136 9.68259 9.59368 9.73782 9.63442C9.75705 9.64803 9.77381 9.66153 9.78064 9.67453L9.81861 9.8157C9.83204 9.84675 9.87576 9.91983 9.87552 9.92488L9.77679 10.0137L9.51593 9.69933L9.49482 9.67295C9.51428 9.64814 9.53709 9.62626 9.56258 9.60796L9.58055 9.59619C9.58327 9.59126 9.57371 9.58319 9.56899 9.57789C8.94529 8.89857 8.27006 8.15337 7.72245 7.54621C7.71432 7.54892 7.70549 7.54849 7.69765 7.54498L7.62197 7.61971C7.60624 7.63665 7.59136 7.63591 7.57932 7.62771L6.82273 6.86833L6.82521 6.86846Z" fill="#B2B6BA" stroke="#485654" stroke-width="0.142566"/>
<path id="Vector_74" d="M9.81584 9.80967L9.80096 9.80893L9.78868 9.80578L9.77423 9.74429L9.7573 9.68267L9.77175 9.74417L9.7862 9.80566L9.80083 9.81145L9.81584 9.80967Z" fill="#485654"/>
<path id="Vector_75" d="M9.63991 9.75809C9.6317 9.75768 9.62536 9.75056 9.62576 9.74219C9.62616 9.73382 9.63315 9.72736 9.64137 9.72777C9.64959 9.72818 9.65592 9.7353 9.65552 9.74367C9.65512 9.75204 9.64813 9.7585 9.63991 9.75809Z" stroke="#485654" stroke-width="0.142566"/>
<path id="Vector_76" d="M9.72878 9.8577C9.72056 9.85729 9.71423 9.85017 9.71463 9.8418C9.71503 9.83343 9.72202 9.82697 9.73024 9.82738C9.73845 9.82779 9.74479 9.83491 9.74439 9.84328C9.74399 9.85165 9.737 9.85811 9.72878 9.8577Z" stroke="#485654" stroke-width="0.142566"/>
<path id="Vector_77" d="M9.57744 9.59484C9.59422 9.58377 9.60983 9.57097 9.62402 9.55664C9.60724 9.56769 9.59163 9.58049 9.57744 9.59484Z" fill="#485654"/>
<path id="Vector_78" d="M8.13709 7.91888L8.04604 8.00297L8.03189 7.98707L8.12282 7.90551L8.13697 7.92141L8.13709 7.91888Z" fill="#8C959D" stroke="#485654" stroke-width="0.071283"/>
</g>
<g id="Group_15">
<path id="Vector_79" d="M7.85938 10.6541C7.61921 10.5955 7.36803 10.6033 7.13184 10.6768C7.53658 10.8792 7.86435 10.7932 7.8569 10.6515L7.85938 10.6541ZM10.0693 10.7375C10.263 10.6541 10.7348 10.7198 10.7919 10.7628C10.3896 10.9626 10.0594 10.8766 10.0668 10.7375H10.0693Z" fill="#67923D" stroke="#24420E" stroke-width="0.142566"/>
<path id="Vector_80" d="M7.85441 10.6568C7.86186 10.7959 7.53658 10.8819 7.13184 10.6796C7.51175 10.7049 7.82213 10.6897 7.85193 10.6543L7.85441 10.6568ZM10.0693 10.7403C10.0644 10.8794 10.3896 10.9654 10.7944 10.7631C10.4145 10.7883 10.1041 10.7732 10.0718 10.7378L10.0693 10.7403Z" fill="#406325" stroke="#24420E" stroke-width="0.142566"/>
</g>
<g id="gt-c">
<path id="Vector_81" d="M9.70896 10.5169C9.20888 9.81093 8.56413 9.2241 7.81934 8.79705C7.90624 8.792 8.10241 8.89569 8.18435 8.94881C8.77781 9.3383 9.28436 9.85426 9.81325 10.4613C9.78346 10.4916 9.76359 10.5119 9.72883 10.5372L9.70896 10.5169Z" fill="#B2B6BA" stroke="#485654" stroke-width="0.142566"/>
<path id="Vector_82" d="M9.76066 10.5136L9.72093 10.544C9.14982 9.79534 8.35524 9.07957 7.81641 8.79883C8.56382 9.14786 9.19204 9.85351 9.75321 10.5086H9.7557L9.76066 10.5136Z" fill="#8C959D"/>
<path id="Vector_83" d="M9.76066 10.5128L9.72093 10.5432C9.45705 10.198 9.16463 9.87645 8.84689 9.58208C8.60931 9.35994 8.3571 9.15459 8.09203 8.96748C8.00264 8.90678 7.91076 8.84861 7.81641 8.79803V8.79297C8.01505 8.88655 8.1988 9.00036 8.3751 9.12935C8.54892 9.25581 8.7128 9.39998 8.87172 9.5492C9.02867 9.69954 9.18024 9.85561 9.32612 10.0171C9.47511 10.179 9.61416 10.3459 9.75818 10.5103L9.76066 10.5128ZM9.76066 10.5128C9.61664 10.3459 9.47511 10.184 9.32612 10.0222C9.18032 9.86059 9.02875 9.70452 8.87172 9.55426C8.7128 9.40504 8.54892 9.2634 8.3751 9.13441C8.20128 9.00795 8.01505 8.89161 7.81889 8.80056V8.7955C8.00615 8.9038 8.18615 9.02462 8.35772 9.15718C8.69975 9.4231 9.01724 9.72024 9.30626 10.0449C9.45203 10.2059 9.5912 10.373 9.72342 10.5457L9.76066 10.5128Z" fill="#485654"/>
<g id="Group_16">
<path id="Vector_84" d="M9.93161 10.3906C9.88195 10.4058 9.83973 10.4235 9.8 10.4488C9.79504 10.4842 9.75034 10.5247 9.7131 10.5323L9.6982 10.512H9.69323L9.67833 10.5196C9.66343 10.5196 9.64605 10.5247 9.6386 10.5449C9.62867 10.5702 9.64605 10.6031 9.6684 10.6233C9.69323 10.641 9.70316 10.6486 9.72799 10.6486C9.75531 10.641 9.77021 10.6157 9.77766 10.6081C9.86953 10.722 9.93906 10.7852 10.0558 10.8762C10.1079 10.8762 10.1352 10.8434 10.1178 10.8054C10.1129 10.7928 10.098 10.7852 10.0856 10.7902V10.7776C10.1452 10.722 10.1725 10.6511 10.1079 10.5297C10.0533 10.4286 9.9912 10.3932 9.93409 10.3932H9.93161V10.3906ZM10.0856 10.507C10.098 10.5247 10.1029 10.5424 10.1104 10.5576C10.1501 10.6334 10.1178 10.727 10.0533 10.7548H10.0483C10.0582 10.7371 10.0284 10.6992 10.0135 10.7118C10.021 10.6941 9.99617 10.6613 9.9763 10.6688C9.98623 10.6511 9.96389 10.6208 9.94154 10.6309C9.95147 10.6132 9.93409 10.5854 9.90926 10.5904C9.91671 10.5702 9.89933 10.5449 9.87698 10.55C9.87698 10.5297 9.87201 10.5196 9.86456 10.512C9.88939 10.4918 9.92167 10.4589 9.94899 10.4437C10.016 10.4134 10.0582 10.469 10.0856 10.507Z" fill="#FAB81C" stroke="#6C301E" stroke-width="0.142566"/>
<path id="Vector_85" d="M10.1151 10.5881C10.1027 10.5805 10.0952 10.5678 10.1002 10.5603C10.1052 10.5501 10.1176 10.5476 10.13 10.5552C10.1424 10.5603 10.1499 10.5729 10.1474 10.5805C10.1424 10.5906 10.1275 10.5931 10.1151 10.5881Z" fill="#FAB81C" stroke="#6C301E" stroke-width="0.071283"/>
<path id="Vector_86" d="M10.1083 10.5629C10.0958 10.5553 10.0884 10.5426 10.0934 10.5325C10.0983 10.5249 10.1107 10.5224 10.1231 10.53C10.1356 10.535 10.143 10.5477 10.1405 10.5553C10.1356 10.5654 10.1207 10.5679 10.1083 10.5629Z" fill="#FAB81C" stroke="#6C301E" stroke-width="0.071283"/>
<path id="Vector_87" d="M10.0926 10.5315C10.0802 10.5264 10.0728 10.5138 10.0777 10.5062C10.0827 10.4961 10.0951 10.4936 10.1075 10.4986C10.1199 10.5062 10.1274 10.5189 10.1224 10.5264C10.1199 10.5366 10.105 10.5391 10.0926 10.5315Z" fill="#FAB81C" stroke="#6C301E" stroke-width="0.071283"/>
<path id="Vector_88" d="M10.0731 10.5062C10.0607 10.4986 10.0532 10.486 10.0582 10.4784C10.0632 10.4708 10.0756 10.4683 10.088 10.4733C10.1004 10.4809 10.1079 10.4936 10.1054 10.5012C10.1004 10.5087 10.0855 10.5138 10.0731 10.5062Z" fill="#FAB81C" stroke="#6C301E" stroke-width="0.071283"/>
<path id="Vector_89" d="M10.048 10.4823C10.0331 10.4772 10.0281 10.4621 10.0331 10.457V10.4519C10.0381 10.4545 10.0505 10.457 10.048 10.4494C10.048 10.4444 10.0455 10.4418 10.048 10.4444L10.0629 10.4494C10.0753 10.457 10.0828 10.4696 10.0778 10.4772C10.0753 10.4873 10.0604 10.4899 10.048 10.4823Z" fill="#FAB81C" stroke="#6C301E" stroke-width="0.071283"/>
</g>
<path id="Vector_90" d="M9.77832 10.6098C9.7957 10.5643 9.82798 10.5238 9.86523 10.5137ZM9.78329 10.6174C9.81557 10.6224 9.86523 10.5845 9.87764 10.5516ZM9.81308 10.6528C9.85281 10.6629 9.89503 10.6224 9.91241 10.5921ZM9.85033 10.6932C9.89999 10.6932 9.92731 10.6604 9.9422 10.6325ZM9.88758 10.7312C9.92979 10.7312 9.96703 10.6983 9.97697 10.6705ZM9.92234 10.7666C9.96952 10.7666 9.99931 10.7438 10.0142 10.716ZM9.96455 10.802C10.0068 10.8045 10.039 10.7792 10.049 10.7565ZM10.0092 10.8399C10.049 10.8399 10.0763 10.8146 10.0862 10.7894Z" fill="#FAB81C"/>
<path id="Vector_91" d="M9.77832 10.6098C9.78936 10.5778 9.80918 10.5497 9.83543 10.5288C9.84288 10.5213 9.85281 10.5162 9.86523 10.5137C9.85453 10.517 9.84445 10.5221 9.83543 10.5288C9.8262 10.5363 9.81787 10.5447 9.8106 10.5541C9.79698 10.5708 9.78608 10.5896 9.77832 10.6098ZM9.78329 10.6174C9.79322 10.6174 9.80315 10.6174 9.81308 10.6123L9.83791 10.5971L9.86275 10.5769L9.87764 10.5516C9.87525 10.5614 9.87007 10.5702 9.86275 10.5769C9.84912 10.5925 9.83212 10.6046 9.81308 10.6123C9.80315 10.6174 9.79322 10.6199 9.78329 10.6174ZM9.81308 10.6528H9.84288L9.86771 10.6376C9.88494 10.6258 9.89936 10.6103 9.90992 10.5921L9.89254 10.6174L9.87019 10.6401L9.84536 10.6528H9.81308ZM9.85033 10.6932C9.86026 10.6932 9.87019 10.6932 9.87764 10.6882L9.90247 10.6755L9.92731 10.6553L9.9422 10.63C9.93496 10.6496 9.92195 10.6664 9.90496 10.6781L9.88013 10.6907L9.85033 10.6932ZM9.88758 10.7312C9.90744 10.7312 9.92482 10.7236 9.93972 10.711C9.95482 10.7003 9.96752 10.6865 9.97697 10.6705C9.97448 10.6781 9.96952 10.6882 9.96207 10.6958L9.9422 10.7135L9.91737 10.7287C9.90771 10.7315 9.89757 10.7324 9.88758 10.7312ZM9.92234 10.7666C9.93227 10.7666 9.9422 10.7666 9.94965 10.7615C9.968 10.7574 9.98506 10.7487 9.99932 10.7362L10.0142 10.7135L9.99932 10.7388C9.99187 10.7438 9.98442 10.7514 9.97448 10.7539C9.95959 10.7641 9.9422 10.7666 9.92482 10.7666H9.92234ZM9.96455 10.802C9.98184 10.8018 9.99884 10.7974 10.0142 10.7894L10.0341 10.7767C10.039 10.7691 10.0465 10.7641 10.049 10.7565C10.049 10.7641 10.0415 10.7717 10.0366 10.7767C10.0269 10.7864 10.0151 10.7938 10.0022 10.7981C9.98928 10.8025 9.97556 10.8038 9.96207 10.802H9.96455ZM10.0092 10.8399L10.0341 10.8374L10.0539 10.8273L10.0713 10.8121L10.0862 10.7919C10.0803 10.8074 10.0696 10.8205 10.0557 10.8291C10.0418 10.8378 10.0255 10.8416 10.0092 10.8399Z" fill="#6C301E"/>
</g>
<g id="gt-c_2">
<path id="Vector_92" d="M8.20398 10.4505C8.74428 9.77599 9.42208 9.22913 10.1904 8.84783C10.104 8.83753 9.9021 8.9292 9.81721 8.97727C9.20212 9.33023 8.66642 9.81468 8.10311 10.3887C8.13109 10.4208 8.14974 10.4422 8.18297 10.4695L8.20398 10.4505Z" fill="#B2B6BA" stroke="#485654" stroke-width="0.142566"/>
<path id="Vector_93" d="M8.15268 10.4439L8.19057 10.4766C8.80427 9.76382 9.63913 9.09731 10.1934 8.84961C9.42694 9.15288 8.75874 9.81933 8.16041 10.4393L8.15793 10.4392L8.15268 10.4439Z" fill="#8C959D"/>
<path id="Vector_94" d="M8.15239 10.4431L8.19028 10.4758C8.47379 10.1472 8.78442 9.84388 9.11875 9.56923C9.36884 9.36182 9.63256 9.17207 9.90806 9.00131C10.0008 8.94611 10.0959 8.8936 10.1931 8.8488L10.1934 8.84375C9.98961 8.92517 9.79956 9.02768 9.61606 9.14579C9.43519 9.26153 9.2632 9.39554 9.09587 9.5349C8.93044 9.6755 8.77005 9.82214 8.61502 9.97454C8.45688 10.1271 8.30835 10.2854 8.15501 10.4408L8.15239 10.4431ZM8.15239 10.4431C8.30587 10.2852 8.45658 10.1322 8.61473 9.97958C8.76968 9.8271 8.93008 9.68046 9.09558 9.53995C9.26291 9.40059 9.43475 9.26911 9.61577 9.15084C9.79664 9.0351 9.98932 8.93022 10.1904 8.85117L10.1907 8.84612C9.9975 8.94292 9.81077 9.05266 9.63179 9.17462C9.27488 9.41941 8.94065 9.69685 8.63324 10.0035C8.47835 10.1554 8.32969 10.3138 8.18765 10.4782L8.15239 10.4431Z" fill="#485654"/>
<g id="Group_17">
<path id="Vector_95" d="M7.98884 10.3122C8.03753 10.3304 8.07863 10.3506 8.11682 10.3782C8.11972 10.4139 8.16198 10.457 8.19872 10.4668L8.21477 10.4475L8.21972 10.4478L8.23415 10.4563C8.24903 10.4572 8.26608 10.4633 8.27234 10.4839C8.28078 10.5098 8.26152 10.5415 8.23803 10.5604C8.21221 10.5766 8.20186 10.5835 8.17707 10.582C8.15025 10.5728 8.13685 10.5467 8.12985 10.5386C8.03151 10.6467 7.95843 10.7056 7.83663 10.7895C7.78457 10.7863 7.75922 10.7518 7.77878 10.715C7.78447 10.7027 7.79979 10.696 7.81189 10.7018L7.81262 10.6892C7.75637 10.63 7.73323 10.5577 7.80475 10.4404C7.86517 10.3427 7.9292 10.3111 7.98621 10.3146L7.98869 10.3147L7.98884 10.3122ZM7.82838 10.419C7.81496 10.436 7.80897 10.4533 7.80065 10.468C7.75657 10.5414 7.78335 10.6367 7.84617 10.6684L7.85113 10.6687C7.84225 10.6504 7.8742 10.6144 7.88834 10.6279C7.88193 10.6098 7.90863 10.5785 7.92802 10.5872C7.91914 10.569 7.94321 10.54 7.96493 10.5515C7.95605 10.5332 7.97502 10.5065 7.99951 10.513C7.99325 10.4924 8.01208 10.4682 8.03409 10.4746C8.03527 10.4544 8.04081 10.4446 8.04869 10.4374C8.02508 10.4157 7.99477 10.381 7.96839 10.3642C7.90323 10.3298 7.85786 10.3828 7.82838 10.419Z" fill="#FAB81C" stroke="#6C301E" stroke-width="0.142566"/>
<path id="Vector_96" d="M7.7939 10.4972C7.80674 10.4903 7.81491 10.4782 7.8104 10.4703C7.80603 10.4599 7.79378 10.4566 7.78095 10.4634C7.76826 10.4677 7.76008 10.4799 7.76212 10.4876C7.76649 10.498 7.78121 10.5015 7.7939 10.4972Z" fill="#FAB81C" stroke="#6C301E" stroke-width="0.0712831"/>
<path id="Vector_97" d="M7.80268 10.4739C7.81552 10.4671 7.82369 10.4549 7.81932 10.4445C7.81481 10.4366 7.80256 10.4334 7.78972 10.4402C7.77704 10.4445 7.76886 10.4567 7.7709 10.4644C7.77527 10.4748 7.79 10.4782 7.80268 10.4739Z" fill="#FAB81C" stroke="#6C301E" stroke-width="0.0712831"/>
<path id="Vector_98" d="M7.8194 10.4445C7.83209 10.4402 7.84026 10.428 7.83575 10.4202C7.83138 10.4098 7.81914 10.4065 7.80645 10.4108C7.79361 10.4176 7.78544 10.4298 7.78995 10.4377C7.79184 10.4479 7.80657 10.4513 7.8194 10.4445Z" fill="#FAB81C" stroke="#6C301E" stroke-width="0.0712831"/>
<path id="Vector_99" d="M7.84088 10.4192C7.85372 10.4124 7.86189 10.4002 7.85737 10.3923C7.85286 10.3845 7.84061 10.3812 7.82792 10.3855C7.81509 10.3923 7.80692 10.4045 7.80895 10.4122C7.81347 10.4201 7.82805 10.426 7.84088 10.4192Z" fill="#FAB81C" stroke="#6C301E" stroke-width="0.0712831"/>
<path id="Vector_100" d="M7.86674 10.3953C7.88191 10.3911 7.88775 10.3763 7.88309 10.3709L7.88338 10.3659C7.87828 10.3681 7.86574 10.3699 7.86866 10.3624C7.86895 10.3574 7.87158 10.355 7.86895 10.3574L7.85379 10.3615C7.84095 10.3684 7.83278 10.3805 7.83729 10.3884C7.83918 10.3987 7.85391 10.4021 7.86674 10.3953Z" fill="#FAB81C" stroke="#6C301E" stroke-width="0.0712831"/>
</g>
<path id="Vector_101" d="M8.12917 10.5373C8.11447 10.4909 8.0846 10.4485 8.04801 10.4362ZM8.12377 10.5446C8.09125 10.5477 8.04389 10.5068 8.03341 10.4733ZM8.09196 10.5782C8.05172 10.5859 8.01193 10.5429 7.99635 10.5116ZM8.05243 10.6163C8.00285 10.6133 7.9775 10.5788 7.96425 10.5502ZM8.01304 10.6519C7.9709 10.6494 7.93563 10.6143 7.92734 10.5859ZM7.97627 10.6852C7.92918 10.6823 7.90076 10.6578 7.88751 10.6291ZM7.93207 10.718C7.88979 10.718 7.85904 10.6908 7.85045 10.6674ZM7.88525 10.7532C7.84559 10.7508 7.81979 10.7239 7.81135 10.698Z" fill="#FAB81C"/>
<path id="Vector_102" d="M8.12917 10.5373C8.12002 10.5047 8.10187 10.4755 8.07687 10.4531C8.06988 10.4451 8.06026 10.4394 8.04801 10.4362C8.0585 10.4401 8.06826 10.4458 8.07687 10.4531C8.08565 10.4611 8.09348 10.47 8.10019 10.4799C8.11281 10.4973 8.1226 10.5167 8.12917 10.5373ZM8.12377 10.5446C8.11386 10.544 8.10394 10.5434 8.09432 10.5378L8.07042 10.5211L8.04681 10.4994L8.03341 10.4733C8.03523 10.4832 8.03989 10.4923 8.04681 10.4994C8.0595 10.5158 8.07577 10.5289 8.09432 10.5378C8.10394 10.5434 8.11371 10.5465 8.12377 10.5446ZM8.09196 10.5782L8.06222 10.5764L8.03832 10.5597C8.0218 10.5469 8.00831 10.5305 7.99883 10.5117L8.01471 10.538L8.03569 10.5621L8.05974 10.5762L8.09196 10.5782ZM8.05243 10.6163C8.04251 10.6157 8.0326 10.6151 8.02546 10.6096L8.00141 10.5955L7.9778 10.5738L7.9644 10.5476C7.97049 10.5676 7.9825 10.5851 7.99878 10.5979L8.02283 10.612L8.05243 10.6163ZM8.01304 10.6519C7.99321 10.6507 7.9763 10.6421 7.96216 10.6286C7.94771 10.6171 7.93584 10.6025 7.92734 10.5859C7.92938 10.5937 7.93374 10.6041 7.94074 10.6121L7.95954 10.631L7.98344 10.6476C7.99292 10.6511 8.00299 10.6525 8.01304 10.6519ZM7.97627 10.6852C7.96636 10.6846 7.95644 10.684 7.9493 10.6785C7.93123 10.6732 7.91471 10.6635 7.9012 10.6502L7.88765 10.6266L7.90105 10.6528C7.90819 10.6583 7.91519 10.6663 7.92496 10.6694C7.93924 10.6804 7.95644 10.684 7.97379 10.685L7.97627 10.6852ZM7.93207 10.718C7.91483 10.7167 7.89811 10.7113 7.88324 10.7024L7.86414 10.6885C7.85963 10.6807 7.85248 10.6752 7.85045 10.6674C7.85001 10.675 7.857 10.683 7.86166 10.6884C7.87079 10.6987 7.8821 10.7067 7.89473 10.7118C7.90736 10.717 7.92098 10.7191 7.93455 10.7181L7.93207 10.718ZM7.88525 10.7532L7.86061 10.7491L7.84137 10.7378L7.8249 10.7216L7.81121 10.7005C7.81619 10.7163 7.82613 10.7301 7.83951 10.7396C7.85288 10.7491 7.86895 10.7538 7.88525 10.7532Z" fill="#6C301E"/>
</g>
<g id="Group_18">
<path id="Vector_103" d="M7.2433 7.48398C7.44007 7.37776 7.60679 7.22188 7.7275 7.03125C7.34014 7.13748 7.16384 7.39293 7.2433 7.48651V7.48398ZM10.8636 7.60285C10.779 7.40405 10.6456 7.23073 10.4763 7.09954C10.5458 7.48398 10.7742 7.6762 10.8636 7.60538V7.60285Z" fill="#406325" stroke="#24420E" stroke-width="0.142566"/>
<path id="Vector_104" d="M7.24333 7.4834C7.16138 7.39235 7.33768 7.13943 7.72504 7.0332C7.45191 7.24566 7.24829 7.44294 7.24333 7.4834ZM10.8637 7.60228C10.7718 7.67815 10.5483 7.48593 10.4788 7.10402C10.6576 7.38223 10.8264 7.59722 10.8637 7.60228Z" fill="#67923D" stroke="#24420E" stroke-width="0.142566"/>
</g>
<g id="Group_19">
<path id="Vector_105" d="M8.31085 9.45791C8.31085 9.45791 8.15938 9.47562 8.11468 9.26064C8.06999 9.03048 8.24629 9.00771 8.24629 9.00771C8.24629 9.00771 8.44741 8.98495 8.57405 8.98242L8.62868 9.43768L8.31085 9.45791Z" fill="url(#paint0_radial_186_9021)" stroke="#999270" stroke-width="0.142566"/>
<path id="Vector_106" d="M8.33124 9.38977C8.33124 9.38977 8.23192 9.40747 8.21205 9.24813C8.19716 9.13432 8.26668 9.11914 8.26668 9.11914L8.49513 9.15961V9.367L8.33124 9.38977Z" fill="url(#paint1_radial_186_9021)" stroke="#999270" stroke-width="0.142566"/>
<path id="Vector_107" d="M8.2666 9.11984C8.2666 9.11984 8.41559 9.10973 8.49008 9.09961L8.52236 9.24377L8.34606 9.25389C8.34606 9.25389 8.33364 9.1249 8.2666 9.11984Z" fill="url(#paint2_radial_186_9021)" stroke="#999270" stroke-width="0.142566"/>
<path id="Vector_108" d="M8.23633 9.01059C8.23633 9.01059 8.42256 8.96254 8.44739 9.17246C8.45236 9.22811 8.42256 9.35457 8.33069 9.38998L8.67583 9.35204L8.64355 8.97266L8.52933 8.98277C8.52933 8.98277 8.28102 8.99036 8.23633 9.00807V9.01059Z" fill="url(#paint3_radial_186_9021)" stroke="#999270" stroke-width="0.142566"/>
<path id="Vector_109" d="M8.31127 9.45946C8.31127 9.45946 9.59999 9.37093 9.7316 9.37599C10.1239 9.15848 9.7316 8.30108 9.40135 7.82053C9.43859 7.71177 8.65891 7.46897 8.30879 7.49173C8.26161 7.49173 8.2194 7.49679 8.17967 7.49932C7.98847 7.51955 7.98599 7.76994 8.06296 7.92928C8.13746 8.08104 8.81782 9.32035 8.34107 9.4544L8.31127 9.45946Z" fill="#F9F0AA" stroke="#999270" stroke-width="0.142566"/>
<g id="Vector_110">
<path d="M9.69187 8.32637C9.60496 8.14174 9.50067 7.96469 9.40135 7.82053C9.43859 7.71177 8.65891 7.46897 8.30879 7.49173C8.26161 7.49173 8.2194 7.49679 8.17967 7.49932C7.98847 7.51955 7.98599 7.76994 8.06296 7.92928C8.0878 7.97481 8.16974 8.13162 8.25913 8.32637" fill="url(#paint4_linear_186_9021)"/>
<path d="M9.69187 8.32637C9.60496 8.14174 9.50067 7.96469 9.40135 7.82053C9.43859 7.71177 8.65891 7.46897 8.30879 7.49173C8.26161 7.49173 8.2194 7.49679 8.17967 7.49932C7.98847 7.51955 7.98599 7.76994 8.06296 7.92928C8.0878 7.97481 8.16974 8.13162 8.25913 8.32637" stroke="#999270" stroke-width="0.142566"/>
</g>
<g id="Vector_111">
<path d="M8.38105 8.62225C8.5201 8.99151 8.59708 9.38101 8.34132 9.45436L8.31152 9.45942C8.31152 9.45942 9.60273 9.37089 9.73185 9.37595C9.94539 9.25708 9.92553 8.95104 9.81131 8.61719" fill="url(#paint5_linear_186_9021)"/>
<path d="M8.38105 8.62225C8.5201 8.99151 8.59708 9.38101 8.34132 9.45436L8.31152 9.45942C8.31152 9.45942 9.60273 9.37089 9.73185 9.37595C9.94539 9.25708 9.92553 8.95104 9.81131 8.61719" stroke="#999270" stroke-width="0.142566"/>
</g>
<path id="Vector_112" d="M8.19251 7.57124C8.10064 7.57124 8.07581 7.66229 8.07829 7.71793C8.08077 7.86969 8.19251 7.87475 8.19251 7.87475L8.3415 7.86716L8.41102 7.55859L8.19251 7.57124Z" fill="url(#paint6_radial_186_9021)" stroke="#999270" stroke-width="0.142566"/>
<path id="Vector_113" d="M8.19238 7.57124L8.41089 7.55859L8.43573 7.78875L8.24204 7.79887C8.24204 7.79887 8.30412 7.61424 8.19238 7.57124Z" fill="url(#paint7_linear_186_9021)" stroke="#999270" stroke-width="0.142566"/>
<path id="Vector_114" d="M9.40165 7.81979C9.56801 7.7945 9.56553 7.56687 9.45131 7.47329C9.06643 7.45811 8.56236 7.47076 8.19487 7.49858C8.23708 7.49858 8.35378 7.5087 8.3662 7.66298C8.36877 7.69643 8.36333 7.73001 8.35036 7.76084C8.33738 7.79168 8.31726 7.81885 8.29171 7.84002C8.26299 7.862 8.22829 7.87437 8.19238 7.87543H8.28177L8.35627 7.86532C8.87771 7.79703 9.39916 7.81979 9.39916 7.81979H9.40165Z" fill="url(#paint8_linear_186_9021)" stroke="#999270" stroke-width="0.142566"/>
<path id="Vector_115" d="M8.46724 8.17674C8.46228 8.16915 8.45731 8.15904 8.44738 8.15651C8.44241 8.15651 8.43248 8.15651 8.43496 8.14639H8.45483L8.49456 8.14133C8.50449 8.14386 8.50201 8.15398 8.49456 8.15398C8.48214 8.15398 8.48959 8.16663 8.49207 8.17421L8.52435 8.25009C8.52684 8.26021 8.53429 8.26779 8.54173 8.26779L8.56905 8.26526C8.5765 8.26021 8.57401 8.25009 8.57401 8.23997C8.57153 8.23239 8.58643 8.23491 8.58643 8.23997L8.59636 8.27538C8.59636 8.28044 8.5914 8.27791 8.58643 8.27791L8.51194 8.28297C8.50449 8.28297 8.49207 8.29056 8.48711 8.28297C8.48711 8.27285 8.50201 8.27791 8.50201 8.27032L8.49456 8.24503L8.46724 8.17674ZM8.58643 8.16663C8.58395 8.16157 8.57898 8.15145 8.56905 8.14892C8.56408 8.14892 8.55415 8.14892 8.55415 8.1388C8.55912 8.13375 8.56657 8.1388 8.57153 8.1388L8.61374 8.13375C8.62119 8.13375 8.62368 8.14639 8.61374 8.14386C8.60629 8.14386 8.6063 8.15398 8.60878 8.16157L8.64602 8.24756C8.64602 8.25262 8.65099 8.26021 8.65844 8.26274C8.66341 8.26274 8.67334 8.26274 8.67582 8.27032C8.67582 8.27791 8.66589 8.27285 8.66092 8.27285C8.64851 8.27285 8.63609 8.27285 8.62119 8.27791C8.61623 8.27791 8.60878 8.27791 8.60878 8.27032C8.60878 8.26274 8.62119 8.27032 8.62368 8.26021C8.62368 8.25262 8.61871 8.24503 8.61374 8.23491L8.58643 8.16916V8.16663ZM8.69817 8.18686C8.69817 8.19192 8.7081 8.18686 8.71058 8.18686C8.71803 8.18686 8.72548 8.18433 8.72548 8.17674C8.72548 8.1641 8.71803 8.15145 8.7081 8.14639C8.70065 8.1388 8.69072 8.14133 8.68079 8.14133L8.68327 8.15398L8.69817 8.18686ZM8.71307 8.22733C8.71803 8.23491 8.72052 8.24503 8.72797 8.25262C8.73293 8.25768 8.74286 8.25515 8.74783 8.25262C8.75528 8.25262 8.76025 8.24503 8.75776 8.23997C8.75528 8.22227 8.74535 8.20709 8.72797 8.20203H8.70314L8.7081 8.21468L8.71307 8.22733ZM8.66341 8.16663C8.65844 8.15904 8.65596 8.14639 8.64602 8.14133C8.64106 8.14133 8.63113 8.14386 8.62864 8.13627C8.62864 8.12869 8.64354 8.13375 8.64851 8.13122C8.67085 8.13122 8.6932 8.12363 8.71307 8.13122C8.73045 8.13628 8.74783 8.15145 8.75031 8.17168C8.75031 8.1818 8.74286 8.18939 8.73542 8.19192L8.74783 8.19445C8.76273 8.19951 8.77515 8.20962 8.78259 8.2248C8.78756 8.23491 8.79004 8.24756 8.78259 8.25768C8.77266 8.26779 8.75776 8.26779 8.74783 8.26779C8.72797 8.26779 8.71058 8.26779 8.69072 8.27285C8.68327 8.27285 8.68079 8.26021 8.69072 8.26021C8.69817 8.26021 8.69817 8.25009 8.69569 8.24503L8.66341 8.16916V8.16663ZM8.84715 8.11857C8.8546 8.11857 8.85709 8.12616 8.85957 8.13122L8.86702 8.15398C8.85957 8.15904 8.8546 8.14892 8.85212 8.14386C8.84715 8.1388 8.84219 8.13122 8.83474 8.13375H8.80494C8.79998 8.1388 8.80494 8.14386 8.80743 8.14892L8.82232 8.18433C8.82729 8.18433 8.83722 8.18433 8.84219 8.17674C8.84219 8.17168 8.83474 8.15904 8.84715 8.16157C8.8546 8.16663 8.85212 8.17674 8.85709 8.18433L8.8695 8.21215C8.86205 8.21974 8.85709 8.20962 8.8546 8.20203C8.84964 8.19445 8.83722 8.19445 8.82977 8.19445C8.82481 8.19445 8.82977 8.19951 8.82977 8.20203L8.84467 8.23997C8.84964 8.24756 8.86205 8.24756 8.8695 8.24756C8.87695 8.24756 8.88937 8.24756 8.89433 8.23744C8.8993 8.23239 8.88688 8.21974 8.89433 8.21721C8.90427 8.21721 8.90427 8.22733 8.90675 8.23239C8.90675 8.23997 8.91171 8.24756 8.9142 8.25262C8.9142 8.25768 8.90675 8.25768 8.90427 8.25768L8.82977 8.26274C8.81984 8.26274 8.80743 8.26779 8.80494 8.25768C8.80494 8.25009 8.82232 8.25515 8.81984 8.24503L8.80991 8.21974L8.78259 8.15145C8.77763 8.14386 8.77266 8.13375 8.76273 8.13375C8.75776 8.13375 8.74783 8.13375 8.7528 8.12363H8.77763L8.84715 8.11857ZM8.90427 8.15145C8.90178 8.14386 8.89682 8.13375 8.88688 8.12869C8.88192 8.12869 8.8695 8.12869 8.8695 8.11857C8.87695 8.11351 8.88688 8.11857 8.89433 8.11857C8.9142 8.11857 8.93406 8.11098 8.95393 8.11857C8.97379 8.1211 8.99117 8.14133 8.99366 8.1641C8.99366 8.17421 8.98621 8.1818 8.97627 8.18433C8.96883 8.18433 8.98124 8.18686 8.98372 8.18939C9.00111 8.19698 9.00856 8.21215 9.01849 8.22733C9.02097 8.23239 9.0309 8.24503 9.03339 8.23239C9.03339 8.21974 9.04828 8.23239 9.0458 8.23997C9.0458 8.25009 9.03587 8.25515 9.02842 8.25515C9.01849 8.25515 9.00607 8.25009 9.00111 8.23997C8.99117 8.2248 8.98372 8.20709 8.96883 8.19698C8.96628 8.19438 8.96308 8.19253 8.95958 8.19164C8.95608 8.19075 8.95241 8.19084 8.94896 8.19192V8.20456L8.96386 8.23491C8.96883 8.2425 8.97876 8.2425 8.98869 8.2425C8.99614 8.24503 8.99366 8.25768 8.98372 8.25515H8.94151C8.93406 8.26021 8.91916 8.25515 8.92413 8.24756C8.93158 8.24756 8.94151 8.2425 8.93655 8.23491L8.91171 8.16916L8.90427 8.15145ZM8.93903 8.17674C8.94399 8.1818 8.95393 8.17674 8.96138 8.17674C8.96883 8.17674 8.96883 8.1641 8.96634 8.15904C8.96386 8.14639 8.95641 8.13375 8.94399 8.12869C8.93903 8.12869 8.92413 8.12363 8.92165 8.13122L8.93903 8.17168V8.17674ZM9.11781 8.21721C9.12029 8.2248 9.12526 8.23239 9.13271 8.23491C9.13767 8.23491 9.14761 8.23491 9.15009 8.2425C9.15009 8.25009 9.14016 8.24503 9.13519 8.24756H9.09546C9.08801 8.25009 9.08056 8.24756 9.08056 8.23997C9.08553 8.23491 9.09795 8.23997 9.09795 8.22986L9.08553 8.20203L9.05822 8.12869C9.05573 8.1211 9.0458 8.1211 9.04084 8.1211C9.03339 8.1211 9.02345 8.1211 9.02345 8.13122C9.02345 8.1388 9.02842 8.14639 9.02345 8.15145C9.016 8.15145 9.01352 8.14386 9.01104 8.1388C9.01104 8.13122 9.00607 8.12363 9.00111 8.11351C9.00111 8.10845 9.01104 8.11098 9.01352 8.11098L9.11781 8.10592C9.12526 8.10592 9.13023 8.11098 9.13023 8.11857L9.14016 8.14386C9.13768 8.15145 9.12774 8.14386 9.12526 8.13627C9.12278 8.12869 9.11284 8.11857 9.10291 8.11857C9.09795 8.11857 9.08801 8.11857 9.08305 8.12363L9.08801 8.14133L9.11781 8.21721ZM9.21217 8.19445C9.2072 8.19445 9.20968 8.20203 9.20968 8.20456V8.2248C9.21217 8.23491 9.2221 8.23239 9.22955 8.23491C9.23452 8.23491 9.23203 8.24756 9.22458 8.24503H9.19479C9.18734 8.24756 9.17492 8.2425 9.18237 8.23491C9.18734 8.23491 9.1923 8.23239 9.19479 8.22733V8.10087C9.19975 8.09328 9.2072 8.10087 9.20968 8.10592L9.29908 8.21974C9.30404 8.2248 9.31149 8.22986 9.31894 8.22986C9.32639 8.22986 9.32887 8.2425 9.31894 8.23997H9.28169C9.27673 8.23997 9.26928 8.24503 9.26431 8.23997C9.25935 8.23744 9.26431 8.22986 9.26928 8.22986C9.27673 8.22986 9.26928 8.21974 9.2668 8.21468L9.2519 8.19445H9.21217ZM9.23948 8.1818C9.24445 8.1818 9.23948 8.17927 9.23948 8.17674L9.2072 8.13375V8.18433H9.23948V8.1818ZM9.31646 8.13627C9.31397 8.12616 9.30901 8.11098 9.29659 8.11098C9.28914 8.11098 9.27921 8.10592 9.28418 8.10087H9.32639C9.34377 8.09834 9.36115 8.09834 9.37605 8.1034C9.4133 8.11604 9.4431 8.14892 9.45054 8.18939C9.45054 8.20456 9.44806 8.22227 9.43565 8.22986C9.41578 8.2425 9.39343 8.23997 9.37357 8.23744L9.33881 8.23997C9.33136 8.23997 9.32887 8.22733 9.33881 8.22986C9.34874 8.22986 9.34874 8.21721 9.34377 8.21215L9.31646 8.13627ZM9.36612 8.19951C9.3686 8.20709 9.37109 8.21721 9.37853 8.2248H9.40337C9.41578 8.2248 9.42075 8.21215 9.42075 8.20203C9.41968 8.18343 9.4146 8.16529 9.40585 8.14892C9.39592 8.13122 9.38102 8.11857 9.36115 8.11351C9.35293 8.1121 9.34454 8.1121 9.33632 8.11351C9.33384 8.11351 9.33632 8.11857 9.33632 8.12363L9.36612 8.19951ZM8.84219 8.51313C8.84219 8.52072 8.85212 8.5283 8.86205 8.5283C8.86702 8.5283 8.87943 8.5283 8.87943 8.53842C8.87447 8.54348 8.86454 8.53842 8.85957 8.53842L8.82232 8.54348H8.79998C8.79501 8.54348 8.79501 8.53336 8.80246 8.53336C8.80991 8.53336 8.81736 8.53083 8.81736 8.52324L8.81239 8.50301L8.78259 8.43219C8.78259 8.42461 8.77266 8.42461 8.76521 8.42461C8.76025 8.42461 8.75031 8.42713 8.74783 8.41955C8.74783 8.41196 8.76025 8.41449 8.76521 8.40943L8.79004 8.40184C8.79501 8.40184 8.79749 8.40437 8.79749 8.40943L8.84219 8.51313ZM8.85957 8.39931H8.90923C8.91916 8.39931 8.9142 8.38667 8.91916 8.38667C8.9291 8.38667 8.9291 8.39931 8.9291 8.40437C8.9291 8.41449 8.92165 8.42208 8.9142 8.41955H8.87695L8.88937 8.4499L8.90427 8.44484C8.9291 8.44484 8.95889 8.46001 8.96883 8.48531C8.97379 8.49795 8.97628 8.5106 8.96883 8.52324C8.95889 8.53589 8.94399 8.53842 8.9291 8.53842C8.91668 8.53842 8.90427 8.53589 8.89433 8.52324C8.89185 8.51819 8.89185 8.50554 8.8993 8.50807C8.90923 8.50807 8.91668 8.51313 8.91668 8.52324C8.91916 8.5283 8.9291 8.52577 8.93406 8.52577C8.94151 8.52577 8.94896 8.52072 8.94896 8.51313C8.94896 8.50048 8.94399 8.48784 8.93655 8.47772C8.93158 8.4676 8.91916 8.46001 8.90427 8.46001L8.8844 8.46254C8.87695 8.46254 8.87695 8.45496 8.87447 8.4499L8.85709 8.40184L8.86205 8.39931H8.85957ZM9.0309 8.42461C9.02594 8.41449 9.02097 8.40184 9.00855 8.39931C9.00359 8.39931 8.99117 8.39678 8.99862 8.3892H9.03835C9.05573 8.38414 9.0756 8.38667 9.0905 8.39173C9.12774 8.40437 9.15754 8.43725 9.16499 8.47772C9.16499 8.49289 9.16251 8.50807 9.14761 8.51819C9.13023 8.5283 9.10788 8.52577 9.08801 8.52577L9.05573 8.53083C9.04828 8.53083 9.0458 8.51819 9.05573 8.51819C9.06318 8.51819 9.06318 8.50807 9.0607 8.50048L9.0309 8.42461ZM9.08056 8.48784C9.08305 8.49542 9.08801 8.50554 9.09546 8.51313H9.12029C9.13023 8.5106 9.13519 8.49795 9.13519 8.48784C9.13519 8.47013 9.12774 8.45243 9.11781 8.43472C9.10788 8.41702 9.09298 8.40437 9.07311 8.40184C9.0649 8.40043 9.0565 8.40043 9.04828 8.40184V8.41196L9.08056 8.48784ZM9.23948 8.37908C9.24693 8.37908 9.24941 8.38667 9.2519 8.39173C9.2519 8.39931 9.25686 8.40437 9.25935 8.41196C9.25438 8.41955 9.24693 8.41196 9.24445 8.40437C9.24196 8.39931 9.237 8.39173 9.22955 8.39173H9.19727C9.1923 8.39678 9.19727 8.40437 9.19727 8.4069L9.21217 8.44231C9.21962 8.44231 9.22707 8.44231 9.23203 8.43725C9.237 8.43219 9.22458 8.41955 9.237 8.42208C9.24445 8.42208 9.24445 8.43472 9.24693 8.44231L9.25935 8.47013C9.25686 8.48025 9.24693 8.47013 9.24445 8.46254C9.24196 8.45496 9.23203 8.45496 9.22458 8.45496C9.21962 8.45496 9.21465 8.45496 9.21962 8.46001L9.23452 8.49795C9.23948 8.50807 9.2519 8.50554 9.25935 8.50554C9.26928 8.50554 9.27921 8.50554 9.28418 8.49795C9.28914 8.49289 9.27921 8.48278 9.28418 8.47772C9.29411 8.47772 9.29659 8.48531 9.29659 8.49036L9.30404 8.51566C9.30404 8.51819 9.29659 8.51566 9.29411 8.51566L9.21713 8.52072C9.20969 8.52072 9.19975 8.52577 9.19479 8.51819C9.18982 8.50807 9.2072 8.51313 9.20968 8.50554L9.20224 8.48278L9.17492 8.40943C9.16996 8.40184 9.16499 8.39425 9.15506 8.39173C9.15009 8.39173 9.14016 8.39173 9.14512 8.38161H9.16996L9.23948 8.37908ZM8.56408 8.74076C8.56657 8.7534 8.57898 8.75846 8.58891 8.76099C8.60878 8.76605 8.63113 8.77364 8.64354 8.78881C8.65099 8.79893 8.65596 8.81157 8.65596 8.82422C8.65596 8.83687 8.64354 8.84698 8.63113 8.84951C8.61871 8.85457 8.60381 8.85204 8.58891 8.84698C8.58395 8.84445 8.58643 8.8571 8.5765 8.85457C8.57153 8.84951 8.57402 8.8394 8.57153 8.83181C8.56872 8.82318 8.5654 8.81474 8.5616 8.80652C8.5616 8.79893 8.57153 8.80652 8.57401 8.81157C8.58146 8.82675 8.59636 8.83687 8.61374 8.8394C8.62368 8.8394 8.63361 8.83434 8.63361 8.82422C8.63361 8.81157 8.62368 8.79893 8.61374 8.79387C8.59636 8.78628 8.57898 8.78375 8.56408 8.77364C8.55699 8.76949 8.55102 8.76363 8.54669 8.75657C8.54236 8.74951 8.5398 8.74147 8.53925 8.73317C8.53925 8.72305 8.54918 8.71294 8.55912 8.71041C8.57153 8.70535 8.58395 8.70535 8.59885 8.71041C8.60381 8.71041 8.60629 8.70282 8.61374 8.70788C8.61374 8.71294 8.61374 8.71799 8.61871 8.72305L8.62616 8.74581C8.62119 8.75087 8.61374 8.74582 8.61374 8.74076C8.60629 8.73064 8.60133 8.72052 8.58891 8.72052C8.57898 8.72052 8.56905 8.72052 8.56408 8.72811V8.74076ZM8.72797 8.69776C8.7379 8.69776 8.7379 8.70535 8.74038 8.71041L8.74535 8.73064C8.74535 8.73823 8.73542 8.73064 8.73293 8.72558C8.73045 8.72052 8.72548 8.71294 8.71555 8.71294H8.68575C8.68079 8.71799 8.68575 8.72558 8.68575 8.72811L8.69817 8.76352C8.70562 8.76352 8.71307 8.76352 8.71803 8.75846C8.723 8.7534 8.71307 8.74329 8.72052 8.74076C8.73045 8.74076 8.73045 8.7534 8.73293 8.75846C8.73293 8.76858 8.74038 8.7787 8.74286 8.79134C8.74038 8.79893 8.73045 8.79134 8.73045 8.78375C8.72797 8.77617 8.71803 8.77364 8.71058 8.77617C8.70562 8.77617 8.70065 8.77617 8.70314 8.78122L8.71803 8.81916C8.72052 8.82675 8.72797 8.82675 8.73542 8.82675C8.74535 8.82675 8.75776 8.82675 8.76521 8.81916C8.77018 8.8141 8.76521 8.80399 8.76521 8.79893C8.77266 8.79387 8.78011 8.79893 8.78011 8.80652L8.78508 8.83181C8.78508 8.83687 8.77763 8.83687 8.77514 8.83687L8.70065 8.84193C8.69072 8.84193 8.68079 8.84951 8.67582 8.84193C8.67582 8.83181 8.68824 8.83434 8.69072 8.82675C8.69072 8.82169 8.69072 8.8141 8.68575 8.80652L8.66092 8.73064C8.66092 8.72305 8.65347 8.71546 8.64354 8.71546C8.63858 8.71546 8.62864 8.71294 8.63361 8.70535H8.65844L8.72797 8.69776ZM8.83226 8.80399C8.83474 8.81157 8.8397 8.81916 8.84715 8.82169C8.8546 8.82169 8.86454 8.81916 8.86702 8.82675C8.86702 8.83687 8.8546 8.83181 8.84964 8.83181C8.83474 8.83181 8.82481 8.83181 8.80991 8.83687C8.80494 8.83687 8.79749 8.83687 8.79501 8.83181C8.79501 8.82169 8.80742 8.82675 8.80991 8.82169L8.80743 8.80146L8.78259 8.72558C8.77763 8.71799 8.77514 8.70788 8.76521 8.70788C8.76025 8.70788 8.75031 8.70788 8.7528 8.69776C8.75528 8.6927 8.76273 8.69776 8.77018 8.69776C8.78756 8.69776 8.80494 8.69017 8.82481 8.6927C8.8339 8.69333 8.84265 8.69649 8.85009 8.70184C8.85754 8.7072 8.86339 8.71454 8.86702 8.72305C8.87199 8.73317 8.87199 8.74834 8.86702 8.75593C8.8546 8.76605 8.8397 8.76858 8.82481 8.77111C8.81984 8.77111 8.82481 8.77617 8.82481 8.7787L8.83226 8.80399ZM8.81736 8.75846H8.83474C8.84219 8.75593 8.84715 8.74834 8.84467 8.74076C8.84467 8.72811 8.83971 8.71799 8.83226 8.71041C8.82481 8.70282 8.81239 8.70282 8.80494 8.70535C8.79998 8.70788 8.80494 8.71294 8.80494 8.71799L8.81736 8.75846ZM8.97131 8.7964C8.97131 8.80146 8.97627 8.81157 8.98372 8.81157C8.98869 8.81157 9.00111 8.81157 9.00111 8.81916C9.00111 8.82675 8.98869 8.82422 8.98372 8.82422L8.94399 8.82675C8.93903 8.82675 8.93158 8.82675 8.93158 8.81916C8.93655 8.8141 8.94896 8.81916 8.94896 8.80905L8.94151 8.7787L8.91668 8.70535C8.91668 8.69776 8.90675 8.70029 8.8993 8.70029C8.89433 8.70029 8.8844 8.70029 8.88192 8.70788V8.72811C8.87695 8.73317 8.8695 8.72811 8.87198 8.72052L8.86205 8.69523C8.86205 8.68764 8.8695 8.69017 8.87447 8.68764L8.97627 8.68258C8.98372 8.68258 8.98869 8.68764 8.98869 8.69523L8.99862 8.72052C8.99614 8.72558 8.98621 8.72052 8.98621 8.71546C8.98124 8.70788 8.97379 8.69776 8.96138 8.69776C8.95641 8.69776 8.94896 8.69523 8.94151 8.69776L8.94648 8.71546L8.97131 8.7964ZM9.02345 8.71294C9.02097 8.70535 9.01849 8.69523 9.00855 8.6927C9.00359 8.6927 8.99366 8.6927 8.99366 8.68258C8.99614 8.67753 9.00359 8.68258 9.00855 8.68258L9.05325 8.67753C9.0607 8.675 9.06567 8.68764 9.05822 8.68764C9.05077 8.68764 9.04332 8.6927 9.0458 8.70029L9.05822 8.74076L9.0756 8.7964C9.0756 8.80146 9.08305 8.80652 9.08801 8.80652C9.09546 8.80652 9.1054 8.80652 9.10291 8.81663H9.08553L9.0458 8.82169C9.04083 8.82169 9.0309 8.81663 9.03587 8.81157C9.04083 8.80905 9.05077 8.81157 9.05077 8.80146L9.04332 8.77111L9.02345 8.71294ZM9.16747 8.67247C9.17492 8.67247 9.17492 8.68006 9.1774 8.68511L9.18237 8.70535C9.17989 8.71294 9.16996 8.70535 9.16996 8.70029C9.16747 8.6927 9.16251 8.68511 9.15257 8.68511H9.12526C9.12029 8.69017 9.12526 8.69776 9.12526 8.70282L9.13768 8.7357C9.14264 8.7357 9.15009 8.7357 9.15754 8.73064C9.16251 8.72811 9.15257 8.71546 9.16002 8.71546C9.16996 8.71546 9.16996 8.72558 9.17244 8.73064C9.17244 8.74329 9.17989 8.7534 9.18237 8.76352C9.17989 8.77111 9.16996 8.76352 9.16996 8.75846C9.16747 8.75087 9.15754 8.74834 9.15009 8.74834C9.14761 8.74834 9.13768 8.74834 9.14264 8.7534L9.15506 8.79134C9.15754 8.79893 9.16747 8.80146 9.17244 8.80146C9.18237 8.80146 9.19479 8.80146 9.20224 8.79387C9.2072 8.78881 9.20224 8.77869 9.20472 8.77111C9.21217 8.76858 9.21713 8.77364 9.21713 8.78122L9.2221 8.80652C9.2221 8.81157 9.21713 8.81157 9.21217 8.81157L9.13768 8.8141C9.12774 8.8141 9.12029 8.81916 9.11284 8.8141C9.11036 8.80399 9.12526 8.80652 9.12774 8.80146C9.12873 8.79809 9.12902 8.79456 9.12859 8.79107C9.12816 8.78759 9.12703 8.78424 9.12526 8.78122L9.10043 8.70535C9.10043 8.69776 9.09298 8.68764 9.08305 8.68764C9.07808 8.68764 9.06815 8.68259 9.07311 8.67753H9.09795L9.16996 8.67247H9.16747ZM9.21713 8.69776C9.21465 8.68764 9.2072 8.68006 9.19727 8.68006C9.18982 8.68258 9.18485 8.66488 9.19727 8.66994H9.23452L9.2519 8.6927L9.30652 8.76605C9.30156 8.76605 9.30653 8.76099 9.30404 8.75846L9.31397 8.66741C9.31894 8.66235 9.33136 8.66741 9.33881 8.66235C9.34625 8.66235 9.36364 8.66235 9.35867 8.67247C9.34874 8.67247 9.3388 8.67753 9.34377 8.68764L9.37357 8.7787C9.37357 8.78881 9.3835 8.79387 9.39343 8.79134C9.40088 8.79134 9.40088 8.80652 9.39343 8.80399H9.34874C9.34129 8.80652 9.32887 8.80652 9.33136 8.7964C9.3388 8.7964 9.35122 8.79134 9.34625 8.78122L9.32142 8.70029C9.32391 8.70282 9.32142 8.70788 9.32142 8.71041L9.31646 8.78628L9.31397 8.80652C9.30653 8.80905 9.30404 8.80399 9.30156 8.79893L9.22955 8.70535L9.23452 8.71294C9.24196 8.73823 9.24693 8.76352 9.25686 8.78628C9.25686 8.7964 9.26928 8.79893 9.27673 8.79893C9.28666 8.80399 9.27921 8.81157 9.27176 8.80905H9.23452C9.22707 8.80905 9.22707 8.79893 9.23452 8.79893C9.24693 8.79893 9.24445 8.78628 9.23948 8.7787L9.21713 8.69776ZM9.43316 8.71799C9.43316 8.72305 9.44309 8.71799 9.44558 8.71799C9.45303 8.71799 9.46048 8.71799 9.46296 8.70788C9.46296 8.69776 9.45799 8.68259 9.45054 8.67753C9.44061 8.66994 9.43068 8.67247 9.42075 8.67247V8.68511L9.43316 8.71799ZM9.44558 8.75846L9.45551 8.78375C9.46296 8.78881 9.47041 8.78628 9.47786 8.78628C9.48282 8.78628 9.49027 8.78122 9.48779 8.77364C9.48779 8.75846 9.48034 8.74076 9.46544 8.7357H9.44061V8.74329L9.44558 8.75846ZM9.3984 8.69776C9.39592 8.68764 9.39343 8.67753 9.3835 8.67247C9.37853 8.67247 9.3686 8.67247 9.3686 8.66488C9.3686 8.65729 9.38102 8.66488 9.38598 8.66235C9.41081 8.66235 9.43068 8.65729 9.45303 8.66235C9.47041 8.66741 9.48531 8.68511 9.48531 8.70282C9.48531 8.71294 9.47537 8.72052 9.46793 8.72558C9.46793 8.72052 9.47786 8.72558 9.48034 8.72558C9.49276 8.73064 9.50517 8.74076 9.51014 8.75593C9.5151 8.76605 9.51759 8.7787 9.51014 8.78881C9.50021 8.79893 9.48531 8.79893 9.47289 8.79893L9.41578 8.80146C9.40833 8.80146 9.40585 8.78881 9.41578 8.79134C9.42323 8.79134 9.42571 8.78122 9.42075 8.77364L9.3984 8.69776ZM9.52504 8.6927C9.52504 8.68511 9.52007 8.67247 9.51014 8.66741C9.50517 8.66741 9.49524 8.66741 9.49524 8.65982C9.50021 8.65223 9.51014 8.65982 9.52007 8.65729H9.56973C9.5896 8.65729 9.60698 8.67247 9.61194 8.6927C9.61443 8.70282 9.61194 8.71799 9.60201 8.72305L9.59208 8.72811C9.60698 8.73317 9.61939 8.74581 9.62684 8.75846L9.63926 8.7787C9.64423 8.78375 9.64671 8.77617 9.64671 8.77111C9.65664 8.76605 9.66161 8.77869 9.65664 8.78628C9.65416 8.7964 9.63926 8.79893 9.63181 8.7964C9.6274 8.79615 9.62315 8.79458 9.61962 8.79188C9.61608 8.78918 9.61341 8.78547 9.61194 8.78122L9.58711 8.73823C9.57966 8.7357 9.57222 8.73064 9.56477 8.7357V8.74581L9.57718 8.77617C9.57966 8.78375 9.5896 8.78628 9.59705 8.78628C9.60698 8.78628 9.60698 8.79893 9.59705 8.7964H9.55235C9.54738 8.7964 9.53745 8.80146 9.53497 8.7964C9.53 8.78375 9.5449 8.78881 9.54987 8.78375L9.5449 8.76099L9.52504 8.6927ZM9.55732 8.71799C9.5598 8.72558 9.57222 8.71799 9.57718 8.71799C9.58463 8.71799 9.5896 8.71041 9.58711 8.70535C9.58711 8.6927 9.58215 8.68006 9.5747 8.67247C9.56725 8.66741 9.55732 8.66741 9.54987 8.66994C9.5449 8.66994 9.54738 8.67753 9.54987 8.68258L9.55732 8.71546V8.71799ZM9.72865 8.65223C9.7361 8.65223 9.7361 8.65982 9.73858 8.66488C9.73858 8.67247 9.74355 8.68006 9.74603 8.68511C9.74107 8.6927 9.73362 8.68511 9.73113 8.68006C9.73113 8.675 9.72617 8.66488 9.71623 8.66488H9.68395C9.67899 8.66741 9.68395 8.675 9.68395 8.68006L9.69389 8.71546C9.70134 8.71546 9.70879 8.71546 9.71375 8.71041C9.7212 8.70788 9.71127 8.69776 9.71872 8.6927C9.72865 8.6927 9.72865 8.70282 9.72865 8.71041C9.72865 8.72305 9.7361 8.73317 9.73858 8.74329C9.7361 8.75087 9.72617 8.74329 9.72617 8.73823C9.72617 8.73064 9.71623 8.72558 9.70879 8.72811C9.7063 8.72811 9.69637 8.72305 9.69885 8.72811L9.71127 8.77111C9.71375 8.77869 9.7212 8.7787 9.72865 8.7787C9.73858 8.7787 9.751 8.77869 9.75845 8.77364C9.76341 8.76858 9.75845 8.75846 9.76093 8.7534C9.76838 8.74834 9.77583 8.7534 9.77335 8.76099L9.77831 8.78628C9.77831 8.79134 9.77086 8.79134 9.76838 8.79134H9.6914C9.68395 8.79134 9.6765 8.7964 9.67154 8.79134C9.66409 8.78122 9.6765 8.78375 9.68147 8.7787C9.68644 8.77364 9.68147 8.76605 9.68147 8.76099L9.65912 8.68258C9.65912 8.675 9.65167 8.66488 9.64422 8.66488C9.63678 8.66488 9.62933 8.66235 9.63181 8.65476H9.65664L9.72865 8.65223ZM8.9142 8.98356C8.9142 8.97597 8.90923 8.96333 8.8993 8.95827C8.89185 8.95827 8.88192 8.95827 8.88688 8.95068L8.91171 8.94815C8.93158 8.94815 8.95144 8.94309 8.97131 8.94815C9.00111 8.95321 9.02842 8.9785 9.03587 9.00632C9.04083 9.02656 9.04332 9.04679 9.0309 9.0645C9.01849 9.07967 8.99614 9.08473 8.97627 9.08473C8.95889 9.08473 8.94399 9.08473 8.9291 9.08979C8.92413 9.09232 8.9142 9.08726 8.91916 9.07967C8.92661 9.07967 8.93655 9.07714 8.93406 9.06703L8.92413 9.02909L8.9142 8.98356ZM8.95393 9.04679C8.95641 9.05438 8.95889 9.0645 8.96386 9.06955C8.97131 9.07461 8.98124 9.07208 8.98869 9.06955C8.99862 9.06955 9.00855 9.05944 9.01104 9.04679C9.01299 9.02766 9.00954 9.00836 9.00111 8.99115C8.9979 8.98331 8.9928 8.97642 8.98629 8.97112C8.97978 8.96582 8.97207 8.96227 8.96386 8.9608C8.95483 8.95908 8.94557 8.95908 8.93655 8.9608C8.93406 8.9608 8.93655 8.96586 8.93655 8.97091L8.95393 9.04679ZM9.13023 8.93298C9.13768 8.93298 9.13768 8.94056 9.14016 8.94562L9.14512 8.96839C9.14016 8.97344 9.13271 8.96839 9.13271 8.96333C9.13023 8.95574 9.12526 8.94815 9.11781 8.94815H9.08553C9.08056 8.95068 9.08553 8.95827 9.08553 8.96333C9.08553 8.97597 9.0905 8.98862 9.09298 8.99874C9.10043 8.99874 9.10788 8.99874 9.11284 8.99368C9.11781 8.98862 9.11036 8.9785 9.11781 8.97597C9.12774 8.97597 9.12526 8.98862 9.12774 8.99368L9.13519 9.02656C9.13519 9.03415 9.12278 9.02656 9.12278 9.0215C9.12278 9.01391 9.11284 9.00885 9.1054 9.01138C9.10291 9.01138 9.09298 9.00885 9.09795 9.01391C9.09795 9.02656 9.10291 9.0392 9.10788 9.05438C9.10788 9.06197 9.11781 9.06197 9.12526 9.06197C9.13519 9.06197 9.14761 9.06197 9.15506 9.05438C9.16002 9.04932 9.15506 9.0392 9.16002 9.03414C9.16499 9.02909 9.16996 9.03667 9.16996 9.04426C9.16996 9.05185 9.16996 9.05944 9.17492 9.06955C9.17244 9.07461 9.16747 9.07208 9.16251 9.07208L9.08801 9.07714C9.08056 9.07714 9.07312 9.0822 9.06567 9.07714C9.0607 9.07208 9.06815 9.06703 9.0756 9.06703C9.08305 9.0645 9.08056 9.05438 9.07808 9.04932L9.0607 8.96839C9.05822 8.9608 9.05325 8.95068 9.0458 8.95068C9.03835 8.95068 9.0309 8.94815 9.03339 8.94056H9.05822L9.13023 8.93298ZM9.29163 9.03667C9.29163 9.04426 9.29908 9.05185 9.30652 9.05438C9.31149 9.05438 9.32142 9.05438 9.32391 9.05944C9.32639 9.06702 9.31397 9.0645 9.30901 9.0645L9.2668 9.06703C9.25935 9.06703 9.2519 9.06955 9.24693 9.06703C9.23948 9.06703 9.24196 9.05691 9.24941 9.05691C9.25686 9.05691 9.26431 9.05438 9.2668 9.04679L9.26431 9.02656L9.24693 8.95574C9.24693 8.94815 9.23948 8.94815 9.23203 8.94815C9.22707 8.94815 9.21713 8.95321 9.21465 8.94562C9.21465 8.93551 9.22707 8.93804 9.23203 8.93551L9.25935 8.92539C9.26431 8.92539 9.2668 8.92792 9.2668 8.93298L9.29163 9.03667ZM9.3835 8.95321C9.3835 8.94309 9.37605 8.93298 9.36612 8.93298C9.35867 8.93298 9.34874 8.93298 9.34625 8.94056C9.34377 8.95068 9.34625 8.9608 9.35619 8.96586L9.37853 8.9785L9.3835 8.96333V8.95321ZM9.40337 9.02656C9.40337 9.01391 9.38847 9.00632 9.37853 9.00127C9.37357 9.00127 9.3686 8.99621 9.36612 8.99874C9.36227 9.00155 9.35928 9.00542 9.35752 9.0099C9.35576 9.01439 9.3553 9.01929 9.35619 9.02403C9.36115 9.0392 9.3686 9.04932 9.38102 9.04932C9.39095 9.05185 9.40088 9.04932 9.40585 9.0392V9.02656H9.40337ZM9.4282 9.0215C9.4282 9.03414 9.42323 9.04679 9.4133 9.05438C9.40088 9.0645 9.38102 9.0645 9.36364 9.05944C9.34874 9.05691 9.33881 9.04426 9.33384 9.02909C9.33384 9.01644 9.33632 9.00379 9.34625 8.99368C9.34874 8.99368 9.35867 8.99115 9.35122 8.98862C9.33881 8.98356 9.32639 8.97344 9.32639 8.95827C9.32142 8.94562 9.32639 8.93298 9.33881 8.92539C9.3498 8.91962 9.36251 8.91824 9.37445 8.92152C9.38639 8.92479 9.3967 8.93249 9.40337 8.94309C9.40833 8.95321 9.40833 8.96586 9.40337 8.97344L9.38847 8.98609C9.40088 8.98609 9.4133 8.99621 9.41826 9.00632C9.42323 9.00885 9.42571 9.01644 9.42571 9.0215H9.4282ZM9.50765 9.03667C9.51262 9.03667 9.52007 9.03162 9.52007 9.02656C9.52255 9.0215 9.52007 9.00885 9.52752 9.01138C9.53497 9.01138 9.53249 9.01897 9.53497 9.02656C9.53497 9.03667 9.53497 9.04679 9.52504 9.05438C9.52007 9.05944 9.51262 9.05691 9.50517 9.05691H9.46296C9.45799 9.05691 9.45054 9.06197 9.44558 9.05691C9.44061 9.05185 9.44558 9.04426 9.44558 9.0392C9.45054 9.0215 9.46048 9.00885 9.47041 8.99874C9.48034 8.99115 9.49027 8.98356 9.49027 8.97091C9.49027 8.9608 9.49027 8.95068 9.48531 8.94056C9.48354 8.93771 9.48123 8.93524 9.47852 8.93331C9.4758 8.93137 9.47274 8.93001 9.4695 8.92931C9.46626 8.9286 9.46291 8.92856 9.45966 8.92919C9.4564 8.92982 9.4533 8.93111 9.45054 8.93298C9.4431 8.93551 9.43813 8.94562 9.44309 8.95068C9.44806 8.95574 9.45799 8.95068 9.46048 8.9608C9.46544 8.96586 9.46048 8.97597 9.45303 8.97597C9.4431 8.97597 9.43316 8.96839 9.4282 8.95827C9.42571 8.94562 9.43068 8.93045 9.44309 8.92286C9.45551 8.91527 9.47041 8.91527 9.48531 8.9178C9.49772 8.92286 9.51014 8.93298 9.5151 8.94815C9.51759 8.95827 9.51759 8.97092 9.51262 8.98103C9.50269 8.99874 9.48282 9.00632 9.47041 9.02403C9.46793 9.02656 9.46544 9.03162 9.46793 9.0392C9.46793 9.03162 9.47786 9.03414 9.48034 9.03414L9.50765 9.03667ZM9.6045 9.02656C9.6045 9.03162 9.61194 9.0392 9.61939 9.04173C9.62436 9.04173 9.63429 9.04173 9.63678 9.04679C9.64174 9.05438 9.62933 9.05438 9.62436 9.05438H9.55732C9.55235 9.05185 9.55732 9.04173 9.56228 9.04426C9.56973 9.04426 9.57718 9.04173 9.57966 9.03414V9.01391L9.56228 8.94309C9.56228 8.93551 9.55483 8.93551 9.54987 8.93551C9.54242 8.93551 9.53497 8.94056 9.53249 8.93551C9.52752 8.92539 9.53994 8.92539 9.5449 8.92286L9.5747 8.91274C9.58215 8.91274 9.58215 8.91527 9.58463 8.92033L9.6045 9.02656Z" fill="#B07E09"/>
</g>
<g id="Group_20">
<path id="Vector_116" d="M8.89674 6.96289L8.80238 7.07923C8.77258 7.21075 8.84708 7.31192 8.99358 7.39792C9.11028 7.47379 9.3288 7.4915 9.39832 7.43079L9.05814 7.102L8.89674 6.96289Z" fill="url(#paint9_radial_186_9021)" stroke="#4C0505" stroke-width="0.142566"/>
<path id="Vector_117" d="M9.58722 10.3743L9.53756 10.311C9.32173 10.6094 9.04464 10.8562 8.72559 11.0344C9.10053 10.9282 9.34636 10.6499 9.58722 10.3743ZM9.20234 11.2772C9.34204 10.9987 9.4928 10.7262 9.65426 10.4603L9.60212 10.392C9.41837 10.7005 9.20482 11.0673 9.20482 11.2772H9.20234ZM10.2403 8.38124C10.2167 8.26796 10.1809 8.15769 10.1335 8.05245C9.86727 7.5953 9.4935 7.21285 9.0459 6.93959V6.932H9.05584L9.05335 6.92948H9.06329L9.05832 6.92189H9.06825L9.0608 6.91177H9.07073L9.06329 6.90418H9.0757L9.06825 6.89407H9.07818L9.06825 6.88648L9.08315 6.88395L9.07073 6.87636L9.08315 6.87383L9.07322 6.86625L9.08812 6.86119L9.0757 6.8536L9.0906 6.84601L9.0757 6.83589L9.09308 6.83084L9.07322 6.82325L9.0906 6.81313H9.07073L9.08315 6.79543H9.06577L9.07322 6.78278H9.05832L9.06577 6.77014L9.04839 6.77266L9.05584 6.75749L9.04094 6.76761L9.0459 6.7499L9.02852 6.76002L9.03101 6.74231L9.01611 6.75496L9.01859 6.73726L9.00618 6.7499V6.7322L8.99376 6.74737V6.72967L8.98383 6.74231L8.97886 6.72714L8.96893 6.74231L8.96645 6.72461L8.959 6.74231L8.95403 6.72461L8.94658 6.74231L8.94161 6.72714L8.93665 6.74231L8.93168 6.72714L8.92672 6.74737L8.92175 6.72967L8.9143 6.7499L8.90685 6.7322V6.75243L8.89692 6.73473V6.75496L8.8845 6.73978V6.76002L8.87457 6.74484V6.76255L8.86464 6.75496L8.86961 6.77266L8.85719 6.76508L8.86216 6.78025L8.85222 6.77519L8.85471 6.79037H8.84477L8.84974 6.80049H8.84229L8.84726 6.8106C8.83825 6.83916 8.83488 6.86924 8.83732 6.89912C8.83732 6.90418 8.85222 6.90924 8.85471 6.9143C8.86216 6.92442 8.85967 6.92948 8.85967 6.92948C8.81994 6.99524 8.78518 7.04582 8.7827 7.1217C8.81249 7.08123 8.84726 7.03064 8.89195 7.03064C8.86961 7.06858 8.85967 7.18493 8.8845 7.20263L8.90437 7.16975C8.90437 7.19504 8.90685 7.21528 8.9143 7.22792C8.92175 7.21275 8.9292 7.19504 8.93913 7.18493C8.93913 7.22286 8.9441 7.25321 8.95403 7.26839C8.96645 7.24816 8.97886 7.23804 8.99376 7.22792C8.98879 7.25069 8.98134 7.27092 8.98631 7.29621C9.00121 7.27092 9.01611 7.25321 9.03349 7.23298C9.02356 7.27345 9.03349 7.3038 9.04342 7.3468C9.05335 7.29621 9.05832 7.28862 9.08067 7.26839C9.08315 7.31644 9.0757 7.35944 9.08563 7.38726C9.1055 7.34427 9.1204 7.34932 9.1353 7.3215C9.13033 7.36197 9.12288 7.40497 9.1353 7.44038C9.14252 7.41328 9.15932 7.38986 9.18247 7.37462C9.18247 7.43026 9.19489 7.42014 9.16261 7.4682C9.17751 7.47326 9.22469 7.45808 9.252 7.44543C9.23958 7.47579 9.24207 7.49855 9.22965 7.52131C9.25448 7.50614 9.27931 7.48337 9.30166 7.46061C9.29173 7.49602 9.26442 7.53143 9.27683 7.56431C9.28428 7.53143 9.30911 7.50614 9.33394 7.50108C9.32898 7.51878 9.32649 7.55672 9.30166 7.57442C9.36126 7.57948 9.38609 7.53902 9.41588 7.50614C9.4134 7.53902 9.41588 7.56684 9.45561 7.61489C9.44816 7.55419 9.46058 7.56684 9.48789 7.53143C9.50279 7.58454 9.51769 7.64271 9.57232 7.68318C9.54749 7.62501 9.54749 7.59466 9.55742 7.55925C9.56487 7.59719 9.59963 7.64271 9.60708 7.67559C9.61453 7.63765 9.6195 7.59972 9.63191 7.57442C9.65016 7.61968 9.66187 7.66738 9.66668 7.71606C9.67909 7.69077 9.68902 7.66548 9.69399 7.64018C10.1856 8.15867 10.2949 8.82133 9.75607 9.52192C9.94975 9.3904 9.99941 9.18047 10.1062 9.0009C10.0019 9.23612 9.9572 9.49915 9.77097 9.6939C9.94975 9.53709 9.98699 9.39293 10.0938 9.24117C9.98203 9.55733 9.82063 9.90383 9.60212 10.2225L9.7213 10.354L9.82063 10.1795C10.054 9.79001 10.4339 9.23106 10.2428 8.38124H10.2403Z" fill="#448127" stroke="#34541F" stroke-width="0.142566"/>
</g>
<path id="Vector_118" d="M8.83295 6.85781C8.80812 6.86287 8.79819 6.87299 8.77832 6.89322C8.80315 6.89828 8.82053 6.90081 8.84288 6.90081C8.84785 6.90081 8.85033 6.89069 8.85033 6.88563L8.84536 6.86034C8.84536 6.85528 8.83046 6.85781 8.8255 6.86034L8.83295 6.85781Z" fill="#EAC102" stroke="#A08307" stroke-width="0.142566"/>
<path id="Vector_119" d="M8.77832 6.89351C8.796 6.88718 8.81433 6.88294 8.83295 6.88086C8.81528 6.8872 8.79695 6.89145 8.77832 6.89351Z" fill="#A08307"/>
<path id="Vector_120" d="M8.94467 6.88226C8.95564 6.88226 8.96453 6.87321 8.96453 6.86203C8.96453 6.85086 8.95564 6.8418 8.94467 6.8418C8.9337 6.8418 8.9248 6.85086 8.9248 6.86203C8.9248 6.87321 8.9337 6.88226 8.94467 6.88226Z" fill="black" stroke="black" stroke-width="0.071283"/>
<path id="Vector_121" d="M8.94886 6.86789C8.95297 6.86789 8.9563 6.86336 8.9563 6.85777C8.9563 6.85219 8.95297 6.84766 8.94886 6.84766C8.94474 6.84766 8.94141 6.85219 8.94141 6.85777C8.94141 6.86336 8.94474 6.86789 8.94886 6.86789Z" fill="url(#paint10_radial_186_9021)"/>
<g id="Group_21">
<path id="Vector_122" d="M9.20466 11.2692C9.24968 11.1176 9.31132 10.9717 9.3884 10.8342C9.44358 10.7293 9.50238 10.6263 9.5647 10.5256L9.62926 10.4245L9.56719 10.5256C9.50748 10.6283 9.44953 10.732 9.39337 10.8367C9.32073 10.9754 9.25767 11.1191 9.20466 11.2667V11.2692ZM8.73535 11.0289C9.02548 10.9004 9.27912 10.6995 9.47283 10.4447C9.37501 10.5391 9.28218 10.6387 9.19472 10.7431C9.0571 10.8621 8.90212 10.9586 8.73535 11.0289ZM9.66154 10.2879C9.68141 10.2626 9.69879 10.2322 9.71617 10.2044C9.76948 10.1207 9.81919 10.0346 9.86516 9.94644C9.89992 9.88827 9.92972 9.82757 9.95951 9.7694L10.0514 9.59235L10.0092 9.68088L9.96448 9.77193C9.90429 9.89025 9.84053 10.0066 9.77328 10.121C9.73838 10.1782 9.7011 10.2339 9.66154 10.2879ZM9.80804 9.65305C9.89321 9.55039 9.96422 9.43637 10.0191 9.31414C10.0998 9.12989 10.1501 8.93335 10.1681 8.73242C10.166 8.7661 10.1652 8.79985 10.1656 8.83359C10.1447 9.00093 10.096 9.16344 10.0216 9.31414C9.96553 9.43629 9.89372 9.55027 9.80804 9.65305Z" fill="#34541F"/>
<path id="Vector_123" d="M9.76855 9.50758C9.85541 9.41357 9.9282 9.30704 9.98458 9.19143C10.0261 9.10519 10.0626 9.01651 10.0938 8.92586L10.1013 8.9031L10.1087 8.88034L10.1236 8.83481C10.1491 8.70642 10.1508 8.57433 10.1286 8.44531C10.1301 8.51055 10.1359 8.57561 10.146 8.64006C10.146 8.70582 10.141 8.77158 10.1286 8.83481C10.1212 8.84999 10.1187 8.86769 10.1137 8.88287L10.1063 8.90563L10.0963 8.92839C10.0621 9.01867 10.0257 9.10807 9.98707 9.19649C9.95969 9.25442 9.92816 9.31022 9.89271 9.36342C9.85656 9.41667 9.81494 9.46585 9.76855 9.51011V9.50758Z" fill="#34541F"/>
<path id="Vector_124" d="M9.62207 10.2452C9.65435 10.2048 9.68166 10.1618 9.71146 10.1188L9.75616 10.0555L9.79837 9.9923L9.87286 9.85573L9.93742 9.71662C9.98212 9.62304 10.0243 9.52946 10.0616 9.43082C10.1358 9.23834 10.1802 9.03526 10.1932 8.82887C10.2141 8.62249 10.1921 8.41394 10.1286 8.2168C10.1987 8.41242 10.2225 8.62211 10.1981 8.82887C10.185 9.03604 10.1406 9.23992 10.0665 9.43335C10.0293 9.52946 9.98708 9.62304 9.94239 9.71662L9.87286 9.85573C9.85051 9.90378 9.82817 9.94931 9.80085 9.9923C9.78844 10.0176 9.77354 10.0353 9.75864 10.0581L9.71394 10.1213L9.62455 10.2478L9.62207 10.2452Z" fill="#34541F"/>
<path id="Vector_125" d="M9.69127 10.324C9.80809 10.1293 9.91906 9.93112 10.024 9.72959C10.1757 9.42249 10.2499 9.08177 10.24 8.73814C10.24 8.62433 10.2301 8.51052 10.2102 8.39923C10.2111 8.39923 10.2119 8.39923 10.2127 8.39923C10.2351 8.51052 10.2425 8.62686 10.2425 8.73814C10.2419 8.96626 10.2119 9.19331 10.1531 9.41344C10.1205 9.52298 10.0789 9.62957 10.029 9.73212C9.92317 9.93283 9.81138 10.1302 9.69376 10.324H9.69127ZM9.00098 6.99805H9.03574C9.07111 7.00372 9.10543 7.0148 9.13755 7.03093C9.22049 7.07587 9.29592 7.13392 9.36102 7.20291C9.29505 7.13631 9.21974 7.08006 9.13755 7.03599C9.09416 7.01641 9.04811 7.00362 9.00098 6.99805Z" fill="#34541F"/>
</g>
<g id="Group_22">
<path id="Vector_126" d="M9.40811 7.27068C9.40811 7.27068 9.48261 7.31621 9.52482 7.38197C9.52482 7.38197 9.40811 7.35921 9.32617 7.26562" fill="#448127"/>
<path id="Vector_127" d="M9.40767 7.27068C9.45522 7.29802 9.49599 7.33609 9.52686 7.38197L9.52934 7.38703H9.52437C9.48574 7.37808 9.44883 7.3627 9.41512 7.3415C9.38035 7.32127 9.35056 7.29598 9.32324 7.26562C9.36405 7.30886 9.41422 7.34178 9.46974 7.36174L9.52437 7.37944V7.3845C9.50939 7.36074 9.49097 7.33943 9.46974 7.32127C9.45059 7.30253 9.42982 7.2856 9.40767 7.27068Z" fill="#34541F"/>
<path id="Vector_128" d="M9.23926 7.24805C9.23926 7.24805 9.41804 7.36439 9.44535 7.37451C9.44535 7.37451 9.40314 7.28599 9.31872 7.24805" fill="#448127"/>
<path id="Vector_129" d="M9.23926 7.24862L9.34106 7.31185C9.36655 7.32733 9.39221 7.3425 9.41804 7.35738L9.44287 7.37255V7.37508C9.42966 7.34782 9.41203 7.32303 9.39073 7.30174C9.36982 7.28004 9.34548 7.26208 9.31872 7.24862C9.34685 7.25979 9.37227 7.27705 9.39321 7.29921C9.41463 7.32135 9.43226 7.347 9.44535 7.37508L9.45032 7.38014L9.44287 7.37761L9.39073 7.34726C9.33946 7.31477 9.28895 7.28103 9.23926 7.24609V7.24862Z" fill="#34541F"/>
<path id="Vector_130" d="M9.31099 7.18945C9.31099 7.18945 9.40286 7.22992 9.42521 7.29821C9.42521 7.29821 9.25636 7.22739 9.22656 7.18945" fill="#448127"/>
<path id="Vector_131" d="M9.31099 7.18945C9.33604 7.19929 9.35948 7.21293 9.38051 7.22992L9.40783 7.26027L9.42769 7.29821V7.30327H9.42273C9.36325 7.27512 9.30524 7.24389 9.24891 7.20969L9.22656 7.18945L9.24891 7.20716L9.27374 7.22233C9.32177 7.25243 9.37248 7.27784 9.42521 7.29821H9.42273C9.41776 7.28809 9.41279 7.27292 9.40286 7.26533C9.39662 7.25365 9.38819 7.24334 9.37803 7.23498C9.35806 7.21645 9.33546 7.2011 9.31099 7.18945Z" fill="#34541F"/>
<path id="Vector_132" d="M9.16992 7.26367C9.16992 7.26367 9.33381 7.38254 9.38347 7.38254C9.38347 7.38254 9.33381 7.29908 9.24938 7.26367" fill="#448127"/>
<path id="Vector_133" d="M9.16992 7.26367C9.22992 7.30207 9.29121 7.33834 9.35367 7.37243L9.38347 7.38002L9.38098 7.38507C9.36545 7.35875 9.34621 7.33489 9.32387 7.31426C9.30147 7.29395 9.2764 7.27693 9.24938 7.26367C9.29204 7.28061 9.32967 7.30849 9.35864 7.34461L9.38347 7.38254L9.38843 7.38507H9.38347C9.37105 7.38507 9.36112 7.38254 9.35119 7.37749L9.32636 7.36484C9.27066 7.33719 9.21818 7.30326 9.16992 7.26367Z" fill="#34541F"/>
<path id="Vector_134" d="M9.16992 7.29943C9.16992 7.29943 9.25435 7.37531 9.30401 7.37531C9.30401 7.37531 9.25435 7.29184 9.16992 7.25391" fill="#448127"/>
<path id="Vector_135" d="M9.16992 7.29886C9.20146 7.32239 9.23466 7.34353 9.26925 7.36209L9.28414 7.36714L9.30401 7.3722L9.30153 7.37473C9.2858 7.3493 9.26657 7.3263 9.24441 7.30644C9.22201 7.28614 9.19694 7.26911 9.16992 7.25586C9.2123 7.27209 9.24991 7.29907 9.27918 7.33427L9.30401 7.3722L9.30897 7.37726H9.30401C9.29022 7.37674 9.27669 7.37329 9.26428 7.36714C9.24095 7.35585 9.21923 7.34139 9.19972 7.32415C9.18825 7.31779 9.17813 7.3092 9.16992 7.29886Z" fill="#34541F"/>
<path id="Vector_136" d="M9.125 7.13477C9.125 7.13477 9.30378 7.26376 9.32365 7.33457C9.32365 7.33457 9.16473 7.2587 9.13493 7.22076" fill="#448127"/>
<path id="Vector_137" d="M9.125 7.13477C9.19223 7.18414 9.2546 7.24005 9.31123 7.30169L9.32861 7.33204V7.33963L9.32365 7.3371C9.26581 7.30707 9.20946 7.27415 9.1548 7.23846L9.17963 7.25364C9.22695 7.28344 9.27682 7.30883 9.32861 7.32951L9.32365 7.33457L9.30626 7.30422C9.27004 7.25712 9.22836 7.21466 9.18211 7.17776L9.125 7.13477Z" fill="#34541F"/>
</g>
<g id="Group_23">
<path id="Vector_138" d="M8.13253 10.779C7.97638 10.8622 7.80216 10.904 7.62598 10.9004C7.87429 10.693 8.11514 10.688 8.13253 10.779ZM9.86572 10.8928C9.99484 11.0117 10.3872 11.0952 10.4492 11.08C10.186 10.8094 9.90048 10.7816 9.86572 10.8928Z" fill="#406325" stroke="#24420E" stroke-width="0.142566"/>
<path id="Vector_139" d="M8.13253 10.7782C8.11514 10.6846 7.8718 10.6922 7.62598 10.8996C7.78784 10.8333 7.95863 10.7924 8.13253 10.7782ZM9.8682 10.8895C9.90297 10.7782 10.186 10.806 10.4492 11.0792C10.2657 10.9873 10.07 10.9233 9.8682 10.8895Z" fill="#67923D" stroke="#24420E" stroke-width="0.142566"/>
</g>
</g>
</g>
<defs>
<radialGradient id="paint0_radial_186_9021" cx="0" cy="0" r="1" gradientUnits="userSpaceOnUse" gradientTransform="translate(8.19166 9.21005) scale(0.409709 0.41732)">
<stop offset="0.2" stop-color="#F9F0AA"/>
<stop offset="1" stop-color="#B07E09"/>
</radialGradient>
<radialGradient id="paint1_radial_186_9021" cx="0" cy="0" r="1" gradientUnits="userSpaceOnUse" gradientTransform="translate(8.29648 9.32906) scale(0.270656 0.275684)">
<stop offset="0.2" stop-color="#F9F0AA"/>
<stop offset="1" stop-color="#B07E09"/>
</radialGradient>
<radialGradient id="paint2_radial_186_9021" cx="0" cy="0" r="1" gradientUnits="userSpaceOnUse" gradientTransform="translate(8.35848 9.21848) scale(0.243343 0.247863)">
<stop offset="0.2" stop-color="#F9F0AA"/>
<stop offset="1" stop-color="#B07E09"/>
</radialGradient>
<radialGradient id="paint3_radial_186_9021" cx="0" cy="0" r="1" gradientUnits="userSpaceOnUse" gradientTransform="translate(8.46477 9.18005) scale(0.432057 0.440083)">
<stop offset="0.2" stop-color="#F9F0AA"/>
<stop offset="1" stop-color="#B07E09"/>
</radialGradient>
<linearGradient id="paint4_linear_186_9021" x1="8.8501" y1="7.96975" x2="8.81146" y2="7.28188" gradientUnits="userSpaceOnUse">
<stop offset="0.2" stop-color="#B07E09" stop-opacity="0"/>
<stop offset="1" stop-color="#B07E09"/>
</linearGradient>
<linearGradient id="paint5_linear_186_9021" x1="9.0788" y1="8.91816" x2="9.14061" y2="9.67422" gradientUnits="userSpaceOnUse">
<stop offset="0.2" stop-color="#B07E09" stop-opacity="0"/>
<stop offset="1" stop-color="#B07E09"/>
</linearGradient>
<radialGradient id="paint6_radial_186_9021" cx="0" cy="0" r="1" gradientUnits="userSpaceOnUse" gradientTransform="translate(8.15775 7.79634) scale(0.322802 0.328797)">
<stop offset="0.2" stop-color="#F9F0AA"/>
<stop offset="1" stop-color="#B07E09"/>
</radialGradient>
<linearGradient id="paint7_linear_186_9021" x1="8.29419" y1="7.72299" x2="8.39406" y2="7.49924" gradientUnits="userSpaceOnUse">
<stop offset="0.2" stop-color="#F9F0AA"/>
<stop offset="1" stop-color="#B07E09"/>
</linearGradient>
<linearGradient id="paint8_linear_186_9021" x1="8.8355" y1="7.41259" x2="8.90247" y2="8.25209" gradientUnits="userSpaceOnUse">
<stop offset="0.2" stop-color="#F9F0AA"/>
<stop offset="1" stop-color="#B07E09"/>
</linearGradient>
<radialGradient id="paint9_radial_186_9021" cx="0" cy="0" r="1" gradientUnits="userSpaceOnUse" gradientTransform="translate(8.94888 6.85919) scale(0.00744926 0.00758763)">
<stop offset="0.3" stop-color="#A50A0A"/>
<stop offset="1" stop-color="#4C0505"/>
</radialGradient>
<radialGradient id="paint10_radial_186_9021" cx="0" cy="0" r="1" gradientUnits="userSpaceOnUse" gradientTransform="translate(8.94848 6.85609) scale(0.00727852 0.00776567)">
<stop stop-color="white"/>
<stop offset="1" stop-color="white" stop-opacity="0"/>
</radialGradient>
<clipPath id="clip0_186_9021">
<rect width="18" height="18" fill="white"/>
</clipPath>
</defs>
</svg>
