<svg width="18" height="18" viewBox="0 0 18 18" fill="none" xmlns="http://www.w3.org/2000/svg">
<g id="gu" clip-path="url(#clip0_186_9188)">
<path id="Vector" fill-rule="evenodd" clip-rule="evenodd" d="M0 0H18V18H0V0Z" fill="#BE0027"/>
<path id="Vector_2" fill-rule="evenodd" clip-rule="evenodd" d="M0.720703 0.720703H17.2441V17.2793H0.720703V0.720703Z" fill="#3B5AA3"/>
<path id="Vector_3" fill-rule="evenodd" clip-rule="evenodd" d="M8.85571 13.926C8.91899 13.9611 9.02095 13.9611 9.0772 13.9295C12.7088 11.9959 12.7124 6.69431 9.08071 4.78884C9.04433 4.77169 9.00451 4.76309 8.96429 4.7637C8.92407 4.76431 8.88453 4.77411 8.84868 4.79236C5.30845 6.72947 5.2979 11.9713 8.85571 13.926Z" fill="#CBE0E5"/>
<path id="Vector_4" fill-rule="evenodd" clip-rule="evenodd" d="M8.85554 14.0234C8.91179 14.0691 9.02429 14.0621 9.07703 14.0234C11.7524 12.0195 11.77 10.7715 11.6505 10.7715H6.35242C6.27156 10.7715 6.39812 12.0406 8.85554 14.0199V14.0234Z" fill="#ADD2D9"/>
<path id="Vector_5" fill-rule="evenodd" clip-rule="evenodd" d="M6.77109 11.7626C7.01328 11.6868 7.27493 11.703 7.50586 11.8083C7.70625 11.9137 7.82227 11.9137 8.03672 11.9137C8.26523 11.9173 8.44102 12.086 8.68711 12.0895C9.13711 12.1036 9.33047 12.3251 8.97891 12.3286C8.81367 12.3286 8.45859 12.2161 8.28633 12.2407C7.92773 12.2758 7.69922 12.3567 7.36172 12.7329L7.75195 13.0001C8.08945 12.8594 8.1457 12.7083 8.33203 12.7012C8.54297 12.6942 8.61328 12.5606 8.85938 12.5606C9.13711 12.6133 9.50977 12.5255 9.73125 12.4798C10.1215 12.3883 9.93516 12.1176 9.69961 12.0157C9.50977 11.9348 9.15117 12.0157 8.92617 11.9348C8.76094 11.868 8.89805 11.7626 8.98945 11.7415C9.08086 11.7239 9.1793 11.7555 9.2918 11.7731C9.4957 11.7907 9.74883 11.7731 9.92461 11.7415C10.2937 11.6852 10.2762 11.5762 10.4555 11.5762C10.5696 11.5728 10.6799 11.5348 10.7719 11.4673C10.8773 11.3969 10.9828 11.2563 11.1094 11.2598L11.4469 11.2739L10.9688 12.3391L9.63281 13.7032L8.93672 13.9669L7.41797 12.9719L6.64453 11.7942L6.77109 11.7626Z" fill="#FDF9A1"/>
<path id="Vector_6" fill-rule="evenodd" clip-rule="evenodd" d="M8.52148 10.7262L11.5801 10.7121L11.6363 10.4414L11.4395 10.4203C11.327 10.4133 11.1406 10.5363 11.0141 10.5363C10.9227 10.5363 10.8207 10.3746 10.7328 10.3781C10.5781 10.3781 10.5641 10.5188 10.4164 10.5188C10.2969 10.5188 10.2477 10.4273 10.093 10.4344C9.93125 10.4449 9.94531 10.5328 9.74141 10.5293C9.4707 10.5223 9.36523 10.2867 9.15078 10.2832C8.78867 10.2832 8.77813 10.6277 8.52148 10.7262Z" fill="#179A3B"/>
<path id="Vector_7" fill-rule="evenodd" clip-rule="evenodd" d="M8.52148 10.7934L11.6715 10.7758V10.6914L8.45117 10.709L8.52148 10.7934Z" fill="#FDF9A1"/>
<path id="Vector_8" fill-rule="evenodd" clip-rule="evenodd" d="M9.81543 11.7413C9.86465 11.9241 9.91738 11.9874 10.1107 12.0366C10.3041 12.0823 10.5994 11.896 10.4166 11.7132C10.2408 11.5444 10.058 11.5022 9.90332 11.3476C9.57285 11.0241 9.07715 10.2261 9.07715 9.66708C9.07715 9.18193 9.03145 8.19404 9.03145 7.25888C9.03145 7.1956 8.84863 7.42763 8.84863 7.4874C8.85566 8.31708 8.85566 8.93935 8.8873 9.77255C8.94004 10.3843 9.23184 10.7921 9.48496 11.1647C9.60098 11.3405 9.76621 11.5339 9.81543 11.7378V11.7413Z" fill="#A79270"/>
<g id="G">
<path d="M22.3226 20.95C22.1226 20.3379 21.859 19.7894 21.5317 19.3045C21.2105 18.8136 20.8257 18.3955 20.3772 18.05C19.9348 17.7045 19.4317 17.4409 18.8681 17.2591C18.3045 17.0773 17.6863 16.9864 17.0135 16.9864C15.9105 16.9864 14.9075 17.2712 14.0045 17.8409C13.1014 18.4106 12.3832 19.25 11.8499 20.3591C11.3166 21.4682 11.0499 22.8288 11.0499 24.4409C11.0499 26.053 11.3196 27.4136 11.859 28.5227C12.3984 29.6318 13.1287 30.4712 14.0499 31.0409C14.9711 31.6106 16.0075 31.8955 17.159 31.8955C18.2257 31.8955 19.1651 31.6682 19.9772 31.2136C20.7954 30.753 21.4317 30.1045 21.8863 29.2682C22.3469 28.4258 22.5772 27.4348 22.5772 26.2955L23.2681 26.4409H17.6681V24.4409H24.759V26.4409C24.759 27.9742 24.4317 29.3076 23.7772 30.4409C23.1287 31.5742 22.2317 32.453 21.0863 33.0773C19.9469 33.6955 18.6378 34.0045 17.159 34.0045C15.5105 34.0045 14.062 33.6167 12.8135 32.8409C11.5711 32.0652 10.6014 30.9621 9.90446 29.5318C9.21355 28.1015 8.86809 26.4045 8.86809 24.4409C8.86809 22.9682 9.06506 21.6439 9.459 20.4682C9.859 19.2864 10.4226 18.2803 11.1499 17.45C11.8772 16.6197 12.7378 15.9833 13.7317 15.5409C14.7257 15.0985 15.8196 14.8773 17.0135 14.8773C17.9954 14.8773 18.9105 15.0258 19.759 15.3227C20.6135 15.6136 21.3742 16.0288 22.0408 16.5682C22.7135 17.1015 23.2742 17.7409 23.7226 18.4864C24.1711 19.2258 24.4802 20.047 24.6499 20.95H22.3226Z" fill="#BD0728"/>
<path d="M22.3226 20.95L21.5622 21.1985L21.7424 21.75H22.3226V20.95ZM21.5317 19.3045L20.8622 19.7426L20.8687 19.7521L21.5317 19.3045ZM20.3772 18.05L19.8848 18.6806L19.889 18.6838L20.3772 18.05ZM18.8681 17.2591L19.1137 16.4977L19.1137 16.4977L18.8681 17.2591ZM11.8499 20.3591L12.5709 20.7058L12.5709 20.7058L11.8499 20.3591ZM11.859 28.5227L11.1396 28.8726L11.1396 28.8726L11.859 28.5227ZM14.0499 31.0409L13.6291 31.7213L14.0499 31.0409ZM19.9772 31.2136L20.3679 31.9117L20.3696 31.9108L19.9772 31.2136ZM21.8863 29.2682L21.1843 28.8844L21.1834 28.8862L21.8863 29.2682ZM22.5772 26.2955L22.742 25.5126L21.7772 25.3095V26.2955H22.5772ZM23.2681 26.4409V27.2409L23.4329 25.6581L23.2681 26.4409ZM17.6681 26.4409H16.8681V27.2409H17.6681V26.4409ZM17.6681 24.4409V23.6409H16.8681V24.4409H17.6681ZM24.759 24.4409H25.559V23.6409H24.759V24.4409ZM23.7772 30.4409L23.0844 30.0408L23.0828 30.0436L23.7772 30.4409ZM21.0863 33.0773L21.4678 33.7804L21.4691 33.7797L21.0863 33.0773ZM12.8135 32.8409L12.3898 33.5195L12.3913 33.5204L12.8135 32.8409ZM9.90446 29.5318L9.18409 29.8798L9.1853 29.8823L9.90446 29.5318ZM9.459 20.4682L8.70123 20.2117L8.70045 20.214L9.459 20.4682ZM11.1499 17.45L11.7517 17.9771L11.7517 17.9771L11.1499 17.45ZM13.7317 15.5409L13.4064 14.81L13.7317 15.5409ZM19.759 15.3227L19.4947 16.0778L19.5012 16.08L19.759 15.3227ZM22.0408 16.5682L21.5376 17.1901L21.5438 17.1951L22.0408 16.5682ZM23.7226 18.4864L23.0371 18.8988L23.0386 18.9013L23.7226 18.4864ZM24.6499 20.95V21.75H25.6143L25.4361 20.8023L24.6499 20.95ZM23.0831 20.7015C22.8623 20.0259 22.5676 19.4092 22.1948 18.857L20.8687 19.7521C21.1504 20.1696 21.383 20.6499 21.5622 21.1985L23.0831 20.7015ZM22.2012 18.8665C21.8327 18.3034 21.3874 17.8183 20.8654 17.4162L19.889 18.6838C20.264 18.9726 20.5883 19.3238 20.8623 19.7426L22.2012 18.8665ZM20.8695 17.4194C20.3492 17.0131 19.7617 16.7067 19.1137 16.4977L18.6225 18.0205C19.1018 18.1751 19.5204 18.396 19.8848 18.6806L20.8695 17.4194ZM19.1137 16.4977C18.4607 16.2871 17.7585 16.1864 17.0135 16.1864V17.7864C17.614 17.7864 18.1482 17.8674 18.6225 18.0205L19.1137 16.4977ZM17.0135 16.1864C15.7647 16.1864 14.6128 16.5112 13.5776 17.1643L14.4313 18.5175C15.2022 18.0312 16.0563 17.7864 17.0135 17.7864V16.1864ZM13.5776 17.1643C12.5291 17.8258 11.7172 18.789 11.1289 20.0124L12.5709 20.7058C13.0492 19.711 13.6738 18.9954 14.4313 18.5175L13.5776 17.1643ZM11.1289 20.0124C10.5301 21.2578 10.2499 22.7444 10.2499 24.4409H11.8499C11.8499 22.9131 12.1031 21.6786 12.5709 20.7058L11.1289 20.0124ZM10.2499 24.4409C10.2499 26.1385 10.5335 27.6263 11.1396 28.8726L12.5784 28.1728C12.1058 27.2009 11.8499 25.9676 11.8499 24.4409H10.2499ZM11.1396 28.8726C11.7358 30.0986 12.5619 31.0613 13.6291 31.7213L14.4707 30.3605C13.6955 29.8811 13.061 29.1651 12.5784 28.1728L11.1396 28.8726ZM13.6291 31.7213C14.6848 32.3742 15.8686 32.6955 17.159 32.6955V31.0955C16.1463 31.0955 15.2574 30.847 14.4707 30.3605L13.6291 31.7213ZM17.159 32.6955C18.3422 32.6955 19.4199 32.4423 20.3679 31.9117L19.5865 30.5155C18.9102 30.894 18.1091 31.0955 17.159 31.0955V32.6955ZM20.3696 31.9108C21.3208 31.3753 22.0639 30.6168 22.5892 29.6502L21.1834 28.8862C20.7996 29.5923 20.27 30.1308 19.5847 30.5165L20.3696 31.9108ZM22.5882 29.652C23.1242 28.6717 23.3772 27.5439 23.3772 26.2955H21.7772C21.7772 27.3258 21.5696 28.1798 21.1843 28.8844L22.5882 29.652ZM22.4124 27.0783L23.1033 27.2237L23.4329 25.6581L22.742 25.5126L22.4124 27.0783ZM23.2681 25.6409H17.6681V27.2409H23.2681V25.6409ZM18.4681 26.4409V24.4409H16.8681V26.4409H18.4681ZM17.6681 25.2409H24.759V23.6409H17.6681V25.2409ZM23.959 24.4409V26.4409H25.559V24.4409H23.959ZM23.959 26.4409C23.959 27.8581 23.6575 29.0486 23.0844 30.0408L24.4699 30.841C25.206 29.5666 25.559 28.0904 25.559 26.4409H23.959ZM23.0828 30.0436C22.5078 31.0485 21.7187 31.8215 20.7035 32.3748L21.4691 33.7797C22.7448 33.0845 23.7496 32.1 24.4716 30.8382L23.0828 30.0436ZM20.7048 32.3741C19.6981 32.9203 18.5235 33.2045 17.159 33.2045V34.8045C18.7521 34.8045 20.1957 34.4706 21.4678 33.7804L20.7048 32.3741ZM17.159 33.2045C15.6411 33.2045 14.3425 32.8491 13.2358 32.1614L12.3913 33.5204C13.7815 34.3842 15.3799 34.8045 17.159 34.8045V33.2045ZM13.2372 32.1623C12.1331 31.4729 11.2607 30.4888 10.6236 29.1814L9.1853 29.8823C9.94213 31.4354 11.0092 32.6574 12.3898 33.5195L13.2372 32.1623ZM10.6248 29.1838C9.99722 27.8846 9.66809 26.3119 9.66809 24.4409H8.06809C8.06809 26.4972 8.42988 28.3184 9.1841 29.8798L10.6248 29.1838ZM9.66809 24.4409C9.66809 23.0388 9.85566 21.8024 10.2176 20.7223L8.70045 20.214C8.27446 21.4854 8.06809 22.8975 8.06809 24.4409H9.66809ZM10.2168 20.7247C10.5874 19.6295 11.1022 18.7187 11.7517 17.9771L10.5481 16.9229C9.74312 17.8419 9.13056 18.9432 8.70123 20.2117L10.2168 20.7247ZM11.7517 17.9771C12.4038 17.2326 13.1705 16.6664 14.0571 16.2718L13.4064 14.81C12.3051 15.3003 11.3506 16.0068 10.5481 16.9229L11.7517 17.9771ZM14.0571 16.2718C14.939 15.8792 15.9207 15.6773 17.0135 15.6773V14.0773C15.7185 14.0773 14.5123 14.3178 13.4064 14.81L14.0571 16.2718ZM17.0135 15.6773C17.9137 15.6773 18.7387 15.8132 19.4947 16.0778L20.0233 14.5676C19.0824 14.2383 18.0771 14.0773 17.0135 14.0773V15.6773ZM19.5012 16.08C20.2714 16.3422 20.9479 16.713 21.5376 17.1901L22.544 15.9463C21.8004 15.3446 20.9557 14.885 20.0168 14.5654L19.5012 16.08ZM21.5438 17.1951C22.1403 17.668 22.6374 18.2344 23.0371 18.8988L24.4081 18.0739C23.9109 17.2474 23.2868 16.535 22.5378 15.9413L21.5438 17.1951ZM23.0386 18.9013C23.4342 19.5534 23.7106 20.2832 23.8637 21.0977L25.4361 20.8023C25.2498 19.8107 24.908 18.8981 24.4066 18.0715L23.0386 18.9013ZM24.6499 20.15H22.3226V21.75H24.6499V20.15Z" fill="white"/>
</g>
<g id="U">
<path d="M22.6221 15.1357H24.8767V27.463C24.8767 28.7357 24.5767 29.8721 23.9767 30.8721C23.3827 31.866 22.5434 32.6509 21.4585 33.2266C20.3737 33.7963 19.1009 34.0812 17.6403 34.0812C16.1797 34.0812 14.907 33.7963 13.8221 33.2266C12.7373 32.6509 11.8949 31.866 11.2949 30.8721C10.7009 29.8721 10.404 28.7357 10.404 27.463V15.1357H12.6585V27.2812C12.6585 28.1903 12.8585 28.9994 13.2585 29.7085C13.6585 30.4115 14.2282 30.966 14.9676 31.3721C15.7131 31.7721 16.604 31.9721 17.6403 31.9721C18.6767 31.9721 19.5676 31.7721 20.3131 31.3721C21.0585 30.966 21.6282 30.4115 22.0221 29.7085C22.4221 28.9994 22.6221 28.1903 22.6221 27.2812V15.1357Z" fill="#BD0728"/>
<path d="M22.6221 15.1357V14.3357H21.8221V15.1357H22.6221ZM24.8767 15.1357H25.6767V14.3357H24.8767V15.1357ZM23.9767 30.8721L23.2907 30.4605L23.29 30.4617L23.9767 30.8721ZM21.4585 33.2266L21.8305 33.9349L21.8335 33.9333L21.4585 33.2266ZM13.8221 33.2266L13.4471 33.9333L13.4502 33.9349L13.8221 33.2266ZM11.2949 30.8721L10.607 31.2806L10.61 31.2855L11.2949 30.8721ZM10.404 15.1357V14.3357H9.60396V15.1357H10.404ZM12.6585 15.1357H13.4585V14.3357H12.6585V15.1357ZM13.2585 29.7085L12.5617 30.1015L12.5632 30.1041L13.2585 29.7085ZM14.9676 31.3721L14.5825 32.0733L14.5893 32.077L14.9676 31.3721ZM20.3131 31.3721L20.6913 32.077L20.6957 32.0746L20.3131 31.3721ZM22.0221 29.7085L21.3254 29.3154L21.3242 29.3174L22.0221 29.7085ZM22.6221 15.9357H24.8767V14.3357H22.6221V15.9357ZM24.0767 15.1357V27.463H25.6767V15.1357H24.0767ZM24.0767 27.463C24.0767 28.6044 23.8094 29.5961 23.2907 30.4605L24.6627 31.2837C25.344 30.1481 25.6767 28.867 25.6767 27.463H24.0767ZM23.29 30.4617C22.7755 31.3226 22.0475 32.0084 21.0835 32.52L21.8335 33.9333C23.0392 33.2934 23.99 32.4094 24.6634 31.2825L23.29 30.4617ZM21.0866 32.5184C20.1365 33.0173 18.9961 33.2812 17.6403 33.2812V34.8812C19.2057 34.8812 20.6108 34.5754 21.8305 33.9349L21.0866 32.5184ZM17.6403 33.2812C16.2845 33.2812 15.1441 33.0173 14.1941 32.5184L13.4502 33.9349C14.6699 34.5754 16.0749 34.8812 17.6403 34.8812V33.2812ZM14.1972 32.52C13.2325 32.008 12.5005 31.3213 11.9798 30.4587L10.61 31.2855C11.2892 32.4107 12.242 33.2937 13.4471 33.9333L14.1972 32.52ZM11.9827 30.4636C11.469 29.5987 11.204 28.6059 11.204 27.463H9.60396C9.60396 28.8655 9.93286 30.1455 10.607 31.2806L11.9827 30.4636ZM11.204 27.463V15.1357H9.60396V27.463H11.204ZM10.404 15.9357H12.6585V14.3357H10.404V15.9357ZM11.8585 15.1357V27.2812H13.4585V15.1357H11.8585ZM11.8585 27.2812C11.8585 28.3116 12.0864 29.259 12.5617 30.1015L13.9553 29.3154C13.6306 28.7398 13.4585 28.0689 13.4585 27.2812H11.8585ZM12.5632 30.1041C13.0396 30.9414 13.7193 31.5992 14.5825 32.0733L15.3527 30.6709C14.7371 30.3328 14.2774 29.8816 13.9538 29.3128L12.5632 30.1041ZM14.5893 32.077C15.4745 32.552 16.5013 32.7721 17.6403 32.7721V31.1721C16.7066 31.1721 15.9516 30.9922 15.3459 30.6672L14.5893 32.077ZM17.6403 32.7721C18.7793 32.7721 19.8062 32.552 20.6913 32.077L19.9348 30.6672C19.329 30.9922 18.5741 31.1721 17.6403 31.1721V32.7721ZM20.6957 32.0746C21.5661 31.6005 22.2484 30.9411 22.72 30.0995L21.3242 29.3174C21.008 29.8818 20.5509 30.3315 19.9304 30.6696L20.6957 32.0746ZM22.7189 30.1015C23.1942 29.259 23.4221 28.3116 23.4221 27.2812H21.8221C21.8221 28.0689 21.6501 28.7398 21.3254 29.3154L22.7189 30.1015ZM23.4221 27.2812V15.1357H21.8221V27.2812H23.4221Z" fill="white"/>
</g>
<g id="A">
<path d="M12.1481 33.7539H9.78443L16.6208 15.1357H18.9481L25.7844 33.7539H23.4208L17.8572 18.0812H17.7117L12.1481 33.7539ZM13.0208 26.4812H22.5481V28.4812H13.0208V26.4812Z" fill="#BD0728"/>
<path d="M12.1481 33.7539V34.5539H12.713L12.902 34.0215L12.1481 33.7539ZM9.78443 33.7539L9.03345 33.4782L8.63845 34.5539H9.78443V33.7539ZM16.6208 15.1357V14.3357H16.0623L15.8698 14.86L16.6208 15.1357ZM18.9481 15.1357L19.699 14.86L19.5065 14.3357H18.9481V15.1357ZM25.7844 33.7539V34.5539H26.9304L26.5354 33.4782L25.7844 33.7539ZM23.4208 33.7539L22.6669 34.0215L22.8559 34.5539H23.4208V33.7539ZM17.8572 18.0812L18.6111 17.8135L18.4221 17.2812H17.8572V18.0812ZM17.7117 18.0812V17.2812H17.1468L16.9578 17.8135L17.7117 18.0812ZM13.0208 26.4812V25.6812H12.2208V26.4812H13.0208ZM22.5481 26.4812H23.3481V25.6812H22.5481V26.4812ZM22.5481 28.4812V29.2812H23.3481V28.4812H22.5481ZM13.0208 28.4812H12.2208V29.2812H13.0208V28.4812ZM12.1481 32.9539H9.78443V34.5539H12.1481V32.9539ZM10.5354 34.0297L17.3718 15.4115L15.8698 14.86L9.03345 33.4782L10.5354 34.0297ZM16.6208 15.9357H18.9481V14.3357H16.6208V15.9357ZM18.1971 15.4115L25.0335 34.0297L26.5354 33.4782L19.699 14.86L18.1971 15.4115ZM25.7844 32.9539H23.4208V34.5539H25.7844V32.9539ZM24.1747 33.4863L18.6111 17.8135L17.1032 18.3488L22.6669 34.0215L24.1747 33.4863ZM17.8572 17.2812H17.7117V18.8812H17.8572V17.2812ZM16.9578 17.8135L11.3942 33.4863L12.902 34.0215L18.4656 18.3488L16.9578 17.8135ZM13.0208 27.2812H22.5481V25.6812H13.0208V27.2812ZM21.7481 26.4812V28.4812H23.3481V26.4812H21.7481ZM22.5481 27.6812H13.0208V29.2812H22.5481V27.6812ZM13.8208 28.4812V26.4812H12.2208V28.4812H13.8208Z" fill="white"/>
</g>
<g id="M">
<path d="M12.2106 15.1318H14.9015L21.2288 30.5864H21.447L27.7742 15.1318H30.4651V33.75H28.3561V19.6045H28.1742L22.3561 33.75H20.3197L14.5015 19.6045H14.3197V33.75H12.2106V15.1318Z" fill="#BD0728"/>
<path d="M12.2106 15.1318V14.3318H11.4106V15.1318H12.2106ZM14.9015 15.1318L15.6419 14.8287L15.4384 14.3318H14.9015V15.1318ZM21.2288 30.5864L20.4884 30.8895L20.6919 31.3864H21.2288V30.5864ZM21.447 30.5864V31.3864H21.9839L22.1873 30.8895L21.447 30.5864ZM27.7742 15.1318V14.3318H27.2373L27.0339 14.8287L27.7742 15.1318ZM30.4651 15.1318H31.2651V14.3318H30.4651V15.1318ZM30.4651 33.75V34.55H31.2651V33.75H30.4651ZM28.3561 33.75H27.5561V34.55H28.3561V33.75ZM28.3561 19.6045H29.1561V18.8045H28.3561V19.6045ZM28.1742 19.6045V18.8045H27.6383L27.4344 19.3002L28.1742 19.6045ZM22.3561 33.75V34.55H22.892L23.0959 34.0543L22.3561 33.75ZM20.3197 33.75L19.5798 34.0543L19.7837 34.55H20.3197V33.75ZM14.5015 19.6045L15.2414 19.3002L15.0375 18.8045H14.5015V19.6045ZM14.3197 19.6045V18.8045H13.5197V19.6045H14.3197ZM14.3197 33.75V34.55H15.1197V33.75H14.3197ZM12.2106 33.75H11.4106V34.55H12.2106V33.75ZM12.2106 15.9318H14.9015V14.3318H12.2106V15.9318ZM14.1612 15.4349L20.4884 30.8895L21.9691 30.2833L15.6419 14.8287L14.1612 15.4349ZM21.2288 31.3864H21.447V29.7864H21.2288V31.3864ZM22.1873 30.8895L28.5146 15.4349L27.0339 14.8287L20.7066 30.2833L22.1873 30.8895ZM27.7742 15.9318H30.4651V14.3318H27.7742V15.9318ZM29.6651 15.1318V33.75H31.2651V15.1318H29.6651ZM30.4651 32.95H28.3561V34.55H30.4651V32.95ZM29.1561 33.75V19.6045H27.5561V33.75H29.1561ZM28.3561 18.8045H28.1742V20.4045H28.3561V18.8045ZM27.4344 19.3002L21.6162 33.4457L23.0959 34.0543L28.9141 19.9089L27.4344 19.3002ZM22.3561 32.95H20.3197V34.55H22.3561V32.95ZM21.0596 33.4457L15.2414 19.3002L13.7616 19.9089L19.5798 34.0543L21.0596 33.4457ZM14.5015 18.8045H14.3197V20.4045H14.5015V18.8045ZM13.5197 19.6045V33.75H15.1197V19.6045H13.5197ZM14.3197 32.95H12.2106V34.55H14.3197V32.95ZM13.0106 33.75V15.1318H11.4106V33.75H13.0106Z" fill="white"/>
</g>
<path id="Vector_9" fill-rule="evenodd" clip-rule="evenodd" d="M7.4494 7.28777C7.40721 7.36512 7.54432 7.26668 7.57596 7.25262C7.75174 7.19285 7.82205 6.97137 8.1244 7.10144C8.36346 7.20691 8.6869 7.14715 8.51815 7.2491C8.30721 7.37566 7.89588 7.51277 7.88533 8.12801C7.92049 8.18777 7.92752 8.17723 7.95565 8.11395C8.01541 7.97332 8.31776 7.57957 8.46541 7.61473C8.52518 7.62879 8.69744 7.43895 8.70447 7.49168C8.71854 7.64637 8.46541 7.95574 8.46893 8.37059C8.46893 8.46902 8.58846 8.50066 8.64471 8.43387C8.70096 8.3741 8.7326 8.31082 8.83455 8.23348C9.01033 8.08934 8.96111 7.47762 8.98221 7.50574C9.10526 7.66746 9.12283 8.12098 9.31268 8.3073C9.46385 8.46199 9.59041 8.38816 9.55877 8.17371C9.48846 7.74129 9.28455 7.86434 9.18963 7.41785C9.16854 7.32996 9.16502 7.25262 9.27752 7.28777C9.41815 7.32996 9.50252 7.39324 9.60799 7.55496C9.71346 7.70613 9.90682 7.85027 10.0228 7.94168C10.2197 8.09285 10.29 7.95926 10.1951 7.7659C10.0744 7.5426 9.87714 7.37034 9.63963 7.28074C9.47791 7.22449 9.41815 7.22098 9.274 7.19285C9.23885 7.18582 9.19315 7.10145 9.26346 7.05926C9.41698 6.94861 9.59594 6.87848 9.78377 6.85535C9.95955 6.85184 10.1002 6.99246 10.2232 7.03113C10.4728 7.09441 10.4693 6.93621 10.3638 6.82019C10.2724 6.72176 10.0826 6.55652 9.90682 6.5741C9.54822 6.6198 9.56932 6.60926 9.35135 6.75691C9.27049 6.80262 9.1826 6.85535 9.21424 6.7991C9.2951 6.65496 9.21775 6.67957 9.34432 6.53191C9.43924 6.42645 9.50955 6.34559 9.60799 6.32098C9.6994 6.29637 9.81893 6.20145 9.85408 6.15223C9.94549 6.02918 9.86815 5.95887 9.73104 6.00105C9.6115 6.03621 9.54471 6.11355 9.46385 6.13465C9.27049 6.19441 9.11229 6.63738 9.09119 6.69715C9.05955 6.77449 9.02791 6.73582 9.03143 6.67254C9.05955 6.36316 9.08768 5.83934 8.97869 5.62488C8.81346 5.30848 8.82752 5.45613 8.76424 5.6073C8.68602 5.83274 8.68602 6.07796 8.76424 6.3034C8.78885 6.41941 8.88377 6.54949 8.90486 6.64441C8.91541 6.71473 8.85916 6.6198 8.83104 6.57762C8.72557 6.41941 8.64822 6.31043 8.47947 6.22605C8.31023 6.15702 8.12457 6.13869 7.9451 6.17332C7.8994 6.18738 7.99783 6.25769 8.04002 6.28934C8.15252 6.38074 8.36697 6.40887 8.51111 6.50027C8.63768 6.57059 8.7326 6.62332 8.77127 6.72879C8.78885 6.80613 8.81346 6.92215 8.76424 6.91863C8.62713 6.9116 8.41619 6.79559 7.98377 6.84129C7.76229 6.87293 7.57244 7.06277 7.4494 7.28777Z" fill="#239E46"/>
<path id="Vector_10" fill-rule="evenodd" clip-rule="evenodd" d="M8.3916 11.2422H8.51816V11.4531H8.3916V11.2422Z" fill="black"/>
<path id="Vector_11" fill-rule="evenodd" clip-rule="evenodd" d="M7.76953 9.85117C8.26523 10.5402 9.06328 10.941 9.08086 11.2574L7.52344 11.2504C7.87852 10.8215 8.09648 10.5297 7.76602 9.84766L7.76953 9.85117Z" fill="#FDF9FF"/>
<path id="Vector_12" fill-rule="evenodd" clip-rule="evenodd" d="M7.31639 11.2711C7.99491 11.4223 8.79999 11.5031 9.31678 11.25C9.31678 11.4012 9.14803 11.6156 9.00741 11.6156H7.71014C7.86131 11.5945 7.94569 11.5488 8.19178 11.5348L7.50272 11.5453C7.42889 11.5453 7.29178 11.3449 7.31639 11.2711Z" fill="#A68861"/>
<path id="Vector_13" fill-rule="evenodd" clip-rule="evenodd" d="M8.84893 14.273C8.88633 14.2905 8.92714 14.2996 8.96846 14.2996C9.00978 14.2996 9.05059 14.2905 9.08799 14.273C12.9938 12.1952 12.9974 6.49288 9.09502 4.44327C9.05622 4.42406 9.01351 4.41406 8.97022 4.41406C8.92692 4.41406 8.88421 4.42406 8.84541 4.44327C5.03799 6.52804 5.02744 12.1671 8.84893 14.2694V14.273ZM8.87002 13.8019C8.90251 13.817 8.9379 13.8248 8.97373 13.8248C9.00956 13.8248 9.04495 13.817 9.07744 13.8019C12.347 11.8788 12.3856 6.79522 9.08096 4.97413C9.01768 4.92843 8.92627 4.94249 8.86299 4.97413C5.73408 6.82686 5.5583 11.703 8.87002 13.7983V13.8019Z" fill="#BE0027"/>
<path id="Vector_14" d="M7.68867 8.99023C7.74961 8.99023 7.80234 9.00195 7.84687 9.02539C7.91016 9.0582 7.94883 9.1168 7.96289 9.20117H7.87852C7.8668 9.1543 7.84336 9.11914 7.8082 9.0957C7.77773 9.07461 7.73672 9.06406 7.68516 9.06406C7.62656 9.06406 7.57617 9.0875 7.53398 9.13437C7.49414 9.17891 7.47422 9.2457 7.47422 9.33477C7.47422 9.40977 7.49062 9.47187 7.52344 9.52109C7.55859 9.56797 7.61367 9.59141 7.68867 9.59141C7.74727 9.59141 7.79531 9.575 7.83281 9.54219C7.87266 9.50937 7.89258 9.4543 7.89258 9.37695H7.69219V9.30664H7.97344V9.65117H7.91719L7.89609 9.5668C7.86797 9.59961 7.84219 9.62305 7.81875 9.63711C7.77891 9.6582 7.72969 9.66875 7.67109 9.66875C7.59609 9.66875 7.53047 9.64414 7.47422 9.59492C7.41328 9.53164 7.38281 9.44609 7.38281 9.33828C7.38281 9.23047 7.41211 9.14492 7.4707 9.08164C7.52695 9.0207 7.59961 8.99023 7.68867 8.99023Z" fill="#BD0728"/>
<path id="Vector_15" d="M8.31406 9.00781V9.40859C8.31406 9.45547 8.32227 9.49414 8.33867 9.52461C8.36445 9.57148 8.40898 9.59492 8.47227 9.59492C8.54492 9.59492 8.59531 9.57031 8.62344 9.52109C8.6375 9.49297 8.64453 9.45547 8.64453 9.40859V9.00781H8.73242V9.37344C8.73242 9.45078 8.7207 9.51172 8.69727 9.55625C8.65977 9.63359 8.58711 9.67227 8.4793 9.67227C8.36914 9.67227 8.29414 9.63359 8.2543 9.55625C8.2332 9.51172 8.22266 9.45078 8.22266 9.37344V9.00781H8.31406Z" fill="#BD0728"/>
<path id="Vector_16" d="M9.53125 9.3875L9.43281 9.10625L9.32734 9.3875H9.53125ZM9.38711 9.00781H9.48555L9.72109 9.65469H9.62266L9.55937 9.46133H9.30273L9.23242 9.65469H9.14453L9.38711 9.00781Z" fill="#BD0728"/>
<path id="Vector_17" d="M10.0234 9.00391H10.15L10.3328 9.55234L10.5191 9.00391H10.6422V9.65078H10.5578V9.10586L10.375 9.65078H10.2906L10.1043 9.10586V9.65078H10.0234V9.00391Z" fill="#BD0728"/>
</g>
<defs>
<clipPath id="clip0_186_9188">
<rect width="18" height="18" fill="white"/>
</clipPath>
</defs>
</svg>
