<svg width="18" height="18" viewBox="0 0 18 18" fill="none" xmlns="http://www.w3.org/2000/svg">
<g id="hk" clip-path="url(#clip0_186_9237)">
<path id="Vector" d="M0 0H18V18H0" fill="#EC1B2E"/>
<path id="hk-a" d="M9.92502 4.19021C7.13713 4.0074 5.85745 7.66365 8.49417 9.01365C7.5801 8.22615 7.76995 7.06599 8.13909 6.46833L8.20588 6.50349C7.72073 7.33318 7.81213 8.35974 8.5926 8.99958C8.14963 8.57068 8.26213 7.62849 9.02151 7.28396C9.78088 6.93943 9.8512 5.90232 9.59807 5.55779C9.25354 4.95779 9.36252 4.50076 9.92502 4.18669V4.19021ZM8.57502 6.32771L8.40979 6.58786L8.34651 6.28552L8.04417 6.20466L8.31838 6.05349L8.29729 5.73708L8.52581 5.95505L8.8176 5.83904L8.68753 6.12029L8.8844 6.36286L8.57502 6.32771Z" fill="white"/>
<path id="hk-a_2" d="M13.7944 8.72985C13.1067 6.02191 9.234 5.9347 8.76486 8.85954C9.23136 7.74687 10.3934 7.56891 11.0759 7.7353L11.0631 7.80969C10.1241 7.60467 9.176 8.00883 8.80865 8.94882C9.07968 8.39499 10.0105 8.21083 10.5728 8.82658C11.1352 9.44232 12.1433 9.1887 12.3927 8.8415C12.8569 8.32842 13.3252 8.29084 13.7977 8.72876L13.7944 8.72985ZM11.3443 8.10645L11.0458 8.02969L11.3138 7.87608L11.2973 7.56355L11.5258 7.77763L11.8202 7.65979L11.6835 7.94448L11.884 8.18614L11.5764 8.14934L11.4065 8.41154L11.3443 8.10645Z" fill="white"/>
<path id="hk-a_3" d="M10.6743 13.8118C13.0372 12.3211 11.9234 8.61091 8.99678 9.06856C10.1992 9.16839 10.7275 10.2186 10.7801 10.9191L10.7054 10.9299C10.6103 9.97348 9.93291 9.1967 8.92541 9.1378C9.53588 9.22442 9.99867 10.0528 9.58683 10.7779C9.175 11.503 9.72771 12.3833 10.135 12.5133C10.7664 12.7962 10.9469 13.23 10.6764 13.8147L10.6743 13.8118ZM10.5101 11.2891L10.4909 10.9815L10.7198 11.1889L11.0119 11.0766L10.8789 11.3601L11.082 11.6036L10.769 11.5616L10.6011 11.827L10.541 11.523L10.2392 11.4425L10.5101 11.2891Z" fill="white"/>
<path id="hk-a_4" d="M4.87547 12.4157C7.02347 14.2023 10.2078 11.9965 8.8682 9.35453C9.14481 10.5289 8.30931 11.3559 7.65937 11.6224L7.626 11.5547C8.50617 11.1687 9.03562 10.2844 8.7803 9.30805C8.88656 9.91541 8.24175 10.6115 7.42489 10.4439C6.60803 10.2763 5.94155 11.074 5.94382 11.5015C5.86988 12.1894 5.51308 12.4951 4.8734 12.4186L4.87547 12.4157ZM7.22403 11.48L7.51063 11.3666L7.38411 11.6484L7.58118 11.8915L7.27048 11.8527L7.10156 12.121L7.04481 11.8104L6.74055 11.7327L7.0111 11.5817L6.99441 11.2697L7.22403 11.48Z" fill="white"/>
<path id="hk-a_5" d="M4.41243 6.46955C3.37706 9.0645 6.45892 11.4114 8.55763 9.3209C7.52622 9.94688 6.48151 9.40782 6.02717 8.87206L6.08125 8.8194C6.72041 9.53719 7.72497 9.76749 8.57468 9.22294C8.02988 9.51169 7.16857 9.11354 7.07556 8.28487C6.98255 7.45619 6.01793 7.06884 5.61204 7.20311C4.93494 7.34537 4.53396 7.10049 4.40909 6.46847L4.41243 6.46955ZM6.02814 8.414L6.22451 8.65154L5.9174 8.6183L5.74707 8.88086L5.68804 8.57334L5.3806 8.49563L5.65852 8.34565L5.63835 8.03229L5.86564 8.24291L6.15718 8.13063L6.02814 8.414Z" fill="white"/>
</g>
<defs>
<clipPath id="clip0_186_9237">
<rect width="18" height="18" fill="white"/>
</clipPath>
</defs>
</svg>
