<svg width="18" height="18" viewBox="0 0 18 18" fill="none" xmlns="http://www.w3.org/2000/svg">
<g id="hm" clip-path="url(#clip0_186_9244)">
<path id="Vector" d="M0 0H18V18H0V0Z" fill="#00008B"/>
<path id="Vector_2" d="M9 0V1.125L5.66016 4.5L9 7.78711V9H7.82227L4.46484 5.69531L1.19531 9H0V7.80469L3.26953 4.51758L0 1.30078V0H1.08984L4.46484 3.30469L7.73438 0H9Z" fill="white"/>
<path id="Vector_3" d="M3.23438 5.69531L3.42773 6.29297L0.738281 9H0V8.94727L3.23438 5.69531ZM5.41406 5.48438L6.36328 5.625L9 8.20898V9L5.41406 5.48438ZM9 0L5.625 3.44531L5.55469 2.67188L8.19141 0H9ZM0 0.0175781L3.39258 3.33984L2.35547 3.19922L0 0.861328V0.0175781Z" fill="#FF0000"/>
<path id="Vector_4" d="M3.09375 0V9H5.90625V0H3.09375ZM0 3.09375V5.90625H9V3.09375H0Z" fill="white"/>
<path id="Vector_5" d="M0 3.65625V5.34375H9V3.65625H0ZM3.65625 0V9H5.34375V0H3.65625Z" fill="#FF0000"/>
<path id="Vector_6" d="M7.10195 14.1609L5.4918 14.3508L5.65352 15.9645L4.50039 14.8254L3.34023 15.9574L3.5125 14.3438L1.90234 14.1398L3.26992 13.268L2.42617 11.8828L3.95898 12.4102L4.51445 10.8844L5.05937 12.4137L6.5957 11.8969L5.74141 13.275L7.10547 14.1574L7.10195 14.1609ZM14.9313 14.4422L14.2105 14.5336L14.2879 15.2543L13.7676 14.748L13.2508 15.2578L13.3211 14.5371L12.6004 14.4527L13.2086 14.059L12.8254 13.4437L13.5145 13.6723L13.757 12.9867L14.0066 13.6687L14.6922 13.4332L14.316 14.052L14.9313 14.4422ZM14.5902 10.3219L14.6852 9.86484L14.3406 9.54844L14.8047 9.4957L14.998 9.07031L15.1914 9.4957L15.6555 9.54844L15.3109 9.86484L15.4059 10.3219L14.998 10.0898L14.5902 10.3219ZM11.6336 8.2125L10.9199 8.28984L10.9832 9.00352L10.477 8.49375L9.95664 8.98945L10.041 8.27578L9.33086 8.18086L9.93906 7.80117L9.56992 7.18594L10.2484 7.425L10.5016 6.75352L10.7371 7.43203L11.4191 7.21055L11.0359 7.81875L11.6336 8.2125ZM17.8141 7.05938L17.0793 7.1543L17.1602 7.88906L16.6293 7.37227L16.102 7.89258L16.1758 7.1543L15.441 7.06992L16.0633 6.66563L15.673 6.03633L16.3762 6.27187L16.6223 5.57578L16.8754 6.27187L17.575 6.0293L17.1883 6.66211L17.8141 7.05938ZM14.9277 4.12383L14.2 4.20469L14.2668 4.93594L13.75 4.41562L13.2191 4.92188L13.3035 4.19414L12.5758 4.0957L13.198 3.70898L12.8219 3.07969L13.5145 3.32227L13.7711 2.63672L14.0102 3.3293L14.7062 3.10078L14.316 3.71953L14.9277 4.12383Z" fill="white"/>
</g>
<defs>
<clipPath id="clip0_186_9244">
<rect width="18" height="18" fill="white"/>
</clipPath>
</defs>
</svg>
