<svg width="18" height="18" viewBox="0 0 18 18" fill="none" xmlns="http://www.w3.org/2000/svg">
<g id="hn" clip-path="url(#clip0_186_9251)">
<path id="Vector" d="M0 0H18V18H0V0Z" fill="#18C3DF"/>
<path id="Vector_2" d="M0 6.00195H18V11.9996H0V6.00195Z" fill="white"/>
<g id="hn-c">
<g id="hn-b">
<path id="hn-a" d="M9.0002 8L8.7002 9L9.2002 9.1L9.0002 8Z" fill="#18C3DF"/>
<path id="hn-a_2" d="M8.9998 8L9.2998 9L8.7998 9.1L8.9998 8Z" fill="#18C3DF"/>
</g>
<g id="hn-b_2">
<path id="hn-a_3" d="M9.9511 8.69157L8.90734 8.71527L8.96674 9.2217L9.9511 8.69157Z" fill="#18C3DF"/>
<path id="hn-a_4" d="M9.95124 8.69125L9.09289 9.28558L8.84327 8.84095L9.95124 8.69125Z" fill="#18C3DF"/>
</g>
<g id="hn-b_3">
<path id="hn-a_5" d="M8.04876 8.69125L8.90711 9.28558L9.15673 8.84095L8.04876 8.69125Z" fill="#18C3DF"/>
<path id="hn-a_6" d="M8.0489 8.69157L9.09266 8.71527L9.03326 9.2217L8.0489 8.69157Z" fill="#18C3DF"/>
</g>
<g id="hn-b_4">
<path id="hn-a_7" d="M9.58737 9.80915L9.24229 8.8238L8.77901 9.03679L9.58737 9.80915Z" fill="#18C3DF"/>
<path id="hn-a_8" d="M9.58743 9.80999L8.75694 9.17731L9.10267 8.80252L9.58743 9.80999Z" fill="#18C3DF"/>
</g>
<g id="hn-b_5">
<path id="hn-a_9" d="M8.41159 9.80999L9.24208 9.17731L8.89635 8.80252L8.41159 9.80999Z" fill="#18C3DF"/>
<path id="hn-a_10" d="M8.41165 9.80915L8.75673 8.8238L9.22002 9.03679L8.41165 9.80915Z" fill="#18C3DF"/>
</g>
</g>
<g id="hn-c_2">
<g id="hn-b_6">
<path id="hn-a_11" d="M13.9992 6.40039L13.6992 7.40039L14.1992 7.50039L13.9992 6.40039Z" fill="#18C3DF"/>
<path id="hn-a_12" d="M13.9988 6.40039L14.2988 7.40039L13.7988 7.50039L13.9988 6.40039Z" fill="#18C3DF"/>
</g>
<g id="hn-b_7">
<path id="hn-a_13" d="M14.9501 7.09196L13.9064 7.11566L13.9658 7.62209L14.9501 7.09196Z" fill="#18C3DF"/>
<path id="hn-a_14" d="M14.9503 7.09164L14.0919 7.68597L13.8423 7.24134L14.9503 7.09164Z" fill="#18C3DF"/>
</g>
<g id="hn-b_8">
<path id="hn-a_15" d="M13.0478 7.09164L13.9061 7.68597L14.1557 7.24134L13.0478 7.09164Z" fill="#18C3DF"/>
<path id="hn-a_16" d="M13.0479 7.09196L14.0917 7.11566L14.0323 7.62209L13.0479 7.09196Z" fill="#18C3DF"/>
</g>
<g id="hn-b_9">
<path id="hn-a_17" d="M14.5864 8.20954L14.2413 7.22419L13.778 7.43718L14.5864 8.20954Z" fill="#18C3DF"/>
<path id="hn-a_18" d="M14.5865 8.21038L13.756 7.5777L14.1017 7.20291L14.5865 8.21038Z" fill="#18C3DF"/>
</g>
<g id="hn-b_10">
<path id="hn-a_19" d="M13.4106 8.21038L14.2411 7.5777L13.8954 7.20291L13.4106 8.21038Z" fill="#18C3DF"/>
<path id="hn-a_20" d="M13.4107 8.20954L13.7558 7.22419L14.219 7.43718L13.4107 8.20954Z" fill="#18C3DF"/>
</g>
</g>
<g id="hn-c_3">
<g id="hn-b_11">
<path id="hn-a_21" d="M13.9992 9.39844L13.6992 10.3984L14.1992 10.4984L13.9992 9.39844Z" fill="#18C3DF"/>
<path id="hn-a_22" d="M13.9988 9.39844L14.2988 10.3984L13.7988 10.4984L13.9988 9.39844Z" fill="#18C3DF"/>
</g>
<g id="hn-b_12">
<path id="hn-a_23" d="M14.9501 10.09L13.9064 10.1137L13.9658 10.6201L14.9501 10.09Z" fill="#18C3DF"/>
<path id="hn-a_24" d="M14.9503 10.0897L14.0919 10.684L13.8423 10.2394L14.9503 10.0897Z" fill="#18C3DF"/>
</g>
<g id="hn-b_13">
<path id="hn-a_25" d="M13.0478 10.0897L13.9061 10.684L14.1557 10.2394L13.0478 10.0897Z" fill="#18C3DF"/>
<path id="hn-a_26" d="M13.0479 10.09L14.0917 10.1137L14.0323 10.6201L13.0479 10.09Z" fill="#18C3DF"/>
</g>
<g id="hn-b_14">
<path id="hn-a_27" d="M14.5864 11.2076L14.2413 10.2222L13.778 10.4352L14.5864 11.2076Z" fill="#18C3DF"/>
<path id="hn-a_28" d="M14.5865 11.2084L13.756 10.5757L14.1017 10.201L14.5865 11.2084Z" fill="#18C3DF"/>
</g>
<g id="hn-b_15">
<path id="hn-a_29" d="M13.4106 11.2084L14.2411 10.5757L13.8954 10.201L13.4106 11.2084Z" fill="#18C3DF"/>
<path id="hn-a_30" d="M13.4107 11.2076L13.7558 10.2222L14.219 10.4352L13.4107 11.2076Z" fill="#18C3DF"/>
</g>
</g>
<g id="hn-c_4">
<g id="hn-b_16">
<path id="hn-a_31" d="M4.00117 6.40039L3.70117 7.40039L4.20117 7.50039L4.00117 6.40039Z" fill="#18C3DF"/>
<path id="hn-a_32" d="M4.00078 6.40039L4.30078 7.40039L3.80078 7.50039L4.00078 6.40039Z" fill="#18C3DF"/>
</g>
<g id="hn-b_17">
<path id="hn-a_33" d="M4.95208 7.09196L3.90832 7.11566L3.96772 7.62209L4.95208 7.09196Z" fill="#18C3DF"/>
<path id="hn-a_34" d="M4.95222 7.09164L4.09386 7.68597L3.84425 7.24134L4.95222 7.09164Z" fill="#18C3DF"/>
</g>
<g id="hn-b_18">
<path id="hn-a_35" d="M3.04974 7.09164L3.90809 7.68597L4.1577 7.24134L3.04974 7.09164Z" fill="#18C3DF"/>
<path id="hn-a_36" d="M3.04987 7.09196L4.09364 7.11566L4.03423 7.62209L3.04987 7.09196Z" fill="#18C3DF"/>
</g>
<g id="hn-b_19">
<path id="hn-a_37" d="M4.58835 8.20954L4.24327 7.22419L3.77998 7.43718L4.58835 8.20954Z" fill="#18C3DF"/>
<path id="hn-a_38" d="M4.58841 8.21038L3.75792 7.5777L4.10365 7.20291L4.58841 8.21038Z" fill="#18C3DF"/>
</g>
<g id="hn-b_20">
<path id="hn-a_39" d="M3.41257 8.21038L4.24306 7.5777L3.89733 7.20291L3.41257 8.21038Z" fill="#18C3DF"/>
<path id="hn-a_40" d="M3.41263 8.20954L3.75771 7.22419L4.22099 7.43718L3.41263 8.20954Z" fill="#18C3DF"/>
</g>
</g>
<g id="hn-c_5">
<g id="hn-b_21">
<path id="hn-a_41" d="M4.00117 9.39844L3.70117 10.3984L4.20117 10.4984L4.00117 9.39844Z" fill="#18C3DF"/>
<path id="hn-a_42" d="M4.00078 9.39844L4.30078 10.3984L3.80078 10.4984L4.00078 9.39844Z" fill="#18C3DF"/>
</g>
<g id="hn-b_22">
<path id="hn-a_43" d="M4.95208 10.09L3.90832 10.1137L3.96772 10.6201L4.95208 10.09Z" fill="#18C3DF"/>
<path id="hn-a_44" d="M4.95222 10.0897L4.09386 10.684L3.84425 10.2394L4.95222 10.0897Z" fill="#18C3DF"/>
</g>
<g id="hn-b_23">
<path id="hn-a_45" d="M3.04974 10.0897L3.90809 10.684L4.1577 10.2394L3.04974 10.0897Z" fill="#18C3DF"/>
<path id="hn-a_46" d="M3.04987 10.09L4.09364 10.1137L4.03423 10.6201L3.04987 10.09Z" fill="#18C3DF"/>
</g>
<g id="hn-b_24">
<path id="hn-a_47" d="M4.58835 11.2076L4.24327 10.2222L3.77998 10.4352L4.58835 11.2076Z" fill="#18C3DF"/>
<path id="hn-a_48" d="M4.58841 11.2084L3.75792 10.5757L4.10365 10.201L4.58841 11.2084Z" fill="#18C3DF"/>
</g>
<g id="hn-b_25">
<path id="hn-a_49" d="M3.41257 11.2084L4.24306 10.5757L3.89733 10.201L3.41257 11.2084Z" fill="#18C3DF"/>
<path id="hn-a_50" d="M3.41263 11.2076L3.75771 10.2222L4.22099 10.4352L3.41263 11.2076Z" fill="#18C3DF"/>
</g>
</g>
</g>
<defs>
<clipPath id="clip0_186_9251">
<rect width="18" height="18" fill="white"/>
</clipPath>
</defs>
</svg>
