<svg width="18" height="18" viewBox="0 0 18 18" fill="none" xmlns="http://www.w3.org/2000/svg">
<g id="ht" clip-path="url(#clip0_186_9400)">
<path id="Vector" d="M0 0H18V18H0V0Z" fill="#D21034"/>
<path id="Vector_2" d="M0 0H18V9H0V0Z" fill="#00209F"/>
<g id="Group">
<path id="Vector_3" d="M6.15918 6.73633H11.8404V11.2574H6.15918V6.73633Z" fill="white"/>
<path id="Vector_4" d="M10.1424 10.0059L8.98223 10.041L7.8291 10.0516C7.8291 10.0516 7.23848 10.273 6.9959 10.3223C6.75332 10.3715 6.78496 10.4488 6.59863 10.491C6.44746 10.5262 6.42988 10.5367 6.34199 10.5402C6.28926 10.5437 6.22598 10.5859 6.15918 10.6316V11.2574H11.8404V10.6598C11.7818 10.6298 11.7206 10.6051 11.6576 10.5859C11.5768 10.5578 11.517 10.5262 11.3693 10.491C11.183 10.4488 11.2146 10.3715 10.9721 10.3223C10.7295 10.273 10.1424 10.0059 10.1424 10.0059Z" fill="#016A16" stroke="#016A16" stroke-width="0.3"/>
<g id="Group_2">
<g id="ht-a">
<path id="Vector_5" d="M8.66797 8.60938H8.75197L8.90797 9.25138L8.87197 9.45538L8.66797 8.60938Z" fill="#F1B517" stroke="black" stroke-width="0.341334"/>
<path id="Vector_6" d="M8.57812 8.17773L8.63813 8.67574H8.69813L8.57812 8.18373V8.17773Z" fill="white" stroke="black" stroke-width="0.341334"/>
<path id="Vector_7" d="M8.74042 9.27608L8.48242 8.58608L8.57842 8.58008L8.87842 9.42008L8.74042 9.27608Z" fill="#F1B517" stroke="black" stroke-width="0.341334"/>
<path id="Vector_8" d="M8.3623 8.18945L8.47031 8.66945H8.55431L8.3623 8.18945Z" fill="white" stroke="black" stroke-width="0.341334"/>
<path id="Vector_9" d="M8.5123 9.03536L8.3623 8.70536L8.4223 8.69336L8.70431 9.23336L8.5123 9.03536Z" fill="#F1B517" stroke="black" stroke-width="0.341334"/>
<path id="Vector_10" d="M8.1582 8.32812L8.3322 8.78413H8.4162L8.1642 8.32812H8.1582Z" fill="white" stroke="black" stroke-width="0.341334"/>
<path id="Vector_11" d="M8.53624 9.08399L7.84624 8.33398C7.63024 8.50198 7.67224 8.81399 7.67224 8.81399L8.45224 9.42599L8.53624 9.08399Z" fill="#0A328C" stroke="black" stroke-width="0.341334"/>
<path id="Vector_12" d="M8.93204 9.49256L8.42204 8.97656C8.20604 8.98856 8.37404 9.30656 8.38604 9.34856L8.92604 9.81056L8.93204 9.49256Z" fill="#D20014" stroke="black" stroke-width="0.341334"/>
<path id="Vector_13" d="M8.88418 9.40833L7.83418 8.28033L7.79218 8.31033L8.90818 9.54633L8.88418 9.40833ZM7.77418 8.20833L7.75018 8.17833V8.12433L7.53418 7.98633L7.63018 8.20833L7.70818 8.22033L7.72618 8.24433L7.77418 8.20833Z" fill="#F1B517" stroke="black" stroke-width="0.341334"/>
<path id="Vector_14" d="M7.66016 8.2863C7.70434 8.23146 7.75953 8.1865 7.82216 8.1543L7.88216 8.2443L7.75016 8.3523L7.66016 8.2923V8.2863Z" fill="#F1B517" stroke="black" stroke-width="0.341334"/>
<path id="Vector_15" d="M7.5459 8.47765L7.5819 8.53765C7.6059 8.53165 7.8219 8.32765 7.8219 8.32765H7.9839L8.0259 8.27365C7.9059 8.15365 7.8039 8.29165 7.8039 8.29165L7.5459 8.47765Z" fill="#0A328C" stroke="#0A328C" stroke-width="0.341334"/>
<path id="Vector_16" d="M7.67803 8.57944C7.67803 8.51944 7.78603 8.38744 7.79803 8.38144C7.87603 8.40544 7.94803 8.45344 8.03203 8.27344C7.96003 8.35744 7.82203 8.27344 7.82203 8.27344L7.76203 8.32144V8.34544L7.58203 8.51344L7.67803 8.57944Z" fill="#D20014" stroke="#D20014" stroke-width="0.341334"/>
<path id="Vector_17" d="M8.23634 9.28166L7.37234 8.59766C7.22234 8.74766 7.34834 9.20966 7.34834 9.20966L8.18834 9.66566L8.23034 9.28166H8.23634Z" fill="#0A328C" stroke="black" stroke-width="0.341334"/>
<path id="Vector_18" d="M8.95025 9.83967L8.23625 9.26367C7.99625 9.29967 8.18825 9.65367 8.20025 9.69567L8.95025 10.1037V9.83967Z" fill="#D20014" stroke="black" stroke-width="0.341334"/>
<path id="Vector_19" d="M8.92014 9.71999L7.38413 8.56799L7.35413 8.60398L8.96214 9.86399L8.92014 9.71999ZM7.31213 8.50799L7.28813 8.48398L7.27613 8.43599L7.03613 8.33398L7.17413 8.53198H7.25213L7.27613 8.55599L7.31213 8.50799Z" fill="#F1B517" stroke="black" stroke-width="0.341334"/>
<path id="Vector_20" d="M7.2168 8.60522C7.25114 8.54397 7.29819 8.49077 7.3548 8.44922L7.4268 8.52722L7.3188 8.65322L7.2168 8.60522Z" fill="#F1B517" stroke="black" stroke-width="0.341334"/>
<path id="Vector_21" d="M7.13867 8.79649V8.86249C7.16267 8.85049 7.36067 8.64048 7.36067 8.64048L7.51067 8.61048L7.54667 8.56248C7.43867 8.43648 7.32467 8.60448 7.32467 8.60448L7.13867 8.79649Z" fill="#0A328C" stroke="#0A328C" stroke-width="0.341334"/>
<path id="Vector_22" d="M7.25853 8.91078C7.24653 8.85078 7.33053 8.68278 7.34253 8.67078C7.43853 8.70078 7.52253 8.74278 7.55253 8.55078C7.49253 8.64678 7.34253 8.57478 7.34253 8.57478L7.29453 8.63478V8.66478L7.14453 8.86278L7.25853 8.91078Z" fill="#D20014" stroke="#D20014" stroke-width="0.341334"/>
<path id="Vector_23" d="M8.1703 9.70227C7.79949 9.49368 7.42949 9.28368 7.06029 9.07227C6.98229 9.21027 7.05429 9.40227 7.09029 9.43227C7.09029 9.52227 7.05429 9.57027 7.13229 9.76227C7.15629 9.88227 7.2103 9.99627 7.2943 10.0623C7.3903 10.4463 7.7863 10.4763 7.9363 10.1583L8.1703 9.70227Z" fill="#0A328C" stroke="black" stroke-width="0.341334"/>
<path id="Vector_24" d="M8.89605 10.1099L8.14605 9.67188C7.90605 9.70188 8.14605 10.1519 8.16405 10.1939L8.89605 10.4519V10.1099Z" fill="#D20014" stroke="black" stroke-width="0.341334"/>
<path id="Vector_25" d="M8.77034 9.949L7.07234 9.049L7.04234 9.085L8.84234 10.087L8.77034 9.949ZM6.98834 9.001L6.95834 8.983L6.94034 8.935L6.69434 8.875L6.85634 9.049L6.92834 9.037L6.96434 9.055L6.98834 9.001Z" fill="#F1B517" stroke="black" stroke-width="0.341334"/>
<path id="Vector_26" d="M6.91016 9.10773C6.93416 9.04773 6.95816 8.99373 7.01816 8.92773L7.10216 8.99373L7.01816 9.13773L6.91016 9.10773Z" fill="#F1B517" stroke="black" stroke-width="0.341334"/>
<path id="Vector_27" d="M6.84473 9.3119L6.88073 9.3839L7.06073 9.1079L7.21073 9.0539L7.24073 8.9939C7.12073 8.8859 7.03073 9.0779 7.03073 9.0779L6.84473 9.3119Z" fill="#0A328C" stroke="#0A328C" stroke-width="0.341334"/>
<path id="Vector_28" d="M7.00672 9.40814C6.99472 9.34814 7.03672 9.15614 7.04872 9.15014C7.13872 9.18014 7.21672 9.18614 7.24072 8.99414C7.18072 9.08414 7.04272 9.05414 7.04272 9.05414L7.00072 9.11414L7.00672 9.13814L6.88672 9.37814L7.00672 9.40814Z" fill="#D20014" stroke="#D20014" stroke-width="0.341334"/>
</g>
<g id="ht-a_2">
<path id="Vector_29" d="M9.32227 8.60938H9.23827L9.08227 9.25138L9.11827 9.45538L9.32227 8.60938Z" fill="#F1B517" stroke="black" stroke-width="0.341334"/>
<path id="Vector_30" d="M9.41211 8.17773L9.35211 8.67574H9.29211L9.41211 8.18373V8.17773Z" fill="white" stroke="black" stroke-width="0.341334"/>
<path id="Vector_31" d="M9.24981 9.27608L9.50781 8.58608L9.41181 8.58008L9.11181 9.42008L9.24981 9.27608Z" fill="#F1B517" stroke="black" stroke-width="0.341334"/>
<path id="Vector_32" d="M9.62793 8.18945L9.51993 8.66945H9.43593L9.62793 8.18945Z" fill="white" stroke="black" stroke-width="0.341334"/>
<path id="Vector_33" d="M9.47793 9.03536L9.62793 8.70536L9.56793 8.69336L9.28593 9.23336L9.47793 9.03536Z" fill="#F1B517" stroke="black" stroke-width="0.341334"/>
<path id="Vector_34" d="M9.83203 8.32812L9.65803 8.78413H9.57403L9.82603 8.32812H9.83203Z" fill="white" stroke="black" stroke-width="0.341334"/>
<path id="Vector_35" d="M9.45399 9.08399L10.144 8.33398C10.36 8.50198 10.318 8.81399 10.318 8.81399L9.53799 9.42599L9.45399 9.08399Z" fill="#0A328C" stroke="black" stroke-width="0.341334"/>
<path id="Vector_36" d="M9.05819 9.49256L9.56819 8.97656C9.78419 8.98856 9.61619 9.30656 9.60419 9.34856L9.06419 9.81056L9.05819 9.49256Z" fill="#D20014" stroke="black" stroke-width="0.341334"/>
<path id="Vector_37" d="M9.10605 9.40833L10.1561 8.28033L10.1981 8.31033L9.08205 9.54633L9.10605 9.40833ZM10.2161 8.20833L10.2401 8.17833V8.12433L10.4561 7.98633L10.3601 8.20833L10.2821 8.22033L10.2641 8.24433L10.2161 8.20833Z" fill="#F1B517" stroke="black" stroke-width="0.341334"/>
<path id="Vector_38" d="M10.3301 8.2863C10.2859 8.23146 10.2307 8.1865 10.1681 8.1543L10.1081 8.2443L10.2401 8.3523L10.3301 8.2923V8.2863Z" fill="#F1B517" stroke="black" stroke-width="0.341334"/>
<path id="Vector_39" d="M10.4443 8.47765L10.4083 8.53765C10.3843 8.53165 10.1683 8.32765 10.1683 8.32765H10.0063L9.96433 8.27365C10.0843 8.15365 10.1863 8.29165 10.1863 8.29165L10.4443 8.47765Z" fill="#0A328C" stroke="#0A328C" stroke-width="0.341334"/>
<path id="Vector_40" d="M10.3122 8.57944C10.3122 8.51944 10.2042 8.38744 10.1922 8.38144C10.1142 8.40544 10.0422 8.45344 9.9582 8.27344C10.0302 8.35744 10.1682 8.27344 10.1682 8.27344L10.2282 8.32144V8.34544L10.4082 8.51344L10.3122 8.57944Z" fill="#D20014" stroke="#D20014" stroke-width="0.341334"/>
<path id="Vector_41" d="M9.75389 9.28166L10.6179 8.59766C10.7679 8.74766 10.6419 9.20966 10.6419 9.20966L9.80189 9.66566L9.75989 9.28166H9.75389Z" fill="#0A328C" stroke="black" stroke-width="0.341334"/>
<path id="Vector_42" d="M9.03998 9.83967L9.75398 9.26367C9.99398 9.29967 9.80198 9.65367 9.78998 9.69567L9.03998 10.1037V9.83967Z" fill="#D20014" stroke="black" stroke-width="0.341334"/>
<path id="Vector_43" d="M9.0701 9.71999L10.6061 8.56799L10.6361 8.60398L9.0281 9.86399L9.0701 9.71999ZM10.6781 8.50799L10.7021 8.48398L10.7141 8.43599L10.9541 8.33398L10.8161 8.53198H10.7381L10.7141 8.55599L10.6781 8.50799Z" fill="#F1B517" stroke="black" stroke-width="0.341334"/>
<path id="Vector_44" d="M10.7734 8.60522C10.7391 8.54397 10.692 8.49077 10.6354 8.44922L10.5634 8.52722L10.6714 8.65322L10.7734 8.60522Z" fill="#F1B517" stroke="black" stroke-width="0.341334"/>
<path id="Vector_45" d="M10.8516 8.79649V8.86249C10.8276 8.85049 10.6296 8.64048 10.6296 8.64048L10.4796 8.61048L10.4436 8.56248C10.5516 8.43648 10.6656 8.60448 10.6656 8.60448L10.8516 8.79649Z" fill="#0A328C" stroke="#0A328C" stroke-width="0.341334"/>
<path id="Vector_46" d="M10.7317 8.91078C10.7437 8.85078 10.6597 8.68278 10.6477 8.67078C10.5517 8.70078 10.4677 8.74278 10.4377 8.55078C10.4977 8.64678 10.6477 8.57478 10.6477 8.57478L10.6957 8.63478V8.66478L10.8457 8.86278L10.7317 8.91078Z" fill="#D20014" stroke="#D20014" stroke-width="0.341334"/>
<path id="Vector_47" d="M9.81994 9.70227C10.1907 9.49368 10.5607 9.28368 10.9299 9.07227C11.0079 9.21027 10.9359 9.40227 10.8999 9.43227C10.8999 9.52227 10.9359 9.57027 10.8579 9.76227C10.8339 9.88227 10.7799 9.99627 10.6959 10.0623C10.5999 10.4463 10.2039 10.4763 10.0539 10.1583L9.81994 9.70227Z" fill="#0A328C" stroke="black" stroke-width="0.341334"/>
<path id="Vector_48" d="M9.09418 10.1099L9.84418 9.67188C10.0842 9.70188 9.84418 10.1519 9.82618 10.1939L9.09418 10.4519V10.1099Z" fill="#D20014" stroke="black" stroke-width="0.341334"/>
<path id="Vector_49" d="M9.21989 9.949L10.9179 9.049L10.9479 9.085L9.14789 10.087L9.21989 9.949ZM11.0019 9.001L11.0319 8.983L11.0499 8.935L11.2959 8.875L11.1339 9.049L11.0619 9.037L11.0259 9.055L11.0019 9.001Z" fill="#F1B517" stroke="black" stroke-width="0.341334"/>
<path id="Vector_50" d="M11.0801 9.10773C11.0561 9.04773 11.0321 8.99373 10.9721 8.92773L10.8881 8.99373L10.9721 9.13773L11.0801 9.10773Z" fill="#F1B517" stroke="black" stroke-width="0.341334"/>
<path id="Vector_51" d="M11.1455 9.3119L11.1095 9.3839L10.9295 9.1079L10.7795 9.0539L10.7495 8.9939C10.8695 8.8859 10.9595 9.0779 10.9595 9.0779L11.1455 9.3119Z" fill="#0A328C" stroke="#0A328C" stroke-width="0.341334"/>
<path id="Vector_52" d="M10.9835 9.40814C10.9955 9.34814 10.9535 9.15614 10.9415 9.15014C10.8515 9.18014 10.7735 9.18614 10.7495 8.99414C10.8095 9.08414 10.9475 9.05414 10.9475 9.05414L10.9895 9.11414L10.9835 9.13814L11.1035 9.37814L10.9835 9.40814Z" fill="#D20014" stroke="#D20014" stroke-width="0.341334"/>
</g>
</g>
<g id="Group_3">
<path id="Vector_53" d="M8.92679 7.53673L8.89679 8.07674H9.07079L9.04679 7.53673L9.22679 7.51874L9.20879 7.30273L8.75879 7.32073V7.51273L8.92679 7.53673Z" fill="#016A16" stroke="#016A16" stroke-width="0.341334"/>
<g id="ht-b">
<g id="Vector_54">
<path d="M8.98636 7.31314C8.51836 6.84514 8.15236 7.07314 8.06836 7.13914C8.12836 7.15114 8.17636 7.11514 8.20636 7.10914L8.14636 7.18114C8.14636 7.18114 8.29636 7.12114 8.31436 7.12114C8.29036 7.13914 8.26636 7.18114 8.26636 7.18114C8.27836 7.18114 8.36236 7.11514 8.37436 7.11514C8.35036 7.13914 8.34436 7.20514 8.34436 7.20514L8.41636 7.17514C8.43436 7.18714 8.41036 7.21114 8.42236 7.21114C8.54236 7.19914 8.70436 7.31314 8.72236 7.34914" fill="#016A16"/>
<path d="M8.98636 7.31314C8.51836 6.84514 8.15236 7.07314 8.06836 7.13914C8.12836 7.15114 8.17636 7.11514 8.20636 7.10914L8.14636 7.18114C8.14636 7.18114 8.29636 7.12114 8.31436 7.12114C8.29036 7.13914 8.26636 7.18114 8.26636 7.18114C8.27836 7.18114 8.36236 7.11514 8.37436 7.11514C8.35036 7.13914 8.34436 7.20514 8.34436 7.20514L8.41636 7.17514C8.43436 7.18714 8.41036 7.21114 8.42236 7.21114C8.54236 7.19914 8.70436 7.31314 8.72236 7.34914" stroke="black" stroke-width="0.341334"/>
</g>
<g id="Vector_55">
<path d="M8.87284 7.39712C8.82484 7.28912 7.93684 7.09712 7.75684 7.41512C7.82884 7.43312 7.89484 7.35512 7.89484 7.35512V7.42712L8.00884 7.33112L7.96684 7.42712L8.05684 7.34912V7.42712L8.17684 7.30712L8.15884 7.37312L8.26084 7.33112L8.24884 7.39112" fill="#016A16"/>
<path d="M8.87284 7.39712C8.82484 7.28912 7.93684 7.09712 7.75684 7.41512C7.82884 7.43312 7.89484 7.35512 7.89484 7.35512V7.42712L8.00884 7.33112L7.96684 7.42712L8.05684 7.34912V7.42712L8.17684 7.30712L8.15884 7.37312L8.26084 7.33112L8.24884 7.39112" stroke="black" stroke-width="0.341334"/>
</g>
<g id="Vector_56">
<path d="M8.83081 7.41586C8.60281 7.26586 8.25481 7.36786 8.25481 7.36786C8.02681 7.48786 7.90681 7.46986 7.88281 7.70386C7.90081 7.69786 7.96081 7.61986 7.96081 7.61986L8.00881 7.70986L8.02081 7.58386L8.05681 7.68586L8.11681 7.51786L8.12881 7.63186L8.21281 7.51786L8.24881 7.55386L8.28481 7.46386L8.32081 7.52386C8.32081 7.52386 8.38081 7.48786 8.41081 7.50586L8.47081 7.43386L8.48881 7.48786L8.54881 7.42786L8.56681 7.46986L8.62081 7.42186V7.45786H8.80081" fill="#016A16"/>
<path d="M8.83081 7.41586C8.60281 7.26586 8.25481 7.36786 8.25481 7.36786C8.02681 7.48786 7.90681 7.46986 7.88281 7.70386C7.90081 7.69786 7.96081 7.61986 7.96081 7.61986L8.00881 7.70986L8.02081 7.58386L8.05681 7.68586L8.11681 7.51786L8.12881 7.63186L8.21281 7.51786L8.24881 7.55386L8.28481 7.46386L8.32081 7.52386C8.32081 7.52386 8.38081 7.48786 8.41081 7.50586L8.47081 7.43386L8.48881 7.48786L8.54881 7.42786L8.56681 7.46986L8.62081 7.42186V7.45786H8.80081" stroke="black" stroke-width="0.341334"/>
</g>
<g id="Vector_57">
<path d="M8.78278 7.43945C8.62078 7.43945 8.16478 7.61345 8.05078 7.78745C8.07612 7.77406 8.10215 7.76204 8.12878 7.75145L8.14678 7.82345L8.17678 7.75145L8.18278 7.81145C8.20078 7.76345 8.21878 7.76345 8.25478 7.80545L8.26678 7.73945L8.28478 7.79945L8.31478 7.73345C8.31478 7.73345 8.33278 7.80545 8.34478 7.80545C8.34478 7.80545 8.39278 7.67345 8.41678 7.66745L8.42278 7.75145L8.45278 7.66745L8.48278 7.72745V7.64345L8.51878 7.70345C8.51878 7.70345 8.53078 7.64345 8.55478 7.63145L8.60278 7.67345L8.80678 7.52345" fill="#016A16"/>
<path d="M8.78278 7.43945C8.62078 7.43945 8.16478 7.61345 8.05078 7.78745C8.07612 7.77406 8.10215 7.76204 8.12878 7.75145L8.14678 7.82345L8.17678 7.75145L8.18278 7.81145C8.20078 7.76345 8.21878 7.76345 8.25478 7.80545L8.26678 7.73945L8.28478 7.79945L8.31478 7.73345C8.31478 7.73345 8.33278 7.80545 8.34478 7.80545C8.34478 7.80545 8.39278 7.67345 8.41678 7.66745L8.42278 7.75145L8.45278 7.66745L8.48278 7.72745V7.64345L8.51878 7.70345C8.51878 7.70345 8.53078 7.64345 8.55478 7.63145L8.60278 7.67345L8.80678 7.52345" stroke="black" stroke-width="0.341334"/>
</g>
<g id="Vector_58">
<path d="M8.81291 7.48047C8.60291 7.55847 8.41091 7.85247 8.42891 7.97247C8.51891 7.85247 8.50091 7.87047 8.54291 8.00847C8.54291 8.00847 8.55491 7.88847 8.57291 7.87647L8.60291 7.96047L8.60891 7.84647H8.63891L8.63291 7.78047L8.67491 7.81047C8.66291 7.76847 8.65691 7.75647 8.69891 7.72047C8.69891 7.72047 8.63891 7.72647 8.68691 7.63047L8.72891 7.66647C8.72891 7.66647 8.71691 7.62447 8.72891 7.60647L8.88491 7.55847" fill="#016A16"/>
<path d="M8.81291 7.48047C8.60291 7.55847 8.41091 7.85247 8.42891 7.97247C8.51891 7.85247 8.50091 7.87047 8.54291 8.00847C8.54291 8.00847 8.55491 7.88847 8.57291 7.87647L8.60291 7.96047L8.60891 7.84647H8.63891L8.63291 7.78047L8.67491 7.81047C8.66291 7.76847 8.65691 7.75647 8.69891 7.72047C8.69891 7.72047 8.63891 7.72647 8.68691 7.63047L8.72891 7.66647C8.72891 7.66647 8.71691 7.62447 8.72891 7.60647L8.88491 7.55847" stroke="black" stroke-width="0.341334"/>
</g>
<g id="Vector_59">
<path d="M8.83053 7.5L8.75253 7.656L8.79453 7.668L8.69853 7.734L8.77653 7.728C8.77653 7.728 8.65653 7.77 8.64453 7.89L8.76453 7.83C8.76453 7.83 8.66253 7.938 8.64453 8.004L8.72253 7.944C8.72253 7.944 8.65053 8.016 8.66253 8.124L8.71653 8.064C8.70453 8.202 8.70453 8.214 8.76453 8.316C8.76453 8.316 8.75253 8.16 8.76453 8.136L8.90253 8.28L8.83053 8.082C8.83053 8.082 8.91453 8.202 8.96253 8.196L8.85453 8.034L8.96253 8.118L8.84253 7.938L8.95053 7.974C8.95053 7.974 8.87253 7.872 8.87853 7.806L8.95653 7.89C8.95653 7.89 8.92653 7.8 8.93253 7.77L8.97453 7.776L8.89653 7.692L8.95053 7.68L8.94453 7.62L8.98053 7.614V7.548M8.91453 7.548C8.78253 7.728 8.84853 7.998 8.77053 8.142Z" fill="#016A16"/>
<path d="M8.83053 7.5L8.75253 7.656L8.79453 7.668L8.69853 7.734L8.77653 7.728C8.77653 7.728 8.65653 7.77 8.64453 7.89L8.76453 7.83C8.76453 7.83 8.66253 7.938 8.64453 8.004L8.72253 7.944C8.72253 7.944 8.65053 8.016 8.66253 8.124L8.71653 8.064C8.70453 8.202 8.70453 8.214 8.76453 8.316C8.76453 8.316 8.75253 8.16 8.76453 8.136L8.90253 8.28L8.83053 8.082C8.83053 8.082 8.91453 8.202 8.96253 8.196L8.85453 8.034L8.96253 8.118L8.84253 7.938L8.95053 7.974C8.95053 7.974 8.87253 7.872 8.87853 7.806L8.95653 7.89C8.95653 7.89 8.92653 7.8 8.93253 7.77L8.97453 7.776L8.89653 7.692L8.95053 7.68L8.94453 7.62L8.98053 7.614V7.548M8.91453 7.548C8.78253 7.728 8.84853 7.998 8.77053 8.142" stroke="black" stroke-width="0.341334"/>
</g>
</g>
<g id="ht-b_2">
<g id="Vector_60">
<path d="M9.00485 7.31314C9.47285 6.84514 9.83885 7.07314 9.92285 7.13914C9.86285 7.15114 9.81485 7.11514 9.78485 7.10914L9.84485 7.18114C9.84485 7.18114 9.69485 7.12114 9.67685 7.12114C9.70085 7.13914 9.72485 7.18114 9.72485 7.18114C9.71285 7.18114 9.62885 7.11514 9.61685 7.11514C9.64085 7.13914 9.64685 7.20514 9.64685 7.20514L9.57485 7.17514C9.55685 7.18714 9.58085 7.21114 9.56885 7.21114C9.44885 7.19914 9.28685 7.31314 9.26885 7.34914" fill="#016A16"/>
<path d="M9.00485 7.31314C9.47285 6.84514 9.83885 7.07314 9.92285 7.13914C9.86285 7.15114 9.81485 7.11514 9.78485 7.10914L9.84485 7.18114C9.84485 7.18114 9.69485 7.12114 9.67685 7.12114C9.70085 7.13914 9.72485 7.18114 9.72485 7.18114C9.71285 7.18114 9.62885 7.11514 9.61685 7.11514C9.64085 7.13914 9.64685 7.20514 9.64685 7.20514L9.57485 7.17514C9.55685 7.18714 9.58085 7.21114 9.56885 7.21114C9.44885 7.19914 9.28685 7.31314 9.26885 7.34914" stroke="black" stroke-width="0.341334"/>
</g>
<g id="Vector_61">
<path d="M9.11837 7.39712C9.16637 7.28912 10.0544 7.09712 10.2344 7.41512C10.1624 7.43312 10.0964 7.35512 10.0964 7.35512V7.42712L9.98237 7.33112L10.0244 7.42712L9.93437 7.34912V7.42712L9.81437 7.30712L9.83237 7.37312L9.73037 7.33112L9.74237 7.39112" fill="#016A16"/>
<path d="M9.11837 7.39712C9.16637 7.28912 10.0544 7.09712 10.2344 7.41512C10.1624 7.43312 10.0964 7.35512 10.0964 7.35512V7.42712L9.98237 7.33112L10.0244 7.42712L9.93437 7.34912V7.42712L9.81437 7.30712L9.83237 7.37312L9.73037 7.33112L9.74237 7.39112" stroke="black" stroke-width="0.341334"/>
</g>
<g id="Vector_62">
<path d="M9.1604 7.41586C9.3884 7.26586 9.7364 7.36786 9.7364 7.36786C9.9644 7.48786 10.0844 7.46986 10.1084 7.70386C10.0904 7.69786 10.0304 7.61986 10.0304 7.61986L9.9824 7.70986L9.9704 7.58386L9.9344 7.68586L9.8744 7.51786L9.8624 7.63186L9.7784 7.51786L9.7424 7.55386L9.7064 7.46386L9.6704 7.52386C9.6704 7.52386 9.6104 7.48786 9.5804 7.50586L9.5204 7.43386L9.5024 7.48786L9.4424 7.42786L9.4244 7.46986L9.3704 7.42186V7.45786H9.1904" fill="#016A16"/>
<path d="M9.1604 7.41586C9.3884 7.26586 9.7364 7.36786 9.7364 7.36786C9.9644 7.48786 10.0844 7.46986 10.1084 7.70386C10.0904 7.69786 10.0304 7.61986 10.0304 7.61986L9.9824 7.70986L9.9704 7.58386L9.9344 7.68586L9.8744 7.51786L9.8624 7.63186L9.7784 7.51786L9.7424 7.55386L9.7064 7.46386L9.6704 7.52386C9.6704 7.52386 9.6104 7.48786 9.5804 7.50586L9.5204 7.43386L9.5024 7.48786L9.4424 7.42786L9.4244 7.46986L9.3704 7.42186V7.45786H9.1904" stroke="black" stroke-width="0.341334"/>
</g>
<g id="Vector_63">
<path d="M9.20843 7.43945C9.37043 7.43945 9.82643 7.61345 9.94043 7.78745C9.91509 7.77406 9.88906 7.76204 9.86243 7.75145L9.84443 7.82345L9.81443 7.75145L9.80843 7.81145C9.79043 7.76345 9.77243 7.76345 9.73643 7.80545L9.72443 7.73945L9.70643 7.79945L9.67643 7.73345C9.67643 7.73345 9.65843 7.80545 9.64643 7.80545C9.64643 7.80545 9.59843 7.67345 9.57443 7.66745L9.56843 7.75145L9.53843 7.66745L9.50843 7.72745V7.64345L9.47243 7.70345C9.47243 7.70345 9.46043 7.64345 9.43643 7.63145L9.38843 7.67345L9.18443 7.52345" fill="#016A16"/>
<path d="M9.20843 7.43945C9.37043 7.43945 9.82643 7.61345 9.94043 7.78745C9.91509 7.77406 9.88906 7.76204 9.86243 7.75145L9.84443 7.82345L9.81443 7.75145L9.80843 7.81145C9.79043 7.76345 9.77243 7.76345 9.73643 7.80545L9.72443 7.73945L9.70643 7.79945L9.67643 7.73345C9.67643 7.73345 9.65843 7.80545 9.64643 7.80545C9.64643 7.80545 9.59843 7.67345 9.57443 7.66745L9.56843 7.75145L9.53843 7.66745L9.50843 7.72745V7.64345L9.47243 7.70345C9.47243 7.70345 9.46043 7.64345 9.43643 7.63145L9.38843 7.67345L9.18443 7.52345" stroke="black" stroke-width="0.341334"/>
</g>
<g id="Vector_64">
<path d="M9.1783 7.48047C9.3883 7.55847 9.5803 7.85247 9.5623 7.97247C9.4723 7.85247 9.4903 7.87047 9.4483 8.00847C9.4483 8.00847 9.4363 7.88847 9.4183 7.87647L9.3883 7.96047L9.3823 7.84647H9.3523L9.3583 7.78047L9.3163 7.81047C9.3283 7.76847 9.3343 7.75647 9.2923 7.72047C9.2923 7.72047 9.3523 7.72647 9.3043 7.63047L9.2623 7.66647C9.2623 7.66647 9.2743 7.62447 9.2623 7.60647L9.1063 7.55847" fill="#016A16"/>
<path d="M9.1783 7.48047C9.3883 7.55847 9.5803 7.85247 9.5623 7.97247C9.4723 7.85247 9.4903 7.87047 9.4483 8.00847C9.4483 8.00847 9.4363 7.88847 9.4183 7.87647L9.3883 7.96047L9.3823 7.84647H9.3523L9.3583 7.78047L9.3163 7.81047C9.3283 7.76847 9.3343 7.75647 9.2923 7.72047C9.2923 7.72047 9.3523 7.72647 9.3043 7.63047L9.2623 7.66647C9.2623 7.66647 9.2743 7.62447 9.2623 7.60647L9.1063 7.55847" stroke="black" stroke-width="0.341334"/>
</g>
<g id="Vector_65">
<path d="M9.16068 7.5L9.23868 7.656L9.19668 7.668L9.29268 7.734L9.21468 7.728C9.21468 7.728 9.33468 7.77 9.34668 7.89L9.22668 7.83C9.22668 7.83 9.32868 7.938 9.34668 8.004L9.26868 7.944C9.26868 7.944 9.34068 8.016 9.32868 8.124L9.27468 8.064C9.28668 8.202 9.28668 8.214 9.22668 8.316C9.22668 8.316 9.23868 8.16 9.22668 8.136L9.08868 8.28L9.16068 8.082C9.16068 8.082 9.07668 8.202 9.02868 8.196L9.13668 8.034L9.02868 8.118L9.14868 7.938L9.04068 7.974C9.04068 7.974 9.11868 7.872 9.11268 7.806L9.03468 7.89C9.03468 7.89 9.06468 7.8 9.05868 7.77L9.01668 7.776L9.09468 7.692L9.04068 7.68L9.04668 7.62L9.01068 7.614V7.548M9.07668 7.548C9.20868 7.728 9.14268 7.998 9.22068 8.142Z" fill="#016A16"/>
<path d="M9.16068 7.5L9.23868 7.656L9.19668 7.668L9.29268 7.734L9.21468 7.728C9.21468 7.728 9.33468 7.77 9.34668 7.89L9.22668 7.83C9.22668 7.83 9.32868 7.938 9.34668 8.004L9.26868 7.944C9.26868 7.944 9.34068 8.016 9.32868 8.124L9.27468 8.064C9.28668 8.202 9.28668 8.214 9.22668 8.316C9.22668 8.316 9.23868 8.16 9.22668 8.136L9.08868 8.28L9.16068 8.082C9.16068 8.082 9.07668 8.202 9.02868 8.196L9.13668 8.034L9.02868 8.118L9.14868 7.938L9.04068 7.974C9.04068 7.974 9.11868 7.872 9.11268 7.806L9.03468 7.89C9.03468 7.89 9.06468 7.8 9.05868 7.77L9.01668 7.776L9.09468 7.692L9.04068 7.68L9.04668 7.62L9.01068 7.614V7.548M9.07668 7.548C9.20868 7.728 9.14268 7.998 9.22068 8.142" stroke="black" stroke-width="0.341334"/>
</g>
</g>
<path id="Vector_66" d="M9.05929 9.99024C9.05929 9.99024 9.12529 9.39024 9.12529 9.13824C9.12529 8.93424 9.07729 8.49023 9.07729 8.49023H8.87929C8.87929 8.49023 8.84929 8.93424 8.85529 9.13824C8.85529 9.39024 8.92129 9.99024 8.92129 9.99024H9.05929Z" fill="#F1B517" stroke="black" stroke-width="0.341334"/>
<path id="Vector_67" d="M8.86035 8.51942H9.10035L9.07035 8.35742H8.89635L8.86035 8.51942Z" fill="#F1B517" stroke="black" stroke-width="0.341334"/>
<path id="Vector_68" d="M8.87891 8.38856H9.08891L9.04691 8.22656H8.91491L8.87891 8.38856Z" fill="#F1B517" stroke="black" stroke-width="0.341334"/>
<path id="Vector_69" d="M8.89062 8.26161H9.07063L9.03463 8.09961H8.92063L8.89062 8.26161Z" fill="#F1B517" stroke="black" stroke-width="0.341334"/>
<g id="Vector_70">
<path d="M9.04077 8.08203H8.92077L8.90277 8.14203H9.05277L9.04077 8.08203ZM9.06477 9.86403H8.90877ZM9.07677 9.74403H8.89677ZM9.10077 9.62403H8.87277ZM9.11277 9.49803H8.87277ZM9.11277 9.36603H8.86677ZM9.11877 9.24603H8.85477ZM9.11877 9.14403H8.84277ZM9.11877 9.01203H8.84277ZM9.11277 8.88603H8.84277ZM9.10077 8.75403H8.85477ZM9.08877 8.63403H8.86677Z" fill="#F1B517"/>
<path d="M9.06477 9.86403H8.90877M9.07677 9.74403H8.89677M9.10077 9.62403H8.87277M9.11277 9.49803H8.87277M9.11277 9.36603H8.86677M9.11877 9.24603H8.85477M9.11877 9.14403H8.84277M9.11877 9.01203H8.84277M9.11277 8.88603H8.84277M9.10077 8.75403H8.85477M9.08877 8.63403H8.86677M9.04077 8.08203H8.92077L8.90277 8.14203H9.05277L9.04077 8.08203Z" stroke="black" stroke-width="0.341334"/>
</g>
<path id="Vector_71" d="M8.99885 7.13983C8.95085 7.12183 8.86085 7.06183 8.88485 7.02583L8.92685 6.95383C8.98685 6.82183 8.92685 6.86983 8.92685 6.83383C8.91485 6.78583 9.15485 6.82183 9.15485 6.91183C9.15485 6.94183 9.13685 6.92383 9.14285 7.06783L9.09485 7.15783C9.06039 7.16234 9.02534 7.15821 8.99285 7.14583L8.99885 7.13983Z" fill="#0A328C" stroke="#0A328C" stroke-width="0.341334"/>
<path id="Vector_72" d="M9.02289 7.49953L8.96289 7.44553L8.98089 7.01953L9.04089 7.03753L9.02289 7.49353V7.49953Z" fill="#F1B517" stroke="black" stroke-width="0.341334"/>
<path id="Vector_73" d="M9.10051 7.15727C9.13651 7.13327 9.16051 7.06727 9.13651 7.03127C9.07651 6.95327 9.03451 6.98327 8.93251 6.94727C8.91451 6.97127 8.87251 7.00727 8.87851 7.04327C9.01651 7.10327 8.96251 7.05527 9.01051 7.06127C9.03451 7.06127 9.04651 7.09127 9.10051 7.15127V7.15727Z" fill="#D20014" stroke="#D20014" stroke-width="0.341334"/>
</g>
<g id="Group_4">
<path id="ht-c" d="M8.30891 9.61719C8.29691 9.58719 8.24891 9.56319 8.18891 9.56319C8.12891 9.56319 8.08691 9.58719 8.06891 9.61719C8.06687 9.60932 8.06687 9.60106 8.06891 9.59319C8.06891 9.55119 8.12291 9.52119 8.18891 9.52119C8.26091 9.52119 8.31491 9.55119 8.31491 9.59319C8.31694 9.60106 8.31694 9.60932 8.31491 9.61719H8.30891Z" fill="#016A16" stroke="white" stroke-width="0.341334" stroke-linecap="round"/>
<path id="Vector_74" d="M8.30305 9.70691C8.30305 9.77891 8.24906 9.84491 8.18906 9.84491C8.12905 9.84491 8.08105 9.78491 8.08105 9.70091V9.62891H8.30305V9.70691Z" fill="#016A16" stroke="white" stroke-width="0.341334" stroke-linecap="round"/>
<path id="Vector_75" d="M8.18906 9.65878C8.2487 9.65878 8.29706 9.63461 8.29706 9.60478C8.29706 9.57496 8.2487 9.55078 8.18906 9.55078C8.12941 9.55078 8.08105 9.57496 8.08105 9.60478C8.08105 9.63461 8.12941 9.65878 8.18906 9.65878Z" fill="white"/>
<path id="Vector_76" d="M8.16448 9.6588L8.14648 9.4668H8.23048L8.21848 9.6648H8.16448V9.6588Z" fill="#016A16" stroke="#F1B517" stroke-width="0.341334"/>
<path id="ht-c_2" d="M8.30891 9.60547C8.29691 9.63547 8.24891 9.65947 8.18891 9.65947C8.12891 9.65947 8.08691 9.63547 8.06891 9.60547C8.06687 9.61334 8.06687 9.6216 8.06891 9.62947C8.06891 9.67147 8.12291 9.70147 8.18891 9.70147C8.26091 9.70147 8.31491 9.67147 8.31491 9.62947C8.31694 9.6216 8.31694 9.61334 8.31491 9.60547H8.30891Z" fill="#016A16" stroke="white" stroke-width="0.341334" stroke-linecap="round"/>
<g id="ht-d">
<path id="Vector_77" d="M8.75903 10.3667L8.33903 10.2347L8.15302 9.91672L7.49902 9.88672L7.52302 10.1267L8.08102 10.2287L8.12902 10.3247L8.77103 10.5047L8.75903 10.3667Z" fill="#F1B517" stroke="black" stroke-width="0.341334"/>
<path id="Vector_78" d="M8.32114 10.4568L7.64914 9.4668L7.61914 9.4968L8.27914 10.4808L8.32114 10.4568Z" fill="#503200" stroke="black" stroke-width="0.341334"/>
<path id="Vector_79" d="M7.71452 9.50965L7.64252 9.38965C7.62452 9.36565 7.60652 9.35965 7.57652 9.37765C7.54652 9.38965 7.55252 9.41965 7.56452 9.44365L7.62452 9.55765L7.71452 9.50965Z" fill="white" stroke="black" stroke-width="0.341334"/>
<path id="Vector_80" d="M8.3987 9.84503L7.0487 9.70703L7.0127 9.90503L8.3567 10.043L8.3987 9.84503Z" fill="#F1B517" stroke="black" stroke-width="0.341334"/>
<path id="Vector_81" d="M7.01926 9.66016L6.98926 9.93016H7.04926L7.08526 9.68416L7.01926 9.66016ZM7.24726 9.70216L7.23526 9.94816H7.27126L7.30126 9.73816L7.24726 9.70216ZM8.16526 9.81016L8.12926 10.0382H8.19526L8.22526 9.81016H8.16526ZM8.36326 9.81616L8.32126 10.0802L8.39326 10.0922L8.41726 9.95416C8.41726 9.98416 8.44726 10.0022 8.47726 10.0022C8.51326 10.0022 8.53726 9.97216 8.53726 9.94216C8.53726 9.90616 8.51326 9.88216 8.47726 9.88216C8.46475 9.88113 8.45223 9.88405 8.44147 9.89051C8.43071 9.89696 8.42224 9.90663 8.41726 9.91816L8.43526 9.82216L8.36326 9.81616ZM7.88326 9.85816L7.69126 10.0682L7.71526 10.0922L7.95526 9.93016L7.88326 9.85816ZM7.43926 10.3802L7.62526 10.1702L7.60726 10.1462L7.36726 10.3082L7.43926 10.3802ZM7.92526 10.3262L7.70326 10.1522L7.67926 10.1702L7.85926 10.3982L7.92526 10.3262ZM7.36726 9.92416L7.60126 10.0922L7.62526 10.0742L7.44526 9.84616L7.36726 9.92416ZM7.61926 9.78616L7.64326 10.0622H7.67326L7.74526 9.79216L7.61926 9.78616ZM7.69126 10.4462L7.67326 10.1762H7.63726L7.59526 10.4522L7.69126 10.4462ZM7.99726 10.0862L7.70926 10.1102V10.1402L7.99726 10.1762V10.0862ZM7.31326 10.1762L7.59526 10.1342V10.1102L7.30726 10.0802V10.1762H7.31326Z" fill="#F1B517" stroke="black" stroke-width="0.341334"/>
<path id="Vector_82" d="M7.66101 10.187C7.70409 10.187 7.73901 10.1547 7.73901 10.115C7.73901 10.0752 7.70409 10.043 7.66101 10.043C7.61793 10.043 7.58301 10.0752 7.58301 10.115C7.58301 10.1547 7.61793 10.187 7.66101 10.187Z" fill="#F1B517" stroke="black" stroke-width="0.341334"/>
<path id="Vector_83" fill-rule="evenodd" clip-rule="evenodd" d="M8.06279 10.1166C8.06279 10.3266 7.88279 10.5066 7.66079 10.5066C7.60878 10.5074 7.55713 10.4979 7.50878 10.4788C7.46043 10.4596 7.41633 10.4311 7.379 10.3949C7.34167 10.3587 7.31184 10.3154 7.29122 10.2677C7.27059 10.22 7.25957 10.1686 7.25879 10.1166C7.25879 9.90061 7.43879 9.72661 7.66079 9.72661C7.71279 9.72581 7.76445 9.73527 7.8128 9.75444C7.86115 9.77361 7.90524 9.80212 7.94257 9.83834C7.97991 9.87455 8.00974 9.91777 8.03036 9.96552C8.05099 10.0133 8.06201 10.0646 8.06279 10.1166ZM7.98479 10.1166C7.98401 10.1584 7.97501 10.1996 7.9583 10.2379C7.9416 10.2761 7.91751 10.3108 7.88742 10.3397C7.85734 10.3687 7.82184 10.3915 7.78295 10.4067C7.74406 10.422 7.70255 10.4294 7.66079 10.4286C7.61853 10.4294 7.57653 10.4218 7.53725 10.4061C7.49798 10.3905 7.46221 10.3672 7.43204 10.3376C7.40187 10.308 7.37791 10.2727 7.36156 10.2337C7.3452 10.1947 7.33678 10.1529 7.33679 10.1106C7.33992 10.0273 7.37562 9.94859 7.43622 9.89136C7.49681 9.83413 7.57746 9.80298 7.66079 9.80461C7.70255 9.80381 7.74406 9.81125 7.78295 9.8265C7.82184 9.84175 7.85734 9.86452 7.88742 9.89349C7.91751 9.92246 7.9416 9.95708 7.9583 9.99536C7.97501 10.0336 7.98401 10.0748 7.98479 10.1166Z" fill="#F1B517" stroke="black" stroke-width="0.341334" stroke-linecap="round"/>
<g id="Vector_84">
<path d="M7.40863 9.91856L7.34863 9.87056ZM7.85863 9.87056L7.91863 9.81056ZM7.97863 10.3626L7.91263 10.3086ZM7.40863 10.4226L7.46863 10.3626ZM8.77064 9.72656L8.83664 10.0866L8.78264 10.1106L8.72264 9.73256L8.77064 9.72656Z" fill="#F1B517"/>
<path d="M7.40863 9.91856L7.34863 9.87056M7.85863 9.87056L7.91863 9.81056M7.97863 10.3626L7.91263 10.3086M7.40863 10.4226L7.46863 10.3626M8.77064 9.72656L8.83664 10.0866L8.78264 10.1106L8.72264 9.73256L8.77064 9.72656Z" stroke="black" stroke-width="0.341334"/>
</g>
<path id="Vector_85" d="M8.73525 9.68347C8.70525 9.66547 8.66325 9.68947 8.59125 9.60547C8.47725 9.70747 8.59125 9.72547 8.60325 9.82747C8.63325 9.83947 8.65725 9.74347 8.74125 9.73747L8.87925 9.72547L8.84925 9.68347H8.73525Z" fill="white" stroke="black" stroke-width="0.341334"/>
<path id="Vector_86" d="M8.78294 9.75047L8.77094 9.64847C8.75294 9.60647 8.71094 9.64247 8.71094 9.66047L8.72294 9.76247L8.78294 9.75047Z" fill="white" stroke="black" stroke-width="0.341334"/>
<path id="Vector_87" fill-rule="evenodd" clip-rule="evenodd" d="M8.44722 10.043V10.139C8.41122 10.151 8.41722 10.175 8.41722 10.211V10.493C8.41122 10.517 8.37522 10.517 8.35722 10.529C8.33922 10.547 8.34522 10.577 8.41722 10.589L8.47722 10.595C8.56722 10.577 8.58522 10.547 8.53722 10.535C8.51922 10.523 8.48322 10.511 8.47722 10.499V10.427H8.53722C8.54922 10.427 8.57922 10.391 8.57922 10.361V10.211C8.57922 10.127 8.51922 10.115 8.49522 10.121V10.043H8.44722ZM8.54322 10.205C8.54322 10.181 8.50722 10.157 8.49522 10.157C8.48322 10.157 8.45322 10.187 8.45322 10.211V10.271C8.45322 10.295 8.47122 10.367 8.50722 10.373C8.51922 10.373 8.54322 10.349 8.54322 10.325V10.205Z" fill="#F1B517" stroke="black" stroke-width="0.341334"/>
<g id="Vector_88">
<path d="M8.05666 10.3371C8.01466 10.3251 8.01466 10.4091 8.01466 10.4091H8.07466C8.10466 10.4211 8.12266 10.4571 8.11066 10.4811C8.09266 10.4931 7.97866 10.4511 7.97266 10.4811C7.99066 10.5951 8.14666 10.6371 8.20066 10.5891C8.25466 10.5351 8.26666 10.4091 8.09266 10.3671L8.05666 10.3371ZM8.09266 10.3731L8.07466 10.4091Z" fill="white"/>
<path d="M8.07466 10.4091H8.01466C8.01466 10.4091 8.01466 10.3251 8.05666 10.3371L8.09266 10.3671C8.26666 10.4091 8.25466 10.5351 8.20066 10.5891C8.14666 10.6371 7.99066 10.5951 7.97266 10.4811C7.97866 10.4511 8.09266 10.4931 8.11066 10.4811C8.12266 10.4571 8.10466 10.4211 8.07466 10.4091ZM8.07466 10.4091L8.09266 10.3731" stroke="black" stroke-width="0.341334"/>
</g>
<g id="Vector_89">
<path d="M6.89901 10.3788L6.83901 10.1388ZM6.96501 10.3668L6.87501 10.1808ZM7.11501 10.3188L6.91701 10.2108ZM7.20501 10.2948L6.83301 10.1328Z" fill="#F1B517"/>
<path d="M6.89901 10.3788L6.83901 10.1388M6.96501 10.3668L6.87501 10.1808M7.11501 10.3188L6.91701 10.2108M7.20501 10.2948L6.83301 10.1328" stroke="black" stroke-width="0.341334"/>
</g>
<path id="Vector_90" d="M6.61093 9.95942L6.45493 9.96542C6.44293 9.97142 6.48493 10.0194 6.47893 10.0314C6.44293 10.0974 6.21493 10.0914 6.19693 10.0794C6.16693 10.0494 6.40693 10.0314 6.41293 10.0194C6.41293 9.99542 6.37693 9.94742 6.38293 9.91742C6.38293 9.87542 6.48493 9.85742 6.48493 9.85742L6.61093 9.95942Z" fill="#D20014" stroke="#D20014" stroke-width="0.341334"/>
<path id="Vector_91" d="M6.79139 10.0796L6.49139 9.8276C6.49139 9.8276 6.47339 9.8156 6.46139 9.8276C6.44939 9.8396 6.46139 9.8516 6.46139 9.8516L6.78539 10.1156L6.79139 10.0856V10.0796Z" fill="#503200" stroke="black" stroke-width="0.341334"/>
<path id="Vector_92" d="M7.09131 10.3307L6.8393 10.1147L6.8213 10.0547L6.7733 10.0907C6.7553 10.1027 6.7373 10.1387 6.7373 10.1387H6.8033L7.01931 10.3427L7.08531 10.3307H7.09131Z" fill="#F1B517" stroke="black" stroke-width="0.341334"/>
<path id="Vector_93" d="M7.94923 10.668C7.97242 10.668 7.99123 10.6492 7.99123 10.626C7.99123 10.6028 7.97242 10.584 7.94923 10.584C7.92603 10.584 7.90723 10.6028 7.90723 10.626C7.90723 10.6492 7.92603 10.668 7.94923 10.668Z" fill="#F1B517" stroke="black" stroke-width="0.341334"/>
<path id="Vector_94" d="M7.83497 10.584C7.85817 10.584 7.87697 10.5652 7.87697 10.542C7.87697 10.5188 7.85817 10.5 7.83497 10.5C7.81177 10.5 7.79297 10.5188 7.79297 10.542C7.79297 10.5652 7.81177 10.584 7.83497 10.584Z" fill="#F1B517" stroke="black" stroke-width="0.341334"/>
<path id="Vector_95" d="M7.68458 10.6367C7.70777 10.6367 7.72658 10.6179 7.72658 10.5947C7.72658 10.5715 7.70777 10.5527 7.68458 10.5527C7.66138 10.5527 7.64258 10.5715 7.64258 10.5947C7.64258 10.6179 7.66138 10.6367 7.68458 10.6367Z" fill="#F1B517" stroke="black" stroke-width="0.341334"/>
<path id="Vector_96" d="M7.45118 10.6856C7.47438 10.6856 7.49318 10.6668 7.49318 10.6436C7.49318 10.6204 7.47438 10.6016 7.45118 10.6016C7.42798 10.6016 7.40918 10.6204 7.40918 10.6436C7.40918 10.6668 7.42798 10.6856 7.45118 10.6856Z" fill="#F1B517" stroke="black" stroke-width="0.341334"/>
<path id="Vector_97" d="M7.34864 10.6973C7.37184 10.6973 7.39064 10.6785 7.39064 10.6553C7.39064 10.6321 7.37184 10.6133 7.34864 10.6133C7.32544 10.6133 7.30664 10.6321 7.30664 10.6553C7.30664 10.6785 7.32544 10.6973 7.34864 10.6973Z" fill="#F1B517" stroke="black" stroke-width="0.341334"/>
<path id="Vector_98" d="M7.24708 10.6973C7.27027 10.6973 7.28908 10.6785 7.28908 10.6553C7.28908 10.6321 7.27027 10.6133 7.24708 10.6133C7.22388 10.6133 7.20508 10.6321 7.20508 10.6553C7.20508 10.6785 7.22388 10.6973 7.24708 10.6973Z" fill="#F1B517" stroke="black" stroke-width="0.341334"/>
<path id="Vector_99" d="M7.15137 10.6973C7.17457 10.6973 7.19337 10.6785 7.19337 10.6553C7.19337 10.6321 7.17457 10.6133 7.15137 10.6133C7.12818 10.6133 7.10938 10.6321 7.10938 10.6553C7.10938 10.6785 7.12818 10.6973 7.15137 10.6973Z" fill="#F1B517" stroke="black" stroke-width="0.341334"/>
<path id="Vector_100" d="M7.19923 10.6192C7.22242 10.6192 7.24123 10.6004 7.24123 10.5772C7.24123 10.554 7.22242 10.5352 7.19923 10.5352C7.17603 10.5352 7.15723 10.554 7.15723 10.5772C7.15723 10.6004 7.17603 10.6192 7.19923 10.6192Z" fill="#F1B517" stroke="black" stroke-width="0.341334"/>
<path id="Vector_101" d="M7.29493 10.625C7.31813 10.625 7.33693 10.6062 7.33693 10.583C7.33693 10.5598 7.31813 10.541 7.29493 10.541C7.27173 10.541 7.25293 10.5598 7.25293 10.583C7.25293 10.6062 7.27173 10.625 7.29493 10.625Z" fill="#F1B517" stroke="black" stroke-width="0.341334"/>
<path id="Vector_102" d="M7.38477 10.6133C7.40797 10.6133 7.42677 10.5945 7.42677 10.5713C7.42677 10.5481 7.40797 10.5293 7.38477 10.5293C7.36158 10.5293 7.34277 10.5481 7.34277 10.5713C7.34277 10.5945 7.36158 10.6133 7.38477 10.6133Z" fill="#F1B517" stroke="black" stroke-width="0.341334"/>
<path id="Vector_103" d="M7.34278 10.541C7.36598 10.541 7.38478 10.5222 7.38478 10.499C7.38478 10.4758 7.36598 10.457 7.34278 10.457C7.31959 10.457 7.30078 10.4758 7.30078 10.499C7.30078 10.5222 7.31959 10.541 7.34278 10.541Z" fill="#F1B517" stroke="black" stroke-width="0.341334"/>
<path id="Vector_104" d="M7.24708 10.5352C7.27027 10.5352 7.28908 10.5164 7.28908 10.4932C7.28908 10.47 7.27027 10.4512 7.24708 10.4512C7.22388 10.4512 7.20508 10.47 7.20508 10.4932C7.20508 10.5164 7.22388 10.5352 7.24708 10.5352Z" fill="#F1B517" stroke="black" stroke-width="0.341334"/>
<path id="Vector_105" fill-rule="evenodd" clip-rule="evenodd" d="M8.18863 10.6787C8.18863 10.6607 8.14062 10.6667 8.14062 10.6427C8.14062 10.6187 8.21263 10.6427 8.21863 10.6607C8.26063 10.6247 8.27863 10.6487 8.30263 10.6607C8.33863 10.6127 8.38063 10.6127 8.42263 10.6487C8.44663 10.6247 8.50663 10.6307 8.52463 10.6607C8.56663 10.6247 8.60263 10.6307 8.62663 10.6607C8.63863 10.6427 8.65663 10.6427 8.66863 10.6607C8.68663 10.6187 8.74063 10.6307 8.76463 10.6607C8.78263 10.6367 8.80663 10.6547 8.83063 10.6667C8.84863 10.6547 8.87863 10.6547 8.87863 10.6667C8.87863 10.6907 8.84263 10.6847 8.84263 10.7027C8.84263 10.7147 8.86663 10.7027 8.86663 10.7267C8.86663 10.7447 8.83063 10.7507 8.82463 10.7267C8.80663 10.7507 8.75863 10.7387 8.75263 10.7147C8.74812 10.7198 8.74258 10.7239 8.73638 10.7267C8.73017 10.7295 8.72344 10.731 8.71663 10.731C8.70982 10.731 8.70308 10.7295 8.69688 10.7267C8.69067 10.7239 8.68513 10.7198 8.68063 10.7147C8.66263 10.7267 8.63863 10.7267 8.63263 10.7147C8.60263 10.7447 8.54863 10.7387 8.53063 10.7027H8.51263C8.507 10.7091 8.50007 10.7142 8.49231 10.7177C8.48455 10.7212 8.47614 10.723 8.46763 10.723C8.45911 10.723 8.4507 10.7212 8.44294 10.7177C8.43518 10.7142 8.42826 10.7091 8.42263 10.7027C8.36863 10.7387 8.33863 10.7267 8.30863 10.7027C8.27863 10.7447 8.22463 10.7447 8.21863 10.7027C8.19463 10.7207 8.14663 10.7267 8.14663 10.7027C8.14663 10.6907 8.18863 10.6967 8.18863 10.6787ZM8.28463 10.6847C8.28463 10.6967 8.27263 10.7027 8.26063 10.7027C8.24863 10.7027 8.23663 10.6967 8.23663 10.6847C8.23663 10.6727 8.24263 10.6727 8.26063 10.6727C8.27863 10.6727 8.28463 10.6787 8.28463 10.6847ZM8.39863 10.6727C8.39863 10.6847 8.38063 10.6907 8.36263 10.6907C8.34463 10.6907 8.33263 10.6847 8.33263 10.6727C8.33263 10.6667 8.34463 10.6547 8.36263 10.6547C8.38063 10.6547 8.39263 10.6667 8.39263 10.6727H8.39863ZM8.60863 10.6847C8.60863 10.6967 8.59663 10.7027 8.57863 10.7027C8.56063 10.7027 8.55463 10.6967 8.55463 10.6847C8.55463 10.6787 8.56663 10.6667 8.57863 10.6667C8.59063 10.6667 8.60863 10.6727 8.60863 10.6847ZM8.49463 10.6847C8.49463 10.6967 8.48263 10.7027 8.46463 10.7027C8.44663 10.7027 8.44063 10.6967 8.44063 10.6787C8.44063 10.6667 8.45263 10.6547 8.46463 10.6547C8.47663 10.6547 8.49463 10.6667 8.49463 10.6787V10.6847ZM8.73463 10.6847C8.73463 10.6907 8.72863 10.7027 8.71663 10.7027C8.69863 10.7027 8.68663 10.6907 8.68663 10.6787C8.68663 10.6667 8.69863 10.6607 8.71663 10.6607C8.72863 10.6607 8.74063 10.6667 8.74063 10.6787L8.73463 10.6847ZM8.66263 10.6847C8.66263 10.6967 8.66263 10.7027 8.65063 10.7027C8.63863 10.7027 8.63263 10.6967 8.63263 10.6847C8.63263 10.6727 8.63863 10.6727 8.65063 10.6727L8.66263 10.6847ZM8.80663 10.6907C8.80663 10.7027 8.80663 10.7147 8.78863 10.7147C8.78263 10.7147 8.77063 10.7027 8.77063 10.6907C8.77063 10.6787 8.78263 10.6727 8.78863 10.6727C8.80063 10.6727 8.80663 10.6787 8.80663 10.6907Z" fill="#F1B517" stroke="black" stroke-width="0.341334"/>
</g>
<g id="ht-d_2">
<path id="Vector_106" d="M9.23316 10.3667L9.65316 10.2347L9.83916 9.91672L10.4932 9.88672L10.4692 10.1267L9.91116 10.2287L9.86316 10.3247L9.22116 10.5047L9.23316 10.3667Z" fill="#F1B517" stroke="black" stroke-width="0.341334"/>
<path id="Vector_107" d="M9.67105 10.4568L10.343 9.4668L10.373 9.4968L9.71305 10.4808L9.67105 10.4568Z" fill="#503200" stroke="black" stroke-width="0.341334"/>
<path id="Vector_108" d="M10.2777 9.50965L10.3497 9.38965C10.3677 9.36565 10.3857 9.35965 10.4157 9.37765C10.4457 9.38965 10.4397 9.41965 10.4277 9.44365L10.3677 9.55765L10.2777 9.50965Z" fill="white" stroke="black" stroke-width="0.341334"/>
<path id="Vector_109" d="M9.59349 9.84503L10.9435 9.70703L10.9795 9.90503L9.63549 10.043L9.59349 9.84503Z" fill="#F1B517" stroke="black" stroke-width="0.341334"/>
<path id="Vector_110" d="M10.9729 9.66016L11.0029 9.93016H10.9429L10.9069 9.68416L10.9729 9.66016ZM10.7449 9.70216L10.7569 9.94816H10.7209L10.6909 9.73816L10.7449 9.70216ZM9.82693 9.81016L9.86293 10.0382H9.79693L9.76693 9.81016H9.82693ZM9.62893 9.81616L9.67093 10.0802L9.59893 10.0922L9.57493 9.95416C9.57493 9.98416 9.54493 10.0022 9.51493 10.0022C9.47893 10.0022 9.45493 9.97216 9.45493 9.94216C9.45493 9.90616 9.47893 9.88216 9.51493 9.88216C9.52744 9.88113 9.53995 9.88405 9.55072 9.89051C9.56148 9.89696 9.56995 9.90663 9.57493 9.91816L9.55693 9.82216L9.62893 9.81616ZM10.1089 9.85816L10.3009 10.0682L10.2769 10.0922L10.0369 9.93016L10.1089 9.85816ZM10.5529 10.3802L10.3669 10.1702L10.3849 10.1462L10.6249 10.3082L10.5529 10.3802ZM10.0669 10.3262L10.2889 10.1522L10.3129 10.1702L10.1329 10.3982L10.0669 10.3262ZM10.6249 9.92416L10.3909 10.0922L10.3669 10.0742L10.5469 9.84616L10.6249 9.92416ZM10.3729 9.78616L10.3489 10.0622H10.3189L10.2469 9.79216L10.3729 9.78616ZM10.3009 10.4462L10.3189 10.1762H10.3549L10.3969 10.4522L10.3009 10.4462ZM9.99493 10.0862L10.2829 10.1102V10.1402L9.99493 10.1762V10.0862ZM10.6789 10.1762L10.3969 10.1342V10.1102L10.6849 10.0802V10.1762H10.6789Z" fill="#F1B517" stroke="black" stroke-width="0.341334"/>
<path id="Vector_111" d="M10.3312 10.187C10.2881 10.187 10.2532 10.1547 10.2532 10.115C10.2532 10.0752 10.2881 10.043 10.3312 10.043C10.3743 10.043 10.4092 10.0752 10.4092 10.115C10.4092 10.1547 10.3743 10.187 10.3312 10.187Z" fill="#F1B517" stroke="black" stroke-width="0.341334"/>
<path id="Vector_112" fill-rule="evenodd" clip-rule="evenodd" d="M9.9294 10.1166C9.9294 10.3266 10.1094 10.5066 10.3314 10.5066C10.3834 10.5074 10.4351 10.4979 10.4834 10.4788C10.5318 10.4596 10.5759 10.4311 10.6132 10.3949C10.6505 10.3587 10.6803 10.3154 10.701 10.2677C10.7216 10.22 10.7326 10.1686 10.7334 10.1166C10.7334 9.90061 10.5534 9.72661 10.3314 9.72661C10.2794 9.72581 10.2277 9.73527 10.1794 9.75444C10.131 9.77361 10.0869 9.80212 10.0496 9.83834C10.0123 9.87455 9.98245 9.91777 9.96182 9.96552C9.9412 10.0133 9.93018 10.0646 9.9294 10.1166ZM10.0074 10.1166C10.0082 10.1584 10.0172 10.1996 10.0339 10.2379C10.0506 10.2761 10.0747 10.3108 10.1048 10.3397C10.1349 10.3687 10.1704 10.3915 10.2092 10.4067C10.2481 10.422 10.2896 10.4294 10.3314 10.4286C10.3737 10.4294 10.4157 10.4218 10.4549 10.4061C10.4942 10.3905 10.53 10.3672 10.5601 10.3376C10.5903 10.308 10.6143 10.2727 10.6306 10.2337C10.647 10.1947 10.6554 10.1529 10.6554 10.1106C10.6523 10.0273 10.6166 9.94859 10.556 9.89136C10.4954 9.83413 10.4147 9.80298 10.3314 9.80461C10.2896 9.80381 10.2481 9.81125 10.2092 9.8265C10.1704 9.84175 10.1349 9.86452 10.1048 9.89349C10.0747 9.92246 10.0506 9.95708 10.0339 9.99536C10.0172 10.0336 10.0082 10.0748 10.0074 10.1166Z" fill="#F1B517" stroke="black" stroke-width="0.341334" stroke-linecap="round"/>
<g id="Vector_113">
<path d="M10.5836 9.91856L10.6436 9.87056ZM10.1336 9.87056L10.0736 9.81056ZM10.0136 10.3626L10.0796 10.3086ZM10.5836 10.4226L10.5236 10.3626ZM9.22155 9.72656L9.15555 10.0866L9.20955 10.1106L9.26955 9.73256L9.22155 9.72656Z" fill="#F1B517"/>
<path d="M10.5836 9.91856L10.6436 9.87056M10.1336 9.87056L10.0736 9.81056M10.0136 10.3626L10.0796 10.3086M10.5836 10.4226L10.5236 10.3626M9.22155 9.72656L9.15555 10.0866L9.20955 10.1106L9.26955 9.73256L9.22155 9.72656Z" stroke="black" stroke-width="0.341334"/>
</g>
<path id="Vector_114" d="M9.25694 9.68347C9.28694 9.66547 9.32894 9.68947 9.40094 9.60547C9.51494 9.70747 9.40094 9.72547 9.38894 9.82747C9.35894 9.83947 9.33494 9.74347 9.25094 9.73747L9.11294 9.72547L9.14294 9.68347H9.25694Z" fill="white" stroke="black" stroke-width="0.341334"/>
<path id="Vector_115" d="M9.20925 9.75047L9.22125 9.64847C9.23925 9.60647 9.28125 9.64247 9.28125 9.66047L9.26925 9.76247L9.20925 9.75047Z" fill="white" stroke="black" stroke-width="0.341334"/>
<path id="Vector_116" fill-rule="evenodd" clip-rule="evenodd" d="M9.54497 10.043V10.139C9.58097 10.151 9.57497 10.175 9.57497 10.211V10.493C9.58097 10.517 9.61697 10.517 9.63497 10.529C9.65297 10.547 9.64697 10.577 9.57497 10.589L9.51497 10.595C9.42497 10.577 9.40697 10.547 9.45497 10.535C9.47297 10.523 9.50897 10.511 9.51497 10.499V10.427H9.45497C9.44297 10.427 9.41297 10.391 9.41297 10.361V10.211C9.41297 10.127 9.47297 10.115 9.49697 10.121V10.043H9.54497ZM9.44897 10.205C9.44897 10.181 9.48497 10.157 9.49697 10.157C9.50897 10.157 9.53897 10.187 9.53897 10.211V10.271C9.53897 10.295 9.52097 10.367 9.48497 10.373C9.47297 10.373 9.44897 10.349 9.44897 10.325V10.205Z" fill="#F1B517" stroke="black" stroke-width="0.341334"/>
<g id="Vector_117">
<path d="M9.93553 10.3371C9.97753 10.3251 9.97753 10.4091 9.97753 10.4091H9.91753C9.88753 10.4211 9.86953 10.4571 9.88153 10.4811C9.89953 10.4931 10.0135 10.4511 10.0195 10.4811C10.0015 10.5951 9.84553 10.6371 9.79153 10.5891C9.73753 10.5351 9.72553 10.4091 9.89953 10.3671L9.93553 10.3371ZM9.89953 10.3731L9.91753 10.4091Z" fill="white"/>
<path d="M9.91753 10.4091H9.97753C9.97753 10.4091 9.97753 10.3251 9.93553 10.3371L9.89953 10.3671C9.72553 10.4091 9.73753 10.5351 9.79153 10.5891C9.84553 10.6371 10.0015 10.5951 10.0195 10.4811C10.0135 10.4511 9.89953 10.4931 9.88153 10.4811C9.86953 10.4571 9.88753 10.4211 9.91753 10.4091ZM9.91753 10.4091L9.89953 10.3731" stroke="black" stroke-width="0.341334"/>
</g>
<g id="Vector_118">
<path d="M11.0932 10.3788L11.1532 10.1388ZM11.0272 10.3668L11.1172 10.1808ZM10.8772 10.3188L11.0752 10.2108ZM10.7872 10.2948L11.1592 10.1328Z" fill="#F1B517"/>
<path d="M11.0932 10.3788L11.1532 10.1388M11.0272 10.3668L11.1172 10.1808M10.8772 10.3188L11.0752 10.2108M10.7872 10.2948L11.1592 10.1328" stroke="black" stroke-width="0.341334"/>
</g>
<path id="Vector_119" d="M11.3813 9.95942L11.5373 9.96542C11.5493 9.97142 11.5073 10.0194 11.5133 10.0314C11.5493 10.0974 11.7773 10.0914 11.7953 10.0794C11.8253 10.0494 11.5853 10.0314 11.5793 10.0194C11.5793 9.99542 11.6153 9.94742 11.6093 9.91742C11.6093 9.87542 11.5073 9.85742 11.5073 9.85742L11.3813 9.95942Z" fill="#D20014" stroke="#D20014" stroke-width="0.341334"/>
<path id="Vector_120" d="M11.2008 10.0796L11.5008 9.8276C11.5008 9.8276 11.5188 9.8156 11.5308 9.8276C11.5428 9.8396 11.5308 9.8516 11.5308 9.8516L11.2068 10.1156L11.2008 10.0856V10.0796Z" fill="#503200" stroke="black" stroke-width="0.341334"/>
<path id="Vector_121" d="M10.9009 10.3307L11.1529 10.1147L11.1709 10.0547L11.2189 10.0907C11.2369 10.1027 11.2549 10.1387 11.2549 10.1387H11.1889L10.9729 10.3427L10.9069 10.3307H10.9009Z" fill="#F1B517" stroke="black" stroke-width="0.341334"/>
<path id="Vector_122" d="M10.043 10.668C10.0198 10.668 10.001 10.6492 10.001 10.626C10.001 10.6028 10.0198 10.584 10.043 10.584C10.0662 10.584 10.085 10.6028 10.085 10.626C10.085 10.6492 10.0662 10.668 10.043 10.668Z" fill="#F1B517" stroke="black" stroke-width="0.341334"/>
<path id="Vector_123" d="M10.1572 10.584C10.134 10.584 10.1152 10.5652 10.1152 10.542C10.1152 10.5188 10.134 10.5 10.1572 10.5C10.1804 10.5 10.1992 10.5188 10.1992 10.542C10.1992 10.5652 10.1804 10.584 10.1572 10.584Z" fill="#F1B517" stroke="black" stroke-width="0.341334"/>
<path id="Vector_124" d="M10.3076 10.6367C10.2844 10.6367 10.2656 10.6179 10.2656 10.5947C10.2656 10.5715 10.2844 10.5527 10.3076 10.5527C10.3308 10.5527 10.3496 10.5715 10.3496 10.5947C10.3496 10.6179 10.3308 10.6367 10.3076 10.6367Z" fill="#F1B517" stroke="black" stroke-width="0.341334"/>
<path id="Vector_125" d="M10.541 10.6856C10.5178 10.6856 10.499 10.6668 10.499 10.6436C10.499 10.6204 10.5178 10.6016 10.541 10.6016C10.5642 10.6016 10.583 10.6204 10.583 10.6436C10.583 10.6668 10.5642 10.6856 10.541 10.6856Z" fill="#F1B517" stroke="black" stroke-width="0.341334"/>
<path id="Vector_126" d="M10.6435 10.6973C10.6204 10.6973 10.6015 10.6785 10.6015 10.6553C10.6015 10.6321 10.6204 10.6133 10.6435 10.6133C10.6667 10.6133 10.6855 10.6321 10.6855 10.6553C10.6855 10.6785 10.6667 10.6973 10.6435 10.6973Z" fill="#F1B517" stroke="black" stroke-width="0.341334"/>
<path id="Vector_127" d="M10.7451 10.6973C10.7219 10.6973 10.7031 10.6785 10.7031 10.6553C10.7031 10.6321 10.7219 10.6133 10.7451 10.6133C10.7683 10.6133 10.7871 10.6321 10.7871 10.6553C10.7871 10.6785 10.7683 10.6973 10.7451 10.6973Z" fill="#F1B517" stroke="black" stroke-width="0.341334"/>
<path id="Vector_128" d="M10.8408 10.6973C10.8176 10.6973 10.7988 10.6785 10.7988 10.6553C10.7988 10.6321 10.8176 10.6133 10.8408 10.6133C10.864 10.6133 10.8828 10.6321 10.8828 10.6553C10.8828 10.6785 10.864 10.6973 10.8408 10.6973Z" fill="#F1B517" stroke="black" stroke-width="0.341334"/>
<path id="Vector_129" d="M10.793 10.6192C10.7698 10.6192 10.751 10.6004 10.751 10.5772C10.751 10.554 10.7698 10.5352 10.793 10.5352C10.8162 10.5352 10.835 10.554 10.835 10.5772C10.835 10.6004 10.8162 10.6192 10.793 10.6192Z" fill="#F1B517" stroke="black" stroke-width="0.341334"/>
<path id="Vector_130" d="M10.6973 10.625C10.6741 10.625 10.6553 10.6062 10.6553 10.583C10.6553 10.5598 10.6741 10.541 10.6973 10.541C10.7205 10.541 10.7393 10.5598 10.7393 10.583C10.7393 10.6062 10.7205 10.625 10.6973 10.625Z" fill="#F1B517" stroke="black" stroke-width="0.341334"/>
<path id="Vector_131" d="M10.6074 10.6133C10.5842 10.6133 10.5654 10.5945 10.5654 10.5713C10.5654 10.5481 10.5842 10.5293 10.6074 10.5293C10.6306 10.5293 10.6494 10.5481 10.6494 10.5713C10.6494 10.5945 10.6306 10.6133 10.6074 10.6133Z" fill="#F1B517" stroke="black" stroke-width="0.341334"/>
<path id="Vector_132" d="M10.6494 10.541C10.6262 10.541 10.6074 10.5222 10.6074 10.499C10.6074 10.4758 10.6262 10.457 10.6494 10.457C10.6726 10.457 10.6914 10.4758 10.6914 10.499C10.6914 10.5222 10.6726 10.541 10.6494 10.541Z" fill="#F1B517" stroke="black" stroke-width="0.341334"/>
<path id="Vector_133" d="M10.7451 10.5352C10.7219 10.5352 10.7031 10.5164 10.7031 10.4932C10.7031 10.47 10.7219 10.4512 10.7451 10.4512C10.7683 10.4512 10.7871 10.47 10.7871 10.4932C10.7871 10.5164 10.7683 10.5352 10.7451 10.5352Z" fill="#F1B517" stroke="black" stroke-width="0.341334"/>
<path id="Vector_134" fill-rule="evenodd" clip-rule="evenodd" d="M9.80356 10.6787C9.80356 10.6607 9.85156 10.6667 9.85156 10.6427C9.85156 10.6187 9.77956 10.6427 9.77356 10.6607C9.73156 10.6247 9.71356 10.6487 9.68956 10.6607C9.65356 10.6127 9.61156 10.6127 9.56956 10.6487C9.54556 10.6247 9.48556 10.6307 9.46756 10.6607C9.42556 10.6247 9.38956 10.6307 9.36556 10.6607C9.35356 10.6427 9.33556 10.6427 9.32356 10.6607C9.30556 10.6187 9.25156 10.6307 9.22756 10.6607C9.20956 10.6367 9.18556 10.6547 9.16156 10.6667C9.14356 10.6547 9.11356 10.6547 9.11356 10.6667C9.11356 10.6907 9.14956 10.6847 9.14956 10.7027C9.14956 10.7147 9.12556 10.7027 9.12556 10.7267C9.12556 10.7447 9.16156 10.7507 9.16756 10.7267C9.18556 10.7507 9.23356 10.7387 9.23956 10.7147C9.24407 10.7198 9.24961 10.7239 9.25581 10.7267C9.26202 10.7295 9.26875 10.731 9.27556 10.731C9.28237 10.731 9.2891 10.7295 9.29531 10.7267C9.30152 10.7239 9.30706 10.7198 9.31156 10.7147C9.32956 10.7267 9.35356 10.7267 9.35956 10.7147C9.38956 10.7447 9.44356 10.7387 9.46156 10.7027H9.47956C9.48519 10.7091 9.49212 10.7142 9.49988 10.7177C9.50763 10.7212 9.51605 10.723 9.52456 10.723C9.53307 10.723 9.54149 10.7212 9.54925 10.7177C9.55701 10.7142 9.56393 10.7091 9.56956 10.7027C9.62356 10.7387 9.65356 10.7267 9.68356 10.7027C9.71356 10.7447 9.76756 10.7447 9.77356 10.7027C9.79756 10.7207 9.84556 10.7267 9.84556 10.7027C9.84556 10.6907 9.80356 10.6967 9.80356 10.6787ZM9.70756 10.6847C9.70756 10.6967 9.71956 10.7027 9.73156 10.7027C9.74356 10.7027 9.75556 10.6967 9.75556 10.6847C9.75556 10.6727 9.74956 10.6727 9.73156 10.6727C9.71356 10.6727 9.70756 10.6787 9.70756 10.6847ZM9.59356 10.6727C9.59356 10.6847 9.61156 10.6907 9.62956 10.6907C9.64756 10.6907 9.65956 10.6847 9.65956 10.6727C9.65956 10.6667 9.64756 10.6547 9.62956 10.6547C9.61156 10.6547 9.59956 10.6667 9.59956 10.6727H9.59356ZM9.38356 10.6847C9.38356 10.6967 9.39556 10.7027 9.41356 10.7027C9.43156 10.7027 9.43756 10.6967 9.43756 10.6847C9.43756 10.6787 9.42556 10.6667 9.41356 10.6667C9.40156 10.6667 9.38356 10.6727 9.38356 10.6847ZM9.49756 10.6847C9.49756 10.6967 9.50956 10.7027 9.52756 10.7027C9.54556 10.7027 9.55156 10.6967 9.55156 10.6787C9.55156 10.6667 9.53956 10.6547 9.52756 10.6547C9.51556 10.6547 9.49756 10.6667 9.49756 10.6787V10.6847ZM9.25756 10.6847C9.25756 10.6907 9.26356 10.7027 9.27556 10.7027C9.29356 10.7027 9.30556 10.6907 9.30556 10.6787C9.30556 10.6667 9.29356 10.6607 9.27556 10.6607C9.26356 10.6607 9.25156 10.6667 9.25156 10.6787L9.25756 10.6847ZM9.32956 10.6847C9.32956 10.6967 9.32956 10.7027 9.34156 10.7027C9.35356 10.7027 9.35956 10.6967 9.35956 10.6847C9.35956 10.6727 9.35356 10.6727 9.34156 10.6727L9.32956 10.6847ZM9.18556 10.6907C9.18556 10.7027 9.18556 10.7147 9.20356 10.7147C9.20956 10.7147 9.22156 10.7027 9.22156 10.6907C9.22156 10.6787 9.20956 10.6727 9.20356 10.6727C9.19156 10.6727 9.18556 10.6787 9.18556 10.6907Z" fill="#F1B517" stroke="black" stroke-width="0.341334"/>
</g>
<path id="Vector_135" d="M8.9868 9.94141C8.8368 9.94141 8.7168 10.0014 8.7168 10.0674C8.7168 10.0794 8.7168 10.0914 8.7288 10.1034C8.7588 10.1394 8.8668 10.1634 8.9928 10.1634C9.1128 10.1634 9.2088 10.1454 9.2448 10.1094C9.2568 10.0974 9.2628 10.0854 9.2628 10.0674C9.2628 10.0014 9.1428 9.94741 8.9868 9.94741V9.94141Z" fill="#0A328C" stroke="#0A328C" stroke-width="0.341334"/>
<path id="Vector_136" d="M9.2628 10.0801V10.5001C9.2628 10.5541 9.1428 10.5901 8.9928 10.5901C8.8428 10.5901 8.7168 10.5541 8.7168 10.5001V10.0801C8.7168 10.1281 8.8368 10.1701 8.9868 10.1701C9.1428 10.1701 9.2628 10.1281 9.2628 10.0801Z" fill="#F1B517" stroke="black" stroke-width="0.341334"/>
<path id="Vector_137" d="M8.7168 10.0801V10.1401L8.8488 10.5601L8.9568 10.2361L9.0768 10.5661L9.1548 10.2541L9.2628 10.4641V10.3501L9.1668 10.1461C9.15495 10.1505 9.14295 10.1545 9.1308 10.1581L9.0708 10.3861L8.9808 10.1701C8.9668 10.1704 8.9528 10.1704 8.9388 10.1701L8.8488 10.3861L8.7528 10.1221C8.7288 10.1101 8.7168 10.0921 8.7168 10.0801Z" fill="#D20014" stroke="#D20014" stroke-width="0.341334"/>
<path id="Vector_138" d="M9.2628 10.4219V10.4999C9.2628 10.5539 9.1428 10.5899 8.9928 10.5899C8.8428 10.5899 8.7168 10.5539 8.7168 10.4999V10.4219C8.7168 10.4759 8.8368 10.5119 8.9868 10.5119C9.1428 10.5119 9.2628 10.4759 9.2628 10.4219Z" fill="#0A328C" stroke="#0A328C" stroke-width="0.341334"/>
<path id="Vector_139" d="M9.1008 10.4999L9.0348 10.5119V10.5899L9.1068 10.5839L9.1008 10.4999ZM8.8128 10.4939V10.5719L8.8788 10.5839V10.5059C8.85657 10.5033 8.83452 10.4993 8.8128 10.4939ZM8.7168 10.4219V10.4999C8.7168 10.5179 8.7288 10.5299 8.7468 10.5419V10.4639C8.7288 10.4519 8.7168 10.4399 8.7168 10.4219ZM9.2628 10.4339C9.2628 10.4459 9.2388 10.4639 9.2148 10.4759V10.5539C9.2448 10.5419 9.2628 10.5239 9.2628 10.4999V10.4339Z" fill="#F1B517" stroke="black" stroke-width="0.341334"/>
<path id="Vector_140" d="M9.2628 10.0801V10.5001C9.2628 10.5541 9.1428 10.5901 8.9928 10.5901C8.8428 10.5901 8.7168 10.5541 8.7168 10.5001V10.0801" stroke="black" stroke-width="0.341334"/>
<path id="Vector_141" d="M9.20334 10.0501C9.20334 10.0801 9.10734 10.1101 8.99334 10.1101C8.87334 10.1101 8.77734 10.0801 8.77734 10.0501C8.77734 10.0201 8.87334 9.99609 8.98734 9.99609C9.10734 9.99609 9.20334 10.0201 9.20334 10.0561V10.0501Z" fill="white" stroke="white" stroke-width="0.341334"/>
<path id="Vector_142" d="M8.92094 10.0916L8.93294 10.1636H8.99294L8.99894 10.0916H8.92094ZM9.16694 10.0736L9.10694 10.0856L9.11294 10.1576L9.17294 10.1456L9.16694 10.0736ZM8.84294 9.95361L8.80094 9.97161L8.80694 10.0316L8.84294 10.0196V9.95361ZM8.98694 9.93561H8.96894L8.98094 10.0076H9.01694L9.02894 9.93561C9.01494 9.93511 9.00093 9.93511 8.98694 9.93561ZM9.14894 9.95961L9.14294 10.0196L9.18494 10.0376V9.97761C9.17333 9.97086 9.16131 9.96484 9.14894 9.95961ZM8.75894 10.1276L8.77094 10.0496L8.71094 10.0196V10.1096L8.75894 10.1276ZM9.26294 10.1096V10.0316L9.21494 10.0496L9.26294 10.1096ZM9.82094 9.59961C9.86894 9.59961 9.94094 9.65961 9.94694 9.74961C9.94694 9.80961 9.84494 9.80961 9.84494 9.80961C9.84494 9.83961 9.78494 9.86361 9.73694 9.86961C9.68894 9.86961 9.74894 9.77961 9.74894 9.77961C9.71894 9.70161 9.76094 9.61761 9.76094 9.61761L9.82094 9.59961Z" fill="#F1B517" stroke="black" stroke-width="0.341334"/>
<g id="Vector_143">
<path d="M9.74902 9.77944H9.79702C9.79702 9.77944 9.79702 9.79744 9.80902 9.79744C9.82102 9.79744 9.82702 9.77344 9.82702 9.77344H9.89902" fill="#F1B517"/>
<path d="M9.74902 9.77944H9.79702C9.79702 9.77944 9.79702 9.79744 9.80902 9.79744C9.82102 9.79744 9.82702 9.77344 9.82702 9.77344H9.89902" stroke="black" stroke-width="0.341334"/>
</g>
<path id="Vector_144" d="M9.84513 9.65445C9.88713 9.62445 9.85113 9.56445 9.82113 9.56445H9.76113C9.72513 9.56445 9.67713 9.60045 9.68313 9.62445C9.68313 9.65445 9.70713 9.66645 9.73113 9.66045C9.74313 9.66045 9.76713 9.62445 9.77913 9.62445C9.79713 9.62445 9.83913 9.66045 9.84513 9.65445Z" fill="#D20014" stroke="#F1B517" stroke-width="0.341334"/>
<path id="Vector_145" fill-rule="evenodd" clip-rule="evenodd" d="M6.85139 10.4883C6.81539 10.4943 6.80939 10.5363 6.82139 10.5783C6.66539 10.6203 6.52139 10.6803 6.37739 10.7223C6.37139 10.6923 6.44939 10.6143 6.44939 10.6143C6.46739 10.6203 6.48539 10.6683 6.48539 10.6683C6.48539 10.5723 6.58139 10.5123 6.58139 10.5123C6.52139 10.5003 6.35939 10.5723 6.34139 10.5963C6.34139 10.5963 6.40139 10.5843 6.41339 10.5963C6.41339 10.5963 6.28139 10.7343 6.27539 10.7763C6.29939 10.8183 6.51539 10.8543 6.51539 10.8543C6.51539 10.8663 6.45539 10.9143 6.45539 10.9143C6.54539 10.9263 6.67739 10.8663 6.71339 10.8303C6.71339 10.8303 6.61139 10.8183 6.53339 10.7523C6.53339 10.7523 6.54539 10.7943 6.53339 10.8123C6.53339 10.8123 6.41339 10.7763 6.39539 10.7523C6.39539 10.7523 6.69539 10.6803 6.83939 10.6323C6.84539 10.6623 6.87539 10.7103 6.91139 10.6983C6.92939 10.6923 6.92339 10.6503 6.91139 10.6143C6.91626 10.6186 6.92197 10.6219 6.92816 10.624C6.93435 10.6261 6.94089 10.6268 6.94739 10.6263C6.97139 10.6263 6.98939 10.6083 6.98939 10.5843C6.98939 10.5603 6.97139 10.5423 6.94739 10.5423C6.93826 10.5428 6.92946 10.5458 6.92202 10.5512C6.91458 10.5565 6.90881 10.5638 6.90539 10.5723C6.89939 10.5423 6.88139 10.4883 6.85739 10.4943L6.85139 10.4883ZM6.97139 10.5843C6.97139 10.5963 6.95939 10.6023 6.94739 10.6023C6.94459 10.6033 6.94159 10.6036 6.93865 10.6031C6.93572 10.6027 6.93294 10.6015 6.93056 10.5997C6.92819 10.5979 6.92629 10.5956 6.92504 10.5929C6.92378 10.5902 6.92322 10.5872 6.92339 10.5843C6.92339 10.5723 6.93539 10.5603 6.94739 10.5603C6.95939 10.5603 6.96539 10.5723 6.96539 10.5843H6.97139Z" fill="#F1B517" stroke="black" stroke-width="0.341334"/>
<path id="Vector_146" d="M11.579 10.6738C11.591 10.6498 11.579 10.5418 11.579 10.5418C11.549 10.5418 11.519 10.5838 11.519 10.5838C11.549 10.4878 11.471 10.3438 11.471 10.3438C11.525 10.3498 11.705 10.5238 11.711 10.5598C11.711 10.5598 11.633 10.5298 11.621 10.5358C11.639 10.6258 11.699 10.6678 11.723 10.7158C11.723 10.7158 11.621 10.7338 11.627 10.8238H11.561C11.537 10.7938 11.567 10.7458 11.567 10.7458L11.105 10.5538C11.075 10.5418 11.009 10.5058 11.021 10.4698C11.027 10.4398 11.141 10.4878 11.165 10.4998L11.579 10.6738Z" fill="#F1B517" stroke="black" stroke-width="0.341334"/>
<path id="Vector_147" d="M11.1352 10.5896L11.1952 10.4936C11.2132 10.4636 11.1712 10.4336 11.1412 10.4696L11.0812 10.5596C11.0572 10.6136 11.1112 10.6256 11.1412 10.5896H11.1352Z" fill="#F1B517" stroke="black" stroke-width="0.341334"/>
</g>
<g id="Group_5">
<path id="Vector_148" d="M7.88144 10.8223L7.87793 10.7168L7.74434 10.7203L7.7373 10.8398L7.88144 10.8223Z" fill="white" stroke="black" stroke-width="0.3"/>
<path id="Vector_149" d="M6.91465 10.9765L6.73887 10.878C7.4666 10.9448 7.61777 10.6882 7.79355 10.6741C7.89902 10.6671 7.9166 10.7936 7.70918 10.7339L7.76191 10.8675C7.76191 10.8675 7.2416 11.1593 6.73535 11.0433L6.91113 10.9729L6.91465 10.9765ZM10.0963 10.8218V10.7163H10.2615L10.2686 10.8358L10.0928 10.8218H10.0963Z" fill="white" stroke="black" stroke-width="0.3"/>
<path id="Vector_150" d="M11.0943 10.9486L11.2631 10.8572C10.4264 10.8853 10.6162 10.7201 10.1979 10.6744C10.0924 10.6638 10.008 10.8045 10.2822 10.7342L10.2295 10.8678H10.3596C10.6368 11.0357 10.969 11.0875 11.2842 11.0119L11.0943 10.9486Z" fill="white" stroke="black" stroke-width="0.3"/>
<path id="Vector_151" d="M7.70605 10.7344V10.9242C7.70605 10.9242 8.17012 11.1 8.99629 11.1C9.82598 11.1 10.2865 10.9242 10.2865 10.9242V10.7344C10.2865 10.7344 9.93496 10.8961 8.99629 10.8961C8.06113 10.8961 7.70605 10.7344 7.70605 10.7344Z" fill="white" stroke="black" stroke-width="0.3"/>
</g>
<path id="Vector_152" d="M7.77246 10.9277L7.81465 10.7871L7.83223 10.7941L7.79707 10.9137L7.86738 10.9348L7.86387 10.9523L7.77246 10.9242V10.9277ZM7.90957 10.8645V10.8363L7.9166 10.8152L7.9377 10.8188L7.93066 10.8434L7.92012 10.868L7.90957 10.8645ZM8.10645 10.8539L8.12754 10.8609L8.10996 10.9418C8.10996 10.9559 8.10293 10.9664 8.0959 10.977L8.0748 10.991C8.06327 10.994 8.05118 10.994 8.03965 10.991C8.02686 10.9896 8.0147 10.9848 8.00449 10.977C7.99887 10.9712 7.99518 10.9638 7.99394 10.9559V10.9207L8.01152 10.8363L8.03262 10.8398L8.01504 10.9207C8.01152 10.9348 8.01152 10.9453 8.01504 10.9488C8.01504 10.9559 8.01504 10.9629 8.02207 10.9664L8.03965 10.9734H8.0748C8.08184 10.9664 8.08535 10.9559 8.08887 10.9383L8.10645 10.8539ZM8.12754 11.0051L8.15215 10.8645H8.17324L8.23301 10.991L8.25059 10.8785L8.26816 10.882L8.24355 11.0227H8.22598L8.16621 10.8961L8.14863 11.0086H8.12754V11.0051ZM8.28223 11.0297L8.30332 10.8891H8.3209L8.2998 11.0297H8.28223ZM8.33848 10.9664C8.3395 10.9463 8.34833 10.9274 8.36309 10.9137C8.37092 10.9075 8.37999 10.903 8.38969 10.9006C8.39939 10.8981 8.4095 10.8978 8.41934 10.8996C8.4334 10.8996 8.44395 10.9031 8.45449 10.9102C8.46504 10.9207 8.47207 10.9277 8.47559 10.9418C8.4791 10.9523 8.48262 10.9664 8.4791 10.9805C8.47714 10.9931 8.47233 11.0051 8.46504 11.0156C8.45801 11.0297 8.44746 11.0367 8.43691 11.0402C8.42591 11.0453 8.41387 11.0477 8.40176 11.0473C8.38897 11.0459 8.37681 11.041 8.3666 11.0332C8.35254 11.0262 8.34551 11.0156 8.34199 11.0016C8.33812 10.9903 8.33692 10.9782 8.33848 10.9664ZM8.35957 10.9664C8.35605 10.9875 8.35957 11.0016 8.3666 11.0121C8.37715 11.0227 8.3877 11.0297 8.40176 11.0297C8.41582 11.0297 8.42988 11.0297 8.44043 11.0191C8.45098 11.0086 8.45801 10.998 8.45801 10.977C8.46041 10.9665 8.46041 10.9557 8.45801 10.9453C8.45445 10.9366 8.44831 10.9293 8.44043 10.9242C8.43336 10.9185 8.42484 10.9148 8.41582 10.9137C8.40176 10.9137 8.39121 10.9137 8.38066 10.9242C8.3666 10.9313 8.35957 10.9488 8.35957 10.9699V10.9664ZM8.49668 11.0543L8.50723 10.9102H8.52832L8.59863 11.0297L8.60566 10.9172H8.62676L8.6127 11.0648H8.59512L8.5248 10.9418L8.51426 11.0543H8.49668ZM8.70762 11.0684L8.71113 10.9242L8.8166 10.9277L8.81309 10.9453H8.73223V10.9875H8.80254L8.79902 11.0051H8.72871V11.0684H8.70762ZM8.81309 11.0719L8.87637 10.9313H8.89746L8.95723 11.0754H8.93262L8.91504 11.0297H8.85879L8.84121 11.0754H8.82012L8.81309 11.0719ZM8.85879 11.0156H8.91152L8.89746 10.977C8.89349 10.9666 8.88997 10.956 8.88691 10.9453C8.88691 10.9559 8.87988 10.9629 8.87637 10.9734L8.85879 11.0156ZM8.9748 11.0754V10.9313H8.9959V11.0754H8.9748ZM9.06621 11.0754V10.9488H9.01699V10.9313H9.13301V10.9453H9.08379L9.0873 11.0754H9.06621ZM9.21387 11.0719L9.20684 10.9277H9.22793L9.23145 11.0543L9.30527 11.0508V11.0684H9.21387V11.0719ZM9.31582 11.0684L9.36152 10.9207H9.38262L9.45293 11.0578H9.43184L9.41074 11.0156L9.34746 11.0227L9.33691 11.0648H9.31582V11.0684ZM9.35098 11.0051H9.40371L9.38613 10.9629C9.38107 10.9537 9.37637 10.9443 9.37207 10.9348C9.37046 10.9443 9.36811 10.9537 9.36504 10.9629L9.35449 11.0051H9.35098ZM9.52676 11.0508L9.5127 10.9102L9.61113 10.8961V10.9137L9.53379 10.9242L9.5373 10.9664L9.60762 10.9594V10.977L9.54082 10.984L9.54785 11.0473L9.53027 11.0508H9.52676ZM9.63926 10.9699C9.63574 10.9453 9.63926 10.9242 9.6498 10.9102C9.65561 10.9023 9.66298 10.8958 9.67145 10.8909C9.67993 10.8861 9.68932 10.883 9.69902 10.882C9.71115 10.8813 9.72326 10.8837 9.73418 10.8891C9.74824 10.8891 9.75879 10.8996 9.76582 10.9102C9.77342 10.9214 9.77832 10.9342 9.78015 10.9476C9.78198 10.961 9.78069 10.9747 9.77637 10.9875C9.77231 10.9988 9.76497 11.0086 9.75527 11.0156C9.74473 11.0227 9.73066 11.0297 9.72012 11.0297C9.70715 11.0322 9.69375 11.031 9.68144 11.0262C9.66992 11.0208 9.66016 11.0123 9.65332 11.0016C9.64592 10.9911 9.6411 10.9791 9.63926 10.9664V10.9699ZM9.65684 10.9664C9.66035 10.984 9.66738 10.998 9.67793 11.0016C9.68848 11.0121 9.70254 11.0156 9.7166 11.0156C9.73066 11.0156 9.74473 11.0051 9.75176 10.9945C9.75879 10.984 9.7623 10.9699 9.75879 10.9488C9.75734 10.9388 9.75374 10.9292 9.74824 10.9207C9.74318 10.9128 9.73582 10.9067 9.72715 10.9031C9.71832 10.8992 9.70854 10.898 9.69902 10.8996C9.69227 10.9 9.68566 10.9017 9.67961 10.9047C9.67357 10.9078 9.6682 10.912 9.66387 10.9172C9.65684 10.9277 9.65684 10.9453 9.66035 10.9664H9.65684ZM9.81504 11.0156L9.78691 10.875L9.85371 10.8609H9.88535C9.89238 10.8609 9.89941 10.8645 9.90293 10.8715C9.90996 10.875 9.91348 10.882 9.91348 10.8926C9.91431 10.9014 9.9118 10.9102 9.90644 10.9172C9.90293 10.9242 9.89238 10.9313 9.87832 10.9348L9.89238 10.9418L9.91348 10.9559L9.94512 10.991L9.92051 10.9945L9.8959 10.9699C9.8903 10.9638 9.88444 10.9579 9.87832 10.9523C9.87515 10.9495 9.8716 10.9472 9.86777 10.9453C9.86428 10.9447 9.86072 10.9447 9.85723 10.9453H9.82207L9.83613 11.0121H9.81504V11.0156ZM9.81855 10.9313L9.86074 10.9242C9.87129 10.9242 9.87832 10.9242 9.88184 10.9172C9.88549 10.9151 9.88845 10.912 9.89033 10.9083C9.89221 10.9045 9.89293 10.9003 9.89238 10.8961C9.89226 10.8925 9.89123 10.889 9.88939 10.8859C9.88754 10.8829 9.88494 10.8803 9.88184 10.8785H9.85723L9.81152 10.8855L9.81855 10.9313ZM10.0541 10.9172H10.0752C10.0752 10.9313 10.0717 10.9453 10.0611 10.9559C10.0541 10.9664 10.04 10.9734 10.026 10.977C10.0133 10.9806 9.99994 10.9806 9.9873 10.977C9.97424 10.9726 9.96306 10.9639 9.95566 10.9523C9.94866 10.9417 9.94388 10.9297 9.9416 10.9172V10.8785C9.9416 10.8645 9.94863 10.8539 9.95918 10.8469C9.96939 10.8391 9.98155 10.8342 9.99434 10.8328C10.0058 10.8295 10.018 10.8295 10.0295 10.8328C10.0436 10.8398 10.0541 10.8469 10.0611 10.8609L10.0436 10.868C10.0385 10.8601 10.0311 10.854 10.0225 10.8504C10.0144 10.8479 10.0059 10.8479 9.99785 10.8504C9.98379 10.8504 9.97676 10.8539 9.96973 10.8609C9.9631 10.8674 9.95931 10.8763 9.95918 10.8855C9.95737 10.9053 9.96233 10.9252 9.97324 10.9418C9.98027 10.9523 9.9873 10.9559 9.99434 10.9594C10.0049 10.9594 10.0119 10.9629 10.0225 10.9594C10.033 10.9594 10.04 10.9559 10.0471 10.9453C10.0541 10.9383 10.0576 10.9277 10.0541 10.9172ZM10.1104 10.9523L10.0717 10.8152L10.1771 10.7871V10.8047L10.0928 10.8293L10.1068 10.8715L10.1842 10.8504L10.1912 10.8645L10.1104 10.8855L10.1244 10.9348L10.2123 10.9102L10.2193 10.9277L10.1104 10.9523Z" fill="#000001"/>
</g>
</g>
<defs>
<clipPath id="clip0_186_9400">
<rect width="18" height="18" fill="white"/>
</clipPath>
</defs>
</svg>
