<svg width="18" height="18" viewBox="0 0 18 18" fill="none" xmlns="http://www.w3.org/2000/svg">
<g id="il" clip-path="url(#clip0_186_9584)">
<g id="Clip path group">
<mask id="mask0_186_9584" style="mask-type:luminance" maskUnits="userSpaceOnUse" x="0" y="0" width="18" height="18">
<g id="il-a">
<path id="Vector" d="M0 0H18V18H0V0Z" fill="white"/>
</g>
</mask>
<g mask="url(#mask0_186_9584)">
<g id="Group">
<path id="Vector_2" fill-rule="evenodd" clip-rule="evenodd" d="M21.7758 18H-3.9375V0H21.7758V18Z" fill="white"/>
<path id="Vector_3" fill-rule="evenodd" clip-rule="evenodd" d="M21.7758 4.05H-3.9375V1.6875H21.7758V4.05ZM21.7758 16.3723H-3.9375V14.0098H21.7758V16.3723ZM4.79531 6.7043L8.66602 13.4402L12.6211 6.73594L4.79531 6.7043Z" fill="#0038B8"/>
<path id="Vector_4" fill-rule="evenodd" clip-rule="evenodd" d="M7.93848 11.1719L8.67324 12.4199L9.42559 11.1789L7.93848 11.1719Z" fill="white"/>
<path id="Vector_5" fill-rule="evenodd" clip-rule="evenodd" d="M4.78125 11.2711L8.65547 4.53516L12.607 11.243L4.78125 11.2711Z" fill="#0038B8"/>
<path id="Vector_6" fill-rule="evenodd" clip-rule="evenodd" d="M7.93848 6.73633L8.67324 5.48828L9.42559 6.73281L7.93848 6.73633ZM6.39863 9.53125L5.63574 10.7969L7.07715 10.7934L6.39863 9.52773V9.53125ZM5.6498 7.19336L7.09824 7.20391L6.40215 8.48008L5.6498 7.19336ZM10.9654 9.54883L11.7002 10.7969L10.2342 10.7793L10.9654 9.54883ZM11.6861 7.19336L10.2377 7.20391L10.9338 8.48008L11.6861 7.19336ZM7.66777 7.19336L6.66934 9.00039L7.68184 10.7687L9.53809 10.8109L10.6631 9.00039L9.62246 7.17227L7.66777 7.19336Z" fill="white"/>
</g>
</g>
</g>
</g>
<defs>
<clipPath id="clip0_186_9584">
<rect width="18" height="18" fill="white"/>
</clipPath>
</defs>
</svg>
