<svg width="18" height="18" viewBox="0 0 18 18" fill="none" xmlns="http://www.w3.org/2000/svg">
<g id="im" clip-path="url(#clip0_186_9594)">
<g id="Clip path group">
<mask id="mask0_186_9594" style="mask-type:luminance" maskUnits="userSpaceOnUse" x="0" y="0" width="19" height="19">
<g id="im-a">
<path id="Vector" d="M0.0615234 0H18.3734V18.3094H0.0639845L0.0615234 0Z" fill="white"/>
</g>
</mask>
<g mask="url(#mask0_186_9594)">
<g id="Group">
<path id="Vector_2" fill-rule="evenodd" clip-rule="evenodd" d="M22.5738 18.3094H-3.58594V0H22.5738V18.3094Z" fill="#BA0000"/>
<path id="Vector_3" fill-rule="evenodd" clip-rule="evenodd" d="M10.112 13.4491C10.1194 13.4245 10.1366 13.203 10.1268 13.203C10.1169 13.203 9.78962 12.8142 9.797 12.8142C9.80438 12.8142 10.2203 12.9077 10.2203 12.893C10.2203 12.8807 10.3876 12.4845 10.3876 12.4746L10.5894 12.9594L10.9979 13.1391L10.71 13.3753L10.7765 13.8429C10.7765 13.8503 10.4885 13.5722 10.4885 13.5722L10.1686 13.6066C10.1686 13.6066 10.1268 13.4639 10.112 13.4491Z" fill="#FFEF00" stroke="black" stroke-width="2.24"/>
<path id="Vector_4" fill-rule="evenodd" clip-rule="evenodd" d="M7.88194 7.40039C7.61123 7.54066 6.56041 8.7416 6.41522 8.92617C6.29463 9.19934 6.05838 9.54141 5.81475 9.76289C5.55635 9.95977 5.41115 10.2305 5.44807 10.4815C5.44561 10.7989 5.62033 11.013 5.76307 11.237C5.84674 11.3354 5.95994 11.4019 6.07807 11.4093C6.32416 11.4437 6.34631 11.5175 6.4669 11.5643C6.9517 12.2238 7.67276 12.7086 8.18955 13.0901C8.4254 13.2032 8.64146 13.3536 8.8294 13.5355C8.93902 13.7563 8.97524 14.0064 8.93276 14.2492L8.54885 15.7011C8.4824 16.0973 8.82694 16.0087 8.84416 15.93C9.00166 15.7282 9.23299 15.8709 9.56276 14.7045L10.018 14.0892C10.018 14.0892 10.1952 14.0203 10.1952 14.0031C10.461 13.6832 10.2567 13.5011 10.1066 13.442L9.7744 13.3189C9.7744 13.3189 9.38803 12.935 9.3708 12.935C9.18869 12.401 8.28799 11.2641 8.08127 11.1066C7.9797 10.9901 7.86104 10.8897 7.72936 10.8088C7.52018 10.7079 7.45127 10.6734 7.3233 10.6218C7.21502 10.5799 7.29131 10.4618 7.36022 10.4077C8.07143 10.0213 8.63498 9.59062 9.31912 9.15258L9.42494 9.08121L9.17885 7.67848L8.03944 7.27734C7.98037 7.31918 7.93608 7.35855 7.88194 7.40039Z" fill="white" stroke="black" stroke-width="2.66"/>
<path id="Vector_5" fill-rule="evenodd" clip-rule="evenodd" d="M8.83461 14.778C8.83953 14.7632 9.54828 14.6328 9.54828 14.6328L9.46215 14.8961L8.75586 15.1078L8.83461 14.778Z" fill="#FFEC00"/>
<path id="Vector_6" d="M6.98633 12.1079C7.05922 11.9402 7.16525 11.7891 7.29804 11.6635C7.43083 11.5379 7.58765 11.4404 7.75906 11.377" stroke="black" stroke-width="2.24"/>
<path id="Vector_7" d="M8.81012 14.7825C8.85688 14.7702 9.05867 14.7087 9.11773 14.7013L9.30477 14.6521C9.37613 14.6349 9.41797 14.6226 9.4918 14.6103C9.5484 14.5857 9.605 14.5734 9.66406 14.5586M8.67969 15.2206C8.68707 15.2132 8.73629 15.1714 8.77074 15.1492C8.81258 15.1369 8.95039 15.0754 9.00453 15.068L9.17188 15.0188C9.2334 15.004 9.27031 14.9893 9.33676 14.977C9.38787 14.9558 9.44052 14.9385 9.49426 14.9253" stroke="black" stroke-width="2.45"/>
<path id="Vector_8" d="M8.96931 12.2102H8.95947C8.99146 12.2102 8.97178 12.2078 8.92748 12.2595C8.91271 12.3013 8.78228 12.3923 8.68385 12.3923C8.63463 12.3973 8.56326 12.4022 8.5165 12.4022C8.50174 12.4022 8.48451 12.3923 8.46974 12.3923M8.95947 14.307H9.00869C9.06283 14.307 9.11451 14.3143 9.16127 14.3168C9.21295 14.3168 9.26463 14.3316 9.31631 14.3316C9.36553 14.3389 9.42951 14.3365 9.48119 14.3439C9.54025 14.3439 9.58947 14.3562 9.65099 14.3562M9.65099 14.3562C9.70021 14.3562 9.72728 14.366 9.78388 14.366L9.65099 14.3562ZM8.61248 15.5473C8.6174 15.5399 8.6617 15.498 8.69369 15.4759C8.7306 15.4636 8.85857 15.4045 8.90779 15.3947L9.06037 15.3455C9.11697 15.3307 9.15388 15.3159 9.21295 15.3036C9.2597 15.2815 9.30646 15.2667 9.35568 15.2544M9.56732 13.7779C9.53779 13.8615 9.57471 13.8837 9.59193 13.9181C9.61654 13.9526 9.68545 14.0067 9.79373 14.0412L9.91678 14.0805C9.94877 14.0855 9.96353 14.0929 9.98814 14.1027M5.53877 10.7115H5.54861C5.51662 10.7115 5.53631 10.714 5.59045 10.6721C5.62244 10.6352 5.64951 10.618 5.6815 10.5811M6.1983 11.4375C6.20322 11.4375 6.78892 11.1422 6.85291 11.0782C6.89721 11.0462 6.9292 11.0142 6.98334 10.9773C7.01779 10.9601 7.0424 10.9355 7.07439 10.9158C7.10146 10.8764 7.13592 10.8543 7.1556 10.8173C7.19252 10.7878 7.17775 10.7534 7.20482 10.7164C7.21959 10.6771 7.24666 10.6131 7.25404 10.5762M7.9997 11.0142C8.00217 11.0364 7.98986 11.1004 7.99232 11.1496C7.98986 11.2062 7.91603 11.3834 7.82744 11.4375" stroke="black" stroke-width="2.24"/>
<path id="Vector_9" d="M6.94687 11.011L7.19051 11.0848C7.39748 11.1766 7.59524 11.2878 7.78113 11.417C7.81805 11.4466 7.88449 11.4736 7.91156 11.5081C7.95094 11.5425 7.98047 11.5819 8.01 11.6213C8.04539 11.6589 8.07673 11.7002 8.10352 11.7443C8.21672 11.8354 8.52187 12.4703 8.53172 12.5072C8.54957 12.5435 8.56599 12.5804 8.58094 12.618C8.60555 12.6426 8.62031 12.6795 8.64246 12.7189C8.66461 12.7681 8.68922 12.7927 8.71629 12.8321C8.74828 12.8567 8.79258 12.8985 8.83687 12.9231C8.88117 12.9625 8.92547 12.9773 8.95992 13.0043C9.00668 13.024 9.54316 13.3636 9.56777 13.3809C9.61699 13.4202 9.76465 13.5777 9.66129 13.6885C9.61699 13.7254 9.57762 13.7771 9.53824 13.7992C9.4977 13.8328 9.45084 13.8579 9.40043 13.873C9.15926 13.9469 9.03621 13.9223 8.98945 13.9223H8.94023M5.76562 9.8125C5.83207 9.83711 5.805 9.81742 5.86652 9.84695C5.90836 9.86418 5.93543 9.86418 5.97727 9.87894C6.0191 9.89371 6.13969 9.91586 6.19875 9.97492C6.24059 10.0118 6.27258 10.0438 6.3218 10.0734C6.37272 10.1071 6.42719 10.1352 6.48422 10.157C6.54328 10.1792 6.60727 10.2038 6.66633 10.2063H6.94687H6.79922H6.94195" stroke="black" stroke-width="2.24"/>
<path id="Vector_10" fill-rule="evenodd" clip-rule="evenodd" d="M5.74888 10.4886C5.90145 10.4788 6.15493 10.5255 6.15985 10.5255L6.497 10.5206C6.67173 10.5034 6.7111 10.4345 6.74063 10.3877C6.80708 10.2868 6.85138 10.2499 6.90306 10.1736C6.98427 10.1121 7.09747 10.2548 7.09993 10.2548C7.38786 10.5255 7.15899 10.8553 7.14177 10.8676C6.99903 10.9956 6.9695 11.0054 6.88337 10.9217C6.79723 10.8208 6.77016 10.7741 6.6988 10.7396C6.56345 10.6732 6.27798 10.7248 6.27306 10.7248L6.1254 10.779C6.05403 10.8036 6.00974 10.8651 5.89161 10.8873C5.76856 10.8947 5.72673 10.8823 5.66766 10.7839C5.58399 10.6584 5.62583 10.5058 5.74888 10.4886Z" fill="#FFE606" stroke="black" stroke-width="2.24"/>
<path id="Vector_11" fill-rule="evenodd" clip-rule="evenodd" d="M13.7169 4.31571C13.6947 4.31818 13.4954 4.41415 13.4954 4.42154C13.4954 4.42892 13.3231 4.9088 13.3207 4.90142C13.3182 4.89404 13.1927 4.48306 13.1804 4.4929C13.1681 4.50029 12.7423 4.5495 12.7374 4.55196C12.73 4.55689 13.0573 4.14099 13.0573 4.14099L13.0131 3.69556L13.3625 3.82845L13.739 3.54298C13.744 3.54052 13.6406 3.92935 13.6406 3.92935L13.8276 4.18775C13.8276 4.18775 13.7218 4.29603 13.7169 4.31571Z" fill="#FFEF00" stroke="black" stroke-width="2.24"/>
<path id="Vector_12" fill-rule="evenodd" clip-rule="evenodd" d="M9.53777 9.22331C9.79371 9.39311 11.3539 9.72042 11.5877 9.75487C11.883 9.72534 12.3014 9.76225 12.6115 9.86561C12.9093 9.99604 13.2144 9.98866 13.4187 9.83608C13.6943 9.6835 13.7952 9.42264 13.9207 9.19131C13.9675 9.06827 13.9699 8.93784 13.9182 8.82956C13.8247 8.60069 13.8813 8.54409 13.8616 8.41612C14.1988 7.67292 14.2677 6.80667 14.3489 6.16436C14.3319 5.90368 14.3568 5.64196 14.4227 5.38917C14.5605 5.18609 14.7597 5.03255 14.9912 4.95112L16.4481 4.57459C16.8246 4.43678 16.5785 4.18084 16.4998 4.20545C16.2487 4.16608 16.2586 3.89538 15.0798 4.18084L14.3218 4.08241C14.3218 4.08241 14.1742 3.96428 14.1594 3.97167C13.7509 3.89784 13.6918 4.16362 13.7164 4.32358L13.7706 4.67303C13.7706 4.67303 13.6229 5.19721 13.6328 5.21444C13.2587 5.6328 12.7001 6.98631 12.6632 7.24471C12.6484 7.48835 12.5549 7.44405 12.5795 7.6803C12.5795 7.86733 12.5598 7.75167 12.6213 8.13311C12.6361 8.24631 12.4958 8.23893 12.4146 8.20694C11.728 7.77381 11.0759 7.49327 10.3597 7.11428L10.2465 7.05522L9.14648 7.95592L9.3532 9.14702C9.41719 9.17901 9.47625 9.19624 9.53777 9.22331Z" fill="white" stroke="black" stroke-width="2.66"/>
<path id="Vector_13" fill-rule="evenodd" clip-rule="evenodd" d="M15.5013 4.77922C15.4866 4.78168 15.0264 4.22797 15.0264 4.22797L15.2971 4.17383L15.8286 4.6857L15.5013 4.77922Z" fill="#FFEC00"/>
<path id="Vector_14" d="M14.0808 7.69781C13.8989 7.71669 13.7151 7.69852 13.5404 7.64438C13.3657 7.59024 13.2038 7.50126 13.0645 7.38281" stroke="black" stroke-width="2.24"/>
<path id="Vector_15" d="M15.518 4.79973C15.4861 4.76527 15.3335 4.61762 15.2966 4.5684C15.2533 4.52147 15.2081 4.47631 15.1612 4.43305L15.0332 4.29031C14.9877 4.25062 14.945 4.20786 14.9053 4.16234M15.9635 4.69637C15.9267 4.68557 15.8912 4.67072 15.8577 4.65207C15.8281 4.62254 15.7075 4.52902 15.6731 4.48965C15.6331 4.44677 15.5912 4.40571 15.5476 4.3666L15.4295 4.24355C15.3865 4.20974 15.3462 4.17272 15.3089 4.13281" stroke="black" stroke-width="2.45"/>
<path id="Vector_16" d="M13.198 5.91781L13.2029 5.92766C13.1881 5.90059 13.1955 5.91781 13.262 5.92766C13.3062 5.92273 13.449 5.99164 13.4982 6.07531C13.5307 6.12149 13.5611 6.16912 13.5893 6.21805C13.5966 6.23035 13.5966 6.2525 13.604 6.26234M15.0314 4.89898L15.0264 4.8916L15.0068 4.85469C14.9821 4.81039 14.9625 4.75625 14.9403 4.71687C14.9157 4.67258 14.9034 4.6209 14.8788 4.5766C14.8591 4.52738 14.8271 4.47816 14.8074 4.42648C14.7804 4.37234 14.768 4.32559 14.7361 4.27145M14.7361 4.27145C14.7114 4.22715 14.7065 4.19762 14.6795 4.15086L14.7361 4.27145ZM16.284 4.59383C16.2741 4.59383 16.2151 4.57414 16.1831 4.55691C16.1536 4.5323 16.0379 4.44863 16.0059 4.40926C15.9682 4.37215 15.9288 4.33683 15.8878 4.30344C15.8459 4.25914 15.8164 4.23453 15.777 4.19023C15.7359 4.16059 15.6972 4.12767 15.6614 4.0918M14.2734 4.62582C14.362 4.61105 14.362 4.56676 14.3841 4.53723C14.4014 4.49539 14.4137 4.40926 14.3915 4.29852C14.3811 4.25715 14.3728 4.21526 14.3669 4.17301C14.3546 4.14348 14.3521 4.12379 14.3497 4.09918M13.5745 9.63875L13.5696 9.63137C13.5868 9.65598 13.5794 9.64121 13.5154 9.61414C13.4662 9.6043 13.4391 9.58953 13.3924 9.57969M13.8846 8.71098C13.8821 8.70359 13.3382 8.33937 13.2521 8.31477C13.2029 8.29016 13.1537 8.28031 13.0971 8.25078C13.0651 8.22863 13.0331 8.21879 12.9986 8.20156C12.9519 8.19664 12.915 8.17695 12.8756 8.17695C12.8288 8.16219 12.8067 8.19172 12.7599 8.18434L12.6172 8.20895M12.632 7.34762C12.6492 7.33285 12.7132 7.31316 12.755 7.28609C12.8042 7.26148 12.9962 7.23687 13.0848 7.29102" stroke="black" stroke-width="2.24"/>
<path id="Vector_17" d="M13.1413 8.26891L13.0896 8.02282C13.0682 7.79774 13.0682 7.57114 13.0896 7.34606C13.097 7.29684 13.0871 7.22794 13.1044 7.1861C13.1167 7.13442 13.1364 7.08766 13.1536 7.04337C13.1733 6.98923 13.193 6.94247 13.2151 6.90309C13.2397 6.76036 13.6433 6.18204 13.6704 6.15743C13.6937 6.12365 13.7183 6.09081 13.7442 6.05899C13.7541 6.02454 13.7787 5.99255 13.8033 5.95317C13.8353 5.91133 13.8451 5.87934 13.8648 5.83751C13.8697 5.79567 13.8845 5.73415 13.8845 5.68493C13.8968 5.62587 13.8894 5.58157 13.8968 5.53727C13.8894 5.48805 13.9214 4.85313 13.9263 4.8236C13.9362 4.76208 13.9977 4.55536 14.1478 4.59227C14.202 4.61196 14.2659 4.6218 14.3029 4.64395C14.357 4.65872 14.3988 4.69809 14.4382 4.72762C14.6179 4.90235 14.6572 5.02294 14.6794 5.06477L14.704 5.10907M12.6762 9.86852L12.6712 9.85868C12.6836 9.88329 12.6762 9.87098 12.6589 9.8193L12.6343 9.67165C12.6245 9.62489 12.6023 9.57321 12.6097 9.54368C12.5925 9.49938 12.6023 9.46001 12.6097 9.41571C12.6196 9.35911 12.627 9.31973 12.627 9.26559C12.6343 9.19915 12.627 9.14993 12.6319 9.08594C12.6146 9.03673 12.6122 8.98997 12.5827 8.93829C12.558 8.88907 12.5408 8.84231 12.5138 8.79063L12.4424 8.66758" stroke="black" stroke-width="2.24"/>
<path id="Vector_18" fill-rule="evenodd" clip-rule="evenodd" d="M13.2786 9.57002C13.1949 9.44205 13.1088 9.19842 13.1063 9.1935L12.9365 8.90311C12.8381 8.75545 12.7568 8.75545 12.7027 8.75545C12.5797 8.74561 12.528 8.72346 12.4369 8.71608C12.3434 8.6767 12.4123 8.50936 12.4099 8.50444C12.5058 8.12299 12.9045 8.1599 12.9217 8.16975C13.1063 8.22881 13.1284 8.25342 13.0989 8.36662C13.0497 8.49459 13.0251 8.53889 13.0275 8.61764C13.0374 8.77022 13.222 8.99416 13.2244 8.99908L13.3475 9.09752C13.4016 9.14674 13.4754 9.15658 13.5542 9.2501C13.6206 9.35346 13.6305 9.39529 13.5739 9.49619C13.5025 9.62908 13.3524 9.66846 13.2786 9.57002Z" fill="#FFE606" stroke="black" stroke-width="2.24"/>
<path id="Vector_19" fill-rule="evenodd" clip-rule="evenodd" d="M3.82659 6.03387C3.84382 6.04863 4.03331 6.1643 4.03823 6.15691C4.04315 6.14953 4.5378 6.03633 4.53534 6.04371C4.53288 6.05109 4.25725 6.3784 4.26956 6.38332C4.28186 6.3907 4.55749 6.72047 4.56487 6.72293L4.04315 6.67863L3.6937 6.96164L3.61495 6.59496L3.17198 6.43746C3.1646 6.435 3.54604 6.30703 3.54604 6.30703L3.65925 6.01172C3.65925 6.01172 3.8069 6.03879 3.82659 6.03387Z" fill="#FFEF00" stroke="black" stroke-width="2.24"/>
<path id="Vector_20" fill-rule="evenodd" clip-rule="evenodd" d="M10.2203 6.84099C10.2228 6.53337 9.64199 5.04696 9.54355 4.83286C9.33181 4.55963 9.17321 4.24911 9.07597 3.91739C9.02183 3.59747 8.84957 3.344 8.60839 3.26032C8.33031 3.11267 8.05715 3.16927 7.79629 3.19142C7.66586 3.21849 7.55511 3.28986 7.49359 3.39075C7.35332 3.59255 7.27457 3.57779 7.17859 3.66638C6.3714 3.78943 5.60851 4.20779 5.02773 4.49079C4.81898 4.64763 4.58631 4.76978 4.33867 4.85255C4.01136 4.85501 3.77265 4.69997 3.65945 4.6163L2.54711 3.60732C2.22718 3.36614 2.14597 3.71068 2.2075 3.76482C2.31578 3.99614 2.08445 4.13396 2.96547 4.96575L3.30015 5.65482C3.30015 5.65482 3.28047 5.84185 3.29769 5.85169C3.45765 6.23314 3.71605 6.13716 3.83418 6.02888L4.0975 5.79017C4.0975 5.79017 4.61429 5.62775 4.62414 5.61052C5.18031 5.69419 6.6175 5.42103 6.85375 5.30782C7.06785 5.1897 7.08015 5.2906 7.26472 5.14048C7.41976 5.03712 7.33609 5.11833 7.62156 4.85747C7.70769 4.78364 7.77906 4.90669 7.79382 4.99036C7.81105 5.80247 7.93164 6.49892 8.00547 7.30857L8.02023 7.43161L9.37621 7.86228L10.2597 7.0354C10.2498 6.96403 10.2351 6.90497 10.2228 6.83853L10.2203 6.84099Z" fill="white" stroke="black" stroke-width="2.66"/>
<path id="Vector_21" fill-rule="evenodd" clip-rule="evenodd" d="M3.23555 4.28645C3.24785 4.29629 3.03621 4.98535 3.03621 4.98535L2.8418 4.78848L2.97961 4.0625L3.23555 4.28645Z" fill="#FFEC00"/>
<path id="Vector_22" d="M6.45508 3.875C6.57069 4.01649 6.65645 4.17992 6.7072 4.35544C6.75796 4.53096 6.77265 4.71494 6.75039 4.89629" stroke="black" stroke-width="2.24"/>
<path id="Vector_23" d="M3.24324 4.26277C3.2334 4.30953 3.19402 4.51625 3.17188 4.57285C3.15616 4.63545 3.14302 4.69867 3.1325 4.76234L3.08328 4.94691C3.0759 5.00598 3.06359 5.06504 3.04637 5.1241M2.91348 3.94531C2.9184 3.95516 2.93316 4.01914 2.93562 4.05852C2.92824 4.10035 2.91594 4.25047 2.89871 4.30461C2.88635 4.36074 2.8765 4.4174 2.86918 4.47441L2.82734 4.64176C2.82313 4.69562 2.81491 4.74909 2.80273 4.80172" stroke="black" stroke-width="2.45"/>
<path id="Vector_24" d="M5.45305 5.58719L5.45551 5.57981C5.4432 5.60934 5.45551 5.59211 5.42598 5.53059C5.39645 5.49614 5.37676 5.33864 5.42105 5.25251C5.4415 5.19974 5.46449 5.148 5.48996 5.09747C5.49488 5.08516 5.51457 5.07286 5.51949 5.06301M3.59504 4.61512L3.59258 4.62251L3.57289 4.65942C3.54828 4.70864 3.51629 4.74801 3.49414 4.78985C3.46953 4.83661 3.43262 4.87352 3.41047 4.92028C3.38094 4.96211 3.35387 5.01872 3.32188 5.06055C3.29234 5.11223 3.26035 5.15161 3.23328 5.20575M3.23328 5.20575C3.20867 5.25004 3.18652 5.26973 3.16191 5.31895L3.23328 5.20575ZM2.6525 3.73411C2.65742 3.74395 2.67711 3.80301 2.67711 3.83993C2.67219 3.8793 2.66727 4.01958 2.6525 4.06633C2.64266 4.12047 2.63281 4.17215 2.62789 4.22629L2.59098 4.38133C2.58831 4.43099 2.58173 4.48037 2.57129 4.52899M3.78207 5.3977C3.72055 5.33372 3.68363 5.35586 3.64672 5.3534C3.60242 5.36079 3.52367 5.3977 3.44246 5.47645C3.41385 5.50849 3.38345 5.53889 3.35141 5.56751C3.33418 5.59211 3.31941 5.60442 3.30219 5.62165M8.35941 3.23454L8.35449 3.24438C8.36926 3.21485 8.35695 3.23208 8.37172 3.29852C8.38894 3.34528 8.39141 3.37727 8.41109 3.42157M7.41195 3.48555C7.40949 3.49047 7.39965 4.14754 7.42672 4.23122C7.43656 4.28536 7.45133 4.32965 7.45871 4.3961C7.45871 4.43301 7.46609 4.46747 7.46855 4.50438C7.49316 4.54622 7.49563 4.58805 7.51777 4.62251C7.53008 4.66926 7.56699 4.67172 7.58668 4.71356C7.61621 4.74309 7.66051 4.79723 7.68758 4.81938M6.95668 5.27958C6.93699 5.27219 6.88285 5.23036 6.84102 5.21067C6.7918 5.18114 6.66875 5.03594 6.66137 4.93258" stroke="black" stroke-width="2.24"/>
<path id="Vector_25" d="M7.44849 4.34874L7.2713 4.52839C7.09469 4.669 6.90517 4.7926 6.70529 4.89753C6.66099 4.91721 6.60685 4.96643 6.56255 4.97136C6.51333 4.9935 6.46411 5.00089 6.41489 5.01073C6.36075 5.02304 6.31154 5.03534 6.26724 5.03534C6.13189 5.0944 5.43052 5.07225 5.39114 5.06487C5.35005 5.06403 5.309 5.06156 5.2681 5.05749C5.23611 5.06487 5.19427 5.06241 5.14997 5.06487C5.09583 5.05995 5.06384 5.06979 5.01708 5.07718C4.98263 5.0944 4.92111 5.11655 4.88173 5.14362C4.82513 5.16577 4.79068 5.1953 4.7513 5.21253C4.54896 5.34009 4.34384 5.46316 4.13607 5.58167C4.07947 5.60628 3.87275 5.6678 3.82107 5.52261C3.80876 5.466 3.78169 5.40694 3.77923 5.36264C3.76447 5.31096 3.77185 5.25436 3.77677 5.20514C3.82599 4.95905 3.90228 4.86061 3.92443 4.81878L3.94904 4.77448M9.04318 3.86393L9.03825 3.87132C9.05056 3.84671 9.04564 3.86147 9.01118 3.90331C8.97427 3.93284 8.93243 3.97714 8.90044 4.00667C8.86845 4.03866 8.83646 4.08296 8.80693 4.09526C8.7774 4.13464 8.74048 4.14448 8.70111 4.16909C8.65302 4.18545 8.60682 4.2069 8.56329 4.23307C8.50423 4.26507 8.46486 4.2946 8.41072 4.32659C8.37872 4.37089 8.34427 4.39796 8.31228 4.44964C8.28767 4.49639 8.25814 4.53577 8.23107 4.58745L8.16462 4.71542M8.58298 7.32893L8.59529 7.31171C8.57806 7.34616 8.58298 7.33632 8.60021 7.27971C8.60021 7.21327 8.61497 7.13206 8.61743 7.07053C8.62728 7.00901 8.63712 6.94011 8.63712 6.87366C8.63466 6.79983 8.63466 6.73339 8.62236 6.66202C8.62236 6.59557 8.61497 6.52667 8.61251 6.46022C8.61235 6.399 8.60575 6.33796 8.59282 6.27811C8.59153 6.22196 8.58577 6.16601 8.5756 6.11077C8.58298 6.06401 8.57068 6.02218 8.56083 5.98772L8.51654 5.80315L8.47962 5.6555C8.47224 5.60136 8.44271 5.53245 8.4304 5.48323C8.41185 5.44416 8.3986 5.40277 8.39103 5.36018C8.3738 5.32081 8.35165 5.27651 8.34181 5.23222L8.28767 5.09932L8.23845 4.97136C8.22122 4.92214 8.19661 4.8803 8.18677 4.82862C8.16954 4.81139 8.16462 4.79417 8.15478 4.7794" stroke="black" stroke-width="2.24"/>
<path id="Vector_26" fill-rule="evenodd" clip-rule="evenodd" d="M8.46292 3.5207C8.4014 3.66098 8.2439 3.86523 8.24144 3.87016L8.09378 4.17039C8.02487 4.33527 8.06917 4.40172 8.09624 4.44848C8.1553 4.5543 8.16761 4.6109 8.2119 4.69211C8.22913 4.79055 8.04948 4.82746 8.04702 4.82992C7.67788 4.95789 7.48839 4.60352 7.48593 4.58383C7.43671 4.39926 7.44409 4.36727 7.5573 4.33035C7.68773 4.29836 7.7394 4.29836 7.80339 4.2516C7.92644 4.16055 8.01257 3.88246 8.01503 3.87754L8.03226 3.7225C8.0421 3.64867 8.00765 3.57977 8.04456 3.4641C8.09378 3.35336 8.12331 3.32137 8.24144 3.31152C8.38909 3.29922 8.50722 3.40504 8.46292 3.5207Z" fill="#FFE606" stroke="black" stroke-width="2.24"/>
<path id="Vector_27" fill-rule="evenodd" clip-rule="evenodd" d="M7.97516 7.1384C7.92102 7.08918 9.02844 7.54199 9.18102 7.54691C9.39019 7.47063 10.2515 6.74219 10.2515 6.74219C10.2589 6.81602 10.2909 6.99813 10.3746 7.0375C10.0399 7.3082 9.73965 7.5666 9.40742 7.8373C9.43203 8.26551 9.35328 8.71832 9.56984 9.19574C9.56984 9.19574 9.30898 9.20066 9.30898 9.19574C9.08012 8.96688 8.99891 7.86191 8.99891 7.86191L7.90625 7.38203C7.96039 7.34758 8.00223 7.24176 7.98008 7.14086L7.97516 7.1384Z" fill="#FFEF00" stroke="black" stroke-width="2.24"/>
<path id="Vector_28" d="M9.03158 8.27069C9.05127 8.25838 8.8347 8.37405 8.77564 8.40112C7.76666 8.94006 7.24986 9.72264 7.21787 9.75217C7.20064 9.78416 7.16865 9.82846 7.13912 9.87276C7.11451 9.90967 7.08006 9.94659 7.05791 9.9835C7.01713 10.0405 6.9736 10.0956 6.92748 10.1484C6.92256 10.173 6.94471 10.141 6.93732 10.1558M9.72064 7.63331C9.70096 7.62346 9.90275 7.76374 9.95443 7.80065C10.8945 8.45034 11.8247 8.55616 11.8666 8.57092C11.906 8.57092 11.9601 8.57831 12.0118 8.58569C12.0536 8.58815 12.1028 8.60292 12.1471 8.60538C12.1963 8.61276 12.3046 8.62999 12.3538 8.64721C12.3785 8.63983 12.3391 8.63491 12.3538 8.63491" stroke="black" stroke-width="2.24"/>
</g>
</g>
</g>
</g>
<defs>
<clipPath id="clip0_186_9594">
<rect width="18" height="18" fill="white"/>
</clipPath>
</defs>
</svg>
