<svg width="18" height="18" viewBox="0 0 18 18" fill="none" xmlns="http://www.w3.org/2000/svg">
<g id="in" clip-path="url(#clip0_186_9626)">
<path id="Vector" d="M0 0H18V6.00117H0V0Z" fill="#FF9933"/>
<path id="Vector_2" d="M0 6.00195H18V11.9996H0V6.00195Z" fill="white"/>
<path id="Vector_3" d="M0 11.998H18V17.9992H0V11.998Z" fill="#128807"/>
<g id="Group">
<path id="Vector_4" d="M9.00058 11.4016C10.3261 11.4016 11.4006 10.327 11.4006 9.00156C11.4006 7.67608 10.3261 6.60156 9.00058 6.60156C7.6751 6.60156 6.60059 7.67608 6.60059 9.00156C6.60059 10.327 7.6751 11.4016 9.00058 11.4016Z" fill="#000088"/>
<path id="Vector_5" d="M9.00039 11.1004C10.1602 11.1004 11.1004 10.1602 11.1004 9.00039C11.1004 7.84059 10.1602 6.90039 9.00039 6.90039C7.84059 6.90039 6.90039 7.84059 6.90039 9.00039C6.90039 10.1602 7.84059 11.1004 9.00039 11.1004Z" fill="white"/>
<path id="Vector_6" d="M9.00008 9.42008C9.23204 9.42008 9.42008 9.23204 9.42008 9.00008C9.42008 8.76812 9.23204 8.58008 9.00008 8.58008C8.76812 8.58008 8.58008 8.76812 8.58008 9.00008C8.58008 9.23204 8.76812 9.42008 9.00008 9.42008Z" fill="#000088"/>
<g id="in-d">
<g id="in-c">
<g id="in-b">
<g id="in-a">
<path id="Vector_7" d="M11.0681 9.38255C11.1273 9.39033 11.1815 9.3487 11.1893 9.28957C11.1971 9.23043 11.1555 9.17618 11.0963 9.16839C11.0372 9.16061 10.9829 9.20224 10.9752 9.26137C10.9674 9.32051 11.009 9.37476 11.0681 9.38255Z" fill="#000088"/>
<path id="Vector_8" d="M9.00071 11.1002L9.07271 9.84023L9.00071 9.24023L8.92871 9.84023L9.00071 11.1002Z" fill="#000088"/>
</g>
<g id="in-a_2">
<path id="Vector_9" d="M10.8999 9.90495C10.955 9.92778 11.0182 9.90161 11.041 9.8465C11.0639 9.79139 11.0377 9.72822 10.9826 9.70539C10.9275 9.68257 10.8643 9.70874 10.8415 9.76384C10.8187 9.81895 10.8448 9.88212 10.8999 9.90495Z" fill="#000088"/>
<path id="Vector_10" d="M8.45728 11.0301L8.85294 9.83167L8.93869 9.23348L8.71385 9.7944L8.45728 11.0301Z" fill="#000088"/>
</g>
</g>
<g id="in-b_2">
<g id="in-a_3">
<path id="Vector_11" d="M10.6017 10.366C10.649 10.4023 10.7168 10.3934 10.7531 10.3461C10.7894 10.2988 10.7805 10.231 10.7331 10.1947C10.6858 10.1583 10.618 10.1673 10.5817 10.2146C10.5454 10.2619 10.5543 10.3297 10.6017 10.366Z" fill="#000088"/>
<path id="Vector_12" d="M7.95169 10.8187L8.64404 9.76349L8.88169 9.20787L8.51934 9.69149L7.95169 10.8187Z" fill="#000088"/>
</g>
<g id="in-a_4">
<path id="Vector_13" d="M10.1932 10.7328C10.2295 10.7801 10.2973 10.789 10.3446 10.7527C10.392 10.7164 10.4009 10.6486 10.3646 10.6013C10.3283 10.554 10.2605 10.5451 10.2131 10.5814C10.1658 10.6177 10.1569 10.6855 10.1932 10.7328Z" fill="#000088"/>
<path id="Vector_14" d="M7.51694 10.4853L8.45881 9.64523L8.83216 9.17005L8.35699 9.5434L7.51694 10.4853Z" fill="#000088"/>
</g>
</g>
</g>
<g id="in-c_2">
<g id="in-b_3">
<g id="in-a_5">
<path id="Vector_15" d="M9.70408 10.9832C9.7269 11.0383 9.79008 11.0645 9.84519 11.0417C9.90029 11.0188 9.92646 10.9557 9.90363 10.9006C9.88081 10.8455 9.81763 10.8193 9.76253 10.8421C9.70742 10.8649 9.68125 10.9281 9.70408 10.9832Z" fill="#000088"/>
<path id="Vector_16" d="M7.18203 10.0509L8.30922 9.4833L8.79284 9.12095L8.23722 9.35859L7.18203 10.0509Z" fill="#000088"/>
</g>
<g id="in-a_6">
<path id="Vector_17" d="M9.16713 11.0962C9.17492 11.1553 9.22917 11.197 9.28831 11.1892C9.34744 11.1814 9.38907 11.1271 9.38128 11.068C9.3735 11.0089 9.31925 10.9672 9.26011 10.975C9.20098 10.9828 9.15935 11.0371 9.16713 11.0962Z" fill="#000088"/>
<path id="Vector_18" d="M6.97299 9.54314L8.20869 9.28657L8.76961 9.06173L8.17142 9.14748L6.97299 9.54314Z" fill="#000088"/>
</g>
</g>
<g id="in-b_4">
<g id="in-a_7">
<path id="Vector_19" d="M8.61941 11.0672C8.61162 11.1263 8.65325 11.1806 8.71239 11.1883C8.77152 11.1961 8.82577 11.1545 8.83356 11.0954C8.84134 11.0362 8.79972 10.982 8.74058 10.9742C8.68144 10.9664 8.62719 11.008 8.61941 11.0672Z" fill="#000088"/>
<path id="Vector_20" d="M6.90172 8.99973L8.16172 9.07173L8.76172 8.99973L8.16172 8.92773L6.90172 8.99973Z" fill="#000088"/>
</g>
<g id="in-a_8">
<path id="Vector_21" d="M8.097 10.898C8.07418 10.9531 8.10035 11.0163 8.15545 11.0391C8.21056 11.0619 8.27374 11.0357 8.29656 10.9806C8.31939 10.9255 8.29322 10.8624 8.23811 10.8395C8.18301 10.8167 8.11983 10.8429 8.097 10.898Z" fill="#000088"/>
<path id="Vector_22" d="M6.97283 8.45728L8.17126 8.85294L8.76945 8.93869L8.20853 8.71385L6.97283 8.45728Z" fill="#000088"/>
</g>
</g>
</g>
</g>
<g id="in-d_2">
<g id="in-c_3">
<g id="in-b_5">
<g id="in-a_9">
<path id="Vector_23" d="M7.63691 10.6007C7.6006 10.648 7.60953 10.7158 7.65685 10.7521C7.70417 10.7884 7.77197 10.7795 7.80828 10.7322C7.84459 10.6848 7.83566 10.617 7.78834 10.5807C7.74102 10.5444 7.67322 10.5534 7.63691 10.6007Z" fill="#000088"/>
<path id="Vector_24" d="M7.1823 7.95071L8.23749 8.64307L8.7931 8.88071L8.30949 8.51836L7.1823 7.95071Z" fill="#000088"/>
</g>
<g id="in-a_10">
<path id="Vector_25" d="M7.26915 10.1913C7.22183 10.2276 7.21291 10.2954 7.24922 10.3427C7.28553 10.39 7.35333 10.3989 7.40065 10.3626C7.44797 10.3263 7.45689 10.2585 7.42058 10.2112C7.38427 10.1639 7.31647 10.1549 7.26915 10.1913Z" fill="#000088"/>
<path id="Vector_26" d="M7.51668 7.51499L8.35673 8.45686L8.8319 8.83021L8.45855 8.35503L7.51668 7.51499Z" fill="#000088"/>
</g>
</g>
<g id="in-b_6">
<g id="in-a_11">
<path id="Vector_27" d="M7.01873 9.7031C6.96363 9.72593 6.93746 9.7891 6.96028 9.84421C6.98311 9.89932 7.04629 9.92548 7.10139 9.90266C7.1565 9.87983 7.18267 9.81666 7.15984 9.76155C7.13702 9.70644 7.07384 9.68027 7.01873 9.7031Z" fill="#000088"/>
<path id="Vector_28" d="M7.95101 7.18105L8.51865 8.30824L8.88101 8.79186L8.64336 8.23624L7.95101 7.18105Z" fill="#000088"/>
</g>
<g id="in-a_12">
<path id="Vector_29" d="M6.90379 9.16518C6.84466 9.17296 6.80303 9.22722 6.81081 9.28635C6.8186 9.34549 6.87285 9.38712 6.93199 9.37933C6.99112 9.37155 7.03275 9.31729 7.02497 9.25816C7.01718 9.19902 6.96293 9.15739 6.90379 9.16518Z" fill="#000088"/>
<path id="Vector_30" d="M8.45686 6.97006L8.71343 8.20576L8.93827 8.76668L8.85252 8.16849L8.45686 6.97006Z" fill="#000088"/>
</g>
</g>
</g>
<g id="in-c_4">
<g id="in-b_7">
<g id="in-a_13">
<path id="Vector_31" d="M6.93381 8.61941C6.87468 8.61162 6.82043 8.65325 6.81264 8.71239C6.80485 8.77152 6.84648 8.82577 6.90562 8.83356C6.96476 8.84134 7.01901 8.79972 7.02679 8.74058C7.03458 8.68144 6.99295 8.62719 6.93381 8.61941Z" fill="#000088"/>
<path id="Vector_32" d="M9.00124 6.90172L8.92924 8.16172L9.00124 8.76172L9.07324 8.16172L9.00124 6.90172Z" fill="#000088"/>
</g>
<g id="in-a_14">
<path id="Vector_33" d="M7.10202 8.097C7.04691 8.07418 6.98374 8.10035 6.96091 8.15545C6.93809 8.21056 6.96426 8.27374 7.01936 8.29656C7.07447 8.31939 7.13764 8.29322 7.16047 8.23811C7.1833 8.18301 7.15713 8.11983 7.10202 8.097Z" fill="#000088"/>
<path id="Vector_34" d="M9.54467 6.97185L9.14901 8.17028L9.06327 8.76847L9.2881 8.20755L9.54467 6.97185Z" fill="#000088"/>
</g>
</g>
<g id="in-b_8">
<g id="in-a_15">
<path id="Vector_35" d="M7.4003 7.63594C7.35298 7.59963 7.28518 7.60855 7.24887 7.65587C7.21256 7.70319 7.22149 7.77099 7.26881 7.8073C7.31613 7.84361 7.38393 7.83469 7.42024 7.78736C7.45655 7.74004 7.44762 7.67225 7.4003 7.63594Z" fill="#000088"/>
<path id="Vector_36" d="M10.0503 7.18327L9.35791 8.23846L9.12026 8.79408L9.48262 8.31046L10.0503 7.18327Z" fill="#000088"/>
</g>
<g id="in-a_16">
<path id="Vector_37" d="M7.80874 7.26915C7.77243 7.22183 7.70464 7.21291 7.65731 7.24922C7.60999 7.28553 7.60107 7.35333 7.63738 7.40065C7.67369 7.44797 7.74149 7.45689 7.78881 7.42058C7.83613 7.38427 7.84505 7.31647 7.80874 7.26915Z" fill="#000088"/>
<path id="Vector_38" d="M10.485 7.51668L9.54314 8.35673L9.16979 8.8319L9.64497 8.45855L10.485 7.51668Z" fill="#000088"/>
</g>
</g>
</g>
</g>
<g id="in-d_3">
<g id="in-c_5">
<g id="in-b_9">
<g id="in-a_17">
<path id="Vector_39" d="M8.29788 7.01873C8.27505 6.96363 8.21187 6.93746 8.15677 6.96028C8.10166 6.98311 8.07549 7.04629 8.09832 7.10139C8.12114 7.1565 8.18432 7.18267 8.23943 7.15984C8.29453 7.13702 8.3207 7.07384 8.29788 7.01873Z" fill="#000088"/>
<path id="Vector_40" d="M10.8199 7.95101L9.69273 8.51865L9.20912 8.88101L9.76473 8.64336L10.8199 7.95101Z" fill="#000088"/>
</g>
<g id="in-a_18">
<path id="Vector_41" d="M8.83482 6.90575C8.82704 6.84661 8.77278 6.80498 8.71365 6.81277C8.65451 6.82055 8.61288 6.8748 8.62067 6.93394C8.62845 6.99308 8.68271 7.0347 8.74184 7.02692C8.80098 7.01913 8.84261 6.96488 8.83482 6.90575Z" fill="#000088"/>
<path id="Vector_42" d="M11.029 8.45882L9.79326 8.71538L9.23234 8.94022L9.83053 8.85447L11.029 8.45882Z" fill="#000088"/>
</g>
</g>
<g id="in-b_10">
<g id="in-a_19">
<path id="Vector_43" d="M9.38255 6.93479C9.39033 6.87565 9.3487 6.8214 9.28957 6.81362C9.23043 6.80583 9.17618 6.84746 9.16839 6.9066C9.16061 6.96573 9.20224 7.01998 9.26137 7.02777C9.32051 7.03555 9.37476 6.99393 9.38255 6.93479Z" fill="#000088"/>
<path id="Vector_44" d="M11.1002 9.00222L9.84023 8.93022L9.24023 9.00222L9.84023 9.07422L11.1002 9.00222Z" fill="#000088"/>
</g>
<g id="in-a_20">
<path id="Vector_45" d="M9.90495 7.10397C9.92778 7.04887 9.90161 6.98569 9.8465 6.96287C9.79139 6.94004 9.72822 6.96621 9.70539 7.02131C9.68257 7.07642 9.70874 7.1396 9.76384 7.16242C9.81895 7.18525 9.88212 7.15908 9.90495 7.10397Z" fill="#000088"/>
<path id="Vector_46" d="M11.0291 9.54467L9.83069 9.14901L9.2325 9.06327L9.79342 9.2881L11.0291 9.54467Z" fill="#000088"/>
</g>
</g>
</g>
<g id="in-c_6">
<g id="in-b_11">
<g id="in-a_21">
<path id="Vector_47" d="M10.365 7.39933C10.4014 7.352 10.3924 7.28421 10.3451 7.2479C10.2978 7.21159 10.23 7.22051 10.1937 7.26783C10.1574 7.31515 10.1663 7.38295 10.2136 7.41926C10.2609 7.45557 10.3287 7.44665 10.365 7.39933Z" fill="#000088"/>
<path id="Vector_48" d="M10.8197 10.0493L9.76447 9.35693L9.20885 9.11929L9.69247 9.48164L10.8197 10.0493Z" fill="#000088"/>
</g>
<g id="in-a_22">
<path id="Vector_49" d="M10.7328 7.80874C10.7801 7.77243 10.789 7.70464 10.7527 7.65731C10.7164 7.60999 10.6486 7.60107 10.6013 7.63738C10.554 7.67369 10.5451 7.74149 10.5814 7.78881C10.6177 7.83613 10.6855 7.84505 10.7328 7.80874Z" fill="#000088"/>
<path id="Vector_50" d="M10.4853 10.485L9.64523 9.54314L9.17005 9.16979L9.5434 9.64497L10.4853 10.485Z" fill="#000088"/>
</g>
</g>
<g id="in-b_12">
<g id="in-a_23">
<path id="Vector_51" d="M10.9832 8.2969C11.0383 8.27407 11.0645 8.2109 11.0417 8.15579C11.0188 8.10068 10.9557 8.07452 10.9006 8.09734C10.8455 8.12017 10.8193 8.18334 10.8421 8.23845C10.8649 8.29356 10.9281 8.31973 10.9832 8.2969Z" fill="#000088"/>
<path id="Vector_52" d="M10.0509 10.8189L9.4833 9.69176L9.12095 9.20814L9.35859 9.76376L10.0509 10.8189Z" fill="#000088"/>
</g>
<g id="in-a_24">
<path id="Vector_53" d="M11.0982 8.83482C11.1573 8.82704 11.1989 8.77278 11.1911 8.71365C11.1834 8.65451 11.1291 8.61288 11.07 8.62067C11.0108 8.62845 10.9692 8.68271 10.977 8.74184C10.9848 8.80098 11.039 8.84261 11.0982 8.83482Z" fill="#000088"/>
<path id="Vector_54" d="M9.54509 11.0299L9.28853 9.79424L9.06369 9.23332L9.14943 9.83151L9.54509 11.0299Z" fill="#000088"/>
</g>
</g>
</g>
</g>
</g>
</g>
<defs>
<clipPath id="clip0_186_9626">
<rect width="18" height="18" fill="white"/>
</clipPath>
</defs>
</svg>
