<svg width="18" height="18" viewBox="0 0 18 18" fill="none" xmlns="http://www.w3.org/2000/svg">
<g id="iq" clip-path="url(#clip0_186_9854)">
<path id="Vector" d="M0 6.00195H18V11.9996H0V6.00195Z" fill="white"/>
<path id="Vector_2" d="M0 0H18V6.00117H0V0Z" fill="#CE1126"/>
<path id="Vector_3" d="M0 11.998H18V17.9992H0V11.998Z" fill="#000001"/>
<g id="Group">
<path id="Vector_4" d="M11.6586 7.89747C11.6244 7.88106 11.5933 7.85883 11.5667 7.83178C11.547 7.79894 11.5601 7.79894 11.6455 7.81864C11.7966 7.86463 11.8951 7.84492 11.9937 7.76609L12.0791 7.69383L12.1776 7.73981C12.2367 7.77266 12.2959 7.79237 12.309 7.7858C12.355 7.77266 12.4469 7.65441 12.4404 7.61499C12.4404 7.56901 12.4798 7.58215 12.5061 7.6347C12.5455 7.73981 12.4864 7.86463 12.3747 7.89091C12.3287 7.90404 12.2827 7.89747 12.2039 7.8712C12.1119 7.83835 12.0922 7.83835 12.0462 7.8712C11.9912 7.9128 11.9252 7.93744 11.8563 7.94211C11.7875 7.94677 11.7188 7.93126 11.6586 7.89747ZM12.0396 7.5493C11.9952 7.46896 11.9725 7.37836 11.974 7.28653C11.9805 7.24711 11.9937 7.23398 12.0265 7.24711C12.0922 7.26682 12.1053 7.31281 12.0922 7.44419C12.0922 7.56244 12.0725 7.59529 12.0396 7.5493ZM7.59881 7.42449C7.59224 7.50989 7.75647 7.72667 7.82873 7.76609C7.77618 7.7858 7.71705 7.77923 7.67107 7.79894C7.40829 8.06171 6.46232 8.98141 6.29152 9.20477C6.80392 9.2179 7.36888 9.1982 7.84844 9.17849C7.84844 8.83031 8.1769 8.81061 8.40026 8.68579C8.51194 8.86316 8.79442 8.85002 8.83383 9.11936V10.2756H4.46525C4.44873 10.3632 4.41398 10.4464 4.36326 10.5198C4.31253 10.5932 4.24697 10.6551 4.1708 10.7016C4.09463 10.748 4.00956 10.778 3.92109 10.7894C3.83262 10.8009 3.74273 10.7937 3.65723 10.7683C3.78861 10.6369 4.01197 10.5843 4.0908 10.3938C4.15649 9.97337 3.95941 9.71717 3.82803 9.47411C3.99328 9.42112 4.14866 9.34121 4.28788 9.23761C4.13679 9.69746 4.69518 9.65148 5.10247 9.63834C5.11561 9.48068 5.10904 9.29674 4.99079 9.27046C5.14189 9.21133 5.16817 9.19163 5.42437 8.98141V9.61206L8.45281 9.60549C8.45281 9.40841 8.50537 9.08652 8.34771 9.08652C8.20318 9.08652 8.3477 9.49381 8.22946 9.49381H5.88422V9.09966C5.98276 8.99455 5.96962 9.00112 6.64626 8.32448C6.71195 8.25879 7.19151 7.82521 7.60537 7.42449H7.59881ZM13.452 7.40478C13.6163 7.49675 13.7477 7.61499 13.9447 7.66755C13.925 7.75295 13.8462 7.7858 13.8265 7.8712V9.64491C14.0499 9.69089 14.1024 9.55951 14.2075 9.49381C14.2338 9.77629 14.4177 10.0522 14.4046 10.2821H13.452V7.40478ZM12.1776 8.35733C12.1776 8.35733 12.5258 8.06171 12.5258 8.04857V9.59235H12.7754L12.7688 7.86463C12.8674 7.75952 13.071 7.615 13.117 7.50989V10.269H10.9229C10.89 9.69746 10.8835 9.10623 11.5535 9.23104V9.00112C11.5338 8.9617 11.4944 9.00769 11.4878 8.95513C11.5929 8.85002 11.6258 8.82375 11.9148 8.57411L11.9214 9.59235H12.1776V8.35733ZM11.3499 9.57921C11.3959 9.64491 11.5601 9.64491 11.547 9.52666C11.5272 9.42812 11.317 9.46097 11.3499 9.57921Z" fill="#007A3D"/>
<path id="Vector_5" d="M4.99076 10.7354C5.06332 10.7354 5.12215 10.6766 5.12215 10.604C5.12215 10.5315 5.06332 10.4727 4.99076 10.4727C4.9182 10.4727 4.85938 10.5315 4.85938 10.604C4.85938 10.6766 4.9182 10.7354 4.99076 10.7354Z" fill="#007A3D"/>
<path id="Vector_6" d="M9.12988 7.41211C9.29412 7.49751 9.4255 7.62233 9.62915 7.67488C9.60287 7.75371 9.53061 7.78656 9.5109 7.87196V9.64567C9.73426 9.69166 9.78024 9.56684 9.88535 9.49458C9.9182 9.77706 10.0956 10.0595 10.089 10.2829H9.12988V7.41211Z" fill="#007A3D"/>
</g>
</g>
<defs>
<clipPath id="clip0_186_9854">
<rect width="18" height="18" fill="white"/>
</clipPath>
</defs>
</svg>
