<svg width="18" height="18" viewBox="0 0 18 18" fill="none" xmlns="http://www.w3.org/2000/svg">
<g id="ir" clip-path="url(#clip0_186_9862)">
<g id="Clip path group">
<mask id="mask0_186_9862" style="mask-type:luminance" maskUnits="userSpaceOnUse" x="-1" y="0" width="19" height="18">
<g id="ir-a">
<path id="Vector" d="M-0.000976562 0H17.9963V17.9972H-0.000976562V0Z" fill="white"/>
</g>
</mask>
<g mask="url(#mask0_186_9862)">
<g id="Group">
<path id="Vector_2" fill-rule="evenodd" clip-rule="evenodd" d="M-6.75 0H24.7488V17.9972H-6.75V0Z" fill="white"/>
<path id="Vector_3" fill-rule="evenodd" clip-rule="evenodd" d="M-6.75 12.0859H24.7488V18.0004H-6.75V12.0859Z" fill="#DA0000"/>
<g id="Group_2">
<path id="Vector_4" fill-rule="evenodd" clip-rule="evenodd" d="M-0.762695 12.3359H0.96446V12.4557H-0.762695V12.3359ZM-0.505073 12.931H-0.385334V13.0471H-0.508702L-0.505073 12.931ZM0.968088 12.9274V13.0471H0.623383V12.9274H0.968088ZM1.15314 12.3359H1.27288V13.0471H1.15314V12.3359Z" fill="white"/>
<path id="Vector_5" fill-rule="evenodd" clip-rule="evenodd" d="M1.83859 12.9281V13.0478H1.18546V12.9281H1.83859ZM0.623047 12.6523H0.742787V13.0478H0.623047V12.6523Z" fill="white"/>
<path id="Vector_6" fill-rule="evenodd" clip-rule="evenodd" d="M1.74095 12.3359H1.86069V13.0471H1.74458L1.74095 12.3359ZM1.44705 12.3359H1.56316V13.0471H1.45068L1.44705 12.3359ZM-0.127712 12.619V12.7387H-0.762695V12.619H-0.127712ZM1.25111 12.619V12.7387H0.623383V12.619H1.25111Z" fill="white"/>
<path id="Vector_7" fill-rule="evenodd" clip-rule="evenodd" d="M0.623047 12.6484H0.742787V13.0476H0.623047V12.6484Z" fill="white"/>
<path id="Vector_8" fill-rule="evenodd" clip-rule="evenodd" d="M0.623047 12.6484H0.742787V13.0476H0.623047V12.6484Z" fill="white"/>
<path id="Vector_9" fill-rule="evenodd" clip-rule="evenodd" d="M0.623383 12.6484H0.743123V13.0476H0.623383V12.6484ZM-0.755438 12.6484H-0.639327V13.0476H-0.762695L-0.755438 12.6484ZM0.253278 12.6484H0.373018V13.0476H0.253278V12.6484ZM-0.247452 12.6484H-0.127712V13.0476H-0.247452V12.6484Z" fill="white"/>
<path id="Vector_10" fill-rule="evenodd" clip-rule="evenodd" d="M0.337097 12.9276V13.0473H-0.196289V12.9276H0.337097ZM0.373382 12.6191V12.7389H0.0359332V12.6191H0.373382Z" fill="white"/>
</g>
<g id="Group_3">
<path id="Vector_11" fill-rule="evenodd" clip-rule="evenodd" d="M2.04883 12.3359H3.77235V12.4557H2.04883V12.3359ZM2.30282 12.931H2.42256V13.0471H2.30645L2.30282 12.931ZM3.77598 12.9274V13.0471H3.43128V12.9274H3.77598ZM3.96104 12.3359H4.08078V13.0471H3.96104V12.3359Z" fill="white"/>
<path id="Vector_12" fill-rule="evenodd" clip-rule="evenodd" d="M4.65081 12.9281V13.0478H3.99768V12.9281H4.65081ZM3.43164 12.6523H3.55138V13.0478H3.43164V12.6523Z" fill="white"/>
<path id="Vector_13" fill-rule="evenodd" clip-rule="evenodd" d="M4.55275 12.3359H4.67249V13.0471H4.55275V12.3359ZM4.25522 12.3359H4.37496V13.0471H4.25522V12.3359ZM2.68046 12.619V12.7387H2.05273V12.619H2.68046ZM4.05928 12.619V12.7387H3.43156V12.619H4.05928Z" fill="white"/>
<path id="Vector_14" fill-rule="evenodd" clip-rule="evenodd" d="M3.43164 12.6484H3.55138V13.0476H3.43164V12.6484Z" fill="white"/>
<path id="Vector_15" fill-rule="evenodd" clip-rule="evenodd" d="M3.43164 12.6484H3.55138V13.0476H3.43164V12.6484Z" fill="white"/>
<path id="Vector_16" fill-rule="evenodd" clip-rule="evenodd" d="M3.43156 12.6484H3.55129V13.0476H3.43156V12.6484ZM2.05273 12.6484H2.16885V13.0476H2.05273V12.6484ZM3.06508 12.6484H3.18119V13.0476H3.06508V12.6484ZM2.56072 12.6484H2.68046V13.0476H2.56072V12.6484Z" fill="white"/>
<path id="Vector_17" fill-rule="evenodd" clip-rule="evenodd" d="M3.14834 12.9276V13.0473H2.61133V12.9276H3.14834ZM3.18463 12.6191V12.7389H2.84355V12.6191H3.18463Z" fill="white"/>
</g>
<g id="Group_4">
<path id="Vector_18" fill-rule="evenodd" clip-rule="evenodd" d="M4.87598 12.3359H6.5995V12.4557H4.87598V12.3359ZM5.1336 12.931H5.25334V13.0471H5.1336V12.931ZM6.60676 12.9274V13.0471H6.26206V12.9274H6.60676ZM6.78818 12.3359H6.90792V13.0471H6.79181L6.78818 12.3359Z" fill="white"/>
<path id="Vector_19" fill-rule="evenodd" clip-rule="evenodd" d="M7.47726 12.9281V13.0478H6.82413V12.9281H7.47726ZM6.26172 12.6523H6.37783V13.0478H6.26172V12.6523Z" fill="white"/>
<path id="Vector_20" fill-rule="evenodd" clip-rule="evenodd" d="M7.3799 12.3359H7.49964V13.0471H7.3799V12.3359ZM7.086 12.3359H7.20211V13.0471H7.08237L7.086 12.3359ZM5.50761 12.619V12.7387H4.87988V12.619H5.50761ZM6.89006 12.619V12.7387H6.26233V12.619H6.89006Z" fill="white"/>
<path id="Vector_21" fill-rule="evenodd" clip-rule="evenodd" d="M6.26172 12.6484H6.37783V13.0476H6.26172V12.6484Z" fill="white"/>
<path id="Vector_22" fill-rule="evenodd" clip-rule="evenodd" d="M6.26172 12.6484H6.37783V13.0476H6.26172V12.6484Z" fill="white"/>
<path id="Vector_23" fill-rule="evenodd" clip-rule="evenodd" d="M6.26233 12.6484H6.37844V13.0476H6.26233V12.6484ZM4.87988 12.6484H4.99962V13.0476H4.87988V12.6484ZM5.89223 12.6484H6.01197V13.0476H5.89223V12.6484ZM5.3915 12.6484H5.51124V13.0476H5.3915V12.6484Z" fill="white"/>
<path id="Vector_24" fill-rule="evenodd" clip-rule="evenodd" d="M5.97577 12.9276V13.0473H5.44238V12.9276H5.97577ZM6.01205 12.6191V12.7389H5.67461V12.6191H6.01205Z" fill="white"/>
</g>
<g id="Group_5">
<path id="Vector_25" fill-rule="evenodd" clip-rule="evenodd" d="M7.71289 12.3359H9.44005V12.4557H7.71289V12.3359ZM7.97051 12.931H8.09025V13.0471H7.97051V12.931ZM9.44367 12.9274V13.0471H9.09897V12.9274H9.44367ZM9.62873 12.3359H9.74847V13.0471H9.62873V12.3359Z" fill="white"/>
<path id="Vector_26" fill-rule="evenodd" clip-rule="evenodd" d="M10.3142 12.9281V13.0478H9.66105V12.9281H10.3142ZM9.09863 12.6523H9.21837V13.0478H9.09863V12.6523Z" fill="white"/>
<path id="Vector_27" fill-rule="evenodd" clip-rule="evenodd" d="M10.2168 12.3359H10.3366V13.0471H10.2168V12.3359ZM9.92291 12.3359H10.039V13.0471H9.92291V12.3359ZM8.34815 12.619V12.7387H7.7168V12.619H8.34815ZM9.72697 12.619V12.7387H9.09925V12.619H9.72697Z" fill="white"/>
<path id="Vector_28" fill-rule="evenodd" clip-rule="evenodd" d="M9.09863 12.6484H9.21837V13.0476H9.09863V12.6484Z" fill="white"/>
<path id="Vector_29" fill-rule="evenodd" clip-rule="evenodd" d="M9.09863 12.6484H9.21837V13.0476H9.09863V12.6484Z" fill="white"/>
<path id="Vector_30" fill-rule="evenodd" clip-rule="evenodd" d="M9.09925 12.6484H9.21899V13.0476H9.09925V12.6484ZM7.72042 12.6484H7.83654V13.0476H7.7168L7.72042 12.6484ZM8.72914 12.6484H8.84888V13.0476H8.72914V12.6484ZM8.22841 12.6484H8.34815V13.0476H8.22841V12.6484Z" fill="white"/>
<path id="Vector_31" fill-rule="evenodd" clip-rule="evenodd" d="M8.81561 12.9276V13.0473H8.28223V12.9276H8.81561ZM8.84827 12.6191V12.7389H8.51082V12.6191H8.84827Z" fill="white"/>
</g>
<path id="Vector_32" fill-rule="evenodd" clip-rule="evenodd" d="M-6.75 0H24.7488V5.91442H-6.75V0Z" fill="#239F40"/>
<g id="Group_6">
<path id="Vector_33" fill-rule="evenodd" clip-rule="evenodd" d="M10.5684 12.3359H12.2919V12.4557H10.5684V12.3359ZM10.826 12.931H10.9457V13.0471H10.826V12.931ZM12.2991 12.9274V13.0471H11.9544V12.9274H12.2991ZM12.4806 12.3359H12.6039V13.0471H12.4806V12.3359Z" fill="white"/>
<path id="Vector_34" fill-rule="evenodd" clip-rule="evenodd" d="M13.1696 12.9281V13.0478H12.5165V12.9281H13.1696ZM11.9541 12.6523H12.0702V13.0478H11.9541V12.6523Z" fill="white"/>
<path id="Vector_35" fill-rule="evenodd" clip-rule="evenodd" d="M13.0723 12.3359H13.192V13.0471H13.0723V12.3359ZM12.7784 12.3359H12.8945V13.0471H12.7784V12.3359ZM11.2036 12.619V12.7387H10.5723V12.619H11.2036ZM12.5824 12.619V12.7387H11.9547V12.619H12.5824Z" fill="white"/>
<path id="Vector_36" fill-rule="evenodd" clip-rule="evenodd" d="M11.9541 12.6484H12.0702V13.0476H11.9541V12.6484Z" fill="white"/>
<path id="Vector_37" fill-rule="evenodd" clip-rule="evenodd" d="M11.9541 12.6484H12.0702V13.0476H11.9541V12.6484Z" fill="white"/>
<path id="Vector_38" fill-rule="evenodd" clip-rule="evenodd" d="M11.9547 12.6484H12.0708V13.0476H11.9547V12.6484ZM10.5723 12.6484H10.692V13.0476H10.5723V12.6484ZM11.5846 12.6484H11.7044V13.0476H11.5846V12.6484ZM11.0839 12.6484H11.2036V13.0476H11.0839V12.6484Z" fill="white"/>
<path id="Vector_39" fill-rule="evenodd" clip-rule="evenodd" d="M11.6682 12.9276V13.0473H11.1348V12.9276H11.6682ZM11.7044 12.6191V12.7389H11.367V12.6191H11.7044Z" fill="white"/>
</g>
<g id="Group_7">
<path id="Vector_40" fill-rule="evenodd" clip-rule="evenodd" d="M13.4062 12.3359H15.1334V12.4557H13.4062V12.3359ZM13.6639 12.931H13.7836V13.0471H13.6639V12.931ZM15.137 12.9274V13.0471H14.7923V12.9274H15.137ZM15.3221 12.3359H15.4418V13.0471H15.3221V12.3359Z" fill="white"/>
<path id="Vector_41" fill-rule="evenodd" clip-rule="evenodd" d="M16.0075 12.9281V13.0478H15.3544V12.9281H16.0075ZM14.792 12.6523H14.9117V13.0478H14.792V12.6523Z" fill="white"/>
<path id="Vector_42" fill-rule="evenodd" clip-rule="evenodd" d="M15.9138 12.3359H16.0299V13.0471H15.9138V12.3359ZM15.6163 12.3359H15.736V13.0471H15.6163V12.3359ZM14.0415 12.619V12.7387H13.4102V12.619H14.0415ZM15.4203 12.619V12.7387H14.7926V12.619H15.4203Z" fill="white"/>
<path id="Vector_43" fill-rule="evenodd" clip-rule="evenodd" d="M14.792 12.6484H14.9117V13.0476H14.792V12.6484Z" fill="white"/>
<path id="Vector_44" fill-rule="evenodd" clip-rule="evenodd" d="M14.792 12.6484H14.9117V13.0476H14.792V12.6484Z" fill="white"/>
<path id="Vector_45" fill-rule="evenodd" clip-rule="evenodd" d="M14.7926 12.6484H14.9123V13.0476H14.7926V12.6484ZM13.4138 12.6484H13.5299V13.0476H13.4102L13.4138 12.6484ZM14.4225 12.6484H14.5422V13.0476H14.4225V12.6484ZM13.9218 12.6484H14.0415V13.0476H13.9218V12.6484Z" fill="white"/>
<path id="Vector_46" fill-rule="evenodd" clip-rule="evenodd" d="M14.5053 12.9276V13.0473H13.9756V12.9276H14.5053ZM14.5416 12.6191V12.7389H14.2042V12.6191H14.5416Z" fill="white"/>
</g>
<g id="Group_8">
<path id="Vector_47" fill-rule="evenodd" clip-rule="evenodd" d="M16.2471 12.3359H17.9706V12.4557H16.2471V12.3359ZM16.5011 12.931H16.6208V13.0471H16.5011V12.931ZM17.9742 12.9274V13.0471H17.6331V12.9274H17.9742ZM18.1593 12.3359H18.279V13.0471H18.1593V12.3359Z" fill="white"/>
<path id="Vector_48" fill-rule="evenodd" clip-rule="evenodd" d="M18.8491 12.9281V13.0478H18.1959V12.9281H18.8491ZM17.6299 12.6523H17.7496V13.0478H17.6299V12.6523Z" fill="white"/>
<path id="Vector_49" fill-rule="evenodd" clip-rule="evenodd" d="M18.7507 12.3359H18.8705V13.0471H18.7507V12.3359ZM18.4532 12.3359H18.5729V13.0471H18.4532V12.3359ZM16.8784 12.619V12.7387H16.2471V12.619H16.8784ZM18.2572 12.619V12.7387H17.6331V12.619H18.2572Z" fill="white"/>
<path id="Vector_50" fill-rule="evenodd" clip-rule="evenodd" d="M17.6335 12.6484H17.7496V13.0476H17.6299L17.6335 12.6484Z" fill="white"/>
<path id="Vector_51" fill-rule="evenodd" clip-rule="evenodd" d="M17.6335 12.6484H17.7496V13.0476H17.6299L17.6335 12.6484Z" fill="white"/>
<path id="Vector_52" fill-rule="evenodd" clip-rule="evenodd" d="M17.6331 12.6484H17.7493V13.0476H17.6295L17.6331 12.6484ZM16.2471 12.6484H16.3668V13.0476H16.2471V12.6484ZM17.263 12.6484H17.3792V13.0476H17.2594L17.263 12.6484ZM16.7587 12.6484H16.8784V13.0476H16.7587V12.6484Z" fill="white"/>
<path id="Vector_53" fill-rule="evenodd" clip-rule="evenodd" d="M17.3432 12.9276V13.0473H16.8135V12.9276H17.3432ZM17.3795 12.6191V12.7389H17.0421V12.6191H17.3795Z" fill="white"/>
</g>
<g id="Group_9">
<path id="Vector_54" fill-rule="evenodd" clip-rule="evenodd" d="M-0.762695 5.04297H0.96446V5.15908H-0.762695V5.04297ZM-0.505073 5.63441H-0.385334V5.75052H-0.508702L-0.505073 5.63441ZM0.968088 5.63441V5.75052H0.623383V5.63078L0.968088 5.63441ZM1.15314 5.04297H1.27288V5.75052H1.15314V5.04297Z" fill="white"/>
<path id="Vector_55" fill-rule="evenodd" clip-rule="evenodd" d="M1.83859 5.63123V5.75097H1.18546V5.63123H1.83859ZM0.623047 5.35547H0.742787V5.7546H0.623047V5.35547Z" fill="white"/>
<path id="Vector_56" fill-rule="evenodd" clip-rule="evenodd" d="M1.74095 5.04297H1.86069V5.75052H1.74458L1.74095 5.04297ZM1.44705 5.04297H1.56316V5.75052H1.45068L1.44705 5.04297ZM-0.127712 5.32236V5.4421H-0.762695V5.32599L-0.127712 5.32236ZM1.25111 5.32236V5.4421H0.623383V5.32599L1.25111 5.32236Z" fill="white"/>
<path id="Vector_57" fill-rule="evenodd" clip-rule="evenodd" d="M0.623047 5.35547H0.742787V5.7546H0.623047V5.35547Z" fill="white"/>
<path id="Vector_58" fill-rule="evenodd" clip-rule="evenodd" d="M0.623047 5.35547H0.742787V5.7546H0.623047V5.35547Z" fill="white"/>
<path id="Vector_59" fill-rule="evenodd" clip-rule="evenodd" d="M0.623383 5.35547H0.743123V5.7546H0.623383V5.35547ZM-0.755438 5.35547H-0.639327V5.7546H-0.762695L-0.755438 5.35547ZM0.253278 5.35547H0.373018V5.7546H0.253278V5.35547ZM-0.247452 5.35547H-0.127712V5.7546H-0.247452V5.35547Z" fill="white"/>
<path id="Vector_60" fill-rule="evenodd" clip-rule="evenodd" d="M0.337097 5.63096V5.7507H-0.196289V5.63096H0.337097ZM0.373382 5.32617V5.44228H0.0359332V5.32617H0.373382Z" fill="white"/>
</g>
<g id="Group_10">
<path id="Vector_61" fill-rule="evenodd" clip-rule="evenodd" d="M2.04883 5.04297H3.77235V5.15908H2.04883V5.04297ZM2.30282 5.63441H2.42256V5.75052H2.30645L2.30282 5.63441ZM3.77598 5.63441V5.75052H3.43128V5.63078L3.77598 5.63441ZM3.96104 5.04297H4.08078V5.75052H3.96104V5.04297Z" fill="white"/>
<path id="Vector_62" fill-rule="evenodd" clip-rule="evenodd" d="M4.65081 5.63123V5.75097H3.99768V5.63123H4.65081ZM3.43164 5.35547H3.55138V5.7546H3.43164V5.35547Z" fill="white"/>
<path id="Vector_63" fill-rule="evenodd" clip-rule="evenodd" d="M4.55275 5.04297H4.67249V5.75052H4.55275V5.04297ZM4.25522 5.04297H4.37496V5.75052H4.25522V5.04297ZM2.68046 5.32236V5.4421H2.05273V5.32599L2.68046 5.32236ZM4.05928 5.32236V5.4421H3.43156V5.32599L4.05928 5.32236Z" fill="white"/>
<path id="Vector_64" fill-rule="evenodd" clip-rule="evenodd" d="M3.43164 5.35547H3.55138V5.7546H3.43164V5.35547Z" fill="white"/>
<path id="Vector_65" fill-rule="evenodd" clip-rule="evenodd" d="M3.43164 5.35547H3.55138V5.7546H3.43164V5.35547Z" fill="white"/>
<path id="Vector_66" fill-rule="evenodd" clip-rule="evenodd" d="M3.43156 5.35547H3.55129V5.7546H3.43156V5.35547ZM2.05273 5.35547H2.16885V5.7546H2.05273V5.35547ZM3.06508 5.35547H3.18119V5.7546H3.06508V5.35547ZM2.56072 5.35547H2.68046V5.7546H2.56072V5.35547Z" fill="white"/>
<path id="Vector_67" fill-rule="evenodd" clip-rule="evenodd" d="M3.14834 5.63096V5.7507H2.61133V5.63096H3.14834ZM3.18463 5.32617V5.44228H2.84355V5.32617H3.18463Z" fill="white"/>
</g>
<g id="Group_11">
<path id="Vector_68" fill-rule="evenodd" clip-rule="evenodd" d="M4.87598 5.04297H6.5995V5.15908H4.87598V5.04297ZM5.1336 5.63441H5.25334V5.75052H5.1336V5.63441ZM6.60676 5.63441V5.75052H6.26206V5.63078L6.60676 5.63441ZM6.78818 5.04297H6.90792V5.75052H6.79181L6.78818 5.04297Z" fill="white"/>
<path id="Vector_69" fill-rule="evenodd" clip-rule="evenodd" d="M7.47726 5.63123V5.75097H6.82413V5.63123H7.47726ZM6.26172 5.35547H6.37783V5.7546H6.26172V5.35547Z" fill="white"/>
<path id="Vector_70" fill-rule="evenodd" clip-rule="evenodd" d="M7.3799 5.04297H7.49964V5.75052H7.3799V5.04297ZM7.086 5.04297H7.20211V5.75052H7.08237L7.086 5.04297ZM5.50761 5.32236V5.4421H4.87988V5.32599L5.50761 5.32236ZM6.89006 5.32236V5.4421H6.26233V5.32599L6.89006 5.32236Z" fill="white"/>
<path id="Vector_71" fill-rule="evenodd" clip-rule="evenodd" d="M6.26172 5.35547H6.37783V5.7546H6.26172V5.35547Z" fill="white"/>
<path id="Vector_72" fill-rule="evenodd" clip-rule="evenodd" d="M6.26172 5.35547H6.37783V5.7546H6.26172V5.35547Z" fill="white"/>
<path id="Vector_73" fill-rule="evenodd" clip-rule="evenodd" d="M6.26233 5.35547H6.37844V5.7546H6.26233V5.35547ZM4.87988 5.35547H4.99962V5.7546H4.87988V5.35547ZM5.89223 5.35547H6.01197V5.7546H5.89223V5.35547ZM5.3915 5.35547H5.51124V5.7546H5.3915V5.35547Z" fill="white"/>
<path id="Vector_74" fill-rule="evenodd" clip-rule="evenodd" d="M5.97577 5.63096V5.7507H5.44238V5.63096H5.97577ZM6.01205 5.32617V5.44228H5.67461V5.32617H6.01205Z" fill="white"/>
</g>
<g id="Group_12">
<path id="Vector_75" fill-rule="evenodd" clip-rule="evenodd" d="M7.71289 5.04297H9.44005V5.15908H7.71289V5.04297ZM7.97051 5.63441H8.09025V5.75052H7.97051V5.63441ZM9.44367 5.63441V5.75052H9.09897V5.63078L9.44367 5.63441ZM9.62873 5.04297H9.74847V5.75052H9.62873V5.04297Z" fill="white"/>
<path id="Vector_76" fill-rule="evenodd" clip-rule="evenodd" d="M10.3142 5.63123V5.75097H9.66105V5.63123H10.3142ZM9.09863 5.35547H9.21837V5.7546H9.09863V5.35547Z" fill="white"/>
<path id="Vector_77" fill-rule="evenodd" clip-rule="evenodd" d="M10.2168 5.04297H10.3366V5.75052H10.2168V5.04297ZM9.92291 5.04297H10.039V5.75052H9.92291V5.04297ZM8.34815 5.32236V5.4421H7.7168V5.32599L8.34815 5.32236ZM9.72697 5.32236V5.4421H9.09925V5.32599L9.72697 5.32236Z" fill="white"/>
<path id="Vector_78" fill-rule="evenodd" clip-rule="evenodd" d="M9.09863 5.35547H9.21837V5.7546H9.09863V5.35547Z" fill="white"/>
<path id="Vector_79" fill-rule="evenodd" clip-rule="evenodd" d="M9.09863 5.35547H9.21837V5.7546H9.09863V5.35547Z" fill="white"/>
<path id="Vector_80" fill-rule="evenodd" clip-rule="evenodd" d="M9.09925 5.35547H9.21899V5.7546H9.09925V5.35547ZM7.72042 5.35547H7.83654V5.7546H7.7168L7.72042 5.35547ZM8.72914 5.35547H8.84888V5.7546H8.72914V5.35547ZM8.22841 5.35547H8.34815V5.7546H8.22841V5.35547Z" fill="white"/>
<path id="Vector_81" fill-rule="evenodd" clip-rule="evenodd" d="M8.81561 5.63096V5.7507H8.28223V5.63096H8.81561ZM8.84827 5.32617V5.44228H8.51082V5.32617H8.84827Z" fill="white"/>
</g>
<g id="Group_13">
<path id="Vector_82" fill-rule="evenodd" clip-rule="evenodd" d="M10.5684 5.04297H12.2919V5.15908H10.5684V5.04297ZM10.826 5.63441H10.9457V5.75052H10.826V5.63441ZM12.2991 5.63441V5.75052H11.9544V5.63078L12.2991 5.63441ZM12.4806 5.04297H12.6039V5.75052H12.4806V5.04297Z" fill="white"/>
<path id="Vector_83" fill-rule="evenodd" clip-rule="evenodd" d="M13.1696 5.63123V5.75097H12.5165V5.63123H13.1696ZM11.9541 5.35547H12.0702V5.7546H11.9541V5.35547Z" fill="white"/>
<path id="Vector_84" fill-rule="evenodd" clip-rule="evenodd" d="M13.0723 5.04297H13.192V5.75052H13.0723V5.04297ZM12.7784 5.04297H12.8945V5.75052H12.7784V5.04297ZM11.2036 5.32236V5.4421H10.5723V5.32599L11.2036 5.32236ZM12.5824 5.32236V5.4421H11.9547V5.32599L12.5824 5.32236Z" fill="white"/>
<path id="Vector_85" fill-rule="evenodd" clip-rule="evenodd" d="M11.9541 5.35547H12.0702V5.7546H11.9541V5.35547Z" fill="white"/>
<path id="Vector_86" fill-rule="evenodd" clip-rule="evenodd" d="M11.9541 5.35547H12.0702V5.7546H11.9541V5.35547Z" fill="white"/>
<path id="Vector_87" fill-rule="evenodd" clip-rule="evenodd" d="M11.9547 5.35547H12.0708V5.7546H11.9547V5.35547ZM10.5723 5.35547H10.692V5.7546H10.5723V5.35547ZM11.5846 5.35547H11.7044V5.7546H11.5846V5.35547ZM11.0839 5.35547H11.2036V5.7546H11.0839V5.35547Z" fill="white"/>
<path id="Vector_88" fill-rule="evenodd" clip-rule="evenodd" d="M11.6682 5.63096V5.7507H11.1348V5.63096H11.6682ZM11.7044 5.32617V5.44228H11.367V5.32617H11.7044Z" fill="white"/>
</g>
<g id="Group_14">
<path id="Vector_89" fill-rule="evenodd" clip-rule="evenodd" d="M13.4062 5.04297H15.1334V5.15908H13.4062V5.04297ZM13.6639 5.63441H13.7836V5.75052H13.6639V5.63441ZM15.137 5.63441V5.75052H14.7923V5.63078L15.137 5.63441ZM15.3221 5.04297H15.4418V5.75052H15.3221V5.04297Z" fill="white"/>
<path id="Vector_90" fill-rule="evenodd" clip-rule="evenodd" d="M16.0075 5.63123V5.75097H15.3544V5.63123H16.0075ZM14.792 5.35547H14.9117V5.7546H14.792V5.35547Z" fill="white"/>
<path id="Vector_91" fill-rule="evenodd" clip-rule="evenodd" d="M15.9138 5.04297H16.0299V5.75052H15.9138V5.04297ZM15.6163 5.04297H15.736V5.75052H15.6163V5.04297ZM14.0415 5.32236V5.4421H13.4102V5.32599L14.0415 5.32236ZM15.4203 5.32236V5.4421H14.7926V5.32599L15.4203 5.32236Z" fill="white"/>
<path id="Vector_92" fill-rule="evenodd" clip-rule="evenodd" d="M14.792 5.35547H14.9117V5.7546H14.792V5.35547Z" fill="white"/>
<path id="Vector_93" fill-rule="evenodd" clip-rule="evenodd" d="M14.792 5.35547H14.9117V5.7546H14.792V5.35547Z" fill="white"/>
<path id="Vector_94" fill-rule="evenodd" clip-rule="evenodd" d="M14.7926 5.35547H14.9123V5.7546H14.7926V5.35547ZM13.4138 5.35547H13.5299V5.7546H13.4102L13.4138 5.35547ZM14.4225 5.35547H14.5422V5.7546H14.4225V5.35547ZM13.9218 5.35547H14.0415V5.7546H13.9218V5.35547Z" fill="white"/>
<path id="Vector_95" fill-rule="evenodd" clip-rule="evenodd" d="M14.5053 5.63096V5.7507H13.9756V5.63096H14.5053ZM14.5416 5.32617V5.44228H14.2042V5.32617H14.5416Z" fill="white"/>
</g>
<g id="Group_15">
<path id="Vector_96" fill-rule="evenodd" clip-rule="evenodd" d="M16.2471 5.04297H17.9706V5.15908H16.2471V5.04297ZM16.5011 5.63441H16.6208V5.75052H16.5011V5.63441ZM17.9742 5.63441V5.75052H17.6331V5.63078L17.9742 5.63441ZM18.1593 5.04297H18.279V5.75052H18.1593V5.04297Z" fill="white"/>
<path id="Vector_97" fill-rule="evenodd" clip-rule="evenodd" d="M18.8491 5.63123V5.75097H18.1959V5.63123H18.8491ZM17.6299 5.35547H17.7496V5.7546H17.6299V5.35547Z" fill="white"/>
<path id="Vector_98" fill-rule="evenodd" clip-rule="evenodd" d="M18.7507 5.04297H18.8705V5.75052H18.7507V5.04297ZM18.4532 5.04297H18.5729V5.75052H18.4532V5.04297ZM16.8784 5.32236V5.4421H16.2471V5.32599L16.8784 5.32236ZM18.2572 5.32236V5.4421H17.6331V5.32599L18.2572 5.32236Z" fill="white"/>
<path id="Vector_99" fill-rule="evenodd" clip-rule="evenodd" d="M17.6335 5.35547H17.7496V5.7546H17.6299L17.6335 5.35547Z" fill="white"/>
<path id="Vector_100" fill-rule="evenodd" clip-rule="evenodd" d="M17.6335 5.35547H17.7496V5.7546H17.6299L17.6335 5.35547Z" fill="white"/>
<path id="Vector_101" fill-rule="evenodd" clip-rule="evenodd" d="M17.6331 5.35547H17.7493V5.7546H17.6295L17.6331 5.35547ZM16.2471 5.35547H16.3668V5.7546H16.2471V5.35547ZM17.263 5.35547H17.3792V5.7546H17.2594L17.263 5.35547ZM16.7587 5.35547H16.8784V5.7546H16.7587V5.35547Z" fill="white"/>
<path id="Vector_102" fill-rule="evenodd" clip-rule="evenodd" d="M17.3432 5.63096V5.7507H16.8135V5.63096H17.3432ZM17.3795 5.32617V5.44228H17.0421V5.32617H17.3795Z" fill="white"/>
</g>
<path id="Vector_103" fill-rule="evenodd" clip-rule="evenodd" d="M-2.42123 11.9375H-2.20715V12.3003H-2.42123V11.9375ZM3.22105 11.9375H3.43513V12.3003H3.22105V11.9375ZM-6.75 11.9375H-6.53955V12.3003H-6.75V11.9375ZM-3.88713 11.9375H-3.67305V12.3003H-3.88713V11.9375ZM-1.04241 11.9375H-0.831955V12.3003H-1.04241V11.9375ZM0.365442 11.9375H0.575894V12.3003H0.365442V11.9375ZM1.79869 11.9375H2.0164V12.3003H1.79869V11.9375ZM4.6289 11.9375H4.84298V12.3003H4.6289V11.9375ZM11.7697 11.9375H11.9802V12.3003H11.7697V11.9375ZM6.06578 11.9375H6.27986V12.3003H6.06578V11.9375ZM7.47363 11.9375H7.68771V12.3003H7.47363V11.9375ZM8.89599 11.9375H9.10644V12.3003H8.89599V11.9375ZM10.3184 11.9375H10.5288V12.3003H10.3184V11.9375ZM21.6755 11.9375H21.8932V12.3003H21.6755V11.9375ZM13.1486 11.9375H13.359V12.3003H13.1449L13.1486 11.9375ZM14.5818 11.9375H14.7959V12.3003H14.5818V11.9375ZM16.0332 11.9375H16.2473V12.3003H16.0332V11.9375ZM17.3975 11.9375H17.6116V12.3003H17.3975V11.9375ZM18.8489 11.9375H19.063V12.3003H18.8453L18.8489 11.9375ZM20.2713 11.9375H20.4817V12.3003H20.2713V11.9375ZM24.4803 11.9375H24.6907V12.3003H24.4767L24.4803 11.9375ZM23.116 11.9375H23.3264V12.3003H23.116V11.9375ZM-5.32401 11.9375H-5.10993V12.3003H-5.32401V11.9375Z" fill="#D90000"/>
<path id="Vector_104" fill-rule="evenodd" clip-rule="evenodd" d="M-2.42123 5.71875H-2.20715V6.08523H-2.42123V5.71875ZM3.22105 5.71875H3.43513V6.08523H3.22105V5.71875ZM-6.75 5.71875H-6.53955V6.08523H-6.75V5.71875ZM-3.88713 5.71875H-3.67305V6.08523H-3.88713V5.71875ZM-1.04241 5.71875H-0.831955V6.08523H-1.04241V5.71875ZM0.365442 5.71875H0.575894V6.08523H0.365442V5.71875ZM1.79869 5.71875H2.0164V6.08523H1.79869V5.71875ZM4.6289 5.71875H4.84298V6.08523H4.6289V5.71875ZM11.7697 5.71875H11.9802V6.08523H11.7697V5.71875ZM6.06578 5.71875H6.27986V6.08523H6.06578V5.71875ZM7.47363 5.71875H7.68771V6.08523H7.47363V5.71875ZM8.89599 5.71875H9.10644V6.08523H8.89599V5.71875ZM10.3184 5.71875H10.5288V6.08523H10.3184V5.71875ZM21.6755 5.71875H21.8932V6.08523H21.6755V5.71875ZM13.1486 5.71875H13.359V6.08523H13.1449L13.1486 5.71875ZM14.5818 5.71875H14.7959V6.08523H14.5818V5.71875ZM16.0332 5.71875H16.2473V6.08523H16.0332V5.71875ZM17.3975 5.71875H17.6116V6.08523H17.3975V5.71875ZM18.8489 5.71875H19.063V6.08523H18.8453L18.8489 5.71875ZM20.2713 5.71875H20.4817V6.08523H20.2713V5.71875ZM24.4803 5.71875H24.6907V6.08523H24.4767L24.4803 5.71875ZM23.116 5.71875H23.3264V6.08523H23.116V5.71875ZM-5.32401 5.71875H-5.10993V6.08523H-5.32401V5.71875Z" fill="#239E3F"/>
<g id="Group_16">
<path id="Vector_105" fill-rule="evenodd" clip-rule="evenodd" d="M9.83247 6.94336C10.1336 7.30621 11.048 9.32001 9.28094 10.6408C8.45002 11.2649 8.96526 11.2939 8.99066 11.4028C10.3259 10.6916 10.7614 9.73366 10.7505 8.87008C10.7396 8.01013 10.286 7.25178 9.83609 6.94336H9.83247Z" fill="#DA0000"/>
<path id="Vector_106" fill-rule="evenodd" clip-rule="evenodd" d="M10.0134 6.84961C10.3385 7.04872 10.6154 7.3175 10.824 7.63656C11.0327 7.95563 11.1679 8.31702 11.22 8.69468C11.2721 9.07233 11.2397 9.45683 11.1251 9.82045C11.0106 10.1841 10.8168 10.5177 10.5577 10.7974C11.5156 10.5869 12.7348 7.76036 10.0062 6.84961H10.0134ZM7.98513 6.84961C7.66003 7.04872 7.38318 7.3175 7.17453 7.63656C6.96589 7.95563 6.83065 8.31702 6.77859 8.69468C6.72652 9.07233 6.75892 9.45683 6.87344 9.82045C6.98797 10.1841 7.18177 10.5177 7.44086 10.7974C6.47931 10.5869 5.26014 7.76036 7.98513 6.84961Z" fill="#DA0000"/>
<path id="Vector_107" fill-rule="evenodd" clip-rule="evenodd" d="M8.16332 6.94336C7.86578 7.30621 6.94778 9.32001 8.71485 10.6408C9.54577 11.2649 9.03052 11.2939 9.00513 11.4028C7.67347 10.6916 7.23443 9.73366 7.24531 8.87008C7.2562 8.01013 7.71339 7.25178 8.16332 6.94336Z" fill="#DA0000"/>
<path id="Vector_108" fill-rule="evenodd" clip-rule="evenodd" d="M10.6917 11.2185C10.1175 11.2407 9.54609 11.1289 9.02261 10.8919C9.10244 11.0479 9.16775 11.1459 9.25121 11.3056C9.71565 11.3455 10.3579 11.3999 10.6917 11.2185ZM7.35352 11.2185C7.87602 11.2257 8.5364 11.1459 9.02261 10.8919C8.94279 11.0479 8.87748 11.1459 8.79402 11.3056C8.32958 11.3455 7.68734 11.3999 7.35352 11.2185ZM8.31143 6.3418C8.42029 6.62119 8.69605 6.66473 8.99359 6.49782C9.2113 6.62845 9.54511 6.6357 9.66123 6.35268C9.74831 7.04935 9.01536 6.88607 8.98996 6.75181C8.71782 7.01307 8.20984 6.86067 8.31143 6.3418Z" fill="#DA0000"/>
<path id="Vector_109" fill-rule="evenodd" clip-rule="evenodd" d="M9.01198 11.6576L9.28774 11.342L9.32402 7.1184L8.99746 6.82812L8.6709 7.10389L8.73621 11.3565L9.01198 11.6576Z" fill="#DA0000"/>
</g>
</g>
</g>
</g>
</g>
<defs>
<clipPath id="clip0_186_9862">
<rect width="18" height="18" fill="white"/>
</clipPath>
</defs>
</svg>
