<svg width="18" height="18" viewBox="0 0 18 18" fill="none" xmlns="http://www.w3.org/2000/svg">
<g id="ke" clip-path="url(#clip0_186_10153)">
<path id="Vector" d="M0 0H18V18H0V0Z" fill="white"/>
<path id="Vector_2" d="M0 0H18V5.4H0V0Z" fill="#000001"/>
<path id="Vector_3" d="M0 12.5996H18V17.9996H0V12.5996Z" fill="#006600"/>
<g id="ke-b">
<path id="Vector_4" d="M5.77539 14.343L5.97789 14.4555L11.2316 5.34297C11.5354 5.27547 11.7041 4.98297 11.8729 4.69047C11.9854 4.48797 12.4354 3.71172 12.6266 2.69922C12.0929 3.17351 11.6407 3.73218 11.2879 4.35297C11.1191 4.64547 10.9504 4.93797 11.0291 5.24172L5.77539 14.343Z" fill="black" stroke="black" stroke-width="3.2"/>
<path id="Vector_5" d="M5.77539 14.343L5.97789 14.4555L11.2316 5.34297C11.5354 5.27547 11.7041 4.98297 11.8729 4.69047C11.9854 4.48797 12.4354 3.71172 12.6266 2.69922C12.0929 3.17351 11.6407 3.73218 11.2879 4.35297C11.1191 4.64547 10.9504 4.93797 11.0291 5.24172L5.77539 14.343Z" fill="white"/>
</g>
<g id="ke-b_2">
<path id="Vector_6" d="M12.2139 14.343L12.0114 14.4555L6.75762 5.34297C6.45387 5.27547 6.28512 4.98297 6.11637 4.69047C6.00387 4.48797 5.55387 3.71172 5.36262 2.69922C5.89634 3.17351 6.34861 3.73218 6.70137 4.35297C6.87012 4.64547 7.03887 4.93797 6.96012 5.24172L12.2139 14.343Z" fill="black" stroke="black" stroke-width="3.2"/>
<path id="Vector_7" d="M12.2139 14.343L12.0114 14.4555L6.75762 5.34297C6.45387 5.27547 6.28512 4.98297 6.11637 4.69047C6.00387 4.48797 5.55387 3.71172 5.36262 2.69922C5.89634 3.17351 6.34861 3.73218 6.70137 4.35297C6.87012 4.64547 7.03887 4.93797 6.96012 5.24172L12.2139 14.343Z" fill="white"/>
</g>
<path id="Vector_8" d="M8.99297 3.59961C8.31797 3.59961 7.19297 5.39961 6.85547 6.29961H0V11.6996H6.85547C7.19648 12.5996 8.32148 14.3996 8.99648 14.3996C9.67148 14.3996 10.7965 12.5996 11.134 11.6996H18V6.29961H11.1305C10.793 5.39961 9.66797 3.59961 8.99297 3.59961Z" fill="#BB0000"/>
<path id="ke-c" d="M11.1309 11.7008C11.4786 10.8417 11.6691 9.92721 11.6934 9.00078C11.6691 8.07435 11.4786 7.15981 11.1309 6.30078C10.7831 7.15981 10.5926 8.07435 10.5684 9.00078C10.5926 9.92721 10.7831 10.8417 11.1309 11.7008Z" fill="black"/>
<path id="ke-c_2" d="M6.85938 11.7008C6.51163 10.8417 6.3211 9.92721 6.29688 9.00078C6.3211 8.07435 6.51163 7.15981 6.85938 6.30078C7.20712 7.15981 7.39765 8.07435 7.42188 9.00078C7.39765 9.92721 7.20712 10.8417 6.85938 11.7008Z" fill="black"/>
<g id="Group">
<path id="Vector_9" d="M8.99297 9.67617C9.2415 9.67617 9.44297 9.37396 9.44297 9.00117C9.44297 8.62838 9.2415 8.32617 8.99297 8.32617C8.74444 8.32617 8.54297 8.62838 8.54297 9.00117C8.54297 9.37396 8.74444 9.67617 8.99297 9.67617Z" fill="white"/>
<path id="ke-d" d="M9.10547 9.65234C9.10547 9.65234 9.55547 10.5523 9.55547 12.0148C9.55547 13.4773 9.10547 14.3773 9.10547 14.3773V9.65234Z" fill="white"/>
<path id="ke-d_2" d="M8.88086 8.34766C8.88086 8.34766 8.43086 7.44766 8.43086 5.98516C8.43086 4.52266 8.88086 3.62266 8.88086 3.62266V8.34766Z" fill="white"/>
<path id="ke-d_3" d="M8.88086 9.65234C8.88086 9.65234 8.43086 10.5523 8.43086 12.0148C8.43086 13.4773 8.88086 14.3773 8.88086 14.3773V9.65234Z" fill="white"/>
<path id="ke-d_4" d="M9.10547 8.34766C9.10547 8.34766 9.55547 7.44766 9.55547 5.98516C9.55547 4.52266 9.10547 3.62266 9.10547 3.62266V8.34766Z" fill="white"/>
</g>
</g>
<defs>
<clipPath id="clip0_186_10153">
<rect width="18" height="18" fill="white"/>
</clipPath>
</defs>
</svg>
