<svg width="18" height="18" viewBox="0 0 18 18" fill="none" xmlns="http://www.w3.org/2000/svg">
<g id="kg" clip-path="url(#clip0_186_10172)">
<g id="Clip path group">
<mask id="mask0_186_10172" style="mask-type:luminance" maskUnits="userSpaceOnUse" x="-1" y="0" width="19" height="19">
<g id="kg-a">
<path id="Vector" d="M-0.00292969 0H17.9988V18.0017H0.00139447L-0.00292969 0Z" fill="white"/>
</g>
</mask>
<g mask="url(#mask0_186_10172)">
<g id="Group">
<path id="Vector_2" fill-rule="evenodd" clip-rule="evenodd" d="M-4.5 0H22.5264V18.0017H-4.5V0Z" fill="#FF0000"/>
<path id="Vector_3" fill-rule="evenodd" clip-rule="evenodd" d="M3.70745 9.18079C4.18744 8.59702 5.18201 9.16782 5.99496 8.74837C5.03066 8.80026 4.50743 8.28568 3.74637 8.35919C4.53338 7.87488 5.20363 8.51486 6.08577 8.25541C4.91823 8.16028 4.97012 7.63705 3.91069 7.56353C4.85337 7.16138 5.31606 7.97866 6.24144 7.79272C5.15174 7.54191 5.00904 6.90193 4.20041 6.76355C5.38092 6.58626 5.30309 7.28246 6.46198 7.36894C5.28579 6.86734 5.59713 6.42627 4.61121 6.04573C5.71389 6.01979 5.64038 6.78085 6.7517 6.97977C5.80037 6.37437 5.91712 5.82087 5.13012 5.38845C6.06415 5.40575 6.15496 6.3614 7.10628 6.65545C6.25874 5.98519 6.47927 5.4144 5.74848 4.81333C6.67386 5.02954 6.53981 5.85547 7.50411 6.3787C6.79062 5.58737 7.06304 5.01657 6.44036 4.36361C7.33114 4.65334 6.99386 5.43602 7.91924 6.17978C7.38736 5.30629 7.716 4.74847 7.19277 4.00903C8.02302 4.44145 7.62087 5.23711 8.39058 6.03276C8.02734 5.13765 8.39058 4.57982 8.0187 3.78417C8.72787 4.31605 8.30842 5.16792 8.87921 5.98519C8.67165 4.8609 9.15596 4.67496 9.00462 3.69336C9.54082 4.35496 8.93975 5.01657 9.35055 5.98519C9.30731 4.88252 9.89108 4.62307 9.7873 3.7366C10.3235 4.53226 9.48893 5.22413 9.83919 6.076C9.92568 5.02522 10.6176 4.75712 10.6305 3.93984C11.05 4.68793 10.1332 5.22846 10.2846 6.22303C10.583 5.12468 11.3181 4.99063 11.4089 4.25118C11.6597 5.11603 10.6565 5.5225 10.717 6.48248C11.0154 5.50953 11.9321 5.39278 12.1224 4.67496C12.2348 5.59169 11.331 5.75601 11.0802 6.76788C11.5559 5.94628 12.3862 5.87277 12.758 5.21981C12.7278 6.12789 11.7073 6.24465 11.3959 7.09652C11.984 6.37438 12.7191 6.49978 13.3072 5.85979C13.2467 6.68139 12.2089 6.63383 11.6554 7.48137C12.2953 6.89328 13.2553 7.07057 13.744 6.56464C13.718 7.28679 12.4467 7.23489 11.8413 7.8792C12.5851 7.47705 13.5234 7.71488 14.0683 7.33435C13.9645 7.97001 12.624 7.82731 11.9754 8.32027C12.8618 8.07379 13.545 8.45 14.2672 8.17757C13.9169 8.79594 12.6975 8.40676 12.0489 8.80891C12.8186 8.67918 13.6359 9.14187 14.3364 8.99485C14.1072 9.52673 12.771 8.96026 12.0445 9.29755C12.9094 9.28457 13.4715 9.83807 14.2672 9.79916C13.8348 10.2835 12.6586 9.61754 11.9754 9.72997C12.8099 9.90294 13.4456 10.5948 14.0813 10.6294C13.5623 11.0272 12.5894 10.1191 11.7981 10.2359C12.611 10.4521 13.2942 11.3775 13.7613 11.3991C13.2596 11.7451 12.2651 10.6078 11.5862 10.6467C12.4078 11.0229 12.7883 11.9656 13.3332 12.0996C12.6629 12.3159 12.0013 11.0748 11.2792 11.0316C12.1137 11.5591 12.1613 12.3634 12.8056 12.718C12.131 12.891 11.6467 11.4856 10.9332 11.3688C11.6208 11.8705 11.7202 12.9472 12.1786 13.2888C11.4867 13.3234 11.2402 11.8575 10.5354 11.6456C11.1408 12.1515 10.9938 13.2456 11.4608 13.7169C10.7473 13.5699 10.8381 12.2899 10.09 11.8575C10.6262 12.5407 10.3494 13.505 10.704 14.0499C10.0035 13.7688 10.3105 12.6229 9.64028 11.9742C10.0035 12.7007 9.61433 13.5439 9.89973 14.2445C9.26407 13.9331 9.69217 12.5796 9.20353 12.0391C9.42839 12.878 9.01327 13.5699 9.18191 14.318C8.52895 13.5612 9.28137 12.8045 8.71489 12.0261C8.86192 12.9169 8.24355 13.531 8.34301 14.2747C7.82411 13.6693 8.61976 12.6964 8.21761 11.9353C8.30409 12.8045 7.50411 13.5656 7.56033 14.1147C7.14088 13.4142 8.02734 12.584 7.78951 11.784C7.73762 12.6142 6.93332 13.0639 6.78197 13.8164C6.50954 12.9861 7.46952 12.385 7.38736 11.5678C7.11061 12.3461 6.33225 12.6575 6.0555 13.4099C5.83064 12.5796 6.96791 12.1386 6.99818 11.2651C6.64792 12.0867 5.71389 12.264 5.40687 12.891C5.29011 12.0694 6.59603 11.6975 6.64359 10.9148C6.22415 11.6672 5.20363 11.6932 4.84904 12.2942C4.79715 11.4726 6.17225 11.3688 6.38847 10.5083C5.96902 11.1483 4.84904 11.0705 4.38635 11.5894C4.45986 10.824 5.94307 10.7764 6.1809 10.0932C5.6274 10.6251 4.60256 10.4045 4.01879 10.8283C4.34311 10.0759 5.73983 10.2359 6.05118 9.69105C5.43714 10.0154 4.34311 9.70402 3.80258 10.024C4.29554 9.31484 5.38092 9.73862 5.99496 9.24566C4.99607 9.39268 4.395 8.99485 3.70312 9.18079H3.70745Z" fill="#FFFF00"/>
<path id="Vector_4" fill-rule="evenodd" clip-rule="evenodd" d="M12.5113 9.00354C12.5278 9.47186 12.4498 9.9387 12.282 10.3762C12.1141 10.8137 11.8599 11.213 11.5344 11.5501C11.209 11.8872 10.8189 12.1554 10.3876 12.3385C9.95623 12.5216 9.49243 12.616 9.02382 12.616C8.55522 12.616 8.09141 12.5216 7.66007 12.3385C7.22873 12.1554 6.8387 11.8872 6.51322 11.5501C6.18775 11.213 5.93352 10.8137 5.76568 10.3762C5.59785 9.9387 5.51985 9.47186 5.53634 9.00354C5.56817 8.09986 5.94953 7.24381 6.60009 6.61576C7.25064 5.98772 8.11958 5.63672 9.02382 5.63672C9.92807 5.63672 10.797 5.98772 11.4476 6.61576C12.0981 7.24381 12.4795 8.09986 12.5113 9.00354Z" fill="#FFFF00"/>
<path id="Vector_5" fill-rule="evenodd" clip-rule="evenodd" d="M12.0616 9.01195C12.0616 9.41003 11.9832 9.8042 11.8308 10.172C11.6785 10.5397 11.4552 10.8739 11.1737 11.1554C10.8923 11.4369 10.5581 11.6602 10.1903 11.8125C9.82255 11.9648 9.42837 12.0432 9.0303 12.0432C8.63223 12.0432 8.23805 11.9648 7.87028 11.8125C7.50251 11.6602 7.16834 11.4369 6.88686 11.1554C6.60538 10.8739 6.3821 10.5397 6.22977 10.172C6.07743 9.8042 5.99902 9.41003 5.99902 9.01195C5.99902 8.20744 6.31862 7.43587 6.8875 6.86699C7.45638 6.29811 8.22795 5.97852 9.03246 5.97852C9.83698 5.97852 10.6085 6.29811 11.1774 6.86699C11.7463 7.43587 12.0659 8.20744 12.0659 9.01195H12.0616Z" fill="#FF0000"/>
<path id="Vector_6" fill-rule="evenodd" clip-rule="evenodd" d="M11.6423 9.0155C11.6423 9.70648 11.3678 10.3692 10.8792 10.8578C10.3906 11.3463 9.72796 11.6208 9.03698 11.6208C8.346 11.6208 7.68332 11.3463 7.19473 10.8578C6.70613 10.3692 6.43164 9.70648 6.43164 9.0155C6.43164 8.32452 6.70613 7.66184 7.19473 7.17324C7.68332 6.68465 8.346 6.41016 9.03698 6.41016C9.72796 6.41016 10.3906 6.68465 10.8792 7.17324C11.3678 7.66184 11.6423 8.32452 11.6423 9.0155Z" fill="#FFFF00"/>
<path id="Vector_7" fill-rule="evenodd" clip-rule="evenodd" d="M6.82041 7.30811C7.54255 7.29514 8.43767 7.36 9.03009 7.83566C9.66466 7.43845 10.4122 7.2607 11.1576 7.32973L11.5468 8.0389C10.9846 7.98269 10.4355 8.06052 9.78682 8.3243C10.1811 8.61516 10.498 8.99826 10.7098 9.44003C10.9217 9.8818 11.022 10.3688 11.0019 10.8583C10.9068 10.9794 10.7598 11.1091 10.6646 11.2259C10.803 10.227 10.2755 9.10698 9.50575 8.51889C10.1284 9.42265 10.5003 10.2313 10.3965 11.3513L10.042 11.5718C10.2063 10.5859 9.97709 9.4313 9.2463 8.76105C9.52549 9.1738 9.7204 9.63763 9.81983 10.1259C9.91927 10.6142 9.92128 11.1173 9.82574 11.6064C9.71331 11.641 9.54034 11.7361 9.42359 11.7707C9.56153 11.309 9.59895 10.8231 9.53331 10.3457C9.46767 9.86832 9.3005 9.41054 9.04306 9.0032C8.79047 9.4078 8.62703 9.8616 8.56365 10.3343C8.50027 10.8071 8.5384 11.2879 8.6755 11.7448L8.30362 11.6367C8.1047 10.5772 8.38145 9.38806 8.86144 8.76537C8.3728 9.05077 7.91011 10.2659 8.03984 11.5069L7.7112 11.3556C7.5512 10.4302 7.97065 9.22374 8.57604 8.52754C7.89282 8.95996 7.33499 10.0151 7.43445 11.1523C7.33067 11.0615 7.23121 11.014 7.12743 10.9232C7.00635 9.92858 7.58147 8.92969 8.25173 8.32862C7.69782 8.09402 7.09601 7.99471 6.49609 8.0389C6.6042 7.80972 6.7123 7.54162 6.82041 7.31243V7.30811Z" fill="#FF0000"/>
</g>
</g>
</g>
</g>
<defs>
<clipPath id="clip0_186_10172">
<rect width="18" height="18" fill="white"/>
</clipPath>
</defs>
</svg>
