<svg width="18" height="18" viewBox="0 0 18 18" fill="none" xmlns="http://www.w3.org/2000/svg">
<g id="kh" clip-path="url(#clip0_186_10183)">
<path id="Vector" d="M0 0H18V18H0V0Z" fill="#032EA1"/>
<path id="Vector_2" d="M0 4.5H18V13.5H0V4.5Z" fill="#E00025"/>
<g id="Group">
<g id="Group_2">
<path id="Vector_3" d="M6.46582 8.48633H11.5868V10.4573H6.46582V8.48633Z" fill="white" stroke="black" stroke-width="1.28" stroke-linejoin="bevel"/>
<path id="Vector_4" d="M11.3258 9.57012H11.4833V10.3126H11.3258V9.57012ZM6.46582 9.20562H11.5868V9.43062H6.46582V9.20562ZM6.46582 8.89062H11.5868V9.09762H6.46582V8.89062Z" fill="white" stroke="black" stroke-width="1.28" stroke-linejoin="bevel"/>
<path id="Vector_5" d="M6.46582 8.58594H11.5868V8.77944H6.46582V8.58594Z" fill="white" stroke="black" stroke-width="1.152" stroke-linejoin="bevel"/>
<path id="Vector_6" d="M7.81574 9.57031H7.97774V10.3128H7.81574V9.57031ZM10.0207 9.57031H10.1827V10.3128H10.0207V9.57031ZM6.51074 9.57031H6.66824V10.3128H6.51074V9.57031ZM6.82574 9.57031H6.98324V10.3128H6.82574V9.57031ZM7.16324 9.57031H7.32074V10.3128H7.16324V9.57031ZM7.50074 9.57031H7.65824V10.3128H7.50074V9.57031ZM10.3267 9.57031H10.4887V10.3128H10.3267V9.57031ZM10.6642 9.57031H10.8262V10.3128H10.6642V9.57031ZM11.0017 9.57031H11.1637V10.3128H11.0017V9.57031Z" fill="white" stroke="black" stroke-width="1.28" stroke-linejoin="bevel"/>
<path id="Vector_7" d="M4.46289 10.5569C4.55699 10.5056 4.62785 10.4203 4.66089 10.3184H13.3504C13.3834 10.4203 13.4543 10.5056 13.5484 10.5569H4.46289Z" fill="white" stroke="black" stroke-width="1.28"/>
</g>
<path id="Vector_8" d="M8.89555 5.48392C8.89555 5.48392 8.89105 5.29942 8.99905 5.29492C9.10255 5.29492 9.09805 5.48392 9.09805 5.48392H8.89555ZM8.33305 7.93642V7.68892C8.33305 7.56292 8.20705 7.55392 8.20705 7.46392C8.20705 7.46392 8.18905 7.32892 8.22505 7.26592C8.27455 7.44592 8.36005 7.41442 8.36005 7.33792C8.36005 7.27492 8.31505 7.21192 8.21155 7.05442C8.17555 7.00492 8.19805 6.84742 8.24305 6.78892C8.26105 6.92392 8.28355 6.99142 8.34205 6.99142C8.37805 6.99142 8.40505 6.96892 8.40505 6.90142C8.40505 6.81142 8.34655 6.76642 8.31505 6.68542C8.29954 6.64511 8.29595 6.60119 8.30473 6.5589C8.31351 6.5166 8.33427 6.47773 8.36455 6.44692C8.38705 6.58192 8.38255 6.63592 8.44105 6.63592C8.56255 6.59542 8.44105 6.41992 8.41405 6.37492C8.38705 6.32542 8.45905 6.22192 8.45905 6.22192C8.49505 6.34342 8.50405 6.35242 8.54905 6.33892C8.60305 6.32542 8.59405 6.24892 8.53105 6.18592C8.49055 6.14092 8.49505 6.08242 8.54005 6.03742C8.58505 6.12292 8.63905 6.11842 8.64355 6.06442L8.60755 5.86642H9.39055L9.35005 6.05992C9.34105 6.11392 9.41305 6.12742 9.45805 6.03742C9.50305 6.08242 9.50755 6.14542 9.46705 6.18592C9.40405 6.24892 9.39505 6.32542 9.44905 6.33892C9.49405 6.35242 9.50305 6.33892 9.53905 6.22192C9.53905 6.22192 9.60655 6.28942 9.58405 6.37492C9.55705 6.41992 9.43555 6.59992 9.55705 6.63592C9.61555 6.63592 9.61105 6.58192 9.63355 6.44692C9.66306 6.47822 9.68299 6.51732 9.69096 6.55959C9.69894 6.60186 9.69463 6.64553 9.67855 6.68542C9.65155 6.76642 9.58855 6.81142 9.58855 6.90142C9.58855 6.96892 9.62005 6.99142 9.65605 6.99142C9.71455 6.99142 9.73705 6.92842 9.75505 6.78892C9.80005 6.84742 9.82255 7.00492 9.78655 7.05892C9.68305 7.21192 9.63355 7.27492 9.63355 7.33792C9.63355 7.41442 9.72355 7.44592 9.76855 7.26592C9.80905 7.32892 9.79105 7.46392 9.79105 7.46392C9.79105 7.55392 9.66955 7.56292 9.66505 7.68892V7.93642H8.33305ZM8.65705 5.86642L8.63905 5.72692H9.35455L9.33655 5.86642H8.65705ZM8.70205 5.72242L8.69305 5.60992H9.30055L9.28705 5.72242H8.70205ZM8.80555 5.60542L8.79205 5.48842H9.19705L9.19255 5.60542H8.80555ZM10.2905 10.5554C10.2005 10.5239 10.0655 10.4249 10.0655 10.3304V9.23692L10.1825 9.08392H7.81555L7.92805 9.23692V10.3304C7.92805 10.4249 7.83805 10.5239 7.74805 10.5554H10.2905Z" fill="white" stroke="black" stroke-width="1.28"/>
<path id="Vector_9" d="M8.22949 9.57031H8.39149V10.3128H8.22949V9.57031ZM9.59749 9.57031H9.75949V10.3128H9.59749V9.57031Z" fill="white" stroke="black" stroke-width="1.28" stroke-linejoin="bevel"/>
<path id="Vector_10" d="M7.77013 7.8418V9.0838H10.2001V7.8418C10.172 7.85205 10.1468 7.86882 10.1265 7.89072C10.1061 7.91262 10.0913 7.93904 10.0831 7.9678V8.4988H7.89163V7.9678C7.89163 7.9678 7.86462 7.8778 7.76562 7.8418H7.77013Z" fill="white" stroke="black" stroke-width="1.28"/>
<path id="Vector_11" d="M9.86782 10.5551C9.78682 10.5236 9.61582 10.4246 9.61582 10.3301V9.10612C9.63382 9.03862 9.72382 8.99813 9.78232 8.95312H8.17582C8.25232 8.99813 8.33782 9.02962 8.36932 9.10612V10.3301C8.36932 10.4246 8.23432 10.5236 8.15332 10.5551H9.86782Z" fill="white" stroke="black" stroke-width="1.28"/>
<path id="Vector_12" d="M10.0831 8.9675V8.0855H9.8626V8H8.1166V8.09H7.8916V8.9675H10.0831ZM9.5251 10.556C9.4441 10.5245 9.3316 10.4255 9.3316 10.331V9.287L9.3946 9.1925H8.5981L8.6656 9.2825V10.331C8.6656 10.4255 8.5486 10.5245 8.4721 10.556H9.5251Z" fill="white" stroke="black" stroke-width="1.28"/>
<path id="Vector_13" d="M8.79199 9.19141H9.19699V10.5549H8.79199V9.19141Z" fill="white" stroke="black" stroke-width="1.28"/>
<path id="Vector_14" d="M9.40857 8.88975C9.40857 8.79975 9.66957 8.79525 9.80457 8.71875H8.18457C8.31957 8.79525 8.57607 8.79975 8.57607 8.88975L8.63007 9.06525L9.30507 9.09225L9.40857 8.88975Z" fill="white" stroke="black" stroke-width="1.28" stroke-linejoin="bevel"/>
<path id="Vector_15" d="M9.72298 7.93736C9.72298 7.71686 9.73198 7.63586 9.79948 7.63586V8.32886C9.63298 8.39186 9.51598 8.59886 9.51598 8.59886H8.47198C8.47198 8.59886 8.35498 8.39186 8.18848 8.32886V7.63136C8.26948 7.63136 8.26948 7.72136 8.26948 7.93286L9.72298 7.93736ZM9.79948 7.84736C9.79948 7.59536 10.02 7.56836 10.02 7.56836V7.79336C9.93448 7.78886 9.89398 7.86536 9.89398 7.97336C9.89398 8.08586 9.96148 8.08586 9.96148 8.08586V8.72486H9.79948V7.84736Z" fill="white" stroke="black" stroke-width="1.28"/>
<path id="Vector_16" d="M8.18925 7.84736C8.18925 7.59536 7.96875 7.56836 7.96875 7.56836V7.79336C8.05425 7.78886 8.09475 7.86536 8.09475 7.97336C8.09475 8.08586 8.02725 8.08586 8.02725 8.08586V8.72486H8.18925V7.84736Z" fill="white" stroke="black" stroke-width="1.28"/>
<g id="Group_3">
<path id="Vector_17" d="M8.61655 6.10547H9.39055M8.52655 6.34847H9.47155M8.43655 6.64097H9.55705M8.34205 6.99647H9.66955M8.31055 7.40147H9.67855" stroke="black" stroke-width="1.024"/>
<path id="Vector_18" d="M7.89648 8.73438H10.0835M8.58948 8.73438H9.39948V9.03137H8.58948V8.73438Z" stroke="black" stroke-width="1.28"/>
</g>
<path id="Vector_19" d="M8.49023 8.06694C8.62523 8.22894 8.60723 8.50344 8.60723 8.66544H9.39023C9.39023 8.50344 9.37223 8.22894 9.50723 8.06694H8.49023ZM8.92673 6.22194L8.81873 6.16344V6.00594C8.86373 6.01944 8.90873 6.02394 8.91773 6.09594C8.93123 5.99244 8.96273 6.00144 9.00323 5.96094C9.04823 6.00144 9.07073 5.99244 9.08873 6.09594C9.08873 6.02394 9.14273 6.01944 9.18323 6.00594V6.16344L9.07973 6.21744L8.92673 6.22194Z" fill="white" stroke="black" stroke-width="1.28"/>
<path id="Vector_20" d="M8.91828 6.47761L8.73828 6.35161V6.21211C8.80578 6.22561 8.87328 6.23461 8.88228 6.31111C8.90028 6.19861 8.94078 6.14461 9.00378 6.09961C9.06228 6.14461 9.10278 6.19861 9.12528 6.31111C9.12978 6.23461 9.20178 6.22561 9.26028 6.21211V6.35611L9.08478 6.47761H8.91828Z" fill="white" stroke="black" stroke-width="1.28"/>
<path id="Vector_21" d="M8.90463 6.87831L8.70213 6.69831V6.48681C8.77413 6.50481 8.85513 6.51381 8.86413 6.62631C8.88663 6.46881 8.93163 6.38331 8.99913 6.32031C9.07113 6.38331 9.11613 6.46881 9.14313 6.62631C9.15213 6.51381 9.23313 6.50481 9.30513 6.48681V6.69831L9.09813 6.87831H8.90463ZM9.28263 7.11681L9.10263 7.37331H8.89113L8.70663 7.11681H9.28263ZM8.59863 7.54431C8.68863 7.59381 8.72463 7.69731 8.73363 7.88631H9.25563C9.26463 7.69731 9.30063 7.59381 9.39063 7.54431H8.59863Z" fill="white" stroke="black" stroke-width="1.28"/>
<path id="Vector_22" d="M9.39984 7.11295V6.86095C9.3611 6.86921 9.32509 6.88716 9.29518 6.91314C9.26527 6.93911 9.24245 6.97225 9.22884 7.00945C9.22884 6.91945 9.11634 6.72595 8.99484 6.62695C8.87334 6.73495 8.75634 6.91495 8.76084 7.00495C8.73834 6.93745 8.67984 6.88345 8.58984 6.86095V7.11745L9.39984 7.11295Z" fill="white" stroke="black" stroke-width="1.28" stroke-linejoin="bevel"/>
<path id="Vector_23" d="M9.43571 7.54459V7.29259C9.34121 7.31959 9.27821 7.36909 9.25121 7.44109C9.25121 7.35109 9.12971 7.15759 8.99471 7.05859C8.85971 7.17109 8.73371 7.34659 8.73821 7.44109C8.71571 7.37359 8.64821 7.31959 8.55371 7.29259V7.54909L9.43571 7.54459Z" fill="white" stroke="black" stroke-width="1.28" stroke-linejoin="bevel"/>
<path id="Vector_24" d="M9.54391 8.07234V7.77534C9.4502 7.80461 9.36925 7.86492 9.31441 7.94634C9.31441 7.78884 9.13441 7.54134 8.99491 7.46484C8.85091 7.54584 8.67541 7.79784 8.67541 7.94634C8.61916 7.86436 8.53661 7.80403 8.44141 7.77534V8.07234H9.54391Z" fill="white" stroke="black" stroke-width="1.28" stroke-linejoin="bevel"/>
<path id="Vector_25" d="M9.48079 8.73306V8.42706C9.37279 8.46756 9.34579 8.56656 9.30979 8.63856C9.32329 8.32806 9.13879 7.99956 8.99479 7.91406C8.85079 7.99956 8.66179 8.33706 8.67979 8.63406C8.64379 8.57106 8.61229 8.46756 8.50879 8.42706V8.72856L9.48079 8.73306Z" fill="white" stroke="black" stroke-width="1.28" stroke-linejoin="bevel"/>
<path id="Vector_26" d="M9.40808 9.19097V8.88497C9.29558 8.91197 9.29108 8.95247 9.25508 9.01997C9.26858 8.83547 9.13808 8.62397 8.99408 8.54297C8.85008 8.62397 8.72408 8.83547 8.73308 9.01997C8.69708 8.95247 8.69258 8.91197 8.58008 8.88497V9.19097H9.40808Z" fill="white" stroke="black" stroke-width="1.28"/>
<g id="kh-a">
<path id="Vector_27" d="M4.66501 10.3167V9.3987C4.63351 9.2817 4.53001 9.1737 4.45801 9.1557V8.3457L4.62451 8.4357L4.81801 9.2862V10.3212L4.66501 10.3167Z" fill="white" stroke="black" stroke-width="1.28"/>
<path id="Vector_28" d="M4.66501 10.3205V9.39801C4.63351 9.28101 4.53001 9.17302 4.45801 9.15502V8.29102C4.57051 8.29102 4.62451 8.43502 4.62451 8.43502L4.81801 9.28551V10.316L4.66501 10.3205Z" fill="white" stroke="black" stroke-width="1.28"/>
<path id="Vector_29" d="M4.54395 10.5549C4.62045 10.5234 4.73295 10.4244 4.73295 10.3299V9.17789L4.67895 9.08789H6.64545L6.56895 9.17789V10.3299C6.57225 10.3776 6.58815 10.4235 6.61503 10.4631C6.64191 10.5026 6.67881 10.5343 6.72195 10.5549H4.54395Z" fill="white" stroke="black" stroke-width="1.28"/>
<path id="Vector_30" d="M6.32057 10.5555C6.24407 10.524 6.13157 10.425 6.13157 10.3305V9.23699L6.29357 9.08398H4.96157L5.12357 9.23699V10.3305C5.12357 10.425 5.01107 10.524 4.93457 10.5555H6.32057Z" fill="white" stroke="black" stroke-width="1.28"/>
<path id="Vector_31" d="M6.13614 10.5549C6.05964 10.5234 5.94264 10.4244 5.94264 10.3299V9.33991L6.05064 9.19141H5.20464L5.31264 9.33991V10.3299C5.31264 10.4244 5.20014 10.5234 5.11914 10.5549H6.13614Z" fill="white" stroke="black" stroke-width="1.28"/>
<path id="Vector_32" d="M5.43028 9.19141H5.83078V10.5594H5.42578L5.43028 9.19141Z" fill="white" stroke="black" stroke-width="1.28"/>
<g id="Vector_33">
<path d="M4.8768 9.56883H5.0388V10.3113H4.8768V9.56883ZM6.2628 9.56883H6.4203V10.3113H6.2583L6.2628 9.56883ZM4.7373 8.31783H4.9353V9.08283H4.7373V8.31783ZM4.7373 8.17383H4.9308V8.31783H4.7373V8.17383ZM6.3393 8.48433H6.6138V9.06933H6.3393V8.48433Z" fill="white"/>
<path d="M4.7373 8.31783H4.9353V9.08283H4.7373V8.31783ZM4.7373 8.31783H4.9308V8.17383H4.7373V8.31783ZM4.8768 9.56883H5.0388V10.3113H4.8768V9.56883ZM6.2628 9.56883H6.4203V10.3113H6.2583L6.2628 9.56883ZM6.3393 8.48433H6.6138V9.06933H6.3393V8.48433Z" stroke="black" stroke-width="1.28" stroke-linejoin="bevel"/>
</g>
<path id="Vector_34" d="M4.93062 9.07461V7.76961C4.98462 7.76961 4.99362 7.96311 5.11962 7.96311C5.18712 7.96311 5.18262 7.88211 5.14212 7.81911C5.11062 7.76061 5.07012 7.68411 5.12412 7.53561C5.16462 7.64811 5.26362 7.68411 5.24562 7.61661C5.21412 7.49511 5.11962 7.47261 5.19162 7.28811C5.21412 7.44111 5.31312 7.43661 5.29062 7.34661C5.26362 7.24311 5.20512 7.19811 5.27712 7.05411C5.31762 7.22061 5.36712 7.21161 5.36712 7.10811C5.36712 6.95511 5.36712 6.79311 5.55612 6.73461C5.55612 6.73461 5.56962 6.59961 5.64162 6.59961C5.70912 6.59961 5.72262 6.73461 5.72262 6.73461C5.91612 6.79311 5.91162 6.95961 5.91162 7.10811C5.91162 7.21161 5.96112 7.22061 6.00162 7.05411C6.07362 7.19811 6.01512 7.24311 5.98812 7.34661C5.96562 7.43661 6.06462 7.44111 6.08712 7.28811C6.15912 7.47261 6.06462 7.49511 6.03312 7.61661C6.01512 7.68411 6.11412 7.64811 6.15462 7.53561C6.20862 7.68411 6.16812 7.76061 6.13662 7.81911C6.10062 7.88211 6.09162 7.96311 6.15912 7.96311C6.28512 7.96311 6.29412 7.77411 6.34812 7.77411V9.07461H4.93062ZM4.62012 8.08911V9.08361H4.73262V8.08911C4.69212 8.06661 4.65612 8.06661 4.62012 8.08911Z" fill="white" stroke="black" stroke-width="1.28"/>
<path id="Vector_35" d="M4.62891 8.7327C4.76841 8.8047 4.90791 8.8902 4.94391 9.0837H4.62891V8.7327ZM6.57291 8.4357V9.0837H6.66291V8.4357C6.63591 8.4222 6.59541 8.4177 6.57291 8.4357Z" fill="white" stroke="black" stroke-width="1.28"/>
<path id="Vector_36" d="M6.66265 8.73275C6.52315 8.80025 6.38365 8.88125 6.34765 9.07925H6.66265V8.73275ZM5.73565 7.21625L5.81665 7.14875V7.05875C5.78965 7.05875 5.77165 7.07225 5.74915 7.10375C5.74041 7.07485 5.72595 7.04801 5.70662 7.02481C5.6873 7.00162 5.6635 6.98255 5.63665 6.96875C5.60941 6.98157 5.58502 6.99972 5.56492 7.02214C5.54482 7.04456 5.52943 7.07078 5.51965 7.09925C5.49715 7.06775 5.48365 7.06325 5.45215 7.05425V7.14425L5.53315 7.21625H5.73565Z" fill="white" stroke="black" stroke-width="1.28"/>
<path id="Vector_37" d="M5.78065 7.43644L5.81665 7.35094V7.23844C5.78965 7.23844 5.77165 7.25194 5.74915 7.28344C5.74041 7.25454 5.72595 7.22769 5.70662 7.2045C5.6873 7.18131 5.6635 7.16224 5.63665 7.14844C5.60941 7.16126 5.58502 7.17941 5.56492 7.20183C5.54482 7.22424 5.52943 7.25047 5.51965 7.27894C5.49715 7.24744 5.48365 7.24294 5.45215 7.23844V7.35094L5.48815 7.43644H5.78065Z" fill="white" stroke="black" stroke-width="1.28"/>
<path id="Vector_38" d="M5.7898 7.7333L5.9068 7.5848V7.4408C5.8618 7.4408 5.8393 7.4633 5.8078 7.5128C5.7763 7.4093 5.7178 7.3913 5.6368 7.3418C5.5513 7.3868 5.4928 7.4093 5.4658 7.5083C5.4298 7.4588 5.4073 7.4453 5.3623 7.4408V7.5848L5.4838 7.7333H5.7898Z" fill="white" stroke="black" stroke-width="1.28"/>
<path id="Vector_39" d="M5.8218 8.02702C5.8218 8.02702 5.9658 7.90551 5.9703 7.83801V7.68051C5.9163 7.68501 5.8668 7.69852 5.8263 7.76602C5.7903 7.63552 5.7363 7.59952 5.6373 7.54102C5.5338 7.59952 5.4798 7.63552 5.4483 7.76602C5.4033 7.69852 5.3583 7.68502 5.2998 7.67602V7.83801C5.3376 7.90939 5.3879 7.97341 5.4483 8.02702H5.8218Z" fill="white" stroke="black" stroke-width="1.28"/>
<path id="Vector_40" d="M5.87991 8.56705C5.87991 8.56705 6.07791 8.35555 6.08241 8.27005V8.02705C6.01041 8.03605 5.93841 8.08555 5.88441 8.18905C5.83941 7.98655 5.76741 7.84705 5.63691 7.74805C5.50191 7.84705 5.42991 7.98655 5.38491 8.18905C5.33091 8.08555 5.26341 8.03605 5.19141 8.02705V8.27005C5.20491 8.35555 5.38941 8.56705 5.38941 8.56705H5.87991Z" fill="white" stroke="black" stroke-width="1.28"/>
<path id="Vector_41" d="M5.87991 8.88644C5.87991 8.88644 6.04641 8.71994 6.08241 8.64794V8.40494C6.01041 8.41394 5.93841 8.46344 5.88441 8.56244C5.87237 8.48056 5.84431 8.40185 5.80185 8.33081C5.75938 8.25978 5.70333 8.19781 5.63691 8.14844C5.50191 8.24744 5.42991 8.35994 5.38491 8.56244C5.33091 8.46344 5.26341 8.41394 5.19141 8.40494V8.64794C5.23641 8.71994 5.38941 8.88644 5.38941 8.88644H5.87991Z" fill="white" stroke="black" stroke-width="1.28"/>
<path id="Vector_42" d="M5.94721 9.07533C5.90221 8.86383 5.85721 8.70633 5.62771 8.54883C5.39371 8.70633 5.35321 8.86383 5.30371 9.07533H5.94721Z" fill="white" stroke="black" stroke-width="1.28"/>
<path id="Vector_43" d="M6.06891 9.19244V8.88644C5.96091 8.93144 5.86641 8.98994 5.83041 9.05744C5.79441 8.88644 5.71791 8.81444 5.62341 8.71094C5.52891 8.81444 5.46591 8.89094 5.42541 9.05744C5.38941 8.98994 5.29491 8.92694 5.19141 8.88644V9.19244H6.06891Z" fill="white" stroke="black" stroke-width="1.28"/>
</g>
<g id="kh-a_2">
<path id="Vector_44" d="M13.3369 10.3167V9.3987C13.3684 9.2817 13.4719 9.1737 13.5439 9.1557V8.3457L13.3774 8.4357L13.1839 9.2862V10.3212L13.3369 10.3167Z" fill="white" stroke="black" stroke-width="1.28"/>
<path id="Vector_45" d="M13.3369 10.3205V9.39801C13.3684 9.28101 13.4719 9.17302 13.5439 9.15502V8.29102C13.4314 8.29102 13.3774 8.43502 13.3774 8.43502L13.1839 9.28551V10.316L13.3369 10.3205Z" fill="white" stroke="black" stroke-width="1.28"/>
<path id="Vector_46" d="M13.458 10.5549C13.3815 10.5234 13.269 10.4244 13.269 10.3299V9.17789L13.323 9.08789H11.3565L11.433 9.17789V10.3299C11.4297 10.3776 11.4138 10.4235 11.3869 10.4631C11.36 10.5026 11.3231 10.5343 11.28 10.5549H13.458Z" fill="white" stroke="black" stroke-width="1.28"/>
<path id="Vector_47" d="M11.6814 10.5555C11.7579 10.524 11.8704 10.425 11.8704 10.3305V9.23699L11.7084 9.08398H13.0404L12.8784 9.23699V10.3305C12.8784 10.425 12.9909 10.524 13.0674 10.5555H11.6814Z" fill="white" stroke="black" stroke-width="1.28"/>
<path id="Vector_48" d="M11.8658 10.5549C11.9423 10.5234 12.0593 10.4244 12.0593 10.3299V9.33991L11.9513 9.19141H12.7973L12.6893 9.33991V10.3299C12.6893 10.4244 12.8018 10.5234 12.8828 10.5549H11.8658Z" fill="white" stroke="black" stroke-width="1.28"/>
<path id="Vector_49" d="M12.5717 9.19141H12.1712V10.5594H12.5762L12.5717 9.19141Z" fill="white" stroke="black" stroke-width="1.28"/>
<g id="Vector_50">
<path d="M13.1251 9.56883H12.9631V10.3113H13.1251V9.56883ZM11.7391 9.56883H11.5816V10.3113H11.7436L11.7391 9.56883ZM13.2646 8.31783H13.0666V9.08283H13.2646V8.31783ZM13.2646 8.17383H13.0711V8.31783H13.2646V8.17383ZM11.6626 8.48433H11.3881V9.06933H11.6626V8.48433Z" fill="white"/>
<path d="M13.2646 8.31783H13.0666V9.08283H13.2646V8.31783ZM13.2646 8.31783H13.0711V8.17383H13.2646V8.31783ZM13.1251 9.56883H12.9631V10.3113H13.1251V9.56883ZM11.7391 9.56883H11.5816V10.3113H11.7436L11.7391 9.56883ZM11.6626 8.48433H11.3881V9.06933H11.6626V8.48433Z" stroke="black" stroke-width="1.28" stroke-linejoin="bevel"/>
</g>
<path id="Vector_51" d="M13.0713 9.07461V7.76961C13.0173 7.76961 13.0083 7.96311 12.8823 7.96311C12.8148 7.96311 12.8193 7.88211 12.8598 7.81911C12.8913 7.76061 12.9318 7.68411 12.8778 7.53561C12.8373 7.64811 12.7383 7.68411 12.7563 7.61661C12.7878 7.49511 12.8823 7.47261 12.8103 7.28811C12.7878 7.44111 12.6888 7.43661 12.7113 7.34661C12.7383 7.24311 12.7968 7.19811 12.7248 7.05411C12.6843 7.22061 12.6348 7.21161 12.6348 7.10811C12.6348 6.95511 12.6348 6.79311 12.4458 6.73461C12.4458 6.73461 12.4323 6.59961 12.3603 6.59961C12.2928 6.59961 12.2793 6.73461 12.2793 6.73461C12.0858 6.79311 12.0903 6.95961 12.0903 7.10811C12.0903 7.21161 12.0408 7.22061 12.0003 7.05411C11.9283 7.19811 11.9868 7.24311 12.0138 7.34661C12.0363 7.43661 11.9373 7.44111 11.9148 7.28811C11.8428 7.47261 11.9373 7.49511 11.9688 7.61661C11.9868 7.68411 11.8878 7.64811 11.8473 7.53561C11.7933 7.68411 11.8338 7.76061 11.8653 7.81911C11.9013 7.88211 11.9103 7.96311 11.8428 7.96311C11.7168 7.96311 11.7078 7.77411 11.6538 7.77411V9.07461H13.0713ZM13.3818 8.08911V9.08361H13.2693V8.08911C13.3098 8.06661 13.3458 8.06661 13.3818 8.08911Z" fill="white" stroke="black" stroke-width="1.28"/>
<path id="Vector_52" d="M13.373 8.7327C13.2335 8.8047 13.094 8.8902 13.058 9.0837H13.373V8.7327ZM11.429 8.4357V9.0837H11.339V8.4357C11.366 8.4222 11.4065 8.4177 11.429 8.4357Z" fill="white" stroke="black" stroke-width="1.28"/>
<path id="Vector_53" d="M11.3393 8.73275C11.4788 8.80025 11.6183 8.88125 11.6543 9.07925H11.3393V8.73275ZM12.2663 7.21625L12.1853 7.14875V7.05875C12.2123 7.05875 12.2303 7.07225 12.2528 7.10375C12.2615 7.07485 12.276 7.04801 12.2953 7.02481C12.3147 7.00162 12.3385 6.98255 12.3653 6.96875C12.3925 6.98157 12.4169 6.99972 12.437 7.02214C12.4571 7.04456 12.4725 7.07078 12.4823 7.09925C12.5048 7.06775 12.5183 7.06325 12.5498 7.05425V7.14425L12.4688 7.21625H12.2663Z" fill="white" stroke="black" stroke-width="1.28"/>
<path id="Vector_54" d="M12.2213 7.43644L12.1853 7.35094V7.23844C12.2123 7.23844 12.2303 7.25194 12.2528 7.28344C12.2615 7.25454 12.276 7.22769 12.2953 7.2045C12.3147 7.18131 12.3385 7.16224 12.3653 7.14844C12.3925 7.16126 12.4169 7.17941 12.437 7.20183C12.4571 7.22424 12.4725 7.25047 12.4823 7.27894C12.5048 7.24744 12.5183 7.24294 12.5498 7.23844V7.35094L12.5138 7.43644H12.2213Z" fill="white" stroke="black" stroke-width="1.28"/>
<path id="Vector_55" d="M12.2121 7.7333L12.0951 7.5848V7.4408C12.1401 7.4408 12.1626 7.4633 12.1941 7.5128C12.2256 7.4093 12.2841 7.3913 12.3651 7.3418C12.4506 7.3868 12.5091 7.4093 12.5361 7.5083C12.5721 7.4588 12.5946 7.4453 12.6396 7.4408V7.5848L12.5181 7.7333H12.2121Z" fill="white" stroke="black" stroke-width="1.28"/>
<path id="Vector_56" d="M12.1801 8.02702C12.1801 8.02702 12.0361 7.90551 12.0316 7.83801V7.68051C12.0856 7.68501 12.1351 7.69852 12.1756 7.76602C12.2116 7.63552 12.2656 7.59952 12.3646 7.54102C12.4681 7.59952 12.5221 7.63552 12.5536 7.76602C12.5986 7.69852 12.6436 7.68502 12.7021 7.67602V7.83801C12.6644 7.90939 12.6141 7.97341 12.5536 8.02702H12.1801Z" fill="white" stroke="black" stroke-width="1.28"/>
<path id="Vector_57" d="M12.122 8.56705C12.122 8.56705 11.924 8.35555 11.9195 8.27005V8.02705C11.9915 8.03605 12.0635 8.08555 12.1175 8.18905C12.1625 7.98655 12.2345 7.84705 12.365 7.74805C12.5 7.84705 12.572 7.98655 12.617 8.18905C12.671 8.08555 12.7385 8.03605 12.8105 8.02705V8.27005C12.797 8.35555 12.6125 8.56705 12.6125 8.56705H12.122Z" fill="white" stroke="black" stroke-width="1.28"/>
<path id="Vector_58" d="M12.122 8.88644C12.122 8.88644 11.9555 8.71994 11.9195 8.64794V8.40494C11.9915 8.41394 12.0635 8.46344 12.1175 8.56244C12.1296 8.48056 12.1576 8.40185 12.2001 8.33081C12.2426 8.25978 12.2986 8.19781 12.365 8.14844C12.5 8.24744 12.572 8.35994 12.617 8.56244C12.671 8.46344 12.7385 8.41394 12.8105 8.40494V8.64794C12.7655 8.71994 12.6125 8.88644 12.6125 8.88644H12.122Z" fill="white" stroke="black" stroke-width="1.28"/>
<path id="Vector_59" d="M12.0547 9.07533C12.0997 8.86383 12.1447 8.70633 12.3742 8.54883C12.6082 8.70633 12.6487 8.86383 12.6982 9.07533H12.0547Z" fill="white" stroke="black" stroke-width="1.28"/>
<path id="Vector_60" d="M11.933 9.19244V8.88644C12.041 8.93144 12.1355 8.98994 12.1715 9.05744C12.2075 8.88644 12.284 8.81444 12.3785 8.71094C12.473 8.81444 12.536 8.89094 12.5765 9.05744C12.6125 8.98994 12.707 8.92694 12.8105 8.88644V9.19244H11.933Z" fill="white" stroke="black" stroke-width="1.28"/>
</g>
<path id="Vector_61" d="M3.48195 11.6722H14.5205V12.2347H3.48195V11.6722ZM3.18945 12.2347H14.813V12.7972H3.18945V12.2347ZM4.06245 10.8262H13.9355V11.1907H4.06245V10.8262Z" fill="white" stroke="black" stroke-width="1.28"/>
<path id="Vector_62" d="M3.77441 11.1904H14.2324V11.6674H3.77441V11.1904ZM4.23341 10.5469H13.7734V10.8259H4.23341V10.5469Z" fill="white" stroke="black" stroke-width="1.28"/>
<path id="Vector_63" d="M5.26855 10.5469H5.98855V12.7969H5.26855V10.5469Z" fill="white" stroke="black" stroke-width="1.28"/>
<path id="Vector_64" d="M5.43028 10.5469H5.83078V12.7969H5.42578L5.43028 10.5469ZM8.62528 10.5469H9.34528V12.7969H8.62528V10.5469Z" fill="white" stroke="black" stroke-width="1.28"/>
<path id="Vector_65" d="M8.79199 10.5469H9.19699V12.7969H8.79199V10.5469ZM12.0095 10.5469H12.7295V12.7969H12.0095V10.5469Z" fill="white" stroke="black" stroke-width="1.28"/>
<path id="Vector_66" d="M12.167 10.5469H12.572V12.7969H12.167V10.5469Z" fill="white" stroke="black" stroke-width="1.28"/>
<path id="Vector_67" d="M4.66504 10.3164H13.35M5.42104 12.5124H5.83504M5.42104 12.2289H5.83504M5.42104 11.9499H5.83504M5.42104 11.6664H5.83504M5.42104 11.3874H5.83504M5.42104 11.1039H5.83504M5.42104 10.8249H5.83504M8.79604 12.5124H9.18304M8.79604 12.2289H9.18304M8.79604 11.9499H9.18304M8.79604 11.6664H9.18304M8.79604 11.3874H9.18304M8.79604 11.1039H9.18304M8.79604 10.8249H9.18304M12.162 12.5124H12.576M12.162 12.2289H12.576M12.162 11.9499H12.576M12.162 11.6664H12.576M12.162 11.3874H12.576M12.162 11.1039H12.576M12.162 10.8249H12.576" stroke="black" stroke-width="1.28"/>
</g>
</g>
<defs>
<clipPath id="clip0_186_10183">
<rect width="18" height="18" fill="white"/>
</clipPath>
</defs>
</svg>
