<svg width="18" height="18" viewBox="0 0 18 18" fill="none" xmlns="http://www.w3.org/2000/svg">
<g id="ki" clip-path="url(#clip0_186_10256)">
<g id="Clip path group">
<mask id="mask0_186_10256" style="mask-type:luminance" maskUnits="userSpaceOnUse" x="-1" y="0" width="19" height="18">
<g id="ki-a">
<path id="Vector" d="M-0.000976562 0.00195312H17.9993V17.9985H-0.000976562V0.00195312Z" fill="white"/>
</g>
</mask>
<g mask="url(#mask0_186_10256)">
<g id="Group">
<path id="Vector_2" fill-rule="evenodd" clip-rule="evenodd" d="M-5.77734 0.00195312H23.6044V10.7721H-5.77734V0.00195312Z" fill="#E73E2D"/>
<path id="Vector_3" fill-rule="evenodd" clip-rule="evenodd" d="M7.18185 9.91636C6.49728 9.38554 5.22332 9.56492 5.01465 8.11523C5.98843 8.86936 5.81271 8.0713 7.26971 8.79249L7.18185 9.91636Z" fill="#FEC74A" stroke="#D8AA3F" stroke-width="1.66608"/>
<path id="Vector_4" fill-rule="evenodd" clip-rule="evenodd" d="M7.36538 9.25649C6.87483 8.53897 5.60818 8.32298 5.85346 6.87695C6.54901 7.89466 6.62589 7.08196 7.79369 8.21315L7.36172 9.25649H7.36538Z" fill="#FEC74A" stroke="#D8AA3F" stroke-width="1.66608"/>
<path id="Vector_5" fill-rule="evenodd" clip-rule="evenodd" d="M7.58489 8.78857C7.40917 7.94292 6.32191 7.25469 7.10166 6.01367C7.35792 7.22174 7.73498 6.4969 8.38295 7.99051L7.58489 8.78857Z" fill="#FEC74A" stroke="#D8AA3F" stroke-width="1.66608"/>
<path id="Vector_6" fill-rule="evenodd" clip-rule="evenodd" d="M8.09723 8.35571C8.18875 7.49175 7.36506 6.50699 8.48528 5.5625C8.35715 6.78887 8.94288 6.22145 9.10029 7.83221L8.09357 8.35571H8.09723Z" fill="#FEC74A" stroke="#D8AA3F" stroke-width="1.66608"/>
<path id="Vector_7" fill-rule="evenodd" clip-rule="evenodd" d="M8.55078 8.00404C8.99008 7.25723 8.63864 6.01988 10.0481 5.61719C9.42938 6.68249 10.1945 6.4006 9.67831 7.94181L8.55078 8.00404Z" fill="#FEC74A" stroke="#D8AA3F" stroke-width="1.66608"/>
<path id="Vector_8" fill-rule="evenodd" clip-rule="evenodd" d="M9.21387 8.09557C9.86549 7.52448 9.92773 6.24319 11.3921 6.30909C10.4659 7.12179 11.2822 7.09983 10.3048 8.39576L9.21387 8.09557Z" fill="#FEC74A" stroke="#D8AA3F" stroke-width="1.66608"/>
<path id="Vector_9" fill-rule="evenodd" clip-rule="evenodd" d="M9.7959 8.42849C10.5866 8.07705 11.0223 6.86898 12.4024 7.36319C11.2785 7.86839 12.0656 8.08803 10.7477 9.03619L9.7959 8.43215V8.42849Z" fill="#FEC74A" stroke="#D8AA3F" stroke-width="1.66608"/>
<path id="Vector_10" fill-rule="evenodd" clip-rule="evenodd" d="M10.2793 8.96323C11.1396 8.84608 11.8974 7.80641 13.0835 8.67036C11.8608 8.83876 12.5563 9.27074 11.0261 9.81254L10.2793 8.96323Z" fill="#FEC74A" stroke="#D8AA3F" stroke-width="1.66608"/>
<path id="Vector_11" fill-rule="evenodd" clip-rule="evenodd" d="M13.3394 9.125L9.40039 9.21286L9.56513 10.2745L13.3394 9.125Z" fill="#FEC74A" stroke="#D8AA3F" stroke-width="1.66608"/>
<path id="Vector_12" fill-rule="evenodd" clip-rule="evenodd" d="M12.7612 7.67773L9.11133 9.07983L9.72268 10.2513L12.7612 7.67773Z" fill="#FEC74A" stroke="#D8AA3F" stroke-width="1.66608"/>
<path id="Vector_13" fill-rule="evenodd" clip-rule="evenodd" d="M9.86122 9.86769L11.7502 6.4375L8.85449 9.13186L9.86122 9.86769Z" fill="#FEC74A" stroke="#D8AA3F" stroke-width="1.66608"/>
<path id="Vector_14" fill-rule="evenodd" clip-rule="evenodd" d="M9.8271 9.58475L10.4347 5.73635L8.54219 9.15954L9.8271 9.58475Z" fill="#FEC74A" stroke="#D8AA3F" stroke-width="1.72639"/>
<path id="Vector_15" fill-rule="evenodd" clip-rule="evenodd" d="M9.59767 9.27134L8.96069 5.39453L8.25781 9.28964L9.59767 9.27134Z" fill="#FEC74A" stroke="#D8AA3F" stroke-width="1.66608"/>
<path id="Vector_16" fill-rule="evenodd" clip-rule="evenodd" d="M9.26551 8.94197L7.42597 5.70717L8.13228 9.63924L9.26551 8.94197Z" fill="#FEC74A" stroke="#D8AA3F" stroke-width="1.72808"/>
<path id="Vector_17" fill-rule="evenodd" clip-rule="evenodd" d="M8.98264 8.91663L6.13086 6.50781L8.15895 9.95264L8.98264 8.91663Z" fill="#FEC74A" stroke="#D8AA3F" stroke-width="1.66608"/>
<path id="Vector_18" fill-rule="evenodd" clip-rule="evenodd" d="M5.13159 7.69702L8.18838 10.223L8.66062 8.90143L5.12793 7.69336L5.13159 7.69702Z" fill="#FEC74A" stroke="#D8AA3F" stroke-width="1.66608"/>
<path id="Vector_19" fill-rule="evenodd" clip-rule="evenodd" d="M8.15913 9.17235L4.56055 9.12109L8.14449 10.3145L8.15547 9.17235H8.15913Z" fill="#FEC74A" stroke="#D8AA3F" stroke-width="1.66608"/>
<path id="Vector_20" fill-rule="evenodd" clip-rule="evenodd" d="M11.0767 9.82004C11.0887 10.1109 11.0418 10.4012 10.9387 10.6735C10.8357 10.9458 10.6786 11.1944 10.4771 11.4044C10.2755 11.6145 10.0335 11.7816 9.76572 11.8958C9.49792 12.01 9.2098 12.0688 8.91867 12.0688C8.62755 12.0688 8.33943 12.01 8.07163 11.8958C7.80382 11.7816 7.56187 11.6145 7.36029 11.4044C7.15872 11.1944 7.00168 10.9458 6.89863 10.6735C6.79558 10.4012 6.74864 10.1109 6.76062 9.82004C6.76062 9.2472 6.98818 8.69783 7.39324 8.29277C7.79829 7.88771 8.34767 7.66016 8.9205 7.66016C9.49334 7.66016 10.0427 7.88771 10.4478 8.29277C10.8528 8.69783 11.0804 9.2472 11.0804 9.82004H11.0767Z" fill="#FEC74A" stroke="#D8AA3F" stroke-width="1.66608"/>
<path id="Vector_21" fill-rule="evenodd" clip-rule="evenodd" d="M-5.80664 10.666H23.7215V17.9986H-5.80664V10.666Z" fill="#005989"/>
<path id="Vector_22" fill-rule="evenodd" clip-rule="evenodd" d="M-5.82129 15.9585C-5.27217 16.2148 -4.48876 16.8481 -3.64677 16.8481C-2.23735 16.8408 -2.20074 15.8853 -0.773023 15.9329C0.654697 15.9695 0.39844 16.9726 2.32769 16.9652C3.92015 16.9652 4.43633 15.7462 5.81279 15.8926C6.8305 15.8414 7.24784 17.0421 8.81467 17.0568C10.4364 17.0934 11.0295 15.7462 12.0472 15.8597C13.1344 15.8597 13.4895 16.9433 15.0124 16.9506C16.9527 16.9616 17.2895 15.8231 18.5012 15.8963C19.3651 15.878 20.0461 16.731 21.3127 16.7493C22.3194 16.7676 23.1651 16.0061 23.7362 15.7316L23.7655 14.4356C23.1651 14.6589 22.2755 15.3874 21.3823 15.3984C20.101 15.446 19.3066 14.5564 18.4133 14.5637C17.3444 14.5747 16.9197 15.662 15.1076 15.662C13.4493 15.662 13.0685 14.5637 11.9996 14.5637C10.9562 14.5711 10.6378 15.7608 8.82931 15.7352C7.354 15.7206 6.77925 14.6004 5.73226 14.6113C4.62669 14.6113 3.48085 15.6986 2.25448 15.6437C0.563177 15.5705 0.197095 14.6113 -0.912134 14.6113C-1.73948 14.6113 -2.63272 15.5119 -3.62846 15.5265C-4.61688 15.5448 -5.73343 14.6296 -5.83594 14.6113L-5.82129 15.9585ZM-5.82129 13.3959C-5.27217 13.6522 -4.48876 14.2855 -3.64677 14.2855C-2.23735 14.2745 -2.20074 13.3191 -0.773023 13.3667C0.654697 13.4033 0.39844 14.4063 2.32769 14.4027C3.92015 14.399 4.43633 13.1836 5.81279 13.3301C6.8305 13.2751 7.24784 14.4796 8.81467 14.4942C10.4364 14.5308 11.0295 13.1836 12.0472 13.2934C13.1344 13.2934 13.4895 14.377 15.0124 14.388C16.9527 14.3954 17.2895 13.2605 18.5012 13.3301C19.3651 13.3117 20.0461 14.1647 21.3127 14.1867C22.3194 14.205 23.1651 13.4399 23.7362 13.169L23.7655 11.873C23.1651 12.0927 22.2755 12.8249 21.3823 12.8322C20.101 12.8798 19.3066 11.9902 18.4133 11.9975C17.3444 12.0085 16.9197 13.0958 15.1076 13.0958C13.4493 13.0958 13.0685 11.9975 11.9996 11.9975C10.9562 12.0085 10.6378 13.1946 8.82931 13.1726C7.354 13.1543 6.77925 12.0378 5.73226 12.0488C4.62669 12.0488 3.48085 13.1324 2.25448 13.0811C0.563177 13.0079 0.197095 12.0488 -0.912134 12.0488C-1.73948 12.0488 -2.63272 12.9493 -3.62846 12.964C-4.61688 12.9786 -5.73343 12.0671 -5.83594 12.0488L-5.82129 13.3959Z" fill="white"/>
<path id="Vector_23" fill-rule="evenodd" clip-rule="evenodd" d="M-5.82129 10.8608C-5.27217 11.117 -4.48876 11.7504 -3.64677 11.7504C-2.24101 11.7394 -2.2044 10.7876 -0.780345 10.8315C0.647375 10.8681 0.391117 11.8712 2.32037 11.8675C3.91283 11.8675 4.429 10.6485 5.79815 10.7949C6.81952 10.7436 7.23319 11.9444 8.80002 11.959C10.4181 11.9956 11.0148 10.6485 12.0325 10.762C13.1161 10.762 13.4712 11.8456 14.9905 11.8529C16.9307 11.8602 17.2675 10.7253 18.4792 10.7986C19.3432 10.7803 20.0204 11.6296 21.2871 11.6515C22.2938 11.6698 23.1395 10.9047 23.7069 10.6338L23.7362 9.33789C23.1395 9.5612 22.2462 10.2897 21.3566 10.297C20.0753 10.3446 19.2809 9.45504 18.3914 9.46602C17.3224 9.47334 16.8978 10.5643 15.0856 10.5643C13.431 10.5643 13.0502 9.46602 11.9849 9.46602C10.9416 9.47334 10.6194 10.6594 8.81466 10.6375C7.33935 10.6228 6.76461 9.50263 5.72127 9.51361C4.6157 9.51361 3.47353 10.5972 2.24715 10.546C0.555854 10.4727 0.189773 9.51361 -0.915795 9.51361C-1.74314 9.51361 -2.63638 10.4142 -3.63212 10.4288C-4.62055 10.4435 -5.73343 9.53191 -5.83594 9.51361L-5.82129 10.8608Z" fill="white"/>
<path id="Vector_24" fill-rule="evenodd" clip-rule="evenodd" d="M4.80957 2.66976C6.95481 2.52332 6.5631 2.34028 7.42706 2.20117C8.51432 2.3476 8.63879 3.00655 9.24648 3.4129C9.24648 3.4129 9.01951 4.18168 8.27271 4.07551C8.17386 3.768 8.63513 3.67282 7.30625 2.86012C6.53382 2.81619 5.15369 2.99557 4.80957 2.66976ZM11.4613 3.86318L9.91641 3.92542V4.3098C10.9597 4.34275 11.1464 4.19998 11.4613 3.86318Z" fill="#FFC84B" stroke="#D8AA3F" stroke-width="1.77021"/>
<path id="Vector_25" fill-rule="evenodd" clip-rule="evenodd" d="M6.14624 3.79862C6.41714 3.6595 6.54893 3.71808 6.78322 3.70709C6.9443 3.99996 7.09439 4.02559 7.44583 4.06219C7.60139 4.29249 7.80988 4.48214 8.05383 4.61526C8.29778 4.74838 8.57008 4.8211 8.84792 4.82731C9.89858 4.79802 10.2317 4.06219 10.9383 3.98166H11.6851C11.5606 3.76933 11.4654 3.64852 11.1945 3.63754C10.5573 3.59367 9.917 3.63554 9.29088 3.76201L8.41229 3.98166C8.15603 3.85719 7.52271 3.19458 7.12002 3.20922C6.88206 3.27146 6.88206 3.35566 6.76492 3.44352C6.53795 3.54236 6.31098 3.49477 6.14258 3.79862H6.14624Z" fill="#FFC84B" stroke="#D8AA3F" stroke-width="1.66608" stroke-linejoin="round"/>
<path id="Vector_26" fill-rule="evenodd" clip-rule="evenodd" d="M7.20793 3.47701C7.20793 3.50614 7.19636 3.53407 7.17576 3.55467C7.15517 3.57527 7.12723 3.58684 7.09811 3.58684C7.06898 3.58684 7.04104 3.57527 7.02045 3.55467C6.99985 3.53407 6.98828 3.50614 6.98828 3.47701C6.98828 3.44788 6.99985 3.41995 7.02045 3.39935C7.04104 3.37876 7.06898 3.36719 7.09811 3.36719C7.12723 3.36719 7.15517 3.37876 7.17576 3.39935C7.19636 3.41995 7.20793 3.44788 7.20793 3.47701Z" fill="#FFC84B" stroke="#D8AA3F" stroke-width="1.66608"/>
<path id="Vector_27" fill-rule="evenodd" clip-rule="evenodd" d="M7.92861 3.79136C9.50642 1.88773 10.8866 2.11836 12.6877 1.99023C12.7462 2.20988 12.7243 2.53936 11.8677 2.83222C10.6962 3.00794 8.59122 4.2453 8.5839 4.2453C8.19219 4.227 7.91763 3.81698 7.92495 3.79136H7.92861Z" fill="#FFC84B" stroke="#D8AA3F" stroke-width="1.77021"/>
<path id="Vector_28" d="M11.1723 2.55078L12.3365 2.60203M11.0479 2.74114L11.8972 2.8107" stroke="#D9A43E" stroke-width="1.77021" stroke-linecap="round"/>
</g>
</g>
</g>
</g>
<defs>
<clipPath id="clip0_186_10256">
<rect width="18" height="18" fill="white"/>
</clipPath>
</defs>
</svg>
