<svg width="18" height="18" viewBox="0 0 18 18" fill="none" xmlns="http://www.w3.org/2000/svg">
<g id="kn" clip-path="url(#clip0_186_8189)">
<g id="Clip path group">
<mask id="mask0_186_8189" style="mask-type:luminance" maskUnits="userSpaceOnUse" x="0" y="0" width="19" height="18">
<g id="kn-a">
<path id="Vector" d="M0.000976562 0H18.0006V17.9972H0.000976562V0Z" fill="white"/>
</g>
</mask>
<g mask="url(#mask0_186_8189)">
<g id="Group">
<path id="Vector_2" fill-rule="evenodd" clip-rule="evenodd" d="M-3.79199 0.0078125H22.1408V17.9808H-3.79199V0.0078125Z" fill="#FFE900"/>
<path id="Vector_3" fill-rule="evenodd" clip-rule="evenodd" d="M-3.80371 0.00770978L-3.77472 12.9657L16.4038 -0.00195312L-3.80371 0.00770978Z" fill="#35A100"/>
<path id="Vector_4" fill-rule="evenodd" clip-rule="evenodd" d="M22.1723 17.9803L22.1264 4.50781L1.77148 17.9924L22.1723 17.9827V17.9803Z" fill="#C70000"/>
<path id="Vector_5" fill-rule="evenodd" clip-rule="evenodd" d="M-3.79199 13.9441L-3.77508 18.0001L0.628787 17.9929L22.136 3.57342L22.1118 0.0464641L17.7611 0.0078125L-3.79199 13.9441Z" fill="#000001"/>
<path id="Vector_6" fill-rule="evenodd" clip-rule="evenodd" d="M16.0971 6.50578L14.5463 6.45263L13.9351 7.9069L13.5896 6.42123L12.0387 6.36808L13.377 5.50567L13.0292 4.01758L14.2008 4.96937L15.5367 4.10213L14.9231 5.5564L16.0971 6.50578ZM6.42216 12.8012L4.86885 12.7456L4.26009 14.1999L3.91464 12.7142L2.36133 12.661L3.69964 11.7962L3.35178 10.313L4.5234 11.2648L5.8593 10.3975L5.24812 11.8494L6.42216 12.8012Z" fill="white"/>
</g>
</g>
</g>
</g>
<defs>
<clipPath id="clip0_186_8189">
<rect width="18" height="18" fill="white"/>
</clipPath>
</defs>
</svg>
