<svg width="18" height="18" viewBox="0 0 18 18" fill="none" xmlns="http://www.w3.org/2000/svg">
<g id="kr" clip-path="url(#clip0_186_8210)">
<path id="Vector" fill-rule="evenodd" clip-rule="evenodd" d="M0 0H18V18H0V0Z" fill="white"/>
<g id="Group">
<g id="kr-b">
<path id="kr-a" fill-rule="evenodd" clip-rule="evenodd" d="M0.773438 5.89062L2.96789 2.60018L3.5163 2.96592L1.32184 6.25637L0.773438 5.89062ZM1.59605 6.43924L3.7905 3.14879L4.33891 3.51454L2.14446 6.80498L1.59605 6.43924ZM2.41866 6.98785L4.61311 3.69741L5.16152 4.06315L2.96707 7.35359L2.41866 6.98785Z" fill="#000001"/>
<path id="kr-a_2" fill-rule="evenodd" clip-rule="evenodd" d="M12.8389 13.9375L15.0333 10.6471L15.5817 11.0128L13.3873 14.3032L12.8389 13.9375ZM13.6615 14.4861L15.8559 11.1957L16.4043 11.5614L14.2099 14.8519L13.6615 14.4861ZM14.4841 15.0347L16.6785 11.7443L17.2269 12.11L15.0325 15.4005L14.4841 15.0347Z" fill="#000001"/>
</g>
<g id="Vector_2">
<path fill-rule="evenodd" clip-rule="evenodd" d="M13.6611 12.1074L16.4032 13.9361Z" fill="black"/>
<path d="M13.6611 12.1074L16.4032 13.9361" stroke="white" stroke-width="9.375"/>
</g>
<path id="Vector_3" fill-rule="evenodd" clip-rule="evenodd" d="M5.70898 6.80469C6.29099 5.93201 7.19583 5.32627 8.22445 5.12073C9.25306 4.9152 10.3212 5.12669 11.1939 5.7087C12.0666 6.2907 12.6723 7.19554 12.8778 8.22416C13.0834 9.25278 12.8719 10.3209 12.2899 11.1936L5.70898 6.80469Z" fill="#CD2E3A"/>
<path id="Vector_4" fill-rule="evenodd" clip-rule="evenodd" d="M5.7091 6.80526C5.1271 7.67794 4.9156 8.74608 5.12114 9.77469C5.32668 10.8033 5.93241 11.7082 6.80509 12.2902C7.67777 12.8722 8.74591 13.0837 9.77453 12.8781C10.8031 12.6726 11.708 12.0668 12.29 11.1942C12.581 10.7578 12.6867 10.2238 12.584 9.70945C12.4812 9.19514 12.1783 8.74272 11.742 8.45172C11.3057 8.16071 10.7716 8.05497 10.2573 8.15774C9.74297 8.2605 9.29055 8.56337 8.99955 8.99971L5.7091 6.80526Z" fill="#0047A0"/>
<path id="Vector_5" d="M8.99997 8.99845C9.60596 8.08982 9.36061 6.86198 8.45198 6.256C7.54335 5.65002 6.31551 5.89537 5.70953 6.804C5.10355 7.71263 5.3489 8.94046 6.25753 9.54645C7.16616 10.1524 8.39399 9.90708 8.99997 8.99845Z" fill="#CD2E3A"/>
</g>
<g id="Group_2">
<g id="kr-b_2">
<path id="kr-a_3" fill-rule="evenodd" clip-rule="evenodd" d="M2.96875 15.4004L0.774297 12.1099L1.3227 11.7442L3.51716 15.0346L2.96875 15.4004ZM3.79136 14.8518L1.59691 11.5613L2.14532 11.1956L4.33977 14.486L3.79136 14.8518ZM4.61397 14.3032L2.41952 11.0127L2.96793 10.647L5.16238 13.9374L4.61397 14.3032Z" fill="#000001"/>
<path id="kr-a_4" fill-rule="evenodd" clip-rule="evenodd" d="M15.0342 7.35352L12.8397 4.06307L13.3881 3.69733L15.5826 6.98777L15.0342 7.35352ZM15.8568 6.8049L13.6623 3.51446L14.2107 3.14872L16.4052 6.43916L15.8568 6.8049ZM16.6794 6.25629L14.4849 2.96585L15.0334 2.6001L17.2278 5.89055L16.6794 6.25629Z" fill="#000001"/>
</g>
<g id="Vector_6">
<path fill-rule="evenodd" clip-rule="evenodd" d="M2.55664 13.2988L3.37925 12.7502ZM13.6619 5.89255L14.6216 5.2525ZM15.4442 4.70389L16.2668 4.15527Z" fill="black"/>
<path d="M2.55664 13.2988L3.37925 12.7502M13.6619 5.89255L14.6216 5.2525M15.4442 4.70389L16.2668 4.15527" stroke="white" stroke-width="9.375"/>
</g>
</g>
</g>
<defs>
<clipPath id="clip0_186_8210">
<rect width="18" height="18" fill="white"/>
</clipPath>
</defs>
</svg>
