<svg width="18" height="18" viewBox="0 0 18 18" fill="none" xmlns="http://www.w3.org/2000/svg">
<g id="ky" clip-path="url(#clip0_186_8234)">
<path id="Vector" d="M0 0H18V18H0V0Z" fill="#000066"/>
<path id="Vector_2" d="M0 -0.0175781H9V8.98242H0V-0.0175781Z" fill="#012169"/>
<path id="Vector_3" d="M9 -0.0175781V1.10742L5.66016 4.48242L9 7.76953V8.98242H7.82227L4.46484 5.67773L1.19531 8.98242H0V7.78711L3.26953 4.5L0 1.2832V-0.0175781H1.08984L4.46484 3.28711L7.73438 -0.0175781H9Z" fill="white"/>
<path id="Vector_4" d="M3.23438 5.67773L3.42773 6.27539L0.738281 8.98242H0V8.92969L3.23438 5.67773ZM5.41406 5.4668L6.36328 5.60742L9 8.19141V8.98242L5.41406 5.4668ZM9 -0.0175781L5.625 3.42773L5.55469 2.6543L8.19141 -0.0175781H9ZM0 0L3.39258 3.32227L2.35547 3.18164L0 0.84375V0Z" fill="#C8102E"/>
<path id="Vector_5" d="M3.09375 -0.0175781V8.98242H5.90625V-0.0175781H3.09375ZM0 3.07617V5.88867H9V3.07617H0Z" fill="white"/>
<path id="Vector_6" d="M0 3.63867V5.32617H9V3.63867H0ZM3.65625 -0.0175781V8.98242H5.34375V-0.0175781H3.65625Z" fill="#C8102E"/>
<g id="Group">
<path id="ky-a" d="M15.7605 7.29162V9.68145C15.7605 11.754 14.7805 12.4653 13.4679 13.0282C12.1553 12.4653 11.165 11.754 11.165 9.68145V7.28906H15.7605V7.29162Z" fill="white" stroke="white" stroke-width="6.98698" stroke-linejoin="round"/>
<g id="ky-b">
<path id="Vector_7" d="M9.74024 12.8328C9.81444 13.0272 10.3415 13.2857 10.9556 12.9556C11.3727 12.7202 11.6414 12.3927 11.8998 11.8042C11.9714 11.6558 12.0098 11.4715 11.8384 11.3615C11.7028 11.2617 11.4802 11.1517 11.3829 11.0545C11.3343 11.0033 11.2857 10.9675 11.2499 10.9316C11.2755 10.9572 11.2985 10.9803 11.3215 11.0161C11.5672 11.3103 11.3113 11.7402 11.0401 11.9986C10.843 12.1828 10.4899 12.6357 9.97308 12.2059C9.86306 12.1086 9.60463 12.5129 9.7428 12.8328H9.74024ZM17.1963 12.8328C17.1093 13.0272 16.5822 13.2857 15.9809 12.9556C15.5664 12.7202 15.2952 12.3927 15.0265 11.8042C14.9651 11.6558 14.9267 11.4715 15.0982 11.3615C15.2338 11.2617 15.4564 11.1517 15.5536 11.0545C15.6022 11.0033 15.6381 10.9675 15.6867 10.9316C15.6611 10.9572 15.6381 10.9803 15.615 11.0161C15.3694 11.3103 15.6253 11.7402 15.8837 11.9986C16.0807 12.1828 16.4466 12.6357 16.9635 12.2059C17.0735 12.1086 17.3191 12.5129 17.1938 12.8328H17.1963Z" fill="#FCEA83" stroke="white" stroke-width="6.98698" stroke-linejoin="round"/>
<path id="Vector_8" d="M13.4681 13.8867C14.4481 13.8867 15.9578 13.4441 16.7689 11.8986C16.9019 11.6427 16.7689 11.5071 16.6077 11.4227C16.4254 11.3309 16.2595 11.2099 16.1164 11.0645C16.3134 11.2615 16.275 11.3971 16.142 11.6171C15.5151 12.6611 14.6579 13.1882 13.4681 13.1882C12.2783 13.1882 11.4212 12.6611 10.7943 11.6171C10.6612 11.3971 10.6229 11.2615 10.8071 11.067C10.6661 11.2142 10.4997 11.3347 10.3158 11.4227C10.1572 11.5071 10.0216 11.6427 10.1572 11.8986C10.9657 13.4441 12.4856 13.8867 13.4681 13.8867Z" fill="#FCEA83" stroke="white" stroke-width="6.98698" stroke-linejoin="round"/>
</g>
<path id="ky-c" d="M11.1988 11.8159C11.1732 11.6931 11.0171 11.7417 10.9685 11.8901C10.9023 11.8052 10.844 11.7144 10.7945 11.6189C10.6487 11.3988 10.6231 11.2504 10.8329 11.0432C10.9301 10.9459 11.1271 10.8334 11.2602 10.9562C11.5417 11.189 11.3958 11.5703 11.1988 11.8159ZM15.7251 11.8159C15.7507 11.6931 15.9222 11.7417 15.9708 11.8901C16.0322 11.8031 16.0936 11.7187 16.1422 11.6189C16.2881 11.3988 16.3136 11.2504 16.091 11.0432C16.0066 10.9459 15.8096 10.8334 15.6637 10.9562C15.3925 11.189 15.5281 11.5703 15.7251 11.8159ZM9.74032 12.8343C9.6175 12.65 9.52027 12.169 9.49468 12.0487C9.45886 11.9387 9.44607 11.8389 9.58168 11.7929C9.71729 11.7417 9.83755 11.9131 9.89896 12.0615C9.96037 12.2074 10.0602 12.4274 10.1702 12.6987C9.89896 12.54 9.67891 12.6475 9.74032 12.8343ZM17.1964 12.8343C17.3064 12.65 17.4036 12.169 17.442 12.0487C17.4676 11.9387 17.4906 11.8389 17.355 11.7929C17.2194 11.7417 17.0992 11.9131 17.0378 12.0615C16.9763 12.2074 16.8766 12.4274 16.7665 12.6987C17.0378 12.54 17.245 12.6475 17.1964 12.8343Z" fill="#C8102E" stroke="white" stroke-width="6.98698" stroke-linejoin="round"/>
<g id="ky-d">
<path id="Vector_9" d="M12.5242 7.27883C12.3656 7.31465 12.2555 7.32745 12.1071 7.19184C12.0099 7.0946 12.0329 6.92317 12.1327 6.8592C12.2427 6.78756 12.34 6.73894 12.4756 6.77477C12.6112 6.81315 12.9668 7.14322 12.8799 7.15601C12.7929 7.15601 12.6598 7.24045 12.5242 7.27883ZM12.9029 6.69033C12.9541 6.65195 13.0155 6.62892 13.1741 6.61357C13.3225 6.60333 13.43 6.60333 13.4684 6.71592C13.5195 6.84897 13.5554 7.00761 13.6526 7.08181C13.5912 7.11763 13.2841 7.15601 13.1741 7.0946C13.0283 7.0204 12.9899 6.73639 12.9054 6.69033H12.9029ZM13.9596 6.70312C14.0082 6.66474 14.0697 6.66474 14.2283 6.67754C14.3869 6.69033 14.4483 6.70312 14.4842 6.81315C14.5225 6.93596 14.4842 7.0946 14.5609 7.20463C14.4842 7.23022 14.2411 7.23022 14.1541 7.14322C14.021 7.04599 14.0313 6.76197 13.9596 6.70056V6.70312Z" fill="white" stroke="white" stroke-width="6.98698" stroke-linejoin="round"/>
<path id="Vector_10" d="M14.6941 6.77495C14.584 6.74936 14.5098 6.73913 14.4638 6.77495C14.5226 6.84915 14.474 7.1434 14.5968 7.24063C14.6813 7.30204 14.9039 7.31739 14.9525 7.17922C15.0139 7.05641 15.0139 6.87218 14.6966 6.77495H14.6941ZM13.4326 6.65213C13.4684 6.61631 13.5426 6.60352 13.6885 6.60352C13.8497 6.60352 13.9444 6.6291 13.9955 6.72633C14.0467 6.84915 14.0314 7.00779 14.1184 7.10758C14.0825 7.1562 13.7499 7.1562 13.6527 7.08199C13.5171 6.995 13.5043 6.71354 13.4326 6.65213ZM12.3912 6.76216C12.3912 6.70075 12.4757 6.69051 12.6983 6.67772C12.9158 6.65213 12.9286 6.66492 13.0028 6.82356C13.0386 6.91056 13.0872 7.05641 13.187 7.10502C12.9158 7.16899 12.8288 7.20481 12.6829 7.11782C12.5764 7.0512 12.4884 6.95879 12.4271 6.84915C12.4143 6.81333 12.4143 6.77495 12.3887 6.76216H12.3912Z" fill="#073163" stroke="white" stroke-width="6.98698" stroke-linejoin="round"/>
</g>
<g id="ky-e">
<path id="Vector_11" d="M12.4138 5.67173C12.3268 5.67173 12.2552 5.63591 12.204 5.5745C12.1196 5.46192 11.8867 5.4133 11.7869 5.51309C11.7511 5.53868 11.7025 5.53868 11.6667 5.54891C11.6053 5.54891 11.5311 5.61032 11.5541 5.73314C11.6053 5.69476 11.6155 5.73314 11.6539 5.73314C11.6795 5.72035 11.6667 5.74594 11.6667 5.76896C11.6667 5.83037 11.7997 5.95319 11.9226 5.9404C12.0582 5.9404 12.1196 5.99157 12.1426 6.01716C12.181 6.05042 12.1554 6.04019 12.181 6.1016C12.2168 6.13742 12.2296 6.15021 12.1682 6.19883C12.1403 6.22212 12.1178 6.25127 12.1024 6.28421C12.0869 6.31715 12.0789 6.35308 12.0789 6.38945C12.0789 6.42582 12.0869 6.46175 12.1024 6.49469C12.1178 6.52763 12.1403 6.55678 12.1682 6.58007C12.3268 6.70033 12.7311 6.88712 13.1866 6.5289C13.6267 6.18603 14.3124 6.38305 14.3636 6.50331C14.425 6.62869 14.448 6.70033 14.4608 6.76174C14.4736 6.81292 14.535 6.86153 14.622 6.84874C14.7064 6.84874 14.8037 6.88456 14.8523 6.92294C14.9162 6.95876 15.0007 6.94853 14.9776 6.83594C14.9265 6.49308 14.7192 6.44446 14.6962 6.28582C14.8165 6.29606 14.9009 6.29606 14.9521 6.24744C14.9879 6.19883 15.0365 6.11183 15.0877 6.0888C15.1235 6.06321 15.1235 6.03763 15.0749 6.05042C15.0135 6.06321 14.9777 6.0888 14.8651 6.07601C14.3022 6.0146 12.7209 5.58474 12.4138 5.67173Z" fill="#059334" stroke="white" stroke-width="6.98698" stroke-linejoin="round"/>
<path id="Vector_12" d="M14.9163 6.08839C14.8228 6.15438 14.7429 6.23778 14.6809 6.33403C14.5607 6.49267 14.1922 6.65131 13.7368 6.65131C13.2967 6.65131 13.028 6.57966 12.831 6.42102C12.7468 6.35376 12.656 6.29545 12.5597 6.24703C12.4267 6.18562 12.4011 6.05001 12.4369 5.93998C12.4011 6.00139 12.3781 6.0628 12.3039 6.05001C12.2527 6.05001 12.1555 6.05001 12.1811 6.10118C12.1683 6.0756 12.1683 6.03977 12.1555 6.02442L12.1299 6.00139C12.1683 6.02698 12.2553 5.95278 12.3167 5.95278C12.3653 5.96557 12.4267 5.90416 12.4139 5.82996L12.3781 5.67132C12.4753 5.62015 13.7623 5.85555 14.0208 5.87858C14.2766 5.89137 15.0135 6.00139 14.9163 6.08839Z" fill="#000001" stroke="white" stroke-width="6.98698" stroke-linejoin="round"/>
<path id="Vector_13" d="M12.5852 5.62363C12.708 5.50081 12.8538 5.4394 13.0023 5.47522H13.0381C13.1148 5.41381 13.2837 5.40102 13.3835 5.44963H13.4321C13.578 5.40102 13.8594 5.44963 13.9592 5.54942L13.995 5.57501C14.3277 5.54942 14.5221 5.69527 14.755 5.93067C14.7806 5.95626 14.8164 6.00232 14.8778 6.01511C14.952 6.0279 14.9648 6.06628 14.9034 6.1021C14.805 6.16295 14.7183 6.24094 14.6475 6.33239C14.5349 6.48079 14.1793 6.6292 13.7366 6.6292C13.3093 6.6292 13.0509 6.55244 12.8538 6.40659C12.7438 6.32215 12.6594 6.27354 12.598 6.23516C12.5238 6.20957 12.4265 6.11234 12.4624 6.01511C12.488 5.91788 12.4265 5.79506 12.3779 5.67224C12.4138 5.64665 12.511 5.61083 12.5596 5.63642L12.5852 5.62363Z" fill="#059334" stroke="white" stroke-width="6.98698" stroke-linejoin="round"/>
<g id="Group_2">
<path id="Vector_14" d="M14.7547 5.93067C14.5245 5.69527 14.3274 5.54942 13.9948 5.57245C13.9948 5.58525 13.9948 5.62363 13.982 5.64921C14.2138 5.75324 14.4193 5.90801 14.5833 6.1021C14.6345 6.05093 14.7189 5.99208 14.7547 5.93067ZM13.959 5.54942C13.8592 5.45219 13.5777 5.40102 13.4319 5.45219C13.4319 5.50081 13.4319 5.57501 13.4063 5.62363C13.4933 5.65945 13.5649 5.74644 13.6391 5.83088C13.6903 5.81809 13.8106 5.78227 13.872 5.76947C13.9086 5.69938 13.9378 5.62563 13.959 5.54942ZM13.3833 5.44963C13.2835 5.40102 13.1121 5.41381 13.0379 5.47522C13.0123 5.5264 13.002 5.62363 13.002 5.67224C13.0532 5.67224 13.1248 5.70806 13.1479 5.73365C13.2246 5.70806 13.3219 5.65945 13.3577 5.62363C13.3705 5.57245 13.3935 5.50081 13.3833 5.45219V5.44963ZM12.585 5.62363C12.7078 5.50081 12.8536 5.4394 13.002 5.47522C12.9764 5.5136 12.9662 5.58525 12.9662 5.65945C12.8306 5.64665 12.6592 5.68504 12.585 5.73365V5.62363Z" fill="#00493D" stroke="white" stroke-width="6.98698" stroke-linejoin="round"/>
<path id="Vector_15" d="M14.5349 6.12564C14.3807 5.94313 14.1886 5.79643 13.972 5.69578C13.972 5.70858 13.9464 5.75719 13.9336 5.79557C14.0078 5.9056 14.1536 6.15123 14.2151 6.28684C14.2765 6.26126 14.4479 6.18705 14.5349 6.12564ZM13.6035 6.39687C13.6247 6.22963 13.6367 6.06136 13.6393 5.8928C13.7008 5.88001 13.8236 5.84419 13.8722 5.83139C13.9336 5.93118 14.082 6.18961 14.1434 6.30987C13.995 6.34569 13.7494 6.4071 13.6035 6.39687ZM13.1737 5.80836C13.2351 5.78278 13.3221 5.7316 13.3809 5.68555C13.4321 5.72137 13.5293 5.80836 13.5651 5.85698C13.5651 5.967 13.5293 6.28684 13.5165 6.39431C13.4193 6.39431 13.2607 6.37128 13.1737 6.32267C13.1865 6.13844 13.1992 5.93118 13.1737 5.80836ZM12.5596 5.95421C12.5724 5.92862 12.5852 5.84419 12.5852 5.80836C12.6824 5.74696 12.928 5.68555 13.1123 5.78278C13.125 5.9056 13.1123 6.21264 13.0995 6.28684C12.9354 6.15339 12.7548 6.04159 12.5621 5.95421H12.5596Z" fill="#00493D" stroke="white" stroke-width="6.98698" stroke-linejoin="round"/>
</g>
<g id="Group_3">
<path id="Vector_16" d="M11.9482 5.7318C11.9226 5.7318 11.9098 5.66016 11.8612 5.66016C11.8484 5.66016 11.8126 5.67295 11.7998 5.66016C11.7998 5.68574 11.8126 5.71133 11.8254 5.72157C11.8382 5.75739 11.8996 5.73436 11.9482 5.73436V5.7318Z" fill="#000001"/>
<path id="Vector_17" d="M11.9484 5.94098C12.0943 5.94098 12.1199 5.75675 12.1941 5.74651M12.0329 5.95377C12.1429 6.00494 12.2299 5.74651 12.3143 5.75675M11.8128 5.63649C11.8487 5.63649 11.8742 5.58532 11.9357 5.64672C11.9612 5.67231 11.9971 5.68511 12.0227 5.68511M11.9971 5.81816C11.9459 5.89492 11.8615 5.94098 11.8128 5.91795M11.7873 5.51367C11.7514 5.53926 11.7284 5.58532 11.7028 5.6237M11.667 5.69534V5.75675" stroke="white" stroke-width="6.98698" stroke-linejoin="round"/>
</g>
</g>
<g id="ky-f">
<g id="Vector_18">
<path d="M12.9797 5.51277C12.7213 5.31575 12.4143 5.13153 12.1328 5.0957C12.4265 5.2915 12.7053 5.50873 12.967 5.74562" fill="black"/>
<path d="M12.9797 5.51277C12.7213 5.31575 12.4143 5.13153 12.1328 5.0957C12.4265 5.2915 12.7053 5.50873 12.967 5.74562" stroke="white" stroke-width="6.98698" stroke-linejoin="round"/>
</g>
<g id="Vector_19">
<path d="M13.1257 5.32888C12.8186 5.11907 12.463 4.88622 12.1201 4.8632C12.441 5.04913 12.7268 5.28988 12.9645 5.57452M13.5172 4.98601C13.6557 4.67115 13.8608 4.39005 14.1185 4.16211C13.9956 4.42054 13.8626 4.94763 13.7986 5.15745" fill="black"/>
<path d="M13.1257 5.32888C12.8186 5.11907 12.463 4.88622 12.1201 4.8632C12.441 5.04913 12.7268 5.28988 12.9645 5.57452M13.5172 4.98601C13.6557 4.67115 13.8608 4.39005 14.1185 4.16211C13.9956 4.42054 13.8626 4.94763 13.7986 5.15745" stroke="white" stroke-width="6.98698" stroke-linejoin="round"/>
</g>
<g id="Vector_20">
<path d="M13.7881 4.92395C13.9067 4.63564 14.1296 4.40264 14.4124 4.27148C14.1999 4.53656 14.0417 4.84086 13.9467 5.16703" fill="black"/>
<path d="M13.7881 4.92395C13.9067 4.63564 14.1296 4.40264 14.4124 4.27148C14.1999 4.53656 14.0417 4.84086 13.9467 5.16703" stroke="white" stroke-width="6.98698" stroke-linejoin="round"/>
</g>
<g id="Vector_21">
<path d="M13.8984 5.16793C14.1334 4.80832 14.4701 4.52683 14.8656 4.35938C14.5586 4.66642 14.1057 5.22934 13.9957 5.45194M14.0699 5.43915C14.2899 5.31633 14.7326 5.11931 15.0499 5.18328C14.8554 5.25492 14.2669 5.52359 14.0085 5.77178" fill="black"/>
<path d="M13.8984 5.16793C14.1334 4.80832 14.4701 4.52683 14.8656 4.35938C14.5586 4.66642 14.1057 5.22934 13.9957 5.45194M14.0699 5.43915C14.2899 5.31633 14.7326 5.11931 15.0499 5.18328C14.8554 5.25492 14.2669 5.52359 14.0085 5.77178" stroke="white" stroke-width="6.98698" stroke-linejoin="round"/>
</g>
<g id="Vector_22">
<path d="M14.0213 5.35259C14.2285 5.13254 14.6098 4.80247 15.014 4.66686C14.7198 4.94831 14.0929 5.58799 14.0085 5.68522M13.4328 5.21954C13.2843 4.76409 13.0643 4.33678 12.7342 4.20117C12.9971 4.57705 13.18 5.00292 13.2716 5.45238M13.1487 5.20674C12.9057 4.91249 12.573 4.61824 12.1943 4.55683C12.5654 4.79966 12.8586 5.14436 13.0387 5.54961" fill="black"/>
<path d="M14.0213 5.35259C14.2285 5.13254 14.6098 4.80247 15.014 4.66686C14.7198 4.94831 14.0929 5.58799 14.0085 5.68522M13.4328 5.21954C13.2843 4.76409 13.0643 4.33678 12.7342 4.20117C12.9971 4.57705 13.18 5.00292 13.2716 5.45238M13.1487 5.20674C12.9057 4.91249 12.573 4.61824 12.1943 4.55683C12.5654 4.79966 12.8586 5.14436 13.0387 5.54961" stroke="white" stroke-width="6.98698" stroke-linejoin="round"/>
</g>
<g id="Vector_23">
<path d="M13.2868 5.19353C12.9798 4.64085 12.7444 4.54362 12.6113 4.43359C12.7214 4.64085 12.99 5.19353 13.1487 5.42637" fill="black"/>
<path d="M13.2868 5.19353C12.9798 4.64085 12.7444 4.54362 12.6113 4.43359C12.7214 4.64085 12.99 5.19353 13.1487 5.42637" stroke="white" stroke-width="6.98698" stroke-linejoin="round"/>
</g>
<path id="Vector_24" d="M12.6729 5.1582C12.8478 5.26826 12.9978 5.41383 13.1129 5.58551" stroke="white" stroke-width="6.98698" stroke-linejoin="round"/>
<g id="Vector_25">
<path d="M12.6729 5.41335C12.7445 5.47476 12.8801 5.54897 13.0029 5.65899ZM14.1313 5.59758C14.2541 5.50035 14.5228 5.34171 14.6584 5.29054ZM14.0443 5.51314C14.1671 5.35195 14.4128 5.1319 14.4998 5.05769ZM14.3872 4.75065C14.2223 4.93543 14.0669 5.12843 13.9215 5.32892ZM14.0699 4.64062C13.9538 4.81239 13.8511 4.9929 13.7629 5.18051ZM13.1002 4.66621C13.1744 4.86323 13.31 5.19331 13.356 5.32892ZM12.9901 4.87347C13.0413 4.95023 13.1385 5.1191 13.1744 5.24192Z" fill="black"/>
<path d="M12.6729 5.41335C12.7445 5.47476 12.8801 5.54897 13.0029 5.65899M14.1313 5.59758C14.2541 5.50035 14.5228 5.34171 14.6584 5.29054M14.0443 5.51314C14.1671 5.35195 14.4128 5.1319 14.4998 5.05769M14.3872 4.75065C14.2223 4.93543 14.0669 5.12843 13.9215 5.32892M14.0699 4.64062C13.9538 4.81239 13.8511 4.9929 13.7629 5.18051M13.1002 4.66621C13.1744 4.86323 13.31 5.19331 13.356 5.32892M12.9901 4.87347C13.0413 4.95023 13.1385 5.1191 13.1744 5.24192" stroke="white" stroke-width="6.98698" stroke-linejoin="round"/>
</g>
</g>
<g id="ky-g">
<path id="Vector_26" d="M13.4062 4.81232C13.4062 4.70229 13.4805 4.58203 13.5547 4.58203C13.6391 4.58203 13.7005 4.72788 13.7005 4.81232C13.7005 4.9121 13.6263 4.99654 13.5547 4.99654C13.4779 4.99654 13.4062 4.9249 13.4062 4.81232Z" fill="black" stroke="white" stroke-width="6.98698" stroke-linejoin="round"/>
<path id="Vector_27" d="M13.2478 4.91173C13.2606 4.78891 13.345 4.69168 13.4192 4.70191C13.4934 4.71471 13.5293 4.86311 13.5165 4.94755C13.5037 5.04478 13.4192 5.11898 13.3578 5.10619C13.2964 5.10619 13.235 5.02175 13.2478 4.91173ZM13.5779 4.94755C13.5523 4.83752 13.6035 4.71726 13.6777 4.70191C13.7493 4.69168 13.8235 4.81194 13.8363 4.91173C13.8619 5.00896 13.7979 5.10619 13.7365 5.10619C13.6777 5.11898 13.5907 5.05757 13.5779 4.94755Z" fill="black" stroke="white" stroke-width="6.98698" stroke-linejoin="round"/>
<path id="Vector_28" d="M13.3936 5.04474C13.3936 4.92448 13.4678 4.81445 13.542 4.81445C13.6264 4.81445 13.6878 4.94751 13.6878 5.04474C13.6878 5.14453 13.6162 5.22896 13.542 5.22896C13.4678 5.22896 13.3936 5.15732 13.3936 5.04474Z" fill="black" stroke="white" stroke-width="6.98698" stroke-linejoin="round"/>
<path id="Vector_29" d="M13.1738 5.10702C13.1738 4.997 13.2608 4.87674 13.3325 4.87674C13.4092 4.87674 13.4809 5.02259 13.4809 5.10702C13.4809 5.20681 13.3939 5.29125 13.3325 5.29125C13.2608 5.29125 13.1738 5.21961 13.1738 5.10702ZM13.6267 5.05841C13.6267 4.94838 13.7035 4.82812 13.7751 4.82812C13.8596 4.82812 13.921 4.97397 13.921 5.05841C13.921 5.1582 13.8493 5.24264 13.7751 5.24264C13.7009 5.24264 13.6267 5.16843 13.6267 5.05841Z" fill="black" stroke="white" stroke-width="6.98698" stroke-linejoin="round"/>
<path id="Vector_30" d="M13.5781 5.15667C13.5781 5.03385 13.6651 4.92383 13.7368 4.92383C13.8135 4.92383 13.8852 5.05688 13.8852 5.15411C13.8852 5.2539 13.811 5.3409 13.7368 5.3409C13.6651 5.3409 13.5781 5.26414 13.5781 5.15667Z" fill="black" stroke="white" stroke-width="6.98698" stroke-linejoin="round"/>
<path id="Vector_31" d="M13.3832 5.26712C13.3832 5.1443 13.4549 5.03428 13.5291 5.03428C13.6161 5.03428 13.6775 5.18012 13.6775 5.26456C13.6775 5.36691 13.6007 5.45135 13.5291 5.45135C13.4549 5.45135 13.3807 5.37459 13.3807 5.26712H13.3832ZM13.0762 5.26712C13.0762 5.1443 13.1376 5.03428 13.199 5.03428C13.2604 5.03428 13.309 5.18012 13.309 5.26456C13.309 5.36691 13.2476 5.45135 13.199 5.45135C13.1376 5.45135 13.0762 5.37459 13.0762 5.26712ZM13.7619 5.24409C13.7619 5.13151 13.8233 5.02148 13.8847 5.02148C13.9461 5.02148 14.0075 5.1571 14.0075 5.24153C14.0075 5.35156 13.9333 5.42576 13.8847 5.42576C13.8233 5.42576 13.7619 5.35156 13.7619 5.24153V5.24409Z" fill="black" stroke="white" stroke-width="6.98698" stroke-linejoin="round"/>
<path id="Vector_32" d="M13.8367 5.44845C13.8623 5.32819 13.9339 5.2284 13.9825 5.24375C14.0337 5.25399 14.0439 5.39983 14.0209 5.48683C14.0081 5.59685 13.9339 5.65826 13.8853 5.64547C13.8341 5.63523 13.8111 5.54824 13.8341 5.45101L13.8367 5.44845Z" fill="black" stroke="white" stroke-width="6.98698" stroke-linejoin="round"/>
<path id="Vector_33" d="M13.6036 5.41335C13.6164 5.30333 13.688 5.1933 13.7494 5.2061C13.8236 5.2061 13.8594 5.35194 13.8492 5.43638C13.8364 5.54896 13.7724 5.62316 13.7136 5.61037C13.6522 5.61037 13.5908 5.52338 13.6036 5.41335ZM13.2607 5.44917C13.2223 5.32891 13.1481 5.24448 13.0995 5.25471C13.0509 5.2675 13.0381 5.41335 13.0637 5.50035C13.0893 5.59758 13.1609 5.65899 13.2095 5.64619C13.2479 5.63596 13.2863 5.54896 13.2607 5.45173V5.44917Z" fill="black" stroke="white" stroke-width="6.98698" stroke-linejoin="round"/>
<path id="Vector_34" d="M13.1738 5.42513C13.1738 5.3151 13.2352 5.20508 13.2966 5.20508C13.3708 5.20508 13.4195 5.34069 13.4195 5.42513C13.4195 5.53515 13.3581 5.60935 13.2966 5.60935C13.2455 5.60935 13.1738 5.53515 13.1738 5.42513Z" fill="black" stroke="white" stroke-width="6.98698" stroke-linejoin="round"/>
<path id="Vector_35" d="M13.3576 5.47451C13.3576 5.3517 13.4318 5.24423 13.5035 5.24423C13.5905 5.24423 13.6519 5.37728 13.6519 5.47451C13.6519 5.5743 13.5777 5.65874 13.5035 5.65874C13.4318 5.65874 13.3576 5.58454 13.3576 5.47451ZM13.419 4.12607C13.3935 4.22331 13.309 4.3103 13.3679 4.44591C13.2604 4.40753 13.1632 4.39474 13.0762 4.49453C13.1862 4.48173 13.2834 4.52012 13.332 4.59176C13.2348 4.57897 13.1862 4.63014 13.1606 4.69155C13.2476 4.66596 13.332 4.64037 13.3704 4.65317C13.332 4.69155 13.2706 4.7504 13.2604 4.80157C13.332 4.74016 13.419 4.7504 13.4677 4.71458C13.4318 4.80157 13.5035 4.88601 13.5649 4.97045C13.5547 4.85019 13.6263 4.76575 13.5905 4.70178C13.7005 4.72737 13.7133 4.8246 13.8719 4.8246C13.8105 4.78878 13.7747 4.66596 13.7005 4.66596C13.7363 4.65317 13.8847 4.64037 13.9103 4.66596C13.8847 4.61479 13.7977 4.56873 13.7491 4.56873C13.8003 4.51756 13.8847 4.42033 13.9461 4.39474C13.8591 4.40753 13.7261 4.42033 13.6775 4.49453C13.7977 4.39474 13.7747 4.21307 13.9078 4.18748C13.8361 4.17469 13.7261 4.22331 13.6391 4.3103C13.6775 4.2361 13.6775 4.13887 13.7261 4.11328C13.6263 4.13887 13.5163 4.26169 13.4804 4.3231C13.4751 4.25362 13.4541 4.18626 13.419 4.12607Z" fill="black" stroke="white" stroke-width="6.98698" stroke-linejoin="round"/>
<g id="Vector_36">
<path d="M13.4806 4.32334C13.4806 4.35916 13.4806 4.43336 13.4678 4.45639ZM13.6392 4.31055C13.6136 4.33613 13.565 4.42057 13.565 4.49477Z" fill="black"/>
<path d="M13.4806 4.32334C13.4806 4.35916 13.4806 4.43336 13.4678 4.45639M13.6392 4.31055C13.6136 4.33613 13.565 4.42057 13.565 4.49477" stroke="white" stroke-width="6.98698" stroke-linejoin="round"/>
</g>
<path id="Vector_37" d="M13.7139 4.45703C13.6718 4.48222 13.6407 4.52244 13.627 4.56961" stroke="white" stroke-width="6.98698" stroke-linejoin="round"/>
</g>
</g>
<g id="Group_4">
<g id="ky-b_2">
<path id="Vector_38" d="M9.74024 12.8328C9.81444 13.0272 10.3415 13.2857 10.9556 12.9556C11.3727 12.7202 11.6414 12.3927 11.8998 11.8042C11.9714 11.6558 12.0098 11.4715 11.8384 11.3615C11.7028 11.2617 11.4802 11.1517 11.3829 11.0545C11.3343 11.0033 11.2857 10.9675 11.2499 10.9316C11.2755 10.9572 11.2985 10.9803 11.3215 11.0161C11.5672 11.3103 11.3113 11.7402 11.0401 11.9986C10.843 12.1828 10.4899 12.6357 9.97308 12.2059C9.86306 12.1086 9.60463 12.5129 9.7428 12.8328H9.74024ZM17.1963 12.8328C17.1093 13.0272 16.5822 13.2857 15.9809 12.9556C15.5664 12.7202 15.2952 12.3927 15.0265 11.8042C14.9651 11.6558 14.9267 11.4715 15.0982 11.3615C15.2338 11.2617 15.4564 11.1517 15.5536 11.0545C15.6022 11.0033 15.6381 10.9675 15.6867 10.9316C15.6611 10.9572 15.6381 10.9803 15.615 11.0161C15.3694 11.3103 15.6253 11.7402 15.8837 11.9986C16.0807 12.1828 16.4466 12.6357 16.9635 12.2059C17.0735 12.1086 17.3191 12.5129 17.1938 12.8328H17.1963Z" fill="#FCEA83" stroke="black" stroke-width="1.01893"/>
<path id="Vector_39" d="M13.4681 13.8867C14.4481 13.8867 15.9578 13.4441 16.7689 11.8986C16.9019 11.6427 16.7689 11.5071 16.6077 11.4227C16.4254 11.3309 16.2595 11.2099 16.1164 11.0645C16.3134 11.2615 16.275 11.3971 16.142 11.6171C15.5151 12.6611 14.6579 13.1882 13.4681 13.1882C12.2783 13.1882 11.4212 12.6611 10.7943 11.6171C10.6612 11.3971 10.6229 11.2615 10.8071 11.067C10.6661 11.2142 10.4997 11.3347 10.3158 11.4227C10.1572 11.5071 10.0216 11.6427 10.1572 11.8986C10.9657 13.4441 12.4856 13.8867 13.4681 13.8867Z" fill="#FCEA83" stroke="black" stroke-width="1.01893"/>
</g>
<path id="ky-c_2" d="M11.1988 11.8139C11.1732 11.6911 11.0171 11.7397 10.9685 11.8881C10.9023 11.8033 10.844 11.7125 10.7945 11.6169C10.6487 11.3969 10.6231 11.2485 10.8329 11.0412C10.9301 10.944 11.1271 10.8314 11.2602 10.9542C11.5417 11.1871 11.3958 11.5683 11.1988 11.8139ZM15.7251 11.8139C15.7507 11.6911 15.9222 11.7397 15.9708 11.8881C16.0322 11.8012 16.0936 11.7167 16.1422 11.6169C16.2881 11.3969 16.3136 11.2485 16.091 11.0412C16.0066 10.944 15.8096 10.8314 15.6637 10.9542C15.3925 11.1871 15.5281 11.5683 15.7251 11.8139ZM9.74032 12.8323C9.6175 12.6481 9.52027 12.167 9.49468 12.0468C9.45886 11.9368 9.44607 11.837 9.58168 11.7909C9.71729 11.7397 9.83755 11.9112 9.89896 12.0596C9.96037 12.2054 10.0602 12.4255 10.1702 12.6967C9.89896 12.5381 9.67891 12.6455 9.74032 12.8323ZM17.1964 12.8323C17.3064 12.6481 17.4036 12.167 17.442 12.0468C17.4676 11.9368 17.4906 11.837 17.355 11.7909C17.2194 11.7397 17.0992 11.9112 17.0378 12.0596C16.9763 12.2054 16.8766 12.4255 16.7665 12.6967C17.0378 12.5381 17.245 12.6455 17.1964 12.8323Z" fill="#C8102E" stroke="black" stroke-width="1.01893"/>
<g id="Group_5">
<path id="Vector_40" d="M10.4518 11.727L10.3546 11.7782C10.329 11.7884 10.329 11.814 10.329 11.8268H10.3162L10.2676 11.7168H10.2804C10.2804 11.727 10.2932 11.7424 10.3162 11.727L10.526 11.617C10.5516 11.6042 10.5516 11.5914 10.5388 11.5812L10.549 11.5684L10.6104 11.6912H10.6002C10.5874 11.6784 10.5746 11.6656 10.549 11.6784L10.4646 11.7296L10.5004 11.8012L10.6002 11.7654C10.6258 11.7526 10.6104 11.727 10.6104 11.7142H10.6232L10.6744 11.8268C10.6616 11.814 10.6488 11.8012 10.6232 11.814L10.416 11.924C10.3904 11.9368 10.3904 11.9496 10.4032 11.9598L10.3904 11.9726L10.329 11.8626L10.3418 11.8498C10.3546 11.8626 10.3674 11.8754 10.393 11.8626L10.4902 11.8114L10.4518 11.727ZM10.6616 11.8882C10.6872 11.8754 10.6872 11.8626 10.6719 11.837H10.6846L10.8075 12.0213L10.723 12.0827V12.0724C10.7716 12.034 10.7716 11.9854 10.7589 11.9726C10.7461 11.9598 10.7333 11.947 10.7333 11.9368C10.723 11.9368 10.723 11.924 10.6974 11.9496L10.6104 12.011C10.6232 12.0213 10.636 12.0596 10.6974 12.0213H10.7102L10.5746 12.121V12.1082C10.636 12.0571 10.6104 12.0213 10.6002 12.011L10.5132 12.0724C10.4876 12.0827 10.4876 12.098 10.4876 12.1082C10.5004 12.1082 10.5004 12.121 10.5132 12.1338C10.526 12.1594 10.5644 12.1824 10.6232 12.1594L10.636 12.1697L10.5388 12.2055L10.416 12.011H10.4288C10.439 12.0213 10.4544 12.0366 10.4774 12.0213L10.6616 11.8882ZM10.8561 12.3539L10.7716 12.4255C10.7589 12.4383 10.7589 12.4639 10.7716 12.4767H10.7589L10.6719 12.3897L10.6846 12.3769C10.6974 12.3897 10.7102 12.4025 10.7358 12.3769L10.8945 12.2183C10.92 12.2055 10.92 12.1927 10.9047 12.1671L10.9917 12.2694C10.9789 12.2541 10.9559 12.2541 10.9405 12.2694L10.8689 12.3411L10.9303 12.4025L11.0045 12.3411C11.0301 12.3155 11.0173 12.3053 11.0045 12.2899L11.0173 12.2797L11.1017 12.3769H11.0889C11.0787 12.3769 11.0633 12.3667 11.0403 12.3897L10.8817 12.5381C10.8561 12.5637 10.8561 12.5739 10.8689 12.5867V12.5995L10.7844 12.4997C10.7947 12.4997 10.8203 12.5125 10.8331 12.4997L10.9175 12.4153L10.8561 12.3539ZM11.0403 12.6123L11.0787 12.6481L11.1273 12.5381C11.1273 12.5381 11.0889 12.5483 11.0275 12.5867L11.0403 12.6123ZM11.0403 12.6123L11.0275 12.6225L11.0019 12.597C10.9917 12.6098 10.9789 12.6098 10.9661 12.6225C10.9303 12.6481 10.9405 12.6609 10.9559 12.6737V12.684L10.8945 12.6225H10.9047L10.9559 12.6098L11.1989 12.4767L11.2117 12.4869C11.2117 12.4869 11.1989 12.4997 11.0889 12.7454C11.0889 12.771 11.0787 12.7812 11.0889 12.8068L10.9917 12.7223L11.0045 12.7095C11.0173 12.7351 11.0403 12.7351 11.0531 12.7095C11.0531 12.6967 11.0659 12.6712 11.0659 12.6584L11.0275 12.6225L11.0403 12.6098V12.6123ZM11.1375 12.8554L11.1503 12.8426C11.1631 12.8554 11.1759 12.8554 11.2015 12.8426L11.3601 12.6353L11.3474 12.6225C11.3218 12.6098 11.2859 12.6098 11.2501 12.6481V12.6353L11.2987 12.5739L11.483 12.7095L11.4216 12.7812H11.4088C11.4446 12.7454 11.4343 12.6967 11.4088 12.684V12.6712L11.2501 12.881C11.2245 12.8938 11.2373 12.9168 11.2501 12.9296H11.2373L11.1375 12.8554Z" fill="#00493D"/>
<path id="Vector_41" d="M11.4575 12.9054L11.3961 12.9924C11.3833 13.018 11.3961 13.0282 11.4089 13.0436L11.3961 13.0538L11.2988 12.9796V12.9668C11.3244 12.9796 11.3347 12.9796 11.3474 12.9566L11.4831 12.7723C11.4933 12.7468 11.4831 12.734 11.4703 12.7212L11.4831 12.7109L11.5803 12.7826V12.7954C11.5547 12.7826 11.5445 12.7826 11.5291 12.8082L11.4703 12.8952L11.5445 12.9438L11.6059 12.8568C11.6161 12.8312 11.6059 12.821 11.5931 12.8082L11.6059 12.7954L11.7031 12.8696V12.8824C11.6903 12.8696 11.6673 12.8696 11.6519 12.8952L11.5317 13.0896C11.5061 13.1024 11.5189 13.1152 11.5317 13.128V13.1382L11.4216 13.0666H11.4344C11.4447 13.0666 11.46 13.0666 11.4703 13.0538L11.5317 12.9566L11.4575 12.9054ZM11.7031 13.2508L11.7159 13.238C11.7287 13.2508 11.7517 13.2508 11.7645 13.2252L11.8617 13.018C11.8745 12.9924 11.8617 12.9796 11.849 12.9668L12.0588 13.0666L12.0076 13.1638L11.9974 13.151C12.0332 13.1024 11.9974 13.0538 11.9846 13.041C11.9718 13.041 11.959 13.0282 11.9487 13.0282C11.9359 13.0282 11.9359 13.0282 11.9232 13.0538C11.9104 13.0666 11.8745 13.1382 11.8745 13.1382C11.8873 13.151 11.9104 13.1766 11.9615 13.1127H11.9718L11.9001 13.2611L11.8873 13.2508C11.9232 13.1741 11.8745 13.1638 11.8617 13.1638L11.8131 13.2611C11.8003 13.2866 11.8131 13.2994 11.8259 13.2994V13.3122L11.7031 13.2508ZM12.0588 13.4223C12.0229 13.3967 12.0229 13.3225 12.0588 13.2508C12.0844 13.1741 12.133 13.1152 12.1816 13.1382C12.2174 13.151 12.2072 13.2252 12.1816 13.2994C12.1432 13.3839 12.0946 13.4325 12.0588 13.4223H12.046C12.133 13.4581 12.1944 13.4095 12.2302 13.3225C12.266 13.2508 12.2558 13.1638 12.179 13.128C12.1074 13.0896 12.0332 13.1382 11.9974 13.2252C11.9615 13.3122 11.9718 13.3967 12.0485 13.4223H12.0588ZM12.4375 13.4453L12.4886 13.2994C12.4989 13.2739 12.4886 13.2611 12.4758 13.2483L12.5372 13.2611V13.2739C12.5244 13.2739 12.5117 13.2739 12.4989 13.2994L12.4502 13.4453C12.4247 13.5067 12.3888 13.5553 12.3172 13.5323C12.266 13.5195 12.2302 13.4581 12.2558 13.3967L12.3172 13.238C12.3274 13.2124 12.3172 13.1997 12.3044 13.1869V13.1766L12.4144 13.2252V13.238C12.4016 13.2252 12.3786 13.2252 12.3786 13.2508L12.3146 13.4069C12.3018 13.4555 12.3018 13.5041 12.3402 13.5169C12.376 13.5297 12.4119 13.5041 12.4349 13.4427L12.4375 13.4453ZM12.55 13.2866C12.55 13.2739 12.55 13.2739 12.5372 13.2739L12.6217 13.2866L12.6984 13.5195L12.7343 13.3711C12.7445 13.3455 12.7343 13.3353 12.7215 13.3225L12.7931 13.3353L12.7829 13.3481C12.7701 13.3481 12.7573 13.3481 12.7445 13.3736L12.6831 13.6423H12.6729L12.5731 13.3481L12.5117 13.5451C12.5117 13.5809 12.5244 13.5809 12.5372 13.5937V13.6065L12.463 13.5809V13.5681C12.4758 13.5809 12.4989 13.5681 12.4989 13.5425L12.5603 13.3225L12.55 13.2866ZM12.9671 13.5323C12.9415 13.6423 12.8903 13.6679 12.8673 13.6679H12.8417C12.8417 13.6679 12.8315 13.6551 12.8417 13.6423L12.8801 13.3967C12.8929 13.3839 12.8929 13.3711 12.9057 13.3839H12.9313C12.9543 13.3839 12.9773 13.4351 12.9671 13.5323L13.0029 13.5451C13.0285 13.4223 12.9773 13.3711 12.9159 13.3608C12.8673 13.3481 12.7931 13.3353 12.7931 13.3353V13.3481C12.8059 13.3608 12.8315 13.3608 12.8187 13.3992L12.7829 13.6167C12.7701 13.6423 12.7573 13.6551 12.7445 13.6551H12.7343L12.8545 13.6807C12.9159 13.6909 12.9773 13.6807 13.0029 13.5451L12.9671 13.5323ZM13.0771 13.4325C13.0771 13.4069 13.0515 13.3967 13.0387 13.3967V13.3839L13.2614 13.4095L13.2486 13.5067C13.2486 13.4453 13.2102 13.4223 13.1872 13.4223C13.1744 13.4095 13.1616 13.4095 13.1488 13.4095C13.1385 13.4095 13.1385 13.4095 13.1385 13.4453L13.1257 13.5451C13.1385 13.5451 13.1744 13.5553 13.1999 13.4837L13.1872 13.6423H13.1744C13.1744 13.5681 13.1385 13.5681 13.1232 13.5681L13.113 13.6781C13.113 13.7037 13.113 13.7037 13.1257 13.7037L13.1513 13.7165C13.1872 13.7165 13.223 13.7037 13.2486 13.6295H13.2614L13.2358 13.7267L13.0029 13.7012C13.0285 13.7012 13.0387 13.6909 13.0541 13.6679L13.0771 13.4325ZM13.4814 13.5809C13.4814 13.6909 13.443 13.7267 13.4072 13.7267C13.3944 13.7165 13.3944 13.7165 13.3816 13.7165L13.3714 13.7037L13.3842 13.4478C13.3842 13.4325 13.3842 13.4325 13.3944 13.4325H13.42C13.4456 13.4325 13.4814 13.4709 13.4814 13.5809H13.53C13.53 13.4581 13.4686 13.4223 13.4072 13.4223C13.356 13.4095 13.2844 13.4095 13.2844 13.4095V13.4223C13.2972 13.4223 13.3228 13.4325 13.3228 13.4581L13.31 13.6909C13.31 13.7165 13.2972 13.7267 13.2844 13.7267V13.7395H13.3944C13.4558 13.7395 13.5172 13.714 13.53 13.5809H13.4788H13.4814ZM13.8371 13.6781C13.8371 13.7037 13.8499 13.7037 13.8729 13.7037V13.7165L13.7373 13.7267C13.7501 13.7165 13.7757 13.7012 13.7757 13.6781L13.7501 13.4478C13.7373 13.4223 13.7245 13.4223 13.7015 13.4223V13.4095L13.8371 13.3967C13.8243 13.4095 13.7987 13.4223 13.8115 13.4478L13.8371 13.6781ZM13.9599 13.7037V13.6909C13.9727 13.6909 13.9855 13.6781 13.9855 13.6551L13.9343 13.3992H13.9215C13.8959 13.4095 13.8729 13.4325 13.8857 13.4837H13.8729L13.8601 13.3967L14.0827 13.3608L14.0929 13.4453H14.0827C14.0827 13.3967 14.0443 13.3839 14.0059 13.3839H13.9957L14.0469 13.6397C14.0469 13.6653 14.0571 13.6781 14.0827 13.6781V13.6909L13.9599 13.7037ZM14.487 13.4581L14.4358 13.3122C14.4358 13.2866 14.4128 13.2866 14.4 13.2866V13.2739L14.4614 13.2483V13.2611C14.4486 13.2739 14.4486 13.2739 14.4486 13.2994L14.4998 13.4581C14.51 13.5093 14.51 13.5809 14.4384 13.6065C14.3872 13.6167 14.3283 13.5937 14.3155 13.5195L14.2644 13.3608C14.2541 13.3353 14.2413 13.3353 14.2285 13.3353L14.2158 13.3225L14.3386 13.2866V13.2994C14.3283 13.3122 14.313 13.325 14.3283 13.3481L14.3642 13.5067C14.377 13.5579 14.4153 13.5809 14.4486 13.5809C14.487 13.5681 14.4998 13.5195 14.487 13.4581ZM14.6226 13.3711C14.6814 13.3455 14.6712 13.3122 14.6584 13.2739C14.6456 13.238 14.6226 13.2124 14.597 13.2252C14.5842 13.2252 14.5714 13.238 14.5842 13.2508L14.6226 13.3711ZM14.6328 13.3839L14.6584 13.4837C14.6712 13.5093 14.6942 13.5093 14.7096 13.4939V13.5067L14.597 13.5579L14.5842 13.5451C14.6098 13.5323 14.6098 13.5195 14.6098 13.4939L14.5228 13.2866C14.51 13.2508 14.4972 13.2611 14.4742 13.2611V13.2508L14.597 13.1997C14.6482 13.1894 14.6942 13.1997 14.7198 13.2508C14.7326 13.3122 14.707 13.3481 14.6584 13.3736C14.6456 13.3736 14.6328 13.3839 14.6328 13.3839Z" fill="#00493D"/>
<path id="Vector_42" d="M14.9265 13.4054C14.8907 13.4207 14.8421 13.3695 14.8037 13.2851C14.7679 13.2109 14.7679 13.1367 14.8037 13.1265C14.8421 13.1137 14.8907 13.1623 14.9265 13.2365C14.9649 13.3107 14.9649 13.3823 14.9265 13.4079C15.0033 13.3823 15.0263 13.2979 14.9879 13.2109C14.9521 13.1367 14.8779 13.0881 14.8037 13.1137C14.7865 13.1223 14.7712 13.1343 14.7587 13.149C14.7462 13.1637 14.7368 13.1807 14.7311 13.1991C14.7254 13.2175 14.7234 13.2369 14.7253 13.256C14.7272 13.2752 14.733 13.2938 14.7423 13.3107C14.7807 13.3951 14.8549 13.4437 14.9265 13.4079V13.4054ZM14.9393 13.0651H14.9163L14.9879 13.0139L15.2105 13.1367L15.1338 13.0036C15.1235 12.9781 15.0979 12.9781 15.0877 12.9781V12.9653L15.1491 12.9397C15.1363 12.955 15.1235 12.9653 15.1491 12.9909L15.2719 13.2365L15.2591 13.2493L14.9879 13.1009L15.0877 13.2851C15.0979 13.3107 15.1235 13.3107 15.1363 13.2979V13.3107L15.0749 13.3465V13.3337C15.0877 13.3209 15.0877 13.3081 15.0749 13.2851L14.9777 13.0881L14.9393 13.0651ZM15.492 13.1009V13.0881C15.492 13.0753 15.5048 13.0625 15.492 13.0395L15.3436 12.8322H15.3308C15.3052 12.8424 15.295 12.8936 15.3308 12.9294L15.3205 12.9422L15.2694 12.8552L15.4536 12.7324L15.5048 12.8092C15.4664 12.7708 15.428 12.7708 15.405 12.7836L15.3922 12.7938L15.5406 13.0036C15.5534 13.0292 15.5764 13.0292 15.5918 13.0164V13.0267L15.492 13.1009Z" fill="#00493D"/>
<path id="Vector_43" d="M15.6281 12.8074L15.6997 12.8944C15.7125 12.9047 15.7381 12.9047 15.7509 12.8944V12.9047L15.6511 12.9917V12.9789C15.6639 12.9661 15.6639 12.9533 15.6511 12.9303L15.5053 12.746C15.4925 12.7204 15.4797 12.7332 15.4541 12.7332L15.5539 12.6488V12.6616C15.5539 12.6718 15.5411 12.6872 15.5539 12.7102L15.6153 12.7819L15.6869 12.7332L15.6281 12.6488C15.6153 12.6232 15.5897 12.636 15.5769 12.636L15.6767 12.549V12.5618C15.6639 12.5746 15.6639 12.5874 15.6767 12.613L15.8226 12.7946C15.8353 12.8074 15.8481 12.8074 15.8609 12.7946L15.8712 12.8074L15.7739 12.8944L15.7611 12.8816C15.7739 12.8688 15.7867 12.8561 15.7739 12.8305L15.6997 12.746L15.6281 12.8074ZM15.7381 12.549C15.7253 12.5388 15.6997 12.5388 15.6869 12.549V12.5388L15.8481 12.3904L15.9223 12.4646H15.9096C15.8712 12.4134 15.8226 12.439 15.7995 12.4518C15.7995 12.4646 15.7867 12.4646 15.7739 12.4774C15.7739 12.4774 15.7739 12.4876 15.7867 12.5132L15.8609 12.5874C15.8712 12.5746 15.9096 12.549 15.8609 12.4876H15.8712L15.971 12.6002V12.6104C15.9096 12.549 15.884 12.5848 15.8712 12.6002L15.9479 12.6718C15.9582 12.6974 15.971 12.6974 15.971 12.6974L16.0068 12.6616C16.0196 12.6488 16.0324 12.6104 16.0068 12.5388H16.0196L16.0682 12.6232L15.9096 12.7819L15.8968 12.7716C15.9096 12.7588 15.9223 12.746 15.8968 12.7204L15.7381 12.549ZM16.0324 12.2061C16.0196 12.2189 16.0196 12.2445 16.0426 12.2573C16.0682 12.2803 16.0938 12.2803 16.1424 12.2573C16.168 12.2445 16.214 12.2317 16.2524 12.2676C16.3138 12.329 16.2882 12.3776 16.278 12.4032C16.2652 12.416 16.2396 12.4288 16.2268 12.439C16.214 12.439 16.214 12.439 16.214 12.4518V12.4646L16.1296 12.3904H16.1424C16.191 12.416 16.2396 12.4262 16.2652 12.3904C16.2908 12.3648 16.2652 12.3392 16.2524 12.329C16.2268 12.3034 16.2012 12.3034 16.1654 12.329C16.1296 12.3418 16.081 12.3418 16.0426 12.3162C15.994 12.2676 15.994 12.2317 16.017 12.1933L16.0682 12.1575C16.081 12.1575 16.081 12.1575 16.0682 12.1319L16.1552 12.1933H16.1424C16.081 12.1678 16.0426 12.1831 16.0324 12.2061ZM16.1424 12.1089C16.1168 12.0961 16.104 12.1089 16.0912 12.1217H16.081L16.2166 11.9247L16.301 11.9861L16.2882 11.9989C16.2729 11.9857 16.2534 11.9785 16.2332 11.9785C16.213 11.9785 16.1935 11.9857 16.1782 11.9989C16.1782 12.0117 16.1654 12.0245 16.1654 12.0347C16.1552 12.0347 16.1552 12.0475 16.1782 12.0603C16.191 12.0731 16.2652 12.1217 16.2652 12.1217C16.278 12.1089 16.301 12.0833 16.2524 12.0347V12.0219L16.3752 12.1217C16.301 12.0833 16.2882 12.1217 16.278 12.1319L16.3624 12.1933C16.388 12.2061 16.3983 12.2061 16.3983 12.2061C16.3983 12.1933 16.4111 12.1806 16.4239 12.1703C16.4366 12.1447 16.4494 12.1089 16.3983 12.0603L16.4111 12.0475L16.4725 12.1217L16.3496 12.3059H16.3369C16.3496 12.2803 16.3496 12.2676 16.3266 12.2445L16.1424 12.1089ZM16.4725 11.8889L16.4366 11.9503C16.3855 11.8991 16.3624 11.8633 16.3624 11.8633L16.4725 11.8889ZM16.4981 11.8889C16.5108 11.8889 16.5339 11.8991 16.5467 11.8991C16.5825 11.9119 16.5723 11.9247 16.5595 11.9503H16.5723L16.6337 11.8377C16.6081 11.8633 16.5953 11.8505 16.5723 11.8505C16.3138 11.8019 16.2908 11.7891 16.2908 11.7891V11.8019L16.4853 12.0219C16.4981 12.0347 16.4981 12.0603 16.4981 12.0731H16.5108L16.5467 12.0117L16.5339 11.9989C16.5211 12.0245 16.5083 12.0347 16.4853 11.9989L16.4597 11.9733L16.4981 11.8889ZM16.3983 11.6176C16.388 11.6304 16.388 11.656 16.4239 11.6688C16.4597 11.679 16.475 11.6688 16.5108 11.6432C16.5467 11.6176 16.5825 11.5921 16.6311 11.6176C16.7079 11.656 16.6925 11.7174 16.6823 11.7405L16.6439 11.7916V11.8147L16.5467 11.7635C16.6081 11.7763 16.6567 11.7635 16.6695 11.7277C16.6823 11.7021 16.6567 11.679 16.6439 11.6663C16.6183 11.656 16.5953 11.6663 16.5595 11.6918C16.5211 11.7277 16.4827 11.743 16.4366 11.7174C16.3855 11.6918 16.3624 11.656 16.3855 11.6176C16.3855 11.5921 16.4111 11.5818 16.4239 11.569C16.4239 11.5562 16.4239 11.5562 16.4111 11.5434V11.5332L16.5108 11.5818H16.4981C16.4366 11.569 16.3983 11.5946 16.3983 11.6176Z" fill="#00493D"/>
</g>
</g>
<g id="Group_6">
<g id="ky-d_2">
<path id="Vector_44" d="M12.5242 7.27883C12.3656 7.31465 12.2555 7.32745 12.1071 7.19184C12.0099 7.0946 12.0329 6.92317 12.1327 6.8592C12.2427 6.78756 12.34 6.73894 12.4756 6.77477C12.6112 6.81315 12.9668 7.14322 12.8799 7.15601C12.7929 7.15601 12.6598 7.24045 12.5242 7.27883ZM12.9029 6.69033C12.9541 6.65195 13.0155 6.62892 13.1741 6.61357C13.3225 6.60333 13.43 6.60333 13.4684 6.71592C13.5195 6.84897 13.5554 7.00761 13.6526 7.08181C13.5912 7.11763 13.2841 7.15601 13.1741 7.0946C13.0283 7.0204 12.9899 6.73639 12.9054 6.69033H12.9029ZM13.9596 6.70312C14.0082 6.66474 14.0697 6.66474 14.2283 6.67754C14.3869 6.69033 14.4483 6.70312 14.4842 6.81315C14.5225 6.93596 14.4842 7.0946 14.5609 7.20463C14.4842 7.23022 14.2411 7.23022 14.1541 7.14322C14.021 7.04599 14.0313 6.76197 13.9596 6.70056V6.70312Z" fill="white" stroke="black" stroke-width="1.01893"/>
<path id="Vector_45" d="M14.6941 6.77495C14.584 6.74936 14.5098 6.73913 14.4638 6.77495C14.5226 6.84915 14.474 7.1434 14.5968 7.24063C14.6813 7.30204 14.9039 7.31739 14.9525 7.17922C15.0139 7.05641 15.0139 6.87218 14.6966 6.77495H14.6941ZM13.4326 6.65213C13.4684 6.61631 13.5426 6.60352 13.6885 6.60352C13.8497 6.60352 13.9444 6.6291 13.9955 6.72633C14.0467 6.84915 14.0314 7.00779 14.1184 7.10758C14.0825 7.1562 13.7499 7.1562 13.6527 7.08199C13.5171 6.995 13.5043 6.71354 13.4326 6.65213ZM12.3912 6.76216C12.3912 6.70075 12.4757 6.69051 12.6983 6.67772C12.9158 6.65213 12.9286 6.66492 13.0028 6.82356C13.0386 6.91056 13.0872 7.05641 13.187 7.10502C12.9158 7.16899 12.8288 7.20481 12.6829 7.11782C12.5764 7.0512 12.4884 6.95879 12.4271 6.84915C12.4143 6.81333 12.4143 6.77495 12.3887 6.76216H12.3912Z" fill="#073163" stroke="black" stroke-width="1.01893"/>
</g>
<g id="Group_7">
<g id="ky-f_2">
<g id="Vector_46">
<path d="M12.9788 5.51277C12.7203 5.31575 12.4133 5.13153 12.1318 5.0957C12.4255 5.2915 12.7043 5.50873 12.966 5.74562" fill="#F9D050"/>
<path d="M12.9788 5.51277C12.7203 5.31575 12.4133 5.13153 12.1318 5.0957C12.4255 5.2915 12.7043 5.50873 12.966 5.74562" stroke="black" stroke-width="0.436686"/>
</g>
<g id="Vector_47">
<path d="M13.1247 5.32888C12.8177 5.11907 12.462 4.88622 12.1191 4.8632C12.44 5.04913 12.7258 5.28988 12.9635 5.57452M13.5162 4.98601C13.6547 4.67115 13.8599 4.39005 14.1175 4.16211C13.9947 4.42054 13.8616 4.94763 13.7977 5.15745" fill="#F9D050"/>
<path d="M13.1247 5.32888C12.8177 5.11907 12.462 4.88622 12.1191 4.8632C12.44 5.04913 12.7258 5.28988 12.9635 5.57452M13.5162 4.98601C13.6547 4.67115 13.8599 4.39005 14.1175 4.16211C13.9947 4.42054 13.8616 4.94763 13.7977 5.15745" stroke="black" stroke-width="0.436686"/>
</g>
<g id="Vector_48">
<path d="M13.7871 4.92395C13.9057 4.63564 14.1286 4.40264 14.4114 4.27148C14.199 4.53656 14.0407 4.84086 13.9457 5.16703" fill="#F9D050"/>
<path d="M13.7871 4.92395C13.9057 4.63564 14.1286 4.40264 14.4114 4.27148C14.199 4.53656 14.0407 4.84086 13.9457 5.16703" stroke="black" stroke-width="0.436686"/>
</g>
<g id="Vector_49">
<path d="M13.8975 5.16793C14.1324 4.80832 14.4691 4.52683 14.8647 4.35938C14.5576 4.66642 14.1047 5.22934 13.9947 5.45194M14.0689 5.43915C14.2889 5.31633 14.7316 5.11931 15.0489 5.18328C14.8544 5.25492 14.2659 5.52359 14.0075 5.77178" fill="#F9D050"/>
<path d="M13.8975 5.16793C14.1324 4.80832 14.4691 4.52683 14.8647 4.35938C14.5576 4.66642 14.1047 5.22934 13.9947 5.45194M14.0689 5.43915C14.2889 5.31633 14.7316 5.11931 15.0489 5.18328C14.8544 5.25492 14.2659 5.52359 14.0075 5.77178" stroke="black" stroke-width="0.436686"/>
</g>
<g id="Vector_50">
<path d="M14.0203 5.35259C14.2275 5.13254 14.6088 4.80247 15.0131 4.66686C14.7188 4.94831 14.0919 5.58799 14.0075 5.68522M13.4318 5.21954C13.2834 4.76409 13.0633 4.33678 12.7332 4.20117C12.9961 4.57705 13.179 5.00292 13.2706 5.45238M13.1478 5.20674C12.9047 4.91249 12.572 4.61824 12.1934 4.55683C12.5644 4.79966 12.8576 5.14436 13.0377 5.54961" fill="#F9D050"/>
<path d="M14.0203 5.35259C14.2275 5.13254 14.6088 4.80247 15.0131 4.66686C14.7188 4.94831 14.0919 5.58799 14.0075 5.68522M13.4318 5.21954C13.2834 4.76409 13.0633 4.33678 12.7332 4.20117C12.9961 4.57705 13.179 5.00292 13.2706 5.45238M13.1478 5.20674C12.9047 4.91249 12.572 4.61824 12.1934 4.55683C12.5644 4.79966 12.8576 5.14436 13.0377 5.54961" stroke="black" stroke-width="0.436686"/>
</g>
<g id="Vector_51">
<path d="M13.2859 5.19353C12.9788 4.64085 12.7434 4.54362 12.6104 4.43359C12.7204 4.64085 12.989 5.19353 13.1477 5.42637" fill="#F9D050"/>
<path d="M13.2859 5.19353C12.9788 4.64085 12.7434 4.54362 12.6104 4.43359C12.7204 4.64085 12.989 5.19353 13.1477 5.42637" stroke="black" stroke-width="0.436686"/>
</g>
<path id="Vector_52" d="M12.6719 5.1582C12.8469 5.26826 12.9968 5.41383 13.112 5.58551" stroke="black" stroke-width="0.436686"/>
<g id="Vector_53">
<path d="M12.6719 5.41335C12.7435 5.47476 12.8791 5.54897 13.0019 5.65899ZM14.1303 5.59758C14.2532 5.50035 14.5218 5.34171 14.6574 5.29054ZM14.0433 5.51314C14.1662 5.35195 14.4118 5.1319 14.4988 5.05769ZM14.3862 4.75065C14.2213 4.93543 14.0659 5.12843 13.9205 5.32892ZM14.0689 4.64062C13.9528 4.81239 13.8501 4.9929 13.7619 5.18051ZM13.0992 4.66621C13.1734 4.86323 13.309 5.19331 13.3551 5.32892ZM12.9892 4.87347C13.0403 4.95023 13.1376 5.1191 13.1734 5.24192Z" fill="#F9D050"/>
<path d="M12.6719 5.41335C12.7435 5.47476 12.8791 5.54897 13.0019 5.65899M14.1303 5.59758C14.2532 5.50035 14.5218 5.34171 14.6574 5.29054M14.0433 5.51314C14.1662 5.35195 14.4118 5.1319 14.4988 5.05769M14.3862 4.75065C14.2213 4.93543 14.0659 5.12843 13.9205 5.32892M14.0689 4.64062C13.9528 4.81239 13.8501 4.9929 13.7619 5.18051M13.0992 4.66621C13.1734 4.86323 13.309 5.19331 13.3551 5.32892M12.9892 4.87347C13.0403 4.95023 13.1376 5.1191 13.1734 5.24192" stroke="black" stroke-width="0.436686"/>
</g>
</g>
<g id="ky-g_2">
<path id="Vector_54" d="M13.4062 4.81232C13.4062 4.70229 13.4805 4.58203 13.5547 4.58203C13.6391 4.58203 13.7005 4.72788 13.7005 4.81232C13.7005 4.9121 13.6263 4.99654 13.5547 4.99654C13.4779 4.99654 13.4062 4.9249 13.4062 4.81232Z" fill="#F9D050" stroke="black" stroke-width="0.436686"/>
<path id="Vector_55" d="M13.2478 4.91173C13.2606 4.78891 13.345 4.69168 13.4192 4.70191C13.4934 4.71471 13.5293 4.86311 13.5165 4.94755C13.5037 5.04478 13.4192 5.11898 13.3578 5.10619C13.2964 5.10619 13.235 5.02175 13.2478 4.91173ZM13.5779 4.94755C13.5523 4.83752 13.6035 4.71726 13.6777 4.70191C13.7493 4.69168 13.8235 4.81194 13.8363 4.91173C13.8619 5.00896 13.7979 5.10619 13.7365 5.10619C13.6777 5.11898 13.5907 5.05757 13.5779 4.94755Z" fill="#F9D050" stroke="black" stroke-width="0.436686"/>
<path id="Vector_56" d="M13.3936 5.04474C13.3936 4.92448 13.4678 4.81445 13.542 4.81445C13.6264 4.81445 13.6878 4.94751 13.6878 5.04474C13.6878 5.14453 13.6162 5.22896 13.542 5.22896C13.4678 5.22896 13.3936 5.15732 13.3936 5.04474Z" fill="#F9D050" stroke="black" stroke-width="0.436686"/>
<path id="Vector_57" d="M13.1738 5.10702C13.1738 4.997 13.2608 4.87674 13.3325 4.87674C13.4092 4.87674 13.4809 5.02259 13.4809 5.10702C13.4809 5.20681 13.3939 5.29125 13.3325 5.29125C13.2608 5.29125 13.1738 5.21961 13.1738 5.10702ZM13.6267 5.05841C13.6267 4.94838 13.7035 4.82812 13.7751 4.82812C13.8596 4.82812 13.921 4.97397 13.921 5.05841C13.921 5.1582 13.8493 5.24264 13.7751 5.24264C13.7009 5.24264 13.6267 5.16843 13.6267 5.05841Z" fill="#F9D050" stroke="black" stroke-width="0.436686"/>
<path id="Vector_58" d="M13.5781 5.15667C13.5781 5.03385 13.6651 4.92383 13.7368 4.92383C13.8135 4.92383 13.8852 5.05688 13.8852 5.15411C13.8852 5.2539 13.811 5.3409 13.7368 5.3409C13.6651 5.3409 13.5781 5.26414 13.5781 5.15667Z" fill="#F9D050" stroke="black" stroke-width="0.436686"/>
<path id="Vector_59" d="M13.3832 5.26712C13.3832 5.1443 13.4549 5.03428 13.5291 5.03428C13.6161 5.03428 13.6775 5.18012 13.6775 5.26456C13.6775 5.36691 13.6007 5.45135 13.5291 5.45135C13.4549 5.45135 13.3807 5.37459 13.3807 5.26712H13.3832ZM13.0762 5.26712C13.0762 5.1443 13.1376 5.03428 13.199 5.03428C13.2604 5.03428 13.309 5.18012 13.309 5.26456C13.309 5.36691 13.2476 5.45135 13.199 5.45135C13.1376 5.45135 13.0762 5.37459 13.0762 5.26712ZM13.7619 5.24409C13.7619 5.13151 13.8233 5.02148 13.8847 5.02148C13.9461 5.02148 14.0075 5.1571 14.0075 5.24153C14.0075 5.35156 13.9333 5.42576 13.8847 5.42576C13.8233 5.42576 13.7619 5.35156 13.7619 5.24153V5.24409Z" fill="#F9D050" stroke="black" stroke-width="0.436686"/>
<path id="Vector_60" d="M13.8367 5.44845C13.8623 5.32819 13.9339 5.2284 13.9825 5.24375C14.0337 5.25399 14.0439 5.39983 14.0209 5.48683C14.0081 5.59685 13.9339 5.65826 13.8853 5.64547C13.8341 5.63523 13.8111 5.54824 13.8341 5.45101L13.8367 5.44845Z" fill="#F9D050" stroke="black" stroke-width="0.436686"/>
<path id="Vector_61" d="M13.6036 5.41335C13.6164 5.30333 13.688 5.1933 13.7494 5.2061C13.8236 5.2061 13.8594 5.35194 13.8492 5.43638C13.8364 5.54896 13.7724 5.62316 13.7136 5.61037C13.6522 5.61037 13.5908 5.52338 13.6036 5.41335ZM13.2607 5.44917C13.2223 5.32891 13.1481 5.24448 13.0995 5.25471C13.0509 5.2675 13.0381 5.41335 13.0637 5.50035C13.0893 5.59758 13.1609 5.65899 13.2095 5.64619C13.2479 5.63596 13.2863 5.54896 13.2607 5.45173V5.44917Z" fill="#F9D050" stroke="black" stroke-width="0.436686"/>
<path id="Vector_62" d="M13.1738 5.42513C13.1738 5.3151 13.2352 5.20508 13.2966 5.20508C13.3708 5.20508 13.4195 5.34069 13.4195 5.42513C13.4195 5.53515 13.3581 5.60935 13.2966 5.60935C13.2455 5.60935 13.1738 5.53515 13.1738 5.42513Z" fill="#F9D050" stroke="black" stroke-width="0.436686"/>
<path id="Vector_63" d="M13.3576 5.47451C13.3576 5.3517 13.4318 5.24423 13.5035 5.24423C13.5905 5.24423 13.6519 5.37728 13.6519 5.47451C13.6519 5.5743 13.5777 5.65874 13.5035 5.65874C13.4318 5.65874 13.3576 5.58454 13.3576 5.47451ZM13.419 4.12607C13.3935 4.22331 13.309 4.3103 13.3679 4.44591C13.2604 4.40753 13.1632 4.39474 13.0762 4.49453C13.1862 4.48173 13.2834 4.52012 13.332 4.59176C13.2348 4.57897 13.1862 4.63014 13.1606 4.69155C13.2476 4.66596 13.332 4.64037 13.3704 4.65317C13.332 4.69155 13.2706 4.7504 13.2604 4.80157C13.332 4.74016 13.419 4.7504 13.4677 4.71458C13.4318 4.80157 13.5035 4.88601 13.5649 4.97045C13.5547 4.85019 13.6263 4.76575 13.5905 4.70178C13.7005 4.72737 13.7133 4.8246 13.8719 4.8246C13.8105 4.78878 13.7747 4.66596 13.7005 4.66596C13.7363 4.65317 13.8847 4.64037 13.9103 4.66596C13.8847 4.61479 13.7977 4.56873 13.7491 4.56873C13.8003 4.51756 13.8847 4.42033 13.9461 4.39474C13.8591 4.40753 13.7261 4.42033 13.6775 4.49453C13.7977 4.39474 13.7747 4.21307 13.9078 4.18748C13.8361 4.17469 13.7261 4.22331 13.6391 4.3103C13.6775 4.2361 13.6775 4.13887 13.7261 4.11328C13.6263 4.13887 13.5163 4.26169 13.4804 4.3231C13.4751 4.25362 13.4541 4.18626 13.419 4.12607Z" fill="#F9D050" stroke="black" stroke-width="0.436686"/>
<g id="Vector_64">
<path d="M13.4806 4.32334C13.4806 4.35916 13.4806 4.43336 13.4678 4.45639ZM13.6392 4.31055C13.6136 4.33613 13.565 4.42057 13.565 4.49477Z" fill="#F9D050"/>
<path d="M13.4806 4.32334C13.4806 4.35916 13.4806 4.43336 13.4678 4.45639M13.6392 4.31055C13.6136 4.33613 13.565 4.42057 13.565 4.49477" stroke="black" stroke-width="0.436686"/>
</g>
<path id="Vector_65" d="M13.7139 4.45703C13.6718 4.48222 13.6407 4.52244 13.627 4.56961" stroke="black" stroke-width="0.436686"/>
</g>
</g>
<g id="ky-e_2">
<path id="Vector_66" d="M12.4138 5.67173C12.3268 5.67173 12.2552 5.63591 12.204 5.5745C12.1196 5.46192 11.8867 5.4133 11.7869 5.51309C11.7511 5.53868 11.7025 5.53868 11.6667 5.54891C11.6053 5.54891 11.5311 5.61032 11.5541 5.73314C11.6053 5.69476 11.6155 5.73314 11.6539 5.73314C11.6795 5.72035 11.6667 5.74594 11.6667 5.76896C11.6667 5.83037 11.7997 5.95319 11.9226 5.9404C12.0582 5.9404 12.1196 5.99157 12.1426 6.01716C12.181 6.05042 12.1554 6.04019 12.181 6.1016C12.2168 6.13742 12.2296 6.15021 12.1682 6.19883C12.1403 6.22212 12.1178 6.25127 12.1024 6.28421C12.0869 6.31715 12.0789 6.35308 12.0789 6.38945C12.0789 6.42582 12.0869 6.46175 12.1024 6.49469C12.1178 6.52763 12.1403 6.55678 12.1682 6.58007C12.3268 6.70033 12.7311 6.88712 13.1866 6.5289C13.6267 6.18603 14.3124 6.38305 14.3636 6.50331C14.425 6.62869 14.448 6.70033 14.4608 6.76174C14.4736 6.81292 14.535 6.86153 14.622 6.84874C14.7064 6.84874 14.8037 6.88456 14.8523 6.92294C14.9162 6.95876 15.0007 6.94853 14.9776 6.83594C14.9265 6.49308 14.7192 6.44446 14.6962 6.28582C14.8165 6.29606 14.9009 6.29606 14.9521 6.24744C14.9879 6.19883 15.0365 6.11183 15.0877 6.0888C15.1235 6.06321 15.1235 6.03763 15.0749 6.05042C15.0135 6.06321 14.9777 6.0888 14.8651 6.07601C14.3022 6.0146 12.7209 5.58474 12.4138 5.67173Z" fill="#059334" stroke="black" stroke-width="1.01893"/>
<path id="Vector_67" d="M14.9163 6.08839C14.8228 6.15438 14.7429 6.23778 14.6809 6.33403C14.5607 6.49267 14.1922 6.65131 13.7368 6.65131C13.2967 6.65131 13.028 6.57966 12.831 6.42102C12.7468 6.35376 12.656 6.29545 12.5597 6.24703C12.4267 6.18562 12.4011 6.05001 12.4369 5.93998C12.4011 6.00139 12.3781 6.0628 12.3039 6.05001C12.2527 6.05001 12.1555 6.05001 12.1811 6.10118C12.1683 6.0756 12.1683 6.03977 12.1555 6.02442L12.1299 6.00139C12.1683 6.02698 12.2553 5.95278 12.3167 5.95278C12.3653 5.96557 12.4267 5.90416 12.4139 5.82996L12.3781 5.67132C12.4753 5.62015 13.7623 5.85555 14.0208 5.87858C14.2766 5.89137 15.0135 6.00139 14.9163 6.08839Z" fill="#000001" stroke="black" stroke-width="1.01893"/>
<path id="Vector_68" d="M12.5852 5.62363C12.708 5.50081 12.8538 5.4394 13.0023 5.47522H13.0381C13.1148 5.41381 13.2837 5.40102 13.3835 5.44963H13.4321C13.578 5.40102 13.8594 5.44963 13.9592 5.54942L13.995 5.57501C14.3277 5.54942 14.5221 5.69527 14.755 5.93067C14.7806 5.95626 14.8164 6.00232 14.8778 6.01511C14.952 6.0279 14.9648 6.06628 14.9034 6.1021C14.805 6.16295 14.7183 6.24094 14.6475 6.33239C14.5349 6.48079 14.1793 6.6292 13.7366 6.6292C13.3093 6.6292 13.0509 6.55244 12.8538 6.40659C12.7438 6.32215 12.6594 6.27354 12.598 6.23516C12.5238 6.20957 12.4265 6.11234 12.4624 6.01511C12.488 5.91788 12.4265 5.79506 12.3779 5.67224C12.4138 5.64665 12.511 5.61083 12.5596 5.63642L12.5852 5.62363Z" fill="#059334" stroke="black" stroke-width="1.01893"/>
<g id="Group_8">
<path id="Vector_69" d="M14.7547 5.93067C14.5245 5.69527 14.3274 5.54942 13.9948 5.57245C13.9948 5.58525 13.9948 5.62363 13.982 5.64921C14.2138 5.75324 14.4193 5.90801 14.5833 6.1021C14.6345 6.05093 14.7189 5.99208 14.7547 5.93067ZM13.959 5.54942C13.8592 5.45219 13.5777 5.40102 13.4319 5.45219C13.4319 5.50081 13.4319 5.57501 13.4063 5.62363C13.4933 5.65945 13.5649 5.74644 13.6391 5.83088C13.6903 5.81809 13.8106 5.78227 13.872 5.76947C13.9086 5.69938 13.9378 5.62563 13.959 5.54942ZM13.3833 5.44963C13.2835 5.40102 13.1121 5.41381 13.0379 5.47522C13.0123 5.5264 13.002 5.62363 13.002 5.67224C13.0532 5.67224 13.1248 5.70806 13.1479 5.73365C13.2246 5.70806 13.3219 5.65945 13.3577 5.62363C13.3705 5.57245 13.3935 5.50081 13.3833 5.45219V5.44963ZM12.585 5.62363C12.7078 5.50081 12.8536 5.4394 13.002 5.47522C12.9764 5.5136 12.9662 5.58525 12.9662 5.65945C12.8306 5.64665 12.6592 5.68504 12.585 5.73365V5.62363Z" fill="#00493D" stroke="black" stroke-width="1.01893"/>
<path id="Vector_70" d="M14.5349 6.12564C14.3807 5.94313 14.1886 5.79643 13.972 5.69578C13.972 5.70858 13.9464 5.75719 13.9336 5.79557C14.0078 5.9056 14.1536 6.15123 14.2151 6.28684C14.2765 6.26126 14.4479 6.18705 14.5349 6.12564ZM13.6035 6.39687C13.6247 6.22963 13.6367 6.06136 13.6393 5.8928C13.7008 5.88001 13.8236 5.84419 13.8722 5.83139C13.9336 5.93118 14.082 6.18961 14.1434 6.30987C13.995 6.34569 13.7494 6.4071 13.6035 6.39687ZM13.1737 5.80836C13.2351 5.78278 13.3221 5.7316 13.3809 5.68555C13.4321 5.72137 13.5293 5.80836 13.5651 5.85698C13.5651 5.967 13.5293 6.28684 13.5165 6.39431C13.4193 6.39431 13.2607 6.37128 13.1737 6.32267C13.1865 6.13844 13.1992 5.93118 13.1737 5.80836ZM12.5596 5.95421C12.5724 5.92862 12.5852 5.84419 12.5852 5.80836C12.6824 5.74696 12.928 5.68555 13.1123 5.78278C13.125 5.9056 13.1123 6.21264 13.0995 6.28684C12.9354 6.15339 12.7548 6.04159 12.5621 5.95421H12.5596Z" fill="#00493D" stroke="black" stroke-width="1.01893"/>
</g>
<g id="Group_9">
<path id="Vector_71" d="M11.9482 5.7318C11.9226 5.7318 11.9098 5.66016 11.8612 5.66016C11.8484 5.66016 11.8126 5.67295 11.7998 5.66016C11.7998 5.68574 11.8126 5.71133 11.8254 5.72157C11.8382 5.75739 11.8996 5.73436 11.9482 5.73436V5.7318Z" fill="#000001"/>
<path id="Vector_72" d="M11.9484 5.94098C12.0943 5.94098 12.1199 5.75675 12.1941 5.74651M12.0329 5.95377C12.1429 6.00494 12.2299 5.74651 12.3143 5.75675M11.8128 5.63649C11.8487 5.63649 11.8742 5.58532 11.9357 5.64672C11.9612 5.67231 11.9971 5.68511 12.0227 5.68511M11.9971 5.81816C11.9459 5.89492 11.8615 5.94098 11.8128 5.91795M11.7873 5.51367C11.7514 5.53926 11.7284 5.58532 11.7028 5.6237M11.667 5.69534V5.75675" stroke="black" stroke-width="1.01893"/>
</g>
</g>
</g>
<g id="Group_10">
<path id="ky-a_2" d="M15.7615 7.29162V9.68145C15.7615 11.754 14.7815 12.4653 13.4689 13.0282C12.1562 12.4653 11.166 11.754 11.166 9.68145V7.28906H15.7615V7.29162Z" fill="white"/>
<path id="Vector_73" d="M13.4685 9.31239C13.5785 9.31239 13.7499 9.21516 13.8983 9.06676C14.057 8.89532 14.3282 8.83647 14.6097 9.06676C14.8911 9.2996 15.0626 9.20237 15.211 9.06676C15.3568 8.93371 15.4796 8.88253 15.7611 8.88253V7.29102H11.1631V8.88509C11.4445 8.88509 11.5674 8.93626 11.7158 9.06932C11.8616 9.20493 12.033 9.30216 12.3171 9.06932C12.6113 8.83903 12.8672 8.89788 13.0386 9.06932C13.1742 9.21772 13.3457 9.31495 13.4685 9.31495V9.31239Z" fill="#C8102E"/>
<path id="Vector_74" d="M13.4685 10.5408C13.6169 10.5408 13.9111 10.3796 13.9828 10.3437C14.254 10.1825 14.4485 10.3309 14.6097 10.4051C14.7811 10.4768 15.0984 10.5638 15.2954 10.4051C15.4924 10.2439 15.6024 10.2567 15.7381 10.2567C15.7636 10.0725 15.7636 9.88829 15.7636 9.68103V9.53263C15.5896 9.49681 15.5052 9.54542 15.321 9.70662C15.1368 9.86526 14.9269 9.82944 14.6557 9.73221C14.3999 9.61962 14.144 9.42516 13.8856 9.73221C13.7784 9.85198 13.6288 9.92539 13.4685 9.9369C13.2843 9.9369 13.1256 9.81664 13.0514 9.73221C12.7827 9.42516 12.5371 9.61962 12.2787 9.73221C12.01 9.82944 11.7874 9.86526 11.6057 9.70662C11.4343 9.54542 11.3473 9.49681 11.1631 9.53263V9.68103C11.1631 9.88829 11.1759 10.0725 11.1989 10.2567C11.3345 10.2567 11.4343 10.2439 11.6288 10.4051C11.8258 10.5638 12.1559 10.4768 12.3171 10.4051C12.4885 10.3309 12.683 10.1825 12.9542 10.3437C13.0284 10.3796 13.3098 10.5382 13.4685 10.5382V10.5408ZM13.4685 11.0679C13.6809 11.0564 13.8874 10.9931 14.0698 10.8836C14.3154 10.748 14.4868 10.8069 14.7325 10.9322C14.9884 11.0551 15.1982 11.0167 15.3466 10.9322C15.4182 10.8811 15.4796 10.7838 15.6383 10.8222C15.5666 11.1293 15.454 11.3979 15.321 11.618C15.2165 11.6526 15.1061 11.6662 14.9963 11.6578C14.8865 11.6495 14.7794 11.6194 14.6813 11.5694C14.4254 11.4465 14.1056 11.3723 13.9342 11.4824C13.7951 11.5729 13.6342 11.6241 13.4685 11.6308C13.3329 11.6308 13.1614 11.5796 13.0028 11.4824C12.8314 11.3723 12.5115 11.4465 12.2557 11.5694C12.1577 11.6198 12.0508 11.6503 11.941 11.6591C11.8311 11.6679 11.7207 11.6548 11.616 11.6205C11.4829 11.3979 11.3729 11.1267 11.2987 10.8222C11.4573 10.7838 11.5187 10.8836 11.5929 10.9322C11.6847 10.984 11.7882 11.0112 11.8936 11.0112C11.9989 11.0112 12.1025 10.984 12.1942 10.9322C12.4501 10.8094 12.6215 10.748 12.8672 10.8811C13.0494 10.9915 13.2558 11.0556 13.4685 11.0679ZM13.4685 13.0278C13.9427 12.844 14.3856 12.5877 14.7811 12.2679C14.6813 12.2321 14.6225 12.2551 14.5355 12.1937C14.4485 12.1323 14.1926 12.1092 13.9725 12.2321C13.8199 12.3211 13.6464 12.368 13.4698 12.368C13.2931 12.368 13.1196 12.3211 12.967 12.2321C12.7444 12.1092 12.4885 12.1323 12.4041 12.1937C12.3171 12.2551 12.2557 12.2321 12.1559 12.2704C12.5498 12.5919 12.993 12.8476 13.4685 13.0278Z" fill="#0B50A0"/>
<g id="Group_11">
<path id="Vector_75" d="M13.1488 7.89125C13.1615 7.91684 13.1385 7.97825 13.1488 8.00128C13.1743 8.05245 13.1743 8.07804 13.2102 8.10107H13.2972C13.5658 8.10107 13.8857 7.99104 14.1543 7.99104C14.4128 7.99104 14.5714 8.07548 14.7172 8.07548C14.8042 8.07548 14.8784 8.01407 14.8784 7.95266C14.8784 7.89125 14.7812 7.85543 14.5714 7.85543C14.2771 7.85543 14.1185 7.92963 13.8729 7.92963C13.5044 7.92963 13.443 7.79402 13.443 7.73261C13.443 7.6712 13.5044 7.58677 13.7014 7.58677C13.7628 7.58677 13.8115 7.57397 13.837 7.54839C13.8498 7.5228 13.8857 7.47418 13.9599 7.43836C14.0443 7.38719 14.2157 7.43836 14.3027 7.37695C14.3027 7.42813 14.2285 7.49977 14.1671 7.52536C14.2899 7.48698 14.423 7.48698 14.4486 7.58677C14.3872 7.54839 14.2899 7.57397 14.2541 7.58677C14.2029 7.597 14.1799 7.61235 14.1313 7.62259C14.1799 7.6098 14.2055 7.70703 14.2771 7.70703C14.2055 7.76844 14.0827 7.76844 13.9599 7.71982C13.9215 7.70703 13.8243 7.6712 13.7628 7.6712C13.64 7.6712 13.5658 7.69679 13.5658 7.74541C13.5658 7.80682 13.6426 7.84264 13.8601 7.84264C14.0827 7.84264 14.2055 7.78123 14.5356 7.78123C14.51 7.74541 14.5484 7.70703 14.4998 7.6712C14.6226 7.6712 14.7556 7.70703 14.8068 7.79402C14.794 7.70703 14.8656 7.63538 14.8426 7.56118C14.9168 7.57397 14.9782 7.64562 14.9885 7.70703C14.9885 7.6712 15.0396 7.6712 15.0396 7.63538C15.0739 7.65388 15.1016 7.68247 15.1189 7.71727C15.1363 7.75206 15.1426 7.79137 15.1369 7.82984C15.1727 7.76844 15.2111 7.79402 15.2341 7.71982C15.2597 7.77099 15.2469 7.91684 15.1599 7.96546C15.2367 7.91428 15.3441 7.91428 15.4183 8.00128C15.3441 7.99104 15.3083 8.02686 15.2725 8.03966C15.0939 8.13091 14.8944 8.17328 14.6942 8.16248C14.4998 8.14968 14.4742 8.1113 14.3513 8.1113C14.4255 8.1241 14.5714 8.2725 14.7096 8.2725C14.794 8.2725 14.8554 8.2725 14.8912 8.25971C14.9271 8.24691 14.9885 8.25971 15.0371 8.28529C15.0755 8.32112 15.1497 8.35694 15.1983 8.3467C15.1855 8.39532 15.1599 8.41835 15.1241 8.43114C15.1855 8.46952 15.1497 8.49255 15.2111 8.54116C15.1855 8.54116 15.1599 8.56675 15.1241 8.55396C15.1599 8.58978 15.1599 8.64095 15.1983 8.66398C15.1855 8.66398 15.1471 8.67678 15.1241 8.66398C15.1599 8.71516 15.1241 8.77401 15.1599 8.79959C15.1983 8.85077 15.1241 8.90962 15.0627 8.861C15.0755 8.89682 15.0371 8.93521 15.0013 8.92241C14.9654 8.90962 14.9398 8.87124 14.9501 8.861C14.9501 8.84821 14.9501 8.84821 14.9654 8.83542C14.9398 8.8738 14.8912 8.8738 14.8656 8.861C14.8554 8.84821 14.8401 8.83542 14.8401 8.82518C14.7556 8.85077 14.7198 8.77401 14.7326 8.73819C14.7428 8.70236 14.817 8.68701 14.8426 8.70236C14.8682 8.7126 14.8912 8.72795 14.9168 8.70236C14.9424 8.68957 14.9526 8.66398 14.9526 8.64095C14.9526 8.60257 14.9168 8.49255 14.7556 8.50534C14.5714 8.51814 14.2771 8.46952 14.1313 8.41835C14.1185 8.40811 14.1057 8.40811 14.0929 8.39276C14.0929 8.44393 14.0443 8.46952 14.0443 8.51814C14.0443 8.57955 14.0699 8.62816 14.1441 8.65119C14.1057 8.7126 14.0443 8.70236 14.0213 8.66398C14.0213 8.70236 13.9701 8.72539 13.9701 8.77401C13.9599 8.74842 13.9445 8.73819 13.9343 8.7126C13.8985 8.79959 13.7987 8.84821 13.75 8.82518C13.6886 8.8738 13.617 8.861 13.5914 8.81239C13.5556 8.83797 13.5044 8.83797 13.4814 8.81239C13.4814 8.84821 13.4558 8.83797 13.443 8.88659C13.443 8.91218 13.3944 8.92241 13.3714 8.91218C13.3458 8.89682 13.333 8.84821 13.3586 8.82518C13.3227 8.85077 13.2844 8.85077 13.2613 8.82518C13.2613 8.79959 13.2613 8.76377 13.2869 8.74842H13.31C13.2844 8.73819 13.2485 8.74842 13.223 8.73819C13.1974 8.7126 13.1974 8.68701 13.2102 8.66398C13.223 8.65119 13.2613 8.62816 13.2869 8.65119L13.2972 8.66398C13.2972 8.6384 13.31 8.61537 13.3227 8.61537C13.3483 8.60257 13.3816 8.60257 13.42 8.64095C13.4456 8.67678 13.4686 8.67678 13.5428 8.66654C13.6042 8.66654 13.7014 8.60257 13.7731 8.54116C13.5684 8.50534 13.6886 8.36973 13.75 8.32112C13.7014 8.30832 13.6272 8.30832 13.5786 8.33391C13.3227 8.46952 13.0515 8.62816 12.8801 8.57955C12.8825 8.60519 12.8913 8.62983 12.9057 8.65119C12.8673 8.65119 12.7931 8.65119 12.7701 8.61537C12.7573 8.64095 12.7342 8.70236 12.7573 8.75098C12.7317 8.72539 12.66 8.6998 12.6217 8.68957C12.6472 8.71516 12.6217 8.76377 12.6345 8.79959C12.5986 8.76377 12.5372 8.73819 12.5116 8.76377C12.486 8.78936 12.4374 8.79959 12.4016 8.78936C12.3778 8.82308 12.3437 8.84821 12.3044 8.861C12.3044 8.83542 12.3044 8.79959 12.2916 8.7868C12.2788 8.82518 12.2404 8.8738 12.1944 8.89683C12.1944 8.87124 12.1944 8.83542 12.1816 8.81239C12.1816 8.861 12.0843 8.88659 12.0715 8.92241C12.0843 8.88659 12.0843 8.84821 12.0843 8.82518C12.0708 8.84693 12.0528 8.86565 12.0317 8.88018C12.0106 8.89471 11.9867 8.90473 11.9615 8.90962C11.9717 8.88403 11.9871 8.85844 11.9717 8.83542C11.9615 8.88659 11.8873 8.91218 11.8259 8.89683C11.8259 8.92241 11.7747 8.95823 11.7159 8.92241C11.6775 8.90962 11.6545 8.87124 11.6775 8.84821C11.6289 8.84821 11.5803 8.79959 11.6059 8.76377C11.6059 8.75098 11.6161 8.73819 11.6161 8.72539C11.5803 8.6998 11.5675 8.65119 11.6059 8.61537C11.6161 8.60257 11.6545 8.60257 11.6775 8.60257C11.6775 8.50534 11.7645 8.50534 11.8003 8.57699C11.8259 8.61537 11.9001 8.67678 11.9615 8.66398C11.9871 8.66398 11.9973 8.65119 12.0229 8.65119C12.133 8.61481 12.2366 8.56127 12.33 8.49255C12.3402 8.45673 12.3402 8.43114 12.3402 8.40811C12.2916 8.4337 12.243 8.45673 12.2174 8.49255V8.45673C12.1816 8.45673 12.1202 8.44393 12.0946 8.44393C12.1074 8.43114 12.1202 8.36973 12.1457 8.35694C12.0843 8.36973 12.0229 8.35694 11.9717 8.3467C11.9973 8.32112 11.9973 8.28529 12.0101 8.24691C11.9845 8.25971 11.9231 8.23668 11.8745 8.24691C11.8873 8.21109 11.9001 8.16248 11.9359 8.14968C11.8848 8.16248 11.8259 8.14968 11.7645 8.1241C11.8157 8.1241 11.8387 8.06269 11.8745 8.06269C11.7773 8.06269 11.7517 8.01407 11.7031 7.99104C11.7389 8.00128 11.7645 7.96546 11.8003 7.96546C11.7645 7.95266 11.7031 7.89125 11.7287 7.85543C11.7159 7.86822 11.7031 7.89125 11.6775 7.90661C11.6519 7.91684 11.6059 7.90661 11.5675 7.86822C11.5419 7.81705 11.5547 7.7582 11.6059 7.74541C11.5946 7.74468 11.5838 7.74076 11.5748 7.73409C11.5657 7.72743 11.5587 7.71831 11.5547 7.7078C11.5507 7.6973 11.5497 7.68586 11.552 7.67484C11.5542 7.66382 11.5596 7.65368 11.5675 7.64562C11.5803 7.62003 11.6289 7.58677 11.6545 7.62003L11.6903 7.6712C11.6775 7.64562 11.6775 7.597 11.6775 7.56118C11.6903 7.52536 11.7159 7.52536 11.7543 7.51001C11.7875 7.51001 11.8131 7.54839 11.8131 7.58677C11.8131 7.62259 11.8259 7.64562 11.8387 7.69679L11.8489 7.64562C11.8489 7.597 11.9103 7.6098 11.9487 7.62003C11.9845 7.63538 11.9973 7.70703 11.9487 7.74541C11.9231 7.77099 11.9359 7.80682 11.9615 7.82984C12.046 7.96546 12.1918 8.07548 12.3172 8.08827C12.3172 8.0371 12.3428 7.99104 12.3786 7.95266C12.3786 7.92707 12.3888 7.89125 12.4042 7.86822C12.4144 7.79402 12.4502 7.7582 12.4988 7.78123C12.4886 7.76844 12.4733 7.75564 12.4733 7.74541C12.4374 7.70703 12.4016 7.64562 12.4272 7.597C12.4528 7.54839 12.5244 7.56118 12.55 7.58677C12.5372 7.51001 12.6217 7.45116 12.6217 7.41277C12.6345 7.45116 12.66 7.49977 12.6472 7.53559C12.66 7.48698 12.7445 7.42557 12.8059 7.40254C12.7803 7.43836 12.8571 7.49977 12.8443 7.53559C12.8699 7.47418 12.9671 7.43836 13.0387 7.43836C13.0131 7.46395 13.0131 7.51256 13.0131 7.53559C13.0515 7.53559 13.1155 7.52536 13.1385 7.48698C13.1385 7.53815 13.1129 7.58677 13.0873 7.6098C13.1001 7.597 13.1488 7.597 13.1871 7.597C13.1488 7.63538 13.1615 7.67376 13.1257 7.69679C13.1743 7.6712 13.2358 7.6712 13.2485 7.72238C13.2741 7.7582 13.2358 7.81961 13.2102 7.85543C13.1846 7.86822 13.1615 7.89125 13.1488 7.89125Z" fill="#F9D050" stroke="black" stroke-width="1.01893"/>
<g id="Group_12">
<path id="Vector_76" d="M12.391 8.03906C12.304 8.07488 12.2784 8.16188 12.2656 8.2105" stroke="black" stroke-width="1.01893"/>
<path id="Vector_77" d="M12.3785 8.125C12.2556 8.20176 12.2045 8.26061 12.2301 8.39622M12.4373 8.49601C12.5141 8.47043 12.5601 8.44484 12.6215 8.33481" stroke="black" stroke-width="1.01893"/>
<path id="Vector_78" d="M12.5856 8.38281C12.56 8.43399 12.5856 8.51842 12.5498 8.55425C12.5827 8.53787 12.6111 8.51368 12.6325 8.4838C12.6539 8.45391 12.6677 8.41924 12.6726 8.38281" stroke="black" stroke-width="1.01893"/>
<path id="Vector_79" d="M12.6113 8.51798C12.6599 8.4924 12.7341 8.41819 12.77 8.33376C12.7572 8.36958 12.77 8.43099 12.7444 8.46937C12.8058 8.40796 12.8314 8.36958 12.8442 8.30817L12.8544 8.35934C12.88 8.33376 12.9056 8.30817 12.9056 8.25955M12.903 8.29538V8.35678C12.9542 8.32096 12.967 8.27235 12.967 8.21094" stroke="black" stroke-width="1.01893"/>
<path id="Vector_80" d="M12.9538 8.28554C13.028 8.23436 13.0383 8.16272 13.0383 8.0527M13.0383 8.17551C13.0895 8.13713 13.0997 8.11411 13.0997 8.00152M12.941 7.67145C12.9155 7.67145 12.8899 7.68424 12.8899 7.72262C12.8899 7.74565 12.854 7.78147 12.854 7.81985C12.8438 7.86847 12.8182 7.88126 12.7824 7.86847C12.744 7.84288 12.744 7.84288 12.744 7.80706C12.744 7.75589 12.8054 7.74565 12.8054 7.69704C12.8182 7.67145 12.831 7.63563 12.8438 7.63563C12.7824 7.67145 12.6954 7.64586 12.6826 7.57422" stroke="black" stroke-width="1.01893"/>
<path id="Vector_81" d="M13.0511 7.70728C13.0255 7.72007 12.9999 7.68169 12.9667 7.69705C12.9539 7.69705 12.9155 7.70728 12.9053 7.69705" stroke="black" stroke-width="1.01893"/>
<path id="Vector_82" d="M12.8801 7.76802C12.8929 7.78081 12.9543 7.8064 13.0157 7.78081C12.9645 7.7936 12.9287 7.73219 12.9773 7.69637M12.77 7.6452C12.7189 7.6452 12.683 7.68358 12.6958 7.72196C12.7086 7.75778 12.7572 7.75778 12.7931 7.73219M12.683 8.25929C12.6958 8.24649 12.7086 8.22346 12.7086 8.20811C12.7342 8.20811 12.7598 8.19788 12.77 8.18508C12.8186 8.18508 12.8545 8.14926 12.8673 8.11344C12.8929 8.11344 12.9056 8.05203 12.9184 8.02644C12.9287 8.03924 12.9543 8.02644 12.9671 7.97527C12.9926 7.99062 13.0285 7.97527 13.0387 7.93945M12.5372 7.85501C12.5372 7.8678 12.5116 7.89083 12.486 7.90619C12.4988 7.92921 12.486 7.99062 12.463 8.00086C12.4758 8.02644 12.463 8.06227 12.4502 8.08785C12.4502 8.10065 12.463 8.13903 12.463 8.14926M12.5858 7.60938C12.5602 7.67078 12.573 7.74499 12.6216 7.75778" stroke="black" stroke-width="1.01893"/>
<path id="Vector_83" d="M12.611 7.80472C12.5982 7.86868 12.5982 7.95312 12.5855 7.9915C12.5727 8.01709 12.5496 8.10153 12.6469 8.12455C12.7569 8.15014 12.8183 8.13735 12.8797 7.95312M13.0639 8.4316C13.0639 8.44439 13.0511 8.46998 13.0281 8.46998M13.1484 8.40857C13.1484 8.43416 13.1228 8.46998 13.1125 8.48021M13.2354 8.38298C13.2354 8.40857 13.2354 8.44439 13.2098 8.45719M12.4882 7.62305C12.4985 7.62305 12.5138 7.64863 12.524 7.67166C12.4882 7.64608 12.4498 7.70748 12.4729 7.74586M12.4498 7.8303L12.4012 7.86868M12.414 7.94033C12.4012 7.94033 12.3884 7.95312 12.3782 7.95312M11.8255 7.72028C11.8255 7.70748 11.8255 7.70748 11.8383 7.69469M11.7155 7.68446C11.7027 7.68446 11.7027 7.68446 11.6899 7.67166M11.7257 7.85589H11.7513M11.6771 7.78169C11.6577 7.76239 11.6326 7.74983 11.6055 7.74586M12.3526 8.23714C12.2656 8.30878 12.2298 8.37019 12.217 8.45719M12.437 8.29599C12.4153 8.34156 12.3817 8.38044 12.3398 8.40857M11.9611 8.66444C11.9202 8.67765 11.8767 8.68128 11.8341 8.67507C11.7916 8.66886 11.751 8.65297 11.7155 8.62862C11.7027 8.61583 11.6899 8.61583 11.6771 8.60303M12.327 8.49557C12.3168 8.54162 12.3014 8.60303 12.2784 8.61583C12.3782 8.56465 12.4626 8.49301 12.4754 8.38298M11.6157 8.72585C11.6541 8.71306 11.6925 8.73864 11.7155 8.71306M13.7497 8.32157C13.7753 8.33437 13.8111 8.34716 13.8239 8.3574C13.8367 8.33181 13.8853 8.29599 13.9211 8.28575M12.8797 8.58C12.8669 8.52883 12.8925 8.46998 12.9667 8.44439M12.4012 8.78726C12.414 8.76167 12.414 8.72585 12.4268 8.70282M11.8613 8.82564C11.8485 8.85123 11.8255 8.87426 11.8255 8.89728M11.6771 8.84867C11.6771 8.84867 11.6771 8.83587 11.6899 8.83587C11.7155 8.82564 11.7513 8.80005 11.7641 8.77447M13.3454 8.67723C13.3198 8.69003 13.3096 8.67723 13.2968 8.66444M13.3326 8.73864C13.3326 8.73864 13.3224 8.75144 13.307 8.75144M13.394 8.80005C13.3812 8.81285 13.3684 8.82564 13.3582 8.82564M13.7497 8.82564C13.7753 8.81285 13.788 8.78726 13.8008 8.73864M13.591 8.81285C13.6268 8.80005 13.6524 8.77447 13.6883 8.73864M13.9339 8.71306C13.9339 8.68747 13.9339 8.66444 13.9467 8.64141M14.8422 8.82564C14.8166 8.80005 14.8166 8.76423 14.855 8.73864C14.8806 8.72585 14.8908 8.71306 14.9164 8.70282" stroke="black" stroke-width="1.01893"/>
<path id="Vector_84" d="M14.093 8.39322C13.8985 8.30878 13.9113 8.19876 13.7501 8.21155M14.9655 8.77702C14.9783 8.78726 14.9655 8.82564 14.9655 8.83587M15.0755 8.77702C15.0627 8.81285 15.0627 8.82564 15.0627 8.86146M14.1313 7.62305H14.029M13.1002 8.04012C13.1002 8.0657 13.1386 8.11432 13.2358 8.11432C13.223 8.11432 13.2102 8.10153 13.2102 8.10153M13.1488 7.89171C13.1386 7.9045 13.1232 7.89171 13.1232 7.89171C13.1002 7.86612 13.1386 7.82007 13.1744 7.79448C13.1386 7.80727 13.113 7.80727 13.0874 7.80727C13.0618 7.88148 12.9902 7.9173 12.9415 7.86868C12.9287 7.9173 12.8673 7.97871 12.8187 7.96591C12.7675 7.94033 12.7573 7.9045 12.7675 7.86868C12.7087 7.94033 12.6345 7.89427 12.6115 7.86868C12.5987 7.8431 12.6115 7.78169 12.6371 7.70748" stroke="black" stroke-width="1.01893"/>
</g>
<path id="Vector_85" d="M13.9339 8.35742C13.8981 8.38301 13.8597 8.35742 13.8239 8.3958C13.7983 8.42139 13.8367 8.43162 13.8597 8.43162C13.8495 8.47 13.8495 8.4828 13.9109 8.4828C13.8853 8.51862 13.9595 8.53141 13.9467 8.58003C13.9621 8.56405 13.9727 8.54405 13.9772 8.52231C13.9818 8.50058 13.9801 8.47801 13.9723 8.45721C13.9595 8.41883 13.8955 8.3958 13.9339 8.35742Z" fill="black"/>
<path id="Vector_86" d="M12.8184 7.96608C12.7672 7.94049 12.757 7.90467 12.7672 7.86885C12.757 7.89443 12.7339 7.90467 12.7083 7.90467C12.6572 8.01469 12.5983 8.11448 12.5241 8.11448C12.4371 8.12472 12.4499 8.21171 12.5113 8.21171C12.6469 8.2373 12.7083 8.18613 12.8184 7.96608ZM11.6055 7.67183C11.6414 7.636 11.6158 7.59762 11.5927 7.58739C11.5544 7.5746 11.4827 7.58739 11.4443 7.64624C11.4827 7.636 11.5211 7.636 11.5313 7.65903C11.5441 7.68462 11.5672 7.71021 11.6055 7.67183ZM11.6669 7.45178C11.7514 7.45178 11.777 7.46457 11.7872 7.50039C11.8 7.52598 11.777 7.5618 11.7514 7.5618C11.7156 7.5618 11.6772 7.53621 11.69 7.52598C11.7028 7.50039 11.7028 7.46457 11.6644 7.44922L11.6669 7.45178ZM11.91 7.64624C11.9714 7.65903 11.997 7.62065 11.9612 7.5746C11.9484 7.53621 11.91 7.51319 11.8486 7.52342C11.91 7.5618 11.8486 7.62321 11.91 7.64624ZM11.4571 7.85605C11.4681 7.87782 11.4866 7.89494 11.5091 7.90432C11.5316 7.9137 11.5567 7.91473 11.5799 7.90723C11.6158 7.89187 11.6311 7.85605 11.6158 7.83047C11.5902 7.79464 11.5544 7.78185 11.5441 7.83047C11.5185 7.88164 11.4827 7.86885 11.4571 7.85605ZM11.6414 8.6032C11.6158 8.55458 11.5441 8.55458 11.4827 8.6032C11.5083 8.5904 11.5544 8.6032 11.5672 8.62878C11.5799 8.65437 11.6055 8.65437 11.6183 8.65437C11.6286 8.64158 11.6542 8.62878 11.6414 8.6032ZM11.7386 8.53155C11.7386 8.47014 11.6541 8.45479 11.6055 8.48038C11.6311 8.48038 11.6669 8.50596 11.6669 8.53155C11.6772 8.55714 11.7028 8.56737 11.7156 8.56737C11.7411 8.55458 11.7514 8.54179 11.7411 8.53155H11.7386ZM11.6158 8.7516C11.5441 8.73881 11.5057 8.8258 11.5057 8.88465C11.5185 8.84883 11.5569 8.8258 11.5927 8.83604C11.6286 8.83604 11.6414 8.8258 11.6414 8.80022C11.6542 8.77463 11.6414 8.76439 11.6158 8.74904V8.7516ZM11.6286 8.95886C11.6542 8.97165 11.6797 8.94606 11.69 8.91024C11.69 8.88465 11.7411 8.88465 11.7514 8.89745C11.777 8.91024 11.777 8.95886 11.7386 8.98444C11.713 8.99724 11.6542 9.01003 11.6286 8.95886ZM13.3327 8.5904C13.3071 8.58017 13.2482 8.55458 13.1996 8.5904C13.2354 8.58017 13.261 8.6032 13.2713 8.62878C13.2713 8.65437 13.3096 8.6646 13.3224 8.64158C13.3327 8.62878 13.348 8.6032 13.3327 8.5904ZM13.2226 8.6774C13.174 8.65181 13.1126 8.71322 13.0998 8.76439C13.1248 8.744 13.1549 8.73074 13.1868 8.72601C13.2124 8.73881 13.2354 8.72601 13.2354 8.70043C13.2482 8.69019 13.2482 8.6774 13.2226 8.6774ZM13.2866 8.77719C13.2482 8.77719 13.1996 8.8258 13.1996 8.87442C13.2098 8.84883 13.2354 8.83604 13.261 8.84883C13.2866 8.84883 13.3224 8.83604 13.3224 8.81301C13.3224 8.78742 13.3096 8.77463 13.284 8.77463L13.2866 8.77719ZM13.3941 8.87442C13.3685 8.86162 13.3327 8.87442 13.3327 8.91024C13.3327 8.94606 13.3327 8.98444 13.3224 8.99724C13.348 8.97165 13.371 8.95886 13.3941 8.94606C13.4069 8.93583 13.4197 8.89745 13.3941 8.87442ZM14.7809 8.76439C14.7553 8.73881 14.7195 8.7516 14.7067 8.77463C14.6939 8.80022 14.6811 8.86163 14.7067 8.91024C14.7067 8.88465 14.7323 8.84883 14.7579 8.84883C14.7937 8.83604 14.8039 8.78742 14.7809 8.76439ZM14.8551 8.81301C14.8039 8.8386 14.8039 8.92303 14.8423 8.97165C14.8423 8.94606 14.8551 8.91024 14.8781 8.89745C14.9165 8.89745 14.9293 8.84883 14.9165 8.8258C14.8909 8.80022 14.8653 8.81301 14.8551 8.81301ZM15.0009 8.86162C14.9754 8.84883 14.9498 8.87442 14.9498 8.89745C14.9395 8.93583 14.9651 8.98444 15.0009 9.00747C15.0009 8.98188 15.0137 8.95886 15.0265 8.94606C15.0623 8.92048 15.0521 8.87442 15.0009 8.86162ZM15.111 8.84883C15.0854 8.84883 15.0623 8.88465 15.0854 8.92303C15.0982 8.94862 15.1238 8.95886 15.1724 8.94862C15.1596 8.94862 15.1366 8.91024 15.1468 8.89745C15.1596 8.87186 15.1468 8.84883 15.111 8.84883Z" fill="#073163"/>
</g>
<g id="ky-h">
<path id="Vector_87" d="M11.7025 11.1403L12.3166 9.25195L12.9307 11.1403L11.3213 9.97607H13.312L11.7025 11.1403Z" fill="#F9D050"/>
<path id="Vector_88" d="M11.8255 10.9689L13.0997 10.0375H11.5312L12.7927 10.9689L12.3168 9.47461L11.8255 10.9689Z" fill="#024919"/>
</g>
<g id="ky-h_2">
<path id="Vector_89" d="M14.0082 11.1403L14.6223 9.25195L15.2364 11.1403L13.627 9.97607H15.6176L14.0082 11.1403Z" fill="#F9D050"/>
<path id="Vector_90" d="M14.1312 10.9689L15.4054 10.0375H13.8369L15.0984 10.9689L14.6224 9.47461L14.1312 10.9689Z" fill="#024919"/>
</g>
<g id="ky-h_3">
<path id="Vector_91" d="M12.8539 12.4762L13.468 10.5879L14.0821 12.4762L12.4727 11.312H14.4633L12.8539 12.4762Z" fill="#F9D050"/>
<path id="Vector_92" d="M12.9769 12.3048L14.2511 11.3735H12.6826L13.9441 12.3048L13.4681 10.8105L12.9769 12.3048Z" fill="#024919"/>
</g>
<path id="Vector_93" d="M15.7615 7.29162V9.68145C15.7615 11.754 14.7815 12.4653 13.4689 13.0282C12.1562 12.4653 11.166 11.754 11.166 9.68145V7.28906H15.7615V7.29162Z" stroke="black" stroke-width="1.01893"/>
</g>
</g>
<defs>
<clipPath id="clip0_186_8234">
<rect width="18" height="18" fill="white"/>
</clipPath>
</defs>
</svg>
