<svg width="18" height="18" viewBox="0 0 18 18" fill="none" xmlns="http://www.w3.org/2000/svg">
<g id="kz" clip-path="url(#clip0_186_8357)">
<path id="Vector" d="M0 0H18V18H0V0Z" fill="#00ABC2"/>
<g id="Group">
<g id="Group_2">
<path id="Vector_2" d="M9.72846 9.98037C11.0665 9.98037 12.1513 8.89564 12.1513 7.55757C12.1513 6.21949 11.0665 5.13477 9.72846 5.13477C8.39039 5.13477 7.30566 6.21949 7.30566 7.55757C7.30566 8.89564 8.39039 9.98037 9.72846 9.98037Z" fill="#FFEC2D"/>
<g id="kz-c">
<g id="kz-b">
<path id="kz-a" d="M9.72827 4.80499C9.87227 4.80319 9.92627 4.71319 9.92627 4.60519C9.92627 4.46119 9.72827 3.77539 9.72827 3.77539C9.72827 3.77539 9.53027 4.46119 9.53027 4.60519C9.53027 4.71319 9.58427 4.80499 9.72827 4.80499Z" fill="#FFEC2D"/>
<path id="kz-a_2" d="M12.4802 7.55737C12.482 7.70137 12.572 7.75537 12.68 7.75537C12.824 7.75537 13.5098 7.55737 13.5098 7.55737C13.5098 7.55737 12.824 7.35938 12.68 7.35938C12.572 7.35938 12.4802 7.41337 12.4802 7.55737Z" fill="#FFEC2D"/>
<path id="kz-a_3" d="M9.72778 10.3102C9.58378 10.312 9.52978 10.402 9.52978 10.51C9.52978 10.654 9.72778 11.3398 9.72778 11.3398C9.72778 11.3398 9.92578 10.654 9.92578 10.51C9.92578 10.402 9.87178 10.3102 9.72778 10.3102Z" fill="#FFEC2D"/>
<path id="kz-a_4" d="M6.97589 7.55786C6.97409 7.41386 6.88409 7.35986 6.77609 7.35986C6.63209 7.35986 5.94629 7.55786 5.94629 7.55786C5.94629 7.55786 6.63209 7.75586 6.77609 7.75586C6.88409 7.75586 6.97589 7.70186 6.97589 7.55786Z" fill="#FFEC2D"/>
</g>
<g id="kz-b_2">
<path id="kz-a_5" d="M10.7811 5.01333C10.9148 5.06677 10.9992 5.00429 11.0405 4.90451C11.0956 4.77147 11.1751 4.0621 11.1751 4.0621C11.1751 4.0621 10.7297 4.61992 10.6746 4.75296C10.6333 4.85274 10.6481 4.95822 10.7811 5.01333Z" fill="#FFEC2D"/>
<path id="kz-a_6" d="M12.2709 8.60923C12.2174 8.74296 12.2799 8.82729 12.3797 8.86862C12.5127 8.92372 13.2221 9.00324 13.2221 9.00324C13.2221 9.00324 12.6643 8.55787 12.5312 8.50276C12.4314 8.46143 12.326 8.47619 12.2709 8.60923Z" fill="#FFEC2D"/>
<path id="kz-a_7" d="M8.67495 10.1C8.54122 10.0465 8.45689 10.109 8.41556 10.2088C8.36046 10.3418 8.28094 11.0512 8.28094 11.0512C8.28094 11.0512 8.72631 10.4934 8.78142 10.3603C8.82275 10.2605 8.80799 10.1551 8.67495 10.1Z" fill="#FFEC2D"/>
<path id="kz-a_8" d="M7.1852 6.50405C7.23864 6.37032 7.17616 6.28599 7.07638 6.24466C6.94334 6.18956 6.23397 6.11004 6.23397 6.11004C6.23397 6.11004 6.7918 6.55541 6.92484 6.61052C7.02462 6.65185 7.13009 6.63709 7.1852 6.50405Z" fill="#FFEC2D"/>
</g>
<g id="kz-b_3">
<path id="kz-a_9" d="M11.6747 5.61023C11.7778 5.71078 11.8796 5.68533 11.956 5.60896C12.0578 5.50714 12.4027 4.88219 12.4027 4.88219C12.4027 4.88219 11.7778 5.22712 11.6759 5.32894C11.5996 5.40531 11.5728 5.50841 11.6747 5.61023Z" fill="#FFEC2D"/>
<path id="kz-a_10" d="M11.6749 9.50377C11.5744 9.60686 11.5998 9.70869 11.6762 9.78505C11.778 9.88688 12.403 10.2318 12.403 10.2318C12.403 10.2318 12.058 9.60686 11.9562 9.50504C11.8798 9.42867 11.7767 9.40194 11.6749 9.50377Z" fill="#FFEC2D"/>
<path id="kz-a_11" d="M7.78237 9.50305C7.67927 9.4025 7.57745 9.42795 7.50108 9.50432C7.39926 9.60615 7.05433 10.2311 7.05433 10.2311C7.05433 10.2311 7.67927 9.88616 7.78109 9.78434C7.85746 9.70797 7.88419 9.60487 7.78237 9.50305Z" fill="#FFEC2D"/>
<path id="kz-a_12" d="M7.78211 5.61147C7.88266 5.50837 7.8572 5.40655 7.78083 5.33018C7.67901 5.22836 7.05407 4.88343 7.05407 4.88343C7.05407 4.88343 7.399 5.50837 7.50082 5.61019C7.57719 5.68656 7.68028 5.71329 7.78211 5.61147Z" fill="#FFEC2D"/>
</g>
<g id="kz-b_4">
<path id="kz-a_13" d="M12.2701 6.50272C12.3268 6.63507 12.4306 6.65052 12.5304 6.60919C12.6635 6.55408 13.2213 6.10871 13.2213 6.10871C13.2213 6.10871 12.5119 6.18823 12.3789 6.24333C12.2791 6.28466 12.2149 6.36968 12.2701 6.50272Z" fill="#FFEC2D"/>
<path id="kz-a_14" d="M10.7805 10.0992C10.6481 10.1559 10.6327 10.2597 10.674 10.3595C10.7291 10.4926 11.1745 11.0504 11.1745 11.0504C11.1745 11.0504 11.095 10.341 11.0399 10.208C10.9985 10.1082 10.9135 10.044 10.7805 10.0992Z" fill="#FFEC2D"/>
<path id="kz-a_15" d="M7.18503 8.61056C7.12826 8.47821 7.02444 8.46276 6.92466 8.50409C6.79162 8.5592 6.2338 9.00457 6.2338 9.00457C6.2338 9.00457 6.94317 8.92506 7.07621 8.86995C7.17598 8.82862 7.24013 8.7436 7.18503 8.61056Z" fill="#FFEC2D"/>
<path id="kz-a_16" d="M8.6746 5.01413C8.80695 4.95736 8.82239 4.85354 8.78106 4.75376C8.72596 4.62073 8.28058 4.0629 8.28058 4.0629C8.28058 4.0629 8.3601 4.77227 8.41521 4.90531C8.45654 5.00509 8.54156 5.06923 8.6746 5.01413Z" fill="#FFEC2D"/>
</g>
</g>
<g id="kz-c_2">
<g id="kz-b_5">
<path id="kz-a_17" d="M10.2678 4.86094C10.4094 4.88739 10.48 4.80972 10.5011 4.70381C10.5293 4.5626 10.4696 3.8513 10.4696 3.8513C10.4696 3.8513 10.141 4.48501 10.1128 4.62621C10.0916 4.73212 10.1266 4.83272 10.2678 4.86094Z" fill="#FFEC2D"/>
<path id="kz-a_18" d="M12.4271 8.09788C12.4007 8.23945 12.4784 8.31003 12.5843 8.3312C12.7255 8.35941 13.4368 8.29963 13.4368 8.29963C13.4368 8.29963 12.8031 7.97109 12.6619 7.94287C12.556 7.92171 12.4554 7.95668 12.4271 8.09788Z" fill="#FFEC2D"/>
<path id="kz-a_19" d="M9.18923 10.2582C9.04766 10.2318 8.97708 10.3094 8.95591 10.4153C8.9277 10.5565 8.98748 11.2678 8.98748 11.2678C8.98748 11.2678 9.31602 10.6341 9.34424 10.4929C9.3654 10.387 9.33043 10.2864 9.18923 10.2582Z" fill="#FFEC2D"/>
<path id="kz-a_20" d="M7.02891 7.0193C7.05536 6.87774 6.97768 6.80715 6.87178 6.78599C6.73057 6.75778 6.01927 6.81756 6.01927 6.81756C6.01927 6.81756 6.65297 7.1461 6.79418 7.17431C6.90009 7.19548 7.00069 7.16051 7.02891 7.0193Z" fill="#FFEC2D"/>
</g>
<g id="kz-b_6">
<path id="kz-a_21" d="M11.2597 5.27237C11.3804 5.35098 11.4753 5.30623 11.5354 5.21648C11.6155 5.09682 11.8325 4.41679 11.8325 4.41679C11.8325 4.41679 11.2865 4.87653 11.2064 4.99619C11.1463 5.08594 11.1401 5.19226 11.2597 5.27237Z" fill="#FFEC2D"/>
<path id="kz-a_22" d="M12.0157 9.08982C11.9371 9.21048 11.9819 9.30542 12.0716 9.3655C12.1913 9.44561 12.8713 9.66258 12.8713 9.66258C12.8713 9.66258 12.4116 9.11654 12.2919 9.03643C12.2021 8.97635 12.0958 8.97016 12.0157 9.08982Z" fill="#FFEC2D"/>
<path id="kz-a_23" d="M8.19729 9.84677C8.07663 9.76816 7.98169 9.81291 7.92161 9.90266C7.8415 10.0223 7.62453 10.7024 7.62453 10.7024C7.62453 10.7024 8.17057 10.2426 8.25068 10.1229C8.31076 10.0332 8.31695 9.92688 8.19729 9.84677Z" fill="#FFEC2D"/>
<path id="kz-a_24" d="M7.44131 6.02737C7.51993 5.9067 7.47518 5.81176 7.38543 5.75168C7.26577 5.67158 6.58573 5.45461 6.58573 5.45461C6.58573 5.45461 7.04548 6.00065 7.16514 6.08075C7.25488 6.14083 7.36121 6.14703 7.44131 6.02737Z" fill="#FFEC2D"/>
</g>
<g id="kz-b_7">
<path id="kz-a_25" d="M12.017 6.03287C12.0983 6.15167 12.2032 6.14666 12.293 6.08674C12.4128 6.00684 12.8735 5.4616 12.8735 5.4616C12.8735 5.4616 12.1931 5.67739 12.0733 5.75728C11.9835 5.81721 11.9371 5.91307 12.017 6.03287Z" fill="#FFEC2D"/>
<path id="kz-a_26" d="M11.2542 9.84898C11.1354 9.93038 11.1404 10.0352 11.2004 10.1251C11.2803 10.2449 11.8255 10.7056 11.8255 10.7056C11.8255 10.7056 11.6097 10.0251 11.5298 9.90535C11.4699 9.8155 11.374 9.76908 11.2542 9.84898Z" fill="#FFEC2D"/>
<path id="kz-a_27" d="M7.43813 9.08627C7.35673 8.96747 7.25189 8.97248 7.16204 9.0324C7.04224 9.1123 6.58155 9.65754 6.58155 9.65754C6.58155 9.65754 7.26196 9.44175 7.38176 9.36186C7.47161 9.30193 7.51802 9.20607 7.43813 9.08627Z" fill="#FFEC2D"/>
<path id="kz-a_28" d="M8.20084 5.27016C8.31964 5.18876 8.31463 5.08393 8.25471 4.99407C8.17481 4.87427 7.62957 4.41358 7.62957 4.41358C7.62957 4.41358 7.84536 5.09399 7.92525 5.21379C7.98518 5.30364 8.08104 5.35006 8.20084 5.27016Z" fill="#FFEC2D"/>
</g>
<g id="kz-b_8">
<path id="kz-a_29" d="M12.4279 7.02312C12.4576 7.16403 12.5564 7.19952 12.6623 7.17854C12.8036 7.15057 13.4379 6.82314 13.4379 6.82314C13.4379 6.82314 12.7267 6.76211 12.5854 6.79008C12.4795 6.81106 12.3999 6.88186 12.4279 7.02312Z" fill="#FFEC2D"/>
<path id="kz-a_30" d="M10.262 10.257C10.1211 10.2867 10.0856 10.3855 10.1066 10.4914C10.1346 10.6327 10.462 11.267 10.462 11.267C10.462 11.267 10.523 10.5558 10.4951 10.4145C10.4741 10.3086 10.4033 10.229 10.262 10.257Z" fill="#FFEC2D"/>
<path id="kz-a_31" d="M7.02817 8.09212C6.99844 7.95121 6.89966 7.91572 6.79372 7.93669C6.65246 7.96466 6.01818 8.2921 6.01818 8.2921C6.01818 8.2921 6.72938 8.35312 6.87064 8.32515C6.97658 8.30418 7.05614 8.23337 7.02817 8.09212Z" fill="#FFEC2D"/>
<path id="kz-a_32" d="M9.19304 4.85825C9.33395 4.82852 9.36944 4.72974 9.34846 4.6238C9.32049 4.48254 8.99306 3.84826 8.99306 3.84826C8.99306 3.84826 8.93203 4.55946 8.96 4.70072C8.98098 4.80666 9.05178 4.88622 9.19304 4.85825Z" fill="#FFEC2D"/>
</g>
</g>
</g>
<g id="Group_3">
<path id="Vector_3" d="M9.64419 11.7899C9.58119 11.9033 9.54339 12.0347 9.46419 12.1373C9.21939 11.9159 8.86659 11.9213 8.55699 11.9087C8.30139 11.8943 8.02419 11.8709 7.82619 11.6891C7.61919 11.5181 7.44819 11.2985 7.21779 11.1599C7.00127 11.1133 6.79779 11.0193 6.62199 10.8845C6.25839 10.5875 6.04959 10.1465 5.69319 9.84053C5.62659 9.77573 5.54559 9.72352 5.46999 9.66772C5.39799 9.68572 5.43039 9.84053 5.34219 9.76133C5.29359 9.72533 5.17299 9.72353 5.16219 9.77213C5.27019 9.91613 5.37999 10.0781 5.39619 10.2617C5.32059 10.2689 5.18919 10.2455 5.15319 10.2725C5.25211 10.4209 5.37641 10.5507 5.52039 10.6559C5.45199 10.6667 5.31699 10.6613 5.28999 10.6883C5.42476 10.8174 5.59114 10.9086 5.77239 10.9529C5.80839 11.0033 5.71659 11.1005 5.79579 11.1437C5.84079 11.1617 5.99199 11.1941 5.88759 11.2463C5.81559 11.2931 5.84259 11.4065 5.93439 11.4029C5.99199 11.4335 6.12159 11.4389 6.13239 11.4929C6.08019 11.5433 5.92179 11.6045 6.05679 11.6549C6.18406 11.7271 6.32647 11.7684 6.47259 11.7755C6.40059 11.8367 6.31059 11.8709 6.23679 11.9285C6.56979 12.1247 6.93879 12.2525 7.30599 12.3785C7.44999 12.4253 7.59939 12.4703 7.75059 12.4991C7.31139 12.4739 6.88659 12.3443 6.48699 12.1661C6.27999 12.0761 6.07299 11.9879 5.86059 11.9105C5.95239 11.8619 6.06039 11.8493 6.15759 11.8079C5.95599 11.7683 5.73819 11.7539 5.56359 11.6459C5.58879 11.5955 5.68959 11.5937 5.74719 11.5685C5.85519 11.5433 5.91999 11.5145 5.77059 11.5037C5.61939 11.4623 5.44659 11.4803 5.31159 11.3903C5.32059 11.3363 5.46099 11.3543 5.51679 11.3309C5.58879 11.3183 5.66799 11.3075 5.72559 11.2589C5.49159 11.1635 5.18559 11.2319 5.00199 11.0249C4.96059 10.9457 5.13339 11.0087 5.18199 10.9961C5.30799 10.9961 5.44299 11.0357 5.56359 10.9853C5.22159 10.8359 4.85619 10.6973 4.59699 10.4201C4.56819 10.3751 4.48179 10.2527 4.55199 10.2383C4.75359 10.2653 4.89939 10.4849 5.11719 10.4507C5.14599 10.4129 4.99119 10.3499 4.95159 10.2941C4.62598 10.0325 4.34195 9.72297 4.10919 9.37613C4.09479 9.25553 4.28019 9.23753 4.32879 9.32933C4.56999 9.56333 4.78779 9.83332 5.08839 9.99172C5.19639 10.0439 5.02719 9.93053 5.00559 9.88913C4.71969 9.57218 4.47255 9.22232 4.26939 8.84693C4.23339 8.77853 4.17759 8.65432 4.28199 8.61832C4.38459 8.56612 4.48899 8.63632 4.54119 8.72632C4.74459 8.98372 4.89579 9.28973 5.14959 9.50393C4.93359 9.08453 4.70139 8.63993 4.69599 8.15753C4.70139 8.06393 4.70679 7.92353 4.83459 7.92533C4.94259 7.90913 4.92459 8.04593 4.96059 8.11073C5.06499 8.46713 5.10999 8.85233 5.32059 9.16553C5.27559 8.90273 5.20539 8.63093 5.25219 8.36273C5.26299 8.27273 5.36019 8.24753 5.42679 8.30153C5.47899 8.42753 5.48979 8.58773 5.53659 8.72453C5.81713 9.65631 6.40779 10.4642 7.21059 11.0141C7.86794 11.4639 8.63496 11.7271 9.42999 11.7755C9.50199 11.7827 9.57399 11.7845 9.64419 11.7881M12.0994 13.4279C11.9698 13.5071 11.869 13.3667 11.761 13.3253C11.6818 13.3685 11.6746 13.5089 11.6026 13.5773C11.5162 13.6763 11.4082 13.5485 11.4172 13.4513C11.3128 13.5395 11.2606 13.7393 11.0932 13.7105C11.0122 13.6457 10.9528 13.5089 10.8916 13.6655C10.843 13.7411 10.7116 13.8491 10.6414 13.7339C10.6198 13.6331 10.5694 13.5143 10.5154 13.6745C10.4758 13.7897 10.3534 13.8725 10.2382 13.8221C10.1734 13.7699 10.2886 13.5755 10.2076 13.5881C10.0852 13.6709 10.0132 13.8707 9.84219 13.8545C9.77559 13.7825 9.88359 13.6547 9.80979 13.5719C9.72519 13.6817 9.62979 13.8437 9.48039 13.8545C9.40839 13.7969 9.48399 13.6295 9.43719 13.6061C9.28599 13.6961 9.12399 13.8599 8.93319 13.8095C9.00699 13.5215 9.32019 13.4225 9.58119 13.4009C10.033 13.3451 10.5082 13.4477 10.9438 13.2839C11.014 13.2407 11.1832 13.1813 11.1238 13.0823C11.0698 13.0031 11.2624 13.0337 11.2804 12.9419C11.2696 12.8267 11.3704 12.8429 11.4676 12.8339C11.9068 12.8141 12.3406 12.9059 12.778 12.9221C12.8104 13.1345 12.5746 13.2839 12.382 13.2191C12.292 13.2335 12.157 13.0103 12.184 13.1723C12.166 13.2587 12.1768 13.3703 12.0994 13.4279ZM8.36619 12.9923C8.46699 13.0841 8.53899 12.9743 8.63439 12.9329C8.94592 12.811 9.23863 12.6455 9.50379 12.4415C9.66939 12.3047 9.81339 12.1265 10.0366 12.0815C10.4722 11.9501 10.9348 11.9663 11.3704 11.8439C11.7034 11.3903 12.2668 11.2265 12.7402 10.9655C12.8464 10.9331 12.8878 10.8449 12.9202 10.7495C13.1002 10.4633 13.3468 10.2113 13.6384 10.0385C13.776 9.95724 13.9382 9.92787 14.0956 9.95572C14.0739 10.1393 13.9863 10.3088 13.849 10.4327C13.9552 10.4309 14.047 10.3643 14.1514 10.3679C14.1874 10.5587 13.9822 10.6577 13.8724 10.7765C13.9336 10.7909 14.1676 10.8089 14.0398 10.8701C13.8778 10.9817 13.6924 11.0591 13.543 11.1905C13.6816 11.2157 13.6978 11.2445 13.5574 11.2949C13.48 11.3453 13.3342 11.3633 13.3198 11.4641C13.4242 11.5289 13.273 11.5901 13.2136 11.6117C13.102 11.6387 12.9832 11.6873 13.1326 11.7737C13.0768 11.8583 12.9544 11.8763 12.8554 11.8673C12.886 11.9645 12.9292 12.0725 12.805 12.1157C12.5264 12.336 12.1927 12.4754 11.8402 12.5189C12.2812 12.5513 12.7366 12.4703 13.1128 12.2309C13.1632 12.1715 13.4242 12.1067 13.2784 12.0581C13.21 12.0293 13.0624 11.9969 13.0516 11.9447C13.2568 11.8187 13.5142 11.8637 13.7338 11.7899C13.7392 11.7179 13.5664 11.7377 13.5016 11.7215C13.3486 11.7089 13.3576 11.6693 13.5052 11.6549C13.6924 11.6045 13.9048 11.5955 14.0632 11.4749C13.9354 11.4137 13.7734 11.4659 13.6366 11.4173C13.8688 11.3165 14.1424 11.3057 14.3512 11.1527C14.4466 11.0465 14.2288 11.0807 14.1658 11.0825C14.038 11.1059 13.9786 11.0429 14.1244 10.9907C14.3746 10.8053 14.6896 10.6865 14.866 10.4201C14.9074 10.3607 14.9632 10.1807 14.83 10.2437C14.6572 10.3031 14.5042 10.4975 14.3044 10.4381C14.6968 10.1339 15.0676 9.79012 15.3358 9.37072C15.3502 9.24832 15.1594 9.23573 15.1108 9.33113C14.8588 9.57233 14.632 9.85853 14.3098 10.0115C14.6135 9.70787 14.8772 9.36671 15.0946 8.99632C15.1432 8.88832 15.271 8.75692 15.2026 8.63632C15.0892 8.54272 14.9488 8.62913 14.8912 8.73893C14.695 8.99453 14.5474 9.29153 14.2972 9.50033C14.515 9.08093 14.7436 8.63272 14.7472 8.15033C14.7472 8.04953 14.7292 7.90193 14.5924 7.92173C14.4844 7.93973 14.5114 8.10173 14.4664 8.18273C14.3692 8.51393 14.3224 8.87213 14.1244 9.16013C14.1694 8.89193 14.2468 8.61113 14.1874 8.34113C14.1586 8.21873 13.9624 8.27093 13.9894 8.39153C13.7554 9.57773 12.958 10.6145 11.9194 11.2139C11.4424 11.4839 10.9114 11.6567 10.3678 11.7359C10.2238 11.7665 10.0654 11.7485 9.92679 11.7989C9.58839 12.0563 9.38499 12.4901 8.95839 12.6251C8.76579 12.7205 8.51739 12.7403 8.38059 12.9167C8.36951 12.9403 8.36455 12.9663 8.36619 12.9923ZM9.29679 12.8069C9.23199 12.8105 9.16899 12.8177 9.10599 12.8375C9.02139 12.8501 8.94039 12.8789 8.85759 12.8915L8.82339 12.8987L8.76759 12.9041C8.77485 12.9343 8.77485 12.9658 8.76759 12.9959C8.76175 13.0095 8.75317 13.0218 8.74239 13.0319C8.73159 13.0463 8.71899 13.0571 8.70279 13.0643C8.68816 13.0715 8.67226 13.0758 8.65599 13.0769C8.63979 13.0769 8.62359 13.0769 8.60739 13.0697C8.59119 13.0643 8.57679 13.0553 8.56239 13.0427L8.51199 13.0517H8.46519L8.41479 13.0337C8.39852 13.0274 8.38286 13.0195 8.36799 13.0103C8.30679 13.0463 8.23839 13.0805 8.20059 13.1435C8.18302 13.1723 8.1731 13.2052 8.17179 13.2389C8.16819 13.2821 8.17899 13.3253 8.19699 13.3649C8.20419 13.3757 8.20959 13.3235 8.22939 13.3163C8.26359 13.2875 8.30679 13.2677 8.34999 13.2569C8.38599 13.2389 8.38059 13.2569 8.36619 13.2857C8.36259 13.3019 8.34279 13.3577 8.36979 13.3289C8.49426 13.2824 8.62574 13.2575 8.75859 13.2551C8.94939 13.2353 9.14019 13.2299 9.33099 13.2281L9.87099 13.2389C9.95739 13.2425 10.0438 13.2605 10.1284 13.2461C10.1482 13.2407 10.1806 13.2407 10.1932 13.2281C10.1536 13.2065 10.1086 13.2047 10.0672 13.1993H9.72339C9.62799 13.1903 9.52899 13.1885 9.43899 13.1525C9.41379 13.1435 9.39219 13.1201 9.36879 13.1453C9.33452 13.1576 9.29884 13.1654 9.26259 13.1687C9.19959 13.1723 9.13659 13.1597 9.07899 13.1363C9.12039 13.0787 9.17079 13.0283 9.21759 12.9743L9.10599 12.9509C9.17259 12.9059 9.23199 12.8537 9.29679 12.8069Z" fill="#FFEC2D"/>
<path id="Vector_4" d="M8.63988 13.02C8.66374 13.02 8.68308 13.0007 8.68308 12.9768C8.68308 12.9529 8.66374 12.9336 8.63988 12.9336C8.61602 12.9336 8.59668 12.9529 8.59668 12.9768C8.59668 13.0007 8.61602 13.02 8.63988 13.02Z" fill="#FFEC2D"/>
<path id="Vector_5" d="M8.63616 12.9872C8.64611 12.9872 8.65416 12.9791 8.65416 12.9692C8.65416 12.9592 8.64611 12.9512 8.63616 12.9512C8.62622 12.9512 8.61816 12.9592 8.61816 12.9692C8.61816 12.9791 8.62622 12.9872 8.63616 12.9872Z" fill="#FFEC2D" stroke="#FFEC2D" stroke-width="0.2048"/>
</g>
<g id="Group_4">
<g id="kz-f">
<g id="kz-e">
<path id="Vector_6" d="M2.15992 1.31423C2.15992 1.31423 1.98712 1.16663 1.92772 1.24043C1.83412 1.35743 2.21932 1.94243 2.21932 2.14763C2.21932 2.48603 1.99252 2.57783 1.71532 2.62463C1.52812 2.65703 1.22392 2.61203 1.22392 2.61203C1.28152 2.53463 1.31932 2.51123 1.41472 2.50583C1.30672 2.45183 1.19872 2.32943 1.19872 2.14043C1.19872 1.85063 1.31752 1.73003 1.31752 1.40243C1.31752 1.22423 1.16992 0.990234 1.16992 0.990234C1.43272 1.01723 1.56232 1.26023 1.48852 1.45463C1.50878 1.45866 1.52972 1.45765 1.54949 1.45169C1.56927 1.44573 1.58727 1.43499 1.60192 1.42043C1.61992 1.47443 1.59112 1.53743 1.54972 1.59143C1.58212 1.60943 1.60732 1.59863 1.65772 1.58783C1.65412 1.64183 1.62172 1.70303 1.53892 1.75883C1.77652 1.69763 1.92052 1.86143 1.92052 2.03423C1.92052 2.16563 1.83052 2.25923 1.74052 2.25923C1.71172 2.25923 1.66852 2.24663 1.64512 2.22863C1.62712 2.26463 1.63792 2.31323 1.65412 2.34923C1.58932 2.33123 1.54612 2.29163 1.57672 2.21063C1.52632 2.20703 1.48672 2.18903 1.45972 2.15663C1.48672 2.12063 1.52812 2.10263 1.57672 2.10263C1.54072 2.02703 1.58212 1.98563 1.64152 1.95143C1.64152 1.95143 1.60372 2.10263 1.69912 2.10263C1.74232 2.10263 1.78192 2.09003 1.78192 2.02523C1.78192 1.96943 1.73332 1.89203 1.61992 1.89743C1.50832 1.90283 1.41652 1.97483 1.41652 2.15483C1.41652 2.32043 1.55152 2.40323 1.72792 2.40683C1.88632 2.41403 2.00692 2.32763 2.00692 2.16383C2.00692 1.94423 1.69192 1.44743 1.69192 1.25303C1.69192 1.10723 1.82152 1.02443 1.95112 1.02443C2.11672 1.02443 2.25712 1.19003 2.25712 1.19003L2.15992 1.31243V1.31423Z" fill="#FFEC2D"/>
<path id="kz-d" d="M2.19608 5.25823C2.19608 5.62363 1.86848 5.81083 1.61108 5.81083C1.26548 5.81083 1.08008 5.60383 1.08008 5.33203C1.08008 5.17903 1.10888 5.08183 1.17908 4.93603L1.97468 3.28543C2.0035 3.216 2.01582 3.14083 2.01068 3.06583C2.01068 2.91823 1.86668 2.79763 1.71728 2.79583C1.58048 2.79043 1.42928 2.92183 1.42928 3.07123C1.42928 3.25303 1.52468 3.33403 1.62188 3.33403C1.74068 3.33403 1.78748 3.28543 1.78748 3.20083C1.78748 3.14323 1.76048 3.11803 1.71908 3.11803C1.61648 3.11803 1.64708 3.25483 1.64708 3.25483C1.63353 3.25232 1.6207 3.24686 1.60951 3.23882C1.59832 3.23079 1.58904 3.22038 1.58233 3.20834C1.57563 3.19631 1.57166 3.18294 1.57072 3.1692C1.56978 3.15545 1.57188 3.14167 1.57688 3.12883C1.53835 3.12019 1.50363 3.09936 1.47788 3.06943C1.50488 3.04243 1.53728 3.02263 1.57688 3.01543C1.55348 2.93623 1.58588 2.89843 1.65428 2.88043C1.64197 2.90749 1.63881 2.93782 1.64528 2.96683C1.75328 2.93443 1.92068 2.98483 1.92068 3.17203C1.92068 3.35923 1.79108 3.51583 1.54808 3.47803C1.60568 3.50503 1.63448 3.56083 1.64168 3.62383C1.59668 3.60583 1.54808 3.60583 1.54808 3.60583C1.57688 3.65443 1.61648 3.69583 1.61468 3.79663C1.56968 3.77503 1.52648 3.73723 1.47068 3.76063C1.56068 3.94063 1.44908 4.18543 1.16468 4.24303C1.26908 4.12063 1.31948 3.99103 1.31948 3.85963C1.31948 3.43663 1.20248 3.36643 1.20248 3.07123C1.20433 3.00277 1.22243 2.93572 1.2553 2.87563C1.28816 2.81554 1.33484 2.76413 1.39148 2.72563V2.73103C1.35665 2.72388 1.32372 2.70943 1.29487 2.68865C1.26602 2.66786 1.24189 2.6412 1.22408 2.61043C1.4246 2.55516 1.63657 2.55703 1.83608 2.61583C1.90281 2.62527 1.96657 2.64958 2.02265 2.68697C2.07873 2.72435 2.1257 2.77386 2.16008 2.83183C2.19602 2.91383 2.21457 3.0024 2.21457 3.09193C2.21457 3.18146 2.19602 3.27002 2.16008 3.35203C2.04668 3.58603 1.51748 4.71283 1.35188 5.06563C1.31588 5.14123 1.29608 5.22043 1.29608 5.30683C1.29608 5.52283 1.49408 5.59843 1.60568 5.59843C1.74068 5.59843 1.87928 5.49583 1.87928 5.36803C1.87928 5.28703 1.83428 5.23663 1.77128 5.23663C1.61828 5.23663 1.62728 5.36623 1.65788 5.44903C1.56248 5.40583 1.50848 5.33023 1.52288 5.25103C1.46381 5.24111 1.41021 5.21048 1.37168 5.16463C1.40768 5.11783 1.45448 5.08183 1.52288 5.08003C1.49228 4.95583 1.57688 4.90363 1.65788 4.87483C1.63268 4.96483 1.61468 5.07103 1.77128 5.07103C1.88468 5.07103 1.97288 5.08903 2.02508 5.16463L2.03768 4.67863C2.04488 4.53283 1.84328 4.53463 1.71368 4.57963C1.76228 4.41223 1.86128 4.32043 2.09168 4.34383C2.05638 4.33026 2.02625 4.30591 2.00557 4.27424C1.98489 4.24258 1.97471 4.20521 1.97648 4.16743C1.97648 4.03063 2.08808 3.87943 2.16008 3.83443L2.19608 5.25643V5.25823Z" fill="#FFEC2D"/>
<path id="kz-d_2" d="M2.19608 6.3531C2.19608 5.9877 1.86848 5.8005 1.61108 5.8005C1.26548 5.8005 1.08008 6.0075 1.08008 6.2793C1.08008 6.4323 1.10888 6.5295 1.17908 6.6753L1.97468 8.3259C2.0035 8.39533 2.01582 8.4705 2.01068 8.5455C2.01068 8.6931 1.86668 8.8137 1.71728 8.8155C1.58048 8.8209 1.42928 8.6895 1.42928 8.5401C1.42928 8.3583 1.52468 8.2773 1.62188 8.2773C1.74068 8.2773 1.78748 8.3259 1.78748 8.4105C1.78748 8.4681 1.76048 8.4933 1.71908 8.4933C1.61648 8.4933 1.64708 8.3565 1.64708 8.3565C1.63353 8.359 1.6207 8.36447 1.60951 8.37251C1.59832 8.38054 1.58904 8.39095 1.58233 8.40298C1.57563 8.41502 1.57166 8.42839 1.57072 8.44213C1.56978 8.45588 1.57188 8.46966 1.57688 8.4825C1.53835 8.49114 1.50363 8.51197 1.47788 8.5419C1.50488 8.5689 1.53728 8.5887 1.57688 8.5959C1.55348 8.6751 1.58588 8.7129 1.65428 8.7309C1.64197 8.70384 1.63881 8.67351 1.64528 8.6445C1.75328 8.6769 1.92068 8.6265 1.92068 8.4393C1.92068 8.2521 1.79108 8.0955 1.54808 8.1333C1.60568 8.1063 1.63448 8.0505 1.64168 7.9875C1.59668 8.0055 1.54808 8.0055 1.54808 8.0055C1.57688 7.9569 1.61648 7.9155 1.61468 7.8147C1.56968 7.8363 1.52648 7.8741 1.47068 7.8507C1.56068 7.6707 1.44908 7.4259 1.16468 7.3683C1.26908 7.4907 1.31948 7.6203 1.31948 7.7517C1.31948 8.1747 1.20248 8.2449 1.20248 8.5401C1.20433 8.60856 1.22243 8.6756 1.2553 8.73569C1.28816 8.79578 1.33484 8.8472 1.39148 8.8857V8.8803C1.35665 8.88745 1.32372 8.9019 1.29487 8.92268C1.26602 8.94347 1.24189 8.97012 1.22408 9.0009C1.4246 9.05617 1.63657 9.05429 1.83608 8.9955C1.90281 8.98606 1.96657 8.96175 2.02265 8.92436C2.07873 8.88697 2.1257 8.83747 2.16008 8.7795C2.19602 8.69749 2.21457 8.60893 2.21457 8.5194C2.21457 8.42987 2.19602 8.3413 2.16008 8.2593C2.04668 8.0253 1.51748 6.8985 1.35188 6.5457C1.31588 6.4701 1.29608 6.3909 1.29608 6.3045C1.29608 6.0885 1.49408 6.0129 1.60568 6.0129C1.74068 6.0129 1.87928 6.1155 1.87928 6.2433C1.87928 6.3243 1.83428 6.3747 1.77128 6.3747C1.61828 6.3747 1.62728 6.2451 1.65788 6.1623C1.56248 6.2055 1.50848 6.2811 1.52288 6.3603C1.46381 6.37022 1.41021 6.40085 1.37168 6.4467C1.40768 6.4935 1.45448 6.5295 1.52288 6.5313C1.49228 6.6555 1.57688 6.7077 1.65788 6.7365C1.63268 6.6465 1.61468 6.5403 1.77128 6.5403C1.88468 6.5403 1.97288 6.5223 2.02508 6.4467L2.03768 6.9327C2.04488 7.0785 1.84328 7.0767 1.71368 7.0317C1.76228 7.1991 1.86128 7.2909 2.09168 7.2675C2.05638 7.28107 2.02625 7.30542 2.00557 7.33708C1.98489 7.36875 1.97471 7.40612 1.97648 7.4439C1.97648 7.5807 2.08808 7.7319 2.16008 7.7769L2.19608 6.3549V6.3531Z" fill="#FFEC2D"/>
</g>
<g id="kz-e_2">
<path id="Vector_7" d="M2.16039 1.31423C2.16039 1.31423 2.33319 1.16663 2.39259 1.24043C2.48619 1.35743 2.10099 1.94243 2.10099 2.14763C2.10099 2.48603 2.32779 2.57783 2.60499 2.62463C2.79219 2.65703 3.09639 2.61203 3.09639 2.61203C3.03879 2.53463 3.00099 2.51123 2.90559 2.50583C3.01359 2.45183 3.12159 2.32943 3.12159 2.14043C3.12159 1.85063 3.00279 1.73003 3.00279 1.40243C3.00279 1.22423 3.15039 0.990234 3.15039 0.990234C2.88759 1.01723 2.75799 1.26023 2.83179 1.45463C2.81153 1.45866 2.7906 1.45765 2.77082 1.45169C2.75105 1.44573 2.73304 1.43499 2.71839 1.42043C2.70039 1.47443 2.72919 1.53743 2.77059 1.59143C2.73819 1.60943 2.71299 1.59863 2.66259 1.58783C2.66619 1.64183 2.69859 1.70303 2.78139 1.75883C2.54379 1.69763 2.39979 1.86143 2.39979 2.03423C2.39979 2.16563 2.48979 2.25923 2.57979 2.25923C2.60859 2.25923 2.65179 2.24663 2.67519 2.22863C2.69319 2.26463 2.68239 2.31323 2.66619 2.34923C2.73099 2.33123 2.77419 2.29163 2.74359 2.21063C2.79399 2.20703 2.83359 2.18903 2.86059 2.15663C2.83359 2.12063 2.79219 2.10263 2.74359 2.10263C2.77959 2.02703 2.73819 1.98563 2.67879 1.95143C2.67879 1.95143 2.71659 2.10263 2.62119 2.10263C2.57799 2.10263 2.53839 2.09003 2.53839 2.02523C2.53839 1.96943 2.58699 1.89203 2.70039 1.89743C2.81199 1.90283 2.90379 1.97483 2.90379 2.15483C2.90379 2.32043 2.76879 2.40323 2.59239 2.40683C2.43399 2.41403 2.31339 2.32763 2.31339 2.16383C2.31339 1.94423 2.62839 1.44743 2.62839 1.25303C2.62839 1.10723 2.49879 1.02443 2.36919 1.02443C2.20359 1.02443 2.06319 1.19003 2.06319 1.19003L2.16039 1.31243V1.31423Z" fill="#FFEC2D"/>
<path id="kz-d_3" d="M2.12423 5.25823C2.12423 5.62363 2.45183 5.81083 2.70923 5.81083C3.05483 5.81083 3.24023 5.60383 3.24023 5.33203C3.24023 5.17903 3.21143 5.08183 3.14123 4.93603L2.34563 3.28543C2.31681 3.216 2.30449 3.14083 2.30963 3.06583C2.30963 2.91823 2.45363 2.79763 2.60303 2.79583C2.73983 2.79043 2.89103 2.92183 2.89103 3.07123C2.89103 3.25303 2.79563 3.33403 2.69843 3.33403C2.57963 3.33403 2.53283 3.28543 2.53283 3.20083C2.53283 3.14323 2.55983 3.11803 2.60123 3.11803C2.70383 3.11803 2.67323 3.25483 2.67323 3.25483C2.68678 3.25232 2.69961 3.24686 2.7108 3.23882C2.72199 3.23079 2.73127 3.22038 2.73798 3.20834C2.74468 3.19631 2.74865 3.18294 2.74959 3.1692C2.75054 3.15545 2.74843 3.14167 2.74343 3.12883C2.78196 3.12019 2.81668 3.09936 2.84243 3.06943C2.81543 3.04243 2.78303 3.02263 2.74343 3.01543C2.76683 2.93623 2.73443 2.89843 2.66603 2.88043C2.67834 2.90749 2.6815 2.93782 2.67503 2.96683C2.56703 2.93443 2.39963 2.98483 2.39963 3.17203C2.39963 3.35923 2.52923 3.51583 2.77223 3.47803C2.71463 3.50503 2.68583 3.56083 2.67863 3.62383C2.72363 3.60583 2.77223 3.60583 2.77223 3.60583C2.74343 3.65443 2.70383 3.69583 2.70563 3.79663C2.75063 3.77503 2.79383 3.73723 2.84963 3.76063C2.75963 3.94063 2.87123 4.18543 3.15563 4.24303C3.05123 4.12063 3.00083 3.99103 3.00083 3.85963C3.00083 3.43663 3.11783 3.36643 3.11783 3.07123C3.11598 3.00277 3.09788 2.93572 3.06502 2.87563C3.03216 2.81554 2.98548 2.76413 2.92883 2.72563V2.73103C2.96367 2.72388 2.99659 2.70943 3.02544 2.68865C3.05429 2.66786 3.07842 2.6412 3.09623 2.61043C2.89572 2.55516 2.68375 2.55703 2.48423 2.61583C2.4175 2.62527 2.35374 2.64958 2.29766 2.68697C2.24158 2.72435 2.19462 2.77386 2.16023 2.83183C2.1243 2.91383 2.10574 3.0024 2.10574 3.09193C2.10574 3.18146 2.1243 3.27002 2.16023 3.35203C2.27363 3.58603 2.80283 4.71283 2.96843 5.06563C3.00443 5.14123 3.02423 5.22043 3.02423 5.30683C3.02423 5.52283 2.82623 5.59843 2.71463 5.59843C2.57963 5.59843 2.44103 5.49583 2.44103 5.36803C2.44103 5.28703 2.48603 5.23663 2.54903 5.23663C2.70203 5.23663 2.69303 5.36623 2.66243 5.44903C2.75783 5.40583 2.81183 5.33023 2.79743 5.25103C2.8565 5.24111 2.9101 5.21048 2.94863 5.16463C2.91263 5.11783 2.86583 5.08183 2.79743 5.08003C2.82803 4.95583 2.74343 4.90363 2.66243 4.87483C2.68763 4.96483 2.70563 5.07103 2.54903 5.07103C2.43563 5.07103 2.34743 5.08903 2.29523 5.16463L2.28263 4.67863C2.27543 4.53283 2.47703 4.53463 2.60663 4.57963C2.55803 4.41223 2.45903 4.32043 2.22863 4.34383C2.26393 4.33026 2.29406 4.30591 2.31474 4.27424C2.33542 4.24258 2.3456 4.20521 2.34383 4.16743C2.34383 4.03063 2.23223 3.87943 2.16023 3.83443L2.12423 5.25643V5.25823Z" fill="#FFEC2D"/>
<path id="kz-d_4" d="M2.12423 6.3531C2.12423 5.9877 2.45183 5.8005 2.70923 5.8005C3.05483 5.8005 3.24023 6.0075 3.24023 6.2793C3.24023 6.4323 3.21143 6.5295 3.14123 6.6753L2.34563 8.3259C2.31681 8.39533 2.30449 8.4705 2.30963 8.5455C2.30963 8.6931 2.45363 8.8137 2.60303 8.8155C2.73983 8.8209 2.89103 8.6895 2.89103 8.5401C2.89103 8.3583 2.79563 8.2773 2.69843 8.2773C2.57963 8.2773 2.53283 8.3259 2.53283 8.4105C2.53283 8.4681 2.55983 8.4933 2.60123 8.4933C2.70383 8.4933 2.67323 8.3565 2.67323 8.3565C2.68678 8.359 2.69961 8.36447 2.7108 8.37251C2.72199 8.38054 2.73127 8.39095 2.73798 8.40298C2.74468 8.41502 2.74865 8.42839 2.74959 8.44213C2.75054 8.45588 2.74843 8.46966 2.74343 8.4825C2.78196 8.49114 2.81668 8.51197 2.84243 8.5419C2.81543 8.5689 2.78303 8.5887 2.74343 8.5959C2.76683 8.6751 2.73443 8.7129 2.66603 8.7309C2.67834 8.70384 2.6815 8.67351 2.67503 8.6445C2.56703 8.6769 2.39963 8.6265 2.39963 8.4393C2.39963 8.2521 2.52923 8.0955 2.77223 8.1333C2.71463 8.1063 2.68583 8.0505 2.67863 7.9875C2.72363 8.0055 2.77223 8.0055 2.77223 8.0055C2.74343 7.9569 2.70383 7.9155 2.70563 7.8147C2.75063 7.8363 2.79383 7.8741 2.84963 7.8507C2.75963 7.6707 2.87123 7.4259 3.15563 7.3683C3.05123 7.4907 3.00083 7.6203 3.00083 7.7517C3.00083 8.1747 3.11783 8.2449 3.11783 8.5401C3.11598 8.60856 3.09788 8.6756 3.06502 8.73569C3.03216 8.79578 2.98548 8.8472 2.92883 8.8857V8.8803C2.96367 8.88745 2.99659 8.9019 3.02544 8.92268C3.05429 8.94347 3.07842 8.97012 3.09623 9.0009C2.89572 9.05617 2.68375 9.05429 2.48423 8.9955C2.4175 8.98606 2.35374 8.96175 2.29766 8.92436C2.24158 8.88697 2.19462 8.83747 2.16023 8.7795C2.1243 8.69749 2.10574 8.60893 2.10574 8.5194C2.10574 8.42987 2.1243 8.3413 2.16023 8.2593C2.27363 8.0253 2.80283 6.8985 2.96843 6.5457C3.00443 6.4701 3.02423 6.3909 3.02423 6.3045C3.02423 6.0885 2.82623 6.0129 2.71463 6.0129C2.57963 6.0129 2.44103 6.1155 2.44103 6.2433C2.44103 6.3243 2.48603 6.3747 2.54903 6.3747C2.70203 6.3747 2.69303 6.2451 2.66243 6.1623C2.75783 6.2055 2.81183 6.2811 2.79743 6.3603C2.8565 6.37022 2.9101 6.40085 2.94863 6.4467C2.91263 6.4935 2.86583 6.5295 2.79743 6.5313C2.82803 6.6555 2.74343 6.7077 2.66243 6.7365C2.68763 6.6465 2.70563 6.5403 2.54903 6.5403C2.43563 6.5403 2.34743 6.5223 2.29523 6.4467L2.28263 6.9327C2.27543 7.0785 2.47703 7.0767 2.60663 7.0317C2.55803 7.1991 2.45903 7.2909 2.22863 7.2675C2.26393 7.28107 2.29406 7.30542 2.31474 7.33708C2.33542 7.36875 2.3456 7.40612 2.34383 7.4439C2.34383 7.5807 2.23223 7.7319 2.16023 7.7769L2.12423 6.3549V6.3531Z" fill="#FFEC2D"/>
</g>
</g>
<g id="kz-f_2">
<g id="kz-e_3">
<path id="Vector_8" d="M2.15992 16.6858C2.15992 16.6858 1.98712 16.8334 1.92772 16.7596C1.83412 16.6426 2.21932 16.0576 2.21932 15.8524C2.21932 15.514 1.99252 15.4222 1.71532 15.3754C1.52812 15.343 1.22392 15.388 1.22392 15.388C1.28152 15.4654 1.31932 15.4888 1.41472 15.4942C1.30672 15.5482 1.19872 15.6706 1.19872 15.8596C1.19872 16.1494 1.31752 16.27 1.31752 16.5976C1.31752 16.7758 1.16992 17.0098 1.16992 17.0098C1.43272 16.9828 1.56232 16.7398 1.48852 16.5454C1.50878 16.5413 1.52972 16.5423 1.54949 16.5483C1.56927 16.5543 1.58727 16.565 1.60192 16.5796C1.61992 16.5256 1.59112 16.4626 1.54972 16.4086C1.58212 16.3906 1.60732 16.4014 1.65772 16.4122C1.65412 16.3582 1.62172 16.297 1.53892 16.2412C1.77652 16.3024 1.92052 16.1386 1.92052 15.9658C1.92052 15.8344 1.83052 15.7408 1.74052 15.7408C1.71172 15.7408 1.66852 15.7534 1.64512 15.7714C1.62712 15.7354 1.63792 15.6868 1.65412 15.6508C1.58932 15.6688 1.54612 15.7084 1.57672 15.7894C1.52632 15.793 1.48672 15.811 1.45972 15.8434C1.48672 15.8794 1.52812 15.8974 1.57672 15.8974C1.54072 15.973 1.58212 16.0144 1.64152 16.0486C1.64152 16.0486 1.60372 15.8974 1.69912 15.8974C1.74232 15.8974 1.78192 15.91 1.78192 15.9748C1.78192 16.0306 1.73332 16.108 1.61992 16.1026C1.50832 16.0972 1.41652 16.0252 1.41652 15.8452C1.41652 15.6796 1.55152 15.5968 1.72792 15.5932C1.88632 15.586 2.00692 15.6724 2.00692 15.8362C2.00692 16.0558 1.69192 16.5526 1.69192 16.747C1.69192 16.8928 1.82152 16.9756 1.95112 16.9756C2.11672 16.9756 2.25712 16.81 2.25712 16.81L2.15992 16.6876V16.6858Z" fill="#FFEC2D"/>
<path id="kz-d_5" d="M2.19608 12.7418C2.19608 12.3764 1.86848 12.1892 1.61108 12.1892C1.26548 12.1892 1.08008 12.3962 1.08008 12.668C1.08008 12.821 1.10888 12.9182 1.17908 13.064L1.97468 14.7146C2.0035 14.784 2.01582 14.8592 2.01068 14.9342C2.01068 15.0818 1.86668 15.2024 1.71728 15.2042C1.58048 15.2096 1.42928 15.0782 1.42928 14.9288C1.42928 14.747 1.52468 14.666 1.62188 14.666C1.74068 14.666 1.78748 14.7146 1.78748 14.7992C1.78748 14.8568 1.76048 14.882 1.71908 14.882C1.61648 14.882 1.64708 14.7452 1.64708 14.7452C1.63353 14.7477 1.6207 14.7531 1.60951 14.7612C1.59832 14.7692 1.58904 14.7796 1.58233 14.7917C1.57563 14.8037 1.57166 14.8171 1.57072 14.8308C1.56978 14.8445 1.57188 14.8583 1.57688 14.8712C1.53835 14.8798 1.50363 14.9006 1.47788 14.9306C1.50488 14.9576 1.53728 14.9774 1.57688 14.9846C1.55348 15.0638 1.58588 15.1016 1.65428 15.1196C1.64197 15.0925 1.63881 15.0622 1.64528 15.0332C1.75328 15.0656 1.92068 15.0152 1.92068 14.828C1.92068 14.6408 1.79108 14.4842 1.54808 14.522C1.60568 14.495 1.63448 14.4392 1.64168 14.3762C1.59668 14.3942 1.54808 14.3942 1.54808 14.3942C1.57688 14.3456 1.61648 14.3042 1.61468 14.2034C1.56968 14.225 1.52648 14.2628 1.47068 14.2394C1.56068 14.0594 1.44908 13.8146 1.16468 13.757C1.26908 13.8794 1.31948 14.009 1.31948 14.1404C1.31948 14.5634 1.20248 14.6336 1.20248 14.9288C1.20433 14.9972 1.22243 15.0643 1.2553 15.1244C1.28816 15.1845 1.33484 15.2359 1.39148 15.2744V15.269C1.35665 15.2761 1.32372 15.2906 1.29487 15.3114C1.26602 15.3321 1.24189 15.3588 1.22408 15.3896C1.4246 15.4448 1.63657 15.443 1.83608 15.3842C1.90281 15.3747 1.96657 15.3504 2.02265 15.313C2.07873 15.2756 2.1257 15.2261 2.16008 15.1682C2.19602 15.0862 2.21457 14.9976 2.21457 14.9081C2.21457 14.8185 2.19602 14.73 2.16008 14.648C2.04668 14.414 1.51748 13.2872 1.35188 12.9344C1.31588 12.8588 1.29608 12.7796 1.29608 12.6932C1.29608 12.4772 1.49408 12.4016 1.60568 12.4016C1.74068 12.4016 1.87928 12.5042 1.87928 12.632C1.87928 12.713 1.83428 12.7634 1.77128 12.7634C1.61828 12.7634 1.62728 12.6338 1.65788 12.551C1.56248 12.5942 1.50848 12.6698 1.52288 12.749C1.46381 12.7589 1.41021 12.7895 1.37168 12.8354C1.40768 12.8822 1.45448 12.9182 1.52288 12.92C1.49228 13.0442 1.57688 13.0964 1.65788 13.1252C1.63268 13.0352 1.61468 12.929 1.77128 12.929C1.88468 12.929 1.97288 12.911 2.02508 12.8354L2.03768 13.3214C2.04488 13.4672 1.84328 13.4654 1.71368 13.4204C1.76228 13.5878 1.86128 13.6796 2.09168 13.6562C2.05638 13.6697 2.02625 13.6941 2.00557 13.7258C1.98489 13.7574 1.97471 13.7948 1.97648 13.8326C1.97648 13.9694 2.08808 14.1206 2.16008 14.1656L2.19608 12.7436V12.7418Z" fill="#FFEC2D"/>
<path id="kz-d_6" d="M2.19608 11.6469C2.19608 12.0123 1.86848 12.1995 1.61108 12.1995C1.26548 12.1995 1.08008 11.9925 1.08008 11.7207C1.08008 11.5677 1.10888 11.4705 1.17908 11.3247L1.97468 9.6741C2.0035 9.60467 2.01582 9.5295 2.01068 9.4545C2.01068 9.3069 1.86668 9.1863 1.71728 9.1845C1.58048 9.1791 1.42928 9.3105 1.42928 9.4599C1.42928 9.6417 1.52468 9.7227 1.62188 9.7227C1.74068 9.7227 1.78748 9.6741 1.78748 9.5895C1.78748 9.5319 1.76048 9.5067 1.71908 9.5067C1.61648 9.5067 1.64708 9.6435 1.64708 9.6435C1.63353 9.641 1.6207 9.63553 1.60951 9.62749C1.59832 9.61946 1.58904 9.60905 1.58233 9.59702C1.57563 9.58498 1.57166 9.57161 1.57072 9.55787C1.56978 9.54412 1.57188 9.53034 1.57688 9.5175C1.53835 9.50886 1.50363 9.48803 1.47788 9.4581C1.50488 9.4311 1.53728 9.4113 1.57688 9.4041C1.55348 9.3249 1.58588 9.2871 1.65428 9.2691C1.64197 9.29616 1.63881 9.32649 1.64528 9.3555C1.75328 9.3231 1.92068 9.3735 1.92068 9.5607C1.92068 9.7479 1.79108 9.9045 1.54808 9.8667C1.60568 9.8937 1.63448 9.9495 1.64168 10.0125C1.59668 9.9945 1.54808 9.9945 1.54808 9.9945C1.57688 10.0431 1.61648 10.0845 1.61468 10.1853C1.56968 10.1637 1.52648 10.1259 1.47068 10.1493C1.56068 10.3293 1.44908 10.5741 1.16468 10.6317C1.26908 10.5093 1.31948 10.3797 1.31948 10.2483C1.31948 9.8253 1.20248 9.7551 1.20248 9.4599C1.20433 9.39144 1.22243 9.3244 1.2553 9.26431C1.28816 9.20422 1.33484 9.1528 1.39148 9.1143V9.1197C1.35665 9.11255 1.32372 9.0981 1.29487 9.07732C1.26602 9.05653 1.24189 9.02988 1.22408 8.9991C1.4246 8.94383 1.63657 8.94571 1.83608 9.0045C1.90281 9.01394 1.96657 9.03825 2.02265 9.07564C2.07873 9.11303 2.1257 9.16253 2.16008 9.2205C2.19602 9.30251 2.21457 9.39107 2.21457 9.4806C2.21457 9.57013 2.19602 9.6587 2.16008 9.7407C2.04668 9.9747 1.51748 11.1015 1.35188 11.4543C1.31588 11.5299 1.29608 11.6091 1.29608 11.6955C1.29608 11.9115 1.49408 11.9871 1.60568 11.9871C1.74068 11.9871 1.87928 11.8845 1.87928 11.7567C1.87928 11.6757 1.83428 11.6253 1.77128 11.6253C1.61828 11.6253 1.62728 11.7549 1.65788 11.8377C1.56248 11.7945 1.50848 11.7189 1.52288 11.6397C1.46381 11.6298 1.41021 11.5992 1.37168 11.5533C1.40768 11.5065 1.45448 11.4705 1.52288 11.4687C1.49228 11.3445 1.57688 11.2923 1.65788 11.2635C1.63268 11.3535 1.61468 11.4597 1.77128 11.4597C1.88468 11.4597 1.97288 11.4777 2.02508 11.5533L2.03768 11.0673C2.04488 10.9215 1.84328 10.9233 1.71368 10.9683C1.76228 10.8009 1.86128 10.7091 2.09168 10.7325C2.05638 10.7189 2.02625 10.6946 2.00557 10.6629C1.98489 10.6313 1.97471 10.5939 1.97648 10.5561C1.97648 10.4193 2.08808 10.2681 2.16008 10.2231L2.19608 11.6451V11.6469Z" fill="#FFEC2D"/>
</g>
<g id="kz-e_4">
<path id="Vector_9" d="M2.16039 16.6858C2.16039 16.6858 2.33319 16.8334 2.39259 16.7596C2.48619 16.6426 2.10099 16.0576 2.10099 15.8524C2.10099 15.514 2.32779 15.4222 2.60499 15.3754C2.79219 15.343 3.09639 15.388 3.09639 15.388C3.03879 15.4654 3.00099 15.4888 2.90559 15.4942C3.01359 15.5482 3.12159 15.6706 3.12159 15.8596C3.12159 16.1494 3.00279 16.27 3.00279 16.5976C3.00279 16.7758 3.15039 17.0098 3.15039 17.0098C2.88759 16.9828 2.75799 16.7398 2.83179 16.5454C2.81153 16.5413 2.7906 16.5423 2.77082 16.5483C2.75105 16.5543 2.73304 16.565 2.71839 16.5796C2.70039 16.5256 2.72919 16.4626 2.77059 16.4086C2.73819 16.3906 2.71299 16.4014 2.66259 16.4122C2.66619 16.3582 2.69859 16.297 2.78139 16.2412C2.54379 16.3024 2.39979 16.1386 2.39979 15.9658C2.39979 15.8344 2.48979 15.7408 2.57979 15.7408C2.60859 15.7408 2.65179 15.7534 2.67519 15.7714C2.69319 15.7354 2.68239 15.6868 2.66619 15.6508C2.73099 15.6688 2.77419 15.7084 2.74359 15.7894C2.79399 15.793 2.83359 15.811 2.86059 15.8434C2.83359 15.8794 2.79219 15.8974 2.74359 15.8974C2.77959 15.973 2.73819 16.0144 2.67879 16.0486C2.67879 16.0486 2.71659 15.8974 2.62119 15.8974C2.57799 15.8974 2.53839 15.91 2.53839 15.9748C2.53839 16.0306 2.58699 16.108 2.70039 16.1026C2.81199 16.0972 2.90379 16.0252 2.90379 15.8452C2.90379 15.6796 2.76879 15.5968 2.59239 15.5932C2.43399 15.586 2.31339 15.6724 2.31339 15.8362C2.31339 16.0558 2.62839 16.5526 2.62839 16.747C2.62839 16.8928 2.49879 16.9756 2.36919 16.9756C2.20359 16.9756 2.06319 16.81 2.06319 16.81L2.16039 16.6876V16.6858Z" fill="#FFEC2D"/>
<path id="kz-d_7" d="M2.12423 12.7418C2.12423 12.3764 2.45183 12.1892 2.70923 12.1892C3.05483 12.1892 3.24023 12.3962 3.24023 12.668C3.24023 12.821 3.21143 12.9182 3.14123 13.064L2.34563 14.7146C2.31681 14.784 2.30449 14.8592 2.30963 14.9342C2.30963 15.0818 2.45363 15.2024 2.60303 15.2042C2.73983 15.2096 2.89103 15.0782 2.89103 14.9288C2.89103 14.747 2.79563 14.666 2.69843 14.666C2.57963 14.666 2.53283 14.7146 2.53283 14.7992C2.53283 14.8568 2.55983 14.882 2.60123 14.882C2.70383 14.882 2.67323 14.7452 2.67323 14.7452C2.68678 14.7477 2.69961 14.7531 2.7108 14.7612C2.72199 14.7692 2.73127 14.7796 2.73798 14.7917C2.74468 14.8037 2.74865 14.8171 2.74959 14.8308C2.75054 14.8445 2.74843 14.8583 2.74343 14.8712C2.78196 14.8798 2.81668 14.9006 2.84243 14.9306C2.81543 14.9576 2.78303 14.9774 2.74343 14.9846C2.76683 15.0638 2.73443 15.1016 2.66603 15.1196C2.67834 15.0925 2.6815 15.0622 2.67503 15.0332C2.56703 15.0656 2.39963 15.0152 2.39963 14.828C2.39963 14.6408 2.52923 14.4842 2.77223 14.522C2.71463 14.495 2.68583 14.4392 2.67863 14.3762C2.72363 14.3942 2.77223 14.3942 2.77223 14.3942C2.74343 14.3456 2.70383 14.3042 2.70563 14.2034C2.75063 14.225 2.79383 14.2628 2.84963 14.2394C2.75963 14.0594 2.87123 13.8146 3.15563 13.757C3.05123 13.8794 3.00083 14.009 3.00083 14.1404C3.00083 14.5634 3.11783 14.6336 3.11783 14.9288C3.11598 14.9972 3.09788 15.0643 3.06502 15.1244C3.03216 15.1845 2.98548 15.2359 2.92883 15.2744V15.269C2.96367 15.2761 2.99659 15.2906 3.02544 15.3114C3.05429 15.3321 3.07842 15.3588 3.09623 15.3896C2.89572 15.4448 2.68375 15.443 2.48423 15.3842C2.4175 15.3747 2.35374 15.3504 2.29766 15.313C2.24158 15.2756 2.19462 15.2261 2.16023 15.1682C2.1243 15.0862 2.10574 14.9976 2.10574 14.9081C2.10574 14.8185 2.1243 14.73 2.16023 14.648C2.27363 14.414 2.80283 13.2872 2.96843 12.9344C3.00443 12.8588 3.02423 12.7796 3.02423 12.6932C3.02423 12.4772 2.82623 12.4016 2.71463 12.4016C2.57963 12.4016 2.44103 12.5042 2.44103 12.632C2.44103 12.713 2.48603 12.7634 2.54903 12.7634C2.70203 12.7634 2.69303 12.6338 2.66243 12.551C2.75783 12.5942 2.81183 12.6698 2.79743 12.749C2.8565 12.7589 2.9101 12.7895 2.94863 12.8354C2.91263 12.8822 2.86583 12.9182 2.79743 12.92C2.82803 13.0442 2.74343 13.0964 2.66243 13.1252C2.68763 13.0352 2.70563 12.929 2.54903 12.929C2.43563 12.929 2.34743 12.911 2.29523 12.8354L2.28263 13.3214C2.27543 13.4672 2.47703 13.4654 2.60663 13.4204C2.55803 13.5878 2.45903 13.6796 2.22863 13.6562C2.26393 13.6697 2.29406 13.6941 2.31474 13.7258C2.33542 13.7574 2.3456 13.7948 2.34383 13.8326C2.34383 13.9694 2.23223 14.1206 2.16023 14.1656L2.12423 12.7436V12.7418Z" fill="#FFEC2D"/>
<path id="kz-d_8" d="M2.12423 11.6469C2.12423 12.0123 2.45183 12.1995 2.70923 12.1995C3.05483 12.1995 3.24023 11.9925 3.24023 11.7207C3.24023 11.5677 3.21143 11.4705 3.14123 11.3247L2.34563 9.6741C2.31681 9.60467 2.30449 9.5295 2.30963 9.4545C2.30963 9.3069 2.45363 9.1863 2.60303 9.1845C2.73983 9.1791 2.89103 9.3105 2.89103 9.4599C2.89103 9.6417 2.79563 9.7227 2.69843 9.7227C2.57963 9.7227 2.53283 9.6741 2.53283 9.5895C2.53283 9.5319 2.55983 9.5067 2.60123 9.5067C2.70383 9.5067 2.67323 9.6435 2.67323 9.6435C2.68678 9.641 2.69961 9.63553 2.7108 9.62749C2.72199 9.61946 2.73127 9.60905 2.73798 9.59702C2.74468 9.58498 2.74865 9.57161 2.74959 9.55787C2.75054 9.54412 2.74843 9.53034 2.74343 9.5175C2.78196 9.50886 2.81668 9.48803 2.84243 9.4581C2.81543 9.4311 2.78303 9.4113 2.74343 9.4041C2.76683 9.3249 2.73443 9.2871 2.66603 9.2691C2.67834 9.29616 2.6815 9.32649 2.67503 9.3555C2.56703 9.3231 2.39963 9.3735 2.39963 9.5607C2.39963 9.7479 2.52923 9.9045 2.77223 9.8667C2.71463 9.8937 2.68583 9.9495 2.67863 10.0125C2.72363 9.9945 2.77223 9.9945 2.77223 9.9945C2.74343 10.0431 2.70383 10.0845 2.70563 10.1853C2.75063 10.1637 2.79383 10.1259 2.84963 10.1493C2.75963 10.3293 2.87123 10.5741 3.15563 10.6317C3.05123 10.5093 3.00083 10.3797 3.00083 10.2483C3.00083 9.8253 3.11783 9.7551 3.11783 9.4599C3.11598 9.39144 3.09788 9.3244 3.06502 9.26431C3.03216 9.20422 2.98548 9.1528 2.92883 9.1143V9.1197C2.96367 9.11255 2.99659 9.0981 3.02544 9.07732C3.05429 9.05653 3.07842 9.02988 3.09623 8.9991C2.89572 8.94383 2.68375 8.94571 2.48423 9.0045C2.4175 9.01394 2.35374 9.03825 2.29766 9.07564C2.24158 9.11303 2.19462 9.16253 2.16023 9.2205C2.1243 9.30251 2.10574 9.39107 2.10574 9.4806C2.10574 9.57013 2.1243 9.6587 2.16023 9.7407C2.27363 9.9747 2.80283 11.1015 2.96843 11.4543C3.00443 11.5299 3.02423 11.6091 3.02423 11.6955C3.02423 11.9115 2.82623 11.9871 2.71463 11.9871C2.57963 11.9871 2.44103 11.8845 2.44103 11.7567C2.44103 11.6757 2.48603 11.6253 2.54903 11.6253C2.70203 11.6253 2.69303 11.7549 2.66243 11.8377C2.75783 11.7945 2.81183 11.7189 2.79743 11.6397C2.8565 11.6298 2.9101 11.5992 2.94863 11.5533C2.91263 11.5065 2.86583 11.4705 2.79743 11.4687C2.82803 11.3445 2.74343 11.2923 2.66243 11.2635C2.68763 11.3535 2.70563 11.4597 2.54903 11.4597C2.43563 11.4597 2.34743 11.4777 2.29523 11.5533L2.28263 11.0673C2.27543 10.9215 2.47703 10.9233 2.60663 10.9683C2.55803 10.8009 2.45903 10.7091 2.22863 10.7325C2.26393 10.7189 2.29406 10.6946 2.31474 10.6629C2.33542 10.6313 2.3456 10.5939 2.34383 10.5561C2.34383 10.4193 2.23223 10.2681 2.16023 10.2231L2.12423 11.6451V11.6469Z" fill="#FFEC2D"/>
</g>
</g>
</g>
</g>
</g>
<defs>
<clipPath id="clip0_186_8357">
<rect width="18" height="18" fill="white"/>
</clipPath>
</defs>
</svg>
