<svg width="18" height="18" viewBox="0 0 18 18" fill="none" xmlns="http://www.w3.org/2000/svg">
<g id="lb" clip-path="url(#clip0_186_8435)">
<g id="Clip path group">
<mask id="mask0_186_8435" style="mask-type:luminance" maskUnits="userSpaceOnUse" x="-1" y="0" width="19" height="18">
<g id="lb-a">
<path id="Vector" d="M-0.000976562 0H17.9963V17.9972H-0.000976562V0Z" fill="white"/>
</g>
</mask>
<g mask="url(#mask0_186_8435)">
<g id="Group">
<g id="Group_2">
<path id="Vector_2" fill-rule="evenodd" clip-rule="evenodd" d="M-4.5 13.4979H22.4959V17.9972H-4.5V13.4979ZM-4.5 0H22.4959V4.49931H-4.5V0Z" fill="#EE161F"/>
<path id="Vector_3" fill-rule="evenodd" clip-rule="evenodd" d="M-4.5 4.5H22.4959V13.4986H-4.5V4.5Z" fill="white"/>
</g>
<path id="Vector_4" d="M8.86378 4.56836C8.58802 5.11626 8.40297 5.11626 7.94578 5.48274C7.76435 5.66416 7.48859 5.75487 7.85507 5.93992C7.49222 6.12135 7.30717 6.21206 7.12211 6.57854L7.21645 6.66925C7.21645 6.66925 7.56116 6.49871 7.5793 6.57854C7.64099 6.65111 7.12211 6.9305 7.0568 6.97767C6.99149 7.02484 6.66493 7.21715 6.66493 7.21715C6.20774 7.58362 5.93197 7.49291 5.65984 8.04081L6.57421 7.9501C6.75564 8.58871 6.11703 8.67942 5.65984 8.95519L4.92688 9.41238C5.10831 10.051 5.65984 9.68451 6.11703 9.50309L6.20774 9.5938V9.77522L5.29699 10.2324C5.29699 10.2324 4.2157 10.8493 4.19756 10.871C4.1903 10.9073 4.19756 11.0524 4.19756 11.0524C4.56404 11.1468 5.11194 11.2375 5.47841 11.0524C5.9356 10.871 6.02994 10.6896 6.57784 10.6896C6.04904 11.103 5.41346 11.3572 4.74546 11.4226V11.7854C5.29699 11.7854 5.66347 11.7854 6.12065 11.6947L7.31079 11.3318C7.58293 11.3318 7.85869 11.604 7.76798 11.8761C7.49222 12.8812 6.39642 12.6998 6.02631 13.5234L7.49222 12.9755C7.85869 12.7941 8.22517 12.6091 8.68236 12.6998C9.23026 12.8812 9.23026 13.2477 9.96321 13.4291L9.78179 12.9755C9.96321 13.0663 10.1446 13.0663 10.3297 13.157C10.7869 13.3384 10.8776 13.5198 11.4291 13.4291C10.9719 12.8848 10.8776 12.9755 10.5147 12.6091C10.1483 12.0612 9.96321 11.2375 10.5147 11.1468L11.1534 11.3282C11.7956 11.4226 11.7956 11.2375 12.71 11.604C13.2579 11.7854 13.4429 12.0612 14.0815 11.8761C13.8094 11.2375 12.8007 10.7803 12.1584 10.5989C12.8914 10.1417 12.71 10.7803 13.7187 10.5082V10.3268C12.9857 9.77522 12.71 9.31804 11.7013 9.31804L13.2615 9.13661V8.95519C13.2615 8.95519 11.7194 8.55243 11.6831 8.53791C11.6926 8.50101 11.7112 8.46707 11.7372 8.43919C11.7632 8.41131 11.7957 8.39036 11.8319 8.37826C12.1222 8.56694 13.0039 8.54517 13.0547 8.54154C13.0293 8.31658 12.612 8.13152 12.2455 7.9501C12.2455 7.9501 10.678 6.9813 10.6708 6.89784C10.6998 6.65111 11.313 6.93413 11.9698 7.12644C11.7883 6.76359 11.4219 6.57854 11.0554 6.48782L11.6033 6.39711C11.2404 5.57345 10.3224 5.66416 9.77453 5.29768C9.40805 5.02555 9.40805 4.8405 8.86015 4.56836H8.86378Z" fill="#00A850"/>
<path id="Vector_5" fill-rule="evenodd" clip-rule="evenodd" d="M7.87354 10.6538C7.94248 10.4361 8.02957 10.2438 7.62318 10.0587C7.21679 9.87365 7.82637 10.8025 7.87717 10.6538H7.87354ZM8.35613 10.2184C8.27268 10.2292 8.23276 10.5304 8.39241 10.6102C8.57747 10.6393 8.4287 10.222 8.35613 10.2184ZM8.83146 10.1857C8.74801 10.2111 8.74438 10.6356 9.04191 10.5594C9.34308 10.4869 9.04191 10.153 8.83146 10.1893V10.1857ZM9.38662 9.10442C9.45193 9.00282 9.38299 8.57829 9.12537 8.75608C8.86775 8.93751 9.30679 9.13344 9.38662 9.10442ZM8.8242 8.75245C8.90403 8.72343 8.91129 8.46218 8.68632 8.53475C8.46136 8.60006 8.76615 8.80688 8.8242 8.75245ZM8.31622 8.85768C8.31622 8.85768 8.16019 8.63997 8.03682 8.68351C7.88443 8.82865 8.3271 8.86131 8.31622 8.85768ZM6.57455 9.55072C6.63986 9.55798 7.13696 9.47089 7.3075 9.27858C7.48167 9.08627 6.42578 9.35841 6.42578 9.36204C6.42578 9.36567 6.52375 9.53258 6.57092 9.55072H6.57455ZM11.5347 8.32429C11.5601 8.27712 11.2698 8.0703 11.0993 8.15376C11.0557 8.30615 11.5347 8.35332 11.5347 8.32429ZM10.5586 7.83082C10.613 7.75462 10.4316 7.43169 10.076 7.61311C9.72044 7.79454 10.4498 7.95782 10.5586 7.83082ZM9.43016 7.64214C9.43016 7.64214 9.51724 7.35186 9.73495 7.40992C9.97443 7.59497 9.44104 7.65303 9.43016 7.64214ZM9.21971 7.42443C9.18342 7.34461 8.96209 7.39178 8.70446 7.56231C8.44684 7.72922 9.29591 7.60949 9.21971 7.42443ZM9.87283 6.64794C9.87283 6.64794 10.1051 6.54271 10.174 6.64794C10.2683 6.80033 9.87283 6.64794 9.87646 6.64794H9.87283ZM9.68415 6.54634C9.63698 6.45563 9.38299 6.44474 9.39025 6.58263C9.3467 6.68422 9.71681 6.66608 9.68052 6.54634H9.68415ZM9.0782 6.54634C9.0528 6.49191 8.69358 6.54634 8.58472 6.76405C8.75889 6.8475 9.15802 6.68422 9.0782 6.54634ZM8.30533 6.76768C8.30533 6.76768 7.83363 7.05796 7.80097 7.27204C7.81549 7.45346 8.39241 6.93822 8.39241 6.93822C8.39241 6.93822 8.44321 6.73502 8.30533 6.76768ZM7.7792 6.5028C7.79372 6.44474 8.01505 6.30686 8.0332 6.32138C8.05134 6.37943 7.85177 6.53908 7.7792 6.5028ZM7.9316 7.61311C7.94248 7.52966 7.36556 7.53692 7.58327 7.79817C7.76469 8.0195 7.97151 7.65303 7.9316 7.61674V7.61311ZM7.40184 7.9941C7.37281 7.93605 7.32927 7.78002 7.24944 7.76551C7.18776 7.76551 6.83943 7.83808 6.81403 7.89251C6.79951 7.93968 6.95917 8.22633 7.00997 8.23358C7.07165 8.25535 7.39096 8.02313 7.40184 7.9941ZM10.5078 9.93171C10.526 9.87003 11.1138 9.66683 11.317 9.85914C11.5564 10.1857 10.4933 10.0333 10.5078 9.93171ZM12.1261 10.3163C12.2531 10.0986 11.727 9.83737 11.5093 10.0877C11.5818 10.3853 12.0209 10.4941 12.1261 10.3163Z" fill="white" stroke="white" stroke-width="3.19951" stroke-linecap="round" stroke-linejoin="round"/>
</g>
</g>
</g>
</g>
<defs>
<clipPath id="clip0_186_8435">
<rect width="18" height="18" fill="white"/>
</clipPath>
</defs>
</svg>
