<svg width="18" height="18" viewBox="0 0 18 18" fill="none" xmlns="http://www.w3.org/2000/svg">
<g id="li" clip-path="url(#clip0_186_10393)">
<path id="Vector" d="M0 0H18.0035V9H0V0Z" fill="#002B7F"/>
<path id="Vector_2" d="M0 9H18.0035V18H0V9Z" fill="#CE1126"/>
<g id="Group">
<g id="li-a">
<path id="Vector_3" d="M4.593 3.67053L4.536 5.54552H2.63401C2.40001 5.08952 2.20801 4.70553 2.20801 4.18053C2.20801 3.74253 2.55301 3.39453 3.048 3.39453C3.573 3.39453 4.152 3.57153 4.593 3.67053Z" fill="#FFD83D"/>
<g id="Group_2">
<g id="Vector_4">
<path d="M2.43555 3.75556V4.83556ZM2.58555 3.64456V5.08456ZM2.74155 3.56956V5.28556ZM2.89155 3.53356V4.88056ZM3.04454 3.52756V4.88656ZM3.19754 3.47656V4.88656ZM3.35054 3.47656V4.88656ZM3.50354 3.49156V4.90156ZM3.65654 3.50656V4.91356ZM3.80954 3.59356V5.00356ZM3.95954 3.60856V5.19556ZM4.11554 3.60856V5.01856ZM4.26554 3.60856V5.01856Z" fill="#FFD83D"/>
<path d="M2.43555 3.75556V4.83556M2.58555 3.64456V5.08456M2.74155 3.56956V5.28556M2.89155 3.53356V4.88056M3.04454 3.52756V4.88656M3.19754 3.47656V4.88656M3.35054 3.47656V4.88656M3.50354 3.49156V4.90156M3.65654 3.50656V4.91356M3.80954 3.59356V5.00356M3.95954 3.60856V5.19556M4.11554 3.60856V5.01856M4.26554 3.60856V5.01856" stroke="black" stroke-width="1.27999" stroke-linecap="round" stroke-linejoin="round"/>
</g>
<path id="Vector_5" d="M3.39257 3.53906C3.71656 3.59006 4.42456 3.92306 4.34356 4.37006C4.22956 5.00606 3.85756 4.75106 3.36557 4.66106L2.99357 4.78406C2.85857 4.91906 2.66357 5.04506 2.53157 4.88006H2.30957V5.74405H4.75156V3.65906L3.39257 3.53906Z" fill="#000001" stroke="black" stroke-width="1.27999" stroke-linecap="round" stroke-linejoin="round"/>
</g>
<path id="Vector_6" d="M4.48489 3.53619C4.56608 3.53619 4.63189 3.47037 4.63189 3.38919C4.63189 3.308 4.56608 3.24219 4.48489 3.24219C4.4037 3.24219 4.33789 3.308 4.33789 3.38919C4.33789 3.47037 4.4037 3.53619 4.48489 3.53619Z" fill="#FFD83D" stroke="black" stroke-width="1.70666" stroke-linecap="round" stroke-linejoin="round"/>
<path id="Vector_7" d="M4.15188 3.45806C4.23307 3.45806 4.29888 3.39225 4.29888 3.31106C4.29888 3.22988 4.23307 3.16406 4.15188 3.16406C4.0707 3.16406 4.00488 3.22988 4.00488 3.31106C4.00488 3.39225 4.0707 3.45806 4.15188 3.45806Z" fill="#FFD83D" stroke="black" stroke-width="1.70666" stroke-linecap="round" stroke-linejoin="round"/>
<path id="Vector_8" d="M3.81301 3.37212C3.8942 3.37212 3.96001 3.30631 3.96001 3.22512C3.96001 3.14394 3.8942 3.07812 3.81301 3.07812C3.73183 3.07812 3.66602 3.14394 3.66602 3.22512C3.66602 3.30631 3.73183 3.37212 3.81301 3.37212Z" fill="#FFD83D" stroke="black" stroke-width="1.70666" stroke-linecap="round" stroke-linejoin="round"/>
<path id="Vector_9" d="M3.47415 3.31353C3.55533 3.31353 3.62115 3.24772 3.62115 3.16653C3.62115 3.08535 3.55533 3.01953 3.47415 3.01953C3.39296 3.01953 3.32715 3.08535 3.32715 3.16653C3.32715 3.24772 3.39296 3.31353 3.47415 3.31353Z" fill="#FFD83D" stroke="black" stroke-width="1.70666" stroke-linecap="round" stroke-linejoin="round"/>
<path id="Vector_10" d="M3.13528 3.28228C3.21647 3.28228 3.28228 3.21647 3.28228 3.13528C3.28228 3.0541 3.21647 2.98828 3.13528 2.98828C3.0541 2.98828 2.98828 3.0541 2.98828 3.13528C2.98828 3.21647 3.0541 3.28228 3.13528 3.28228Z" fill="#FFD83D" stroke="black" stroke-width="1.70666" stroke-linecap="round" stroke-linejoin="round"/>
<path id="Vector_11" d="M2.8052 3.30181C2.88639 3.30181 2.9522 3.236 2.9522 3.15481C2.9522 3.07363 2.88639 3.00781 2.8052 3.00781C2.72402 3.00781 2.6582 3.07363 2.6582 3.15481C2.6582 3.236 2.72402 3.30181 2.8052 3.30181Z" fill="#FFD83D" stroke="black" stroke-width="1.70666" stroke-linecap="round" stroke-linejoin="round"/>
<path id="Vector_12" d="M2.48684 3.40728C2.56803 3.40728 2.63384 3.34147 2.63384 3.26028C2.63384 3.17909 2.56803 3.11328 2.48684 3.11328C2.40566 3.11328 2.33984 3.17909 2.33984 3.26028C2.33984 3.34147 2.40566 3.40728 2.48684 3.40728Z" fill="#FFD83D" stroke="black" stroke-width="1.70666" stroke-linecap="round" stroke-linejoin="round"/>
<path id="Vector_13" d="M2.22024 3.6065C2.30143 3.6065 2.36724 3.54069 2.36724 3.4595C2.36724 3.37831 2.30143 3.3125 2.22024 3.3125C2.13906 3.3125 2.07324 3.37831 2.07324 3.4595C2.07324 3.54069 2.13906 3.6065 2.22024 3.6065Z" fill="#FFD83D" stroke="black" stroke-width="1.70666" stroke-linecap="round" stroke-linejoin="round"/>
<path id="Vector_14" d="M2.03079 3.87994C2.11197 3.87994 2.17779 3.81412 2.17779 3.73294C2.17779 3.65175 2.11197 3.58594 2.03079 3.58594C1.9496 3.58594 1.88379 3.65175 1.88379 3.73294C1.88379 3.81412 1.9496 3.87994 2.03079 3.87994Z" fill="#FFD83D" stroke="black" stroke-width="1.70666" stroke-linecap="round" stroke-linejoin="round"/>
<path id="Vector_15" d="M1.93802 4.20416C2.0192 4.20416 2.08501 4.13834 2.08501 4.05716C2.08501 3.97597 2.0192 3.91016 1.93802 3.91016C1.85683 3.91016 1.79102 3.97597 1.79102 4.05716C1.79102 4.13834 1.85683 4.20416 1.93802 4.20416Z" fill="#FFD83D" stroke="black" stroke-width="1.70666" stroke-linecap="round" stroke-linejoin="round"/>
<path id="Vector_16" d="M1.94094 4.53619C2.02213 4.53619 2.08794 4.47037 2.08794 4.38919C2.08794 4.308 2.02213 4.24219 1.94094 4.24219C1.85976 4.24219 1.79395 4.308 1.79395 4.38919C1.79395 4.47037 1.85976 4.53619 1.94094 4.53619Z" fill="#FFD83D" stroke="black" stroke-width="1.70666" stroke-linecap="round" stroke-linejoin="round"/>
<path id="Vector_17" d="M2.00735 4.86431C2.08854 4.86431 2.15435 4.7985 2.15435 4.71731C2.15435 4.63613 2.08854 4.57031 2.00735 4.57031C1.92617 4.57031 1.86035 4.63613 1.86035 4.71731C1.86035 4.7985 1.92617 4.86431 2.00735 4.86431Z" fill="#FFD83D" stroke="black" stroke-width="1.70666" stroke-linecap="round" stroke-linejoin="round"/>
<path id="Vector_18" d="M4.55137 3.58459L4.53637 3.77959C4.16737 3.71959 3.64537 3.51559 3.15637 3.51559C2.70637 3.51559 2.35837 3.69559 2.35837 4.15159C2.35837 4.59859 2.54737 5.00659 2.79937 5.42059L2.53837 5.54058C2.30437 5.09059 2.10938 4.70059 2.10938 4.17859C2.10938 3.74059 2.45437 3.30859 3.04837 3.30859C3.57337 3.30859 4.11037 3.48859 4.55137 3.58459Z" fill="#FFD83D" stroke="black" stroke-width="1.70666" stroke-linecap="round" stroke-linejoin="round"/>
</g>
<g id="li-a_2">
<path id="Vector_19" d="M4.92946 3.67053L4.98646 5.54552H6.88845C7.12245 5.08952 7.31445 4.70553 7.31445 4.18053C7.31445 3.74253 6.96945 3.39453 6.47446 3.39453C5.94946 3.39453 5.37046 3.57153 4.92946 3.67053Z" fill="#FFD83D"/>
<g id="Group_3">
<g id="Vector_20">
<path d="M7.08691 3.75556V4.83556ZM6.93691 3.64456V5.08456ZM6.78092 3.56956V5.28556ZM6.63092 3.53356V4.88056ZM6.47792 3.52756V4.88656ZM6.32492 3.47656V4.88656ZM6.17192 3.47656V4.88656ZM6.01892 3.49156V4.90156ZM5.86592 3.50656V4.91356ZM5.71292 3.59356V5.00356ZM5.56292 3.60856V5.19556ZM5.40692 3.60856V5.01856ZM5.25692 3.60856V5.01856Z" fill="#FFD83D"/>
<path d="M7.08691 3.75556V4.83556M6.93691 3.64456V5.08456M6.78092 3.56956V5.28556M6.63092 3.53356V4.88056M6.47792 3.52756V4.88656M6.32492 3.47656V4.88656M6.17192 3.47656V4.88656M6.01892 3.49156V4.90156M5.86592 3.50656V4.91356M5.71292 3.59356V5.00356M5.56292 3.60856V5.19556M5.40692 3.60856V5.01856M5.25692 3.60856V5.01856" stroke="black" stroke-width="1.27999" stroke-linecap="round" stroke-linejoin="round"/>
</g>
<path id="Vector_21" d="M6.1299 3.53906C5.8059 3.59006 5.0979 3.92306 5.1789 4.37006C5.2929 5.00606 5.6649 4.75106 6.15689 4.66106L6.52889 4.78406C6.66389 4.91906 6.85889 5.04506 6.99089 4.88006H7.21289V5.74405H4.7709V3.65906L6.1299 3.53906Z" fill="#000001" stroke="black" stroke-width="1.27999" stroke-linecap="round" stroke-linejoin="round"/>
</g>
<path id="Vector_22" d="M5.03757 3.53619C4.95639 3.53619 4.89057 3.47037 4.89057 3.38919C4.89057 3.308 4.95639 3.24219 5.03757 3.24219C5.11876 3.24219 5.18457 3.308 5.18457 3.38919C5.18457 3.47037 5.11876 3.53619 5.03757 3.53619Z" fill="#FFD83D" stroke="black" stroke-width="1.70666" stroke-linecap="round" stroke-linejoin="round"/>
<path id="Vector_23" d="M5.37058 3.45806C5.28939 3.45806 5.22358 3.39225 5.22358 3.31106C5.22358 3.22988 5.28939 3.16406 5.37058 3.16406C5.45176 3.16406 5.51758 3.22988 5.51758 3.31106C5.51758 3.39225 5.45176 3.45806 5.37058 3.45806Z" fill="#FFD83D" stroke="black" stroke-width="1.70666" stroke-linecap="round" stroke-linejoin="round"/>
<path id="Vector_24" d="M5.70945 3.37212C5.62826 3.37212 5.56245 3.30631 5.56245 3.22512C5.56245 3.14394 5.62826 3.07812 5.70945 3.07812C5.79063 3.07812 5.85645 3.14394 5.85645 3.22512C5.85645 3.30631 5.79063 3.37212 5.70945 3.37212Z" fill="#FFD83D" stroke="black" stroke-width="1.70666" stroke-linecap="round" stroke-linejoin="round"/>
<path id="Vector_25" d="M6.04831 3.31353C5.96713 3.31353 5.90131 3.24772 5.90131 3.16653C5.90131 3.08535 5.96713 3.01953 6.04831 3.01953C6.1295 3.01953 6.19531 3.08535 6.19531 3.16653C6.19531 3.24772 6.1295 3.31353 6.04831 3.31353Z" fill="#FFD83D" stroke="black" stroke-width="1.70666" stroke-linecap="round" stroke-linejoin="round"/>
<path id="Vector_26" d="M6.38718 3.28228C6.30599 3.28228 6.24018 3.21647 6.24018 3.13528C6.24018 3.0541 6.30599 2.98828 6.38718 2.98828C6.46837 2.98828 6.53418 3.0541 6.53418 3.13528C6.53418 3.21647 6.46837 3.28228 6.38718 3.28228Z" fill="#FFD83D" stroke="black" stroke-width="1.70666" stroke-linecap="round" stroke-linejoin="round"/>
<path id="Vector_27" d="M6.71726 3.30181C6.63607 3.30181 6.57026 3.236 6.57026 3.15481C6.57026 3.07363 6.63607 3.00781 6.71726 3.00781C6.79844 3.00781 6.86426 3.07363 6.86426 3.15481C6.86426 3.236 6.79844 3.30181 6.71726 3.30181Z" fill="#FFD83D" stroke="black" stroke-width="1.70666" stroke-linecap="round" stroke-linejoin="round"/>
<path id="Vector_28" d="M7.03562 3.40728C6.95443 3.40728 6.88862 3.34147 6.88862 3.26028C6.88862 3.17909 6.95443 3.11328 7.03562 3.11328C7.1168 3.11328 7.18262 3.17909 7.18262 3.26028C7.18262 3.34147 7.1168 3.40728 7.03562 3.40728Z" fill="#FFD83D" stroke="black" stroke-width="1.70666" stroke-linecap="round" stroke-linejoin="round"/>
<path id="Vector_29" d="M7.30222 3.6065C7.22103 3.6065 7.15522 3.54069 7.15522 3.4595C7.15522 3.37831 7.22103 3.3125 7.30222 3.3125C7.3834 3.3125 7.44922 3.37831 7.44922 3.4595C7.44922 3.54069 7.3834 3.6065 7.30222 3.6065Z" fill="#FFD83D" stroke="black" stroke-width="1.70666" stroke-linecap="round" stroke-linejoin="round"/>
<path id="Vector_30" d="M7.49167 3.87994C7.41049 3.87994 7.34467 3.81412 7.34467 3.73294C7.34467 3.65175 7.41049 3.58594 7.49167 3.58594C7.57286 3.58594 7.63867 3.65175 7.63867 3.73294C7.63867 3.81412 7.57286 3.87994 7.49167 3.87994Z" fill="#FFD83D" stroke="black" stroke-width="1.70666" stroke-linecap="round" stroke-linejoin="round"/>
<path id="Vector_31" d="M7.58445 4.20416C7.50326 4.20416 7.43745 4.13834 7.43745 4.05716C7.43745 3.97597 7.50326 3.91016 7.58445 3.91016C7.66563 3.91016 7.73145 3.97597 7.73145 4.05716C7.73145 4.13834 7.66563 4.20416 7.58445 4.20416Z" fill="#FFD83D" stroke="black" stroke-width="1.70666" stroke-linecap="round" stroke-linejoin="round"/>
<path id="Vector_32" d="M7.58152 4.53619C7.50033 4.53619 7.43452 4.47037 7.43452 4.38919C7.43452 4.308 7.50033 4.24219 7.58152 4.24219C7.6627 4.24219 7.72852 4.308 7.72852 4.38919C7.72852 4.47037 7.6627 4.53619 7.58152 4.53619Z" fill="#FFD83D" stroke="black" stroke-width="1.70666" stroke-linecap="round" stroke-linejoin="round"/>
<path id="Vector_33" d="M7.51511 4.86431C7.43392 4.86431 7.36811 4.7985 7.36811 4.71731C7.36811 4.63613 7.43392 4.57031 7.51511 4.57031C7.5963 4.57031 7.66211 4.63613 7.66211 4.71731C7.66211 4.7985 7.5963 4.86431 7.51511 4.86431Z" fill="#FFD83D" stroke="black" stroke-width="1.70666" stroke-linecap="round" stroke-linejoin="round"/>
<path id="Vector_34" d="M4.9711 3.58459L4.9861 3.77959C5.35509 3.71959 5.87709 3.51559 6.36609 3.51559C6.81609 3.51559 7.16409 3.69559 7.16409 4.15159C7.16409 4.59859 6.97509 5.00659 6.72309 5.42059L6.98409 5.54058C7.21809 5.09059 7.41309 4.70059 7.41309 4.17859C7.41309 3.74059 7.06809 3.30859 6.47409 3.30859C5.94909 3.30859 5.41209 3.48859 4.9711 3.58459Z" fill="#FFD83D" stroke="black" stroke-width="1.70666" stroke-linecap="round" stroke-linejoin="round"/>
</g>
<path id="Vector_35" d="M4.76098 1.59284L4.60498 1.88384L4.76098 2.17184L4.91398 1.88384L4.76098 1.58984V1.59284ZM4.76098 2.32484L4.60498 2.61284L4.76098 2.90384L4.91098 2.60984L4.76098 2.32484ZM4.20898 2.24984L4.45198 2.40284L4.69498 2.24984L4.45498 2.09384L4.20898 2.24984ZM4.82398 2.24984L5.06698 2.40284L5.31298 2.24984L5.06698 2.09384L4.82398 2.24984Z" fill="#FFD83D" stroke="black" stroke-width="1.70666" stroke-linecap="round" stroke-linejoin="round"/>
<path id="Vector_36" d="M4.76153 2.37072C4.82615 2.37072 4.87853 2.31834 4.87853 2.25372C4.87853 2.1891 4.82615 2.13672 4.76153 2.13672C4.69691 2.13672 4.64453 2.1891 4.64453 2.25372C4.64453 2.31834 4.69691 2.37072 4.76153 2.37072Z" fill="#FFD83D" stroke="black" stroke-width="1.70666" stroke-linecap="round" stroke-linejoin="round"/>
<path id="Vector_37" d="M4.76129 3.31359C4.93526 3.31359 5.07629 3.17256 5.07629 2.99859C5.07629 2.82462 4.93526 2.68359 4.76129 2.68359C4.58732 2.68359 4.44629 2.82462 4.44629 2.99859C4.44629 3.17256 4.58732 3.31359 4.76129 3.31359Z" fill="#FFD83D" stroke="black" stroke-width="1.70666" stroke-linecap="round" stroke-linejoin="round"/>
<path id="Vector_38" d="M4.68008 2.69531V2.89331C4.60567 2.89689 4.53154 2.90491 4.45808 2.91731M5.06408 2.91731C4.98963 2.90476 4.91449 2.89675 4.83908 2.89331V2.69531M4.45508 3.07631C4.55615 3.05881 4.6585 3.04978 4.76108 3.04931C4.86308 3.04931 4.96508 3.05831 5.06108 3.07631" stroke="black" stroke-width="1.27999" stroke-linecap="round" stroke-linejoin="round"/>
<path id="Vector_39" d="M4.45506 3.53125C4.42506 4.04125 4.36506 4.56625 4.16406 4.94424L4.48806 4.81224C4.60206 4.38325 4.62606 3.82825 4.65906 3.56425L4.45506 3.53125ZM5.06706 3.53125L4.86006 3.56425C4.89606 3.82825 4.92006 4.38325 5.03106 4.81224L5.35506 4.94424C5.15706 4.56625 5.09706 4.04425 5.06706 3.53125Z" fill="#FFD83D" stroke="black" stroke-width="1.70666" stroke-linecap="round" stroke-linejoin="round"/>
<path id="Vector_40" d="M4.76123 4.64062C4.37123 4.64062 4.08623 4.82062 4.07123 5.28862C3.97523 5.12062 3.57623 4.59863 3.20124 4.66763C2.97924 4.70963 2.78124 5.01862 2.81724 5.36962C2.63124 4.84162 2.09424 4.75462 1.69824 5.06962C2.04924 5.35462 2.20524 6.20362 2.49924 6.56962H7.02022C7.31422 6.20362 7.47022 5.35462 7.82122 5.06962C7.42822 4.75462 6.88822 4.84162 6.70522 5.36962C6.73522 5.01862 6.54022 4.70963 6.31522 4.66763C5.94323 4.59863 5.54423 5.12062 5.44823 5.28862C5.43323 4.82362 5.14823 4.64062 4.75823 4.64062H4.76123Z" fill="#FFD83D" stroke="black" stroke-width="1.70666" stroke-linecap="round" stroke-linejoin="round"/>
<g id="Group_4">
<path id="Vector_41" d="M7.01387 6.57141C7.01387 6.7394 6.00587 6.9224 4.76087 6.9224C3.51588 6.9224 2.50488 6.7424 2.50488 6.57141C2.50488 6.40641 3.51588 6.31641 4.76087 6.31641C6.00287 6.31641 7.01387 6.40641 7.01387 6.57141Z" fill="#000001" stroke="black" stroke-width="1.27999" stroke-linecap="round" stroke-linejoin="round"/>
<path id="Vector_42" d="M4.76125 3.53812C4.81924 3.53812 4.86625 3.49111 4.86625 3.43312C4.86625 3.37513 4.81924 3.32812 4.76125 3.32812C4.70326 3.32812 4.65625 3.37513 4.65625 3.43312C4.65625 3.49111 4.70326 3.53812 4.76125 3.53812Z" fill="#FFD83D" stroke="black" stroke-width="1.27999" stroke-linecap="round" stroke-linejoin="round"/>
<path id="Vector_43" d="M4.76139 3.77278C4.82269 3.77278 4.87239 3.72308 4.87239 3.66178C4.87239 3.60048 4.82269 3.55078 4.76139 3.55078C4.70009 3.55078 4.65039 3.60048 4.65039 3.66178C4.65039 3.72308 4.70009 3.77278 4.76139 3.77278Z" fill="#FFD83D" stroke="black" stroke-width="1.27999" stroke-linecap="round" stroke-linejoin="round"/>
<path id="Vector_44" d="M4.76167 4.03116C4.8296 4.03116 4.88467 3.97609 4.88467 3.90816C4.88467 3.84022 4.8296 3.78516 4.76167 3.78516C4.69374 3.78516 4.63867 3.84022 4.63867 3.90816C4.63867 3.97609 4.69374 4.03116 4.76167 4.03116Z" fill="#FFD83D" stroke="black" stroke-width="1.27999" stroke-linecap="round" stroke-linejoin="round"/>
<path id="Vector_45" d="M4.76112 4.32106C4.83899 4.32106 4.90212 4.25793 4.90212 4.18006C4.90212 4.10219 4.83899 4.03906 4.76112 4.03906C4.68324 4.03906 4.62012 4.10219 4.62012 4.18006C4.62012 4.25793 4.68324 4.32106 4.76112 4.32106Z" fill="#FFD83D" stroke="black" stroke-width="1.27999" stroke-linecap="round" stroke-linejoin="round"/>
<path id="Vector_46" d="M4.7614 4.63803C4.8459 4.63803 4.9144 4.56953 4.9144 4.48503C4.9144 4.40053 4.8459 4.33203 4.7614 4.33203C4.6769 4.33203 4.6084 4.40053 4.6084 4.48503C4.6084 4.56953 4.6769 4.63803 4.7614 4.63803Z" fill="#FFD83D" stroke="black" stroke-width="1.27999" stroke-linecap="round" stroke-linejoin="round"/>
<path id="Vector_47" d="M4.7013 4.77734C4.6833 4.77734 4.6683 4.79234 4.6713 4.81934L4.6893 4.94834C4.6953 4.99334 4.7193 4.97834 4.7283 4.94834C4.7343 4.91234 4.7313 4.88834 4.7343 4.82534C4.7343 4.79234 4.7163 4.77734 4.6983 4.77734H4.7013ZM4.8213 4.77734C4.8033 4.77734 4.7883 4.79234 4.7883 4.82534C4.7883 4.88834 4.7883 4.91234 4.7943 4.94534C4.8003 4.98134 4.8243 4.99334 4.8333 4.94534L4.8483 4.81934C4.8543 4.78934 4.8363 4.77734 4.8213 4.77734ZM4.5903 4.79534C4.58234 4.79534 4.57471 4.7985 4.56908 4.80413C4.56346 4.80976 4.5603 4.81739 4.5603 4.82534C4.5603 4.85534 4.5693 4.89434 4.5723 4.93934C4.5783 4.98434 4.6113 4.96934 4.6143 4.93934C4.6143 4.91534 4.6203 4.87334 4.6143 4.82234C4.6143 4.80434 4.6083 4.79534 4.5963 4.79234C4.59431 4.79209 4.59229 4.79209 4.5903 4.79234V4.79534ZM4.9233 4.79534C4.9143 4.79534 4.9053 4.80434 4.9023 4.82534C4.90069 4.86345 4.9027 4.90162 4.9083 4.93934C4.9083 4.96934 4.9443 4.98434 4.9473 4.93934C4.9473 4.89434 4.9593 4.85834 4.9593 4.82834C4.9593 4.81034 4.9443 4.79834 4.9293 4.79534C4.9273 4.79509 4.92529 4.79509 4.9233 4.79534ZM4.4613 4.84634C4.4463 4.84934 4.4313 4.86734 4.4373 4.88534C4.4463 4.92434 4.4553 4.96634 4.4553 5.00534C4.4553 5.03834 4.4823 5.02634 4.4853 5.00534C4.48764 4.96539 4.48864 4.92537 4.4883 4.88534C4.4883 4.85534 4.4733 4.84334 4.4583 4.84634H4.4613ZM5.0493 4.84634C5.0403 4.84934 5.0313 4.86134 5.0313 4.88534L5.0373 5.00534C5.0373 5.02634 5.0673 5.03834 5.0673 5.00534C5.0673 4.96634 5.0733 4.92434 5.0823 4.88534C5.0883 4.86734 5.0733 4.84934 5.0613 4.84634C5.05834 4.84558 5.05525 4.84558 5.0523 4.84634H5.0493ZM3.2793 4.85234C3.2613 4.85234 3.2493 4.87334 3.2613 4.89734C3.2793 4.93934 3.3003 4.96334 3.3183 5.00534C3.3333 5.04434 3.3603 5.02034 3.3513 4.99334L3.3093 4.88234C3.3003 4.86134 3.2883 4.85234 3.2793 4.85234ZM6.24329 4.85234C6.23129 4.85234 6.22229 4.86134 6.21329 4.88234C6.18629 4.93934 6.17729 4.96634 6.16829 4.99334C6.16229 5.02334 6.18629 5.04434 6.20429 5.00534L6.25829 4.89734C6.27029 4.87334 6.25829 4.85234 6.24329 4.85234ZM3.3993 4.85234C3.3843 4.85834 3.3783 4.87334 3.3843 4.89134C3.4023 4.92734 3.4233 4.96634 3.4383 5.00534C3.4503 5.03834 3.4803 5.02934 3.4683 4.99934L3.4383 4.88834C3.4263 4.85834 3.4083 4.84934 3.3993 4.85234ZM6.11429 4.85234C6.10229 4.85534 6.09029 4.86734 6.08429 4.88834C6.06329 4.94834 6.06029 4.96634 6.05129 4.99934C6.03929 5.02934 6.06929 5.03834 6.08129 5.00534L6.13529 4.89134C6.14129 4.87334 6.13529 4.85834 6.12329 4.85234C6.12034 4.85158 6.11724 4.85158 6.11429 4.85234ZM3.5493 4.88234C3.5313 4.88534 3.5193 4.90934 3.5313 4.93934C3.5433 4.97534 3.5613 5.00834 3.5793 5.05034C3.5973 5.09234 3.6243 5.08334 3.6183 5.05634C3.6093 5.02934 3.6033 4.98734 3.5823 4.92134C3.5733 4.89134 3.5613 4.87934 3.5493 4.88234ZM5.97329 4.88234C5.96129 4.88234 5.94629 4.89134 5.93729 4.92134C5.91929 4.98734 5.90729 5.02934 5.90429 5.05634C5.89529 5.08634 5.92529 5.09234 5.94029 5.05034C5.95829 5.00834 5.97629 4.97534 5.98829 4.93934C6.00029 4.90934 5.98829 4.88534 5.97329 4.88234ZM3.1773 4.90334C3.1593 4.90334 3.1473 4.93334 3.1563 4.95434C3.1713 4.98434 3.1833 4.99634 3.1983 5.03234C3.2163 5.06834 3.2343 5.04134 3.2283 5.01734C3.2193 4.99334 3.2103 4.96634 3.2043 4.93334C3.1983 4.90934 3.1863 4.90334 3.1743 4.90334H3.1773ZM6.34529 4.90334C6.33329 4.90334 6.32429 4.90934 6.31529 4.93334L6.29429 5.01734C6.28829 5.04134 6.30629 5.06834 6.32429 5.03234C6.33929 4.99634 6.34829 4.98734 6.36629 4.95434C6.37529 4.93334 6.36029 4.90634 6.34529 4.90334ZM4.3353 4.98734C4.3143 4.98734 4.2963 5.01134 4.3053 5.03234C4.3113 5.06834 4.3293 5.09834 4.3383 5.14334C4.3503 5.18234 4.3773 5.16434 4.3743 5.13734C4.37212 5.09704 4.36711 5.05694 4.3593 5.01734C4.3533 4.99634 4.3443 4.98734 4.3323 4.98734H4.3353ZM5.1873 4.98734C5.1783 4.98734 5.1663 4.99634 5.1633 5.01734C5.15448 5.05687 5.14847 5.09697 5.1453 5.13734C5.1453 5.16434 5.1723 5.18234 5.1813 5.14334L5.2173 5.03234C5.2233 5.01134 5.2053 4.98734 5.1873 4.98734ZM4.7613 5.02334C4.7373 5.02334 4.7343 5.05334 4.7343 5.07434C4.73246 5.14266 4.71169 5.20913 4.6743 5.26634C4.6443 5.30234 4.6053 5.29334 4.5693 5.27234C4.5344 5.25333 4.50127 5.23124 4.4703 5.20634C4.4283 5.17634 4.3983 5.19434 4.4463 5.26334C4.5843 5.46134 4.7343 5.62934 4.7343 5.95334C4.7343 5.99234 4.7433 6.00434 4.7613 6.00434C4.7793 6.00434 4.7853 5.99234 4.7853 5.95034C4.7853 5.62934 4.9353 5.46134 5.0733 5.26034C5.1213 5.19434 5.0913 5.17634 5.0523 5.20634C5.02145 5.23142 4.9883 5.25351 4.9533 5.27234C4.9143 5.29334 4.8753 5.30234 4.8483 5.26634C4.8109 5.20913 4.79013 5.14266 4.7883 5.07434C4.7853 5.05334 4.7823 5.02334 4.7583 5.02334H4.7613ZM3.7023 4.97534C3.70032 4.97501 3.69829 4.97501 3.6963 4.97534C3.6873 4.97834 3.6843 4.98734 3.6873 5.00534L3.7203 5.12234C3.7293 5.15234 3.7623 5.14334 3.7563 5.10734L3.7383 5.01434C3.7323 4.99034 3.7143 4.97534 3.7023 4.97534ZM5.82029 4.97534C5.80529 4.97534 5.79029 4.99034 5.78429 5.01434C5.77229 5.05634 5.77229 5.06834 5.76629 5.10434C5.75729 5.14334 5.79329 5.14934 5.79929 5.12234L5.83529 5.00234C5.83529 4.98734 5.83229 4.97834 5.82329 4.97534C5.82131 4.97501 5.81928 4.97501 5.81729 4.97534H5.82029ZM3.0723 4.98734C3.0543 4.98734 3.0423 5.01134 3.0603 5.04134C3.0783 5.07734 3.1113 5.11934 3.1263 5.14634C3.1413 5.17034 3.1683 5.15234 3.1503 5.12234C3.1323 5.09234 3.1263 5.05334 3.1023 5.00834C3.10032 5.00202 3.09631 4.99653 3.09088 4.99273C3.08545 4.98894 3.07892 4.98704 3.0723 4.98734ZM6.44729 4.98734C6.43829 4.98734 6.42629 4.99334 6.41729 5.00834C6.39629 5.05334 6.38729 5.08934 6.37229 5.12234C6.35429 5.15234 6.37829 5.17034 6.39329 5.14634C6.40829 5.11934 6.44129 5.07734 6.45929 5.04134C6.47729 5.01134 6.46529 4.98734 6.44729 4.98734ZM2.12131 5.08634C2.10331 5.08634 2.09731 5.12234 2.11531 5.14634C2.1386 5.17582 2.16473 5.20295 2.19331 5.22734C2.21731 5.25134 2.22331 5.22134 2.21131 5.19734L2.15731 5.11634C2.14231 5.09534 2.13031 5.08634 2.12131 5.08634ZM7.39829 5.08634C7.38929 5.08634 7.37729 5.09534 7.36529 5.11634L7.30829 5.19734C7.29629 5.22134 7.30229 5.25134 7.32929 5.22734C7.35789 5.20298 7.38402 5.17585 7.40729 5.14634C7.42529 5.12234 7.41929 5.08634 7.39829 5.08634ZM2.27431 5.11634C2.25631 5.11634 2.24431 5.12834 2.25931 5.15534L2.31631 5.26934C2.33131 5.29934 2.37631 5.30834 2.35831 5.26334L2.31931 5.14934C2.31031 5.12834 2.28931 5.11934 2.27431 5.11934V5.11634ZM7.24829 5.11634C7.23029 5.11634 7.20929 5.12834 7.20029 5.14934L7.16429 5.26334C7.14629 5.30834 7.19129 5.29934 7.20629 5.26934C7.22129 5.23934 7.24529 5.19434 7.26029 5.15534C7.27529 5.12834 7.26329 5.11634 7.24829 5.11634ZM1.98031 5.12834C1.95631 5.12834 1.95631 5.14934 1.97731 5.16434C2.00431 5.18534 2.03731 5.20634 2.06731 5.23334C2.10631 5.26334 2.11831 5.23334 2.09731 5.20934C2.07931 5.18534 2.06131 5.16134 2.01031 5.13434C1.99831 5.12834 1.98931 5.12834 1.98031 5.12834ZM7.53929 5.12834C7.53329 5.12834 7.52129 5.12834 7.50929 5.13434C7.46129 5.16134 7.44029 5.18534 7.41929 5.20934C7.40129 5.23634 7.41629 5.26334 7.45229 5.23334C7.48229 5.20634 7.51829 5.18534 7.54229 5.16434C7.56629 5.14934 7.56329 5.12834 7.54229 5.12834H7.53929ZM4.2513 5.14934C4.2363 5.14934 4.2273 5.16434 4.2303 5.18534L4.2603 5.29334C4.2663 5.32634 4.3053 5.32634 4.2993 5.29334C4.2933 5.26334 4.2903 5.22434 4.2783 5.17634C4.2753 5.15834 4.2663 5.14934 4.2543 5.14634C4.2533 5.14626 4.2523 5.14626 4.2513 5.14634V5.14934ZM5.2653 5.14934C5.2563 5.14934 5.2473 5.15834 5.2413 5.17934C5.2293 5.22434 5.2263 5.26334 5.2203 5.29634C5.2143 5.32634 5.2533 5.32634 5.2593 5.29334L5.2893 5.18534C5.2953 5.16434 5.28329 5.14934 5.2713 5.14934C5.26931 5.14901 5.26728 5.14901 5.2653 5.14934ZM3.3453 5.08934C3.3363 5.08934 3.3303 5.11034 3.3393 5.14034C3.37112 5.2268 3.38737 5.31821 3.3873 5.41034C3.3783 5.44634 3.3573 5.44934 3.3303 5.44034C3.30087 5.42582 3.27277 5.40875 3.2463 5.38934C3.2223 5.37434 3.1953 5.39234 3.2313 5.42234C3.4113 5.57234 3.5403 5.74334 3.5913 5.95034C3.5973 5.99234 3.6243 5.99834 3.6183 5.95034C3.5763 5.68934 3.5673 5.47334 3.6303 5.34134C3.6543 5.29034 3.6303 5.24234 3.5943 5.32334C3.5673 5.37734 3.5283 5.39834 3.4953 5.35334C3.4484 5.28013 3.40823 5.20281 3.3753 5.12234C3.3693 5.10134 3.3603 5.09234 3.3513 5.08934C3.35031 5.08917 3.3493 5.08917 3.3483 5.08934H3.3453ZM6.16829 5.08934C6.15929 5.08934 6.15029 5.10134 6.14429 5.11934C6.12329 5.17934 6.05729 5.30534 6.02429 5.35334C5.99129 5.40134 5.95229 5.37734 5.92829 5.32334C5.88929 5.24234 5.86829 5.29034 5.88929 5.34134C5.95229 5.47334 5.94329 5.68934 5.90429 5.95034C5.89529 5.99834 5.92229 5.99234 5.93429 5.95034C5.98978 5.73964 6.11445 5.55369 6.28829 5.42234C6.32429 5.39234 6.29729 5.37434 6.27329 5.39234C6.24667 5.40979 6.21856 5.42485 6.18929 5.43734C6.15929 5.44934 6.14129 5.44634 6.13229 5.40734C6.12629 5.37134 6.13829 5.29034 6.18329 5.13734C6.18929 5.11334 6.18329 5.09234 6.17429 5.08934C6.17235 5.08866 6.17023 5.08866 6.16829 5.08934ZM2.43331 5.16134C2.41831 5.16134 2.40331 5.17334 2.41231 5.19734C2.42431 5.23934 2.44831 5.28134 2.45731 5.30534C2.46631 5.33234 2.49331 5.32034 2.48731 5.28434L2.47231 5.19134C2.47231 5.17334 2.45131 5.16134 2.43331 5.16134ZM7.08629 5.16134C7.06829 5.16134 7.05029 5.17334 7.04729 5.19134L7.03529 5.28434C7.02929 5.32034 7.05629 5.33234 7.06529 5.30534C7.07129 5.28134 7.09529 5.23934 7.10729 5.19734C7.11629 5.17334 7.10429 5.16134 7.08629 5.16134ZM2.9973 5.11034C2.9793 5.10734 2.9763 5.15534 2.9913 5.17634L3.0753 5.26934C3.0993 5.29934 3.1143 5.27234 3.0993 5.24834L3.0213 5.13434C3.0123 5.11934 3.0033 5.11034 2.9973 5.11034ZM6.52229 5.11034C6.51629 5.11034 6.50729 5.11934 6.49829 5.13434L6.42029 5.24834C6.40529 5.27234 6.42029 5.29934 6.44729 5.26934L6.52829 5.17634C6.54329 5.15534 6.54329 5.10734 6.52229 5.11034ZM2.56231 5.23034C2.55031 5.23034 2.54131 5.23634 2.54731 5.26034C2.55331 5.29634 2.56231 5.32034 2.57131 5.35334C2.58031 5.38334 2.60131 5.38034 2.60131 5.35034L2.59231 5.25434C2.591 5.24716 2.58734 5.24061 2.58191 5.23572C2.57649 5.23083 2.56959 5.22789 2.56231 5.22734V5.23034ZM6.95729 5.23034C6.95027 5.2302 6.94342 5.23252 6.93794 5.23691C6.93246 5.24129 6.92869 5.24746 6.92729 5.25434L6.91829 5.35034C6.91829 5.38034 6.94229 5.38634 6.94829 5.35334L6.97529 5.26334C6.98129 5.23634 6.96929 5.22734 6.95729 5.22734V5.23034ZM2.9553 5.27234C2.9373 5.27234 2.9223 5.29334 2.9433 5.32034C2.9763 5.36534 3.0153 5.39534 3.0303 5.41034C3.0423 5.42834 3.0753 5.42234 3.0543 5.38934L2.9853 5.28434C2.9793 5.27234 2.9673 5.26934 2.9553 5.27234ZM6.55529 5.27234C6.54929 5.27234 6.54029 5.27534 6.53729 5.28434L6.46529 5.38934C6.44429 5.42234 6.47729 5.42834 6.49229 5.41334C6.50429 5.39534 6.54329 5.36534 6.57929 5.32034C6.60029 5.29034 6.58229 5.27234 6.56429 5.27234C6.5623 5.27212 6.56028 5.27212 6.55829 5.27234H6.55529ZM2.33431 5.39534C2.32231 5.39534 2.31631 5.40734 2.33431 5.43434C2.38064 5.49054 2.41439 5.55601 2.43331 5.62634C2.43631 5.66834 2.41831 5.66834 2.40031 5.66834C2.34331 5.66834 2.31631 5.62634 2.26831 5.61434C2.21731 5.60534 2.20831 5.62934 2.24431 5.65634C2.41626 5.76508 2.56593 5.90559 2.68531 6.07034C2.71531 6.12734 2.7543 6.14534 2.7333 6.09434C2.67502 5.97735 2.6501 5.84656 2.66131 5.71634C2.67631 5.63234 2.69731 5.57834 2.69431 5.53034C2.69431 5.48534 2.66431 5.48834 2.65531 5.53034L2.62531 5.61434C2.61331 5.62934 2.57131 5.63834 2.53531 5.58734C2.48428 5.52473 2.42809 5.46653 2.36731 5.41334C2.35831 5.40434 2.34631 5.39834 2.33731 5.39534H2.33431ZM7.18529 5.39534C7.17629 5.39534 7.16429 5.40134 7.15229 5.41334C7.09257 5.46667 7.03738 5.52487 6.98729 5.58734C6.94829 5.63834 6.90629 5.62934 6.89729 5.61734C6.88361 5.58974 6.87353 5.5605 6.86729 5.53034C6.85529 5.48834 6.82829 5.48534 6.82529 5.53034C6.82529 5.57834 6.84329 5.63234 6.85829 5.71634C6.87329 5.80034 6.85829 5.93234 6.78929 6.09434C6.76529 6.14534 6.80729 6.12434 6.83729 6.07034C6.95556 5.90568 7.10423 5.76515 7.27529 5.65634C7.31129 5.62934 7.30529 5.60534 7.25429 5.61434C7.20329 5.62634 7.17629 5.66834 7.12229 5.66834C7.10429 5.66834 7.08329 5.66834 7.08629 5.62634C7.08929 5.58734 7.14029 5.49434 7.18529 5.43434C7.20329 5.40434 7.20029 5.39534 7.18529 5.39534Z" fill="#000001"/>
<g id="Vector_48">
<path d="M2.60449 6.38397L2.66449 6.56697ZM2.72449 6.34797L2.77849 6.53397ZM2.85649 6.32397L2.89249 6.51597ZM2.97649 6.30297L3.01549 6.49197ZM3.12949 6.28797L3.15949 6.47997ZM3.29449 6.28797L3.32749 6.47697ZM3.45649 6.23397L3.48049 6.42597ZM3.60649 6.24297L3.63049 6.43497ZM3.75349 6.22497L3.77749 6.41697ZM3.89749 6.20697L3.91249 6.40197ZM4.05649 6.20697L4.06849 6.40197ZM4.20049 6.19797L4.20949 6.39297ZM4.35649 6.18897L4.36549 6.38097ZM4.53648 6.18297L4.54548 6.37797ZM6.91547 6.38397L6.85548 6.56697ZM6.79548 6.34797L6.74448 6.53397ZM6.66648 6.32397L6.63048 6.51597ZM6.54648 6.30297L6.50748 6.49197ZM6.38748 6.28797L6.35748 6.47997ZM6.22548 6.28797L6.19248 6.47997ZM6.06648 6.23397L6.04248 6.42597ZM5.91348 6.24297L5.88948 6.43497ZM5.76948 6.22497L5.74248 6.41697ZM5.62248 6.20697L5.60748 6.40197ZM5.46348 6.20697L5.45148 6.40197ZM5.32248 6.19797L5.31348 6.39297ZM5.16348 6.18897L5.15748 6.38097ZM4.98348 6.18297L4.97748 6.37797ZM4.76148 6.16797V6.38397Z" fill="#FFD83D"/>
<path d="M2.60449 6.38397L2.66449 6.56697M2.72449 6.34797L2.77849 6.53397M2.85649 6.32397L2.89249 6.51597M2.97649 6.30297L3.01549 6.49197M3.12949 6.28797L3.15949 6.47997M3.29449 6.28797L3.32749 6.47697M3.45649 6.23397L3.48049 6.42597M3.60649 6.24297L3.63049 6.43497M3.75349 6.22497L3.77749 6.41697M3.89749 6.20697L3.91249 6.40197M4.05649 6.20697L4.06849 6.40197M4.20049 6.19797L4.20949 6.39297M4.35649 6.18897L4.36549 6.38097M4.53648 6.18297L4.54548 6.37797M6.91547 6.38397L6.85548 6.56697M6.79548 6.34797L6.74448 6.53397M6.66648 6.32397L6.63048 6.51597M6.54648 6.30297L6.50748 6.49197M6.38748 6.28797L6.35748 6.47997M6.22548 6.28797L6.19248 6.47997M6.06648 6.23397L6.04248 6.42597M5.91348 6.24297L5.88948 6.43497M5.76948 6.22497L5.74248 6.41697M5.62248 6.20697L5.60748 6.40197M5.46348 6.20697L5.45148 6.40197M5.32248 6.19797L5.31348 6.39297M5.16348 6.18897L5.15748 6.38097M4.98348 6.18297L4.97748 6.37797M4.76148 6.16797V6.38397" stroke="black" stroke-width="1.27999" stroke-linecap="round" stroke-linejoin="round"/>
</g>
</g>
</g>
</g>
<defs>
<clipPath id="clip0_186_10393">
<rect width="18" height="18" fill="white"/>
</clipPath>
</defs>
</svg>
