<svg width="18" height="18" viewBox="0 0 18 18" fill="none" xmlns="http://www.w3.org/2000/svg">
<g id="lk" clip-path="url(#clip0_186_10460)">
<path id="Vector" d="M0 0H18V18H0V0Z" fill="#FFB700"/>
<path id="Vector_2" d="M0.749023 9.00117L3.21348 0.75H5.67793V17.2523H3.21699L0.749023 9.00117Z" fill="#FF5B00"/>
<path id="Vector_3" d="M0.749023 0.75H3.21348V17.2523H0.752539L0.749023 0.75Z" fill="#005641"/>
<path id="Vector_4" d="M6.42285 0.75H17.251V17.2523H6.42285V0.75Z" fill="#8D2029"/>
<path id="lk-a" d="M16.291 15.9922C16.291 15.9922 16.393 16.1996 16.5055 16.284C16.6742 16.407 17.0152 16.4 17.1594 16.5441C17.3352 16.7199 17.1453 16.9449 17.1488 16.966L17.1594 17.0855C17.1594 17.0855 17.0398 17.0855 16.9906 17.0961C16.9168 17.1066 16.8852 17.1664 16.748 17.1594C16.4 17.1348 16.4141 16.8219 16.3965 16.5547C16.3789 16.4492 16.3367 16.3191 16.3156 16.2172C16.2945 16.1293 16.291 15.9922 16.291 15.9922Z" fill="#FFB700" stroke="black" stroke-width="0.9"/>
<path id="lk-a_2" d="M7.48438 15.9922C7.48438 15.9922 7.38242 16.1996 7.26992 16.284C7.10117 16.407 6.76016 16.4 6.61602 16.5441C6.44023 16.7199 6.63008 16.9449 6.62656 16.966L6.61602 17.0855C6.61602 17.0855 6.73555 17.0855 6.78477 17.0961C6.85859 17.1066 6.89023 17.1664 7.02734 17.1594C7.37539 17.1348 7.36133 16.8219 7.37891 16.5547C7.39648 16.4492 7.43867 16.3191 7.45977 16.2172C7.48086 16.1293 7.48438 15.9922 7.48438 15.9922Z" fill="#FFB700" stroke="black" stroke-width="0.9"/>
<path id="lk-a_3" d="M16.291 2.00781C16.291 2.00781 16.393 1.80039 16.5055 1.71601C16.6742 1.59297 17.0152 1.6 17.1594 1.45586C17.3352 1.28008 17.1453 1.05508 17.1488 1.03398L17.1594 0.914453C17.1594 0.914453 17.0398 0.914453 16.9906 0.903906C16.9168 0.89336 16.8852 0.833593 16.748 0.840625C16.4 0.865234 16.4141 1.17813 16.3965 1.44531C16.3789 1.55078 16.3367 1.68086 16.3156 1.78281C16.2945 1.8707 16.291 2.00781 16.291 2.00781Z" fill="#FFB700" stroke="black" stroke-width="0.9"/>
<path id="lk-a_4" d="M7.48145 2.00781C7.48145 2.00781 7.37949 1.80039 7.26699 1.71601C7.09824 1.59297 6.75723 1.6 6.61309 1.45586C6.4373 1.28008 6.62715 1.05508 6.62363 1.03398L6.61309 0.914453C6.61309 0.914453 6.73262 0.914453 6.78184 0.903906C6.85566 0.89336 6.8873 0.833593 7.02441 0.840625C7.37246 0.865234 7.3584 1.17813 7.37598 1.44531C7.39355 1.55078 7.43574 1.68086 7.45684 1.78281C7.47793 1.8707 7.48145 2.00781 7.48145 2.00781Z" fill="#FFB700" stroke="black" stroke-width="0.9"/>
<g id="Group">
<g id="lk-b">
<path id="Vector_5" d="M10.2239 11.8079L10.2886 11.7685L10.3167 11.8079C10.3532 11.8585 10.4573 11.8557 10.5248 11.8079L10.5782 11.7657L10.6232 11.8051C10.6795 11.8585 10.7864 11.8585 10.8567 11.8051C10.9045 11.7713 10.9129 11.7685 10.9411 11.7966C10.9607 11.8135 11.017 11.8304 11.0648 11.8388C11.1548 11.8501 11.1548 11.8501 11.2054 11.7713C11.2504 11.7066 11.2561 11.6813 11.2476 11.6166C11.2398 11.5672 11.2341 11.5175 11.2307 11.4676C11.2251 11.3945 11.2279 11.3945 11.332 11.3551C11.3836 11.3392 11.4344 11.3205 11.4839 11.2988C11.5261 11.2735 11.6442 11.1357 11.6442 11.1076C11.6442 11.102 11.5992 11.0907 11.5429 11.0851C11.3179 11.057 11.2814 10.9388 11.4276 10.7195C11.6611 10.3538 11.8045 10.0023 11.8045 9.78008C11.8045 9.67883 11.8129 9.64508 11.8242 9.66758C11.8776 9.75477 11.782 10.1288 11.6414 10.3988L11.5851 10.5057L11.6386 10.4945C11.6667 10.486 11.8467 10.4101 12.0323 10.3257C12.5442 10.0951 12.7186 10.0501 13.0504 10.0641C13.3289 10.0754 13.4442 10.1288 13.6411 10.3341C13.7451 10.4466 13.8464 10.5226 14.0292 10.6379C14.4173 10.8798 14.4342 10.9023 14.4539 11.1891C14.4736 11.4788 14.4623 11.4957 14.2429 11.5435C14.0545 11.5857 13.9364 11.6729 13.9054 11.7966C13.8886 11.8585 13.9251 11.8613 14.0179 11.7995L14.0882 11.7545L14.1192 11.7995C14.1614 11.8585 14.2457 11.8585 14.3161 11.7995L14.3723 11.7573L14.4286 11.7995C14.5129 11.8698 14.6254 11.8529 14.6592 11.7657C14.6648 11.7516 14.6817 11.7545 14.7154 11.7854C14.7801 11.8416 14.9404 11.8641 14.9573 11.8191C14.9629 11.8023 14.9517 11.7629 14.9292 11.7291C14.8364 11.5885 14.8054 11.5238 14.8054 11.4479C14.8054 11.341 14.8336 11.2876 14.9573 11.2032C15.1036 11.0963 15.1486 10.9613 15.0361 10.9613C14.9686 10.9613 14.8982 10.8995 14.8532 10.801C14.7632 10.5985 14.7829 10.3735 14.9179 9.99664C15.0214 9.7749 15.0734 9.53258 15.0698 9.28789C15.0698 9.07977 15.0642 9.04602 15.0192 8.93071C14.984 8.85053 14.9406 8.77419 14.8898 8.70289L14.8111 8.59883L14.9095 8.51446C15.2132 8.26414 15.1514 7.85352 14.7857 7.69602C14.6732 7.64539 14.6451 7.64258 14.4482 7.64258C14.3357 7.64258 14.1529 7.65946 14.0545 7.67914C13.9224 7.70005 13.7889 7.71133 13.6551 7.71289C13.4639 7.71289 13.4301 7.70727 13.357 7.66789C13.2811 7.62852 13.267 7.60883 13.2529 7.51321C13.2516 7.50419 13.2481 7.49565 13.2427 7.4883C13.2373 7.48095 13.2302 7.47502 13.222 7.47102C13.1939 7.46258 13.0757 7.56664 13.0589 7.61164C13.0476 7.63696 13.042 7.63414 13.0167 7.60321C12.9928 7.57256 12.9738 7.5384 12.9604 7.50196C12.9323 7.40914 12.9689 7.34164 13.0786 7.28821L13.1629 7.24883L13.1123 7.21789C13.0111 7.15321 12.8367 7.19821 12.7748 7.30227C12.7551 7.33039 12.7354 7.35852 12.7298 7.35852C12.7242 7.35852 12.6904 7.33039 12.6567 7.29383C12.5245 7.16446 12.5695 6.97321 12.7467 6.91696C12.8395 6.88602 12.9239 6.90852 12.9407 6.97321C12.9689 7.06602 13.0476 6.94227 13.0336 6.82696C13.0251 6.75102 13.0251 6.74821 13.0786 6.74821C13.1517 6.74821 13.3036 6.84383 13.3542 6.91696C13.4104 7.00414 13.4048 7.14196 13.3429 7.24321L13.2951 7.32196L13.3598 7.31071C13.4498 7.29102 13.5398 7.23477 13.5848 7.16446C13.6085 7.11967 13.6218 7.07013 13.6238 7.01949C13.6257 6.96885 13.6163 6.91843 13.5961 6.87196C13.5539 6.79602 13.5595 6.78477 13.6214 6.81008C13.7226 6.85227 13.7789 6.90008 13.8182 6.98164C13.8576 7.05477 13.8604 7.07164 13.8407 7.15039C13.8273 7.19834 13.8064 7.24389 13.7789 7.28539C13.7451 7.33039 13.7423 7.33883 13.7704 7.33883C13.8211 7.33883 13.9223 7.29102 13.9589 7.25446C13.9786 7.23196 14.0067 7.18414 14.0207 7.14196L14.0489 7.07164L14.077 7.12789C14.1192 7.20383 14.2036 7.27414 14.3048 7.31914C14.4145 7.36414 14.4595 7.36696 14.4032 7.32477C14.3639 7.29664 14.2907 7.08571 14.3161 7.06602C14.4374 7.13399 14.5483 7.21926 14.6451 7.31914C14.8054 7.46258 14.9067 7.51039 15.0529 7.51039C15.2414 7.51039 15.3511 7.34727 15.2667 7.19258C15.2189 7.10258 15.1092 7.08852 15.0417 7.16446C15.0136 7.20102 15.0051 7.22914 15.0136 7.26852C15.0248 7.31352 15.022 7.31914 14.9798 7.31914C14.9236 7.31914 14.8167 7.24883 14.6254 7.08852C14.3592 6.85942 14.0532 6.68115 13.7226 6.56258C13.4987 6.51081 13.2674 6.49844 13.0392 6.52602C12.8592 6.55977 12.6454 6.66383 12.5273 6.77352C12.322 6.97039 12.3192 7.23196 12.5189 7.47102L12.5751 7.53852L12.5386 7.60039C12.5111 7.64471 12.4974 7.69624 12.4994 7.74836C12.5014 7.80049 12.519 7.85082 12.5498 7.89289C12.5779 7.93227 12.6061 7.96321 12.6145 7.96321C12.6201 7.96321 12.6257 7.93789 12.6286 7.90696C12.6342 7.83102 12.6679 7.78039 12.7242 7.76071C12.7748 7.74102 12.8086 7.75227 13.0392 7.84508C13.2839 7.94071 13.6861 7.94633 14.1136 7.86196C14.2988 7.81916 14.4917 7.82109 14.6761 7.86758C14.8786 7.95196 14.9236 8.16852 14.7773 8.33164C14.7126 8.40477 14.6536 8.43289 14.4482 8.48914C14.2695 8.53628 14.0837 8.55058 13.8998 8.53133C13.5961 8.52852 13.4864 8.53414 13.3654 8.55946C13.2276 8.58758 13.1461 8.59039 12.7523 8.58196L12.2939 8.57071L12.3445 8.61008C12.3716 8.63416 12.4008 8.6558 12.4317 8.67477C12.4682 8.69446 12.4654 8.69727 12.4148 8.71696C12.3867 8.72821 12.3192 8.73664 12.2657 8.73664H12.1729L12.1617 8.81539C12.1541 8.85251 12.1541 8.89078 12.1617 8.92789C12.1729 8.95602 12.1673 8.96164 12.1392 8.95039C12.1195 8.94196 12.0661 8.92789 12.0182 8.91946C11.97 8.90911 11.9229 8.89404 11.8776 8.87446C11.8242 8.84633 11.8186 8.84633 11.7989 8.88289C11.782 8.91102 11.6245 9.02914 11.602 9.02914C11.5918 8.95618 11.571 8.8851 11.5401 8.81821C11.512 8.75914 11.4867 8.69164 11.4782 8.67196C11.4698 8.64102 11.4642 8.63821 11.4501 8.66352C11.4417 8.67758 11.4304 8.71977 11.422 8.75352C11.4121 8.79907 11.395 8.84275 11.3714 8.88289L11.3292 8.94477L11.3011 8.89133C11.2729 8.83508 11.2279 8.77321 11.2111 8.77321C11.2054 8.77321 11.197 8.79008 11.1914 8.81539C11.1773 8.86039 11.0676 8.99258 11.0395 8.99258C11.0311 8.99258 11.0226 8.95602 11.0226 8.90821C11.0226 8.86602 11.0142 8.82664 11.0029 8.82664C10.9917 8.82664 10.9832 8.84071 10.9832 8.85477C10.9832 8.88852 10.8904 8.99539 10.8567 8.99539C10.8454 8.99539 10.8229 9.00664 10.8089 9.02352C10.7751 9.06008 10.747 9.05446 10.7611 9.01227C10.765 8.97625 10.7612 8.9398 10.7498 8.90539L10.7217 8.81539C10.7161 8.80133 10.6823 8.80696 10.6092 8.82946C10.4967 8.86602 10.4573 8.85758 10.5164 8.81258C10.5389 8.79571 10.5726 8.73664 10.5895 8.68321C10.6092 8.62696 10.6373 8.57914 10.6514 8.57352C10.6711 8.56789 10.6711 8.57352 10.6457 8.60727C10.6295 8.62866 10.6188 8.65381 10.6148 8.68039C10.6148 8.69446 10.6007 8.73102 10.5867 8.76196C10.5698 8.79008 10.5586 8.81821 10.5614 8.82102C10.5642 8.82383 10.6092 8.80696 10.6598 8.78446L10.7498 8.73946V8.77883C10.7498 8.80133 10.7611 8.85758 10.7751 8.90539L10.8004 8.98977L10.8623 8.96164C10.9242 8.93352 10.9832 8.83227 10.9832 8.75071C10.9832 8.71133 11.0057 8.71696 11.017 8.75914C11.017 8.77039 11.0339 8.81821 11.0451 8.86321L11.0732 8.94196L11.1154 8.89133C11.1407 8.86321 11.1689 8.80696 11.1801 8.77039C11.2026 8.70289 11.2364 8.67196 11.2364 8.72258C11.2364 8.75633 11.332 8.88571 11.3489 8.87446C11.3601 8.86883 11.377 8.82102 11.3911 8.76758C11.4192 8.65508 11.4614 8.58196 11.4895 8.59883C11.5007 8.60446 11.5036 8.61571 11.4979 8.62696C11.4923 8.63258 11.5148 8.70571 11.5486 8.78446C11.573 8.84349 11.5974 8.90255 11.6217 8.96164C11.6329 8.98977 11.6442 8.98977 11.7145 8.92508C11.7567 8.88571 11.7989 8.84352 11.8017 8.82946C11.8101 8.80696 11.8186 8.80977 11.8579 8.83508C11.9408 8.87889 12.0317 8.90566 12.1251 8.91383C12.1307 8.90821 12.1364 8.85758 12.1364 8.80133L12.1392 8.69727L12.1954 8.70852C12.2236 8.71696 12.2882 8.71696 12.3361 8.70852L12.4204 8.69727L12.3445 8.64102C12.3023 8.61289 12.2601 8.57633 12.2489 8.55946C12.2404 8.54258 12.2011 8.52571 12.1589 8.52289C12.0436 8.51164 11.8382 8.39914 11.8382 8.34289C11.8382 8.33164 11.8664 8.35133 11.9001 8.38227C11.9789 8.45258 12.0857 8.49477 12.1814 8.49477H12.2489L12.2067 8.43852C12.1766 8.39491 12.1573 8.34478 12.1504 8.29227C12.1448 8.20789 12.1364 8.19664 12.0492 8.13758C11.9986 8.10176 11.9515 8.06127 11.9086 8.01664L11.8607 7.96321L11.8354 8.02789C11.8214 8.06446 11.8073 8.09258 11.7989 8.09258C11.7932 8.09258 11.7651 8.07008 11.7426 8.04477C11.7268 8.02644 11.7077 8.01118 11.6864 7.99977C11.6779 7.99977 11.6582 8.03352 11.6357 8.07571L11.5964 8.15164L11.5682 8.10946C11.5432 8.07497 11.515 8.04295 11.4839 8.01383C11.4501 7.98571 11.4361 7.96321 11.4473 7.96321C11.4586 7.96321 11.4951 7.99133 11.5317 8.02789L11.5936 8.09258L11.6217 8.04477C11.6379 8.01164 11.6429 7.9741 11.6357 7.93789C11.6245 7.88727 11.6273 7.88446 11.6442 7.91821C11.6684 7.94995 11.6968 7.97833 11.7286 8.00258L11.7904 8.05321L11.8326 7.97727C11.8748 7.89852 11.8748 7.89852 11.8917 7.94633C11.9198 8.00539 12.1026 8.15727 12.2573 8.24446C12.2854 8.25852 12.2742 8.21352 12.2292 8.10383C12.2157 8.06779 12.2081 8.0298 12.2067 7.99133C12.2067 7.94071 12.1926 7.91821 12.1279 7.86758C12.0877 7.84187 12.0541 7.80712 12.0296 7.7661C12.0052 7.72509 11.9907 7.67894 11.9873 7.63133C11.9789 7.58352 11.962 7.53289 11.9479 7.51602C11.9311 7.48789 11.9254 7.50477 11.9311 7.58914C11.9367 7.64821 11.9282 7.72133 11.9142 7.75227L11.8917 7.80852L11.8748 7.76071C11.8636 7.73539 11.8186 7.69039 11.7764 7.66227C11.7342 7.63414 11.7032 7.60602 11.7089 7.60039C11.7145 7.59477 11.7595 7.62008 11.8073 7.65664C11.8832 7.71571 11.8973 7.72133 11.9086 7.69602C11.9198 7.66789 11.9086 7.53852 11.8861 7.44852C11.8748 7.40352 11.8748 7.40352 11.9311 7.45977C11.9704 7.49914 11.9929 7.54977 12.0126 7.63414C12.0351 7.74102 12.0464 7.76071 12.1448 7.84789C12.2039 7.90133 12.2573 7.94071 12.2601 7.93789C12.2657 7.93227 12.2714 7.79727 12.277 7.63414C12.2882 7.32196 12.277 7.24602 12.2011 7.15039L12.1617 7.09977L12.2236 7.03508C12.2929 6.96878 12.3392 6.88206 12.3557 6.78758L12.367 6.71164L12.2995 6.77633C12.2432 6.82977 12.2151 6.84102 12.1504 6.84102C12.0857 6.84102 12.0604 6.82977 12.0182 6.78477C11.9525 6.72151 11.8724 6.67518 11.7848 6.64977C11.7511 6.63852 11.7398 6.64414 11.7398 6.66664C11.7398 6.68352 11.7229 6.72852 11.7004 6.77071L11.6611 6.84383L11.5767 6.75946C11.5232 6.71164 11.4642 6.66946 11.4164 6.65821C11.3011 6.63008 11.2954 6.63008 11.2954 6.71727C11.2954 6.84946 11.2392 6.87477 11.1379 6.78758C11.0592 6.72008 10.9973 6.70321 10.8482 6.72289L10.7357 6.73414L10.7554 6.78477C10.7723 6.82696 10.7695 6.84664 10.7329 6.89446C10.6739 6.97321 10.5979 7.00696 10.4798 7.00696C10.4236 7.00696 10.3561 7.01821 10.3279 7.03227C10.2998 7.04633 10.2267 7.06039 10.1676 7.06602C10.1114 7.07164 10.0467 7.08289 10.027 7.08852C9.99887 7.09977 9.99887 7.08852 10.0073 7.02664C10.0214 6.93102 9.95105 6.85789 9.84699 6.85789C9.70918 6.85789 9.6473 6.98164 9.70074 7.14477C9.71168 7.17996 9.72107 7.21562 9.72887 7.25164C9.76581 7.32197 9.81538 7.3849 9.87512 7.43727C9.94824 7.51039 10.0157 7.58633 10.027 7.60602C10.0496 7.63535 10.0784 7.65935 10.1114 7.67633L10.1732 7.71008L10.1648 7.64258C10.1564 7.56946 10.1704 7.55821 10.2098 7.61164C10.2239 7.62852 10.2604 7.65946 10.2886 7.67633C10.3364 7.70446 10.3448 7.70446 10.3448 7.68196C10.3448 7.66508 10.3532 7.62852 10.3645 7.60039L10.3842 7.54977L10.4207 7.62008C10.4404 7.65946 10.5051 7.74664 10.5642 7.81696C10.6795 7.94914 10.7526 8.09821 10.7161 8.13196C10.6992 8.14602 10.6598 8.14602 10.5754 8.12914C10.5136 8.11789 10.4348 8.10946 10.4011 8.11508C10.3364 8.12352 10.3307 8.11508 10.3729 8.06446C10.4151 8.00821 10.4067 7.99977 10.3223 7.99977C10.2239 7.99977 9.97918 7.95196 9.88355 7.91539C9.79355 7.87883 9.77105 7.88727 9.74293 7.97446L9.69512 8.13196L9.66699 8.21633L9.76824 8.20789C9.82044 8.20243 9.87215 8.19303 9.92293 8.17977C9.94285 8.17313 9.96383 8.17027 9.9848 8.17133C9.99043 8.17414 9.97637 8.20789 9.95668 8.24727L9.9173 8.31477L9.97918 8.30352C10.0129 8.29508 10.0636 8.27821 10.0917 8.26414C10.1423 8.24164 10.1479 8.24164 10.1873 8.30633C10.2351 8.38227 10.2717 8.37946 10.2801 8.29789C10.2886 8.21352 10.3167 8.22477 10.3701 8.33727C10.4207 8.44414 10.4714 8.48352 10.4826 8.42164C10.4854 8.39914 10.5107 8.36539 10.5417 8.34289C10.6036 8.30071 10.6486 8.31477 10.6739 8.37946C10.702 8.44977 10.6401 8.52008 10.4657 8.62696C10.3043 8.71612 10.1653 8.84103 10.0595 8.99215C9.95374 9.14327 9.88393 9.31658 9.85543 9.49883C9.80199 9.83071 9.96793 10.1738 10.2942 10.4241C10.4517 10.5423 10.702 10.666 10.6851 10.621C10.6176 10.4157 10.6204 10.0304 10.6879 9.96571C10.6992 9.95446 10.6964 9.99383 10.6795 10.0529C10.6232 10.2751 10.6514 10.4495 10.792 10.8601C10.9157 11.2313 10.8989 11.3916 10.7189 11.4957C10.6626 11.5295 10.6261 11.5351 10.4714 11.5323C10.3026 11.5323 10.2829 11.5323 10.2295 11.5773C10.1649 11.6433 10.1226 11.7279 10.1086 11.8191C10.1086 11.8557 10.1479 11.8501 10.2211 11.8079H10.2239Z" fill="#FFB700" stroke="black" stroke-width="4.48"/>
<path id="Vector_6" d="M12.9518 11.7983L13.0221 11.7533L13.0699 11.7983C13.1318 11.8574 13.2077 11.8546 13.2668 11.7955C13.2949 11.7674 13.3174 11.7505 13.3202 11.7533L13.3455 11.7983C13.3596 11.8236 13.3905 11.8349 13.4468 11.8405C13.5114 11.8433 13.5311 11.8405 13.5593 11.8011L13.5874 11.7533L13.6577 11.7983C13.8489 11.9221 13.9502 11.7927 13.863 11.5368C13.8208 11.4074 13.8461 11.3343 13.9839 11.1711C14.043 11.1008 14.0908 11.0249 14.0908 11.0024C14.0908 10.9714 14.0796 10.9658 14.0008 10.9686C13.9277 10.9686 13.9052 10.9602 13.8658 10.918C13.8011 10.8477 13.8068 10.7661 13.8771 10.6761L13.9333 10.6058L13.8321 10.5383C13.7512 10.4786 13.6759 10.4118 13.6071 10.3386C13.5457 10.2662 13.4706 10.2065 13.3862 10.1631C13.3017 10.1197 13.2095 10.0933 13.1149 10.0855L12.9827 10.0714V10.1727C12.9827 10.2993 13.0446 10.423 13.2077 10.6311C13.3933 10.8674 13.4046 10.9039 13.413 11.2133L13.4214 11.4749L13.3652 11.5255C13.3174 11.5705 13.2977 11.5789 13.1402 11.5874C12.9911 11.5958 12.9574 11.6043 12.9152 11.6436C12.8658 11.6796 12.8317 11.7328 12.8196 11.7927C12.8111 11.8349 12.8139 11.8433 12.8449 11.8433C12.8646 11.8433 12.9124 11.8236 12.9518 11.7983ZM8.95238 11.1233C8.96939 11.0983 8.97913 11.0691 8.98051 11.0389C8.98051 11.0108 8.99738 10.9996 9.07051 10.9883L9.15769 10.9771L9.10144 10.9293C9.03113 10.873 9.02269 10.8308 9.08457 10.8308C9.14644 10.8308 9.24769 10.7689 9.26457 10.7211C9.27301 10.6986 9.26457 10.6705 9.25332 10.6564C9.21957 10.6171 9.15488 10.6227 9.14363 10.6677C9.12957 10.7127 9.10988 10.7127 9.05926 10.6677C8.98894 10.5974 8.98613 10.4539 9.05926 10.3696C9.09019 10.3302 9.09019 10.3302 9.04801 10.288C9.00301 10.243 8.96926 10.1586 8.99176 10.1361C8.99738 10.1305 9.03394 10.1361 9.07051 10.1502C9.12676 10.1671 9.14644 10.1671 9.16894 10.1502C9.23363 10.0968 9.16332 10.0293 9.05644 10.0461C9.01144 10.0518 8.99457 10.0461 8.98894 10.0236C8.98332 10.0068 8.94676 9.98425 8.90457 9.973C8.82863 9.95331 8.82863 9.95331 8.82863 10.0068C8.82863 10.063 8.79488 10.0743 8.73301 10.0377C8.68238 10.0096 8.63457 10.0321 8.63457 10.0855C8.63457 10.1361 8.68238 10.1586 8.77519 10.153C8.84269 10.1502 8.84551 10.2008 8.78082 10.2739L8.73301 10.3302L8.76957 10.3836C8.82582 10.4624 8.82019 10.5946 8.76113 10.6621L8.71332 10.7127L8.68238 10.6705C8.63738 10.6143 8.57832 10.6171 8.56144 10.6789C8.55301 10.7183 8.56144 10.7352 8.61207 10.7802C8.64582 10.8083 8.69644 10.8308 8.72176 10.8308C8.78644 10.8308 8.78363 10.8843 8.71613 10.9349L8.65988 10.9771L8.74426 10.9883C8.78926 10.9968 8.82863 11.008 8.82863 11.0164C8.82863 11.053 8.88488 11.1627 8.90176 11.1627C8.91301 11.1627 8.93551 11.143 8.95238 11.1205V11.1233Z" fill="#FFB700" stroke="black" stroke-width="4.48"/>
<path id="Vector_7" d="M10.0267 10.6592C10.1027 10.6311 10.2658 10.4905 10.2658 10.4595C10.2658 10.4483 10.2208 10.3977 10.1645 10.347C10.052 10.2458 9.92547 10.0686 9.89172 9.96734C9.87484 9.91109 9.79328 9.82109 9.56266 9.59609L9.25609 9.30078L9.16891 9.32328C9.11828 9.33453 9.05922 9.34578 9.03672 9.34578C8.99453 9.34578 8.99453 9.34578 9.05078 9.39078L9.10703 9.43578L9.19141 9.39078C9.26734 9.34578 9.27016 9.34578 9.27859 9.38234C9.28422 9.40203 9.27297 9.43859 9.25047 9.46391C9.23078 9.48922 9.21953 9.52016 9.22234 9.52859C9.23078 9.53703 9.21109 9.55672 9.18016 9.57359C9.12391 9.60172 9.08172 9.69453 9.12672 9.69453C9.16891 9.69453 9.25891 9.58203 9.24766 9.54547C9.24203 9.52578 9.24766 9.50609 9.25328 9.50047C9.28984 9.48078 9.28703 9.56797 9.25328 9.61297C9.23078 9.63547 9.21953 9.66359 9.22516 9.67484C9.23078 9.68328 9.21109 9.70297 9.18016 9.71984C9.12391 9.74797 9.08172 9.84078 9.12672 9.84078C9.17172 9.84078 9.25891 9.73391 9.25047 9.69453C9.24484 9.67484 9.24484 9.65234 9.25328 9.64672C9.27859 9.63547 9.28984 9.70297 9.27016 9.73672C9.26499 9.74621 9.26228 9.75685 9.26228 9.76766C9.26228 9.77847 9.26499 9.7891 9.27016 9.79859C9.28984 9.83516 9.27016 9.90266 9.23359 9.92516C9.21953 9.93359 9.22797 9.95328 9.26734 9.98141C9.32359 10.0208 9.32359 10.0264 9.32359 10.2064C9.32359 10.3583 9.32922 10.3977 9.35734 10.423C9.38547 10.4511 9.39109 10.4511 9.39109 10.423C9.39109 10.3948 9.44734 10.3555 9.48953 10.3555C9.50359 10.3555 9.58516 10.4258 9.67234 10.5102C9.75953 10.5945 9.85234 10.6705 9.87766 10.6733L9.93953 10.6845C9.94797 10.6845 9.98734 10.6761 10.0267 10.6564V10.6592ZM9.09016 9.92516C9.09016 9.87734 8.98891 9.82391 8.86797 9.81266C8.76953 9.79859 8.76953 9.80141 8.76953 9.84922C8.76953 9.88859 8.78359 9.90547 8.85391 9.93359C8.96078 9.98141 9.09016 9.97578 9.09016 9.92516Z" fill="#FFB700" stroke="black" stroke-width="4.48"/>
<path id="Vector_8" d="M9.1999 9.91906C9.25052 9.87406 9.27302 9.82344 9.24208 9.82344C9.20833 9.82344 9.11833 9.90219 9.11833 9.93594C9.11833 9.98094 9.13521 9.97812 9.20271 9.91906H9.1999ZM9.09583 9.77562C9.09865 9.7475 9.08177 9.73062 9.03115 9.70531C8.91865 9.6575 8.78927 9.63219 8.75833 9.6575C8.69927 9.70531 8.73865 9.76719 8.83146 9.77844C8.87083 9.78125 8.92146 9.7925 8.94677 9.80375C9.0199 9.83187 9.0874 9.81781 9.09583 9.77562ZM9.09583 9.62656C9.10146 9.59 9.07615 9.57594 8.87083 9.50281C8.71615 9.44656 8.64865 9.47469 8.69927 9.5675C8.71615 9.59844 8.74427 9.6125 8.80896 9.62375C8.85677 9.62937 8.92146 9.64344 8.9524 9.65469C9.03677 9.68281 9.0874 9.67156 9.09302 9.62656H9.09583ZM9.19708 9.48875C9.22802 9.45781 9.25333 9.42125 9.25333 9.40437C9.25333 9.36219 9.1324 9.44094 9.11552 9.49719C9.09865 9.56187 9.12958 9.55906 9.1999 9.48875H9.19708ZM9.09583 9.48031C9.10146 9.43531 9.02833 9.39594 8.88208 9.365C8.7724 9.33969 8.72458 9.35375 8.73302 9.40437C8.73865 9.4325 8.77521 9.45219 8.87365 9.48312C9.03958 9.53375 9.0874 9.53375 9.09583 9.48031ZM9.23646 9.27219C9.42771 9.18781 9.44177 8.97687 9.26458 8.92062C9.19146 8.89812 9.14646 8.91219 9.11833 8.96C9.09583 8.99937 9.1099 9.06687 9.13802 9.06687C9.14927 9.06687 9.15771 9.08094 9.15771 9.095C9.15771 9.17094 8.87083 9.20187 8.75271 9.14281C8.71052 9.12312 8.69646 9.06687 8.7274 9.06687C8.75552 9.06687 8.7724 9.01062 8.75833 8.97406C8.74146 8.91781 8.68521 8.90094 8.60927 8.92344C8.43208 8.96844 8.43771 9.17656 8.61771 9.26094C8.81685 9.33403 9.03479 9.33799 9.23646 9.27219Z" fill="#FFB700" stroke="black" stroke-width="4.48"/>
<path id="Vector_9" d="M9.12141 9.10797C9.13266 9.09672 9.12703 9.07984 9.11016 9.06859C9.07078 9.03766 9.07359 8.98984 9.11578 8.93641C9.14953 8.89703 9.15234 8.83516 9.16359 8.23047C9.18328 7.18703 9.26203 6.40234 9.36328 6.21109C9.40547 6.13797 9.39984 6.13797 9.29297 6.21109C9.15276 6.30878 9.03956 6.44037 8.96391 6.59359C8.78953 6.91703 8.73047 7.35297 8.73047 8.28672C8.73047 8.81547 8.73328 8.88578 8.76422 8.93359C8.79234 8.98422 8.79234 9.00109 8.77547 9.05172C8.76141 9.08266 8.75578 9.11641 8.76141 9.12203C8.80078 9.15859 9.08203 9.15016 9.12141 9.10797ZM10.6992 8.11234C10.7077 8.10391 10.6936 8.05609 10.6711 8.01109C10.6373 7.93797 10.6233 7.92672 10.5755 7.92672C10.3506 7.90717 10.1313 7.84614 9.92859 7.74672C9.78516 7.68203 9.73172 7.66797 9.71766 7.68484C9.67266 7.72703 9.74578 7.82547 9.85828 7.87891C10.0238 7.93857 10.1972 7.97363 10.373 7.98297C10.4489 7.98297 10.4517 7.98297 10.4067 8.04766L10.3786 8.09266H10.463L10.6036 8.10953C10.688 8.12922 10.688 8.12922 10.6992 8.11234Z" fill="#FFB700" stroke="black" stroke-width="4.48"/>
<path id="Vector_10" d="M11.5878 8.58244C11.5878 8.55432 11.5062 8.484 11.4274 8.43619C11.3628 8.39963 11.3515 8.39682 11.3515 8.42775C11.3515 8.47275 11.3121 8.58807 11.2953 8.58807C11.2868 8.58807 11.2728 8.56557 11.2671 8.54025C11.2587 8.51213 11.2278 8.45588 11.1968 8.41932L11.1406 8.349L11.1012 8.41369C11.0618 8.47557 10.9915 8.53463 10.9606 8.53463C10.9549 8.53463 10.9521 8.50088 10.9606 8.46432C10.9634 8.41932 10.9606 8.38557 10.9465 8.37994C10.9353 8.3715 10.924 8.37432 10.924 8.38557C10.924 8.40807 10.8284 8.51494 10.8115 8.51494C10.8003 8.51494 10.789 8.48682 10.7834 8.44744L10.7609 8.31244C10.7553 8.27869 10.7693 8.30119 10.789 8.36869L10.834 8.484L10.879 8.41369C10.8994 8.38463 10.9146 8.35229 10.924 8.31807C10.924 8.304 10.9324 8.29838 10.9437 8.304C10.9549 8.30963 10.969 8.35744 10.9746 8.40807L10.9887 8.50369L11.0393 8.44744C11.0658 8.41923 11.0903 8.38915 11.1124 8.35744C11.1321 8.32369 11.1349 8.32369 11.1771 8.35744C11.1996 8.37994 11.2362 8.42775 11.2587 8.46713C11.2812 8.5065 11.3009 8.53463 11.3037 8.53182L11.3206 8.44182L11.3318 8.35744C11.3346 8.34338 11.4837 8.44182 11.5399 8.48963C11.5737 8.52057 11.6074 8.54307 11.6131 8.53744C11.6187 8.53182 11.6243 8.48682 11.6243 8.43338C11.6243 8.35463 11.6159 8.33213 11.5681 8.28994C11.5118 8.23932 11.5118 8.23932 11.4893 8.27588C11.4612 8.32369 11.4303 8.32369 11.4303 8.27588C11.4303 8.24213 11.3234 8.10994 11.2981 8.10994C11.2896 8.10994 11.2671 8.13807 11.2474 8.17463C11.2278 8.21119 11.2053 8.23932 11.1996 8.23932C11.1715 8.23932 11.0224 8.07057 11.0224 8.04244C11.0224 8.01994 11.0337 8.02557 11.059 8.06494C11.0841 8.10188 11.1134 8.13585 11.1462 8.16619C11.2024 8.21682 11.2249 8.20557 11.2474 8.10713C11.2559 8.079 11.2671 8.0565 11.2756 8.0565C11.2981 8.0565 11.4274 8.19432 11.4443 8.23932L11.464 8.28432L11.4781 8.23369C11.4949 8.17182 11.5146 8.17182 11.5428 8.22807C11.554 8.25057 11.6103 8.30119 11.6665 8.33494L11.7706 8.40244L11.7903 8.33494C11.8015 8.29838 11.8184 8.27869 11.824 8.28994C11.8353 8.304 11.8071 8.4165 11.7874 8.439C11.7874 8.44182 11.7509 8.42213 11.7143 8.39682L11.644 8.34619V8.43619C11.644 8.484 11.6384 8.54307 11.6328 8.56557C11.6187 8.61057 11.5849 8.62182 11.5849 8.58244H11.5878ZM11.0674 7.86807C10.9437 7.76682 10.9268 7.74432 10.9268 7.69369L10.9296 7.64307L10.9381 7.69088C10.9437 7.719 10.9774 7.764 11.0168 7.79775L11.0899 7.854L11.1321 7.80338C11.1574 7.77525 11.1771 7.7415 11.1771 7.73025C11.1771 7.6965 11.1828 7.69932 11.2671 7.77244C11.3403 7.83713 11.3431 7.83713 11.3515 7.79494C11.3599 7.77244 11.3571 7.72744 11.3515 7.6965C11.3234 7.61213 11.329 7.60088 11.3656 7.6515L11.4331 7.73025C11.4612 7.76119 11.464 7.76119 11.4753 7.72182C11.4837 7.6965 11.4893 7.65432 11.4893 7.62619V7.57275L11.554 7.64869C11.6187 7.72182 11.6243 7.72463 11.6412 7.68807C11.6553 7.66838 11.6637 7.62057 11.6637 7.584C11.6637 7.53338 11.6693 7.52213 11.6806 7.539C11.7031 7.57275 11.689 7.65713 11.6496 7.73025L11.6215 7.7865L11.5849 7.72744C11.5371 7.65432 11.5203 7.65432 11.4921 7.73307C11.464 7.809 11.4443 7.81463 11.4162 7.75557C11.3993 7.719 11.3937 7.72463 11.3824 7.80338L11.3684 7.88775L11.284 7.82307L11.1996 7.75838L11.1574 7.80057C11.1378 7.82588 11.1209 7.85682 11.1209 7.86807C11.1209 7.89619 11.0984 7.89619 11.0674 7.86807ZM12.1643 7.48557C12.1221 7.44619 12.0912 7.40682 12.0968 7.40119C12.1053 7.39275 12.1109 7.38994 12.1137 7.39557C12.1409 7.42457 12.1691 7.45271 12.1981 7.47994C12.2937 7.58119 12.274 7.584 12.1671 7.48557H12.1643ZM10.7018 7.33369C10.6624 7.27744 10.6653 7.24369 10.7159 7.18182C10.7496 7.13963 10.7665 7.134 10.8284 7.14244C10.8706 7.14525 10.9578 7.18182 11.0224 7.22119C11.1159 7.27704 11.2229 7.30622 11.3318 7.30557L11.284 7.22682C11.2221 7.134 11.2221 7.12275 11.2953 7.179C11.3684 7.23807 11.4556 7.25494 11.6524 7.24932L11.7481 7.2465L11.6918 7.19025C11.6159 7.11432 11.6384 7.10588 11.7256 7.18182C11.8043 7.25213 11.8015 7.25775 11.6299 7.27463C11.5584 7.28185 11.4862 7.2771 11.4162 7.26057C11.3206 7.23244 11.3149 7.23525 11.3346 7.26619C11.3459 7.28588 11.3628 7.29994 11.3712 7.29994C11.3824 7.29994 11.3909 7.31119 11.3909 7.32244C11.3909 7.359 11.1828 7.32525 11.0815 7.27744C10.8565 7.16213 10.8284 7.15088 10.7721 7.16775C10.7572 7.17352 10.7435 7.1822 10.7319 7.19331C10.7203 7.20442 10.711 7.21772 10.7046 7.23244C10.6681 7.32525 10.8003 7.39838 10.8537 7.31682C10.8706 7.2915 10.8678 7.27744 10.8396 7.2465C10.8003 7.20713 10.8059 7.2015 10.8565 7.21838C10.8931 7.23244 10.8959 7.31963 10.8621 7.35338C10.8256 7.38994 10.7356 7.3815 10.7018 7.33369Z" fill="#000001" stroke="black" stroke-width="4.48"/>
<path id="Vector_11" d="M11.5987 7.10423C11.5705 7.0761 11.593 7.07048 11.7196 7.06767C11.8771 7.06485 11.9727 7.03954 12.0852 6.96642C12.1752 6.91017 12.2005 6.92142 12.1133 6.98048C12.0374 7.03673 11.9165 7.0761 11.7955 7.08735L11.6521 7.10704C11.6296 7.11267 11.6043 7.10985 11.5958 7.10423H11.5987Z" fill="#000001" stroke="black" stroke-width="4.48"/>
</g>
<g id="lk-b_2">
<path id="Vector_12" d="M10.2239 11.8079L10.2886 11.7685L10.3167 11.8079C10.3532 11.8585 10.4573 11.8557 10.5248 11.8079L10.5782 11.7657L10.6232 11.8051C10.6795 11.8585 10.7864 11.8585 10.8567 11.8051C10.9045 11.7713 10.9129 11.7685 10.9411 11.7966C10.9607 11.8135 11.017 11.8304 11.0648 11.8388C11.1548 11.8501 11.1548 11.8501 11.2054 11.7713C11.2504 11.7066 11.2561 11.6813 11.2476 11.6166C11.2398 11.5672 11.2341 11.5175 11.2307 11.4676C11.2251 11.3945 11.2279 11.3945 11.332 11.3551C11.3836 11.3392 11.4344 11.3205 11.4839 11.2988C11.5261 11.2735 11.6442 11.1357 11.6442 11.1076C11.6442 11.102 11.5992 11.0907 11.5429 11.0851C11.3179 11.057 11.2814 10.9388 11.4276 10.7195C11.6611 10.3538 11.8045 10.0023 11.8045 9.78008C11.8045 9.67883 11.8129 9.64508 11.8242 9.66758C11.8776 9.75477 11.782 10.1288 11.6414 10.3988L11.5851 10.5057L11.6386 10.4945C11.6667 10.486 11.8467 10.4101 12.0323 10.3257C12.5442 10.0951 12.7186 10.0501 13.0504 10.0641C13.3289 10.0754 13.4442 10.1288 13.6411 10.3341C13.7451 10.4466 13.8464 10.5226 14.0292 10.6379C14.4173 10.8798 14.4342 10.9023 14.4539 11.1891C14.4736 11.4788 14.4623 11.4957 14.2429 11.5435C14.0545 11.5857 13.9364 11.6729 13.9054 11.7966C13.8886 11.8585 13.9251 11.8613 14.0179 11.7995L14.0882 11.7545L14.1192 11.7995C14.1614 11.8585 14.2457 11.8585 14.3161 11.7995L14.3723 11.7573L14.4286 11.7995C14.5129 11.8698 14.6254 11.8529 14.6592 11.7657C14.6648 11.7516 14.6817 11.7545 14.7154 11.7854C14.7801 11.8416 14.9404 11.8641 14.9573 11.8191C14.9629 11.8023 14.9517 11.7629 14.9292 11.7291C14.8364 11.5885 14.8054 11.5238 14.8054 11.4479C14.8054 11.341 14.8336 11.2876 14.9573 11.2032C15.1036 11.0963 15.1486 10.9613 15.0361 10.9613C14.9686 10.9613 14.8982 10.8995 14.8532 10.801C14.7632 10.5985 14.7829 10.3735 14.9179 9.99664C15.0214 9.7749 15.0734 9.53258 15.0698 9.28789C15.0698 9.07977 15.0642 9.04602 15.0192 8.93071C14.984 8.85053 14.9406 8.77419 14.8898 8.70289L14.8111 8.59883L14.9095 8.51446C15.2132 8.26414 15.1514 7.85352 14.7857 7.69602C14.6732 7.64539 14.6451 7.64258 14.4482 7.64258C14.3357 7.64258 14.1529 7.65946 14.0545 7.67914C13.9224 7.70005 13.7889 7.71133 13.6551 7.71289C13.4639 7.71289 13.4301 7.70727 13.357 7.66789C13.2811 7.62852 13.267 7.60883 13.2529 7.51321C13.2516 7.50419 13.2481 7.49565 13.2427 7.4883C13.2373 7.48095 13.2302 7.47502 13.222 7.47102C13.1939 7.46258 13.0757 7.56664 13.0589 7.61164C13.0476 7.63696 13.042 7.63414 13.0167 7.60321C12.9928 7.57256 12.9738 7.5384 12.9604 7.50196C12.9323 7.40914 12.9689 7.34164 13.0786 7.28821L13.1629 7.24883L13.1123 7.21789C13.0111 7.15321 12.8367 7.19821 12.7748 7.30227C12.7551 7.33039 12.7354 7.35852 12.7298 7.35852C12.7242 7.35852 12.6904 7.33039 12.6567 7.29383C12.5245 7.16446 12.5695 6.97321 12.7467 6.91696C12.8395 6.88602 12.9239 6.90852 12.9407 6.97321C12.9689 7.06602 13.0476 6.94227 13.0336 6.82696C13.0251 6.75102 13.0251 6.74821 13.0786 6.74821C13.1517 6.74821 13.3036 6.84383 13.3542 6.91696C13.4104 7.00414 13.4048 7.14196 13.3429 7.24321L13.2951 7.32196L13.3598 7.31071C13.4498 7.29102 13.5398 7.23477 13.5848 7.16446C13.6085 7.11967 13.6218 7.07013 13.6238 7.01949C13.6257 6.96885 13.6163 6.91843 13.5961 6.87196C13.5539 6.79602 13.5595 6.78477 13.6214 6.81008C13.7226 6.85227 13.7789 6.90008 13.8182 6.98164C13.8576 7.05477 13.8604 7.07164 13.8407 7.15039C13.8273 7.19834 13.8064 7.24389 13.7789 7.28539C13.7451 7.33039 13.7423 7.33883 13.7704 7.33883C13.8211 7.33883 13.9223 7.29102 13.9589 7.25446C13.9786 7.23196 14.0067 7.18414 14.0207 7.14196L14.0489 7.07164L14.077 7.12789C14.1192 7.20383 14.2036 7.27414 14.3048 7.31914C14.4145 7.36414 14.4595 7.36696 14.4032 7.32477C14.3639 7.29664 14.2907 7.08571 14.3161 7.06602C14.4374 7.13399 14.5483 7.21926 14.6451 7.31914C14.8054 7.46258 14.9067 7.51039 15.0529 7.51039C15.2414 7.51039 15.3511 7.34727 15.2667 7.19258C15.2189 7.10258 15.1092 7.08852 15.0417 7.16446C15.0136 7.20102 15.0051 7.22914 15.0136 7.26852C15.0248 7.31352 15.022 7.31914 14.9798 7.31914C14.9236 7.31914 14.8167 7.24883 14.6254 7.08852C14.3592 6.85942 14.0532 6.68115 13.7226 6.56258C13.4987 6.51081 13.2674 6.49844 13.0392 6.52602C12.8592 6.55977 12.6454 6.66383 12.5273 6.77352C12.322 6.97039 12.3192 7.23196 12.5189 7.47102L12.5751 7.53852L12.5386 7.60039C12.5111 7.64471 12.4974 7.69624 12.4994 7.74836C12.5014 7.80049 12.519 7.85082 12.5498 7.89289C12.5779 7.93227 12.6061 7.96321 12.6145 7.96321C12.6201 7.96321 12.6257 7.93789 12.6286 7.90696C12.6342 7.83102 12.6679 7.78039 12.7242 7.76071C12.7748 7.74102 12.8086 7.75227 13.0392 7.84508C13.2839 7.94071 13.6861 7.94633 14.1136 7.86196C14.2988 7.81916 14.4917 7.82109 14.6761 7.86758C14.8786 7.95196 14.9236 8.16852 14.7773 8.33164C14.7126 8.40477 14.6536 8.43289 14.4482 8.48914C14.2695 8.53628 14.0837 8.55058 13.8998 8.53133C13.5961 8.52852 13.4864 8.53414 13.3654 8.55946C13.2276 8.58758 13.1461 8.59039 12.7523 8.58196L12.2939 8.57071L12.3445 8.61008C12.3716 8.63416 12.4008 8.6558 12.4317 8.67477C12.4682 8.69446 12.4654 8.69727 12.4148 8.71696C12.3867 8.72821 12.3192 8.73664 12.2657 8.73664H12.1729L12.1617 8.81539C12.1541 8.85251 12.1541 8.89078 12.1617 8.92789C12.1729 8.95602 12.1673 8.96164 12.1392 8.95039C12.1195 8.94196 12.0661 8.92789 12.0182 8.91946C11.97 8.90911 11.9229 8.89404 11.8776 8.87446C11.8242 8.84633 11.8186 8.84633 11.7989 8.88289C11.782 8.91102 11.6245 9.02914 11.602 9.02914C11.5918 8.95618 11.571 8.8851 11.5401 8.81821C11.512 8.75914 11.4867 8.69164 11.4782 8.67196C11.4698 8.64102 11.4642 8.63821 11.4501 8.66352C11.4417 8.67758 11.4304 8.71977 11.422 8.75352C11.4121 8.79907 11.395 8.84275 11.3714 8.88289L11.3292 8.94477L11.3011 8.89133C11.2729 8.83508 11.2279 8.77321 11.2111 8.77321C11.2054 8.77321 11.197 8.79008 11.1914 8.81539C11.1773 8.86039 11.0676 8.99258 11.0395 8.99258C11.0311 8.99258 11.0226 8.95602 11.0226 8.90821C11.0226 8.86602 11.0142 8.82664 11.0029 8.82664C10.9917 8.82664 10.9832 8.84071 10.9832 8.85477C10.9832 8.88852 10.8904 8.99539 10.8567 8.99539C10.8454 8.99539 10.8229 9.00664 10.8089 9.02352C10.7751 9.06008 10.747 9.05446 10.7611 9.01227C10.765 8.97625 10.7612 8.9398 10.7498 8.90539L10.7217 8.81539C10.7161 8.80133 10.6823 8.80696 10.6092 8.82946C10.4967 8.86602 10.4573 8.85758 10.5164 8.81258C10.5389 8.79571 10.5726 8.73664 10.5895 8.68321C10.6092 8.62696 10.6373 8.57914 10.6514 8.57352C10.6711 8.56789 10.6711 8.57352 10.6457 8.60727C10.6295 8.62866 10.6188 8.65381 10.6148 8.68039C10.6148 8.69446 10.6007 8.73102 10.5867 8.76196C10.5698 8.79008 10.5586 8.81821 10.5614 8.82102C10.5642 8.82383 10.6092 8.80696 10.6598 8.78446L10.7498 8.73946V8.77883C10.7498 8.80133 10.7611 8.85758 10.7751 8.90539L10.8004 8.98977L10.8623 8.96164C10.9242 8.93352 10.9832 8.83227 10.9832 8.75071C10.9832 8.71133 11.0057 8.71696 11.017 8.75914C11.017 8.77039 11.0339 8.81821 11.0451 8.86321L11.0732 8.94196L11.1154 8.89133C11.1407 8.86321 11.1689 8.80696 11.1801 8.77039C11.2026 8.70289 11.2364 8.67196 11.2364 8.72258C11.2364 8.75633 11.332 8.88571 11.3489 8.87446C11.3601 8.86883 11.377 8.82102 11.3911 8.76758C11.4192 8.65508 11.4614 8.58196 11.4895 8.59883C11.5007 8.60446 11.5036 8.61571 11.4979 8.62696C11.4923 8.63258 11.5148 8.70571 11.5486 8.78446C11.573 8.84349 11.5974 8.90255 11.6217 8.96164C11.6329 8.98977 11.6442 8.98977 11.7145 8.92508C11.7567 8.88571 11.7989 8.84352 11.8017 8.82946C11.8101 8.80696 11.8186 8.80977 11.8579 8.83508C11.9408 8.87889 12.0317 8.90566 12.1251 8.91383C12.1307 8.90821 12.1364 8.85758 12.1364 8.80133L12.1392 8.69727L12.1954 8.70852C12.2236 8.71696 12.2882 8.71696 12.3361 8.70852L12.4204 8.69727L12.3445 8.64102C12.3023 8.61289 12.2601 8.57633 12.2489 8.55946C12.2404 8.54258 12.2011 8.52571 12.1589 8.52289C12.0436 8.51164 11.8382 8.39914 11.8382 8.34289C11.8382 8.33164 11.8664 8.35133 11.9001 8.38227C11.9789 8.45258 12.0857 8.49477 12.1814 8.49477H12.2489L12.2067 8.43852C12.1766 8.39491 12.1573 8.34478 12.1504 8.29227C12.1448 8.20789 12.1364 8.19664 12.0492 8.13758C11.9986 8.10176 11.9515 8.06127 11.9086 8.01664L11.8607 7.96321L11.8354 8.02789C11.8214 8.06446 11.8073 8.09258 11.7989 8.09258C11.7932 8.09258 11.7651 8.07008 11.7426 8.04477C11.7268 8.02644 11.7077 8.01118 11.6864 7.99977C11.6779 7.99977 11.6582 8.03352 11.6357 8.07571L11.5964 8.15164L11.5682 8.10946C11.5432 8.07497 11.515 8.04295 11.4839 8.01383C11.4501 7.98571 11.4361 7.96321 11.4473 7.96321C11.4586 7.96321 11.4951 7.99133 11.5317 8.02789L11.5936 8.09258L11.6217 8.04477C11.6379 8.01164 11.6429 7.9741 11.6357 7.93789C11.6245 7.88727 11.6273 7.88446 11.6442 7.91821C11.6684 7.94995 11.6968 7.97833 11.7286 8.00258L11.7904 8.05321L11.8326 7.97727C11.8748 7.89852 11.8748 7.89852 11.8917 7.94633C11.9198 8.00539 12.1026 8.15727 12.2573 8.24446C12.2854 8.25852 12.2742 8.21352 12.2292 8.10383C12.2157 8.06779 12.2081 8.0298 12.2067 7.99133C12.2067 7.94071 12.1926 7.91821 12.1279 7.86758C12.0877 7.84187 12.0541 7.80712 12.0296 7.7661C12.0052 7.72509 11.9907 7.67894 11.9873 7.63133C11.9789 7.58352 11.962 7.53289 11.9479 7.51602C11.9311 7.48789 11.9254 7.50477 11.9311 7.58914C11.9367 7.64821 11.9282 7.72133 11.9142 7.75227L11.8917 7.80852L11.8748 7.76071C11.8636 7.73539 11.8186 7.69039 11.7764 7.66227C11.7342 7.63414 11.7032 7.60602 11.7089 7.60039C11.7145 7.59477 11.7595 7.62008 11.8073 7.65664C11.8832 7.71571 11.8973 7.72133 11.9086 7.69602C11.9198 7.66789 11.9086 7.53852 11.8861 7.44852C11.8748 7.40352 11.8748 7.40352 11.9311 7.45977C11.9704 7.49914 11.9929 7.54977 12.0126 7.63414C12.0351 7.74102 12.0464 7.76071 12.1448 7.84789C12.2039 7.90133 12.2573 7.94071 12.2601 7.93789C12.2657 7.93227 12.2714 7.79727 12.277 7.63414C12.2882 7.32196 12.277 7.24602 12.2011 7.15039L12.1617 7.09977L12.2236 7.03508C12.2929 6.96878 12.3392 6.88206 12.3557 6.78758L12.367 6.71164L12.2995 6.77633C12.2432 6.82977 12.2151 6.84102 12.1504 6.84102C12.0857 6.84102 12.0604 6.82977 12.0182 6.78477C11.9525 6.72151 11.8724 6.67518 11.7848 6.64977C11.7511 6.63852 11.7398 6.64414 11.7398 6.66664C11.7398 6.68352 11.7229 6.72852 11.7004 6.77071L11.6611 6.84383L11.5767 6.75946C11.5232 6.71164 11.4642 6.66946 11.4164 6.65821C11.3011 6.63008 11.2954 6.63008 11.2954 6.71727C11.2954 6.84946 11.2392 6.87477 11.1379 6.78758C11.0592 6.72008 10.9973 6.70321 10.8482 6.72289L10.7357 6.73414L10.7554 6.78477C10.7723 6.82696 10.7695 6.84664 10.7329 6.89446C10.6739 6.97321 10.5979 7.00696 10.4798 7.00696C10.4236 7.00696 10.3561 7.01821 10.3279 7.03227C10.2998 7.04633 10.2267 7.06039 10.1676 7.06602C10.1114 7.07164 10.0467 7.08289 10.027 7.08852C9.99887 7.09977 9.99887 7.08852 10.0073 7.02664C10.0214 6.93102 9.95105 6.85789 9.84699 6.85789C9.70918 6.85789 9.6473 6.98164 9.70074 7.14477C9.71168 7.17996 9.72107 7.21562 9.72887 7.25164C9.76581 7.32197 9.81538 7.3849 9.87512 7.43727C9.94824 7.51039 10.0157 7.58633 10.027 7.60602C10.0496 7.63535 10.0784 7.65935 10.1114 7.67633L10.1732 7.71008L10.1648 7.64258C10.1564 7.56946 10.1704 7.55821 10.2098 7.61164C10.2239 7.62852 10.2604 7.65946 10.2886 7.67633C10.3364 7.70446 10.3448 7.70446 10.3448 7.68196C10.3448 7.66508 10.3532 7.62852 10.3645 7.60039L10.3842 7.54977L10.4207 7.62008C10.4404 7.65946 10.5051 7.74664 10.5642 7.81696C10.6795 7.94914 10.7526 8.09821 10.7161 8.13196C10.6992 8.14602 10.6598 8.14602 10.5754 8.12914C10.5136 8.11789 10.4348 8.10946 10.4011 8.11508C10.3364 8.12352 10.3307 8.11508 10.3729 8.06446C10.4151 8.00821 10.4067 7.99977 10.3223 7.99977C10.2239 7.99977 9.97918 7.95196 9.88355 7.91539C9.79355 7.87883 9.77105 7.88727 9.74293 7.97446L9.69512 8.13196L9.66699 8.21633L9.76824 8.20789C9.82044 8.20243 9.87215 8.19303 9.92293 8.17977C9.94285 8.17313 9.96383 8.17027 9.9848 8.17133C9.99043 8.17414 9.97637 8.20789 9.95668 8.24727L9.9173 8.31477L9.97918 8.30352C10.0129 8.29508 10.0636 8.27821 10.0917 8.26414C10.1423 8.24164 10.1479 8.24164 10.1873 8.30633C10.2351 8.38227 10.2717 8.37946 10.2801 8.29789C10.2886 8.21352 10.3167 8.22477 10.3701 8.33727C10.4207 8.44414 10.4714 8.48352 10.4826 8.42164C10.4854 8.39914 10.5107 8.36539 10.5417 8.34289C10.6036 8.30071 10.6486 8.31477 10.6739 8.37946C10.702 8.44977 10.6401 8.52008 10.4657 8.62696C10.3043 8.71612 10.1653 8.84103 10.0595 8.99215C9.95374 9.14327 9.88393 9.31658 9.85543 9.49883C9.80199 9.83071 9.96793 10.1738 10.2942 10.4241C10.4517 10.5423 10.702 10.666 10.6851 10.621C10.6176 10.4157 10.6204 10.0304 10.6879 9.96571C10.6992 9.95446 10.6964 9.99383 10.6795 10.0529C10.6232 10.2751 10.6514 10.4495 10.792 10.8601C10.9157 11.2313 10.8989 11.3916 10.7189 11.4957C10.6626 11.5295 10.6261 11.5351 10.4714 11.5323C10.3026 11.5323 10.2829 11.5323 10.2295 11.5773C10.1649 11.6433 10.1226 11.7279 10.1086 11.8191C10.1086 11.8557 10.1479 11.8501 10.2211 11.8079H10.2239Z" fill="#FFB700"/>
<path id="Vector_13" d="M12.9518 11.7983L13.0221 11.7533L13.0699 11.7983C13.1318 11.8574 13.2077 11.8546 13.2668 11.7955C13.2949 11.7674 13.3174 11.7505 13.3202 11.7533L13.3455 11.7983C13.3596 11.8236 13.3905 11.8349 13.4468 11.8405C13.5114 11.8433 13.5311 11.8405 13.5593 11.8011L13.5874 11.7533L13.6577 11.7983C13.8489 11.9221 13.9502 11.7927 13.863 11.5368C13.8208 11.4074 13.8461 11.3343 13.9839 11.1711C14.043 11.1008 14.0908 11.0249 14.0908 11.0024C14.0908 10.9714 14.0796 10.9658 14.0008 10.9686C13.9277 10.9686 13.9052 10.9602 13.8658 10.918C13.8011 10.8477 13.8068 10.7661 13.8771 10.6761L13.9333 10.6058L13.8321 10.5383C13.7512 10.4786 13.6759 10.4118 13.6071 10.3386C13.5457 10.2662 13.4706 10.2065 13.3862 10.1631C13.3017 10.1197 13.2095 10.0933 13.1149 10.0855L12.9827 10.0714V10.1727C12.9827 10.2993 13.0446 10.423 13.2077 10.6311C13.3933 10.8674 13.4046 10.9039 13.413 11.2133L13.4214 11.4749L13.3652 11.5255C13.3174 11.5705 13.2977 11.5789 13.1402 11.5874C12.9911 11.5958 12.9574 11.6043 12.9152 11.6436C12.8658 11.6796 12.8317 11.7328 12.8196 11.7927C12.8111 11.8349 12.8139 11.8433 12.8449 11.8433C12.8646 11.8433 12.9124 11.8236 12.9518 11.7983ZM8.95238 11.1233C8.96939 11.0983 8.97913 11.0691 8.98051 11.0389C8.98051 11.0108 8.99738 10.9996 9.07051 10.9883L9.15769 10.9771L9.10144 10.9293C9.03113 10.873 9.02269 10.8308 9.08457 10.8308C9.14644 10.8308 9.24769 10.7689 9.26457 10.7211C9.27301 10.6986 9.26457 10.6705 9.25332 10.6564C9.21957 10.6171 9.15488 10.6227 9.14363 10.6677C9.12957 10.7127 9.10988 10.7127 9.05926 10.6677C8.98894 10.5974 8.98613 10.4539 9.05926 10.3696C9.09019 10.3302 9.09019 10.3302 9.04801 10.288C9.00301 10.243 8.96926 10.1586 8.99176 10.1361C8.99738 10.1305 9.03394 10.1361 9.07051 10.1502C9.12676 10.1671 9.14644 10.1671 9.16894 10.1502C9.23363 10.0968 9.16332 10.0293 9.05644 10.0461C9.01144 10.0518 8.99457 10.0461 8.98894 10.0236C8.98332 10.0068 8.94676 9.98425 8.90457 9.973C8.82863 9.95331 8.82863 9.95331 8.82863 10.0068C8.82863 10.063 8.79488 10.0743 8.73301 10.0377C8.68238 10.0096 8.63457 10.0321 8.63457 10.0855C8.63457 10.1361 8.68238 10.1586 8.77519 10.153C8.84269 10.1502 8.84551 10.2008 8.78082 10.2739L8.73301 10.3302L8.76957 10.3836C8.82582 10.4624 8.82019 10.5946 8.76113 10.6621L8.71332 10.7127L8.68238 10.6705C8.63738 10.6143 8.57832 10.6171 8.56144 10.6789C8.55301 10.7183 8.56144 10.7352 8.61207 10.7802C8.64582 10.8083 8.69644 10.8308 8.72176 10.8308C8.78644 10.8308 8.78363 10.8843 8.71613 10.9349L8.65988 10.9771L8.74426 10.9883C8.78926 10.9968 8.82863 11.008 8.82863 11.0164C8.82863 11.053 8.88488 11.1627 8.90176 11.1627C8.91301 11.1627 8.93551 11.143 8.95238 11.1205V11.1233Z" fill="#FFB700"/>
<path id="Vector_14" d="M10.0267 10.6592C10.1027 10.6311 10.2658 10.4905 10.2658 10.4595C10.2658 10.4483 10.2208 10.3977 10.1645 10.347C10.052 10.2458 9.92547 10.0686 9.89172 9.96734C9.87484 9.91109 9.79328 9.82109 9.56266 9.59609L9.25609 9.30078L9.16891 9.32328C9.11828 9.33453 9.05922 9.34578 9.03672 9.34578C8.99453 9.34578 8.99453 9.34578 9.05078 9.39078L9.10703 9.43578L9.19141 9.39078C9.26734 9.34578 9.27016 9.34578 9.27859 9.38234C9.28422 9.40203 9.27297 9.43859 9.25047 9.46391C9.23078 9.48922 9.21953 9.52016 9.22234 9.52859C9.23078 9.53703 9.21109 9.55672 9.18016 9.57359C9.12391 9.60172 9.08172 9.69453 9.12672 9.69453C9.16891 9.69453 9.25891 9.58203 9.24766 9.54547C9.24203 9.52578 9.24766 9.50609 9.25328 9.50047C9.28984 9.48078 9.28703 9.56797 9.25328 9.61297C9.23078 9.63547 9.21953 9.66359 9.22516 9.67484C9.23078 9.68328 9.21109 9.70297 9.18016 9.71984C9.12391 9.74797 9.08172 9.84078 9.12672 9.84078C9.17172 9.84078 9.25891 9.73391 9.25047 9.69453C9.24484 9.67484 9.24484 9.65234 9.25328 9.64672C9.27859 9.63547 9.28984 9.70297 9.27016 9.73672C9.26499 9.74621 9.26228 9.75685 9.26228 9.76766C9.26228 9.77847 9.26499 9.7891 9.27016 9.79859C9.28984 9.83516 9.27016 9.90266 9.23359 9.92516C9.21953 9.93359 9.22797 9.95328 9.26734 9.98141C9.32359 10.0208 9.32359 10.0264 9.32359 10.2064C9.32359 10.3583 9.32922 10.3977 9.35734 10.423C9.38547 10.4511 9.39109 10.4511 9.39109 10.423C9.39109 10.3948 9.44734 10.3555 9.48953 10.3555C9.50359 10.3555 9.58516 10.4258 9.67234 10.5102C9.75953 10.5945 9.85234 10.6705 9.87766 10.6733L9.93953 10.6845C9.94797 10.6845 9.98734 10.6761 10.0267 10.6564V10.6592ZM9.09016 9.92516C9.09016 9.87734 8.98891 9.82391 8.86797 9.81266C8.76953 9.79859 8.76953 9.80141 8.76953 9.84922C8.76953 9.88859 8.78359 9.90547 8.85391 9.93359C8.96078 9.98141 9.09016 9.97578 9.09016 9.92516Z" fill="#FFB700"/>
<path id="Vector_15" d="M9.1999 9.91906C9.25052 9.87406 9.27302 9.82344 9.24208 9.82344C9.20833 9.82344 9.11833 9.90219 9.11833 9.93594C9.11833 9.98094 9.13521 9.97812 9.20271 9.91906H9.1999ZM9.09583 9.77562C9.09865 9.7475 9.08177 9.73062 9.03115 9.70531C8.91865 9.6575 8.78927 9.63219 8.75833 9.6575C8.69927 9.70531 8.73865 9.76719 8.83146 9.77844C8.87083 9.78125 8.92146 9.7925 8.94677 9.80375C9.0199 9.83187 9.0874 9.81781 9.09583 9.77562ZM9.09583 9.62656C9.10146 9.59 9.07615 9.57594 8.87083 9.50281C8.71615 9.44656 8.64865 9.47469 8.69927 9.5675C8.71615 9.59844 8.74427 9.6125 8.80896 9.62375C8.85677 9.62937 8.92146 9.64344 8.9524 9.65469C9.03677 9.68281 9.0874 9.67156 9.09302 9.62656H9.09583ZM9.19708 9.48875C9.22802 9.45781 9.25333 9.42125 9.25333 9.40437C9.25333 9.36219 9.1324 9.44094 9.11552 9.49719C9.09865 9.56187 9.12958 9.55906 9.1999 9.48875H9.19708ZM9.09583 9.48031C9.10146 9.43531 9.02833 9.39594 8.88208 9.365C8.7724 9.33969 8.72458 9.35375 8.73302 9.40437C8.73865 9.4325 8.77521 9.45219 8.87365 9.48312C9.03958 9.53375 9.0874 9.53375 9.09583 9.48031ZM9.23646 9.27219C9.42771 9.18781 9.44177 8.97687 9.26458 8.92062C9.19146 8.89812 9.14646 8.91219 9.11833 8.96C9.09583 8.99937 9.1099 9.06687 9.13802 9.06687C9.14927 9.06687 9.15771 9.08094 9.15771 9.095C9.15771 9.17094 8.87083 9.20187 8.75271 9.14281C8.71052 9.12312 8.69646 9.06687 8.7274 9.06687C8.75552 9.06687 8.7724 9.01062 8.75833 8.97406C8.74146 8.91781 8.68521 8.90094 8.60927 8.92344C8.43208 8.96844 8.43771 9.17656 8.61771 9.26094C8.81685 9.33403 9.03479 9.33799 9.23646 9.27219Z" fill="#FFB700"/>
<path id="Vector_16" d="M9.12141 9.10797C9.13266 9.09672 9.12703 9.07984 9.11016 9.06859C9.07078 9.03766 9.07359 8.98984 9.11578 8.93641C9.14953 8.89703 9.15234 8.83516 9.16359 8.23047C9.18328 7.18703 9.26203 6.40234 9.36328 6.21109C9.40547 6.13797 9.39984 6.13797 9.29297 6.21109C9.15276 6.30878 9.03956 6.44037 8.96391 6.59359C8.78953 6.91703 8.73047 7.35297 8.73047 8.28672C8.73047 8.81547 8.73328 8.88578 8.76422 8.93359C8.79234 8.98422 8.79234 9.00109 8.77547 9.05172C8.76141 9.08266 8.75578 9.11641 8.76141 9.12203C8.80078 9.15859 9.08203 9.15016 9.12141 9.10797ZM10.6992 8.11234C10.7077 8.10391 10.6936 8.05609 10.6711 8.01109C10.6373 7.93797 10.6233 7.92672 10.5755 7.92672C10.3506 7.90717 10.1313 7.84614 9.92859 7.74672C9.78516 7.68203 9.73172 7.66797 9.71766 7.68484C9.67266 7.72703 9.74578 7.82547 9.85828 7.87891C10.0238 7.93857 10.1972 7.97363 10.373 7.98297C10.4489 7.98297 10.4517 7.98297 10.4067 8.04766L10.3786 8.09266H10.463L10.6036 8.10953C10.688 8.12922 10.688 8.12922 10.6992 8.11234Z" fill="#FFB700"/>
<path id="Vector_17" d="M11.5878 8.58244C11.5878 8.55432 11.5062 8.484 11.4274 8.43619C11.3628 8.39963 11.3515 8.39682 11.3515 8.42775C11.3515 8.47275 11.3121 8.58807 11.2953 8.58807C11.2868 8.58807 11.2728 8.56557 11.2671 8.54025C11.2587 8.51213 11.2278 8.45588 11.1968 8.41932L11.1406 8.349L11.1012 8.41369C11.0618 8.47557 10.9915 8.53463 10.9606 8.53463C10.9549 8.53463 10.9521 8.50088 10.9606 8.46432C10.9634 8.41932 10.9606 8.38557 10.9465 8.37994C10.9353 8.3715 10.924 8.37432 10.924 8.38557C10.924 8.40807 10.8284 8.51494 10.8115 8.51494C10.8003 8.51494 10.789 8.48682 10.7834 8.44744L10.7609 8.31244C10.7553 8.27869 10.7693 8.30119 10.789 8.36869L10.834 8.484L10.879 8.41369C10.8994 8.38463 10.9146 8.35229 10.924 8.31807C10.924 8.304 10.9324 8.29838 10.9437 8.304C10.9549 8.30963 10.969 8.35744 10.9746 8.40807L10.9887 8.50369L11.0393 8.44744C11.0658 8.41923 11.0903 8.38915 11.1124 8.35744C11.1321 8.32369 11.1349 8.32369 11.1771 8.35744C11.1996 8.37994 11.2362 8.42775 11.2587 8.46713C11.2812 8.5065 11.3009 8.53463 11.3037 8.53182L11.3206 8.44182L11.3318 8.35744C11.3346 8.34338 11.4837 8.44182 11.5399 8.48963C11.5737 8.52057 11.6074 8.54307 11.6131 8.53744C11.6187 8.53182 11.6243 8.48682 11.6243 8.43338C11.6243 8.35463 11.6159 8.33213 11.5681 8.28994C11.5118 8.23932 11.5118 8.23932 11.4893 8.27588C11.4612 8.32369 11.4303 8.32369 11.4303 8.27588C11.4303 8.24213 11.3234 8.10994 11.2981 8.10994C11.2896 8.10994 11.2671 8.13807 11.2474 8.17463C11.2278 8.21119 11.2053 8.23932 11.1996 8.23932C11.1715 8.23932 11.0224 8.07057 11.0224 8.04244C11.0224 8.01994 11.0337 8.02557 11.059 8.06494C11.0841 8.10188 11.1134 8.13585 11.1462 8.16619C11.2024 8.21682 11.2249 8.20557 11.2474 8.10713C11.2559 8.079 11.2671 8.0565 11.2756 8.0565C11.2981 8.0565 11.4274 8.19432 11.4443 8.23932L11.464 8.28432L11.4781 8.23369C11.4949 8.17182 11.5146 8.17182 11.5428 8.22807C11.554 8.25057 11.6103 8.30119 11.6665 8.33494L11.7706 8.40244L11.7903 8.33494C11.8015 8.29838 11.8184 8.27869 11.824 8.28994C11.8353 8.304 11.8071 8.4165 11.7874 8.439C11.7874 8.44182 11.7509 8.42213 11.7143 8.39682L11.644 8.34619V8.43619C11.644 8.484 11.6384 8.54307 11.6328 8.56557C11.6187 8.61057 11.5849 8.62182 11.5849 8.58244H11.5878ZM11.0674 7.86807C10.9437 7.76682 10.9268 7.74432 10.9268 7.69369L10.9296 7.64307L10.9381 7.69088C10.9437 7.719 10.9774 7.764 11.0168 7.79775L11.0899 7.854L11.1321 7.80338C11.1574 7.77525 11.1771 7.7415 11.1771 7.73025C11.1771 7.6965 11.1828 7.69932 11.2671 7.77244C11.3403 7.83713 11.3431 7.83713 11.3515 7.79494C11.3599 7.77244 11.3571 7.72744 11.3515 7.6965C11.3234 7.61213 11.329 7.60088 11.3656 7.6515L11.4331 7.73025C11.4612 7.76119 11.464 7.76119 11.4753 7.72182C11.4837 7.6965 11.4893 7.65432 11.4893 7.62619V7.57275L11.554 7.64869C11.6187 7.72182 11.6243 7.72463 11.6412 7.68807C11.6553 7.66838 11.6637 7.62057 11.6637 7.584C11.6637 7.53338 11.6693 7.52213 11.6806 7.539C11.7031 7.57275 11.689 7.65713 11.6496 7.73025L11.6215 7.7865L11.5849 7.72744C11.5371 7.65432 11.5203 7.65432 11.4921 7.73307C11.464 7.809 11.4443 7.81463 11.4162 7.75557C11.3993 7.719 11.3937 7.72463 11.3824 7.80338L11.3684 7.88775L11.284 7.82307L11.1996 7.75838L11.1574 7.80057C11.1378 7.82588 11.1209 7.85682 11.1209 7.86807C11.1209 7.89619 11.0984 7.89619 11.0674 7.86807ZM12.1643 7.48557C12.1221 7.44619 12.0912 7.40682 12.0968 7.40119C12.1053 7.39275 12.1109 7.38994 12.1137 7.39557C12.1409 7.42457 12.1691 7.45271 12.1981 7.47994C12.2937 7.58119 12.274 7.584 12.1671 7.48557H12.1643ZM10.7018 7.33369C10.6624 7.27744 10.6653 7.24369 10.7159 7.18182C10.7496 7.13963 10.7665 7.134 10.8284 7.14244C10.8706 7.14525 10.9578 7.18182 11.0224 7.22119C11.1159 7.27704 11.2229 7.30622 11.3318 7.30557L11.284 7.22682C11.2221 7.134 11.2221 7.12275 11.2953 7.179C11.3684 7.23807 11.4556 7.25494 11.6524 7.24932L11.7481 7.2465L11.6918 7.19025C11.6159 7.11432 11.6384 7.10588 11.7256 7.18182C11.8043 7.25213 11.8015 7.25775 11.6299 7.27463C11.5584 7.28185 11.4862 7.2771 11.4162 7.26057C11.3206 7.23244 11.3149 7.23525 11.3346 7.26619C11.3459 7.28588 11.3628 7.29994 11.3712 7.29994C11.3824 7.29994 11.3909 7.31119 11.3909 7.32244C11.3909 7.359 11.1828 7.32525 11.0815 7.27744C10.8565 7.16213 10.8284 7.15088 10.7721 7.16775C10.7572 7.17352 10.7435 7.1822 10.7319 7.19331C10.7203 7.20442 10.711 7.21772 10.7046 7.23244C10.6681 7.32525 10.8003 7.39838 10.8537 7.31682C10.8706 7.2915 10.8678 7.27744 10.8396 7.2465C10.8003 7.20713 10.8059 7.2015 10.8565 7.21838C10.8931 7.23244 10.8959 7.31963 10.8621 7.35338C10.8256 7.38994 10.7356 7.3815 10.7018 7.33369Z" fill="#000001"/>
<path id="Vector_18" d="M11.5987 7.10423C11.5705 7.0761 11.593 7.07048 11.7196 7.06767C11.8771 7.06485 11.9727 7.03954 12.0852 6.96642C12.1752 6.91017 12.2005 6.92142 12.1133 6.98048C12.0374 7.03673 11.9165 7.0761 11.7955 7.08735L11.6521 7.10704C11.6296 7.11267 11.6043 7.10985 11.5958 7.10423H11.5987Z" fill="#000001"/>
</g>
</g>
</g>
<defs>
<clipPath id="clip0_186_10460">
<rect width="18" height="18" fill="white"/>
</clipPath>
</defs>
</svg>
