<svg width="18" height="18" viewBox="0 0 18 18" fill="none" xmlns="http://www.w3.org/2000/svg">
<g id="ly" clip-path="url(#clip0_186_10516)">
<g id="Clip path group">
<mask id="mask0_186_10516" style="mask-type:luminance" maskUnits="userSpaceOnUse" x="0" y="0" width="18" height="18">
<g id="ly-a">
<path id="Vector" d="M0 0H18V18H0V0Z" fill="white"/>
</g>
</mask>
<g mask="url(#mask0_186_10516)">
<g id="Group">
<path id="Vector_2" d="M-9 0H27V18H-9V0Z" fill="#239E46"/>
<path id="Vector_3" d="M-9 0H27V13.5H-9V0Z" fill="#000001"/>
<path id="Vector_4" d="M-9 0H27V4.5H-9V0Z" fill="#E70013"/>
<path id="Vector_5" d="M10.5908 7.4088C10.2985 7.20021 9.95437 7.07617 9.59621 7.05029C9.23805 7.0244 8.87968 7.09767 8.56042 7.26206C8.24116 7.42645 7.97336 7.6756 7.78638 7.98217C7.59941 8.28875 7.5005 8.64091 7.5005 9C7.5005 9.3591 7.59941 9.71125 7.78638 10.0178C7.97336 10.3244 8.24116 10.5736 8.56042 10.7379C8.87968 10.9023 9.23805 10.9756 9.59621 10.9497C9.95437 10.9238 10.2985 10.7998 10.5908 10.5912C10.2761 10.9058 9.87518 11.12 9.43873 11.2068C9.00229 11.2936 8.54992 11.249 8.13882 11.0787C7.72773 10.9084 7.37636 10.62 7.12915 10.25C6.88195 9.87998 6.75 9.44498 6.75 9C6.75 8.55502 6.88195 8.12003 7.12915 7.75003C7.37636 7.38003 7.72773 7.09164 8.13882 6.92133C8.54992 6.75101 9.00229 6.70642 9.43873 6.79319C9.87518 6.87996 10.2761 7.09419 10.5908 7.4088ZM10.094 9L13.1216 8.0172L11.2496 10.5912V7.4088L13.1216 9.9828L10.094 9Z" fill="white"/>
</g>
</g>
</g>
</g>
<defs>
<clipPath id="clip0_186_10516">
<rect width="18" height="18" fill="white"/>
</clipPath>
</defs>
</svg>
