<svg width="18" height="18" viewBox="0 0 18 18" fill="none" xmlns="http://www.w3.org/2000/svg">
<g id="md" clip-path="url(#clip0_186_10532)">
<g id="Group">
<path id="Vector" fill-rule="evenodd" clip-rule="evenodd" d="M0 0H6.00117V18H0V0Z" fill="#00319C"/>
<path id="Vector_2" fill-rule="evenodd" clip-rule="evenodd" d="M6.00098 0H11.9986V18H6.00098V0Z" fill="#FFDE00"/>
<path id="Vector_3" fill-rule="evenodd" clip-rule="evenodd" d="M11.999 0H18.0002V18H11.999V0Z" fill="#DE2110"/>
</g>
<g id="Vector_4">
<path fill-rule="evenodd" clip-rule="evenodd" d="M10.1839 11.3036L10.8765 12.3028C10.9156 12.3593 10.9537 12.4142 10.8962 12.4505C10.8371 12.4879 10.8558 12.6341 10.8949 12.6906C10.9721 12.802 11.0687 12.8221 11.1261 12.7857L11.6515 12.4532C11.7089 12.4169 11.7272 12.324 11.65 12.2127C11.6065 12.1567 11.4773 12.0827 11.4199 12.1191C11.3608 12.1565 11.3227 12.1016 11.2847 12.0467L10.5899 11.0443" fill="#FF1900"/>
<path d="M10.1839 11.3036L10.8765 12.3028C10.9156 12.3593 10.9537 12.4142 10.8962 12.4505C10.8371 12.4879 10.8558 12.6341 10.8949 12.6906C10.9721 12.802 11.0687 12.8221 11.1261 12.7857L11.6515 12.4532C11.7089 12.4169 11.7272 12.324 11.65 12.2127C11.6065 12.1567 11.4773 12.0827 11.4199 12.1191C11.3608 12.1565 11.3227 12.1016 11.2847 12.0467L10.5899 11.0443" stroke="black" stroke-width="0.730307"/>
</g>
<path id="Vector_5" fill-rule="evenodd" clip-rule="evenodd" d="M10.4514 10.5965C10.7607 10.9478 10.8683 11.3506 10.692 11.4923C10.5157 11.634 10.1189 11.4637 9.80958 11.1124C9.50029 10.7611 9.3942 10.3571 9.57049 10.2154C9.74677 10.0737 10.1424 10.2425 10.4529 10.5953L10.4514 10.5965Z" fill="#A77B3B" stroke="black" stroke-width="1.69805"/>
<g id="Vector_6">
<path fill-rule="evenodd" clip-rule="evenodd" d="M7.36975 10.8938L6.75834 11.9402C6.72378 11.9994 6.69019 12.0569 6.63002 12.0248C6.56813 11.9918 6.44076 12.0746 6.40621 12.1338C6.33806 12.2504 6.36368 12.3417 6.42385 12.3738L6.974 12.6673C7.03417 12.6994 7.1289 12.6723 7.19705 12.5557C7.22912 12.4931 7.23862 12.3495 7.17845 12.3174C7.11655 12.2843 7.15015 12.2268 7.18374 12.1693L7.79708 11.1196" fill="#FF1900"/>
<path d="M7.36975 10.8938L6.75834 11.9402C6.72378 11.9994 6.69019 12.0569 6.63002 12.0248C6.56813 11.9918 6.44076 12.0746 6.40621 12.1338C6.33806 12.2504 6.36368 12.3417 6.42385 12.3738L6.974 12.6673C7.03417 12.6994 7.1289 12.6723 7.19705 12.5557C7.22912 12.4931 7.23862 12.3495 7.17845 12.3174C7.11655 12.2843 7.15015 12.2268 7.18374 12.1693L7.79708 11.1196" stroke="black" stroke-width="0.73025"/>
</g>
<path id="Vector_7" fill-rule="evenodd" clip-rule="evenodd" d="M9.3451 10.166H8.78787C8.76818 10.1848 8.61067 11.182 8.43936 11.5658C8.23065 12.0325 7.60254 12.4445 7.60254 12.4445C7.60254 12.4445 7.97665 12.5574 8.09085 12.6327C8.11842 12.6251 8.71699 12.4991 8.78787 11.7672C8.85679 12.4991 8.36848 12.8321 8.36848 12.8321C8.36848 12.8321 9.06747 13.0315 9.06747 13.5C9.06747 13.0334 9.7645 12.8321 9.7645 12.8321C9.7645 12.8321 9.41402 12.4991 9.3451 11.7653C9.48293 12.4991 10.0146 12.6251 10.0441 12.6308C10.1563 12.5574 10.5304 12.4426 10.5304 12.4426C10.5304 12.4426 9.9043 12.0343 9.69558 11.5658C9.52428 11.1839 9.36479 10.1829 9.34707 10.166H9.3451Z" fill="#A77B3B" stroke="black" stroke-width="1.6972"/>
<path id="Vector_8" fill-rule="evenodd" clip-rule="evenodd" d="M6.97266 6.8304L8.02016 7.16342C8.20108 7.15195 8.37147 7.07809 8.49968 6.95558C8.62789 6.83308 8.70518 6.67025 8.71719 6.49738C8.729 5.75607 8.43759 5.49642 8.36867 5.49642L8.5065 5.36472L8.29976 5.16152C8.29976 5.16152 8.37064 4.81532 9.06767 4.82849C9.76469 4.84166 9.76469 5.16152 9.76469 5.49454C9.76469 5.82945 9.41618 5.82945 9.41618 6.49549C9.42865 6.66853 9.50635 6.83138 9.63488 6.95385C9.76341 7.07633 9.93405 7.15012 10.1152 7.16154L11.1607 6.82852V10.1663H6.97266V6.8304Z" fill="#A77B3B" stroke="black" stroke-width="1.6972"/>
<g id="Group_2">
<path id="Vector_9" d="M8.57617 6.96289L8.64572 7.16338L8.71575 6.96289L8.7853 7.16338L8.92487 6.96289L8.99299 7.17407L9.06445 6.96289L9.16734 7.17407L9.27357 6.96289L9.34312 7.16338L9.41315 6.96289" stroke="black" stroke-width="0.136181"/>
<path id="Vector_10" d="M8.8566 6.23047L8.7168 6.96425M8.92551 6.23047V6.96425M9.06531 6.23047V6.96425M9.20511 6.23047L9.27402 6.96425M9.34491 6.23047L9.41382 6.96425" stroke="black" stroke-width="0.164245"/>
</g>
<g id="Group_3">
<path id="Vector_11" fill-rule="evenodd" clip-rule="evenodd" d="M6.27467 4.83008C5.57765 5.1631 5.57765 5.83103 5.57765 6.16406C5.60127 6.46698 5.57765 12.8302 5.57765 12.8302C5.57765 12.8302 5.62293 12.4539 5.92616 12.1641L6.2727 11.8311L6.62121 11.4981C6.87718 11.2761 6.96973 10.8302 6.96973 10.4971V5.83103C6.96973 5.83103 6.96973 5.49613 6.2727 4.83008H6.27467Z" fill="#A77B3B" stroke="black" stroke-width="1.6972"/>
<path id="Vector_12" d="M6.97266 6.16506C6.96478 6.16506 6.62414 5.83203 6.62414 5.83203L6.27563 6.16506L5.92712 5.83203L5.57861 6.16506" stroke="black" stroke-width="1.6972"/>
<path id="Vector_13" d="M6.97266 6.49705C6.96478 6.49705 6.62414 6.83008 6.62414 6.83008L6.27563 6.49705L5.92712 6.83008L5.57861 6.49705" stroke="black" stroke-width="1.6972"/>
<path id="Vector_14" d="M6.97266 7.49513C6.96478 7.49513 6.62414 7.16211 6.62414 7.16211L6.27563 7.49513L5.92712 7.16211L5.57861 7.49513" stroke="black" stroke-width="1.6972"/>
<path id="Vector_15" d="M6.62009 5.83203L6.62402 11.5002" stroke="black" stroke-width="2.33764"/>
<path id="Vector_16" d="M6.27536 6.16602L6.2793 11.8204" stroke="black" stroke-width="2.21463"/>
<path id="Vector_17" d="M5.92673 5.83203L5.93066 12.1662" stroke="black" stroke-width="2.34398"/>
</g>
<g id="Group_4">
<path id="Vector_18" fill-rule="evenodd" clip-rule="evenodd" d="M11.8581 4.83008C12.5552 5.1631 12.5552 5.83103 12.5552 6.16406C12.5315 6.46698 12.5552 12.8302 12.5552 12.8302C12.5552 12.8302 12.5099 12.4539 12.2067 12.1641L11.8601 11.8311L11.5116 11.4981C11.2556 11.2761 11.1631 10.8302 11.1631 10.4971V5.83103C11.1631 5.83103 11.1631 5.49613 11.8601 4.83008H11.8581Z" fill="#A77B3B" stroke="black" stroke-width="1.6972"/>
<path id="Vector_19" d="M11.1611 6.16506C11.169 6.16506 11.5096 5.83203 11.5096 5.83203L11.8582 6.16506L12.2067 5.83203L12.5552 6.16506" stroke="black" stroke-width="1.6972"/>
<path id="Vector_20" d="M11.1611 6.49705C11.169 6.49705 11.5096 6.83008 11.5096 6.83008L11.8582 6.49705L12.2067 6.83008L12.5552 6.49705" stroke="black" stroke-width="1.6972"/>
<path id="Vector_21" d="M11.1611 7.49513C11.169 7.49513 11.5096 7.16211 11.5096 7.16211L11.8582 7.49513L12.2067 7.16211L12.5552 7.49513" stroke="black" stroke-width="1.6972"/>
<path id="Vector_22" d="M11.5137 5.83203L11.5098 11.5002" stroke="black" stroke-width="2.33764"/>
<path id="Vector_23" d="M11.8584 6.16602L11.8545 11.8204" stroke="black" stroke-width="2.21463"/>
<path id="Vector_24" d="M12.2061 5.83203L12.2021 12.1662" stroke="black" stroke-width="2.34398"/>
</g>
<path id="Vector_25" fill-rule="evenodd" clip-rule="evenodd" d="M8.14973 10.8023C7.96495 11.226 7.63976 11.5022 7.42711 11.4175C7.21445 11.3328 7.19067 10.9178 7.37545 10.494C7.56023 10.0702 7.88724 9.7948 8.09989 9.87947C8.31254 9.96414 8.33708 10.3775 8.15154 10.803L8.14973 10.8023Z" fill="#A77B3B" stroke="black" stroke-width="1.69764"/>
<path id="Vector_26" fill-rule="evenodd" clip-rule="evenodd" d="M6.97461 7.16406H11.1582V9.16445H6.97461V7.16406Z" fill="#FF0000"/>
<path id="Vector_27" fill-rule="evenodd" clip-rule="evenodd" d="M6.97461 9.16602H11.1582V10.1609C11.1582 10.8289 10.1141 10.8289 9.06641 11.4969C8.01875 10.8289 6.97461 10.8289 6.97461 10.1609V9.16602Z" fill="#564DFF"/>
<path id="Vector_28" d="M6.97266 7.16406H11.1587V10.1669C11.1587 10.833 10.1132 10.833 9.0657 11.5009C8.02016 10.833 6.97266 10.833 6.97266 10.165V7.16594V7.16406Z" stroke="#FFFF00" stroke-width="1.36871"/>
<path id="Vector_29" fill-rule="evenodd" clip-rule="evenodd" d="M8.29996 7.30078C8.29996 7.30078 7.60254 7.79111 7.60254 8.26024C7.60254 8.72936 8.33442 8.88662 8.33442 8.88662C8.33442 8.88662 8.09046 8.88662 8.09046 9.51212C8.09046 9.82576 8.82234 9.66938 8.82234 9.82576C8.82234 9.98213 8.81269 10.3603 8.82234 10.6085C8.82234 10.7649 8.33442 10.6085 8.33442 10.7649C8.33442 10.8426 8.70104 11.234 9.06767 11.234C9.4343 11.234 9.79955 10.8426 9.79955 10.7649C9.79955 10.6085 9.31163 10.7649 9.31163 10.6085V9.82576C9.31163 9.66938 10.0435 9.82576 10.0435 9.51212C10.0435 8.88662 9.79955 8.88662 9.79955 8.88662C9.79955 8.88662 10.5328 8.73025 10.5328 8.26024C10.5328 7.79023 9.83401 7.30078 9.83401 7.30078C9.83401 7.30078 10.2268 7.94749 10.2268 8.26024C10.2268 8.41661 10.0435 8.73025 9.55559 8.73025C9.55559 8.73025 9.43154 8.57299 9.31163 8.73025C9.31163 8.73025 9.17105 8.57299 9.06767 8.73025C9.03184 8.78326 8.96844 8.57299 8.82234 8.73025C8.76169 8.77177 8.71207 8.57299 8.57838 8.73025C8.33442 8.73025 7.8465 8.57299 7.8465 8.26024C7.8465 7.94749 8.29996 7.30078 8.29996 7.30078Z" fill="#FFFF00" stroke="black" stroke-width="0.941647"/>
<path id="Vector_30" fill-rule="evenodd" clip-rule="evenodd" d="M8.31221 10.1003C8.26259 10.1321 8.37561 10.6419 8.40869 10.664C8.45831 10.6949 8.75189 10.6949 8.80013 10.664C8.83459 10.6419 8.80013 10.1631 8.75189 10.1321C8.70227 10.1003 8.34667 10.0791 8.31083 10.1003H8.31221Z" fill="#FFFF00" stroke="black" stroke-width="0.941647"/>
<path id="Vector_31" fill-rule="evenodd" clip-rule="evenodd" d="M9.82158 10.1003C9.8712 10.1321 9.75817 10.6419 9.7251 10.664C9.67548 10.6949 9.3819 10.6949 9.33366 10.664C9.2992 10.6419 9.33366 10.1631 9.3819 10.1321C9.43152 10.1003 9.78712 10.0791 9.82296 10.1003H9.82158Z" fill="#FFFF00" stroke="black" stroke-width="0.941647"/>
<path id="Vector_32" fill-rule="evenodd" clip-rule="evenodd" d="M8.81458 9.91254C8.81458 9.95928 8.78787 10.0041 8.74033 10.0371C8.6928 10.0702 8.62832 10.0888 8.5611 10.0888C8.49387 10.0888 8.4294 10.0702 8.38186 10.0371C8.33432 10.0041 8.30762 9.95928 8.30762 9.91254C8.30762 9.86581 8.33432 9.82099 8.38186 9.78794C8.4294 9.75489 8.49387 9.73633 8.5611 9.73633C8.62832 9.73633 8.6928 9.75489 8.74033 9.78794C8.78787 9.82099 8.81458 9.86581 8.81458 9.91254Z" fill="#FFFF00" stroke="black" stroke-width="1.12717"/>
<path id="Vector_33" fill-rule="evenodd" clip-rule="evenodd" d="M9.82337 9.91255C9.82337 9.95928 9.79666 10.0041 9.74912 10.0372C9.70159 10.0702 9.63711 10.0888 9.56989 10.0888C9.50266 10.0888 9.43819 10.0702 9.39065 10.0372C9.34311 10.0041 9.31641 9.95928 9.31641 9.91255C9.31641 9.86581 9.34311 9.82099 9.39065 9.78794C9.43819 9.75489 9.50266 9.73633 9.56989 9.73633C9.63711 9.73633 9.70159 9.75489 9.74912 9.78794C9.79666 9.82099 9.82337 9.86581 9.82337 9.91255Z" fill="#FFFF00" stroke="black" stroke-width="1.12719"/>
<path id="Vector_34" fill-rule="evenodd" clip-rule="evenodd" d="M9.50586 10.9328C9.50586 10.975 9.44961 11.0102 9.38281 11.0102C9.31602 11.0102 9.26328 10.975 9.26328 10.9328C9.26328 10.8906 9.31602 10.8555 9.38281 10.8555C9.44961 10.8555 9.50586 10.8906 9.50586 10.9328ZM8.87305 10.9328C8.87305 10.975 8.8168 11.0102 8.75 11.0102C8.6832 11.0102 8.62695 10.975 8.62695 10.9328C8.62695 10.8906 8.6832 10.8555 8.75 10.8555C8.8168 10.8555 8.86953 10.8906 8.86953 10.9328H8.87305Z" fill="black"/>
<path id="Vector_35" fill-rule="evenodd" clip-rule="evenodd" d="M9.06682 8.43356L8.91698 8.24449L8.6711 8.2757L8.70567 8.04074L8.50781 7.8994L8.70567 7.75622L8.6711 7.52126L8.91698 7.5543L9.06682 7.36523L9.21665 7.5543L9.46062 7.52126L9.42796 7.75622L9.6239 7.8994L9.42796 8.04258L9.46062 8.2757L9.21473 8.24449L9.06682 8.43356Z" fill="#FFFF00" stroke="black" stroke-width="0.712176"/>
<path id="Vector_36" fill-rule="evenodd" clip-rule="evenodd" d="M10.1104 9.16428L10.5297 9.3656L10.9491 9.16428L10.5297 8.96484L10.1104 9.16428Z" fill="#FFFF00" stroke="black" stroke-width="0.729978"/>
<path id="Vector_37" fill-rule="evenodd" clip-rule="evenodd" d="M7.1123 9.16428L7.5317 9.3656L7.9511 9.16428L7.5317 8.96484L7.1123 9.16428Z" fill="#FFFF00" stroke="black" stroke-width="0.729978"/>
<path id="Vector_38" fill-rule="evenodd" clip-rule="evenodd" d="M10.7627 10.3598C10.6343 10.2784 10.418 10.319 10.2967 10.3855C10.1755 10.452 10.0543 10.5185 10.038 10.7596C9.89872 10.528 10.0084 10.3137 10.1928 10.2125C10.2906 10.1666 10.4026 10.1564 10.5077 10.1838C10.6128 10.2112 10.7038 10.2744 10.7636 10.3614L10.7627 10.3598Z" fill="#FFFF00" stroke="black" stroke-width="0.730264"/>
<path id="Vector_39" fill-rule="evenodd" clip-rule="evenodd" d="M7.88212 9.96468C7.88212 9.99986 7.8675 10.0336 7.84146 10.0585C7.81543 10.0833 7.78012 10.0973 7.74331 10.0973C7.70649 10.0973 7.67118 10.0833 7.64515 10.0585C7.61912 10.0336 7.60449 9.99986 7.60449 9.96468C7.60449 9.9295 7.61912 9.89576 7.64515 9.87088C7.67118 9.84601 7.70649 9.83203 7.74331 9.83203C7.78012 9.83203 7.81543 9.84601 7.84146 9.87088C7.8675 9.89576 7.88212 9.9295 7.88212 9.96468Z" fill="#FFFF00" stroke="black" stroke-width="0.729978"/>
<path id="Vector_40" fill-rule="evenodd" clip-rule="evenodd" d="M7.7415 10.4315C7.7415 10.4667 7.72687 10.5004 7.70084 10.5253C7.67481 10.5501 7.6395 10.5641 7.60268 10.5641C7.56587 10.5641 7.53056 10.5501 7.50452 10.5253C7.47849 10.5004 7.46387 10.4667 7.46387 10.4315C7.46387 10.3963 7.47849 10.3626 7.50452 10.3377C7.53056 10.3128 7.56587 10.2988 7.60268 10.2988C7.6395 10.2988 7.67481 10.3128 7.70084 10.3377C7.72687 10.3626 7.7415 10.3963 7.7415 10.4315Z" fill="#FFFF00" stroke="black" stroke-width="0.729978"/>
<path id="Vector_41" fill-rule="evenodd" clip-rule="evenodd" d="M7.67118 10.1658C7.67118 10.201 7.65656 10.2348 7.63053 10.2596C7.60449 10.2845 7.56918 10.2985 7.53237 10.2985C7.49555 10.2985 7.46024 10.2845 7.43421 10.2596C7.40818 10.2348 7.39355 10.201 7.39355 10.1658C7.39355 10.1307 7.40818 10.0969 7.43421 10.0721C7.46024 10.0472 7.49555 10.0332 7.53237 10.0332C7.56918 10.0332 7.60449 10.0472 7.63053 10.0721C7.65656 10.0969 7.67118 10.1307 7.67118 10.1658Z" fill="#FFFF00" stroke="black" stroke-width="0.729978"/>
<path id="Vector_42" fill-rule="evenodd" clip-rule="evenodd" d="M8.01884 10.4315C8.01884 10.4667 8.00421 10.5004 7.97818 10.5253C7.95215 10.5501 7.91684 10.5641 7.88002 10.5641C7.84321 10.5641 7.8079 10.5501 7.78187 10.5253C7.75584 10.5004 7.74121 10.4667 7.74121 10.4315C7.74121 10.3963 7.75584 10.3626 7.78187 10.3377C7.8079 10.3128 7.84321 10.2988 7.88002 10.2988C7.91684 10.2988 7.95215 10.3128 7.97818 10.3377C8.00421 10.3626 8.01884 10.3963 8.01884 10.4315Z" fill="#FFFF00" stroke="black" stroke-width="0.729978"/>
<path id="Vector_43" fill-rule="evenodd" clip-rule="evenodd" d="M8.08915 10.1658C8.08915 10.201 8.07453 10.2348 8.04849 10.2596C8.02246 10.2845 7.98715 10.2985 7.95034 10.2985C7.91352 10.2985 7.87821 10.2845 7.85218 10.2596C7.82615 10.2348 7.81152 10.201 7.81152 10.1658C7.81152 10.1307 7.82615 10.0969 7.85218 10.0721C7.87821 10.0472 7.91352 10.0332 7.95034 10.0332C7.98715 10.0332 8.02246 10.0472 8.04849 10.0721C8.07453 10.0969 8.08915 10.1307 8.08915 10.1658Z" fill="#FFFF00" stroke="black" stroke-width="0.729978"/>
<path id="Vector_44" fill-rule="evenodd" clip-rule="evenodd" d="M7.88212 10.2323C7.88212 10.2674 7.8675 10.3012 7.84146 10.326C7.81543 10.3509 7.78012 10.3649 7.74331 10.3649C7.70649 10.3649 7.67118 10.3509 7.64515 10.326C7.61912 10.3012 7.60449 10.2674 7.60449 10.2323C7.60449 10.1971 7.61912 10.1633 7.64515 10.1385C7.67118 10.1136 7.70649 10.0996 7.74331 10.0996C7.78012 10.0996 7.81543 10.1136 7.84146 10.1385C7.8675 10.1633 7.88212 10.1971 7.88212 10.2323Z" fill="#FFFF00" stroke="black" stroke-width="0.729978"/>
<g id="Group_5">
<path id="Vector_45" fill-rule="evenodd" clip-rule="evenodd" d="M8.39238 5.59023C8.04082 5.59023 7.99512 5.64297 7.83691 5.6957C7.83691 5.54453 8.22715 5.36523 8.57871 5.36523C8.57871 5.47773 8.4873 5.58672 8.39238 5.58672V5.59023Z" fill="#DA4500"/>
<path id="Vector_46" fill-rule="evenodd" clip-rule="evenodd" d="M8.92969 5.23125C8.92969 5.30508 8.86641 5.36484 8.78906 5.36484C8.71172 5.36484 8.64844 5.30508 8.64844 5.23125C8.64844 5.15742 8.71172 5.09766 8.78906 5.09766C8.86641 5.09766 8.92969 5.15742 8.92969 5.23125Z" fill="#CAC9C7"/>
<path id="Vector_47" fill-rule="evenodd" clip-rule="evenodd" d="M7.46094 4.76522V4.96466H7.80945V5.96373H8.02013V4.96466H8.36864V4.76522H8.02013V4.49805H7.80748V4.76522H7.46094Z" fill="#FFFF00" stroke="black" stroke-width="0.729978"/>
<path id="Vector_48" fill-rule="evenodd" clip-rule="evenodd" d="M8.57891 5.36523C8.2954 5.3496 8.0115 5.38778 7.74219 5.47773C7.74219 5.27031 7.98125 5.03125 8.39258 5.03125C8.4875 5.03125 8.57891 5.25273 8.57891 5.36523Z" fill="#DA4500"/>
</g>
<g id="Group_6">
<path id="Vector_49" fill-rule="evenodd" clip-rule="evenodd" d="M4.95082 8.90325C4.8504 8.68679 4.85273 8.61771 5.03137 8.86537L7.18318 12.9449L7.11732 12.9634L4.95193 8.90409L4.95082 8.90325Z" fill="#008500" stroke="black" stroke-width="0.268397"/>
<path id="Vector_50" fill-rule="evenodd" clip-rule="evenodd" d="M6.40966 11.5865C6.43427 11.2841 5.88232 10.9572 5.85771 10.9782C5.83661 10.9993 5.89286 11.1751 5.99833 11.2665C5.79443 11.1646 5.58349 11.1013 5.57646 11.147C5.5624 11.2068 5.89286 11.3509 5.92099 11.4072C5.92099 11.4458 5.6749 11.4423 5.68193 11.481C5.68544 11.5232 6.3745 11.8677 6.40966 11.5865ZM5.85771 10.7075C5.8788 10.4052 5.32685 10.0747 5.30224 10.0993C5.28115 10.1204 5.3374 10.2962 5.44286 10.3876C5.24247 10.2822 5.03154 10.2189 5.0245 10.2646C5.01044 10.3243 5.34091 10.4685 5.36552 10.5247C5.36904 10.5669 5.12294 10.5599 5.12997 10.6021C5.13349 10.6407 5.82255 10.9888 5.85771 10.7075ZM5.43583 9.90598C5.45693 9.60364 4.90146 9.27669 4.88036 9.29778C4.85927 9.31887 4.91552 9.49466 5.02099 9.58606C4.81708 9.48059 4.60615 9.42083 4.60263 9.46653C4.58505 9.5263 4.91904 9.67044 4.94365 9.72669C4.94716 9.76536 4.70107 9.76184 4.70458 9.80051C4.71161 9.83919 5.39716 10.1872 5.43232 9.90598H5.43583ZM5.01396 9.04114C5.03857 8.7388 4.48661 8.40833 4.462 8.43294C4.44091 8.45403 4.49716 8.62981 4.60263 8.72122C4.39872 8.61575 4.18779 8.55247 4.18427 8.59817C4.16669 8.65794 4.49716 8.80208 4.52529 8.85833C4.5288 8.90051 4.28271 8.89348 4.28622 8.93567C4.28974 8.97083 4.9788 9.32239 5.01396 9.04114Z" fill="#008F00"/>
<path id="Vector_51" fill-rule="evenodd" clip-rule="evenodd" d="M5.15763 8.99971C5.42834 8.83799 5.3756 8.21924 5.34396 8.21573C5.31232 8.20869 5.1963 8.35635 5.18224 8.49346C5.14709 8.27549 5.07677 8.0751 5.04162 8.09971C4.97834 8.12432 5.05216 8.46182 5.02052 8.51807C4.98888 8.54268 4.84474 8.35284 4.81662 8.37744C4.78498 8.40557 4.90099 9.14034 5.15763 8.99971ZM5.54435 9.7626C5.85724 9.69229 6.02248 9.09463 5.99787 9.08057C5.96974 9.06651 5.80802 9.16846 5.74826 9.29151C5.79396 9.07705 5.79396 8.86612 5.74826 8.87315C5.68498 8.87666 5.63224 9.21768 5.58654 9.25987C5.54787 9.27744 5.48107 9.04893 5.4424 9.06651C5.40373 9.08057 5.25607 9.81182 5.54787 9.7626H5.54435ZM6.01193 10.5396C6.29318 10.3989 6.30021 9.78018 6.26857 9.77315C6.23693 9.76612 6.11037 9.90323 6.08224 10.0368C6.06818 9.81885 6.01896 9.61494 5.97677 9.63252C5.91349 9.6501 5.95216 9.99463 5.91701 10.0474C5.88185 10.0685 5.76232 9.86455 5.72716 9.88916C5.69201 9.91377 5.74123 10.6591 6.00841 10.5396H6.01193ZM6.51115 11.5591C6.80646 11.4466 6.88029 10.8278 6.84865 10.8208C6.82052 10.8067 6.67638 10.9298 6.63771 11.0599C6.64826 10.8419 6.61662 10.6345 6.57443 10.6485C6.50763 10.6626 6.51466 11.0071 6.47248 11.0564C6.43732 11.0774 6.33537 10.863 6.30021 10.8806C6.26505 10.9052 6.2299 11.647 6.51115 11.5556V11.5591Z" fill="#008F00"/>
</g>
<path id="Vector_52" fill-rule="evenodd" clip-rule="evenodd" d="M7.16235 12.6161C7.08749 12.7443 6.8507 12.7558 6.63064 12.6384C6.41058 12.521 6.29665 12.3223 6.37152 12.1942C6.44638 12.0661 6.68489 12.0554 6.90323 12.1719C7.12157 12.2884 7.23722 12.488 7.16235 12.6161Z" fill="#FF1900" stroke="black" stroke-width="0.73025"/>
<g id="Group_7">
<path id="Vector_53" fill-rule="evenodd" clip-rule="evenodd" d="M12.8429 8.32405L12.8799 8.22843L12.9797 8.25986L13.0168 8.16424L13.1166 8.19566L13.08 8.28994L13.1827 8.32226L13.1451 8.41923L13.0425 8.38691L12.9501 8.62528L12.8503 8.59386L12.9427 8.35548L12.8429 8.32405ZM12.6286 9.16623L12.7284 9.19766L11.6561 11.9653L11.5563 11.9338L12.6286 9.16623Z" fill="#FFFF00" stroke="black" stroke-width="0.250748"/>
<path id="Vector_54" fill-rule="evenodd" clip-rule="evenodd" d="M11.5237 11.8715L11.7261 11.9352L11.4302 12.6989L11.2278 12.6351L11.5237 11.8715ZM12.7139 8.65901L13.0176 8.75464C13.2186 8.81794 12.7628 9.26371 12.7628 9.26371L12.5617 9.20041C12.5617 9.20041 12.5115 8.59526 12.7139 8.65901ZM12.993 8.6653C12.9773 8.70571 12.9206 8.72411 12.865 8.7066C12.8094 8.68909 12.7763 8.6424 12.7915 8.60335C12.8066 8.56429 12.8638 8.54454 12.9194 8.56205C12.975 8.57956 13.0081 8.62625 12.9925 8.66665L12.993 8.6653Z" fill="#FFFF00" stroke="black" stroke-width="0.250748"/>
</g>
<path id="Vector_55" fill-rule="evenodd" clip-rule="evenodd" d="M11.6888 12.2683C11.7736 12.3906 11.6758 12.597 11.4656 12.73C11.2555 12.863 11.0185 12.8685 10.9337 12.7462C10.8489 12.6238 10.9484 12.4164 11.1569 12.2845C11.3654 12.1525 11.604 12.1459 11.6888 12.2683Z" fill="#FF1900" stroke="black" stroke-width="0.730307"/>
</g>
<defs>
<clipPath id="clip0_186_10532">
<rect width="18" height="18" fill="white"/>
</clipPath>
</defs>
</svg>
