<svg width="18" height="18" viewBox="0 0 18 18" fill="none" xmlns="http://www.w3.org/2000/svg">
<g id="mh" clip-path="url(#clip0_186_10721)">
<g id="Group">
<path id="Vector" fill-rule="evenodd" clip-rule="evenodd" d="M0 0H17.9965V18H0V0Z" fill="#3B5AA3"/>
<path id="Vector_2" fill-rule="evenodd" clip-rule="evenodd" d="M4.88672 0.0429688L4.70039 3.13672L3.88477 1.16445L4.20117 3.26328L2.93906 1.56875L3.76523 3.50234L2.11289 2.21914L3.39961 3.83281L1.5293 3.00313L3.16758 4.24414L1.12852 3.97344L3.05859 4.73633L0.0351562 5.01406L3.05859 5.21445L1.14258 6.00195L3.16406 5.73125L1.53281 6.93359L3.42422 6.10391L2.13398 7.72813L3.77578 6.48359L2.95312 8.38203L4.26797 6.73672L3.91641 8.78633L4.73906 6.87031L4.92891 9.89727L5.21719 6.87734L5.93086 8.80742L5.66016 6.72969L6.96797 8.375L6.10664 6.45195L7.74844 7.77383L6.44766 6.12148L8.39531 6.93359L6.66914 5.675L8.77148 6.02656L6.75703 5.25312L9.88594 5.05977L6.75703 4.76797L8.82422 4.07891L6.69023 4.34609L8.45508 3.11563L6.46523 3.91367L7.83633 2.25078L6.16641 3.55508L6.975 1.5582L5.67422 3.25625L5.95547 1.13633L5.18203 3.13672L4.89375 0.0429688H4.88672Z" fill="white"/>
<path id="Vector_3" fill-rule="evenodd" clip-rule="evenodd" d="M0 17.5148L18 0V3.25898L0 18V17.5148Z" fill="#E2AE57"/>
<path id="Vector_4" fill-rule="evenodd" clip-rule="evenodd" d="M0.632422 17.9992L17.9996 6.72109L17.9961 3.13867L-0.00390625 17.9992H0.628906H0.632422Z" fill="white"/>
</g>
</g>
<defs>
<clipPath id="clip0_186_10721">
<rect width="18" height="18" fill="white"/>
</clipPath>
</defs>
</svg>
