<svg width="18" height="18" viewBox="0 0 18 18" fill="none" xmlns="http://www.w3.org/2000/svg">
<g id="mk" clip-path="url(#clip0_186_10727)">
<path id="Vector" d="M0 0H18V18H0V0Z" fill="#D20000"/>
<path id="Vector_2" d="M0 0H3.05156L9 8.68008L14.9484 0H18L0 18H3.05156L9 9.31992L14.9484 18H18L0 0ZM18 7.2V10.8L0 7.2V10.8L18 7.2ZM7.2 0L9 7.71328L10.8 0H7.2ZM7.2 18L9 10.2867L10.8 18H7.2Z" fill="#FFE600"/>
<path id="Vector_3" d="M8.9998 11.8941C10.5978 11.8941 11.8932 10.5987 11.8932 9.00078C11.8932 7.40282 10.5978 6.10742 8.9998 6.10742C7.40185 6.10742 6.10645 7.40282 6.10645 9.00078C6.10645 10.5987 7.40185 11.8941 8.9998 11.8941Z" fill="#FFE600" stroke="#D20000" stroke-width="18.3"/>
</g>
<defs>
<clipPath id="clip0_186_10727">
<rect width="18" height="18" fill="white"/>
</clipPath>
</defs>
</svg>
