<svg width="18" height="18" viewBox="0 0 18 18" fill="none" xmlns="http://www.w3.org/2000/svg">
<g id="mm" clip-path="url(#clip0_186_10736)">
<path id="Vector" d="M0 0H18V18H0V0Z" fill="#FECB00"/>
<path id="Vector_2" d="M0 6.00195H18V18.0008H0V6.00195Z" fill="#34B233"/>
<path id="Vector_3" d="M0 11.998H18V17.9992H0V11.998Z" fill="#EA2839"/>
<path id="mm-a" d="M10.9895 9.63203H7.00977L8.99961 2.99805L10.9895 9.63203Z" fill="white"/>
<path id="mm-a_2" d="M7.39066 8.46371L10.6103 10.8029L5.10112 15.0003L7.39066 8.46371Z" fill="white"/>
<path id="mm-a_3" d="M9.61526 7.73972L8.38547 11.5246L2.69107 7.58216L9.61526 7.73972Z" fill="white"/>
<path id="mm-a_4" d="M9.61483 11.5244L8.38504 7.73947L15.3092 7.58191L9.61483 11.5244Z" fill="white"/>
<path id="mm-a_5" d="M7.3898 10.8023L10.6094 8.46307L12.899 14.9997L7.3898 10.8023Z" fill="white"/>
</g>
<defs>
<clipPath id="clip0_186_10736">
<rect width="18" height="18" fill="white"/>
</clipPath>
</defs>
</svg>
