<svg width="18" height="18" viewBox="0 0 18 18" fill="none" xmlns="http://www.w3.org/2000/svg">
<g id="mn" clip-path="url(#clip0_186_10745)">
<path id="Vector" d="M0 0H18V18H0V0Z" fill="#DA2032"/>
<path id="Vector_2" d="M6.00098 0H11.9986V18H6.00098V0Z" fill="#0066B3"/>
<path id="Vector_3" d="M2.99902 8.14258C3.67859 8.14258 4.22949 7.59168 4.22949 6.91211C4.22949 6.23254 3.67859 5.68164 2.99902 5.68164C2.31945 5.68164 1.76855 6.23254 1.76855 6.91211C1.76855 7.59168 2.31945 8.14258 2.99902 8.14258Z" fill="#FFD900"/>
<path id="Vector_4" d="M2.99922 7.6957C3.74092 7.6957 4.34219 7.09444 4.34219 6.35273C4.34219 5.61103 3.74092 5.00977 2.99922 5.00977C2.25752 5.00977 1.65625 5.61103 1.65625 6.35273C1.65625 7.09444 2.25752 7.6957 2.99922 7.6957Z" fill="#DA2032"/>
<path id="Vector_5" d="M2.99902 7.4707C3.49414 7.4707 3.89551 7.06933 3.89551 6.57422C3.89551 6.0791 3.49414 5.67773 2.99902 5.67773C2.50391 5.67773 2.10254 6.0791 2.10254 6.57422C2.10254 7.06933 2.50391 7.4707 2.99902 7.4707Z" fill="#FFD900"/>
<path id="Vector_6" d="M3.09395 3.66602C3.04798 3.68569 3.00846 3.71786 2.97987 3.75888C2.95128 3.7999 2.93477 3.84811 2.93223 3.89805C2.9252 3.97539 2.96035 4.05977 2.96387 4.13359C2.96387 4.26367 2.83027 4.30586 2.83027 4.48867C2.83027 4.55195 2.89004 4.62227 2.89004 4.78398C2.87949 4.87188 2.83027 4.88945 2.77754 4.89648C2.7477 4.89648 2.71909 4.88463 2.69799 4.86353C2.67689 4.84244 2.66504 4.81382 2.66504 4.78398C2.66526 4.7551 2.67659 4.7274 2.69668 4.70664C2.69996 4.7029 2.70348 4.69937 2.70723 4.69609C2.73184 4.67148 2.76699 4.66094 2.76699 4.59063C2.76699 4.55547 2.7459 4.52734 2.7248 4.46406C2.71507 4.42689 2.71381 4.38801 2.72111 4.35028C2.72841 4.31255 2.74409 4.27695 2.76699 4.24609C2.68965 4.27422 2.64043 4.35156 2.61582 4.41836C2.59121 4.49922 2.6123 4.54844 2.57715 4.61875C2.55605 4.66094 2.52793 4.67852 2.50684 4.71719C2.4752 4.75937 2.44355 4.85078 2.44355 4.89648C2.45899 5.03393 2.52453 5.16087 2.62765 5.25305C2.73076 5.34523 2.86423 5.39619 3.00254 5.39619C3.14085 5.39619 3.27431 5.34523 3.37743 5.25305C3.48055 5.16087 3.54608 5.03393 3.56152 4.89648C3.56152 4.85078 3.52637 4.75586 3.49824 4.71719C3.47363 4.68203 3.44551 4.66094 3.42793 4.61875C3.39277 4.54844 3.41387 4.49922 3.38574 4.41836C3.36113 4.34805 3.31543 4.27773 3.23457 4.24258C3.2586 4.27355 3.27521 4.30962 3.28313 4.34801C3.29106 4.38641 3.29008 4.42611 3.28027 4.46406C3.25566 4.52734 3.23457 4.55898 3.23457 4.59414C3.23457 4.66094 3.26973 4.67148 3.29434 4.69961C3.29798 4.70175 3.3015 4.7041 3.30488 4.70664C3.32626 4.72684 3.33888 4.7546 3.34004 4.78398C3.34005 4.79906 3.33702 4.81398 3.33115 4.82786C3.32528 4.84175 3.31668 4.85431 3.30586 4.8648C3.29503 4.8753 3.28221 4.88351 3.26816 4.88895C3.2541 4.89439 3.23909 4.89696 3.22402 4.89648C3.16426 4.88945 3.11855 4.86133 3.11152 4.78398C3.11152 4.56953 3.20645 4.55547 3.20645 4.39727C3.20645 4.16875 3.00254 4.05977 3.00254 3.89453C3.00254 3.83828 3.01309 3.74336 3.09395 3.66602ZM0.538086 8.36289H1.65957V13.7348H0.538086V8.36289ZM4.34199 8.36289H5.45996V13.7348H4.34199V8.36289ZM1.88105 8.36289H4.12051L2.99902 9.03437L1.88105 8.36289ZM1.88105 9.25937H4.12051V9.70234H1.88105V9.25937ZM1.88105 12.3883H4.12051V12.8383H1.88105V12.3883ZM1.88105 13.0633H4.12051L2.99902 13.7312L1.88105 13.0633Z" fill="#FFD900"/>
<path id="Vector_7" d="M2.99883 12.1676C3.61627 12.1676 4.1168 11.667 4.1168 11.0496C4.1168 10.4322 3.61627 9.93164 2.99883 9.93164C2.38139 9.93164 1.88086 10.4322 1.88086 11.0496C1.88086 11.667 2.38139 12.1676 2.99883 12.1676Z" fill="#FFD900"/>
<g id="Group">
<path id="Vector_8" d="M2.99813 10.6799C3.12169 10.6799 3.22185 10.5797 3.22185 10.4561C3.22185 10.3326 3.12169 10.2324 2.99813 10.2324C2.87458 10.2324 2.77441 10.3326 2.77441 10.4561C2.77441 10.5797 2.87458 10.6799 2.99813 10.6799Z" fill="#DA2032"/>
<path id="Vector_9" d="M2.99813 11.8654C3.12169 11.8654 3.22185 11.7652 3.22185 11.6417C3.22185 11.5181 3.12169 11.418 2.99813 11.418C2.87458 11.418 2.77441 11.5181 2.77441 11.6417C2.77441 11.7652 2.87458 11.8654 2.99813 11.8654Z" fill="#DA2032"/>
<path id="Vector_10" d="M2.99787 9.79688C3.1729 9.79688 3.34077 9.86641 3.46454 9.99018C3.58831 10.1139 3.65784 10.2818 3.65784 10.4568C3.65784 10.6319 3.58831 10.7998 3.46454 10.9235C3.34077 11.0473 3.1729 11.1168 2.99787 11.1168C2.85843 11.1168 2.72471 11.1722 2.62611 11.2708C2.52751 11.3694 2.47212 11.5031 2.47212 11.6426C2.47212 11.782 2.52751 11.9157 2.62611 12.0143C2.72471 12.1129 2.85843 12.1683 2.99787 12.1683V12.3025C2.82283 12.3025 2.65496 12.233 2.53119 12.1092C2.40742 11.9855 2.33789 11.8176 2.33789 11.6426C2.33789 11.4675 2.40742 11.2997 2.53119 11.1759C2.65496 11.0521 2.82283 10.9826 2.99787 10.9826C3.1373 10.9826 3.27103 10.9272 3.36962 10.8286C3.46822 10.73 3.52361 10.5963 3.52361 10.4568C3.52361 10.3174 3.46822 10.1837 3.36962 10.0851C3.27103 9.9865 3.1373 9.93111 2.99787 9.93111V9.79688Z" fill="#DA2032"/>
</g>
</g>
<defs>
<clipPath id="clip0_186_10745">
<rect width="18" height="18" fill="white"/>
</clipPath>
</defs>
</svg>
