<svg width="18" height="18" viewBox="0 0 18 18" fill="none" xmlns="http://www.w3.org/2000/svg">
<g id="mo" clip-path="url(#clip0_186_10757)">
<path id="Vector" d="M0 0H18V18H0V0Z" fill="#00785E"/>
<path id="Vector_2" d="M9.57988 5.18203L8.9998 3.39258L8.41973 5.18555L9.94199 4.07812H8.05762L9.57988 5.18203Z" fill="#FBD116"/>
<g id="mo-a">
<path id="Vector_3" d="M9.00039 12.4359H5.15781C5.11003 12.3876 5.06314 12.3384 5.01719 12.2883H9.00039C9.01502 12.2937 9.02779 12.3032 9.03715 12.3156C9.0465 12.3281 9.05205 12.343 9.05312 12.3586C9.05312 12.3937 9.03203 12.4254 9.00039 12.4359ZM9.00039 11.2617C9.02148 11.216 9.06719 11.1105 9.04609 10.9805C9.03884 10.9302 9.0234 10.8816 9.00039 10.8363C8.65437 11.1645 8.23671 11.4076 7.78047 11.5465C7.49546 11.6327 7.19932 11.6765 6.90156 11.6766H4.53203C4.60235 11.7799 4.67622 11.8807 4.75352 11.9789H7.03867C7.75691 11.9799 8.45213 11.7257 9.00039 11.2617ZM4.89063 10.3371C4.77461 10.3813 4.65247 10.4074 4.52852 10.4145C4.81326 10.7381 5.16372 10.9974 5.55654 11.1751C5.94936 11.3527 6.37553 11.4445 6.80664 11.4445C7.21651 11.4449 7.62221 11.3623 7.99925 11.2015C8.37629 11.0408 8.71685 10.8053 9.00039 10.5094C9.10607 9.77687 9.16244 9.0381 9.16914 8.29805C9.17816 7.44887 9.12174 6.60027 9.00039 5.75977C8.7543 5.98125 8.29023 6.46289 8.07227 7.19766C7.98865 7.47834 7.94603 7.76963 7.9457 8.0625C7.94478 8.66468 8.1235 9.25345 8.45898 9.75352C8.04716 9.22119 7.82449 8.56678 7.82617 7.89375C7.82446 7.44413 7.92294 6.99977 8.11445 6.59297C7.9843 6.45528 7.88801 6.28918 7.8332 6.10781C7.57417 6.56438 7.43846 7.08053 7.43945 7.60547C7.43919 8.25641 7.64877 8.89009 8.03711 9.4125C7.68472 9.04106 7.25644 8.74988 6.78143 8.55878C6.30642 8.36769 5.79582 8.28116 5.28438 8.30508C5.38733 8.40102 5.47296 8.514 5.5375 8.63906C6.01935 8.63936 6.49613 8.73733 6.93905 8.92707C7.38196 9.1168 7.78182 9.39436 8.11445 9.74297C7.47178 9.20538 6.66014 8.91159 5.82227 8.91328C5.33711 8.91328 4.87305 9.0082 4.45117 9.1875C4.68527 9.80464 5.11358 10.329 5.67159 10.6815C6.22959 11.0341 6.88705 11.1958 7.54492 11.1422C7.36627 11.1746 7.18509 11.1911 7.00352 11.1914C6.21489 11.1924 5.45694 10.8859 4.89063 10.3371ZM9.00039 13.6664H7.01055C7.64379 13.9179 8.31905 14.0467 9.00039 14.0461C9.03023 13.9885 9.04589 13.9246 9.04609 13.8598C9.04689 13.7925 9.0312 13.7262 9.00039 13.6664ZM9.00039 12.7453H5.48828C5.58395 12.8272 5.68245 12.9058 5.78359 12.9809H9.00039C9.03086 12.9498 9.04844 12.9083 9.04961 12.8648C9.04961 12.7945 9.00742 12.7559 9.00039 12.7453ZM9.00039 13.2164H6.12461C6.29921 13.3263 6.47997 13.4261 6.66602 13.5152H9.00039C9.02983 13.4679 9.04452 13.4128 9.04258 13.357C9.04121 13.3072 9.02666 13.2587 9.00039 13.2164Z" fill="white"/>
<path id="Vector_4" d="M5.47031 7.44297L5.22422 6.16328L4.67227 7.34453L5.81133 6.71172L4.51758 6.55352L5.47031 7.44297ZM7.20352 5.37578L6.16289 4.5918L6.54258 5.83633L6.96797 4.60586L5.90273 5.35469L7.20352 5.37578Z" fill="#FBD116"/>
</g>
<g id="mo-a_2">
<path id="Vector_5" d="M8.99961 12.4359H12.8422C12.89 12.3876 12.9369 12.3384 12.9828 12.2883H8.99961C8.98498 12.2937 8.97221 12.3032 8.96285 12.3156C8.9535 12.3281 8.94795 12.343 8.94688 12.3586C8.94688 12.3937 8.96797 12.4254 8.99961 12.4359ZM8.99961 11.2617C8.97852 11.216 8.93281 11.1105 8.95391 10.9805C8.96116 10.9302 8.9766 10.8816 8.99961 10.8363C9.34563 11.1645 9.76329 11.4076 10.2195 11.5465C10.5045 11.6327 10.8007 11.6765 11.0984 11.6766H13.468C13.3977 11.7799 13.3238 11.8807 13.2465 11.9789H10.9613C10.2431 11.9799 9.54787 11.7257 8.99961 11.2617ZM13.1094 10.3371C13.2254 10.3813 13.3475 10.4074 13.4715 10.4145C13.1867 10.7381 12.8363 10.9974 12.4435 11.1751C12.0506 11.3527 11.6245 11.4445 11.1934 11.4445C10.7835 11.4449 10.3778 11.3623 10.0008 11.2015C9.62371 11.0408 9.28315 10.8053 8.99961 10.5094C8.89393 9.77687 8.83756 9.0381 8.83086 8.29805C8.82184 7.44887 8.87826 6.60027 8.99961 5.75977C9.2457 5.98125 9.70977 6.46289 9.92773 7.19766C10.0113 7.47834 10.054 7.76963 10.0543 8.0625C10.0552 8.66468 9.8765 9.25345 9.54102 9.75352C9.95284 9.22119 10.1755 8.56678 10.1738 7.89375C10.1755 7.44413 10.0771 6.99977 9.88555 6.59297C10.0157 6.45528 10.112 6.28918 10.1668 6.10781C10.4258 6.56438 10.5615 7.08053 10.5605 7.60547C10.5608 8.25641 10.3512 8.89009 9.96289 9.4125C10.3153 9.04106 10.7436 8.74988 11.2186 8.55878C11.6936 8.36769 12.2042 8.28116 12.7156 8.30508C12.6127 8.40102 12.527 8.514 12.4625 8.63906C11.9807 8.63936 11.5039 8.73733 11.061 8.92707C10.618 9.1168 10.2182 9.39436 9.88555 9.74297C10.5282 9.20538 11.3399 8.91159 12.1777 8.91328C12.6629 8.91328 13.127 9.0082 13.5488 9.1875C13.3147 9.80464 12.8864 10.329 12.3284 10.6815C11.7704 11.0341 11.1129 11.1958 10.4551 11.1422C10.6337 11.1746 10.8149 11.1911 10.9965 11.1914C11.7851 11.1924 12.5431 10.8859 13.1094 10.3371ZM8.99961 13.6664H10.9895C10.3562 13.9179 9.68095 14.0467 8.99961 14.0461C8.96977 13.9885 8.95411 13.9246 8.95391 13.8598C8.95311 13.7925 8.9688 13.7262 8.99961 13.6664ZM8.99961 12.7453H12.5117C12.4161 12.8272 12.3176 12.9058 12.2164 12.9809H8.99961C8.96914 12.9498 8.95156 12.9083 8.95039 12.8648C8.95039 12.7945 8.99258 12.7559 8.99961 12.7453ZM8.99961 13.2164H11.8754C11.7008 13.3263 11.52 13.4261 11.334 13.5152H8.99961C8.97017 13.4679 8.95548 13.4128 8.95742 13.357C8.95879 13.3072 8.97334 13.2587 8.99961 13.2164Z" fill="white"/>
<path id="Vector_6" d="M12.5297 7.44297L12.7758 6.16328L13.3277 7.34453L12.1887 6.71172L13.4824 6.55352L12.5297 7.44297ZM10.7965 5.37578L11.8371 4.5918L11.4574 5.83633L11.032 4.60586L12.0973 5.35469L10.7965 5.37578Z" fill="#FBD116"/>
</g>
</g>
<defs>
<clipPath id="clip0_186_10757">
<rect width="18" height="18" fill="white"/>
</clipPath>
</defs>
</svg>
