<svg width="18" height="18" viewBox="0 0 18 18" fill="none" xmlns="http://www.w3.org/2000/svg">
<g id="mp" clip-path="url(#clip0_186_10766)">
<g id="Clip path group">
<mask id="mask0_186_10766" style="mask-type:luminance" maskUnits="userSpaceOnUse" x="-1" y="0" width="19" height="18">
<g id="mp-a">
<path id="Vector" d="M-0.000976562 0H17.9963V17.9972H-0.000976562V0Z" fill="white"/>
</g>
</mask>
<g mask="url(#mask0_186_10766)">
<g id="Group">
<path id="Vector_2" fill-rule="evenodd" clip-rule="evenodd" d="M-9 0H26.9981V17.9972H-9V0Z" fill="#0071BC"/>
<path id="Vector_3" fill-rule="evenodd" clip-rule="evenodd" d="M11.0798 14.2384C11.0798 14.2384 11.7148 13.5672 12.3243 13.6942C12.5058 12.9902 13.1988 12.9322 13.1988 12.9322C13.1988 12.9322 13.1299 12.152 14.0152 11.9815C14.0406 11.4518 14.5776 11.0091 14.5776 11.0091C14.5776 11.0091 14.4688 10.189 15.0312 9.99673C14.6865 9.34361 15.1473 8.87191 15.14 8.85739C15.1328 8.84288 14.5595 7.82328 15.0711 7.533C14.5268 7.07581 14.7082 6.55331 14.7082 6.55331C14.7082 6.55331 14.1132 6.40454 14.3273 5.69336C13.841 5.60991 13.7431 4.82253 13.7431 4.82253C13.7431 4.82253 12.9883 4.97129 12.9013 4.31817C12.4042 4.39799 12.3497 3.90815 12.3425 3.90815C12.3388 3.90815 11.3628 4.17303 11.1669 3.43645C10.7895 3.62876 10.6226 3.28042 10.6226 3.28042C10.6226 3.28042 10.0783 3.54893 9.75537 3.03006C9.1095 3.43282 8.75028 3.01192 8.75028 3.01192C8.75028 3.01192 7.90122 3.57433 7.62183 3.13891C7.1211 3.6469 6.6748 3.42919 6.6748 3.42919C6.6748 3.42919 6.29743 4.09683 5.68422 3.92629C5.54634 4.55039 4.84242 4.56128 4.84242 4.56128C4.84242 4.56128 4.91498 5.1128 4.07318 5.25794C3.96432 5.90381 3.52528 6.0163 3.52528 6.0163C3.52528 6.0163 3.56882 6.64402 3.16969 6.84359C3.31483 7.19918 2.94472 7.63097 2.94472 7.63097C2.94472 7.63097 3.3366 8.12807 2.80321 8.67234C3.31845 8.80659 2.94835 9.69194 2.94835 9.69194C2.94835 9.69194 3.65227 10.0112 3.20597 10.5991C3.71396 10.7587 3.55431 11.1651 3.56156 11.401C3.88813 11.5461 4.17115 11.4735 4.03327 12.1267C5.02747 12.2355 4.55577 12.787 4.55577 12.787C4.55577 12.787 5.02021 12.8052 4.83879 13.1717C5.68422 13.1535 5.80759 13.8066 5.80759 13.8066C5.80759 13.8066 6.59497 13.5998 6.7002 13.9046C6.80179 14.2094 6.35549 16.2631 6.35549 16.2631C6.35549 16.2631 5.69148 16.2631 5.19438 15.7334C4.03689 15.7043 4.29452 14.9423 4.27637 14.9423C4.25823 14.9423 3.89175 15.0802 3.70307 14.4452C2.92658 14.6049 2.95198 13.9518 2.94472 13.9445C2.93747 13.9409 2.59639 13.7885 2.72701 13.4656C1.92875 13.5381 1.9868 12.758 1.9868 12.758C1.81264 12.6854 1.74732 12.5222 1.77272 12.3589C1.67113 12.3226 0.959945 12.3117 1.32642 11.3792C0.651525 10.9692 1.07243 10.4975 1.07243 10.4975C1.07243 10.4975 0.136281 10.0149 0.85472 9.45972C0.324962 8.67234 0.905518 8.27321 0.905518 8.27321C0.905518 8.27321 0.16168 7.51848 0.916403 6.98147C0.793035 5.83124 1.47882 5.55911 1.47882 5.55911C1.47882 5.55911 1.11597 4.62659 2.09566 4.23471C2.15734 3.29131 2.8395 3.26228 2.8395 3.26228C2.8395 3.26228 2.85764 2.51119 3.92804 2.58738C4.13849 1.91612 4.87144 2.05037 4.87144 2.05037C4.87144 2.05037 5.09641 1.23759 6.09061 1.62947C6.5986 0.638893 7.34969 1.14688 7.34969 1.14688C7.34969 1.14688 7.82502 0.834831 8.0645 0.929171C8.36567 0.413927 9.00791 0.911029 9.42518 1.01263C9.57758 0.95457 10.1146 0.548181 10.5282 1.0598C11.0798 0.696948 11.5478 1.35007 11.5478 1.35007C11.5478 1.35007 12.3062 0.961827 12.6582 1.84355C14.2656 1.69841 14.0333 2.74704 14.0333 2.74704C14.0333 2.74704 15.2961 2.45676 15.0203 3.71584C16.1705 3.79567 16.0544 4.55039 16.0544 4.55039C16.0544 4.55039 16.7801 5.10192 16.4608 5.59539C17.1067 5.62442 16.8708 6.24852 16.8708 6.24852C16.8708 6.24852 17.3643 6.4372 16.9543 7.20644C17.9013 7.96479 17.1357 8.71225 17.1357 8.70862C17.1248 8.70137 17.6401 9.31821 17.1756 10.0258C17.3171 11.1506 16.7474 11.4372 16.7474 11.4372C16.7474 11.4372 16.8926 12.1629 16.2612 12.3698C16.2467 13.2224 15.4412 13.3277 15.4412 13.3277C15.4412 13.3277 15.6589 13.6978 14.857 14.0897C14.8244 14.663 13.9898 14.7065 13.9898 14.7065C13.9898 14.7065 13.91 15.7588 12.8468 15.4757C12.5928 16.3175 11.3483 16.0672 11.3229 16.0563C11.2975 16.0454 11.0834 14.2493 11.0834 14.2421L11.0798 14.2384Z" fill="white" stroke="black" stroke-width="1.96099"/>
<path id="Vector_4" fill-rule="evenodd" clip-rule="evenodd" d="M3.36941 4.16606C3.36941 4.16606 3.63791 4.39828 3.58712 4.74662C3.53632 5.09495 3.33675 5.57754 3.37666 5.93676C3.40206 6.0819 3.39118 6.33952 3.39118 6.33952C3.39118 6.33952 3.1517 5.99844 3.14807 5.63197C3.14444 5.26549 3.40932 4.91716 3.40932 4.64502C3.40932 4.37288 3.36215 4.16243 3.36941 4.16606ZM3.23515 4.27129C3.23515 4.27129 2.88682 4.60511 2.84328 4.92804C2.80699 5.09495 2.79611 5.87145 2.79248 6.21978L2.7308 6.89468C2.71991 7.04707 2.98479 6.63343 3.00293 6.29961C2.98835 5.90394 2.99683 5.50777 3.02833 5.11309C3.06099 4.96795 3.05373 4.81193 3.1009 4.67042L3.23515 4.27129Z" fill="#217900" stroke="black" stroke-width="1.96099" stroke-linejoin="round"/>
<g id="Group_2">
<path id="Vector_5" fill-rule="evenodd" clip-rule="evenodd" d="M10.9171 3.18124C10.9171 3.18124 11.3707 2.97079 11.4977 2.58254C11.6247 2.1943 11.1058 2.19067 11.0369 2.31404C10.9679 2.4374 11.0949 2.74583 11.0623 2.82565C11.0296 2.90911 10.8446 3.10504 10.9171 3.18124Z" fill="#FFD200" stroke="#EF8A10" stroke-width="1.96099"/>
<path id="Vector_6" fill-rule="evenodd" clip-rule="evenodd" d="M6.90332 3.32294C6.90332 3.32294 7.19723 2.92018 7.12103 2.51742C7.04846 2.11466 6.58765 2.36502 6.58765 2.50653C6.58765 2.64804 6.8489 2.85487 6.85978 2.94195C6.87067 3.02903 6.80536 3.29028 6.90332 3.32294ZM6.10869 3.56242C6.10869 3.56242 6.40259 3.15966 6.3264 2.7569C6.25383 2.35414 5.79301 2.6045 5.79301 2.74601C5.79301 2.88752 6.05426 3.09435 6.06515 3.18143C6.07603 3.26851 6.01072 3.52976 6.10869 3.56242ZM5.22697 3.83455C5.22697 3.83455 5.52088 3.43179 5.44468 3.02903C5.37211 2.62627 4.91129 2.87664 4.91129 3.01815C4.91129 3.15966 5.17254 3.36648 5.18343 3.45356C5.19431 3.54065 5.129 3.8019 5.22697 3.83455ZM4.61013 4.4514C4.61013 4.4514 4.90041 4.05226 4.82784 3.6495C4.74801 3.24674 4.29082 3.49711 4.29082 3.63862C4.29082 3.78013 4.55207 3.98695 4.56296 4.07403C4.57384 4.16112 4.50853 4.42237 4.6065 4.45502L4.61013 4.4514ZM3.957 5.05372C3.957 5.05372 4.24728 4.65096 4.17471 4.2482C4.09488 3.84544 3.6377 4.09581 3.6377 4.23732C3.6377 4.37883 3.89895 4.58565 3.90983 4.67273C3.92072 4.75982 3.8554 5.02107 3.95337 5.05372H3.957Z" fill="#FFD200" stroke="#EF8A10" stroke-width="2.68346"/>
<path id="Vector_7" fill-rule="evenodd" clip-rule="evenodd" d="M5.45583 1.56655C5.45583 1.56655 5.06395 1.87497 5.03129 2.28136C4.99501 2.69137 5.503 2.57163 5.53928 2.43738C5.57557 2.2995 5.38326 2.03099 5.39414 1.94391C5.40866 1.85682 5.53928 1.6246 5.45583 1.56655ZM6.76208 1.16378C6.76208 1.16378 6.3702 1.47221 6.33392 1.87859C6.29763 2.28861 6.80562 2.16887 6.84553 2.03462C6.88182 1.89674 6.68951 1.62823 6.70039 1.54115C6.71491 1.45406 6.84553 1.22184 6.76208 1.16378ZM1.89629 4.68704C1.89629 4.68704 1.97612 5.18051 2.31719 5.40547C2.65827 5.63044 2.79978 5.13334 2.69818 5.03174C2.59659 4.93014 2.2664 4.97731 2.19745 4.92289C2.12488 4.87209 1.987 4.63987 1.89629 4.68704ZM1.24316 6.35613C1.24316 6.35613 1.24679 6.85686 1.54796 7.13263C1.84912 7.41202 2.06683 6.94032 1.98337 6.82421C1.89992 6.7081 1.5661 6.70084 1.50441 6.63916C1.44273 6.57384 1.34113 6.32711 1.24316 6.35613ZM2.74898 8.22117C2.74898 8.22117 2.56756 7.75673 2.1902 7.60433C1.81284 7.44831 1.77292 7.96718 1.89266 8.03975C2.00877 8.11957 2.32808 8.01435 2.40428 8.05063C2.4841 8.08692 2.66553 8.28648 2.74898 8.22117ZM2.43331 7.41565C2.43331 7.41565 2.7381 7.01652 2.66916 6.61738C2.60022 6.211 2.1394 6.4541 2.13577 6.59561C2.13577 6.73713 2.38976 6.94758 2.40065 7.03466C2.40791 7.12174 2.33896 7.38299 2.43693 7.41565H2.43331ZM11.8456 3.58398C11.8456 3.58398 12.2955 3.37353 12.4261 2.98528C12.5568 2.59703 12.0343 2.5934 11.9653 2.71677C11.8964 2.84014 12.0234 3.14856 11.9907 3.22839C11.9581 3.31184 11.773 3.50778 11.8456 3.58398ZM13.2135 4.26613C13.2135 4.26613 13.4784 3.84523 13.3768 3.4461C13.2752 3.05059 12.8325 3.32999 12.8434 3.4715C12.8543 3.61663 13.1264 3.80169 13.1446 3.88877C13.1627 3.97585 13.1119 4.24073 13.2135 4.26613ZM16.9508 8.14497C16.9508 8.14497 16.7694 7.68053 16.3921 7.5245C16.0111 7.36848 15.9748 7.88735 16.0909 7.96718C16.2106 8.03975 16.5263 7.93452 16.6061 7.97444C16.686 8.01072 16.8674 8.21029 16.9508 8.14497ZM15.1221 8.43525C15.1221 8.43525 15.133 7.93452 15.4378 7.66239C15.7426 7.38662 15.953 7.86195 15.8696 7.97444C15.7825 8.08692 15.4486 8.09418 15.387 8.15586C15.3253 8.22117 15.2201 8.46791 15.1221 8.43525ZM14.8282 3.14856C14.8282 3.14856 14.3637 2.97077 13.9936 3.14856C13.6235 3.32636 13.9864 3.70735 14.1243 3.66743C14.2621 3.63115 14.3891 3.32636 14.4726 3.29007C14.5524 3.25742 14.8209 3.25379 14.8282 3.14856ZM13.7614 2.25596C13.7614 2.25596 13.297 2.07816 12.9269 2.25596C12.5604 2.43738 12.9196 2.81474 13.0575 2.77483C13.1954 2.73854 13.326 2.43375 13.4058 2.39747C13.4856 2.36481 13.7578 2.36118 13.7614 2.25596ZM12.1721 1.40326C12.1721 1.40326 11.7766 1.70806 11.7367 2.11807C11.7004 2.52446 12.2084 2.41198 12.2447 2.27773C12.2846 2.13984 12.0923 1.87134 12.1068 1.78425C12.1213 1.69717 12.2556 1.46495 12.1721 1.40689V1.40326ZM11.1344 1.16016C11.1344 1.16016 10.953 1.6246 11.1308 1.99471C11.3086 2.36481 11.6859 2.00196 11.6496 1.86771C11.6134 1.73346 11.3049 1.5992 11.2723 1.51575C11.2396 1.43592 11.236 1.16741 11.1344 1.16016ZM8.19533 2.949C8.19533 2.949 8.51826 2.57163 8.47109 2.16162C8.42392 1.75523 7.94859 1.97294 7.9377 2.11445C7.93045 2.25596 8.17356 2.47729 8.18081 2.56801C8.18081 2.65509 8.10099 2.90908 8.19533 2.949Z" fill="#FFD200" stroke="#EF8A10" stroke-width="1.96099"/>
</g>
<path id="Vector_8" fill-rule="evenodd" clip-rule="evenodd" d="M9.94838 3.76292C9.94838 3.76292 10.7212 3.81372 10.7612 4.2564C10.8011 4.69907 10.5761 4.96758 10.5761 4.96758C10.5761 4.96758 10.6741 5.9255 9.91572 6.20489C9.10657 6.30286 7.8366 6.22666 7.8366 6.22666C7.8366 6.22666 7.4665 6.321 7.3141 5.54813C7.16171 4.77527 7.11816 4.22737 7.11816 4.22737C7.11816 4.22737 7.19436 3.79558 7.73863 3.77018C8.2829 3.74115 9.94475 3.77381 9.952 3.76292H9.94838Z" fill="#8C8A8C" stroke="black" stroke-width="1.96099"/>
<path id="Vector_9" d="M10.5722 4.96289C10.5722 4.96289 10.155 5.48176 10.1985 5.68859" stroke="black" stroke-width="1.96099" stroke-linecap="round"/>
<path id="Vector_10" fill-rule="evenodd" clip-rule="evenodd" d="M10.0135 6.17941C10.1151 6.26649 10.2131 6.36083 10.2349 6.68014L10.2784 7.31875L10.8191 12.1809L11.2944 15.6969L11.327 16.2412C11.327 16.2412 11.2146 16.6403 10.8916 16.6766C10.663 17.1592 9.40394 17.3007 9.28058 17.2934C9.16809 17.2898 8.76533 17.1229 8.52222 17.1447C8.27912 17.1664 7.85821 17.3261 7.66953 17.3007C7.48085 17.2753 7.05269 17.1265 6.98012 16.8181C6.45036 16.6512 6.36328 16.2484 6.36328 16.2484L6.93658 12.1809L7.49174 7.03573C7.49174 7.03573 7.55705 6.34995 7.83281 6.24835C8.11946 6.22295 9.59988 6.27738 10.0135 6.17578V6.17941Z" fill="#8C8A8C" stroke="black" stroke-width="1.96099"/>
<path id="Vector_11" d="M7.09588 13.2188L6.9834 16.8146M10.5937 13.6941L10.9094 16.6585" stroke="black" stroke-width="1.96099"/>
<path id="Vector_12" d="M1.3524 11.3457L1.33789 11.3893M16.2945 11.2188L16.3054 11.255" stroke="black" stroke-width="1.0321"/>
<path id="Vector_13" d="M0.948945 6.49191C0.948945 6.49191 1.18842 6.81847 1.22834 7.00715C1.27188 7.19583 1.35171 7.56594 1.4533 7.71833C1.55853 7.8671 2.14271 8.71254 2.179 9.0645C2.179 9.29309 1.93226 9.6886 1.56216 9.69585C1.33356 9.6886 0.738494 9.5362 0.713094 9.02821C0.687695 8.52023 0.894517 8.50571 0.919917 8.19367C0.945316 7.88524 0.948945 6.49917 0.948945 6.48828V6.49191Z" stroke="#6B18B5" stroke-width="1.96099" stroke-linejoin="round"/>
<path id="Vector_14" d="M5.01633 2.0325C5.01633 2.0325 4.76959 2.04701 4.58091 2.14861C4.43577 2.23932 4.18904 2.36632 4.01487 2.60943C3.57583 2.9505 2.91181 3.11016 2.70499 3.39681C2.57799 3.58912 2.58525 4.05719 2.90093 4.25313C3.10049 4.36924 3.68831 4.54703 3.97133 4.12613C4.26161 3.7016 4.08744 3.58186 4.22532 3.3061C4.46117 2.67111 5.0127 2.03613 5.01633 2.02887V2.0325ZM10.9561 1.4084C10.9561 1.4084 10.7747 1.24149 10.5679 1.17981C10.401 1.13627 10.1252 1.15441 9.83858 1.12538C9.28342 1.04918 8.71375 0.65005 8.36541 0.697221C8.14045 0.744391 7.81026 1.07458 7.88645 1.4338C7.94088 1.65877 8.19125 2.11233 8.69561 2.02161C9.19634 1.93453 9.19271 1.82205 9.49024 1.73134C10.2123 1.32495 10.9489 1.40477 10.9561 1.40477V1.4084ZM16.8488 7.13414C16.8923 7.0398 16.8125 6.86563 16.7617 6.65518C16.7073 6.4919 16.6311 6.2379 16.4388 6.01294C16.2102 5.50495 16.2501 4.80466 16.0251 4.53615C15.8655 4.36561 15.4083 4.26038 15.1434 4.51801C14.9838 4.68492 14.6717 5.21105 15.0128 5.59204C15.3539 5.9694 15.5026 5.82789 15.7385 6.02745C16.3009 6.40481 16.573 7.0652 16.8488 7.13414ZM16.6529 11.5899C16.7254 11.4811 16.8669 11.2815 16.8488 11.1109C16.8379 10.9731 16.9105 10.5667 16.9214 10.3853C16.9722 9.83372 17.3205 9.38017 17.2225 8.89758C17.1681 8.67624 16.8379 8.35331 16.4823 8.44765C16.261 8.51659 15.7711 8.7851 15.8836 9.2822C15.9961 9.78293 16.1558 9.77204 16.2646 10.0659C16.5694 10.6683 16.3735 11.3831 16.6529 11.5899Z" stroke="#6B18B5" stroke-width="1.0321" stroke-linejoin="round"/>
<path id="Vector_15" d="M12.5645 15.1234C12.5645 15.1234 12.4701 15.3048 12.8475 15.4608M13.3192 14.6952C13.3192 14.6952 13.7365 14.5936 14.0195 14.6952M14.571 13.6357C14.571 13.643 14.513 13.8244 14.8468 14.0856M14.8105 13.164C14.8105 13.164 15.0572 13.3454 15.4709 13.3382M12.325 13.6938C12.325 13.6938 12.3395 14.1727 12.0928 14.3977M13.1523 12.9535C13.1523 12.9535 13.5551 13.0551 13.8889 12.8882M15.7503 12.2533C15.7503 12.2533 15.8374 12.3766 16.2873 12.3548M14.0014 11.9702C14.0122 11.9775 14.5275 12.1444 14.854 11.992M15.0282 9.99634C15.0282 9.99634 15.05 9.97094 15.2096 10.5297M15.4273 8.42521C15.4273 8.42521 15.4056 8.72274 15.1661 8.85337M16.9549 7.20967C16.9549 7.20967 16.6066 7.49269 16.6719 7.6088M15.2205 7.00647C15.2205 7.00647 15.4019 7.31127 15.108 7.52172M14.3461 5.70385C14.3461 5.70385 14.6581 5.68934 14.796 5.95784M13.7582 4.8185H13.9977M14.9992 3.72996C14.9992 3.74085 15.0645 3.7989 14.9411 3.92227M12.7749 3.76262C12.7749 3.76262 12.9418 4.02387 12.9128 4.34317M13.7365 2.87727C13.809 2.87001 14.0558 2.76116 14.0558 2.76116M12.6661 1.83952C12.6588 1.83952 12.5717 2.16609 12.7314 2.2822M12.2633 3.3272C12.2633 3.67553 12.5391 3.58845 12.3504 3.92227M11.5884 3.03692C11.4278 3.14924 11.2816 3.28085 11.153 3.4288M10.4745 2.8555C10.4745 2.8555 10.6559 3.03692 10.6124 3.28366M9.94472 2.71036C9.94472 2.71036 9.85038 2.98612 9.72701 3.05869M8.97954 2.63779C8.97229 2.6523 8.82715 2.96435 8.72555 3.02241M7.66241 2.64505C7.66967 2.64505 7.80755 2.93532 7.62612 3.14577M7.35762 1.14648C7.36487 1.15374 7.38664 1.37145 7.24876 1.56013M6.05136 1.63996C6.05136 1.64721 6.11305 1.88669 5.7248 1.96652M5.32204 3.84607C5.3293 3.86059 5.69214 3.91864 5.69214 3.91864M4.41855 4.68425C4.56418 4.63604 4.71055 4.59008 4.8576 4.54637M3.71462 5.22852C3.72914 5.22852 4.01942 5.27932 4.09199 5.24303M3.51143 5.49703C3.51143 5.49703 3.60577 5.54783 3.52594 6.03404M2.09632 4.2198L2.27412 4.48105M1.50488 5.56234C1.50488 5.55508 1.67905 5.82359 1.91127 5.87439M2.87282 6.92665C2.88008 6.92665 3.15584 6.86496 3.19938 6.83594M2.74945 7.90996C2.75671 7.90996 2.74219 7.72854 2.96716 7.60517M2.45192 8.3599C2.45192 8.36715 2.66237 8.6284 2.80751 8.66469M2.32855 8.857C2.35032 8.84974 2.57528 8.6538 2.83653 8.66832M2.25598 9.53189C2.25598 9.53189 2.26323 9.75686 2.93087 9.6988M2.32129 10.3265C2.32129 10.3193 2.51723 9.8766 2.91636 9.70969M2.8583 10.8926C2.8583 10.8926 2.91636 10.7039 3.25018 10.5733M3.22841 11.6364C3.22841 11.6364 3.46789 11.4405 3.55497 11.4114M3.52594 12.217C3.52594 12.217 3.67108 12.3694 4.03393 12.1081M1.77702 12.3367C1.82056 12.3294 2.34669 12.2061 2.52811 12.4818M1.98384 12.7721C1.98384 12.7721 2.54263 12.6996 2.6152 12.7576M3.9795 12.8882C3.9795 12.8882 3.90693 13.0406 4.59635 12.7866M4.8322 13.164C4.70883 13.3708 4.86122 13.5377 4.70157 13.6357M2.74219 13.4543C2.76034 13.4361 2.99619 13.3563 2.9599 13.0261M2.94902 13.9514C2.97804 13.9441 3.36266 13.7772 3.44249 13.8643M3.70011 14.4412C3.70011 14.4412 3.75091 14.1001 3.85976 14.0639M4.27704 14.9565C4.27704 14.9565 4.59634 14.9492 4.73423 14.8476M4.89388 13.8026C4.90114 13.8099 5.19142 13.9623 5.80826 13.8099M5.1261 15.1887C5.1261 15.1887 5.21319 15.6277 5.20593 15.733" stroke="black" stroke-width="1.96099"/>
<g id="Group_3">
<path id="Vector_16" fill-rule="evenodd" clip-rule="evenodd" d="M16.2546 8.38769C16.2373 8.24946 16.1663 8.11794 16.0772 8.05888C15.9738 7.9946 15.8665 8.00801 15.7955 8.0941C15.7245 8.18019 15.6805 8.31905 15.6978 8.45728C15.7159 8.60242 15.786 8.72703 15.876 8.79299C15.9794 8.85728 16.0868 8.84387 16.1577 8.75778C16.2287 8.67169 16.2794 8.53199 16.2554 8.3946L16.2546 8.38769Z" fill="#DE2010" stroke="black" stroke-width="2.60249"/>
<path id="Vector_17" fill-rule="evenodd" clip-rule="evenodd" d="M16.193 7.65136C16.1758 7.51313 16.1048 7.38161 16.0157 7.32256C15.9123 7.25827 15.8049 7.27168 15.7339 7.35777C15.6629 7.44386 15.619 7.58272 15.6363 7.72095C15.6544 7.86609 15.7245 7.9907 15.8145 8.05667C15.9179 8.12095 16.0252 8.10754 16.0962 8.02145C16.1672 7.93536 16.2179 7.79566 16.1939 7.65827L16.193 7.65136Z" fill="#DE2010" stroke="black" stroke-width="2.60249"/>
<path id="Vector_18" fill-rule="evenodd" clip-rule="evenodd" d="M16.0412 6.8682C16.0119 6.73203 15.9297 6.60725 15.8357 6.55626C15.727 6.50131 15.6213 6.5241 15.5581 6.6161C15.495 6.70809 15.4634 6.85028 15.4927 6.98646C15.5236 7.12944 15.6043 7.24741 15.6998 7.30521C15.8084 7.36016 15.9142 7.33737 15.9773 7.24537C16.0405 7.15338 16.0787 7.00976 16.0427 6.87501L16.0412 6.8682Z" fill="#DE2010" stroke="black" stroke-width="2.60249"/>
<path id="Vector_19" fill-rule="evenodd" clip-rule="evenodd" d="M15.77 6.04699C15.7069 5.9228 15.5955 5.8231 15.4917 5.79776C15.3726 5.77232 15.2762 5.82132 15.2385 5.92637C15.2009 6.03143 15.2066 6.17697 15.2697 6.30116C15.336 6.43157 15.4441 6.52505 15.5512 6.55661C15.6703 6.58204 15.7667 6.53304 15.8043 6.42799C15.8419 6.32294 15.8422 6.17433 15.7731 6.0532L15.77 6.04699Z" fill="#DE2010" stroke="black" stroke-width="2.60249"/>
<path id="Vector_20" fill-rule="evenodd" clip-rule="evenodd" d="M15.4799 5.38683C15.4168 5.26264 15.3055 5.16295 15.2016 5.1376C15.0825 5.11217 14.9861 5.16116 14.9485 5.26622C14.9109 5.37127 14.9166 5.51682 14.9797 5.64101C15.0459 5.77141 15.1541 5.86489 15.2611 5.89645C15.3802 5.92189 15.4767 5.87289 15.5143 5.76783C15.5519 5.66278 15.5522 5.51417 15.4831 5.39304L15.4799 5.38683Z" fill="#DE2010" stroke="black" stroke-width="2.60249"/>
<path id="Vector_21" fill-rule="evenodd" clip-rule="evenodd" d="M15.0676 4.72501C14.9942 4.6066 14.8749 4.5167 14.7692 4.50023C14.6484 4.48498 14.5565 4.54196 14.5279 4.64983C14.4993 4.75769 14.5173 4.90223 14.5907 5.02063C14.6678 5.14495 14.7835 5.22894 14.8928 5.25132C15.0136 5.26658 15.1055 5.20959 15.1341 5.10173C15.1627 4.99387 15.1504 4.84577 15.0713 4.73093L15.0676 4.72501Z" fill="#DE2010" stroke="black" stroke-width="2.60249"/>
<path id="Vector_22" fill-rule="evenodd" clip-rule="evenodd" d="M14.6072 4.08574C14.5227 3.97499 14.3953 3.89704 14.2885 3.89087C14.1668 3.88736 14.0808 3.95297 14.0628 4.06309C14.0447 4.17321 14.0766 4.31533 14.1611 4.42608C14.2499 4.54237 14.3731 4.61478 14.4841 4.62649C14.6058 4.63 14.6918 4.56439 14.7098 4.45427C14.7279 4.34415 14.7013 4.19793 14.6115 4.09128L14.6072 4.08574Z" fill="#DE2010" stroke="black" stroke-width="2.60249"/>
<path id="Vector_23" fill-rule="evenodd" clip-rule="evenodd" d="M14.0583 3.49339C13.9586 3.39606 13.8212 3.33742 13.7147 3.34679C13.5937 3.36096 13.5182 3.43834 13.5163 3.54991C13.5144 3.66148 13.5666 3.79748 13.6662 3.89482C13.7709 3.99702 13.9033 4.05079 14.0148 4.04629C14.1358 4.03211 14.2114 3.95473 14.2132 3.84316C14.2151 3.73159 14.1677 3.59076 14.0633 3.49826L14.0583 3.49339Z" fill="#DE2010" stroke="black" stroke-width="2.6025"/>
<path id="Vector_24" fill-rule="evenodd" clip-rule="evenodd" d="M13.4401 2.94481C13.3319 2.85705 13.1896 2.8113 13.0844 2.83043C12.9653 2.85567 12.8971 2.93967 12.9055 3.05094C12.9139 3.16221 12.9784 3.29283 13.0866 3.38059C13.2002 3.47273 13.337 3.51409 13.4476 3.49935C13.5668 3.47411 13.6349 3.39011 13.6265 3.27884C13.6181 3.16757 13.5579 3.0317 13.4455 2.9492L13.4401 2.94481Z" fill="#DE2010" stroke="black" stroke-width="2.60249"/>
<path id="Vector_25" fill-rule="evenodd" clip-rule="evenodd" d="M12.7837 2.50819C12.6624 2.43962 12.5145 2.41811 12.414 2.45444C12.3007 2.49911 12.2474 2.59326 12.2742 2.70159C12.301 2.80992 12.3862 2.92803 12.5075 2.9966C12.6348 3.06861 12.7766 3.08668 12.8832 3.05379C12.9965 3.00912 13.0497 2.91497 13.023 2.80664C12.9962 2.69831 12.9143 2.57431 12.7897 2.51162L12.7837 2.50819Z" fill="#DE2010" stroke="black" stroke-width="2.60249"/>
<path id="Vector_26" fill-rule="evenodd" clip-rule="evenodd" d="M12.0497 2.12203C11.9227 2.06477 11.7735 2.05682 11.6767 2.10215C11.5679 2.15694 11.5235 2.25555 11.56 2.36099C11.5965 2.46644 11.6921 2.5763 11.8191 2.63355C11.9524 2.69367 12.0953 2.69876 12.1985 2.65629C12.3072 2.6015 12.3517 2.5029 12.3152 2.39745C12.2787 2.292 12.1858 2.17598 12.0561 2.12489L12.0497 2.12203Z" fill="#DE2010" stroke="black" stroke-width="2.60249"/>
<path id="Vector_27" fill-rule="evenodd" clip-rule="evenodd" d="M11.3319 1.83059C11.2013 1.78198 11.0519 1.78405 10.9583 1.83577C10.8535 1.89773 10.8158 1.99909 10.8593 2.10185C10.9027 2.20462 11.0055 2.30782 11.1361 2.35643C11.2732 2.40747 11.416 2.40297 11.5162 2.35368C11.621 2.29173 11.6587 2.19036 11.6152 2.0876C11.5718 1.98484 11.4713 1.8753 11.3384 1.83302L11.3319 1.83059Z" fill="#DE2010" stroke="black" stroke-width="2.60249"/>
<path id="Vector_28" fill-rule="evenodd" clip-rule="evenodd" d="M10.6017 1.60025C10.4678 1.56174 10.319 1.57521 10.2296 1.63392C10.1298 1.7037 10.0999 1.80765 10.1511 1.90679C10.2023 2.00593 10.3127 2.10099 10.4466 2.1395C10.5871 2.17993 10.7293 2.16454 10.8253 2.10776C10.9251 2.03798 10.955 1.93403 10.9038 1.83488C10.8526 1.73574 10.7441 1.63419 10.6084 1.60218L10.6017 1.60025Z" fill="#DE2010" stroke="black" stroke-width="2.6025"/>
<path id="Vector_29" fill-rule="evenodd" clip-rule="evenodd" d="M9.79599 1.46477C9.65778 1.44734 9.5128 1.48357 9.43355 1.55534C9.34569 1.63965 9.33215 1.74697 9.39802 1.83704C9.46388 1.92712 9.58757 2.00404 9.72578 2.02147C9.8709 2.03977 10.009 2.00268 10.0951 1.93178C10.183 1.84746 10.1965 1.74015 10.1307 1.65007C10.0648 1.56 9.94196 1.47637 9.8029 1.46564L9.79599 1.46477Z" fill="#DE2010" stroke="black" stroke-width="2.60249"/>
<path id="Vector_30" fill-rule="evenodd" clip-rule="evenodd" d="M9.00311 1.42046C8.86392 1.41487 8.72255 1.46332 8.6497 1.54159C8.56935 1.63308 8.56501 1.74116 8.63831 1.82529C8.71161 1.90943 8.8414 1.97553 8.98059 1.98112C9.12675 1.98699 9.26115 1.93826 9.34096 1.86028C9.42131 1.76878 9.42565 1.6607 9.35235 1.57657C9.27905 1.49243 9.14953 1.41958 9.01007 1.42074L9.00311 1.42046Z" fill="#DE2010" stroke="black" stroke-width="2.6025"/>
<path id="Vector_31" fill-rule="evenodd" clip-rule="evenodd" d="M8.27362 1.44195C8.13442 1.43636 7.99306 1.48481 7.92021 1.56307C7.83986 1.65457 7.83552 1.76265 7.90882 1.84678C7.98212 1.93091 8.11191 1.99702 8.2511 2.00261C8.39725 2.00848 8.53166 1.95975 8.61147 1.88176C8.69182 1.79027 8.69616 1.68219 8.62286 1.59805C8.54956 1.51392 8.42004 1.44106 8.28058 1.44223L8.27362 1.44195Z" fill="#DE2010" stroke="black" stroke-width="2.6025"/>
<path id="Vector_32" fill-rule="evenodd" clip-rule="evenodd" d="M7.4238 1.54814C7.288 1.57918 7.16425 1.66294 7.11443 1.75755C7.06083 1.86689 7.08493 1.97233 7.1777 2.03434C7.27047 2.09635 7.41304 2.12618 7.54884 2.09514C7.69144 2.06254 7.8084 1.98033 7.86501 1.88417C7.91861 1.77483 7.89451 1.66939 7.80174 1.60738C7.70897 1.54536 7.56489 1.50895 7.43059 1.54658L7.4238 1.54814Z" fill="#DE2010" stroke="black" stroke-width="2.60249"/>
<path id="Vector_33" fill-rule="evenodd" clip-rule="evenodd" d="M6.64668 1.74089C6.5139 1.78302 6.39748 1.87671 6.35563 1.9751C6.31123 2.08849 6.34395 2.19159 6.44152 2.24574C6.53908 2.29989 6.68363 2.31785 6.81641 2.27571C6.95583 2.23146 7.06561 2.13988 7.1141 2.03938C7.1585 1.926 7.12578 1.8229 7.02821 1.76875C6.93064 1.7146 6.78405 1.6902 6.65332 1.73878L6.64668 1.74089Z" fill="#DE2010" stroke="black" stroke-width="2.6025"/>
<path id="Vector_34" fill-rule="evenodd" clip-rule="evenodd" d="M5.93986 2.0459C5.81305 2.10355 5.70861 2.21044 5.67878 2.31311C5.6482 2.43098 5.69297 2.52945 5.79629 2.57159C5.89961 2.61373 6.04527 2.61435 6.17208 2.55669C6.30524 2.49616 6.40333 2.39215 6.4395 2.28659C6.47008 2.16872 6.42531 2.07026 6.32199 2.02812C6.21867 1.98598 6.07022 1.97921 5.9462 2.04301L5.93986 2.0459Z" fill="#DE2010" stroke="black" stroke-width="2.60248"/>
<path id="Vector_35" fill-rule="evenodd" clip-rule="evenodd" d="M5.234 2.40776C5.11256 2.47603 5.01763 2.59143 4.99667 2.69628C4.97626 2.81633 5.02926 2.91062 5.1358 2.94379C5.24234 2.97696 5.38751 2.96515 5.50895 2.89689C5.63645 2.82522 5.72531 2.71322 5.75235 2.60496C5.77276 2.48491 5.71976 2.39063 5.61322 2.35745C5.50668 2.32428 5.35819 2.3302 5.24007 2.40435L5.234 2.40776Z" fill="#DE2010" stroke="black" stroke-width="2.60248"/>
<path id="Vector_36" fill-rule="evenodd" clip-rule="evenodd" d="M4.56697 2.86031C4.45368 2.94137 4.37185 3.06641 4.3624 3.17291C4.35516 3.29447 4.41809 3.38244 4.52761 3.40384C4.63712 3.42524 4.78016 3.39772 4.89345 3.31667C5.01241 3.23156 5.08858 3.11058 5.10369 3.00002C5.11093 2.87846 5.048 2.79049 4.93848 2.76909C4.82897 2.74769 4.682 2.76971 4.57264 2.85626L4.56697 2.86031Z" fill="#DE2010" stroke="black" stroke-width="2.60249"/>
<path id="Vector_37" fill-rule="evenodd" clip-rule="evenodd" d="M3.9488 3.32735C3.84277 3.4177 3.77181 3.54921 3.77141 3.65614C3.77448 3.77787 3.84463 3.8602 3.95557 3.87225C4.0665 3.88431 4.20669 3.84479 4.31272 3.75444C4.42406 3.65957 4.48971 3.53257 4.49541 3.42113C4.49234 3.2994 4.42219 3.21707 4.31126 3.20502C4.20032 3.19296 4.05575 3.22734 3.9541 3.32283L3.9488 3.32735Z" fill="#DE2010" stroke="black" stroke-width="2.60248"/>
<path id="Vector_38" fill-rule="evenodd" clip-rule="evenodd" d="M3.40336 3.89753C3.30408 3.99525 3.24274 4.13151 3.25 4.23819C3.26179 4.35939 3.33767 4.43647 3.44918 4.44054C3.56069 4.44461 3.69769 4.39514 3.79697 4.29742C3.90121 4.19482 3.95759 4.06344 3.95529 3.95188C3.9435 3.83068 3.86763 3.75359 3.75611 3.74952C3.6446 3.74545 3.50286 3.79011 3.40832 3.89264L3.40336 3.89753Z" fill="#DE2010" stroke="black" stroke-width="2.60249"/>
<path id="Vector_39" fill-rule="evenodd" clip-rule="evenodd" d="M2.9353 4.53172C2.84454 4.6374 2.79482 4.77833 2.81099 4.88402C2.83288 5.00381 2.91495 5.07427 3.02641 5.06899C3.13787 5.06372 3.27024 5.00295 3.361 4.89726C3.45629 4.78629 3.50147 4.65066 3.48984 4.53968C3.46795 4.41989 3.38588 4.34942 3.27442 4.3547C3.16296 4.35998 3.02546 4.41634 2.93983 4.52643L2.9353 4.53172Z" fill="#DE2010" stroke="black" stroke-width="2.60249"/>
<path id="Vector_40" fill-rule="evenodd" clip-rule="evenodd" d="M2.50796 5.17972C2.429 5.29448 2.39459 5.4399 2.42194 5.54327C2.45648 5.66004 2.54559 5.72135 2.65585 5.70422C2.76611 5.68708 2.89126 5.61255 2.97022 5.49779C3.05313 5.37729 3.0836 5.23761 3.06019 5.1285C3.02565 5.01174 2.93654 4.95042 2.82628 4.96755C2.71602 4.98469 2.58531 5.05539 2.51191 5.17398L2.50796 5.17972Z" fill="#DE2010" stroke="black" stroke-width="2.60249"/>
<path id="Vector_41" fill-rule="evenodd" clip-rule="evenodd" d="M2.15034 5.91486C2.09227 6.04148 2.08335 6.19065 2.12805 6.28778C2.18213 6.39688 2.28045 6.44198 2.38613 6.40616C2.49181 6.37034 2.60228 6.27542 2.66036 6.1488C2.72134 6.01584 2.72736 5.87301 2.68556 5.76954C2.63148 5.66044 2.53316 5.61535 2.42748 5.65117C2.3218 5.68699 2.20518 5.77909 2.15325 5.90853L2.15034 5.91486Z" fill="#DE2010" stroke="black" stroke-width="2.60249"/>
<path id="Vector_42" fill-rule="evenodd" clip-rule="evenodd" d="M1.86371 6.68458C1.81735 6.81594 1.82199 6.9653 1.87531 7.05798C1.93906 7.16173 2.04106 7.19773 2.14306 7.15247C2.24506 7.10722 2.34647 7.00267 2.39283 6.87131C2.44151 6.73338 2.43455 6.59058 2.38355 6.49134C2.3198 6.38759 2.2178 6.35159 2.1158 6.39685C2.0138 6.4421 1.90601 6.5444 1.86603 6.67801L1.86371 6.68458Z" fill="#DE2010" stroke="black" stroke-width="2.60247"/>
<path id="Vector_43" fill-rule="evenodd" clip-rule="evenodd" d="M1.62134 8.13655C1.60847 8.24775 1.64946 8.36295 1.7238 8.42455C1.81097 8.49272 1.91867 8.50072 2.00652 8.44557C2.09438 8.39042 2.16719 8.28929 2.18005 8.1781C2.19356 8.06134 2.15193 7.9517 2.07823 7.88454C1.99107 7.81637 1.88336 7.80836 1.79551 7.86351C1.70766 7.91867 1.62812 8.0193 1.62198 8.13099L1.62134 8.13655Z" fill="#DE2010" stroke="black" stroke-width="2.33111"/>
<path id="Vector_44" fill-rule="evenodd" clip-rule="evenodd" d="M1.68469 7.45823C1.65373 7.59405 1.67551 7.74189 1.73912 7.82783C1.81437 7.92357 1.91983 7.94761 2.01595 7.89094C2.11208 7.83427 2.20081 7.71876 2.23177 7.58294C2.26428 7.44032 2.24096 7.29927 2.17889 7.20654C2.10364 7.11081 1.99818 7.08677 1.90206 7.14344C1.80593 7.20011 1.71061 7.31412 1.68624 7.45144L1.68469 7.45823Z" fill="#DE2010" stroke="black" stroke-width="2.60249"/>
</g>
<path id="Vector_45" fill-rule="evenodd" clip-rule="evenodd" d="M15.6733 7.11123C15.7603 7.01326 15.8438 6.98424 15.949 7.02052C15.9127 6.76653 15.8329 6.68307 15.7313 6.7121C15.637 6.74113 15.5934 6.87175 15.6696 7.11123H15.6733ZM15.8075 7.87321C15.9055 7.7825 15.9889 7.76436 16.0905 7.80064C16.0724 7.54665 15.9998 7.45594 15.9019 7.48134C15.8003 7.50311 15.7495 7.62648 15.8075 7.86958V7.87321ZM15.481 6.41094C15.5463 6.29483 15.6188 6.24766 15.7313 6.25491C15.6297 6.02269 15.5318 5.95738 15.4447 6.0118C15.3576 6.06623 15.3467 6.20411 15.481 6.41094ZM15.1435 5.72153C15.2052 5.60179 15.2814 5.55462 15.3902 5.56187C15.2923 5.32602 15.1907 5.26434 15.1036 5.31877C15.0201 5.37319 15.0093 5.51107 15.1435 5.7179V5.72153ZM14.3307 4.4443C14.3743 4.32093 14.4396 4.26288 14.5484 4.24836C14.4142 4.03066 14.3053 3.98711 14.2291 4.05606C14.1529 4.125 14.1638 4.25925 14.3307 4.4443ZM13.7973 3.88915C13.8336 3.76215 13.8989 3.70409 14.0114 3.68958C13.8663 3.47913 13.7574 3.43559 13.6849 3.50816C13.6087 3.5771 13.6232 3.71135 13.7973 3.88915ZM12.6798 2.94574C12.6798 2.81512 12.7161 2.73529 12.8177 2.69175C12.6181 2.5321 12.4983 2.52847 12.4512 2.61918C12.4004 2.70626 12.4621 2.82963 12.6798 2.94574ZM13.2603 3.38116C13.2821 3.25053 13.3329 3.18159 13.4417 3.15256C13.2712 2.96388 13.1551 2.93848 13.0934 3.01831C13.0281 3.09814 13.0644 3.22876 13.264 3.38116H13.2603ZM12.0158 2.57927C12.0012 2.44864 12.0339 2.36881 12.1246 2.31076C11.9069 2.1765 11.7944 2.18013 11.7545 2.27447C11.7146 2.36881 11.7872 2.48855 12.0158 2.57927ZM11.3372 2.28536C11.3009 2.15836 11.3227 2.07491 11.4098 2.00234C11.174 1.90074 11.0615 1.92614 11.0361 2.02411C11.0107 2.12208 11.0978 2.2273 11.3372 2.28536ZM10.6079 2.06039C10.5607 1.93703 10.5753 1.84994 10.6551 1.77012C10.412 1.69029 10.2995 1.72294 10.2813 1.82454C10.2668 1.92614 10.3612 2.02411 10.6079 2.06039ZM9.88947 1.92251C9.83504 1.80277 9.8423 1.71569 9.91487 1.63223C9.66813 1.56692 9.55928 1.60683 9.54839 1.70843C9.53751 1.81003 9.6391 1.90074 9.88947 1.91888V1.92251ZM9.12749 1.86446C9.06218 1.74834 9.05855 1.66126 9.12749 1.57418C8.8735 1.53426 8.76464 1.58506 8.76464 1.68666C8.76827 1.78826 8.88075 1.86808 9.12749 1.86446ZM7.63982 1.97331C7.5491 1.87897 7.5237 1.79551 7.56725 1.69392C7.31325 1.71569 7.22254 1.79189 7.24794 1.88985C7.27334 1.99145 7.40034 2.04225 7.63982 1.97331ZM8.37277 1.87897C8.29294 1.77012 8.28205 1.68666 8.33648 1.58869C8.08249 1.57781 7.98089 1.63949 7.99541 1.74109C8.00629 1.84268 8.12603 1.91163 8.37277 1.87897ZM6.92138 2.13296C6.81252 2.04951 6.77987 1.96968 6.80527 1.86083C6.55853 1.92251 6.4787 2.00959 6.51862 2.10394C6.55853 2.19828 6.69278 2.23093 6.91775 2.12933L6.92138 2.13296ZM5.54256 2.76432C5.42644 2.70263 5.37565 2.63006 5.37927 2.52121C5.14705 2.63006 5.089 2.72803 5.14342 2.81149C5.20148 2.89857 5.33936 2.90583 5.54256 2.76432ZM6.20657 2.42324C6.09771 2.35067 6.0578 2.27447 6.07594 2.16562C5.83283 2.24182 5.76026 2.33616 5.80743 2.42687C5.85098 2.51758 5.98886 2.53935 6.20657 2.42687V2.42324ZM4.30887 3.62064C4.18188 3.59161 4.11656 3.52993 4.09842 3.42107C3.89523 3.57347 3.85531 3.68595 3.92788 3.75489C4.00045 3.82746 4.13833 3.80206 4.30887 3.62427V3.62064ZM4.89669 3.14531C4.77332 3.10177 4.71526 3.03645 4.70438 2.9276C4.48667 3.06185 4.44313 3.17071 4.50844 3.24691C4.57738 3.3231 4.71163 3.31222 4.89669 3.14531ZM3.78274 4.13588C3.65575 4.11411 3.58681 4.05968 3.55778 3.95446C3.36547 4.12137 3.34007 4.23748 3.4199 4.29916C3.49609 4.36448 3.63035 4.33182 3.78274 4.13588ZM3.31467 4.74547C3.18405 4.73458 3.11148 4.68741 3.07156 4.58218C2.8974 4.77087 2.88288 4.88698 2.96634 4.94503C3.04979 4.99946 3.18042 4.95229 3.31467 4.74547ZM2.9228 5.36956C2.79217 5.38045 2.71234 5.34416 2.65792 5.2462C2.51278 5.46028 2.51278 5.57639 2.60712 5.61993C2.70146 5.66347 2.8212 5.59816 2.9228 5.36956ZM2.57809 6.0372C2.44747 6.0626 2.36401 6.0372 2.2987 5.95012C2.18621 6.17509 2.20073 6.2912 2.2987 6.32385C2.39667 6.35288 2.50552 6.27305 2.57809 6.03358V6.0372ZM2.30233 6.71936C2.17896 6.76653 2.09187 6.75564 2.01205 6.67582C1.93948 6.91892 1.97213 7.03141 2.0701 7.04592C2.1717 7.06043 2.26967 6.96247 2.30233 6.71936ZM2.11727 7.48134C1.99753 7.53214 1.91045 7.52851 1.827 7.45594C1.76531 7.70267 1.80885 7.81153 1.91045 7.81879C2.01205 7.82967 2.10276 7.72445 2.11727 7.47771V7.48134ZM2.0447 8.11269C1.92859 8.17075 1.84151 8.17801 1.75443 8.13446C1.71814 8.33403 1.77257 8.41386 1.87417 8.4066C1.97576 8.39934 2.05559 8.30863 2.04107 8.11269H2.0447ZM14.8423 5.10106C14.8859 4.97769 14.9512 4.91963 15.06 4.90875C14.9294 4.69104 14.8206 4.64387 14.7444 4.70918C14.6682 4.77812 14.6791 4.91238 14.8423 5.10106ZM15.891 8.64245C15.9889 8.55537 16.0724 8.5336 16.174 8.57714C16.1558 8.32314 16.0833 8.2288 15.9853 8.25057C15.8837 8.27597 15.8329 8.40297 15.891 8.64245Z" fill="#FFE300"/>
<path id="Vector_46" fill-rule="evenodd" clip-rule="evenodd" d="M14.8939 4.49976C14.8903 4.49976 14.6037 4.78278 14.6545 5.13112C14.7016 5.47945 14.923 5.90761 14.8831 6.26683C14.8431 6.62968 14.7742 6.86553 14.7742 6.86553C14.7742 6.86553 15.1117 6.48454 15.1153 6.11806C15.1189 5.75522 14.8867 5.269 14.8867 5.00049C14.8867 4.73199 14.8976 4.49251 14.8939 4.49613V4.49976ZM15.4201 5.66088C15.4201 5.66088 15.1951 5.82779 15.2169 6.20515C15.2387 6.58251 15.6305 7.27918 15.6305 7.27918C15.6305 7.27918 15.9172 7.86699 15.9063 8.01938C15.899 8.17178 15.9607 7.87425 15.9317 7.5368C15.9027 7.20298 15.4709 6.46277 15.4709 6.46277C15.4709 6.46277 15.3802 6.31037 15.3874 6.06001C15.3983 5.80601 15.4237 5.6645 15.4201 5.66088Z" fill="#217900" stroke="black" stroke-width="1.96099" stroke-linejoin="round"/>
<path id="Vector_47" fill-rule="evenodd" clip-rule="evenodd" d="M8.70658 0.973264C8.70658 0.893438 8.61587 0.828125 8.50701 0.828125C8.39816 0.828125 8.31108 0.893438 8.31108 0.973264C8.31108 1.04946 8.39816 1.11477 8.50701 1.11477C8.61587 1.11477 8.70295 1.04946 8.70295 0.969636L8.70658 0.973264ZM8.79003 1.29983C8.79003 1.22726 8.69569 1.16557 8.58684 1.16557C8.47436 1.16557 8.38365 1.22726 8.38365 1.30346C8.38365 1.37965 8.47436 1.43771 8.58684 1.43771C8.69569 1.43771 8.79003 1.37602 8.79003 1.29983ZM9.0404 0.91158C9.0404 0.91158 8.80818 1.08575 8.90252 1.15469C9.00049 1.22363 9.26537 1.00229 9.26537 1.00229L9.0404 0.91158ZM15.8511 4.88839C15.8512 4.86493 15.8457 4.84178 15.8349 4.82093C15.8242 4.80008 15.8086 4.78214 15.7894 4.76865C15.7712 4.75617 15.7497 4.74949 15.7277 4.74949C15.7057 4.74949 15.6841 4.75617 15.666 4.76865C15.6475 4.78253 15.6325 4.80064 15.6224 4.82147C15.6123 4.8423 15.6074 4.86525 15.6079 4.88839C15.6078 4.91185 15.6133 4.93499 15.6241 4.95585C15.6348 4.9767 15.6504 4.99464 15.6696 5.00813C15.6874 5.01983 15.7082 5.02607 15.7295 5.02607C15.7508 5.02607 15.7716 5.01983 15.7894 5.00813C15.8086 4.99464 15.8242 4.9767 15.8349 4.95585C15.8457 4.93499 15.8512 4.91185 15.8511 4.88839ZM15.7603 4.5582C15.7603 4.47474 15.7059 4.40943 15.6333 4.40943C15.5608 4.40943 15.5063 4.47474 15.5063 4.5582C15.5063 4.64165 15.5644 4.70697 15.6333 4.70697C15.7023 4.70697 15.7603 4.64165 15.7603 4.5582ZM15.822 5.2331C15.822 5.18955 15.8003 5.15327 15.7712 5.15327C15.7458 5.15327 15.7241 5.18955 15.7241 5.2331C15.7241 5.27664 15.7458 5.30929 15.7712 5.30929C15.8003 5.30929 15.822 5.27301 15.822 5.2331ZM16.0252 4.63077C16.0252 4.57997 16.0034 4.54006 15.978 4.54006C15.949 4.54006 15.9272 4.57997 15.9272 4.63077C15.9272 4.68157 15.949 4.71785 15.978 4.71785C16.0034 4.71785 16.0252 4.68157 16.0252 4.63077ZM15.4701 4.68882C15.4701 4.65254 15.4483 4.61625 15.4193 4.61625C15.3902 4.61625 15.3685 4.65254 15.3685 4.68882C15.3685 4.72511 15.3902 4.76139 15.4193 4.76139C15.4483 4.76139 15.4701 4.72874 15.4701 4.68882ZM15.5571 5.16778C15.5571 5.10247 15.51 5.04804 15.4519 5.04804C15.3939 5.04804 15.3467 5.10247 15.3467 5.16778C15.3467 5.22947 15.3939 5.28027 15.4555 5.28027C15.5172 5.28027 15.5571 5.22947 15.5571 5.16415V5.16778ZM15.2814 4.95733C15.2814 4.9029 15.2415 4.85573 15.1907 4.85573C15.1435 4.85573 15.1036 4.89928 15.1036 4.95733C15.1036 5.01539 15.1435 5.0553 15.1907 5.0553C15.2415 5.0553 15.2814 5.01176 15.2814 4.95733ZM15.2378 4.67431C15.2378 4.64528 15.2233 4.61625 15.2016 4.60174C15.1897 4.59394 15.1758 4.58978 15.1616 4.58978C15.1475 4.58978 15.1336 4.59394 15.1217 4.60174C15.11 4.60975 15.1005 4.62062 15.0942 4.63332C15.0878 4.64602 15.0848 4.66013 15.0854 4.67431C15.0854 4.70334 15.0963 4.73237 15.1217 4.74688C15.1332 4.75394 15.1464 4.75768 15.1598 4.75768C15.1733 4.75768 15.1865 4.75394 15.1979 4.74688C15.2096 4.73887 15.2191 4.728 15.2255 4.7153C15.2318 4.7026 15.2348 4.68849 15.2342 4.67431H15.2378ZM16.4969 6.10756C16.3808 5.95516 16.1994 5.88985 16.0869 5.96242C15.978 6.03499 15.978 6.21641 16.0942 6.36881C16.2066 6.5212 16.3917 6.58289 16.5005 6.51032C16.613 6.43775 16.6094 6.25633 16.4969 6.10756ZM16.8235 8.88697C16.8416 8.70192 16.7509 8.53864 16.6203 8.52412C16.486 8.50598 16.359 8.64386 16.3373 8.82892C16.3155 9.01034 16.4062 9.17725 16.5405 9.19176C16.6747 9.20628 16.7981 9.07202 16.8199 8.88697H16.8235ZM16.8888 10.5016C16.9251 10.3202 16.8525 10.1533 16.7219 10.1243C16.5876 10.0953 16.4534 10.2223 16.4135 10.4037C16.3772 10.5851 16.4497 10.7556 16.584 10.7847C16.7146 10.8101 16.8525 10.6867 16.8888 10.5053V10.5016ZM17.2008 8.98857C17.2008 8.916 17.15 8.85794 17.092 8.85794C17.0339 8.85794 16.9831 8.916 16.9831 8.98857C16.9831 9.06114 17.0303 9.12282 17.092 9.12282C17.1537 9.12282 17.2008 9.06114 17.2008 8.98857ZM16.9287 9.29336L16.7037 9.54735C16.7037 9.54735 16.4897 9.55461 16.5005 9.62355C16.5151 9.69612 16.7945 9.90294 16.7908 9.9864C16.7908 10.0662 16.9795 9.96463 16.9795 9.96463L17.1319 9.50018C17.1319 9.50018 17.1246 9.18088 17.0412 9.18451C16.9577 9.19176 16.936 9.2861 16.9323 9.29336H16.9287ZM2.03018 9.19176C2.03018 9.16289 2.01871 9.13521 1.9983 9.11479C1.97789 9.09438 1.9502 9.08291 1.92133 9.08291C1.89246 9.08291 1.86477 9.09438 1.84436 9.11479C1.82394 9.13521 1.81247 9.16289 1.81247 9.19176C1.81247 9.22063 1.82394 9.24832 1.84436 9.26873C1.86477 9.28915 1.89246 9.30062 1.92133 9.30062C1.9502 9.30062 1.97789 9.28915 1.9983 9.26873C2.01871 9.24832 2.03018 9.22063 2.03018 9.19176ZM2.13178 8.8652C2.13178 8.79989 2.08098 8.74909 2.02293 8.74909C1.96487 8.74909 1.91407 8.79989 1.91407 8.86157C1.91407 8.92326 1.96487 8.97768 2.02293 8.97768C2.08098 8.97768 2.13178 8.92688 2.13178 8.86157V8.8652ZM1.24643 7.29407C1.20652 7.20336 1.11944 7.15256 1.05775 7.18522C0.992439 7.21061 0.974296 7.30858 1.01421 7.3993C1.05775 7.49001 1.14121 7.54081 1.20289 7.50815C1.2682 7.48275 1.28634 7.38478 1.24643 7.29407ZM1.51131 8.27376C1.45688 8.15402 1.34077 8.08871 1.25732 8.12862C1.17386 8.16853 1.14121 8.28827 1.19563 8.40438C1.25006 8.52049 1.3698 8.58581 1.45688 8.54952C1.54397 8.51324 1.56574 8.38987 1.51131 8.27013V8.27376ZM1.80159 8.98857C1.8161 8.84343 1.75805 8.70555 1.66371 8.6874C1.56937 8.66563 1.48228 8.77086 1.46414 8.916C1.44237 9.06114 1.50405 9.19902 1.59839 9.21716C1.68911 9.2353 1.77982 9.13371 1.79796 8.98857H1.80159ZM1.34077 9.09017C1.3952 8.95591 1.37706 8.81077 1.28997 8.7636C1.20289 8.71643 1.09404 8.79626 1.03598 8.93051C0.977925 9.06477 0.999695 9.21353 1.08315 9.25708C1.16661 9.30062 1.28272 9.22805 1.33714 9.09379L1.34077 9.09017Z" fill="#6B18B5"/>
<path id="Vector_48" fill-rule="evenodd" clip-rule="evenodd" d="M1.13041 8.7808C1.13041 8.71186 1.07598 8.65743 1.01067 8.65743C0.945356 8.65743 0.890929 8.71549 0.890929 8.78443C0.890929 8.85337 0.945356 8.90779 1.01067 8.90779C1.07598 8.90779 1.13041 8.85337 1.13041 8.78443V8.7808ZM1.03607 8.47238C1.03706 8.45748 1.03498 8.44254 1.02996 8.42849C1.02494 8.41443 1.01708 8.40156 1.00687 8.39067C0.99666 8.37978 0.984321 8.37111 0.970617 8.36519C0.956914 8.35927 0.94214 8.35623 0.927214 8.35627C0.86553 8.35627 0.818359 8.40706 0.818359 8.47238C0.818359 8.53769 0.86553 8.58486 0.927214 8.58486C0.988898 8.58486 1.03607 8.53406 1.03607 8.47238ZM1.13766 7.87368C1.13766 7.76482 1.09049 7.68137 1.02881 7.68137C0.974383 7.68137 0.927214 7.76845 0.927214 7.87368C0.927214 7.9789 0.974384 8.06599 1.03244 8.06599C1.09049 8.06599 1.13766 7.9789 1.13766 7.87368ZM1.4606 7.82651C1.47148 7.72128 1.43883 7.63057 1.38077 7.62331C1.32272 7.61606 1.26466 7.69588 1.25015 7.79748C1.23563 7.90633 1.27192 7.99342 1.32997 8.0043C1.38803 8.01156 1.44609 7.93173 1.4606 7.82651ZM3.75743 3.24011C3.80097 3.09498 3.75743 2.94258 3.65946 2.90629C3.56149 2.87001 3.449 2.96435 3.40546 3.11312C3.36192 3.25826 3.40546 3.41065 3.50343 3.44694C3.6014 3.48322 3.71388 3.38888 3.75743 3.24011ZM3.32201 3.90413C3.449 3.79527 3.50343 3.64288 3.44175 3.56668C3.38369 3.49048 3.2313 3.51588 3.10067 3.62473C2.97005 3.73359 2.91925 3.88235 2.98093 3.96218C3.03899 4.03475 3.19138 4.01298 3.32201 3.90413ZM3.06801 3.53402C3.19138 3.44331 3.24944 3.31268 3.18775 3.24374C3.12607 3.1748 2.9773 3.20383 2.85031 3.29454C2.72331 3.38888 2.66888 3.51951 2.72694 3.58482C2.78499 3.65013 2.94102 3.62836 3.06801 3.53402ZM4.0477 2.88815C4.13479 2.82647 4.17107 2.73576 4.13116 2.68859C4.08762 2.64142 3.98602 2.65956 3.90256 2.72487C3.81911 2.79018 3.7792 2.87727 3.81911 2.92444C3.86265 2.97161 3.96425 2.95709 4.0477 2.88815Z" fill="#6B18B5"/>
<path id="Vector_49" fill-rule="evenodd" clip-rule="evenodd" d="M3.53667 3.51505C3.59472 3.42434 3.59835 3.32637 3.54392 3.29734C3.49313 3.26832 3.39879 3.31549 3.34436 3.4062C3.28993 3.49691 3.27905 3.59488 3.33347 3.62391C3.3879 3.65293 3.47861 3.60576 3.53667 3.51505ZM4.27688 3.12681C4.36759 3.05061 4.40387 2.94538 4.3567 2.89821C4.3059 2.85104 4.19342 2.87281 4.10271 2.94901C4.012 3.02521 3.97571 3.13043 4.02288 3.18123C4.07005 3.2284 4.18254 3.20663 4.27688 3.12681ZM2.93797 4.0303C3.02142 4.02667 3.08674 3.98313 3.08311 3.93596C3.07585 3.88516 2.99965 3.84887 2.9162 3.85613C2.82911 3.85613 2.7638 3.9033 2.77106 3.95047C2.77832 3.99764 2.85089 4.03392 2.93797 4.0303ZM4.55264 2.65147C4.6107 2.55713 4.61433 2.46279 4.5599 2.43377C4.5091 2.40111 4.41476 2.45191 4.36033 2.54262C4.3059 2.63333 4.29865 2.72767 4.34945 2.76033C4.40387 2.78936 4.49459 2.73856 4.55264 2.65147Z" fill="#6B18B5"/>
<path id="Vector_50" fill-rule="evenodd" clip-rule="evenodd" d="M14.2873 5.38838C14.2873 5.38838 14.5522 4.96747 14.4506 4.56834C14.349 4.17284 13.9063 4.45223 13.9172 4.59374C13.9281 4.73888 14.2002 4.92393 14.2184 5.01102C14.2365 5.0981 14.1893 5.36298 14.2873 5.38838Z" fill="#FFD200" stroke="#EF8A10" stroke-width="1.0321"/>
<path id="Vector_51" fill-rule="evenodd" clip-rule="evenodd" d="M9.2041 1.88375C9.2041 1.88375 10.162 1.92003 10.1693 2.5405C10.1656 2.63847 10.1693 2.75095 10.133 3.03034C10.2272 2.96843 10.3036 2.88293 10.3545 2.78236C10.4054 2.68178 10.4291 2.56963 10.4233 2.45704C10.4305 1.82569 9.57058 1.39753 9.2041 1.88375Z" fill="#217900" stroke="black" stroke-width="2.47704" stroke-linejoin="round"/>
<path id="Vector_52" fill-rule="evenodd" clip-rule="evenodd" d="M8.59473 1.85432C8.59473 1.85432 9.36759 1.69467 9.37485 2.31514C9.38211 2.93198 9.12811 3.03358 9.12811 3.03358C9.12811 3.03358 9.72318 2.90658 9.72318 2.27886C9.72681 1.6475 8.9612 1.36811 8.59473 1.85432Z" fill="#217900" stroke="black" stroke-width="2.47704" stroke-linejoin="round"/>
<path id="Vector_53" fill-rule="evenodd" clip-rule="evenodd" d="M11.2214 15.2499C11.2214 15.2499 14.839 14.2303 15.9275 9.78906C15.2926 14.3464 11.3339 15.7906 11.3339 15.7906L11.2178 15.2499H11.2214Z" fill="#F7DF73" stroke="black" stroke-width="2.68346" stroke-linejoin="round"/>
<path id="Vector_54" fill-rule="evenodd" clip-rule="evenodd" d="M11.5921 15.5306C11.7046 15.5306 11.9803 15.2222 12.14 15.1896C12.2996 15.1533 12.3178 14.9936 12.1327 14.9864C11.9513 14.9827 11.7916 15.1932 11.7916 15.1932C11.7916 15.1932 11.6356 15.3311 11.4687 15.3456C11.3054 15.3637 11.4107 15.5706 11.5921 15.527V15.5306Z" fill="#8C1800"/>
<path id="Vector_55" fill-rule="evenodd" clip-rule="evenodd" d="M13.6779 13.9725C13.6779 13.9725 13.3006 14.1902 13.3514 14.2446C13.4058 14.2954 13.7396 14.0378 13.7469 14.0305C13.7541 14.0269 13.8884 13.86 13.6743 13.9725H13.6779Z" fill="#8C1800" stroke="#8C1800" stroke-width="2.68346"/>
<path id="Vector_56" fill-rule="evenodd" clip-rule="evenodd" d="M12.3645 14.9634C12.3645 14.9634 12.252 14.9235 12.5387 14.811C12.829 14.6986 12.8108 14.5679 12.9015 14.5171C12.9995 14.4627 13.1991 14.3212 13.239 14.4046C13.2789 14.4881 13.0285 14.6514 12.9705 14.6695C12.9124 14.6877 12.6221 14.9525 12.5387 14.9743C12.4589 14.9997 12.3972 14.9852 12.3645 14.9634Z" fill="#8C1800"/>
<path id="Vector_57" d="M14.237 13.4219C13.9902 13.6976 13.9902 13.6904 13.9902 13.6904" stroke="#8C1800" stroke-width="3.19951" stroke-linecap="round"/>
<path id="Vector_58" d="M14.6069 12.9688L14.3711 13.259" stroke="#8C1800" stroke-width="2.99309" stroke-linecap="round"/>
<path id="Vector_59" d="M14.9768 12.3809L14.7119 12.8018" stroke="#8C1800" stroke-width="2.68346" stroke-linecap="round"/>
<path id="Vector_60" d="M15.289 11.7783L15.0713 12.2137M15.4305 11.459L15.3579 11.615" stroke="#8C1800" stroke-width="2.47704" stroke-linecap="round"/>
<path id="Vector_61" d="M15.5903 11.041L15.5322 11.2224" stroke="#8C1800" stroke-width="1.44494" stroke-linecap="round"/>
<path id="Vector_62" fill-rule="evenodd" clip-rule="evenodd" d="M6.47559 15.16C6.47559 15.16 2.88669 14.1177 1.81002 9.59375C2.43808 14.2382 6.36516 15.706 6.36516 15.706L6.47559 15.16Z" fill="#F7DF73" stroke="black" stroke-width="2.65315" stroke-linejoin="round"/>
<path id="Vector_63" fill-rule="evenodd" clip-rule="evenodd" d="M6.1092 15.4384C6.00035 15.4384 5.72458 15.1264 5.56493 15.0901C5.4089 15.0538 5.39439 14.8905 5.57219 14.8869C5.75361 14.8796 5.91326 15.0973 5.91326 15.0973C5.91326 15.0973 6.06929 15.2352 6.23257 15.2534C6.39585 15.2715 6.29062 15.4783 6.1092 15.4348V15.4384Z" fill="#8C1800"/>
<path id="Vector_64" fill-rule="evenodd" clip-rule="evenodd" d="M4.04608 13.8553C4.04608 13.8553 4.41877 14.0822 4.36356 14.1389C4.31525 14.1886 3.98396 13.9262 3.97706 13.9191C3.97016 13.912 3.83903 13.7418 4.04608 13.8553Z" fill="#8C1800" stroke="#8C1800" stroke-width="2.65315"/>
<path id="Vector_65" fill-rule="evenodd" clip-rule="evenodd" d="M5.34744 14.8626C5.34744 14.8626 5.4563 14.8226 5.16965 14.7065C4.88662 14.594 4.90114 14.4634 4.8068 14.409C4.71609 14.3546 4.51652 14.2094 4.48024 14.2929C4.44395 14.3763 4.68706 14.5469 4.74511 14.565C4.80317 14.5832 5.08982 14.8517 5.16965 14.8771C5.2531 14.8988 5.31116 14.888 5.34744 14.8626Z" fill="#8C1800"/>
<path id="Vector_66" d="M3.49379 13.2949L3.73535 13.5715" stroke="#8C1800" stroke-width="3.18378" stroke-linecap="round"/>
<path id="Vector_67" d="M3.12081 12.834L3.35547 13.1247" stroke="#8C1800" stroke-width="2.98479" stroke-linecap="round"/>
<path id="Vector_68" d="M2.75531 12.2324L3.01758 12.665" stroke="#8C1800" stroke-width="2.78581" stroke-linecap="round"/>
<path id="Vector_69" d="M2.44418 11.6211L2.66504 12.0678M2.30615 11.2949L2.37517 11.4509" stroke="#8C1800" stroke-width="2.58682" stroke-linecap="round"/>
<path id="Vector_70" d="M2.14785 10.8711L2.20996 11.0625" stroke="#8C1800" stroke-width="1.59189" stroke-linecap="round"/>
<path id="Vector_71" fill-rule="evenodd" clip-rule="evenodd" d="M16.1053 8.96875C16.1235 9.24814 16.3956 9.51302 16.2867 10.0029C16.1525 10.5508 15.6699 11.8643 15.757 12.0929C15.6118 11.8969 15.6372 11.7155 15.6264 11.4397C15.6118 11.1676 16.0219 10.1553 16.0581 9.81056C16.0581 9.50214 16.0872 9.08486 16.1053 8.96875Z" fill="#217900" stroke="black" stroke-width="2.47704" stroke-linejoin="round"/>
<path id="Vector_72" fill-rule="evenodd" clip-rule="evenodd" d="M16.1057 8.97656C16.1057 8.97656 16.5484 9.53898 16.5266 9.98528C16.5012 10.428 16.2545 10.9505 16.338 11.1827C16.1928 10.9867 16.1565 10.8597 16.1457 10.5876C16.1348 10.3155 16.3634 10.0143 16.3198 9.71677C16.2727 9.41924 16.1021 8.97656 16.1021 8.97656H16.1057ZM1.54104 9.09993C1.52289 9.37932 1.31607 9.62969 1.4213 10.1159C1.55918 10.6638 2.0454 11.3641 1.96557 12.166C2.10102 11.962 2.17067 11.7214 2.16514 11.4766C2.17602 11.2044 1.62449 10.2864 1.58821 9.94174C1.58821 9.63332 1.55918 9.21604 1.54104 9.09993Z" fill="#217900" stroke="black" stroke-width="2.47704" stroke-linejoin="round"/>
<path id="Vector_73" fill-rule="evenodd" clip-rule="evenodd" d="M1.54097 9.10742C1.54097 9.10742 1.10555 9.65169 1.13095 10.098C1.13821 10.3919 1.68248 11.6328 1.60265 11.8651C1.74416 11.6691 1.78408 11.6909 1.77682 11.3934C1.61717 10.635 1.33415 10.1488 1.38132 9.85489C1.42849 9.55735 1.54823 9.10742 1.54097 9.10742Z" fill="#217900" stroke="black" stroke-width="2.47704" stroke-linejoin="round"/>
<path id="Vector_74" d="M8.93484 4.12109L10.0036 7.43486H13.5015L10.6838 9.48531L11.7574 12.7991L8.9397 10.7535L6.12196 12.7991L7.19076 9.48531L4.36816 7.43486H7.85633L8.93484 4.12109Z" fill="white" stroke="black" stroke-width="2.07297" stroke-linecap="square" stroke-linejoin="round"/>
</g>
</g>
</g>
</g>
<defs>
<clipPath id="clip0_186_10766">
<rect width="18" height="18" fill="white"/>
</clipPath>
</defs>
</svg>
