<svg width="18" height="18" viewBox="0 0 18 18" fill="none" xmlns="http://www.w3.org/2000/svg">
<g id="mr" clip-path="url(#clip0_186_10850)">
<path id="Vector" d="M0 0H18V18H0V0Z" fill="#CD2A3E"/>
<path id="Vector_2" d="M0 2.69922H18V15.2992H0V2.69922Z" fill="#006233"/>
<path id="Vector_3" d="M14.6249 5.79688C14.6249 7.28872 14.0323 8.71946 12.9774 9.77435C11.9225 10.8292 10.4918 11.4219 8.99991 11.4219C7.50806 11.4219 6.07732 10.8292 5.02243 9.77435C3.96754 8.71946 3.37491 7.28872 3.37491 5.79688C3.24914 6.2766 3.18534 6.77047 3.18506 7.26641C3.18397 8.09308 3.35916 8.91048 3.69894 9.6641C4.03872 10.4177 4.53529 11.0902 5.15551 11.6368C5.77574 12.1833 6.50537 12.5913 7.29574 12.8336C8.08612 13.0759 8.91906 13.1468 9.73903 13.0417C10.559 12.9367 11.3471 12.658 12.0509 12.2242C12.7546 11.7905 13.3578 11.2117 13.8202 10.5264C14.2825 9.84111 14.5935 9.06512 14.7322 8.25018C14.871 7.43524 14.8344 6.60007 14.6249 5.80039V5.79688Z" fill="#FFC400"/>
<path id="Vector_4" d="M8.9999 3.51562L8.49365 5.07305H6.85889L8.18076 6.03281L7.67803 7.58672L8.9999 6.62695L10.3218 7.58672L9.81553 6.03281L11.1409 5.07305H9.50615L8.9999 3.51562Z" fill="#FFC400"/>
</g>
<defs>
<clipPath id="clip0_186_10850">
<rect width="18" height="18" fill="white"/>
</clipPath>
</defs>
</svg>
