<svg width="18" height="18" viewBox="0 0 18 18" fill="none" xmlns="http://www.w3.org/2000/svg">
<g id="ms" clip-path="url(#clip0_186_10898)">
<path id="Vector" d="M0.00683594 0H18.0068V18H0.00683594V0Z" fill="#012169"/>
<path id="Vector_2" d="M9.8998 4.46484H17.1209L17.1104 9.6082C17.1701 11.6719 15.8799 12.9551 13.5139 13.5352C11.8299 13.1133 9.88926 12.252 9.88574 9.66797L9.89629 4.46484H9.8998Z" fill="white"/>
<path id="Vector_3" d="M10.0578 4.61914H16.9625L16.9555 9.54805C17.0117 11.5273 15.7813 12.7543 13.5172 13.3098C11.907 12.909 10.0508 12.0793 10.0508 9.6043L10.0578 4.61914Z" fill="#00A2BD" stroke="black" stroke-width="1.8"/>
<path id="Vector_4" d="M16.9098 10.1328C16.6566 12.0207 15.2012 12.8469 13.5137 13.2863C12.023 12.8855 10.4199 12.2457 10.1035 10.1398L16.9098 10.1328Z" fill="#A53D08"/>
<path id="Vector_5" d="M13.243 5.53672L13.2324 4.91797L13.7246 4.92148L13.7281 5.53672H15.0711L15.0746 6.01836L13.7281 6.02539L13.7176 11.6996L13.2395 11.7031L13.2324 6.01836L11.8965 6.02539V5.5332L13.243 5.53672Z" fill="black"/>
<path id="Vector_6" fill-rule="evenodd" clip-rule="evenodd" d="M12.1567 10.3637L13.3872 11.6398C13.809 11.1723 13.5137 9.425 12.9547 9.10508C12.8879 9.3125 12.7754 9.56211 12.6524 9.63945C12.3852 9.82227 11.7348 10.0332 11.9493 10.1668C12.002 10.1 12.1321 10.0367 12.1954 10.1879C12.2657 10.4305 11.9212 10.4445 11.9212 10.4445C11.9212 10.4445 11.7032 10.4164 11.6645 10.1984C11.6294 9.97344 11.9915 9.76953 12.0196 9.75547C12.0547 9.74492 12.5258 9.61484 12.6067 9.19648C12.7051 8.78164 12.8106 8.84492 12.8282 8.83789C13.4504 8.89766 13.8547 10.0086 13.8794 10.7891C13.9004 11.5695 13.5629 12.0898 13.4997 12.125C13.4364 12.1566 12.0231 10.441 12.0231 10.441L12.1567 10.3637Z" fill="#FF9A08" stroke="black" stroke-width="0.8"/>
<g id="Vector_7">
<path d="M13.0496 9.17578L13.0602 11.4785ZM12.9125 9.22148L12.9195 11.3098ZM12.7613 9.52383L12.7719 11.1832ZM12.6418 9.63984L12.6488 11.0145ZM12.5117 9.70312V10.8633ZM12.3711 9.79453V10.7121ZM12.248 9.86836V10.5715Z" fill="#FF9A08"/>
<path d="M13.0496 9.17578L13.0602 11.4785M12.9125 9.22148L12.9195 11.3098M12.7613 9.52383L12.7719 11.1832M12.6418 9.63984L12.6488 11.0145M12.5117 9.70312V10.8633M12.3711 9.79453V10.7121M12.248 9.86836V10.5715" stroke="black" stroke-width="0.8"/>
</g>
<path id="Vector_8" d="M12.1357 10.5117L13.4014 11.9602" stroke="#FFDF00" stroke-linecap="round"/>
<path id="Vector_9" d="M13.4645 9.59766C13.4645 9.59766 14.0376 10.8527 13.5067 11.8828M11.9879 10.2445C11.9879 10.2445 12.0301 10.1355 12.0829 10.1813M11.886 9.92461C11.886 9.92461 11.6575 10.1285 11.7805 10.2586" stroke="#FFDF00" stroke-width="1.4" stroke-linecap="round"/>
<path id="Vector_10" d="M13.7322 6.72982C13.8166 6.65951 13.8623 6.6138 13.915 6.62435C13.9677 6.63138 14.0381 6.62435 14.0908 6.61029C14.2292 6.57815 14.3725 6.57337 14.5127 6.59622C14.5478 6.60326 14.597 6.62083 14.6744 6.68412C14.7482 6.7474 14.8572 6.8599 14.822 7.16224C14.7869 7.46458 14.7974 7.59466 14.7799 7.76693C14.7517 8.06576 14.6849 8.31185 14.5689 8.29427C14.7271 8.57552 14.7447 8.82162 14.8502 9.01497C14.9556 9.20833 15.0189 9.6056 14.9803 10.0345C14.9381 10.4669 14.8256 11.4302 15.1666 12.0806C15.1103 12.1193 14.9732 12.0806 14.8502 11.9505C14.7271 11.8204 14.6744 11.824 14.5724 11.9013C14.2666 12.1368 13.9748 12.4216 13.5529 12.1369C13.4545 12.0736 13.4228 11.9962 13.4967 11.7958C13.6724 11.3036 13.7603 10.6216 13.7322 10.3052V6.72982Z" fill="#008021" stroke="black" stroke-width="0.3"/>
<path id="Vector_11" d="M14.0275 6.42703C14.0486 6.49734 14.0592 6.58523 14.024 6.66609C13.9889 6.74695 13.9783 6.84187 14.0381 6.9614C14.1365 6.8243 14.2736 6.85594 14.3545 6.77156C14.4354 6.6907 14.4529 6.61336 14.5127 6.59578C14.4529 6.54305 14.358 6.49031 14.3791 6.33211C14.4002 6.18094 14.6147 6.05086 14.4213 5.81883C14.3752 5.76299 14.3095 5.72681 14.2377 5.71767C14.1658 5.70853 14.0932 5.7271 14.0346 5.76961C14 5.7934 13.9712 5.82463 13.9502 5.86101C13.9397 5.88914 13.9537 5.9489 13.9256 5.98406L13.8553 6.05437C13.8342 6.06492 13.8201 6.0825 13.8412 6.10711C13.8483 6.11414 13.8658 6.11765 13.8799 6.12117C13.8722 6.1396 13.8628 6.15725 13.8518 6.1739C13.8412 6.18445 13.8447 6.195 13.8553 6.20906C13.8412 6.25476 13.8693 6.2618 13.8518 6.29695C13.8342 6.32859 13.8096 6.36726 13.8729 6.40242C13.894 6.41297 13.9783 6.43406 14.024 6.42703H14.0275ZM13.2365 7.23211C13.124 7.26375 12.9412 7.21453 12.8006 7.23211C12.7408 7.23562 12.6951 7.20398 12.7022 7.14422C12.7092 7.08445 12.7162 6.98953 12.7022 6.90515C12.6846 6.77156 12.7479 6.58875 12.8393 6.38484C12.9088 6.2584 12.9541 6.12009 12.9729 5.97703C12.9729 5.91375 12.9799 5.84344 13.0361 5.80828C13.0783 5.78015 13.0854 5.75555 13.0994 5.73445C13.1346 5.68172 13.1697 5.67117 13.1697 5.6993C13.1733 5.71687 13.1697 5.73445 13.1522 5.75906C13.1873 5.72742 13.2506 5.69226 13.2647 5.68172C13.2787 5.67469 13.349 5.62195 13.3525 5.67117C13.3807 5.65711 13.4018 5.65711 13.4088 5.67117C13.4158 5.68875 13.4088 5.69578 13.3983 5.70633C13.4158 5.70633 13.4404 5.74148 13.3983 5.76961C13.4229 5.76258 13.444 5.79773 13.4053 5.83289C13.3666 5.86453 13.3209 5.88914 13.3068 5.91375C13.2928 5.94187 13.1979 6.0157 13.1592 6.02976C13.1205 6.04734 13.117 6.06844 13.117 6.12469C13.117 6.75047 13.0432 6.70125 13.0432 6.8489C13.0432 6.89109 13.0361 6.92625 13.0783 6.9157C13.1135 6.90164 13.1768 6.88406 13.2365 6.88406V7.23562V7.23211ZM13.2611 8.57859C13.444 8.48719 13.6549 8.45555 13.7639 8.42742C13.8693 8.3993 14.0451 8.3114 14.133 8.26922C14.2174 8.22351 14.2877 8.16375 14.3334 8.14617C14.3826 8.12859 14.4389 8.09695 14.467 8.03719C14.6252 7.72781 14.7131 7.48172 14.7131 7.26375C14.7131 7.12312 14.6779 6.96492 14.5373 7.08094C14.4072 7.1864 14.2666 7.39383 14.2279 7.54148C14.1717 7.77 14.1225 7.81922 14.1119 7.8614C14.0979 7.90711 14.0522 7.90711 13.9994 7.91765C13.823 7.94596 13.6584 8.02402 13.5248 8.14265C13.3641 8.26085 13.1962 8.36887 13.0221 8.46609C12.892 8.5364 12.8674 8.54695 12.8393 8.60672C12.8184 8.65356 12.7912 8.69733 12.7584 8.7368C12.748 8.74867 12.7404 8.76273 12.7361 8.77794C12.7318 8.79315 12.7311 8.80913 12.7338 8.82469L12.7233 9.01453C12.7233 9.0532 12.7303 9.06375 12.7479 9.06726C12.7619 9.06726 12.783 9.06023 12.7936 9.01101C12.7865 9.06023 12.8533 9.04617 12.8568 9.01101C12.8568 9.06023 12.9272 9.02859 12.9272 8.98289C12.9272 9.01805 12.9834 8.99344 12.9869 8.97586L13.0256 8.85633C13.0502 8.81062 13.0748 8.75086 13.124 8.7157C13.1768 8.68054 13.1522 8.63484 13.2611 8.57859ZM14.5725 11.9009L14.6182 12.0274C14.6252 12.0591 14.6111 12.0661 14.6041 12.0837C14.5569 12.1816 14.5237 12.2858 14.5057 12.393C14.5057 12.4352 14.4705 12.4809 14.46 12.5055C14.4424 12.5337 14.4494 12.5583 14.4846 12.5864C14.5022 12.597 14.5549 12.5794 14.5654 12.5512C14.583 12.5723 14.6217 12.5653 14.6358 12.5337C14.6568 12.5512 14.685 12.5407 14.7061 12.5091C14.7236 12.5231 14.7518 12.4985 14.7623 12.4809C14.7904 12.495 14.8186 12.4809 14.8221 12.4212L14.8361 12.379C14.8432 12.3649 14.8467 12.3403 14.8467 12.3192C14.8467 12.2946 14.8608 12.2489 14.8783 12.2208C14.8959 12.1856 14.9311 12.1329 14.9135 12.0802C14.9029 12.0309 14.8818 12.0345 14.8643 11.9641C14.8186 11.9184 14.7588 11.8516 14.6955 11.8481C14.6322 11.8446 14.5971 11.8868 14.5725 11.9009ZM13.4193 12.2489C13.4756 12.3052 13.6057 12.3087 13.6936 12.2137C13.6584 12.1997 13.5881 12.168 13.56 12.1434C13.5143 12.1856 13.4615 12.2348 13.4193 12.2489Z" fill="#FFE1CF" stroke="black" stroke-width="0.3"/>
<path id="Vector_12" d="M13.9922 5.8004C14.0168 5.65978 14.1187 5.65978 14.182 5.67736C14.2102 5.68087 14.2734 5.6879 14.3332 5.67033C14.4563 5.63869 14.5441 5.68087 14.5336 5.79689C14.5687 5.8215 14.6004 5.87775 14.5934 5.92697C14.5863 5.97619 14.5969 5.99728 14.6426 6.0008C14.6883 6.00783 14.7832 6.06408 14.7199 6.14142C14.7797 6.17658 14.8254 6.2715 14.7937 6.33126C14.7621 6.39455 14.6637 6.40509 14.625 6.34884C14.5793 6.36994 14.5055 6.37345 14.4633 6.32775C14.4316 6.3629 14.3578 6.35939 14.3402 6.32775C14.3262 6.29259 14.3051 6.27853 14.2734 6.26798C14.2383 6.25744 14.2383 6.16955 14.2875 6.159C14.2805 6.13087 14.284 6.10275 14.2945 6.08869C14.3086 6.07462 14.298 6.0465 14.2699 6.0254C14.2418 6.00079 14.2172 5.91994 14.2453 5.87072C14.1961 5.8883 14.0906 5.83908 14.0695 5.80744C14.0449 5.77228 14.0133 5.77228 13.9957 5.8004H13.9922Z" fill="#870F00" stroke="black" stroke-width="0.3"/>
<path id="Vector_13" d="M14.0277 6.42697C14.1051 6.41642 14.1332 6.3672 14.1895 6.37072M13.8555 6.20548L13.8766 6.21954C13.8906 6.22658 13.9117 6.23009 13.9258 6.23009M13.8801 6.12111L13.9152 6.1422M14.0629 5.80119C14.0172 5.759 14.1437 5.66759 14.2738 5.79767C14.2984 5.81876 14.3617 5.82228 14.3793 5.81525M14.2457 5.8715C14.3055 5.85744 14.3969 5.85744 14.4215 5.92423C14.4496 5.99454 14.5023 5.94884 14.5445 6.0297C14.5867 6.11408 14.657 6.20548 14.7203 6.1422M14.4637 6.32853C14.4531 6.31133 14.4464 6.29207 14.444 6.27205C14.4416 6.25203 14.4435 6.23173 14.4496 6.21251C14.425 6.18439 14.4355 6.12814 14.4496 6.10001M14.2879 6.15978C14.2879 6.18439 14.323 6.23009 14.3723 6.23712M14.6254 6.34962C14.5973 6.31447 14.6008 6.27931 14.6078 6.23712" stroke="black" stroke-width="0.3"/>
<path id="Vector_14" d="M14.3301 5.94453C14.3301 5.97969 14.3477 6.02891 14.3863 6.05C14.3969 6.06758 14.4355 6.12383 14.5164 6.1168M14.534 5.80039C14.4814 5.75351 14.4169 5.72191 14.3477 5.70898M14.0383 6.96055C13.968 7.05547 13.9258 7.18555 13.9574 7.36836C13.9926 7.54766 14.0418 7.81836 13.9082 7.93789M14.5656 8.29297C14.4742 8.27187 14.3406 8.27188 14.2668 8.32461C14.2254 8.35018 14.1783 8.36489 14.1297 8.36734C14.0812 8.3698 14.0328 8.35994 13.9891 8.33867" stroke="black" stroke-width="0.3"/>
<path id="Vector_15" d="M14.3688 8.28633C14.288 8.30039 14.2493 8.35664 14.2493 8.50781C14.2493 8.65547 14.2177 8.87695 14.2458 9.09141M14.2212 8.34961C14.1684 8.36367 14.1157 8.36367 14.1227 8.50781M13.947 8.50781C13.947 8.42344 13.9821 8.34258 14.0384 8.35664M14.5306 8.52539C14.5376 8.33555 14.4954 8.2793 14.4356 8.2793C14.513 8.28281 14.5657 8.29336 14.5974 8.60977C14.622 8.8418 14.6712 8.92617 14.7274 9.1125C14.8751 9.59063 14.8013 10.3289 14.8751 10.5891M14.4216 8.58516C14.6211 9.14675 14.6148 9.76092 14.404 10.3184C14.5727 10.7895 14.745 11.1305 14.7766 11.3238M13.9329 9.63633C13.961 9.53789 13.8626 9.52383 13.9505 9.16875C13.9856 9.01406 13.9962 8.92266 13.9716 8.86992" stroke="black" stroke-width="0.3"/>
<path id="Vector_16" d="M13.9711 9.08008C13.9359 9.23828 14.0871 9.53711 14.0098 9.74805M13.8164 9.79023C13.8164 9.93086 13.8516 10.1066 13.8445 10.2473C13.8375 10.3844 13.8938 10.4477 13.957 10.5777C14.1926 11.0488 14.3543 11.3863 14.3297 11.8258C14.3297 11.9066 14.3543 12.0789 14.2699 12.1281M13.827 12.2477C13.8516 12.2477 13.8762 12.2371 13.9078 12.1633C13.9359 12.093 14.0344 11.6535 13.9957 11.3547M14.0414 11.6922C14.0604 11.8391 14.0447 11.9884 13.9957 12.1281" stroke="black" stroke-width="0.3"/>
<path id="Vector_17" d="M14.1964 11.416C14.2315 11.6129 14.2315 11.7922 14.1999 11.9188M14.1155 11.9188C14.119 11.9996 14.1577 12.2 14.0944 12.2176M14.4214 10.9766C14.569 11.2121 14.6886 11.7922 14.8116 11.9152M14.5515 11.8203C14.5444 11.757 14.5409 11.6656 14.5058 11.627M12.9308 8.9832C12.9308 8.9375 12.9237 8.89531 12.973 8.825M12.8569 9.00781C12.864 8.85313 12.8605 8.83906 12.9062 8.79688M12.7972 9.01133C12.7972 8.90234 12.7831 8.86367 12.8253 8.78984M13.3526 5.66797L13.1909 5.7875M13.3948 5.70312C13.3773 5.70664 13.3245 5.75234 13.2226 5.82969M13.4019 5.76641C13.3667 5.78047 13.3105 5.83672 13.2542 5.87891M13.1487 5.75586L13.0925 5.81211M14.5655 12.5516C14.555 12.541 14.555 12.5059 14.5726 12.4672M14.6358 12.534C14.6253 12.5234 14.6358 12.4742 14.6499 12.4426M14.7062 12.5094C14.6921 12.5023 14.6886 12.4742 14.7062 12.4391M14.7624 12.4813C14.7519 12.4813 14.7483 12.4637 14.7624 12.418" stroke="black" stroke-width="0.3"/>
<path id="Vector_18" d="M13.9645 5.93025C13.9927 5.9654 14.0243 5.9654 14.0278 5.99001L14.0419 6.02517H14.0208L13.9716 6.02165C13.9575 6.02165 13.9399 6.00408 13.9505 6.00056C13.961 6.00056 13.961 5.99704 13.9575 5.99001L13.9681 5.96892C13.9751 5.9654 13.9681 5.96892 13.9681 5.95486C13.961 5.94431 13.9575 5.9197 13.9645 5.93025ZM13.9821 5.89509C14.0265 5.89958 14.0684 5.91804 14.1017 5.94783C14.1263 5.97595 14.1052 5.96892 14.0946 5.96892C14.0806 5.96892 14.0595 5.96189 14.0454 5.94783C14.0349 5.93376 13.9962 5.91267 13.9751 5.90915C13.9681 5.90564 13.9575 5.89158 13.9821 5.89509Z" fill="black"/>
<path id="Vector_19" d="M0.00683594 0H9.00684V9H0.00683594V0Z" fill="#012169"/>
<path id="Vector_20" d="M9.00684 0V1.125L5.66699 4.5L9.00684 7.78711V9H7.8291L4.47168 5.69531L1.20215 9H0.00683594V7.80469L3.27637 4.51758L0.00683594 1.30078V0H1.09668L4.47168 3.30469L7.74121 0H9.00684Z" fill="white"/>
<path id="Vector_21" d="M3.24121 5.69531L3.43457 6.29297L0.745117 9H0.00683594V8.94727L3.24121 5.69531ZM5.4209 5.48438L6.37012 5.625L9.00684 8.20898V9L5.4209 5.48438ZM9.00684 0L5.63184 3.44531L5.56152 2.67188L8.19824 0H9.00684ZM0.00683594 0.0175781L3.39941 3.33984L2.3623 3.19922L0.00683594 0.861328V0.0175781Z" fill="#C8102E"/>
<path id="Vector_22" d="M3.10059 0V9H5.91309V0H3.10059ZM0.00683594 3.09375V5.90625H9.00684V3.09375H0.00683594Z" fill="white"/>
<path id="Vector_23" d="M0.00683594 3.65625V5.34375H9.00684V3.65625H0.00683594ZM3.66309 0V9H5.35059V0H3.66309Z" fill="#C8102E"/>
</g>
<defs>
<clipPath id="clip0_186_10898">
<rect width="18" height="18" fill="white"/>
</clipPath>
</defs>
</svg>
