<svg width="18" height="18" viewBox="0 0 18 18" fill="none" xmlns="http://www.w3.org/2000/svg">
<g id="mt" clip-path="url(#clip0_186_10855)">
<g id="Group">
<path id="Vector" fill-rule="evenodd" clip-rule="evenodd" d="M9 0H18V18H9V0Z" fill="#CE0000"/>
<path id="Vector_2" fill-rule="evenodd" clip-rule="evenodd" d="M0 0H9V18H0V0Z" fill="white"/>
</g>
<g id="Group_2">
<path id="Vector_3" fill-rule="evenodd" clip-rule="evenodd" d="M3.68402 3.79973C3.68402 3.82803 3.65203 3.85142 3.61265 3.85142C3.57204 3.85142 3.54004 3.8268 3.54004 3.79973C3.54004 3.77143 3.57204 3.74805 3.61142 3.74805C3.6508 3.74805 3.68526 3.77143 3.68526 3.79973H3.68402Z" fill="#F1EEEE"/>
<path id="Vector_4" fill-rule="evenodd" clip-rule="evenodd" d="M1.43066 3.55036V4.85846H2.74007C2.74754 4.97166 2.79581 5.07831 2.87591 5.15864C2.95602 5.23896 3.06254 5.28753 3.17572 5.29532V6.60342H4.48389V5.29532C4.59707 5.28753 4.70359 5.23896 4.7837 5.15864C4.8638 5.07831 4.91207 4.97166 4.91954 4.85846H6.22772V3.55036H4.91954C4.91178 3.43739 4.86339 3.33104 4.78331 3.25096C4.70323 3.17089 4.59688 3.1225 4.48389 3.11474V1.80664H3.17572V3.11474C3.06273 3.1225 2.95638 3.17089 2.8763 3.25096C2.79622 3.33104 2.74783 3.43739 2.74007 3.55036H1.43066Z" fill="#CC0000"/>
<path id="Vector_5" fill-rule="evenodd" clip-rule="evenodd" d="M1.47461 3.59456V4.81529H2.78278C2.79054 4.92827 2.83893 5.03462 2.91901 5.1147C2.99909 5.19477 3.10545 5.24316 3.21843 5.25092V6.56025H4.43923V5.25092C4.55243 5.24344 4.65909 5.19518 4.73942 5.11508C4.81975 5.03498 4.86832 4.92847 4.87611 4.81529H6.18429V3.59456H4.87611C4.8686 3.48117 4.82017 3.37436 4.7398 3.29401C4.65944 3.21365 4.55263 3.16522 4.43923 3.15771V1.84961H3.21843V3.15771C3.10547 3.16579 2.99925 3.21447 2.9194 3.29478C2.83954 3.37508 2.79146 3.48156 2.78402 3.59456H1.47461Z" fill="#FFE600"/>
<path id="Vector_6" fill-rule="evenodd" clip-rule="evenodd" d="M1.5166 3.63826V4.77161H2.82478C2.83228 4.88501 2.88072 4.99181 2.96108 5.07217C3.04144 5.15253 3.14826 5.20096 3.26166 5.20847V6.51657H4.39508V5.20724C4.50826 5.19944 4.61478 5.15088 4.69488 5.07055C4.77499 4.99023 4.82325 4.88358 4.83073 4.77038H6.1389V3.63826H4.83073C4.82329 3.52526 4.7752 3.41877 4.69534 3.33847C4.61549 3.25817 4.50927 3.20948 4.39631 3.2014V1.89453H3.26289V3.2014C3.14968 3.20887 3.04303 3.25714 2.9627 3.33724C2.88236 3.41734 2.8338 3.52385 2.82601 3.63702H1.5166V3.63826Z" fill="#707070"/>
<path id="Vector_7" fill-rule="evenodd" clip-rule="evenodd" d="M1.56152 3.68122V4.72721H2.8697C2.87717 4.84041 2.92544 4.94705 3.00554 5.02738C3.08565 5.10771 3.19217 5.15627 3.30535 5.16407V6.47217H4.35139V5.16407C4.4646 5.15659 4.57125 5.10833 4.65158 5.02823C4.73192 4.94813 4.78048 4.84162 4.78827 4.72844H6.09522V3.68245H4.78827C4.7808 3.56926 4.73254 3.46261 4.65243 3.38228C4.57232 3.30195 4.46581 3.25339 4.35263 3.2456V1.9375H3.30658V3.2456C3.19338 3.25307 3.08672 3.30133 3.00639 3.38144C2.92606 3.46154 2.87749 3.56805 2.8697 3.68122H1.56152Z" fill="#A0A0A0"/>
<g id="Group_3">
<path id="Vector_8" fill-rule="evenodd" clip-rule="evenodd" d="M3.31603 3.13623C3.39356 3.21376 3.3308 3.39957 3.1782 3.5534C3.0256 3.70722 2.83854 3.76875 2.76101 3.69122C2.68471 3.61492 2.74747 3.42911 2.90007 3.27529C3.05267 3.12146 3.23973 3.05993 3.31603 3.13623Z" fill="#D0D0D0"/>
<path id="Vector_9" fill-rule="evenodd" clip-rule="evenodd" d="M3.22371 3.22757C3.30124 3.30509 3.28032 3.44907 3.17818 3.55121C3.07603 3.65334 2.93082 3.67426 2.85452 3.59797C2.77699 3.52167 2.79791 3.37647 2.90005 3.27433C3.0022 3.17219 3.14741 3.15127 3.22371 3.22757Z" fill="#808080"/>
<path id="Vector_10" fill-rule="evenodd" clip-rule="evenodd" d="M2.83887 3.45949L2.86963 3.42873L2.9927 3.49026L2.93117 3.3672L2.96193 3.33643L3.085 3.58255L2.83887 3.45949ZM3.02346 3.2749L3.05423 3.24414L3.23883 3.42873L3.20929 3.45949L3.02346 3.2749Z" fill="#D0D0D0"/>
</g>
<g id="Group_4">
<path id="Vector_11" fill-rule="evenodd" clip-rule="evenodd" d="M4.89611 3.69223C4.81981 3.76853 4.63275 3.70577 4.48015 3.55317C4.32755 3.40058 4.26479 3.21354 4.34109 3.13601C4.41862 3.05971 4.60445 3.12247 4.75705 3.27507C4.90965 3.42766 4.97241 3.6147 4.89611 3.691V3.69223Z" fill="#D0D0D0"/>
<path id="Vector_12" fill-rule="evenodd" clip-rule="evenodd" d="M4.80405 3.59914C4.72775 3.67543 4.58253 3.65574 4.48039 3.55361C4.37824 3.45147 4.35732 3.30626 4.43362 3.22997C4.50992 3.15367 4.65514 3.17336 4.75728 3.2755C4.85943 3.37763 4.88035 3.52161 4.80405 3.59914Z" fill="#808080"/>
<path id="Vector_13" fill-rule="evenodd" clip-rule="evenodd" d="M4.57228 3.21289L4.60305 3.24489L4.54152 3.36794L4.66458 3.30641L4.69535 3.33718L4.44922 3.46024L4.57228 3.21412V3.21289ZM4.75688 3.39871L4.78765 3.42947L4.60305 3.61406L4.57228 3.58452L4.75688 3.39871Z" fill="#D0D0D0"/>
</g>
<g id="Group_5">
<path id="Vector_14" fill-rule="evenodd" clip-rule="evenodd" d="M4.34109 5.27108C4.26479 5.19478 4.32755 5.00773 4.48015 4.85514C4.63275 4.70255 4.81981 4.63979 4.89611 4.71609C4.97241 4.79238 4.91088 4.97943 4.75705 5.13202C4.60322 5.28461 4.41862 5.34737 4.34109 5.27108Z" fill="#D0D0D0"/>
<path id="Vector_15" fill-rule="evenodd" clip-rule="evenodd" d="M4.43362 5.17805C4.35732 5.10175 4.37824 4.95654 4.48039 4.85441C4.58253 4.75227 4.72652 4.73135 4.80405 4.80764C4.88035 4.88517 4.85943 5.02915 4.75728 5.13128C4.65514 5.23342 4.51115 5.25434 4.43362 5.17805Z" fill="#808080"/>
<path id="Vector_16" fill-rule="evenodd" clip-rule="evenodd" d="M4.82014 4.94728L4.78937 4.97804L4.6663 4.91651L4.72784 5.03957L4.69584 5.07033L4.57278 4.82422L4.8189 4.94728H4.82014ZM4.63554 5.13186L4.60354 5.16263L4.41895 4.97804L4.44971 4.94728L4.63554 5.13186Z" fill="#D0D0D0"/>
</g>
<g id="Group_6">
<path id="Vector_17" fill-rule="evenodd" clip-rule="evenodd" d="M2.76203 4.71631C2.83833 4.64001 3.02415 4.70154 3.17798 4.85536C3.33181 5.00919 3.39335 5.195 3.31705 5.2713C3.23952 5.34759 3.05369 5.28606 2.89986 5.13224C2.74603 4.97842 2.6845 4.7926 2.76203 4.71631Z" fill="#D0D0D0"/>
<path id="Vector_18" fill-rule="evenodd" clip-rule="evenodd" d="M2.85452 4.80764C2.93082 4.73135 3.07603 4.75227 3.17818 4.85441C3.28032 4.95654 3.30124 5.10052 3.22371 5.17805C3.14741 5.25434 3.0022 5.23342 2.90005 5.13128C2.79791 5.02915 2.77699 4.88517 2.85452 4.80764Z" fill="#808080"/>
<path id="Vector_19" fill-rule="evenodd" clip-rule="evenodd" d="M3.0845 5.19291L3.05374 5.16214L3.11527 5.03908L2.99221 5.10061L2.96144 5.06985L3.20757 4.94679L3.0845 5.19291ZM2.89991 5.00832L2.86914 4.97755L3.05374 4.79297L3.0845 4.82373L2.89991 5.00832Z" fill="#D0D0D0"/>
</g>
<path id="Vector_20" d="M4.74571 4.20461C4.74571 4.70915 4.33583 5.12016 3.82978 5.12016C3.32373 5.12016 2.91504 4.71038 2.91504 4.20461C2.91504 3.69884 3.32493 3.28906 3.83098 3.28906C4.33703 3.28906 4.74692 3.69884 4.74692 4.20461H4.74571Z" stroke="#707070" stroke-width="0.46126"/>
<path id="Vector_21" d="M4.52665 4.20537C4.52665 4.58977 4.21435 4.90292 3.82879 4.90292C3.44322 4.90292 3.13184 4.59071 3.13184 4.20537C3.13184 3.82002 3.44414 3.50781 3.8297 3.50781C4.21527 3.50781 4.52757 3.82002 4.52757 4.20537H4.52665Z" stroke="#707070" stroke-width="0.351437"/>
<path id="Vector_22" fill-rule="evenodd" clip-rule="evenodd" d="M3.52267 4.94541C3.52267 4.95684 3.51813 4.96779 3.51005 4.97587C3.50198 4.98395 3.49102 4.98848 3.4796 4.98848C3.46817 4.98848 3.45722 4.98395 3.44914 4.97587C3.44106 4.96779 3.43652 4.95684 3.43652 4.94541C3.43652 4.93399 3.44106 4.92304 3.44914 4.91496C3.45722 4.90688 3.46817 4.90234 3.4796 4.90234C3.49102 4.90234 3.50198 4.90688 3.51005 4.91496C3.51813 4.92304 3.52267 4.93399 3.52267 4.94541ZM4.22167 4.94541C4.22167 4.957 4.21707 4.96811 4.20888 4.9763C4.20069 4.9845 4.18957 4.9891 4.17799 4.9891C4.1664 4.9891 4.15529 4.9845 4.14709 4.9763C4.1389 4.96811 4.1343 4.957 4.1343 4.94541C4.1343 4.93399 4.13884 4.92304 4.14691 4.91496C4.15499 4.90688 4.16595 4.90234 4.17737 4.90234C4.18879 4.90234 4.19975 4.90688 4.20783 4.91496C4.21591 4.92304 4.22044 4.93399 4.22044 4.94541H4.22167ZM3.79956 4.94541V4.99095H3.74172C3.68388 4.99095 3.68388 5.03648 3.74172 5.03648H3.79956V5.08201C3.79956 5.12877 3.85125 5.13492 3.85494 5.0857L3.85863 5.03648H3.91647C3.97432 5.03648 3.97432 4.99095 3.91647 4.99095H3.85863V4.94541C3.85863 4.89988 3.79956 4.89988 3.79956 4.94541Z" fill="#D0D0D0"/>
<path id="Vector_23" fill-rule="evenodd" clip-rule="evenodd" d="M3.61252 4.30273V4.32819C3.61252 4.32819 3.59911 4.3482 3.51171 4.35438C3.42431 4.36056 3.4109 4.35438 3.4109 4.35438C3.41333 4.37657 3.43 4.41948 3.42512 4.4704C3.42878 4.52932 3.40886 4.58315 3.40886 4.58315C3.4109 4.58606 3.40073 4.58788 3.38203 4.58606C3.39667 4.57333 3.39464 4.53587 3.39667 4.48313C3.39829 4.43003 3.34138 4.35038 3.35317 4.32856C3.36496 4.30674 3.61252 4.30273 3.61252 4.30273Z" fill="#D0D0D0" stroke="#707070" stroke-width="0.14583"/>
<path id="Vector_24" fill-rule="evenodd" clip-rule="evenodd" d="M3.95716 4.2084C4.04212 4.2044 4.1844 4.20513 4.1844 4.20513C4.1844 4.20513 4.21814 4.27242 4.21651 4.30951C4.21488 4.34661 4.2035 4.37862 4.18805 4.36262C4.17261 4.34661 4.19497 4.34989 4.19781 4.30951C4.20066 4.26951 4.17098 4.22804 4.17098 4.22804C4.17098 4.22804 4.11001 4.25459 4.01854 4.24914C3.92708 4.24368 3.96773 4.20986 3.95757 4.2084H3.95716Z" fill="#D0D0D0" stroke="#707070" stroke-width="0.14583"/>
<path id="Vector_25" fill-rule="evenodd" clip-rule="evenodd" d="M3.9866 4.2758C4.07156 4.27144 4.12725 4.28453 4.12725 4.28453C4.12725 4.28453 4.16058 4.35182 4.15936 4.38892C4.15814 4.42602 4.14635 4.45802 4.1305 4.44202C4.11465 4.42602 4.13782 4.42929 4.14066 4.38892C4.14351 4.34891 4.11343 4.30708 4.11343 4.30708C4.11343 4.30708 4.05245 4.33363 3.96139 4.32854C3.86993 4.32309 3.89595 4.31763 3.88578 4.31618C3.87562 4.31472 3.87278 4.34164 3.73456 4.34527C3.59635 4.34891 3.52562 4.31618 3.52562 4.31618C3.52562 4.31618 3.5118 4.33582 3.42481 4.34164C3.33781 4.34746 3.32399 4.34164 3.32399 4.34164C3.32602 4.36419 3.3431 4.4071 3.33822 4.45802C3.34147 4.51694 3.32196 4.57077 3.32196 4.57077C3.32399 4.57368 3.31342 4.5755 3.29513 4.57368C3.30936 4.56095 3.30773 4.52349 3.30936 4.47075C3.31098 4.41765 3.25448 4.33764 3.26627 4.31581C3.27806 4.29399 3.34066 4.31436 3.35285 4.30272C3.36464 4.29144 3.29676 4.2107 3.30936 4.13541C3.32237 4.05976 3.39391 4.08086 3.48253 4.08377C3.57074 4.08631 3.76627 4.10923 3.81383 4.08377C3.86099 4.05831 3.84025 3.96374 3.88538 3.90337C3.89799 3.88657 3.91526 3.87298 3.93549 3.86393C3.95572 3.85488 3.97823 3.85067 4.00082 3.85172C4.02928 3.85172 4.07278 3.95501 4.07278 3.98047L4.05855 3.99357H4.04391V4.0063C4.01139 4.00993 4.00652 3.97829 3.9866 3.95501C3.97765 3.99138 4.01505 4.10959 4.01505 4.1867C4.01505 4.25144 3.98822 4.27981 3.9866 4.27508V4.2758Z" fill="#D0D0D0" stroke="#707070" stroke-width="0.14583"/>
<path id="Vector_26" fill-rule="evenodd" clip-rule="evenodd" d="M3.70868 4.16187C3.7103 4.18732 3.5977 4.24515 3.58835 4.26807C3.579 4.29098 3.61681 4.30335 3.60542 4.31644C3.59364 4.32953 3.58429 4.32444 3.58185 4.32699C3.57941 4.32953 3.53957 4.23752 3.53957 4.23752C3.53957 4.23752 3.64526 4.19023 3.6412 4.1695C3.63713 4.14877 3.56315 4.13677 3.54933 4.08476C3.53591 4.03311 3.54363 3.93309 3.53266 3.912C3.52168 3.89127 3.3916 3.87126 3.3916 3.83962C3.3916 3.80798 3.52575 3.72141 3.53957 3.70868C3.5538 3.69559 3.56803 3.72141 3.5538 3.73414C3.53957 3.74724 3.4351 3.82689 3.4351 3.83962C3.4351 3.85271 3.52168 3.86544 3.55055 3.86544C3.579 3.86544 3.59364 3.85271 3.59364 3.83998C3.59364 3.82871 3.56518 3.82689 3.56518 3.80107C3.56518 3.77524 3.57941 3.76251 3.60827 3.76251C3.6225 3.76251 3.65014 3.77888 3.65136 3.80107C3.65258 3.82289 3.62575 3.82507 3.6225 3.83962C3.61925 3.85417 3.65095 3.86544 3.68022 3.86544C3.70868 3.86544 3.80746 3.94037 3.82169 3.95346C3.83591 3.96619 3.85014 3.96619 3.83591 3.97892C3.82169 3.99201 3.83022 4.00729 3.81559 3.9942C3.80339 3.98183 3.80136 3.96874 3.80136 3.96874C3.80014 3.95673 3.69445 3.904 3.68022 3.91709C3.66559 3.92982 3.68022 4.0844 3.68022 4.09749C3.68022 4.12295 3.7099 4.12295 3.70868 4.16187Z" fill="#D0D0D0" stroke="#707070" stroke-width="0.14583"/>
<path id="Vector_27" fill-rule="evenodd" clip-rule="evenodd" d="M3.52539 3.86328H3.69768V4.04418H3.52539V3.86328Z" fill="#A7A7A7"/>
<path id="Vector_28" d="M4.08421 4.51367L3.50496 3.64417C3.50006 3.63682 3.49342 3.63229 3.49012 3.63404C3.48682 3.6358 3.48812 3.64319 3.49302 3.65054L4.07227 4.52004C4.07716 4.5274 4.08381 4.53193 4.08711 4.53017C4.09041 4.52841 4.08911 4.52103 4.08421 4.51367Z" fill="#808080"/>
<path id="Vector_29" fill-rule="evenodd" clip-rule="evenodd" d="M3.56847 3.72309C3.56847 3.72994 3.56543 3.73651 3.56001 3.74135C3.5546 3.74619 3.54726 3.74891 3.5396 3.74891C3.53195 3.74891 3.52461 3.74619 3.5192 3.74135C3.51378 3.73651 3.51074 3.72994 3.51074 3.72309C3.51074 3.71624 3.51378 3.70967 3.5192 3.70483C3.52461 3.69999 3.53195 3.69727 3.5396 3.69727C3.54726 3.69727 3.5546 3.69999 3.56001 3.70483C3.56543 3.70967 3.56847 3.71624 3.56847 3.72309Z" fill="#D0D0D0" stroke="#707070" stroke-width="0.14583"/>
<path id="Vector_30" fill-rule="evenodd" clip-rule="evenodd" d="M4.07313 3.95731C4.07313 3.96962 4.00667 3.98193 3.92914 3.98193C3.85161 3.98193 3.78516 3.96962 3.78516 3.95731C3.78516 3.94747 3.85161 3.97331 3.92914 3.97331C4.00667 3.97331 4.07313 3.94747 4.07313 3.95731Z" fill="#808080"/>
<path id="Vector_31" fill-rule="evenodd" clip-rule="evenodd" d="M3.54004 4.04492H3.68402V4.09538H3.54004V4.04492Z" fill="#A7A7A7"/>
<path id="Vector_32" fill-rule="evenodd" clip-rule="evenodd" d="M4.00745 3.91642C3.99515 3.94349 3.98038 3.96195 3.97792 3.95826C3.97546 3.95579 3.9853 3.93118 3.99884 3.90534C4.01361 3.8795 4.02714 3.86104 4.02837 3.8635C4.03084 3.86719 4.02222 3.89057 4.00745 3.91642ZM4.04437 3.9841C4.02837 3.99886 4.01607 4.00871 4.01484 4.00502C4.01484 4.00256 4.02714 3.98902 4.04314 3.97425C4.05914 3.96072 4.07268 3.95087 4.07268 3.95456C4.07268 3.95702 4.06037 3.97056 4.04437 3.9841Z" fill="#808080"/>
<path id="Vector_33" fill-rule="evenodd" clip-rule="evenodd" d="M4.02737 3.9517C4.03845 3.97385 4.04583 3.99231 4.04337 3.99354C4.04214 3.99354 4.03107 3.97754 4.01876 3.95662C4.00645 3.93447 3.99907 3.91725 4.00153 3.91602C4.00399 3.91602 4.01384 3.93201 4.02614 3.95293L4.02737 3.9517ZM4.01507 4.06368C4.01507 4.06738 3.97076 4.06984 3.91416 4.06984C3.85755 4.06984 3.81324 4.06738 3.81324 4.06368C3.81324 4.05999 3.85878 4.05753 3.91416 4.05753C3.97076 4.05753 4.01507 4.05999 4.01507 4.06368ZM3.68402 4.05138C3.68402 4.05507 3.65203 4.05753 3.61265 4.05753C3.57204 4.05753 3.54004 4.05507 3.54004 4.05138C3.54004 4.04769 3.57204 4.04523 3.61142 4.04523C3.6508 4.04523 3.68526 4.04769 3.68526 4.05138H3.68402Z" fill="#808080"/>
<path id="Vector_34" fill-rule="evenodd" clip-rule="evenodd" d="M3.36816 4.49925C3.36816 4.49925 3.39209 4.55679 3.49309 4.55759C3.59409 4.55839 3.62944 4.54033 3.58824 4.50964C3.54704 4.47895 3.47129 4.4887 3.48113 4.51507C3.49096 4.54144 3.45242 4.55024 3.44338 4.53169C3.43435 4.51315 3.3982 4.45817 3.46332 4.45449C3.52844 4.45082 3.66665 4.43084 3.7012 4.4692C3.73576 4.50756 3.66187 4.54224 3.71768 4.55039C3.7735 4.55839 3.78147 4.54112 3.87716 4.53585C3.97285 4.53057 4.00926 4.55343 4.04195 4.55024C4.07465 4.54704 4.07013 4.49077 4.04408 4.47655C4.0183 4.46216 3.96833 4.45961 3.95557 4.44394C3.94281 4.42828 3.90826 4.44091 3.91145 4.42316C3.91464 4.40542 3.96062 4.43547 3.96115 4.42636C3.96115 4.42604 3.96886 4.42013 3.97045 4.41853C3.96461 4.41725 3.96115 4.41949 3.9569 4.42172C3.96168 4.41789 3.96142 4.41613 3.96301 4.41309C3.96222 4.41197 3.95637 4.41757 3.9553 4.41629C3.95424 4.41501 3.96195 4.40734 3.95849 4.41022C3.95743 4.41102 3.94839 4.41549 3.94813 4.41245C3.94813 4.41117 3.95291 4.40798 3.95132 4.40606C3.94999 4.40462 3.94334 4.40782 3.94228 4.40814C3.94627 4.40286 3.946 4.40302 3.94228 4.39903C3.93883 4.39519 3.93643 4.39519 3.93085 4.39967C3.93324 4.39327 3.93378 4.39199 3.92819 4.3896C3.92394 4.38704 3.92367 4.3848 3.91809 4.39615C3.92022 4.384 3.91464 4.38336 3.91703 4.37777C3.91836 4.37249 3.9258 4.37026 3.93803 4.37137C3.96195 4.37153 3.97444 4.40015 3.98215 4.39999C3.99012 4.39999 3.99863 4.36978 4.03212 4.38192C4.06534 4.39423 4.06933 4.39663 4.08634 4.40398C4.10309 4.41117 4.07438 4.4222 4.08395 4.43659C4.09352 4.45097 4.15917 4.49861 4.14056 4.54848C4.12196 4.59803 4.07411 4.60602 4.0696 4.6276C4.06534 4.64902 4.2211 4.64038 4.26097 4.64758C4.30084 4.65477 4.32582 4.68434 4.32742 4.68946C4.32901 4.69457 4.25778 4.69409 4.25778 4.69409C4.25778 4.69409 4.2211 4.67523 4.13392 4.67331C4.04647 4.67171 4.01325 4.63655 3.98055 4.63207C3.94786 4.6276 3.87822 4.63959 3.83942 4.63783C3.80035 4.63607 3.76101 4.62984 3.73576 4.62648C3.71051 4.62296 3.58505 4.68306 3.58558 4.69713C3.55927 4.69601 3.49787 4.69281 3.50026 4.69441C3.50292 4.69601 3.51143 4.66724 3.55927 4.66212C3.60711 4.65701 3.65416 4.63399 3.6523 4.61897C3.65097 4.60378 3.66187 4.55183 3.66559 4.52978C3.66931 4.50772 3.68765 4.49685 3.6834 4.48502C3.67914 4.47351 3.62439 4.46152 3.57176 4.46184C3.51914 4.46216 3.46066 4.46504 3.45216 4.47783C3.44365 4.49062 3.45029 4.52738 3.46119 4.52306C3.47182 4.51891 3.45853 4.49477 3.46996 4.48982C3.49122 4.48333 3.51471 4.47994 3.53854 4.47991C3.56618 4.47927 3.61429 4.5034 3.61376 4.51107C3.61323 4.51891 3.62917 4.54464 3.60711 4.55423C3.58505 4.56414 3.53987 4.56862 3.49654 4.56638C3.45857 4.56391 3.42272 4.55461 3.39368 4.53969C3.37773 4.5301 3.36816 4.50116 3.36816 4.49909V4.49925Z" fill="#D0D0D0" stroke="#808080" stroke-width="0.078172"/>
<path id="Vector_35" fill-rule="evenodd" clip-rule="evenodd" d="M4.00899 4.41465C4.00899 4.41791 4.00769 4.42104 4.00538 4.42335C4.00308 4.42566 3.99995 4.42696 3.99668 4.42696C3.99342 4.42696 3.99029 4.42566 3.98798 4.42335C3.98567 4.42104 3.98438 4.41791 3.98438 4.41465C3.98438 4.41139 3.98567 4.40826 3.98798 4.40595C3.99029 4.40364 3.99342 4.40234 3.99668 4.40234C3.99995 4.40234 4.00308 4.40364 4.00538 4.40595C4.00769 4.40826 4.00899 4.41139 4.00899 4.41465Z" fill="black"/>
<path id="Vector_36" d="M4.55195 4.24744L4.60856 4.25975L4.70209 4.19453L4.6947 4.22898L4.64548 4.26098L4.6184 4.27821L4.63686 4.30528L4.66763 4.3545L4.66024 4.3865L4.6024 4.28682L4.54579 4.27452L4.55195 4.24744ZM4.45719 3.8352L4.56548 3.78475L4.53595 3.72076L4.55072 3.7146L4.62086 3.86843L4.60609 3.87458L4.57656 3.81059L4.46826 3.85981L4.45596 3.8352H4.45719ZM4.28859 3.62969L4.38827 3.53863L4.40796 3.56078L4.4055 3.7146L4.48426 3.64323L4.50272 3.66292L4.40181 3.75398L4.38212 3.73306L4.38581 3.57801L4.30705 3.65061L4.28859 3.62969ZM3.85171 3.45372L3.86894 3.31836L3.89601 3.32328L3.88248 3.44142L3.98708 3.45372L3.98462 3.46972L3.85171 3.45372ZM3.63758 3.47341L3.61296 3.34051L3.64127 3.33559L3.66219 3.45249L3.76556 3.43403L3.76926 3.45003L3.63758 3.47341ZM3.24008 3.66907L3.23023 3.65677L3.30161 3.60016L3.33238 3.63954C3.32573 3.65357 3.31747 3.66679 3.30776 3.67892C3.29875 3.69071 3.28843 3.70144 3.277 3.71091C3.26188 3.72341 3.24484 3.73338 3.22654 3.74045C3.20931 3.7466 3.19455 3.74783 3.18101 3.74537C3.16747 3.74291 3.1564 3.73552 3.14778 3.72568C3.13971 3.71507 3.13538 3.70209 3.13547 3.68876C3.135 3.67309 3.13929 3.65764 3.14778 3.64446C3.15853 3.62845 3.17183 3.61432 3.18716 3.60262C3.19847 3.59369 3.21088 3.58625 3.22408 3.58047C3.23516 3.57555 3.245 3.57186 3.25485 3.57186C3.26469 3.57186 3.27208 3.57432 3.28069 3.57924L3.26346 3.59893C3.25735 3.59583 3.25062 3.59415 3.24377 3.59401C3.23762 3.59401 3.23147 3.59524 3.22285 3.59893C3.21356 3.60308 3.20486 3.60846 3.19701 3.61493C3.18716 3.62231 3.17855 3.63093 3.17239 3.63954L3.16132 3.66046C3.15891 3.66817 3.15843 3.67636 3.15993 3.6843C3.16143 3.69224 3.16487 3.69969 3.16993 3.70599C3.17664 3.71475 3.18623 3.72085 3.19701 3.72322C3.20685 3.72568 3.21793 3.72445 3.23023 3.71953C3.24254 3.7146 3.25485 3.70722 3.26592 3.69984C3.27516 3.69227 3.28343 3.68359 3.29054 3.674C3.29792 3.66415 3.30284 3.65554 3.3053 3.64938L3.28931 3.62969L3.24008 3.66907ZM3.23639 4.64246L3.12563 4.72121L3.04195 4.60308L3.05425 4.59446L3.12194 4.68922L3.1564 4.66461L3.09856 4.58216L3.11086 4.57355L3.16993 4.65476L3.21916 4.61908L3.23639 4.64369V4.64246ZM3.07394 4.46648C3.08128 4.46444 3.08797 4.46053 3.09336 4.45514C3.09875 4.44975 3.10266 4.44306 3.10471 4.43572C3.10963 4.41972 3.10963 4.4025 3.10471 4.38158C3.10036 4.36343 3.09047 4.34708 3.0764 4.33481C3.07035 4.32976 3.06311 4.32631 3.05536 4.32481C3.04761 4.3233 3.03961 4.32378 3.0321 4.3262C3.02243 4.32883 3.01382 4.33443 3.00749 4.3422C3.00034 4.35096 2.99605 4.36169 2.99518 4.37296C2.99395 4.38527 2.99518 4.39757 2.99887 4.41111C3.00336 4.42892 3.01274 4.44511 3.02595 4.45787C3.03825 4.47018 3.05425 4.47141 3.07394 4.46648ZM3.08133 4.49479C3.05917 4.50094 3.03948 4.49602 3.02226 4.48248C3.00503 4.46649 2.99272 4.44557 2.98411 4.41603C2.97918 4.39634 2.97672 4.37911 2.97795 4.36189C2.97918 4.34466 2.98411 4.33112 2.99272 4.32005C3.0002 4.30942 3.01103 4.30161 3.02349 4.2979C3.0365 4.29408 3.05043 4.29495 3.06287 4.30036C3.07696 4.30667 3.08893 4.31693 3.09732 4.32989C3.10736 4.34453 3.11485 4.36075 3.11948 4.37788C3.1244 4.39757 3.12686 4.4148 3.1244 4.43203C3.12346 4.44708 3.11834 4.46156 3.10963 4.47387C3.10279 4.4838 3.09283 4.49116 3.08133 4.49479ZM3.0924 4.21914L2.95703 4.21668L2.95949 4.12192C2.95949 4.10223 2.96072 4.0887 2.96318 4.07885C2.96688 4.06901 2.97057 4.0604 2.97672 4.05424C2.98287 4.04932 2.99026 4.04686 2.99764 4.04686C3.00749 4.04686 3.01487 4.05178 3.02226 4.06163C3.02964 4.07147 3.0321 4.08624 3.03333 4.10716L3.04072 4.09116C3.04579 4.0822 3.052 4.07393 3.05917 4.06655L3.09609 4.03086V4.06778L3.06656 4.09485L3.0481 4.11454C3.04318 4.11946 3.04072 4.12439 3.03825 4.12931C3.03656 4.13326 3.03532 4.13738 3.03456 4.14161V4.15761L3.03333 4.18961L3.0924 4.19207V4.22037V4.21914ZM3.01733 4.18961L3.01856 4.12808L3.01733 4.09854C3.01616 4.0921 3.01317 4.08612 3.00872 4.08132C3.00528 4.07814 3.00102 4.076 2.99641 4.07516C2.99026 4.07516 2.98411 4.07885 2.98164 4.08747C2.97663 4.09782 2.9741 4.10919 2.97426 4.12069L2.97303 4.18838L3.01733 4.18961ZM3.39391 3.59401V3.43526L3.42098 3.41927L3.56497 3.49187L3.5379 3.50787L3.49482 3.48572L3.41852 3.53125V3.57801L3.39391 3.59401ZM3.41852 3.51402L3.48006 3.4771L3.44191 3.45618L3.41483 3.44019L3.41729 3.46849L3.41852 3.51402ZM4.072 3.47218L4.21844 3.41065L4.24305 3.42911L4.23444 3.58909L4.20737 3.57063L4.21229 3.52263L4.13845 3.47095L4.09661 3.48941L4.072 3.47218ZM4.15445 3.46357L4.21352 3.50664L4.21721 3.46234C4.21844 3.45003 4.21967 3.43896 4.22213 3.43157L4.19752 3.44511L4.15445 3.46357ZM4.51749 3.9681L4.64917 3.93611L4.67132 4.0284C4.67501 4.04686 4.67747 4.06163 4.67747 4.07147C4.67746 4.0806 4.6749 4.08955 4.67009 4.09731C4.66517 4.1047 4.66024 4.10962 4.65286 4.11085C4.64301 4.11331 4.6344 4.11085 4.62579 4.10224C4.61491 4.09072 4.6069 4.07681 4.6024 4.06163C4.6024 4.06901 4.6024 4.07393 4.59994 4.07885C4.59697 4.08835 4.59284 4.09744 4.58764 4.10593L4.56056 4.15146L4.55195 4.117L4.57287 4.08255L4.5864 4.05793C4.5901 4.05178 4.59133 4.04563 4.59256 4.04194C4.593 4.03785 4.593 4.03372 4.59256 4.02963L4.5901 4.01363L4.58148 3.98164L4.52364 3.99518L4.51749 3.9681ZM4.59748 3.97795L4.61102 4.03701C4.61471 4.04932 4.61717 4.05917 4.62086 4.06532C4.62455 4.0727 4.62825 4.07762 4.63317 4.08008C4.63686 4.08255 4.64178 4.08378 4.64548 4.08255C4.65163 4.08132 4.65655 4.07639 4.65778 4.06901C4.66051 4.0568 4.66008 4.0441 4.65655 4.03209L4.64055 3.96687L4.59748 3.97795Z" fill="#D0D0D0"/>
</g>
</g>
<defs>
<clipPath id="clip0_186_10855">
<rect width="18" height="18" fill="white"/>
</clipPath>
</defs>
</svg>
