<svg width="18" height="18" viewBox="0 0 18 18" fill="none" xmlns="http://www.w3.org/2000/svg">
<g id="mv" clip-path="url(#clip0_186_10928)">
<path id="Vector" d="M0 0H18V18H0V0Z" fill="#D21034"/>
<path id="Vector_2" d="M4.5 4.5H13.5V13.5H4.5V4.5Z" fill="#007E3A"/>
<path id="Vector_3" d="M10.1248 11.9996C11.781 11.9996 13.1236 10.657 13.1236 9.00078C13.1236 7.34457 11.781 6.00195 10.1248 6.00195C8.4686 6.00195 7.12598 7.34457 7.12598 9.00078C7.12598 10.657 8.4686 11.9996 10.1248 11.9996Z" fill="white"/>
<path id="Vector_4" d="M10.849 11.9996C12.2839 11.9996 13.4471 10.657 13.4471 9.00078C13.4471 7.34457 12.2839 6.00195 10.849 6.00195C9.41416 6.00195 8.25098 7.34457 8.25098 9.00078C8.25098 10.657 9.41416 11.9996 10.849 11.9996Z" fill="#007E3A"/>
</g>
<defs>
<clipPath id="clip0_186_10928">
<rect width="18" height="18" fill="white"/>
</clipPath>
</defs>
</svg>
