<svg width="18" height="18" viewBox="0 0 18 18" fill="none" xmlns="http://www.w3.org/2000/svg">
<g id="mw" clip-path="url(#clip0_186_10933)">
<g id="Clip path group">
<mask id="mask0_186_10933" style="mask-type:luminance" maskUnits="userSpaceOnUse" x="0" y="0" width="19" height="19">
<g id="mw-a">
<path id="Vector" d="M0.000976562 0H18.002V18.001H0.000976562V0Z" fill="white"/>
</g>
</mask>
<g mask="url(#mask0_186_10933)">
<g id="Group">
<path id="Vector_2" fill-rule="evenodd" clip-rule="evenodd" d="M-4.56348 0H22.4368V18.001H-4.56348V0Z" fill="#F41408"/>
<path id="Vector_3" fill-rule="evenodd" clip-rule="evenodd" d="M-4.56348 11.998H22.4368V18.0001H-4.56348V11.998Z" fill="#21873B"/>
<path id="Vector_4" fill-rule="evenodd" clip-rule="evenodd" d="M-4.56348 0H22.4368V5.99949H-4.56348V0Z" fill="#000001"/>
<path id="Vector_5" fill-rule="evenodd" clip-rule="evenodd" d="M5.6322 5.4351C6.00916 4.51729 6.73525 3.78681 7.65076 3.40431C8.56627 3.02181 9.59623 3.01864 10.5141 3.39548C10.9756 3.57711 11.3947 3.85199 11.7453 4.20293C12.0958 4.55387 12.3701 4.97333 12.5512 5.4351H5.6322ZM4.7178 5.68402C4.09623 5.63643 3.48004 5.53444 2.87629 5.37922C2.73405 5.32842 2.72643 5.24206 2.74421 5.17602C2.75879 5.13299 2.78928 5.09718 2.82943 5.07592C2.86958 5.05467 2.91634 5.04958 2.96011 5.06172C3.16078 5.11252 3.97358 5.32842 4.72034 5.68402H4.7178ZM9.10184 2.35154C8.95452 1.53873 8.91642 0.642114 8.93166 0.492253C8.94436 0.339853 9.02818 0.314453 9.09676 0.314453C9.14168 0.31767 9.18371 0.337813 9.21436 0.370815C9.245 0.403817 9.26198 0.447218 9.26186 0.492253C9.26186 0.700534 9.25678 1.54127 9.10184 2.35154ZM9.50824 2.37186C9.45033 1.75023 9.44608 1.12477 9.49554 0.502413C9.52348 0.352553 9.6073 0.332233 9.67588 0.339853C9.74446 0.344933 9.8359 0.423673 9.82574 0.532893C9.80796 0.736094 9.73176 1.5743 9.50824 2.37186ZM9.87401 2.42266C9.86385 1.59462 9.9756 0.705614 10.0188 0.558294C10.0569 0.410973 10.1432 0.398273 10.2118 0.410973C10.2555 0.421862 10.2933 0.448879 10.3179 0.486584C10.3424 0.524288 10.3517 0.569879 10.3439 0.614174C10.3083 0.817374 10.1636 1.64542 9.87401 2.42012V2.42266ZM10.2626 2.50648C10.3261 1.68352 10.5166 0.807214 10.5674 0.664974C10.6182 0.522733 10.7071 0.517653 10.7732 0.535433C10.8156 0.549995 10.851 0.580085 10.8722 0.619661C10.8934 0.659238 10.8989 0.705369 10.8875 0.748794C10.8341 0.949454 10.6182 1.76226 10.2626 2.50648ZM10.6436 2.6284C10.7456 2.01318 10.9011 1.40806 11.1084 0.819914C11.1745 0.682754 11.2608 0.685294 11.3269 0.708154C11.3685 0.726622 11.4015 0.760369 11.419 0.802433C11.4365 0.844496 11.4371 0.891667 11.4209 0.934214C11.3497 1.12725 11.0602 1.9172 10.6411 2.6284H10.6436ZM10.9992 2.77826C11.2024 1.97562 11.5428 1.14757 11.6215 1.01549C11.6977 0.883414 11.7841 0.893574 11.845 0.924054C11.8841 0.945634 11.9137 0.981125 11.9278 1.02348C11.9419 1.06583 11.9396 1.11194 11.9212 1.15265C11.8323 1.34315 11.4793 2.10516 10.9992 2.77826ZM11.3497 2.96114C11.5583 2.37294 11.8166 1.80361 12.1219 1.25933C12.2083 1.13487 12.2946 1.15265 12.3556 1.18821C12.3923 1.21395 12.4179 1.25257 12.4273 1.29637C12.4367 1.34017 12.4292 1.3859 12.4064 1.42443C12.3048 1.60224 11.8857 2.33122 11.3497 2.96114ZM11.6799 3.17196C11.9383 2.60425 12.246 2.06029 12.5994 1.54636C12.6959 1.42951 12.7798 1.45491 12.8356 1.49555C12.8701 1.52393 12.8927 1.56425 12.8988 1.60849C12.9049 1.65272 12.8942 1.69764 12.8687 1.73432C12.7493 1.9045 12.2692 2.59284 11.6799 3.17196ZM11.9898 3.41326C12.3962 2.6919 12.9398 1.9807 13.049 1.87148C13.1557 1.7648 13.237 1.79528 13.2903 1.841C13.3411 1.88672 13.3716 2.00102 13.3005 2.08484C13.1684 2.24232 12.6299 2.88748 11.9898 3.41326ZM12.2819 3.67996C12.6348 3.16561 13.0317 2.68289 13.4681 2.23724C13.585 2.14072 13.6637 2.17882 13.712 2.22708C13.7417 2.26134 13.7572 2.30568 13.7553 2.35101C13.7534 2.39635 13.7343 2.43924 13.7018 2.47092C13.2648 2.9157 12.7888 3.32034 12.2794 3.67996H12.2819ZM12.5461 3.97206C13.0719 3.33452 13.7323 2.72746 13.8567 2.6411C13.9837 2.55474 14.0549 2.60046 14.1006 2.65126C14.1271 2.68782 14.1387 2.73312 14.133 2.77793C14.1274 2.82275 14.1049 2.86373 14.0701 2.89256C13.5945 3.2961 13.0846 3.6573 12.5461 3.97206ZM12.7747 4.27178C13.2107 3.82487 13.685 3.41692 14.192 3.05258C14.3241 2.97638 14.3952 3.02972 14.4333 3.08814C14.474 3.14402 14.474 3.26086 14.3825 3.32436C13.8764 3.68685 13.3392 4.00389 12.7772 4.27178H12.7747ZM12.983 4.5969C13.4556 4.18935 13.963 3.82389 14.4994 3.5047C14.6365 3.4412 14.7026 3.49962 14.7381 3.55804C14.7711 3.61646 14.7635 3.73584 14.667 3.79172C14.4892 3.89332 13.7628 4.32004 12.983 4.5969ZM13.176 4.96774C13.6849 4.60667 14.2236 4.28971 14.7864 4.02032C14.9286 3.96952 14.9896 4.03302 15.0175 4.09652C15.0332 4.13845 15.0325 4.18475 15.0156 4.22619C14.9986 4.26762 14.9667 4.30114 14.9261 4.32004C14.3629 4.5869 13.7772 4.80364 13.176 4.96774ZM13.3233 5.32588C13.8596 5.00798 14.4232 4.73852 15.0074 4.5207C15.1547 4.4826 15.2106 4.55118 15.2334 4.61468C15.2588 4.67818 15.2258 4.79248 15.1217 4.83058C14.5381 5.04878 13.9363 5.21453 13.3233 5.32588ZM13.4402 5.70688C14.0041 5.43765 14.5905 5.21837 15.1928 5.05156C15.3401 5.02616 15.3884 5.09728 15.4061 5.16586C15.4141 5.20947 15.4055 5.25448 15.382 5.29207C15.3585 5.32966 15.3218 5.35712 15.2791 5.36906C15.0759 5.42494 14.2657 5.64084 13.4402 5.70434V5.70688ZM8.7056 2.36424C8.53826 1.76492 8.42353 1.15215 8.3627 0.532893C8.3627 0.380493 8.44144 0.347473 8.51002 0.339853C8.5555 0.339088 8.59953 0.355776 8.63308 0.386485C8.66662 0.417195 8.68712 0.459591 8.69036 0.504953C8.71068 0.708154 8.78434 1.54636 8.7056 2.36932V2.36424ZM8.31444 2.41504C8.09528 1.83142 7.92784 1.22966 7.81406 0.616714C7.80136 0.464313 7.87756 0.423673 7.9436 0.410973C7.98887 0.405793 8.0344 0.418189 8.07079 0.445602C8.10719 0.473015 8.13167 0.513354 8.13918 0.558294C8.17474 0.761494 8.32206 1.58953 8.31444 2.41504ZM7.92582 2.5014C7.65592 1.93834 7.43579 1.35276 7.26796 0.751334C7.24256 0.601474 7.31622 0.553214 7.38226 0.535433C7.42621 0.52757 7.47151 0.536528 7.50915 0.560528C7.5468 0.584528 7.57404 0.621813 7.58546 0.664974C7.64134 0.865634 7.85978 1.6759 7.92582 2.5014ZM7.56006 2.6157C7.24377 2.07803 6.97519 1.51369 6.75742 0.929134C6.71932 0.781814 6.7879 0.725934 6.8514 0.703074C6.89485 0.690809 6.94134 0.695534 6.98144 0.716289C7.02153 0.737044 7.05223 0.772275 7.0673 0.814834C7.13842 1.01041 7.42544 1.79782 7.56006 2.6157ZM7.20446 2.76048C6.84227 2.25325 6.52525 1.71525 6.25704 1.15265C6.20624 1.00787 6.2672 0.949454 6.3307 0.921514C6.37294 0.905071 6.41986 0.905378 6.46188 0.922374C6.50389 0.93937 6.53783 0.971771 6.55676 1.01295C6.64312 1.20091 6.99618 1.96292 7.20192 2.76556L7.20446 2.76048ZM6.84378 2.94844C6.43757 2.47408 6.0738 1.96497 5.75666 1.42697C5.69316 1.28981 5.74904 1.22377 5.80746 1.19075C5.84812 1.17052 5.89499 1.16661 5.93844 1.17984C5.9819 1.19306 6.01864 1.22241 6.04114 1.26187C6.14528 1.43967 6.56692 2.16866 6.84378 2.94844ZM6.51358 3.15672C6.06821 2.71886 5.66195 2.24292 5.29946 1.73432C5.22326 1.60224 5.27406 1.53112 5.33248 1.49301C5.37155 1.47059 5.41752 1.46338 5.46157 1.47275C5.50563 1.48212 5.54468 1.50743 5.57124 1.54382C5.69062 1.714 6.17068 2.40234 6.51358 3.15672ZM6.20624 3.38532C5.72506 2.98826 5.27969 2.54969 4.87528 2.07468C4.78892 1.95022 4.83464 1.87656 4.88798 1.83338C4.92454 1.80685 4.96984 1.79524 5.01465 1.8009C5.05947 1.80656 5.10045 1.82907 5.12928 1.86386C5.26136 2.02134 5.79984 2.6665 6.20624 3.38786V3.38532ZM5.90652 3.6571C5.39188 3.30367 4.90913 2.90591 4.4638 2.46838C4.36728 2.35154 4.40538 2.2728 4.45364 2.22454C4.4879 2.1948 4.53224 2.17928 4.57758 2.18117C4.62291 2.18306 4.6658 2.20221 4.69748 2.2347C4.8448 2.38202 5.43916 2.97384 5.90652 3.6571ZM5.64744 3.93396C5.10522 3.62555 4.59102 3.27029 4.11074 2.87224C4.00406 2.76556 4.03708 2.68428 4.0828 2.63094C4.11435 2.59917 4.15672 2.58048 4.20146 2.5786C4.24619 2.57672 4.28998 2.59178 4.3241 2.62078C4.48412 2.75286 5.1242 3.29388 5.64744 3.93396ZM5.40106 4.25146C4.83334 3.9921 4.2894 3.68359 3.77546 3.32944C3.65862 3.23038 3.68402 3.14656 3.72466 3.09068C3.75312 3.0555 3.79393 3.0325 3.83877 3.02637C3.8836 3.02023 3.92909 3.03142 3.96596 3.05766C4.47805 3.4132 4.95823 3.81264 5.40106 4.25146ZM5.18008 4.59182C4.59143 4.38547 4.02198 4.12794 3.47828 3.8222C3.35128 3.7333 3.36906 3.64948 3.40462 3.58852C3.42997 3.55143 3.46842 3.52531 3.51224 3.51542C3.55606 3.50552 3.60201 3.51258 3.64084 3.53518C3.82118 3.63678 4.55016 4.05588 5.18008 4.59182ZM4.99466 4.9398C4.19456 4.7366 3.36398 4.39624 3.23189 4.32004C3.10235 4.24384 3.10997 4.15748 3.14045 4.09652C3.16251 4.05725 3.19846 4.02765 3.24123 4.01355C3.28401 3.99945 3.33051 4.00186 3.3716 4.02032C3.55956 4.10668 4.32156 4.46228 4.9972 4.9398H4.99466ZM4.84734 5.29032C4.23171 5.1867 3.6265 5.0286 3.03885 4.81788C2.90169 4.75438 2.90423 4.66548 2.92709 4.60198C2.95249 4.53848 3.04901 4.4699 3.15315 4.508C3.34619 4.57912 4.13614 4.86868 4.84734 5.29032Z" fill="#F31509"/>
<path id="Vector_6" fill-rule="evenodd" clip-rule="evenodd" d="M4.72034 5.6854C3.89484 5.6219 3.01853 5.43394 2.87629 5.3806C2.73405 5.3298 2.72643 5.24344 2.74421 5.1774C2.75879 5.13438 2.78928 5.09856 2.82943 5.0773C2.86958 5.05605 2.91634 5.05097 2.96011 5.0631C3.16078 5.1139 3.97358 5.3298 4.72034 5.6854Z" fill="#F31509"/>
<path id="Vector_7" fill-rule="evenodd" clip-rule="evenodd" d="M2.42871 5.45312H15.8323V5.94335H2.42871V5.45312Z" fill="black"/>
</g>
</g>
</g>
</g>
<defs>
<clipPath id="clip0_186_10933">
<rect width="18" height="18" fill="white"/>
</clipPath>
</defs>
</svg>
