<svg width="18" height="18" viewBox="0 0 18 18" fill="none" xmlns="http://www.w3.org/2000/svg">
<g id="my" clip-path="url(#clip0_186_11311)">
<path id="Vector" d="M0 0H18V1.28672H0V0Z" fill="#CC0000"/>
<path id="Vector_2" d="M0 1.28711H18V2.5668H0V1.28711Z" fill="white"/>
<path id="Vector_3" d="M0 2.57031H18V3.85703H0V2.57031Z" fill="#CC0000"/>
<path id="Vector_4" d="M0 3.85742H18V5.14414H0V3.85742Z" fill="white"/>
<path id="Vector_5" d="M0 5.14258H18V6.4293H0V5.14258Z" fill="#CC0000"/>
<path id="Vector_6" d="M0 6.42969H18V7.71289H0V6.42969Z" fill="white"/>
<path id="Vector_7" d="M0 7.71289H18V8.99961H0V7.71289Z" fill="#CC0000"/>
<path id="Vector_8" d="M0 9H18V10.2867H0V9Z" fill="white"/>
<path id="Vector_9" d="M0 10.2871H18V11.5668H0V10.2871Z" fill="#CC0000"/>
<path id="Vector_10" d="M0 11.5703H18V12.857H0V11.5703Z" fill="white"/>
<path id="Vector_11" d="M0 12.8574H18V14.1441H0V12.8574Z" fill="#CC0000"/>
<path id="Vector_12" d="M0 14.1426H18V15.4293H0V14.1426Z" fill="white"/>
<path id="Vector_13" d="M0 15.4297H18V16.7129H0V15.4297Z" fill="#CC0000"/>
<path id="Vector_14" d="M0 16.7129H18V17.9996H0V16.7129Z" fill="white"/>
<path id="Vector_15" d="M0 0H9V10.2867H0V0Z" fill="#000066"/>
<path id="Vector_16" d="M5.83627 3.26875L6.00502 4.41133L6.6519 3.45508L6.30033 4.55547L7.30229 3.97188L6.51127 4.81563L7.6644 4.72422L6.5851 5.14258L7.6644 5.55391L6.51127 5.46602L7.30229 6.30977L6.30385 5.72266L6.64838 6.83008L6.00151 5.87031L5.83276 7.01289L5.66752 5.87031L5.02065 6.82656L5.36869 5.72266L4.37026 6.30977L5.15776 5.46602L4.00463 5.55391L5.08393 5.13906L4.00815 4.7207L5.16127 4.81211L4.37026 3.96836L5.36869 4.55195L5.01713 3.44805L5.66752 4.40781L5.83627 3.26172V3.26875ZM4.8976 3.31445C4.43805 3.11143 3.91894 3.08876 3.44344 3.25095C2.96795 3.41314 2.57089 3.74832 2.33119 4.18984C2.17273 4.48265 2.08986 4.81038 2.09009 5.14331C2.09032 5.47624 2.17364 5.80385 2.33251 6.09644C2.49137 6.38903 2.72075 6.63734 2.99985 6.81886C3.27894 7.00037 3.59893 7.10936 3.9308 7.13594C4.26179 7.16194 4.59404 7.10516 4.8976 6.9707C4.56138 7.21194 4.16514 7.35578 3.75246 7.38641C3.33978 7.41703 2.92665 7.33326 2.5585 7.1443C2.19035 6.95533 1.88144 6.6685 1.66575 6.31535C1.45006 5.96219 1.33594 5.55639 1.33594 5.14258C1.33594 4.72877 1.45006 4.32297 1.66575 3.96981C1.88144 3.61666 2.19035 3.32983 2.5585 3.14086C2.92665 2.9519 3.33978 2.86812 3.75246 2.89875C4.16514 2.92938 4.56138 3.07322 4.8976 3.31445Z" fill="#FFCC00"/>
</g>
<defs>
<clipPath id="clip0_186_11311">
<rect width="18" height="18" fill="white"/>
</clipPath>
</defs>
</svg>
