<svg width="18" height="18" viewBox="0 0 18 18" fill="none" xmlns="http://www.w3.org/2000/svg">
<g id="mz" clip-path="url(#clip0_186_11328)">
<g id="Clip path group">
<mask id="mask0_186_11328" style="mask-type:luminance" maskUnits="userSpaceOnUse" x="0" y="0" width="18" height="18">
<g id="mz-a">
<path id="Vector" d="M0 0H17.9972V17.9972H0V0Z" fill="white"/>
</g>
</mask>
<g mask="url(#mask0_186_11328)">
<g id="Group">
<path id="Vector_2" fill-rule="evenodd" clip-rule="evenodd" d="M0 0H26.9959V5.62414H0V0Z" fill="#009A00"/>
<path id="Vector_3" fill-rule="evenodd" clip-rule="evenodd" d="M0 5.625H26.9959V6.18741H0V5.625Z" fill="white"/>
<path id="Vector_4" fill-rule="evenodd" clip-rule="evenodd" d="M0 6.1875H26.9959V11.8116H0V6.1875Z" fill="#000001"/>
<path id="Vector_5" fill-rule="evenodd" clip-rule="evenodd" d="M0 11.8105H26.9959V12.373H0V11.8105Z" fill="white"/>
<path id="Vector_6" fill-rule="evenodd" clip-rule="evenodd" d="M0 12.373H26.9959V17.9972H0V12.373Z" fill="#FFCA00"/>
<path id="Vector_7" fill-rule="evenodd" clip-rule="evenodd" d="M0 0V17.9972L11.8143 8.99862L0 0Z" fill="#FF0000"/>
<path id="Vector_8" fill-rule="evenodd" clip-rule="evenodd" d="M6.97804 11.705L5.17831 10.3879L3.38222 11.705L4.07889 9.58599L2.26465 8.27974L4.49979 8.29063L5.17831 6.16797L5.86047 8.29063L8.09198 8.27974L6.27774 9.58599L6.97804 11.705Z" fill="#FFCA00"/>
<path id="Vector_9" fill-rule="evenodd" clip-rule="evenodd" d="M3.61426 10.2283H4.91325C5.01848 10.3444 5.2507 10.3915 5.47204 10.2283C5.87843 10.0033 6.66581 10.2283 6.66581 10.2283L6.82183 10.0613L6.44447 8.82404L6.30659 8.6789C6.30659 8.6789 6.01631 8.50473 5.46478 8.56279C4.91325 8.62084 4.72094 8.54102 4.72094 8.54102C4.72094 8.54102 4.23473 8.59907 4.10047 8.67164L3.94445 8.82767L3.61789 10.2319L3.61426 10.2283Z" fill="white" stroke="black" stroke-width="1.13531" stroke-linecap="round" stroke-linejoin="round"/>
<path id="Vector_10" d="M3.875 9.90607C3.875 9.90607 5.11594 9.75367 5.47153 10.229C5.27196 10.3669 5.09417 10.3741 4.90186 10.2363C4.93452 10.1855 5.34816 9.75367 6.40405 9.89881" stroke="black" stroke-width="1.13531" stroke-linecap="round" stroke-linejoin="round"/>
<path id="Vector_11" d="M5.20327 8.66797L5.19238 10.0323M6.30633 8.68974L6.53855 9.77103" stroke="black" stroke-width="1.13531"/>
<path id="Vector_12" d="M4.11137 8.67188L3.98438 9.23066" stroke="black" stroke-width="1.13531" stroke-linecap="round" stroke-linejoin="round"/>
<path id="Vector_13" fill-rule="evenodd" clip-rule="evenodd" d="M2.77246 10.3768L3.07725 10.7324C3.11354 10.7541 3.14619 10.7541 3.17885 10.7324L3.62878 10.1881L3.82109 9.95588C3.83404 9.94104 3.84392 9.92378 3.85015 9.90509C3.85638 9.88641 3.85883 9.86667 3.85738 9.84703L4.22022 9.52046C4.24925 9.52772 4.26739 9.53135 4.29279 9.53135C4.26014 9.52046 4.23474 9.50595 4.26376 9.46604L4.34359 9.40435L4.4089 9.48418C4.4089 9.48418 4.31819 9.60392 4.30731 9.60392H4.20934L4.01703 9.77446L4.10048 9.84703L4.22748 10.1917L4.37988 10.0829L4.28191 9.73092L4.49962 9.49506L4.41616 9.36807L4.47059 9.2955C4.47059 9.2955 5.22168 9.7672 5.51196 9.6402C5.51922 9.64383 5.5301 9.30275 5.5301 9.30275C5.5301 9.30275 4.74998 9.22293 4.73184 9.07053C4.7137 8.91451 4.90601 8.89637 4.90601 8.89637L4.82255 8.78025L4.84069 8.71494L4.97857 8.88911L5.28337 8.62423L7.09398 10.6888C7.19195 10.6489 7.21372 10.6235 7.22097 10.5256L5.44302 8.48998L5.5809 8.34484C5.6063 8.31581 5.61719 8.3013 5.61719 8.25413L5.82401 8.0727C5.87996 8.09244 5.92738 8.13089 5.95826 8.18156L6.53156 7.69897C6.54608 7.71348 6.59325 7.728 6.62227 7.70985L7.56568 6.80273L6.53882 7.52843L6.50253 7.50303C6.50253 7.474 6.53882 7.46675 6.50253 7.41232C6.46262 7.36515 6.40094 7.45949 6.39368 7.45949C6.38642 7.45949 6.24491 7.40869 6.21226 7.34701L6.205 7.51392L5.94012 7.75702L5.74055 7.74977L5.45028 8.02916L5.41399 8.13801L5.46116 8.22873C5.46116 8.22873 5.30877 8.36298 5.30877 8.35572C5.30877 8.34484 5.27611 8.31581 5.27248 8.30855L5.40673 8.19244L5.42488 8.10899L5.38134 8.04005C5.36682 8.05093 5.19991 8.22873 5.18903 8.21058L4.70644 7.65543L4.73184 7.55383L4.42342 7.22001C4.31456 7.18372 4.13314 7.17647 4.09685 7.41958C4.07146 7.47763 3.8356 7.42683 3.8356 7.42683L3.71224 7.45586L2.99743 8.4682L3.39656 8.94716L4.20934 7.91668L4.23111 7.6264L4.40165 7.81508C4.4597 7.82234 4.51413 7.82234 4.56493 7.79694L5.04752 8.33395L4.96769 8.41378L5.04026 8.4936L5.12009 8.43555L5.15637 8.48272C5.11283 8.50449 5.0838 8.53352 5.04752 8.55529C4.97857 8.51538 4.91689 8.46095 4.92415 8.37749L4.65201 8.60246L4.64113 8.64963L3.8356 9.31727L3.76303 9.32815L3.74489 9.53498L4.27102 9.09956V9.03788L4.32545 9.08142L4.73184 8.75485C4.73184 8.75485 4.76087 8.79114 4.74998 8.79114C4.7391 8.79114 4.38713 9.1177 4.38713 9.1177L4.37988 9.15399L4.31819 9.20841L4.28191 9.18302L3.79206 9.61843H3.71949L3.44736 9.88694C3.37842 9.8942 3.31673 9.90145 3.25868 9.94137L2.77246 10.3768Z" fill="black" stroke="black" stroke-width="1.13531" stroke-linecap="round" stroke-linejoin="round"/>
</g>
</g>
</g>
</g>
<defs>
<clipPath id="clip0_186_11328">
<rect width="18" height="18" fill="white"/>
</clipPath>
</defs>
</svg>
