<svg width="18" height="18" viewBox="0 0 18 18" fill="none" xmlns="http://www.w3.org/2000/svg">
<g id="na" clip-path="url(#clip0_186_11345)">
<g id="Clip path group">
<mask id="mask0_186_11345" style="mask-type:luminance" maskUnits="userSpaceOnUse" x="0" y="0" width="18" height="18">
<g id="na-a">
<path id="Vector" d="M0 0H18V18H0V0Z" fill="white"/>
</g>
</mask>
<g mask="url(#mask0_186_11345)">
<g id="Group">
<path id="Vector_2" fill-rule="evenodd" clip-rule="evenodd" d="M0 0H18V18H0V0Z" fill="white"/>
<path id="Vector_3" fill-rule="evenodd" clip-rule="evenodd" d="M-3.80371 0.00703125L-3.77559 12.9656L16.4041 0L-3.80371 0.00703125Z" fill="#3662A2"/>
<path id="Vector_4" fill-rule="evenodd" clip-rule="evenodd" d="M22.1732 17.9816L22.124 4.50977L1.76855 17.9922L22.1732 17.9816Z" fill="#38A100"/>
<path id="Vector_5" fill-rule="evenodd" clip-rule="evenodd" d="M-3.79297 13.9437L-3.77539 18.0008L0.629688 17.9937L22.1348 3.57617L22.1137 0.05L17.7613 0.0078125L-3.79297 13.9437Z" fill="#C70000"/>
<path id="Vector_6" fill-rule="evenodd" clip-rule="evenodd" d="M5.41406 6.44727L4.60195 5.95508L4.13086 6.78477L3.67383 5.94805L2.84766 6.4332L2.86875 5.48047L1.91953 5.4875L2.41172 4.67187L1.58203 4.20078L2.41875 3.74375L1.93359 2.91758L2.88281 2.93867L2.8793 1.98594L3.69492 2.47812L4.16602 1.64844L4.62305 2.48164L5.45625 2.00352L5.43516 2.95273L6.38438 2.94922L5.89219 3.76484L6.72187 4.23242L5.88516 4.69297L6.3668 5.51562L5.41758 5.49805L5.41406 6.44727Z" fill="#FFE700"/>
<path id="Vector_7" fill-rule="evenodd" clip-rule="evenodd" d="M5.89941 4.21914C5.89941 5.17539 5.11543 5.95234 4.14863 5.95234C3.18184 5.95234 2.40137 5.17539 2.40137 4.21563C2.40137 3.25586 3.18535 2.48242 4.15215 2.48242C5.11895 2.48242 5.89941 3.25586 5.89941 4.21563V4.21914Z" fill="#3662A2"/>
<path id="Vector_8" fill-rule="evenodd" clip-rule="evenodd" d="M5.51973 4.21966C5.52914 4.40532 5.50069 4.59095 5.43613 4.76528C5.37156 4.9396 5.27222 5.09898 5.14414 5.23371C5.01606 5.36845 4.86191 5.47573 4.69108 5.54904C4.52025 5.62235 4.33629 5.66016 4.15039 5.66016C3.96449 5.66016 3.78053 5.62235 3.6097 5.54904C3.43887 5.47573 3.28473 5.36845 3.15665 5.23371C3.02857 5.09898 2.92922 4.9396 2.86465 4.76528C2.80009 4.59095 2.77164 4.40532 2.78105 4.21966C2.79885 3.86849 2.95089 3.53758 3.20574 3.29532C3.46059 3.05306 3.79877 2.91797 4.15039 2.91797C4.50201 2.91797 4.84019 3.05306 5.09504 3.29532C5.34989 3.53758 5.50193 3.86849 5.51973 4.21966Z" fill="#FFE700"/>
</g>
</g>
</g>
</g>
<defs>
<clipPath id="clip0_186_11345">
<rect width="18" height="18" fill="white"/>
</clipPath>
</defs>
</svg>
