<svg width="18" height="18" viewBox="0 0 18 18" fill="none" xmlns="http://www.w3.org/2000/svg">
<g id="nc" clip-path="url(#clip0_186_11357)">
<path id="Vector" d="M0 0H18V18H0V0Z" fill="#009543"/>
<path id="Vector_2" d="M0 0H18V11.9988H0V0Z" fill="#ED4135"/>
<path id="Vector_3" d="M0 0H18V6.00117H0V0Z" fill="#0035AD"/>
<path id="Vector_4" d="M7.93145 14.9C11.1895 14.9 13.8307 12.2588 13.8307 9.00078C13.8307 5.74273 11.1895 3.10156 7.93145 3.10156C4.6734 3.10156 2.03223 5.74273 2.03223 9.00078C2.03223 12.2588 4.6734 14.9 7.93145 14.9Z" fill="#FAE600" stroke="black" stroke-width="5.7"/>
<g id="Vector_5">
<path d="M6.93262 9.8793H8.93301ZM6.93262 8.40273H8.93301ZM7.93106 3.11523V13.198Z" fill="black"/>
<path d="M6.93262 9.8793H8.93301M6.93262 8.40273H8.93301M7.93106 3.11523V13.198" stroke="black" stroke-width="6.8"/>
</g>
<path id="Vector_6" d="M5.55485 14.4139C7.96657 15.3983 10.2236 14.4772 10.2236 14.4772C10.2236 14.4772 9.36931 13.5561 8.93337 13.194C8.50798 12.8424 7.2529 12.8565 6.824 13.194C6.47243 13.4752 5.44587 14.5123 5.55837 14.4174L5.55485 14.4139Z" fill="#000001"/>
<path id="Vector_7" d="M7.93145 12.6813C8.29647 12.6813 8.59238 12.2515 8.59238 11.7215C8.59238 11.1914 8.29647 10.7617 7.93145 10.7617C7.56642 10.7617 7.27051 11.1914 7.27051 11.7215C7.27051 12.2515 7.56642 12.6813 7.93145 12.6813Z" fill="#000001"/>
<path id="Vector_8" d="M7.93145 9.64727C8.37414 9.64727 8.73301 9.42061 8.73301 9.14102C8.73301 8.86142 8.37414 8.63477 7.93145 8.63477C7.48875 8.63477 7.12988 8.86142 7.12988 9.14102C7.12988 9.42061 7.48875 9.64727 7.93145 9.64727Z" fill="#000001"/>
<path id="Vector_9" d="M7.93145 7.60117C8.37414 7.60117 8.73301 7.2423 8.73301 6.79961C8.73301 6.35692 8.37414 5.99805 7.93145 5.99805C7.48875 5.99805 7.12988 6.35692 7.12988 6.79961C7.12988 7.2423 7.48875 7.60117 7.93145 7.60117Z" fill="#000001"/>
<path id="Vector_10" d="M8.89473 3.82187C8.89473 3.82187 8.96504 3.93438 8.81738 4.19805C8.11777 5.45313 7.42168 5.48125 7.28809 5.58672C7.14043 5.70625 7.07715 5.69922 7.07715 5.69922C7.09121 5.59375 7.09824 5.15078 7.10527 5.10859C7.21074 4.525 8.1002 4.53203 8.79277 3.93086C8.89824 3.83594 8.89121 3.81836 8.89121 3.81836L8.89473 3.82187ZM6.55332 6.52188C6.55332 6.52188 6.71152 6.96836 6.73262 7.42188C6.77129 8.13906 7.46035 8.16016 7.93145 8.16016V7.75937C7.57988 7.75937 7.26699 7.71016 7.01387 7.1793C6.87981 6.94715 6.7257 6.72717 6.55332 6.52188ZM6.53223 12.3227C6.53223 12.3227 6.78535 12.0062 7.08066 11.282C7.14842 11.1098 7.26506 10.9611 7.41622 10.8543C7.56738 10.7475 7.74647 10.6872 7.93145 10.6809V10.1184C7.17207 10.1184 6.80645 10.3996 6.77129 10.818C6.68691 11.6617 6.53223 12.3191 6.53223 12.3191V12.3227ZM9.3166 6.52188C9.3166 6.52188 9.15488 6.96836 9.13379 7.42188C9.09512 8.14258 8.40605 8.16016 7.93496 8.16016V7.76289C8.29004 7.76289 8.59941 7.71016 8.85605 7.18281C8.98965 6.94727 9.14434 6.72578 9.31309 6.52188H9.3166ZM9.33418 12.3227C9.33418 12.3227 9.08457 12.0098 8.78574 11.282C8.71744 11.1104 8.60057 10.9625 8.44946 10.8564C8.29834 10.7502 8.11954 10.6904 7.93496 10.6844V10.1219C8.69434 10.1219 9.05996 10.4031 9.09863 10.818C9.14609 11.3239 9.22476 11.8264 9.33418 12.3227Z" fill="#000001"/>
</g>
<defs>
<clipPath id="clip0_186_11357">
<rect width="18" height="18" fill="white"/>
</clipPath>
</defs>
</svg>
