<svg width="18" height="18" viewBox="0 0 18 18" fill="none" xmlns="http://www.w3.org/2000/svg">
<g id="nf" clip-path="url(#clip0_186_11905)">
<g id="Group">
<path id="Vector" fill-rule="evenodd" clip-rule="evenodd" d="M5.47754 0H12.5229V18H5.47754V0Z" fill="white"/>
<path id="Vector_2" fill-rule="evenodd" clip-rule="evenodd" d="M0 0H5.47734V18H0V0ZM12.5227 0H18V18H12.5227V0Z" fill="#198200"/>
</g>
<g id="Group_2">
<path id="Vector_3" fill-rule="evenodd" clip-rule="evenodd" d="M8.54344 11.6863V13.1277L9.12351 13.1348C9.12351 13.1348 8.93719 11.8762 9.03914 11.7074C9.14461 11.5422 9.23953 11.5668 9.23953 11.5668C9.23953 11.5668 9.61922 11.6793 9.66141 11.6617C9.70359 11.6441 9.65437 11.5176 9.85828 11.5352C9.92508 11.5105 9.88992 11.3945 9.94969 11.391C10.0095 11.384 11.1696 11.7145 11.4192 11.4016C11.3559 11.2258 11.1274 11.391 11.0677 11.3945C11.0114 11.3945 10.7864 11.2891 10.6528 11.3945C10.5298 11.3066 9.98484 11.2469 9.98484 11.2469C9.91453 11.1766 11.2856 11.282 11.3665 11.2293C11.5282 11.0676 11.0677 11.0852 10.9938 11.1379C10.8673 11.0605 10.7055 11.0676 10.6071 11.1203C10.5579 11.0078 10.1149 11.057 9.86531 11.0254C9.78445 10.9762 9.795 10.9516 9.85125 10.9199C10.3716 10.9445 10.8884 11.0113 11.4087 10.9902C11.5493 10.8039 11.2329 10.7336 11.036 10.8918C10.92 10.702 10.6845 10.8848 10.5298 10.8672C10.3751 10.8496 10.4454 10.6562 10.6458 10.6879C10.8427 10.716 11.1977 10.6738 11.2645 10.5824C11.3313 10.4945 11.2259 10.4031 10.8989 10.4875C10.7864 10.382 10.5438 10.4875 10.4278 10.5227C10.2766 10.4418 9.92508 10.5121 9.80555 10.5437C9.68601 10.4699 10.4243 10.3504 10.4243 10.3504C10.7055 10.3469 10.8673 10.2977 10.9587 10.273C11.3876 10.041 10.9516 10.0164 10.7266 10.1852C10.586 10.0762 10.4524 10.1957 10.3259 10.2379C10.1993 10.2801 9.96023 10.3082 9.96023 10.2906C9.96023 10.273 10.3048 10.0621 10.3048 10.0621C10.3048 10.0621 10.7266 10.0305 10.8075 10.0199C10.8919 10.0094 11.3243 9.78789 10.7372 9.93555C10.5333 9.95312 10.4102 9.94258 10.3329 9.94609C9.87937 9.90039 10.3751 9.8582 10.3751 9.8582C10.3751 9.8582 11.0149 9.79844 11.0255 9.7668C11.036 9.5207 10.4981 9.63672 10.4981 9.63672C10.4981 9.45742 9.99539 9.64023 9.99539 9.63672C9.90047 9.58047 10.0516 9.5207 10.0516 9.5207C10.1817 9.48906 10.3821 9.47852 10.4313 9.43633C10.4313 9.43633 10.804 9.43633 10.8497 9.33437C10.7583 9.08125 10.0587 9.38008 9.96726 9.42578C9.8407 9.42578 10.0516 9.22188 10.0552 9.21484C10.0622 9.20781 10.6317 9.1832 10.9024 8.81758C10.9235 8.59609 10.586 8.94414 10.586 8.94414C10.5614 8.65586 10.2204 8.96172 10.0235 8.98633C9.82312 9.01094 9.81609 8.89492 9.9532 8.88086C10.0938 8.85977 10.2485 8.87383 10.3259 8.66289C10.4067 8.45195 10.6423 8.67344 10.6809 8.59258C10.7231 8.51875 10.5966 8.45195 10.5966 8.45195C10.5966 8.45195 10.7723 8.27266 10.4911 8.27617C10.2098 8.2832 9.8407 8.24102 9.8407 8.24102C9.8407 8.24102 10.136 8.12852 10.4102 8.13555C10.688 8.13906 10.5368 7.93516 10.2696 7.93516C10.0095 7.93516 9.86883 7.84375 9.86883 7.84375L10.3223 7.675L10.2907 7.54844C10.2907 7.54844 10.5544 7.3375 10.1852 7.38672L9.76687 7.44297L9.01805 7.55547C9.01101 7.55547 8.81414 7.4957 9.00398 7.45C9.19734 7.40078 9.87586 7.26016 9.97781 7.29883C10.0833 7.33398 9.96727 7.0457 9.60516 7.01055C9.24656 6.97539 9.02156 7.09844 9.02156 7.09844C9.02156 7.09844 8.78953 7.01406 9.00398 6.94375C9.22195 6.87344 9.56648 6.96836 9.56648 6.96836C9.56648 6.96836 9.94969 6.85234 9.62976 6.80313C9.31336 6.75742 9.20789 6.84883 9.06726 6.85234C9.0075 6.78203 9.56648 6.76445 9.60164 6.70117C9.54187 6.5957 9.19383 6.70117 8.99344 6.70117C8.90555 6.66602 8.90203 6.60625 9.00047 6.57109C9.20437 6.56406 9.39773 6.57461 9.60516 6.56758C9.59812 6.45508 9.60516 6.325 9.60164 6.21602C9.33797 6.1668 9.03211 6.25117 8.88445 6.24414C8.92312 6.12461 9.48914 6.09297 9.55242 6.06133C9.6825 5.89609 9.00047 6.06133 8.98992 6.06133C8.87391 6.04375 8.88445 5.96641 8.95476 5.9207C9.13055 5.90312 9.52078 5.94531 9.49266 5.8293C9.46805 5.7168 9.22195 5.77656 9.12 5.80117C9.01453 5.82578 8.86687 5.8082 8.86687 5.8082C8.80008 5.72031 9.45398 5.75547 9.45047 5.68867C9.43992 5.60781 9.03562 5.66406 8.89852 5.66758C8.78953 5.59727 9.41531 5.54453 9.42586 5.5375C9.44695 5.33711 9.00398 5.5375 8.91961 5.5375C8.83523 5.5375 8.87742 5.41094 8.87742 5.41094C8.87742 5.41094 9.0532 5.33359 9.04617 5.31953C9.04266 5.30898 8.91609 5.2668 8.90555 5.2668C8.89148 5.2668 8.90555 5.12617 8.90555 5.12617C8.90555 5.12617 9.04617 5.0207 9.03562 4.98906C9.02156 4.96094 8.86687 5.01367 8.86687 5.01367V4.89414C8.86687 4.89414 8.97937 4.88008 8.99344 4.82734C9.00398 4.77461 8.85281 4.76758 8.85281 4.76758L8.79656 4.13477L8.74031 4.72539L8.54344 4.75703C8.54344 4.75703 8.68055 4.83437 8.70516 4.91172C8.72977 4.98906 8.53641 4.96445 8.53641 4.96445C8.53641 4.96445 8.69109 5.09805 8.70516 5.14727C8.7157 5.19297 8.48719 5.20703 8.48719 5.20703C8.48719 5.20703 8.68055 5.34766 8.69109 5.42148C8.70516 5.50234 8.69109 5.54453 8.69109 5.54453C8.69109 5.54453 8.37469 5.26328 8.17078 5.34414C8.06531 5.40039 8.41336 5.425 8.64539 5.62539C8.64539 5.67109 8.08289 5.48828 8.0618 5.6043C8.07586 5.63594 8.65945 5.72031 8.70516 5.79414C8.4907 5.80469 8.04773 5.74844 8.0618 5.81875C8.01609 5.89961 8.48016 5.85391 8.67351 5.92422C8.72976 5.9875 8.72625 6.04023 8.62781 6.04727C8.43797 5.95938 8.01961 5.89258 8.01961 6.00508C8.01961 6.03672 8.45203 6.01563 8.60672 6.12109C8.3993 6.1668 7.69266 6.02266 7.68914 6.09297C7.71023 6.12813 7.82273 6.26875 8.01258 6.26523C8.20594 6.2582 8.64891 6.34258 8.68055 6.40234C8.70867 6.46211 8.10398 6.27578 7.87195 6.38477C7.63992 6.49375 8.52937 6.42695 8.67351 6.56055C8.81766 6.69414 8.38523 6.54648 8.38523 6.54648C8.38523 6.54648 7.78758 6.46211 7.69617 6.5043C7.60476 6.54648 7.50281 6.64492 7.50281 6.64492C7.50281 6.64492 7.56258 6.76445 7.62234 6.73984C7.68211 6.71523 7.60476 6.81016 7.60476 6.81016C7.60476 6.81016 8.44851 7.01406 8.63133 7.19687C8.81766 7.37266 7.56258 6.91562 7.56258 6.91562C7.56258 6.91562 7.05633 7.09844 7.5907 7.1125C7.53094 7.20039 7.62586 7.25313 7.62586 7.25313C7.62586 7.25313 8.5118 7.44297 8.6032 7.58711C8.69109 7.72773 7.995 7.44648 7.84031 7.36914C7.68211 7.2918 7.23914 7.41836 7.24266 7.44648C7.24969 7.47813 7.46062 7.52031 7.46766 7.57305C7.47117 7.6293 7.2075 7.64336 7.2075 7.69258C7.2075 7.7418 8.3325 7.97383 8.63133 8.23047C8.93016 8.48711 7.74891 7.92813 7.74891 7.92813C7.74891 7.92813 7.8157 8.01953 7.74891 8.04414C7.68211 8.06523 7.44656 7.70664 7.06336 7.92813C6.99305 8.01953 7.40086 8.09336 7.50281 8.10391C7.46766 8.1918 7.43602 8.22344 7.58016 8.31484C7.7243 8.40273 7.29891 8.18125 7.29891 8.1918L7.32703 8.35C7.19344 8.24453 7.03523 8.20938 6.88406 8.31836C6.88406 8.31836 6.87703 8.42734 7.03523 8.49414C6.94734 8.66992 7.13016 8.61367 7.41844 8.77539C6.98953 8.66289 6.95437 8.87383 7.26023 8.91953C7.56961 8.96875 8.40984 8.99687 8.60672 9.25703C8.80711 9.51367 8.32547 9.15859 8.27273 9.15156C8.25944 9.1938 8.25118 9.23746 8.24812 9.28164C8.12542 9.20083 7.98991 9.1414 7.84734 9.10586C7.8368 9.13398 7.84031 9.16562 7.82625 9.19023C7.68562 9.0918 7.56609 9.02148 7.3657 9.01094L7.34109 9.10586C7.34109 9.10586 7.17234 8.89492 6.84187 9.10586C6.65555 9.23945 7.53797 9.15508 7.68562 9.30976C7.82625 9.46797 7.71375 9.49258 7.71375 9.49258L7.35164 9.35898C7.35164 9.35898 6.92625 9.28164 6.80672 9.37656C6.68367 9.47148 8.56101 9.70703 8.61375 9.96719C8.64891 10.1078 8.1743 9.81953 7.75945 9.69648L7.71375 9.83711C7.71375 9.83711 7.54851 9.66836 7.36219 9.64023L7.39734 9.80195C7.39734 9.80195 6.94031 9.5875 6.70476 9.7C6.46922 9.81602 7.52039 9.87578 7.61883 9.98125C7.71375 10.0937 7.29891 9.91094 7.26023 9.98125C7.22508 10.0551 6.71531 9.85117 6.72234 9.94609C6.72586 10.0445 6.79266 10.0973 6.79266 10.0973C6.79266 10.0973 7.85789 10.2027 7.89305 10.3258C7.9282 10.4523 7.30242 10.2555 7.30242 10.2555C7.30242 10.2555 7.24266 10.3434 7.29187 10.3855C7.34109 10.4277 6.92976 10.1465 6.96844 10.3328C6.83484 10.2801 6.49383 10.1148 6.53953 10.2414C6.58875 10.368 7.50984 10.5473 7.50984 10.5473C7.50984 10.5473 7.10555 10.5789 7.12312 10.6809C6.60633 10.3645 6.62039 10.5684 6.63094 10.5754C6.64148 10.5789 5.96297 10.4031 6.47625 10.6809C6.98601 10.9586 6.75047 10.9094 6.7575 10.9164C6.76453 10.9199 6.81023 11.057 6.79969 11.057C6.78562 11.057 6.44812 10.8742 6.33562 10.8602C6.22312 10.8496 5.68172 11.0113 6.25828 11.2645C6.83484 11.5176 7.18992 11.2047 7.50984 11.2398C7.82625 11.275 7.97742 11.3313 7.94578 11.4332C7.91766 11.5352 7.62234 11.0957 7.31297 11.4754C6.95789 11.4051 6.71531 11.3664 6.89812 11.623C6.32156 11.4121 5.97 11.6934 6.69773 11.8059C7.41141 11.827 7.85086 11.6301 7.85086 11.6301C7.85086 11.6301 7.97039 11.8516 8.14617 11.6969C8.32195 11.5387 8.32547 11.7566 8.3325 11.7566L8.50125 11.6863H8.54344Z" fill="#198200" stroke="black" stroke-width="0.7" stroke-linecap="round" stroke-linejoin="round"/>
<path id="Vector_4" fill-rule="evenodd" clip-rule="evenodd" d="M8.61385 10.8289V10.7305C8.61385 10.7305 8.38533 10.6918 8.27635 10.7129C8.20603 10.6777 8.14627 10.625 8.06892 10.6672C8.05486 10.7023 8.20955 10.7867 8.2658 10.7867C8.32908 10.8254 8.61385 10.8359 8.61385 10.8324V10.8289ZM8.61033 10.9941C8.61033 10.9941 8.38181 10.9133 8.29392 11.0082C8.30799 11.1102 8.56111 11.1594 8.61033 11.1313C8.66658 11.1031 8.61033 11.0012 8.61033 10.9941ZM8.99353 11.0363V11.1066C8.99353 11.1066 9.26424 11.1594 9.30994 11.0996C9.35916 11.0434 9.099 11.0047 8.99353 11.0363ZM8.97947 10.7551L8.99002 10.8359C8.99002 10.8359 9.22556 10.8887 9.31346 10.7586C9.40486 10.632 9.10955 10.7586 8.97947 10.7551ZM8.99353 10.4809V10.5336C8.99353 10.5336 9.16931 10.5617 9.20799 10.4879C9.25017 10.4105 8.99705 10.4879 8.99353 10.4809ZM8.62439 10.3191C8.59627 10.284 8.50135 10.1855 8.24471 10.1574C8.06892 10.1574 8.56814 10.4211 8.62439 10.3191ZM8.9865 10.052L8.97947 10.1223C8.97947 10.1223 9.58416 9.94648 9.72478 9.95703C9.85135 9.92188 9.87596 9.83398 9.87244 9.83398C9.76346 9.75664 9.24314 9.89727 8.9865 10.052ZM9.00057 9.84102L8.99353 9.91133C8.99353 9.91133 9.41541 9.82695 9.53142 9.74609C9.64392 9.66523 9.00408 9.84102 9.00057 9.8375V9.84102ZM8.98299 9.63008V9.70039C8.98299 9.70039 9.26424 9.69336 9.324 9.63359C9.35916 9.57734 9.07439 9.62656 8.98299 9.63008ZM9.57361 10.2277C9.57361 10.2277 9.72127 10.2453 9.74939 10.2031C9.74588 10.1258 9.57361 10.2277 9.57361 10.2242V10.2277ZM8.99353 9.36641L8.99705 9.52109C8.99705 9.52109 9.67908 9.30313 9.72127 9.26445C9.76346 9.22578 9.86189 9.10273 8.99353 9.36641ZM8.97596 9.14844V9.26094C8.97596 9.26094 9.25017 9.24336 9.37674 9.13789C9.49978 9.03242 8.97596 9.15195 8.97596 9.14844ZM8.64549 8.8918L8.66306 8.99727L7.76307 8.70195C7.76307 8.70195 7.71736 8.5543 8.64197 8.8918H8.64549ZM8.65955 8.52969C8.65955 8.54023 8.65955 8.62813 8.65603 8.62461C8.65603 8.62461 8.03025 8.36445 8.00564 8.38555C7.92478 8.19219 8.65955 8.5332 8.65955 8.52617V8.52969ZM8.96541 8.69141L8.97596 8.7793C8.97596 8.7793 9.35916 8.69844 9.38025 8.65977C9.40135 8.62461 8.96541 8.69492 8.96541 8.69141ZM8.97244 8.89531L8.9865 8.9832C8.9865 8.9832 9.13767 8.97266 9.16228 8.9375C9.18338 8.90234 8.97244 8.89531 8.97244 8.89531ZM8.95135 8.42773V8.51562C8.95135 8.51562 9.37322 8.43125 9.41892 8.39258C9.46463 8.35039 8.9408 8.42773 8.95135 8.42773ZM8.95135 8.1957C8.95135 8.20273 8.93728 8.28359 8.94783 8.28359C9.14939 8.25569 9.34665 8.20254 9.53494 8.12539C9.6158 8.05508 8.95838 8.20625 8.95135 8.1957ZM8.94431 7.78789V7.87578C8.94431 7.87578 9.26775 7.80898 9.33103 7.74219C9.39431 7.67539 8.94431 7.79492 8.94431 7.78789ZM8.88807 7.19375L8.89861 7.32734C8.89861 7.32734 9.33103 7.26758 9.39432 7.19375C9.4576 7.12344 8.88807 7.19375 8.88807 7.19375ZM8.68767 6.19531V6.27969C8.68767 6.27969 8.48025 6.26914 8.53299 6.23398C8.58221 6.19883 8.68767 6.20234 8.68767 6.19883V6.19531ZM8.88103 6.30781V6.42031C8.88103 6.42031 9.15174 6.3957 9.17283 6.35C9.19041 6.31133 8.88455 6.30781 8.88103 6.30781ZM8.86346 6.46953L8.874 6.53984C8.87752 6.53984 8.97947 6.53281 9.00057 6.50469C9.02166 6.47656 8.874 6.47656 8.86346 6.46953ZM8.63846 6.79297C8.63846 6.8 8.64549 6.89844 8.63846 6.89844C8.63846 6.89844 8.05838 6.72969 8.00564 6.7332C7.94939 6.7332 7.93533 6.59961 8.63846 6.79297ZM8.68416 6.98281C8.68416 7.00039 8.69822 7.10586 8.67713 7.10234C8.65603 7.09883 8.28338 6.9793 8.32557 6.94414C8.36072 6.90898 8.68416 6.98984 8.68416 6.9793V6.98281ZM8.65252 7.77734V7.87227C8.65252 7.87227 8.00564 7.67539 7.98455 7.64375C7.95994 7.60859 7.89666 7.45742 8.65252 7.77734ZM8.67713 8.00938C8.67713 8.01289 8.68416 8.10078 8.67713 8.10078L7.79822 7.79141C7.79822 7.79141 7.72791 7.55938 8.67713 8.00938Z" fill="white" stroke="black" stroke-width="0.8" stroke-linecap="round" stroke-linejoin="round"/>
<path id="Vector_5" fill-rule="evenodd" clip-rule="evenodd" d="M7.62891 11.0636V11.162C7.62891 11.162 7.45312 11.1128 7.40039 11.0179C7.50234 10.9898 7.63242 11.0671 7.62891 11.0636Z" fill="white" stroke="black" stroke-width="0.8" stroke-linejoin="round"/>
</g>
</g>
<defs>
<clipPath id="clip0_186_11905">
<rect width="18" height="18" fill="white"/>
</clipPath>
</defs>
</svg>
