<svg width="18" height="18" viewBox="0 0 18 18" fill="none" xmlns="http://www.w3.org/2000/svg">
<g id="ni" clip-path="url(#clip0_186_11377)">
<path id="Vector" d="M0 0H18V18H0V0Z" fill="#0067C6"/>
<path id="Vector_2" d="M0 6.00195H18V11.9996H0V6.00195Z" fill="white"/>
<path id="Vector_3" d="M6.2998 8.97969L6.59863 9.00078L6.60215 8.95508L6.48262 8.94805L6.49316 8.80742L6.61973 8.71602V8.65977L6.48965 8.75469C6.48613 8.72305 6.46856 8.69141 6.43691 8.68086C6.40879 8.67031 6.37715 8.6668 6.35254 8.68789C6.32441 8.70898 6.31738 8.75117 6.31387 8.78281L6.2998 8.97969ZM6.34551 8.94102L6.35605 8.79336C6.35957 8.76875 6.36309 8.74063 6.38418 8.72305C6.38893 8.71932 6.39455 8.71688 6.40052 8.71596C6.40648 8.71503 6.41258 8.71566 6.41823 8.71778C6.42389 8.7199 6.4289 8.72344 6.43278 8.72805C6.43667 8.73267 6.4393 8.73821 6.44043 8.74414C6.45801 8.7793 6.45098 8.82148 6.44746 8.86016L6.44043 8.94805L6.34551 8.94102ZM6.33848 8.51914L6.63027 8.58945L6.70059 8.30469L6.65488 8.29414L6.59863 8.54023L6.51074 8.51562L6.55996 8.29766L6.52129 8.28711L6.46855 8.50508L6.39121 8.4875L6.44395 8.25547L6.40176 8.24492L6.33848 8.51914ZM6.44395 8.12891L6.7252 8.22734L6.74277 8.18516L6.63027 8.15L6.67598 8.01992C6.68301 7.98477 6.69004 7.94258 6.66895 7.91094C6.66059 7.8991 6.64953 7.88942 6.6367 7.8827C6.62386 7.87597 6.60961 7.8724 6.59512 7.87227C6.55996 7.87227 6.53535 7.89687 6.52129 7.925C6.5002 7.96367 6.48613 8.00938 6.47207 8.05156L6.44395 8.12891ZM6.5002 8.10078L6.5459 7.97422C6.55293 7.94961 6.56699 7.925 6.5916 7.91797C6.6127 7.91094 6.6373 7.92852 6.6373 7.95312C6.64434 7.98828 6.62676 8.03047 6.6127 8.06562L6.5916 8.13594L6.5002 8.10078ZM6.60215 7.7668L6.76035 7.8582C6.79199 7.87578 6.83066 7.88633 6.8623 7.86523C6.90449 7.84414 6.93262 7.79492 6.95371 7.75625C6.96777 7.72109 6.98184 7.67539 6.96074 7.63672C6.93613 7.60156 6.89395 7.58398 6.85879 7.55938L6.75332 7.49961L6.73574 7.53477C6.78496 7.56992 6.8377 7.59805 6.88691 7.62617C6.91152 7.64023 6.93262 7.66836 6.92559 7.69648C6.91966 7.73115 6.90515 7.76378 6.8834 7.79141C6.86582 7.81602 6.8377 7.83359 6.80957 7.82656C6.77441 7.82305 6.75332 7.80195 6.7252 7.78789L6.61973 7.72813L6.60215 7.7668ZM6.8166 7.41523L7.05566 7.59453L7.16465 7.45039C7.18574 7.41875 7.20684 7.38008 7.19277 7.34492C7.18633 7.32932 7.1757 7.3158 7.16205 7.30587C7.14839 7.29595 7.13226 7.28999 7.11543 7.28867C7.10137 7.28867 7.08027 7.2957 7.07324 7.30273C7.08027 7.26758 7.05566 7.23945 7.02754 7.23242C6.99238 7.21836 6.95723 7.24297 6.93262 7.26758C6.90449 7.2957 6.87988 7.33086 6.85527 7.3625L6.8166 7.41523ZM6.87637 7.40469L6.96074 7.29922C6.9748 7.28164 6.9959 7.26406 7.01699 7.27461C7.03809 7.28516 7.0416 7.30977 7.03105 7.32383C7.01699 7.35898 6.9959 7.38008 6.9748 7.4082L6.93965 7.45391L6.87637 7.40469ZM6.9748 7.475L7.05918 7.36953C7.07676 7.35195 7.09434 7.33086 7.11895 7.33438C7.14004 7.34141 7.1541 7.3625 7.15059 7.38359C7.13652 7.42227 7.1084 7.45391 7.08379 7.48906L7.04863 7.53477L6.9748 7.47852V7.475ZM7.08731 7.09531L7.29121 7.31328L7.46699 7.14453L7.43887 7.11641L7.29824 7.25H7.29121L7.11543 7.06367L7.08731 7.09531ZM7.35098 6.86328L7.53379 7.10234L7.56895 7.07422L7.38613 6.83516L7.35098 6.86328ZM7.61816 6.68047C7.59064 6.69799 7.56676 6.72068 7.54785 6.74727C7.52996 6.76944 7.51963 6.79675 7.51837 6.82521C7.5171 6.85367 7.52497 6.8818 7.54082 6.90547C7.55531 6.92926 7.57596 6.94869 7.60059 6.96172C7.6252 6.97227 7.6498 6.9793 7.67793 6.97578C7.71349 6.96917 7.74737 6.9555 7.77757 6.93557C7.80776 6.91564 7.83365 6.88987 7.85371 6.85977C7.86739 6.8326 7.87113 6.8015 7.86426 6.77188L7.82207 6.78945C7.83262 6.84922 7.79395 6.87734 7.75176 6.90547C7.68145 6.94414 7.61816 6.94063 7.57598 6.88086C7.5373 6.81055 7.58301 6.7543 7.63926 6.71563C7.68145 6.69102 7.72012 6.67344 7.75879 6.69805L7.79395 6.66992C7.77136 6.6542 7.74404 6.64675 7.7166 6.64883C7.68496 6.64883 7.65332 6.65938 7.61816 6.68398V6.68047ZM7.97324 6.50469L7.9416 6.83867L7.99082 6.82109L7.99785 6.71563L8.15254 6.65586L8.22988 6.72617L8.27559 6.70508L8.02246 6.48359L7.97324 6.50469ZM8.01543 6.53984L8.11387 6.62422L8.00137 6.66992L8.01543 6.53984ZM8.63066 6.31836L8.65176 6.61719L8.81348 6.60664C8.85566 6.60312 8.90137 6.59258 8.92949 6.55742C8.94587 6.53559 8.95693 6.51025 8.96181 6.4834C8.96669 6.45655 8.96526 6.42893 8.95762 6.40273C8.94964 6.37991 8.93561 6.35968 8.91704 6.3442C8.89846 6.32873 8.87604 6.31858 8.85215 6.31484C8.80996 6.3043 8.76426 6.31133 8.71504 6.31484L8.63066 6.31836ZM8.67637 6.35703L8.80645 6.35C8.83162 6.34869 8.85646 6.35614 8.87676 6.37109C8.89165 6.38168 8.90342 6.39608 8.91085 6.41278C8.91827 6.42948 8.92107 6.44786 8.91895 6.46602C8.91782 6.48657 8.9105 6.5063 8.89795 6.52262C8.8854 6.53893 8.86821 6.55106 8.84863 6.55742L8.77832 6.56797L8.69043 6.57148L8.67637 6.35703ZM9.04902 6.30078L9.03145 6.59961L9.32324 6.61719V6.575L9.07715 6.56094L9.08418 6.46953L9.30566 6.48359L9.30918 6.44141L9.0877 6.42734V6.34648L9.33027 6.36055V6.31836L9.04902 6.30078ZM9.83301 6.42734L9.72754 6.70859L9.7627 6.71914L9.85059 6.49766V6.48711L9.85762 6.50117L9.96309 6.79648L10.0123 6.81758L10.1178 6.53633L10.0826 6.52227L9.99473 6.74375V6.7543L9.9877 6.74375L9.88223 6.44492L9.83301 6.42734ZM10.2373 6.59961L10.0967 6.8668L10.0615 6.8457L10.1951 6.57852L10.2373 6.59961ZM10.4623 6.7332C10.4357 6.71482 10.4059 6.7017 10.3744 6.69453C10.3466 6.68732 10.3173 6.68924 10.2907 6.7C10.2641 6.71076 10.2417 6.7298 10.2268 6.7543C10.2112 6.77606 10.2015 6.8015 10.1986 6.82812C10.1986 6.85625 10.2057 6.88438 10.2197 6.90898C10.2402 6.93769 10.2666 6.96167 10.2971 6.9793C10.3322 7.00391 10.3639 7.01445 10.3955 7.01797C10.4307 7.01797 10.4553 7.01094 10.4834 6.99336L10.4482 6.9582C10.399 6.99336 10.3568 6.97227 10.3146 6.94414C10.2479 6.90195 10.2232 6.83867 10.2619 6.77891C10.3076 6.70859 10.3814 6.72617 10.4377 6.76484C10.4799 6.78945 10.5115 6.82109 10.508 6.8668L10.5432 6.88438C10.5492 6.85702 10.5455 6.8284 10.5326 6.80352C10.5153 6.77464 10.4912 6.75048 10.4623 6.7332ZM10.7471 6.94414L10.4342 7.0707L10.4693 7.10586L10.5678 7.06719L10.6943 7.17266L10.6697 7.27813L10.7049 7.30977L10.7857 6.9793L10.7506 6.94414H10.7471ZM10.7365 7.00039L10.7014 7.12695L10.6135 7.04961L10.7365 7.00039ZM10.9756 7.15508L10.7436 7.34492L10.7717 7.38008L10.8631 7.30625L10.9545 7.41523L10.9264 7.56641L10.9615 7.61211L10.9896 7.45039C11.0178 7.47148 11.0564 7.48555 11.0846 7.46445C11.1127 7.45391 11.1373 7.4293 11.1373 7.39766C11.1408 7.35547 11.1127 7.32383 11.0881 7.29219L10.9756 7.15508ZM10.9686 7.21484C11.0037 7.25703 11.0389 7.2957 11.067 7.33789C11.0811 7.35898 11.1021 7.38711 11.0811 7.41172C11.0705 7.43281 11.0389 7.43281 11.0213 7.41875C10.9861 7.39414 10.9615 7.35547 10.9299 7.32383L10.8947 7.27813L10.9686 7.21484ZM11.3236 7.6332L10.9861 7.64727L11.0143 7.69297L11.1197 7.68594L11.2006 7.82656L11.1408 7.91797L11.1689 7.96016L11.3518 7.67891L11.3271 7.6332H11.3236ZM11.2955 7.67891L11.2252 7.78789L11.1654 7.68242L11.2955 7.67891ZM11.517 8.03047C11.4994 7.97773 11.4678 7.925 11.4186 7.90039C11.3905 7.8867 11.3587 7.88272 11.3282 7.88908C11.2976 7.89545 11.27 7.91179 11.2498 7.93555C11.2146 7.97773 11.2146 8.03398 11.2217 8.0832C11.232 8.14219 11.2588 8.19705 11.299 8.24141L11.2779 8.24844L11.292 8.28711L11.4326 8.23789L11.3764 8.08672L11.3447 8.09727L11.3869 8.20977L11.3377 8.22734C11.2979 8.18964 11.2709 8.14049 11.2604 8.08672C11.2498 8.04453 11.2498 7.99531 11.2814 7.96719C11.3166 7.93203 11.3764 7.91797 11.4221 7.94961C11.4592 7.98255 11.4841 8.02721 11.4924 8.07617C11.5029 8.10781 11.5029 8.14648 11.4783 8.17109C11.4713 8.17461 11.4783 8.18164 11.4818 8.18867L11.4959 8.20625C11.5084 8.19607 11.5183 8.18317 11.525 8.16855C11.5317 8.15392 11.535 8.13796 11.5346 8.12188C11.5346 8.09023 11.5275 8.05859 11.517 8.03047ZM11.6049 8.26602L11.4361 8.29766C11.4045 8.30469 11.3834 8.31172 11.3658 8.32578C11.3518 8.33984 11.3412 8.35742 11.3342 8.38203C11.3295 8.41244 11.3307 8.44348 11.3377 8.47344C11.3447 8.50859 11.3553 8.53672 11.3729 8.55781C11.3834 8.57891 11.401 8.59297 11.4186 8.6C11.4396 8.60352 11.4643 8.60703 11.4959 8.6L11.6611 8.56484L11.6541 8.52266L11.4924 8.55781C11.4186 8.56836 11.3939 8.52969 11.3799 8.46641C11.3658 8.39609 11.3764 8.35391 11.4502 8.33984L11.6119 8.30469L11.6049 8.26602ZM11.6963 8.77578L11.3869 8.64219V8.69141L11.4854 8.73359L11.4959 8.89531L11.408 8.95156L11.4115 9.00078L11.6998 8.825L11.6963 8.77578ZM11.6506 8.80391L11.5381 8.87422L11.5275 8.75117L11.6506 8.80391ZM6.53184 9.55273L6.48965 9.56328L6.53535 9.74609L6.58105 9.73555L6.53184 9.55273ZM11.4678 9.55273L11.51 9.56328L11.4643 9.74609L11.4186 9.73555L11.4678 9.55273ZM6.9959 10.3191L6.66191 10.3578L6.69004 10.4L6.79551 10.3895L6.8834 10.5266L6.83418 10.618L6.8623 10.6602L7.02402 10.3613L6.9959 10.3191ZM6.97129 10.3684L6.90801 10.4844L6.8377 10.3824L6.97129 10.3684ZM7.12598 10.5055L6.91152 10.7023L6.93965 10.7375L7.11895 10.5652L7.02402 10.8254L7.05918 10.8605L7.31582 10.7832L7.14004 10.9484L7.16816 10.9766L7.3791 10.7797L7.33691 10.7305L7.07676 10.8113L7.1752 10.5547L7.12598 10.5055ZM7.43535 10.8219L7.25605 11.0609L7.48809 11.2367L7.5127 11.2016L7.31582 11.0539L7.37207 10.9836L7.54785 11.1137L7.57598 11.0785L7.39668 10.9449L7.4459 10.8816L7.63574 11.0258L7.66035 10.9906L7.43535 10.8219ZM7.73066 11.0363L7.59004 11.3L7.6252 11.3211L7.68145 11.2156L7.81152 11.2859L7.83965 11.4371L7.88887 11.4617L7.85723 11.3035C7.89238 11.3141 7.92754 11.307 7.95215 11.2824C7.96973 11.2613 7.98379 11.2297 7.97324 11.2016C7.9627 11.1629 7.92402 11.1418 7.89238 11.1242L7.73066 11.0363ZM7.74824 11.0961L7.88535 11.1664C7.90293 11.184 7.93105 11.2016 7.92754 11.2297C7.92754 11.2543 7.89941 11.2648 7.87832 11.2648C7.83262 11.2543 7.79746 11.2297 7.75879 11.2086L7.70254 11.1805L7.74824 11.0961ZM8.06816 11.2121L7.95566 11.4934L7.99785 11.5074L8.11035 11.2297L8.06816 11.2121ZM8.33887 11.307C8.30841 11.2963 8.27619 11.2916 8.24395 11.293C8.21549 11.2932 8.18787 11.3026 8.1651 11.3197C8.14234 11.3368 8.12562 11.3607 8.11738 11.3879C8.10788 11.4137 8.10546 11.4417 8.11035 11.4688C8.11738 11.4969 8.13145 11.5215 8.15254 11.5391C8.17884 11.563 8.21002 11.581 8.24395 11.5918C8.28262 11.6059 8.31777 11.6059 8.34941 11.6023C8.38031 11.5959 8.4078 11.5784 8.42676 11.5531L8.38809 11.532C8.3459 11.5777 8.3002 11.5672 8.25098 11.5531C8.17715 11.525 8.13848 11.4723 8.15957 11.402C8.18418 11.3246 8.25801 11.3246 8.3248 11.3457C8.37051 11.3598 8.40918 11.3809 8.41621 11.4266L8.4584 11.4301C8.45494 11.4033 8.44255 11.3786 8.42324 11.3598C8.3999 11.3355 8.37092 11.3174 8.33887 11.307ZM8.64121 11.3773L8.44434 11.648L8.49356 11.6551L8.55332 11.5707L8.71504 11.5953L8.7502 11.6938L8.79941 11.7008L8.69043 11.3844L8.64121 11.3738V11.3773ZM8.65879 11.4266L8.70098 11.5496L8.58145 11.532L8.65879 11.4266ZM9.34434 11.3773C9.31187 11.383 9.28082 11.3949 9.25293 11.4125C9.22848 11.4267 9.20918 11.4484 9.1978 11.4743C9.18643 11.5002 9.18358 11.529 9.18965 11.5566C9.19512 11.5827 9.20723 11.6069 9.2248 11.627C9.24238 11.6516 9.26699 11.6621 9.29512 11.6727C9.32324 11.6797 9.3584 11.6797 9.40059 11.6727C9.43568 11.666 9.46842 11.6502 9.49551 11.627C9.51944 11.6074 9.53565 11.58 9.54121 11.5496H9.49199C9.48145 11.6094 9.43574 11.6199 9.38652 11.634C9.30566 11.648 9.2459 11.6199 9.23184 11.5496C9.21777 11.4688 9.28105 11.4301 9.34785 11.416C9.39355 11.4055 9.43926 11.4055 9.46387 11.4406L9.50605 11.4266C9.49067 11.4047 9.46839 11.3886 9.44277 11.3809C9.40854 11.3705 9.37216 11.3692 9.33731 11.3773H9.34434ZM9.54473 11.3422L9.6291 11.6305L9.91035 11.5461L9.89629 11.5039L9.66074 11.5742L9.63262 11.4898L9.84707 11.423L9.83652 11.3844L9.62207 11.4477L9.59746 11.3703L9.82598 11.3L9.81543 11.2613L9.54473 11.3422ZM9.86816 11.2367L9.99473 11.5109L10.0299 11.4934L9.92441 11.2684L10.2162 11.402H10.2373L10.2725 11.3809L10.1494 11.1102L10.1143 11.1277L10.2162 11.3527L9.91738 11.2156L9.86816 11.2367ZM10.1986 11.0855L10.2232 11.1207L10.3287 11.0504L10.3322 11.0469L10.4729 11.2613L10.508 11.2367L10.3709 11.0258V11.0187L10.4799 10.9484L10.4588 10.9133L10.1986 11.0855ZM10.501 10.8746L10.7049 11.0996L10.7365 11.068L10.6557 10.9836L10.7611 10.8852L10.9158 10.9027L10.9545 10.8676L10.7928 10.8465C10.8139 10.8184 10.8209 10.7762 10.8033 10.748C10.7893 10.7234 10.7646 10.7023 10.733 10.7023C10.6908 10.7023 10.6627 10.7305 10.6275 10.7586L10.501 10.8746ZM10.5607 10.8781L10.6768 10.7727C10.6943 10.7586 10.726 10.7375 10.7506 10.7551C10.7717 10.7691 10.7717 10.7973 10.7576 10.8184C10.7365 10.8535 10.7014 10.8816 10.6697 10.9133L10.6275 10.9484L10.5607 10.8781ZM10.849 10.5266L10.9826 10.8395L11.0178 10.8008L10.9721 10.7023L11.0775 10.5758L11.1795 10.6004L11.2111 10.5582L10.8807 10.4879L10.849 10.5266ZM10.9018 10.5406L11.0318 10.5652L10.9545 10.6602L10.9018 10.5406ZM10.9791 10.3578L11.2322 10.523L11.3623 10.3191L11.3271 10.2945L11.2217 10.4562V10.4633L11.2146 10.4598L11.0037 10.3191L10.9791 10.3578Z" fill="#C8A400"/>
<g id="Clip path group">
<mask id="mask0_186_11377" style="mask-type:luminance" maskUnits="userSpaceOnUse" x="7" y="6" width="4" height="5">
<g id="ni-c">
<path id="Vector_4" d="M8.99888 6.79102L7.08789 10.1H10.9099L8.99888 6.79102Z" fill="white"/>
</g>
</mask>
<g mask="url(#mask0_186_11377)">
<g id="Group">
<path id="Vector_5" d="M8.99879 6.79102L8.05379 8.42601L7.5918 9.22701H10.4058L9.96479 8.46501L8.99879 6.79102Z" fill="white"/>
<g id="ni-e">
<g id="ni-d">
<path id="Vector_6" opacity="0.6" d="M8.99973 6.79102L8.92773 6.91102L8.99973 8.56101L9.07173 6.91102L8.99973 6.79102Z" fill="#17C0EB" stroke="#17C0EB" stroke-width="0.085333"/>
<path id="Vector_7" d="M9.00007 8.32422H8.99707L9.00007 8.41422L9.00307 8.32422H9.00007Z" fill="white"/>
</g>
<g id="ni-d_2">
<path id="Vector_8" opacity="0.6" d="M10.6853 8.01574L10.549 7.98435L9.00197 8.5627L10.5935 8.1213L10.6853 8.01574Z" fill="#17C0EB" stroke="#17C0EB" stroke-width="0.085333"/>
<path id="Vector_9" d="M9.22749 8.48918L9.22656 8.48633L9.14189 8.51699L9.22842 8.49203L9.22749 8.48918Z" fill="white"/>
</g>
<g id="ni-d_3">
<path id="Vector_10" opacity="0.6" d="M10.0414 9.99935L10.0291 9.85995L9.00098 8.5674L9.91258 9.94459L10.0414 9.99935Z" fill="#17C0EB" stroke="#17C0EB" stroke-width="0.085333"/>
<path id="Vector_11" d="M9.14015 8.75958L9.14258 8.75781L9.08725 8.68676L9.13772 8.76134L9.14015 8.75958Z" fill="white"/>
</g>
<g id="ni-d_4">
<path id="Vector_12" opacity="0.6" d="M7.95738 9.9987L8.08616 9.94393L8.99775 8.56674L7.96966 9.85929L7.95738 9.9987Z" fill="#17C0EB" stroke="#17C0EB" stroke-width="0.085333"/>
<path id="Vector_13" d="M8.8589 8.758L8.86133 8.75977L8.9118 8.68519L8.85647 8.75624L8.8589 8.758Z" fill="white"/>
</g>
<g id="ni-d_5">
<path id="Vector_14" opacity="0.6" d="M7.31326 8.01551L7.40514 8.12107L8.99663 8.56247L7.44964 7.98412L7.31326 8.01551Z" fill="#17C0EB" stroke="#17C0EB" stroke-width="0.085333"/>
<path id="Vector_15" d="M8.77143 8.48933L8.77051 8.49219L8.85703 8.51715L8.77236 8.48648L8.77143 8.48933Z" fill="white"/>
</g>
</g>
<g id="ni-e_2">
<g id="ni-d_6">
<path id="Vector_16" opacity="0.6" d="M9.24513 6.80885L9.15713 6.91766L8.99879 8.56162L9.29973 6.9377L9.24513 6.80885Z" fill="#17C0EB" stroke="#17C0EB" stroke-width="0.085333"/>
<path id="Vector_17" d="M9.03129 8.32659L9.02832 8.32617L9.01877 8.41571L9.03426 8.32701L9.03129 8.32659Z" fill="white"/>
</g>
<g id="ni-d_7">
<path id="Vector_18" opacity="0.6" d="M10.7449 8.25645L10.6142 8.20638L9.00182 8.56381L10.6393 8.3482L10.7449 8.25645Z" fill="#17C0EB" stroke="#17C0EB" stroke-width="0.085333"/>
<path id="Vector_19" d="M9.2349 8.52249L9.23438 8.51953L9.14626 8.53811L9.23542 8.52544L9.2349 8.52249Z" fill="white"/>
</g>
<g id="ni-d_8">
<path id="Vector_20" opacity="0.6" d="M9.83096 10.1295L9.83819 9.98975L9 8.56669L9.71105 10.0574L9.83096 10.1295Z" fill="#17C0EB" stroke="#17C0EB" stroke-width="0.085333"/>
<path id="Vector_21" d="M9.11161 8.7768L9.11426 8.77539L9.06936 8.69733L9.10896 8.77821L9.11161 8.7768Z" fill="white"/>
</g>
<g id="ni-d_9">
<path id="Vector_22" opacity="0.6" d="M7.76754 9.83866L7.90269 9.80235L8.99708 8.56543L7.79911 9.70232L7.76754 9.83866Z" fill="#17C0EB" stroke="#17C0EB" stroke-width="0.085333"/>
<path id="Vector_23" d="M8.8328 8.7362L8.83496 8.73828L8.89532 8.67146L8.83064 8.73411L8.8328 8.7362Z" fill="white"/>
</g>
<g id="ni-d_10">
<path id="Vector_24" opacity="0.6" d="M7.40559 7.78685L7.48188 7.90417L8.99645 8.56276L7.545 7.77474L7.40559 7.78685Z" fill="#17C0EB" stroke="#17C0EB" stroke-width="0.085333"/>
<path id="Vector_25" d="M8.78354 8.45824L8.78223 8.46094L8.86443 8.49769L8.78486 8.45554L8.78354 8.45824Z" fill="white"/>
</g>
</g>
<g id="ni-e_3">
<g id="ni-d_11">
<path id="Vector_26" opacity="0.6" d="M9.48816 6.85969L9.38587 6.95519L9.00028 8.56112L9.52429 6.99489L9.48816 6.85969Z" fill="#17C0EB" stroke="#17C0EB" stroke-width="0.085333"/>
<path id="Vector_27" d="M9.06538 8.33286L9.0625 8.33203L9.04058 8.41937L9.06827 8.33369L9.06538 8.33286Z" fill="white"/>
</g>
<g id="ni-d_12">
<path id="Vector_28" opacity="0.6" d="M10.7711 8.50164L10.6486 8.43388L9.00215 8.56342L10.6537 8.57779L10.7711 8.50164Z" fill="#17C0EB" stroke="#17C0EB" stroke-width="0.085333"/>
<path id="Vector_29" d="M9.23936 8.55573L9.23926 8.55273L9.14942 8.55887L9.23947 8.55873L9.23936 8.55573Z" fill="white"/>
</g>
<g id="ni-d_13">
<path id="Vector_30" opacity="0.6" d="M9.60617 10.2297L9.63279 10.0923L9.0008 8.56645L9.49747 10.1416L9.60617 10.2297Z" fill="#17C0EB" stroke="#17C0EB" stroke-width="0.085333"/>
<path id="Vector_31" d="M9.08214 8.79009L9.08496 8.78906L9.05136 8.70552L9.07932 8.79111L9.08214 8.79009Z" fill="white"/>
</g>
<g id="ni-d_14">
<path id="Vector_32" opacity="0.6" d="M7.60216 9.65615L7.74105 9.63901L8.99693 8.56644L7.65239 9.52554L7.60216 9.65615Z" fill="#17C0EB" stroke="#17C0EB" stroke-width="0.085333"/>
<path id="Vector_33" d="M8.81065 8.71248L8.8125 8.71484L8.88157 8.65707L8.80881 8.71012L8.81065 8.71248Z" fill="white"/>
</g>
<g id="ni-d_15">
<path id="Vector_34" opacity="0.6" d="M7.52952 7.57312L7.58874 7.69992L8.99691 8.56289L7.66927 7.58053L7.52952 7.57312Z" fill="#17C0EB" stroke="#17C0EB" stroke-width="0.085333"/>
<path id="Vector_35" d="M8.80051 8.43111L8.79883 8.43359L8.87512 8.48143L8.80218 8.42862L8.80051 8.43111Z" fill="white"/>
</g>
</g>
<g id="ni-e_4">
<g id="ni-d_16">
<path id="Vector_36" opacity="0.6" d="M9.72007 6.9453L9.60549 7.02564L9.00015 8.56227L9.73704 7.08421L9.72007 6.9453Z" fill="#17C0EB" stroke="#17C0EB" stroke-width="0.085333"/>
<path id="Vector_37" d="M9.09649 8.34497L9.09375 8.34375L9.05988 8.42719L9.09923 8.34619L9.09649 8.34497Z" fill="white"/>
</g>
<g id="ni-d_17">
<path id="Vector_38" opacity="0.6" d="M10.762 8.74934L10.6502 8.66519L9.00171 8.56432L10.6351 8.8084L10.762 8.74934Z" fill="#17C0EB" stroke="#17C0EB" stroke-width="0.085333"/>
<path id="Vector_39" d="M9.23699 8.58892L9.2373 8.58594L9.14748 8.57951L9.23668 8.5919L9.23699 8.58892Z" fill="white"/>
</g>
<g id="ni-d_18">
<path id="Vector_40" opacity="0.6" d="M9.36707 10.2982L9.41255 10.1658L8.99907 8.56686L9.2717 10.1958L9.36707 10.2982Z" fill="#17C0EB" stroke="#17C0EB" stroke-width="0.085333"/>
<path id="Vector_41" d="M9.04882 8.79945L9.05176 8.79883L9.03011 8.71142L9.04589 8.80008L9.04882 8.79945Z" fill="white"/>
</g>
<g id="ni-d_19">
<path id="Vector_42" opacity="0.6" d="M7.46302 9.45132L7.60295 9.45367L8.99588 8.56632L7.53095 9.32897L7.46302 9.45132Z" fill="#17C0EB" stroke="#17C0EB" stroke-width="0.085333"/>
<path id="Vector_43" d="M8.79049 8.6849L8.79199 8.6875L8.86843 8.6399L8.78899 8.6823L8.79049 8.6849Z" fill="white"/>
</g>
<g id="ni-d_20">
<path id="Vector_44" opacity="0.6" d="M7.68099 7.37813L7.72199 7.51194L8.99635 8.56249L7.81834 7.40492L7.68099 7.37813Z" fill="#17C0EB" stroke="#17C0EB" stroke-width="0.085333"/>
<path id="Vector_45" d="M8.82037 8.40402L8.81836 8.40625L8.88725 8.46424L8.82237 8.40179L8.82037 8.40402Z" fill="white"/>
</g>
</g>
<g id="ni-e_5">
<g id="ni-d_21">
<path id="Vector_46" opacity="0.6" d="M9.93899 7.05964L9.81434 7.12325L9.00104 8.56068L9.93646 7.19956L9.93899 7.05964Z" fill="#17C0EB" stroke="#17C0EB" stroke-width="0.085333"/>
<path id="Vector_47" d="M9.12657 8.35901L9.12402 8.35742L9.07888 8.43534L9.12911 8.3606L9.12657 8.35901Z" fill="white"/>
</g>
<g id="ni-d_22">
<path id="Vector_48" opacity="0.6" d="M10.7199 8.99174L10.6209 8.89284L9.00247 8.56354L10.586 9.03257L10.7199 8.99174Z" fill="#17C0EB" stroke="#17C0EB" stroke-width="0.085333"/>
<path id="Vector_49" d="M9.23267 8.6201L9.2334 8.61719L9.14535 8.59833L9.23195 8.62301L9.23267 8.6201Z" fill="white"/>
</g>
<g id="ni-d_23">
<path id="Vector_50" opacity="0.6" d="M9.12349 10.3312L9.18694 10.2065L9.00002 8.56551L9.04329 10.2165L9.12349 10.3312Z" fill="#17C0EB" stroke="#17C0EB" stroke-width="0.085333"/>
<path id="Vector_51" d="M9.01654 8.80099L9.01953 8.80078L9.01026 8.71121L9.01355 8.8012L9.01654 8.80099Z" fill="white"/>
</g>
<g id="ni-d_24">
<path id="Vector_52" opacity="0.6" d="M7.35584 9.22817L7.49407 9.24997L8.99695 8.56511L7.44013 9.11646L7.35584 9.22817Z" fill="#17C0EB" stroke="#17C0EB" stroke-width="0.085333"/>
<path id="Vector_53" d="M8.7772 8.65347L8.77832 8.65625L8.86064 8.61975L8.77607 8.65069L8.7772 8.65347Z" fill="white"/>
</g>
<g id="ni-d_25">
<path id="Vector_54" opacity="0.6" d="M7.85984 7.20567L7.88182 7.34388L8.99757 8.56157L7.99213 7.25132L7.85984 7.20567Z" fill="#17C0EB" stroke="#17C0EB" stroke-width="0.085333"/>
<path id="Vector_55" d="M8.84507 8.38088L8.84277 8.38281L8.90292 8.44983L8.84737 8.37896L8.84507 8.38088Z" fill="white"/>
</g>
</g>
<g id="ni-e_6">
<g id="ni-d_26">
<path id="Vector_56" opacity="0.6" d="M10.1391 7.20644L10.0069 7.25208L9.00141 8.56233L10.1172 7.34464L10.1391 7.20644Z" fill="#17C0EB" stroke="#17C0EB" stroke-width="0.085333"/>
<path id="Vector_57" d="M9.15367 8.38083L9.15137 8.37891L9.09581 8.44978L9.15596 8.38276L9.15367 8.38083Z" fill="white"/>
</g>
<g id="ni-d_27">
<path id="Vector_58" opacity="0.6" d="M10.643 9.22887L10.5587 9.11716L9.00184 8.56582L10.5047 9.25067L10.643 9.22887Z" fill="#17C0EB" stroke="#17C0EB" stroke-width="0.085333"/>
<path id="Vector_59" d="M9.22153 8.65513L9.22266 8.65234L9.13809 8.62141L9.22041 8.65791L9.22153 8.65513Z" fill="white"/>
</g>
<g id="ni-d_28">
<path id="Vector_60" opacity="0.6" d="M8.87544 10.3329L8.95564 10.2182L8.99891 8.56719L8.81199 10.2081L8.87544 10.3329Z" fill="#17C0EB" stroke="#17C0EB" stroke-width="0.085333"/>
<path id="Vector_61" d="M8.98236 8.80448L8.98535 8.80469L8.98864 8.7147L8.97937 8.80427L8.98236 8.80448Z" fill="white"/>
</g>
<g id="ni-d_29">
<path id="Vector_62" opacity="0.6" d="M7.27848 8.99264L7.41233 9.03347L8.9959 8.56444L7.3775 8.89375L7.27848 8.99264Z" fill="#17C0EB" stroke="#17C0EB" stroke-width="0.085333"/>
<path id="Vector_63" d="M8.76588 8.62209L8.7666 8.625L8.8532 8.60032L8.76515 8.61918L8.76588 8.62209Z" fill="white"/>
</g>
<g id="ni-d_30">
<path id="Vector_64" opacity="0.6" d="M8.06008 7.0595L8.06261 7.19942L8.99804 8.56054L8.18473 7.12311L8.06008 7.0595Z" fill="#17C0EB" stroke="#17C0EB" stroke-width="0.085333"/>
<path id="Vector_65" d="M8.87266 8.35974L8.87012 8.36133L8.92035 8.43606L8.87521 8.35815L8.87266 8.35974Z" fill="white"/>
</g>
</g>
<g id="ni-e_7">
<g id="ni-d_31">
<path id="Vector_66" opacity="0.6" d="M10.3167 7.37772L10.1794 7.40451L9.00137 8.56208L10.2757 7.51153L10.3167 7.37772Z" fill="#17C0EB" stroke="#17C0EB" stroke-width="0.085333"/>
<path id="Vector_67" d="M9.17779 8.40262L9.17578 8.40039L9.11091 8.46284L9.1798 8.40485L9.17779 8.40262Z" fill="white"/>
</g>
<g id="ni-d_32">
<path id="Vector_68" opacity="0.6" d="M10.5353 9.44907L10.4674 9.32672L9.00243 8.56408L10.3954 9.45143L10.5353 9.44907Z" fill="#17C0EB" stroke="#17C0EB" stroke-width="0.085333"/>
<path id="Vector_69" d="M9.20748 8.68229L9.20898 8.67969L9.12954 8.63729L9.20598 8.68488L9.20748 8.68229Z" fill="white"/>
</g>
<g id="ni-d_33">
<path id="Vector_70" opacity="0.6" d="M8.63075 10.2975L8.72612 10.1951L8.99875 8.56622L8.58527 10.1652L8.63075 10.2975Z" fill="#17C0EB" stroke="#17C0EB" stroke-width="0.085333"/>
<path id="Vector_71" d="M8.94921 8.7982L8.95215 8.79883L8.96793 8.71017L8.94628 8.79758L8.94921 8.7982Z" fill="white"/>
</g>
<g id="ni-d_34">
<path id="Vector_72" opacity="0.6" d="M7.23661 8.74871L7.36348 8.80777L8.99691 8.56369L7.34843 8.66456L7.23661 8.74871Z" fill="#17C0EB" stroke="#17C0EB" stroke-width="0.085333"/>
<path id="Vector_73" d="M8.76141 8.58881L8.76172 8.5918L8.85091 8.57941L8.76109 8.58583L8.76141 8.58881Z" fill="white"/>
</g>
<g id="ni-d_35">
<path id="Vector_74" opacity="0.6" d="M8.27867 6.94337L8.2617 7.08228L8.99859 8.56034L8.39325 7.02371L8.27867 6.94337Z" fill="#17C0EB" stroke="#17C0EB" stroke-width="0.085333"/>
<path id="Vector_75" d="M8.90215 8.34448L8.89941 8.3457L8.93876 8.4267L8.9049 8.34326L8.90215 8.34448Z" fill="white"/>
</g>
</g>
<g id="ni-e_8">
<g id="ni-d_36">
<path id="Vector_76" opacity="0.6" d="M10.469 7.57336L10.3292 7.58077L9.00158 8.56313L10.4098 7.70016L10.469 7.57336Z" fill="#17C0EB" stroke="#17C0EB" stroke-width="0.085333"/>
<path id="Vector_77" d="M9.19797 8.43022L9.19629 8.42773L9.12335 8.48055L9.19964 8.43271L9.19797 8.43022Z" fill="white"/>
</g>
<g id="ni-d_37">
<path id="Vector_78" opacity="0.6" d="M10.3961 9.65635L10.3459 9.52573L9.00133 8.56663L10.2572 9.6392L10.3961 9.65635Z" fill="#17C0EB" stroke="#17C0EB" stroke-width="0.085333"/>
<path id="Vector_79" d="M9.18761 8.7133L9.18945 8.71094L9.11669 8.65789L9.18576 8.71567L9.18761 8.7133Z" fill="white"/>
</g>
<g id="ni-d_38">
<path id="Vector_80" opacity="0.6" d="M8.3923 10.2293L8.501 10.1411L8.99768 8.56603L8.36569 10.0919L8.3923 10.2293Z" fill="#17C0EB" stroke="#17C0EB" stroke-width="0.085333"/>
<path id="Vector_81" d="M8.9171 8.78804L8.91992 8.78906L8.94788 8.70346L8.91428 8.78701L8.9171 8.78804Z" fill="white"/>
</g>
<g id="ni-d_39">
<path id="Vector_82" opacity="0.6" d="M7.22712 8.50226L7.34454 8.57841L8.99604 8.56403L7.34956 8.4345L7.22712 8.50226Z" fill="#17C0EB" stroke="#17C0EB" stroke-width="0.085333"/>
<path id="Vector_83" d="M8.75889 8.5556L8.75879 8.55859L8.84884 8.55874L8.759 8.5526L8.75889 8.5556Z" fill="white"/>
</g>
<g id="ni-d_40">
<path id="Vector_84" opacity="0.6" d="M8.51062 6.85906L8.47448 6.99426L8.99849 8.56049L8.6129 6.95457L8.51062 6.85906Z" fill="#17C0EB" stroke="#17C0EB" stroke-width="0.085333"/>
<path id="Vector_85" d="M8.93355 8.33316L8.93066 8.33398L8.95836 8.41967L8.93643 8.33233L8.93355 8.33316Z" fill="white"/>
</g>
</g>
<g id="ni-e_9">
<g id="ni-d_41">
<path id="Vector_86" opacity="0.6" d="M10.5931 7.78737L10.4537 7.77526L9.00223 8.56328L10.5168 7.90469L10.5931 7.78737Z" fill="#17C0EB" stroke="#17C0EB" stroke-width="0.085333"/>
<path id="Vector_87" d="M9.21518 8.45973L9.21387 8.45703L9.13429 8.49918L9.2165 8.46242L9.21518 8.45973Z" fill="white"/>
</g>
<g id="ni-d_42">
<path id="Vector_88" opacity="0.6" d="M10.2304 9.84103L10.1989 9.7047L9.00089 8.5678L10.0953 9.80473L10.2304 9.84103Z" fill="#17C0EB" stroke="#17C0EB" stroke-width="0.085333"/>
<path id="Vector_89" d="M9.16581 8.73841L9.16797 8.73633L9.10329 8.67367L9.16365 8.7405L9.16581 8.73841Z" fill="white"/>
</g>
<g id="ni-d_43">
<path id="Vector_90" opacity="0.6" d="M8.1669 10.1303L8.28681 10.0581L8.99786 8.56745L8.15966 9.99051L8.1669 10.1303Z" fill="#17C0EB" stroke="#17C0EB" stroke-width="0.085333"/>
<path id="Vector_91" d="M8.887 8.77594L8.88965 8.77734L8.92925 8.69647L8.88435 8.77453L8.887 8.77594Z" fill="white"/>
</g>
<g id="ni-d_44">
<path id="Vector_92" opacity="0.6" d="M7.25274 8.25722L7.35841 8.34896L8.99584 8.56458L7.38342 8.20715L7.25274 8.25722Z" fill="#17C0EB" stroke="#17C0EB" stroke-width="0.085333"/>
<path id="Vector_93" d="M8.76224 8.52439L8.76172 8.52734L8.85087 8.54002L8.76276 8.52143L8.76224 8.52439Z" fill="white"/>
</g>
<g id="ni-d_45">
<path id="Vector_94" opacity="0.6" d="M8.75196 6.80834L8.69736 6.93719L8.9983 8.56111L8.83996 6.91715L8.75196 6.80834Z" fill="#17C0EB" stroke="#17C0EB" stroke-width="0.085333"/>
<path id="Vector_95" d="M8.96489 8.32575L8.96191 8.32617L8.97741 8.41488L8.96786 8.32534L8.96489 8.32575Z" fill="white"/>
</g>
</g>
<path id="Vector_96" d="M8.99899 7.97266C8.67942 7.97229 8.37047 8.08735 8.12899 8.29666L7.69099 9.05865C7.6753 9.14073 7.66727 9.22409 7.66699 9.30765H7.81699C7.83226 9.00486 7.9633 8.71951 8.18301 8.5106C8.40272 8.30168 8.69431 8.18519 8.99749 8.18519C9.30067 8.18519 9.59225 8.30168 9.81196 8.5106C10.0317 8.71951 10.1627 9.00486 10.178 9.30765H10.328C10.3287 9.22418 10.3217 9.14083 10.307 9.05865L9.86898 8.29666C9.62736 8.08759 9.3185 7.97256 8.99899 7.97266Z" fill="#FF0000"/>
<path id="Vector_97" d="M8.9994 8C8.66036 7.99929 8.33436 8.13055 8.09041 8.366L7.73041 8.993C7.70491 9.09505 7.69181 9.19981 7.69141 9.305H7.82041C7.84169 9.00684 7.97515 8.72782 8.19391 8.52412C8.41267 8.32042 8.70049 8.20716 8.9994 8.20716C9.29832 8.20716 9.58613 8.32042 9.80489 8.52412C10.0237 8.72782 10.1571 9.00684 10.1784 9.305H10.3074C10.3071 9.19881 10.294 9.09304 10.2684 8.99L9.9084 8.366C9.66445 8.13055 9.33844 7.99929 8.9994 8Z" fill="#FF6600"/>
<path id="Vector_98" d="M8.99888 8.02344C8.81763 8.02296 8.63833 8.06095 8.47284 8.1349C8.30735 8.20885 8.15944 8.31708 8.03889 8.45244L7.77789 8.90244C7.7363 9.03335 7.71605 9.17009 7.71789 9.30744H7.81689C7.83216 9.00464 7.96319 8.71929 8.18291 8.51038C8.40262 8.30147 8.69421 8.18497 8.99738 8.18497C9.30056 8.18497 9.59215 8.30147 9.81186 8.51038C10.0316 8.71929 10.1626 9.00464 10.1779 9.30744H10.2829C10.2829 9.16644 10.2589 9.03144 10.2199 8.90544L9.95588 8.45244C9.83578 8.31731 9.68838 8.2092 9.52342 8.13525C9.35845 8.0613 9.17967 8.02319 8.99888 8.02344Z" fill="#FFFF00"/>
<path id="Vector_99" d="M8.99925 8.04792C8.79234 8.04781 8.58857 8.09866 8.40597 8.19598C8.22337 8.2933 8.06754 8.43409 7.95226 8.60592L7.86826 8.75292C7.78324 8.92557 7.7391 9.11547 7.73926 9.30792H7.82026C7.84154 9.00976 7.975 8.73074 8.19376 8.52704C8.41252 8.32334 8.70034 8.21008 8.99925 8.21008C9.29817 8.21008 9.58598 8.32334 9.80475 8.52704C10.0235 8.73074 10.157 9.00976 10.1782 9.30792H10.2592C10.2594 9.11547 10.2153 8.92557 10.1302 8.75292L10.0463 8.60292C9.93097 8.43109 9.77514 8.2903 9.59254 8.19298C9.40993 8.09566 9.20617 8.04481 8.99925 8.04492V8.04792Z" fill="#00FF00"/>
<path id="Vector_100" d="M8.99869 8.06836C8.83613 8.06836 8.67516 8.10043 8.52501 8.16273C8.37485 8.22503 8.23846 8.31634 8.12365 8.43143C8.00884 8.54652 7.91786 8.68313 7.85592 8.83344C7.79398 8.98374 7.7623 9.14479 7.7627 9.30735H7.8197C7.84098 9.0092 7.97444 8.73018 8.1932 8.52647C8.41196 8.32277 8.69978 8.20952 8.99869 8.20952C9.29761 8.20952 9.58543 8.32277 9.80419 8.52647C10.0229 8.73018 10.1564 9.0092 10.1777 9.30735H10.2347C10.2351 9.14479 10.2034 8.98374 10.1415 8.83344C10.0795 8.68313 9.98855 8.54652 9.87374 8.43143C9.75893 8.31634 9.62254 8.22503 9.47238 8.16273C9.32223 8.10043 9.16126 8.06836 8.99869 8.06836Z" fill="#00CCFF"/>
<path id="Vector_101" d="M8.9991 8.09375C8.67766 8.09375 8.36939 8.22144 8.14209 8.44874C7.9148 8.67603 7.78711 8.9843 7.78711 9.30575H7.82911C7.82911 8.99544 7.95238 8.69785 8.17179 8.47843C8.39121 8.25902 8.6888 8.13575 8.9991 8.13575C9.30941 8.13575 9.607 8.25902 9.82642 8.47843C10.0458 8.69785 10.1691 8.99544 10.1691 9.30575H10.2111C10.2095 8.98535 10.0811 8.67861 9.854 8.45261C9.62688 8.22661 9.31951 8.09975 8.9991 8.09975V8.09375Z" fill="#0000FF"/>
<path id="Vector_102" d="M8.99873 8.12019C8.84094 8.12016 8.68472 8.15157 8.5392 8.21258C8.39368 8.2736 8.26177 8.36299 8.15118 8.47553C8.04058 8.58808 7.95352 8.72154 7.89506 8.8681C7.83661 9.01467 7.80794 9.17141 7.81073 9.32918H7.83473V9.30518C7.83792 8.99647 7.9636 8.70167 8.18414 8.48563C8.40469 8.26959 8.70202 8.15 9.01073 8.15319C9.31944 8.15637 9.61424 8.28206 9.83028 8.5026C10.0463 8.72314 10.1659 9.02047 10.1627 9.32918H10.1867V9.30518C10.1867 9.14917 10.156 8.99469 10.0963 8.85056C10.0366 8.70642 9.94908 8.57546 9.83877 8.46514C9.72845 8.35483 9.59749 8.26732 9.45335 8.20762C9.30922 8.14792 9.15474 8.11719 8.99873 8.11719V8.12019Z" fill="#800080"/>
<path id="Vector_103" d="M9.01096 8.64105C8.98996 8.64105 8.97496 8.62605 8.95696 8.62305C8.9482 8.63076 8.94165 8.64065 8.93796 8.65171C8.93427 8.66278 8.93358 8.67463 8.93596 8.68605C8.94496 8.68905 8.94496 8.69805 8.96296 8.71305C8.98096 8.72805 8.97796 8.73405 8.97496 8.77305C8.97496 8.78505 8.97796 8.81805 8.99296 8.82105C9.00796 8.82405 9.02296 8.81205 9.02596 8.78505C9.02896 8.76405 9.03796 8.74905 9.04696 8.73705C9.05596 8.68005 9.04096 8.65905 9.01096 8.64105Z" fill="#510000"/>
<path id="Vector_104" d="M8.91529 8.50368C8.89729 8.50368 8.86729 8.53368 8.85529 8.51868C8.84929 8.50968 8.84629 8.49168 8.85529 8.47668C8.8688 8.44684 8.89208 8.4225 8.92129 8.40768C8.99029 8.36568 9.03829 8.37768 9.07129 8.43768C9.10429 8.49168 9.13729 8.55168 9.14029 8.59968C9.14029 8.61468 9.14929 8.64168 9.13429 8.65668C9.09529 8.69868 8.99629 8.61168 8.93929 8.62668C8.92129 8.62968 8.89729 8.64468 8.87929 8.63268C8.86729 8.62368 8.87929 8.60268 8.88829 8.59368C8.90629 8.57868 8.93329 8.52168 8.93029 8.49768C8.93029 8.48568 8.93029 8.50368 8.91529 8.50368Z" fill="#FF0000"/>
<path id="Vector_105" d="M8.90871 8.47622C8.87271 8.48822 8.87871 8.50622 8.86071 8.52122C8.86671 8.52422 8.88471 8.53022 8.90271 8.51222C8.90871 8.50622 8.91771 8.50322 8.92371 8.50322L8.90271 8.52422C8.88489 8.53889 8.87054 8.55733 8.86071 8.57822C8.85171 8.60222 8.84871 8.62922 8.85171 8.63222C8.85171 8.63222 8.86371 8.65622 8.89671 8.66822C8.95671 8.69222 8.96871 8.74322 9.03171 8.74322C9.07971 8.74322 9.07371 8.71022 9.11271 8.71622C9.14271 8.72222 9.16371 8.69522 9.13071 8.68022C9.07722 8.6697 9.0222 8.6697 8.96871 8.68022C8.95671 8.56022 8.96871 8.60222 8.96571 8.54822C8.96271 8.49722 8.94471 8.49422 8.96571 8.44922C8.95071 8.47922 8.92971 8.47322 8.90571 8.47322L8.90871 8.47622Z" fill="url(#paint0_linear_186_11377)"/>
<path id="Vector_106" d="M9.02937 8.39258L9.02637 8.41058L9.03537 8.44058L9.04137 8.47058C9.04137 8.47958 9.05337 8.48258 9.06237 8.48858C9.07437 8.49758 9.06237 8.51858 9.07137 8.52158C9.07737 8.52158 9.08637 8.49158 9.08637 8.48558V8.46458C9.08167 8.45541 9.07667 8.44641 9.07137 8.43758C9.06952 8.43448 9.06752 8.43148 9.06537 8.42858C9.05871 8.41847 9.05062 8.40938 9.04137 8.40158C9.03846 8.39944 9.03546 8.39744 9.03237 8.39558L9.02637 8.39258H9.02937Z" fill="#FF2A2A"/>
<path id="Vector_107" d="M9.03816 8.62054L8.97816 8.59954C8.93916 8.58754 8.90016 8.56354 8.87316 8.57554C8.86416 8.57854 8.86416 8.58754 8.86116 8.60254C8.86116 8.61754 8.84616 8.64154 8.86116 8.63254C8.87916 8.62054 8.93316 8.65654 8.95116 8.66554C8.96016 8.67154 8.98116 8.68354 8.98416 8.69554C8.99016 8.71354 8.98416 8.74954 8.98416 8.76754C8.98416 8.78254 8.99016 8.82153 9.00516 8.82753C9.02316 8.83053 9.03816 8.81554 9.04416 8.78854C9.05316 8.76154 9.05616 8.74654 9.06816 8.73154C9.08016 8.71654 9.09216 8.70754 9.10716 8.70454C9.12516 8.70454 9.14916 8.71954 9.14916 8.69854C9.14916 8.68654 9.13716 8.67454 9.14316 8.65654C9.14616 8.64154 9.13116 8.64454 9.11616 8.63854L9.03816 8.62054Z" fill="url(#paint1_linear_186_11377)"/>
<path id="Vector_108" d="M8.95161 8.66574C8.93961 8.65974 8.88261 8.62074 8.86161 8.63574C8.85261 8.63574 8.84961 8.63574 8.84961 8.62674L8.85561 8.59974C8.85561 8.59074 8.86161 8.57574 8.87061 8.56974C8.89161 8.55174 8.93961 8.58474 8.96361 8.59374L8.95161 8.66574Z" fill="#910000"/>
<path id="Vector_109" d="M9.05281 8.74073C9.07981 8.69273 9.09781 8.69873 9.13081 8.69873C9.14281 8.69873 9.14581 8.68973 9.14281 8.67773C9.13381 8.69573 9.09181 8.67773 9.06781 8.68673C9.02281 8.70773 9.03181 8.79773 9.00781 8.80673C9.03181 8.82773 9.04081 8.75573 9.05281 8.74073Z" fill="#FF3A3A"/>
<g id="Group_2">
<path id="Vector_110" d="M7.59199 9.22852L7.29199 9.74751H10.709L10.409 9.23152H7.59499L7.59199 9.22852Z" fill="white"/>
<g id="ni-n">
<path id="ni-k" d="M7.48998 9.64267C7.44284 9.64259 7.39574 9.64559 7.34898 9.65167L7.33398 9.67867C7.40598 9.66967 7.47498 9.65767 7.54998 9.65767C7.64598 9.65767 7.73598 9.68167 7.84098 9.68167H7.97898C8.08398 9.68167 8.17098 9.65767 8.26998 9.65767C8.36898 9.65767 8.45898 9.68167 8.56398 9.68167H8.70198C8.80698 9.68167 8.89398 9.65767 8.99298 9.65767C9.09198 9.65767 9.18198 9.68167 9.28698 9.68167H9.42198C9.52698 9.68167 9.61698 9.65767 9.71598 9.65767C9.81498 9.65767 9.90497 9.68167 10.01 9.68167H10.145C10.25 9.68167 10.34 9.65767 10.439 9.65767C10.517 9.65767 10.589 9.67267 10.664 9.67867L10.649 9.64867C10.6051 9.64412 10.561 9.64211 10.517 9.64267H10.382C10.277 9.64267 10.187 9.66367 10.088 9.66667C9.98897 9.66667 9.89897 9.64267 9.79397 9.64267H9.65898C9.55398 9.64267 9.46398 9.66367 9.36498 9.66667C9.26598 9.66667 9.17598 9.64267 9.07098 9.64267H8.93898C8.83398 9.64267 8.74398 9.66367 8.64498 9.66667C8.54598 9.66667 8.45598 9.64267 8.35098 9.64267H8.21598C8.11098 9.64267 8.02098 9.66367 7.92198 9.66667C7.82298 9.66667 7.73598 9.64267 7.63098 9.64267H7.48998Z" fill="url(#paint2_linear_186_11377)"/>
<path id="ni-k_2" d="M7.48998 9.60946C7.44284 9.60938 7.39574 9.61239 7.34898 9.61847L7.33398 9.64547C7.40598 9.63647 7.47498 9.62446 7.54998 9.62446C7.64598 9.62446 7.73598 9.64847 7.84098 9.64847H7.97898C8.08398 9.64847 8.17098 9.62446 8.26998 9.62446C8.36898 9.62446 8.45898 9.64847 8.56398 9.64847H8.70198C8.80698 9.64847 8.89398 9.62446 8.99298 9.62446C9.09198 9.62446 9.18198 9.64847 9.28698 9.64847H9.42198C9.52698 9.64847 9.61698 9.62446 9.71598 9.62446C9.81498 9.62446 9.90497 9.64847 10.01 9.64847H10.145C10.25 9.64847 10.34 9.62446 10.439 9.62446C10.517 9.62446 10.589 9.63947 10.664 9.64547L10.649 9.61547C10.6051 9.61091 10.561 9.60891 10.517 9.60946H10.382C10.277 9.60946 10.187 9.63047 10.088 9.63347C9.98897 9.63347 9.89897 9.60946 9.79397 9.60946H9.65898C9.55398 9.60946 9.46398 9.63047 9.36498 9.63347C9.26598 9.63347 9.17598 9.60946 9.07098 9.60946H8.93898C8.83398 9.60946 8.74398 9.63047 8.64498 9.63347C8.54598 9.63347 8.45598 9.60946 8.35098 9.60946H8.21598C8.11098 9.60946 8.02098 9.63047 7.92198 9.63347C7.82298 9.63347 7.73598 9.60946 7.63098 9.60946H7.48998Z" fill="url(#paint3_linear_186_11377)"/>
<path id="ni-k_3" d="M7.48998 9.57626C7.44284 9.57618 7.39574 9.57919 7.34898 9.58526L7.33398 9.61226C7.40598 9.60326 7.47498 9.59126 7.54998 9.59126C7.64598 9.59126 7.73598 9.61526 7.84098 9.61526H7.97898C8.08398 9.61526 8.17098 9.59126 8.26998 9.59126C8.36898 9.59126 8.45898 9.61526 8.56398 9.61526H8.70198C8.80698 9.61526 8.89398 9.59126 8.99298 9.59126C9.09198 9.59126 9.18198 9.61526 9.28698 9.61526H9.42198C9.52698 9.61526 9.61698 9.59126 9.71598 9.59126C9.81498 9.59126 9.90497 9.61526 10.01 9.61526H10.145C10.25 9.61526 10.34 9.59126 10.439 9.59126C10.517 9.59126 10.589 9.60626 10.664 9.61226L10.649 9.58226C10.6051 9.57771 10.561 9.57571 10.517 9.57626H10.382C10.277 9.57626 10.187 9.59726 10.088 9.60026C9.98897 9.60026 9.89897 9.57626 9.79397 9.57626H9.65898C9.55398 9.57626 9.46398 9.59726 9.36498 9.60026C9.26598 9.60026 9.17598 9.57626 9.07098 9.57626H8.93898C8.83398 9.57626 8.74398 9.59726 8.64498 9.60026C8.54598 9.60026 8.45598 9.57626 8.35098 9.57626H8.21598C8.11098 9.57626 8.02098 9.59726 7.92198 9.60026C7.82298 9.60026 7.73598 9.57626 7.63098 9.57626H7.48998Z" fill="url(#paint4_linear_186_11377)"/>
</g>
<g id="ni-n_2">
<path id="ni-k_4" d="M7.48998 9.54306C7.44284 9.54298 7.39574 9.54598 7.34898 9.55206L7.33398 9.57906C7.40598 9.57006 7.47498 9.55806 7.54998 9.55806C7.64598 9.55806 7.73598 9.58206 7.84098 9.58206H7.97898C8.08398 9.58206 8.17098 9.55806 8.26998 9.55806C8.36898 9.55806 8.45898 9.58206 8.56398 9.58206H8.70198C8.80698 9.58206 8.89398 9.55806 8.99298 9.55806C9.09198 9.55806 9.18198 9.58206 9.28698 9.58206H9.42198C9.52698 9.58206 9.61698 9.55806 9.71598 9.55806C9.81498 9.55806 9.90497 9.58206 10.01 9.58206H10.145C10.25 9.58206 10.34 9.55806 10.439 9.55806C10.517 9.55806 10.589 9.57306 10.664 9.57906L10.649 9.54906C10.6051 9.54451 10.561 9.5425 10.517 9.54306H10.382C10.277 9.54306 10.187 9.56406 10.088 9.56706C9.98897 9.56706 9.89897 9.54306 9.79397 9.54306H9.65898C9.55398 9.54306 9.46398 9.56406 9.36498 9.56706C9.26598 9.56706 9.17598 9.54306 9.07098 9.54306H8.93898C8.83398 9.54306 8.74398 9.56406 8.64498 9.56706C8.54598 9.56706 8.45598 9.54306 8.35098 9.54306H8.21598C8.11098 9.54306 8.02098 9.56406 7.92198 9.56706C7.82298 9.56706 7.73598 9.54306 7.63098 9.54306H7.48998Z" fill="url(#paint5_linear_186_11377)"/>
<path id="ni-k_5" d="M7.48998 9.50986C7.44284 9.50977 7.39574 9.51278 7.34898 9.51886L7.33398 9.54586C7.40598 9.53686 7.47498 9.52486 7.54998 9.52486C7.64598 9.52486 7.73598 9.54886 7.84098 9.54886H7.97898C8.08398 9.54886 8.17098 9.52486 8.26998 9.52486C8.36898 9.52486 8.45898 9.54886 8.56398 9.54886H8.70198C8.80698 9.54886 8.89398 9.52486 8.99298 9.52486C9.09198 9.52486 9.18198 9.54886 9.28698 9.54886H9.42198C9.52698 9.54886 9.61698 9.52486 9.71598 9.52486C9.81498 9.52486 9.90497 9.54886 10.01 9.54886H10.145C10.25 9.54886 10.34 9.52486 10.439 9.52486C10.517 9.52486 10.589 9.53986 10.664 9.54586L10.649 9.51586C10.6051 9.51131 10.561 9.5093 10.517 9.50986H10.382C10.277 9.50986 10.187 9.53086 10.088 9.53386C9.98897 9.53386 9.89897 9.50986 9.79397 9.50986H9.65898C9.55398 9.50986 9.46398 9.53086 9.36498 9.53386C9.26598 9.53386 9.17598 9.50986 9.07098 9.50986H8.93898C8.83398 9.50986 8.74398 9.53086 8.64498 9.53386C8.54598 9.53386 8.45598 9.50986 8.35098 9.50986H8.21598C8.11098 9.50986 8.02098 9.53086 7.92198 9.53386C7.82298 9.53386 7.73598 9.50986 7.63098 9.50986H7.48998Z" fill="url(#paint6_linear_186_11377)"/>
<path id="ni-k_6" d="M7.48998 9.47665C7.44284 9.47657 7.39574 9.47958 7.34898 9.48565L7.33398 9.51265C7.40598 9.50365 7.47498 9.49165 7.54998 9.49165C7.64598 9.49165 7.73598 9.51565 7.84098 9.51565H7.97898C8.08398 9.51565 8.17098 9.49165 8.26998 9.49165C8.36898 9.49165 8.45898 9.51565 8.56398 9.51565H8.70198C8.80698 9.51565 8.89398 9.49165 8.99298 9.49165C9.09198 9.49165 9.18198 9.51565 9.28698 9.51565H9.42198C9.52698 9.51565 9.61698 9.49165 9.71598 9.49165C9.81498 9.49165 9.90497 9.51565 10.01 9.51565H10.145C10.25 9.51565 10.34 9.49165 10.439 9.49165C10.517 9.49165 10.589 9.50665 10.664 9.51265L10.649 9.48265C10.6051 9.4781 10.561 9.4761 10.517 9.47665H10.382C10.277 9.47665 10.187 9.49765 10.088 9.50065C9.98897 9.50065 9.89897 9.47665 9.79397 9.47665H9.65898C9.55398 9.47665 9.46398 9.49765 9.36498 9.50065C9.26598 9.50065 9.17598 9.47665 9.07098 9.47665H8.93898C8.83398 9.47665 8.74398 9.49765 8.64498 9.50065C8.54598 9.50065 8.45598 9.47665 8.35098 9.47665H8.21598C8.11098 9.47665 8.02098 9.49765 7.92198 9.50065C7.82298 9.50065 7.73598 9.47665 7.63098 9.47665H7.48998Z" fill="url(#paint7_linear_186_11377)"/>
</g>
<g id="ni-n_3">
<path id="ni-k_7" d="M7.48998 9.4415C7.44284 9.44142 7.39574 9.44442 7.34898 9.4505L7.33398 9.4775C7.40598 9.4685 7.47498 9.4565 7.54998 9.4565C7.64598 9.4565 7.73598 9.4805 7.84098 9.4805H7.97898C8.08398 9.4805 8.17098 9.4565 8.26998 9.4565C8.36898 9.4565 8.45898 9.4805 8.56398 9.4805H8.70198C8.80698 9.4805 8.89398 9.4565 8.99298 9.4565C9.09198 9.4565 9.18198 9.4805 9.28698 9.4805H9.42198C9.52698 9.4805 9.61698 9.4565 9.71598 9.4565C9.81498 9.4565 9.90497 9.4805 10.01 9.4805H10.145C10.25 9.4805 10.34 9.4565 10.439 9.4565C10.517 9.4565 10.589 9.4715 10.664 9.4775L10.649 9.4475C10.6051 9.44295 10.561 9.44094 10.517 9.4415H10.382C10.277 9.4415 10.187 9.4625 10.088 9.4655C9.98897 9.4655 9.89897 9.4415 9.79397 9.4415H9.65898C9.55398 9.4415 9.46398 9.4625 9.36498 9.4655C9.26598 9.4655 9.17598 9.4415 9.07098 9.4415H8.93898C8.83398 9.4415 8.74398 9.4625 8.64498 9.4655C8.54598 9.4655 8.45598 9.4415 8.35098 9.4415H8.21598C8.11098 9.4415 8.02098 9.4625 7.92198 9.4655C7.82298 9.4655 7.73598 9.4415 7.63098 9.4415H7.48998Z" fill="url(#paint8_linear_186_11377)"/>
<path id="ni-k_8" d="M7.48998 9.40829C7.44284 9.40821 7.39574 9.41122 7.34898 9.41729L7.33398 9.44429C7.40598 9.43529 7.47498 9.42329 7.54998 9.42329C7.64598 9.42329 7.73598 9.44729 7.84098 9.44729H7.97898C8.08398 9.44729 8.17098 9.42329 8.26998 9.42329C8.36898 9.42329 8.45898 9.44729 8.56398 9.44729H8.70198C8.80698 9.44729 8.89398 9.42329 8.99298 9.42329C9.09198 9.42329 9.18198 9.44729 9.28698 9.44729H9.42198C9.52698 9.44729 9.61698 9.42329 9.71598 9.42329C9.81498 9.42329 9.90497 9.44729 10.01 9.44729H10.145C10.25 9.44729 10.34 9.42329 10.439 9.42329C10.517 9.42329 10.589 9.43829 10.664 9.44429L10.649 9.41429C10.6051 9.40974 10.561 9.40774 10.517 9.40829H10.382C10.277 9.40829 10.187 9.42929 10.088 9.43229C9.98897 9.43229 9.89897 9.40829 9.79397 9.40829H9.65898C9.55398 9.40829 9.46398 9.42929 9.36498 9.43229C9.26598 9.43229 9.17598 9.40829 9.07098 9.40829H8.93898C8.83398 9.40829 8.74398 9.42929 8.64498 9.43229C8.54598 9.43229 8.45598 9.40829 8.35098 9.40829H8.21598C8.11098 9.40829 8.02098 9.42929 7.92198 9.43229C7.82298 9.43229 7.73598 9.40829 7.63098 9.40829H7.48998Z" fill="url(#paint9_linear_186_11377)"/>
<path id="ni-k_9" d="M7.48998 9.37509C7.44284 9.37501 7.39574 9.37802 7.34898 9.38409L7.33398 9.41109C7.40598 9.40209 7.47498 9.39009 7.54998 9.39009C7.64598 9.39009 7.73598 9.41409 7.84098 9.41409H7.97898C8.08398 9.41409 8.17098 9.39009 8.26998 9.39009C8.36898 9.39009 8.45898 9.41409 8.56398 9.41409H8.70198C8.80698 9.41409 8.89398 9.39009 8.99298 9.39009C9.09198 9.39009 9.18198 9.41409 9.28698 9.41409H9.42198C9.52698 9.41409 9.61698 9.39009 9.71598 9.39009C9.81498 9.39009 9.90497 9.41409 10.01 9.41409H10.145C10.25 9.41409 10.34 9.39009 10.439 9.39009C10.517 9.39009 10.589 9.40509 10.664 9.41109L10.649 9.38109C10.6051 9.37654 10.561 9.37454 10.517 9.37509H10.382C10.277 9.37509 10.187 9.39609 10.088 9.39909C9.98897 9.39909 9.89897 9.37509 9.79397 9.37509H9.65898C9.55398 9.37509 9.46398 9.39609 9.36498 9.39909C9.26598 9.39909 9.17598 9.37509 9.07098 9.37509H8.93898C8.83398 9.37509 8.74398 9.39609 8.64498 9.39909C8.54598 9.39909 8.45598 9.37509 8.35098 9.37509H8.21598C8.11098 9.37509 8.02098 9.39609 7.92198 9.39909C7.82298 9.39909 7.73598 9.37509 7.63098 9.37509H7.48998Z" fill="url(#paint10_linear_186_11377)"/>
</g>
<path id="Vector_111" d="M7.5946 9.22461V9.23061H10.4056L10.4026 9.22461H7.5946ZM7.5886 9.23361L7.5856 9.24261H10.4086L10.4056 9.23361H7.5856H7.5886ZM7.5826 9.24561L7.5766 9.25461H10.4206L10.4146 9.24561H7.5826ZM7.5736 9.26061L7.5646 9.27561H10.4326L10.4236 9.26061H7.5736ZM7.5616 9.28161L7.5526 9.29661H10.4446L10.4356 9.28161H7.5616ZM7.5496 9.30261L7.5436 9.31461H10.4536L10.4476 9.30261H7.5496ZM7.5376 9.32361L7.5316 9.33561H10.4686L10.4596 9.32361H7.5376ZM7.5256 9.34461L7.5166 9.36261H10.4806L10.4716 9.34461H7.5286H7.5256Z" fill="url(#paint11_linear_186_11377)"/>
<path id="Vector_112" d="M7.7207 9.36914C7.8227 9.39014 7.8317 9.36914 7.8317 9.36914H7.7207ZM10.1657 9.36914C10.1657 9.36914 10.1747 9.39014 10.2767 9.36914H10.1657Z" fill="url(#paint12_linear_186_11377)"/>
</g>
<g id="Group_3">
<g id="ni-t">
<path id="Vector_113" d="M9.91759 8.9082C9.86659 8.9082 9.85159 8.9352 9.85159 8.9352C9.77059 9.2532 9.49759 9.5742 9.17359 9.5742H8.93359V9.8982H10.7756L10.5896 9.5682C10.2986 9.5262 10.0616 9.2292 9.98659 8.9352C9.98659 8.9352 9.96859 8.9082 9.91759 8.9082Z" fill="url(#paint13_linear_186_11377)"/>
<path id="Vector_114" d="M9.91738 8.92238C9.89338 8.92238 9.88138 8.92538 9.87238 8.93138L9.86338 8.94038C9.8184 9.10648 9.73165 9.2583 9.61138 9.38138C9.49138 9.50438 9.34138 9.58838 9.17338 9.58838H8.94238V9.88538H10.7694L10.5984 9.58538C10.4574 9.56438 10.3284 9.48938 10.2264 9.38138C10.1061 9.2583 10.0194 9.10648 9.97438 8.94038L9.96538 8.93138C9.95062 8.92369 9.93392 8.92056 9.91738 8.92238Z" fill="#97C924"/>
<path id="Vector_115" d="M9.91738 8.92383H9.92938V9.24783C9.92651 9.31597 9.90583 9.38217 9.86938 9.43983C9.85438 9.48783 9.83938 9.46983 9.80038 9.52683C9.74979 9.54427 9.6975 9.55634 9.64438 9.56283C9.56938 9.57483 9.40438 9.58683 9.31738 9.56583C9.42903 9.53167 9.53019 9.46973 9.61138 9.38583C9.6337 9.36197 9.65473 9.33693 9.67438 9.31083C9.70782 9.26927 9.73791 9.22513 9.76438 9.17883L9.79438 9.11883C9.80873 9.09045 9.82175 9.06142 9.83338 9.03183C9.84497 9.00238 9.85498 8.97234 9.86338 8.94183L9.87238 8.93283L9.89038 8.92683L9.91738 8.92383Z" fill="#EDE71F"/>
<path id="Vector_116" d="M9.89927 8.96484C9.88427 9.14484 9.83027 9.36084 9.69827 9.49884C9.65027 9.53784 9.58727 9.57684 9.53027 9.56784C9.73127 9.40284 9.85427 9.14784 9.89627 8.96484H9.89927Z" fill="#C6CB24"/>
<path id="Vector_117" d="M9.73479 9.27734C9.70479 9.35834 9.59079 9.47834 9.47079 9.57734H9.38379C9.45879 9.57134 9.63279 9.42734 9.73479 9.27734Z" fill="#9ECB34"/>
</g>
<g id="ni-t_2">
<path id="Vector_118" d="M9.45861 8.9082C9.40761 8.9082 9.39261 8.9352 9.39261 8.9352C9.31161 9.2532 9.03861 9.5742 8.71461 9.5742H8.47461V9.8982H10.3166L10.1306 9.5682C9.8396 9.5262 9.60261 9.2292 9.52761 8.9352C9.52761 8.9352 9.5096 8.9082 9.45861 8.9082Z" fill="url(#paint14_linear_186_11377)"/>
<path id="Vector_119" d="M9.45839 8.92238C9.43439 8.92238 9.42239 8.92538 9.41339 8.93138L9.40439 8.94038C9.35941 9.10648 9.27266 9.2583 9.1524 9.38138C9.0324 9.50438 8.8824 9.58838 8.7144 9.58838H8.4834V9.88538H10.3104L10.1394 9.58538C9.99839 9.56438 9.86939 9.48938 9.76739 9.38138C9.64713 9.2583 9.56037 9.10648 9.51539 8.94038L9.50639 8.93138C9.49164 8.92369 9.47493 8.92056 9.45839 8.92238Z" fill="#97C924"/>
<path id="Vector_120" d="M9.4584 8.92383H9.4704V9.24783C9.46753 9.31597 9.44684 9.38217 9.4104 9.43983C9.3954 9.48783 9.3804 9.46983 9.3414 9.52683C9.29081 9.54427 9.23852 9.55634 9.1854 9.56283C9.1104 9.57483 8.9454 9.58683 8.8584 9.56583C8.97005 9.53167 9.07121 9.46973 9.1524 9.38583C9.17472 9.36197 9.19575 9.33693 9.2154 9.31083C9.24883 9.26927 9.27893 9.22513 9.3054 9.17883L9.3354 9.11883C9.34975 9.09045 9.36276 9.06142 9.3744 9.03183C9.38598 9.00238 9.396 8.97234 9.4044 8.94183L9.4134 8.93283L9.4314 8.92683L9.4584 8.92383Z" fill="#EDE71F"/>
<path id="Vector_121" d="M9.44029 8.96484C9.42529 9.14484 9.37129 9.36084 9.23929 9.49884C9.19129 9.53784 9.12829 9.57684 9.07129 9.56784C9.27229 9.40284 9.39529 9.14784 9.43729 8.96484H9.44029Z" fill="#C6CB24"/>
<path id="Vector_122" d="M9.2758 9.27734C9.2458 9.35834 9.1318 9.47834 9.01181 9.57734H8.9248C8.9998 9.57134 9.1738 9.42734 9.2758 9.27734Z" fill="#9ECB34"/>
</g>
<g id="Group_4">
<path id="Vector_123" d="M9.06569 8.93911C9.14969 9.25411 9.41969 9.57511 9.74369 9.57511H9.98669V9.89911H8.0127V9.57511H8.25269C8.57669 9.57511 8.84969 9.25411 8.93069 8.93611C8.93069 8.93611 8.94869 8.91211 8.99969 8.91211C9.05069 8.91211 9.06569 8.93611 9.06569 8.93611V8.93911Z" fill="url(#paint15_linear_186_11377)"/>
<path id="Vector_124" d="M8.99941 8.92419C9.02341 8.92419 9.03541 8.93019 9.04441 8.93319L9.05341 8.94219C9.09839 9.10829 9.18514 9.26011 9.30541 9.38319C9.42541 9.50619 9.57541 9.59019 9.74341 9.59019H9.97441V9.88718H8.02441V9.58719H8.25541C8.42041 9.58719 8.57341 9.50619 8.69341 9.38319C8.81259 9.25977 8.89829 9.10798 8.94241 8.94219L8.95141 8.93319C8.96627 8.92582 8.98289 8.92271 8.99941 8.92419Z" fill="#97C924"/>
<path id="Vector_125" d="M8.97841 8.92393C8.97541 8.9238 8.97241 8.9238 8.96941 8.92393L8.95141 8.93293L8.94241 8.94193C8.93406 8.97245 8.92405 9.0025 8.91241 9.03193C8.90184 9.06248 8.88982 9.09251 8.87641 9.12193C8.86701 9.14124 8.85701 9.16025 8.84641 9.17893C8.81995 9.22524 8.78986 9.26938 8.75641 9.31093C8.73667 9.336 8.71565 9.36003 8.69341 9.38293C8.61256 9.46793 8.51138 9.53091 8.39941 9.56592C8.48341 9.58692 8.51941 9.56592 8.59441 9.55392C8.65441 9.54493 8.72041 9.53592 8.77441 9.51792C8.81941 9.45792 8.80441 9.47893 8.81941 9.43093C8.85541 9.36493 8.90941 9.30493 8.92141 9.22993C8.96941 9.13993 8.97841 8.97193 8.97841 8.92393Z" fill="#EDE71F"/>
<path id="Vector_126" d="M8.97837 8.9668C8.96637 9.1468 8.90937 9.3628 8.77737 9.5008C8.72937 9.5398 8.66937 9.57879 8.60938 9.56979C8.81337 9.4048 8.93637 9.1498 8.97837 8.9668Z" fill="#C6CB24"/>
<path id="Vector_127" d="M8.81382 9.27734C8.7486 9.39529 8.65852 9.49765 8.54982 9.57734H8.46582C8.54082 9.57134 8.71182 9.42734 8.81382 9.27734Z" fill="#9ECB34"/>
<path id="Vector_128" d="M9.02951 8.92773L9.04451 8.93373L9.05651 8.94273C9.06503 8.97321 9.07505 9.00324 9.08651 9.03273C9.09706 9.06329 9.10907 9.09333 9.12251 9.12273L9.15251 9.17973C9.17897 9.22604 9.20906 9.27018 9.24251 9.31173C9.26225 9.33681 9.28328 9.36084 9.30551 9.38373C9.38582 9.47211 9.48685 9.53912 9.59951 9.57873C9.38051 9.57873 9.28751 9.56073 9.20951 9.45873C9.15279 9.39869 9.1098 9.32703 9.08351 9.24873C9.06851 9.18873 9.02351 9.05373 9.02651 8.92773H9.02951Z" fill="#EDE71F"/>
<path id="Vector_129" d="M9.04492 8.9668C9.05692 9.1468 9.11092 9.3268 9.24292 9.4648C9.29092 9.5068 9.35092 9.54279 9.41092 9.53379C9.22245 9.39708 9.0919 9.19484 9.04492 8.9668Z" fill="#C6CB24"/>
</g>
<g id="ni-w">
<path id="Vector_130" d="M8.54354 8.9082C8.48954 8.9082 8.47454 8.9352 8.47454 8.9352C8.39954 9.2292 8.12054 9.6042 7.82955 9.6492L7.68555 9.8982H9.15554V9.5592C8.89154 9.4872 8.67854 9.2082 8.60954 8.9352C8.60954 8.9352 8.59454 8.9112 8.54054 8.9112L8.54354 8.9082Z" fill="url(#paint16_linear_186_11377)"/>
<path id="Vector_131" d="M8.54333 8.92404C8.51933 8.92404 8.50433 8.93004 8.49533 8.93304L8.48633 8.94204C8.43588 9.10663 8.35329 9.25958 8.24333 9.39204C8.14133 9.52104 7.95233 9.65004 7.82334 9.66204L7.69434 9.88703H9.13433V9.56604C9.02602 9.53029 8.92815 9.46848 8.84933 9.38604C8.72862 9.26211 8.64184 9.10921 8.59733 8.94204L8.58833 8.93304C8.57441 8.92606 8.55887 8.92296 8.54333 8.92404Z" fill="#97C924"/>
<path id="Vector_132" d="M8.50156 8.96484C8.48356 9.23484 8.33356 9.57984 8.16256 9.63684C8.10556 9.65784 8.00956 9.66384 7.97656 9.66684C8.10884 9.59335 8.2242 9.49288 8.31515 9.37195C8.40611 9.25101 8.47064 9.11232 8.50456 8.96484H8.50156Z" fill="#93BC30"/>
<path id="Vector_133" d="M8.54332 8.92392H8.52832V9.24791C8.52832 9.31691 8.55532 9.37391 8.58832 9.43991L8.59432 9.45491C8.60932 9.48791 8.61832 9.49991 8.66332 9.53591C8.79214 9.62786 8.94972 9.67044 9.10732 9.65591C9.07432 9.62891 9.03832 9.60491 9.00532 9.58391L9.14032 9.56891C9.02912 9.53258 8.92898 9.46858 8.84932 9.38291C8.83482 9.36839 8.82081 9.35338 8.80732 9.33791L8.78932 9.31391C8.75381 9.27151 8.72171 9.22637 8.69332 9.17892C8.68267 9.15925 8.67266 9.13924 8.66332 9.11892C8.64492 9.08095 8.62889 9.04187 8.61532 9.00192C8.60866 8.98212 8.60266 8.96211 8.59732 8.94192L8.58832 8.93292C8.58264 8.93006 8.57658 8.92804 8.57032 8.92692C8.56051 8.92452 8.55041 8.92351 8.54032 8.92392H8.54332Z" fill="#EDE71F"/>
<path id="Vector_134" d="M8.56152 8.96484C8.57652 9.14484 8.63052 9.36084 8.76252 9.49884C8.81052 9.53784 8.87052 9.57684 8.93052 9.56784C8.74752 9.41035 8.61847 9.19947 8.56152 8.96484Z" fill="#CCD11E"/>
<path id="Vector_135" d="M8.6875 9.21784C8.78467 9.4079 8.93746 9.56383 9.1255 9.66484H9.2005C9.0685 9.59284 8.8555 9.49084 8.6905 9.21484L8.6875 9.21784Z" fill="#9ECB34"/>
</g>
<g id="ni-w_2">
<path id="Vector_136" d="M8.08163 8.9082C8.02763 8.9082 8.01263 8.9352 8.01263 8.9352C7.93763 9.2292 7.65863 9.6042 7.36763 9.6492L7.22363 9.8982H8.69363V9.5592C8.42963 9.4872 8.21663 9.2082 8.14763 8.9352C8.14763 8.9352 8.13263 8.9112 8.07863 8.9112L8.08163 8.9082Z" fill="url(#paint17_linear_186_11377)"/>
<path id="Vector_137" d="M8.08142 8.92404C8.05742 8.92404 8.04242 8.93004 8.03342 8.93304L8.02442 8.94204C7.97396 9.10663 7.89137 9.25958 7.78142 9.39204C7.67942 9.52104 7.49042 9.65004 7.36142 9.66204L7.23242 9.88703H8.67242V9.56604C8.5641 9.53029 8.46623 9.46848 8.38742 9.38604C8.26671 9.26211 8.17993 9.10921 8.13542 8.94204L8.12642 8.93304C8.11249 8.92606 8.09695 8.92296 8.08142 8.92404Z" fill="#97C924"/>
<path id="Vector_138" d="M8.03965 8.96484C8.02165 9.23484 7.87165 9.57984 7.70065 9.63684C7.64365 9.65784 7.54765 9.66384 7.51465 9.66684C7.64693 9.59335 7.76228 9.49288 7.85324 9.37195C7.9442 9.25101 8.00873 9.11232 8.04265 8.96484H8.03965Z" fill="#93BC30"/>
<path id="Vector_139" d="M8.08141 8.92392H8.06641V9.24791C8.06641 9.31691 8.09341 9.37391 8.12641 9.43991L8.13241 9.45491C8.14741 9.48791 8.15641 9.49991 8.20141 9.53591C8.33023 9.62786 8.4878 9.67044 8.6454 9.65591C8.6124 9.62891 8.57641 9.60491 8.54341 9.58391L8.6784 9.56891C8.56721 9.53258 8.46707 9.46858 8.38741 9.38291C8.3729 9.36839 8.3589 9.35338 8.34541 9.33791L8.32741 9.31391C8.2919 9.27151 8.2598 9.22637 8.23141 9.17892C8.22075 9.15925 8.21075 9.13924 8.20141 9.11892C8.183 9.08095 8.16697 9.04187 8.15341 9.00192C8.14675 8.98212 8.14075 8.96211 8.13541 8.94192L8.12641 8.93292C8.12073 8.93006 8.11466 8.92804 8.10841 8.92692C8.0986 8.92452 8.0885 8.92351 8.07841 8.92392H8.08141Z" fill="#EDE71F"/>
<path id="Vector_140" d="M8.09961 8.96484C8.11461 9.14484 8.16861 9.36084 8.30061 9.49884C8.34861 9.53784 8.40861 9.57684 8.46861 9.56784C8.28561 9.41035 8.15656 9.19947 8.09961 8.96484Z" fill="#C6CB24"/>
<path id="Vector_141" d="M8.22559 9.21784C8.32276 9.4079 8.47554 9.56383 8.66358 9.66484H8.73858C8.60658 9.59284 8.39359 9.49084 8.22859 9.21484L8.22559 9.21784Z" fill="#9ECB34"/>
</g>
</g>
<path id="Vector_142" d="M10.6939 9.74001C10.6759 9.74601 10.5619 9.73401 10.5019 9.74001L10.4629 9.74901H10.3639C10.2559 9.74901 10.1629 9.77901 10.0609 9.77901C9.95888 9.77901 9.86588 9.74901 9.76088 9.74901H9.65888C9.55088 9.74901 9.45788 9.77901 9.35588 9.77901C9.25388 9.77901 9.16088 9.74901 9.05588 9.74901H8.95388C8.84588 9.74901 8.75288 9.77901 8.65388 9.77901C8.54889 9.77901 8.45889 9.74901 8.35089 9.74901H8.24889C8.14089 9.74901 8.05089 9.77901 7.94889 9.77901C7.84389 9.77901 7.75389 9.74901 7.64589 9.74901H7.54389C7.45989 9.74901 7.35789 9.76701 7.27689 9.77301L7.08789 10.1H10.9099L10.6939 9.74001Z" fill="white"/>
<path id="Vector_143" d="M10.4396 9.69141H10.4216C10.3256 9.69441 10.2536 9.72441 10.0856 9.72441C9.91762 9.72441 9.89962 9.69441 9.70762 9.70041C9.52762 9.70041 9.45562 9.73641 9.35662 9.73641C9.26063 9.73641 9.10463 9.71541 8.98163 9.72741C8.86163 9.73941 8.71763 9.76641 8.62163 9.76641C8.50463 9.76641 8.38763 9.74541 8.26763 9.75741C8.14463 9.76941 8.08763 9.80241 7.93463 9.80241C7.80263 9.80241 7.66463 9.78141 7.55063 9.78141C7.44863 9.78141 7.33463 9.81141 7.25063 9.82341L7.22363 9.86841C7.29263 9.85941 7.48163 9.82941 7.54763 9.82941C7.61963 9.82941 7.86863 9.84441 8.00663 9.83841C8.14763 9.83541 8.16263 9.80241 8.32763 9.80241C8.44163 9.80241 8.52563 9.81441 8.64263 9.81441C8.71763 9.81441 8.78363 9.77841 8.89463 9.77841L8.97863 9.77541C9.07163 9.76041 9.23063 9.77541 9.33862 9.78141C9.43762 9.78741 9.50362 9.76341 9.60862 9.76041L9.74062 9.75741C9.84562 9.75141 9.93262 9.77541 10.0316 9.77541C10.1276 9.76941 10.2236 9.74541 10.3256 9.74541L10.4606 9.73941C10.5296 9.73941 10.6376 9.73941 10.7096 9.75441L10.6856 9.71241C10.6136 9.70941 10.5266 9.69141 10.4396 9.69141Z" fill="url(#paint18_linear_186_11377)"/>
<g id="ni-A">
<path id="ni-z" d="M7.50865 10.0421C7.40665 10.0421 7.31666 10.0661 7.22066 10.0691C7.18451 10.0681 7.14846 10.0651 7.11266 10.0601L7.09766 10.0841H7.27766C7.38266 10.0841 7.46965 10.0601 7.56565 10.0571C7.66465 10.0601 7.75165 10.0871 7.85665 10.0871H7.99165C8.09365 10.0871 8.18365 10.0601 8.27965 10.0571C8.37865 10.0601 8.46865 10.0871 8.57065 10.0871H8.70565C8.81065 10.0871 8.89765 10.0601 8.99665 10.0571C9.09265 10.0601 9.17965 10.0871 9.28465 10.0871H9.41965C9.52165 10.0871 9.61165 10.0601 9.71065 10.0571C9.80665 10.0601 9.89664 10.0871 9.99864 10.0871H10.1336C10.2386 10.0871 10.3256 10.0601 10.4216 10.0571C10.5206 10.0601 10.6076 10.0871 10.7126 10.0871H10.8476L10.9016 10.0841L10.8866 10.0601C10.8566 10.0631 10.8236 10.0691 10.7906 10.0691C10.6916 10.0691 10.6046 10.0391 10.4996 10.0391H10.3646C10.2626 10.0391 10.1726 10.0691 10.0766 10.0691C9.97765 10.0661 9.89065 10.0391 9.78565 10.0391H9.65065C9.54865 10.0391 9.45865 10.0691 9.36265 10.0691C9.26365 10.0661 9.17665 10.0391 9.07165 10.0391H8.93665C8.83165 10.0391 8.74465 10.0691 8.64865 10.0691C8.54965 10.0661 8.46265 10.0391 8.35765 10.0391H8.22265C8.12065 10.0391 8.03065 10.0691 7.93465 10.0691C7.83565 10.0661 7.74865 10.0391 7.64365 10.0391H7.50865V10.0421Z" fill="url(#paint19_linear_186_11377)"/>
<path id="ni-z_2" d="M7.50865 10.003C7.40665 10.003 7.31666 10.027 7.22066 10.03C7.18451 10.029 7.14846 10.026 7.11266 10.021L7.09766 10.045H7.27766C7.38266 10.045 7.46965 10.021 7.56565 10.018C7.66465 10.021 7.75165 10.048 7.85665 10.048H7.99165C8.09365 10.048 8.18365 10.021 8.27965 10.018C8.37865 10.021 8.46865 10.048 8.57065 10.048H8.70565C8.81065 10.048 8.89765 10.021 8.99665 10.018C9.09265 10.021 9.17965 10.048 9.28465 10.048H9.41965C9.52165 10.048 9.61165 10.021 9.71065 10.018C9.80665 10.021 9.89664 10.048 9.99864 10.048H10.1336C10.2386 10.048 10.3256 10.021 10.4216 10.018C10.5206 10.021 10.6076 10.048 10.7126 10.048H10.8476L10.9016 10.045L10.8866 10.021C10.8566 10.024 10.8236 10.03 10.7906 10.03C10.6916 10.03 10.6046 10 10.4996 10H10.3646C10.2626 10 10.1726 10.03 10.0766 10.03C9.97765 10.027 9.89065 10 9.78565 10H9.65065C9.54865 10 9.45865 10.03 9.36265 10.03C9.26365 10.027 9.17665 10 9.07165 10H8.93665C8.83165 10 8.74465 10.03 8.64865 10.03C8.54965 10.027 8.46265 10 8.35765 10H8.22265C8.12065 10 8.03065 10.03 7.93465 10.03C7.83565 10.027 7.74865 10 7.64365 10H7.50865V10.003Z" fill="url(#paint20_linear_186_11377)"/>
<path id="ni-z_3" d="M7.50865 9.96394C7.40665 9.96394 7.31666 9.98794 7.22066 9.99094C7.18451 9.98999 7.14846 9.98698 7.11266 9.98194L7.09766 10.0059H7.27766C7.38266 10.0059 7.46965 9.98194 7.56565 9.97894C7.66465 9.98194 7.75165 10.0089 7.85665 10.0089H7.99165C8.09365 10.0089 8.18365 9.98194 8.27965 9.97894C8.37865 9.98194 8.46865 10.0089 8.57065 10.0089H8.70565C8.81065 10.0089 8.89765 9.98194 8.99665 9.97894C9.09265 9.98194 9.17965 10.0089 9.28465 10.0089H9.41965C9.52165 10.0089 9.61165 9.98194 9.71065 9.97894C9.80665 9.98194 9.89664 10.0089 9.99864 10.0089H10.1336C10.2386 10.0089 10.3256 9.98194 10.4216 9.97894C10.5206 9.98194 10.6076 10.0089 10.7126 10.0089H10.8476L10.9016 10.0059L10.8866 9.98194C10.8566 9.98494 10.8236 9.99094 10.7906 9.99094C10.6916 9.99094 10.6046 9.96094 10.4996 9.96094H10.3646C10.2626 9.96094 10.1726 9.99094 10.0766 9.99094C9.97765 9.98794 9.89065 9.96094 9.78565 9.96094H9.65065C9.54865 9.96094 9.45865 9.99094 9.36265 9.99094C9.26365 9.98794 9.17665 9.96094 9.07165 9.96094H8.93665C8.83165 9.96094 8.74465 9.99094 8.64865 9.99094C8.54965 9.98794 8.46265 9.96094 8.35765 9.96094H8.22265C8.12065 9.96094 8.03065 9.99094 7.93465 9.99094C7.83565 9.98794 7.74865 9.96094 7.64365 9.96094H7.50865V9.96394Z" fill="url(#paint21_linear_186_11377)"/>
</g>
<g id="ni-A_2">
<path id="ni-z_4" d="M7.50865 9.92683C7.40665 9.92683 7.31666 9.95083 7.22066 9.95383C7.18451 9.95288 7.14846 9.94987 7.11266 9.94483L7.09766 9.96883H7.27766C7.38266 9.96883 7.46965 9.94483 7.56565 9.94183C7.66465 9.94483 7.75165 9.97183 7.85665 9.97183H7.99165C8.09365 9.97183 8.18365 9.94483 8.27965 9.94183C8.37865 9.94483 8.46865 9.97183 8.57065 9.97183H8.70565C8.81065 9.97183 8.89765 9.94483 8.99665 9.94183C9.09265 9.94483 9.17965 9.97183 9.28465 9.97183H9.41965C9.52165 9.97183 9.61165 9.94483 9.71065 9.94183C9.80665 9.94483 9.89664 9.97183 9.99864 9.97183H10.1336C10.2386 9.97183 10.3256 9.94483 10.4216 9.94183C10.5206 9.94483 10.6076 9.97183 10.7126 9.97183H10.8476L10.9016 9.96883L10.8866 9.94483C10.8566 9.94783 10.8236 9.95383 10.7906 9.95383C10.6916 9.95383 10.6046 9.92383 10.4996 9.92383H10.3646C10.2626 9.92383 10.1726 9.95383 10.0766 9.95383C9.97765 9.95083 9.89065 9.92383 9.78565 9.92383H9.65065C9.54865 9.92383 9.45865 9.95383 9.36265 9.95383C9.26365 9.95083 9.17665 9.92383 9.07165 9.92383H8.93665C8.83165 9.92383 8.74465 9.95383 8.64865 9.95383C8.54965 9.95083 8.46265 9.92383 8.35765 9.92383H8.22265C8.12065 9.92383 8.03065 9.95383 7.93465 9.95383C7.83565 9.95083 7.74865 9.92383 7.64365 9.92383H7.50865V9.92683Z" fill="url(#paint22_linear_186_11377)"/>
<path id="ni-z_5" d="M7.50865 9.88776C7.40665 9.88776 7.31666 9.91177 7.22066 9.91477C7.18451 9.91381 7.14846 9.91081 7.11266 9.90576L7.09766 9.92977H7.27766C7.38266 9.92977 7.46965 9.90576 7.56565 9.90276C7.66465 9.90576 7.75165 9.93276 7.85665 9.93276H7.99165C8.09365 9.93276 8.18365 9.90576 8.27965 9.90276C8.37865 9.90576 8.46865 9.93276 8.57065 9.93276H8.70565C8.81065 9.93276 8.89765 9.90576 8.99665 9.90276C9.09265 9.90576 9.17965 9.93276 9.28465 9.93276H9.41965C9.52165 9.93276 9.61165 9.90576 9.71065 9.90276C9.80665 9.90576 9.89664 9.93276 9.99864 9.93276H10.1336C10.2386 9.93276 10.3256 9.90576 10.4216 9.90276C10.5206 9.90576 10.6076 9.93276 10.7126 9.93276H10.8476L10.9016 9.92977L10.8866 9.90576C10.8566 9.90876 10.8236 9.91477 10.7906 9.91477C10.6916 9.91477 10.6046 9.88477 10.4996 9.88477H10.3646C10.2626 9.88477 10.1726 9.91477 10.0766 9.91477C9.97765 9.91177 9.89065 9.88477 9.78565 9.88477H9.65065C9.54865 9.88477 9.45865 9.91477 9.36265 9.91477C9.26365 9.91177 9.17665 9.88477 9.07165 9.88477H8.93665C8.83165 9.88477 8.74465 9.91477 8.64865 9.91477C8.54965 9.91177 8.46265 9.88477 8.35765 9.88477H8.22265C8.12065 9.88477 8.03065 9.91477 7.93465 9.91477C7.83565 9.91177 7.74865 9.88477 7.64365 9.88477H7.50865V9.88776Z" fill="url(#paint23_linear_186_11377)"/>
<path id="ni-z_6" d="M7.50865 9.8487C7.40665 9.8487 7.31666 9.8727 7.22066 9.8757C7.18451 9.87475 7.14846 9.87175 7.11266 9.8667L7.09766 9.8907H7.27766C7.38266 9.8907 7.46965 9.8667 7.56565 9.8637C7.66465 9.8667 7.75165 9.8937 7.85665 9.8937H7.99165C8.09365 9.8937 8.18365 9.8667 8.27965 9.8637C8.37865 9.8667 8.46865 9.8937 8.57065 9.8937H8.70565C8.81065 9.8937 8.89765 9.8667 8.99665 9.8637C9.09265 9.8667 9.17965 9.8937 9.28465 9.8937H9.41965C9.52165 9.8937 9.61165 9.8667 9.71065 9.8637C9.80665 9.8667 9.89664 9.8937 9.99864 9.8937H10.1336C10.2386 9.8937 10.3256 9.8667 10.4216 9.8637C10.5206 9.8667 10.6076 9.8937 10.7126 9.8937H10.8476L10.9016 9.8907L10.8866 9.8667C10.8566 9.8697 10.8236 9.8757 10.7906 9.8757C10.6916 9.8757 10.6046 9.8457 10.4996 9.8457H10.3646C10.2626 9.8457 10.1726 9.8757 10.0766 9.8757C9.97765 9.8727 9.89065 9.8457 9.78565 9.8457H9.65065C9.54865 9.8457 9.45865 9.8757 9.36265 9.8757C9.26365 9.8727 9.17665 9.8457 9.07165 9.8457H8.93665C8.83165 9.8457 8.74465 9.8757 8.64865 9.8757C8.54965 9.8727 8.46265 9.8457 8.35765 9.8457H8.22265C8.12065 9.8457 8.03065 9.8757 7.93465 9.8757C7.83565 9.8727 7.74865 9.8457 7.64365 9.8457H7.50865V9.8487Z" fill="url(#paint24_linear_186_11377)"/>
</g>
<g id="ni-A_3">
<path id="ni-z_7" d="M7.50865 9.81159C7.40665 9.81159 7.31666 9.83559 7.22066 9.83859C7.18451 9.83764 7.14846 9.83464 7.11266 9.82959L7.09766 9.85359H7.27766C7.38266 9.85359 7.46965 9.82959 7.56565 9.82659C7.66465 9.82959 7.75165 9.85659 7.85665 9.85659H7.99165C8.09365 9.85659 8.18365 9.82959 8.27965 9.82659C8.37865 9.82959 8.46865 9.85659 8.57065 9.85659H8.70565C8.81065 9.85659 8.89765 9.82959 8.99665 9.82659C9.09265 9.82959 9.17965 9.85659 9.28465 9.85659H9.41965C9.52165 9.85659 9.61165 9.82959 9.71065 9.82659C9.80665 9.82959 9.89664 9.85659 9.99864 9.85659H10.1336C10.2386 9.85659 10.3256 9.82959 10.4216 9.82659C10.5206 9.82959 10.6076 9.85659 10.7126 9.85659H10.8476L10.9016 9.85359L10.8866 9.82959C10.8566 9.83259 10.8236 9.83859 10.7906 9.83859C10.6916 9.83859 10.6046 9.80859 10.4996 9.80859H10.3646C10.2626 9.80859 10.1726 9.83859 10.0766 9.83859C9.97765 9.83559 9.89065 9.80859 9.78565 9.80859H9.65065C9.54865 9.80859 9.45865 9.83859 9.36265 9.83859C9.26365 9.83559 9.17665 9.80859 9.07165 9.80859H8.93665C8.83165 9.80859 8.74465 9.83859 8.64865 9.83859C8.54965 9.83559 8.46265 9.80859 8.35765 9.80859H8.22265C8.12065 9.80859 8.03065 9.83859 7.93465 9.83859C7.83565 9.83559 7.74865 9.80859 7.64365 9.80859H7.50865V9.81159Z" fill="url(#paint25_linear_186_11377)"/>
<path id="ni-z_8" d="M7.50865 9.77253C7.40665 9.77253 7.31666 9.79653 7.22066 9.79953C7.18451 9.79858 7.14846 9.79557 7.11266 9.79053L7.09766 9.81453H7.27766C7.38266 9.81453 7.46965 9.79053 7.56565 9.78753C7.66465 9.79053 7.75165 9.81753 7.85665 9.81753H7.99165C8.09365 9.81753 8.18365 9.79053 8.27965 9.78753C8.37865 9.79053 8.46865 9.81753 8.57065 9.81753H8.70565C8.81065 9.81753 8.89765 9.79053 8.99665 9.78753C9.09265 9.79053 9.17965 9.81753 9.28465 9.81753H9.41965C9.52165 9.81753 9.61165 9.79053 9.71065 9.78753C9.80665 9.79053 9.89664 9.81753 9.99864 9.81753H10.1336C10.2386 9.81753 10.3256 9.79053 10.4216 9.78753C10.5206 9.79053 10.6076 9.81753 10.7126 9.81753H10.8476L10.9016 9.81453L10.8866 9.79053C10.8566 9.79353 10.8236 9.79953 10.7906 9.79953C10.6916 9.79953 10.6046 9.76953 10.4996 9.76953H10.3646C10.2626 9.76953 10.1726 9.79953 10.0766 9.79953C9.97765 9.79653 9.89065 9.76953 9.78565 9.76953H9.65065C9.54865 9.76953 9.45865 9.79953 9.36265 9.79953C9.26365 9.79653 9.17665 9.76953 9.07165 9.76953H8.93665C8.83165 9.76953 8.74465 9.79953 8.64865 9.79953C8.54965 9.79653 8.46265 9.76953 8.35765 9.76953H8.22265C8.12065 9.76953 8.03065 9.79953 7.93465 9.79953C7.83565 9.79653 7.74865 9.76953 7.64365 9.76953H7.50865V9.77253Z" fill="url(#paint26_linear_186_11377)"/>
<path id="ni-z_9" d="M7.50865 9.73347C7.40665 9.73347 7.31666 9.75747 7.22066 9.76047C7.18451 9.75952 7.14846 9.75651 7.11266 9.75147L7.09766 9.77547H7.27766C7.38266 9.77547 7.46965 9.75147 7.56565 9.74847C7.66465 9.75147 7.75165 9.77847 7.85665 9.77847H7.99165C8.09365 9.77847 8.18365 9.75147 8.27965 9.74847C8.37865 9.75147 8.46865 9.77847 8.57065 9.77847H8.70565C8.81065 9.77847 8.89765 9.75147 8.99665 9.74847C9.09265 9.75147 9.17965 9.77847 9.28465 9.77847H9.41965C9.52165 9.77847 9.61165 9.75147 9.71065 9.74847C9.80665 9.75147 9.89664 9.77847 9.99864 9.77847H10.1336C10.2386 9.77847 10.3256 9.75147 10.4216 9.74847C10.5206 9.75147 10.6076 9.77847 10.7126 9.77847H10.8476L10.9016 9.77547L10.8866 9.75147C10.8566 9.75447 10.8236 9.76047 10.7906 9.76047C10.6916 9.76047 10.6046 9.73047 10.4996 9.73047H10.3646C10.2626 9.73047 10.1726 9.76047 10.0766 9.76047C9.97765 9.75747 9.89065 9.73047 9.78565 9.73047H9.65065C9.54865 9.73047 9.45865 9.76047 9.36265 9.76047C9.26365 9.75747 9.17665 9.73047 9.07165 9.73047H8.93665C8.83165 9.73047 8.74465 9.76047 8.64865 9.76047C8.54965 9.75747 8.46265 9.73047 8.35765 9.73047H8.22265C8.12065 9.73047 8.03065 9.76047 7.93465 9.76047C7.83565 9.75747 7.74865 9.73047 7.64365 9.73047H7.50865V9.73347Z" fill="url(#paint27_linear_186_11377)"/>
</g>
<path id="Vector_144" d="M7.31621 9.74067L7.24121 9.86667C7.32821 9.85167 7.45421 9.81567 7.56221 9.81567C7.67021 9.81567 7.80221 9.84267 7.93421 9.84567C8.08421 9.84567 8.14421 9.80967 8.26421 9.79767C8.38721 9.78567 8.50421 9.81267 8.62421 9.81567C8.71721 9.81567 8.8612 9.78267 8.9842 9.77067C9.1042 9.75567 9.2152 9.77967 9.3592 9.77967C9.5062 9.78267 9.5302 9.74367 9.7072 9.74067C9.8992 9.73767 9.9172 9.76767 10.0852 9.76767C10.2112 9.77367 10.3222 9.74067 10.4362 9.73467C10.5502 9.72567 10.6012 9.73467 10.6852 9.73467L10.6282 9.63867L7.58921 9.70767L7.31621 9.74067Z" fill="#97C924"/>
<path id="Vector_145" d="M10.499 9.73633L10.619 9.74533C10.648 9.74879 10.677 9.75179 10.706 9.75433L10.694 9.73933C10.676 9.74533 10.562 9.73333 10.502 9.73933L10.499 9.73633Z" fill="white"/>
</g>
</g>
</g>
<path id="Vector_146" d="M9.00039 6.74609L8.03711 8.41602L7.05273 10.1246H10.948L9.98477 8.45469L9.00039 6.74609ZM9.00039 6.83398L9.94961 8.47578L10.8742 10.0789H7.13008L8.07578 8.44063L9.00039 6.83398Z" fill="#C8A400"/>
</g>
<defs>
<linearGradient id="paint0_linear_186_11377" x1="8.95971" y1="8.67122" x2="9.01671" y2="8.50022" gradientUnits="userSpaceOnUse">
<stop stop-color="#510000"/>
<stop offset="0.3" stop-color="#8A0000"/>
<stop offset="1" stop-color="#AA0000"/>
</linearGradient>
<linearGradient id="paint1_linear_186_11377" x1="9.04116" y1="8.74054" x2="9.08616" y2="8.62054" gradientUnits="userSpaceOnUse">
<stop stop-color="#FF2A2A"/>
<stop offset="1" stop-color="#FF0000"/>
</linearGradient>
<linearGradient id="paint2_linear_186_11377" x1="7.33398" y1="9.52567" x2="13.031" y2="9.52567" gradientUnits="userSpaceOnUse">
<stop stop-color="#002255"/>
<stop offset="0.5" stop-color="#0044AA"/>
<stop offset="1" stop-color="#002255"/>
</linearGradient>
<linearGradient id="paint3_linear_186_11377" x1="7.33398" y1="9.49246" x2="13.031" y2="9.49246" gradientUnits="userSpaceOnUse">
<stop stop-color="#002255"/>
<stop offset="0.5" stop-color="#0044AA"/>
<stop offset="1" stop-color="#002255"/>
</linearGradient>
<linearGradient id="paint4_linear_186_11377" x1="7.33398" y1="9.45926" x2="13.031" y2="9.45926" gradientUnits="userSpaceOnUse">
<stop stop-color="#002255"/>
<stop offset="0.5" stop-color="#0044AA"/>
<stop offset="1" stop-color="#002255"/>
</linearGradient>
<linearGradient id="paint5_linear_186_11377" x1="7.33398" y1="9.42606" x2="13.031" y2="9.42606" gradientUnits="userSpaceOnUse">
<stop stop-color="#002255"/>
<stop offset="0.5" stop-color="#0044AA"/>
<stop offset="1" stop-color="#002255"/>
</linearGradient>
<linearGradient id="paint6_linear_186_11377" x1="7.33398" y1="9.39285" x2="13.031" y2="9.39285" gradientUnits="userSpaceOnUse">
<stop stop-color="#002255"/>
<stop offset="0.5" stop-color="#0044AA"/>
<stop offset="1" stop-color="#002255"/>
</linearGradient>
<linearGradient id="paint7_linear_186_11377" x1="7.33398" y1="9.35965" x2="13.031" y2="9.35965" gradientUnits="userSpaceOnUse">
<stop stop-color="#002255"/>
<stop offset="0.5" stop-color="#0044AA"/>
<stop offset="1" stop-color="#002255"/>
</linearGradient>
<linearGradient id="paint8_linear_186_11377" x1="7.33398" y1="9.3245" x2="13.031" y2="9.3245" gradientUnits="userSpaceOnUse">
<stop stop-color="#002255"/>
<stop offset="0.5" stop-color="#0044AA"/>
<stop offset="1" stop-color="#002255"/>
</linearGradient>
<linearGradient id="paint9_linear_186_11377" x1="7.33398" y1="9.29129" x2="13.031" y2="9.29129" gradientUnits="userSpaceOnUse">
<stop stop-color="#002255"/>
<stop offset="0.5" stop-color="#0044AA"/>
<stop offset="1" stop-color="#002255"/>
</linearGradient>
<linearGradient id="paint10_linear_186_11377" x1="7.33398" y1="9.25809" x2="13.031" y2="9.25809" gradientUnits="userSpaceOnUse">
<stop stop-color="#002255"/>
<stop offset="0.5" stop-color="#0044AA"/>
<stop offset="1" stop-color="#002255"/>
</linearGradient>
<linearGradient id="paint11_linear_186_11377" x1="7.3336" y1="9.52461" x2="13.0306" y2="9.52461" gradientUnits="userSpaceOnUse">
<stop stop-color="#002255"/>
<stop offset="0.5" stop-color="#0044AA"/>
<stop offset="1" stop-color="#002255"/>
</linearGradient>
<linearGradient id="paint12_linear_186_11377" x1="7.3337" y1="9.52514" x2="13.0307" y2="9.52514" gradientUnits="userSpaceOnUse">
<stop stop-color="#002255"/>
<stop offset="0.5" stop-color="#0044AA"/>
<stop offset="1" stop-color="#002255"/>
</linearGradient>
<linearGradient id="paint13_linear_186_11377" x1="8.5436" y1="9.3492" x2="8.5436" y2="9.5262" gradientUnits="userSpaceOnUse">
<stop stop-color="#F5F549"/>
<stop offset="1" stop-color="#97C924"/>
</linearGradient>
<linearGradient id="paint14_linear_186_11377" x1="8.08461" y1="9.3492" x2="8.08461" y2="9.5262" gradientUnits="userSpaceOnUse">
<stop stop-color="#F5F549"/>
<stop offset="1" stop-color="#97C924"/>
</linearGradient>
<linearGradient id="paint15_linear_186_11377" x1="8.54369" y1="9.35011" x2="8.54369" y2="9.52711" gradientUnits="userSpaceOnUse">
<stop stop-color="#F5F549"/>
<stop offset="1" stop-color="#97C924"/>
</linearGradient>
<linearGradient id="paint16_linear_186_11377" x1="8.54354" y1="9.3492" x2="8.54354" y2="9.5262" gradientUnits="userSpaceOnUse">
<stop stop-color="#F5F549"/>
<stop offset="1" stop-color="#97C924"/>
</linearGradient>
<linearGradient id="paint17_linear_186_11377" x1="8.08163" y1="9.3492" x2="8.08163" y2="9.5262" gradientUnits="userSpaceOnUse">
<stop stop-color="#F5F549"/>
<stop offset="1" stop-color="#97C924"/>
</linearGradient>
<linearGradient id="paint18_linear_186_11377" x1="7.224" y1="9.6921" x2="10.7139" y2="9.6921" gradientUnits="userSpaceOnUse">
<stop stop-color="#002255"/>
<stop offset="0.5" stop-color="#0044AA"/>
<stop offset="1" stop-color="#002255"/>
</linearGradient>
<linearGradient id="paint19_linear_186_11377" x1="7.11092" y1="10.0403" x2="10.8883" y2="10.0403" gradientUnits="userSpaceOnUse">
<stop stop-color="#002255"/>
<stop offset="0.5" stop-color="#0044AA"/>
<stop offset="1" stop-color="#002255"/>
</linearGradient>
<linearGradient id="paint20_linear_186_11377" x1="7.11092" y1="10.0012" x2="10.8883" y2="10.0012" gradientUnits="userSpaceOnUse">
<stop stop-color="#002255"/>
<stop offset="0.5" stop-color="#0044AA"/>
<stop offset="1" stop-color="#002255"/>
</linearGradient>
<linearGradient id="paint21_linear_186_11377" x1="7.11092" y1="9.96215" x2="10.8883" y2="9.96215" gradientUnits="userSpaceOnUse">
<stop stop-color="#002255"/>
<stop offset="0.5" stop-color="#0044AA"/>
<stop offset="1" stop-color="#002255"/>
</linearGradient>
<linearGradient id="paint22_linear_186_11377" x1="7.11092" y1="9.92504" x2="10.8883" y2="9.92504" gradientUnits="userSpaceOnUse">
<stop stop-color="#002255"/>
<stop offset="0.5" stop-color="#0044AA"/>
<stop offset="1" stop-color="#002255"/>
</linearGradient>
<linearGradient id="paint23_linear_186_11377" x1="7.11092" y1="9.88598" x2="10.8883" y2="9.88598" gradientUnits="userSpaceOnUse">
<stop stop-color="#002255"/>
<stop offset="0.5" stop-color="#0044AA"/>
<stop offset="1" stop-color="#002255"/>
</linearGradient>
<linearGradient id="paint24_linear_186_11377" x1="7.11092" y1="9.84691" x2="10.8883" y2="9.84691" gradientUnits="userSpaceOnUse">
<stop stop-color="#002255"/>
<stop offset="0.5" stop-color="#0044AA"/>
<stop offset="1" stop-color="#002255"/>
</linearGradient>
<linearGradient id="paint25_linear_186_11377" x1="7.11092" y1="9.8098" x2="10.8883" y2="9.8098" gradientUnits="userSpaceOnUse">
<stop stop-color="#002255"/>
<stop offset="0.5" stop-color="#0044AA"/>
<stop offset="1" stop-color="#002255"/>
</linearGradient>
<linearGradient id="paint26_linear_186_11377" x1="7.11092" y1="9.77074" x2="10.8883" y2="9.77074" gradientUnits="userSpaceOnUse">
<stop stop-color="#002255"/>
<stop offset="0.5" stop-color="#0044AA"/>
<stop offset="1" stop-color="#002255"/>
</linearGradient>
<linearGradient id="paint27_linear_186_11377" x1="7.11092" y1="9.73168" x2="10.8883" y2="9.73168" gradientUnits="userSpaceOnUse">
<stop stop-color="#002255"/>
<stop offset="0.5" stop-color="#0044AA"/>
<stop offset="1" stop-color="#002255"/>
</linearGradient>
<clipPath id="clip0_186_11377">
<rect width="18" height="18" fill="white"/>
</clipPath>
</defs>
</svg>
