<svg width="18" height="18" viewBox="0 0 18 18" fill="none" xmlns="http://www.w3.org/2000/svg">
<g id="np" clip-path="url(#clip0_186_11616)">
<g id="Clip path group">
<mask id="mask0_186_11616" style="mask-type:luminance" maskUnits="userSpaceOnUse" x="0" y="0" width="18" height="18">
<g id="np-a">
<path id="Vector" d="M0 0H18V18H0V0Z" fill="white"/>
</g>
</mask>
<g mask="url(#mask0_186_11616)">
<g id="Group">
<g id="Clip path group_2">
<mask id="mask1_186_11616" style="mask-type:luminance" maskUnits="userSpaceOnUse" x="0" y="0" width="18" height="18">
<g id="np-b">
<path id="Vector_2" d="M0 0H18V18H0V0Z" fill="white"/>
</g>
</mask>
<g mask="url(#mask1_186_11616)">
<g id="Group_2">
<g id="Group_3">
<path id="Vector_3" fill-rule="evenodd" clip-rule="evenodd" d="M0.228516 17.7715H13.5457L4.83047 8.9332L13.8762 8.94375L0.232031 0.228516V17.7715H0.228516Z" fill="#CE0000" stroke="#000063" stroke-width="13"/>
<path id="Vector_4" fill-rule="evenodd" clip-rule="evenodd" d="M6.35273 13.0711L5.40352 13.3875L6.14883 14.0836L5.14687 14.0203L5.5582 14.9414L4.66172 14.509L4.6793 15.5145L4.01836 14.7797L3.64219 15.7148L3.31875 14.7902L2.60508 15.5145L2.66836 14.5406L1.72266 14.9414L2.16562 14.0625L1.13555 14.0836L1.89141 13.4402L0.931641 13.0711L1.88086 12.7547L1.13203 12.0586L2.13047 12.1219L1.72266 11.2008L2.62266 11.6332L2.60508 10.6277L3.26602 11.3625L3.64219 10.4273L3.96211 11.352L4.6793 10.6277L4.6125 11.6016L5.56172 11.2008L5.11523 12.0797L6.14883 12.0586L5.39297 12.702L6.35273 13.0711ZM5.21367 6.57773L4.81641 6.87305L5.01328 7.03477C5.47528 6.71204 5.84687 6.27631 6.09258 5.76914C6.15586 6.51797 5.47031 8.19492 3.67734 8.2125C3.34963 8.21668 3.02434 8.15592 2.72023 8.03372C2.41613 7.91152 2.13923 7.7303 1.90554 7.50052C1.67184 7.27074 1.48596 6.99696 1.35863 6.69497C1.2313 6.39297 1.16504 6.06875 1.16367 5.74102C1.51523 6.38086 1.7332 6.69023 2.28867 7.02422L2.45391 6.86953L2.08125 6.55664L2.56289 6.43008L2.30273 5.99414L2.80898 6.0293L2.7457 5.52305L3.18867 5.7832L3.3293 5.30859L3.6457 5.68828L3.94453 5.32617L4.10625 5.81836L4.52109 5.53008L4.46836 6.03281L4.96758 5.97305L4.73203 6.43711L5.21367 6.57773Z" fill="white"/>
</g>
</g>
</g>
</g>
</g>
</g>
</g>
</g>
<defs>
<clipPath id="clip0_186_11616">
<rect width="18" height="18" fill="white"/>
</clipPath>
</defs>
</svg>
