<svg width="18" height="18" viewBox="0 0 18 18" fill="none" xmlns="http://www.w3.org/2000/svg">
<g id="nr" clip-path="url(#clip0_186_11628)">
<g id="Clip path group">
<mask id="mask0_186_11628" style="mask-type:luminance" maskUnits="userSpaceOnUse" x="-1" y="0" width="19" height="18">
<g id="nr-a">
<path id="Vector" d="M-0.00195312 0H17.9989V17.9972H0.00167502L-0.00195312 0Z" fill="white"/>
</g>
</mask>
<g mask="url(#mask0_186_11628)">
<g id="Group">
<path id="Vector_2" fill-rule="evenodd" clip-rule="evenodd" d="M-4.92188 0H31.0762V17.9972H-4.92188V0Z" fill="#002170"/>
<path id="Vector_3" fill-rule="evenodd" clip-rule="evenodd" d="M-4.92188 8.22852H31.0762V9.76699H-4.92188V8.22852Z" fill="#FFB20D"/>
<path id="Vector_4" fill-rule="evenodd" clip-rule="evenodd" d="M5.68812 15.3987L4.53063 14.2376L4.16053 15.8341L3.736 14.2485L2.6148 15.4459L3.04296 13.8639L1.47546 14.3356L2.63657 13.1817L1.04004 12.808L2.62205 12.3871L1.42466 11.2623L3.00667 11.6904L2.53497 10.1229L3.68883 11.284L4.06256 9.6875L4.48709 11.2695L5.60466 10.0757L5.18013 11.6578L6.74763 11.1861L5.58652 12.3399L7.18305 12.7136L5.60103 13.1346L6.79843 14.2558L5.21279 13.8312L5.68812 15.3987Z" fill="white"/>
</g>
</g>
</g>
</g>
<defs>
<clipPath id="clip0_186_11628">
<rect width="18" height="18" fill="white"/>
</clipPath>
</defs>
</svg>
