<svg width="18" height="18" viewBox="0 0 18 18" fill="none" xmlns="http://www.w3.org/2000/svg">
<g id="nu" clip-path="url(#clip0_186_11636)">
<path id="Vector" d="M0 0H18V18H0V0Z" fill="#FEDD00"/>
<path id="Vector_2" d="M0 0H9V9H0V0Z" fill="#012169"/>
<path id="Vector_3" d="M9 0V1.125L5.66016 4.5L9 7.78711V9H7.82227L4.46484 5.69531L1.19531 9H0V7.80469L3.26953 4.51758L0 1.30078V0H1.08984L4.46484 3.30469L7.73438 0H9Z" fill="white"/>
<path id="Vector_4" d="M3.23438 5.69531L3.42773 6.29297L0.738281 9H0V8.94727L3.23438 5.69531ZM5.41406 5.48438L6.36328 5.625L9 8.20898V9L5.41406 5.48438ZM9 0L5.625 3.44531L5.55469 2.67188L8.19141 0H9ZM0 0.0175781L3.39258 3.33984L2.35547 3.19922L0 0.861328V0.0175781Z" fill="#C8102E"/>
<path id="Vector_5" d="M3.09375 0V9H5.90625V0H3.09375ZM0 3.09375V5.90625H9V3.09375H0Z" fill="white"/>
<path id="Vector_6" d="M0 3.65625V5.34375H9V3.65625H0ZM3.65625 0V9H5.34375V0H3.65625Z" fill="#C8102E"/>
<path id="Vector_7" d="M4.49961 6.03242C5.34616 6.03242 6.03242 5.34616 6.03242 4.49961C6.03242 3.65306 5.34616 2.9668 4.49961 2.9668C3.65306 2.9668 2.9668 3.65306 2.9668 4.49961C2.9668 5.34616 3.65306 6.03242 4.49961 6.03242Z" fill="#012169"/>
<path id="Vector_8" d="M4.5 2.96719L5.4 5.7375L3.04453 4.02539H5.95547L3.6 5.7375M1.87383 3.68789L2.40117 5.31562L1.01953 4.31016H2.73164L1.34648 5.31562M7.12617 3.68789L7.65352 5.31562L6.26836 4.31016H7.98047L6.59531 5.31562M4.5 6.68672L5.02734 8.31445L3.6457 7.30898H5.3543L3.97266 8.31445M4.5 0.685547L5.02734 2.32031L3.6457 1.31133H5.3543L3.97266 2.32031" fill="#FEDD00"/>
</g>
<defs>
<clipPath id="clip0_186_11636">
<rect width="18" height="18" fill="white"/>
</clipPath>
</defs>
</svg>
