<svg width="18" height="18" viewBox="0 0 18 18" fill="none" xmlns="http://www.w3.org/2000/svg">
<g id="nz" clip-path="url(#clip0_186_11647)">
<path id="Vector" fill-rule="evenodd" clip-rule="evenodd" d="M0 0H18V18H0V0Z" fill="#00247D"/>
<g id="Group">
<g id="nz-b">
<g id="nz-a">
<path id="Vector_2" d="M13.936 5.44727V5.93061L14.9027 5.44727H13.936Z" fill="white"/>
<path id="Vector_3" d="M14.1294 6.02728L13.936 5.6406L14.9027 5.44727L14.1294 6.02728Z" fill="white"/>
</g>
<g id="nz-a_2">
<path id="Vector_4" d="M13.936 5.44727V5.93061L12.9693 5.44727H13.936Z" fill="white"/>
<path id="Vector_5" d="M13.7427 6.02728L13.936 5.6406L12.9693 5.44727L13.7427 6.02728Z" fill="white"/>
</g>
<g id="nz-a_3">
<path id="Vector_6" d="M14.2119 5.64844L13.7522 5.7978L14.5106 6.56781L14.2119 5.64844Z" fill="white"/>
<path id="Vector_7" d="M13.72 6.01155L14.028 5.70818L14.5106 6.56781L13.72 6.01155Z" fill="white"/>
</g>
<g id="nz-a_4">
<path id="Vector_8" d="M13.6602 5.64844L14.1198 5.7978L13.9589 4.72906L13.6602 5.64844Z" fill="white"/>
<path id="Vector_9" d="M14.2715 5.6438L13.844 5.70818L13.9589 4.72906L14.2715 5.6438Z" fill="white"/>
</g>
<g id="nz-a_5">
<path id="Vector_10" d="M13.6602 5.64844L14.1198 5.7978L13.3614 6.56781L13.6602 5.64844Z" fill="white"/>
<path id="Vector_11" d="M14.152 6.01155L13.844 5.70818L13.3614 6.56781L14.152 6.01155Z" fill="white"/>
</g>
</g>
<g id="nz-b_2">
<g id="nz-a_6">
<path id="Vector_12" d="M13.936 5.54492V5.86431L14.5748 5.54492H13.936Z" fill="#CC142B"/>
<path id="Vector_13" d="M14.0638 5.92819L13.936 5.67268L14.5748 5.54492L14.0638 5.92819Z" fill="#CC142B"/>
</g>
<g id="nz-a_7">
<path id="Vector_14" d="M13.936 5.54492V5.86431L13.2973 5.54492H13.936Z" fill="#CC142B"/>
<path id="Vector_15" d="M13.8083 5.92819L13.936 5.67268L13.2973 5.54492L13.8083 5.92819Z" fill="#CC142B"/>
</g>
<g id="nz-a_8">
<path id="Vector_16" d="M14.1182 5.67773L13.8144 5.77643L14.3156 6.28525L14.1182 5.67773Z" fill="#CC142B"/>
<path id="Vector_17" d="M13.7931 5.91767L13.9967 5.71721L14.3156 6.28525L13.7931 5.91767Z" fill="#CC142B"/>
</g>
<g id="nz-a_9">
<path id="Vector_18" d="M13.7539 5.67773L14.0577 5.77643L13.9513 5.07022L13.7539 5.67773Z" fill="#CC142B"/>
<path id="Vector_19" d="M14.1579 5.67467L13.8754 5.71721L13.9513 5.07022L14.1579 5.67467Z" fill="#CC142B"/>
</g>
<g id="nz-a_10">
<path id="Vector_20" d="M13.7539 5.67773L14.0577 5.77643L13.5565 6.28525L13.7539 5.67773Z" fill="#CC142B"/>
<path id="Vector_21" d="M14.0789 5.91767L13.8754 5.71721L13.5565 6.28525L14.0789 5.91767Z" fill="#CC142B"/>
</g>
</g>
</g>
<g id="Group_2">
<g id="nz-b_3">
<g id="nz-a_11">
<path id="Vector_22" d="M16.4683 7.67969L16.4683 8.1098L17.3285 7.67969L16.4683 7.67969Z" fill="white"/>
<path id="Vector_23" d="M16.6403 8.19582L16.4683 7.85173L17.3285 7.67969L16.6403 8.19582Z" fill="white"/>
</g>
<g id="nz-a_12">
<path id="Vector_24" d="M16.4683 7.67969L16.4683 8.1098L15.608 7.67969L16.4683 7.67969Z" fill="white"/>
<path id="Vector_25" d="M16.2962 8.19582L16.4683 7.85173L15.608 7.67969L16.2962 8.19582Z" fill="white"/>
</g>
<g id="nz-a_13">
<path id="Vector_26" d="M16.7134 7.85742L16.3043 7.99033L16.9792 8.67555L16.7134 7.85742Z" fill="white"/>
<path id="Vector_27" d="M16.2757 8.18054L16.5498 7.91059L16.9792 8.67555L16.2757 8.18054Z" fill="white"/>
</g>
<g id="nz-a_14">
<path id="Vector_28" d="M16.2227 7.85742L16.6317 7.99033L16.4885 7.0393L16.2227 7.85742Z" fill="white"/>
<path id="Vector_29" d="M16.7667 7.85329L16.3863 7.91059L16.4885 7.0393L16.7667 7.85329Z" fill="white"/>
</g>
<g id="nz-a_15">
<path id="Vector_30" d="M16.2227 7.85742L16.6317 7.99033L15.9568 8.67555L16.2227 7.85742Z" fill="white"/>
<path id="Vector_31" d="M16.6604 8.18054L16.3863 7.91059L15.9568 8.67555L16.6604 8.18054Z" fill="white"/>
</g>
</g>
<g id="nz-b_4">
<g id="nz-a_16">
<path id="Vector_32" d="M16.4678 7.7793L16.4678 8.04546L17.0001 7.7793L16.4678 7.7793Z" fill="#CC142B"/>
<path id="Vector_33" d="M16.5742 8.09869L16.4678 7.88576L17.0001 7.7793L16.5742 8.09869Z" fill="#CC142B"/>
</g>
<g id="nz-a_17">
<path id="Vector_34" d="M16.4678 7.7793L16.4678 8.04546L15.9355 7.7793L16.4678 7.7793Z" fill="#CC142B"/>
<path id="Vector_35" d="M16.3613 8.09869L16.4678 7.88576L15.9355 7.7793L16.3613 8.09869Z" fill="#CC142B"/>
</g>
<g id="nz-a_18">
<path id="Vector_36" d="M16.6196 7.88867L16.3665 7.97092L16.7841 8.39494L16.6196 7.88867Z" fill="#CC142B"/>
<path id="Vector_37" d="M16.3488 8.08862L16.5184 7.92157L16.7841 8.39494L16.3488 8.08862Z" fill="#CC142B"/>
</g>
<g id="nz-a_19">
<path id="Vector_38" d="M16.3159 7.88867L16.5691 7.97092L16.4804 7.38241L16.3159 7.88867Z" fill="#CC142B"/>
<path id="Vector_39" d="M16.6526 7.88612L16.4172 7.92157L16.4804 7.38241L16.6526 7.88612Z" fill="#CC142B"/>
</g>
<g id="nz-a_20">
<path id="Vector_40" d="M16.3159 7.88867L16.5691 7.97092L16.1514 8.39494L16.3159 7.88867Z" fill="#CC142B"/>
<path id="Vector_41" d="M16.5868 8.08862L16.4172 7.92157L16.1514 8.39494L16.5868 8.08862Z" fill="#CC142B"/>
</g>
</g>
</g>
<g id="Group_3">
<g id="nz-b_5">
<g id="nz-a_21">
<path id="Vector_42" d="M10.9849 8.41797L10.9849 8.90131L11.9516 8.41797L10.9849 8.41797Z" fill="white"/>
<path id="Vector_43" d="M11.1782 8.99798L10.9849 8.61131L11.9516 8.41797L11.1782 8.99798Z" fill="white"/>
</g>
<g id="nz-a_22">
<path id="Vector_44" d="M10.9849 8.41797L10.9849 8.90131L10.0182 8.41797L10.9849 8.41797Z" fill="white"/>
<path id="Vector_45" d="M10.7915 8.99798L10.9849 8.61131L10.0182 8.41797L10.7915 8.99798Z" fill="white"/>
</g>
<g id="nz-a_23">
<path id="Vector_46" d="M11.2607 8.61914L10.8011 8.7685L11.5595 9.53852L11.2607 8.61914Z" fill="white"/>
<path id="Vector_47" d="M10.7689 8.98225L11.0769 8.67889L11.5595 9.53852L10.7689 8.98225Z" fill="white"/>
</g>
<g id="nz-a_24">
<path id="Vector_48" d="M10.709 8.61914L11.1687 8.7685L11.0077 7.69976L10.709 8.61914Z" fill="white"/>
<path id="Vector_49" d="M11.3204 8.6145L10.8929 8.67889L11.0077 7.69976L11.3204 8.6145Z" fill="white"/>
</g>
<g id="nz-a_25">
<path id="Vector_50" d="M10.709 8.61914L11.1687 8.7685L10.4103 9.53852L10.709 8.61914Z" fill="white"/>
<path id="Vector_51" d="M11.2009 8.98225L10.8929 8.67889L10.4103 9.53852L11.2009 8.98225Z" fill="white"/>
</g>
</g>
<g id="nz-b_6">
<g id="nz-a_26">
<path id="Vector_52" d="M10.9849 8.51758L10.9849 8.83697L11.6236 8.51758L10.9849 8.51758Z" fill="#CC142B"/>
<path id="Vector_53" d="M11.1126 8.90085L10.9849 8.64533L11.6236 8.51758L11.1126 8.90085Z" fill="#CC142B"/>
</g>
<g id="nz-a_27">
<path id="Vector_54" d="M10.9849 8.51758L10.9849 8.83697L10.3461 8.51758L10.9849 8.51758Z" fill="#CC142B"/>
<path id="Vector_55" d="M10.8571 8.90085L10.9849 8.64533L10.3461 8.51758L10.8571 8.90085Z" fill="#CC142B"/>
</g>
<g id="nz-a_28">
<path id="Vector_56" d="M11.167 8.65039L10.8632 8.74909L11.3644 9.25791L11.167 8.65039Z" fill="#CC142B"/>
<path id="Vector_57" d="M10.842 8.89033L11.0455 8.68987L11.3644 9.25791L10.842 8.89033Z" fill="#CC142B"/>
</g>
<g id="nz-a_29">
<path id="Vector_58" d="M10.8027 8.65039L11.1065 8.74909L11.0001 8.04287L10.8027 8.65039Z" fill="#CC142B"/>
<path id="Vector_59" d="M11.2067 8.64732L10.9242 8.68987L11.0001 8.04287L11.2067 8.64732Z" fill="#CC142B"/>
</g>
<g id="nz-a_30">
<path id="Vector_60" d="M10.8027 8.65039L11.1065 8.74909L10.6053 9.25791L10.8027 8.65039Z" fill="#CC142B"/>
<path id="Vector_61" d="M11.1278 8.89033L10.9242 8.68987L10.6053 9.25791L11.1278 8.89033Z" fill="#CC142B"/>
</g>
</g>
</g>
<g id="Group_4">
<g id="nz-b_7">
<g id="nz-a_31">
<path id="Vector_62" d="M13.936 13.0801V13.6167L15.0092 13.0801H13.936Z" fill="white"/>
<path id="Vector_63" d="M14.1507 13.724L13.936 13.2947L15.0092 13.0801L14.1507 13.724Z" fill="white"/>
</g>
<g id="nz-a_32">
<path id="Vector_64" d="M13.936 13.0801V13.6167L12.8629 13.0801H13.936Z" fill="white"/>
<path id="Vector_65" d="M13.7214 13.724L13.936 13.2947L12.8629 13.0801L13.7214 13.724Z" fill="white"/>
</g>
<g id="nz-a_33">
<path id="Vector_66" d="M14.2422 13.3027L13.7319 13.4685L14.5738 14.3234L14.2422 13.3027Z" fill="white"/>
<path id="Vector_67" d="M13.6961 13.7058L14.0381 13.3691L14.5738 14.3234L13.6961 13.7058Z" fill="white"/>
</g>
<g id="nz-a_34">
<path id="Vector_68" d="M13.6299 13.3027L14.1402 13.4685L13.9615 12.2821L13.6299 13.3027Z" fill="white"/>
<path id="Vector_69" d="M14.3086 13.2976L13.834 13.3691L13.9615 12.2821L14.3086 13.2976Z" fill="white"/>
</g>
<g id="nz-a_35">
<path id="Vector_70" d="M13.6299 13.3027L14.1402 13.4685L13.2983 14.3234L13.6299 13.3027Z" fill="white"/>
<path id="Vector_71" d="M14.1759 13.7058L13.834 13.3691L13.2983 14.3234L14.1759 13.7058Z" fill="white"/>
</g>
</g>
<g id="nz-b_8">
<g id="nz-a_36">
<path id="Vector_72" d="M13.936 13.1777V13.5504L14.6813 13.1777H13.936Z" fill="#CC142B"/>
<path id="Vector_73" d="M14.0851 13.6249L13.936 13.3268L14.6813 13.1777L14.0851 13.6249Z" fill="#CC142B"/>
</g>
<g id="nz-a_37">
<path id="Vector_74" d="M13.936 13.1777V13.5504L13.1908 13.1777H13.936Z" fill="#CC142B"/>
<path id="Vector_75" d="M13.787 13.6249L13.936 13.3268L13.1908 13.1777L13.787 13.6249Z" fill="#CC142B"/>
</g>
<g id="nz-a_38">
<path id="Vector_76" d="M14.1489 13.332L13.7945 13.4472L14.3792 14.0408L14.1489 13.332Z" fill="#CC142B"/>
<path id="Vector_77" d="M13.7697 13.612L14.0072 13.3781L14.3792 14.0408L13.7697 13.612Z" fill="#CC142B"/>
</g>
<g id="nz-a_39">
<path id="Vector_78" d="M13.7236 13.332L14.078 13.4472L13.9539 12.6233L13.7236 13.332Z" fill="#CC142B"/>
<path id="Vector_79" d="M14.195 13.3285L13.8654 13.3781L13.9539 12.6233L14.195 13.3285Z" fill="#CC142B"/>
</g>
<g id="nz-a_40">
<path id="Vector_80" d="M13.7236 13.332L14.078 13.4472L13.4933 14.0408L13.7236 13.332Z" fill="#CC142B"/>
<path id="Vector_81" d="M14.1028 13.612L13.8654 13.3781L13.4933 14.0408L14.1028 13.612Z" fill="#CC142B"/>
</g>
</g>
</g>
<path id="Vector_82" d="M0 0H9V9H0V0Z" fill="#012169"/>
<path id="Vector_83" d="M9 0V1.125L5.66016 4.5L9 7.78711V9H7.82227L4.46484 5.69531L1.19531 9H0V7.80469L3.26953 4.51758L0 1.30078V0H1.08984L4.46484 3.30469L7.73438 0H9Z" fill="white"/>
<path id="Vector_84" d="M3.23438 5.69531L3.42773 6.29297L0.738281 9H0V8.94727L3.23438 5.69531ZM5.41406 5.48438L6.36328 5.625L9 8.20898V9L5.41406 5.48438ZM9 0L5.625 3.44531L5.55469 2.67188L8.19141 0H9ZM0 0.0175781L3.39258 3.33984L2.35547 3.19922L0 0.861328V0.0175781Z" fill="#C8102E"/>
<path id="Vector_85" d="M3.09375 0V9H5.90625V0H3.09375ZM0 3.09375V5.90625H9V3.09375H0Z" fill="white"/>
<path id="Vector_86" d="M0 3.65625V5.34375H9V3.65625H0ZM3.65625 0V9H5.34375V0H3.65625Z" fill="#C8102E"/>
</g>
<defs>
<clipPath id="clip0_186_11647">
<rect width="18" height="18" fill="white"/>
</clipPath>
</defs>
</svg>
