<svg width="18" height="18" viewBox="0 0 18 18" fill="none" xmlns="http://www.w3.org/2000/svg">
<g id="om" clip-path="url(#clip0_186_11795)">
<g id="Clip path group">
<mask id="mask0_186_11795" style="mask-type:luminance" maskUnits="userSpaceOnUse" x="0" y="0" width="18" height="18">
<g id="om-a">
<path id="Vector" d="M0 0H18V18H0V0Z" fill="white"/>
</g>
</mask>
<g mask="url(#mask0_186_11795)">
<g id="Group">
<path id="Vector_2" fill-rule="evenodd" clip-rule="evenodd" d="M-0.819336 -0.759766H18.6818V18.6816H-0.819336V-0.759766Z" fill="#EF2D29"/>
<path id="Vector_3" fill-rule="evenodd" clip-rule="evenodd" d="M5.78613 11.998H19.0189V19.3H5.78613V11.998Z" fill="#009025"/>
<path id="Vector_4" fill-rule="evenodd" clip-rule="evenodd" d="M5.78613 -0.681641H19.0189V5.99805H5.78613V-0.681641Z" fill="white"/>
<g id="Group_2">
<g id="Group_3">
<path id="Vector_5" d="M4.82926 2.68359H4.03886C3.99529 2.68359 3.95996 2.71682 3.95996 2.75781V3.13074C3.95996 3.17173 3.99529 3.20496 4.03886 3.20496H4.82926C4.87284 3.20496 4.90816 3.17173 4.90816 3.13074V2.75781C4.90816 2.71682 4.87284 2.68359 4.82926 2.68359Z" fill="white" stroke="#EF2D28" stroke-width="0.258335"/>
<path id="Vector_6" d="M4.80908 2.70508H4.05916C4.01786 2.70508 3.98438 2.73556 3.98438 2.77316V3.11542C3.98438 3.15303 4.01786 3.18351 4.05916 3.18351H4.80908C4.85038 3.18351 4.88386 3.15303 4.88386 3.11542V2.77316C4.88386 2.73556 4.85038 2.70508 4.80908 2.70508Z" fill="white" stroke="#EF2D28" stroke-width="0.246034"/>
<path id="Vector_7" fill-rule="evenodd" clip-rule="evenodd" d="M4.40259 2.83594L4.44792 2.83773L4.44979 2.85855L4.48717 2.87758L4.51614 2.85353L4.55119 2.87255L4.51848 2.89337L4.52642 2.92208L4.56755 2.92029V2.95798L4.53483 2.95654L4.51801 2.98023L4.5554 3.00715L4.52642 3.02941L4.49511 3.00572L4.44979 3.01505L4.45212 3.04987L4.40259 3.05346L4.39605 3.01972L4.35493 3.00249L4.33203 3.02618L4.29698 3.00859L4.31754 2.98167L4.29278 2.96444H4.25773L4.25586 2.91526L4.29091 2.91849L4.31567 2.88978L4.2867 2.86752L4.32408 2.8424L4.35072 2.86286L4.39605 2.8564L4.40259 2.83594Z" fill="white" stroke="#EF2D28" stroke-width="0.155327"/>
<path id="Vector_8" d="M4.41634 2.98177C4.44402 2.98177 4.46646 2.96268 4.46646 2.93913C4.46646 2.91558 4.44402 2.89648 4.41634 2.89648C4.38865 2.89648 4.36621 2.91558 4.36621 2.93913C4.36621 2.96268 4.38865 2.98177 4.41634 2.98177Z" fill="white" stroke="#EF2D28" stroke-width="0.167268"/>
<g id="Vector_9">
<path fill-rule="evenodd" clip-rule="evenodd" d="M4.10633 2.72656L4.03291 2.79158ZM4.15504 2.72656L4.08163 2.79158ZM4.20307 2.72656L4.13034 2.79158ZM4.25178 2.72656L4.17905 2.79158ZM4.3005 2.72656L4.22777 2.79158ZM4.34921 2.72656L4.27648 2.79158ZM4.39792 2.72656L4.3252 2.79158ZM4.44664 2.72656L4.37391 2.79158ZM4.49535 2.72656L4.42194 2.79158ZM4.54406 2.72656L4.46996 2.79158ZM4.59141 2.72656L4.51868 2.79158ZM4.64012 2.72656L4.56739 2.79158ZM4.44595 2.72656L4.37391 2.79158ZM4.68952 2.72656L4.61679 2.79158ZM4.73823 2.72656L4.66551 2.79158ZM4.78695 2.72656L4.71422 2.79158ZM4.83566 2.72656L4.76293 2.79158ZM4.76293 2.72656L4.83566 2.79158ZM4.71422 2.72656L4.78695 2.79158ZM4.66551 2.72656L4.73823 2.79158ZM4.61679 2.72656L4.68952 2.79158ZM4.56808 2.72656L4.64081 2.79158ZM4.51936 2.72656L4.59209 2.79158ZM4.47065 2.72656L4.54406 2.79158ZM4.42194 2.72656L4.49466 2.79158ZM4.37254 2.72656L4.44595 2.79158ZM4.32451 2.72656L4.39724 2.79158ZM4.2758 2.72656L4.34852 2.79158ZM4.22708 2.72656L4.29981 2.79158ZM4.42194 2.72656L4.49466 2.79158ZM4.17905 2.72656L4.2511 2.79158ZM4.12965 2.72656L4.20307 2.79158ZM4.08094 2.72656L4.15435 2.79158ZM4.03223 2.72656L4.10633 2.79158ZM4.10633 3.09581L4.0336 3.16144ZM4.15435 3.09581L4.08094 3.16144ZM4.20375 3.09581L4.13034 3.16144ZM4.25178 3.09581L4.17905 3.16144ZM4.3005 3.09581L4.22777 3.16144ZM4.34921 3.09581L4.27648 3.16144ZM4.39792 3.09581L4.32588 3.16144ZM4.44664 3.09581L4.37391 3.16144ZM4.49535 3.09581L4.42194 3.16144ZM4.54338 3.09581L4.46996 3.16144ZM4.59346 3.09581L4.52005 3.16144ZM4.64149 3.09581L4.56876 3.16144ZM4.44664 3.09581L4.37391 3.16144ZM4.68952 3.09581L4.61679 3.16144ZM4.73823 3.09581L4.66551 3.16144ZM4.78695 3.09581L4.71422 3.16144ZM4.83566 3.09581L4.76293 3.16144ZM4.76293 3.09581L4.83566 3.16144ZM4.71422 3.09581L4.78695 3.16144ZM4.66551 3.09581L4.73823 3.16144ZM4.61679 3.09581L4.68952 3.16144ZM4.56808 3.09581L4.64081 3.16144ZM4.51936 3.09581L4.59278 3.16144ZM4.46996 3.09581L4.54338 3.16144ZM4.42194 3.09581L4.49466 3.16144ZM4.37391 3.09581L4.44664 3.16144ZM4.3252 3.09581L4.39792 3.16144ZM4.27648 3.09581L4.34921 3.16144ZM4.22777 3.09581L4.3005 3.16144ZM4.42262 3.09581L4.49535 3.16144ZM4.17974 3.09581L4.25178 3.16144ZM4.13034 3.09581L4.20375 3.16144ZM4.08163 3.09581L4.15504 3.16144ZM4.0336 3.09581L4.10633 3.16144Z" fill="white"/>
<path d="M4.10633 2.72656L4.03291 2.79158M4.15504 2.72656L4.08163 2.79158M4.20307 2.72656L4.13034 2.79158M4.25178 2.72656L4.17905 2.79158M4.3005 2.72656L4.22777 2.79158M4.34921 2.72656L4.27648 2.79158M4.39792 2.72656L4.3252 2.79158M4.44664 2.72656L4.37391 2.79158L4.44595 2.72656M4.49535 2.72656L4.42194 2.79158M4.54406 2.72656L4.46996 2.79158M4.59141 2.72656L4.51868 2.79158M4.64012 2.72656L4.56739 2.79158M4.68952 2.72656L4.61679 2.79158M4.73823 2.72656L4.66551 2.79158M4.78695 2.72656L4.71422 2.79158M4.83566 2.72656L4.76293 2.79158M4.76293 2.72656L4.83566 2.79158M4.71422 2.72656L4.78695 2.79158M4.66551 2.72656L4.73823 2.79158M4.61679 2.72656L4.68952 2.79158M4.56808 2.72656L4.64081 2.79158M4.51936 2.72656L4.59209 2.79158M4.47065 2.72656L4.54406 2.79158M4.42194 2.72656L4.49466 2.79158M4.37254 2.72656L4.44595 2.79158M4.32451 2.72656L4.39724 2.79158M4.2758 2.72656L4.34852 2.79158M4.22708 2.72656L4.29981 2.79158M4.17905 2.72656L4.2511 2.79158M4.12965 2.72656L4.20307 2.79158M4.08094 2.72656L4.15435 2.79158M4.03223 2.72656L4.10633 2.79158M4.10633 3.09581L4.0336 3.16144M4.15435 3.09581L4.08094 3.16144M4.20375 3.09581L4.13034 3.16144M4.25178 3.09581L4.17905 3.16144M4.3005 3.09581L4.22777 3.16144M4.34921 3.09581L4.27648 3.16144M4.39792 3.09581L4.32588 3.16144M4.44664 3.09581L4.37391 3.16144M4.49535 3.09581L4.42194 3.16144M4.54338 3.09581L4.46996 3.16144M4.59346 3.09581L4.52005 3.16144M4.64149 3.09581L4.56876 3.16144M4.68952 3.09581L4.61679 3.16144M4.73823 3.09581L4.66551 3.16144M4.78695 3.09581L4.71422 3.16144M4.83566 3.09581L4.76293 3.16144M4.76293 3.09581L4.83566 3.16144M4.71422 3.09581L4.78695 3.16144M4.66551 3.09581L4.73823 3.16144M4.61679 3.09581L4.68952 3.16144M4.56808 3.09581L4.64081 3.16144M4.51936 3.09581L4.59278 3.16144M4.46996 3.09581L4.54338 3.16144M4.42194 3.09581L4.49466 3.16144M4.37391 3.09581L4.44664 3.16144M4.3252 3.09581L4.39792 3.16144M4.27648 3.09581L4.34921 3.16144M4.22777 3.09581L4.3005 3.16144M4.42262 3.09581L4.49535 3.16144M4.17974 3.09581L4.25178 3.16144M4.13034 3.09581L4.20375 3.16144M4.08163 3.09581L4.15504 3.16144M4.0336 3.09581L4.10633 3.16144" stroke="#EF2D28" stroke-width="0.246034"/>
</g>
</g>
<g id="Group_4">
<path id="Vector_10" d="M1.64469 2.6582H0.854293C0.810717 2.6582 0.775391 2.69143 0.775391 2.73242V3.10535C0.775391 3.14634 0.810717 3.17957 0.854293 3.17957H1.64469C1.68827 3.17957 1.72359 3.14634 1.72359 3.10535V2.73242C1.72359 2.69143 1.68827 2.6582 1.64469 2.6582Z" fill="white" stroke="#EF2D28" stroke-width="0.258335"/>
<path id="Vector_11" d="M1.62451 2.67969H0.874591C0.833287 2.67969 0.799805 2.71017 0.799805 2.74777V3.09003C0.799805 3.12763 0.833287 3.15812 0.874591 3.15812H1.62451C1.66581 3.15812 1.69929 3.12763 1.69929 3.09003V2.74777C1.69929 2.71017 1.66581 2.67969 1.62451 2.67969Z" fill="white" stroke="#EF2D28" stroke-width="0.246034"/>
<path id="Vector_12" fill-rule="evenodd" clip-rule="evenodd" d="M1.21802 2.81055L1.26335 2.81234L1.26522 2.83316L1.3026 2.85218L1.33157 2.82814L1.36662 2.84716L1.33391 2.86798L1.34185 2.89669L1.38298 2.8949V2.93259L1.35026 2.93115L1.33344 2.95484L1.37083 2.98176L1.34185 3.00402L1.31054 2.98033L1.26522 2.98966L1.26755 3.02448L1.21802 3.02807L1.21148 2.99433L1.17036 2.9771L1.14746 3.00079L1.11241 2.9832L1.13297 2.95628L1.10821 2.93905H1.07316L1.07129 2.88987L1.10634 2.8931L1.1311 2.86439L1.10213 2.84213L1.13951 2.81701L1.16615 2.83747L1.21148 2.83101L1.21802 2.81055Z" fill="white" stroke="#EF2D28" stroke-width="0.155327"/>
<path id="Vector_13" d="M1.23177 2.95638C1.25945 2.95638 1.28189 2.93729 1.28189 2.91374C1.28189 2.89019 1.25945 2.87109 1.23177 2.87109C1.20408 2.87109 1.18164 2.89019 1.18164 2.91374C1.18164 2.93729 1.20408 2.95638 1.23177 2.95638Z" fill="white" stroke="#EF2D28" stroke-width="0.167268"/>
<g id="Vector_14">
<path fill-rule="evenodd" clip-rule="evenodd" d="M0.921756 2.70117L0.848342 2.76619ZM0.97047 2.70117L0.897056 2.76619ZM1.0185 2.70117L0.94577 2.76619ZM1.06721 2.70117L0.994484 2.76619ZM1.11593 2.70117L1.0432 2.76619ZM1.16464 2.70117L1.09191 2.76619ZM1.21335 2.70117L1.14062 2.76619ZM1.26207 2.70117L1.18934 2.76619ZM1.31078 2.70117L1.23737 2.76619ZM1.35949 2.70117L1.28539 2.76619ZM1.40684 2.70117L1.33411 2.76619ZM1.45555 2.70117L1.38282 2.76619ZM1.26138 2.70117L1.18934 2.76619ZM1.50495 2.70117L1.43222 2.76619ZM1.55366 2.70117L1.48094 2.76619ZM1.60238 2.70117L1.52965 2.76619ZM1.65109 2.70117L1.57836 2.76619ZM1.57836 2.70117L1.65109 2.76619ZM1.52965 2.70117L1.60238 2.76619ZM1.48094 2.70117L1.55366 2.76619ZM1.43222 2.70117L1.50495 2.76619ZM1.38351 2.70117L1.45624 2.76619ZM1.33479 2.70117L1.40752 2.76619ZM1.28608 2.70117L1.35949 2.76619ZM1.23737 2.70117L1.31009 2.76619ZM1.18797 2.70117L1.26138 2.76619ZM1.13994 2.70117L1.21267 2.76619ZM1.09123 2.70117L1.16395 2.76619ZM1.04251 2.70117L1.11524 2.76619ZM1.23737 2.70117L1.31009 2.76619ZM0.994484 2.70117L1.06653 2.76619ZM0.945084 2.70117L1.0185 2.76619ZM0.89637 2.70117L0.969784 2.76619ZM0.847656 2.70117L0.921756 2.76619ZM0.921756 3.07042L0.849028 3.13605ZM0.969784 3.07042L0.89637 3.13605ZM1.01918 3.07042L0.94577 3.13605ZM1.06721 3.07042L0.994484 3.13605ZM1.11593 3.07042L1.0432 3.13605ZM1.16464 3.07042L1.09191 3.13605ZM1.21335 3.07042L1.14131 3.13605ZM1.26207 3.07042L1.18934 3.13605ZM1.31078 3.07042L1.23737 3.13605ZM1.35881 3.07042L1.28539 3.13605ZM1.40889 3.07042L1.33548 3.13605ZM1.45692 3.07042L1.38419 3.13605ZM1.26207 3.07042L1.18934 3.13605ZM1.50495 3.07042L1.43222 3.13605ZM1.55366 3.07042L1.48094 3.13605ZM1.60238 3.07042L1.52965 3.13605ZM1.65109 3.07042L1.57836 3.13605ZM1.57836 3.07042L1.65109 3.13605ZM1.52965 3.07042L1.60238 3.13605ZM1.48094 3.07042L1.55366 3.13605ZM1.43222 3.07042L1.50495 3.13605ZM1.38351 3.07042L1.45624 3.13605ZM1.33479 3.07042L1.40821 3.13605ZM1.28539 3.07042L1.35881 3.13605ZM1.23737 3.07042L1.31009 3.13605ZM1.18934 3.07042L1.26207 3.13605ZM1.14062 3.07042L1.21335 3.13605ZM1.09191 3.07042L1.16464 3.13605ZM1.0432 3.07042L1.11593 3.13605ZM1.23805 3.07042L1.31078 3.13605ZM0.99517 3.07042L1.06721 3.13605ZM0.94577 3.07042L1.01918 3.13605ZM0.897056 3.07042L0.97047 3.13605ZM0.849028 3.07042L0.921756 3.13605Z" fill="white"/>
<path d="M0.921756 2.70117L0.848342 2.76619M0.97047 2.70117L0.897056 2.76619M1.0185 2.70117L0.94577 2.76619M1.06721 2.70117L0.994484 2.76619M1.11593 2.70117L1.0432 2.76619M1.16464 2.70117L1.09191 2.76619M1.21335 2.70117L1.14062 2.76619M1.26207 2.70117L1.18934 2.76619L1.26138 2.70117M1.31078 2.70117L1.23737 2.76619M1.35949 2.70117L1.28539 2.76619M1.40684 2.70117L1.33411 2.76619M1.45555 2.70117L1.38282 2.76619M1.50495 2.70117L1.43222 2.76619M1.55366 2.70117L1.48094 2.76619M1.60238 2.70117L1.52965 2.76619M1.65109 2.70117L1.57836 2.76619M1.57836 2.70117L1.65109 2.76619M1.52965 2.70117L1.60238 2.76619M1.48094 2.70117L1.55366 2.76619M1.43222 2.70117L1.50495 2.76619M1.38351 2.70117L1.45624 2.76619M1.33479 2.70117L1.40752 2.76619M1.28608 2.70117L1.35949 2.76619M1.23737 2.70117L1.31009 2.76619M1.18797 2.70117L1.26138 2.76619M1.13994 2.70117L1.21267 2.76619M1.09123 2.70117L1.16395 2.76619M1.04251 2.70117L1.11524 2.76619M0.994484 2.70117L1.06653 2.76619M0.945084 2.70117L1.0185 2.76619M0.89637 2.70117L0.969784 2.76619M0.847656 2.70117L0.921756 2.76619M0.921756 3.07042L0.849028 3.13605M0.969784 3.07042L0.89637 3.13605M1.01918 3.07042L0.94577 3.13605M1.06721 3.07042L0.994484 3.13605M1.11593 3.07042L1.0432 3.13605M1.16464 3.07042L1.09191 3.13605M1.21335 3.07042L1.14131 3.13605M1.26207 3.07042L1.18934 3.13605M1.31078 3.07042L1.23737 3.13605M1.35881 3.07042L1.28539 3.13605M1.40889 3.07042L1.33548 3.13605M1.45692 3.07042L1.38419 3.13605M1.50495 3.07042L1.43222 3.13605M1.55366 3.07042L1.48094 3.13605M1.60238 3.07042L1.52965 3.13605M1.65109 3.07042L1.57836 3.13605M1.57836 3.07042L1.65109 3.13605M1.52965 3.07042L1.60238 3.13605M1.48094 3.07042L1.55366 3.13605M1.43222 3.07042L1.50495 3.13605M1.38351 3.07042L1.45624 3.13605M1.33479 3.07042L1.40821 3.13605M1.28539 3.07042L1.35881 3.13605M1.23737 3.07042L1.31009 3.13605M1.18934 3.07042L1.26207 3.13605M1.14062 3.07042L1.21335 3.13605M1.09191 3.07042L1.16464 3.13605M1.0432 3.07042L1.11593 3.13605M1.23805 3.07042L1.31078 3.13605M0.99517 3.07042L1.06721 3.13605M0.94577 3.07042L1.01918 3.13605M0.897056 3.07042L0.97047 3.13605M0.849028 3.07042L0.921756 3.13605" stroke="#EF2D28" stroke-width="0.246034"/>
</g>
</g>
<path id="Vector_15" fill-rule="evenodd" clip-rule="evenodd" d="M2.26629 3.75243C1.08655 4.90952 0.58327 5.05569 0.819885 5.14908C1.0565 5.24248 1.816 4.64516 2.60617 3.85248C3.39634 3.05981 3.88034 2.35375 3.64373 2.26036C3.40711 2.16697 3.52143 2.52281 2.26629 3.75243Z" fill="white" stroke="#EF2D28" stroke-width="0.411759"/>
<path id="Vector_16" fill-rule="evenodd" clip-rule="evenodd" d="M1.26889 4.5957L1.68262 4.70427C1.29359 5.07413 0.855856 5.22564 0.734414 5.16062C0.612973 5.0956 0.953283 4.94348 1.26958 4.59632L1.26889 4.5957Z" fill="white" stroke="#EF2D28" stroke-width="0.239883"/>
<path id="Vector_17" fill-rule="evenodd" clip-rule="evenodd" d="M1.27146 4.63867L1.6123 4.72537C1.23337 5.08101 0.858439 5.18186 0.761533 5.13822C0.663958 5.09516 0.964034 4.97308 1.27146 4.63867Z" fill="white" stroke="#EF2D28" stroke-width="0.232155"/>
<path id="Vector_18" d="M2.54102 3.70312C2.54005 3.7087 2.53715 3.73359 2.53473 3.74346C2.53473 3.75719 2.53328 3.76749 2.53184 3.77822C2.52797 3.78766 2.52845 3.79624 2.51686 3.79968C2.5115 3.80826 2.50296 3.81493 2.4927 3.81856C2.48341 3.82517 2.47317 3.83065 2.46226 3.83486C2.45083 3.83927 2.43808 3.84018 2.42602 3.83744C2.41539 3.831 2.40766 3.82414 2.39896 3.81856C2.39703 3.80998 2.39509 3.79753 2.39268 3.78895C2.39645 3.80039 2.39856 3.81222 2.39896 3.82414C2.39799 3.83701 2.39268 3.84302 2.38688 3.85332" stroke="#EF2D28" stroke-width="0.233139"/>
<path id="Vector_19" d="M2.42885 3.88173L2.42595 3.87916C2.43319 3.8856 2.4303 3.88259 2.41387 3.87358C2.40227 3.86843 2.38971 3.86586 2.37473 3.86328H2.33221C2.31578 3.86328 2.30467 3.86543 2.29307 3.86843C2.28437 3.87615 2.27181 3.88045 2.26263 3.88731C2.25447 3.89279 2.24826 3.90024 2.24475 3.90877C2.23654 3.91606 2.23122 3.92722 2.22349 3.9328C2.22011 3.94524 2.21334 3.94481 2.20851 3.95425C2.22301 3.95511 2.23412 3.95683 2.24185 3.96498C2.25441 3.97056 2.23122 3.9594 2.22639 3.95425C2.21673 3.95168 2.21431 3.9491 2.19933 3.9491C2.1858 3.94481 2.1771 3.95211 2.16309 3.95425C2.15488 3.95855 2.15246 3.95983 2.14183 3.95983" stroke="#EF2D28" stroke-width="0.233139"/>
<path id="Vector_20" d="M2.2666 4.01849C2.26032 4.01849 2.2323 4.02321 2.22118 4.01849C2.20862 4.01549 2.20185 4.00991 2.19412 3.99961C2.19026 3.99231 2.19412 4.01248 2.19412 4.02106C2.19267 4.03694 2.18736 4.03694 2.17866 4.04767C2.16996 4.05282 2.16078 4.05968 2.1516 4.06398C2.14355 4.06981 2.13439 4.07431 2.12454 4.07728C2.11488 4.08157 2.10473 4.085 2.09749 4.09058C2.08734 4.09702 2.08782 4.10474 2.08202 4.11504C2.08347 4.12791 2.08589 4.13564 2.0941 4.14165C2.09797 4.15066 2.1057 4.15967 2.11246 4.16568C2.11971 4.17855 2.12841 4.18413 2.10957 4.18713C2.09894 4.19142 2.09314 4.18799 2.08202 4.18713" stroke="#EF2D28" stroke-width="0.233139"/>
<path id="Vector_21" d="M2.07227 4.20471C2.06453 4.20299 2.03844 4.19527 2.02685 4.19141H1.98433C1.96838 4.19269 1.965 4.19698 1.95147 4.20213C1.94229 4.21029 1.93649 4.21587 1.92393 4.22102C1.91765 4.22831 1.9046 4.24118 1.89977 4.25062C1.89579 4.26172 1.89383 4.27331 1.89397 4.28495C1.89397 4.30083 1.8988 4.30384 1.89977 4.31757C1.90315 4.32936 1.90942 4.34035 1.91813 4.34975C1.91958 4.35318 1.92054 4.35404 1.92393 4.3549" stroke="#EF2D28" stroke-width="0.233139"/>
<path id="Vector_22" d="M1.92969 4.38854C1.92832 4.38854 1.92557 4.39532 1.92111 4.40107C1.91116 4.41124 1.91013 4.41191 1.89538 4.41191C1.88166 4.41124 1.88337 4.40649 1.87377 4.40345C1.86931 4.39667 1.86382 4.39125 1.85868 4.38211C1.85524 4.37669 1.85216 4.36822 1.84838 4.36314C1.84427 4.3567 1.83946 4.35196 1.83535 4.3462C1.83123 4.34451 1.82986 4.34281 1.82437 4.3418C1.83672 4.34383 1.83809 4.34823 1.84598 4.35467C1.84987 4.3608 1.85342 4.36713 1.85662 4.37364C1.85799 4.38278 1.86073 4.3899 1.86108 4.40107C1.86108 4.41293 1.86108 4.42106 1.85662 4.43088C1.85147 4.43596 1.84804 4.44138 1.84152 4.44579C1.8361 4.45098 1.83116 4.45665 1.82677 4.46272L1.80722 4.47526C1.80104 4.47898 1.79384 4.48271 1.78389 4.48372C1.7712 4.48271 1.76742 4.47932 1.75816 4.47526C1.74993 4.4695 1.74375 4.46577 1.73655 4.46035C1.73064 4.45554 1.72554 4.44982 1.72145 4.44342C1.71013 4.44071 1.70259 4.44172 1.69572 4.44782C1.6899 4.45183 1.6849 4.45689 1.68097 4.46272C1.67754 4.46442 1.67137 4.4695 1.66794 4.47119" stroke="#EF2D28" stroke-width="0.232711"/>
<path id="Vector_23" d="M1.69354 4.47656C1.69695 4.47783 1.70975 4.48671 1.71487 4.48967C1.71828 4.50108 1.72382 4.507 1.72553 4.51926C1.72852 4.53025 1.72852 4.54293 1.72852 4.55603C1.72553 4.56956 1.71999 4.57928 1.71487 4.58985C1.70634 4.59577 1.70207 4.6 1.69098 4.60591C1.68032 4.60761 1.66966 4.60887 1.65643 4.60887C1.6479 4.61141 1.63255 4.61268 1.62445 4.60887C1.6125 4.60718 1.60355 4.60253 1.59502 4.59831C1.58521 4.59281 1.57924 4.58731 1.56857 4.58224C1.56303 4.57463 1.55492 4.56745 1.54725 4.55857C1.54042 4.54969 1.53573 4.54462 1.53104 4.5349C1.5353 4.54589 1.54085 4.55603 1.54426 4.5666C1.55066 4.57759 1.55407 4.58182 1.55492 4.59535C1.55919 4.60634 1.55791 4.61986 1.55791 4.63255C1.55663 4.641 1.5562 4.65706 1.55236 4.66425V4.67228" stroke="#EF2D28" stroke-width="0.22948"/>
<path id="Vector_24" d="M1.29891 4.71584V4.72014C1.29891 4.70971 1.29891 4.71462 1.30372 4.73547C1.31126 4.74406 1.33116 4.74651 1.34626 4.74283C1.35998 4.7324 1.35998 4.72443 1.38468 4.72014C1.40938 4.72136 1.41898 4.7275 1.43271 4.73547C1.4473 4.74032 1.45947 4.74968 1.46701 4.76185C1.47181 4.77473 1.47456 4.78393 1.45809 4.78884C1.44375 4.79742 1.42725 4.80269 1.41006 4.80417C1.39085 4.80417 1.37645 4.80233 1.36753 4.81214C1.3538 4.82441 1.35518 4.83177 1.35518 4.85385C1.35037 4.8606 1.34969 4.88084 1.34626 4.88881C1.33445 4.89437 1.32115 4.89692 1.30783 4.89618C1.30303 4.88391 1.29823 4.86305 1.2948 4.85017C1.29137 4.83668 1.29068 4.81705 1.28176 4.80785C1.27389 4.79729 1.26389 4.78814 1.25226 4.78086C1.24532 4.77383 1.23627 4.76872 1.22619 4.76614C1.24334 4.7735 1.2454 4.78209 1.24746 4.80049C1.23305 4.80662 1.22893 4.81153 1.20492 4.81214C1.1809 4.8103 1.17542 4.80478 1.1665 4.79252C1.16444 4.81214 1.15758 4.81828 1.15277 4.83545C1.14454 4.84649 1.14111 4.85815 1.13219 4.87348C1.13562 4.89188 1.14385 4.8925 1.14454 4.91519C1.15003 4.93052 1.15003 4.94463 1.16169 4.95383C1.16718 4.95997 1.1713 4.96058 1.18365 4.96119C1.15895 4.96119 1.14385 4.95874 1.12739 4.95015C1.11504 4.94279 1.10543 4.9342 1.09308 4.92684C1.0776 4.91642 1.06018 4.90853 1.04162 4.90354C1.02173 4.90354 1.00732 4.9017 0.999085 4.91151C0.986735 4.91948 0.978502 4.93298 0.973013 4.95015C0.969582 4.96978 0.967524 4.98327 0.977816 4.99615C0.984677 5.01088 0.986735 5.0164 0.977816 5.03418C0.967524 5.04645 0.953116 5.04829 0.929788 5.0532C0.914007 5.05258 0.898227 5.04952 0.887249 5.04584" stroke="#EF2D28" stroke-width="0.239883"/>
<g id="Group_5">
<path id="Vector_25" fill-rule="evenodd" clip-rule="evenodd" d="M3.6084 2.71162C4.13161 1.806 4.47861 1.03428 4.384 0.9906C4.28841 0.946465 3.78633 1.64657 3.26311 2.5522L3.6084 2.71162Z" fill="white" stroke="#EF2D28" stroke-width="0.312784"/>
<g id="Vector_26">
<path fill-rule="evenodd" clip-rule="evenodd" d="M3.5735 2.69472C4.07825 1.82105 4.42586 1.08251 4.35017 1.04756C4.2737 1.01225 3.80202 1.69351 3.29727 2.56718" fill="white"/>
<path d="M3.5735 2.69472C4.07825 1.82105 4.42586 1.08251 4.35017 1.04756C4.2737 1.01225 3.80202 1.69351 3.29727 2.56718" stroke="#EF2D28" stroke-width="0.274784"/>
</g>
<path id="Vector_27" fill-rule="evenodd" clip-rule="evenodd" d="M3.48678 2.23889C3.42532 2.34099 3.36021 2.45797 3.29724 2.56696L3.57424 2.69486C3.63721 2.58587 3.70623 2.47069 3.76378 2.36679L3.48678 2.23889Z" fill="white" stroke="#EF2D28" stroke-width="0.311862"/>
<path id="Vector_28" fill-rule="evenodd" clip-rule="evenodd" d="M3.5111 2.27522C3.44933 2.37786 3.40689 2.4556 3.3436 2.56514L3.55038 2.66062C3.61335 2.55162 3.66033 2.47459 3.71788 2.37069L3.5111 2.27522Z" fill="white" stroke="#EF2D28" stroke-width="0.311862"/>
<g id="Vector_29">
<path fill-rule="evenodd" clip-rule="evenodd" d="M3.66147 2.39373L3.52297 2.32978L3.40018 2.54232L3.53868 2.60627L3.66147 2.39373ZM3.66147 2.39373L3.40018 2.54232ZM3.53868 2.60627L3.52297 2.32978ZM4.28613 1.3125L4.14763 1.24855Z" fill="white"/>
<path d="M3.66147 2.39373L3.52297 2.32978M3.66147 2.39373L3.53868 2.60627M3.66147 2.39373L3.40018 2.54232M3.52297 2.32978L3.40018 2.54232M3.52297 2.32978L3.53868 2.60627M3.40018 2.54232L3.53868 2.60627M4.28613 1.3125L4.14763 1.24855" stroke="#EF2D28" stroke-width="0.311862"/>
</g>
<path id="Vector_30" d="M4.2855 1.21229C4.26422 1.21767 4.24308 1.20686 4.23827 1.18814C4.23347 1.16942 4.24683 1.14989 4.26811 1.14451C4.28939 1.13913 4.31053 1.14994 4.31534 1.16866C4.32014 1.18737 4.30678 1.20691 4.2855 1.21229Z" fill="#EF0000" stroke="#EF2D28" stroke-width="0.404089"/>
</g>
<path id="Vector_31" fill-rule="evenodd" clip-rule="evenodd" d="M3.40363 3.73094C4.58338 4.88804 5.08665 5.0342 4.85004 5.1276C4.61342 5.22099 3.85392 4.62368 3.06375 3.831C2.27359 3.03832 1.78958 2.33227 2.02619 2.23887C2.26281 2.14548 2.14849 2.50132 3.40363 3.73094Z" fill="white" stroke="#EF2D28" stroke-width="0.411759"/>
<path id="Vector_32" fill-rule="evenodd" clip-rule="evenodd" d="M4.3981 4.57031L3.98438 4.67888C4.3734 5.04874 4.81114 5.20024 4.93258 5.13523C5.05402 5.07021 4.71371 4.91809 4.39741 4.57093L4.3981 4.57031Z" fill="white" stroke="#EF2D28" stroke-width="0.239883"/>
<path id="Vector_33" fill-rule="evenodd" clip-rule="evenodd" d="M4.39553 4.61719L4.05469 4.70389C4.43363 5.05952 4.80855 5.16038 4.90546 5.11673C5.00303 5.07368 4.70296 4.95159 4.39553 4.61719Z" fill="white" stroke="#EF2D28" stroke-width="0.232155"/>
<path id="Vector_34" d="M3.12988 3.68164C3.13085 3.68722 3.13375 3.71211 3.13616 3.72198C3.13616 3.73571 3.13761 3.74601 3.13906 3.75674C3.14293 3.76618 3.14245 3.77476 3.15404 3.77819C3.1594 3.78677 3.16793 3.79345 3.1782 3.79707C3.18749 3.80369 3.19772 3.80917 3.20864 3.81338C3.22006 3.81779 3.23282 3.8187 3.24488 3.81595C3.25551 3.80952 3.26324 3.80265 3.27194 3.79707C3.27387 3.78849 3.27581 3.77605 3.27822 3.76746C3.27445 3.77891 3.27234 3.79073 3.27194 3.80265C3.27291 3.81553 3.27822 3.82153 3.28402 3.83183" stroke="#EF2D28" stroke-width="0.233139"/>
<path id="Vector_35" d="M3.24205 3.86025L3.24495 3.85767C3.2377 3.86411 3.2406 3.86111 3.25703 3.8521C3.26863 3.84695 3.28119 3.84437 3.29617 3.8418H3.33869C3.35512 3.8418 3.36623 3.84394 3.37783 3.84695C3.38653 3.85467 3.39909 3.85896 3.40827 3.86583C3.41643 3.8713 3.42264 3.87875 3.42615 3.88728C3.43436 3.89458 3.43968 3.90574 3.44741 3.91131C3.45079 3.92376 3.45755 3.92333 3.46239 3.93277C3.44789 3.93363 3.43678 3.93534 3.42905 3.9435C3.41648 3.94908 3.43968 3.93792 3.44451 3.93277C3.45417 3.93019 3.45659 3.92762 3.47157 3.92762C3.4851 3.92333 3.49379 3.93062 3.50781 3.93277C3.51602 3.93706 3.51844 3.93835 3.52907 3.93835" stroke="#EF2D28" stroke-width="0.233139"/>
<path id="Vector_36" d="M3.40332 3.9931C3.4096 3.9931 3.43763 3.99782 3.44874 3.9931C3.4613 3.99009 3.46807 3.98452 3.4758 3.97422C3.47966 3.96692 3.4758 3.98709 3.4758 3.99567C3.47725 4.01155 3.48256 4.01155 3.49126 4.02228C3.49996 4.02743 3.50914 4.03429 3.51832 4.03858C3.52637 4.04442 3.53554 4.04892 3.54538 4.05189C3.55504 4.05618 3.56519 4.05961 3.57244 4.06519C3.58258 4.07163 3.5821 4.07935 3.5879 4.08965C3.58645 4.10252 3.58403 4.11025 3.57582 4.11625C3.57195 4.12527 3.56422 4.13428 3.55746 4.14029C3.55021 4.15316 3.54151 4.15874 3.56036 4.16174C3.57099 4.16603 3.57678 4.1626 3.5879 4.16174" stroke="#EF2D28" stroke-width="0.233139"/>
<path id="Vector_37" d="M3.59473 4.18322C3.60246 4.18151 3.62855 4.17378 3.64015 4.16992H3.68267C3.69861 4.17121 3.70199 4.1755 3.71552 4.18065C3.7247 4.1888 3.7305 4.19438 3.74307 4.19953C3.74935 4.20683 3.76239 4.2197 3.76722 4.22914C3.7712 4.24024 3.77316 4.25183 3.77302 4.26347C3.77302 4.27935 3.76819 4.28235 3.76722 4.29608C3.76384 4.30788 3.75757 4.31887 3.74886 4.32827C3.74741 4.3317 3.74645 4.33256 3.74307 4.33342" stroke="#EF2D28" stroke-width="0.233139"/>
<path id="Vector_38" d="M3.7373 4.36706C3.73868 4.36706 3.74142 4.37383 3.74588 4.37959C3.75583 4.38975 3.75686 4.39043 3.77161 4.39043C3.78533 4.38975 3.78362 4.38501 3.79322 4.38196C3.79768 4.37519 3.80317 4.36977 3.80832 4.36062C3.81175 4.3552 3.81484 4.34673 3.81861 4.34165C3.82273 4.33522 3.82753 4.33047 3.83164 4.32472C3.83576 4.32302 3.83713 4.32133 3.84262 4.32031C3.83027 4.32234 3.8289 4.32675 3.82101 4.33318C3.81712 4.33931 3.81357 4.34564 3.81038 4.35215C3.809 4.3613 3.80626 4.36841 3.80592 4.37959C3.80592 4.39145 3.80592 4.39958 3.81038 4.4094C3.81552 4.41448 3.81895 4.4199 3.82547 4.4243C3.83089 4.4295 3.83583 4.43517 3.84022 4.44124L3.85978 4.45377C3.86595 4.4575 3.87315 4.46122 3.8831 4.46224C3.8958 4.46122 3.89957 4.45784 3.90883 4.45377C3.91707 4.44801 3.92324 4.44429 3.93044 4.43887C3.93636 4.43405 3.94145 4.42833 3.94554 4.42193C3.95686 4.41922 3.96441 4.42024 3.97127 4.42634C3.97709 4.43035 3.98209 4.4354 3.98602 4.44124C3.98945 4.44293 3.99563 4.44801 3.99906 4.44971" stroke="#EF2D28" stroke-width="0.232711"/>
<path id="Vector_39" d="M3.97638 4.45508C3.97297 4.45635 3.96017 4.46522 3.95505 4.46818C3.95164 4.4796 3.9461 4.48551 3.94439 4.49777C3.94141 4.50876 3.94141 4.52145 3.94141 4.53455C3.94439 4.54808 3.94994 4.5578 3.95505 4.56837C3.96358 4.57429 3.96785 4.57851 3.97894 4.58443C3.9896 4.58612 4.00027 4.58739 4.01349 4.58739C4.02202 4.58993 4.03737 4.59119 4.04548 4.58739C4.05742 4.5857 4.06638 4.58105 4.07491 4.57682C4.08472 4.57133 4.09069 4.56583 4.10135 4.56076C4.10689 4.55315 4.115 4.54596 4.12268 4.53709C4.1295 4.52821 4.13419 4.52314 4.13888 4.51341C4.13462 4.5244 4.12907 4.53455 4.12566 4.54512C4.11926 4.55611 4.11585 4.56034 4.115 4.57386C4.11073 4.58485 4.11201 4.59838 4.11201 4.61106C4.11329 4.61952 4.11372 4.63558 4.11756 4.64277V4.6508" stroke="#EF2D28" stroke-width="0.22948"/>
<path id="Vector_40" d="M4.36808 4.69241V4.6967C4.36808 4.68627 4.36808 4.69118 4.36327 4.71203C4.35573 4.72062 4.33583 4.72307 4.32074 4.71939C4.30701 4.70897 4.30701 4.70099 4.28231 4.6967C4.25761 4.69793 4.24801 4.70406 4.23429 4.71203C4.21969 4.71688 4.20753 4.72624 4.19998 4.73841C4.19518 4.75129 4.19243 4.76049 4.2089 4.7654C4.22324 4.77398 4.23975 4.77925 4.25693 4.78073C4.27614 4.78073 4.29055 4.77889 4.29947 4.78871C4.31319 4.80097 4.31182 4.80833 4.31182 4.83042C4.31662 4.83716 4.31731 4.8574 4.32074 4.86538C4.33255 4.87094 4.34584 4.87348 4.35916 4.87274C4.36396 4.86047 4.36876 4.83962 4.37219 4.82673C4.37562 4.81324 4.37631 4.79361 4.38523 4.78441C4.3931 4.77385 4.4031 4.7647 4.41473 4.75742C4.42167 4.75039 4.43072 4.74528 4.44081 4.7427C4.42365 4.75006 4.42159 4.75865 4.41954 4.77705C4.43394 4.78319 4.43806 4.78809 4.46207 4.78871C4.48609 4.78687 4.49158 4.78135 4.5005 4.76908C4.50255 4.78871 4.50942 4.79484 4.51422 4.81201C4.52245 4.82305 4.52588 4.83471 4.5348 4.85004C4.53137 4.86844 4.52314 4.86906 4.52245 4.89175C4.51696 4.90709 4.51696 4.92119 4.5053 4.93039C4.49981 4.93653 4.49569 4.93714 4.48334 4.93776C4.50804 4.93776 4.52314 4.9353 4.5396 4.92671C4.55195 4.91935 4.56156 4.91077 4.57391 4.90341C4.58939 4.89298 4.60681 4.88509 4.62537 4.8801C4.64527 4.8801 4.65967 4.87826 4.66791 4.88807C4.68026 4.89605 4.68849 4.90954 4.69398 4.92671C4.69741 4.94634 4.69947 4.95984 4.68918 4.97272C4.68232 4.98744 4.68026 4.99296 4.68918 5.01075C4.69947 5.02301 4.71388 5.02485 4.7372 5.02976C4.75298 5.02915 4.76877 5.02608 4.77974 5.0224" stroke="#EF2D28" stroke-width="0.239883"/>
<g id="Group_6">
<path id="Vector_41" fill-rule="evenodd" clip-rule="evenodd" d="M2.0586 2.68623C1.53538 1.78061 1.18838 1.00889 1.28299 0.965209C1.37858 0.921074 1.88067 1.62118 2.40388 2.52681L2.0586 2.68623Z" fill="white" stroke="#EF2D28" stroke-width="0.312784"/>
<g id="Vector_42">
<path fill-rule="evenodd" clip-rule="evenodd" d="M2.09349 2.66933C1.58874 1.79566 1.24114 1.05711 1.31683 1.02217C1.3933 0.986858 1.86497 1.66812 2.36972 2.54179" fill="white"/>
<path d="M2.09349 2.66933C1.58874 1.79566 1.24114 1.05711 1.31683 1.02217C1.3933 0.986858 1.86497 1.66812 2.36972 2.54179" stroke="#EF2D28" stroke-width="0.274784"/>
</g>
<path id="Vector_43" fill-rule="evenodd" clip-rule="evenodd" d="M2.18022 2.2135C2.24167 2.31559 2.30679 2.43258 2.36976 2.54157L2.09275 2.66947C2.02978 2.56048 1.96077 2.4453 1.90321 2.3414L2.18022 2.2135Z" fill="white" stroke="#EF2D28" stroke-width="0.311862"/>
<path id="Vector_44" fill-rule="evenodd" clip-rule="evenodd" d="M2.15589 2.24983C2.21766 2.35247 2.2601 2.43021 2.32339 2.53975L2.11661 2.63523C2.05364 2.52623 2.00666 2.4492 1.94911 2.3453L2.15589 2.24983Z" fill="white" stroke="#EF2D28" stroke-width="0.311862"/>
<g id="Vector_45">
<path fill-rule="evenodd" clip-rule="evenodd" d="M2.00552 2.36834L2.14402 2.30439L2.26681 2.51693L2.12831 2.58088L2.00552 2.36834ZM2.00552 2.36834L2.26681 2.51693ZM2.12831 2.58088L2.14402 2.30439ZM1.38086 1.28711L1.51936 1.22316Z" fill="white"/>
<path d="M2.00552 2.36834L2.14402 2.30439M2.00552 2.36834L2.12831 2.58088M2.00552 2.36834L2.26681 2.51693M2.14402 2.30439L2.26681 2.51693M2.14402 2.30439L2.12831 2.58088M2.26681 2.51693L2.12831 2.58088M1.38086 1.28711L1.51936 1.22316" stroke="#EF2D28" stroke-width="0.311862"/>
</g>
<path id="Vector_46" d="M1.38149 1.1869C1.40277 1.19228 1.42392 1.18147 1.42872 1.16275C1.43352 1.14403 1.42017 1.1245 1.39888 1.11912C1.3776 1.11374 1.35646 1.12455 1.35165 1.14327C1.34685 1.16198 1.36021 1.18152 1.38149 1.1869Z" fill="#EF0000" stroke="#EF2D28" stroke-width="0.404089"/>
</g>
<g id="Group_7">
<path id="Vector_47" fill-rule="evenodd" clip-rule="evenodd" d="M2.4773 2.22461C2.4773 2.98519 2.48188 3.27163 2.42607 3.31089C2.37302 3.35321 0.897461 3.31089 0.897461 3.52802C0.897461 3.74516 2.1123 3.96352 2.4773 3.96352C2.96397 3.96352 3.20639 3.74577 3.20639 3.31089V2.22522H2.4773V2.22461Z" fill="white" stroke="#EF2D28" stroke-width="0.284092"/>
<path id="Vector_48" fill-rule="evenodd" clip-rule="evenodd" d="M2.47754 2.44141V2.54997C2.71874 2.58613 2.96499 2.58613 3.20619 2.54997V2.44141C2.96499 2.47756 2.71874 2.47756 2.47754 2.44141Z" fill="white" stroke="#EF2D28" stroke-width="0.246034"/>
<path id="Vector_49" fill-rule="evenodd" clip-rule="evenodd" d="M2.47754 2.22461V2.33318C2.71874 2.36933 2.96499 2.36933 3.20619 2.33318V2.22461C2.96499 2.26077 2.71874 2.26077 2.47754 2.22461Z" fill="white" stroke="#EF2D28" stroke-width="0.246034"/>
<path id="Vector_50" fill-rule="evenodd" clip-rule="evenodd" d="M2.47754 2.33398V2.44255C2.71874 2.47871 2.96499 2.47871 3.20619 2.44255V2.33398C2.96499 2.37014 2.71874 2.37014 2.47754 2.33398Z" fill="white" stroke="#EF2D28" stroke-width="0.246034"/>
<path id="Vector_51" fill-rule="evenodd" clip-rule="evenodd" d="M2.47754 2.55078V2.65935C2.71874 2.6955 2.96499 2.6955 3.20619 2.65935V2.55078C2.96499 2.58694 2.71874 2.58694 2.47754 2.55078Z" fill="white" stroke="#EF2D28" stroke-width="0.246034"/>
<path id="Vector_52" d="M2.51085 2.41803C2.52924 2.41803 2.54415 2.40752 2.54415 2.39456C2.54415 2.3816 2.52924 2.37109 2.51085 2.37109C2.49245 2.37109 2.47754 2.3816 2.47754 2.39456C2.47754 2.40752 2.49245 2.41803 2.51085 2.41803Z" fill="white" stroke="#EF2D28" stroke-width="0.232579"/>
<path id="Vector_53" d="M2.64366 2.42975C2.66205 2.42975 2.67697 2.41924 2.67697 2.40628C2.67697 2.39332 2.66205 2.38281 2.64366 2.38281C2.62526 2.38281 2.61035 2.39332 2.61035 2.40628C2.61035 2.41924 2.62526 2.42975 2.64366 2.42975Z" fill="white" stroke="#EF2D28" stroke-width="0.232579"/>
<path id="Vector_54" d="M2.77647 2.44146C2.79487 2.44146 2.80978 2.43096 2.80978 2.418C2.80978 2.40504 2.79487 2.39453 2.77647 2.39453C2.75808 2.39453 2.74316 2.40504 2.74316 2.418C2.74316 2.43096 2.75808 2.44146 2.77647 2.44146Z" fill="white" stroke="#EF2D28" stroke-width="0.232579"/>
<path id="Vector_55" d="M2.90831 2.44146C2.9267 2.44146 2.94161 2.43096 2.94161 2.418C2.94161 2.40504 2.9267 2.39453 2.90831 2.39453C2.88991 2.39453 2.875 2.40504 2.875 2.418C2.875 2.43096 2.88991 2.44146 2.90831 2.44146Z" fill="white" stroke="#EF2D28" stroke-width="0.232579"/>
<path id="Vector_56" d="M3.04112 2.42975C3.05951 2.42975 3.07443 2.41924 3.07443 2.40628C3.07443 2.39332 3.05951 2.38281 3.04112 2.38281C3.02272 2.38281 3.00781 2.39332 3.00781 2.40628C3.00781 2.41924 3.02272 2.42975 3.04112 2.42975Z" fill="white" stroke="#EF2D28" stroke-width="0.232579"/>
<path id="Vector_57" d="M3.17393 2.41803C3.19233 2.41803 3.20724 2.40752 3.20724 2.39456C3.20724 2.3816 3.19233 2.37109 3.17393 2.37109C3.15554 2.37109 3.14062 2.3816 3.14062 2.39456C3.14062 2.40752 3.15554 2.41803 3.17393 2.41803Z" fill="white" stroke="#EF2D28" stroke-width="0.232579"/>
<g id="Vector_58">
<path fill-rule="evenodd" clip-rule="evenodd" d="M2.47742 2.76758L3.20607 3.35457ZM2.55015 2.76758L3.20675 3.28894ZM2.64689 2.78966L3.20675 3.22454ZM2.71962 2.78905L3.20675 3.15891ZM2.79303 2.78966L3.20607 3.09389ZM2.86576 2.78966L3.20607 3.02887ZM2.93849 2.78966L3.20607 2.96324ZM3.01259 2.78966L3.20744 2.91969ZM3.08463 2.78966L3.20675 2.87676ZM3.15804 2.78966L3.20607 2.8326ZM2.47742 2.8326L3.20607 3.4202ZM3.20607 2.76819L2.40332 3.41959ZM3.13265 2.76758L2.42802 3.33311ZM3.03591 2.78966L2.47673 3.22393ZM2.9625 2.78966L2.47673 3.15891ZM2.89046 2.78966L2.47742 3.09389ZM2.81773 2.78966L2.47742 3.02887ZM2.745 2.78966L2.47742 2.96324ZM2.6709 2.78966L2.47673 2.91969ZM2.59818 2.78966L2.47673 2.87676ZM2.52476 2.78966L2.47673 2.8326ZM3.20607 2.8326L2.40332 3.48584ZM3.20607 2.89884L2.40332 3.55024ZM3.20607 2.96324L2.40332 3.61526ZM3.20607 3.02826L2.40332 3.6815ZM3.20607 3.09451L2.40332 3.74591ZM3.20607 3.15891L2.40332 3.81092ZM3.20607 3.22393L2.40332 3.87594ZM3.20607 3.28956L2.40332 3.94157ZM3.20607 3.35457L2.45203 3.96304ZM3.20607 3.41959L2.52545 3.96304ZM3.18137 3.50669L2.6462 3.94157ZM3.15804 3.59318L2.7203 3.94096ZM3.10933 3.70174L2.88977 3.87533ZM2.47742 2.89761L3.18205 3.46253ZM2.47742 2.96263L3.18205 3.52816ZM2.47742 3.02887L3.15804 3.57171ZM2.47742 3.09328L3.15804 3.63734ZM2.47742 3.15891L3.13334 3.68027ZM2.45272 3.20246L3.10933 3.72382ZM2.45272 3.26809L3.06061 3.74652ZM2.42871 3.31102L3.0366 3.78945ZM2.40332 3.35396L2.98651 3.81031ZM2.40332 3.41898L2.9625 3.85386ZM2.40332 3.48461L2.89046 3.87533Z" fill="white"/>
<path d="M2.47742 2.76758L3.20607 3.35457L2.45203 3.96304M2.55015 2.76758L3.20675 3.28894M2.64689 2.78966L3.20675 3.22454M2.71962 2.78905L3.20675 3.15891M2.79303 2.78966L3.20607 3.09389M2.86576 2.78966L3.20607 3.02887M2.93849 2.78966L3.20607 2.96324L2.40332 3.61526M3.01259 2.78966L3.20744 2.91969M3.08463 2.78966L3.20675 2.87676M3.15804 2.78966L3.20607 2.8326L2.40332 3.48584M2.47742 2.8326L3.20607 3.4202M3.20607 2.76819L2.40332 3.41959M3.13265 2.76758L2.42802 3.33311M3.03591 2.78966L2.47673 3.22393M2.9625 2.78966L2.47673 3.15891M2.89046 2.78966L2.47742 3.09389M2.81773 2.78966L2.47742 3.02887L3.15804 3.57171M2.745 2.78966L2.47742 2.96324M2.6709 2.78966L2.47673 2.91969M2.59818 2.78966L2.47673 2.87676M2.52476 2.78966L2.47673 2.8326M3.20607 2.89884L2.40332 3.55024M3.20607 3.02826L2.40332 3.6815M3.20607 3.09451L2.40332 3.74591M3.20607 3.15891L2.40332 3.81092M3.20607 3.22393L2.40332 3.87594M3.20607 3.28956L2.40332 3.94157M3.20607 3.41959L2.52545 3.96304M3.18137 3.50669L2.6462 3.94157M3.15804 3.59318L2.7203 3.94096M3.10933 3.70174L2.88977 3.87533M2.47742 2.89761L3.18205 3.46253M2.47742 2.96263L3.18205 3.52816M2.47742 3.09328L3.15804 3.63734M2.47742 3.15891L3.13334 3.68027M2.45272 3.20246L3.10933 3.72382M2.45272 3.26809L3.06061 3.74652M2.42871 3.31102L3.0366 3.78945M2.40332 3.35396L2.98651 3.81031M2.40332 3.41898L2.9625 3.85386M2.40332 3.48461L2.89046 3.87533" stroke="#EF2D28" stroke-width="0.246034"/>
</g>
<path id="Vector_59" fill-rule="evenodd" clip-rule="evenodd" d="M2.47754 2.66016V2.76872C2.71874 2.80488 2.96499 2.80488 3.20619 2.76872V2.66016C2.96499 2.69631 2.71874 2.69631 2.47754 2.66016Z" fill="white" stroke="#EF2D28" stroke-width="0.246034"/>
<g id="Vector_60">
<path fill-rule="evenodd" clip-rule="evenodd" d="M2.40401 3.55078L2.84174 3.89856ZM2.40401 3.61641L2.79303 3.92003ZM2.40401 3.68082L2.74432 3.94211ZM2.40401 3.74583L2.64758 3.94211ZM2.40332 3.81146L2.59818 3.96358ZM2.40332 3.87648L2.52476 3.96358Z" fill="white"/>
<path d="M2.40401 3.55078L2.84174 3.89856M2.40401 3.61641L2.79303 3.92003M2.40401 3.68082L2.74432 3.94211M2.40401 3.74583L2.64758 3.94211M2.40332 3.81146L2.59818 3.96358M2.40332 3.87648L2.52476 3.96358" stroke="#EF2D28" stroke-width="0.246034"/>
</g>
<path id="Vector_61" d="M2.51085 2.7442C2.52924 2.7442 2.54415 2.73369 2.54415 2.72073C2.54415 2.70777 2.52924 2.69727 2.51085 2.69727C2.49245 2.69727 2.47754 2.70777 2.47754 2.72073C2.47754 2.73369 2.49245 2.7442 2.51085 2.7442Z" fill="white" stroke="#EF2D28" stroke-width="0.232579"/>
<path id="Vector_62" d="M2.64366 2.75592C2.66205 2.75592 2.67697 2.74541 2.67697 2.73245C2.67697 2.71949 2.66205 2.70898 2.64366 2.70898C2.62526 2.70898 2.61035 2.71949 2.61035 2.73245C2.61035 2.74541 2.62526 2.75592 2.64366 2.75592Z" fill="white" stroke="#EF2D28" stroke-width="0.232579"/>
<path id="Vector_63" d="M2.77647 2.76764C2.79487 2.76764 2.80978 2.75713 2.80978 2.74417C2.80978 2.73121 2.79487 2.7207 2.77647 2.7207C2.75808 2.7207 2.74316 2.73121 2.74316 2.74417C2.74316 2.75713 2.75808 2.76764 2.77647 2.76764Z" fill="white" stroke="#EF2D28" stroke-width="0.232579"/>
<path id="Vector_64" d="M2.90831 2.76764C2.9267 2.76764 2.94161 2.75713 2.94161 2.74417C2.94161 2.73121 2.9267 2.7207 2.90831 2.7207C2.88991 2.7207 2.875 2.73121 2.875 2.74417C2.875 2.75713 2.88991 2.76764 2.90831 2.76764Z" fill="white" stroke="#EF2D28" stroke-width="0.232579"/>
<path id="Vector_65" d="M3.04112 2.75592C3.05951 2.75592 3.07443 2.74541 3.07443 2.73245C3.07443 2.71949 3.05951 2.70898 3.04112 2.70898C3.02272 2.70898 3.00781 2.71949 3.00781 2.73245C3.00781 2.74541 3.02272 2.75592 3.04112 2.75592Z" fill="white" stroke="#EF2D28" stroke-width="0.232579"/>
<path id="Vector_66" d="M3.17393 2.7442C3.19233 2.7442 3.20724 2.73369 3.20724 2.72073C3.20724 2.70777 3.19233 2.69727 3.17393 2.69727C3.15554 2.69727 3.14062 2.70777 3.14062 2.72073C3.14062 2.73369 3.15554 2.7442 3.17393 2.7442Z" fill="white" stroke="#EF2D28" stroke-width="0.232579"/>
<g id="Vector_67">
<path fill-rule="evenodd" clip-rule="evenodd" d="M1.43198 3.78838L2.30677 3.33203ZM1.38327 3.7663L2.21003 3.33203ZM1.35926 3.72275L2.1126 3.33203ZM1.33456 3.67981L1.99116 3.33203ZM1.28516 3.63626L1.89305 3.33203ZM1.30986 3.57125L1.72289 3.3535ZM1.28516 3.52708L1.60077 3.3535ZM1.28516 3.46207L1.50471 3.3535ZM1.50471 3.80985L2.33079 3.37497ZM1.57812 3.83132L2.35549 3.41852ZM1.65085 3.8534L2.38019 3.46207ZM1.72358 3.87486L2.33147 3.54916ZM1.82032 3.87486L2.35549 3.59271ZM1.89305 3.89695L2.3548 3.65773ZM1.96578 3.91841L2.33079 3.72275ZM2.0632 3.91903L2.3548 3.7663ZM2.16063 3.9405L2.35549 3.83132ZM2.25943 3.9405L2.38087 3.87548Z" fill="white"/>
<path d="M1.43198 3.78838L2.30677 3.33203M1.38327 3.7663L2.21003 3.33203M1.35926 3.72275L2.1126 3.33203M1.33456 3.67981L1.99116 3.33203M1.28516 3.63626L1.89305 3.33203M1.30986 3.57125L1.72289 3.3535M1.28516 3.52708L1.60077 3.3535M1.28516 3.46207L1.50471 3.3535M1.50471 3.80985L2.33079 3.37497M1.57812 3.83132L2.35549 3.41852M1.65085 3.8534L2.38019 3.46207M1.72358 3.87486L2.33147 3.54916M1.82032 3.87486L2.35549 3.59271M1.89305 3.89695L2.3548 3.65773M1.96578 3.91841L2.33079 3.72275M2.0632 3.91903L2.3548 3.7663M2.16063 3.9405L2.35549 3.83132M2.25943 3.9405L2.38087 3.87548" stroke="#EF2D28" stroke-width="0.246034"/>
</g>
<path id="Vector_68" fill-rule="evenodd" clip-rule="evenodd" d="M2.42871 3.31055H2.30727C2.26683 3.52618 2.26683 3.74632 2.30727 3.96195H2.42871C2.38827 3.74632 2.38827 3.52618 2.42871 3.31055Z" fill="white" stroke="#EF2D28" stroke-width="0.246034"/>
<g id="Vector_69">
<path fill-rule="evenodd" clip-rule="evenodd" d="M0.994141 3.61557L1.28574 3.39844ZM0.994141 3.46345L1.28574 3.72414Z" fill="white"/>
<path d="M0.994141 3.61557L1.28574 3.39844M0.994141 3.46345L1.28574 3.72414" stroke="#EF2D28" stroke-width="0.246034"/>
</g>
<path id="Vector_70" fill-rule="evenodd" clip-rule="evenodd" d="M1.43164 3.35352L1.28564 3.37527C1.25325 3.51318 1.25325 3.62894 1.28564 3.76684L1.43164 3.80996C1.39926 3.67245 1.39926 3.49142 1.43164 3.35352Z" fill="white" stroke="#EF2D28" stroke-width="0.175128"/>
<path id="Vector_71" fill-rule="evenodd" clip-rule="evenodd" d="M3.20639 2.26717V2.15738C3.09639 2.15861 3.02341 2.09297 3.02341 2.02734L2.65949 2.02796C2.65949 2.09297 2.58753 2.15861 2.47754 2.15861V2.26717H3.20639Z" fill="white" stroke="#EF2D28" stroke-width="0.301158"/>
<g id="Vector_72">
<path fill-rule="evenodd" clip-rule="evenodd" d="M2.68457 1.89754H2.99744V2.02819H2.68457V1.89754ZM2.71133 1.76689H2.97136V1.89754H2.71064L2.71133 1.76689ZM2.71133 1.63686H2.97136V1.76689H2.71064L2.71133 1.63686ZM2.7374 1.46266H2.94529V1.63686H2.7374V1.46266ZM2.72848 1.31055H2.9549V1.46266H2.72848V1.31055Z" fill="white"/>
<path d="M2.97136 1.76689H2.71133L2.71064 1.89754H2.97136V1.76689ZM2.97136 1.76689V1.63686H2.71133L2.71064 1.76689H2.97136ZM2.68457 1.89754H2.99744V2.02819H2.68457V1.89754ZM2.7374 1.46266H2.94529V1.63686H2.7374V1.46266ZM2.72848 1.31055H2.9549V1.46266H2.72848V1.31055Z" stroke="#EF2D28" stroke-width="0.258335"/>
</g>
<path id="Vector_73" d="M2.85404 1.3763C3.02045 1.3763 3.15535 1.28376 3.15535 1.1696C3.15535 1.05544 3.02045 0.962891 2.85404 0.962891C2.68763 0.962891 2.55273 1.05544 2.55273 1.1696C2.55273 1.28376 2.68763 1.3763 2.85404 1.3763Z" fill="white" stroke="#EF2D28" stroke-width="0.250097"/>
<path id="Vector_74" fill-rule="evenodd" clip-rule="evenodd" d="M3.00509 1.1599C3.00509 1.21694 3.08024 1.31201 3.08024 1.31201C3.02565 1.35004 2.93703 1.37764 2.85409 1.37764C2.77114 1.37764 2.66763 1.36169 2.62793 1.31201C2.62793 1.31201 2.70308 1.21755 2.70308 1.16051C2.70308 1.10347 2.62793 1.02986 2.62793 1.02986C2.69373 0.988029 2.77314 0.965271 2.8548 0.964844C2.93703 0.964844 3.02495 0.992445 3.08024 1.02986C3.08024 1.02986 3.00509 1.10347 3.00509 1.16051V1.1599Z" fill="white" stroke="#EF2D28" stroke-width="0.250097"/>
<path id="Vector_75" fill-rule="evenodd" clip-rule="evenodd" d="M2.95423 1.1599C2.95423 1.21694 3.02938 1.33409 3.02938 1.33409C2.97479 1.3709 2.93721 1.37703 2.85356 1.37703C2.7699 1.37703 2.71744 1.38378 2.67773 1.33409C2.67773 1.33409 2.75288 1.21755 2.75288 1.1599C2.75288 1.10224 2.67773 1.00778 2.67773 1.00778C2.73232 0.970978 2.7699 0.964844 2.85356 0.964844C2.9365 0.964844 2.97479 0.970978 3.02938 1.00778C3.02938 1.00778 2.95423 1.10285 2.95423 1.1599Z" fill="white" stroke="#EF2D28" stroke-width="0.250097"/>
<path id="Vector_76" d="M2.55269 1.24527C2.59419 1.24527 2.62784 1.21616 2.62784 1.18025C2.62784 1.14434 2.59419 1.11523 2.55269 1.11523C2.51118 1.11523 2.47754 1.14434 2.47754 1.18025C2.47754 1.21616 2.51118 1.24527 2.55269 1.24527Z" fill="white" stroke="#EF2D28" stroke-width="0.250097"/>
<path id="Vector_77" d="M3.15523 1.24527C3.19673 1.24527 3.23038 1.21616 3.23038 1.18025C3.23038 1.14434 3.19673 1.11523 3.15523 1.11523C3.11372 1.11523 3.08008 1.14434 3.08008 1.18025C3.08008 1.21616 3.11372 1.24527 3.15523 1.24527Z" fill="white" stroke="#EF2D28" stroke-width="0.250097"/>
<path id="Vector_78" d="M2.85445 1.24527C2.89595 1.24527 2.9296 1.21616 2.9296 1.18025C2.9296 1.14434 2.89595 1.11523 2.85445 1.11523C2.81294 1.11523 2.7793 1.14434 2.7793 1.18025C2.7793 1.21616 2.81294 1.24527 2.85445 1.24527Z" fill="white" stroke="#EF2D28" stroke-width="0.250097"/>
<path id="Vector_79" d="M2.85445 1.02847C2.89595 1.02847 2.9296 0.999363 2.9296 0.963455C2.9296 0.927547 2.89595 0.898438 2.85445 0.898438C2.81294 0.898438 2.7793 0.927547 2.7793 0.963455C2.7793 0.999363 2.81294 1.02847 2.85445 1.02847Z" fill="white" stroke="#EF2D28" stroke-width="0.250097"/>
<path id="Vector_80" d="M2.6335 2.26675C2.67648 2.26675 2.71133 2.23764 2.71133 2.20174C2.71133 2.16583 2.67648 2.13672 2.6335 2.13672C2.59051 2.13672 2.55566 2.16583 2.55566 2.20174C2.55566 2.23764 2.59051 2.26675 2.6335 2.26675Z" fill="white" stroke="#EF2D28" stroke-width="0.254523"/>
<path id="Vector_81" d="M3.04951 2.26675C3.0925 2.26675 3.12735 2.23764 3.12735 2.20174C3.12735 2.16583 3.0925 2.13672 3.04951 2.13672C3.00653 2.13672 2.97168 2.16583 2.97168 2.20174C2.97168 2.23764 3.00653 2.26675 3.04951 2.26675Z" fill="white" stroke="#EF2D28" stroke-width="0.254523"/>
<path id="Vector_82" fill-rule="evenodd" clip-rule="evenodd" d="M2.65918 2.02734H3.02338L2.84128 2.22301L2.65918 2.02734Z" fill="white" stroke="#EF2D28" stroke-width="0.254523"/>
<path id="Vector_83" d="M2.84109 2.26713C2.8984 2.26713 2.94487 2.22831 2.94487 2.18044C2.94487 2.13256 2.8984 2.09375 2.84109 2.09375C2.78377 2.09375 2.7373 2.13256 2.7373 2.18044C2.7373 2.22831 2.78377 2.26713 2.84109 2.26713Z" fill="white" stroke="#EF2D28" stroke-width="0.339368"/>
</g>
<g id="Group_8">
<path id="Vector_84" d="M2.97137 2.83398H2.47257C2.4559 2.83398 2.44238 2.84442 2.44238 2.85729V2.94132C2.44238 2.9542 2.4559 2.96463 2.47257 2.96463H2.97137C2.98805 2.96463 3.00156 2.9542 3.00156 2.94132V2.85729C3.00156 2.84442 2.98805 2.83398 2.97137 2.83398Z" fill="white" stroke="#EF2D28" stroke-width="0.239883"/>
<path id="Vector_85" fill-rule="evenodd" clip-rule="evenodd" d="M3.17136 2.72521C3.10413 2.72521 3.04992 2.77612 3.04992 2.83868V2.93743C3.04947 2.95203 3.05226 2.96657 3.05813 2.9802C3.064 2.99383 3.07284 3.00629 3.08414 3.01684C3.09543 3.02739 3.10896 3.03584 3.12393 3.04169C3.13891 3.04754 3.15503 3.05067 3.17136 3.05091C3.1877 3.05067 3.20382 3.04754 3.2188 3.04169C3.23377 3.03584 3.24729 3.02739 3.25859 3.01684C3.26989 3.00629 3.27873 2.99383 3.2846 2.9802C3.29047 2.96657 3.29326 2.95203 3.29281 2.93743V2.83929C3.29336 2.82464 3.29063 2.81004 3.2848 2.79634C3.27897 2.78263 3.27015 2.77011 3.25884 2.75949C3.24754 2.74887 3.23398 2.74037 3.21896 2.73448C3.20394 2.7286 3.18776 2.72544 3.17136 2.72521ZM3.17136 2.76814C3.13088 2.76814 3.09864 2.80924 3.09864 2.85953V2.91658C3.09864 2.96687 3.13088 3.00736 3.17136 3.00736C3.21185 3.00736 3.24409 2.96687 3.24409 2.91658V2.85953C3.24409 2.80924 3.21185 2.76876 3.17136 2.76876V2.76814ZM2.53946 2.74667C2.49829 2.74667 2.46673 2.78716 2.46673 2.83807V2.93866C2.46673 2.98896 2.49898 3.02944 2.53946 3.02944C2.57994 3.02944 2.61219 2.98896 2.61219 2.93866V2.83745C2.61219 2.78654 2.57994 2.74606 2.53946 2.74606V2.74667ZM2.53946 2.70374C2.52312 2.70398 2.507 2.70711 2.49203 2.71296C2.47705 2.71881 2.46353 2.72725 2.45223 2.7378C2.44094 2.74836 2.4321 2.76081 2.42622 2.77444C2.42035 2.78807 2.41756 2.80261 2.41802 2.81721V2.95951C2.41756 2.97412 2.42035 2.98865 2.42622 3.00228C2.4321 3.01591 2.44094 3.02837 2.45223 3.03892C2.46353 3.04948 2.47705 3.05792 2.49203 3.06377C2.507 3.06962 2.52312 3.07275 2.53946 3.07299C2.6067 3.07299 2.6609 3.02208 2.6609 2.95951V2.81721C2.66145 2.80256 2.65873 2.78796 2.6529 2.77426C2.64706 2.76055 2.63824 2.74803 2.62693 2.73741C2.61563 2.72679 2.60207 2.71829 2.58705 2.7124C2.57203 2.70651 2.55585 2.70336 2.53946 2.70312V2.70374Z" fill="white" stroke="#EF2D28" stroke-width="0.239883"/>
<path id="Vector_86" fill-rule="evenodd" clip-rule="evenodd" d="M2.34415 2.78964C2.30367 2.78964 2.27142 2.83013 2.27142 2.88042V2.90434C2.27142 2.95464 2.30367 2.99512 2.34415 2.99512C2.38531 2.99512 2.41756 2.95464 2.41756 2.90434V2.88042C2.41756 2.83013 2.38463 2.78964 2.34415 2.78964ZM2.34415 2.74671C2.32781 2.74694 2.31169 2.75008 2.29671 2.75593C2.28174 2.76177 2.26822 2.77022 2.25692 2.78077C2.24562 2.79133 2.23678 2.80378 2.23091 2.81741C2.22504 2.83104 2.22225 2.84558 2.2227 2.86018V2.9252C2.22225 2.9398 2.22504 2.95434 2.23091 2.96797C2.23678 2.9816 2.24562 2.99405 2.25692 3.00461C2.26822 3.01516 2.28174 3.0236 2.29671 3.02945C2.31169 3.0353 2.32781 3.03843 2.34415 3.03867C2.41138 3.03867 2.46627 2.98776 2.46627 2.9252V2.86018C2.46682 2.84548 2.46408 2.83083 2.45821 2.81708C2.45233 2.80334 2.44344 2.79079 2.43207 2.78016C2.42069 2.76953 2.40705 2.76104 2.39195 2.75519C2.37685 2.74934 2.3606 2.74625 2.34415 2.74609V2.74671Z" fill="white" stroke="#EF2D28" stroke-width="0.239883"/>
<path id="Vector_87" fill-rule="evenodd" clip-rule="evenodd" d="M2.05394 2.73031C1.97984 2.73031 1.92179 2.77555 1.92179 2.83177V2.94487C1.92179 3.0004 1.98107 3.04633 2.05394 3.04633C2.12557 3.04633 2.18485 3.00109 2.18485 2.94419V2.83177C2.18485 2.77555 2.12557 2.73031 2.05394 2.73031ZM2.05394 2.68233C2.02453 2.6825 1.99548 2.68592 1.96847 2.69237C1.94146 2.69882 1.91703 2.70819 1.89658 2.71992C1.87613 2.73165 1.86008 2.74551 1.84936 2.76071C1.83864 2.77591 1.83345 2.79214 1.83411 2.80846V2.9675C1.83312 2.98387 1.83802 3.00019 1.84852 3.0155C1.85901 3.03082 1.8749 3.04482 1.89525 3.05669C1.91559 3.06855 1.94 3.07806 1.96703 3.08463C1.99407 3.09121 2.02319 3.09474 2.0527 3.095C2.17497 3.095 2.27253 3.0381 2.27253 2.9675V2.80846C2.27335 2.79214 2.26833 2.77589 2.25776 2.76066C2.24719 2.74543 2.23128 2.73151 2.21094 2.71971C2.19061 2.70792 2.16627 2.69848 2.13931 2.69194C2.11236 2.68541 2.08334 2.68191 2.05394 2.68164V2.68233Z" fill="white" stroke="#EF2D28" stroke-width="0.235547"/>
<path id="Vector_88" fill-rule="evenodd" clip-rule="evenodd" d="M3.63402 2.7518C3.55992 2.7518 3.50187 2.79704 3.50187 2.85325V2.96636C3.50187 3.02188 3.56115 3.06781 3.63402 3.06781C3.70565 3.06781 3.76493 3.02257 3.76493 2.96567V2.85325C3.76493 2.79704 3.70565 2.7518 3.63402 2.7518ZM3.63402 2.70381C3.60461 2.70399 3.57556 2.7074 3.54855 2.71385C3.52154 2.72031 3.4971 2.72967 3.47666 2.7414C3.45621 2.75313 3.44016 2.767 3.42944 2.7822C3.41872 2.7974 3.41353 2.81362 3.41419 2.82994V2.98898C3.4132 3.00535 3.4181 3.02168 3.42859 3.03699C3.43909 3.0523 3.45498 3.0663 3.47532 3.07817C3.49567 3.09004 3.52008 3.09954 3.54711 3.10612C3.57414 3.1127 3.60327 3.11622 3.63278 3.11648C3.75505 3.11648 3.85261 3.05959 3.85261 2.98898V2.82994C3.85343 2.81362 3.84841 2.79738 3.83784 2.78214C3.82727 2.76691 3.81135 2.75299 3.79102 2.7412C3.77069 2.7294 3.74634 2.71996 3.71939 2.71343C3.69244 2.70689 3.66342 2.70339 3.63402 2.70312V2.70381Z" fill="white" stroke="#EF2D28" stroke-width="0.235547"/>
<path id="Vector_89" d="M3.49554 2.83398H3.23551C3.22679 2.83398 3.21973 2.84442 3.21973 2.85729V2.94132C3.21973 2.9542 3.22679 2.96463 3.23551 2.96463H3.49554C3.50426 2.96463 3.51132 2.9542 3.51132 2.94132V2.85729C3.51132 2.84442 3.50426 2.83398 3.49554 2.83398Z" fill="white" stroke="#EF2D28" stroke-width="0.239883"/>
<path id="Vector_90" d="M3.1127 2.8125H2.96175C2.95645 2.8125 2.95215 2.82623 2.95215 2.84317V2.95603C2.95215 2.97297 2.95645 2.9867 2.96175 2.9867H3.1127C3.118 2.9867 3.1223 2.97297 3.1223 2.95603V2.84317C3.1223 2.82623 3.118 2.8125 3.1127 2.8125Z" fill="white" stroke="#EF2D28" stroke-width="0.239883"/>
<path id="Vector_91" d="M2.31094 2.8125H2.16C2.15469 2.8125 2.15039 2.82623 2.15039 2.84317V2.95603C2.15039 2.97297 2.15469 2.9867 2.16 2.9867H2.31094C2.31625 2.9867 2.32055 2.97297 2.32055 2.95603V2.84317C2.32055 2.82623 2.31625 2.8125 2.31094 2.8125Z" fill="white" stroke="#EF2D28" stroke-width="0.239883"/>
<path id="Vector_92" d="M1.93702 2.79102H1.63376C1.62353 2.79102 1.61523 2.80832 1.61523 2.82966V2.96951C1.61523 2.99085 1.62353 3.00815 1.63376 3.00815H1.93702C1.94725 3.00815 1.95554 2.99085 1.95554 2.96951V2.82966C1.95554 2.80832 1.94725 2.79102 1.93702 2.79102Z" fill="white" stroke="#EF2D28" stroke-width="0.239883"/>
<path id="Vector_93" d="M4.02961 2.8125H3.74762C3.73815 2.8125 3.73047 2.8298 3.73047 2.85114V2.99099C3.73047 3.01233 3.73815 3.02963 3.74762 3.02963H4.02961C4.03909 3.02963 4.04677 3.01233 4.04677 2.99099V2.85114C4.04677 2.8298 4.03909 2.8125 4.02961 2.8125Z" fill="white" stroke="#EF2D28" stroke-width="0.239883"/>
</g>
</g>
</g>
</g>
</g>
</g>
<defs>
<clipPath id="clip0_186_11795">
<rect width="18" height="18" fill="white"/>
</clipPath>
</defs>
</svg>
