<svg width="18" height="18" viewBox="0 0 18 18" fill="none" xmlns="http://www.w3.org/2000/svg">
<g id="pa" clip-path="url(#clip0_186_11786)">
<g id="Clip path group">
<mask id="mask0_186_11786" style="mask-type:luminance" maskUnits="userSpaceOnUse" x="0" y="0" width="18" height="18">
<g id="pa-a">
<path id="Vector" d="M0 0H18V18H0V0Z" fill="white"/>
</g>
</mask>
<g mask="url(#mask0_186_11786)">
<g id="Group">
<path id="Vector_2" fill-rule="evenodd" clip-rule="evenodd" d="M-0.914062 -0.878906H19.916V20.0742H-0.914062V-0.878906Z" fill="white"/>
<path id="Vector_3" fill-rule="evenodd" clip-rule="evenodd" d="M8.97559 -0.716797H19.9479V8.9582H8.9791L8.97559 -0.716797Z" fill="#DB0000"/>
<path id="Vector_4" fill-rule="evenodd" clip-rule="evenodd" d="M-1.91602 8.9582H8.97891V20.0746H-1.91602V8.9582ZM6.29297 6.38477L4.6582 5.3582L3.03398 6.39531L3.63867 4.70781L2.01445 3.66719L4.02187 3.65313L4.64414 1.97266L5.28047 3.64961H7.28789L5.67422 4.7043L6.29297 6.38477Z" fill="#0000AB"/>
<path id="Vector_5" fill-rule="evenodd" clip-rule="evenodd" d="M15.3 15.7855L13.6687 14.759L12.041 15.7961L12.6457 14.1086L11.0215 13.0715L13.0324 13.0574L13.6547 11.377L14.2875 13.0539H16.2984L14.6813 14.1086L15.3 15.7855Z" fill="#D80000"/>
</g>
</g>
</g>
</g>
<defs>
<clipPath id="clip0_186_11786">
<rect width="18" height="18" fill="white"/>
</clipPath>
</defs>
</svg>
