<svg width="18" height="18" viewBox="0 0 18 18" fill="none" xmlns="http://www.w3.org/2000/svg">
<g id="pc" clip-path="url(#clip0_186_11913)">
<path id="Vector" d="M0 0H18V18H0V0Z" fill="#003DA5"/>
<path id="pc-a" d="M2.65272 9.97208L2.93777 9.82988L2.88938 9.51481L3.1144 9.74371L3.40283 9.60056L3.25239 9.88386L3.47742 10.1128L3.16279 10.0588L3.01331 10.3455L2.9683 10.0295L2.65272 9.97208Z" fill="white"/>
<path id="pc-a_2" d="M14.7309 9.85352L14.418 9.91328L14.3793 10.2297L14.2246 9.94844L13.9082 10.0082L14.1297 9.77617L13.975 9.49492L14.2633 9.63203L14.4848 9.39648L14.4426 9.71289L14.7309 9.85352Z" fill="white"/>
<path id="pc-a_3" d="M14.771 8.76156L14.4738 8.87631L14.4924 9.19453L14.2899 8.94547L13.9893 9.06085L14.1657 8.79295L13.9632 8.54389L14.2714 8.62725L14.4472 8.35589L14.4622 8.67474L14.771 8.76156Z" fill="white"/>
<path id="pc-a_4" d="M14.2697 6.63962L14.0319 6.85158L14.1612 7.14294L13.884 6.98105L13.6432 7.19482L13.7141 6.88198L13.437 6.72009L13.7547 6.68969L13.8238 6.37383L13.9501 6.667L14.2697 6.63962Z" fill="white"/>
<path id="pc-a_5" d="M14.6164 7.67743L14.3445 7.84346L14.4197 8.15324L14.1759 7.9444L13.9008 8.11167L14.0265 7.81655L13.7827 7.6077L14.1008 7.63462L14.2252 7.3362L14.2971 7.64722L14.6164 7.67743Z" fill="white"/>
<path id="pc-a_6" d="M13.0534 4.83014L12.9054 5.11222L13.1289 5.33945L12.8125 5.28543L12.6623 5.57026L12.6186 5.25248L12.3022 5.19846L12.589 5.0582L12.5425 4.73823L12.7639 4.96821L13.0534 4.83014Z" fill="white"/>
<path id="pc-a_7" d="M11.2786 3.56467L11.2393 3.88078L11.5285 4.01483L11.2133 4.07559L11.1729 4.39505L11.0202 4.11297L10.705 4.17372L10.9241 3.94154L10.768 3.65838L11.0562 3.79577L11.2786 3.56467Z" fill="white"/>
<path id="pc-a_8" d="M12.2232 4.11791L12.128 4.42191L12.3886 4.60551L12.0676 4.60893L11.9708 4.91602L11.8709 4.61118L11.55 4.6146L11.807 4.42533L11.7041 4.11883L11.963 4.30553L12.2232 4.11791Z" fill="white"/>
<path id="pc-a_9" d="M13.7433 5.67896L13.5472 5.93002L13.7265 6.19356L13.4249 6.08384L13.2262 6.33722L13.24 6.01675L12.9383 5.90702L13.2456 5.8203L13.2571 5.49718L13.4337 5.76304L13.7433 5.67896Z" fill="white"/>
<path id="pc-a_10" d="M9.17168 3.00438L9.24612 3.31411L9.56399 3.33784L9.29034 3.5056L9.36495 3.81884L9.12274 3.60853L8.84909 3.7763L8.97247 3.48188L8.72675 3.27173L9.04479 3.29897L9.17168 3.00438Z" fill="white"/>
<path id="pc-a_11" d="M7.00256 3.22186L7.18122 3.48559L7.48712 3.39596L7.28999 3.64928L7.47003 3.91624L7.16932 3.8046L6.97219 4.05792L6.98409 3.73891L6.68015 3.62866L6.98744 3.54226L7.00256 3.22186Z" fill="white"/>
<path id="pc-a_12" d="M8.07667 3.01554L8.20529 3.30697L8.52228 3.27347L8.28304 3.48746L8.41245 3.78231L8.13654 3.6187L7.8973 3.83269L7.96604 3.52096L7.68671 3.35814L8.00449 3.32807L8.07667 3.01554Z" fill="white"/>
<path id="pc-a_13" d="M5.04795 4.18798L5.30797 4.372L5.56277 4.18046L5.46738 4.48694L5.72984 4.67349L5.40907 4.67479L5.31368 4.98127L5.21257 4.67848L4.88927 4.68221L5.14651 4.49322L5.04795 4.18798Z" fill="white"/>
<path id="pc-a_14" d="M3.55873 5.7802L3.86687 5.86096L4.03799 5.59203L4.05653 5.91247L4.36784 5.99475L4.06804 6.10882L4.08658 6.42927L3.88541 6.18141L3.5841 6.29866L3.75839 6.03124L3.55873 5.7802Z" fill="white"/>
<path id="pc-a_15" d="M4.23195 4.91568L4.52069 5.05023L4.73714 4.81623L4.69808 5.13482L4.98967 5.27143L4.6743 5.33007L4.63524 5.64867L4.48163 5.36883L4.16421 5.43031L4.38351 5.19837L4.23195 4.91568Z" fill="white"/>
<path id="pc-a_16" d="M5.98108 3.61656L6.20402 3.8441L6.48896 3.70122L6.3403 3.9857L6.56518 4.21617L6.24935 4.16009L6.10069 4.44458L6.05536 4.12859L5.7366 4.07446L6.02349 3.9345L5.98108 3.61656Z" fill="white"/>
<path id="pc-a_17" d="M10.2503 3.19033L10.2682 3.50837L10.5767 3.58855L10.2774 3.70469L10.2948 4.02622L10.0941 3.77599L9.79488 3.89212L9.96892 3.62451L9.76473 3.37382L10.0728 3.45748L10.2503 3.19033Z" fill="white"/>
<path id="pc-a_18" d="M2.72525 7.79468L3.0421 7.76186L3.10766 7.44991L3.23776 7.74335L3.55811 7.71083L3.31762 7.92309L3.44772 8.21653L3.1722 8.0553L2.9314 8.27106L3.00046 7.95942L2.72525 7.79468Z" fill="white"/>
<path id="pc-a_19" d="M2.59111 8.88023L2.89699 8.79128L2.90571 8.47264L3.08618 8.73808L3.39556 8.64881L3.19689 8.90065L3.37736 9.1661L3.07746 9.05673L2.87912 9.31207L2.89135 8.9931L2.59111 8.88023Z" fill="white"/>
<path id="pc-a_20" d="M3.35256 12.0367L3.56935 11.8033L3.4132 11.5254L3.70437 11.6605L3.92399 11.425L3.88285 11.7431L4.17402 11.8782L3.86052 11.9383L3.82146 12.2593L3.66815 11.9793L3.35256 12.0367Z" fill="white"/>
<path id="pc-a_21" d="M4.73331 13.7247L4.85411 13.43L4.61017 13.2248L4.93026 13.2488L5.05298 12.9511L5.1264 13.2633L5.44649 13.2874L5.1742 13.454L5.25057 13.7682L5.00855 13.56L4.73331 13.7247Z" fill="white"/>
<path id="pc-a_22" d="M3.96695 12.9439L4.13851 12.6755L3.93519 12.43L4.24582 12.5108L4.4198 12.2399L4.43621 12.5602L4.74684 12.6411L4.44915 12.7563L4.46811 13.0791L4.2672 12.831L3.96695 12.9439Z" fill="white"/>
<path id="pc-a_23" d="M2.90986 11.0358L3.16489 10.8449L3.06094 10.5436L3.32326 10.7285L3.58145 10.5361L3.4841 10.8418L3.74642 11.0267L3.42721 11.0299L3.3314 11.3387L3.23061 11.0358L2.90986 11.0358Z" fill="white"/>
<path id="pc-a_24" d="M3.05056 6.74952L3.36818 6.77388L3.48845 6.47868L3.56399 6.79065L3.885 6.81593L3.61042 6.98177L3.68596 7.29374L3.44371 7.08585L3.16822 7.25508L3.29189 6.96081L3.05056 6.74952Z" fill="white"/>
<path id="pc-a_25" d="M5.62708 14.3547L5.69323 14.0431L5.41653 13.8848L5.73575 13.8512L5.80327 13.5364L5.93134 13.8305L6.25056 13.7969L6.01245 14.0095L6.14376 14.3049L5.86843 14.1434L5.62708 14.3547Z" fill="white"/>
<path id="pc-a_26" d="M6.61989 14.8175L6.62926 14.4991L6.32872 14.3929L6.63679 14.3027L6.64692 13.9809L6.82551 14.2473L7.13358 14.1572L6.93732 14.409L7.11935 14.6762L6.81957 14.5665L6.61989 14.8175Z" fill="white"/>
<path id="Vector_2" d="M13.683 11.7422C13.1452 12.7536 12.3133 13.578 11.297 14.1065C10.2807 14.6351 9.12804 14.8428 7.99121 14.7023" stroke="#00AEC7" stroke-width="14.6"/>
<path id="Vector_3" d="M14.7865 10.8176C14.7865 10.8176 13.8408 10.3958 11.9283 10.3887C10.0158 10.3817 7.98379 10.9091 6.8623 10.895C5.7373 10.8809 5.40684 10.8809 4.73535 10.7544C4.73535 10.7544 5.75137 11.0919 6.82715 11.1903C7.90645 11.2923 10.399 10.8001 11.6436 10.7192C12.9162 10.6419 13.9076 10.6419 14.7865 10.8176Z" fill="white"/>
<path id="Vector_4" d="M7.31289 11.3703C7.31289 11.3703 8.03359 11.4055 9.41523 11.2578C10.7969 11.1102 11.7777 10.9062 12.8676 10.8781C13.9574 10.85 15.1633 11.0398 15.4164 11.1066C15.4164 11.1066 13.5988 11.0574 12.8359 11.1664C12.073 11.2719 10.1008 11.5215 9.06016 11.5461C8.01953 11.5707 7.66445 11.4301 7.31289 11.3703ZM4.29297 10.3297C4.29297 10.3297 6.20547 10.8395 7.94219 10.5055C9.90039 10.1223 11.0535 10.1293 11.9289 10.1258C12.8078 10.1223 13.7219 10.3438 13.7219 10.3438C13.7219 10.3438 10.1254 6.58555 6.36016 4.5957C6.36016 4.5957 6.07891 7.76328 4.29648 10.3262" fill="#00AEC7"/>
<path id="Vector_5" d="M7.28412 7.40664C7.28412 7.40664 7.23139 7.20625 6.96771 7.23438C6.96771 7.23438 7.13646 7.16406 7.21381 7.19922C7.28412 7.24141 7.3017 7.25195 7.28412 7.40664ZM6.65482 7.05508C6.65482 7.05508 6.71459 7.03398 6.73568 7.04453C6.73568 7.04453 6.77787 7.16406 6.85873 7.20977C6.85873 7.20977 6.71811 7.19922 6.65482 7.05156M7.48803 7.24141C7.44874 7.19069 7.39945 7.1486 7.3432 7.11775C7.28695 7.08691 7.22496 7.06797 7.16107 7.06211C7.09779 7.06211 6.93959 7.18867 6.93959 7.18867C6.90092 7.11836 6.9185 7.06211 6.9185 7.06211C6.99584 7.07266 7.05912 7.09727 7.05912 7.09727C7.0453 7.04578 7.0187 6.99861 6.98178 6.96016C7.13295 6.92148 7.31225 7.05156 7.31225 7.05156C7.2638 6.98319 7.20212 6.92524 7.13086 6.88116C7.0596 6.83707 6.98021 6.80775 6.8974 6.79492C6.85521 6.79492 6.79896 6.8582 6.79896 6.8582C6.50717 6.8582 6.42982 7.01992 6.42982 7.01992C6.54936 7.20977 6.80248 7.25547 6.80248 7.25547C6.35951 7.20625 6.37006 7.55078 6.37006 7.55078L6.77787 7.33984C6.62318 8.24687 5.99037 8.65117 5.93764 8.70391C5.88842 8.75664 5.92006 8.81289 5.9974 8.81992C6.03607 8.82695 6.08881 8.85859 6.22943 8.69687C6.56461 8.3266 6.77919 7.86311 6.84467 7.36797L6.8517 7.375C6.89389 7.48047 6.86576 7.57891 6.87279 7.64922C6.88334 7.71953 7.03803 7.8707 7.03803 7.8707C7.03803 7.8707 7.1224 7.70547 7.10834 7.60703C7.09779 7.50859 6.90443 7.32227 6.90443 7.32227C7.19975 7.26953 7.21732 7.7582 7.21732 7.7582C7.32982 7.62461 7.30522 7.48398 7.30522 7.48398C7.30522 7.48398 7.54076 7.31172 7.48803 7.24141Z" fill="white"/>
</g>
<defs>
<clipPath id="clip0_186_11913">
<rect width="18" height="18" fill="white"/>
</clipPath>
</defs>
</svg>
