<svg width="18" height="18" viewBox="0 0 18 18" fill="none" xmlns="http://www.w3.org/2000/svg">
<g id="pf" clip-path="url(#clip0_186_11948)">
<g id="Clip path group">
<mask id="mask0_186_11948" style="mask-type:luminance" maskUnits="userSpaceOnUse" x="0" y="0" width="18" height="18">
<g id="pf-a">
<path id="Vector" d="M0 0H18V18H0V0Z" fill="white"/>
</g>
</mask>
<g mask="url(#mask0_186_11948)">
<g id="Group">
<path id="Vector_2" d="M0 0H18V18H0V0Z" fill="white"/>
<path id="Vector_3" fill-rule="evenodd" clip-rule="evenodd" d="M7.39675 12.7801C7.39675 12.7801 7.80456 12.4496 8.19831 12.4496C8.59206 12.4496 8.70456 12.7238 8.97878 12.7449C9.253 12.7695 9.48503 12.4707 9.82253 12.4637C10.1671 12.4496 10.596 12.7027 10.596 12.7027L9.10183 13.1492L7.39675 12.7766V12.7801ZM6.54245 12.2949L11.6155 12.3195C11.6155 12.3195 11.176 11.8449 10.6592 11.8344C10.146 11.8238 10.2866 12.0559 9.89284 12.0875C9.49558 12.1227 9.39714 11.8449 9.03503 11.8555C8.67292 11.866 8.46198 12.0875 8.19128 12.098C7.91355 12.1086 7.56198 11.8238 7.35456 11.8344C7.14362 11.8449 6.39831 12.1648 6.39831 12.1648L6.54245 12.2949ZM5.89206 11.6902L12.1534 11.7148C12.2553 11.5707 11.8475 11.2297 11.4749 11.198C11.1655 11.2086 10.9475 11.5145 10.6944 11.525C10.4413 11.5391 10.1565 11.2086 9.86823 11.2191C9.58698 11.2297 9.28816 11.5285 9.00339 11.5285C8.71511 11.5285 8.50769 11.2086 8.14558 11.2086C7.78347 11.2086 7.61823 11.5602 7.34401 11.5391C7.06628 11.5145 6.82722 11.1875 6.56355 11.1875C6.29987 11.1875 5.86042 11.5812 5.77253 11.5602C5.68464 11.5391 5.88152 11.7254 5.89206 11.6902Z" fill="#083D9C" stroke="#083D9C" stroke-width="2.66667"/>
<path id="Vector_4" fill-rule="evenodd" clip-rule="evenodd" d="M8.29668 8.20851L9.73809 8.59523V6.53858C9.07715 6.57374 8.52871 5.28702 9.69238 5.19913C8.55332 5.03038 8.41973 5.32921 8.28613 5.64562L8.29668 8.20851Z" fill="#FF0000" stroke="black" stroke-width="2.5" stroke-linejoin="round"/>
<g id="Vector_5">
<path fill-rule="evenodd" clip-rule="evenodd" d="M7.38672 9.70312L10.6387 9.71367Z" fill="#083D9C"/>
<path d="M7.38672 9.70312L10.6387 9.71367" stroke="#083D9C" stroke-width="5" stroke-linecap="round"/>
</g>
<path id="Vector_6" d="M7.54102 8.92188L7.92773 9.43867M7.54102 9.43867L7.95937 8.93242M7.7625 8.88672L7.74844 9.20664M8.15625 8.92188L8.54297 9.43867M8.15625 9.43867L8.57461 8.93242M8.37773 8.88672L8.36367 9.20664M8.78555 8.92188L9.16523 9.43867M8.78203 9.43867L9.20039 8.93242M9.00352 8.88672L8.99297 9.20664M9.42891 8.92188L9.81563 9.43867M9.42891 9.43867L9.85078 8.93242M9.65039 8.88672L9.63984 9.20664M10.0582 8.92188L10.4414 9.43867M10.0547 9.43867L10.4766 8.93242M10.2762 8.88672L10.2656 9.20664" stroke="black" stroke-width="4" stroke-linecap="round"/>
<path id="Vector_7" fill-rule="evenodd" clip-rule="evenodd" d="M5.20332 9.73828L6.58496 9.74531V8.87695L5.00293 8.80312L5.1998 9.73477L5.20332 9.73828ZM5.13301 8.53945L6.60957 8.68008L6.59551 8.06484L5.1541 7.49531L5.13301 8.53945ZM5.43184 7.30898L6.56387 7.85742L6.72559 7.68867C6.72559 7.68867 6.62012 7.61836 6.62715 7.54805C6.62715 7.48477 6.73262 7.47422 6.73262 7.40039C6.73262 7.33359 6.6166 7.32656 6.6166 7.25977C6.60605 7.18945 6.70801 7.10859 6.70801 7.10859L5.68496 6.22266L5.43184 7.30898ZM12.8568 9.74531H11.3979L11.3873 8.90156L12.9904 8.77852L12.8568 9.74531ZM11.4084 8.70117L13.1451 8.49023L12.7689 7.49531L11.3979 8.07539L11.4084 8.70117ZM12.674 7.22109L11.4154 7.875C11.3979 7.80469 11.3803 7.73437 11.2959 7.67812C11.2959 7.67812 11.3732 7.63242 11.3732 7.55508C11.3732 7.47773 11.2713 7.46719 11.2713 7.425C11.2713 7.38281 11.3627 7.34062 11.3697 7.24219C11.3592 7.17188 11.2713 7.08047 11.2889 7.05938L12.2627 6.31406L12.667 7.21758L12.674 7.22109ZM9.95293 8.68359L10.5822 8.65547L10.5928 8.40234L9.95293 8.68359ZM8.04395 8.6625L7.38301 8.64844V8.38477L8.04395 8.6625ZM8.04043 8.58516L7.38301 8.24766V7.8082C7.38301 7.8082 7.30566 7.81875 7.31621 7.73086C7.31973 7.54805 7.80137 8.06484 8.04395 8.23359L8.04043 8.58516ZM9.95293 8.54648V8.26172C9.95293 8.26172 10.5436 7.72734 10.6701 7.62891C10.6701 7.73789 10.5998 7.82227 10.5998 7.82227V8.24414L9.95293 8.54648ZM6.11738 6.1418L6.78184 6.88008C6.79941 6.80977 6.95059 6.80273 7.10527 6.80977C7.25996 6.82383 7.38301 6.80273 7.38301 6.91523C7.38301 7.0207 7.30215 7.00664 7.30215 7.08398C7.30215 7.16133 7.42168 7.1543 7.42168 7.25273C7.42168 7.35117 7.3373 7.33008 7.33379 7.40742C7.33379 7.4707 7.4252 7.47773 7.4252 7.47773L8.04746 8.07891V7.43203L6.76426 5.41758L6.11738 6.1418ZM7.13691 5.37891L8.00879 7.16133C8.00879 7.16133 8.01934 5.51602 8.16348 5.42812L7.91738 4.97813L7.13691 5.37891ZM10.9232 5.44922L9.95293 7.18242V6.45117C9.95293 6.45117 10.0338 6.32813 9.90723 6.33867C9.78066 6.34922 9.62246 6.32812 9.62246 6.32812L10.0127 4.95703L10.9232 5.44922ZM11.9217 6.19102C11.9111 6.21211 11.2643 6.86602 11.2643 6.86602C11.2361 6.78867 11.0393 6.82734 10.8564 6.82734C10.6701 6.82734 10.6455 6.88711 10.6525 6.93281C10.6736 7.06289 10.7369 6.96797 10.7369 7.0875C10.7369 7.20352 10.6455 7.15781 10.6385 7.2457C10.6455 7.34414 10.7791 7.31953 10.7018 7.39687L9.95293 8.11406V7.43203L11.3451 5.26992L11.9217 6.19102Z" fill="#EF7D08"/>
<path id="Vector_8" fill-rule="evenodd" clip-rule="evenodd" d="M8.61719 10.0652C8.3043 10.582 7.46758 10.4309 7.27422 10.0652C7.21445 10.0512 7.24961 7.83281 7.24961 7.83281C7.24961 7.83281 7.15469 7.79062 7.15117 7.72383C7.14766 7.65352 7.27773 7.65 7.27773 7.56211C7.27773 7.47422 7.14414 7.50586 7.14062 7.42148C7.14062 7.33359 7.28477 7.34414 7.28125 7.2668C7.2707 7.17891 7.11953 7.19297 7.1125 7.10859C7.10547 7.04531 7.21797 6.98906 7.25312 6.96094H6.90508C6.73633 6.96094 6.90859 6.99961 6.90508 7.10156C6.90508 7.16484 6.8207 7.20703 6.81367 7.26328C6.81367 7.31953 6.9332 7.3582 6.93672 7.42852C6.93672 7.48828 6.81367 7.49531 6.81719 7.55156C6.82773 7.64648 6.92617 7.66758 6.92617 7.72734C6.92617 7.78359 6.78906 7.8082 6.78906 7.85391L6.81016 10.132C7.02109 11.25 8.26562 11.5313 8.61719 10.0617V10.0652ZM9.43633 10.0652C9.75273 10.582 10.5859 10.4309 10.7828 10.0652C10.8426 10.0512 10.8074 7.83281 10.8074 7.83281C10.8074 7.83281 10.9023 7.79062 10.9059 7.72383C10.9094 7.65352 10.7863 7.65 10.7863 7.56211C10.7863 7.47422 10.9129 7.50586 10.9164 7.42148C10.9164 7.33359 10.7828 7.34062 10.7898 7.25977C10.7969 7.17188 10.8988 7.18242 10.9059 7.10156C10.9094 7.03125 10.8391 6.98906 10.8074 6.96094H11.1484C11.3207 6.96094 11.1484 6.99961 11.1484 7.10156C11.1484 7.16484 11.2363 7.20703 11.2434 7.26328C11.2434 7.31953 11.1203 7.3582 11.1203 7.42852C11.1203 7.48828 11.2434 7.49531 11.2363 7.55156C11.2293 7.64648 11.1309 7.66758 11.1309 7.72734C11.1309 7.78359 11.268 7.8082 11.268 7.85391C11.2609 7.94531 11.2469 10.132 11.2469 10.132C11.0324 11.25 9.79141 11.5313 9.43633 10.0617V10.0652Z" fill="#FF0000" stroke="black" stroke-width="2.5" stroke-linejoin="round"/>
<path id="Vector_9" fill-rule="evenodd" clip-rule="evenodd" d="M8.31406 11.0848H9.71328C9.72383 11.0742 9.39687 10.5996 9.01016 10.6348C8.58125 10.6453 8.28945 11.0848 8.31406 11.0848ZM12.7719 11.0496H10.8594C10.8594 11.0496 11.1055 10.9055 11.1758 10.7684C11.2988 10.8387 11.2637 10.9055 11.5098 10.916C11.7559 10.9266 11.9949 10.6348 12.2305 10.6453C12.466 10.6559 12.7719 11.0602 12.7719 11.0496ZM5.23438 11.0496H7.14688C7.14688 11.0496 6.90078 10.9055 6.83047 10.7684C6.70742 10.8387 6.74258 10.9055 6.49297 10.916C6.24688 10.9266 6.01133 10.6348 5.77227 10.6453C5.53672 10.6559 5.23438 11.0602 5.23438 11.0496ZM5.375 10.452L6.73906 10.459C6.73906 10.459 6.65117 10.2727 6.64062 10.0441C6.28906 9.92109 6.00078 10.3078 5.75117 10.3184C5.49805 10.3289 5.23438 10.0441 5.23438 10.0441L5.375 10.4484V10.452ZM12.6523 10.452L11.2883 10.459C11.2883 10.459 11.3762 10.2727 11.3867 10.0441C11.7383 9.92109 12.023 10.3078 12.2762 10.3184C12.5293 10.3289 12.793 10.0441 12.793 10.0441L12.6523 10.4484V10.452ZM8.66211 10.459L9.35469 10.4379C9.35469 10.4379 9.36523 10.227 9.00313 10.227C8.64102 10.227 8.67266 10.473 8.66211 10.459ZM8.24023 10.1637C8.36328 10.0969 8.47578 10.0301 8.54961 9.87891L8.07852 9.88945C8.07852 9.88945 7.86055 10.0195 7.74805 10.1637H8.24023ZM9.76953 10.1637C9.63858 10.1057 9.53088 10.0054 9.46367 9.87891L9.93477 9.88945C9.93477 9.88945 10.1563 10.0195 10.2652 10.1637H9.76953Z" fill="#083D9C" stroke="#083D9C" stroke-width="2.66667"/>
<path id="Vector_10" fill-rule="evenodd" clip-rule="evenodd" d="M-4.5 13.5H22.5V18H-4.5V13.5ZM-4.5 0H22.5V4.5H-4.5V0Z" fill="#DE2010"/>
</g>
</g>
</g>
</g>
<defs>
<clipPath id="clip0_186_11948">
<rect width="18" height="18" fill="white"/>
</clipPath>
</defs>
</svg>
