<svg width="18" height="18" viewBox="0 0 18 18" fill="none" xmlns="http://www.w3.org/2000/svg">
<g id="pg" clip-path="url(#clip0_186_11962)">
<g id="Clip path group">
<mask id="mask0_186_11962" style="mask-type:luminance" maskUnits="userSpaceOnUse" x="0" y="0" width="18" height="18">
<g id="pg-a">
<path id="Vector" d="M0 0H17.9972V17.9972H0V0Z" fill="white"/>
</g>
</mask>
<g mask="url(#mask0_186_11962)">
<g id="Group">
<g id="Group_2">
<path id="Vector_2" fill-rule="evenodd" clip-rule="evenodd" d="M-2.93498 0L-2.95312 17.9972H20.9585L-2.93498 0Z" fill="#000001"/>
<path id="Vector_3" fill-rule="evenodd" clip-rule="evenodd" d="M20.9404 17.9972L20.9585 0H-2.95312L20.9404 17.9972Z" fill="#FF0000"/>
</g>
<path id="Vector_4" d="M11.8107 4.477L11.4914 4.46249C11.3934 4.23026 11.1177 4.14318 10.9471 4.24478C10.7947 4.25566 9.98558 4.23026 9.98558 4.23026L10.577 4.48789C10.7222 4.88339 11.2302 4.97773 11.2302 4.97773C11.1866 5.70343 10.4936 4.88339 9.91301 5.29704C9.49937 5.5474 9.49211 5.84131 9.26714 6.32389C9.15733 6.49053 9.03609 6.64936 8.9043 6.79923L9.39414 6.76294L9.23812 6.96614L9.81867 6.88268C9.81867 6.88268 9.74248 6.94799 9.69531 6.99879C9.78239 7.01693 10.3593 6.86454 10.3593 6.86454L10.3194 7.04959C10.6133 6.92985 10.9798 6.81011 10.9798 6.81011C10.9798 6.81011 11.1104 6.91897 11.2302 6.96614L11.3136 6.63594L11.6438 6.7194L11.7273 6.38558C12.2244 7.04959 12.3913 7.7136 13.302 7.88051L13.2186 7.54669C13.4725 7.65555 13.9443 7.88777 13.9443 7.88777L14.0168 7.73537C14.4123 8.01839 14.7425 8.01476 14.9602 8.04379L14.7969 7.63015L14.9639 7.7136L14.7135 7.04959L14.9639 7.13305L14.63 6.63594L14.7534 6.55249L14.7171 6.30212C15.2106 6.46903 15.8782 6.7194 15.9581 7.29995C16.0415 8.2107 15.0437 8.46107 14.3833 8.37761C14.8804 8.79126 15.7911 8.62435 16.2084 8.2107C16.3659 8.01626 16.4786 7.78957 16.5386 7.54669C16.6221 7.79706 16.789 8.12725 16.789 8.46107C16.7055 9.2049 15.7077 9.45527 15.0473 9.53873C15.7911 9.95237 17.1192 9.45527 17.2026 8.37761C17.2026 7.46324 16.6221 7.04959 16.3717 6.63594C16.3399 6.48796 16.312 6.33914 16.2882 6.18964C16.3245 6.1969 16.5386 6.30575 16.5386 6.30575C16.5386 6.30575 16.3935 6.02999 16.3717 5.97193C16.3717 5.97193 16.1141 5.26801 16.0197 5.11198C16.0343 5.1011 16.2084 5.14101 16.2084 5.14101L15.5263 4.28832L15.7186 4.26655C15.7186 4.26655 14.9348 3.64608 14.7171 3.56625L14.9675 3.4828C14.4668 3.23606 13.8862 3.39934 13.3891 3.73316L13.4725 3.4828L13.3202 3.49731V3.21429L13.4725 2.9857L13.2258 2.90224L13.3891 2.48859L13.1424 2.57205L13.2258 2.15478C13.2258 2.15478 13.0371 2.24186 12.9246 2.22734C12.9283 2.23823 13.0589 1.94795 13.0589 1.94795C12.9791 1.82458 13.0589 1.57422 13.0589 1.57422C12.4783 1.65767 12.3949 1.74113 12.0647 2.23823C11.564 3.15261 11.7309 3.56625 11.8143 4.477H11.8107Z" fill="#FFCC00" stroke="#FFCC00" stroke-width="2.37383"/>
<path id="Vector_5" fill-rule="evenodd" clip-rule="evenodd" d="M14.946 5.8418C14.9896 5.91437 15.4576 6.13933 15.8132 6.34253C15.7189 5.95791 15.0258 5.87445 14.9424 5.8418H14.946Z" fill="#FF0000" stroke="#FF0000" stroke-width="3.0963"/>
<path id="Vector_6" fill-rule="evenodd" clip-rule="evenodd" d="M3.54192 14.9646L3.01216 14.6271L2.30461 14.9682L2.46426 14.3622L1.91999 13.7926L2.54772 13.7563L2.92145 13.0669L3.15004 13.6474L3.91928 13.7889L3.43669 14.1881L3.54192 14.9646ZM4.89534 12.0037L4.6486 11.8876L4.41638 12.0219L4.45267 11.7534L4.24947 11.5719L4.51798 11.5211L4.62683 11.2744L4.75746 11.5139L5.02597 11.5429L4.83728 11.7388L4.89534 12.0037ZM6.08911 10.3056L5.55209 10.0443L5.02959 10.3346L5.11305 9.74681L4.674 9.34042L5.26182 9.23882L5.50855 8.69455L5.79157 9.22431L6.38302 9.28962L5.973 9.72504L6.08911 10.3056ZM3.63263 7.94709L3.00128 7.62778L2.38443 7.96886L2.48603 7.27219L1.97079 6.78597L2.66746 6.67349L2.96862 6.03125L3.29518 6.65898L3.99548 6.74606L3.49838 7.25405L3.63263 7.94709ZM1.36483 10.3963L0.726221 10.0189L0.0912374 10.4072L0.254519 9.6815L-0.311523 9.19891L0.428686 9.12634L0.715335 8.44056L1.00561 9.12271L1.74945 9.1844L1.19429 9.67424L1.36483 10.3963Z" fill="white"/>
</g>
</g>
</g>
</g>
<defs>
<clipPath id="clip0_186_11962">
<rect width="18" height="18" fill="white"/>
</clipPath>
</defs>
</svg>
