<svg width="18" height="18" viewBox="0 0 18 18" fill="none" xmlns="http://www.w3.org/2000/svg">
<g id="ph" clip-path="url(#clip0_186_11973)">
<path id="Vector" d="M0 0H18V9H0V0Z" fill="#0038A8"/>
<path id="Vector_2" d="M0 9H18V18H0V9Z" fill="#CE1126"/>
<path id="Vector_3" d="M15.5883 9L0 18V0" fill="white"/>
<path id="Vector_4" d="M0.885938 1.56055L1.42734 2.02812L2.05664 1.68359L1.77539 2.34102L2.30273 2.8332L1.58203 2.77344L1.27969 3.42031L1.11445 2.72422L0.404297 2.63281L1.01953 2.26367L0.885938 1.56055ZM13.0816 8.05039L13.0957 8.76406L13.7742 8.99961L13.0957 9.23516L13.0816 9.94883L12.6492 9.3793L11.9637 9.59023L12.375 8.99961L11.9637 8.4125L12.6492 8.61992L13.0816 8.05039ZM1.2832 14.5789L1.58555 15.2258L2.29922 15.166L1.77891 15.6582L2.05664 16.3156L1.42734 15.9711L0.885938 16.4387L1.02305 15.7355L0.407813 15.3664L1.11797 15.275L1.2832 14.5789ZM5.58633 5.20273L5.3543 5.43477L5.4668 7.20312L5.35078 7.21367L5.13984 5.6L4.94648 5.78984L5.23477 7.23125C5.00342 7.27803 4.7836 7.37002 4.58789 7.50195L3.76875 6.27852H3.49805L4.48945 7.57227L4.40156 7.64609L3.23086 6.31016H2.90039V6.64414L4.23633 7.81484L4.15898 7.90273L2.86523 6.91133V7.18203L4.08867 8.00117C3.9579 8.19711 3.8671 8.41694 3.82148 8.64805L2.38008 8.35977L2.18672 8.55312L3.80391 8.76406L3.78984 8.88359L2.02148 8.76758L1.78594 8.99961L2.02148 9.23164L3.78984 9.11914L3.80039 9.23516L2.18672 9.44609L2.37656 9.63945L3.81797 9.35117C3.86475 9.58251 3.95674 9.80234 4.08867 9.99805L2.86523 10.8172V11.0879L4.15898 10.0965L4.23281 10.1844L2.89688 11.3551V11.6855H3.23438L4.40508 10.3496L4.49297 10.427L3.50156 11.7207H3.77227L4.59141 10.4973C4.7873 10.6281 5.00714 10.7189 5.23828 10.7645L4.95 12.2059L5.14336 12.3992L5.3543 10.782L5.47031 10.7961L5.35781 12.5645L5.58984 12.8L5.82188 12.5645L5.70937 10.7961L5.82539 10.7855L6.03633 12.3992L6.22969 12.2094L5.94141 10.768C6.17275 10.7212 6.39258 10.6292 6.58828 10.4973L7.40742 11.7207H7.67812L6.67969 10.427L6.76758 10.3531L7.93828 11.6891H8.26875V11.3551L6.93281 10.1844L7.01016 10.0965L8.30391 11.0879V10.8172L7.08047 9.99805C7.21124 9.80211 7.30204 9.58228 7.34766 9.35117L8.78906 9.63945L8.98242 9.44609L7.36523 9.23516L7.3793 9.11914L9.14766 9.23164L9.3832 8.99961L9.14766 8.76758L7.3793 8.88359C7.3793 8.84141 7.37227 8.80273 7.36875 8.76406L8.98242 8.55312L8.79258 8.35977L7.35117 8.64805C7.30439 8.41671 7.2124 8.19688 7.08047 8.00117L8.30391 7.18203V6.91133L7.01016 7.90273L6.93633 7.81484L8.27227 6.64414V6.31367H7.93828L6.76758 7.64961L6.67969 7.57227L7.67109 6.27852H7.40039L6.58125 7.50195C6.38531 7.37118 6.16548 7.28038 5.93438 7.23477L6.22266 5.79336L6.0293 5.6L5.81836 7.21719L5.70234 7.20312L5.81484 5.43477L5.58633 5.20273Z" fill="#FCD116"/>
</g>
<defs>
<clipPath id="clip0_186_11973">
<rect width="18" height="18" fill="white"/>
</clipPath>
</defs>
</svg>
