<svg width="18" height="18" viewBox="0 0 18 18" fill="none" xmlns="http://www.w3.org/2000/svg">
<g id="pk" clip-path="url(#clip0_186_11978)">
<g id="Clip path group">
<mask id="mask0_186_11978" style="mask-type:luminance" maskUnits="userSpaceOnUse" x="0" y="0" width="18" height="18">
<g id="pk-a">
<path id="Vector" d="M0 0H18V18H0V0Z" fill="white"/>
</g>
</mask>
<g mask="url(#mask0_186_11978)">
<g id="Group">
<path id="Vector_2" fill-rule="evenodd" clip-rule="evenodd" d="M-3.33984 0H23.6602V18H-3.33984V0Z" fill="#0C590B"/>
<path id="Vector_3" fill-rule="evenodd" clip-rule="evenodd" d="M-3.33984 0H3.42773V18H-3.33984V0Z" fill="white"/>
<g id="Group_2">
<path id="Vector_4" fill-rule="evenodd" clip-rule="evenodd" d="M14.1924 7.92461L13.0955 7.69258L12.5189 8.65234L12.3994 7.54141L11.3096 7.28828L12.3291 6.83125L12.2342 5.7168L12.9865 6.54648L14.0166 6.11055L13.4576 7.08086L14.1959 7.92461H14.1924Z" fill="white"/>
<path id="Vector_5" fill-rule="evenodd" clip-rule="evenodd" d="M14.6041 10.7578C14.3701 11.2684 14.0375 11.7276 13.6255 12.1092C13.2134 12.4907 12.73 12.7871 12.203 12.9811C11.676 13.1752 11.1158 13.2632 10.5547 13.24C9.99358 13.2168 9.44258 13.083 8.93338 12.8461C7.90029 12.3678 7.09951 11.4986 6.70722 10.4299C6.31494 9.36117 6.36327 8.18037 6.84159 7.14727C7.07913 6.6162 7.42518 6.14072 7.85749 5.7514C8.28979 5.36209 8.79879 5.06754 9.35174 4.88672C9.20698 5.00725 9.06852 5.13516 8.9369 5.26992C8.251 6.02954 7.88689 7.02582 7.92134 8.0487C7.95579 9.07158 8.38611 10.0411 9.12156 10.7529C9.85701 11.4646 10.8401 11.8629 11.8636 11.8639C12.887 11.8648 13.8709 11.4682 14.6076 10.7578H14.6041Z" fill="white"/>
</g>
</g>
</g>
</g>
</g>
<defs>
<clipPath id="clip0_186_11978">
<rect width="18" height="18" fill="white"/>
</clipPath>
</defs>
</svg>
