<svg width="18" height="18" viewBox="0 0 18 18" fill="none" xmlns="http://www.w3.org/2000/svg">
<g id="pn" clip-path="url(#clip0_186_11996)">
<path id="Vector" d="M0 0H18V18H0V0Z" fill="#00247D"/>
<path id="Vector_2" d="M11.6785 9.42518C11.4076 9.688 11.2163 10.0219 11.1266 10.3885C10.9613 11.3306 10.7398 11.5416 10.3988 11.3377C10.3988 11.8474 10.775 11.8861 10.9367 11.5908C10.9367 12.0654 11.0809 12.4767 11.4078 12.8283C11.5484 12.9795 11.573 12.8775 11.5062 12.7123C11.443 12.547 11.443 12.0197 11.3094 11.7138C11.5203 11.8931 11.8297 11.7912 11.8016 11.299C11.5344 11.4888 11.2672 11.4818 11.2391 11.0353C11.2039 10.5115 11.3797 9.75213 11.6785 9.42518ZM11.3586 5.66697C11.3762 5.48064 11.3445 5.28728 11.2285 5.16775C11.007 4.93221 10.7891 5.00955 10.6273 5.19939C10.3848 5.04119 10.2582 5.59666 9.98047 5.50174C10.0262 5.68103 10.1 5.75838 10.2371 5.69861C10.093 5.8533 10.2371 6.03963 10.0684 6.22596C10.3742 6.34549 10.5395 6.14158 10.5254 5.79002C10.5501 5.81993 10.5816 5.84358 10.6172 5.85902C10.6528 5.87446 10.6916 5.88125 10.7303 5.87885C10.769 5.87645 10.8066 5.86492 10.8401 5.84521C10.8735 5.82549 10.9018 5.79815 10.9227 5.76541C10.7609 5.70564 10.7609 5.53689 10.8242 5.37869C10.9227 5.14314 11.3867 5.15369 11.3586 5.66697Z" fill="#F7E017" stroke="black" stroke-width="0.4"/>
<path id="Vector_3" d="M12.0691 8.3805C11.721 8.59847 11.0847 8.50706 11.0285 7.96917C10.9687 7.42777 11.4082 7.1887 11.5277 7.11839C11.7105 7.00941 11.8546 7.20277 11.7949 7.43128C11.9988 7.34339 12.041 7.06214 11.946 6.90042C12.2132 6.92503 12.4628 6.68245 12.5683 6.33792C12.4734 6.44339 12.2167 6.37308 12.0058 6.3555C12.0691 6.27113 12.0691 6.10589 12.048 6.018C11.8265 6.2887 11.5066 6.16566 11.0812 6.95316C11.1818 6.52579 11.2756 6.09682 11.3624 5.66644C11.3871 5.15316 10.9265 5.1391 10.8281 5.37816C10.9335 5.51878 10.8773 5.69105 10.8386 5.94769C10.7929 6.25003 10.698 6.95316 10.6101 7.1887C10.5855 6.81956 10.3816 6.79495 10.3429 6.61917C10.2832 6.66488 10.2515 6.78792 10.2621 6.87581C10.1917 6.78089 9.94214 6.89691 9.85073 6.75628C9.75229 6.99183 9.9105 7.22386 10.0722 7.32581C9.97729 7.33284 9.9562 7.46995 9.85073 7.46995C9.99136 7.66683 10.1355 7.74417 10.3007 7.76175C10.4695 7.77581 10.5925 7.84964 10.6945 8.09222C10.8597 8.48245 11.482 8.73558 12.0691 8.3805Z" fill="#337321" stroke="black" stroke-width="0.4"/>
<path id="Vector_4" d="M12.9343 7.90703C12.7374 8.55391 12.1995 9.01445 11.9569 9.08477C11.4166 9.27851 10.9163 9.56921 10.4804 9.94258C10.4452 9.93203 10.41 9.91797 10.3889 9.89687C10.2764 9.80195 10.185 9.49961 10.3819 9.23945C10.9971 8.55391 11.6581 8.85273 12.0694 8.38164C11.7249 8.59961 11.0886 8.5082 11.0288 7.9668C11.4014 8.08633 12.0764 8.09336 12.6108 7.4043C12.6847 7.49922 12.8921 7.79805 12.9343 7.90703Z" fill="#F7E017" stroke="black" stroke-width="0.4"/>
<path id="Vector_5" d="M11.6786 9.425C11.3657 9.74141 11.204 10.5148 11.2391 11.0352C11.2497 11.1793 11.2813 11.2813 11.334 11.3375C11.3551 11.0422 11.5309 10.2758 11.9704 9.93125C12.5144 9.49853 12.9231 8.91904 13.1481 8.26133C13.1059 8.12773 13.0426 8.03281 12.9161 7.94141C12.7051 8.64102 12.1286 8.975 11.6821 9.42852L11.6786 9.425Z" fill="#337321" stroke="black" stroke-width="0.4"/>
<path id="Vector_6" d="M12.7334 7.60352C12.5901 7.85142 12.3807 8.05466 12.1287 8.19062C12.1814 8.12031 12.199 8.02891 12.199 7.95508C11.8932 8.0957 11.2779 8.08164 11.0283 7.97266C11.401 8.08867 12.076 8.0957 12.6104 7.41016C12.6631 7.48047 12.7088 7.54023 12.7334 7.60703V7.60352Z" fill="#316D3A" stroke="black" stroke-width="0.4"/>
<path id="Vector_7" d="M10.382 9.23828C9.88277 9.79727 10.2132 10.2859 10.4066 10.3949C10.3539 10.7816 10.6632 10.7359 10.6562 11.0629C10.7793 10.9785 10.8144 10.7535 10.7968 10.5707C10.9515 10.7746 11.3488 10.5496 11.4367 10.9223C11.4894 10.5109 11.2187 10.0961 10.8847 10.1348C11.0254 9.98711 10.9445 9.74805 10.8144 9.68477C10.7898 9.98711 10.498 9.98711 10.389 9.8957C10.2765 9.80078 10.1851 9.49844 10.382 9.23828Z" fill="#337321" stroke="black" stroke-width="0.4"/>
<path id="Vector_8" d="M11.4606 12.7889C11.4079 12.8241 11.4149 12.912 11.4465 12.9647C11.5169 13.0737 11.3973 13.3233 11.6223 13.3761C11.6856 13.3901 11.7348 13.3409 11.7629 13.253C11.8297 13.0069 11.6118 12.9823 11.5907 12.8663C11.5731 12.7468 11.5098 12.7608 11.4641 12.7889H11.4606Z" fill="#F7E017" stroke="black" stroke-width="0.4"/>
<path id="Vector_9" d="M11.6512 13.2536C11.5809 13.2887 11.5105 13.3485 11.5457 13.6297C11.5562 13.7457 11.5492 14.027 11.4648 14.0305C11.5176 14.0621 11.6266 14.0938 11.6758 14.0235C11.718 14.1114 11.8164 14.0868 11.8586 13.9778C11.9078 14.027 11.9816 13.9426 11.9816 13.8688C12.0273 13.9039 12.1223 13.8512 12.0941 13.686C12.1504 13.7071 12.2242 13.6614 12.2488 13.6157C12.168 13.5981 11.9605 13.4645 11.9113 13.359C11.8621 13.2536 11.7355 13.2043 11.6512 13.2536Z" fill="#F7E017" stroke="black" stroke-width="0.4"/>
<path id="Vector_10" d="M10.5156 5.35742C10.5508 5.30117 10.5859 5.24492 10.6281 5.19922M11.7637 6.39102C11.8199 6.35234 11.9043 6.34883 12.0062 6.35586M11.6723 14.0234C11.6512 13.9848 11.6406 13.8195 11.6582 13.7211M11.8586 13.9777C11.8234 13.9426 11.7531 13.8301 11.7391 13.7316M11.9816 13.8688C11.8949 13.7832 11.8319 13.6766 11.7988 13.5594M12.0941 13.6824C12.0414 13.6684 11.8762 13.5418 11.8059 13.4047" stroke="black" stroke-width="0.4"/>
<path id="Vector_11" d="M15.1137 9.24609C15.9187 10.0547 15.968 10.691 15.8449 11.0672C15.7816 10.7156 15.4477 10.1707 15.0996 10.0301L15.1137 9.24609Z" fill="#F7E017" stroke="black" stroke-width="0.4"/>
<path id="Vector_12" d="M13.676 8.79609H15.1666V10.8984C15.1666 12.6914 14.3264 13.7531 13.4791 14.3156C12.6248 13.7531 11.7881 12.6914 11.7881 10.8984V8.78906H12.8322C12.8322 8.90156 12.8428 9.06328 12.9482 9.22852C13.1943 9.20039 13.4756 8.98242 13.6689 8.79258L13.676 8.79609Z" fill="#337321" stroke="black" stroke-width="0.4"/>
<path id="Vector_13" d="M15.1668 8.79609V10.8984C15.1668 11.4398 15.0894 11.918 14.9593 12.3293L13.4793 9.08789L11.9957 12.3293C11.8542 11.8657 11.7842 11.3832 11.7882 10.8984V8.78906L15.1668 8.79609Z" fill="#006EC7" stroke="black" stroke-width="0.4"/>
<path id="Vector_14" d="M15.0049 12.1777C14.9768 12.2727 14.9311 12.4273 14.8924 12.5223L13.4791 9.38633L12.0588 12.5223C12.0236 12.4273 11.9744 12.2762 11.9463 12.1777L13.4756 8.80273L15.0049 12.1777Z" fill="#F7E017"/>
<path id="Vector_15" d="M14.1508 13.3305L14.2914 13.4148C14.3686 13.1951 14.3927 12.9602 14.3617 12.7293C14.2738 12.9859 13.9856 12.9754 13.9082 13.1336C13.9574 13.1617 13.9996 13.2004 14.0383 13.232C13.9115 13.3819 13.7562 13.505 13.5813 13.5941V11.9172C13.5813 11.7977 13.5461 11.6992 13.5461 11.6008V11.2563C13.5461 11.1789 13.5356 11.0664 13.4758 11.0664C13.416 11.0664 13.4055 11.1789 13.4055 11.2563V11.6043C13.4055 11.6992 13.3703 11.8152 13.3703 11.9172V13.5906C13.3 13.341 13.0188 13.4254 12.8852 13.1758C12.9379 13.1617 12.9906 13.1547 13.0434 13.1688C12.9449 12.7715 12.6777 12.7398 12.625 12.6203C12.625 12.7855 12.5652 13.1688 12.6602 13.334C12.6777 13.3023 12.7094 13.2707 12.7481 13.2461C12.857 13.5344 13.3598 13.5344 13.4758 14.0125C13.5707 13.8367 13.9117 13.6328 14.1508 13.327V13.3305Z" fill="#F7E017" stroke="black" stroke-width="0.4"/>
<path id="Vector_16" d="M13.4752 11.9398C13.5877 11.9398 13.9393 11.8977 14.0693 11.8977C14.1045 11.8977 14.1291 11.8379 14.1291 11.7641C14.1291 11.6937 14.101 11.634 14.0693 11.634C13.9428 11.634 13.5877 11.5918 13.4752 11.5918C13.3662 11.5918 13.0111 11.634 12.8846 11.634C12.8494 11.634 12.8213 11.6937 12.8213 11.7641C12.8213 11.8379 12.8494 11.8977 12.8846 11.8977C13.0111 11.8977 13.3662 11.9398 13.4752 11.9398ZM13.4049 11.2543C13.3805 11.2328 13.3495 11.2204 13.317 11.2191C13.2432 11.2191 13.1799 11.2859 13.1799 11.3633C13.1799 11.4441 13.2396 11.5109 13.317 11.5109C13.3873 11.5109 13.4506 11.4441 13.4506 11.3633C13.4506 11.3035 13.5244 11.3035 13.5244 11.3633C13.5244 11.4934 13.433 11.5953 13.3135 11.5953C13.1975 11.5953 13.1025 11.4898 13.1025 11.3633C13.1025 11.2367 13.201 11.1348 13.3135 11.1348C13.3486 11.1348 13.3838 11.1453 13.4119 11.1629L13.4049 11.2543Z" fill="#F7E017" stroke="black" stroke-width="0.4"/>
<g id="Vector_17">
<path d="M12.8848 11.8965C12.9199 11.8965 12.9445 11.8367 12.9445 11.7629C12.9445 11.6926 12.9164 11.6328 12.8848 11.6328" fill="#F7E017"/>
<path d="M12.8848 11.8965C12.9199 11.8965 12.9445 11.8367 12.9445 11.7629C12.9445 11.6926 12.9164 11.6328 12.8848 11.6328" stroke="black" stroke-width="0.4"/>
</g>
<g id="Vector_18">
<path d="M12.9344 11.8961C12.9695 11.8961 12.9941 11.8363 12.9941 11.7625C12.9941 11.6922 12.966 11.6324 12.9344 11.6324M13.2543 11.9242C13.2965 11.9242 13.3281 11.8539 13.3281 11.7625C13.3281 11.6746 13.2965 11.6043 13.2578 11.6043M13.3316 11.9313C13.3738 11.9313 13.409 11.8539 13.409 11.7625C13.409 11.6711 13.3738 11.5973 13.3316 11.5973M13.5848 11.9313C13.627 11.9313 13.6586 11.8574 13.6586 11.7625C13.6586 11.6711 13.6234 11.5938 13.5848 11.5938M13.6621 11.9277C13.7043 11.9277 13.7395 11.8574 13.7395 11.7625C13.7395 11.6746 13.7043 11.6008 13.6621 11.6008M14.0137 11.8996C14.0488 11.8996 14.077 11.8398 14.077 11.7625C14.077 11.6887 14.0488 11.6289 14.0137 11.6289M12.748 13.2496C12.7867 13.2215 12.8359 13.1934 12.8887 13.1793ZM14.0805 13.2672L14.0418 13.232ZM14.1508 13.3305C14.2475 13.2126 14.3193 13.0762 14.3617 12.9297Z" fill="#F7E017"/>
<path d="M12.9344 11.8961C12.9695 11.8961 12.9941 11.8363 12.9941 11.7625C12.9941 11.6922 12.966 11.6324 12.9344 11.6324M13.2543 11.9242C13.2965 11.9242 13.3281 11.8539 13.3281 11.7625C13.3281 11.6746 13.2965 11.6043 13.2578 11.6043M13.3316 11.9313C13.3738 11.9313 13.409 11.8539 13.409 11.7625C13.409 11.6711 13.3738 11.5973 13.3316 11.5973M13.5848 11.9313C13.627 11.9313 13.6586 11.8574 13.6586 11.7625C13.6586 11.6711 13.6234 11.5938 13.5848 11.5938M13.6621 11.9277C13.7043 11.9277 13.7395 11.8574 13.7395 11.7625C13.7395 11.6746 13.7043 11.6008 13.6621 11.6008M14.0137 11.8996C14.0488 11.8996 14.077 11.8398 14.077 11.7625C14.077 11.6887 14.0488 11.6289 14.0137 11.6289M12.748 13.2496C12.7867 13.2215 12.8359 13.1934 12.8887 13.1793M14.0805 13.2672L14.0418 13.232M14.1508 13.3305C14.2475 13.2126 14.3193 13.0762 14.3617 12.9297" stroke="black" stroke-width="0.4"/>
</g>
<g id="Vector_19">
<path d="M13.1768 10.2859C13.1768 10.2473 13.2014 10.2297 13.233 10.2016C13.2682 10.1699 13.2857 10.1523 13.3174 10.1523H13.7498C13.7779 10.1523 13.785 10.1629 13.785 10.198V10.8977C13.785 10.9328 13.7814 10.9434 13.7498 10.9434H13.1768V10.2789" fill="white"/>
<path d="M13.1768 10.2859C13.1768 10.2473 13.2014 10.2297 13.233 10.2016C13.2682 10.1699 13.2857 10.1523 13.3174 10.1523H13.7498C13.7779 10.1523 13.785 10.1629 13.785 10.198V10.8977C13.785 10.9328 13.7814 10.9434 13.7498 10.9434H13.1768V10.2789" stroke="black" stroke-width="0.4"/>
</g>
<path id="Vector_20" d="M13.6406 11.0043C13.6969 11.0043 13.6898 11.0008 13.7285 10.9516C13.7707 10.9023 13.7637 10.9094 13.7637 10.8637V10.2238C13.7637 10.1922 13.7566 10.1816 13.7285 10.1816H13.3313C13.2996 10.1816 13.2855 10.1992 13.2539 10.2309C13.2258 10.2555 13.2012 10.2695 13.2012 10.3047V11.0043H13.6406Z" fill="#E5E5E5" stroke="black" stroke-width="0.4"/>
<path id="Vector_21" d="M13.683 10.9859C13.683 11.0211 13.676 11.0316 13.6479 11.0316H13.2154C13.1803 11.0316 13.1768 11.0211 13.1768 10.9859V10.2898C13.1768 10.2547 13.1838 10.2441 13.2154 10.2441H13.6443C13.6795 10.2441 13.683 10.2547 13.683 10.2898V10.9859Z" fill="white" stroke="black" stroke-width="0.4"/>
<path id="Vector_22" d="M14.5199 8.38925C14.6008 8.49823 14.6254 8.6494 14.5832 8.79355H14.4566C14.5094 8.60722 14.4777 8.42792 14.2562 8.40683C13.9223 8.37167 13.5355 9.13808 12.9555 9.233C12.7797 8.99042 12.7902 8.52987 13.0082 8.3119C12.8957 7.92519 12.6602 7.50331 12.4984 7.32401C12.393 7.30292 12.2664 7.28886 12.1855 7.29589C12.2964 7.06193 12.4819 6.87147 12.7129 6.75448C12.741 6.69823 12.7762 6.64901 12.8078 6.5998C12.8289 6.29745 14.0277 6.43808 14.2844 6.6244C14.2844 6.9619 14.3898 8.08339 14.5164 8.38925H14.5199Z" fill="#96877D" stroke="black" stroke-width="0.4"/>
<path id="Vector_23" d="M13.0643 8.59257C13.0361 8.07226 12.8604 7.64335 12.6143 7.35155C12.7034 7.37715 12.7974 7.38125 12.8884 7.36353C12.9795 7.34581 13.065 7.30677 13.1381 7.2496C13.349 7.08085 13.915 6.77851 14.1225 6.90858C14.14 6.95077 14.1471 7.04921 14.1365 7.10897C14.0873 6.95429 13.5424 7.19686 13.3877 7.27069C13.2436 7.35155 13.1768 7.46054 13.2295 7.70663C13.1451 7.62226 13.1732 7.53788 13.0854 7.47811C13.1205 7.58007 13.1486 7.75936 13.1592 7.91054C13.124 7.80507 13.0678 7.58007 12.9412 7.44647C13.0752 7.83235 13.1302 8.24125 13.1029 8.64882C13.1908 8.64882 13.3842 8.54335 13.4615 8.47304C13.3947 8.58905 13.1979 8.66991 13.0678 8.70155C13.0049 8.82941 12.9736 8.97044 12.9764 9.11288C12.9658 8.96874 13.0045 8.61366 13.0643 8.59257ZM14.5197 8.38866C14.4072 8.24452 14.2033 8.16718 13.9467 8.24804C13.9889 8.22694 14.0732 8.18827 14.1471 8.17069C14.14 8.08983 14.0768 7.73827 14.0662 7.6539L14.1365 7.61874C14.1717 7.82968 14.2209 8.06874 14.249 8.16718C14.2736 8.17421 14.3264 8.18827 14.3721 8.2164C14.351 8.13202 14.2385 7.54491 14.242 7.47811L14.3404 7.41835C14.3692 7.74649 14.428 8.07129 14.5162 8.38866H14.5197Z" fill="black"/>
<path id="Vector_24" d="M14.46 8.79531C14.5092 8.60547 14.4775 8.42969 14.2561 8.40508C14.0803 8.3875 13.8975 8.58789 13.676 8.7918L14.46 8.79531ZM13.0115 7.11133C12.9131 7.12891 12.6951 7.1043 12.5826 7.06211C12.5896 7.02695 12.6002 6.9918 12.6178 6.95312C12.5475 7.00586 12.4174 7.11133 12.3682 7.18867C12.5229 7.22383 12.8498 7.24492 13.0115 7.11133Z" fill="#96877D" stroke="black" stroke-width="0.4"/>
<path id="Vector_25" d="M13.0074 8.31133C13.0426 8.43789 13.0672 8.55742 13.0707 8.66289M12.7121 6.75391C12.6523 6.85938 12.5996 6.96836 12.582 7.06328C12.6945 7.10547 12.9125 7.13008 13.0109 7.1125" stroke="black" stroke-width="0.4"/>
<path id="Vector_26" d="M12.498 7.32305L12.6141 7.35117C12.7032 7.37677 12.7972 7.38087 12.8882 7.36315C12.9793 7.34543 13.0648 7.30639 13.1379 7.24922C13.2996 7.10859 13.7461 6.67266 14.2488 6.62695" stroke="black" stroke-width="0.4"/>
<path id="Vector_27" d="M12.3682 7.18867C12.5264 7.22383 12.8498 7.24492 13.0115 7.11133C13.3209 6.82959 13.7105 6.65139 14.126 6.60156" stroke="black" stroke-width="0.4"/>
<path id="Vector_28" d="M15.1133 9.24665C15.6617 9.70368 16.066 10.1396 16.1855 10.8392C16.3051 11.5424 16.5265 11.7287 16.8008 11.5424C16.734 11.9466 16.3965 11.9959 16.1082 11.683C16.1328 12.1506 15.9781 12.7131 15.5703 12.9134C15.5457 12.6322 15.7004 12.4142 15.6547 12.1822C15.6371 12.0802 15.6301 11.8447 15.7426 11.7357C15.5246 11.8236 15.1836 11.6584 15.1519 11.2787C15.398 11.4193 15.7215 11.4404 15.8445 11.0677C15.9676 10.6916 15.9148 10.0517 15.1133 9.25017V9.24665ZM15.8058 5.59743C15.9746 5.07009 16.4211 5.12282 16.5722 5.34782C17.0117 5.05251 17.0679 5.72048 17.4441 5.5904C17.437 5.65627 17.4051 5.71696 17.3548 5.76008C17.3045 5.8032 17.2396 5.8255 17.1734 5.82243C17.3176 5.97712 17.1137 6.21267 17.4195 6.35329C17.1594 6.50798 16.7937 6.34626 16.6953 5.91735C16.6109 6.11774 16.3051 6.11774 16.1785 5.95251C16.4492 5.87165 16.4281 5.57282 16.2769 5.45681C16.1258 5.33727 15.8551 5.38649 15.8058 5.59743ZM14.4769 6.76462C14.595 7.21172 14.8166 7.62479 15.1238 7.97048C15.4402 8.31149 15.9148 8.22712 16.1785 7.90017C16.1855 8.55056 15.616 8.60329 15.2996 8.39938C15.1625 8.30798 15.0535 8.35368 15.1836 8.49782C15.3875 8.71931 15.8304 8.88102 16.3543 9.01462C17.2683 9.24665 16.9449 10.115 16.6777 10.1045C16.7551 10.1045 16.8183 10.0095 16.7058 9.89001C15.9113 9.03571 14.2941 9.37321 14.3187 7.46774C14.15 7.96696 13.4504 7.7736 13.7773 7.17946C13.8828 7.28142 14.0656 7.28845 14.1183 7.13376C14.1605 7.01071 14.1324 6.79977 13.9496 6.62048C13.9777 6.61696 14.0445 6.62048 14.0375 6.52907C14.0445 6.58181 14.0867 6.65915 14.1887 6.63454C14.2168 6.68727 14.2484 6.72595 14.2906 6.70485C14.2976 6.70134 14.3258 6.68727 14.3117 6.63102C14.3222 6.73649 14.4242 6.77165 14.4769 6.76462Z" fill="#337321" stroke="black" stroke-width="0.4"/>
<path id="Vector_29" d="M15.3038 8.39937C15.6835 8.69468 16.1124 8.69468 16.5062 8.14976C16.6292 7.97398 16.8261 7.82984 16.9632 7.81226C17.1038 7.79468 17.0968 7.63999 17.1987 7.60835C17.1355 7.58726 17.1073 7.49234 17.0089 7.50288C17.255 7.40445 17.1847 7.1689 17.3042 7.0564C17.2058 7.09859 17.0511 6.92281 16.9105 7.14781C16.9456 7.04234 16.8999 6.92281 16.8648 6.8771C16.8753 6.99312 16.6714 7.01773 16.6292 7.31304C16.6081 7.48179 16.5343 7.47124 16.5202 7.21109C16.5097 7.02476 16.4358 6.50093 16.3444 6.23726C16.253 5.97359 16.2319 5.60796 16.355 5.55523C16.3374 5.51656 16.3093 5.48492 16.2776 5.45679C16.1265 5.34078 15.8593 5.38648 15.8066 5.59742C15.6378 6.12828 16.1159 6.43414 16.0737 7.0107C16.0034 6.58179 15.4198 6.47281 15.4269 6.05093C15.237 6.15289 15.2651 6.33921 15.3355 6.48687C15.2194 6.2689 14.9487 6.62749 14.7202 6.33218C14.6956 6.72242 14.9839 6.87007 15.2194 6.88765C15.1966 6.93481 15.1834 6.9861 15.1808 7.03846C15.1781 7.09082 15.1861 7.14317 15.2041 7.19239C15.2222 7.24161 15.25 7.28668 15.2858 7.32493C15.3217 7.36318 15.3649 7.39381 15.4128 7.41499C15.4198 6.97906 16.1722 7.15835 16.1792 7.90718C16.1862 8.54703 15.6097 8.59976 15.3003 8.39937H15.3038ZM16.355 9.0146C17.2691 9.24664 16.9456 10.115 16.6784 10.1044C16.5062 10.1044 16.3444 9.92867 16.3339 9.78453C16.137 9.90757 16.1898 10.1537 16.3409 10.2521C15.9261 10.1923 15.7538 10.5158 15.7433 10.8709C15.8206 10.7056 16.0491 10.6951 16.1335 10.7302C16.2179 10.7654 16.4394 10.7865 16.5273 10.6669C16.4569 10.7408 16.573 10.913 16.471 11.0466C16.8155 11.0291 16.9632 10.6494 16.9069 10.4806C17.3499 9.99898 17.2655 9.20796 16.355 9.0146ZM15.6589 12.7201C15.7187 12.7658 15.7116 12.8607 15.6694 12.9169C15.5886 13.0365 15.7116 13.3177 15.462 13.3669C15.3882 13.381 15.3355 13.3248 15.3108 13.2263C15.2405 12.9451 15.4866 12.9275 15.5148 12.7974C15.5394 12.6673 15.6097 12.6849 15.6589 12.7201Z" fill="#F7E017" stroke="black" stroke-width="0.4"/>
<path id="Vector_30" d="M15.434 13.2265C15.5148 13.2757 15.5852 13.3425 15.5395 13.6519C15.5219 13.782 15.5184 14.0984 15.6133 14.1089C15.5535 14.137 15.4305 14.1687 15.3812 14.0878C15.3285 14.1827 15.216 14.1476 15.1773 14.0245C15.1176 14.0773 15.0367 13.9788 15.0437 13.8945C14.991 13.9296 14.8891 13.8699 14.9207 13.6835C14.8574 13.7081 14.7801 13.6519 14.752 13.6027C14.8434 13.5851 15.0789 13.448 15.1387 13.332C15.1949 13.2195 15.3391 13.1702 15.434 13.2265Z" fill="#F7E017" stroke="black" stroke-width="0.4"/>
<path id="Vector_31" d="M15.3805 14.0863C15.4051 14.0441 15.4227 13.8613 15.4051 13.7488M15.1766 14.0266C15.2188 13.9914 15.2996 13.8648 15.3172 13.7559M15.043 13.8965C15.0922 13.8684 15.2223 13.6855 15.2539 13.559M14.9199 13.6855C15.0582 13.6223 15.1736 13.518 15.2504 13.3867" stroke="black" stroke-width="0.4"/>
<path id="Vector_32" d="M14.3191 7.46992C14.3086 8.26797 14.5899 8.67227 14.9766 8.93594C14.8324 8.83047 14.8922 8.48242 14.6988 8.36992C14.7445 8.36641 14.8184 8.44023 14.9309 8.41211C14.8781 8.26445 14.7867 8.03945 14.5723 8.00781C14.6285 8.00078 14.7481 8.02187 14.8289 7.98672C14.7164 7.78281 14.4211 7.88125 14.3191 7.46992ZM14.2524 6.70703C14.2277 6.69648 14.2066 6.67188 14.1891 6.63672C14.0836 6.66133 14.0484 6.58047 14.0379 6.53125C14.0449 6.61914 13.9781 6.61562 13.95 6.61914C14.1328 6.80195 14.1609 7.01289 14.1188 7.13242C14.066 7.28711 13.8832 7.28008 13.7777 7.17812C13.7637 7.51211 14.1258 7.62109 14.2559 7.20273C14.2559 7.27305 14.3297 7.26602 14.3508 7.35742C14.4422 7.18164 14.3719 6.92148 14.2524 6.70703Z" fill="#F7E017" stroke="black" stroke-width="0.4"/>
<path id="Vector_33" d="M13.6757 5.12484C13.5251 4.94026 13.4431 4.70917 13.4437 4.47093C13.4507 4.30218 13.5105 4.11234 13.7179 4.18968C13.6546 4.18968 13.7003 4.34788 13.63 4.36546C13.6863 4.38656 13.7601 4.33031 13.7706 4.29515C13.7847 4.3514 13.8691 4.33734 13.8761 4.40062C13.9113 4.36546 13.8761 4.21429 13.8234 4.18265C13.8585 4.16156 13.8796 4.04202 13.862 3.98226C13.8304 3.98929 13.7812 4.04202 13.7706 4.12288C13.7882 4.0596 13.7706 3.9014 13.6757 3.87679C13.6511 3.92249 13.6441 4.02796 13.6792 4.08773C13.5949 4.06312 13.4683 4.12991 13.4402 4.21429C13.4472 4.10882 13.4613 3.96468 13.5105 3.86976C13.5316 3.83812 13.4859 3.78538 13.4542 3.85921C13.3874 3.71156 13.2187 3.63421 13.1449 3.70804C13.0675 3.77835 12.9691 3.67288 12.9058 3.7889C12.8425 3.90491 12.6316 3.91898 12.6421 4.04202C12.6492 4.11585 12.6351 4.23187 12.6035 4.27406C12.5296 4.37249 12.6386 4.44984 12.6597 4.53773C12.6456 4.24241 13.0429 3.66585 13.4402 3.89085C13.405 3.96468 13.3699 4.11234 13.3593 4.29163C13.3417 4.55882 13.3769 4.93148 13.5913 5.14945L13.6757 5.12484Z" fill="#337321" stroke="black" stroke-width="0.4"/>
<path id="Vector_34" d="M13.795 4.19346C13.7915 4.12315 13.8934 4.03174 14.0306 4.03525C14.1958 4.03525 14.3224 4.21807 14.4524 4.20049C14.586 4.18291 14.5227 4.2708 14.4946 4.2919C14.4795 4.30446 14.4682 4.32099 14.462 4.33962C14.4558 4.35826 14.4549 4.37825 14.4595 4.39736C14.47 4.43955 14.4524 4.46768 14.3997 4.42549C14.2802 4.3376 14.1642 4.46065 14.0095 4.39033C13.8759 4.33408 13.7985 4.29893 13.795 4.19346Z" fill="#C8102E" stroke="black" stroke-width="0.4"/>
<path id="Vector_35" d="M13.1207 6.03672C13.0539 5.79062 12.8043 5.52344 12.6848 5.46016L12.6777 5.33008C12.7445 5.29492 12.9027 5.15078 12.973 5.06641C13.4652 5.34766 14.1332 4.95039 14.4391 4.53906L14.5586 4.62344L14.4988 4.71484L14.4355 4.67617C14.3617 4.78516 14.0805 5.09805 13.9961 5.16836C14.0979 5.1983 14.203 5.21601 14.309 5.22109C14.5832 4.98906 14.8012 4.77812 14.9066 4.76406L14.991 4.90469L14.9137 4.96797L14.8504 4.92578C14.5096 5.31789 14.2514 5.77463 14.091 6.26875C13.9082 6.21953 13.2543 6.25117 13.1207 6.03672Z" fill="#96877D" stroke="black" stroke-width="0.4"/>
<path id="Vector_36" d="M13.992 5.16719C13.9498 5.15312 13.9146 5.13906 13.8936 5.125C13.8408 5.18125 13.7107 5.23047 13.542 5.24102" stroke="black" stroke-width="0.4"/>
<path id="Vector_37" d="M13.1488 5.95195C13.1031 5.66016 13.1734 5.33672 13.2965 5.2418C13.4448 5.34832 13.6236 5.40385 13.8062 5.40005C13.9888 5.39624 14.1652 5.33331 14.309 5.2207" stroke="black" stroke-width="0.4"/>
<path id="Vector_38" d="M13.1484 5.8C13.3559 5.78945 13.8094 5.83516 13.9219 5.85273C14.0309 5.87383 14.2172 5.92656 14.1926 5.99336M13.2434 5.75781L13.3031 5.6875L13.2434 5.61719L13.1836 5.6875L13.2434 5.75781Z" stroke="black" stroke-width="0.4"/>
<path id="Vector_39" d="M13.3836 4.30717C13.3098 4.1806 13.1023 4.14193 13.0566 4.30717C13.0391 4.38451 13.0074 4.46185 12.9582 4.49701C12.909 4.53217 12.923 4.63763 12.9441 4.68334C12.9934 4.79935 12.9477 4.90834 13.0496 4.98217C13.0496 4.89076 13.1621 4.79935 13.257 4.77474C13.352 4.75013 13.4961 4.6517 13.5137 4.53568C13.5348 4.42318 13.5664 4.32826 13.3836 4.30717Z" fill="#337321" stroke="black" stroke-width="0.4"/>
<path id="Vector_40" d="M12.9133 5.42773H12.9414V5.63867L12.9555 5.64922L13.1102 5.54375L13.1242 5.57188L12.9695 5.67734V5.69844L13.1242 5.80391L13.1102 5.83203L12.9555 5.72656C12.9517 5.73121 12.9469 5.73484 12.9414 5.73711V5.94805H12.9133V5.73711L12.8992 5.72656L12.7445 5.83203L12.7305 5.80742L12.8852 5.70195V5.68086L12.7305 5.57539L12.7445 5.54727L12.8992 5.65273L12.9133 5.64219V5.42773Z" fill="#96877D" stroke="black" stroke-width="0.4"/>
<path id="Vector_41" d="M13.148 5.94766C13.1217 5.98128 13.0881 6.00853 13.0497 6.02739C13.0114 6.04626 12.9693 6.05626 12.9266 6.05664C12.7543 6.05664 12.6172 5.89141 12.6172 5.6875C12.6172 5.48359 12.7543 5.31836 12.9266 5.31836C13.025 5.31836 13.1164 5.37461 13.1727 5.4625C13.1551 5.51172 13.1375 5.61367 13.1375 5.66289C13.1234 5.53633 13.032 5.43438 12.9266 5.43438C12.807 5.43438 12.7156 5.55039 12.7156 5.6875C12.7156 5.82812 12.807 5.94062 12.9266 5.94062C13.0215 5.94062 13.1094 5.85977 13.1305 5.75078C13.1305 5.8 13.134 5.9125 13.1445 5.94766H13.148Z" fill="#96877D" stroke="black" stroke-width="0.4"/>
<path id="Vector_42" d="M12.7969 6.3043C12.7645 6.25772 12.7462 6.2028 12.7441 6.14609C12.7723 6.14609 12.8285 6.16719 12.8531 6.19883C12.8531 6.15664 12.8391 6.07227 12.8461 6.03359C12.8812 6.05117 12.9551 6.10039 12.9832 6.15664C12.9762 6.12148 12.9621 6.01602 12.9762 5.95625C13.0148 5.98437 13.0816 6.0582 13.0957 6.10742C13.0957 6.03008 13.1203 5.9 13.1414 5.86836C13.1695 5.90352 13.2152 5.93867 13.2469 5.98438C13.2504 5.92109 13.2785 5.84375 13.3172 5.82617C13.3633 5.89575 13.3922 5.97527 13.4016 6.0582C13.4297 6.04414 13.4719 5.98789 13.4859 5.95273C13.5035 5.98789 13.5211 6.04063 13.5105 6.10742C13.5506 6.06823 13.5808 6.02001 13.5984 5.9668C13.623 5.99141 13.6723 6.04766 13.6863 6.11094C13.6793 6.06172 13.6828 5.97031 13.6687 5.92109C13.718 5.94922 13.7566 6.00547 13.7672 6.06172C13.7813 6.00898 13.8094 5.91406 13.8375 5.88594C13.8667 5.94877 13.8822 6.01706 13.8832 6.08633C13.9008 6.05117 13.9289 5.98086 13.9535 5.96328C13.9746 6.00547 13.9746 6.10039 13.9676 6.14961C13.9913 6.11112 14.0224 6.07767 14.059 6.05117C14.059 6.07227 14.066 6.12148 14.059 6.15664C14.0871 6.13555 14.1363 6.03008 14.1539 5.97383C14.1996 6.00195 14.2453 6.09688 14.2488 6.14258C14.2961 6.11062 14.3357 6.0686 14.3648 6.01953C14.3648 6.04414 14.3754 6.12148 14.3648 6.17773C14.3824 6.15313 14.4 6.10742 14.4105 6.08633C14.4246 6.12852 14.4141 6.21992 14.4035 6.26914C14.4316 6.24102 14.4738 6.21992 14.502 6.21992C14.502 6.28672 14.4668 6.40273 14.4281 6.49063C14.1117 6.38516 13.4578 6.34648 12.7969 6.3043Z" fill="#337321" stroke="black" stroke-width="0.4"/>
<path id="Vector_43" d="M13.8906 4.23555C13.8906 4.20742 13.9434 4.14062 14.0418 4.14062C14.1543 4.14062 14.2633 4.24609 14.3582 4.23555C14.4496 4.22852 14.4039 4.26719 14.3828 4.27422C14.3617 4.28477 14.3512 4.29883 14.3582 4.31641C14.3652 4.33398 14.3547 4.34453 14.316 4.33047C14.2316 4.29531 14.1508 4.34453 14.0418 4.31641C13.9469 4.2918 13.8941 4.28125 13.8906 4.23555Z" fill="#F7E017"/>
<path id="Vector_44" d="M12.8986 6.5389C12.8001 6.67953 12.7017 6.65492 12.6806 6.56351C12.663 6.4721 12.7333 6.42992 12.7087 6.35257C12.6806 6.27523 12.7509 6.24007 12.7825 6.27523C12.8177 6.31038 12.9232 6.19789 12.9654 6.3139C13.0111 6.42992 13.0497 6.51429 13.0216 6.55999C12.997 6.6057 12.9161 6.5846 12.8986 6.53538V6.5389ZM13.3204 6.32796C13.2993 6.27523 13.4013 6.17679 13.454 6.2471C13.5068 6.31742 13.5911 6.16976 13.6368 6.28226L13.7177 6.51078C13.7423 6.57406 13.5947 6.60921 13.5489 6.55296C13.556 6.58812 13.4224 6.61976 13.3837 6.51429L13.3204 6.32445V6.32796ZM13.9989 6.39124C13.9743 6.33499 14.0939 6.25765 14.1572 6.35609C14.1747 6.31742 14.2907 6.30687 14.2978 6.4264L14.3154 6.66546C14.3154 6.71117 14.245 6.75335 14.1888 6.63382C14.0904 6.65843 14.0482 6.59515 14.0376 6.52835L13.9989 6.39124Z" fill="#F7E017" stroke="black" stroke-width="0.4"/>
<path id="Vector_45" d="M12.962 6.31403C12.9444 6.27184 13.0429 6.1945 13.1097 6.25426C13.18 6.31403 13.2714 6.20504 13.3101 6.307C13.3909 6.52145 13.3944 6.53551 13.3734 6.5777C13.3487 6.61989 13.2433 6.60231 13.2152 6.54606C13.2116 6.58473 13.1202 6.58121 13.0745 6.54606C13.0183 6.5109 12.9831 6.38434 12.962 6.31403ZM13.6511 6.32106C13.6265 6.26129 13.7812 6.20856 13.848 6.31403C13.8831 6.27887 13.9569 6.27536 13.9991 6.39137C14.0413 6.50387 14.0484 6.56715 14.0167 6.59879C13.9956 6.61989 13.9148 6.63395 13.8902 6.58121C13.855 6.60934 13.7425 6.58473 13.7179 6.5109C13.6933 6.44059 13.6722 6.37379 13.6476 6.32106H13.6511ZM14.3015 6.43707C14.298 6.38434 14.3823 6.35621 14.4105 6.43707C14.4456 6.51793 14.5441 6.44411 14.5511 6.5777C14.5511 6.60231 14.5405 6.70075 14.5089 6.74645C14.4773 6.79567 14.3261 6.74645 14.3155 6.64801C14.305 6.54606 14.3015 6.48981 14.3015 6.43707Z" fill="#337321" stroke="black" stroke-width="0.4"/>
<path id="Vector_46" d="M12.8986 6.53945C12.8635 6.47969 12.8107 6.38477 12.751 6.48672M13.2186 6.54648C13.1924 6.50627 13.1723 6.46245 13.1588 6.41641M13.549 6.55352C13.5168 6.52632 13.4905 6.49282 13.4717 6.45508M13.5174 6.34961C13.5771 6.35664 13.6158 6.41992 13.6334 6.45156C13.651 6.47969 13.6896 6.53242 13.7178 6.53945M13.89 6.58516C13.8689 6.54648 13.8514 6.51484 13.8479 6.48672M13.8479 6.31445C13.8689 6.34961 13.883 6.37422 13.8936 6.40586M14.1889 6.63437C14.1669 6.58086 14.1304 6.53458 14.0834 6.50078M14.1748 6.41992C14.1783 6.53594 14.3084 6.54297 14.3154 6.62383M14.4139 6.4375C14.4244 6.46563 14.4314 6.49727 14.4314 6.54297" stroke="black" stroke-width="0.4"/>
<path id="Vector_47" d="M0 0H9V9H0V0Z" fill="#012169"/>
<path id="Vector_48" d="M9 0V1.125L5.66016 4.5L9 7.78711V9H7.82227L4.46484 5.69531L1.19531 9H0V7.80469L3.26953 4.51758L0 1.30078V0H1.08984L4.46484 3.30469L7.73438 0H9Z" fill="white"/>
<path id="Vector_49" d="M3.23438 5.69531L3.42773 6.29297L0.738281 9H0V8.94727L3.23438 5.69531ZM5.41406 5.48438L6.36328 5.625L9 8.20898V9L5.41406 5.48438ZM9 0L5.625 3.44531L5.55469 2.67188L8.19141 0H9ZM0 0.0175781L3.39258 3.33984L2.35547 3.19922L0 0.861328V0.0175781Z" fill="#C8102E"/>
<path id="Vector_50" d="M3.09375 0V9H5.90625V0H3.09375ZM0 3.09375V5.90625H9V3.09375H0Z" fill="white"/>
<path id="Vector_51" d="M0 3.65625V5.34375H9V3.65625H0ZM3.65625 0V9H5.34375V0H3.65625Z" fill="#C8102E"/>
</g>
<defs>
<clipPath id="clip0_186_11996">
<rect width="18" height="18" fill="white"/>
</clipPath>
</defs>
</svg>
