<svg width="18" height="18" viewBox="0 0 18 18" fill="none" xmlns="http://www.w3.org/2000/svg">
<g id="pr" clip-path="url(#clip0_186_12048)">
<g id="Clip path group">
<mask id="mask0_186_12048" style="mask-type:luminance" maskUnits="userSpaceOnUse" x="-1" y="0" width="19" height="19">
<g id="pr-a">
<path id="Vector" d="M-0.000976562 0H18V18.001H-0.000976562V0Z" fill="white"/>
</g>
</mask>
<g mask="url(#mask0_186_12048)">
<g id="Group">
<path id="Vector_2" fill-rule="evenodd" clip-rule="evenodd" d="M-1.31152 0H25.6887V18.001H-1.31152V0Z" fill="#ED0000"/>
<path id="Vector_3" fill-rule="evenodd" clip-rule="evenodd" d="M-1.31152 3.59961H25.6887V7.20133H-1.31152V3.59961ZM-1.31152 10.8005H25.6887V14.3997H-1.31152V10.8005Z" fill="white"/>
<path id="Vector_4" fill-rule="evenodd" clip-rule="evenodd" d="M-1.31152 0L14.1825 8.98907L-1.31152 17.9654V0Z" fill="#0050F0"/>
<path id="Vector_5" fill-rule="evenodd" clip-rule="evenodd" d="M5.50064 11.443L3.83186 10.1984L2.17324 11.4557L2.79046 9.41099L1.13184 8.14861L3.18162 8.13083L3.81662 6.09375L4.46686 8.12575L6.51664 8.12829L4.86818 9.40338L5.50064 11.443Z" fill="white"/>
</g>
</g>
</g>
</g>
<defs>
<clipPath id="clip0_186_12048">
<rect width="18" height="18" fill="white"/>
</clipPath>
</defs>
</svg>
