<svg width="18" height="18" viewBox="0 0 18 18" fill="none" xmlns="http://www.w3.org/2000/svg">
<g id="pt" clip-path="url(#clip0_186_12067)">
<path id="Vector" d="M7.1998 0H17.9998V18H7.19629L7.1998 0Z" fill="#FF0000"/>
<path id="Vector_2" d="M-0.000390625 0H7.19961V18H-0.00390625L-0.000390625 0Z" fill="#006600"/>
<g id="Group">
<path id="Vector_3" fill-rule="evenodd" clip-rule="evenodd" d="M10.3291 11.482C9.11973 11.4469 3.5791 7.9875 3.54395 7.43555L3.84629 6.92578C4.39473 7.72383 10.0619 11.0883 10.6174 10.9688L10.3291 11.482Z" fill="#FFFF00" stroke="black" stroke-width="0.7" stroke-linecap="round" stroke-linejoin="round"/>
<path id="Vector_4" fill-rule="evenodd" clip-rule="evenodd" d="M3.78353 6.85664C3.67454 7.14844 5.22845 8.1082 7.09876 9.24727C8.96907 10.3828 10.5792 11.0859 10.7023 10.9875L10.755 10.8855C10.7339 10.9207 10.6777 10.9313 10.5933 10.9066C10.087 10.759 8.76868 10.1543 7.13743 9.16641C5.50618 8.17852 4.08587 7.26445 3.8679 6.87773C3.84994 6.84179 3.84147 6.80186 3.84329 6.76172H3.83626L3.79056 6.84258L3.78353 6.85664ZM10.3577 11.4973C10.3367 11.5359 10.298 11.5359 10.2277 11.5324C9.77415 11.4797 8.39954 10.8117 6.78235 9.84141C4.89095 8.70937 3.33001 7.6793 3.50228 7.41211L3.54798 7.32773L3.55501 7.33125C3.40384 7.78828 6.6347 9.63398 6.82454 9.75352C8.69134 10.9137 10.2699 11.5887 10.4105 11.4129L10.3577 11.4973Z" fill="#FFFF00" stroke="black" stroke-width="0.7" stroke-linecap="round" stroke-linejoin="round"/>
<path id="Vector_5" fill-rule="evenodd" clip-rule="evenodd" d="M7.20781 7.7707C8.41367 7.76016 9.90781 7.60547 10.7656 7.26445L10.5828 6.96211C10.073 7.24336 8.57539 7.42969 7.19727 7.4543C5.56602 7.44023 4.41641 7.28906 3.83984 6.90234L3.66406 7.22227C4.72578 7.66875 5.80859 7.76719 7.20781 7.7707Z" fill="#FFFF00" stroke="black" stroke-width="0.7" stroke-linecap="round" stroke-linejoin="round"/>
<g id="Vector_6">
<path fill-rule="evenodd" clip-rule="evenodd" d="M10.8182 7.27109C10.7865 7.3168 10.2275 7.51016 9.40137 7.65078C8.67289 7.76003 7.93721 7.81409 7.20059 7.8125C6.49525 7.81565 5.79051 7.77101 5.09121 7.67891C4.22988 7.5418 3.77988 7.35195 3.61465 7.28516L3.65684 7.2043C4.12435 7.38857 4.61155 7.51833 5.10879 7.59102C5.8023 7.68173 6.50118 7.72519 7.20059 7.72109C7.93133 7.72157 8.66109 7.66751 9.38379 7.55938C10.2275 7.42227 10.6916 7.24648 10.7549 7.16563L10.8182 7.27109ZM10.6529 6.96172C10.5615 7.03203 10.1045 7.19727 9.30293 7.32383C8.61012 7.42328 7.91104 7.47263 7.21113 7.47148C6.53623 7.47661 5.86183 7.43314 5.19316 7.34141C4.37402 7.23594 3.9416 7.04258 3.78691 6.98633L3.83262 6.90547C3.95215 6.96875 4.37402 7.1375 5.20371 7.25703C5.86931 7.3433 6.53998 7.38441 7.21113 7.38008C7.9052 7.38103 8.59842 7.33169 9.28535 7.23242C10.0939 7.11992 10.5299 6.91602 10.5967 6.86328L10.6529 6.96172ZM3.23496 9.22578C3.98027 9.62656 5.6291 9.83047 7.19355 9.84453C8.61738 9.84453 10.4736 9.62305 11.1662 9.25391L11.1451 8.85313C10.9307 9.19414 8.94434 9.52109 7.17949 9.50703C5.41465 9.49297 3.77637 9.21875 3.23145 8.86719V9.22578" fill="#FFFF00"/>
<path d="M3.23496 9.22578C3.98027 9.62656 5.6291 9.83047 7.19355 9.84453C8.61738 9.84453 10.4736 9.62305 11.1662 9.25391L11.1451 8.85313C10.9307 9.19414 8.94434 9.52109 7.17949 9.50703C5.41465 9.49297 3.77637 9.21875 3.23145 8.86719V9.22578M10.8182 7.27109C10.7865 7.3168 10.2275 7.51016 9.40137 7.65078C8.67289 7.76003 7.93721 7.81409 7.20059 7.8125C6.49525 7.81565 5.79051 7.77101 5.09121 7.67891C4.22988 7.5418 3.77988 7.35195 3.61465 7.28516L3.65684 7.2043C4.12435 7.38857 4.61155 7.51833 5.10879 7.59102C5.8023 7.68173 6.50118 7.72519 7.20059 7.72109C7.93133 7.72157 8.66109 7.66751 9.38379 7.55938C10.2275 7.42227 10.6916 7.24648 10.7549 7.16563L10.8182 7.27109ZM10.6529 6.96172C10.5615 7.03203 10.1045 7.19727 9.30293 7.32383C8.61012 7.42328 7.91104 7.47263 7.21113 7.47148C6.53623 7.47661 5.86183 7.43314 5.19316 7.34141C4.37402 7.23594 3.9416 7.04258 3.78691 6.98633L3.83262 6.90547C3.95215 6.96875 4.37402 7.1375 5.20371 7.25703C5.86931 7.3433 6.53998 7.38441 7.21113 7.38008C7.9052 7.38103 8.59842 7.33169 9.28535 7.23242C10.0939 7.11992 10.5299 6.91602 10.5967 6.86328L10.6529 6.96172Z" stroke="black" stroke-width="0.7" stroke-linecap="round" stroke-linejoin="round"/>
</g>
<g id="Vector_7">
<path fill-rule="evenodd" clip-rule="evenodd" d="M11.2047 9.16992V9.26484C11.0992 9.39141 10.4453 9.58125 9.62617 9.71133C8.81479 9.82919 7.99566 9.8856 7.17578 9.88008C6.2125 9.88008 5.44609 9.80977 4.84844 9.71836C4.275 9.65318 3.71451 9.5027 3.18555 9.27188V9.15937C3.55117 9.40195 4.53203 9.57773 4.8625 9.63047C5.45313 9.72187 6.21602 9.78867 7.17578 9.78867C8.18477 9.78867 8.99336 9.71836 9.61211 9.62344C10.2027 9.53906 11.0395 9.31758 11.2047 9.16992ZM11.2047 8.82891V8.92734C11.0992 9.05039 10.4453 9.24023 9.62617 9.37031C8.81479 9.48817 7.99566 9.54458 7.17578 9.53906C6.2125 9.53906 5.44609 9.46875 4.85195 9.38086C4.27715 9.3148 3.71547 9.16313 3.18555 8.93086V8.81836C3.55117 9.06094 4.53203 9.24023 4.8625 9.28945C5.45664 9.38086 6.21953 9.45117 7.17578 9.45117C8.18477 9.45117 8.99336 9.38086 9.61211 9.28242C10.2027 9.19805 11.0395 8.97656 11.2047 8.82891ZM7.18984 11.4129C5.48125 11.4023 4.01523 10.9488 3.70586 10.8715L3.93086 11.223C4.47578 11.4551 5.90664 11.7996 7.20742 11.7609C8.5082 11.7223 9.64375 11.6203 10.4418 11.2336L10.6738 10.8645C10.1289 11.1211 8.27266 11.4129 7.19336 11.4129" fill="#FFFF00"/>
<path d="M7.18984 11.4129C5.48125 11.4023 4.01523 10.9488 3.70586 10.8715L3.93086 11.223C4.47578 11.4551 5.90664 11.7996 7.20742 11.7609C8.5082 11.7223 9.64375 11.6203 10.4418 11.2336L10.6738 10.8645C10.1289 11.1211 8.27266 11.4129 7.19336 11.4129M11.2047 9.16992V9.26484C11.0992 9.39141 10.4453 9.58125 9.62617 9.71133C8.81479 9.82919 7.99566 9.8856 7.17578 9.88008C6.2125 9.88008 5.44609 9.80977 4.84844 9.71836C4.275 9.65318 3.71451 9.5027 3.18555 9.27188V9.15937C3.55117 9.40195 4.53203 9.57773 4.8625 9.63047C5.45313 9.72187 6.21602 9.78867 7.17578 9.78867C8.18477 9.78867 8.99336 9.71836 9.61211 9.62344C10.2027 9.53906 11.0395 9.31758 11.2047 9.16992ZM11.2047 8.82891V8.92734C11.0992 9.05039 10.4453 9.24023 9.62617 9.37031C8.81479 9.48817 7.99566 9.54458 7.17578 9.53906C6.2125 9.53906 5.44609 9.46875 4.85195 9.38086C4.27715 9.3148 3.71547 9.16313 3.18555 8.93086V8.81836C3.55117 9.06094 4.53203 9.24023 4.8625 9.28945C5.45664 9.38086 6.21953 9.45117 7.17578 9.45117C8.18477 9.45117 8.99336 9.38086 9.61211 9.28242C10.2027 9.19805 11.0395 8.97656 11.2047 8.82891Z" stroke="black" stroke-width="0.7" stroke-linecap="round" stroke-linejoin="round"/>
</g>
<path id="Vector_8" fill-rule="evenodd" clip-rule="evenodd" d="M10.5299 11.1488C10.4956 11.201 10.4605 11.2526 10.4244 11.3035C10.0255 11.4359 9.61787 11.5404 9.20449 11.6164C8.54115 11.7385 7.86804 11.7996 7.19355 11.7992C5.67832 11.7781 4.4373 11.4828 3.85371 11.2297L3.80449 11.1488L3.81504 11.1348L3.89238 11.1664C4.95979 11.5201 6.07612 11.704 7.20059 11.7113C7.90371 11.7148 8.60684 11.6305 9.17285 11.532C10.0447 11.3562 10.3963 11.2262 10.5053 11.1664L10.5299 11.1488ZM10.7303 10.8184H10.7338C10.7083 10.8631 10.6826 10.9076 10.6564 10.952C10.4561 11.0223 9.90762 11.184 9.10957 11.2965C8.58223 11.3668 8.25527 11.4371 7.21113 11.4582C6.01479 11.4453 4.8259 11.2679 3.67793 10.9309L3.63574 10.843C4.80177 11.163 6.00237 11.3401 7.21113 11.3703C8.16738 11.3492 8.5752 11.2789 9.09551 11.2051C10.0271 11.0645 10.4947 10.9098 10.6354 10.8641C10.6343 10.8617 10.6331 10.8593 10.6318 10.857L10.7303 10.8184Z" fill="#FFFF00" stroke="black" stroke-width="0.6" stroke-linecap="round" stroke-linejoin="round"/>
<path id="Vector_9" fill-rule="evenodd" clip-rule="evenodd" d="M10.751 8.90977C10.758 10.0348 10.1814 11.0473 9.71738 11.4937C9.03571 12.1567 8.12638 12.534 7.17559 12.5484C6.04004 12.5695 4.97129 11.8277 4.68301 11.5043C4.12051 10.868 3.66348 10.0629 3.64941 8.97305C3.71973 7.74258 4.20137 6.88828 4.90098 6.30117C5.57795 5.74434 6.42913 5.44319 7.30566 5.45039C8.19863 5.475 9.24629 5.91445 9.96699 6.78633C10.4381 7.35586 10.6455 7.97461 10.751 8.91328V8.90977ZM7.18613 5.05664C9.36582 5.05664 11.1588 6.83203 11.1588 9.00469C11.1523 10.054 10.7309 11.0582 9.98656 11.7979C9.24225 12.5376 8.2355 12.9528 7.18613 12.9527C5.00644 12.9527 3.22754 11.1809 3.22754 9.00469C3.22754 6.82852 5.00644 5.05664 7.18613 5.05664Z" fill="#FFFF00" stroke="black" stroke-width="0.7" stroke-linecap="round" stroke-linejoin="round"/>
<path id="Vector_10" fill-rule="evenodd" clip-rule="evenodd" d="M7.19648 5.04258C9.37617 5.04258 11.1551 6.825 11.1551 9.00469C11.1551 11.1844 9.37617 12.9668 7.19648 12.9668C6.14592 12.964 5.13922 12.5452 4.39669 11.802C3.65415 11.0588 3.23623 10.0517 3.23438 9.00117C3.23716 7.95121 3.65549 6.94505 4.39793 6.20261C5.14036 5.46018 6.14652 5.04185 7.19648 5.03906V5.04258ZM3.32227 9.00469C3.32227 11.1352 5.07305 12.8789 7.19648 12.8789C9.31992 12.8789 11.0672 11.1352 11.0672 9.00469C11.0672 6.87422 9.31992 5.13398 7.19648 5.13398C6.17072 5.13768 5.18798 5.54657 4.46233 6.27156C3.73667 6.99656 3.3269 7.97893 3.32227 9.00469Z" fill="#FFFF00" stroke="black" stroke-width="0.7" stroke-linecap="round" stroke-linejoin="round"/>
<path id="Vector_11" fill-rule="evenodd" clip-rule="evenodd" d="M7.2 5.37305C9.18633 5.37305 10.8246 7.00781 10.8246 9.00117C10.8246 10.998 9.18633 12.6293 7.2 12.6293C6.23829 12.6265 5.31671 12.2435 4.63635 11.5638C3.95599 10.8841 3.57207 9.96288 3.56836 9.00117C3.56836 7.00781 5.20664 5.37305 7.19648 5.37305H7.2ZM3.65625 9.00117C3.65625 10.9488 5.25586 12.5414 7.2 12.5414C9.14063 12.5414 10.7402 10.9488 10.7402 9.00117C10.7402 7.05352 9.14062 5.46094 7.19648 5.46094C5.25234 5.46094 3.65625 7.05352 3.65625 9.00117Z" fill="#FFFF00" stroke="black" stroke-width="0.7" stroke-linecap="round" stroke-linejoin="round"/>
<path id="Vector_12" fill-rule="evenodd" clip-rule="evenodd" d="M7.35859 5.02734H7.01758V12.9867H7.35859V5.02734Z" fill="#FFFF00" stroke="black" stroke-width="0.7" stroke-linecap="round" stroke-linejoin="round"/>
<path id="Vector_13" fill-rule="evenodd" clip-rule="evenodd" d="M7.32383 4.98242H7.41172V13.0332H7.32383V4.98242ZM6.98633 4.98242H7.07422V13.0332H6.98633V4.98242Z" fill="#FFFF00" stroke="black" stroke-width="0.7" stroke-linecap="round" stroke-linejoin="round"/>
<path id="Vector_14" fill-rule="evenodd" clip-rule="evenodd" d="M11.159 9.15898V8.86016L10.9199 8.63867L9.55937 8.27656L7.59766 8.07617L5.24219 8.1957L3.5582 8.59648L3.2207 8.84961V9.14141L4.07852 8.75469L6.11758 8.43828H8.0793L9.5207 8.59648L10.5191 8.83906L11.159 9.15898Z" fill="#FFFF00" stroke="black" stroke-width="0.7" stroke-linecap="round" stroke-linejoin="round"/>
<path id="Vector_15" fill-rule="evenodd" clip-rule="evenodd" d="M7.19687 8.39275C8.05641 8.38923 8.91441 8.46574 9.75977 8.62126C10.5016 8.76892 11.0254 8.95525 11.2012 9.16267V9.26814C10.9902 9.00798 10.2871 8.81814 9.74219 8.70564C9.02852 8.56853 8.125 8.48064 7.19687 8.48064C6.2125 8.48064 5.29844 8.57556 4.59531 8.71267C4.03281 8.82517 3.28047 9.04665 3.18555 9.26814V9.16267C3.23828 9.00798 3.79727 8.77946 4.58477 8.62126C5.44659 8.46491 6.321 8.38841 7.19687 8.39275ZM7.19687 8.05173C8.05757 8.04841 8.91672 8.12491 9.76328 8.28025C10.5016 8.4279 11.0289 8.61423 11.2047 8.82517V8.92712C10.9902 8.66696 10.2836 8.47712 9.74219 8.36814C9.02852 8.22751 8.125 8.13962 7.19687 8.13962C6.32673 8.13693 5.4582 8.2146 4.60234 8.37165C4.05742 8.47712 3.27344 8.70915 3.18555 8.92712V8.82165C3.23828 8.67048 3.81133 8.43493 4.58477 8.28376C5.44648 8.12623 6.32089 8.04856 7.19687 8.05173ZM7.1793 6.31853C8.65234 6.3115 9.93906 6.52595 10.5262 6.82829L10.7406 7.19743C10.2309 6.92321 8.84219 6.63493 7.1793 6.68064C5.82578 6.68767 4.38086 6.82829 3.65313 7.21501L3.90977 6.78611C4.50742 6.47673 5.91367 6.32204 7.1793 6.31853Z" fill="#FFFF00" stroke="black" stroke-width="0.7" stroke-linecap="round" stroke-linejoin="round"/>
<g id="Vector_16">
<path fill-rule="evenodd" clip-rule="evenodd" d="M7.19727 6.62427C8.04102 6.62427 8.84961 6.66997 9.49648 6.78599C10.0977 6.89849 10.6742 7.06724 10.7551 7.15865L10.8184 7.27115C10.618 7.14107 10.1223 6.99341 9.48242 6.87388C8.7269 6.75354 7.96217 6.70059 7.19727 6.71568C6.24805 6.71568 5.50977 6.76138 4.87695 6.87388C4.20898 6.99693 3.74492 7.17622 3.62891 7.2606L3.69219 7.14458C3.91367 7.02857 4.26875 6.89146 4.86289 6.78599C5.5168 6.66646 6.25859 6.6313 7.19727 6.62427ZM7.19727 6.28677C7.93977 6.27509 8.68192 6.32684 9.41562 6.44146C9.9043 6.53638 10.3859 6.68404 10.5652 6.81411L10.6566 6.96177C10.4984 6.78599 9.9043 6.62075 9.37695 6.52935C8.76523 6.42388 8.00234 6.38169 7.19727 6.37466C6.35352 6.37466 5.57305 6.4274 4.96836 6.53638C4.3918 6.64888 4.01914 6.77896 3.86094 6.88091L3.9418 6.75435C4.15977 6.64185 4.51133 6.53638 4.9543 6.44849C5.5625 6.3395 6.35 6.28677 7.19727 6.28677ZM9.16602 10.6497C8.516 10.5376 7.85673 10.4881 7.19727 10.502C4.73984 10.5301 3.94883 11.0047 3.85039 11.1489L3.66758 10.8501C4.28984 10.3965 5.62578 10.1434 7.20781 10.168C8.02695 10.1821 8.73359 10.2383 9.33125 10.3508L9.1625 10.6497" fill="#FFFF00"/>
<path d="M9.16602 10.6497C8.516 10.5376 7.85673 10.4881 7.19727 10.502C4.73984 10.5301 3.94883 11.0047 3.85039 11.1489L3.66758 10.8501C4.28984 10.3965 5.62578 10.1434 7.20781 10.168C8.02695 10.1821 8.73359 10.2383 9.33125 10.3508L9.1625 10.6497M7.19727 6.62427C8.04102 6.62427 8.84961 6.66997 9.49648 6.78599C10.0977 6.89849 10.6742 7.06724 10.7551 7.15865L10.8184 7.27115C10.618 7.14107 10.1223 6.99341 9.48242 6.87388C8.7269 6.75354 7.96217 6.70059 7.19727 6.71568C6.24805 6.71568 5.50977 6.76138 4.87695 6.87388C4.20898 6.99693 3.74492 7.17622 3.62891 7.2606L3.69219 7.14458C3.91367 7.02857 4.26875 6.89146 4.86289 6.78599C5.5168 6.66646 6.25859 6.6313 7.19727 6.62427ZM7.19727 6.28677C7.93977 6.27509 8.68192 6.32684 9.41562 6.44146C9.9043 6.53638 10.3859 6.68404 10.5652 6.81411L10.6566 6.96177C10.4984 6.78599 9.9043 6.62075 9.37695 6.52935C8.76523 6.42388 8.00234 6.38169 7.19727 6.37466C6.35352 6.37466 5.57305 6.4274 4.96836 6.53638C4.3918 6.64888 4.01914 6.77896 3.86094 6.88091L3.9418 6.75435C4.15977 6.64185 4.51133 6.53638 4.9543 6.44849C5.5625 6.3395 6.35 6.28677 7.19727 6.28677Z" stroke="black" stroke-width="0.7" stroke-linecap="round" stroke-linejoin="round"/>
</g>
<path id="Vector_17" fill-rule="evenodd" clip-rule="evenodd" d="M7.18262 10.4605C7.86465 10.471 8.53613 10.4956 9.18652 10.6187L9.1373 10.7031C8.49307 10.5918 7.83982 10.5412 7.18613 10.5519C6.2791 10.5449 5.35801 10.6292 4.56348 10.8577C4.31035 10.9281 3.89551 11.0898 3.8498 11.2234L3.8041 11.146C3.81816 11.0687 4.07129 10.9035 4.54238 10.7734C5.45645 10.5097 6.31074 10.4675 7.1791 10.457L7.18262 10.4605ZM7.21426 10.116C7.93434 10.1153 8.6531 10.1776 9.3623 10.3023L9.31309 10.3902C8.62192 10.2637 7.9204 10.2025 7.21777 10.2074C6.30723 10.2074 5.34395 10.2742 4.46504 10.5273C4.18379 10.6117 3.6916 10.7874 3.67754 10.9281L3.63184 10.8472C3.64238 10.7206 4.06426 10.5519 4.44746 10.4394C5.35017 10.2033 6.28143 10.0944 7.21426 10.116Z" fill="#FFFF00" stroke="black" stroke-width="0.6" stroke-linecap="round" stroke-linejoin="round"/>
<path id="Vector_18" fill-rule="evenodd" clip-rule="evenodd" d="M10.702 10.8961L10.4066 11.3531L9.55937 10.6008L7.35859 9.12422L4.88008 7.76016L3.58984 7.3207L3.86406 6.81094L3.95898 6.76172L4.76055 6.96211L7.39727 8.32266L8.91953 9.28242L10.1957 10.1965L10.716 10.7977L10.702 10.8961Z" fill="#FFFF00" stroke="black" stroke-width="0.7" stroke-linecap="round" stroke-linejoin="round"/>
<path id="Vector_19" fill-rule="evenodd" clip-rule="evenodd" d="M3.54434 7.33111C3.77285 7.17993 5.43223 7.91821 7.16543 8.96587C8.89863 10.017 10.5545 11.2018 10.4068 11.4268L10.3576 11.5006L10.333 11.5182C10.34 11.5182 10.3646 11.4831 10.333 11.4022C10.2557 11.1596 9.08496 10.2245 7.13379 9.04673C5.23535 7.9147 3.65332 7.23267 3.49512 7.42954L3.54434 7.33111ZM10.7619 10.8889C10.9025 10.6077 9.36621 9.44751 7.45723 8.319C5.50605 7.21157 4.09629 6.56118 3.83965 6.75454L3.7834 6.86001C3.7834 6.86353 3.7834 6.85298 3.79746 6.84243C3.84316 6.80376 3.92051 6.80728 3.95566 6.80728C4.39863 6.81079 5.66426 7.39087 7.43613 8.4104C8.21309 8.8604 10.7197 10.4706 10.7092 10.9206C10.7092 10.9592 10.7127 10.9663 10.6986 10.9874L10.7619 10.8889Z" fill="#FFFF00" stroke="black" stroke-width="0.7" stroke-linecap="round" stroke-linejoin="round"/>
</g>
<g id="Group_2">
<path id="Vector_20" d="M4.82324 9.43763C4.82384 9.74813 4.88601 10.0554 5.00616 10.3418C5.12632 10.6281 5.30207 10.8877 5.52324 11.1056C5.74172 11.3275 6.00194 11.5039 6.2889 11.6247C6.57586 11.7455 6.88389 11.8084 7.19525 11.8096C7.82538 11.8096 8.4297 11.5592 8.87525 11.1136C9.09564 10.8945 9.27058 10.634 9.39002 10.3471C9.50946 10.0601 9.57105 9.75243 9.57125 9.44163V6.27362L4.82324 6.26562V9.43763Z" fill="white" stroke="black" stroke-width="0.796446"/>
<path id="Vector_21" d="M4.91895 9.44115C4.91979 9.739 4.97961 10.0337 5.09494 10.3083C5.21028 10.583 5.37886 10.832 5.59095 11.0412C6.01681 11.4692 6.59511 11.7109 7.19895 11.7132C7.80173 11.7135 8.38003 11.4747 8.80695 11.0492C9.01832 10.8397 9.18616 10.5905 9.3008 10.3159C9.41545 10.0413 9.47463 9.74672 9.47495 9.44915V6.36914H4.91895V9.44115ZM8.55895 7.29314V9.24915L8.55495 9.45315C8.5563 9.63184 8.52157 9.80898 8.45284 9.97393C8.3841 10.1389 8.28279 10.2883 8.15495 10.4131C7.90058 10.6684 7.55531 10.8123 7.19495 10.8131C6.81895 10.8131 6.48695 10.6531 6.23895 10.4051C5.98369 10.1508 5.83983 9.8055 5.83895 9.44515V7.28514L8.55895 7.29314Z" fill="#FF0000" stroke="black" stroke-width="0.56889"/>
<g id="pt-e">
<g id="pt-d">
<path id="Vector_22" d="M5.20703 7.17434C5.21103 6.95434 5.36703 6.90234 5.36703 6.90234C5.37103 6.90234 5.53903 6.95834 5.53903 7.17834L5.20703 7.17434Z" fill="#FFFF00"/>
<path id="Vector_23" d="M5.07084 6.90634L5.04284 7.15834H5.21084C5.21084 6.95034 5.37084 6.91834 5.37084 6.91834C5.37484 6.91834 5.53084 6.96234 5.53484 7.15834H5.70284L5.67084 6.90234L5.07084 6.90634ZM5.03084 7.16234H5.71084C5.72284 7.16234 5.73484 7.17434 5.73484 7.19034C5.73484 7.21034 5.72284 7.22234 5.71084 7.22234H5.03084C5.01884 7.22234 5.00684 7.21034 5.00684 7.19034C5.00684 7.17434 5.01884 7.16234 5.03484 7.16234H5.03084Z" fill="#FFFF00" stroke="black" stroke-width="0.56889"/>
<g id="Vector_24">
<path d="M5.27846 7.15769C5.27846 7.02569 5.37046 6.98969 5.37046 6.98969C5.37046 6.98969 5.46246 7.02969 5.46246 7.15769H5.27846ZM5.04646 6.79769H5.69846C5.71046 6.79769 5.72246 6.81369 5.72246 6.82969C5.72246 6.84169 5.71046 6.85369 5.69846 6.85369H5.04646C5.03446 6.85369 5.02246 6.84169 5.02246 6.82569C5.02246 6.81369 5.03446 6.80169 5.04646 6.80169V6.79769ZM5.06246 6.85769H5.67846C5.69046 6.85769 5.70246 6.86969 5.70246 6.88569C5.70246 6.90169 5.69046 6.91369 5.67846 6.91369H5.05846C5.04246 6.91369 5.03446 6.90169 5.03446 6.88569C5.03446 6.86969 5.04246 6.85769 5.05846 6.85769H5.06246ZM5.26246 6.43369H5.31046V6.46569H5.34646V6.43369H5.39846V6.46969H5.43446V6.42969H5.48246V6.50969C5.48246 6.52569 5.47446 6.53369 5.46246 6.53369H5.28646C5.27446 6.53369 5.26246 6.52569 5.26246 6.51369V6.43369ZM5.44646 6.54169L5.45846 6.79769H5.28646L5.29846 6.53769H5.44646" fill="#FFFF00"/>
<path d="M5.44646 6.54169L5.45846 6.79769H5.28646L5.29846 6.53769H5.44646M5.27846 7.15769C5.27846 7.02569 5.37046 6.98969 5.37046 6.98969C5.37046 6.98969 5.46246 7.02969 5.46246 7.15769H5.27846ZM5.04646 6.79769H5.69846C5.71046 6.79769 5.72246 6.81369 5.72246 6.82969C5.72246 6.84169 5.71046 6.85369 5.69846 6.85369H5.04646C5.03446 6.85369 5.02246 6.84169 5.02246 6.82569C5.02246 6.81369 5.03446 6.80169 5.04646 6.80169V6.79769ZM5.06246 6.85769H5.67846C5.69046 6.85769 5.70246 6.86969 5.70246 6.88569C5.70246 6.90169 5.69046 6.91369 5.67846 6.91369H5.05846C5.04246 6.91369 5.03446 6.90169 5.03446 6.88569C5.03446 6.86969 5.04246 6.85769 5.05846 6.85769H5.06246ZM5.26246 6.43369H5.31046V6.46569H5.34646V6.43369H5.39846V6.46969H5.43446V6.42969H5.48246V6.50969C5.48246 6.52569 5.47446 6.53369 5.46246 6.53369H5.28646C5.27446 6.53369 5.26246 6.52569 5.26246 6.51369V6.43369Z" stroke="black" stroke-width="0.56889"/>
</g>
<path id="pt-a" d="M5.2391 6.66211V6.79811H5.0791V6.66211H5.2391Z" fill="#FFFF00" stroke="black" stroke-width="0.56889"/>
<path id="pt-a_2" d="M5.66293 6.66211V6.79811H5.50293V6.66211H5.66293Z" fill="#FFFF00" stroke="black" stroke-width="0.56889"/>
<path id="pt-b" d="M5.05078 6.55859H5.09878V6.59859H5.13478V6.55859H5.18278V6.59859H5.21878V6.55859H5.26678V6.63859C5.26678 6.65459 5.25878 6.66259 5.24678 6.66259H5.07478C5.06842 6.66259 5.06231 6.66007 5.05781 6.65556C5.05331 6.65106 5.05078 6.64496 5.05078 6.63859V6.55859Z" fill="#FFFF00" stroke="black" stroke-width="0.56889"/>
<path id="pt-b_2" d="M5.47461 6.55859H5.52261V6.59859H5.55861V6.55859H5.60661V6.59859H5.64261V6.55859H5.69061V6.63859C5.69061 6.65459 5.68261 6.66259 5.67061 6.66259H5.49861C5.49224 6.66259 5.48614 6.66007 5.48164 6.65556C5.47714 6.65106 5.47461 6.64496 5.47461 6.63859V6.55859Z" fill="#FFFF00" stroke="black" stroke-width="0.56889"/>
<path id="Vector_25" d="M5.35449 6.62152C5.35449 6.59752 5.39049 6.59752 5.39049 6.62152V6.68552H5.35449V6.62152Z" fill="#000001"/>
<path id="pt-c" d="M5.14258 6.70941C5.14258 6.68541 5.17458 6.68541 5.17458 6.70941V6.75741H5.14258V6.70941Z" fill="#000001"/>
<path id="pt-c_2" d="M5.56641 6.70941C5.56641 6.68541 5.59841 6.68541 5.59841 6.70941V6.75741H5.56641V6.70941Z" fill="#000001"/>
</g>
<g id="pt-d_2">
<path id="Vector_26" d="M5.20703 9.02591C5.21103 8.80591 5.36703 8.75391 5.36703 8.75391C5.37103 8.75391 5.53903 8.80991 5.53903 9.02991L5.20703 9.02591Z" fill="#FFFF00"/>
<path id="Vector_27" d="M5.07084 8.75791L5.04284 9.00991H5.21084C5.21084 8.80191 5.37084 8.76991 5.37084 8.76991C5.37484 8.76991 5.53084 8.81391 5.53484 9.00991H5.70284L5.67084 8.75391L5.07084 8.75791ZM5.03084 9.01391H5.71084C5.72284 9.01391 5.73484 9.02591 5.73484 9.04191C5.73484 9.06191 5.72284 9.07391 5.71084 9.07391H5.03084C5.01884 9.07391 5.00684 9.06191 5.00684 9.04191C5.00684 9.02591 5.01884 9.01391 5.03484 9.01391H5.03084Z" fill="#FFFF00" stroke="black" stroke-width="0.56889"/>
<g id="Vector_28">
<path d="M5.27846 9.00925C5.27846 8.87725 5.37046 8.84125 5.37046 8.84125C5.37046 8.84125 5.46246 8.88125 5.46246 9.00925H5.27846ZM5.04646 8.64925H5.69846C5.71046 8.64925 5.72246 8.66525 5.72246 8.68125C5.72246 8.69325 5.71046 8.70525 5.69846 8.70525H5.04646C5.03446 8.70525 5.02246 8.69325 5.02246 8.67725C5.02246 8.66525 5.03446 8.65325 5.04646 8.65325V8.64925ZM5.06246 8.70925H5.67846C5.69046 8.70925 5.70246 8.72125 5.70246 8.73725C5.70246 8.75325 5.69046 8.76525 5.67846 8.76525H5.05846C5.04246 8.76525 5.03446 8.75325 5.03446 8.73725C5.03446 8.72125 5.04246 8.70925 5.05846 8.70925H5.06246ZM5.26246 8.28525H5.31046V8.31725H5.34646V8.28525H5.39846V8.32125H5.43446V8.28125H5.48246V8.36125C5.48246 8.37725 5.47446 8.38525 5.46246 8.38525H5.28646C5.27446 8.38525 5.26246 8.37725 5.26246 8.36525V8.28525ZM5.44646 8.39325L5.45846 8.64925H5.28646L5.29846 8.38925H5.44646" fill="#FFFF00"/>
<path d="M5.44646 8.39325L5.45846 8.64925H5.28646L5.29846 8.38925H5.44646M5.27846 9.00925C5.27846 8.87725 5.37046 8.84125 5.37046 8.84125C5.37046 8.84125 5.46246 8.88125 5.46246 9.00925H5.27846ZM5.04646 8.64925H5.69846C5.71046 8.64925 5.72246 8.66525 5.72246 8.68125C5.72246 8.69325 5.71046 8.70525 5.69846 8.70525H5.04646C5.03446 8.70525 5.02246 8.69325 5.02246 8.67725C5.02246 8.66525 5.03446 8.65325 5.04646 8.65325V8.64925ZM5.06246 8.70925H5.67846C5.69046 8.70925 5.70246 8.72125 5.70246 8.73725C5.70246 8.75325 5.69046 8.76525 5.67846 8.76525H5.05846C5.04246 8.76525 5.03446 8.75325 5.03446 8.73725C5.03446 8.72125 5.04246 8.70925 5.05846 8.70925H5.06246ZM5.26246 8.28525H5.31046V8.31725H5.34646V8.28525H5.39846V8.32125H5.43446V8.28125H5.48246V8.36125C5.48246 8.37725 5.47446 8.38525 5.46246 8.38525H5.28646C5.27446 8.38525 5.26246 8.37725 5.26246 8.36525V8.28525Z" stroke="black" stroke-width="0.56889"/>
</g>
<path id="pt-a_3" d="M5.2391 8.51367V8.64967H5.0791V8.51367H5.2391Z" fill="#FFFF00" stroke="black" stroke-width="0.56889"/>
<path id="pt-a_4" d="M5.66293 8.51367V8.64967H5.50293V8.51367H5.66293Z" fill="#FFFF00" stroke="black" stroke-width="0.56889"/>
<path id="pt-b_3" d="M5.05078 8.41016H5.09878V8.45016H5.13478V8.41016H5.18278V8.45016H5.21878V8.41016H5.26678V8.49016C5.26678 8.50616 5.25878 8.51416 5.24678 8.51416H5.07478C5.06842 8.51416 5.06231 8.51163 5.05781 8.50713C5.05331 8.50263 5.05078 8.49652 5.05078 8.49016V8.41016Z" fill="#FFFF00" stroke="black" stroke-width="0.56889"/>
<path id="pt-b_4" d="M5.47461 8.41016H5.52261V8.45016H5.55861V8.41016H5.60661V8.45016H5.64261V8.41016H5.69061V8.49016C5.69061 8.50616 5.68261 8.51416 5.67061 8.51416H5.49861C5.49224 8.51416 5.48614 8.51163 5.48164 8.50713C5.47714 8.50263 5.47461 8.49652 5.47461 8.49016V8.41016Z" fill="#FFFF00" stroke="black" stroke-width="0.56889"/>
<path id="Vector_29" d="M5.35449 8.47308C5.35449 8.44908 5.39049 8.44908 5.39049 8.47308V8.53708H5.35449V8.47308Z" fill="#000001"/>
<path id="pt-c_3" d="M5.14258 8.56097C5.14258 8.53697 5.17458 8.53697 5.17458 8.56097V8.60897H5.14258V8.56097Z" fill="#000001"/>
<path id="pt-c_4" d="M5.56641 8.56097C5.56641 8.53697 5.59841 8.53697 5.59841 8.56097V8.60897H5.56641V8.56097Z" fill="#000001"/>
</g>
<g id="pt-d_3">
<path id="Vector_30" d="M5.92835 10.9573C5.77507 10.7994 5.84809 10.6521 5.84809 10.6521C5.85091 10.6493 6.00903 10.5695 6.16513 10.7245L5.92835 10.9573Z" fill="#FFFF00"/>
<path id="Vector_31" d="M5.64266 10.8637L5.80174 11.0611L5.92012 10.9419C5.77253 10.7953 5.86257 10.6592 5.86257 10.6592C5.86539 10.6564 6.00653 10.5767 6.14842 10.712L6.2668 10.5928L6.0626 10.4351L5.64266 10.8637ZM5.79613 11.0724L6.27528 10.5899C6.28373 10.5814 6.3007 10.5813 6.31206 10.5926C6.32625 10.6067 6.32631 10.6237 6.31785 10.6322L5.8387 11.1147C5.83025 11.1232 5.81327 11.1233 5.79908 11.1092C5.78773 11.0979 5.78767 11.0809 5.79895 11.0696L5.79613 11.0724Z" fill="#FFFF00" stroke="black" stroke-width="0.56889"/>
<g id="Vector_32">
<path d="M5.96844 10.8938C5.87478 10.8008 5.91406 10.7102 5.91406 10.7102C5.91406 10.7102 6.00727 10.6731 6.09809 10.7633L5.96844 10.8938ZM5.54952 10.8048L6.00894 10.3421C6.0174 10.3336 6.0372 10.3364 6.04856 10.3477C6.05707 10.3561 6.05713 10.3731 6.04868 10.3816L5.58925 10.8442C5.5808 10.8528 5.56383 10.8528 5.55247 10.8415C5.54396 10.8331 5.5439 10.8161 5.55236 10.8076L5.54952 10.8048ZM5.60337 10.8357L6.03742 10.3986C6.04588 10.3901 6.06285 10.39 6.0742 10.4013C6.08555 10.4126 6.08561 10.4295 6.07716 10.4381L5.64028 10.878C5.62901 10.8894 5.61486 10.8866 5.6035 10.8753C5.59215 10.864 5.58927 10.8499 5.60055 10.8385L5.60337 10.8357ZM5.44343 10.395L5.47726 10.361L5.49996 10.3835L5.52533 10.358L5.50262 10.3354L5.53927 10.2985L5.56481 10.3239L5.59018 10.2983L5.56179 10.2702L5.59562 10.2361L5.65238 10.2925C5.66374 10.3037 5.66377 10.3151 5.65532 10.3236L5.5313 10.4485C5.52285 10.457 5.50872 10.4598 5.5002 10.4514L5.44343 10.395ZM5.64972 10.3406L5.83983 10.5124L5.71863 10.6345L5.5426 10.4428L5.64688 10.3377" fill="#FFFF00"/>
<path d="M5.64972 10.3406L5.83983 10.5124L5.71863 10.6345L5.5426 10.4428L5.64688 10.3377M5.96844 10.8938C5.87478 10.8008 5.91406 10.7102 5.91406 10.7102C5.91406 10.7102 6.00727 10.6731 6.09809 10.7633L5.96844 10.8938ZM5.54952 10.8048L6.00894 10.3421C6.0174 10.3336 6.0372 10.3364 6.04856 10.3477C6.05707 10.3561 6.05713 10.3731 6.04868 10.3816L5.58925 10.8442C5.5808 10.8528 5.56383 10.8528 5.55247 10.8415C5.54396 10.8331 5.5439 10.8161 5.55236 10.8076L5.54952 10.8048ZM5.60337 10.8357L6.03742 10.3986C6.04588 10.3901 6.06285 10.39 6.0742 10.4013C6.08555 10.4126 6.08561 10.4295 6.07716 10.4381L5.64028 10.878C5.62901 10.8894 5.61486 10.8866 5.6035 10.8753C5.59215 10.864 5.58927 10.8499 5.60055 10.8385L5.60337 10.8357ZM5.44343 10.395L5.47726 10.361L5.49996 10.3835L5.52533 10.358L5.50262 10.3354L5.53927 10.2985L5.56481 10.3239L5.59018 10.2983L5.56179 10.2702L5.59562 10.2361L5.65238 10.2925C5.66374 10.3037 5.66377 10.3151 5.65532 10.3236L5.5313 10.4485C5.52285 10.457 5.50872 10.4598 5.5002 10.4514L5.44343 10.395Z" stroke="black" stroke-width="0.56889"/>
</g>
<path id="pt-a_5" d="M5.58833 10.574L5.68483 10.6698L5.57209 10.7833L5.47559 10.6875L5.58833 10.574Z" fill="#FFFF00" stroke="black" stroke-width="0.56889"/>
<path id="pt-a_6" d="M5.88618 10.2732L5.98268 10.369L5.86994 10.4825L5.77344 10.3867L5.88618 10.2732Z" fill="#FFFF00" stroke="black" stroke-width="0.56889"/>
<path id="pt-b_5" d="M5.38184 10.6328L5.41566 10.5988L5.44404 10.6269L5.46941 10.6014L5.44103 10.5732L5.47485 10.5391L5.50323 10.5673L5.5286 10.5418L5.50021 10.5136L5.53404 10.4795L5.5908 10.5359C5.60216 10.5472 5.6022 10.5585 5.59374 10.567L5.47254 10.6891C5.46806 10.6936 5.46196 10.6961 5.4556 10.6962C5.44923 10.6962 5.44312 10.6937 5.4386 10.6892L5.38184 10.6328Z" fill="#FFFF00" stroke="black" stroke-width="0.56889"/>
<path id="pt-b_6" d="M5.68066 10.332L5.71449 10.298L5.74287 10.3262L5.76824 10.3006L5.73985 10.2724L5.77368 10.2384L5.80206 10.2666L5.82743 10.241L5.79904 10.2128L5.83287 10.1788L5.88963 10.2351C5.90098 10.2464 5.90102 10.2577 5.89257 10.2662L5.77137 10.3883C5.76689 10.3928 5.76079 10.3954 5.75443 10.3954C5.74806 10.3954 5.74195 10.3929 5.73743 10.3884L5.68066 10.332Z" fill="#FFFF00" stroke="black" stroke-width="0.56889"/>
<path id="Vector_33" d="M5.64168 10.4619C5.62465 10.445 5.65002 10.4194 5.66705 10.4364L5.71246 10.4815L5.68709 10.507L5.64168 10.4619Z" fill="#000001"/>
<path id="pt-c_5" d="M5.55476 10.6748C5.53773 10.6579 5.56028 10.6352 5.57731 10.6521L5.61137 10.6859L5.58882 10.7086L5.55476 10.6748Z" fill="#000001"/>
<path id="pt-c_6" d="M5.85262 10.374C5.83559 10.3571 5.85813 10.3344 5.87516 10.3513L5.90922 10.3851L5.88668 10.4078L5.85262 10.374Z" fill="#000001"/>
</g>
</g>
<g id="pt-d_4">
<path id="Vector_34" d="M7.03516 7.17434C7.03916 6.95434 7.19516 6.90234 7.19516 6.90234C7.19916 6.90234 7.36716 6.95834 7.36716 7.17834L7.03516 7.17434Z" fill="#FFFF00"/>
<path id="Vector_35" d="M6.89896 6.90634L6.87096 7.15834H7.03896C7.03896 6.95034 7.19896 6.91834 7.19896 6.91834C7.20296 6.91834 7.35896 6.96234 7.36296 7.15834H7.53096L7.49896 6.90234L6.89896 6.90634ZM6.85896 7.16234H7.53896C7.55096 7.16234 7.56296 7.17434 7.56296 7.19034C7.56296 7.21034 7.55096 7.22234 7.53896 7.22234H6.85896C6.84696 7.22234 6.83496 7.21034 6.83496 7.19034C6.83496 7.17434 6.84696 7.16234 6.86296 7.16234H6.85896Z" fill="#FFFF00" stroke="black" stroke-width="0.56889"/>
<g id="Vector_36">
<path d="M7.10659 7.15769C7.10659 7.02569 7.19859 6.98969 7.19859 6.98969C7.19859 6.98969 7.29059 7.02969 7.29059 7.15769H7.10659ZM6.87459 6.79769H7.52659C7.53859 6.79769 7.55059 6.81369 7.55059 6.82969C7.55059 6.84169 7.53859 6.85369 7.52659 6.85369H6.87459C6.86259 6.85369 6.85059 6.84169 6.85059 6.82569C6.85059 6.81369 6.86259 6.80169 6.87459 6.80169V6.79769ZM6.89059 6.85769H7.50659C7.51859 6.85769 7.53059 6.86969 7.53059 6.88569C7.53059 6.90169 7.51859 6.91369 7.50659 6.91369H6.88659C6.87059 6.91369 6.86259 6.90169 6.86259 6.88569C6.86259 6.86969 6.87059 6.85769 6.88659 6.85769H6.89059ZM7.09059 6.43369H7.13859V6.46569H7.17459V6.43369H7.22659V6.46969H7.26259V6.42969H7.31059V6.50969C7.31059 6.52569 7.30259 6.53369 7.29059 6.53369H7.11459C7.10259 6.53369 7.09059 6.52569 7.09059 6.51369V6.43369ZM7.27459 6.54169L7.28659 6.79769H7.11459L7.12659 6.53769H7.27459" fill="#FFFF00"/>
<path d="M7.27459 6.54169L7.28659 6.79769H7.11459L7.12659 6.53769H7.27459M7.10659 7.15769C7.10659 7.02569 7.19859 6.98969 7.19859 6.98969C7.19859 6.98969 7.29059 7.02969 7.29059 7.15769H7.10659ZM6.87459 6.79769H7.52659C7.53859 6.79769 7.55059 6.81369 7.55059 6.82969C7.55059 6.84169 7.53859 6.85369 7.52659 6.85369H6.87459C6.86259 6.85369 6.85059 6.84169 6.85059 6.82569C6.85059 6.81369 6.86259 6.80169 6.87459 6.80169V6.79769ZM6.89059 6.85769H7.50659C7.51859 6.85769 7.53059 6.86969 7.53059 6.88569C7.53059 6.90169 7.51859 6.91369 7.50659 6.91369H6.88659C6.87059 6.91369 6.86259 6.90169 6.86259 6.88569C6.86259 6.86969 6.87059 6.85769 6.88659 6.85769H6.89059ZM7.09059 6.43369H7.13859V6.46569H7.17459V6.43369H7.22659V6.46969H7.26259V6.42969H7.31059V6.50969C7.31059 6.52569 7.30259 6.53369 7.29059 6.53369H7.11459C7.10259 6.53369 7.09059 6.52569 7.09059 6.51369V6.43369Z" stroke="black" stroke-width="0.56889"/>
</g>
<path id="pt-a_7" d="M7.06723 6.66211V6.79811H6.90723V6.66211H7.06723Z" fill="#FFFF00" stroke="black" stroke-width="0.56889"/>
<path id="pt-a_8" d="M7.49105 6.66211V6.79811H7.33105V6.66211H7.49105Z" fill="#FFFF00" stroke="black" stroke-width="0.56889"/>
<path id="pt-b_7" d="M6.87891 6.55859H6.92691V6.59859H6.96291V6.55859H7.01091V6.59859H7.04691V6.55859H7.09491V6.63859C7.09491 6.65459 7.08691 6.66259 7.07491 6.66259H6.90291C6.89654 6.66259 6.89044 6.66007 6.88594 6.65556C6.88143 6.65106 6.87891 6.64496 6.87891 6.63859V6.55859Z" fill="#FFFF00" stroke="black" stroke-width="0.56889"/>
<path id="pt-b_8" d="M7.30273 6.55859H7.35073V6.59859H7.38673V6.55859H7.43473V6.59859H7.47073V6.55859H7.51873V6.63859C7.51873 6.65459 7.51073 6.66259 7.49873 6.66259H7.32673C7.32037 6.66259 7.31426 6.66007 7.30976 6.65556C7.30526 6.65106 7.30273 6.64496 7.30273 6.63859V6.55859Z" fill="#FFFF00" stroke="black" stroke-width="0.56889"/>
<path id="Vector_37" d="M7.18262 6.62152C7.18262 6.59752 7.21862 6.59752 7.21862 6.62152V6.68552H7.18262V6.62152Z" fill="#000001"/>
<path id="pt-c_7" d="M6.9707 6.70941C6.9707 6.68541 7.0027 6.68541 7.0027 6.70941V6.75741H6.9707V6.70941Z" fill="#000001"/>
<path id="pt-c_8" d="M7.39453 6.70941C7.39453 6.68541 7.42653 6.68541 7.42653 6.70941V6.75741H7.39453V6.70941Z" fill="#000001"/>
</g>
<g id="pt-e_2">
<g id="pt-d_5">
<path id="Vector_38" d="M9.18262 7.17434C9.17862 6.95434 9.02262 6.90234 9.02262 6.90234C9.01862 6.90234 8.85062 6.95834 8.85062 7.17834L9.18262 7.17434Z" fill="#FFFF00"/>
<path id="Vector_39" d="M9.31881 6.90634L9.34681 7.15834H9.17881C9.17881 6.95034 9.01881 6.91834 9.01881 6.91834C9.01481 6.91834 8.85881 6.96234 8.85481 7.15834H8.68681L8.71881 6.90234L9.31881 6.90634ZM9.35881 7.16234H8.67881C8.66681 7.16234 8.65481 7.17434 8.65481 7.19034C8.65481 7.21034 8.66681 7.22234 8.67881 7.22234H9.35881C9.37081 7.22234 9.38281 7.21034 9.38281 7.19034C9.38281 7.17434 9.37081 7.16234 9.35481 7.16234H9.35881Z" fill="#FFFF00" stroke="black" stroke-width="0.56889"/>
<g id="Vector_40">
<path d="M9.11119 7.15769C9.11119 7.02569 9.01919 6.98969 9.01919 6.98969C9.01919 6.98969 8.92719 7.02969 8.92719 7.15769H9.11119ZM9.34319 6.79769H8.69119C8.67919 6.79769 8.66719 6.81369 8.66719 6.82969C8.66719 6.84169 8.67919 6.85369 8.69119 6.85369H9.34319C9.35519 6.85369 9.36719 6.84169 9.36719 6.82569C9.36719 6.81369 9.35519 6.80169 9.34319 6.80169V6.79769ZM9.32719 6.85769H8.71119C8.69919 6.85769 8.68719 6.86969 8.68719 6.88569C8.68719 6.90169 8.69919 6.91369 8.71119 6.91369H9.33119C9.34719 6.91369 9.35519 6.90169 9.35519 6.88569C9.35519 6.86969 9.34719 6.85769 9.33119 6.85769H9.32719ZM9.12719 6.43369H9.07919V6.46569H9.04319V6.43369H8.99119V6.46969H8.95519V6.42969H8.90719V6.50969C8.90719 6.52569 8.91519 6.53369 8.92719 6.53369H9.10319C9.11519 6.53369 9.12719 6.52569 9.12719 6.51369V6.43369ZM8.94319 6.54169L8.93119 6.79769H9.10319L9.09119 6.53769H8.94319" fill="#FFFF00"/>
<path d="M8.94319 6.54169L8.93119 6.79769H9.10319L9.09119 6.53769H8.94319M9.11119 7.15769C9.11119 7.02569 9.01919 6.98969 9.01919 6.98969C9.01919 6.98969 8.92719 7.02969 8.92719 7.15769H9.11119ZM9.34319 6.79769H8.69119C8.67919 6.79769 8.66719 6.81369 8.66719 6.82969C8.66719 6.84169 8.67919 6.85369 8.69119 6.85369H9.34319C9.35519 6.85369 9.36719 6.84169 9.36719 6.82569C9.36719 6.81369 9.35519 6.80169 9.34319 6.80169V6.79769ZM9.32719 6.85769H8.71119C8.69919 6.85769 8.68719 6.86969 8.68719 6.88569C8.68719 6.90169 8.69919 6.91369 8.71119 6.91369H9.33119C9.34719 6.91369 9.35519 6.90169 9.35519 6.88569C9.35519 6.86969 9.34719 6.85769 9.33119 6.85769H9.32719ZM9.12719 6.43369H9.07919V6.46569H9.04319V6.43369H8.99119V6.46969H8.95519V6.42969H8.90719V6.50969C8.90719 6.52569 8.91519 6.53369 8.92719 6.53369H9.10319C9.11519 6.53369 9.12719 6.52569 9.12719 6.51369V6.43369Z" stroke="black" stroke-width="0.56889"/>
</g>
<path id="pt-a_9" d="M9.15055 6.66211V6.79811H9.31055V6.66211H9.15055Z" fill="#FFFF00" stroke="black" stroke-width="0.56889"/>
<path id="pt-a_10" d="M8.72672 6.66211V6.79811H8.88672V6.66211H8.72672Z" fill="#FFFF00" stroke="black" stroke-width="0.56889"/>
<path id="pt-b_9" d="M9.33887 6.55859H9.29087V6.59859H9.25487V6.55859H9.20687V6.59859H9.17087V6.55859H9.12287V6.63859C9.12287 6.65459 9.13087 6.66259 9.14287 6.66259H9.31487C9.32123 6.66259 9.32734 6.66007 9.33184 6.65556C9.33634 6.65106 9.33887 6.64496 9.33887 6.63859V6.55859Z" fill="#FFFF00" stroke="black" stroke-width="0.56889"/>
<path id="pt-b_10" d="M8.91504 6.55859H8.86704V6.59859H8.83104V6.55859H8.78304V6.59859H8.74704V6.55859H8.69904V6.63859C8.69904 6.65459 8.70704 6.66259 8.71904 6.66259H8.89104C8.8974 6.66259 8.90351 6.66007 8.90801 6.65556C8.91251 6.65106 8.91504 6.64496 8.91504 6.63859V6.55859Z" fill="#FFFF00" stroke="black" stroke-width="0.56889"/>
<path id="Vector_41" d="M9.03516 6.62152C9.03516 6.59752 8.99916 6.59752 8.99916 6.62152V6.68552H9.03516V6.62152Z" fill="#000001"/>
<path id="pt-c_9" d="M9.24707 6.70941C9.24707 6.68541 9.21507 6.68541 9.21507 6.70941V6.75741H9.24707V6.70941Z" fill="#000001"/>
<path id="pt-c_10" d="M8.82324 6.70941C8.82324 6.68541 8.79124 6.68541 8.79124 6.70941V6.75741H8.82324V6.70941Z" fill="#000001"/>
</g>
<g id="pt-d_6">
<path id="Vector_42" d="M9.18262 9.02591C9.17862 8.80591 9.02262 8.75391 9.02262 8.75391C9.01862 8.75391 8.85062 8.80991 8.85062 9.02991L9.18262 9.02591Z" fill="#FFFF00"/>
<path id="Vector_43" d="M9.31881 8.75791L9.34681 9.00991H9.17881C9.17881 8.80191 9.01881 8.76991 9.01881 8.76991C9.01481 8.76991 8.85881 8.81391 8.85481 9.00991H8.68681L8.71881 8.75391L9.31881 8.75791ZM9.35881 9.01391H8.67881C8.66681 9.01391 8.65481 9.02591 8.65481 9.04191C8.65481 9.06191 8.66681 9.07391 8.67881 9.07391H9.35881C9.37081 9.07391 9.38281 9.06191 9.38281 9.04191C9.38281 9.02591 9.37081 9.01391 9.35481 9.01391H9.35881Z" fill="#FFFF00" stroke="black" stroke-width="0.56889"/>
<g id="Vector_44">
<path d="M9.11119 9.00925C9.11119 8.87725 9.01919 8.84125 9.01919 8.84125C9.01919 8.84125 8.92719 8.88125 8.92719 9.00925H9.11119ZM9.34319 8.64925H8.69119C8.67919 8.64925 8.66719 8.66525 8.66719 8.68125C8.66719 8.69325 8.67919 8.70525 8.69119 8.70525H9.34319C9.35519 8.70525 9.36719 8.69325 9.36719 8.67725C9.36719 8.66525 9.35519 8.65325 9.34319 8.65325V8.64925ZM9.32719 8.70925H8.71119C8.69919 8.70925 8.68719 8.72125 8.68719 8.73725C8.68719 8.75325 8.69919 8.76525 8.71119 8.76525H9.33119C9.34719 8.76525 9.35519 8.75325 9.35519 8.73725C9.35519 8.72125 9.34719 8.70925 9.33119 8.70925H9.32719ZM9.12719 8.28525H9.07919V8.31725H9.04319V8.28525H8.99119V8.32125H8.95519V8.28125H8.90719V8.36125C8.90719 8.37725 8.91519 8.38525 8.92719 8.38525H9.10319C9.11519 8.38525 9.12719 8.37725 9.12719 8.36525V8.28525ZM8.94319 8.39325L8.93119 8.64925H9.10319L9.09119 8.38925H8.94319" fill="#FFFF00"/>
<path d="M8.94319 8.39325L8.93119 8.64925H9.10319L9.09119 8.38925H8.94319M9.11119 9.00925C9.11119 8.87725 9.01919 8.84125 9.01919 8.84125C9.01919 8.84125 8.92719 8.88125 8.92719 9.00925H9.11119ZM9.34319 8.64925H8.69119C8.67919 8.64925 8.66719 8.66525 8.66719 8.68125C8.66719 8.69325 8.67919 8.70525 8.69119 8.70525H9.34319C9.35519 8.70525 9.36719 8.69325 9.36719 8.67725C9.36719 8.66525 9.35519 8.65325 9.34319 8.65325V8.64925ZM9.32719 8.70925H8.71119C8.69919 8.70925 8.68719 8.72125 8.68719 8.73725C8.68719 8.75325 8.69919 8.76525 8.71119 8.76525H9.33119C9.34719 8.76525 9.35519 8.75325 9.35519 8.73725C9.35519 8.72125 9.34719 8.70925 9.33119 8.70925H9.32719ZM9.12719 8.28525H9.07919V8.31725H9.04319V8.28525H8.99119V8.32125H8.95519V8.28125H8.90719V8.36125C8.90719 8.37725 8.91519 8.38525 8.92719 8.38525H9.10319C9.11519 8.38525 9.12719 8.37725 9.12719 8.36525V8.28525Z" stroke="black" stroke-width="0.56889"/>
</g>
<path id="pt-a_11" d="M9.15055 8.51367V8.64967H9.31055V8.51367H9.15055Z" fill="#FFFF00" stroke="black" stroke-width="0.56889"/>
<path id="pt-a_12" d="M8.72672 8.51367V8.64967H8.88672V8.51367H8.72672Z" fill="#FFFF00" stroke="black" stroke-width="0.56889"/>
<path id="pt-b_11" d="M9.33887 8.41016H9.29087V8.45016H9.25487V8.41016H9.20687V8.45016H9.17087V8.41016H9.12287V8.49016C9.12287 8.50616 9.13087 8.51416 9.14287 8.51416H9.31487C9.32123 8.51416 9.32734 8.51163 9.33184 8.50713C9.33634 8.50263 9.33887 8.49652 9.33887 8.49016V8.41016Z" fill="#FFFF00" stroke="black" stroke-width="0.56889"/>
<path id="pt-b_12" d="M8.91504 8.41016H8.86704V8.45016H8.83104V8.41016H8.78304V8.45016H8.74704V8.41016H8.69904V8.49016C8.69904 8.50616 8.70704 8.51416 8.71904 8.51416H8.89104C8.8974 8.51416 8.90351 8.51163 8.90801 8.50713C8.91251 8.50263 8.91504 8.49652 8.91504 8.49016V8.41016Z" fill="#FFFF00" stroke="black" stroke-width="0.56889"/>
<path id="Vector_45" d="M9.03516 8.47308C9.03516 8.44908 8.99916 8.44908 8.99916 8.47308V8.53708H9.03516V8.47308Z" fill="#000001"/>
<path id="pt-c_11" d="M9.24707 8.56097C9.24707 8.53697 9.21507 8.53697 9.21507 8.56097V8.60897H9.24707V8.56097Z" fill="#000001"/>
<path id="pt-c_12" d="M8.82324 8.56097C8.82324 8.53697 8.79124 8.53697 8.79124 8.56097V8.60897H8.82324V8.56097Z" fill="#000001"/>
</g>
<g id="pt-d_7">
<path id="Vector_46" d="M8.46129 10.9573C8.61458 10.7994 8.54156 10.6521 8.54156 10.6521C8.53874 10.6493 8.38062 10.5695 8.22452 10.7245L8.46129 10.9573Z" fill="#FFFF00"/>
<path id="Vector_47" d="M8.74699 10.8637L8.5879 11.0611L8.46953 10.9419C8.61712 10.7953 8.52708 10.6592 8.52708 10.6592C8.52426 10.6564 8.38312 10.5767 8.24122 10.712L8.12284 10.5928L8.32704 10.4351L8.74699 10.8637ZM8.59352 11.0724L8.11437 10.5899C8.10591 10.5814 8.08894 10.5813 8.07759 10.5926C8.0634 10.6067 8.06334 10.6237 8.0718 10.6322L8.55095 11.1147C8.5594 11.1232 8.57637 11.1233 8.59057 11.1092C8.60192 11.0979 8.60198 11.0809 8.5907 11.0696L8.59352 11.0724Z" fill="#FFFF00" stroke="black" stroke-width="0.56889"/>
<g id="Vector_48">
<path d="M8.42121 10.8938C8.51487 10.8008 8.47559 10.7102 8.47559 10.7102C8.47559 10.7102 8.38238 10.6731 8.29156 10.7633L8.42121 10.8938ZM8.84013 10.8048L8.38071 10.3421C8.37225 10.3336 8.35244 10.3364 8.34109 10.3477C8.33258 10.3561 8.33252 10.3731 8.34097 10.3816L8.80039 10.8442C8.80885 10.8528 8.82582 10.8528 8.83717 10.8415C8.84569 10.8331 8.84575 10.8161 8.83729 10.8076L8.84013 10.8048ZM8.78628 10.8357L8.35223 10.3986C8.34377 10.3901 8.3268 10.39 8.31545 10.4013C8.30409 10.4126 8.30404 10.4295 8.31249 10.4381L8.74936 10.878C8.76064 10.8894 8.77479 10.8866 8.78614 10.8753C8.7975 10.864 8.80037 10.8499 8.7891 10.8385L8.78628 10.8357ZM8.94621 10.395L8.91239 10.361L8.88968 10.3835L8.86432 10.358L8.88702 10.3354L8.85038 10.2985L8.82484 10.3239L8.79947 10.2983L8.82785 10.2702L8.79403 10.2361L8.73727 10.2925C8.72591 10.3037 8.72587 10.3151 8.73433 10.3236L8.85835 10.4485C8.8668 10.457 8.88093 10.4598 8.88945 10.4514L8.94621 10.395ZM8.73993 10.3406L8.54982 10.5124L8.67102 10.6345L8.84705 10.4428L8.74277 10.3377" fill="#FFFF00"/>
<path d="M8.73993 10.3406L8.54982 10.5124L8.67102 10.6345L8.84705 10.4428L8.74277 10.3377M8.42121 10.8938C8.51487 10.8008 8.47559 10.7102 8.47559 10.7102C8.47559 10.7102 8.38238 10.6731 8.29156 10.7633L8.42121 10.8938ZM8.84013 10.8048L8.38071 10.3421C8.37225 10.3336 8.35244 10.3364 8.34109 10.3477C8.33258 10.3561 8.33252 10.3731 8.34097 10.3816L8.80039 10.8442C8.80885 10.8528 8.82582 10.8528 8.83717 10.8415C8.84569 10.8331 8.84575 10.8161 8.83729 10.8076L8.84013 10.8048ZM8.78628 10.8357L8.35223 10.3986C8.34377 10.3901 8.3268 10.39 8.31545 10.4013C8.30409 10.4126 8.30404 10.4295 8.31249 10.4381L8.74936 10.878C8.76064 10.8894 8.77479 10.8866 8.78614 10.8753C8.7975 10.864 8.80037 10.8499 8.7891 10.8385L8.78628 10.8357ZM8.94621 10.395L8.91239 10.361L8.88968 10.3835L8.86432 10.358L8.88702 10.3354L8.85038 10.2985L8.82484 10.3239L8.79947 10.2983L8.82785 10.2702L8.79403 10.2361L8.73727 10.2925C8.72591 10.3037 8.72587 10.3151 8.73433 10.3236L8.85835 10.4485C8.8668 10.457 8.88093 10.4598 8.88945 10.4514L8.94621 10.395Z" stroke="black" stroke-width="0.56889"/>
</g>
<path id="pt-a_13" d="M8.80132 10.574L8.70482 10.6698L8.81756 10.7833L8.91406 10.6875L8.80132 10.574Z" fill="#FFFF00" stroke="black" stroke-width="0.56889"/>
<path id="pt-a_14" d="M8.50347 10.2732L8.40697 10.369L8.51971 10.4825L8.61621 10.3867L8.50347 10.2732Z" fill="#FFFF00" stroke="black" stroke-width="0.56889"/>
<path id="pt-b_13" d="M9.00781 10.6328L8.97399 10.5988L8.94561 10.6269L8.92024 10.6014L8.94862 10.5732L8.9148 10.5391L8.88642 10.5673L8.86105 10.5418L8.88943 10.5136L8.85561 10.4795L8.79885 10.5359C8.78749 10.5472 8.78745 10.5585 8.79591 10.567L8.91711 10.6891C8.92159 10.6936 8.92769 10.6961 8.93405 10.6962C8.94042 10.6962 8.94653 10.6937 8.95105 10.6892L9.00781 10.6328Z" fill="#FFFF00" stroke="black" stroke-width="0.56889"/>
<path id="pt-b_14" d="M8.70898 10.332L8.67516 10.298L8.64678 10.3262L8.62141 10.3006L8.6498 10.2724L8.61597 10.2384L8.58759 10.2666L8.56222 10.241L8.59061 10.2128L8.55678 10.1788L8.50002 10.2351C8.48866 10.2464 8.48862 10.2577 8.49708 10.2662L8.61828 10.3883C8.62276 10.3928 8.62886 10.3954 8.63522 10.3954C8.64159 10.3954 8.6477 10.3929 8.65222 10.3884L8.70898 10.332Z" fill="#FFFF00" stroke="black" stroke-width="0.56889"/>
<path id="Vector_49" d="M8.74797 10.4619C8.765 10.445 8.73963 10.4194 8.7226 10.4364L8.67719 10.4815L8.70256 10.507L8.74797 10.4619Z" fill="#000001"/>
<path id="pt-c_13" d="M8.83488 10.6748C8.85191 10.6579 8.82937 10.6352 8.81234 10.6521L8.77828 10.6859L8.80082 10.7086L8.83488 10.6748Z" fill="#000001"/>
<path id="pt-c_14" d="M8.53703 10.374C8.55406 10.3571 8.53151 10.3344 8.51448 10.3513L8.48043 10.3851L8.50297 10.4078L8.53703 10.374Z" fill="#000001"/>
</g>
</g>
<g id="pt-f">
<path id="Vector_50" d="M6.90333 9.09411C6.90261 9.17853 6.93408 9.26006 6.99133 9.32211C7.01805 9.35198 7.0507 9.37595 7.0872 9.39248C7.12371 9.40901 7.16326 9.41774 7.20333 9.41811C7.28733 9.41811 7.36333 9.37811 7.41533 9.32211C7.47259 9.26006 7.50406 9.17853 7.50333 9.09411V8.66211H6.90333V9.09411Z" fill="#003399"/>
<path id="Vector_51" d="M7.0434 8.88563C7.07654 8.88563 7.1034 8.85876 7.1034 8.82563C7.1034 8.79249 7.07654 8.76562 7.0434 8.76562C7.01026 8.76562 6.9834 8.79249 6.9834 8.82563C6.9834 8.85876 7.01026 8.88563 7.0434 8.88563Z" fill="white"/>
<path id="Vector_52" d="M7.37543 8.88563C7.40857 8.88563 7.43543 8.85876 7.43543 8.82563C7.43543 8.79249 7.40857 8.76562 7.37543 8.76562C7.34229 8.76562 7.31543 8.79249 7.31543 8.82563C7.31543 8.85876 7.34229 8.88563 7.37543 8.88563Z" fill="white"/>
<path id="Vector_53" d="M7.20746 9.04578C7.2406 9.04578 7.26746 9.01892 7.26746 8.98578C7.26746 8.95264 7.2406 8.92578 7.20746 8.92578C7.17432 8.92578 7.14746 8.95264 7.14746 8.98578C7.14746 9.01892 7.17432 9.04578 7.20746 9.04578Z" fill="white"/>
<path id="Vector_54" d="M7.0434 9.21375C7.07654 9.21375 7.1034 9.18689 7.1034 9.15375C7.1034 9.12061 7.07654 9.09375 7.0434 9.09375C7.01026 9.09375 6.9834 9.12061 6.9834 9.15375C6.9834 9.18689 7.01026 9.21375 7.0434 9.21375Z" fill="white"/>
<path id="Vector_55" d="M7.37543 9.21375C7.40857 9.21375 7.43543 9.18689 7.43543 9.15375C7.43543 9.12061 7.40857 9.09375 7.37543 9.09375C7.34229 9.09375 7.31543 9.12061 7.31543 9.15375C7.31543 9.18689 7.34229 9.21375 7.37543 9.21375Z" fill="white"/>
</g>
<g id="pt-f_2">
<path id="Vector_56" d="M6.90333 8.05309C6.90261 8.13752 6.93408 8.21905 6.99133 8.2811C7.01805 8.31097 7.0507 8.33493 7.0872 8.35146C7.12371 8.36799 7.16326 8.37672 7.20333 8.37709C7.28733 8.37709 7.36333 8.3371 7.41533 8.2811C7.47259 8.21905 7.50406 8.13752 7.50333 8.05309V7.62109H6.90333V8.05309Z" fill="#003399"/>
<path id="Vector_57" d="M7.0434 7.84461C7.07654 7.84461 7.1034 7.81775 7.1034 7.78461C7.1034 7.75147 7.07654 7.72461 7.0434 7.72461C7.01026 7.72461 6.9834 7.75147 6.9834 7.78461C6.9834 7.81775 7.01026 7.84461 7.0434 7.84461Z" fill="white"/>
<path id="Vector_58" d="M7.37543 7.84461C7.40857 7.84461 7.43543 7.81775 7.43543 7.78461C7.43543 7.75147 7.40857 7.72461 7.37543 7.72461C7.34229 7.72461 7.31543 7.75147 7.31543 7.78461C7.31543 7.81775 7.34229 7.84461 7.37543 7.84461Z" fill="white"/>
<path id="Vector_59" d="M7.20746 8.00477C7.2406 8.00477 7.26746 7.9779 7.26746 7.94477C7.26746 7.91163 7.2406 7.88477 7.20746 7.88477C7.17432 7.88477 7.14746 7.91163 7.14746 7.94477C7.14746 7.9779 7.17432 8.00477 7.20746 8.00477Z" fill="white"/>
<path id="Vector_60" d="M7.0434 8.17273C7.07654 8.17273 7.1034 8.14587 7.1034 8.11273C7.1034 8.0796 7.07654 8.05273 7.0434 8.05273C7.01026 8.05273 6.9834 8.0796 6.9834 8.11273C6.9834 8.14587 7.01026 8.17273 7.0434 8.17273Z" fill="white"/>
<path id="Vector_61" d="M7.37543 8.17273C7.40857 8.17273 7.43543 8.14587 7.43543 8.11273C7.43543 8.0796 7.40857 8.05273 7.37543 8.05273C7.34229 8.05273 7.31543 8.0796 7.31543 8.11273C7.31543 8.14587 7.34229 8.17273 7.37543 8.17273Z" fill="white"/>
</g>
<g id="pt-f_3">
<path id="Vector_62" d="M6.0713 9.09411C6.07058 9.17853 6.10204 9.26006 6.1593 9.32211C6.18601 9.35198 6.21867 9.37595 6.25517 9.39248C6.29168 9.40901 6.33123 9.41774 6.3713 9.41811C6.4553 9.41811 6.5313 9.37811 6.5833 9.32211C6.64056 9.26006 6.67203 9.17853 6.6713 9.09411V8.66211H6.0713V9.09411Z" fill="#003399"/>
<path id="Vector_63" d="M6.21137 8.88563C6.2445 8.88563 6.27137 8.85876 6.27137 8.82563C6.27137 8.79249 6.2445 8.76562 6.21137 8.76562C6.17823 8.76562 6.15137 8.79249 6.15137 8.82563C6.15137 8.85876 6.17823 8.88563 6.21137 8.88563Z" fill="white"/>
<path id="Vector_64" d="M6.5434 8.88563C6.57654 8.88563 6.6034 8.85876 6.6034 8.82563C6.6034 8.79249 6.57654 8.76562 6.5434 8.76562C6.51026 8.76562 6.4834 8.79249 6.4834 8.82563C6.4834 8.85876 6.51026 8.88563 6.5434 8.88563Z" fill="white"/>
<path id="Vector_65" d="M6.37543 9.04578C6.40857 9.04578 6.43543 9.01892 6.43543 8.98578C6.43543 8.95264 6.40857 8.92578 6.37543 8.92578C6.34229 8.92578 6.31543 8.95264 6.31543 8.98578C6.31543 9.01892 6.34229 9.04578 6.37543 9.04578Z" fill="white"/>
<path id="Vector_66" d="M6.21137 9.21375C6.2445 9.21375 6.27137 9.18689 6.27137 9.15375C6.27137 9.12061 6.2445 9.09375 6.21137 9.09375C6.17823 9.09375 6.15137 9.12061 6.15137 9.15375C6.15137 9.18689 6.17823 9.21375 6.21137 9.21375Z" fill="white"/>
<path id="Vector_67" d="M6.5434 9.21375C6.57654 9.21375 6.6034 9.18689 6.6034 9.15375C6.6034 9.12061 6.57654 9.09375 6.5434 9.09375C6.51026 9.09375 6.4834 9.12061 6.4834 9.15375C6.4834 9.18689 6.51026 9.21375 6.5434 9.21375Z" fill="white"/>
</g>
<g id="pt-f_4">
<path id="Vector_68" d="M7.73536 9.09411C7.73464 9.17853 7.76611 9.26006 7.82336 9.32211C7.85008 9.35198 7.88273 9.37595 7.91924 9.39248C7.95574 9.40901 7.99529 9.41774 8.03536 9.41811C8.11936 9.41811 8.19536 9.37811 8.24736 9.32211C8.30462 9.26006 8.33609 9.17853 8.33536 9.09411V8.66211H7.73536V9.09411Z" fill="#003399"/>
<path id="Vector_69" d="M7.87543 8.88563C7.90857 8.88563 7.93543 8.85876 7.93543 8.82563C7.93543 8.79249 7.90857 8.76562 7.87543 8.76562C7.84229 8.76562 7.81543 8.79249 7.81543 8.82563C7.81543 8.85876 7.84229 8.88563 7.87543 8.88563Z" fill="white"/>
<path id="Vector_70" d="M8.20746 8.88563C8.2406 8.88563 8.26746 8.85876 8.26746 8.82563C8.26746 8.79249 8.2406 8.76562 8.20746 8.76562C8.17432 8.76562 8.14746 8.79249 8.14746 8.82563C8.14746 8.85876 8.17432 8.88563 8.20746 8.88563Z" fill="white"/>
<path id="Vector_71" d="M8.03949 9.04578C8.07263 9.04578 8.09949 9.01892 8.09949 8.98578C8.09949 8.95264 8.07263 8.92578 8.03949 8.92578C8.00636 8.92578 7.97949 8.95264 7.97949 8.98578C7.97949 9.01892 8.00636 9.04578 8.03949 9.04578Z" fill="white"/>
<path id="Vector_72" d="M7.87543 9.21375C7.90857 9.21375 7.93543 9.18689 7.93543 9.15375C7.93543 9.12061 7.90857 9.09375 7.87543 9.09375C7.84229 9.09375 7.81543 9.12061 7.81543 9.15375C7.81543 9.18689 7.84229 9.21375 7.87543 9.21375Z" fill="white"/>
<path id="Vector_73" d="M8.20746 9.21375C8.2406 9.21375 8.26746 9.18689 8.26746 9.15375C8.26746 9.12061 8.2406 9.09375 8.20746 9.09375C8.17432 9.09375 8.14746 9.12061 8.14746 9.15375C8.14746 9.18689 8.17432 9.21375 8.20746 9.21375Z" fill="white"/>
</g>
<g id="pt-f_5">
<path id="Vector_74" d="M6.90333 10.1254C6.90261 10.2098 6.93408 10.2913 6.99133 10.3534C7.01805 10.3832 7.0507 10.4072 7.0872 10.4237C7.12371 10.4403 7.16326 10.449 7.20333 10.4494C7.28733 10.4494 7.36333 10.4094 7.41533 10.3534C7.47259 10.2913 7.50406 10.2098 7.50333 10.1254V9.69336H6.90333V10.1254Z" fill="#003399"/>
<path id="Vector_75" d="M7.0434 9.91688C7.07654 9.91688 7.1034 9.89001 7.1034 9.85688C7.1034 9.82374 7.07654 9.79688 7.0434 9.79688C7.01026 9.79688 6.9834 9.82374 6.9834 9.85688C6.9834 9.89001 7.01026 9.91688 7.0434 9.91688Z" fill="white"/>
<path id="Vector_76" d="M7.37543 9.91688C7.40857 9.91688 7.43543 9.89001 7.43543 9.85688C7.43543 9.82374 7.40857 9.79688 7.37543 9.79688C7.34229 9.79688 7.31543 9.82374 7.31543 9.85688C7.31543 9.89001 7.34229 9.91688 7.37543 9.91688Z" fill="white"/>
<path id="Vector_77" d="M7.20746 10.077C7.2406 10.077 7.26746 10.0502 7.26746 10.017C7.26746 9.98389 7.2406 9.95703 7.20746 9.95703C7.17432 9.95703 7.14746 9.98389 7.14746 10.017C7.14746 10.0502 7.17432 10.077 7.20746 10.077Z" fill="white"/>
<path id="Vector_78" d="M7.0434 10.245C7.07654 10.245 7.1034 10.2181 7.1034 10.185C7.1034 10.1519 7.07654 10.125 7.0434 10.125C7.01026 10.125 6.9834 10.1519 6.9834 10.185C6.9834 10.2181 7.01026 10.245 7.0434 10.245Z" fill="white"/>
<path id="Vector_79" d="M7.37543 10.245C7.40857 10.245 7.43543 10.2181 7.43543 10.185C7.43543 10.1519 7.40857 10.125 7.37543 10.125C7.34229 10.125 7.31543 10.1519 7.31543 10.185C7.31543 10.2181 7.34229 10.245 7.37543 10.245Z" fill="white"/>
</g>
</g>
</g>
<defs>
<clipPath id="clip0_186_12067">
<rect width="18" height="18" fill="white"/>
</clipPath>
</defs>
</svg>
