<svg width="18" height="18" viewBox="0 0 18 18" fill="none" xmlns="http://www.w3.org/2000/svg">
<g id="py" clip-path="url(#clip0_186_12212)">
<path id="Vector" d="M0 11.9883H18V18H0V11.9883Z" fill="#0038A8"/>
<path id="Vector_2" d="M0 6.00195H18V11.9996H0V6.00195Z" fill="white"/>
<path id="Vector_3" d="M0 0H18V6.00117H0V0Z" fill="#D52B1E"/>
<g id="Group">
<path id="Vector_4" d="M9.01569 11.3009C10.287 11.3009 11.3175 10.2704 11.3175 8.99909C11.3175 7.72783 10.287 6.69727 9.01569 6.69727C7.74443 6.69727 6.71387 7.72783 6.71387 8.99909C6.71387 10.2704 7.74443 11.3009 9.01569 11.3009Z" stroke="black" stroke-width="1.70667"/>
<path id="Vector_5" d="M9.01578 10.8909C10.0611 10.8909 10.9085 10.0435 10.9085 8.9982C10.9085 7.95287 10.0611 7.10547 9.01578 7.10547C7.97045 7.10547 7.12305 7.95287 7.12305 8.9982C7.12305 10.0435 7.97045 10.8909 9.01578 10.8909Z" stroke="black" stroke-width="0.77576"/>
<path id="Vector_6" d="M9.01537 10.4507C9.81668 10.4507 10.4663 9.80106 10.4663 8.99974C10.4663 8.19842 9.81668 7.54883 9.01537 7.54883C8.21405 7.54883 7.56445 8.19842 7.56445 8.99974C7.56445 9.80106 8.21405 10.4507 9.01537 10.4507Z" stroke="black" stroke-width="0.620608"/>
</g>
<path id="Vector_7" d="M7.79043 9.88867L7.52324 10.0469L7.44238 9.90625C7.43021 9.88777 7.42073 9.86765 7.41426 9.84648C7.41138 9.83089 7.41386 9.81479 7.42129 9.80078C7.42832 9.7832 7.43887 9.77266 7.45645 9.76211C7.46896 9.75416 7.48335 9.74965 7.49816 9.74904C7.51297 9.74842 7.52769 9.75172 7.54082 9.75859L7.56895 9.77969C7.56788 9.77152 7.56788 9.76325 7.56895 9.75508L7.57246 9.73398L7.58301 9.70938L7.63574 9.625L7.69199 9.71641L7.63574 9.81133C7.63024 9.81983 7.62664 9.82943 7.6252 9.83945C7.62436 9.84667 7.62558 9.85399 7.62871 9.86055L7.63574 9.86758L7.74121 9.8043L7.79043 9.88867ZM7.58301 9.89922L7.56191 9.86406C7.55774 9.8567 7.55304 9.84965 7.54785 9.84297C7.54553 9.84069 7.54278 9.8389 7.53977 9.8377C7.53675 9.83649 7.53352 9.83589 7.53027 9.83594C7.52419 9.83516 7.51801 9.83639 7.5127 9.83945C7.50215 9.84648 7.49863 9.85 7.49512 9.86055L7.50918 9.8957L7.53027 9.93086L7.58301 9.89922ZM7.3334 9.6918L7.25254 9.4457L7.31582 9.42813L7.36504 9.5793L7.41074 9.56523L7.36504 9.42461L7.4248 9.40352L7.47051 9.54414L7.53027 9.52656L7.47754 9.36836L7.54785 9.34727L7.62871 9.59336L7.3334 9.6918ZM7.22793 9.32969L7.20684 9.17148C7.20684 9.13633 7.20684 9.1082 7.22441 9.09063C7.23848 9.07305 7.25957 9.05898 7.29121 9.05547C7.32285 9.05547 7.34746 9.05898 7.36856 9.07656C7.38613 9.09414 7.4002 9.12227 7.40371 9.16094L7.41074 9.21016L7.52324 9.19961L7.53379 9.29453L7.22793 9.32969ZM7.34746 9.2207L7.34395 9.19609C7.34395 9.17852 7.33691 9.16445 7.32988 9.16094C7.3268 9.15749 7.323 9.15476 7.31875 9.15293C7.3145 9.15111 7.3099 9.15024 7.30527 9.15039C7.296 9.15052 7.28716 9.15431 7.28066 9.16094C7.27363 9.16797 7.27363 9.18203 7.27363 9.19961L7.27715 9.22773L7.34746 9.2207ZM7.21738 8.74609L7.22793 8.65117L7.41074 8.67227C7.42832 8.67227 7.4459 8.6793 7.45996 8.68633C7.47754 8.69336 7.4916 8.70391 7.50215 8.71797L7.52324 8.76016C7.52861 8.7821 7.52861 8.80501 7.52324 8.82695C7.52324 8.84102 7.52324 8.85859 7.51621 8.87617C7.51621 8.89375 7.50918 8.90781 7.49863 8.91836L7.47051 8.94648C7.45905 8.95509 7.44585 8.96109 7.43184 8.96406C7.41074 8.96758 7.39668 8.97109 7.3791 8.96758L7.19629 8.94648L7.20684 8.85156L7.39316 8.87266C7.41074 8.87266 7.4248 8.87266 7.43535 8.86211C7.4459 8.85508 7.44941 8.84102 7.45293 8.82695C7.45427 8.81958 7.45403 8.812 7.45221 8.80472C7.45039 8.79745 7.44704 8.79064 7.44238 8.78477C7.43535 8.77422 7.42129 8.7707 7.40723 8.76719L7.21738 8.74609ZM7.25605 8.52109L7.31582 8.34883C7.32637 8.3207 7.34043 8.30312 7.36152 8.29258C7.37061 8.28763 7.38068 8.28475 7.39101 8.28414C7.40134 8.28353 7.41168 8.28521 7.42129 8.28906C7.43545 8.29432 7.44754 8.304 7.45577 8.31666C7.464 8.32932 7.46794 8.3443 7.46699 8.35938C7.48105 8.33828 7.49512 8.32422 7.50918 8.32422C7.52609 8.31738 7.545 8.31738 7.56191 8.32422C7.57603 8.32888 7.58867 8.33718 7.59855 8.34829C7.60843 8.35941 7.6152 8.37293 7.61816 8.3875V8.42266L7.6041 8.46484L7.55137 8.62305L7.25605 8.52109ZM7.40371 8.46836L7.41777 8.42969C7.4248 8.41562 7.42481 8.40508 7.42129 8.39453C7.42129 8.39102 7.41426 8.38398 7.40371 8.38047C7.39988 8.3786 7.39567 8.37763 7.39141 8.37763C7.38714 8.37763 7.38294 8.3786 7.3791 8.38047L7.36152 8.40859L7.34746 8.45078L7.40371 8.46836ZM7.51973 8.51055L7.5373 8.46133V8.42617C7.53592 8.42209 7.53361 8.41838 7.53056 8.41533C7.52752 8.41229 7.52381 8.40998 7.51973 8.40859C7.51589 8.40673 7.51169 8.40576 7.50742 8.40576C7.50316 8.40576 7.49895 8.40673 7.49512 8.40859C7.48809 8.41562 7.48105 8.42617 7.47754 8.44375L7.45996 8.48945L7.51973 8.51055ZM7.40371 8.14844L7.45293 8.06406L7.65332 8.18359L7.73066 8.05703L7.79746 8.0957L7.6709 8.30664L7.40371 8.14844ZM7.59355 7.86367L7.65332 7.78984L7.89238 7.98672L7.8291 8.06055L7.59355 7.86367ZM8.0084 7.70195L8.08926 7.6668C8.09981 7.68789 8.10684 7.70898 8.10684 7.73008C8.10807 7.74941 8.10445 7.76875 8.09629 7.78633C8.08577 7.80647 8.07144 7.82438 8.0541 7.83906C8.03382 7.85782 8.00988 7.87218 7.98379 7.88125C7.95918 7.88828 7.93457 7.88828 7.90645 7.88125C7.87425 7.86963 7.84615 7.84885 7.82559 7.82148C7.79043 7.78633 7.77637 7.74414 7.77988 7.70547C7.77988 7.6668 7.80098 7.63164 7.83965 7.6C7.86283 7.57768 7.89226 7.56297 7.92402 7.55781C7.95484 7.55498 7.98574 7.56239 8.01191 7.57891L7.95918 7.64922C7.95279 7.64454 7.94566 7.64097 7.93809 7.63867C7.92998 7.63686 7.92158 7.63686 7.91348 7.63867C7.90421 7.64118 7.89574 7.64602 7.88887 7.65273C7.87129 7.6668 7.86426 7.68437 7.86777 7.70547C7.86777 7.71953 7.87832 7.74062 7.89941 7.7582C7.92051 7.78633 7.9416 7.80039 7.95566 7.80391C7.97324 7.80391 7.98731 7.80391 8.00137 7.78984C8.01543 7.77578 8.02246 7.76523 8.02246 7.75117C8.02246 7.73711 8.01895 7.71953 8.0084 7.70195ZM8.33887 7.58242L8.24395 7.63516L8.25449 7.68789L8.1666 7.73359L8.12441 7.40313L8.21582 7.35391L8.46543 7.57539L8.37754 7.62109L8.33887 7.58242ZM8.28965 7.5332L8.20879 7.45234L8.22988 7.56484L8.28965 7.5332ZM8.58496 7.2168L8.72559 7.19219C8.74876 7.18725 8.77272 7.18725 8.7959 7.19219C8.81348 7.1957 8.82754 7.20273 8.8416 7.2168C8.85566 7.22734 8.86621 7.24141 8.87676 7.25898L8.89082 7.31875C8.89785 7.35391 8.89785 7.37852 8.89082 7.39609C8.88787 7.41504 8.88066 7.43307 8.86973 7.44883C8.86065 7.46198 8.84861 7.47282 8.83457 7.48047L8.77832 7.49805L8.6377 7.52266L8.58496 7.2168ZM8.69043 7.26953L8.71855 7.43477H8.74316C8.76074 7.42773 8.77832 7.42422 8.78184 7.41719C8.79238 7.41367 8.7959 7.40313 8.79941 7.39258V7.33633C8.79238 7.30469 8.78184 7.28359 8.77129 7.27305C8.75723 7.2625 8.73613 7.25898 8.71504 7.26602L8.69043 7.26953ZM8.98223 7.16406L9.23887 7.17109V7.24141L9.07715 7.23438L9.07363 7.28359L9.22129 7.28711V7.35039L9.07012 7.34687V7.40664L9.23535 7.41367L9.23184 7.48398L8.96816 7.47344L8.98223 7.16406ZM9.35488 7.19219L9.4498 7.21328L9.39356 7.4418L9.53769 7.47695L9.52012 7.55078L9.28105 7.49453L9.35488 7.19219ZM9.8541 7.35742L9.99121 7.43828C10.0229 7.45586 10.0404 7.47344 10.0475 7.49805C10.051 7.52266 10.0475 7.54727 10.0334 7.57187C10.0271 7.5842 10.0181 7.59499 10.0072 7.60349C9.99628 7.612 9.98362 7.618 9.97012 7.62109C9.94551 7.62813 9.91738 7.62109 9.88223 7.6L9.83652 7.57539L9.78027 7.67383L9.6959 7.62461L9.8541 7.35742ZM9.87168 7.51914L9.88926 7.5332L9.92793 7.54375C9.93223 7.54299 9.93632 7.54134 9.93995 7.53892C9.94358 7.5365 9.94667 7.53336 9.94902 7.52969C9.95213 7.52577 9.95436 7.52123 9.95557 7.51638C9.95679 7.51153 9.95695 7.50648 9.95606 7.50156C9.95254 7.49102 9.94551 7.48398 9.92793 7.47344L9.90684 7.45937L9.87168 7.51914ZM10.1389 7.88125L10.058 7.80742L10.0123 7.83555L9.94199 7.76523L10.2373 7.62109L10.3146 7.69141L10.1881 7.99727L10.1178 7.92695L10.1389 7.88125ZM10.1705 7.81797L10.2197 7.7125L10.1213 7.77227L10.1705 7.81797ZM10.2057 8.02539L10.4623 7.84961L10.5537 7.97969L10.5889 8.04297L10.5854 8.08867C10.5783 8.10273 10.5678 8.1168 10.5502 8.12734C10.5385 8.13774 10.5236 8.14392 10.508 8.14492C10.4936 8.14609 10.4791 8.14367 10.4658 8.13789C10.4554 8.13233 10.4459 8.12522 10.4377 8.1168V8.16602L10.4271 8.18711L10.3779 8.275L10.3182 8.18711L10.3674 8.09219L10.3779 8.06406C10.3779 8.05703 10.3779 8.04648 10.3709 8.03945L10.3639 8.03242L10.2584 8.10273L10.2057 8.02539ZM10.4166 8.00078L10.4377 8.03594L10.4553 8.05C10.4573 8.05292 10.4599 8.05537 10.4629 8.05719C10.4659 8.05901 10.4693 8.06016 10.4729 8.06055C10.4764 8.06055 10.4834 8.06055 10.4904 8.05352C10.4943 8.05135 10.4975 8.04831 10.5 8.04464C10.5024 8.04098 10.504 8.03679 10.5045 8.03242L10.4904 7.99727L10.4658 7.96211L10.4166 8.00078ZM10.5115 8.46484L10.4693 8.36289L10.4166 8.36641L10.3814 8.27852L10.7119 8.27148L10.7471 8.36641L10.5045 8.59141L10.4693 8.49648L10.5115 8.46484ZM10.5643 8.42266L10.6557 8.34883L10.5396 8.35586L10.5643 8.42266ZM10.6451 8.76016L10.7084 8.74961L10.733 8.89727L10.5994 8.91836C10.5797 8.89738 10.5632 8.87371 10.5502 8.84805C10.5256 8.79534 10.5195 8.73593 10.5326 8.6793C10.5432 8.65469 10.5572 8.63711 10.5818 8.61953C10.6059 8.60276 10.6336 8.59192 10.6627 8.58789C10.6932 8.58211 10.7248 8.58453 10.7541 8.59492C10.7814 8.60497 10.8048 8.62344 10.8209 8.64766C10.8314 8.66875 10.842 8.69336 10.8455 8.72852C10.8496 8.75414 10.8496 8.78024 10.8455 8.80586C10.8436 8.82233 10.8375 8.83805 10.8279 8.85156L10.7822 8.88672L10.7506 8.79531C10.7611 8.7918 10.7682 8.78477 10.7752 8.77422C10.7787 8.76367 10.7822 8.74961 10.7787 8.73906C10.7782 8.72924 10.7754 8.71967 10.7705 8.71113C10.7656 8.70258 10.7588 8.6953 10.7506 8.68984C10.733 8.6793 10.7084 8.6793 10.6803 8.68281C10.6451 8.68633 10.6205 8.69687 10.61 8.71094C10.6035 8.71865 10.5989 8.72772 10.5965 8.73746C10.5941 8.7472 10.5939 8.75736 10.5959 8.76719L10.6064 8.79883L10.6275 8.82695H10.6557L10.6451 8.76016ZM10.849 9.21016L10.8385 9.30508L10.6557 9.29102C10.6386 9.28909 10.622 9.28434 10.6064 9.27695C10.5901 9.2699 10.5756 9.25905 10.5643 9.24531C10.5546 9.23405 10.5474 9.22087 10.5432 9.20664C10.5377 9.18362 10.5365 9.15978 10.5396 9.13633C10.5396 9.12227 10.5396 9.10469 10.5467 9.08711L10.5607 9.04492C10.5691 9.03236 10.5798 9.0216 10.5924 9.01328C10.6028 9.00512 10.6148 8.99914 10.6275 8.9957C10.6462 8.99286 10.6651 8.99286 10.6838 8.9957L10.8666 9.00977L10.8596 9.10469L10.6697 9.08711C10.6521 9.08711 10.6381 9.08711 10.6275 9.09766C10.617 9.1082 10.6135 9.11875 10.61 9.13633C10.61 9.15391 10.61 9.16445 10.6205 9.175C10.6311 9.18555 10.6416 9.19258 10.6592 9.19258L10.849 9.21016ZM10.5045 9.54062L10.5396 9.43516L10.4975 9.40352L10.5256 9.31211L10.7857 9.51953L10.7506 9.61797L10.4201 9.63203L10.4553 9.53711L10.5045 9.54062ZM10.5748 9.54062H10.6908L10.5959 9.47734L10.5748 9.54062ZM10.6873 9.79375L10.6311 9.88516H10.5115L10.5678 9.99063L10.5115 10.082L10.4201 9.88516L10.3076 9.82187L10.3568 9.7375L10.4693 9.8043L10.6873 9.79375Z" fill="black"/>
<g id="Group_2">
<path id="Vector_8" d="M9.32329 7.92383C9.32329 7.92383 10.1987 8.30352 10.044 9.08398C9.89282 9.86094 9.40415 9.85742 9.21431 9.9418C9.02095 10.0297 8.89087 10.1527 8.81353 10.1352C8.7397 10.1176 8.63774 10.0578 8.63774 10.0578C8.63774 10.0578 8.63071 10.1879 8.7854 10.209C8.94009 10.2336 9.13696 10.0086 9.23892 9.98398C9.34087 9.95938 9.92798 9.89258 10.0756 9.10156C10.2444 8.2543 9.32681 7.94844 9.32329 7.92383Z" fill="#009B3A" stroke="black" stroke-width="0.1"/>
<path id="Vector_9" d="M9.76312 8.09193C9.76773 8.11677 9.7696 8.13879 9.76845 8.1545C9.76729 8.17021 9.76317 8.17874 9.75673 8.17874C9.75029 8.17874 9.7419 8.17021 9.73287 8.1545C9.72384 8.13879 9.7147 8.11677 9.70687 8.09193C9.70148 8.07483 9.69689 8.05694 9.69345 8.03964C9.69002 8.02234 9.68782 8.00609 9.68704 7.99213C9.68626 7.97816 9.68691 7.96686 9.68894 7.95908C9.69098 7.95131 9.69434 7.94727 9.69877 7.94727C9.70321 7.94727 9.70859 7.95131 9.71452 7.95908C9.72045 7.96686 9.72676 7.97816 9.73297 7.99213C9.73918 8.00609 9.74512 8.02234 9.75035 8.03964C9.75558 8.05694 9.75994 8.07483 9.76312 8.09193ZM9.73499 8.09896C9.74374 8.11474 9.75188 8.13138 9.75882 8.14765C9.76575 8.16392 9.7713 8.17941 9.77507 8.193C9.77883 8.20659 9.78071 8.21793 9.78057 8.2262C9.78044 8.23447 9.77829 8.23945 9.77428 8.24079C9.77026 8.24212 9.7645 8.23978 9.75739 8.23393C9.75029 8.22807 9.74203 8.21886 9.73321 8.20695C9.72439 8.19505 9.71524 8.18075 9.70643 8.16511C9.69761 8.14947 9.68936 8.13287 9.68226 8.11654C9.67132 8.09136 9.66367 8.06805 9.66061 8.05051C9.65755 8.03297 9.65925 8.02228 9.66543 8.02022C9.67161 8.01816 9.6819 8.02486 9.69456 8.03919C9.70723 8.05353 9.7215 8.07463 9.73499 8.09896ZM9.6471 8.15521C9.66249 8.15973 9.67763 8.16499 9.69167 8.17067C9.70571 8.17635 9.71837 8.18235 9.72892 8.18833C9.73947 8.1943 9.74772 8.20014 9.75318 8.20549C9.75864 8.21085 9.76121 8.21563 9.76075 8.21955C9.76029 8.22348 9.7568 8.22647 9.75049 8.22836C9.74417 8.23026 9.73515 8.23101 9.72395 8.23059C9.71274 8.23016 9.69957 8.22857 9.68517 8.22589C9.67078 8.22321 9.65546 8.2195 9.64007 8.21498C9.609 8.20584 9.57956 8.19392 9.55825 8.18186C9.53694 8.16979 9.52549 8.15856 9.52642 8.15063C9.52735 8.14271 9.54059 8.13874 9.56322 8.1396C9.58586 8.14045 9.61603 8.14607 9.6471 8.15521Z" fill="#009B3A" stroke="black" stroke-width="0.1"/>
<path id="Vector_10" d="M9.66121 8.12357C9.67467 8.13264 9.68764 8.14226 9.69938 8.15188C9.71111 8.16149 9.72138 8.17092 9.72959 8.17962C9.73781 8.18832 9.74381 8.19612 9.74726 8.20258C9.75071 8.20903 9.75153 8.21402 9.74968 8.21725C9.74783 8.22048 9.74335 8.2219 9.7365 8.22141C9.72964 8.22093 9.72053 8.21855 9.70971 8.21442C9.69888 8.21029 9.68654 8.20449 9.67339 8.19735C9.66025 8.19021 9.64655 8.18186 9.63308 8.17279C9.61755 8.16364 9.60178 8.15318 9.58698 8.14221C9.57218 8.13123 9.55874 8.12004 9.54768 8.10947C9.53662 8.0989 9.52823 8.08923 9.52315 8.0812C9.51807 8.07318 9.51643 8.067 9.51836 8.06315C9.52029 8.05929 9.52573 8.05786 9.53428 8.05895C9.54283 8.06005 9.55425 8.06364 9.56768 8.06947C9.58111 8.07529 9.5962 8.08319 9.6118 8.09257C9.6274 8.10194 9.64309 8.11255 9.65769 8.12357H9.66121Z" fill="#009B3A" stroke="black" stroke-width="0.1"/>
<path id="Vector_11" d="M9.69634 8.10928C9.7113 8.12158 9.72707 8.13636 9.74209 8.15219C9.75711 8.16801 9.77088 8.18434 9.78207 8.19959C9.79326 8.21484 9.80148 8.2285 9.80593 8.23923C9.81039 8.24996 9.81093 8.2574 9.8075 8.26083C9.80407 8.26426 9.79678 8.26356 9.78636 8.2588C9.77593 8.25404 9.76271 8.24539 9.74799 8.23368C9.73326 8.22196 9.71753 8.20759 9.70232 8.19195C9.68711 8.17632 9.67294 8.15995 9.66118 8.14444C9.64879 8.12809 9.63953 8.11329 9.63441 8.10165C9.62929 8.09 9.6285 8.08193 9.63211 8.07831C9.63573 8.0747 9.64361 8.07567 9.65493 8.08113C9.66625 8.08658 9.68056 8.09632 9.69634 8.10928Z" fill="#009B3A" stroke="black" stroke-width="0.1"/>
<path id="Vector_12" d="M9.75554 8.21935L9.71686 8.24044C9.70632 8.24396 9.69577 8.22989 9.67468 8.24044C9.65358 8.2545 9.63952 8.2756 9.63249 8.28614C9.62897 8.30021 9.63952 8.30372 9.66764 8.29318C9.69225 8.27911 9.7028 8.25802 9.71335 8.25099C9.72389 8.24044 9.7485 8.22989 9.75905 8.22638L9.79421 8.17364C9.80124 8.15958 9.8364 8.13849 9.85046 8.10685C9.861 8.08575 9.85749 8.06466 9.83991 8.07169C9.82221 8.08459 9.80776 8.10144 9.79772 8.12091C9.78718 8.13849 9.79772 8.15607 9.78718 8.17364L9.75554 8.21935ZM10.0298 8.31075C10.0305 8.36225 10.0268 8.41052 10.0194 8.44495C10.0121 8.47938 10.0016 8.49715 9.99046 8.49436C9.97927 8.49156 9.96824 8.46842 9.95978 8.43003C9.95133 8.39165 9.94615 8.34115 9.94538 8.28966C9.945 8.26416 9.94571 8.23919 9.94748 8.21617C9.94925 8.19314 9.95204 8.17251 9.95569 8.15546C9.95934 8.13842 9.96378 8.12528 9.96875 8.1168C9.97372 8.10832 9.97913 8.10467 9.98467 8.10606C9.99021 8.10744 9.99577 8.11384 10.001 8.12487C10.0063 8.13591 10.0112 8.15137 10.0154 8.17038C10.0195 8.18939 10.023 8.21157 10.0254 8.23565C10.0279 8.25974 10.0294 8.28526 10.0298 8.31075Z" fill="#009B3A" stroke="black" stroke-width="0.1"/>
<path id="Vector_13" d="M9.98457 8.30755C9.99521 8.35735 10.0012 8.4053 10.0011 8.44084C10.0011 8.47639 9.995 8.49662 9.98427 8.49709C9.97355 8.49755 9.95904 8.47821 9.94393 8.44333C9.92882 8.40844 9.91436 8.36087 9.90371 8.31106C9.89854 8.28663 9.89446 8.26244 9.89171 8.23986C9.88897 8.21729 9.8876 8.19677 9.8877 8.1795C9.8878 8.16222 9.88935 8.14851 9.89228 8.13916C9.8952 8.12981 9.89944 8.125 9.90475 8.125C9.91006 8.125 9.91634 8.12981 9.92322 8.13916C9.93011 8.14851 9.93746 8.16222 9.94488 8.1795C9.95229 8.19677 9.95961 8.21729 9.96642 8.23986C9.97323 8.26244 9.9794 8.28663 9.98457 8.31106V8.30755Z" fill="#009B3A" stroke="black" stroke-width="0.1"/>
<path id="Vector_14" d="M9.8436 8.35249C9.8652 8.36553 9.88706 8.38042 9.90758 8.39608C9.9281 8.41173 9.94677 8.42776 9.96222 8.44299C9.97767 8.45822 9.98951 8.47227 9.99688 8.48412C10.0043 8.49596 10.007 8.50529 10.0048 8.51144C10.0027 8.51759 9.99575 8.5204 9.98452 8.51966C9.97328 8.51893 9.95804 8.51466 9.93989 8.50718C9.92175 8.49969 9.90116 8.48918 9.87964 8.47641C9.85811 8.46364 9.83619 8.44893 9.81547 8.43335C9.79614 8.4203 9.77736 8.40629 9.7602 8.39211C9.74305 8.37793 9.72785 8.36387 9.71549 8.35072C9.70312 8.33758 9.69383 8.32561 9.68814 8.3155C9.68244 8.30538 9.68046 8.29733 9.68231 8.29179C9.68416 8.28625 9.68979 8.28333 9.6989 8.28321C9.708 8.28308 9.7204 8.28575 9.73538 8.29106C9.75035 8.29637 9.76762 8.30422 9.78619 8.31416C9.80476 8.32409 9.82427 8.33592 9.8436 8.34897V8.35249Z" fill="#009B3A" stroke="black" stroke-width="0.1"/>
<path id="Vector_15" d="M9.8714 8.31067C9.90336 8.34942 9.93123 8.38974 9.94889 8.42274C9.96654 8.45575 9.97253 8.47875 9.96554 8.48667C9.95855 8.4946 9.93914 8.4868 9.9116 8.465C9.88406 8.44321 9.85063 8.40919 9.81867 8.37043C9.80284 8.35125 9.78786 8.33147 9.77456 8.31224C9.76127 8.29301 9.74992 8.2747 9.74118 8.25836C9.73244 8.24202 9.72647 8.22796 9.72361 8.21699C9.72076 8.20602 9.72107 8.19835 9.72453 8.19443C9.72799 8.19051 9.73454 8.1904 9.74379 8.19412C9.75305 8.19784 9.76483 8.2053 9.77847 8.2161C9.79211 8.22689 9.80733 8.2408 9.82328 8.25703C9.83923 8.27325 9.85558 8.29148 9.8714 8.31067Z" fill="#009B3A" stroke="black" stroke-width="0.1"/>
<path id="Vector_16" d="M9.92825 8.30745C9.9409 8.33104 9.95255 8.35485 9.96255 8.37753C9.97255 8.40021 9.9807 8.4213 9.98654 8.43962C9.99238 8.45793 9.99578 8.4731 9.99657 8.48426C9.99735 8.49542 9.9955 8.50235 9.99112 8.50466C9.98673 8.50697 9.9799 8.50461 9.97101 8.49771C9.96212 8.49082 9.95135 8.47952 9.93931 8.46448C9.92727 8.44943 9.91419 8.43092 9.90084 8.41001C9.88748 8.3891 9.8741 8.36619 9.86146 8.3426C9.84882 8.31901 9.83716 8.2952 9.82716 8.27252C9.81716 8.24984 9.80901 8.22875 9.80318 8.21043C9.79734 8.19212 9.79393 8.17695 9.79314 8.16579C9.79236 8.15463 9.79421 8.1477 9.7986 8.14539C9.80298 8.14308 9.80982 8.14544 9.81871 8.15234C9.8276 8.15923 9.83837 8.17053 9.85041 8.18557C9.86245 8.20062 9.87552 8.21913 9.88888 8.24004C9.90223 8.26095 9.91561 8.28386 9.92825 8.30745Z" fill="#009B3A" stroke="black" stroke-width="0.1"/>
<path id="Vector_17" d="M9.97695 8.48897L9.91016 8.50303C9.89961 8.50303 9.88906 8.47842 9.85391 8.48545C9.81875 8.49249 9.79062 8.5171 9.78359 8.53116C9.76953 8.54522 9.78359 8.55928 9.82578 8.55225C9.86797 8.54522 9.88203 8.5171 9.90313 8.51358L9.97695 8.49952L10.0402 8.43975C10.0578 8.42217 10.1105 8.4046 10.1387 8.36944C10.1633 8.34131 10.1633 8.31319 10.1387 8.3167C10.1103 8.32653 10.0848 8.34347 10.0648 8.36592C10.0473 8.38702 10.0508 8.41866 10.0297 8.43624L9.97695 8.48897ZM10.1703 8.67178C10.1662 8.69682 10.161 8.72117 10.1553 8.74342C10.1495 8.76567 10.1431 8.7854 10.1366 8.80147C10.1301 8.81754 10.1235 8.82965 10.1172 8.8371C10.1109 8.84455 10.1051 8.8472 10.1 8.84489C10.0949 8.84258 10.0907 8.83536 10.0876 8.82365C10.0845 8.81193 10.0826 8.79595 10.0819 8.77661C10.0813 8.75727 10.0819 8.73496 10.0838 8.71094C10.0857 8.68692 10.0888 8.66167 10.093 8.63663C10.0971 8.61159 10.1022 8.58724 10.108 8.56499C10.1138 8.54274 10.1201 8.52301 10.1267 8.50694C10.1332 8.49087 10.1398 8.47876 10.1461 8.47131C10.1524 8.46386 10.1582 8.46121 10.1633 8.46352C10.1684 8.46583 10.1726 8.47305 10.1757 8.48476C10.1788 8.49648 10.1807 8.51246 10.1814 8.5318C10.182 8.55114 10.1814 8.57345 10.1795 8.59747C10.1776 8.62149 10.1745 8.64674 10.1703 8.67178Z" fill="#009B3A" stroke="black" stroke-width="0.1"/>
<path id="Vector_18" d="M10.1247 8.6627C10.1274 8.69146 10.1287 8.72184 10.1286 8.75134C10.1285 8.78085 10.1269 8.80863 10.1239 8.83241C10.121 8.8562 10.1168 8.8753 10.1117 8.88817C10.1066 8.90103 10.1008 8.90727 10.0946 8.9064C10.0885 8.90552 10.0822 8.89754 10.0764 8.88311C10.0705 8.86869 10.0652 8.84823 10.061 8.82342C10.0567 8.7986 10.0536 8.77014 10.0518 8.74037C10.05 8.7106 10.0497 8.68037 10.0509 8.65216C10.0496 8.62575 10.0495 8.59924 10.0505 8.57435C10.0515 8.54946 10.0536 8.52672 10.0567 8.50762C10.0598 8.48851 10.0638 8.47345 10.0685 8.46341C10.0731 8.45336 10.0783 8.44855 10.0837 8.44929C10.0892 8.45003 10.0947 8.4563 10.0999 8.4677C10.1052 8.4791 10.1101 8.49537 10.1143 8.51547C10.1184 8.53557 10.1219 8.55905 10.1243 8.58441C10.1267 8.60977 10.128 8.63644 10.1282 8.6627H10.1247Z" fill="#009B3A" stroke="black" stroke-width="0.1"/>
<path id="Vector_19" d="M9.98458 8.67588C10.0014 8.69234 10.0175 8.70981 10.0321 8.72725C10.0467 8.74468 10.0594 8.76172 10.0695 8.77735C10.0796 8.79298 10.0868 8.80687 10.0907 8.81819C10.0946 8.82951 10.0952 8.83803 10.0923 8.84324C10.0895 8.84845 10.0833 8.85024 10.0741 8.8485C10.065 8.84676 10.0531 8.84154 10.0391 8.83313C10.0251 8.82473 10.0093 8.81332 9.99268 8.79959C9.97606 8.78585 9.95896 8.77009 9.94239 8.75322C9.92333 8.73648 9.90415 8.71758 9.88629 8.69795C9.86844 8.67832 9.85239 8.65849 9.83936 8.63995C9.82633 8.62141 9.81666 8.60466 9.8111 8.59098C9.80554 8.57729 9.80422 8.56703 9.80725 8.56096C9.81028 8.5549 9.81758 8.5532 9.82859 8.55599C9.8396 8.55878 9.85404 8.56599 9.87079 8.57707C9.88755 8.58815 9.90619 8.60281 9.9253 8.61993C9.94441 8.63705 9.96348 8.65619 9.98106 8.67588H9.98458Z" fill="#009B3A" stroke="black" stroke-width="0.1"/>
<path id="Vector_20" d="M10.0194 8.64537C10.0315 8.66774 10.0428 8.69052 10.0525 8.71242C10.0622 8.73432 10.0701 8.7549 10.0758 8.773C10.0814 8.7911 10.0848 8.80636 10.0856 8.81791C10.0865 8.82945 10.0847 8.83705 10.0806 8.84029C10.0764 8.84352 10.0699 8.84231 10.0614 8.83674C10.0529 8.83117 10.0426 8.82134 10.031 8.80781C10.0194 8.79428 10.0069 8.77732 9.99402 8.75789C9.98116 8.73846 9.96827 8.71696 9.95607 8.69459C9.94208 8.67122 9.92869 8.64634 9.91684 8.62172C9.90499 8.59709 9.89498 8.57333 9.88753 8.55213C9.88007 8.53092 9.87535 8.5128 9.8737 8.49905C9.87206 8.4853 9.87352 8.47626 9.87799 8.47258C9.88247 8.46889 9.88984 8.47065 9.89959 8.47774C9.90933 8.48482 9.92121 8.49705 9.93437 8.51355C9.94754 8.53005 9.96166 8.55042 9.97574 8.57321C9.98982 8.59599 10.0035 8.62063 10.0158 8.64537H10.0194Z" fill="#009B3A" stroke="black" stroke-width="0.1"/>
<path id="Vector_21" d="M10.0721 8.64723C10.0804 8.67322 10.0876 8.69932 10.0935 8.72403C10.0994 8.74875 10.1037 8.7716 10.1063 8.79128C10.1089 8.81097 10.1096 8.82709 10.1085 8.83875C10.1074 8.8504 10.1045 8.85735 10.0999 8.85919C10.0953 8.86104 10.0891 8.85775 10.0816 8.84951C10.0742 8.84127 10.0657 8.82824 10.0566 8.81117C10.0475 8.7941 10.0379 8.77332 10.0285 8.75002C10.0191 8.72671 10.01 8.70134 10.0018 8.67535C9.99351 8.64936 9.98624 8.62327 9.98037 8.59855C9.9745 8.57383 9.97015 8.55098 9.96757 8.5313C9.96499 8.51161 9.96423 8.49549 9.96533 8.48384C9.96644 8.47218 9.96938 8.46524 9.974 8.46339C9.97861 8.46154 9.98481 8.46483 9.99224 8.47307C9.99967 8.48131 10.0082 8.49434 10.0173 8.51141C10.0264 8.52848 10.0359 8.54926 10.0453 8.57257C10.0547 8.59587 10.0638 8.62124 10.0721 8.64723Z" fill="#009B3A" stroke="black" stroke-width="0.1"/>
<g id="Vector_22">
<path d="M10.0895 8.8405H10.0192C10.0087 8.8405 10.0051 8.81238 9.96998 8.81238C9.93482 8.81238 9.89967 8.82996 9.88912 8.84402C9.87506 8.85457 9.88912 8.87214 9.92779 8.87214C9.96998 8.87214 9.99107 8.85105 10.0122 8.84753H10.086L10.1563 8.80183C10.1774 8.78777 10.2372 8.78074 10.2688 8.75261C10.2969 8.73152 10.304 8.69988 10.2794 8.70339C10.2486 8.70747 10.2195 8.7196 10.195 8.73855C10.1739 8.75261 10.1739 8.78425 10.1493 8.79832L10.086 8.8405M10.1809 9.07605C10.154 9.11904 10.1251 9.15694 10.1008 9.18141C10.0765 9.20587 10.0586 9.2149 10.0512 9.20651C10.0437 9.19812 10.0473 9.17299 10.061 9.13666C10.0748 9.10033 10.0977 9.05576 10.1247 9.01277C10.1516 8.96978 10.1804 8.93188 10.2048 8.90741C10.2291 8.88295 10.247 8.87392 10.2544 8.88231C10.2619 8.8907 10.2583 8.91583 10.2445 8.95216C10.2308 8.98849 10.2079 9.03306 10.1809 9.07605Z" fill="#009B3A"/>
<path d="M10.0895 8.8405H10.0192C10.0087 8.8405 10.0051 8.81238 9.96998 8.81238C9.93482 8.81238 9.89967 8.82996 9.88912 8.84402C9.87506 8.85457 9.88912 8.87214 9.92779 8.87214C9.96998 8.87214 9.99107 8.85105 10.0122 8.84753H10.086L10.1563 8.80183C10.1774 8.78777 10.2372 8.78074 10.2688 8.75261C10.2969 8.73152 10.304 8.69988 10.2794 8.70339C10.2486 8.70747 10.2195 8.7196 10.195 8.73855C10.1739 8.75261 10.1739 8.78425 10.1493 8.79832L10.086 8.8405M10.1809 9.07605C10.154 9.11904 10.1251 9.15694 10.1008 9.18141C10.0765 9.20587 10.0586 9.2149 10.0512 9.20651C10.0437 9.19812 10.0473 9.17299 10.061 9.13666C10.0748 9.10033 10.0977 9.05576 10.1247 9.01277C10.1516 8.96978 10.1804 8.93188 10.2048 8.90741C10.2291 8.88295 10.247 8.87392 10.2544 8.88231C10.2619 8.8907 10.2583 8.91583 10.2445 8.95216C10.2308 8.98849 10.2079 9.03306 10.1809 9.07605Z" stroke="black" stroke-width="0.1"/>
</g>
<path id="Vector_23" d="M10.1457 9.04928C10.1359 9.07489 10.1253 9.09971 10.1145 9.12231C10.1037 9.14491 10.093 9.16485 10.083 9.181C10.0729 9.19715 10.0637 9.20919 10.0559 9.21644C10.0481 9.22368 10.0418 9.22598 10.0374 9.22321C10.033 9.22044 10.0306 9.21265 10.0303 9.20029C10.0301 9.18793 10.0319 9.17124 10.0357 9.15117C10.0396 9.1311 10.0454 9.10805 10.0528 9.08333C10.0602 9.05861 10.0691 9.03271 10.0789 9.0071C10.0988 8.95537 10.1213 8.90799 10.1416 8.87537C10.162 8.84276 10.1783 8.82757 10.1872 8.83317C10.1961 8.83876 10.1967 8.86468 10.1889 8.9052C10.1811 8.94573 10.1656 8.99756 10.1457 9.04928ZM10.0086 9.00358C10.0256 9.04756 10.0382 9.0927 10.0436 9.12908C10.049 9.16545 10.0468 9.19007 10.0375 9.19753C10.0282 9.20499 10.0125 9.19468 9.99386 9.16885C9.97526 9.14303 9.95527 9.10381 9.93829 9.05983C9.9213 9.01585 9.90872 8.97071 9.9033 8.93433C9.89789 8.89796 9.90008 8.87333 9.90941 8.86587C9.91873 8.85841 9.93442 8.86873 9.95302 8.89456C9.97162 8.92038 9.99162 8.9596 10.0086 9.00358Z" fill="#009B3A" stroke="black" stroke-width="0.1"/>
<path id="Vector_24" d="M10.0548 8.98888C10.06 9.04616 10.061 9.1022 10.0575 9.14468C10.0539 9.18716 10.0462 9.2126 10.0359 9.2154C10.0257 9.21819 10.0138 9.19812 10.0028 9.1596C9.99182 9.12108 9.9827 9.06725 9.97744 9.00998C9.97484 8.98161 9.97326 8.95326 9.9728 8.92653C9.97234 8.89979 9.973 8.87521 9.97475 8.85417C9.9765 8.83314 9.9793 8.81607 9.983 8.80394C9.98669 8.7918 9.99121 8.78485 9.99629 8.78346C10.0014 8.78208 10.0069 8.78629 10.0126 8.79586C10.0183 8.80544 10.024 8.82018 10.0294 8.83926C10.0349 8.85833 10.0399 8.88136 10.0443 8.90704C10.0486 8.93271 10.0522 8.96052 10.0548 8.98888Z" fill="#009B3A" stroke="black" stroke-width="0.1"/>
<path id="Vector_25" d="M10.1039 9.01692C10.1012 9.04483 10.0976 9.07239 10.0931 9.098C10.0887 9.12362 10.0836 9.1468 10.0781 9.16621C10.0726 9.18562 10.0669 9.2009 10.0611 9.21115C10.0554 9.22141 10.0499 9.22645 10.0448 9.22599C10.0397 9.22553 10.0352 9.21957 10.0315 9.20846C10.0279 9.19735 10.0251 9.18131 10.0234 9.16124C10.0217 9.14117 10.0211 9.11748 10.0217 9.09151C10.0222 9.06554 10.0239 9.0378 10.0266 9.00988C10.0292 8.98197 10.0329 8.95441 10.0373 8.9288C10.0417 8.90318 10.0468 8.88001 10.0523 8.86059C10.0578 8.84118 10.0636 8.8259 10.0693 8.81565C10.075 8.80539 10.0806 8.80035 10.0857 8.80081C10.0907 8.80127 10.0952 8.80723 10.0989 8.81834C10.1026 8.82945 10.1053 8.8455 10.107 8.86556C10.1087 8.88563 10.1093 8.90932 10.1088 8.93529C10.1082 8.96126 10.1066 8.989 10.1039 9.01692Z" fill="#009B3A" stroke="black" stroke-width="0.1"/>
<g id="Vector_26">
<path d="M10.041 9.20071L9.98123 9.17259C9.97068 9.16556 9.97771 9.14095 9.94607 9.12688C9.91092 9.11282 9.87576 9.11282 9.8617 9.11985C9.84412 9.12688 9.84764 9.14446 9.88631 9.16556C9.92146 9.18313 9.94959 9.16907 9.97068 9.17962L10.041 9.20774L10.1183 9.19368C10.1429 9.19368 10.1992 9.20774 10.2379 9.19368C10.273 9.18665 10.2906 9.15852 10.2695 9.15149C10.2399 9.14193 10.2083 9.14071 10.1781 9.14798C10.1535 9.15501 10.1394 9.18313 10.1148 9.19017C10.0972 9.19017 10.0445 9.20423 10.041 9.20071ZM10.0762 9.48899C10.0544 9.50772 10.0322 9.52508 10.011 9.54008C9.98983 9.55508 9.96998 9.56743 9.95261 9.57643C9.93524 9.58542 9.92069 9.59089 9.90979 9.59251C9.89889 9.59413 9.89185 9.59187 9.88908 9.58587C9.88631 9.57987 9.88786 9.57024 9.89364 9.55753C9.89943 9.54482 9.90933 9.52928 9.92278 9.51179C9.93623 9.49431 9.95298 9.47523 9.97205 9.45563C9.99113 9.43603 10.0122 9.41631 10.034 9.39759C10.0553 9.37935 10.0769 9.36248 10.0975 9.34793C10.1182 9.33338 10.1375 9.32143 10.1543 9.31278C10.1712 9.30413 10.1853 9.29894 10.1958 9.29751C10.2063 9.29608 10.213 9.29843 10.2155 9.30443C10.218 9.31043 10.2164 9.31997 10.2106 9.33249C10.2048 9.34501 10.1949 9.36028 10.1817 9.37742C10.1684 9.39456 10.1519 9.41323 10.1332 9.43238C10.1145 9.45152 10.0939 9.47076 10.0726 9.48899" fill="#009B3A"/>
<path d="M10.0762 9.48899C10.0544 9.50772 10.0322 9.52508 10.011 9.54008C9.98983 9.55508 9.96998 9.56743 9.95261 9.57643C9.93524 9.58542 9.92069 9.59089 9.90979 9.59251C9.89889 9.59413 9.89185 9.59187 9.88908 9.58587C9.88631 9.57987 9.88786 9.57024 9.89364 9.55753C9.89943 9.54482 9.90933 9.52928 9.92278 9.51179C9.93623 9.49431 9.95298 9.47523 9.97205 9.45563C9.99113 9.43603 10.0122 9.41631 10.034 9.39759C10.0553 9.37935 10.0769 9.36248 10.0975 9.34793C10.1182 9.33338 10.1375 9.32143 10.1543 9.31278C10.1712 9.30413 10.1853 9.29894 10.1958 9.29751C10.2063 9.29608 10.213 9.29843 10.2155 9.30443C10.218 9.31043 10.2164 9.31997 10.2106 9.33249C10.2048 9.34501 10.1949 9.36028 10.1817 9.37742C10.1684 9.39456 10.1519 9.41323 10.1332 9.43238C10.1145 9.45152 10.0939 9.47076 10.0726 9.48899M10.041 9.20071L9.98123 9.17259C9.97068 9.16556 9.97771 9.14095 9.94607 9.12688C9.91092 9.11282 9.87576 9.11282 9.8617 9.11985C9.84412 9.12688 9.84764 9.14446 9.88631 9.16556C9.92146 9.18313 9.94959 9.16907 9.97068 9.17962L10.041 9.20774L10.1183 9.19368C10.1429 9.19368 10.1992 9.20774 10.2379 9.19368C10.273 9.18665 10.2906 9.15852 10.2695 9.15149C10.2399 9.14193 10.2083 9.14071 10.1781 9.14798C10.1535 9.15501 10.1394 9.18313 10.1148 9.19017C10.0972 9.19017 10.0445 9.20423 10.041 9.20071Z" stroke="black" stroke-width="0.1"/>
</g>
<path id="Vector_27" d="M10.0403 9.44705C10.0215 9.47427 10.0006 9.50162 9.97915 9.52693C9.95773 9.55224 9.93639 9.5748 9.91685 9.59281C9.8973 9.61081 9.8801 9.62377 9.8666 9.63065C9.8531 9.63752 9.84369 9.63812 9.83911 9.6324C9.83453 9.62667 9.83491 9.61479 9.84023 9.59769C9.84555 9.58058 9.85565 9.55874 9.86972 9.5339C9.8838 9.50906 9.90147 9.48192 9.92131 9.45463C9.94115 9.42734 9.96262 9.40067 9.98401 9.37674C10.0028 9.34952 10.0237 9.32216 10.0451 9.29686C10.0665 9.27155 10.0879 9.24899 10.1074 9.23098C10.127 9.21297 10.1442 9.20001 10.1577 9.19314C10.1712 9.18627 10.1806 9.18567 10.1852 9.19139C10.1897 9.19711 10.1894 9.209 10.184 9.2261C10.1787 9.2432 10.1686 9.26505 10.1545 9.28988C10.1405 9.31472 10.1228 9.34187 10.103 9.36916C10.0831 9.39645 10.0616 9.42312 10.0403 9.44705Z" fill="#009B3A" stroke="black" stroke-width="0.1"/>
<path id="Vector_28" d="M9.90674 9.34452C9.90889 9.37274 9.90983 9.40114 9.90952 9.4281C9.9092 9.45506 9.90764 9.48004 9.90491 9.50163C9.90219 9.52322 9.89835 9.54098 9.89363 9.55392C9.88891 9.56685 9.88339 9.57469 9.87738 9.577C9.87138 9.57931 9.86502 9.57604 9.85865 9.56737C9.85228 9.5587 9.84604 9.54481 9.84028 9.52649C9.83452 9.50817 9.82935 9.48577 9.82507 9.46058C9.82079 9.43539 9.81748 9.4079 9.81534 9.37968C9.81319 9.35146 9.81225 9.32306 9.81256 9.2961C9.81287 9.26915 9.81444 9.24416 9.81716 9.22257C9.81989 9.20099 9.82372 9.18322 9.82845 9.17029C9.83317 9.15735 9.83869 9.14951 9.84469 9.1472C9.85069 9.14489 9.85706 9.14817 9.86343 9.15683C9.86979 9.1655 9.87603 9.17939 9.8818 9.19772C9.88756 9.21604 9.89273 9.23843 9.89701 9.26362C9.90129 9.28881 9.90459 9.3163 9.90674 9.34452Z" fill="#009B3A" stroke="black" stroke-width="0.1"/>
<path id="Vector_29" d="M9.95984 9.34372C9.94807 9.38819 9.93443 9.4269 9.92095 9.45412C9.90747 9.48134 9.89486 9.49562 9.885 9.49483C9.87514 9.49404 9.86854 9.47823 9.86619 9.44974C9.86384 9.42126 9.86586 9.38161 9.87195 9.33669C9.87637 9.3041 9.88278 9.26981 9.89068 9.23656C9.89858 9.20331 9.90775 9.17202 9.91745 9.14519C9.92715 9.11837 9.93711 9.09674 9.94654 9.08205C9.95597 9.06736 9.96461 9.06001 9.97177 9.06058C9.97892 9.06115 9.9844 9.06963 9.98775 9.08535C9.99111 9.10106 9.99225 9.12357 9.99109 9.15109C9.98993 9.1786 9.9865 9.21034 9.98108 9.24379C9.97565 9.27724 9.96838 9.31146 9.95984 9.34372Z" fill="#009B3A" stroke="black" stroke-width="0.1"/>
<g id="Vector_30">
<path d="M10.0055 9.39068C9.99409 9.41886 9.98173 9.44635 9.96914 9.47158C9.95655 9.49682 9.94398 9.51931 9.93215 9.53776C9.92031 9.55622 9.90945 9.57028 9.90017 9.57914C9.89089 9.588 9.88338 9.59149 9.87807 9.58942C9.86735 9.58522 9.86624 9.55859 9.87497 9.51539C9.88371 9.47219 9.90158 9.41595 9.92465 9.35904C9.93629 9.33045 9.94886 9.3026 9.96165 9.27707C9.97443 9.25154 9.98718 9.22883 9.99916 9.21025C10.0111 9.19166 10.0221 9.17756 10.0315 9.16876C10.0408 9.15995 10.0484 9.1566 10.0537 9.15891C10.059 9.16122 10.062 9.16914 10.0624 9.18221C10.0629 9.19528 10.0608 9.21326 10.0563 9.23511C10.0519 9.25696 10.0451 9.28225 10.0364 9.30955C10.0276 9.33684 10.0172 9.36561 10.0055 9.3942" fill="#009B3A"/>
<path d="M10.0055 9.39068C9.99409 9.41886 9.98173 9.44635 9.96914 9.47158C9.95655 9.49682 9.94398 9.51931 9.93215 9.53776C9.92031 9.55622 9.90945 9.57028 9.90017 9.57914C9.89089 9.588 9.88338 9.59149 9.87807 9.58942C9.86735 9.58522 9.86624 9.55859 9.87497 9.51539C9.88371 9.47219 9.90158 9.41595 9.92465 9.35904C9.93629 9.33045 9.94886 9.3026 9.96165 9.27707C9.97443 9.25154 9.98718 9.22883 9.99916 9.21025C10.0111 9.19166 10.0221 9.17756 10.0315 9.16876C10.0408 9.15995 10.0484 9.1566 10.0537 9.15891C10.059 9.16122 10.062 9.16914 10.0624 9.18221C10.0629 9.19528 10.0608 9.21326 10.0563 9.23511C10.0519 9.25696 10.0451 9.28225 10.0364 9.30955C10.0276 9.33684 10.0172 9.36561 10.0055 9.3942" stroke="black" stroke-width="0.1"/>
</g>
<g id="Vector_31">
<path d="M9.87931 9.57305L9.81954 9.52031C9.81251 9.50977 9.82658 9.48516 9.79493 9.45703C9.76983 9.43446 9.73729 9.42194 9.70353 9.42188C9.68243 9.42187 9.68243 9.44297 9.71759 9.47813C9.75275 9.51328 9.7879 9.50625 9.80548 9.52383C9.83 9.53973 9.85244 9.55862 9.87228 9.58008L9.9672 9.59414C9.99181 9.59766 10.0481 9.63984 10.0973 9.63984C10.1395 9.63984 10.1676 9.61875 10.143 9.60117C10.1149 9.58138 10.0822 9.56926 10.0481 9.56602C10.0164 9.56602 9.99181 9.59063 9.96017 9.58711L9.87579 9.57305M9.79142 9.84727C9.75797 9.85479 9.7232 9.8607 9.68976 9.86454C9.65632 9.86838 9.62511 9.87004 9.5985 9.86941C9.57189 9.86877 9.5506 9.86586 9.53624 9.86088C9.52189 9.85591 9.51486 9.849 9.51569 9.8407C9.51652 9.8324 9.52519 9.82291 9.54103 9.81298C9.55688 9.80304 9.57948 9.79291 9.6071 9.78337C9.63473 9.77382 9.66665 9.76511 9.70043 9.75791C9.7342 9.7507 9.76893 9.74519 9.80197 9.7418C9.83541 9.73427 9.87018 9.72836 9.90362 9.72452C9.93706 9.72069 9.96828 9.71902 9.99488 9.71965C10.0215 9.72029 10.0428 9.7232 10.0571 9.72818C10.0715 9.73316 10.0785 9.74006 10.0777 9.74836C10.0769 9.75667 10.0682 9.76615 10.0524 9.77609C10.0365 9.78602 10.0139 9.79615 9.98628 9.8057C9.95865 9.81524 9.92673 9.82395 9.89296 9.83115C9.85918 9.83836 9.82445 9.84387 9.79142 9.84727Z" fill="#009B3A"/>
<path d="M9.87931 9.57305L9.81954 9.52031C9.81251 9.50977 9.82658 9.48516 9.79493 9.45703C9.76983 9.43446 9.73729 9.42194 9.70353 9.42188C9.68243 9.42187 9.68243 9.44297 9.71759 9.47813C9.75275 9.51328 9.7879 9.50625 9.80548 9.52383C9.83 9.53973 9.85244 9.55862 9.87228 9.58008L9.9672 9.59414C9.99181 9.59766 10.0481 9.63984 10.0973 9.63984C10.1395 9.63984 10.1676 9.61875 10.143 9.60117C10.1149 9.58138 10.0822 9.56926 10.0481 9.56602C10.0164 9.56602 9.99181 9.59063 9.96017 9.58711L9.87579 9.57305M9.79142 9.84727C9.75797 9.85479 9.7232 9.8607 9.68976 9.86454C9.65632 9.86838 9.62511 9.87004 9.5985 9.86941C9.57189 9.86877 9.5506 9.86586 9.53624 9.86088C9.52189 9.85591 9.51486 9.849 9.51569 9.8407C9.51652 9.8324 9.52519 9.82291 9.54103 9.81298C9.55688 9.80304 9.57948 9.79291 9.6071 9.78337C9.63473 9.77382 9.66665 9.76511 9.70043 9.75791C9.7342 9.7507 9.76893 9.74519 9.80197 9.7418C9.83541 9.73427 9.87018 9.72836 9.90362 9.72452C9.93706 9.72069 9.96828 9.71902 9.99488 9.71965C10.0215 9.72029 10.0428 9.7232 10.0571 9.72818C10.0715 9.73316 10.0785 9.74006 10.0777 9.74836C10.0769 9.75667 10.0682 9.76615 10.0524 9.77609C10.0365 9.78602 10.0139 9.79615 9.98628 9.8057C9.95865 9.81524 9.92673 9.82395 9.89296 9.83115C9.85918 9.83836 9.82445 9.84387 9.79142 9.84727Z" stroke="black" stroke-width="0.1"/>
</g>
<path id="Vector_32" d="M9.78714 9.78763C9.73113 9.80807 9.67805 9.82246 9.63845 9.82792C9.59885 9.83339 9.57563 9.82953 9.57342 9.81713C9.5712 9.80472 9.59015 9.78468 9.62649 9.76097C9.66283 9.73727 9.71391 9.71164 9.76956 9.6892C9.82557 9.66876 9.87865 9.65437 9.91825 9.64891C9.95785 9.64344 9.98107 9.6473 9.98328 9.6597C9.9855 9.67211 9.96655 9.69215 9.93021 9.71586C9.89387 9.73956 9.84279 9.76518 9.78714 9.78763Z" fill="#009B3A" stroke="black" stroke-width="0.1"/>
<path id="Vector_33" d="M9.70632 9.61473C9.68134 9.66272 9.65403 9.70548 9.62928 9.73534C9.60452 9.7652 9.58395 9.78021 9.57125 9.77767C9.55855 9.77513 9.55455 9.75521 9.55998 9.72148C9.5654 9.68775 9.57989 9.64243 9.60085 9.59364C9.6136 9.56395 9.62834 9.53392 9.64406 9.50563C9.65977 9.47733 9.67608 9.45145 9.69186 9.42976C9.70765 9.40807 9.72253 9.3911 9.73547 9.38C9.74842 9.36891 9.75913 9.36397 9.76686 9.36551C9.77458 9.36706 9.77915 9.37506 9.78023 9.38895C9.78132 9.40285 9.7789 9.42232 9.77315 9.44602C9.76739 9.46971 9.75844 9.49707 9.7469 9.5262C9.73536 9.55532 9.72151 9.58553 9.70632 9.61473Z" fill="#009B3A" stroke="black" stroke-width="0.1"/>
<path id="Vector_34" d="M9.76311 9.64728C9.74159 9.67163 9.7192 9.69501 9.6972 9.71609C9.67521 9.73717 9.65404 9.75553 9.63491 9.77014C9.61578 9.78474 9.59907 9.7953 9.58572 9.8012C9.57237 9.80711 9.56264 9.80824 9.5571 9.80455C9.55156 9.80086 9.55031 9.7924 9.55343 9.77968C9.55654 9.76695 9.56396 9.75019 9.57525 9.73036C9.58655 9.71054 9.6015 9.68803 9.61925 9.66412C9.63701 9.64021 9.65722 9.61538 9.67873 9.59103C9.72218 9.54186 9.76829 9.49767 9.80692 9.46818C9.84555 9.43868 9.87354 9.4263 9.88473 9.43376C9.89592 9.44122 9.88939 9.46791 9.86658 9.50795C9.84377 9.54799 9.80655 9.59811 9.76311 9.64728Z" fill="#009B3A" stroke="black" stroke-width="0.1"/>
<g id="Vector_35">
<path d="M9.77651 9.71659C9.74955 9.73818 9.7213 9.7589 9.69364 9.77737C9.66597 9.79585 9.6395 9.81167 9.61599 9.82378C9.59248 9.83589 9.57245 9.84403 9.55723 9.84766C9.54201 9.85128 9.53194 9.85031 9.52769 9.8448C9.52344 9.8393 9.5251 9.82939 9.53256 9.81572C9.54002 9.80206 9.55311 9.78495 9.57098 9.76552C9.58884 9.7461 9.61107 9.72481 9.6362 9.70304C9.66132 9.68127 9.68878 9.65953 9.71675 9.63925C9.76937 9.59905 9.82317 9.56457 9.86631 9.54339C9.90945 9.52222 9.9384 9.51608 9.94679 9.52634C9.95519 9.5366 9.94233 9.5624 9.91106 9.59808C9.87978 9.63376 9.83265 9.67639 9.78003 9.71659" fill="#009B3A"/>
<path d="M9.77651 9.71659C9.74955 9.73818 9.7213 9.7589 9.69364 9.77737C9.66597 9.79585 9.6395 9.81167 9.61599 9.82378C9.59248 9.83589 9.57245 9.84403 9.55723 9.84766C9.54201 9.85128 9.53194 9.85031 9.52769 9.8448C9.52344 9.8393 9.5251 9.82939 9.53256 9.81572C9.54002 9.80206 9.55311 9.78495 9.57098 9.76552C9.58884 9.7461 9.61107 9.72481 9.6362 9.70304C9.66132 9.68127 9.68878 9.65953 9.71675 9.63925C9.76937 9.59905 9.82317 9.56457 9.86631 9.54339C9.90945 9.52222 9.9384 9.51608 9.94679 9.52634C9.95519 9.5366 9.94233 9.5624 9.91106 9.59808C9.87978 9.63376 9.83265 9.67639 9.78003 9.71659" stroke="black" stroke-width="0.1"/>
</g>
<g id="Vector_36">
<path d="M9.55552 9.81514L9.53091 9.73428C9.5274 9.7167 9.55552 9.69912 9.54146 9.65693C9.52959 9.62001 9.50457 9.58873 9.47115 9.56904C9.45357 9.5585 9.43599 9.57959 9.45357 9.63232C9.46763 9.68506 9.50631 9.70264 9.51685 9.72725L9.54498 9.81865C9.56607 9.8292 9.60474 9.86787 9.62935 9.88896C9.65396 9.90654 9.6856 9.97686 9.73482 10.005C9.76998 10.0296 9.80513 10.0261 9.7981 9.99443C9.78137 9.95933 9.75596 9.92908 9.72427 9.90654C9.69615 9.88545 9.65396 9.896 9.62935 9.8749C9.61177 9.86084 9.55552 9.81865 9.55904 9.81514" fill="#009B3A"/>
<path d="M9.55552 9.81514L9.53091 9.73428C9.5274 9.7167 9.55552 9.69912 9.54146 9.65693C9.52959 9.62001 9.50457 9.58873 9.47115 9.56904C9.45357 9.5585 9.43599 9.57959 9.45357 9.63232C9.46763 9.68506 9.50631 9.70264 9.51685 9.72725L9.54498 9.81865C9.56607 9.8292 9.60474 9.86787 9.62935 9.88896C9.65396 9.90654 9.6856 9.97686 9.73482 10.005C9.76998 10.0296 9.80513 10.0261 9.7981 9.99443C9.78137 9.95933 9.75596 9.92908 9.72427 9.90654C9.69615 9.88545 9.65396 9.896 9.62935 9.8749C9.61177 9.86084 9.55552 9.81865 9.55904 9.81514" stroke="black" stroke-width="0.1"/>
</g>
<path id="Vector_37" d="M9.42194 10.0516C9.36201 10.0523 9.30487 10.046 9.26284 10.0342C9.22082 10.0224 9.19727 10.0059 9.19727 9.9884C9.19727 9.97088 9.22082 9.95368 9.26284 9.94051C9.30487 9.92734 9.36201 9.91927 9.42194 9.91802C9.48186 9.91735 9.539 9.92361 9.58103 9.93543C9.62305 9.94725 9.64661 9.9637 9.64661 9.98123C9.64661 9.99875 9.62305 10.016 9.58103 10.0291C9.539 10.0423 9.48186 10.0504 9.42194 10.0516Z" fill="#009B3A" stroke="black" stroke-width="0.1"/>
<path id="Vector_38" d="M9.39061 9.84347C9.35085 9.89471 9.30753 9.93941 9.27018 9.96773C9.23283 9.99606 9.20452 10.0057 9.19147 9.99449C9.17841 9.98331 9.18169 9.95222 9.20058 9.90807C9.21946 9.86393 9.25241 9.81034 9.29217 9.75909C9.33194 9.70785 9.37526 9.66315 9.41261 9.63483C9.44995 9.60651 9.47827 9.59688 9.49132 9.60807C9.50437 9.61926 9.5011 9.65034 9.48221 9.69449C9.46332 9.73864 9.43038 9.79223 9.39061 9.84347Z" fill="#009B3A" stroke="black" stroke-width="0.1"/>
<path id="Vector_39" d="M9.42174 9.9486C9.37223 9.96661 9.32573 9.97768 9.29018 9.97994C9.25464 9.98219 9.23225 9.97548 9.22685 9.96095C9.22146 9.94642 9.23338 9.92498 9.26059 9.90028C9.2878 9.87558 9.32861 9.84917 9.37604 9.82555C9.42555 9.80754 9.47205 9.79646 9.50759 9.79421C9.54314 9.79195 9.56552 9.79866 9.57092 9.81319C9.57632 9.82772 9.56439 9.84917 9.53718 9.87387C9.50997 9.89856 9.46917 9.92498 9.42174 9.9486ZM9.48502 7.94469C9.51035 7.96832 9.53142 7.99163 9.5441 8.01002C9.55677 8.02842 9.56014 8.04057 9.55353 8.0441C9.54692 8.04762 9.53082 8.04226 9.50838 8.02907C9.48595 8.01588 9.4588 7.99581 9.43229 7.97281C9.41753 7.96002 9.40343 7.94671 9.39088 7.93374C9.37833 7.92076 9.36761 7.90841 9.3594 7.89747C9.35118 7.88653 9.34566 7.87724 9.34319 7.87019C9.34071 7.86314 9.34133 7.85849 9.34501 7.85653C9.34868 7.85456 9.35534 7.85534 9.36455 7.8588C9.37375 7.86226 9.38531 7.86833 9.39848 7.87663C9.41166 7.88492 9.42616 7.89526 9.44105 7.90697C9.45595 7.91869 9.47093 7.93154 9.48502 7.94469ZM9.41471 8.00445C9.45356 8.00956 9.49137 8.0176 9.51983 8.02681C9.54829 8.03602 9.56506 8.04565 9.56646 8.05358C9.56786 8.0615 9.55377 8.06708 9.52729 8.06907C9.50081 8.07107 9.4641 8.06932 9.42525 8.06422C9.3864 8.05912 9.34859 8.05108 9.32013 8.04186C9.29167 8.03265 9.2749 8.02302 9.2735 8.0151C9.2721 8.00717 9.28619 8.0016 9.31267 7.9996C9.33916 7.99761 9.37586 7.99935 9.41471 8.00445Z" fill="#009B3A" stroke="black" stroke-width="0.1"/>
<path id="Vector_40" d="M9.44336 7.96647C9.47934 7.98473 9.51237 8.00483 9.53518 8.02235C9.55799 8.03988 9.56871 8.05339 9.56498 8.05992C9.56125 8.06645 9.54338 8.06545 9.5153 8.05716C9.48721 8.04886 9.45122 8.03394 9.41523 8.01569C9.39742 8.00665 9.38014 7.99706 9.36438 7.98747C9.34863 7.97788 9.3347 7.96848 9.32341 7.9598C9.3006 7.94227 9.28989 7.92876 9.29361 7.92224C9.29734 7.91571 9.31522 7.9167 9.3433 7.925C9.37138 7.93329 9.40737 7.94821 9.44336 7.96647ZM8.40625 9.82623C8.40625 9.82623 8.59961 9.86842 8.76836 9.92819C8.93359 9.98795 9.19023 10.1989 9.26055 10.2094C9.33437 10.213 9.43984 10.1883 9.48203 10.0758C9.3625 10.111 9.29219 10.1567 9.17969 10.0934C9.14102 10.0794 9.01094 9.95983 8.86328 9.89655C8.7233 9.84199 8.58005 9.7962 8.43437 9.75944L8.40625 9.82623ZM8.61367 8.08248L8.83516 7.96295L8.58906 8.02623L8.56094 8.06842L8.61367 8.08248Z" fill="#009B3A" stroke="black" stroke-width="0.1"/>
<path id="Vector_41" d="M8.82441 8.13555C8.73652 8.12148 8.60293 8.08984 8.51855 8.08281C8.57832 8.01953 8.65918 7.91055 8.7084 7.84375C8.67324 7.90703 8.62402 7.99141 8.60293 8.05469C8.6627 8.08633 8.75762 8.11094 8.82441 8.13555Z" fill="#009B3A" stroke="black" stroke-width="0.1"/>
<g id="Vector_42">
<path d="M8.57129 8.09609L8.76816 7.94141L8.53965 8.04688L8.51855 8.09258H8.57129" fill="#009B3A"/>
<path d="M8.57129 8.09609L8.76816 7.94141L8.53965 8.04688L8.51855 8.09258H8.57129" stroke="black" stroke-width="0.1"/>
</g>
<path id="Vector_43" d="M8.78184 8.13086C8.69395 8.1168 8.56387 8.08516 8.47949 8.07812C8.53574 8.01133 8.61309 7.90234 8.6623 7.83203C8.62715 7.89531 8.58145 7.9832 8.56035 8.04648C8.62012 8.08164 8.71504 8.10625 8.78184 8.13086Z" fill="#009B3A" stroke="black" stroke-width="0.1"/>
<path id="Vector_44" d="M8.53906 8.10664L8.77109 8.01172L8.52148 8.05039L8.48633 8.09258L8.53906 8.10664Z" fill="#009B3A" stroke="black" stroke-width="0.1"/>
<g id="Vector_45">
<path d="M8.7541 8.13555C8.66973 8.12852 8.53262 8.11094 8.44824 8.11445C8.49746 8.04062 8.56074 7.91758 8.60293 7.84375C8.57832 7.91406 8.53965 8.00547 8.5291 8.07227C8.59238 8.10039 8.6873 8.11797 8.75762 8.13555" fill="#009B3A"/>
<path d="M8.7541 8.13555C8.66973 8.12852 8.53262 8.11094 8.44824 8.11445C8.49746 8.04062 8.56074 7.91758 8.60293 7.84375C8.57832 7.91406 8.53965 8.00547 8.5291 8.07227C8.59238 8.10039 8.6873 8.11797 8.75762 8.13555" stroke="black" stroke-width="0.1"/>
</g>
<g id="Vector_46">
<path d="M8.51504 8.10938L8.67324 7.91602L8.47285 8.06367L8.46582 8.11641L8.51504 8.10586" fill="#009B3A"/>
<path d="M8.51504 8.10938L8.67324 7.91602L8.47285 8.06367L8.46582 8.11641L8.51504 8.10586" stroke="black" stroke-width="0.1"/>
</g>
<path id="Vector_47" d="M8.75371 8.14922C8.6623 8.14922 8.51465 8.13867 8.42676 8.14922C8.47246 8.06133 8.5252 7.92422 8.56035 7.83984C8.54277 7.91719 8.51113 8.02266 8.5041 8.09648C8.57441 8.12109 8.67988 8.13164 8.75371 8.14922Z" fill="#009B3A" stroke="black" stroke-width="0.1"/>
<g id="Vector_48">
<path d="M8.48301 8.15508C8.54556 8.09223 8.60884 8.03011 8.67285 7.96875L8.44434 8.09883L8.42676 8.15156H8.48301" fill="#009B3A"/>
<path d="M8.48301 8.15508C8.54556 8.09223 8.60884 8.03011 8.67285 7.96875L8.44434 8.09883L8.42676 8.15156H8.48301" stroke="black" stroke-width="0.1"/>
</g>
<g id="Vector_49">
<path d="M8.71191 8.15586C8.61348 8.15586 8.45879 8.14883 8.36035 8.15938C8.42363 8.06445 8.51504 7.91328 8.57129 7.81836C8.53613 7.90273 8.47637 8.02227 8.45527 8.09961C8.52559 8.12773 8.63457 8.13477 8.71191 8.15234" fill="#009B3A"/>
<path d="M8.71191 8.15586C8.61348 8.15586 8.45879 8.14883 8.36035 8.15938C8.42363 8.06445 8.51504 7.91328 8.57129 7.81836C8.53613 7.90273 8.47637 8.02227 8.45527 8.09961C8.52559 8.12773 8.63457 8.13477 8.71191 8.15234" stroke="black" stroke-width="0.1"/>
</g>
<path id="Vector_50" d="M8.42012 8.16641L8.66621 7.95898L8.38496 8.10664L8.36035 8.16641H8.42012Z" fill="#009B3A" stroke="black" stroke-width="0.1"/>
<path id="Vector_51" d="M8.67676 8.15938C8.57832 8.17344 8.42363 8.19102 8.3252 8.21563C8.38317 8.09728 8.43595 7.97646 8.4834 7.85352C8.4623 7.94141 8.42363 8.06445 8.41309 8.14531C8.48691 8.15938 8.5959 8.15586 8.67676 8.15938Z" fill="#009B3A" stroke="black" stroke-width="0.1"/>
<g id="Vector_52">
<path d="M8.38789 8.20937C8.44921 8.12209 8.51132 8.03537 8.57422 7.94922L8.33867 8.16016L8.32812 8.22695L8.38438 8.20937" fill="#009B3A"/>
<path d="M8.38789 8.20937C8.44921 8.12209 8.51132 8.03537 8.57422 7.94922L8.33867 8.16016L8.32812 8.22695L8.38438 8.20937" stroke="black" stroke-width="0.1"/>
</g>
<path id="Vector_53" d="M8.62012 8.19141C8.52168 8.20195 8.36699 8.20898 8.26855 8.22656C8.3248 8.13164 8.40215 7.97344 8.44434 7.875C8.41973 7.96289 8.37402 8.08242 8.35996 8.16328C8.43027 8.18086 8.54277 8.18086 8.62012 8.19141Z" fill="#009B3A" stroke="black" stroke-width="0.1"/>
<path id="Vector_54" d="M8.35273 8.23633L8.5918 8.02539L8.32109 8.17305L8.29297 8.23633H8.35273Z" fill="#009B3A" stroke="black" stroke-width="0.1"/>
<path id="Vector_55" d="M8.5918 8.20195C8.48984 8.22305 8.33516 8.24766 8.24023 8.2793C8.28594 8.17734 8.3457 8.01211 8.38086 7.91016C8.36328 8.00156 8.33164 8.12109 8.32461 8.20547C8.39844 8.21602 8.51094 8.20195 8.5918 8.20195Z" fill="#009B3A" stroke="black" stroke-width="0.1"/>
<path id="Vector_56" d="M8.31406 8.24766L8.46523 7.96289L8.25781 8.20898V8.27227L8.31406 8.24766Z" fill="#009B3A" stroke="black" stroke-width="0.1"/>
<path id="Vector_57" d="M8.59199 8.21875C8.48652 8.24336 8.31777 8.28203 8.21582 8.3207C8.25449 8.20469 8.3002 8.01836 8.32832 7.90234C8.31777 8.0043 8.29316 8.14141 8.3002 8.23281C8.38106 8.23984 8.5041 8.22227 8.59199 8.21875Z" fill="#009B3A" stroke="black" stroke-width="0.1"/>
<path id="Vector_58" d="M8.28301 8.31055L8.47637 8.0293L8.23027 8.25781L8.21973 8.32812L8.28301 8.31055Z" fill="#009B3A" stroke="black" stroke-width="0.1"/>
<path id="Vector_59" d="M8.5498 8.25C8.44434 8.28516 8.2791 8.32734 8.18066 8.36953C8.21582 8.25352 8.25098 8.06719 8.27207 7.95117C8.26504 8.05313 8.25098 8.19023 8.25801 8.27813C8.34238 8.28164 8.46191 8.25703 8.5498 8.25Z" fill="#009B3A" stroke="black" stroke-width="0.1"/>
<path id="Vector_60" d="M8.24395 8.35352L8.3916 8.03711L8.18066 8.31133V8.38164L8.24395 8.35352Z" fill="#009B3A" stroke="black" stroke-width="0.1"/>
<path id="Vector_61" d="M8.50762 8.29258C8.40215 8.31719 8.2334 8.34883 8.12793 8.38398C8.17363 8.27148 8.22637 8.08516 8.25801 7.97266C8.24395 8.07461 8.21582 8.2082 8.21582 8.29961C8.3002 8.31016 8.41973 8.29258 8.50762 8.29258Z" fill="#009B3A" stroke="black" stroke-width="0.1"/>
<g id="Vector_62">
<path d="M8.20937 8.38477L8.44844 8.13867L8.16719 8.32148L8.14258 8.3918L8.21289 8.38477" fill="#009B3A"/>
<path d="M8.20937 8.38477L8.44844 8.13867L8.16719 8.32148L8.14258 8.3918L8.21289 8.38477" stroke="black" stroke-width="0.1"/>
</g>
<path id="Vector_63" d="M8.46211 8.33438C8.35664 8.34844 8.18789 8.3625 8.08594 8.39062C8.13516 8.27812 8.19844 8.09883 8.23711 7.98633C8.21602 8.08477 8.18086 8.22188 8.17383 8.31328C8.25469 8.33086 8.37422 8.32734 8.46211 8.33438Z" fill="#009B3A" stroke="black" stroke-width="0.1"/>
<path id="Vector_64" d="M8.16328 8.36016L8.325 8.05078L8.10352 8.31094V8.38125L8.16328 8.36016Z" fill="#009B3A" stroke="black" stroke-width="0.1"/>
<g id="Vector_65">
<path d="M8.47266 8.29688C8.35664 8.34609 8.17734 8.41289 8.06836 8.47266C8.10352 8.33203 8.13867 8.11406 8.16328 7.98047C8.15977 8.09648 8.14219 8.2582 8.15273 8.36016C8.24766 8.36016 8.37773 8.31797 8.47617 8.30039" fill="#009B3A"/>
<path d="M8.47266 8.29688C8.35664 8.34609 8.17734 8.41289 8.06836 8.47266C8.10352 8.33203 8.13867 8.11406 8.16328 7.98047C8.15977 8.09648 8.14219 8.2582 8.15273 8.36016C8.24766 8.36016 8.37773 8.31797 8.47617 8.30039" stroke="black" stroke-width="0.1"/>
</g>
<g id="Vector_66">
<path d="M8.13906 8.45117L8.33594 8.09961L8.0793 8.39844L8.07227 8.48281L8.14258 8.45117" fill="#009B3A"/>
<path d="M8.13906 8.45117L8.33594 8.09961L8.0793 8.39844L8.07227 8.48281L8.14258 8.45117" stroke="black" stroke-width="0.1"/>
</g>
<g id="Vector_67">
<path d="M8.43008 8.3418C8.31406 8.39453 8.13477 8.47188 8.0293 8.53516C8.05742 8.39453 8.08555 8.18008 8.10313 8.04297C8.10313 8.15898 8.09609 8.3207 8.11016 8.41914C8.20508 8.41211 8.33164 8.36641 8.42656 8.3418" fill="#009B3A"/>
<path d="M8.43008 8.3418C8.31406 8.39453 8.13477 8.47188 8.0293 8.53516C8.05742 8.39453 8.08555 8.18008 8.10313 8.04297C8.10313 8.15898 8.09609 8.3207 8.11016 8.41914C8.20508 8.41211 8.33164 8.36641 8.42656 8.3418" stroke="black" stroke-width="0.1"/>
</g>
<path id="Vector_68" d="M8.09961 8.50664L8.24023 8.12695L8.0293 8.46445L8.03281 8.54531L8.09961 8.50664Z" fill="#009B3A" stroke="black" stroke-width="0.1"/>
<path id="Vector_69" d="M8.37773 8.37344C8.26523 8.42969 8.08594 8.50703 7.98047 8.57031C8.00859 8.42969 8.03672 8.21523 8.05078 8.07812C8.0543 8.19414 8.04727 8.35234 8.06133 8.4543C8.15273 8.44375 8.28281 8.39805 8.37773 8.37344Z" fill="#009B3A" stroke="black" stroke-width="0.1"/>
<path id="Vector_70" d="M8.06836 8.55234L8.28633 8.21484L8.00859 8.48906L7.99805 8.57344L8.06836 8.55234Z" fill="#009B3A" stroke="black" stroke-width="0.1"/>
<g id="Vector_71">
<path d="M8.36758 8.35664C8.26914 8.4375 8.10742 8.55703 8.01602 8.64844C8.01602 8.50781 7.99492 8.28984 7.98438 8.15625C8.0125 8.26875 8.03711 8.42344 8.07227 8.51484C8.16016 8.4832 8.27969 8.40586 8.37109 8.35664" fill="#009B3A"/>
<path d="M8.36758 8.35664C8.26914 8.4375 8.10742 8.55703 8.01602 8.64844C8.01602 8.50781 7.99492 8.28984 7.98438 8.15625C8.0125 8.26875 8.03711 8.42344 8.07227 8.51484C8.16016 8.4832 8.27969 8.40586 8.37109 8.35664" stroke="black" stroke-width="0.1"/>
</g>
<path id="Vector_72" d="M8.07891 8.5668L8.10352 8.16602L7.99805 8.55273L8.02617 8.63008L8.07891 8.5668Z" fill="#009B3A" stroke="black" stroke-width="0.1"/>
<path id="Vector_73" d="M8.33926 8.39531C8.2373 8.47617 8.07559 8.59219 7.9877 8.68008C7.9877 8.53945 7.9666 8.32852 7.95605 8.19141C7.98066 8.30391 8.00527 8.45859 8.04043 8.55C8.13184 8.51836 8.25137 8.44102 8.33926 8.39531Z" fill="#009B3A" stroke="black" stroke-width="0.1"/>
<g id="Vector_74">
<path d="M8.05078 8.63438C8.08476 8.50398 8.11991 8.3739 8.15625 8.24414L7.98047 8.60273L7.99102 8.68359L8.0543 8.63438" fill="#009B3A"/>
<path d="M8.05078 8.63438C8.08476 8.50398 8.11991 8.3739 8.15625 8.24414L7.98047 8.60273L7.99102 8.68359L8.0543 8.63438" stroke="black" stroke-width="0.1"/>
</g>
<path id="Vector_75" d="M8.32852 8.40234C8.23359 8.49727 8.07891 8.63789 7.99453 8.73984C7.97695 8.59922 7.93477 8.37773 7.91016 8.24414C7.94531 8.35312 7.99102 8.50781 8.03672 8.59922C8.12813 8.55703 8.24062 8.46211 8.32852 8.40234Z" fill="#009B3A" stroke="black" stroke-width="0.1"/>
<g id="Vector_76">
<path d="M8.05059 8.68242L8.07168 8.26758L7.96973 8.67188L8.00137 8.74922L8.0541 8.68594" fill="#009B3A"/>
<path d="M8.05059 8.68242L8.07168 8.26758L7.96973 8.67188L8.00137 8.74922L8.0541 8.68594" stroke="black" stroke-width="0.1"/>
</g>
<path id="Vector_77" d="M8.29727 8.47148C8.19531 8.55586 8.03359 8.68242 7.93867 8.77734C7.93867 8.62969 7.91055 8.4082 7.89648 8.26758C7.92812 8.38359 7.95625 8.5418 7.99492 8.63672C8.08633 8.60156 8.20586 8.5207 8.29727 8.47148Z" fill="#009B3A" stroke="black" stroke-width="0.1"/>
<path id="Vector_78" d="M8.02305 8.73164L8.16719 8.33789L7.94922 8.68945L7.95625 8.77383L8.02305 8.73164Z" fill="#009B3A" stroke="black" stroke-width="0.1"/>
<path id="Vector_79" d="M8.29668 8.47266C8.20527 8.57109 8.06113 8.71523 7.98027 8.81719C7.96621 8.67305 7.92402 8.45156 7.89941 8.31445C7.93457 8.42344 7.97676 8.58164 8.02246 8.67305C8.10684 8.63086 8.2123 8.53242 8.29668 8.47266Z" fill="#009B3A" stroke="black" stroke-width="0.1"/>
<g id="Vector_80">
<path d="M8.0293 8.75273L8.01172 8.33789L7.94141 8.74922L7.98359 8.81953L8.0293 8.74922" fill="#009B3A"/>
<path d="M8.0293 8.75273L8.01172 8.33789L7.94141 8.74922L7.98359 8.81953L8.0293 8.74922" stroke="black" stroke-width="0.1"/>
</g>
<g id="Vector_81">
<path d="M8.25137 8.50742C8.16348 8.60234 8.02285 8.74648 7.94551 8.85195C7.92793 8.7043 7.87871 8.48281 7.85059 8.3457C7.88926 8.4582 7.93496 8.61641 7.98418 8.70781C8.06504 8.66211 8.17051 8.56719 8.25137 8.50391" fill="#009B3A"/>
<path d="M8.25137 8.50742C8.16348 8.60234 8.02285 8.74648 7.94551 8.85195C7.92793 8.7043 7.87871 8.48281 7.85059 8.3457C7.88926 8.4582 7.93496 8.61641 7.98418 8.70781C8.06504 8.66211 8.17051 8.56719 8.25137 8.50391" stroke="black" stroke-width="0.1"/>
</g>
<path id="Vector_82" d="M8.00508 8.79492L8.05078 8.37305L7.92773 8.77031L7.95234 8.85117L8.00508 8.79492Z" fill="#009B3A" stroke="black" stroke-width="0.1"/>
<path id="Vector_83" d="M8.23359 8.52187C8.15273 8.62734 8.02266 8.78555 7.95234 8.89453C7.92422 8.75391 7.86094 8.53594 7.82227 8.40234C7.86797 8.50781 7.92773 8.6625 7.98047 8.75039C8.05781 8.69766 8.15625 8.58867 8.23359 8.52187Z" fill="#009B3A" stroke="black" stroke-width="0.1"/>
<g id="Vector_84">
<path d="M8.00117 8.83398L7.97656 8.41211L7.92383 8.83047L7.95898 8.90078L8.00117 8.83047" fill="#009B3A"/>
<path d="M8.00117 8.83398L7.97656 8.41211L7.92383 8.83047L7.95898 8.90078L8.00117 8.83047" stroke="black" stroke-width="0.1"/>
</g>
<path id="Vector_85" d="M8.22656 8.54219C8.14922 8.65469 8.02617 8.82344 7.96289 8.93594C7.92773 8.79531 7.85039 8.58086 7.80469 8.44727C7.85742 8.55273 7.92422 8.70391 7.98047 8.78828C8.05781 8.73203 8.14922 8.61953 8.22656 8.54219Z" fill="#009B3A" stroke="black" stroke-width="0.1"/>
<path id="Vector_86" d="M8.02949 8.87305L8.07168 8.45117L7.95215 8.84844L7.97676 8.93281L8.02949 8.87305Z" fill="#009B3A" stroke="black" stroke-width="0.1"/>
<g id="Vector_87">
<path d="M8.20859 8.58555C8.1418 8.70508 8.03633 8.88789 7.98359 9.01094C7.93438 8.87383 7.84297 8.67344 7.7832 8.54688C7.84648 8.64531 7.92383 8.78594 7.99063 8.86328C8.06094 8.79297 8.1418 8.66992 8.20859 8.58203" fill="#009B3A"/>
<path d="M8.20859 8.58555C8.1418 8.70508 8.03633 8.88789 7.98359 9.01094C7.93438 8.87383 7.84297 8.67344 7.7832 8.54688C7.84648 8.64531 7.92383 8.78594 7.99063 8.86328C8.06094 8.79297 8.1418 8.66992 8.20859 8.58203" stroke="black" stroke-width="0.1"/>
</g>
<path id="Vector_88" d="M8.01602 8.90859L7.89648 8.50781L7.93516 8.92969L7.99141 8.98945L8.01602 8.90859Z" fill="#009B3A" stroke="black" stroke-width="0.1"/>
<path id="Vector_89" d="M8.20547 8.63047C8.13516 8.75 8.02969 8.93281 7.97344 9.05586C7.9207 8.91875 7.8293 8.71836 7.76953 8.5918C7.83281 8.69023 7.91016 8.83086 7.98047 8.9082C8.05078 8.83789 8.13867 8.71484 8.20547 8.63047Z" fill="#009B3A" stroke="black" stroke-width="0.1"/>
<path id="Vector_90" d="M8.01934 8.98633L7.97715 8.56445L7.93848 8.98633L7.98066 9.05664L8.01934 8.98633Z" fill="#009B3A" stroke="black" stroke-width="0.1"/>
<path id="Vector_91" d="M8.21231 8.66836C8.14199 8.78789 8.02949 8.96367 7.97324 9.08672C7.92402 8.94961 7.83262 8.7457 7.77637 8.61914C7.83965 8.71758 7.91699 8.8582 7.98027 8.93555C8.05762 8.87227 8.14199 8.74922 8.21231 8.66836Z" fill="#009B3A" stroke="black" stroke-width="0.1"/>
<path id="Vector_92" d="M8.01543 9.01641L7.93809 8.60156L7.93457 9.02695L7.98027 9.09375L8.01543 9.01641Z" fill="#009B3A" stroke="black" stroke-width="0.1"/>
<path id="Vector_93" d="M8.18398 8.72969C8.10664 8.84219 7.98711 9.01094 7.92383 9.13047C7.88164 8.98984 7.80078 8.77891 7.74805 8.65234C7.80781 8.7543 7.87813 8.89844 7.93789 8.98281C8.01523 8.91953 8.11016 8.80703 8.18398 8.72969Z" fill="#009B3A" stroke="black" stroke-width="0.1"/>
<path id="Vector_94" d="M7.98027 9.0625L8.01543 8.64062L7.89941 9.04141L7.92754 9.12227L7.98027 9.0625Z" fill="#009B3A" stroke="black" stroke-width="0.1"/>
<path id="Vector_95" d="M8.1875 8.73984C8.12422 8.86289 8.01875 9.04922 7.96602 9.17227C7.91328 9.03867 7.81133 8.8418 7.74805 8.71875C7.81836 8.81367 7.89922 8.95078 7.96953 9.02109C8.03984 8.95078 8.1207 8.82422 8.1875 8.73984Z" fill="#009B3A" stroke="black" stroke-width="0.1"/>
<path id="Vector_96" d="M7.96602 9.09883L7.83594 8.70508L7.88516 9.12695L7.94141 9.1832L7.96602 9.09883Z" fill="#009B3A" stroke="black" stroke-width="0.1"/>
<path id="Vector_97" d="M8.17031 8.77148C8.12461 8.90508 8.05078 9.1125 8.01562 9.24609C7.94531 9.12656 7.81523 8.9543 7.73438 8.84883C7.81523 8.92617 7.91719 9.04219 7.99805 9.09492C8.05781 9.01406 8.11758 8.86992 8.17031 8.77148Z" fill="#009B3A" stroke="black" stroke-width="0.1"/>
<g id="Vector_98">
<path d="M8.08203 9.13242L7.94141 8.74219L8.00117 9.16055L8.05742 9.21328L8.08203 9.12891" fill="#009B3A"/>
<path d="M8.08203 9.13242L7.94141 8.74219L8.00117 9.16055L8.05742 9.21328L8.08203 9.12891" stroke="black" stroke-width="0.1"/>
</g>
<path id="Vector_99" d="M8.1707 8.8125C8.125 8.94609 8.05117 9.15352 8.01953 9.28711C7.94922 9.16758 7.81563 8.99883 7.73828 8.89336C7.81563 8.9707 7.91758 9.0832 7.99844 9.13945C8.0582 9.05508 8.11797 8.91094 8.1707 8.8125Z" fill="#009B3A" stroke="black" stroke-width="0.1"/>
<path id="Vector_100" d="M8.08223 9.19609L7.89941 8.83398L8.00488 9.23828L8.06816 9.28398L8.08223 9.19609Z" fill="#009B3A" stroke="black" stroke-width="0.1"/>
<path id="Vector_101" d="M8.15625 8.8457C8.12812 8.98633 8.07891 9.20078 8.06133 9.33789C7.97344 9.23242 7.82578 9.08125 7.73438 8.98633C7.82227 9.05664 7.93828 9.15156 8.02266 9.19727C8.07187 9.10234 8.11406 8.95117 8.15625 8.8457Z" fill="#009B3A" stroke="black" stroke-width="0.1"/>
<path id="Vector_102" d="M8.09297 9.25703L7.99805 8.8457L8.01211 9.27109L8.06484 9.33437L8.09297 9.25703Z" fill="#009B3A" stroke="black" stroke-width="0.1"/>
<path id="Vector_103" d="M8.15625 8.89062C8.14219 9.03125 8.11055 9.25274 8.11055 9.39336C8.01211 9.29844 7.85039 9.16836 7.75195 9.0875C7.84688 9.14023 7.96992 9.22461 8.05781 9.25625C8.09648 9.15781 8.12812 8.99961 8.15625 8.89062Z" fill="#009B3A" stroke="black" stroke-width="0.1"/>
<path id="Vector_104" d="M8.1 9.28359L7.83984 8.98828L8.03672 9.34687L8.10703 9.37148L8.1 9.28359Z" fill="#009B3A" stroke="black" stroke-width="0.1"/>
<path id="Vector_105" d="M8.16367 8.93945C8.14609 9.08008 8.11445 9.30156 8.11445 9.44219C8.01602 9.34727 7.8543 9.21719 7.75586 9.13633C7.85078 9.18906 7.97383 9.27344 8.06172 9.30508C8.10391 9.20664 8.13203 9.05195 8.16367 8.93945Z" fill="#009B3A" stroke="black" stroke-width="0.1"/>
<g id="Vector_106">
<path d="M8.12812 9.35156C8.06021 9.23502 7.99341 9.11782 7.92773 9L8.0543 9.39727L8.12109 9.43945L8.12812 9.35508" fill="#009B3A"/>
<path d="M8.12812 9.35156C8.06021 9.23502 7.99341 9.11782 7.92773 9L8.0543 9.39727L8.12109 9.43945L8.12812 9.35508" stroke="black" stroke-width="0.1"/>
</g>
<path id="Vector_107" d="M8.17363 9C8.16309 9.14062 8.14199 9.36562 8.14551 9.50625C8.04355 9.41484 7.87832 9.29531 7.77637 9.22148C7.87129 9.26719 7.99785 9.34453 8.08926 9.36914C8.12441 9.26719 8.14551 9.1125 8.17363 9Z" fill="#009B3A" stroke="black" stroke-width="0.1"/>
<path id="Vector_108" d="M8.15625 9.42188C8.14922 9.42188 7.91016 9.10547 7.91016 9.10547L8.08594 9.47813L8.15625 9.50625V9.42188Z" fill="#009B3A" stroke="black" stroke-width="0.1"/>
<path id="Vector_109" d="M8.17754 9.06641C8.16699 9.20703 8.14941 9.43203 8.15293 9.57266C8.03366 9.47252 7.90928 9.37864 7.78027 9.29141C7.8752 9.33711 8.00527 9.41094 8.09668 9.43555C8.13184 9.33359 8.14941 9.17891 8.17754 9.06641Z" fill="#009B3A" stroke="black" stroke-width="0.1"/>
<path id="Vector_110" d="M8.17773 9.47031L8.00195 9.09766L8.10039 9.50547L8.16016 9.5582L8.17773 9.47031Z" fill="#009B3A" stroke="black" stroke-width="0.1"/>
<g id="Vector_111">
<path d="M8.18418 9.10547C8.18418 9.25312 8.1877 9.47812 8.20527 9.61523C8.0998 9.54492 7.92051 9.44297 7.81152 9.3832C7.90996 9.41836 8.04355 9.47812 8.13496 9.48867C8.15957 9.3832 8.17012 9.225 8.18066 9.10898" fill="#009B3A"/>
<path d="M8.18418 9.10547C8.18418 9.25312 8.1877 9.47812 8.20527 9.61523C8.0998 9.54492 7.92051 9.44297 7.81152 9.3832C7.90996 9.41836 8.04355 9.47812 8.13496 9.48867C8.15957 9.3832 8.17012 9.225 8.18066 9.10898" stroke="black" stroke-width="0.1"/>
</g>
<path id="Vector_112" d="M8.20508 9.45664L7.88867 9.24219L8.15586 9.53399L8.22969 9.54102L8.20508 9.45664Z" fill="#009B3A" stroke="black" stroke-width="0.1"/>
<path id="Vector_113" d="M8.19102 9.12305C8.20508 9.26719 8.21563 9.49219 8.24023 9.6293C8.10919 9.551 7.97425 9.47942 7.83594 9.41484C7.93437 9.44297 8.07148 9.4957 8.16289 9.50625C8.18398 9.40078 8.18398 9.23906 8.19102 9.12305Z" fill="#009B3A" stroke="black" stroke-width="0.1"/>
<path id="Vector_114" d="M8.24023 9.53672L7.97656 9.23438L8.17695 9.59648L8.24727 9.62461L8.24023 9.53672Z" fill="#009B3A" stroke="black" stroke-width="0.1"/>
<path id="Vector_115" d="M8.21563 9.17578C8.2332 9.32344 8.2543 9.54492 8.28594 9.68203C8.16992 9.61875 7.98711 9.54141 7.87109 9.48867C7.97656 9.51328 8.11016 9.55898 8.20508 9.5625C8.21914 9.45703 8.21211 9.29531 8.21563 9.17578Z" fill="#009B3A" stroke="black" stroke-width="0.1"/>
<path id="Vector_116" d="M8.28984 9.58711L7.98047 9.36914L8.24414 9.66797H8.31445L8.28984 9.58711Z" fill="#009B3A" stroke="black" stroke-width="0.1"/>
<path id="Vector_117" d="M8.22617 9.23828C8.2543 9.37891 8.28945 9.60039 8.32812 9.7375C8.20859 9.68125 8.02227 9.62149 7.90625 9.58281C8.0082 9.59688 8.14883 9.62852 8.24023 9.625C8.24727 9.51602 8.22969 9.35781 8.22617 9.23828Z" fill="#009B3A" stroke="black" stroke-width="0.1"/>
<path id="Vector_118" d="M8.325 9.63203L8.06836 9.32617L8.26172 9.6918L8.33203 9.71992L8.325 9.63203Z" fill="#009B3A" stroke="black" stroke-width="0.1"/>
<g id="Vector_119">
<path d="M8.24023 9.28086C8.28242 9.41797 8.33867 9.63242 8.39141 9.7625C8.26836 9.72734 8.075 9.68867 7.95898 9.66406C8.06094 9.66406 8.20156 9.67813 8.29297 9.66406C8.29297 9.55156 8.25781 9.39688 8.24023 9.27734" fill="#009B3A"/>
<path d="M8.24023 9.28086C8.28242 9.41797 8.33867 9.63242 8.39141 9.7625C8.26836 9.72734 8.075 9.68867 7.95898 9.66406C8.06094 9.66406 8.20156 9.67813 8.29297 9.66406C8.29297 9.55156 8.25781 9.39688 8.24023 9.27734" stroke="black" stroke-width="0.1"/>
</g>
<path id="Vector_120" d="M8.33906 9.63203L7.98047 9.55469L8.32148 9.72344L8.3918 9.69883L8.33906 9.63203Z" fill="#009B3A" stroke="black" stroke-width="0.1"/>
<g id="Vector_121">
<path d="M8.26523 9.32383C8.30742 9.46094 8.36367 9.67539 8.41289 9.80547C8.28984 9.77031 8.09648 9.73164 7.98047 9.70703C8.08242 9.70703 8.22656 9.72109 8.31445 9.70703C8.31445 9.59453 8.2793 9.43984 8.26523 9.32031" fill="#009B3A"/>
<path d="M8.26523 9.32383C8.30742 9.46094 8.36367 9.67539 8.41289 9.80547C8.28984 9.77031 8.09648 9.73164 7.98047 9.70703C8.08242 9.70703 8.22656 9.72109 8.31445 9.70703C8.31445 9.59453 8.2793 9.43984 8.26523 9.32031" stroke="black" stroke-width="0.1"/>
</g>
<g id="Vector_122">
<path d="M8.39922 9.66719C8.39922 9.67422 8.05469 9.50195 8.05469 9.50195L8.36406 9.75508L8.43437 9.74805L8.39922 9.6707" fill="#009B3A"/>
<path d="M8.39922 9.66719C8.39922 9.67422 8.05469 9.50195 8.05469 9.50195L8.36406 9.75508L8.43437 9.74805L8.39922 9.6707" stroke="black" stroke-width="0.1"/>
</g>
<path id="Vector_123" d="M8.24766 9.34766C8.31797 9.4707 8.41641 9.67109 8.49375 9.78711C8.36719 9.77656 8.17031 9.78359 8.05078 9.78711C8.14922 9.7625 8.28984 9.74492 8.37422 9.70977C8.35312 9.6043 8.28633 9.45664 8.24766 9.34766Z" fill="#009B3A" stroke="black" stroke-width="0.1"/>
<path id="Vector_124" d="M8.45137 9.70586L8.09277 9.60742L8.43027 9.79727L8.50059 9.77617L8.45137 9.70586Z" fill="#009B3A" stroke="black" stroke-width="0.1"/>
<g id="Vector_125">
<path d="M8.28672 9.40039C8.35703 9.52344 8.45547 9.72383 8.53281 9.83633C8.40625 9.8293 8.20938 9.83633 8.08984 9.84336C8.1918 9.81875 8.33242 9.79766 8.4168 9.7625C8.38867 9.65703 8.32539 9.50937 8.2832 9.40039" fill="#009B3A"/>
<path d="M8.28672 9.40039C8.35703 9.52344 8.45547 9.72383 8.53281 9.83633C8.40625 9.8293 8.20938 9.83633 8.08984 9.84336C8.1918 9.81875 8.33242 9.79766 8.4168 9.7625C8.38867 9.65703 8.32539 9.50937 8.2832 9.40039" stroke="black" stroke-width="0.1"/>
</g>
<path id="Vector_126" d="M8.49707 9.7375L8.16309 9.53711L8.45488 9.81836H8.53223L8.49707 9.7375Z" fill="#009B3A" stroke="black" stroke-width="0.1"/>
<path id="Vector_127" d="M8.31074 9.43164C8.3916 9.54766 8.51113 9.73398 8.59902 9.83945C8.47246 9.84648 8.28262 9.88164 8.16309 9.90274C8.26152 9.86758 8.39512 9.82539 8.47598 9.77617C8.44082 9.6707 8.35996 9.53711 8.31074 9.43164Z" fill="#009B3A" stroke="black" stroke-width="0.1"/>
<path id="Vector_128" d="M8.52168 9.76602L8.16309 9.75898L8.51816 9.86445L8.58145 9.82578L8.52168 9.76602ZM8.73262 8.02227L8.98926 7.97656L8.73262 7.98359L8.68691 8.0082L8.73262 8.02227Z" fill="#009B3A" stroke="black" stroke-width="0.1"/>
<g id="Vector_129">
<path d="M8.87363 8.075C8.7998 8.05391 8.68379 8.01523 8.60645 7.99766C8.70206 7.95973 8.7959 7.9175 8.8877 7.87109C8.82793 7.90625 8.74707 7.95547 8.70137 7.99063C8.74355 8.01875 8.8209 8.05039 8.87715 8.075" fill="#009B3A"/>
<path d="M8.87363 8.075C8.7998 8.05391 8.68379 8.01523 8.60645 7.99766C8.70206 7.95973 8.7959 7.9175 8.8877 7.87109C8.82793 7.90625 8.74707 7.95547 8.70137 7.99063C8.74355 8.01875 8.8209 8.05039 8.87715 8.075" stroke="black" stroke-width="0.1"/>
</g>
<path id="Vector_130" d="M8.71855 8.0293L8.97168 7.95898L8.71152 7.99414L8.67285 8.02227L8.71855 8.0293Z" fill="#009B3A" stroke="black" stroke-width="0.1"/>
<path id="Vector_131" d="M8.8875 8.09648C8.79961 8.08594 8.6625 8.06836 8.57812 8.06836C8.64141 8.01211 8.73281 7.91367 8.78906 7.85742C8.75391 7.91016 8.69062 7.98398 8.66602 8.03672C8.72578 8.06133 8.8207 8.07539 8.8875 8.09648Z" fill="#009B3A" stroke="black" stroke-width="0.1"/>
<g id="Vector_132">
<path d="M8.62715 8.05039L8.8873 8.01523L8.63418 8.01172L8.58496 8.03281L8.62715 8.04688" fill="#009B3A"/>
<path d="M8.62715 8.05039L8.8873 8.01523L8.63418 8.01172L8.58496 8.03281L8.62715 8.04688" stroke="black" stroke-width="0.1"/>
</g>
<g id="Vector_133">
<path d="M8.82031 8.10391C8.73945 8.08984 8.61992 8.06172 8.53906 8.05469C8.61289 8.01953 8.72539 7.94922 8.7957 7.91406C8.74297 7.94922 8.66914 8.00195 8.63047 8.03711C8.67969 8.06172 8.76055 8.08281 8.82031 8.10742" fill="#009B3A"/>
<path d="M8.82031 8.10391C8.73945 8.08984 8.61992 8.06172 8.53906 8.05469C8.61289 8.01953 8.72539 7.94922 8.7957 7.91406C8.74297 7.94922 8.66914 8.00195 8.63047 8.03711C8.67969 8.06172 8.76055 8.08281 8.82031 8.10742" stroke="black" stroke-width="0.1"/>
</g>
<path id="Vector_134" d="M8.60645 8.04375L8.83496 7.94531L8.58184 8.01562L8.55371 8.04375H8.60645Z" fill="#009B3A" stroke="black" stroke-width="0.1"/>
<g id="Vector_135">
<path d="M8.81367 8.13555C8.74336 8.10742 8.64492 8.06172 8.57812 8.04062C8.63086 7.99492 8.70117 7.91055 8.74688 7.86133C8.71172 7.91055 8.66602 7.97734 8.64844 8.02656C8.69063 8.06172 8.76094 8.10039 8.81367 8.13203" fill="#009B3A"/>
<path d="M8.81367 8.13555C8.74336 8.10742 8.64492 8.06172 8.57812 8.04062C8.63086 7.99492 8.70117 7.91055 8.74688 7.86133C8.71172 7.91055 8.66602 7.97734 8.64844 8.02656C8.69063 8.06172 8.76094 8.10039 8.81367 8.13203" stroke="black" stroke-width="0.1"/>
</g>
<g id="Vector_136">
<path d="M8.61641 8.06172L8.7957 7.98438L8.60234 8.0125L8.57773 8.04766L8.61641 8.06172ZM8.47227 9.73867H8.09961L8.47578 9.83359L8.53906 9.79141L8.46875 9.73867" fill="#009B3A"/>
<path d="M8.47227 9.73867H8.09961L8.47578 9.83359L8.53906 9.79141L8.46875 9.73867M8.61641 8.06172L8.7957 7.98438L8.60234 8.0125L8.57773 8.04766L8.61641 8.06172Z" stroke="black" stroke-width="0.1"/>
</g>
<g id="Vector_137">
<path d="M8.53594 9.75938L8.15625 9.66797L8.51836 9.84375L8.58867 9.82266L8.53242 9.75234" fill="#009B3A"/>
<path d="M8.53594 9.75938L8.15625 9.66797L8.51836 9.84375L8.58867 9.82266L8.53242 9.75234" stroke="black" stroke-width="0.1"/>
</g>
<path id="Vector_138" d="M8.59531 9.78281L8.22266 9.76172L8.59531 9.87773L8.65859 9.84258L8.59531 9.78281Z" fill="#009B3A" stroke="black" stroke-width="0.1"/>
<path id="Vector_139" d="M8.35977 9.51953C8.45469 9.625 8.60234 9.79727 8.7043 9.89219C8.57773 9.90977 8.38789 9.9625 8.27539 9.99063C8.3668 9.94844 8.49688 9.8957 8.5707 9.84297C8.52148 9.74453 8.42305 9.61797 8.35977 9.51953Z" fill="#009B3A" stroke="black" stroke-width="0.1"/>
<path id="Vector_140" d="M8.64805 9.80078L8.27539 9.67773L8.62695 9.88867L8.69727 9.87109L8.64805 9.80078Z" fill="#009B3A" stroke="black" stroke-width="0.1"/>
<path id="Vector_141" d="M8.39551 9.54492C8.50098 9.63984 8.65918 9.79453 8.76816 9.87891C8.64863 9.91406 8.46934 9.98789 8.36035 10.0336C8.44473 9.97734 8.57129 9.91055 8.63457 9.84727C8.57832 9.75234 8.46582 9.63633 8.39551 9.54492Z" fill="#009B3A" stroke="black" stroke-width="0.1"/>
<g id="Vector_142">
<path d="M8.67676 9.82617L8.3252 9.89648L8.69785 9.92109L8.75059 9.86836L8.68027 9.82617" fill="#009B3A"/>
<path d="M8.67676 9.82617L8.3252 9.89648L8.69785 9.92109L8.75059 9.86836L8.68027 9.82617" stroke="black" stroke-width="0.1"/>
</g>
<path id="Vector_143" d="M8.60645 9.80078L8.2373 9.82891L8.61699 9.8957L8.67676 9.85L8.60645 9.80078Z" fill="#009B3A" stroke="black" stroke-width="0.1"/>
<path id="Vector_144" d="M8.67324 9.82148L8.29004 9.76172L8.66621 9.91289L8.73652 9.88477L8.67324 9.82148Z" fill="#009B3A" stroke="black" stroke-width="0.1"/>
<path id="Vector_145" d="M8.73594 9.84375L8.36328 9.85078L8.74297 9.93516L8.80273 9.89648L8.73594 9.84375Z" fill="#009B3A" stroke="black" stroke-width="0.1"/>
<path id="Vector_146" d="M8.47988 9.59766C8.58535 9.69609 8.74355 9.85781 8.85254 9.94219C8.72598 9.97031 8.54316 10.0336 8.43066 10.0723C8.51855 10.023 8.64512 9.9668 8.71543 9.90703C8.65918 9.80859 8.5502 9.68906 8.47988 9.59766Z" fill="#009B3A" stroke="black" stroke-width="0.1"/>
<path id="Vector_147" d="M8.78887 9.85664L8.40918 9.76172L8.77481 9.94453L8.84512 9.92344L8.78887 9.85664Z" fill="#009B3A" stroke="black" stroke-width="0.1"/>
<path id="Vector_148" d="M8.51465 9.61914C8.63066 9.70703 8.79941 9.85117 8.91543 9.925C8.7808 9.98101 8.64828 10.042 8.51816 10.1078C8.59902 10.048 8.71855 9.9707 8.77832 9.90391C8.71504 9.8125 8.59551 9.70703 8.51465 9.61914Z" fill="#009B3A" stroke="black" stroke-width="0.1"/>
<path id="Vector_149" d="M8.82422 9.87891L8.47266 9.97383H8.84883L8.89453 9.91758L8.82422 9.87891Z" fill="#009B3A" stroke="black" stroke-width="0.1"/>
</g>
<path id="Vector_150" d="M9.30195 9.35547L9.01719 9.15859L8.73594 9.35547L8.84141 9.03906L8.5918 8.8457H8.9082L9.01719 8.5293L9.12266 8.8457H9.44258L9.19648 9.04258L9.30195 9.35898V9.35547Z" fill="#FEDF00" stroke="black" stroke-width="0.5"/>
</g>
<defs>
<clipPath id="clip0_186_12212">
<rect width="18" height="18" fill="white"/>
</clipPath>
</defs>
</svg>
