<svg width="18" height="18" viewBox="0 0 18 18" fill="none" xmlns="http://www.w3.org/2000/svg">
<g id="rw" clip-path="url(#clip0_186_12880)">
<path id="Vector" d="M0 0H18V18H0V0Z" fill="#20603D"/>
<path id="Vector_2" d="M0 0H18V13.5H0V0Z" fill="#FAD201"/>
<path id="Vector_3" d="M0 0H18V9H0V0Z" fill="#00A1DE"/>
<g id="Group">
<g id="rw-b">
<path id="rw-a" d="M16.0651 4.70273L14.0552 4.82023L15.9652 5.45522L13.9952 5.04773L15.6777 6.15271L13.8777 5.24773L15.2127 6.7552L13.7102 5.41772L14.6152 7.21769L13.5077 5.53522L13.9127 7.50269L13.2802 5.59522L13.1627 7.60519L13.1377 4.67773L16.0651 4.70273Z" fill="#E5BE01"/>
<path id="rw-a_2" d="M16.0651 4.70352L14.0552 4.58602L15.9652 3.95103L13.9952 4.35852L15.6777 3.25354L13.8777 4.15852L15.2127 2.65105L13.7102 3.98853L14.6152 2.18856L13.5077 3.87103L13.9127 1.90356L13.2802 3.81103L13.1627 1.80106L13.1377 4.72852L16.0651 4.70352Z" fill="#E5BE01"/>
</g>
<g id="rw-b_2">
<path id="rw-a_3" d="M10.26 4.70273L12.27 4.82023L10.36 5.45522L12.33 5.04773L10.6475 6.15271L12.4475 5.24773L11.1125 6.7552L12.615 5.41772L11.71 7.21769L12.8175 5.53522L12.4125 7.50269L13.045 5.59522L13.1625 7.60519L13.1875 4.67773L10.26 4.70273Z" fill="#E5BE01"/>
<path id="rw-a_4" d="M10.26 4.70352L12.27 4.58602L10.36 3.95103L12.33 4.35852L10.6475 3.25354L12.4475 4.15852L11.1125 2.65105L12.615 3.98853L11.71 2.18856L12.8175 3.87103L12.4125 1.90356L13.045 3.81103L13.1625 1.80106L13.1875 4.72852L10.26 4.70352Z" fill="#E5BE01"/>
</g>
<path id="Vector_4" d="M13.1622 5.56068C13.6358 5.56068 14.0197 5.17677 14.0197 4.70319C14.0197 4.22961 13.6358 3.8457 13.1622 3.8457C12.6886 3.8457 12.3047 4.22961 12.3047 4.70319C12.3047 5.17677 12.6886 5.56068 13.1622 5.56068Z" fill="#E5BE01" stroke="#00A1DE" stroke-width="2.41774"/>
</g>
</g>
<defs>
<clipPath id="clip0_186_12880">
<rect width="18" height="18" fill="white"/>
</clipPath>
</defs>
</svg>
