<svg width="18" height="18" viewBox="0 0 18 18" fill="none" xmlns="http://www.w3.org/2000/svg">
<g id="sa" clip-path="url(#clip0_186_12859)">
<g id="Clip path group">
<mask id="mask0_186_12859" style="mask-type:luminance" maskUnits="userSpaceOnUse" x="-1" y="0" width="19" height="18">
<g id="sa-a">
<path id="Vector" d="M-0.000976562 0H17.9963V17.9972H-0.000976562V0Z" fill="white"/>
</g>
</mask>
<g mask="url(#mask0_186_12859)">
<g id="Group">
<path id="Vector_2" fill-rule="evenodd" clip-rule="evenodd" d="M-4.5 0H22.4959V17.9972H-4.5V0Z" fill="#165D31"/>
<path id="Vector_3" fill-rule="evenodd" clip-rule="evenodd" d="M2.30316 5.10082C2.27413 5.52173 2.23422 6.26194 2.59344 6.33813C3.02523 6.37805 2.78575 5.60518 2.94177 5.4673C2.97443 5.39473 3.02886 5.39473 3.03249 5.48544V6.13857C3.02886 6.35628 3.16674 6.41433 3.27559 6.4615C3.39171 6.45062 3.46427 6.45425 3.51144 6.5631L3.56224 7.69881C3.56224 7.69881 3.82712 7.77138 3.83801 7.0602C3.85252 6.64293 3.75455 6.29096 3.81261 6.21114C3.81261 6.13131 3.91421 6.12768 3.98677 6.16397C4.09926 6.24379 4.15006 6.34539 4.32422 6.30185C4.59273 6.22928 4.75238 6.09866 4.75964 5.89546C4.75041 5.69534 4.70875 5.49804 4.63627 5.31128C4.64716 5.27499 4.58185 5.18428 4.59636 5.14799C4.64353 5.22056 4.7161 5.21694 4.73424 5.14799C4.68707 4.9956 4.61813 4.85409 4.50202 4.7924C4.40768 4.70895 4.2698 4.72709 4.219 4.90126C4.21305 5.12998 4.29042 5.35306 4.43671 5.52898C4.48233 5.62758 4.50111 5.73648 4.49113 5.84466C4.41494 5.89183 4.33874 5.87006 4.27342 5.80475C4.27342 5.80475 4.05934 5.64147 4.05934 5.60881C4.1174 5.24596 4.07386 5.20605 4.0412 5.10445C4.01943 4.96657 3.95412 4.92303 3.89969 4.82869C3.84526 4.77063 3.77632 4.77063 3.74004 4.82869C3.6457 4.99197 3.68924 5.3403 3.75818 5.49633C3.80898 5.64147 3.88155 5.73218 3.84526 5.73218C3.81624 5.81201 3.75818 5.79386 3.71464 5.69952C3.66079 5.49967 3.63514 5.29327 3.63844 5.08631C3.6203 4.92303 3.60216 4.57832 3.4933 4.49124C3.42799 4.40416 3.33002 4.4477 3.29736 4.52753C3.28819 4.68479 3.29183 4.84255 3.30825 4.99923C3.38082 5.25322 3.40259 5.48544 3.43888 5.75032C3.44976 6.10591 3.23205 5.90635 3.24294 5.72855C3.29374 5.49996 3.27922 5.13711 3.23568 5.0464C3.1994 4.95569 3.15948 4.93391 3.07603 4.94843C3.00346 4.94117 2.83292 5.12985 2.78575 5.44916C2.78575 5.44916 2.74221 5.61244 2.72407 5.75395C2.69867 5.91723 2.59344 6.03334 2.51724 5.73218C2.45193 5.51447 2.41202 4.97383 2.30316 5.10082Z" fill="white"/>
<path id="Vector_4" fill-rule="evenodd" clip-rule="evenodd" d="M3.47932 6.82958L2.35449 7.37023C2.36538 7.11623 2.88788 6.65179 3.24347 6.64453C3.47569 6.65179 3.41764 6.73524 3.47932 6.82596V6.82958Z" fill="white"/>
<path id="Vector_5" fill-rule="evenodd" clip-rule="evenodd" d="M3.28324 7.1798C2.68817 8.70739 4.66931 8.92147 4.89065 7.24149C4.91242 7.17255 4.9995 7.10361 5.01039 7.21609C4.96322 8.74005 3.47917 8.84165 3.22518 8.36269C3.1635 8.25383 3.14535 7.99984 3.1381 7.84744C3.10181 7.54991 2.94216 7.66602 2.92039 7.96356C2.89499 8.12684 2.89862 8.17401 2.89862 8.33366C2.97844 9.53106 4.89428 9.01581 5.20633 8.02524C5.36961 7.47734 5.1773 7.07095 5.26801 7.07095C5.45669 7.27777 5.7252 7.09998 5.78326 7.02741C5.80865 6.99112 5.87034 6.96935 5.91388 7.01652C6.05902 7.12538 6.3239 7.07095 6.37833 6.8859C6.40735 6.70085 6.43275 6.51216 6.44001 6.31623C6.32027 6.35251 6.22956 6.37791 6.2223 6.42508L6.1969 6.59199C6.18602 6.64279 6.08079 6.64642 6.07716 6.57748C6.02999 6.37065 5.84131 6.34163 5.7252 6.66456C5.649 6.72987 5.50749 6.73713 5.49298 6.64642C5.51112 6.42871 5.42404 6.39968 5.24987 6.50128L5.07933 5.23131C5.1519 5.23131 5.22084 5.28211 5.28615 5.19866C5.21359 4.97006 5.05756 4.50925 4.97411 4.47296C4.93056 4.42216 4.89791 4.45482 4.84348 4.4657C4.74914 4.49473 4.66206 4.57456 4.69108 4.73058L4.98136 6.55208C4.99588 6.62828 4.93056 6.7335 4.84711 6.72262C4.7056 6.62465 4.66931 6.43234 4.42983 6.4396C4.25204 6.4396 4.05247 6.6319 4.0307 6.81696C3.99805 6.9621 3.98716 7.12175 4.0307 7.24875C4.15044 7.39388 4.29921 7.383 4.42983 7.34671C4.53506 7.30317 4.62214 7.19795 4.66206 7.22335C4.68746 7.256 4.66569 7.60434 4.1577 7.87647C3.85291 8.01435 3.60617 8.04338 3.47554 7.79302C3.39572 7.63699 3.4828 7.04192 3.28324 7.17618V7.1798Z" fill="white"/>
<path id="Vector_6" fill-rule="evenodd" clip-rule="evenodd" d="M5.79802 5.62415C5.91776 5.58423 6.48018 4.93474 6.48018 4.93474L6.39672 4.86942C6.36407 4.84039 6.3677 4.815 6.39672 4.78597C6.53461 4.70614 6.49106 4.52472 6.41849 4.44489C6.37117 4.42126 6.319 4.40895 6.2661 4.40895C6.2132 4.40895 6.16103 4.42126 6.1137 4.44489C6.01573 4.54286 5.99396 4.69163 6.07016 4.78597C6.14273 4.82225 6.22256 4.89482 6.17176 4.93836C5.93954 5.1851 5.30818 5.60963 5.38075 5.62777C5.39526 5.64592 5.78714 5.64592 5.79802 5.62777V5.62415ZM2.39089 7.91009C2.18043 8.24753 2.16229 8.75189 2.28203 8.90066C2.34009 8.97323 2.44168 9.00226 2.51788 8.98049C2.65214 8.92243 2.71019 8.65392 2.67754 8.55595C2.63399 8.48339 2.59771 8.47613 2.55417 8.53418C2.45983 8.72286 2.41991 8.59224 2.41266 8.48701C2.39814 8.28745 2.41628 8.09877 2.43806 7.95363C2.46346 7.80486 2.43806 7.8484 2.39089 7.91009ZM11.4294 7.36581C11.2262 6.92677 10.9432 6.49135 10.8525 6.32444C10.5789 5.89112 10.2884 5.46869 9.98166 5.0581C9.76395 4.79685 10.3409 5.16696 9.90909 4.64809C9.74581 4.50295 9.73492 4.49932 9.59704 4.38321C9.5281 4.33241 9.36119 4.24532 9.33216 4.39046C9.31774 4.49449 9.32266 4.60028 9.34668 4.70251C9.36119 4.77508 9.46641 4.89482 9.52084 4.96739C10.2103 5.89265 10.8235 6.83243 11.4113 8.00805C11.5056 7.96451 11.4838 7.44201 11.4294 7.36581Z" fill="white"/>
<path id="Vector_7" fill-rule="evenodd" clip-rule="evenodd" d="M10.5323 8.8424C10.4924 8.88957 10.6303 9.08188 10.8117 9.08188C11.1165 9.04559 11.3814 8.87505 11.6281 8.42875C11.6934 8.31989 11.8095 8.10219 11.8132 7.92439C11.8386 6.90842 11.7624 6.11741 11.61 5.38446C11.6027 5.31189 11.61 5.2248 11.6209 5.20303C11.639 5.18126 11.7043 5.20303 11.7406 5.14861C11.7914 5.09418 11.6027 4.65513 11.4975 4.48822C11.4576 4.41203 11.4431 4.36123 11.3814 4.49548C11.3124 4.60434 11.2725 4.79664 11.2725 4.97444C11.4177 5.9759 11.4648 6.85399 11.5592 7.85182C11.5664 7.94979 11.5519 8.0913 11.4866 8.14573C11.2212 8.44266 10.896 8.68009 10.5323 8.8424ZM14.6252 8.83877C14.4075 8.96214 14.4075 9.10727 14.5853 9.11453C14.8865 9.07825 15.2457 9.05285 15.4924 8.67911C15.5578 8.57389 15.6376 8.29087 15.6412 8.12033C15.663 7.10436 15.6267 6.34238 15.4743 5.60942C15.467 5.53685 15.4344 5.37357 15.4453 5.3518C15.467 5.301 15.565 5.35543 15.6013 5.29737C15.6521 5.24658 15.3473 4.85107 15.2384 4.68053C15.1985 4.60796 15.184 4.55717 15.1223 4.69142C15.0534 4.80027 15.0316 4.99621 15.057 5.16675C15.2203 6.25529 15.34 7.0717 15.3618 8.03324C15.3509 8.12759 15.3473 8.17838 15.3038 8.29087C15.2094 8.41424 15.1042 8.56663 15.0026 8.6392C14.9046 8.71177 14.6942 8.78434 14.6252 8.83877Z" fill="white"/>
<path id="Vector_8" fill-rule="evenodd" clip-rule="evenodd" d="M14.7885 7.86303V7.19902C14.7857 7.03356 14.7486 6.87047 14.6797 6.72006C14.6143 6.57492 14.6543 6.46244 14.6252 6.30641C14.5962 6.15402 14.6035 5.92179 14.5599 5.74037C14.5454 5.6678 14.5091 5.44283 14.5236 5.42106C14.5381 5.37027 14.6071 5.42106 14.6397 5.36301C14.6905 5.30858 14.4656 4.72803 14.3531 4.56474C14.3132 4.49217 14.2406 4.51394 14.1463 4.63731C14.0628 4.71351 14.0955 4.89494 14.1281 5.06547C14.3458 6.20119 14.5055 7.23167 14.4728 8.30933C14.4619 8.40367 14.7921 8.0372 14.7885 7.86303ZM13.1811 6.45518C13.0468 6.45518 12.7602 6.18667 12.6731 6.03428C12.6605 5.99754 12.6557 5.95861 12.6588 5.91991C12.6619 5.88121 12.673 5.84356 12.6912 5.80931C12.742 5.77303 12.8219 5.73674 12.8799 5.77303C12.8799 5.77303 12.938 5.86011 12.9271 5.871C12.9997 5.90728 13.036 5.88551 13.0432 5.85285C13.0468 5.80205 13.0178 5.7694 13.0178 5.70771C13.0541 5.55169 13.2355 5.52629 13.3008 5.62789C13.3516 5.68957 13.3698 5.8202 13.377 5.91091C13.377 5.95445 13.3045 5.90002 13.2609 5.91091C13.221 5.92542 13.2101 5.97259 13.2065 6.01613C13.1992 6.13225 13.1847 6.3173 13.1811 6.45155V6.45518ZM10.6557 8.14605C10.692 7.79772 10.6448 7.1845 10.6412 6.98131C10.6266 6.49872 10.5468 5.5662 10.5105 5.41381C10.467 5.1199 10.6303 5.44646 10.6085 5.27592C10.5541 4.98565 10.3908 4.78245 10.2021 4.51394C10.1404 4.43049 10.1441 4.41235 10.0461 4.53572C9.94449 4.7752 10.0352 4.93848 10.0606 5.12353C10.1985 5.72948 10.2783 6.28464 10.3146 6.83617C10.3553 7.40982 10.3601 7.98544 10.3291 8.5597C10.4343 8.56695 10.6012 8.39279 10.6557 8.14605Z" fill="white"/>
<path id="Vector_9" fill-rule="evenodd" clip-rule="evenodd" d="M15.2573 7.5905C15.0142 7.18774 14.6514 6.7487 14.5534 6.58541C14.2285 6.12932 13.8872 5.68515 13.5302 5.25376C13.229 4.93809 13.6681 5.20297 13.4721 4.95986C13.3052 4.77843 13.2544 4.72038 13.1165 4.61152C13.044 4.56435 13.0004 4.47727 12.9787 4.62604C12.9678 4.75666 12.9605 4.90906 12.9678 5.02154C12.9678 5.08323 13.0331 5.19571 13.0875 5.26465C13.8132 6.16088 14.6115 7.07889 15.2537 8.22911C15.3444 8.17832 15.3154 7.66307 15.2537 7.5905H15.2573Z" fill="white"/>
<path id="Vector_10" fill-rule="evenodd" clip-rule="evenodd" d="M4.31033 6.84387C4.29219 6.87652 4.25227 6.91644 4.26679 6.95272C4.29581 6.98901 4.31758 6.99989 4.36113 7.00352C4.39741 7.00352 4.45547 7.01078 4.46635 6.98901C4.47943 6.97302 4.48801 6.95383 4.4912 6.93342C4.49439 6.91301 4.49207 6.89211 4.4845 6.8729C4.44821 6.7713 4.3321 6.80758 4.31033 6.84387Z" fill="#165D31"/>
<path id="Vector_11" fill-rule="evenodd" clip-rule="evenodd" d="M12.4522 12.7472C12.7752 12.7581 12.9856 12.7617 13.2723 12.7944L13.6061 12.7581C13.9798 12.7218 13.998 13.2915 13.998 13.2915C13.9943 13.6253 13.8637 13.6398 13.7004 13.6761C13.6061 13.6906 13.5553 13.6216 13.5081 13.5491C13.4464 13.5745 13.363 13.5781 13.2578 13.5636C13.1235 13.5563 12.9893 13.5563 12.8586 13.5454C12.7135 13.5346 12.6373 13.5636 12.4958 13.5491C12.4631 13.5962 12.4232 13.6579 12.3398 13.6398C12.2672 13.6325 12.1801 13.4257 12.2055 13.2733C12.2563 13.1608 12.2418 13.1971 12.2382 13.1463C10.9174 13.1137 9.58937 13.0556 8.294 13.0737C7.27803 13.0737 6.2802 13.1173 5.28237 13.1608C4.74898 13.1536 4.33896 13.0665 4.05957 12.6528C4.08497 12.6528 5.42025 12.7327 5.8085 12.7073C6.53419 12.6964 7.19095 12.6383 7.92753 12.6166C9.37892 12.642 10.8122 12.642 12.2636 12.7436C12.1257 12.6492 12.1184 12.4242 12.3361 12.3698C12.3506 12.3589 12.3615 12.4787 12.3942 12.4787C12.5611 12.4678 12.4885 12.6964 12.4522 12.7472ZM6.63216 4.75365C6.41445 5.38138 6.75553 6.06716 6.99501 6.00185C7.16917 6.07441 7.27803 5.74422 7.3506 5.385C7.39777 5.28341 7.43405 5.27252 7.45945 5.32332C7.4522 5.80228 7.49574 5.90751 7.61911 6.05264C7.6901 6.11601 7.78139 6.15194 7.87653 6.15393C7.97167 6.15593 8.06439 6.12387 8.13798 6.06353L8.35206 5.84582C8.39923 5.79865 8.46091 5.79502 8.52985 5.83856C8.59517 5.90025 8.58428 6.00185 8.72579 6.07441C8.8419 6.12158 9.0959 6.0853 9.15395 5.9837C9.23015 5.84945 9.25192 5.80228 9.2882 5.75148C9.34263 5.67891 9.43697 5.70794 9.43697 5.73334C9.42972 5.77325 9.37529 5.81679 9.41157 5.88936C9.47689 5.94016 9.49503 5.9075 9.53494 5.89662C9.67282 5.83131 9.77805 5.52652 9.77805 5.52652C9.78168 5.41766 9.71999 5.42492 9.68008 5.44669L9.57123 5.52289C9.49866 5.53377 9.36803 5.57731 9.30272 5.47572C9.23741 5.35598 9.23378 5.18544 9.18298 5.06207C9.18298 5.05481 9.0959 4.86976 9.17935 4.85888C9.21926 4.86613 9.30998 4.8879 9.32449 4.81533C9.36803 4.74276 9.23015 4.53594 9.13581 4.43072C9.05598 4.34363 8.93987 4.33275 8.83102 4.42346C8.75845 4.49603 8.7657 4.5686 8.75119 4.6448C8.73864 4.69774 8.73867 4.75288 8.75127 4.80581C8.76387 4.85874 8.7887 4.90798 8.82376 4.94959C8.89996 5.09835 9.04147 5.29066 8.9943 5.56643C8.9943 5.56643 8.91084 5.69342 8.76933 5.67528C8.71128 5.66077 8.61694 5.639 8.56614 5.26164C8.52985 4.97499 8.5734 4.57585 8.45366 4.3908C8.41011 4.27469 8.38109 4.16584 8.27223 4.36177C8.2432 4.43434 8.11984 4.55045 8.20692 4.78993C8.28993 5.00083 8.31498 5.2301 8.27949 5.45395C8.22869 5.53014 8.2178 5.55917 8.14886 5.63537C8.05815 5.73334 7.95655 5.70794 7.88036 5.67165C7.80779 5.62448 7.74973 5.59908 7.71708 5.44306C7.72433 5.19632 7.73522 4.79356 7.69168 4.70648C7.62636 4.57585 7.51751 4.62302 7.47034 4.66294C7.25979 4.89643 7.11899 5.18431 7.06395 5.49386C7.00227 5.69342 6.93695 5.639 6.88978 5.55554C6.7773 5.44669 6.77004 4.61577 6.63216 4.75365Z" fill="white"/>
<path id="Vector_12" fill-rule="evenodd" clip-rule="evenodd" d="M7.2922 6.12125C7.3938 6.04868 7.34663 6.00151 7.4954 6.15027C7.68689 6.48696 7.79861 6.86308 7.82196 7.2497C7.81107 7.34041 7.87639 7.39484 7.90541 7.3767C7.91993 7.16625 8.4388 6.86871 8.9105 6.82517C8.98307 6.81066 8.94679 6.67277 8.95767 6.6002C8.92864 6.33895 9.10281 6.09948 9.35318 6.08133C9.687 6.13213 9.79948 6.30993 9.80674 6.58206C9.77045 7.10819 9.22255 7.1989 8.91413 7.23519C8.86696 7.25696 8.84882 7.27873 8.91413 7.30413L10.2022 7.30776L10.2676 7.34404C10.2748 7.38033 10.2494 7.3513 10.195 7.43475C10.1406 7.51821 10.0716 7.71415 10.068 7.84114C9.68181 7.95386 9.2857 8.0292 8.8851 8.06611C8.74722 8.13868 8.67828 8.23302 8.70368 8.33825C8.75085 8.45799 9.0629 8.5741 9.0629 8.58135C9.12095 8.61764 9.18989 8.70472 9.04476 8.87889C8.41703 8.85349 7.93081 8.58498 7.7639 8.20762C7.71311 8.17134 7.65505 8.20762 7.62239 8.25842C7.40393 8.59423 7.08897 8.85607 6.7189 9.00951C6.46854 9.0712 6.21454 8.97323 6.09481 8.80995C6.01498 8.71561 6.01861 8.61401 5.98595 8.59224C5.8517 8.65029 4.69421 9.14377 4.84298 8.91517C5.12237 8.61038 5.61222 8.38904 6.04038 8.09151C6.07666 7.99354 6.13109 7.65609 6.30163 7.54724C6.30889 7.54724 6.2726 7.74317 6.27623 7.82663C6.27623 7.89557 6.2726 7.92097 6.28711 7.90283C6.31614 7.88469 6.83864 7.47467 6.87856 7.34767C6.92935 7.2751 6.89307 7.09368 6.89307 7.08642C6.79873 6.83243 6.66085 6.81429 6.61005 6.68729C6.56288 6.52038 6.58465 6.3317 6.67899 6.27727C6.76244 6.20107 6.86041 6.20833 6.95475 6.29178C7.06361 6.38612 7.15432 6.57118 7.18335 6.70906C7.16521 6.76349 7.04547 6.67277 7.00192 6.7018C7.07449 6.77437 7.11078 6.86508 7.13618 6.97394C7.20875 7.26422 7.18335 7.37307 7.11804 7.56175C6.88581 8.04797 6.58828 8.19673 6.32703 8.37453C6.31977 8.37816 6.31614 8.50153 6.41411 8.56684C6.4504 8.60312 6.58465 8.61764 6.74067 8.56684C7.08006 8.37946 7.35461 8.09352 7.52805 7.7468C7.57522 7.48555 7.50991 7.20979 7.44097 6.97031C7.36188 6.7793 7.28927 6.58567 7.22326 6.38975C7.216 6.24461 7.22689 6.19382 7.29583 6.12125H7.2922ZM3.92498 4.7642C4.07012 4.83314 4.34951 4.80048 4.33862 4.56463L4.33137 4.45215C4.30234 4.37958 4.21888 4.39772 4.20074 4.47392C4.19348 4.49569 4.21163 4.5356 4.18986 4.54649C4.17534 4.55737 4.12817 4.55012 4.1318 4.4848C4.1318 4.46303 4.11729 4.44126 4.1064 4.42675C4.09551 4.42312 4.09189 4.41949 4.07374 4.41949C4.05197 4.41949 4.0556 4.42675 4.04109 4.44489L4.0302 4.49932C4.0302 4.52472 4.01932 4.53197 4.00117 4.5356C3.98303 4.5356 3.98666 4.5356 3.97215 4.52834C3.96126 4.51746 3.95038 4.51383 3.95038 4.49569L3.94312 4.43763C3.93345 4.42693 3.92082 4.41935 3.90683 4.41586C3.82338 4.41586 3.81975 4.5102 3.82338 4.54649C3.81612 4.55012 3.81249 4.71703 3.92498 4.7642Z" fill="white"/>
<path id="Vector_13" fill-rule="evenodd" clip-rule="evenodd" d="M8.26501 6.60107C8.41015 6.67364 8.76574 6.63009 8.67866 6.4015L8.6714 6.29265C8.64237 6.22008 8.56254 6.23822 8.54077 6.31079C8.53715 6.33256 8.55166 6.37247 8.52989 6.38336C8.519 6.39787 8.47183 6.39061 8.47183 6.3253C8.47183 6.30353 8.45732 6.28176 8.44643 6.26725C8.43918 6.25999 8.43192 6.25999 8.41378 6.25999C8.39564 6.25999 8.39564 6.26362 8.38475 6.28176L8.37386 6.33619C8.37024 6.36159 8.35935 6.37247 8.34484 6.37247C8.32307 6.37247 8.33032 6.37247 8.31218 6.36522C8.30492 6.35433 8.29041 6.3507 8.29041 6.33256C8.29041 6.31442 8.29041 6.28539 8.28315 6.2745C8.2759 6.26362 8.26138 6.25999 8.24687 6.25636C8.16704 6.25636 8.15978 6.34707 8.16341 6.38336C8.15978 6.39061 8.15616 6.5539 8.26501 6.60107ZM10.7977 5.83909C10.9428 5.91166 11.2222 5.879 11.2113 5.64315L11.2041 5.53067C11.175 5.4581 11.0916 5.47624 11.0735 5.54881C11.0662 5.57421 11.0843 5.61049 11.0626 5.62138C11.0481 5.63589 11.0009 5.62863 11.0045 5.56332C11.0045 5.54155 10.9864 5.51978 10.9791 5.50527C10.9682 5.50164 10.9646 5.49801 10.9428 5.49801C10.9247 5.49801 10.9247 5.50527 10.9138 5.52341L10.9029 5.57784C10.9029 5.59961 10.892 5.61049 10.8739 5.61412C10.8557 5.61412 10.8594 5.61412 10.8449 5.60324C10.834 5.59598 10.8231 5.58872 10.8231 5.57421C10.8231 5.55607 10.8195 5.52704 10.8122 5.51252C10.8049 5.50164 10.7941 5.49801 10.7759 5.49438C10.6961 5.49438 10.6925 5.58872 10.6961 5.62138C10.6888 5.62863 10.6852 5.79554 10.7977 5.83909ZM12.1039 7.75129C11.8499 8.04157 11.9624 8.52053 12.0205 8.62213C12.1076 8.7963 12.1729 8.90515 12.3398 8.9886C12.4922 9.09746 12.6083 9.02852 12.6736 8.95232C12.826 8.79629 12.826 8.39353 12.8986 8.31371C12.9494 8.16857 13.0727 8.19397 13.1344 8.25928C13.1904 8.33814 13.2653 8.40175 13.3521 8.44433C13.4936 8.5677 13.6606 8.58947 13.8275 8.48062C13.9399 8.4153 14.0161 8.33185 14.0815 8.16857C14.154 7.969 14.1177 7.05463 14.0996 6.51398C14.096 6.47044 13.9545 5.76652 13.9545 5.75926C13.9545 5.752 13.9327 5.40004 13.9182 5.31659C13.9182 5.28393 13.9073 5.27304 13.9436 5.2803C13.9799 5.30933 13.9871 5.31296 14.0089 5.32384C14.0452 5.3311 14.0815 5.26579 14.0597 5.2041L13.7041 4.55098C13.6787 4.52558 13.6424 4.49655 13.5952 4.56186C13.5678 4.5858 13.5458 4.61536 13.5308 4.64854C13.5157 4.68172 13.508 4.71775 13.5082 4.75417C13.519 4.9102 13.5444 5.06622 13.5553 5.22225L13.7005 6.01325C13.744 6.5793 13.7549 7.04011 13.7984 7.60978C13.7912 7.84563 13.7186 8.05609 13.646 8.08148C13.646 8.08148 13.5408 8.1468 13.4719 8.08148C13.4174 8.05609 13.2106 7.73315 13.2106 7.73315C13.1018 7.63518 13.0365 7.66058 12.9566 7.73315C12.7534 7.93272 12.6591 8.31008 12.5176 8.5677C12.4813 8.62576 12.3761 8.67656 12.2636 8.56407C11.9733 8.16494 12.1439 7.60615 12.1076 7.75129H12.1039ZM10.863 4.45301C10.9973 4.50744 11.088 4.77957 11.0589 4.9102C11.0335 5.06985 10.961 5.24764 10.9138 5.22225C10.8557 5.2041 10.9501 5.06259 10.8957 4.91382C10.8666 4.81948 10.6852 4.64169 10.7033 4.59089C10.6671 4.48204 10.7832 4.43487 10.863 4.45301Z" fill="white"/>
<path id="Vector_14" fill-rule="evenodd" clip-rule="evenodd" d="M12.5356 7.91072C12.561 7.58416 12.5139 7.38822 12.5066 7.19954C12.4993 7.01086 12.2889 5.56673 12.2526 5.42159C12.1982 5.14945 12.4522 5.3853 12.4231 5.22565C12.3361 5.02608 12.122 4.73581 12.053 4.56527C12.0131 4.4927 12.0276 4.42376 11.9369 4.5435C11.8586 4.75929 11.8313 4.99028 11.8571 5.21839C12.0748 6.35411 12.2962 7.29751 12.2599 8.3788C12.3651 8.3788 12.4848 8.14294 12.5356 7.90709V7.91072ZM14.7998 4.90997C14.9232 4.97166 14.9921 5.3091 14.9812 5.40345C14.9558 5.58124 14.8905 5.76629 14.8433 5.74452C14.7962 5.72275 14.8542 5.48327 14.8288 5.4107C14.8034 5.30548 14.6402 5.1168 14.6547 5.05874C14.622 4.94263 14.7272 4.89183 14.7998 4.9136V4.90997ZM5.81207 7.29751C5.92818 7.34468 5.99349 7.58779 5.9826 7.66036C5.96083 7.79098 5.89915 7.92887 5.85561 7.91435C5.80844 7.89621 5.86286 7.72204 5.84109 7.66761C5.83021 7.53336 5.67055 7.46442 5.67418 7.40999C5.64516 7.30114 5.74312 7.283 5.81207 7.30114V7.29751Z" fill="white"/>
<path id="Vector_15" fill-rule="evenodd" clip-rule="evenodd" d="M8.60949 7.67106C8.75463 7.67832 8.83083 7.79806 8.69295 7.84523C8.55507 7.8924 8.42081 7.92868 8.42081 8.12825C8.47161 8.40764 8.34824 8.30967 8.27567 8.27339C8.19222 8.2117 7.95274 8.06656 7.92008 7.74726C7.91645 7.67469 7.97451 7.60938 8.06885 7.60938C8.21399 7.64566 8.42444 7.65292 8.60587 7.67106H8.60949Z" fill="#165D31"/>
<path id="Vector_16" fill-rule="evenodd" clip-rule="evenodd" d="M2.72096 4.37168C2.8915 4.42248 2.90239 4.67284 2.88787 4.74904C2.8661 4.8833 2.80442 5.02481 2.76088 5.00666C2.71371 4.99215 2.76088 4.81073 2.7391 4.75267C2.71371 4.67284 2.56857 4.52771 2.58671 4.48416C2.55042 4.39708 2.65202 4.35717 2.72096 4.37531V4.37168ZM6.09182 5.55456C5.96119 5.62713 5.91039 5.83759 5.99022 5.96095C6.06642 6.06981 6.18616 6.02989 6.2043 6.02989C6.3313 6.04441 6.40749 5.78679 6.40749 5.78679C6.40749 5.78679 6.41112 5.71422 6.26236 5.8521C6.19704 5.86299 6.18979 5.84121 6.17164 5.80493C6.15617 5.73666 6.16383 5.66518 6.19341 5.60173C6.21519 5.54005 6.16439 5.51102 6.09182 5.55456ZM7.07151 4.27371C7.00982 4.32088 6.87557 4.45514 6.87194 4.61116C6.87194 4.69824 6.8538 4.69824 6.90822 4.7563C6.95177 4.81436 6.99531 4.81073 7.07876 4.76719C7.09953 4.75373 7.11733 4.73616 7.13106 4.71557C7.14478 4.69498 7.15415 4.67179 7.15859 4.64745C7.18036 4.54585 7.05336 4.69462 7.03885 4.58213C7.00982 4.48054 7.08965 4.43699 7.16585 4.3354C7.16585 4.26646 7.16585 4.21929 7.07513 4.27371H7.07151ZM7.86614 4.41885C7.8345 4.54613 7.81506 4.67613 7.80809 4.8071C7.78632 4.90507 7.90968 4.94498 7.96774 4.81798C8.05119 4.58939 8.05119 4.49142 8.05845 4.39345C8.03305 4.24831 7.93145 4.24831 7.86614 4.41522V4.41885ZM12.8553 6.95516C12.8698 6.93701 13.5592 6.44717 13.5592 6.44717C13.6282 6.4254 13.6136 6.70116 13.581 6.70116C13.3681 6.90755 13.123 7.0779 12.8553 7.20552C12.819 7.22729 12.7864 7.01684 12.8553 6.95153V6.95516ZM13.4794 6.95153C13.5991 7.00958 13.6499 7.36517 13.6354 7.45951C13.639 7.6482 13.5193 7.79696 13.4721 7.77156C13.4213 7.74979 13.4758 7.53934 13.454 7.46677C13.4286 7.36155 13.3234 7.16561 13.3415 7.11118C13.3052 6.99144 13.4068 6.92976 13.4794 6.95153ZM9.40099 8.47549C9.44816 8.40292 9.5933 8.30495 9.59692 8.30495C9.66587 8.26866 9.73118 8.33035 9.72755 8.32672C9.73844 8.39566 9.68401 8.45735 9.70215 8.54806C9.71666 8.58434 9.72755 8.62426 9.79649 8.60974C9.90534 8.52629 10.0069 8.51903 10.1158 8.51177C10.1993 8.51903 10.1993 8.65691 10.1485 8.66054C9.94526 8.70408 9.85818 8.75851 9.71304 8.81294C9.6441 8.85285 9.58604 8.80205 9.58604 8.79842C9.58604 8.79479 9.54975 8.75851 9.57515 8.6678C9.57878 8.59523 9.54975 8.55894 9.4917 8.5662C9.44453 8.58797 9.40462 8.60248 9.38284 8.55169C9.37196 8.5154 9.37196 8.49726 9.40099 8.47549ZM14.2015 8.66417C14.2305 8.70045 14.2523 8.73674 14.2015 8.79842L14.0708 8.90728C14.0454 8.95082 14.0346 9.00887 14.1035 9.02702C14.2305 9.0633 14.528 8.87099 14.528 8.86736C14.5752 8.83108 14.5607 8.76214 14.5534 8.76214C14.528 8.72948 14.4627 8.74762 14.4228 8.744C14.401 8.744 14.3357 8.73311 14.3647 8.67505C14.3938 8.63877 14.401 8.617 14.4192 8.56983C14.4409 8.52629 14.4228 8.49726 14.3502 8.47186C14.2777 8.46097 14.2486 8.46823 14.1688 8.47186C14.1216 8.48274 14.1071 8.50089 14.0962 8.55531C14.1035 8.63514 14.1507 8.63151 14.2051 8.66417H14.2015Z" fill="white"/>
<path id="Vector_17" fill-rule="evenodd" clip-rule="evenodd" d="M9.42648 6.66894C9.40834 6.70523 9.34303 6.7016 9.28134 6.66894C9.21966 6.63629 9.19063 6.57823 9.20877 6.54557C9.22692 6.51292 9.29223 6.51292 9.35391 6.54557C9.4156 6.57823 9.44462 6.63629 9.42648 6.66894ZM6.29511 4.78939C6.25882 4.80028 6.21165 4.76762 6.18988 4.71682C6.16811 4.66602 6.179 4.62611 6.21528 4.61523C6.25156 4.60434 6.29874 4.64062 6.32051 4.68779C6.34228 4.73496 6.33139 4.78214 6.29511 4.78939ZM12.4889 13.1821C12.8155 13.1966 13.1275 13.1857 13.4541 13.2038C13.5158 13.251 13.4722 13.378 13.4323 13.3671L13.1566 13.3599C13.1566 13.2546 12.8844 13.2728 12.8953 13.3635C12.7502 13.3816 12.6195 13.3599 12.4744 13.3526C12.4309 13.2982 12.4381 13.2038 12.4889 13.1821Z" fill="#165D31"/>
</g>
</g>
</g>
</g>
<defs>
<clipPath id="clip0_186_12859">
<rect width="18" height="18" fill="white"/>
</clipPath>
</defs>
</svg>
