<svg width="18" height="18" viewBox="0 0 18 18" fill="none" xmlns="http://www.w3.org/2000/svg">
<g id="sg" clip-path="url(#clip0_186_12919)">
<g id="Clip path group">
<mask id="mask0_186_12919" style="mask-type:luminance" maskUnits="userSpaceOnUse" x="0" y="0" width="18" height="19">
<g id="sg-a">
<path id="Vector" d="M0 0H17.9985V18.001H0V0Z" fill="white"/>
</g>
</mask>
<g mask="url(#mask0_186_12919)">
<g id="Group">
<path id="Vector_2" fill-rule="evenodd" clip-rule="evenodd" d="M-0.703125 0H26.2971V18.001H-0.703125V0Z" fill="white"/>
<path id="Vector_3" fill-rule="evenodd" clip-rule="evenodd" d="M-0.703125 0H26.2971V8.99923H-0.703125V0Z" fill="#DF0000"/>
<path id="Vector_4" fill-rule="evenodd" clip-rule="evenodd" d="M5.52545 1.50843C4.81492 1.66067 4.17842 2.05278 3.72286 2.6189C3.26729 3.18502 3.02042 3.89066 3.0237 4.61731C3.02697 5.34396 3.2802 6.04735 3.74085 6.60933C4.20151 7.17132 4.84152 7.55767 5.55339 7.7035C5.07408 7.84377 4.56873 7.87074 4.07721 7.78229C3.58569 7.69384 3.12144 7.49239 2.7211 7.19382C2.32076 6.89526 1.99527 6.50775 1.77032 6.06187C1.54536 5.61599 1.42709 5.12393 1.42484 4.62452C1.42259 4.12511 1.53641 3.63201 1.75734 3.18412C1.97826 2.73622 2.30024 2.34579 2.69787 2.04363C3.09551 1.74146 3.55791 1.53583 4.04862 1.44295C4.53932 1.35007 5.04489 1.37249 5.52545 1.50843Z" fill="white"/>
<path id="Vector_5" fill-rule="evenodd" clip-rule="evenodd" d="M4.42733 4.12406L3.94727 3.77354L4.54417 3.76846L4.72705 3.20204L4.91755 3.76846H5.51191L5.03439 4.12406L5.21727 4.69048L4.73213 4.3425L4.24953 4.69302L4.42733 4.12406ZM5.08773 6.07732L4.60513 5.7268L5.20203 5.72172L5.38745 5.1553L5.57541 5.71918H6.17231L5.68971 6.07478L5.87513 6.6412L5.39253 6.29576L4.90993 6.64628L5.08773 6.07732ZM7.27975 6.06208L6.79715 5.71156L7.39151 5.70648L7.57693 5.14006L7.76489 5.70648H8.36433L7.88427 6.06208L8.06969 6.6285L7.58455 6.28052L7.10195 6.63104L7.27975 6.06208ZM7.93253 4.1266L7.44993 3.77608L8.04683 3.771L8.22971 3.20458L8.42021 3.76846H9.01457L8.53705 4.12406L8.71993 4.69048L8.23479 4.34504L7.75219 4.69556L7.93253 4.1266ZM6.19771 2.8439L5.71511 2.49338L6.31201 2.4883L6.49743 1.92188L6.68539 2.4883H7.28229L6.79969 2.8439L6.98511 3.40778L6.50251 3.06234L6.01991 3.41286L6.19771 2.8439Z" fill="white"/>
</g>
</g>
</g>
</g>
<defs>
<clipPath id="clip0_186_12919">
<rect width="18" height="18" fill="white"/>
</clipPath>
</defs>
</svg>
