<svg width="18" height="18" viewBox="0 0 18 18" fill="none" xmlns="http://www.w3.org/2000/svg">
<g id="sh-hl" clip-path="url(#clip0_186_13555)">
<path id="Vector" d="M18 18V0H0V18H18Z" fill="#000066"/>
<path id="Vector_2" d="M0 0H9V9H0V0Z" fill="#012169"/>
<path id="Vector_3" d="M9 0V1.125L5.66016 4.5L9 7.78711V9H7.82227L4.46484 5.69531L1.19531 9H0V7.80469L3.26953 4.51758L0 1.30078V0H1.08984L4.46484 3.30469L7.73438 0H9Z" fill="white"/>
<path id="Vector_4" d="M3.23438 5.69531L3.42773 6.29297L0.738281 9H0V8.94727L3.23438 5.69531ZM5.41406 5.48438L6.36328 5.625L9 8.20898V9L5.41406 5.48438ZM9 0L5.625 3.44531L5.55469 2.67188L8.19141 0H9ZM0 0.0175781L3.39258 3.33984L2.35547 3.19922L0 0.861328V0.0175781Z" fill="#C8102E"/>
<path id="Vector_5" d="M3.09375 0V9H5.90625V0H3.09375ZM0 3.09375V5.90625H9V3.09375H0Z" fill="white"/>
<path id="Vector_6" d="M0 3.65625V5.34375H9V3.65625H0ZM3.65625 0V9H5.34375V0H3.65625Z" fill="#C8102E"/>
<path id="Vector_7" d="M16.7695 7.64258C16.7625 9.78359 16.418 12.0863 13.6301 13.1832C10.8422 12.0863 10.5012 9.78359 10.4941 7.64258H16.7695Z" fill="#128BBF"/>
<path id="Vector_8" d="M13.6303 13.1831C14.8959 12.6874 15.6799 11.8753 16.1334 11.0104C16.0451 10.9861 15.9522 10.9837 15.8627 11.0034C15.7924 10.9999 13.1662 10.8065 12.8568 10.694C12.5861 10.5956 11.5631 10.7749 11.085 10.9472C11.5314 11.8683 12.3049 12.6628 13.6303 13.1831Z" fill="#E8ECE9"/>
<path id="Vector_9" d="M11.6826 11.8576C11.7334 11.846 11.786 11.8448 11.8373 11.8541C11.8725 11.8611 11.883 11.8646 11.8971 11.8224C11.9111 11.7837 11.9393 11.7908 11.9674 11.8119C11.9885 11.833 12.0518 11.8224 12.0729 11.7873C12.0975 11.7521 12.108 11.7591 12.1291 11.7838C12.1537 11.8048 12.1643 11.7978 12.1889 11.7908C12.2135 11.7873 12.2521 11.7556 12.2732 11.7205C12.2943 11.6853 12.326 11.6713 12.3436 11.6888C12.3576 11.7099 12.3787 11.724 12.3998 11.717C12.4244 11.717 12.4314 11.738 12.4279 11.7697C12.4244 11.7978 12.4385 11.8048 12.4982 11.7591C12.5475 11.8084 12.565 11.7873 12.565 11.7345C12.565 11.6818 12.551 11.4779 12.5299 11.4533C12.5088 11.4252 12.4912 11.3478 12.4877 11.2845C12.4807 11.1685 12.4807 11.1615 12.34 11.0912C12.34 11.049 12.3295 11.0349 12.2275 11.0384C12.2311 11.0279 12.2135 10.9857 12.1924 10.9681C12.1748 10.9505 12.1713 10.9435 12.1818 10.8978C12.2205 10.8978 12.2662 10.8943 12.2873 10.8627C12.3154 10.8275 12.3928 10.831 12.442 10.8521C12.4912 10.8732 12.551 10.8767 12.6424 10.8627C12.6775 10.8345 12.7373 10.8064 12.7971 10.7712C12.8604 10.7361 12.8779 10.722 12.8814 10.6763C12.8885 10.5533 12.8463 10.4127 12.8111 10.3494C12.776 10.2861 12.7689 10.2017 12.7197 10.1033C12.667 9.99078 12.667 9.96266 12.6107 9.89234C12.5932 9.87477 12.5756 9.85719 12.5721 9.82203C12.5686 9.78687 12.5545 9.73414 12.5123 9.69547C12.4068 9.60055 12.3717 9.2982 12.3295 9.0732C12.3049 8.94313 12.3225 8.64078 12.2662 8.59156C12.1748 8.52125 12.1291 8.5318 12.0693 8.50719C12.0236 8.44742 12.0025 8.32437 11.9639 8.21539C11.8936 8.22594 11.8514 8.29273 11.8057 8.31734C11.7635 8.34195 11.7564 8.34195 11.7564 8.40172C11.7564 8.465 11.7213 8.54937 11.658 8.6443C11.5982 8.73922 11.4963 8.71461 11.4119 8.85523C11.2221 8.62672 11.2186 8.56344 11.201 8.49664C11.1904 8.43336 11.1588 8.4193 11.0533 8.32789C11.0533 8.29977 11.0393 8.19078 11.0498 8.13102C10.9689 8.06422 10.9092 8.07477 10.874 8.12398C10.8389 8.16969 10.8107 8.24352 10.751 8.26812C10.7158 8.31383 10.6104 8.42633 10.5225 8.55641C10.6033 9.74117 10.874 10.9189 11.6826 11.8611V11.8576Z" fill="#69522B"/>
<path id="Vector_10" d="M16.7695 7.64258C16.7695 6.8375 16.7238 6.05703 16.7449 5.37148C15.7008 4.90742 14.3297 4.8125 13.6301 4.8125C12.9305 4.8125 11.5594 4.90742 10.5188 5.37148C10.5398 6.05703 10.4941 6.8375 10.4941 7.64258H16.7695Z" fill="#BCA76B"/>
<path id="Vector_11" d="M10.666 8.57737C10.7102 8.63719 10.7446 8.70365 10.768 8.77425C10.7926 8.72503 10.8102 8.70394 10.8172 8.6723C10.8207 8.64417 10.8559 8.58441 10.8418 8.54925C10.8277 8.51761 10.8172 8.493 10.8559 8.51409C10.891 8.5387 10.8875 8.58441 10.8805 8.64417C10.8559 8.80941 10.7855 8.84456 10.775 8.95706C10.8805 9.19261 10.8031 9.27698 10.9121 9.50902C10.9297 9.51956 10.9754 9.50198 10.9895 9.5055C11.0457 9.46331 11.0914 9.47737 11.1723 9.49495C11.2531 9.51253 11.2988 9.56878 11.2988 9.62152C11.2988 9.67073 11.2988 9.6848 11.3164 9.71644C11.334 9.74808 11.3691 9.79378 11.3621 9.82894C11.3551 9.86409 11.3691 9.88167 11.3762 9.89925C11.3867 9.91683 11.3762 9.9555 11.3656 9.97659C11.3551 10.0012 11.3586 10.0328 11.4008 10.0821C11.4395 10.1348 11.5344 10.3492 11.5344 10.4758C11.5344 10.6024 11.5414 10.6586 11.5941 10.6832C11.6469 10.7078 11.6645 10.7254 11.6539 10.7817C11.6504 10.8344 11.6785 11.1192 11.6891 11.1614C11.6926 11.2071 11.7102 11.1965 11.7313 11.2211C11.7523 11.2457 11.7664 11.2703 11.8367 11.2703C11.9035 11.2703 11.9703 11.2633 12.0125 11.2703C12.0696 11.3511 12.108 11.4436 12.125 11.541C12.1391 11.6114 12.1391 11.7098 12.1602 11.7098C12.1883 11.7098 12.2129 11.7133 12.2059 11.6254C12.1988 11.5375 12.1918 11.5235 12.1602 11.4778C12.1285 11.4356 12.1109 11.4145 12.1285 11.3864C12.1461 11.3617 12.1496 11.316 12.1426 11.2809C12.1355 11.2457 12.125 11.1965 12.1848 11.2633L12.2762 11.3723C12.2938 11.3969 12.3008 11.4426 12.2973 11.4813C12.2937 11.5235 12.2973 11.541 12.3254 11.52C12.35 11.4989 12.3781 11.534 12.3641 11.5762C12.35 11.6219 12.3676 11.6465 12.4098 11.6641C12.452 11.6782 12.4695 11.6852 12.4801 11.7168C12.4906 11.7485 12.5223 11.7625 12.5223 11.6992C12.5223 11.6395 12.4977 11.5094 12.4836 11.4672C12.466 11.4285 12.4484 11.3407 12.4484 11.2914C12.4449 11.2387 12.4344 11.2211 12.4133 11.2141C12.3852 11.2035 12.3641 11.186 12.3605 11.1614C12.3605 11.1403 12.3395 11.1297 12.3254 11.1297C12.3078 11.1297 12.2902 11.1192 12.2832 11.1016C12.2762 11.084 12.2691 11.084 12.248 11.0805C12.234 11.0805 12.2059 11.091 12.1988 11.0629C12.1883 11.0348 12.1777 10.9926 12.1602 10.975C12.1426 10.9504 12.125 10.9434 12.125 10.8696C12.125 10.7922 12.125 10.7817 12.0969 10.7535C12.0723 10.7254 12.0336 10.6551 12.016 10.6235C11.9984 10.5953 11.9809 10.5637 11.9809 10.627C11.9809 10.6938 11.9809 10.7254 12.023 10.75C12.0652 10.7746 12.0723 10.7746 12.0582 10.8098C12.0406 10.845 12.0582 10.866 12.0652 10.8907C12.0688 10.9153 12.0828 10.9364 12.0652 10.961C12.0441 10.9856 12.023 10.9785 12.0266 10.9399C12.0279 10.9005 12.0181 10.8615 11.9984 10.8274C11.9809 10.7992 11.9668 10.7782 11.9457 10.7922C11.9281 10.8133 11.9105 10.7922 11.9246 10.7782C11.9352 10.7641 11.9316 10.7535 11.9246 10.743C11.9141 10.7325 11.9105 10.7219 11.9246 10.7043C11.9422 10.6832 11.9422 10.6692 11.9316 10.6235C11.9246 10.5778 11.8473 10.3422 11.8121 10.286C11.777 10.2297 11.784 10.1875 11.8262 10.2438C11.8719 10.2965 11.9105 10.3457 11.9141 10.3914C11.9141 10.4336 11.9281 10.4617 11.9387 10.4793C11.9527 10.4969 11.9633 10.4899 11.9738 10.4512C11.9773 10.416 12.0055 10.4266 11.9563 10.3563C11.9105 10.286 11.8191 10.1664 11.7875 9.95198C11.7523 9.73753 11.7383 9.59339 11.7031 9.53714C11.668 9.47737 11.6574 9.46683 11.6539 9.41058C11.6539 9.35433 11.6539 9.30159 11.6328 9.25941C11.6082 9.22073 11.5906 9.2137 11.5871 9.27347C11.5836 9.33323 11.5906 9.47034 11.6082 9.49495C11.6258 9.51956 11.6152 9.57933 11.6082 9.61448C11.6082 9.64964 11.552 9.6848 11.6645 9.75159C11.7102 9.7762 11.7031 9.81487 11.6996 9.83948C11.6891 9.86409 11.682 9.86058 11.6574 9.82191C11.6363 9.78675 11.6117 9.75159 11.5871 9.73401C11.5625 9.71292 11.559 9.69886 11.5625 9.65316C11.566 9.60394 11.5766 9.56878 11.5625 9.5512C11.5484 9.53714 11.5414 9.5512 11.5344 9.57581C11.5273 9.60394 11.5203 9.68128 11.5098 9.69886C11.4957 9.71995 11.4887 9.70589 11.4746 9.6637C11.4698 9.59766 11.4807 9.53142 11.5062 9.47034C11.5273 9.393 11.5414 9.31214 11.5203 9.21019C11.5027 9.10472 11.5133 9.07659 11.4324 8.99222C11.3551 8.90784 11.2637 8.82347 11.2285 8.718C11.1898 8.61253 11.1828 8.52112 11.1406 8.47191C11.1019 8.42372 11.0556 8.38216 11.0035 8.34886V8.19066C11.0035 8.1555 10.9859 8.13089 10.9437 8.13792C10.898 8.14495 10.8734 8.18011 10.8418 8.23284C10.8172 8.28206 10.7961 8.26097 10.7574 8.34886C10.7223 8.43675 10.666 8.48245 10.666 8.57737Z" fill="#CFA763"/>
<path id="Vector_12" d="M10.9129 9.5727C10.941 9.59028 10.9656 9.60082 11.0078 9.58325C11.05 9.56215 11.0957 9.50239 11.1519 9.55864C11.2064 9.62232 11.2363 9.70336 11.2363 9.78715C11.2363 9.8645 11.2363 10.0016 11.3242 10.0825C11.4086 10.1598 11.4543 10.2407 11.4578 10.3426C11.4578 10.4481 11.5 10.6028 11.5105 10.6415C11.5176 10.6836 11.5457 10.7293 11.5703 10.7575C11.5984 10.7856 11.6195 10.8629 11.623 10.9438C11.623 11.0282 11.6125 11.0844 11.623 11.1266C11.6336 11.1653 11.623 11.2004 11.5879 11.1793C11.5598 11.1582 11.5527 11.1477 11.5352 11.1161C11.5176 11.0809 11.5 11.0879 11.5141 11.1407C11.5316 11.1899 11.5844 11.2391 11.6301 11.2391C11.6723 11.2391 11.6863 11.2461 11.7144 11.2743C11.7426 11.2989 11.7461 11.3094 11.7918 11.3094C11.8266 11.308 11.8614 11.314 11.8937 11.327C11.9359 11.3411 11.9359 11.334 11.9641 11.327C11.9852 11.32 12.0098 11.3411 12.0273 11.3832C12.0449 11.4289 12.0836 11.552 12.0836 11.5836C12.0836 11.6188 12.0836 11.6539 12.1082 11.6891C12.1328 11.7243 12.1258 11.7559 12.0977 11.7348C12.0695 11.7137 12.0695 11.7207 12.0519 11.7243C12.0309 11.7278 12.0168 11.7172 11.9887 11.6997C11.9605 11.6821 11.9781 11.6856 11.9535 11.6469C11.9254 11.6047 11.9078 11.5907 11.9078 11.6223C11.9078 11.6539 11.9043 11.6926 11.8832 11.675C11.8621 11.6575 11.8516 11.6575 11.834 11.675C11.8164 11.6891 11.8094 11.7032 11.7918 11.6715C11.7707 11.6364 11.7461 11.6364 11.725 11.6293C11.7039 11.6223 11.7039 11.6223 11.6934 11.5942C11.6828 11.559 11.6547 11.5555 11.623 11.5555C11.5984 11.5555 11.5844 11.5415 11.5809 11.5204C11.5773 11.4993 11.5598 11.4852 11.5457 11.4747C11.5316 11.4676 11.5387 11.4395 11.5352 11.4184C11.5352 11.3938 11.5141 11.4043 11.5 11.3973C11.4859 11.3903 11.4754 11.3973 11.4754 11.3622C11.4754 11.327 11.4613 11.3165 11.4508 11.2918C11.4402 11.2672 11.4508 11.2461 11.4578 11.218C11.4648 11.1899 11.4578 11.1723 11.4402 11.1477C11.4191 11.1266 11.4402 11.102 11.3805 11.0528C11.3277 11.0071 11.2996 11.0457 11.282 10.9368C11.2644 10.8243 11.2328 10.5922 11.2012 10.5536C11.1695 10.5184 11.1484 10.4903 11.1168 10.4797C11.0887 10.4692 11.0676 10.4762 11.0641 10.4094C11.0605 10.3461 11.0394 10.2653 10.9973 10.2231L10.9199 10.1528C10.8988 10.1352 10.8918 10.1036 10.9199 10.0473C10.948 9.98754 10.9375 9.9102 10.934 9.87153C10.9305 9.83637 10.9199 9.78715 10.9269 9.74848C10.9322 9.70855 10.9298 9.66798 10.9199 9.62895C10.9094 9.60082 10.8953 9.59379 10.9129 9.5727Z" fill="#CFA763"/>
<path id="Vector_13" d="M11.9531 11.4372C11.932 11.4759 11.9109 11.4653 11.8898 11.4442C11.8688 11.4231 11.8441 11.4231 11.8547 11.3845C11.8652 11.3493 11.8617 11.3423 11.8336 11.3212L11.823 11.3141H11.7914C11.7457 11.3141 11.7422 11.3001 11.7141 11.272C11.7084 11.267 11.7026 11.2623 11.6965 11.2579V11.2825C11.6965 11.3177 11.6965 11.3141 11.6613 11.3247C11.6227 11.3352 11.6262 11.2895 11.6227 11.2544C11.6208 11.2483 11.6185 11.2425 11.6156 11.2368C11.5734 11.2298 11.5312 11.1876 11.5137 11.1419C11.4996 11.0891 11.5172 11.0821 11.5348 11.1173C11.5523 11.1524 11.5594 11.1595 11.591 11.1806C11.6227 11.2016 11.6332 11.1665 11.6227 11.1278L11.6191 11.0821C11.6123 11.0684 11.6012 11.0573 11.5875 11.0505C11.5313 11.0294 11.5523 11.0223 11.5523 10.9802C11.5559 10.9345 11.5453 10.9345 11.5137 10.9556C11.4785 10.9802 11.475 10.9556 11.475 10.8852C11.475 10.8149 11.4293 10.8149 11.4187 10.8641C11.4082 10.9134 11.3906 10.8817 11.373 10.8149C11.352 10.7446 11.3238 10.727 11.3203 10.7938C11.3203 10.8466 11.3027 10.8641 11.2676 10.829L11.2816 10.9345C11.2992 11.047 11.3273 11.0048 11.3801 11.054C11.4363 11.1032 11.4187 11.1243 11.4398 11.1489C11.4609 11.1735 11.4645 11.1911 11.4574 11.2192C11.4504 11.2473 11.4398 11.2684 11.4504 11.2931C11.4609 11.3177 11.475 11.3282 11.475 11.3634C11.475 11.3985 11.4855 11.3915 11.4996 11.3985C11.5066 11.402 11.5172 11.3985 11.5242 11.4056C11.5348 11.3915 11.5418 11.3774 11.5523 11.3704C11.5945 11.3282 11.6578 11.3704 11.6754 11.4231C11.6965 11.4723 11.7211 11.4864 11.7527 11.4477C11.7844 11.4056 11.7738 11.4126 11.8055 11.4477C11.8406 11.4864 11.8547 11.4829 11.8547 11.4829C11.8547 11.4829 11.8898 11.4688 11.9145 11.4864C11.9355 11.5075 11.9496 11.504 11.9953 11.4407C12.041 11.3739 11.9742 11.395 11.9531 11.4372Z" fill="#D7C99C"/>
<g id="Group">
<path id="Vector_14" d="M11.9879 11.9117C12.1003 11.8953 12.2102 11.8646 12.3148 11.8203C12.3716 11.862 12.4362 11.8919 12.5047 11.9082C12.4273 11.9258 12.3746 11.9152 12.3535 11.9012C12.3641 11.9258 12.3922 11.9645 12.4098 11.968C12.3359 11.9645 12.248 11.9469 12.2199 11.9187C12.1566 11.9469 12.0441 11.9539 11.9844 11.9117H11.9879ZM12.132 12.0172L12.3254 12.0488C12.2762 12.0875 12.3184 12.1262 12.3992 12.1191C12.3605 12.1262 12.3184 12.1402 12.3465 12.1473C12.4168 12.1613 12.6066 12.1086 12.6453 12.0875C12.5785 12.1719 12.2621 12.2492 12.132 12.0172ZM12.2621 12.2211C12.3008 12.2035 12.4027 12.2105 12.4449 12.2316C12.3957 12.2492 12.2937 12.2492 12.2621 12.2211Z" fill="#7FB8C1"/>
<path id="Vector_15" d="M12.4102 12.2184C12.4805 12.2078 12.6809 12.2535 12.7512 12.2148C12.7266 12.2746 12.6 12.2852 12.5578 12.2711C12.5156 12.257 12.4734 12.2395 12.4453 12.243C12.4594 12.2324 12.4348 12.2324 12.4102 12.2184ZM12.4805 12.3168C12.5367 12.3238 12.7266 12.3027 12.7828 12.2816C12.8461 12.2992 12.9691 12.3309 12.9938 12.3273C12.9375 12.3625 12.825 12.3449 12.7898 12.3273C12.6844 12.3625 12.6035 12.373 12.484 12.3168H12.4805Z" fill="#7FB8C1"/>
<path id="Vector_16" d="M12.572 12.3473C12.6493 12.3648 12.7126 12.3508 12.7899 12.3262C12.811 12.3367 12.8673 12.3508 12.92 12.3473C12.9552 12.3684 13.0009 12.393 13.0466 12.3965C12.9973 12.4176 12.8286 12.3965 12.7934 12.3789C12.7019 12.3768 12.611 12.3936 12.5263 12.4281C12.5272 12.4121 12.5318 12.3964 12.5397 12.3824C12.5476 12.3684 12.5587 12.3564 12.572 12.3473ZM12.4841 11.9605C12.5403 11.9816 12.7583 11.9746 12.8673 11.9254C12.9095 11.9008 12.9376 11.9359 12.8884 11.9535C12.7091 12.0133 12.5684 12.0379 12.4665 11.9852C12.4243 11.9641 12.4208 11.943 12.4841 11.9641V11.9605ZM13.5352 11.6758C13.4119 11.7419 13.2757 11.7802 13.136 11.7881C12.9963 11.796 12.8566 11.7733 12.7266 11.7215C12.695 11.7109 12.6704 11.7215 12.7091 11.7461C12.7442 11.7707 12.9481 11.8234 12.9973 11.827C13.0466 11.8305 13.029 11.8516 12.9973 11.8621C12.9692 11.8691 12.9622 11.8902 12.9973 11.8762C13.0395 11.8586 13.261 11.8551 13.3489 11.9008C13.3911 11.9219 13.3981 11.9184 13.3946 11.9008C13.3946 11.8867 13.4122 11.8762 13.4438 11.8727C13.472 11.8727 13.4895 11.8586 13.4649 11.8516C13.4438 11.841 13.4403 11.8375 13.4579 11.8305C13.4755 11.8199 13.4755 11.8129 13.4509 11.8059C13.4263 11.8023 13.4087 11.7953 13.4333 11.7848C13.4579 11.7707 13.493 11.7637 13.5212 11.7602C13.5282 11.7391 13.5141 11.6898 13.5352 11.6758Z" fill="#7FB8C1"/>
<path id="Vector_17" d="M13.0954 11.7088C13.2466 11.7158 13.5243 11.649 13.672 11.5049C13.7247 11.5365 13.795 11.5717 13.8337 11.5752C13.8688 11.5822 13.904 11.6174 13.8477 11.6174C13.788 11.6174 13.7071 11.5928 13.672 11.5752C13.4997 11.68 13.3003 11.7314 13.0989 11.7228C13.0567 11.7228 13.0497 11.7017 13.0989 11.7053L13.0954 11.7088ZM12.8563 11.2799C12.8387 11.2834 12.7509 11.3045 12.7262 11.3045C12.7016 11.3045 12.677 11.308 12.6805 11.3256C12.6805 11.3432 12.6876 11.3537 12.6524 11.3502C12.6173 11.3467 12.5821 11.3607 12.5751 11.3678C12.568 11.3783 12.561 11.3889 12.5962 11.3924C12.6313 11.3959 12.6524 11.3994 12.6946 11.3818C12.7333 11.3642 12.772 11.3326 12.8177 11.3326C12.8634 11.3326 12.9055 11.2728 12.8563 11.2799Z" fill="#7FB8C1"/>
<path id="Vector_18" d="M12.7327 11.3853C12.8241 11.4308 12.9229 11.4594 13.0245 11.4697C13.0913 11.4626 13.0772 11.4943 13.0245 11.5048C12.919 11.5259 12.796 11.4837 12.7081 11.4134C12.6659 11.3783 12.7046 11.3677 12.7327 11.3853Z" fill="#7FB8C1"/>
<path id="Vector_19" d="M13.6122 11.4759C13.4715 11.5216 13.3274 11.504 13.2676 11.4899C13.2079 11.4724 13.1551 11.4688 13.1973 11.5075C13.2325 11.5427 13.3626 11.5708 13.4329 11.5532C13.1797 11.6095 13.113 11.606 13.0462 11.5954C12.9829 11.5849 12.8669 11.5884 12.8141 11.5919C12.779 11.5919 12.7262 11.5919 12.7016 11.5743C12.6805 11.5638 12.6735 11.5392 12.7403 11.5427C12.8106 11.5497 12.8176 11.5356 12.7579 11.5286C12.6981 11.5216 12.6172 11.5427 12.6981 11.5919C12.7755 11.6411 12.9512 11.5919 13.0602 11.62C13.157 11.6455 13.2585 11.6476 13.3563 11.6262C13.4541 11.6048 13.5454 11.5605 13.6227 11.497C13.6368 11.4864 13.6579 11.4618 13.6122 11.4759ZM13.2817 11.3353C13.2536 11.3353 13.2008 11.3177 13.1762 11.3071C13.1446 11.2931 13.1059 11.2931 13.134 11.3317C13.1657 11.3669 13.2922 11.3915 13.3344 11.3739C13.3801 11.3563 13.3626 11.3353 13.4047 11.3634C13.4505 11.388 13.4962 11.4091 13.5313 11.4091C13.563 11.4091 13.5735 11.4091 13.5383 11.388C13.5032 11.3669 13.4856 11.3634 13.4821 11.3458C13.4786 11.3282 13.4715 11.3177 13.5067 11.3282C13.5383 11.3388 13.577 11.3563 13.6016 11.3423C13.6262 11.3282 13.6755 11.3001 13.7176 11.3001L13.7282 11.272C13.6684 11.2685 13.6262 11.286 13.6087 11.2931C13.5946 11.3001 13.563 11.3036 13.5313 11.3001C13.4962 11.2931 13.454 11.2895 13.4434 11.2825C13.4329 11.272 13.4329 11.2649 13.461 11.2614C13.4891 11.2544 13.4962 11.2368 13.461 11.2438C13.4223 11.2509 13.3204 11.2474 13.2676 11.2298C13.2149 11.2122 13.1903 11.2122 13.1692 11.2192C13.1481 11.2298 13.1516 11.2544 13.1833 11.2544C13.2184 11.2544 13.2887 11.2614 13.3169 11.2895C13.3415 11.3106 13.338 11.3106 13.3098 11.3001C13.2782 11.2895 13.2255 11.2966 13.2817 11.3353ZM14.5227 11.2438C14.4172 11.3142 14.2977 11.3353 14.1501 11.3458C14.1044 11.3458 14.1184 11.3599 14.1571 11.3634C14.3083 11.3774 14.4876 11.3212 14.5438 11.2579C14.5649 11.2438 14.5614 11.2157 14.5227 11.2438ZM13.8196 11.4161C13.9042 11.4281 13.9877 11.4469 14.0692 11.4724C14.1044 11.4724 14.1184 11.4618 14.1114 11.4478C14.1044 11.4337 14.0973 11.4196 14.1676 11.4231H14.4243C14.4454 11.4161 14.5016 11.3739 14.5227 11.3704C14.463 11.3739 14.2063 11.388 14.1712 11.3845C14.1395 11.3845 14.1219 11.3845 14.1008 11.3985C14.0833 11.4091 14.0692 11.4161 14.0446 11.4056C14.02 11.395 13.9743 11.381 13.9462 11.395C13.9215 11.4126 13.8688 11.395 13.8196 11.4161Z" fill="#7FB8C1"/>
<path id="Vector_20" d="M14.4239 11.4265C14.445 11.416 14.5013 11.3738 14.5224 11.3703C14.5681 11.3703 14.6208 11.3879 14.6454 11.3914C14.6665 11.3914 14.6946 11.3914 14.677 11.3703C14.6595 11.3527 14.677 11.3176 14.7474 11.3281C14.8177 11.3351 14.8528 11.3492 14.9231 11.3422C14.9899 11.3351 15.0181 11.3844 15.1481 11.3351C15.1376 11.3844 15.1622 11.3879 15.1868 11.3773C15.2114 11.3668 15.2395 11.3703 15.2782 11.4019C15.3204 11.4336 15.57 11.4371 15.6298 11.4265C15.6895 11.416 15.7177 11.4476 15.6755 11.4617C15.6298 11.4722 15.6192 11.4969 15.6298 11.5074C15.6403 11.5215 15.6509 11.539 15.5946 11.532C15.5419 11.525 15.5313 11.5426 15.5032 11.5637C15.4751 11.5812 15.4681 11.5883 15.3942 11.5742C15.3169 11.5637 15.3028 11.5742 15.2641 11.5777C15.2328 11.5853 15.1999 11.5841 15.1692 11.5742C15.1103 11.5546 15.0472 11.551 14.9864 11.5637C14.9302 11.5777 14.888 11.5988 14.8423 11.5812C14.7931 11.5707 14.7895 11.5742 14.8212 11.5461C14.8528 11.5144 14.8563 11.518 14.9161 11.5109C14.9759 11.5039 15.0216 11.4863 14.9794 11.4652C14.9372 11.4406 14.9231 11.4441 14.8669 11.4687C14.8141 11.4969 14.786 11.5144 14.7263 11.4793C14.663 11.4441 14.6313 11.4547 14.5891 11.4652C14.5505 11.4722 14.4837 11.4512 14.4239 11.423V11.4265ZM14.6278 11.525C14.5505 11.539 14.5294 11.4898 14.445 11.4969C14.4204 11.5004 14.3747 11.532 14.438 11.532C14.5013 11.525 14.5681 11.5601 14.6313 11.5531C14.6911 11.5496 14.6665 11.5215 14.6313 11.525H14.6278ZM14.5364 11.5847C14.5786 11.5707 14.663 11.5988 14.7016 11.5918C14.7368 11.5847 14.772 11.6094 14.7333 11.6199C14.6981 11.6305 14.6032 11.5988 14.5645 11.6094C14.5224 11.6234 14.4802 11.6094 14.5364 11.5847ZM13.7173 11.8062C13.7735 11.8062 13.9774 11.7992 14.0583 11.6305C14.0653 11.6164 14.0724 11.6094 14.097 11.6269C14.1216 11.6445 14.2165 11.6972 14.3923 11.7148C14.4415 11.7183 14.4977 11.743 14.3958 11.7359C14.2974 11.7324 14.1391 11.7008 14.0864 11.6726C13.9985 11.8133 13.8403 11.8273 13.7173 11.8238C13.647 11.8238 13.6645 11.8027 13.7173 11.8062Z" fill="#7FB8C1"/>
<path id="Vector_21" d="M14.1607 11.5738C14.1326 11.609 14.0376 11.6793 13.9955 11.6793C13.9533 11.6828 13.8197 11.6723 13.7915 11.6582C13.7564 11.6477 13.7212 11.6512 13.7634 11.6828C13.828 11.7178 13.9011 11.7336 13.9744 11.7285C14.0201 11.718 14.0728 11.7004 14.108 11.725C14.1431 11.7461 14.2134 11.7883 14.2486 11.7812C14.2972 11.7708 14.3476 11.7708 14.3962 11.7812C14.4208 11.7953 14.4665 11.8305 14.3962 11.8094C14.333 11.7883 14.2767 11.8094 14.2451 11.7918C14.2802 11.841 14.3576 11.9184 14.4244 11.9184C14.4419 11.9184 14.449 11.9465 14.4173 11.9605C14.4525 11.9746 14.5228 11.9887 14.565 11.95C14.5544 11.9641 14.5615 11.9746 14.579 11.9852C14.5931 11.9922 14.6142 12.0027 14.5826 12.0062C14.5544 12.0062 14.4841 12.0168 14.463 12.0062C14.588 12.0799 14.7344 12.1085 14.8779 12.0871C14.913 12.0801 14.9306 12.066 14.8779 12.066C14.7619 12.0695 14.7548 12.066 14.7372 12.0555C14.7162 12.0449 14.7197 12.0344 14.7513 12.0238C14.783 12.0133 14.8638 12.0027 14.899 12.0027C14.9341 12.0027 14.9693 11.9887 14.899 11.9887C14.8287 11.9887 14.7408 11.9887 14.7091 11.9781C14.674 11.9641 14.6494 11.95 14.6845 11.9254C14.7197 11.9008 14.7548 11.9078 14.7759 11.8902C14.6599 11.8867 14.5228 11.827 14.6001 11.7707C14.6177 11.7602 14.6107 11.7566 14.5826 11.7531C14.5299 11.7468 14.4787 11.7313 14.4314 11.7074C14.3962 11.6863 14.4208 11.6723 14.449 11.6652C14.3453 11.6684 14.2436 11.6361 14.1607 11.5738ZM15.1662 11.5703C15.0969 11.6111 15.0181 11.633 14.9376 11.6336C14.8884 11.6336 14.8814 11.6512 14.9201 11.6582C14.9587 11.6617 15.0009 11.6688 15.0185 11.6617C15.0361 11.6582 15.0466 11.6547 15.0712 11.6687C15.0994 11.6793 15.1521 11.6863 15.2013 11.6687C15.2505 11.6547 15.3279 11.6477 15.3595 11.6512C15.3947 11.6512 15.4298 11.6512 15.363 11.6336C15.2981 11.6203 15.2311 11.6203 15.1662 11.6336C15.1415 11.6441 15.0712 11.6371 15.1099 11.6266C15.1451 11.616 15.1802 11.5949 15.1978 11.5809L15.1662 11.5703ZM15.131 11.7039C15.0709 11.7499 14.999 11.7779 14.9236 11.7848C14.9939 11.8094 15.0572 11.8832 15.0994 11.8797C15.0783 11.8937 15.0537 11.9148 15.022 11.9148C15.0852 11.9242 15.1496 11.9118 15.2048 11.8797C15.3103 11.9078 15.4404 11.8902 15.4861 11.8516C15.4193 11.8516 15.3384 11.8305 15.3033 11.7988C15.3182 11.7982 15.3327 11.7944 15.3461 11.7878C15.3594 11.7811 15.3712 11.7717 15.3806 11.7602C15.3033 11.7742 15.1697 11.7355 15.1345 11.7039H15.131Z" fill="#7FB8C1"/>
<path id="Vector_22" d="M15.0215 11.9182C15.0531 11.9112 15.0777 11.8936 15.1023 11.8796C15.0461 11.8971 14.7965 11.8585 14.7227 11.7917C14.6523 11.7284 14.6523 11.7776 14.7016 11.8268C14.7543 11.869 14.8422 11.9393 15.0215 11.9147V11.9182ZM15.2043 12.0729C15.1727 12.0905 15.0285 12.101 14.9793 12.0905C14.9301 12.08 14.909 12.0835 14.923 12.1046C14.9336 12.1221 14.9371 12.1397 14.8984 12.1327C14.8511 12.1301 14.8037 12.1348 14.7578 12.1468C14.7297 12.1573 14.6945 12.1819 14.7578 12.1714C14.8176 12.1608 14.8738 12.1503 14.923 12.1608C14.9688 12.1749 15.134 12.1784 15.1656 12.1643C15.2008 12.1503 15.1762 12.1503 15.1586 12.1503C15.1445 12.1503 15.1375 12.1397 15.1586 12.1292C15.1832 12.1186 15.2008 12.094 15.2043 12.0729ZM13.777 11.876C13.7172 11.9007 13.5098 11.9569 13.457 11.9604C13.3867 11.9921 13.3305 12.0061 13.2988 12.0061C13.3459 12.0324 13.3996 12.0446 13.4535 12.0413C13.4324 12.0589 13.3832 12.0835 13.3656 12.094C13.4219 12.087 13.4852 12.101 13.5133 12.1046C13.445 12.1397 13.3684 12.1555 13.2918 12.1503C13.3094 12.1749 13.3305 12.1995 13.3621 12.1995C13.2988 12.2135 13.2215 12.2135 13.1793 12.1995C13.1934 12.2346 13.2145 12.2557 13.2355 12.2593C13.1828 12.2663 13.1125 12.2768 13.0527 12.2417C13.0984 12.3014 13.1969 12.319 13.3445 12.305C13.4536 12.293 13.5583 12.2557 13.6504 12.196C13.5906 12.203 13.5098 12.2065 13.4641 12.196C13.5666 12.1689 13.6649 12.1275 13.7559 12.0729C13.7207 12.0729 13.6855 12.0624 13.6645 12.0448C13.7548 12.0463 13.8448 12.0345 13.9316 12.0096C13.8859 12.0007 13.8447 11.9758 13.8156 11.9393C14.0025 11.9919 14.1995 11.9967 14.3887 11.9534C14.4168 11.9464 14.4203 11.9112 14.3641 11.9182C14.2691 11.9218 14.0828 11.8936 14.0336 11.8725C14.0793 11.9077 14.1355 11.9253 14.1742 11.9323C14.1078 11.9513 14.038 11.9562 13.9696 11.9465C13.9011 11.9368 13.8355 11.9128 13.777 11.876Z" fill="#7FB8C1"/>
<path id="Vector_23" d="M13.3657 12.0949C13.3833 12.0844 13.4325 12.0598 13.4536 12.0387C13.4149 12.0492 13.3235 12.0281 13.2989 12.007C13.3341 12.007 13.3868 11.993 13.4571 11.9613C13.3306 11.9578 13.2462 11.9578 13.2005 11.9332C13.1583 11.9086 13.0739 11.9156 13.0458 11.9226C13.0106 11.9297 13.0247 11.9824 13.1513 11.9683C13.0719 12.0039 12.9841 12.0161 12.8981 12.0035C12.9087 12.0492 12.9192 12.0949 12.9052 12.116C12.979 12.1582 13.1688 12.2109 13.2602 12.2039C13.1794 12.1687 13.1337 12.1371 13.2005 12.1336C13.2708 12.123 13.306 12.109 13.3657 12.0949ZM13.1548 12.3164C13.3165 12.3023 13.538 12.2988 13.7138 12.1512C13.756 12.116 13.7841 12.1266 13.7419 12.1652C13.5859 12.2849 13.3969 12.3537 13.2005 12.3621C13.1126 12.3621 13.0704 12.3199 13.1548 12.3164ZM14.3852 12.0457C14.3431 12.0598 14.227 12.0808 14.1919 12.0738C14.1567 12.0703 14.1075 12.0668 14.0829 12.0844C14.0548 12.1019 14.0513 12.1125 14.0899 12.116C14.1251 12.116 14.1743 12.123 14.1989 12.1195C14.1673 12.1371 14.1497 12.1617 14.1427 12.1723C14.1954 12.1582 14.2974 12.1828 14.3255 12.2004C14.3044 12.2074 14.2798 12.2004 14.2587 12.1863C14.3536 12.2848 14.6278 12.2848 14.67 12.2672C14.6489 12.2812 14.6349 12.2988 14.6102 12.3023C14.6876 12.3164 14.779 12.3164 14.8634 12.2637C14.8352 12.2672 14.7474 12.2637 14.7263 12.2601C14.7448 12.2409 14.7677 12.2264 14.7931 12.218C14.7579 12.2144 14.6524 12.218 14.6243 12.2285C14.6349 12.2109 14.6524 12.1828 14.6735 12.1758C14.5529 12.184 14.4317 12.1721 14.3149 12.1406C14.4099 12.1512 14.5153 12.0949 14.561 12.0949C14.4872 12.0949 14.4028 12.0773 14.3852 12.0457ZM14.0372 12.1195C13.9713 12.133 13.9066 12.1518 13.8438 12.1758C13.8157 12.1933 13.7876 12.2004 13.8438 12.2004C13.852 12.1992 13.8602 12.198 13.8685 12.1969C13.8438 12.1969 13.8157 12.1969 13.8614 12.1793C13.9036 12.1652 13.9634 12.1371 14.0372 12.1195ZM13.9036 12.2777C13.9282 12.2777 14.0302 12.2777 14.0724 12.2426C14.1145 12.2777 14.1989 12.3199 14.2481 12.3199C14.3044 12.3199 14.3009 12.334 14.2517 12.341C14.206 12.3445 14.1145 12.3199 14.0688 12.2848C14.0091 12.3058 13.9563 12.2848 13.9036 12.2777ZM13.1091 12.7348C13.2145 12.7769 13.3552 12.8051 13.4606 12.7734C13.5169 12.8262 13.6364 12.8297 13.7032 12.8156C13.7664 12.7975 13.8334 12.7975 13.8966 12.8156C13.9669 12.8437 14.1181 12.8437 14.1602 12.8789L14.0196 12.8824C14.002 12.8894 14.0126 12.9 14.0477 12.9176C13.9317 12.9105 13.7313 12.9598 13.6681 13.0125C13.6862 12.975 13.7147 12.9434 13.7502 12.9216C13.7858 12.8998 13.8268 12.8886 13.8685 12.8894C13.8052 12.8683 13.6083 12.8648 13.545 12.907C13.5262 12.8868 13.5118 12.8628 13.5028 12.8367C13.3974 12.8965 13.1899 12.8121 13.1091 12.7383V12.7348ZM12.8349 12.5449C12.9614 12.5273 13.0493 12.4887 13.088 12.45C13.1091 12.4711 13.2005 12.4922 13.3024 12.4605C13.2813 12.4781 13.2813 12.5062 13.2884 12.5203C13.2074 12.5266 13.1279 12.5455 13.0528 12.5766C13.0106 12.5976 12.8841 12.6117 12.8419 12.5906C12.8032 12.5695 12.7997 12.5519 12.8349 12.5449Z" fill="#7FB8C1"/>
<path id="Vector_24" d="M13.2883 12.5191C13.2073 12.5254 13.1278 12.5444 13.0527 12.5754C13.0598 12.593 13.0668 12.6211 13.0668 12.6387C13.2347 12.5914 13.4096 12.5736 13.5836 12.5859C13.5309 12.5859 13.4324 12.6387 13.3797 12.6457C13.479 12.6406 13.5785 12.6501 13.675 12.6738C13.7102 12.6809 13.7172 12.709 13.6926 12.7301C13.668 12.7547 13.6574 12.7582 13.7102 12.7582C13.7629 12.7582 13.8789 12.7547 13.9281 12.7055C13.907 12.6844 13.8578 12.6914 13.8402 12.6773C13.8754 12.6633 13.9176 12.6387 13.9316 12.6211C13.8787 12.6236 13.8256 12.62 13.7734 12.6105C13.7418 12.6035 13.7207 12.593 13.7594 12.5754C13.7945 12.5543 13.8121 12.5367 13.8262 12.5227C13.7559 12.5402 13.6539 12.5578 13.566 12.4875C13.6128 12.4957 13.6609 12.4933 13.7066 12.4805C13.6824 12.4646 13.6546 12.4549 13.6258 12.4523C13.6961 12.4172 13.8367 12.3891 14.009 12.4559C14.0934 12.4488 14.1848 12.4559 14.2516 12.4699C14.2797 12.4418 14.3359 12.3785 14.3676 12.3645C14.1637 12.3785 13.8051 12.3398 13.8086 12.2344C13.7418 12.3188 13.5941 12.368 13.5273 12.3539C13.5203 12.3855 13.5484 12.4242 13.573 12.4418C13.5027 12.4559 13.3867 12.4664 13.3305 12.4559C13.3656 12.4875 13.4219 12.5156 13.457 12.5121C13.3867 12.5121 13.3445 12.5262 13.2883 12.5191Z" fill="#7FB8C1"/>
<path id="Vector_25" d="M13.7105 12.7625C13.7632 12.7625 13.8792 12.7555 13.9285 12.7062C13.9074 12.6852 13.8581 12.6922 13.8406 12.6781C13.8757 12.6641 13.9179 12.6395 13.932 12.6219C14.0761 12.6078 14.2062 12.6148 14.266 12.5973C14.3292 12.5797 14.4874 12.5902 14.5156 12.5797C14.3785 12.6008 14.3539 12.6148 14.3468 12.6359C14.3398 12.657 14.389 12.6781 14.4242 12.6781C14.3609 12.6746 14.2835 12.7379 14.2765 12.7625C14.1956 12.7168 14.157 12.773 14.1464 12.7906C14.1113 12.7766 13.9988 12.7801 13.9425 12.8293C13.8652 12.8082 13.816 12.7941 13.7421 12.8082C13.7878 12.7977 13.7773 12.766 13.707 12.759L13.7105 12.7625ZM14.3679 12.3617H14.5507C14.5261 12.3723 14.498 12.3969 14.491 12.4039C14.607 12.3898 14.7652 12.3828 14.8109 12.3898C14.7546 12.3793 14.6984 12.418 14.6703 12.4355C14.6386 12.4531 14.6562 12.4672 14.6949 12.4707C14.7335 12.4777 14.7898 12.5059 14.716 12.4953C14.6456 12.4848 14.505 12.4848 14.4699 12.4918C14.4347 12.4953 14.4136 12.4812 14.4628 12.4742C14.5121 12.4672 14.5472 12.4496 14.5718 12.4355C14.5296 12.4461 14.4523 12.4461 14.4312 12.4355C14.4031 12.432 14.389 12.418 14.4171 12.4109C14.4417 12.4039 14.4242 12.3934 14.396 12.3969C14.3679 12.4004 14.2906 12.432 14.2519 12.4707C14.2976 12.425 14.3363 12.3828 14.3679 12.3652V12.3617ZM13.8441 12.4391C13.8728 12.4722 13.9085 12.4986 13.9486 12.5162C13.9887 12.5338 14.0323 12.5423 14.0761 12.541C14.0972 12.541 14.1394 12.5727 14.0867 12.5762C13.9425 12.5762 13.8687 12.541 13.8054 12.4531C13.7914 12.432 13.816 12.4074 13.8441 12.4391ZM15.6722 11.6656C15.63 11.6937 15.5738 11.743 15.6124 11.8168L15.623 11.8098C15.7876 11.6128 15.9335 11.4009 16.0589 11.177V11.1523C16.0135 11.1913 15.9626 11.2233 15.9078 11.2473C15.9289 11.3 15.8339 11.3703 15.7812 11.3914C15.8023 11.4266 15.7953 11.4758 15.7496 11.4863C15.7601 11.518 15.7249 11.518 15.6863 11.5355C15.6441 11.5531 15.623 11.5672 15.6089 11.5848C15.63 11.5742 15.6617 11.5637 15.6792 11.5707C15.6968 11.5742 15.7003 11.5988 15.6687 11.6059C15.6454 11.6105 15.6243 11.6229 15.6089 11.641C15.6511 11.627 15.7144 11.634 15.6722 11.6656ZM12.6488 10.8887C12.7015 10.9238 12.7894 10.9836 12.9089 10.9766C12.9687 11.0223 13.0601 11.0609 13.1023 11.068C13.0214 11.1031 12.9371 11.1277 12.9124 11.1523C12.8773 11.1172 12.8316 11.1242 12.821 11.1066C12.7859 11.1348 12.7894 11.1523 12.814 11.1664C12.8351 11.1805 13.0074 11.2086 13.0496 11.198C13.0953 11.184 13.1058 11.2191 13.0706 11.2332C12.9792 11.2648 12.7964 11.2332 12.7367 11.1348C12.6734 11.0363 12.6206 10.9977 12.4554 11.0891C12.4343 11.0398 12.4343 11.0293 12.4027 11.0293C12.3675 11.0293 12.3078 10.9871 12.3535 10.9871C12.4027 10.9906 12.5398 10.9695 12.6488 10.8887Z" fill="#7FB8C1"/>
<path id="Vector_26" d="M12.6915 11.1098C12.6634 11.1133 12.5825 11.159 12.5509 11.1625C12.5228 11.1625 12.4735 11.2047 12.5263 11.2082C12.579 11.2082 12.6458 11.152 12.6845 11.1484C12.7196 11.1414 12.7267 11.0992 12.6915 11.1063V11.1098ZM12.9165 11.268V11.3137C12.9095 11.3277 12.9095 11.3418 12.9341 11.3242C12.9552 11.3066 12.9692 11.2891 12.9903 11.2996C13.0149 11.3102 13.0712 11.3102 13.0958 11.3066C13.1204 11.3031 13.131 11.2996 13.0958 11.282C13.0646 11.2693 13.031 11.2633 12.9974 11.2645C12.9763 11.2645 12.9517 11.2609 12.9341 11.2539C12.9165 11.2469 12.9095 11.2504 12.9165 11.268ZM13.7286 11.2715L13.7181 11.2996C13.7813 11.2996 13.936 11.3102 13.9853 11.3418C14.0345 11.3066 14.0239 11.2926 14.0591 11.2996C14.0942 11.3066 14.1364 11.3172 14.1575 11.3066C14.1751 11.2996 14.1892 11.2996 14.2103 11.3031C14.2313 11.3066 14.2735 11.2996 14.3017 11.282C14.3341 11.2634 14.37 11.2515 14.4071 11.2469C14.4423 11.2469 14.4774 11.2399 14.4212 11.2328C14.3632 11.2276 14.3047 11.2336 14.2489 11.2504C14.2208 11.2609 14.1329 11.268 14.0837 11.268C14.031 11.268 13.9606 11.2926 13.9009 11.2785C13.8446 11.2609 13.7603 11.2715 13.7286 11.2715ZM14.706 11.2504C14.7798 11.2856 14.931 11.3137 15.0505 11.3102C15.0716 11.3102 15.1138 11.3313 15.061 11.3348C14.9274 11.3488 14.8079 11.3277 14.6954 11.2645C14.6638 11.2504 14.6743 11.2363 14.706 11.2504ZM14.7833 11.2504C14.8993 11.2434 14.9872 11.2469 15.0224 11.2785C15.0892 11.2574 15.2087 11.2469 15.2333 11.2539C15.2649 11.2574 15.2931 11.2469 15.2333 11.2293C15.1475 11.2139 15.0599 11.2103 14.9731 11.2188C14.9274 11.2258 14.7833 11.2328 14.7341 11.2258C14.7552 11.2293 14.7692 11.2328 14.7833 11.2469V11.2504ZM15.2333 11.2926C15.2895 11.2645 15.4442 11.2926 15.4935 11.2715C15.4583 11.3102 15.606 11.3137 15.729 11.282C15.6833 11.3137 15.5778 11.3172 15.5356 11.3383C15.4899 11.3559 15.4653 11.3418 15.4302 11.3277C15.395 11.3102 15.3106 11.282 15.2333 11.2926Z" fill="#7FB8C1"/>
<path id="Vector_27" d="M15.7281 11.2867C15.6051 11.3148 15.4609 11.3113 15.4926 11.2727C15.4469 11.2938 15.2887 11.2656 15.2324 11.2938C15.2887 11.2586 15.3344 11.2867 15.373 11.2164C15.4012 11.2234 15.4609 11.227 15.4785 11.1988C15.5137 11.2059 15.5805 11.2234 15.598 11.241C15.6191 11.2586 15.6473 11.2375 15.6227 11.2059C15.6789 11.1883 15.6438 11.2305 15.7738 11.1988L15.8934 11.1777C15.8428 11.2195 15.7873 11.2549 15.7281 11.2832V11.2867Z" fill="#7FB8C1"/>
</g>
<path id="Vector_28" d="M16.7695 7.64258C16.7625 9.78359 16.418 12.0863 13.6301 13.1832C10.8422 12.0863 10.5012 9.78359 10.4941 7.64258H16.7695Z" stroke="black" stroke-width="1.8"/>
<g id="Group_2">
<path id="Vector_29" d="M11.7388 8.60694C11.6939 8.66818 11.6393 8.72163 11.5771 8.76514C11.5138 8.80733 11.4294 8.84249 11.4786 8.92335C11.5208 8.99718 11.5595 9.00772 11.57 9.06397C11.5771 9.12374 11.5911 9.17296 11.6404 9.19054C11.6825 9.20108 11.7001 9.19054 11.7001 9.28897C11.7001 9.38741 11.7001 9.41905 11.7423 9.45421C11.781 9.48936 11.7775 9.53155 11.795 9.61241C11.8126 9.7003 11.8126 9.88663 11.8724 10.0167C11.9251 10.1433 12.0482 10.3823 12.0341 10.4316C12.02 10.4808 12.0025 10.5159 12.0587 10.5757C12.1114 10.6355 12.1501 10.7233 12.1501 10.7726C12.1571 10.8218 12.1677 10.8429 12.2204 10.8218C12.2767 10.8042 12.3013 10.7866 12.3224 10.762C12.34 10.7409 12.3786 10.7444 12.4279 10.7726C12.4806 10.8007 12.5544 10.8253 12.6036 10.8007C12.6458 10.7691 12.6669 10.7304 12.7091 10.7304C12.7724 10.6882 12.797 10.5898 12.8111 10.5651C12.8251 10.537 12.8181 10.537 12.79 10.5089C12.7583 10.4808 12.7759 10.4351 12.7689 10.3894C12.7689 10.3472 12.7478 10.2769 12.695 10.1784C12.6353 10.08 12.6071 9.95694 12.5685 9.9253C12.5333 9.89014 12.5157 9.8128 12.5122 9.77765C12.5052 9.74249 12.463 9.70733 12.4349 9.68624C12.4103 9.65108 12.3821 9.61593 12.3505 9.45421C12.3154 9.296 12.2943 9.1835 12.2943 9.15538C12.2943 9.13077 12.2907 9.12022 12.2591 9.12022C12.238 9.10616 12.2239 9.06046 12.231 9.03936C12.2415 9.01475 12.2204 8.99366 12.2099 8.96905C12.2027 8.93249 12.2102 8.89455 12.231 8.86358C12.2486 8.83194 12.245 8.75811 12.2275 8.69483C12.2099 8.63155 12.1923 8.5753 12.1185 8.56827C12.0446 8.55772 12.0271 8.53663 12.0025 8.48038C11.9765 8.41882 11.9554 8.35535 11.9392 8.29054C11.9286 8.27296 11.9146 8.26593 11.8618 8.31514C11.8056 8.35733 11.7915 8.37491 11.7915 8.45577C11.7915 8.51202 11.795 8.5296 11.8126 8.56124C11.8337 8.59639 11.8372 8.60343 11.8513 8.6878C11.8654 8.77569 11.9427 8.90929 11.8443 8.98663C11.7388 9.06749 11.7529 9.08155 11.7599 9.1378C11.7634 9.19405 11.7318 9.22921 11.7142 9.15186C11.6966 9.07452 11.7142 9.02882 11.7704 8.99366C11.8232 8.9585 11.8759 8.9128 11.8372 8.86358C11.8031 8.79452 11.784 8.71906 11.781 8.6421C11.781 8.58585 11.7704 8.56475 11.7388 8.60694Z" fill="#CFA763"/>
<path id="Vector_30" d="M10.9234 9.76389L10.9304 9.87287C10.9339 9.91155 10.9445 9.99241 10.9199 10.0487C10.8847 10.1084 10.8988 10.1365 10.9199 10.1541C10.9761 10.1401 10.9831 10.0768 10.9691 10.0487C10.955 10.0135 10.9585 9.97483 10.9761 9.94319C10.9937 9.91155 10.9937 9.89397 10.9761 9.87287C10.962 9.84827 10.962 9.84827 10.9831 9.78498C10.9972 9.72873 10.9585 9.72873 10.9234 9.76389ZM11.507 10.6463C11.4964 10.6006 11.4577 10.4494 11.4542 10.344C11.4542 10.242 11.4085 10.1612 11.3241 10.0838C11.2538 10.0205 11.2398 9.92561 11.2363 9.84827C11.187 9.81663 11.1659 9.83069 11.173 9.88342C11.173 9.95022 11.2327 9.97834 11.2292 10.0662C11.2187 10.1541 11.2187 10.133 11.2609 10.1752C11.3031 10.2174 11.3241 10.2596 11.296 10.2807C11.2749 10.2983 11.2714 10.3264 11.3031 10.3405C11.3382 10.351 11.3382 10.3862 11.3382 10.4178C11.3277 10.4494 11.3593 10.453 11.3804 10.4811C11.3945 10.5022 11.398 10.5549 11.3804 10.5865C11.3628 10.6182 11.3593 10.6674 11.3909 10.6393C11.4261 10.6147 11.4402 10.6393 11.4613 10.6815C11.4824 10.7166 11.5034 10.7061 11.5245 10.6955C11.517 10.6786 11.5111 10.6609 11.507 10.6428V10.6463ZM11.2398 8.75491C11.2046 8.75491 11.1835 8.78655 11.2046 8.89202C11.2152 8.9553 11.1659 8.93772 11.1449 8.90608C11.1308 8.87444 11.1132 8.80764 11.0816 8.74788C11.0429 8.68811 11.0605 8.79006 11.0534 8.8428C11.0534 8.89553 11.0886 8.89553 11.1167 8.94475C11.1519 8.98694 11.1238 9.00803 11.0851 9.00803C11.0499 9.00803 11.071 9.07834 11.0816 9.13108C11.0921 9.18381 11.071 9.19084 11.0429 9.14866C11.0148 9.10647 11.0324 9.04319 11.0394 8.96584C11.0394 8.89202 11.0499 8.90608 10.9972 8.89202C10.948 8.87092 10.955 8.85686 10.9726 8.81467C10.9902 8.77248 11.0077 8.74787 10.9902 8.72678C10.962 8.70569 10.9691 8.69162 11.0042 8.68459C11.0394 8.68108 11.0288 8.65295 11.0605 8.64592C11.0956 8.63537 11.1062 8.64592 11.1132 8.58967C11.1132 8.54045 11.1308 8.50881 11.1695 8.52639C11.1906 8.60022 11.2187 8.71623 11.2398 8.75491ZM12.0765 9.56702C12.087 9.47209 12.0765 9.37014 12.1187 9.33498C12.1609 9.29983 12.2136 9.226 12.2101 9.38069C12.2031 9.53537 12.1995 9.52131 12.1679 9.5635C12.1327 9.59866 12.1081 9.60569 12.1398 9.66897C12.1714 9.7217 12.1749 9.72873 12.1714 9.82014C12.1679 9.90803 12.1679 9.9467 12.2031 9.99241C12.2382 10.0381 12.2488 10.0416 12.2593 10.0908C12.2703 10.1493 12.2984 10.2032 12.3402 10.2455C12.3824 10.2807 12.4281 10.3862 12.4316 10.46C12.4351 10.5303 12.5019 10.5479 12.5581 10.6006C12.6214 10.6498 12.5441 10.6885 12.5019 10.6639C12.4527 10.6393 12.4738 10.6639 12.4456 10.692C12.421 10.7272 12.4105 10.7307 12.3859 10.678C12.3613 10.6217 12.2874 10.583 12.2488 10.5725C12.2136 10.5584 12.1784 10.5022 12.1503 10.4424C12.1374 10.4169 12.1185 10.395 12.0953 10.3784C12.072 10.3619 12.045 10.3513 12.0167 10.3475C12.0308 10.3897 12.0378 10.4178 12.0343 10.4319C12.0202 10.4811 12.0027 10.5162 12.0589 10.576C12.1116 10.6358 12.1503 10.7237 12.1503 10.7729C12.1574 10.8221 12.1679 10.8432 12.2206 10.8221C12.2769 10.8045 12.3015 10.7869 12.3226 10.7623C12.3402 10.7412 12.3788 10.7447 12.4281 10.7729C12.4808 10.801 12.5546 10.8256 12.6038 10.801C12.646 10.7694 12.6671 10.7307 12.7093 10.7307C12.7726 10.6885 12.7972 10.5901 12.8113 10.5655C12.8253 10.5373 12.8183 10.5373 12.7902 10.5092C12.7585 10.4811 12.7761 10.4354 12.7691 10.3897C12.7691 10.3475 12.748 10.2772 12.6952 10.1787C12.6355 10.0803 12.6074 9.95725 12.5687 9.92561C12.5335 9.89045 12.5159 9.81311 12.5124 9.77795C12.5054 9.7428 12.4632 9.70764 12.4351 9.68655C12.4105 9.65139 12.3824 9.61623 12.3507 9.45452L12.298 9.18733C12.2628 9.23655 12.2417 9.25061 12.2347 9.21897C12.2171 9.17327 12.1995 9.15217 12.1784 9.18381C12.1609 9.20491 12.1574 9.15569 12.1574 9.13459C12.1574 9.1135 12.1574 9.10647 12.1292 9.10647C12.1081 9.10647 12.1292 9.07131 12.1187 9.001C12.1081 8.9342 12.0941 8.92366 12.0835 9.00803C12.0765 9.08889 12.0273 9.13811 12.0484 9.15569C12.0659 9.17327 12.0589 9.21194 12.0378 9.26467C12.0307 9.28461 12.0277 9.30577 12.0289 9.32691C12.0301 9.34804 12.0355 9.36872 12.0449 9.38772C12.0589 9.42287 12.0343 9.49319 12.0273 9.55295C12.0167 9.6092 12.0624 9.66897 12.0765 9.56702ZM11.6968 9.28577C11.6968 9.38069 11.6968 9.41936 11.7425 9.45452C11.7812 9.48967 11.7777 9.52483 11.7952 9.61272C11.8128 9.70061 11.8128 9.88694 11.8726 10.017L11.9359 10.1506C11.964 10.126 11.9886 10.0873 11.9956 10.0627C12.0132 10.0311 11.971 9.9678 11.9359 9.91506C11.9042 9.86233 11.9429 9.84475 11.9745 9.77444C12.0097 9.70412 11.9745 9.70061 11.9218 9.68303C11.8726 9.66545 11.8726 9.61975 11.8445 9.54592C11.8128 9.47561 11.8199 9.44045 11.8374 9.40178C11.855 9.35959 11.8445 9.33147 11.8023 9.32092C11.7671 9.31038 11.7812 9.28577 11.7917 9.23655C11.8058 9.19436 11.8128 9.18381 11.7601 9.19788C11.7214 9.20842 11.7074 9.21545 11.6968 9.22952V9.28577Z" fill="#D7C99C"/>
</g>
<path id="Vector_31" d="M12.5646 9.25391L12.4521 10.4492M12.8951 9.98516C12.8469 10.1982 12.7907 10.4093 12.7264 10.618M14.326 9.40859C14.4104 9.48594 14.5229 9.50352 14.6424 9.56328M14.8779 9.93945L14.8146 10.4M14.8146 9.96055L14.7092 10.4316M12.8178 9.99922C12.7686 10.1996 12.6982 10.3789 12.635 10.5617" stroke="black" stroke-width="0.4"/>
<path id="Vector_32" d="M15.2015 11.1137C15.198 11.114 15.1945 11.114 15.191 11.1137L15.1804 11.1172H15.1699C15.1664 11.1171 15.1629 11.1171 15.1593 11.1172L15.1523 11.1207C15.1488 11.1203 15.1453 11.1203 15.1418 11.1207C15.139 11.1225 15.1366 11.1249 15.1347 11.1277C15.1343 11.1301 15.1343 11.1324 15.1347 11.1348C15.1314 11.1385 15.1279 11.142 15.1242 11.1453L15.1172 11.1523C15.1136 11.1558 15.1101 11.1593 15.1066 11.1629V11.1664C15.1042 11.1686 15.1018 11.171 15.0996 11.1734L15.0961 11.1805C15.0707 11.2003 15.0402 11.2125 15.0082 11.2156C14.9871 11.2227 14.9379 11.2227 14.9133 11.2156C14.8711 11.2156 14.8254 11.2156 14.8008 11.1945C14.7691 11.1805 14.7304 11.191 14.7058 11.2051C14.6883 11.2156 14.6847 11.2332 14.6601 11.2402C14.6496 11.2578 14.5898 11.2543 14.5687 11.2473C14.516 11.2508 14.4879 11.2367 14.4492 11.2227C14.4281 11.2086 14.3894 11.1945 14.3613 11.2227C14.3437 11.2367 14.3226 11.2508 14.291 11.2578C14.2418 11.2578 14.1855 11.2648 14.1504 11.2437C14.1117 11.2437 14.0941 11.2191 14.059 11.2086C14.0168 11.2016 13.9957 11.2227 13.9675 11.2332C13.9429 11.2543 13.9113 11.2543 13.8656 11.2543C13.8234 11.2508 13.7707 11.2578 13.7425 11.2402C13.7074 11.2367 13.6828 11.2156 13.6547 11.2051C13.63 11.184 13.5843 11.2051 13.5597 11.2156C13.5211 11.2227 13.507 11.2508 13.4543 11.2508C13.4191 11.2437 13.391 11.2262 13.3523 11.2156C13.3172 11.2016 13.2855 11.177 13.2293 11.1805C13.2152 11.2016 13.18 11.2121 13.1414 11.2121C13.1062 11.2121 13.0781 11.2121 13.0535 11.2051C12.9832 11.2051 12.955 11.1348 12.9058 11.0961L12.6668 10.857C12.6808 10.8148 12.6843 10.8078 12.6633 10.7797C12.6738 10.7375 12.6422 10.7305 12.6562 10.6883C12.6738 10.6566 12.6211 10.6637 12.6105 10.6461C12.5824 10.6391 12.5683 10.618 12.5402 10.6109C12.5191 10.5934 12.498 10.5828 12.4699 10.5687L12.3996 10.5336C12.382 10.516 12.3609 10.5055 12.3433 10.4914L12.2871 10.4562C12.2625 10.4457 12.2519 10.4281 12.2308 10.4211C12.212 10.4038 12.1907 10.3896 12.1675 10.3789C12.1394 10.3684 12.1113 10.3473 12.0797 10.3438C12.0586 10.3402 12.0515 10.291 12.0902 10.291C12.1218 10.291 12.1394 10.3121 12.1605 10.3262C12.1957 10.3402 12.2308 10.3543 12.2695 10.3613L12.3433 10.3965C12.3679 10.4105 12.3996 10.4141 12.4277 10.4316L12.505 10.4738C12.5297 10.4844 12.5402 10.502 12.5648 10.509C12.5754 10.523 12.5929 10.5266 12.607 10.5406C12.63 10.5468 12.6516 10.5575 12.6703 10.5723C12.6949 10.5863 12.7054 10.5898 12.723 10.6074C12.7441 10.6109 12.8777 10.6777 12.8707 10.6707C13.0008 10.6953 13.057 10.7023 13.1871 10.7199L14.1363 10.734L14.4773 10.5934L14.5828 10.4281L15.089 10.3332C15.0785 10.3227 15.9785 10.3016 15.9996 10.3789C16.0066 10.4105 16.0312 10.4738 15.9996 10.4879C15.982 10.4984 15.1523 10.3824 15.1383 10.4598C15.1347 10.4914 15.1383 10.6918 15.1453 10.7234L15.1593 10.8219L15.1734 10.9203L15.1875 11.0187L15.2015 11.1137Z" fill="#666666"/>
<g id="Group_3">
<path id="Vector_33" d="M12.6277 9.83555C12.4766 10.0113 12.3219 10.152 12.1602 10.282M13.468 9.12891L13.9602 8.7M13.2465 9.55078C13.3484 9.62109 13.4574 9.68086 13.6086 9.71953M13.1797 8.90391C13.2395 9.00234 13.3133 9.09727 13.5277 9.15M13.0355 7.93359C12.9529 8.03679 12.8469 8.11875 12.7262 8.17266M13.2148 8.53125C13.2852 8.60156 13.3836 8.64023 13.4855 8.67891M13.2148 10.0148C13.2641 10.2609 13.3063 10.4578 13.3625 10.6582" stroke="black" stroke-width="0.4"/>
<path id="Vector_34" d="M13.1758 10.6516C13.4308 10.4023 13.6392 10.1094 13.791 9.78672M14.3184 8.83398C14.3957 8.92188 14.4836 8.98516 14.6172 9.02031M14.6699 8.51758C14.7402 8.64414 14.8281 8.73555 14.9055 8.84102M13.9141 8.13086C13.907 8.25391 13.8297 8.37695 13.777 8.48242" stroke="black" stroke-width="0.4"/>
<path id="Vector_35" d="M14.0904 8.19102C13.999 8.29297 13.9146 8.40195 13.7881 8.46523M14.1045 7.74805C14.0375 7.79552 13.9656 7.8356 13.89 7.86758M15.0432 8.69375C14.9658 8.78164 14.892 8.88711 14.7654 8.96445M15.0572 9.43906C14.9588 9.53047 14.8744 9.63945 14.7619 9.70977M15.0748 10.332C15.2664 10.2289 15.4477 10.1076 15.6162 9.96992C15.4721 10.107 15.3279 10.2477 15.1662 10.3496M15.117 8.71133C15.1521 8.79219 15.2225 8.88008 15.2928 8.93984" stroke="black" stroke-width="0.4"/>
</g>
<path id="Vector_36" d="M15.0121 7.8957L14.998 10.3531L15.1738 10.3426L15.1035 7.88867L15.0121 7.8957Z" fill="#BCA76B" stroke="#472B1F" stroke-width="0.3"/>
<g id="Group_4">
<path id="Vector_37" d="M15.1312 11.0602C15.1734 11.0883 15.2015 11.1094 15.2332 11.141C15.314 11.2184 15.3632 11.2184 15.4792 11.141C15.5144 11.148 15.5601 11.1727 15.6058 11.1621C15.646 11.1617 15.6861 11.157 15.7253 11.148C15.771 11.134 15.7781 11.0777 15.7957 11.0391C15.8167 10.9969 15.8378 10.9477 15.8695 10.9125C15.9117 10.8809 15.9574 10.8527 15.9855 10.8105C16.0207 10.7754 16.0136 10.7262 16.0066 10.6805L15.996 10.5504C15.989 10.4941 16.0382 10.452 16.0312 10.3922C16.0066 10.3746 15.9609 10.3641 15.9257 10.3535C15.8598 10.3382 15.7928 10.3276 15.7253 10.3219L15.5601 10.3113L15.4019 10.3008C15.3386 10.3008 15.2789 10.3008 15.2191 10.3078C15.1769 10.3148 15.1242 10.3078 15.0855 10.3324C15.075 10.3746 15.0609 10.4133 15.0609 10.4555L15.0539 10.5715C15.0539 10.6418 15.0468 10.7121 15.0679 10.7789L15.096 10.9441C15.096 10.9863 15.0996 11.0285 15.1312 11.0602Z" fill="#333333" stroke="black" stroke-width="1.2"/>
<path id="Vector_38" d="M15.332 9.86914L15.5781 10.3262M15.9402 10.3473C15.8699 10.2699 15.8137 10.182 15.7715 10.0801" stroke="black" stroke-width="0.4"/>
</g>
<path id="Vector_39" d="M15.9256 9.63672L16.0064 9.69297C15.9854 9.67188 15.9607 9.64375 15.9256 9.63672ZM15.7568 9.65781L15.7463 9.66133L15.6338 10.1043L15.7568 9.65781ZM16.2947 9.67891C16.2666 9.67891 16.2385 9.68945 16.2104 9.70352L16.2596 9.68594L16.3229 9.67891C16.3112 9.67773 16.2994 9.67773 16.2877 9.67891H16.2947ZM15.7674 10.0797H15.7463C15.7675 10.0794 15.7884 10.0855 15.8061 10.0973L15.7674 10.0797ZM15.8131 10.1008C15.8482 10.1184 15.8693 10.143 15.901 10.15L15.8131 10.1008ZM16.0768 10.1254L15.9256 10.1605C15.9783 10.1605 16.024 10.1395 16.0768 10.1254Z" fill="#472B1F"/>
<path id="Vector_40" d="M15.7643 9.63242L15.6377 10.1035L15.7713 10.0754L15.9119 10.1562L16.1299 10.1141L16.2389 10.1281C16.274 9.97695 16.2635 9.80117 16.3514 9.67109L16.2635 9.68516L16.1229 9.73438L16.0068 9.69219L15.9189 9.62891L15.7643 9.63242Z" fill="white"/>
<path id="Vector_41" d="M15.9713 9.68945C15.944 9.7318 15.9272 9.77998 15.9221 9.83008C15.9221 9.83008 15.8588 9.80547 15.8236 9.80195H15.7182L15.6865 9.91797C15.69 9.91797 15.7744 9.90391 15.8096 9.91094C15.8377 9.91445 15.8904 9.94258 15.8904 9.94258L15.8482 10.1184L15.8764 10.1359L15.9326 10.1535L15.9607 10.1465C15.9713 10.0867 15.9783 10.0234 16.0064 9.97773C16.0064 9.97773 16.0943 10.0023 16.1436 9.99883L16.2631 9.98477C16.2631 9.94961 16.2701 9.91094 16.2771 9.87226C16.2596 9.87578 16.1857 9.89687 16.1471 9.88984C16.1084 9.88984 16.0416 9.85469 16.0416 9.85469C16.0486 9.8125 16.0662 9.77383 16.0873 9.73516L15.9713 9.68945Z" fill="#C8102E"/>
<path id="Vector_42" d="M15.6729 9.63242C15.6012 9.43147 15.5483 9.22434 15.5146 9.01367" stroke="black" stroke-width="0.6"/>
<g id="Group_5">
<path id="Vector_43" d="M15.7258 9.66721C15.7258 9.66721 15.8664 9.63205 15.9227 9.6426C15.9859 9.65666 16.0246 9.72697 16.0879 9.73401C16.1582 9.74807 16.2215 9.68127 16.2988 9.67424L16.4008 9.68479L16.3516 9.86057L16.3094 10.0012V10.1313C16.3094 10.1313 16.1934 10.1031 16.1336 10.1102C16.0527 10.1207 15.993 10.1594 15.9156 10.1524C15.8559 10.1418 15.8313 10.0961 15.775 10.0821C15.7328 10.0715 15.6133 10.0996 15.6133 10.0996L15.7258 9.66721Z" stroke="#472B1F" stroke-width="1.2"/>
<g id="Group_6">
<path id="Vector_44" d="M15.7502 9.66016L15.6939 9.66367L15.5146 10.2965L15.5955 10.3L15.7502 9.66016Z" fill="#BCA76B" stroke="#472B1F" stroke-width="0.3"/>
<path id="Vector_45" d="M15.6944 9.66816C15.6697 9.65058 15.6487 9.61191 15.6627 9.5873C15.6768 9.55918 15.726 9.55215 15.7541 9.55918C15.7893 9.56972 15.835 9.60488 15.8244 9.64004C15.8104 9.68222 15.733 9.68925 15.6944 9.66465V9.66816Z" fill="#BCA76B" stroke="#472B1F" stroke-width="0.3"/>
</g>
</g>
<path id="Vector_46" d="M16.3439 9.67773C16.2596 9.8043 16.2666 9.97305 16.2314 10.1207L16.3088 10.1348V10.0047L16.3475 9.86055L16.3967 9.68828L16.3439 9.67773Z" fill="#472B1F"/>
<path id="Vector_47" d="M15.3213 9.16953C15.4127 9.2293 15.5041 9.3875 15.6271 9.51406M15.49 8.9375C15.4178 8.72402 15.3752 8.50163 15.3635 8.27656M15.2299 9.95352L15.3705 10.3191M15.3705 8.1043C15.2475 8.06914 15.135 7.98828 15.1174 7.91797M14.583 8.22383C14.6604 8.22734 14.9346 8.02695 14.9768 7.91797M15.2791 9.90078L15.4725 10.3086M15.2615 10.0379L15.4021 9.98867M15.2896 10.1152L15.4373 10.052M15.3494 10.2699L15.5111 10.1996M15.1807 9.46133L15.3811 9.67227M14.7658 9.97109L14.6287 10.4281M14.7271 10.073H14.8678M14.6955 10.1855L14.8537 10.1891M14.6568 10.3016L14.8326 10.3367" stroke="black" stroke-width="0.4"/>
<g id="Group_7">
<path id="Vector_48" d="M15.1178 7.83197C15.0861 7.82142 15.0018 7.8179 14.9666 7.84603C14.9525 7.86009 14.9666 7.90931 14.9877 7.90931C15.0334 7.90931 15.0932 7.90931 15.1143 7.90228C15.1283 7.8847 15.1424 7.839 15.1213 7.83197H15.1178Z" fill="#BCA76B" stroke="#472B1F" stroke-width="0.4"/>
<g id="Vector_49">
<path d="M14.625 8.21445C14.6813 8.45352 14.9344 8.41484 14.9273 8.19336Z" fill="#BCA76B"/>
<path d="M14.625 8.21445C14.6813 8.45352 14.9344 8.41484 14.9273 8.19336" stroke="#472B1F" stroke-width="0.5"/>
</g>
<g id="Vector_50">
<path d="M14.8574 8.20469C14.9348 8.47891 15.2652 8.43672 15.2477 8.18359Z" fill="#BCA76B"/>
<path d="M14.8574 8.20469C14.9348 8.47891 15.2652 8.43672 15.2477 8.18359" stroke="#472B1F" stroke-width="0.6"/>
</g>
<g id="Vector_51">
<path d="M15.1385 8.19844C15.2088 8.40234 15.3143 8.36719 15.4443 8.18086ZM15.5146 8.10352L14.583 8.15977V8.21953L15.5252 8.17031L15.5146 8.10352ZM14.6568 9.03867C14.7166 9.30234 14.9803 9.26367 14.9732 9.02461Z" fill="#BCA76B"/>
<path d="M15.1385 8.19844C15.2088 8.40234 15.3143 8.36719 15.4443 8.18086M14.6568 9.03867C14.7166 9.30234 14.9803 9.26367 14.9732 9.02461M15.5146 8.10352L14.583 8.15977V8.21953L15.5252 8.17031L15.5146 8.10352Z" stroke="#472B1F" stroke-width="0.5"/>
</g>
<g id="Vector_52">
<path d="M14.8994 9.02773C14.9768 9.33359 15.3213 9.28789 15.3072 9.01367Z" fill="#BCA76B"/>
<path d="M14.8994 9.02773C14.9768 9.33359 15.3213 9.28789 15.3072 9.01367" stroke="#472B1F" stroke-width="0.6"/>
</g>
<g id="Vector_53">
<path d="M15.1873 9.02812C15.2646 9.24961 15.3736 9.21094 15.5107 9.01055ZM15.5846 8.92969L14.6143 8.97539V9.03867L15.5986 9.00703L15.5846 8.92969ZM14.6318 9.78047C14.6951 10.0547 14.9623 10.009 14.9553 9.75938Z" fill="#BCA76B"/>
<path d="M15.1873 9.02812C15.2646 9.24961 15.3736 9.21094 15.5107 9.01055M14.6318 9.78047C14.6951 10.0547 14.9623 10.009 14.9553 9.75938M15.5846 8.92969L14.6143 8.97539V9.03867L15.5986 9.00703L15.5846 8.92969Z" stroke="#472B1F" stroke-width="0.5"/>
</g>
<g id="Vector_54">
<path d="M14.8818 9.77227C14.9451 10.173 15.3143 10.0289 15.3002 9.74414Z" fill="#BCA76B"/>
<path d="M14.8818 9.77227C14.9451 10.173 15.3143 10.0289 15.3002 9.74414" stroke="#472B1F" stroke-width="0.6"/>
</g>
<g id="Vector_55">
<path d="M15.1768 9.76289C15.2611 9.99141 15.3736 9.9457 15.5037 9.73828Z" fill="#BCA76B"/>
<path d="M15.1768 9.76289C15.2611 9.99141 15.3736 9.9457 15.5037 9.73828" stroke="#472B1F" stroke-width="0.6"/>
</g>
<path id="Vector_56" d="M15.5848 9.65625L14.5898 9.7125V9.78281L15.5918 9.73008L15.5848 9.65625Z" fill="#BCA76B" stroke="#472B1F" stroke-width="0.5"/>
<path id="Vector_57" d="M15.2471 8.58789L14.8779 8.59492V8.68984H15.2506L15.2471 8.58789ZM15.2471 9.36484L14.8814 9.37539V9.47031L15.2541 9.4668L15.2471 9.36484Z" fill="#BCA76B" stroke="#472B1F" stroke-width="0.3"/>
</g>
<g id="Group_8">
<path id="Vector_58" d="M14.3289 9.79102L14.6031 10.4449M12.9543 9.99492C12.9191 10.2059 12.877 10.4625 12.8242 10.6629" stroke="black" stroke-width="0.6"/>
<path id="Vector_59" d="M16.0062 10.391C15.7309 10.336 15.4488 10.3229 15.1695 10.3523C14.9867 10.3629 14.8004 10.3734 14.6316 10.4227C14.607 10.4332 14.5824 10.4438 14.5648 10.4578C14.5156 10.5035 14.5121 10.5844 14.4699 10.6336C14.4277 10.6898 14.2801 10.7742 14.2238 10.8129C13.8301 10.8234 13.3871 10.8129 12.8879 10.7426L12.8246 10.6652L12.793 10.6371L12.8668 10.6652L13.0461 10.6688L13.4785 10.6547C13.4785 10.6547 13.8406 10.6547 14.0199 10.6441L14.3293 10.6195C14.3504 10.6195 14.375 10.6195 14.3926 10.609C14.4277 10.5879 14.4313 10.5492 14.4523 10.5176C14.4734 10.493 14.4875 10.4543 14.5156 10.4332C14.593 10.3805 14.6914 10.384 14.7758 10.3664C14.8812 10.3453 14.9727 10.3418 15.0746 10.3277L15.4297 10.2961C15.5035 10.2961 15.5844 10.2891 15.6582 10.2961C15.7742 10.2996 15.9043 10.2961 16.0027 10.3523C16.0238 10.3594 16.0555 10.3805 16.0414 10.4016C16.0344 10.4121 16.0168 10.391 16.0027 10.391H16.0062Z" fill="black" stroke="black" stroke-width="0.4"/>
<path id="Vector_60" d="M14.1926 7.74805C14.2523 7.79375 14.3578 7.83242 14.4668 7.85M14.0695 9.41094C13.9494 9.496 13.8165 9.56128 13.6758 9.6043M14.4176 10.5746L14.1996 10.0086M14.2453 9.82227L14.4984 10.4727M14.2137 9.99102L14.3789 9.93125" stroke="black" stroke-width="0.4"/>
</g>
<path id="Vector_61" d="M14.1045 7.66406L14.0518 10.684L14.2275 10.6734L14.1959 7.66406H14.1045Z" fill="#BCA76B" stroke="#472B1F" stroke-width="0.3"/>
<path id="Vector_62" d="M14.3193 8.13086C14.3947 8.27256 14.5163 8.38421 14.6639 8.44727" stroke="black" stroke-width="0.6"/>
<g id="Group_9">
<g id="Vector_63">
<path d="M13.7354 7.94531C13.7916 8.20547 14.0553 8.1668 14.0482 7.92773Z" fill="#BCA76B"/>
<path d="M13.7354 7.94531C13.7916 8.20547 14.0553 8.1668 14.0482 7.92773" stroke="#472B1F" stroke-width="0.5"/>
</g>
<g id="Vector_64">
<path d="M13.9785 7.93359C14.0523 8.23594 14.3969 8.19023 14.3828 7.91602Z" fill="#BCA76B"/>
<path d="M13.9785 7.93359C14.0523 8.23594 14.3969 8.19023 14.3828 7.91602" stroke="#472B1F" stroke-width="0.6"/>
</g>
<g id="Vector_65">
<path d="M14.2664 7.93438C14.3437 8.15234 14.4773 8.17344 14.5863 7.91328ZM14.6637 7.83594L13.6934 7.87813V7.94844L14.6742 7.90625L14.6637 7.83594ZM13.7355 8.54961C13.7918 8.81328 14.0555 8.77461 14.0484 8.53555Z" fill="#BCA76B"/>
<path d="M14.2664 7.93438C14.3437 8.15234 14.4773 8.17344 14.5863 7.91328M13.7355 8.54961C13.7918 8.81328 14.0555 8.77461 14.0484 8.53555M14.6637 7.83594L13.6934 7.87813V7.94844L14.6742 7.90625L14.6637 7.83594Z" stroke="#472B1F" stroke-width="0.5"/>
</g>
<g id="Vector_66">
<path d="M13.9785 8.54297C14.0523 8.84531 14.3969 8.79961 14.3828 8.52539Z" fill="#BCA76B"/>
<path d="M13.9785 8.54297C14.0523 8.84531 14.3969 8.79961 14.3828 8.52539" stroke="#472B1F" stroke-width="0.6"/>
</g>
<g id="Vector_67">
<path d="M14.2664 8.5418C14.3437 8.76328 14.5652 8.72461 14.5863 8.5207ZM14.6637 8.44336L13.6934 8.48555V8.55586L14.6742 8.51367L14.6637 8.44336Z" fill="#BCA76B"/>
<path d="M14.2664 8.5418C14.3437 8.76328 14.5652 8.72461 14.5863 8.5207M14.6637 8.44336L13.6934 8.48555V8.55586L14.6742 8.51367L14.6637 8.44336Z" stroke="#472B1F" stroke-width="0.5"/>
</g>
</g>
<path id="Vector_68" d="M14.0234 8.89062C13.9355 8.94688 13.8547 9.01719 13.7422 9.05234" stroke="black" stroke-width="0.6"/>
<g id="Group_10">
<g id="Vector_69">
<path d="M13.7041 9.12305C13.7639 9.3832 14.0275 9.34805 14.0205 9.10547Z" fill="#BCA76B"/>
<path d="M13.7041 9.12305C13.7639 9.3832 14.0275 9.34805 14.0205 9.10547" stroke="#472B1F" stroke-width="0.5"/>
</g>
<g id="Vector_70">
<path d="M13.9502 9.1082C14.0205 9.41758 14.3686 9.37188 14.3545 9.09766Z" fill="#BCA76B"/>
<path d="M13.9502 9.1082C14.0205 9.41758 14.3686 9.37188 14.3545 9.09766" stroke="#472B1F" stroke-width="0.6"/>
</g>
<g id="Vector_71">
<path d="M14.2387 9.10859C14.3125 9.33359 14.5129 9.26328 14.5551 9.09453ZM14.6359 9.01367L13.6621 9.05586V9.12617L14.6465 9.08398L14.6359 9.01367Z" fill="#BCA76B"/>
<path d="M14.2387 9.10859C14.3125 9.33359 14.5129 9.26328 14.5551 9.09453M14.6359 9.01367L13.6621 9.05586V9.12617L14.6465 9.08398L14.6359 9.01367Z" stroke="#472B1F" stroke-width="0.5"/>
</g>
</g>
<path id="Vector_72" d="M13.8266 9.81211C13.7984 10.1145 13.6789 10.3816 13.6016 10.6629M13.932 9.81914C13.9074 10.1074 13.816 10.3781 13.7422 10.6523M14.0234 9.79102C13.998 10.0803 13.9498 10.3671 13.8793 10.6488" stroke="black" stroke-width="0.4"/>
<g id="Group_11">
<g id="Vector_73">
<path d="M13.7178 9.66836C13.774 9.93203 14.0412 9.89336 14.0342 9.6543Z" fill="#BCA76B"/>
<path d="M13.7178 9.66836C13.774 9.93203 14.0412 9.89336 14.0342 9.6543" stroke="#472B1F" stroke-width="0.5"/>
</g>
<g id="Vector_74">
<path d="M13.9609 9.66016C14.0348 9.9625 14.3828 9.9168 14.3688 9.64258Z" fill="#BCA76B"/>
<path d="M13.9609 9.66016C14.0348 9.9625 14.3828 9.9168 14.3688 9.64258" stroke="#472B1F" stroke-width="0.6"/>
</g>
<g id="Vector_75">
<path d="M14.2523 9.66094C14.3227 9.87891 14.5195 9.83672 14.5687 9.63984ZM14.6496 9.5625L13.6758 9.60469V9.675L14.6566 9.63281L14.6496 9.5625Z" fill="#BCA76B"/>
<path d="M14.2523 9.66094C14.3227 9.87891 14.5195 9.83672 14.5687 9.63984M14.6496 9.5625L13.6758 9.60469V9.675L14.6566 9.63281L14.6496 9.5625Z" stroke="#472B1F" stroke-width="0.5"/>
</g>
<path id="Vector_76" d="M14.3363 8.24023L13.9883 8.25781V8.34922H14.3398L14.3363 8.24023ZM14.3258 8.83438L14.0164 8.84141V8.9293H14.3258V8.83438ZM14.3434 9.40391L14.0094 9.41797V9.50586H14.3469L14.3434 9.40391Z" fill="#BCA76B" stroke="#472B1F" stroke-width="0.2"/>
</g>
<path id="Vector_77" d="M13.8168 9.92461L13.9996 9.95977M13.7781 10.0898L13.989 10.0969M13.743 10.2129L13.9609 10.2762M13.6867 10.4027L13.9398 10.3922M13.641 10.5609L13.9082 10.5539M13.5812 9.80859C13.5461 10.1145 13.7465 10.4027 13.8449 10.6594M14.3969 10.5012L14.5656 10.4484M14.3547 10.4062L14.548 10.3254M14.2949 10.2621L14.4953 10.2023M14.2492 10.1215L14.4426 10.0723" stroke="black" stroke-width="0.4"/>
<path id="Vector_78" d="M13.1975 11.198L13.1307 11.1875L13.0639 11.1629L13.0076 11.1242C12.9877 11.1105 12.9688 11.0953 12.9514 11.0785L12.8916 11.0187L12.8318 10.9555C12.8143 10.9344 12.7896 10.9203 12.7756 10.8957C12.758 10.8781 12.758 10.85 12.7404 10.8289C12.7193 10.8254 12.6842 10.8219 12.6842 10.7902C12.6736 10.7691 12.6701 10.748 12.649 10.748C12.6385 10.748 12.635 10.7656 12.642 10.7551C12.6279 10.748 12.6314 10.7797 12.6314 10.7621L12.6139 10.7973C12.6033 10.8184 12.6068 10.843 12.635 10.8465C12.6596 10.8465 12.6631 10.8781 12.6842 10.8887L12.7439 10.9449C12.765 10.9695 12.7791 10.9801 12.7932 11.0082C12.8037 11.0293 12.8283 11.0434 12.8424 11.0574L12.8811 11.1102C12.8985 11.1284 12.9187 11.1438 12.9408 11.1559L12.9936 11.1875C13.0146 11.198 13.0357 11.2121 13.0568 11.2156C13.0814 11.2297 13.1096 11.2262 13.1377 11.2297C13.1623 11.2297 13.1869 11.2297 13.208 11.2156C13.2326 11.198 13.208 11.2016 13.1975 11.198ZM14.6143 10.5125C14.5791 10.5863 14.5299 10.6918 14.4666 10.7586C14.6775 10.7973 14.8428 10.741 15.0291 10.7094C15.0109 10.6239 15.0073 10.5359 15.0186 10.4492C14.8674 10.4633 14.7619 10.4949 14.6143 10.5125Z" fill="black"/>
<path id="Vector_79" d="M14.6316 10.5336C14.6035 10.6004 14.5859 10.6672 14.5332 10.727C14.702 10.7621 14.8426 10.7094 14.9973 10.6812C14.9656 10.6215 14.9762 10.5512 14.9867 10.4844L14.6316 10.5336Z" fill="#333333"/>
<path id="Vector_80" d="M12.8389 10.8319L13.44 10.8776C13.9471 10.8929 14.4545 10.8729 14.9588 10.8178C14.9799 10.8178 15.0115 10.8108 15.0186 10.8283C15.0256 10.8494 14.9939 10.8776 14.9729 10.8811C14.4209 10.9514 13.8619 10.9268 13.31 10.9233L12.9795 10.8881L12.8389 10.8319Z" fill="black"/>
<path id="Vector_81" d="M13.0574 9.48164C12.9027 9.60117 12.748 9.7207 12.5723 9.79102M13.082 8.91211C12.9414 9.01758 12.8008 9.14062 12.6496 9.20391" stroke="black" stroke-width="0.6"/>
<path id="Vector_82" d="M13.0293 7.875V10.6945L13.1805 10.684L13.0926 7.85742L13.0293 7.875Z" fill="#BCA76B" stroke="#472B1F" stroke-width="0.3"/>
<path id="Vector_83" d="M13.0918 7.85742C13.2148 7.99805 13.3168 8.07187 13.4223 8.16328" stroke="black" stroke-width="0.6"/>
<path id="Vector_84" d="M13.1305 7.77738C13.0989 7.76331 13.0145 7.7598 12.9829 7.79847C12.9653 7.81956 12.9829 7.88988 13.0004 7.88988C13.0461 7.88988 13.1059 7.89339 13.12 7.87581C13.1411 7.85472 13.1551 7.78792 13.1305 7.77738Z" fill="#BCA76B" stroke="#472B1F" stroke-width="0.4"/>
<path id="Vector_85" d="M13.0427 11.0611C13.0463 11.0365 13.0638 11.026 13.0884 11.026C13.1131 11.026 13.1412 11.0225 13.1588 11.033C13.1763 11.033 13.1869 11.0471 13.2045 11.0541C13.215 11.0682 13.2326 11.0752 13.2467 11.0822C13.2959 11.1033 13.2677 11.0436 13.2994 11.04C13.324 11.04 13.3486 11.033 13.3697 11.04C13.3873 11.0436 13.3943 11.0576 13.4049 11.0682C13.4154 11.0787 13.4295 11.0893 13.433 11.0998C13.4365 11.1139 13.4927 11.1385 13.4927 11.1033C13.5068 11.0822 13.4998 11.04 13.5384 11.0436C13.5806 11.0436 13.6158 11.0541 13.6545 11.0576C13.6756 11.0646 13.6896 11.0682 13.7072 11.0857C13.7213 11.0928 13.7213 11.1103 13.7353 11.1103C13.7705 11.1385 13.767 11.0857 13.7775 11.0682C13.7881 11.0541 13.8127 11.0576 13.8302 11.0471C13.8549 11.04 13.8759 11.033 13.9111 11.033L13.9638 11.0646C13.9779 11.0752 13.992 11.0893 13.999 11.1068C13.999 11.1279 14.0201 11.142 14.0342 11.1279C14.0447 11.1068 14.0623 11.1068 14.0763 11.0928C14.0939 11.0928 14.1045 11.0822 14.115 11.0682C14.1256 11.0682 14.1361 11.0471 14.1431 11.0365C14.1607 11.026 14.1959 11.0295 14.224 11.026C14.2521 11.033 14.2767 11.0365 14.2943 11.0506C14.3013 11.0611 14.3119 11.0752 14.3259 11.0787C14.333 11.0963 14.3541 11.0822 14.3681 11.0787C14.3825 11.0681 14.3978 11.0586 14.4138 11.0506C14.4279 11.0365 14.449 11.0295 14.4736 11.0295C14.5052 11.026 14.5193 11.04 14.5439 11.0436C14.5685 11.0541 14.5931 11.0541 14.6072 11.0682C14.6248 11.0822 14.6459 11.0893 14.6634 11.0752C14.6845 11.0752 14.6705 11.033 14.6775 11.026C14.7021 11.0049 14.7619 11.0084 14.7935 11.0189C14.8181 11.0189 14.8498 11.0189 14.8674 11.026C14.8849 11.0295 14.8884 11.0471 14.8955 11.0611C14.9025 11.0787 14.9482 11.0787 14.9658 11.0682C14.9799 11.0682 14.9623 11.0436 14.9552 11.0365C14.9447 11.033 14.9342 11.0154 14.9306 11.0049C14.9517 10.9943 14.9658 11.0154 14.9834 11.0189L15.022 11.0436C15.0396 11.0506 15.0572 11.0611 15.0853 11.0576C15.1134 11.0646 15.0994 11.1033 15.0713 11.0928C15.0467 11.1033 15.0115 11.0963 14.9834 11.0998C14.9412 11.0928 14.8955 11.0963 14.8533 11.0963C14.8322 11.1033 14.797 11.0998 14.7689 11.1068C14.7443 11.1068 14.7232 11.1139 14.6951 11.1103L14.6037 11.1139L14.5193 11.1244H14.449C14.4103 11.135 14.3611 11.1279 14.3189 11.1314L14.2486 11.135L14.1677 11.142C14.1396 11.142 14.115 11.149 14.0869 11.1455C14.0412 11.1525 13.992 11.1455 13.9463 11.149C13.9217 11.1455 13.89 11.149 13.8654 11.142H13.7951C13.7775 11.1314 13.7424 11.142 13.7248 11.135C13.6861 11.135 13.6545 11.1279 13.6193 11.1314H13.4119C13.3943 11.1244 13.3627 11.1314 13.3416 11.1279H13.2185C13.1869 11.1209 13.1552 11.1279 13.1271 11.1139C13.0884 11.1068 13.0357 11.0928 13.0392 11.0611H13.0427Z" fill="black" stroke="black" stroke-width="0.8"/>
<g id="Group_12">
<g id="Vector_86">
<path d="M12.7021 8.21953C12.7514 8.40234 12.9834 8.37422 12.9764 8.20898Z" fill="#BCA76B"/>
<path d="M12.7021 8.21953C12.7514 8.40234 12.9834 8.37422 12.9764 8.20898" stroke="#472B1F" stroke-width="0.4"/>
</g>
<g id="Vector_87">
<path d="M12.9131 8.21406C12.9834 8.425 13.2822 8.39688 13.2717 8.20703Z" fill="#BCA76B"/>
<path d="M12.9131 8.21406C12.9834 8.425 13.2822 8.39688 13.2717 8.20703" stroke="#472B1F" stroke-width="0.5"/>
</g>
<g id="Vector_88">
<path d="M13.1697 8.21328C13.233 8.37148 13.3525 8.38203 13.451 8.19922ZM13.5143 8.14648L12.667 8.17461V8.22031L13.5213 8.1957L13.5143 8.14648Z" fill="#BCA76B"/>
<path d="M13.1697 8.21328C13.233 8.37148 13.3525 8.38203 13.451 8.19922M13.5143 8.14648L12.667 8.17461V8.22031L13.5213 8.1957L13.5143 8.14648Z" stroke="#472B1F" stroke-width="0.4"/>
</g>
</g>
<path id="Vector_89" d="M12.934 8.55664C12.8566 8.62344 12.7195 8.70781 12.6562 8.69727" stroke="black" stroke-width="0.6"/>
<path id="Vector_90" d="M12.7791 8.32227C12.5963 9.02187 12.3572 9.76016 12.1357 10.3508" stroke="black" stroke-width="0.6"/>
<g id="Group_13">
<g id="Vector_91">
<path d="M12.6943 8.74648C12.7436 8.94336 12.9826 8.91172 12.9756 8.73242Z" fill="#BCA76B"/>
<path d="M12.6943 8.74648C12.7436 8.94336 12.9826 8.91172 12.9756 8.73242" stroke="#472B1F" stroke-width="0.4"/>
</g>
<g id="Vector_92">
<path d="M12.8955 8.74258C12.9588 9.00625 13.2717 8.96406 13.2611 8.72852Z" fill="#BCA76B"/>
<path d="M12.8955 8.74258C12.9588 9.00625 13.2717 8.96406 13.2611 8.72852" stroke="#472B1F" stroke-width="0.6"/>
</g>
<g id="Vector_93">
<path d="M13.1764 8.73633C13.2467 8.90508 13.3803 8.91914 13.4893 8.7293ZM13.5279 8.64844L12.6561 8.68359V8.74688L13.535 8.71172L13.5279 8.64844ZM12.6455 9.24961C12.7018 9.49219 12.9619 9.45352 12.9514 9.23555Z" fill="#BCA76B"/>
<path d="M13.1764 8.73633C13.2467 8.90508 13.3803 8.91914 13.4893 8.7293M12.6455 9.24961C12.7018 9.49219 12.9619 9.45352 12.9514 9.23555M13.5279 8.64844L12.6561 8.68359V8.74688L13.535 8.71172L13.5279 8.64844Z" stroke="#472B1F" stroke-width="0.5"/>
</g>
<g id="Vector_94">
<path d="M12.8848 9.2457C12.9586 9.59727 13.3207 9.54805 13.3066 9.22461Z" fill="#BCA76B"/>
<path d="M12.8848 9.2457C12.9586 9.59727 13.3207 9.54805 13.3066 9.22461" stroke="#472B1F" stroke-width="0.7"/>
</g>
<g id="Vector_95">
<path d="M13.1658 9.24531C13.2396 9.4457 13.3768 9.46328 13.4787 9.22422ZM13.5525 9.15039L12.5576 9.19258L12.5611 9.24883L13.5596 9.2207L13.5525 9.15039ZM12.6279 9.83242C12.6877 10.0961 12.9689 10.0574 12.9584 9.82188Z" fill="#BCA76B"/>
<path d="M13.1658 9.24531C13.2396 9.4457 13.3768 9.46328 13.4787 9.22422M12.6279 9.83242C12.6877 10.0961 12.9689 10.0574 12.9584 9.82188M13.5525 9.15039L12.5576 9.19258L12.5611 9.24883L13.5596 9.2207L13.5525 9.15039Z" stroke="#472B1F" stroke-width="0.5"/>
</g>
</g>
<path id="Vector_96" d="M13.359 9.97344C13.4188 10.2195 13.4926 10.448 13.5664 10.659M13.2852 9.96289C13.3227 10.1979 13.3791 10.4295 13.4539 10.6555" stroke="black" stroke-width="0.6"/>
<g id="Group_14">
<g id="Vector_97">
<path d="M12.8848 9.82617C12.9551 10.1742 13.3207 10.1426 13.3172 9.80859Z" fill="#BCA76B"/>
<path d="M12.8848 9.82617C12.9551 10.1742 13.3207 10.1426 13.3172 9.80859" stroke="#472B1F" stroke-width="0.6"/>
</g>
<g id="Vector_98">
<path d="M13.1904 9.82578C13.2748 10.0438 13.4119 10.0648 13.5279 9.8082ZM13.6053 9.7168L12.5049 9.75898V9.84336L13.6229 9.80117L13.6053 9.7168Z" fill="#BCA76B"/>
<path d="M13.1904 9.82578C13.2748 10.0438 13.4119 10.0648 13.5279 9.8082M13.6053 9.7168L12.5049 9.75898V9.84336L13.6229 9.80117L13.6053 9.7168Z" stroke="#472B1F" stroke-width="0.6"/>
</g>
<path id="Vector_99" d="M13.2506 8.47656L12.9342 8.48711V8.55742H13.2506V8.47656ZM13.2506 8.98984L12.9342 9.00039V9.0707H13.2506V8.98984ZM13.2717 9.54883L12.9307 9.55937V9.62969H13.2752L13.2717 9.54883Z" fill="#BCA76B" stroke="#472B1F" stroke-width="0.2"/>
</g>
<g id="Group_15">
<path id="Vector_100" d="M13.3912 10.0469L13.2119 10.082M13.4193 10.1805L13.24 10.2191M13.4615 10.3316L13.2787 10.3246M13.5143 10.4758L13.3244 10.5074M12.667 10.4477L12.8568 10.4828M12.7232 10.293L12.892 10.3281M12.7654 10.1734L12.9236 10.2121M12.7971 10.0645L12.9377 10.0926" stroke="black" stroke-width="0.4"/>
<path id="Vector_101" d="M15.0537 10.6967C15.3701 10.6827 15.7463 10.644 16.0064 10.7459M15.0783 10.8022C15.3693 10.7405 15.6708 10.7501 15.9572 10.8303M15.1064 11.0131C15.3351 10.9605 15.5724 10.9569 15.8025 11.0026M15.1311 11.0623C15.3459 11.1126 15.5691 11.115 15.785 11.0694" stroke="black" stroke-width="0.9"/>
</g>
<path id="Vector_102" d="M12.0518 10.3262L12.7338 10.741L12.7514 10.7234L12.5334 10.5723C12.3835 10.4708 12.2218 10.3882 12.0518 10.3262Z" fill="black"/>
<g id="Group_16">
<path id="Vector_103" d="M15.3313 10.6637L15.3242 10.4387M15.4016 10.4387V10.6742M15.5281 10.6742V10.4316M15.6723 10.4527V10.6883M15.7566 10.4492V10.6918M15.8691 10.4773V10.6953M15.9289 10.4738V10.7199M15.3594 10.7656V10.9801M15.2891 10.7762V10.9801M15.4754 10.7691L15.4684 10.973M15.5457 10.7656V10.9695M15.6512 10.7656L15.6371 10.9625M15.7461 10.7902L15.7109 10.973" stroke="black" stroke-width="0.4"/>
<path id="Vector_104" d="M15.0605 10.4528C15.377 10.4177 15.6863 10.4598 15.9992 10.488" stroke="black" stroke-width="0.9"/>
</g>
<path id="Vector_105" d="M16.7695 7.64258C16.7695 6.8375 16.7238 6.05703 16.7449 5.37148C15.7008 4.90742 14.3297 4.8125 13.6301 4.8125C12.9305 4.8125 11.5594 4.90742 10.5188 5.37148C10.5398 6.05703 10.4941 6.8375 10.4941 7.64258H16.7695Z" stroke="black" stroke-width="1.8"/>
<path id="Vector_106" d="M13.4434 6.33594C13.4434 6.33594 13.5559 6.50469 13.5875 6.59258C13.6016 6.63828 13.6086 6.6875 13.6051 6.7332C13.598 6.81758 13.5664 6.90195 13.5418 6.9793C13.5207 7.03555 13.482 7.07773 13.5066 7.13398C13.5137 7.15859 13.5242 7.1832 13.5523 7.17969C13.5699 7.17617 13.577 7.15508 13.591 7.14453L13.6227 7.12344C13.6367 7.11641 13.6578 7.12695 13.6719 7.11641C13.6824 7.10234 13.693 7.08125 13.6824 7.0707C13.6754 7.06016 13.6578 7.0707 13.6438 7.0707C13.6227 7.0707 13.6016 7.08477 13.5875 7.07422C13.5699 7.06719 13.5629 7.02148 13.5629 7.02148L13.6121 6.88438C13.6297 6.84922 13.6543 6.81406 13.6578 6.77188V6.7332C13.6613 6.71211 13.6578 6.6875 13.6684 6.67344C13.6789 6.66289 13.7035 6.67344 13.707 6.66289C13.7281 6.61719 13.6402 6.58555 13.6227 6.53633C13.6156 6.51875 13.6227 6.50117 13.6121 6.48359C13.598 6.44141 13.5523 6.37461 13.5523 6.37461L13.4434 6.33594Z" fill="#69737C" stroke="black" stroke-width="0.7"/>
<path id="Vector_107" d="M13.7955 6.46797C13.7955 6.46797 13.8975 6.59102 13.908 6.66484C13.908 6.68242 13.8975 6.7 13.8939 6.71406C13.8939 6.74219 13.9115 6.7668 13.9115 6.79141C13.9045 6.8793 13.8623 6.95664 13.8412 7.0375L13.792 7.25195L13.8588 7.24492L13.8693 7.13945L13.9186 6.95664C13.9291 6.91445 13.9361 6.86875 13.9502 6.82656C13.9607 6.80195 13.9818 6.77734 13.9854 6.74922C13.9959 6.71406 14.0064 6.67188 13.9924 6.63672C13.9854 6.62617 13.9678 6.62266 13.9572 6.61211C13.9372 6.58885 13.9206 6.5628 13.908 6.53477C13.8904 6.50664 13.8729 6.44336 13.8729 6.44336C13.8623 6.45039 13.7955 6.46445 13.7955 6.46445V6.46797Z" fill="#66452B" stroke="black" stroke-width="0.7"/>
<path id="Vector_108" d="M13.3242 6.23633L13.3945 6.29609L13.5176 6.36641L13.5773 6.37344L13.6406 6.39805L13.718 6.39453L13.7777 6.4543L13.7953 6.46484L13.8621 6.45781L13.8867 6.42969L14.0133 6.23633L13.9816 5.91992L13.384 5.95859L13.3242 6.23633Z" fill="white"/>
<path id="Vector_109" d="M13.9711 5.70559C14.0546 5.76891 14.1302 5.8421 14.1961 5.92355C14.2418 5.9798 14.2699 6.06066 14.3438 6.09582C14.4457 6.20129 14.8781 6.32785 14.8781 6.36301C14.7797 6.32082 14.7375 6.45793 14.6391 6.43332C14.5512 6.46145 14.4738 6.40168 14.3965 6.37004C14.2795 6.35787 14.1614 6.37857 14.0555 6.4298C13.9992 6.46145 13.9324 6.41574 13.8867 6.4298L13.8797 6.44035L13.8727 6.44738M13.3242 6.23645C13.2539 6.20129 13.2047 6.13801 13.1379 6.10285C13.0887 6.03254 13.0254 5.96223 13.0289 5.8673C13.0219 5.77238 12.9938 5.6423 13.0395 5.5509C13.0078 5.48059 12.9656 5.45949 12.927 5.38918C12.9024 5.29426 12.8039 5.23801 12.8637 5.16418C12.927 5.10441 12.9727 5.03762 13.057 5.00598C13.1276 4.99112 13.2009 4.99723 13.268 5.02355C13.3524 5.03059 13.4016 5.10441 13.4438 5.17121C13.5 5.25857 13.5371 5.3568 13.5527 5.45949C13.5949 5.54035 13.7004 5.55793 13.7777 5.59309C13.8481 5.62824 13.9149 5.65285 13.9711 5.70559" fill="white"/>
<path id="Vector_110" d="M14.4458 6.26544C14.4106 6.26192 14.3297 6.29357 14.3508 6.24435C14.2665 6.23732 14.1786 6.25841 14.0977 6.23028C14.0141 6.19171 13.927 6.16111 13.8376 6.13888C13.7497 6.13536 13.6477 6.15294 13.5774 6.08263C13.5071 6.04396 13.4086 6.07208 13.3454 6.01232C13.3132 5.98667 13.2873 5.95402 13.2696 5.91686C13.252 5.8797 13.243 5.83901 13.2434 5.79786C13.2329 5.71349 13.2012 5.6045 13.2926 5.55177C13.3559 5.53419 13.4122 5.55177 13.4473 5.492C13.5217 5.48411 13.5964 5.50279 13.6583 5.54474C13.7426 5.57989 13.827 5.6045 13.9043 5.65021C13.9747 5.69942 14.0379 5.75919 14.1047 5.81544C14.161 5.87521 14.2208 5.93146 14.2559 6.0088C14.2981 6.08966 14.3825 6.13185 14.4563 6.17755C14.4985 6.1881 14.6004 6.23732 14.5055 6.24786C14.4844 6.25489 14.4633 6.26544 14.4422 6.26544H14.4458Z" fill="black"/>
<path id="Vector_111" d="M13.5946 5.99373C13.5506 5.99062 13.5082 5.97608 13.4715 5.95154C13.4469 5.93748 13.3766 5.89529 13.4223 5.86365C13.4575 5.86365 13.4997 5.87771 13.5313 5.8531C13.5805 5.84256 13.6368 5.84256 13.679 5.81795C13.7212 5.79334 13.7704 5.81091 13.8196 5.79685C13.8477 5.77927 13.8442 5.71248 13.8934 5.72654C13.9391 5.71248 13.9286 5.80037 13.8864 5.77224C13.8618 5.8074 13.9321 5.82146 13.9497 5.84256C13.9883 5.88474 13.904 5.89529 13.8969 5.92693C13.8442 5.94451 13.8055 5.87771 13.7563 5.89177C13.7422 5.91287 13.7563 5.94802 13.7176 5.94099C13.6719 5.91287 13.6333 5.94099 13.5876 5.94802C13.6016 5.95857 13.5735 5.99373 13.5911 5.99373H13.5946ZM14.5122 6.31013C14.4876 6.29607 14.4559 6.31013 14.4278 6.31013C14.4102 6.31013 14.3926 6.31013 14.3715 6.3031C14.3469 6.3031 14.2942 6.27146 14.2872 6.31365C14.2872 6.32771 14.3329 6.33826 14.2942 6.34177C14.259 6.34881 14.2239 6.33123 14.1887 6.31716C14.1747 6.3031 14.1465 6.28904 14.1536 6.31716C14.1641 6.34881 14.136 6.35935 14.1114 6.35935C14.0766 6.35889 14.0431 6.34647 14.0165 6.3242C13.9989 6.34529 14.0411 6.37693 14.0657 6.37693C14.0903 6.39802 14.0305 6.39099 14.0165 6.38748C13.9919 6.38748 13.9672 6.38045 13.9497 6.39451C13.9215 6.40154 13.9215 6.42966 13.9567 6.42615C13.9883 6.4367 14.027 6.44724 14.0587 6.42966C14.0938 6.40857 14.129 6.39451 14.1712 6.38748C14.2025 6.38074 14.2342 6.37604 14.2661 6.37341C14.3118 6.36638 14.354 6.3699 14.3962 6.3699C14.4313 6.38748 14.4665 6.3699 14.4911 6.35584C14.5122 6.34881 14.5649 6.32771 14.5262 6.31365C14.5227 6.31365 14.5157 6.30662 14.5122 6.31013Z" fill="#69737C"/>
<path id="Vector_112" d="M14.3961 6.37083C14.4137 6.37083 14.4312 6.37083 14.4453 6.3638C14.4594 6.35326 14.4805 6.34974 14.4945 6.34271C14.5191 6.34271 14.5297 6.31458 14.5051 6.30755C14.4932 6.29977 14.4801 6.29384 14.4664 6.28997L14.4207 6.26185L14.4523 6.22669C14.4664 6.21966 14.4875 6.21966 14.5016 6.21615H14.5367L14.5895 6.23724L14.6457 6.26185L14.6914 6.27591C14.7055 6.28646 14.7266 6.28997 14.7441 6.29349C14.7652 6.30052 14.7723 6.3181 14.7934 6.3181C14.8145 6.3181 14.832 6.32513 14.8496 6.33919C14.8602 6.34271 14.8848 6.35326 14.8848 6.3638C14.8637 6.3638 14.8496 6.35326 14.832 6.35677C14.818 6.35677 14.8109 6.37083 14.7934 6.37083C14.7863 6.38841 14.7582 6.38841 14.7477 6.40599C14.7295 6.42047 14.7094 6.43231 14.6879 6.44115C14.6716 6.4463 14.654 6.44504 14.6387 6.43763H14.5789C14.5595 6.43937 14.5401 6.43572 14.5227 6.42708C14.5051 6.42357 14.491 6.41302 14.477 6.40247C14.4594 6.39544 14.4277 6.38841 14.4102 6.37786L14.3926 6.37083H14.3961ZM13.1094 4.99622C13.0883 4.99622 13.0742 4.99622 13.0566 5.00326C13.0278 5.01032 13.002 5.02632 12.9828 5.04896C12.9583 5.07845 12.9299 5.10447 12.8984 5.1263C12.8844 5.13551 12.8725 5.14747 12.8633 5.16146C12.8809 5.17552 12.909 5.17904 12.9195 5.16146C12.9377 5.13692 12.9619 5.11754 12.9898 5.10521C13.018 5.10169 13.0426 5.11224 13.0672 5.11224C13.0883 5.1263 13.1094 5.13333 13.1305 5.13685C13.1445 5.14036 13.1656 5.14036 13.1797 5.1474L13.25 5.16497C13.2781 5.172 13.3062 5.16849 13.3344 5.16497H13.352L13.3449 5.18607C13.3449 5.20013 13.352 5.21771 13.3625 5.23177L13.3871 5.27396L13.4082 5.32318L13.4258 5.36536C13.4328 5.37943 13.4363 5.39349 13.4469 5.40404L13.482 5.44974L13.5031 5.48841C13.5172 5.49896 13.5277 5.51302 13.5453 5.51302L13.5945 5.50599H13.5875C13.5734 5.49544 13.5664 5.48138 13.5594 5.46732L13.5488 5.4181C13.5488 5.40052 13.5418 5.38646 13.5383 5.3724L13.5242 5.33021L13.5066 5.29154L13.4891 5.24583L13.4645 5.20013L13.4398 5.16146L13.4223 5.14388C13.4223 5.14036 13.4223 5.12982 13.4117 5.11927C13.4012 5.10521 13.3836 5.09115 13.3766 5.07357C13.3555 5.05247 13.3273 5.04544 13.2992 5.03138C13.2686 5.01958 13.2368 5.01132 13.2043 5.00677C13.1781 4.99891 13.1508 4.99535 13.1234 4.99622H13.1094Z" fill="black"/>
<path id="Vector_113" d="M13.4085 5.42492C13.4085 5.40031 13.3803 5.41086 13.3698 5.42492C13.3522 5.43898 13.3452 5.46007 13.3276 5.47062C13.2995 5.49172 13.2608 5.49523 13.2327 5.51632C13.2186 5.53039 13.2081 5.55148 13.1835 5.56203C13.1624 5.57257 13.1378 5.58664 13.1272 5.61125C13.1237 5.62531 13.1132 5.64992 13.1272 5.66398C13.1518 5.67453 13.1272 5.69562 13.1307 5.70968C13.1413 5.72375 13.1659 5.73078 13.1835 5.72023C13.2046 5.70617 13.2292 5.69211 13.2432 5.67453C13.2612 5.6471 13.2852 5.62423 13.3136 5.60773C13.3324 5.60338 13.3495 5.5936 13.3628 5.57961C13.3768 5.56554 13.3628 5.54445 13.3874 5.54093C13.405 5.53039 13.4155 5.51281 13.4261 5.49875C13.4401 5.48117 13.419 5.46359 13.4225 5.44601C13.4225 5.43898 13.4225 5.42843 13.412 5.42492H13.4085Z" fill="#69737C"/>
<path id="Vector_114" d="M13.7424 7.27035H13.6264C13.6053 7.2598 13.5912 7.22816 13.5666 7.24222L13.5068 7.27035C13.4871 7.28149 13.4702 7.29715 13.4576 7.31605C13.4541 7.3266 13.4189 7.34066 13.4471 7.34066C13.4752 7.34066 13.4893 7.31605 13.5174 7.31254C13.535 7.30551 13.5596 7.31254 13.5771 7.30902C13.5947 7.30902 13.6123 7.31254 13.6334 7.30902L13.6967 7.31605C13.7248 7.31605 13.6826 7.33363 13.6721 7.34066L13.6018 7.35824C13.5771 7.35824 13.5525 7.35824 13.5314 7.36527L13.4611 7.40043C13.4506 7.41097 13.4225 7.42504 13.4506 7.42504C13.4717 7.42504 13.4928 7.42504 13.5139 7.41449C13.548 7.40165 13.5833 7.39223 13.6193 7.38636C13.6475 7.38636 13.6686 7.3723 13.6896 7.36879C13.7072 7.36879 13.7459 7.36176 13.7354 7.38636C13.7186 7.40446 13.6982 7.41884 13.6756 7.42855C13.658 7.4391 13.6404 7.45316 13.6193 7.45316C13.6018 7.44613 13.5631 7.46019 13.5912 7.47777C13.6053 7.50238 13.6334 7.4848 13.6475 7.47777C13.6677 7.46668 13.6889 7.45727 13.7107 7.44965L13.7811 7.42152C13.8021 7.41097 13.8268 7.40746 13.8443 7.3934C13.8619 7.37933 13.89 7.3723 13.8971 7.34769C13.9041 7.3266 13.9182 7.31605 13.9393 7.30902C13.9604 7.3055 13.9814 7.30902 14.0025 7.30199C14.0271 7.30199 14.0201 7.25629 13.999 7.25629C13.9779 7.24574 13.9639 7.22816 13.9428 7.22113C13.9199 7.20983 13.8944 7.20497 13.8689 7.20707C13.8587 7.20768 13.8488 7.21091 13.8402 7.21645C13.8316 7.22199 13.8245 7.22966 13.8197 7.23871C13.8057 7.25277 13.8021 7.2809 13.7775 7.27386C13.767 7.27738 13.7529 7.27386 13.7424 7.27035ZM13.1729 7.41097C13.1729 7.41097 13.1939 7.33363 13.2221 7.30551C13.2914 7.25867 13.3689 7.22528 13.4506 7.20707C13.3803 7.23168 13.2924 7.21058 13.2221 7.23168C13.1658 7.24925 13.0674 7.32308 13.0674 7.32308C13.0674 7.32308 13.1025 7.24574 13.1342 7.2141C13.215 7.12269 13.3451 7.11215 13.4471 7.12621L13.5596 7.14379C13.5596 7.14379 13.5771 7.15433 13.5701 7.17191C13.5525 7.20707 13.4998 7.22816 13.4646 7.24574C13.3592 7.29847 13.2361 7.33715 13.1729 7.41449V7.41097Z" fill="#66452B" stroke="black" stroke-width="0.7"/>
<path id="Vector_115" d="M13.5172 7.12634C13.4258 7.18962 13.2148 7.30212 13.2219 7.30564C13.2219 7.30564 13.4011 7.26345 13.482 7.22478C13.5136 7.21072 13.5523 7.20017 13.5629 7.17205C13.5629 7.15447 13.5594 7.13689 13.5453 7.12634C13.5409 7.12417 13.5361 7.12305 13.5312 7.12305C13.5263 7.12305 13.5215 7.12417 13.5172 7.12634Z" fill="#69737C" stroke="black" stroke-width="0.7"/>
<path id="Vector_116" d="M13.95 6.65234C13.9289 6.65234 13.9254 6.69102 13.9219 6.71211C13.9219 6.72969 13.9219 6.75781 13.9395 6.75781C13.957 6.75781 13.9641 6.72266 13.9641 6.70508C13.9641 6.6875 13.9676 6.65234 13.95 6.65234Z" fill="#69737C"/>
<path id="Vector_117" d="M13.8581 7.24595C13.8581 7.22837 13.8335 7.23892 13.8265 7.24595C13.8019 7.24595 13.7843 7.26001 13.7667 7.27056L13.7175 7.29868L13.6296 7.3479L13.5874 7.36196C13.5769 7.36196 13.5839 7.37251 13.5909 7.36899C13.612 7.37603 13.6366 7.37251 13.6542 7.36548L13.7245 7.34438C13.7351 7.33384 13.7597 7.32681 13.7737 7.31978L13.8265 7.30571C13.844 7.29165 13.837 7.2811 13.8616 7.2811C13.8757 7.2811 13.8757 7.25649 13.8616 7.25649C13.8601 7.25524 13.859 7.25359 13.8584 7.25172C13.8577 7.24986 13.8577 7.24786 13.8581 7.24595Z" fill="#69737C" stroke="black" stroke-width="0.7"/>
<path id="Vector_118" d="M13.6514 7.43959C13.6654 7.43608 13.6865 7.43608 13.7006 7.42905L13.7568 7.41147L13.785 7.3974C13.8025 7.38686 13.8131 7.36928 13.8201 7.3517L13.8447 7.31303C13.8447 7.30248 13.8342 7.29545 13.8271 7.306L13.792 7.32709L13.7639 7.3517C13.7533 7.36576 13.7463 7.38334 13.7322 7.3974L13.7111 7.41147L13.6584 7.43256L13.6514 7.43959Z" fill="#69737C" stroke="black" stroke-width="0.7"/>
<path id="Vector_119" d="M13.8689 6.2582C13.876 6.26523 13.8795 6.2793 13.8795 6.29336L13.8865 6.33555C13.8865 6.35312 13.8725 6.36016 13.8689 6.37773V6.40586C13.8619 6.42344 13.8689 6.44102 13.8619 6.45859C13.8549 6.47266 13.8303 6.45859 13.8162 6.46562C13.8021 6.46562 13.7881 6.46914 13.7811 6.45508L13.7459 6.41992C13.7283 6.40234 13.7107 6.38477 13.7037 6.36719L13.6756 6.32852L13.6686 6.30742M13.7178 6.39531H13.6404C13.6299 6.39531 13.6088 6.39531 13.6018 6.38828C13.5912 6.38828 13.5877 6.37773 13.5771 6.37422C13.5666 6.36719 13.5596 6.37422 13.5525 6.37422M13.5525 6.37422L13.5279 6.33906C13.5174 6.33906 13.5104 6.33203 13.5033 6.325C13.4963 6.325 13.4893 6.31094 13.4857 6.30391L13.4717 6.28281L13.4576 6.25469V6.24766M13.5525 6.37422C13.5525 6.3918 13.5279 6.37422 13.5174 6.3707L13.4928 6.36016L13.4717 6.34609C13.4611 6.34258 13.4506 6.33906 13.4471 6.33203L13.4119 6.31445C13.4049 6.30391 13.3908 6.29687 13.3803 6.28984L13.3451 6.2582C13.3346 6.25117 13.324 6.24063 13.324 6.22656C13.3226 6.21432 13.319 6.20242 13.3135 6.19141V6.17383" stroke="black" stroke-width="0.7"/>
<path id="Vector_120" d="M14.4453 6.384C14.4571 6.38458 14.469 6.38339 14.4805 6.38049L14.5156 6.36994C14.5297 6.36642 14.5402 6.35236 14.5508 6.35588L14.593 6.35236C14.5963 6.3472 14.6011 6.34312 14.6067 6.34062C14.6123 6.33812 14.6185 6.33731 14.6246 6.3383L14.6598 6.34181L14.6949 6.35236L14.7301 6.36994C14.7406 6.37697 14.7195 6.384 14.716 6.38752C14.7055 6.39455 14.6914 6.38752 14.6809 6.39806C14.6703 6.4051 14.6598 6.41213 14.6562 6.42267C14.6492 6.43674 14.6352 6.43322 14.6246 6.43674H14.5648L14.5297 6.4297C14.5191 6.42267 14.5121 6.41213 14.498 6.41213C14.4805 6.40861 14.4699 6.39806 14.4523 6.39103C14.4492 6.38962 14.4467 6.38712 14.4453 6.384Z" fill="#BCA76B"/>
<path id="Vector_121" d="M12.9377 5.3043C12.9095 5.29727 12.8814 5.30781 12.8533 5.30781C12.8287 5.31484 12.8006 5.30781 12.776 5.31133C12.7478 5.3043 12.7197 5.31133 12.6916 5.31133C12.6494 5.31836 12.6107 5.33594 12.5685 5.34297H12.3998C12.3576 5.34648 12.3998 5.29727 12.4244 5.29727C12.4771 5.2832 12.5299 5.26562 12.5791 5.26211L12.6986 5.23398L12.7935 5.20937C12.8287 5.20586 12.8638 5.19883 12.892 5.20586L12.9974 5.17422C13.0256 5.16016 13.0607 5.16719 13.0888 5.14961C13.1064 5.125 13.1381 5.125 13.1697 5.125C13.1978 5.13203 13.2295 5.14258 13.2506 5.1707C13.2717 5.20234 13.2049 5.19883 13.2224 5.23047C13.2119 5.24453 13.1873 5.24453 13.1732 5.24453C13.1556 5.24453 13.1381 5.24805 13.124 5.24102C13.0994 5.23047 13.0783 5.21289 13.0537 5.19883C13.0291 5.19531 13.0291 5.2375 13.001 5.23398C12.9588 5.24805 12.9201 5.24453 12.8779 5.24453C12.9025 5.25508 12.9306 5.26562 12.9482 5.27969C12.9588 5.29375 12.9447 5.29727 12.9342 5.30078L12.9377 5.3043Z" fill="black" stroke="black" stroke-width="0.4"/>
<path id="Vector_122" d="M13.0996 5.18885L13.1242 5.1783L13.1418 5.15369C13.1418 5.15369 13.1629 5.18885 13.1523 5.19939C13.1383 5.21345 13.0996 5.18885 13.0996 5.18885ZM13.1699 5.12908C13.1734 5.12556 13.1488 5.10799 13.1699 5.10447C13.1875 5.07986 13.2191 5.09744 13.2438 5.10447C13.293 5.12205 13.3422 5.13963 13.3738 5.1783C13.4195 5.23103 13.4266 5.30135 13.4652 5.36111L13.5004 5.449C13.5074 5.4701 13.5426 5.4947 13.525 5.51931C13.5004 5.53338 13.4793 5.51931 13.4582 5.50877C13.4301 5.50877 13.4441 5.54041 13.4617 5.54392C13.4828 5.55095 13.4898 5.5826 13.4617 5.57908C13.4336 5.57908 13.4055 5.57908 13.3773 5.57205C13.3562 5.55799 13.3844 5.53689 13.3949 5.52986C13.409 5.51931 13.4336 5.50877 13.4301 5.48416C13.4301 5.449 13.402 5.41385 13.3949 5.37869C13.3893 5.34874 13.381 5.31933 13.3703 5.2908C13.3562 5.23103 13.3 5.18533 13.2438 5.16775L13.1734 5.1326L13.1699 5.12908Z" fill="white"/>
<path id="Vector_123" d="M13.3736 5.16133L13.3982 5.17188L13.4229 5.21055L13.4299 5.23164C13.4299 5.24219 13.4404 5.2457 13.4475 5.25625L13.458 5.28789C13.4615 5.29492 13.4686 5.30547 13.4686 5.31602L13.4791 5.34062C13.4826 5.34414 13.4826 5.3582 13.4721 5.3582C13.4653 5.35651 13.4592 5.35284 13.4545 5.34766C13.4439 5.34062 13.4369 5.32656 13.4334 5.31602C13.4288 5.30956 13.4253 5.30245 13.4229 5.29492L13.4158 5.27031L13.4053 5.24219L13.3912 5.21406C13.3877 5.20352 13.3701 5.17891 13.3736 5.16484V5.16133ZM13.1908 5.09102C13.184 5.08932 13.1779 5.08565 13.1732 5.08047L13.1557 5.06992C13.1451 5.07344 13.1557 5.05937 13.1486 5.06289L13.1416 5.04883L13.1311 5.03828C13.1311 5.03828 13.124 5.03125 13.1311 5.03125H13.1486L13.1662 5.03828H13.1943C13.1943 5.03477 13.1943 5.03828 13.2014 5.03828C13.2049 5.03828 13.2084 5.0418 13.2084 5.03828C13.2189 5.03828 13.2189 5.04883 13.2225 5.05234C13.2295 5.05586 13.2295 5.06289 13.233 5.06641V5.08047L13.2154 5.0875C13.2084 5.0875 13.2049 5.09453 13.1979 5.09102H13.1873H13.1908Z" fill="#BCA76B"/>
<path id="Vector_124" d="M13.1734 5.0793C13.1629 5.0793 13.1559 5.08633 13.1453 5.08281C13.1383 5.08281 13.1348 5.08984 13.1277 5.09336L13.1102 5.10039L13.0926 5.09336C13.0926 5.09336 13.0926 5.08633 13.0855 5.08281L13.0715 5.07578C13.0645 5.07578 13.0645 5.06875 13.0645 5.06523V5.04766C13.0645 5.04414 13.075 5.04062 13.0785 5.04414H13.1137L13.1312 5.03711C13.1383 5.03711 13.1383 5.04414 13.1453 5.04766L13.1734 5.0793ZM13.2227 5.05117L13.2438 5.04414L13.2684 5.04766C13.2789 5.04766 13.2859 5.05469 13.293 5.0582L13.3176 5.06875L13.3387 5.0793L13.3633 5.09336L13.3809 5.11094C13.3844 5.11797 13.3809 5.125 13.3738 5.12148L13.3492 5.11094C13.3422 5.11094 13.3352 5.11094 13.3281 5.10391L13.3035 5.09687L13.2754 5.08281L13.2578 5.0793L13.2297 5.06172C13.2297 5.06172 13.2191 5.05469 13.2227 5.05117Z" fill="white"/>
<path id="Vector_125" d="M13.3387 5.22031C13.307 5.2168 13.2789 5.23086 13.2438 5.22031C13.2227 5.22031 13.2051 5.23438 13.184 5.24492C13.1559 5.24141 13.1488 5.28008 13.1277 5.28008C13.1066 5.27305 13.0855 5.25898 13.0645 5.26602C13.1066 5.28359 13.1488 5.30117 13.184 5.3293C13.2051 5.34688 13.2262 5.36445 13.2543 5.37148C13.2684 5.37852 13.2895 5.39609 13.2824 5.41719C13.2754 5.4418 13.2367 5.44883 13.2367 5.47344C13.2332 5.49805 13.2051 5.50859 13.1945 5.52969C13.184 5.54727 13.1629 5.55781 13.1594 5.57891C13.1664 5.60703 13.1945 5.58594 13.1945 5.56836C13.2016 5.55078 13.2191 5.52266 13.2367 5.5332C13.2543 5.55781 13.2754 5.51914 13.2965 5.52969C13.307 5.54375 13.3281 5.55078 13.3387 5.52969C13.3527 5.52617 13.3738 5.51563 13.3598 5.49453C13.3598 5.47695 13.3844 5.47695 13.3949 5.46641C13.4125 5.45938 13.4301 5.43828 13.4125 5.42422C13.3984 5.39961 13.4125 5.37148 13.3949 5.35391C13.3773 5.3293 13.3949 5.29766 13.3809 5.27305C13.3703 5.25547 13.3633 5.22734 13.3422 5.2168L13.3387 5.22031Z" fill="black"/>
<path id="Vector_126" d="M14.1858 6.07817C14.1506 6.07817 14.1225 6.10278 14.0838 6.1063C14.0417 6.11333 14.0979 6.13091 14.1085 6.14145C14.1436 6.16255 14.1858 6.1731 14.221 6.18716C14.2561 6.20122 14.2983 6.21177 14.337 6.20474C14.3721 6.19771 14.3475 6.15903 14.337 6.14145C14.3159 6.1063 14.2772 6.09224 14.2526 6.06763C14.2315 6.05005 14.1999 6.05356 14.1823 6.07817H14.1858Z" fill="#69737C"/>
<path id="Vector_127" d="M14.1614 6.15273L14.1227 6.15977C14.1051 6.15977 14.0875 6.16328 14.077 6.15273C14.0594 6.15273 14.0418 6.1457 14.0278 6.13867C14.0172 6.13164 14.0032 6.12812 13.9926 6.11406C13.9856 6.10352 14.0067 6.1 14.0137 6.1C14.0278 6.09648 14.0489 6.09297 14.0665 6.09648L14.1192 6.12109L14.1579 6.1457L14.1614 6.15273ZM14.3372 6.14219C14.3372 6.15977 14.3125 6.14219 14.302 6.14922C14.2844 6.14922 14.2668 6.14922 14.2528 6.13867L14.1684 6.10703C14.1579 6.10352 14.1297 6.08945 14.1473 6.07539C14.1649 6.06484 14.1825 6.0543 14.2036 6.05078C14.2247 6.05078 14.2387 6.06484 14.2598 6.07187C14.2774 6.07891 14.2985 6.08594 14.3161 6.10352C14.3266 6.11055 14.3407 6.12812 14.3372 6.14219Z" fill="white"/>
<path id="Vector_128" d="M13.8517 5.96875C13.8236 5.98281 13.792 5.98984 13.7638 5.98984C13.7357 6.00039 13.69 5.97578 13.6795 6.01094C13.6654 6.04258 13.7006 6.05313 13.7217 6.06719C13.7779 6.09531 13.8412 6.09531 13.901 6.09883C13.9185 6.09883 13.9713 6.0918 13.9467 6.0707C13.9115 6.04961 13.8904 6.01797 13.8658 5.98633C13.8588 5.98281 13.8517 5.97578 13.8517 5.96875ZM14.1576 5.98633L14.1224 5.97578L14.0767 5.95469C14.0556 5.94062 14.0345 5.92656 14.0135 5.91953C14.0029 5.9125 14.0064 5.90195 14.017 5.90195C14.0275 5.90195 14.031 5.88789 14.0416 5.89844C14.0592 5.90547 14.0697 5.91602 14.0802 5.93008C14.0943 5.94063 14.1084 5.95469 14.1224 5.9582C14.1365 5.96523 14.1576 5.97227 14.1576 5.98633ZM14.1154 6.04258C14.1154 6.04258 14.0627 6.06016 14.0345 6.04961L13.9783 6.03203C13.9572 6.01797 13.9326 6.00742 13.915 5.98984C13.901 5.97227 13.9185 5.94414 13.9396 5.95469C13.9572 5.94766 13.9502 5.91953 13.9713 5.93359C13.9994 5.94414 14.0275 5.9582 14.0521 5.9793L14.0978 6.01797L14.1154 6.04258ZM13.7006 5.65234C13.7357 5.66289 13.7814 5.68047 13.806 5.71211C13.8342 5.75078 13.7709 5.77539 13.7427 5.75078C13.697 5.72617 13.6478 5.70508 13.5986 5.69102C13.5494 5.69805 13.6197 5.72617 13.6338 5.73672C13.6549 5.75078 13.6724 5.77187 13.6724 5.79648C13.6373 5.82461 13.6021 5.79648 13.5635 5.79297C13.5283 5.78945 13.5037 5.75781 13.4791 5.72969C13.4615 5.70859 13.4439 5.69805 13.4193 5.70859C13.4193 5.74375 13.4404 5.75078 13.4545 5.77891C13.4685 5.79297 13.5213 5.83516 13.472 5.83867C13.4529 5.83368 13.4349 5.82489 13.4192 5.81281C13.4035 5.80073 13.3904 5.78561 13.3806 5.76836C13.3595 5.74727 13.3455 5.69805 13.3877 5.69453C13.4263 5.66992 13.472 5.65938 13.5177 5.65938C13.567 5.65586 13.6197 5.66289 13.6689 5.64883C13.6724 5.64883 13.7041 5.63477 13.7006 5.64883V5.65234Z" fill="#69737C"/>
<path id="Vector_129" d="M13.324 5.68164L13.3135 5.71328V5.75195L13.324 5.78359L13.3486 5.8082L13.3732 5.8293L13.3979 5.83984L13.426 5.84687C13.4365 5.84687 13.4471 5.84687 13.4506 5.83633C13.4611 5.8293 13.4506 5.82578 13.4436 5.82227C13.433 5.82227 13.4295 5.81523 13.4225 5.80469C13.4119 5.80117 13.4049 5.79062 13.4014 5.78008L13.3873 5.75898L13.3697 5.73789C13.3608 5.73049 13.3525 5.72225 13.3451 5.71328C13.3397 5.70476 13.3338 5.69655 13.3275 5.68867L13.324 5.68164ZM13.651 5.81172C13.6236 5.80802 13.5966 5.80214 13.5701 5.79414C13.5418 5.78431 13.5172 5.76588 13.4998 5.74141C13.4787 5.72383 13.4576 5.70273 13.433 5.68867C13.4084 5.68164 13.3979 5.7168 13.4154 5.73086L13.4646 5.79062C13.4832 5.80913 13.5045 5.82456 13.5279 5.83633C13.558 5.85351 13.5918 5.86316 13.6264 5.86445C13.6475 5.86094 13.6721 5.84687 13.6756 5.8293C13.6756 5.81523 13.6615 5.81172 13.651 5.81172ZM13.5771 5.97695C13.5593 5.98161 13.5404 5.97908 13.5244 5.96992C13.5068 5.95937 13.4963 5.94531 13.4893 5.93477C13.4752 5.91719 13.4611 5.89961 13.4436 5.89961C13.426 5.89258 13.4084 5.89961 13.4084 5.92422C13.4119 5.93828 13.426 5.94883 13.4365 5.95937C13.4541 5.98047 13.4787 5.9875 13.4998 5.99453C13.5139 6.00508 13.5279 6.00508 13.5385 6.00508C13.5525 6.00508 13.5736 6.00859 13.5771 5.99453V5.97695ZM13.76 5.92422C13.7775 5.93125 13.7846 5.94883 13.7775 5.96641C13.771 5.97403 13.7629 5.98018 13.7538 5.98442C13.7447 5.98867 13.7348 5.99092 13.7248 5.99102L13.6721 5.9875L13.6193 5.96289C13.6018 5.95586 13.5982 5.93477 13.5842 5.9207C13.5771 5.90664 13.6053 5.89961 13.6158 5.90312C13.6334 5.91016 13.6475 5.92773 13.6615 5.93828L13.7072 5.94883C13.7213 5.95234 13.7389 5.95586 13.7459 5.9418L13.76 5.92422ZM13.9217 5.88555C13.9322 5.89961 13.9217 5.92422 13.9041 5.93125H13.8584C13.8357 5.92428 13.8143 5.91359 13.7951 5.89961C13.7811 5.88906 13.7635 5.88555 13.7564 5.87148C13.7494 5.85391 13.7705 5.83633 13.7881 5.84687C13.8127 5.85391 13.8373 5.85742 13.8619 5.87148C13.8795 5.87852 13.8971 5.88555 13.9146 5.88555H13.9217Z" fill="white"/>
<path id="Vector_130" d="M13.8727 6.44738L13.8797 6.44035L13.8867 6.4298C13.9324 6.41574 13.9992 6.46145 14.0555 6.4298C14.1614 6.37857 14.2795 6.35787 14.3965 6.37004C14.4738 6.40168 14.5512 6.46145 14.6391 6.43332C14.7375 6.45793 14.7797 6.32082 14.8781 6.36301C14.8781 6.32785 14.4457 6.20129 14.3438 6.09582C14.2699 6.06066 14.2418 5.9798 14.1961 5.92355C14.1302 5.8421 14.0546 5.76891 13.9711 5.70559C13.9149 5.65285 13.8481 5.62824 13.7777 5.59309C13.7004 5.55793 13.5949 5.54035 13.5527 5.45949C13.5371 5.3568 13.5 5.25857 13.4438 5.17121C13.4016 5.10441 13.3524 5.03059 13.268 5.02355C13.2009 4.99723 13.1276 4.99112 13.057 5.00598C12.9727 5.03762 12.927 5.10441 12.8637 5.16418C12.8039 5.23801 12.9024 5.29426 12.927 5.38918C12.9656 5.45949 13.0078 5.48059 13.0395 5.5509C12.9938 5.6423 13.0219 5.77238 13.0289 5.8673C13.0254 5.96223 13.0887 6.03254 13.1379 6.10285C13.2047 6.13801 13.2539 6.20129 13.3242 6.23645" stroke="black" stroke-width="0.7"/>
</g>
<defs>
<clipPath id="clip0_186_13555">
<rect width="18" height="18" fill="white"/>
</clipPath>
</defs>
</svg>
