<svg width="18" height="18" viewBox="0 0 18 18" fill="none" xmlns="http://www.w3.org/2000/svg">
<g id="sh-ta" clip-path="url(#clip0_186_13702)">
<path id="Vector" d="M18 18V0H0V18H18Z" fill="#000066"/>
<path id="Vector_2" d="M16.5623 7.71289C16.5623 9.74492 16.2389 11.9387 13.5951 12.9863C10.9654 11.9387 10.642 9.74492 10.6279 7.71289H16.5623Z" fill="#8FC5FF" stroke="white" stroke-width="3.5"/>
<path id="Vector_3" d="M13.5951 12.9735C14.5969 12.6233 15.4327 11.9128 15.94 10.9801H15.6904C15.6166 10.9696 13.1592 10.734 12.8604 10.6075C12.6143 10.5196 11.6369 10.6954 11.1904 10.8536C11.6829 11.849 12.5464 12.6115 13.5951 12.977V12.9735Z" fill="#366CC9" stroke="black" stroke-width="3.5"/>
<path id="Vector_4" d="M11.7488 11.7281H11.9C11.9352 11.7281 11.9352 11.7281 11.9492 11.6929C11.9633 11.6542 11.9984 11.6648 12.023 11.6789C12.0477 11.6894 12.1004 11.6789 12.125 11.6542C12.1496 11.6296 12.1496 11.6296 12.1742 11.6542C12.1988 11.6789 12.2094 11.6648 12.2375 11.6542C12.248 11.6542 12.2973 11.6296 12.3078 11.591C12.3219 11.5558 12.3605 11.5417 12.3746 11.5664C12.3852 11.591 12.4098 11.591 12.4344 11.591C12.4625 11.591 12.4625 11.605 12.4625 11.6402C12.4625 11.6648 12.4625 11.6753 12.5223 11.6296C12.5715 11.6789 12.5855 11.6542 12.5855 11.605C12.5855 11.5523 12.5855 11.3554 12.5609 11.3414C12.5363 11.3308 12.5258 11.2429 12.5117 11.1796C12.5117 11.0566 12.5117 11.0566 12.3852 10.9933C12.3852 10.9582 12.3605 10.9441 12.2621 10.9441C12.2727 10.93 12.2621 10.8914 12.2375 10.8808C12.2129 10.8667 12.2129 10.8562 12.2375 10.807C12.2621 10.807 12.3078 10.807 12.3219 10.7683C12.35 10.7437 12.4238 10.7437 12.473 10.7683C12.5223 10.7929 12.5715 10.7929 12.6594 10.7683L12.8105 10.6945C12.8738 10.6593 12.8844 10.6453 12.8844 10.5925C12.8844 10.4695 12.8492 10.3464 12.8211 10.2832C12.7859 10.2199 12.7859 10.1566 12.7367 10.0441C12.684 9.94565 12.684 9.92104 12.6348 9.85776C12.6102 9.83315 12.5996 9.8226 12.5996 9.78393C12.596 9.73507 12.5732 9.6896 12.5363 9.65737C12.4344 9.573 12.4098 9.28471 12.3605 9.07378C12.3359 8.94721 12.3605 8.66245 12.3113 8.60971C12.2234 8.54995 12.1848 8.5605 12.125 8.5394C12.0758 8.4726 12.0617 8.36362 12.0125 8.25112C11.9492 8.26167 11.9105 8.32143 11.8719 8.34956C11.8367 8.37417 11.8262 8.37417 11.8262 8.43745C11.8262 8.48667 11.7875 8.5605 11.7383 8.66245C11.6891 8.76089 11.5766 8.72221 11.4887 8.85932C11.3129 8.64839 11.3129 8.5851 11.3023 8.52534C11.3023 8.46206 11.2637 8.448 11.1617 8.36011V8.17378C11.0773 8.11401 11.0281 8.12456 10.9895 8.17378C10.9543 8.20893 10.9262 8.27573 10.8664 8.30034C10.8383 8.34956 10.7398 8.448 10.666 8.5851C10.7398 9.7101 10.9895 10.8316 11.7488 11.7281Z" fill="#5D3100" stroke="black" stroke-width="0.4"/>
<path id="Vector_5" d="M16.5623 7.71321C16.5623 6.93977 16.5271 6.19094 16.5377 5.54407C15.5998 5.17975 14.6012 4.9972 13.5951 5.00617C12.9342 5.00617 11.6369 5.10813 10.6525 5.54407C10.6771 6.19094 10.6279 6.93977 10.6279 7.71321H16.5623Z" fill="#FFFF00" stroke="white" stroke-width="3.5"/>
<path id="Vector_6" d="M10.793 8.59549C10.8246 8.64822 10.8844 8.73611 10.8879 8.78533C10.916 8.73963 10.9301 8.71502 10.9336 8.69041C10.9406 8.66228 10.9758 8.60252 10.9617 8.57439C10.9441 8.54275 10.9406 8.51814 10.9758 8.53924C11.0109 8.56385 11.0039 8.60252 10.9969 8.65877C10.9758 8.81697 10.909 8.85213 10.8984 8.96111C10.9934 9.1826 10.923 9.26346 11.025 9.48494C11.0426 9.49549 11.0848 9.47791 11.0988 9.48494C11.1551 9.44275 11.1938 9.45682 11.2746 9.47088C11.3484 9.48846 11.3906 9.54119 11.3906 9.59392C11.3906 9.64314 11.3906 9.65369 11.4082 9.68182C11.4258 9.71697 11.4609 9.75916 11.4504 9.78728C11.4434 9.82244 11.4574 9.84002 11.468 9.8576C11.4785 9.87517 11.4645 9.90682 11.4539 9.93143C11.4434 9.95955 11.4469 9.98416 11.4891 10.0369C11.5242 10.0826 11.6156 10.283 11.6156 10.406C11.6156 10.5221 11.6227 10.5818 11.6719 10.6029C11.7211 10.6275 11.7387 10.6451 11.7281 10.6978C11.7312 10.8191 11.7418 10.94 11.7598 11.0599C11.7668 11.1021 11.7809 11.0951 11.7984 11.1162C11.8195 11.1373 11.8336 11.1654 11.8969 11.1654C11.9672 11.1654 12.0234 11.1549 12.0691 11.1654C12.1254 11.2428 12.1605 11.3517 12.1746 11.422C12.1852 11.4924 12.1852 11.5838 12.2098 11.5838C12.2309 11.5838 12.2555 11.5838 12.2449 11.5029C12.2379 11.4185 12.2344 11.4045 12.2063 11.3623C12.1746 11.3201 12.1605 11.299 12.1746 11.2744C12.1922 11.2498 12.1957 11.2041 12.1887 11.1724C12.1816 11.1408 12.1746 11.0916 12.2273 11.1549L12.3187 11.2603C12.3363 11.2849 12.3398 11.3236 12.3363 11.3658C12.3328 11.401 12.3398 11.4185 12.3609 11.401C12.3855 11.3799 12.4137 11.415 12.3996 11.4572C12.3891 11.4994 12.3996 11.5275 12.4418 11.5381C12.484 11.5486 12.498 11.5592 12.5051 11.5873C12.5121 11.6154 12.5508 11.6295 12.5508 11.5732C12.5508 11.5135 12.5262 11.3904 12.5121 11.3517C12.4945 11.3131 12.4805 11.2287 12.477 11.176C12.477 11.1303 12.4664 11.1197 12.4418 11.1056C12.4207 11.0986 12.3996 11.0846 12.3961 11.0564C12.3961 11.0318 12.3715 11.0318 12.3609 11.0318C12.3469 11.0318 12.3328 11.0178 12.3258 11.0037C12.3188 10.9861 12.3082 10.9861 12.2906 10.9826C12.2766 10.9826 12.2484 10.9896 12.2414 10.965C12.2344 10.9404 12.2203 10.9017 12.2063 10.8806C12.1922 10.856 12.1746 10.8525 12.1711 10.7752C12.1711 10.7049 12.1711 10.6978 12.1465 10.6697C12.1171 10.6311 12.0912 10.5899 12.0691 10.5467C12.0551 10.5221 12.034 10.4904 12.034 10.5502C12.034 10.6099 12.034 10.6451 12.0762 10.6662C12.1148 10.6908 12.1254 10.6908 12.1078 10.7224C12.0902 10.7541 12.1078 10.7787 12.1148 10.7998C12.1219 10.8244 12.1359 10.8455 12.1148 10.8701C12.0938 10.8912 12.0762 10.8842 12.0797 10.849C12.0813 10.8123 12.0728 10.7758 12.0551 10.7435C12.0375 10.7119 12.0234 10.6908 12.0059 10.7084C11.9848 10.726 11.9707 10.7084 11.9812 10.6943C11.9953 10.6838 11.9918 10.6697 11.9812 10.6592C11.9707 10.6556 11.9707 10.6416 11.9883 10.624C12.0059 10.6029 12.0023 10.5924 11.9918 10.5467C11.9813 10.5045 11.9109 10.276 11.8793 10.2232C11.8441 10.1705 11.8512 10.1318 11.8898 10.1881C11.932 10.2373 11.9707 10.2795 11.9707 10.3252C11.9777 10.3674 11.9883 10.3955 11.9953 10.4096C12.0059 10.4271 12.0234 10.4166 12.027 10.3849C12.0305 10.3498 12.0621 10.3603 12.0129 10.29C11.9707 10.2232 11.8863 10.1107 11.8547 9.9033C11.8195 9.69939 11.809 9.5658 11.7738 9.51307C11.7422 9.45682 11.7316 9.44275 11.7281 9.39002C11.7281 9.33728 11.7281 9.28455 11.7035 9.24939C11.6789 9.21424 11.6684 9.20369 11.6648 9.26346C11.6605 9.33425 11.6665 9.40529 11.6824 9.47439C11.7 9.49549 11.693 9.55174 11.6859 9.58689C11.6824 9.61853 11.6332 9.65017 11.7387 9.71697C11.7809 9.74158 11.7738 9.77674 11.7668 9.79783C11.7633 9.82244 11.7563 9.81892 11.7316 9.78377C11.7105 9.74861 11.6859 9.72049 11.6613 9.69939C11.6402 9.6783 11.6402 9.66424 11.6402 9.62205C11.6438 9.57986 11.6543 9.54471 11.6402 9.52713C11.6297 9.51307 11.6227 9.52713 11.6156 9.55174C11.6086 9.57635 11.6051 9.64666 11.591 9.66424C11.577 9.68182 11.5699 9.67478 11.5594 9.62908C11.5488 9.58689 11.5629 9.52361 11.584 9.44978C11.6086 9.37244 11.6227 9.29861 11.6051 9.20018C11.584 9.10174 11.5945 9.07361 11.5172 8.98924C11.4434 8.91189 11.3625 8.83455 11.3238 8.7326C11.2887 8.63064 11.2816 8.54627 11.243 8.50057C11.2066 8.45374 11.1626 8.41333 11.1129 8.38103V8.22635C11.1129 8.19119 11.0953 8.1701 11.0566 8.17713C11.0145 8.18416 10.9863 8.2158 10.9617 8.26853C10.9371 8.31424 10.916 8.29314 10.8809 8.374C10.8422 8.45838 10.793 8.50057 10.793 8.59197V8.59549Z" fill="#CF6200"/>
<path id="Vector_7" d="M11.028 9.54912C11.0526 9.5667 11.0773 9.57373 11.1159 9.55615C11.1511 9.53857 11.2003 9.47881 11.2566 9.53506C11.3062 9.59691 11.3334 9.67373 11.3339 9.75303C11.3339 9.82334 11.3339 9.95693 11.4148 10.0308C11.4956 10.1046 11.5413 10.1819 11.5413 10.2804C11.5448 10.3788 11.58 10.5265 11.5941 10.5687C11.6011 10.6038 11.6222 10.6495 11.6468 10.6741C11.6749 10.7022 11.6925 10.7796 11.6995 10.8499C11.6995 10.9343 11.689 10.9905 11.6995 11.0257C11.7101 11.0608 11.6995 11.096 11.6679 11.0749C11.6398 11.0573 11.6327 11.0503 11.6187 11.0151C11.6046 10.98 11.58 10.9905 11.5976 11.0397C11.6151 11.0925 11.6609 11.1312 11.703 11.1312C11.7452 11.1312 11.7593 11.1382 11.7839 11.1663C11.8085 11.1909 11.8155 11.205 11.8612 11.205C11.9069 11.205 11.9105 11.205 11.9526 11.219C11.9948 11.2296 11.9948 11.2226 12.0194 11.219C12.0405 11.212 12.0651 11.2296 12.0792 11.2718C12.0933 11.3175 12.1355 11.4335 12.1355 11.4616C12.1355 11.4933 12.1355 11.5284 12.1566 11.5601C12.1812 11.5952 12.1741 11.6269 12.146 11.6058C12.1214 11.5847 12.1214 11.5952 12.1038 11.5952C12.0827 11.5987 12.0687 11.5917 12.0441 11.5741C12.0194 11.5565 12.0335 11.5601 12.0089 11.5214C11.9843 11.4862 11.9667 11.4687 11.9667 11.4968C11.9667 11.5249 11.9667 11.5636 11.9421 11.5495C11.9245 11.5319 11.914 11.5319 11.8964 11.5495C11.8788 11.5671 11.8753 11.5776 11.8542 11.546C11.8366 11.5144 11.8155 11.5108 11.7944 11.5038C11.7734 11.4968 11.7734 11.5003 11.7663 11.4687C11.7558 11.4405 11.7276 11.4335 11.6995 11.4335C11.6749 11.4335 11.6609 11.4229 11.6573 11.4019C11.6573 11.3808 11.6398 11.3667 11.6257 11.3597C11.6116 11.3491 11.6222 11.3245 11.6151 11.3034C11.6116 11.2823 11.5941 11.2894 11.58 11.2858C11.5659 11.2823 11.5589 11.2858 11.5589 11.2507C11.5589 11.2155 11.5448 11.2085 11.5343 11.1839C11.5273 11.1593 11.5343 11.1382 11.5413 11.1136C11.5442 11.1027 11.5445 11.0912 11.542 11.0802C11.5396 11.0692 11.5345 11.0589 11.5273 11.0503C11.5062 11.0257 11.5237 11.0046 11.471 10.9589C11.4218 10.9132 11.3937 10.9519 11.3761 10.8429C11.3637 10.7197 11.3377 10.5983 11.2987 10.4808C11.2741 10.4456 11.2495 10.421 11.2214 10.4104C11.1933 10.3999 11.1722 10.4104 11.1722 10.3437C11.1651 10.2839 11.1476 10.2065 11.1089 10.1679L11.0316 10.0976C11.014 10.087 11.0069 10.0554 11.0316 9.99912C11.0597 9.94287 11.0491 9.86904 11.0456 9.83389C11.0456 9.79873 11.0316 9.75303 11.0421 9.71435C11.0491 9.6792 11.0421 9.62646 11.0316 9.60186C11.0245 9.57725 11.0105 9.5667 11.028 9.54912ZM11.8085 8.62803C11.7658 8.68458 11.7149 8.73436 11.6573 8.77568C11.5941 8.81787 11.5167 8.84951 11.5589 8.92685C11.6046 8.99717 11.6398 9.00771 11.6468 9.06396C11.6573 9.12021 11.6679 9.16592 11.7101 9.17998C11.7558 9.19404 11.7734 9.1835 11.7734 9.2749C11.7734 9.36631 11.7734 9.40146 11.812 9.4331C11.8542 9.46826 11.8472 9.50342 11.8612 9.58779C11.8788 9.66865 11.8788 9.84443 11.9316 9.96396C11.9878 10.0835 12.1038 10.3155 12.0898 10.3612C12.0757 10.4069 12.0581 10.4456 12.1109 10.5019C12.1577 10.5545 12.1893 10.6189 12.2023 10.6882C12.2058 10.7374 12.2128 10.755 12.2655 10.7374C12.3183 10.7198 12.3429 10.7022 12.3605 10.6776C12.378 10.6565 12.4097 10.6636 12.4589 10.6882C12.5081 10.7128 12.5819 10.7374 12.6241 10.7128C12.6663 10.6882 12.6909 10.6495 12.7296 10.6495C12.7894 10.6038 12.8105 10.5124 12.8245 10.4878C12.8351 10.4632 12.8245 10.4632 12.7999 10.4386C12.7753 10.414 12.7894 10.3683 12.7823 10.3261C12.7743 10.2537 12.7502 10.1841 12.712 10.1222C12.6593 10.0272 12.6276 9.91123 12.5925 9.87607C12.5573 9.84795 12.5433 9.77764 12.5398 9.74248C12.5327 9.70732 12.4941 9.67568 12.4694 9.65107C12.4413 9.62646 12.4167 9.58779 12.3886 9.4331C12.3569 9.28193 12.3359 9.17646 12.3359 9.15185C12.3359 9.12373 12.3288 9.1167 12.3007 9.11318C12.2796 9.10264 12.2655 9.06045 12.2726 9.03584C12.2796 9.01475 12.2655 8.99365 12.255 8.96553C12.2444 8.94443 12.255 8.89521 12.2726 8.86709C12.2901 8.84248 12.2866 8.76865 12.2691 8.70889C12.2515 8.64912 12.2339 8.59639 12.1671 8.58584C12.0968 8.57881 12.0862 8.56123 12.0581 8.50498C12.03 8.44873 12.0054 8.35029 11.9948 8.3292C11.9878 8.30459 11.9773 8.30459 11.9245 8.34678C11.8718 8.38896 11.8542 8.40303 11.8542 8.48389C11.8542 8.53311 11.8612 8.5542 11.8788 8.58584C11.8964 8.61396 11.9034 8.621 11.914 8.70537C11.928 8.78975 12.0019 8.91631 11.9069 8.99014C11.8085 9.06748 11.8261 9.08154 11.8296 9.13076C11.8296 9.1835 11.805 9.21865 11.7874 9.14482C11.7698 9.07451 11.7874 9.02881 11.8366 8.99365C11.8894 8.9585 11.9386 8.91631 11.9034 8.86709C11.8683 8.82139 11.8542 8.70889 11.8542 8.65615C11.8507 8.60693 11.8366 8.58584 11.8085 8.62803Z" fill="#CF6200"/>
<path id="Vector_8" d="M11.0386 9.72792L11.0456 9.83339C11.0456 9.86854 11.0597 9.94237 11.0316 9.9951C11.0069 10.0514 11.014 10.083 11.0316 10.1006C11.0421 10.0975 11.0519 10.0922 11.0603 10.085C11.0687 10.0779 11.0754 10.069 11.0801 10.059C11.0847 10.049 11.0872 10.0381 11.0873 10.0271C11.0875 10.0161 11.0852 10.0052 11.0808 9.9951C11.0738 9.97937 11.0708 9.96217 11.0721 9.94501C11.0733 9.92785 11.0787 9.91126 11.0878 9.89667C11.1019 9.86854 11.1019 9.85096 11.0878 9.82987C11.0737 9.80878 11.0737 9.80878 11.0878 9.7455C11.1054 9.69276 11.0667 9.69276 11.0386 9.72792ZM11.5941 10.5682C11.58 10.526 11.5448 10.3783 11.5413 10.2799C11.5384 10.2318 11.5257 10.1849 11.5039 10.1419C11.4822 10.099 11.4518 10.061 11.4148 10.0303C11.3515 9.97401 11.3409 9.87909 11.3339 9.80878C11.2882 9.77714 11.2671 9.7912 11.2741 9.84393C11.2741 9.9037 11.3339 9.93182 11.3269 10.0127C11.3163 10.1006 11.3163 10.076 11.3585 10.1182C11.3972 10.1639 11.4148 10.199 11.3937 10.2166C11.3726 10.2342 11.3691 10.2623 11.3972 10.2728C11.4288 10.2869 11.4323 10.3185 11.4253 10.3502C11.4253 10.3783 11.4499 10.3853 11.4675 10.4064C11.4767 10.4225 11.4816 10.4407 11.4816 10.4592C11.4816 10.4777 11.4767 10.4959 11.4675 10.5119C11.4534 10.54 11.4499 10.5857 11.4816 10.5611C11.5132 10.5365 11.5237 10.5611 11.5484 10.6033C11.5659 10.6385 11.5835 10.6279 11.6081 10.6139C11.6007 10.5981 11.5948 10.5816 11.5905 10.5646L11.5941 10.5682ZM12.0124 11.3205C11.9913 11.3557 11.9702 11.3451 11.9526 11.324C11.9316 11.3064 11.9069 11.3064 11.9175 11.2713C11.928 11.2361 11.9245 11.2291 11.8964 11.208C11.8941 11.208 11.8917 11.208 11.8894 11.208H11.8612C11.8155 11.208 11.8085 11.1904 11.7839 11.1658C11.7795 11.1597 11.7748 11.1538 11.7698 11.1482V11.1728C11.7698 11.208 11.7698 11.201 11.7347 11.2115C11.6995 11.2221 11.703 11.1764 11.696 11.1482C11.6953 11.1423 11.6942 11.1364 11.6925 11.1307C11.6538 11.1236 11.6116 11.0814 11.5976 11.0392C11.58 10.9865 11.5976 10.983 11.6151 11.0146C11.6292 11.0428 11.6398 11.0568 11.6679 11.0744C11.696 11.092 11.703 11.0639 11.696 11.0252C11.6942 11.0112 11.6942 10.997 11.696 10.983C11.6855 10.9689 11.6784 10.9584 11.6644 10.9514C11.6151 10.9303 11.6292 10.9232 11.6327 10.881C11.6327 10.8424 11.6257 10.8424 11.5941 10.8599C11.5589 10.8881 11.5589 10.8599 11.5589 10.7932C11.5589 10.7299 11.5132 10.7299 11.5062 10.7756C11.4956 10.8213 11.4816 10.7896 11.4605 10.7264C11.4429 10.6596 11.4148 10.6455 11.4112 10.7088C11.4112 10.758 11.3972 10.7721 11.362 10.7439L11.3761 10.8424C11.3937 10.9478 11.4183 10.9127 11.471 10.9584C11.5237 11.0041 11.5062 11.0287 11.5237 11.0498C11.5448 11.0709 11.5484 11.0849 11.5413 11.1131C11.5343 11.1377 11.5237 11.1623 11.5343 11.1834C11.5448 11.208 11.5589 11.2185 11.5589 11.2467C11.5589 11.2783 11.5659 11.2783 11.58 11.2853L11.6046 11.2889L11.6292 11.2537C11.6714 11.2185 11.7347 11.2572 11.7487 11.3064C11.7663 11.3521 11.7909 11.3697 11.8191 11.331C11.8472 11.2959 11.8401 11.2959 11.8718 11.331C11.8999 11.3662 11.9175 11.3627 11.9175 11.3627C11.9175 11.3627 11.9526 11.3486 11.9737 11.3697C11.9948 11.3873 12.0089 11.3838 12.0476 11.324C12.0933 11.2642 12.03 11.2818 12.0124 11.324V11.3205ZM12.1284 9.54159C12.139 9.44667 12.1284 9.35175 12.1706 9.31659C12.2058 9.28143 12.255 9.21464 12.2515 9.36229C12.2515 9.50643 12.2444 9.50292 12.2163 9.53104C12.1812 9.5662 12.1566 9.57675 12.1882 9.63651C12.2198 9.68925 12.2234 9.69276 12.2198 9.77714C12.2128 9.86503 12.2128 9.90018 12.248 9.94237C12.2831 9.98807 12.2901 9.99159 12.2972 10.0408C12.3099 10.0948 12.3366 10.1445 12.3745 10.1849C12.4097 10.2201 12.4589 10.3185 12.4624 10.3889C12.4694 10.4592 12.5292 10.4767 12.5855 10.5224C12.6382 10.5717 12.5714 10.6033 12.5292 10.5857C12.487 10.5576 12.5046 10.5857 12.4765 10.6103C12.4519 10.6455 12.4413 10.6455 12.4202 10.5963C12.3956 10.5471 12.3253 10.5084 12.2901 10.4943C12.2585 10.4838 12.2269 10.4275 12.1952 10.3713C12.1834 10.3471 12.1655 10.3263 12.1434 10.3109C12.1212 10.2955 12.0955 10.286 12.0687 10.2834C12.0862 10.3185 12.0933 10.3502 12.0862 10.3607C12.0757 10.4099 12.0581 10.4451 12.1109 10.5014C12.1577 10.554 12.1893 10.6184 12.2023 10.6877C12.2023 10.7334 12.2128 10.751 12.262 10.7334C12.3183 10.7158 12.3429 10.6982 12.3605 10.6771C12.378 10.656 12.4097 10.6596 12.4589 10.6877C12.5046 10.7123 12.5784 10.7369 12.6206 10.7123C12.6663 10.6877 12.6874 10.649 12.7261 10.649C12.7894 10.6033 12.8069 10.5119 12.821 10.4873C12.8351 10.4627 12.8245 10.4627 12.7999 10.4381C12.7753 10.4135 12.7894 10.3678 12.7823 10.3256C12.7788 10.2799 12.7612 10.2166 12.7085 10.1217C12.6558 10.0232 12.6276 9.91073 12.5925 9.87557C12.5573 9.84745 12.5433 9.77714 12.5362 9.73846C12.5362 9.70331 12.4941 9.67518 12.4659 9.64706C12.4413 9.62245 12.4167 9.58729 12.3851 9.43612L12.3359 9.17596C12.3077 9.2287 12.2866 9.23924 12.2726 9.20409C12.262 9.16893 12.2444 9.14432 12.2269 9.16893C12.2093 9.19354 12.2023 9.14784 12.2023 9.12675C12.2023 9.10565 12.2023 9.10214 12.1776 9.10214C12.1566 9.10214 12.1741 9.06698 12.1636 9.00018C12.1566 8.9369 12.1425 8.92987 12.1355 9.00721C12.1284 9.08456 12.0862 9.13026 12.1003 9.14784C12.1179 9.16542 12.1109 9.20057 12.0933 9.25331C12.0757 9.30253 12.0827 9.33417 12.0968 9.36932C12.1109 9.40448 12.0862 9.47128 12.0792 9.52401C12.0687 9.58026 12.1144 9.63651 12.1284 9.54159ZM11.3374 8.76815C11.3023 8.76815 11.2812 8.79628 11.3023 8.89471C11.3128 8.95448 11.2671 8.94393 11.253 8.91229C11.2319 8.88065 11.2179 8.81737 11.1827 8.76112C11.1511 8.70487 11.1651 8.79628 11.1651 8.85253C11.1581 8.90175 11.1933 8.90175 11.2249 8.94745C11.2566 8.99315 11.2249 9.00721 11.1933 9.00721C11.1616 9.00721 11.1757 9.07753 11.1827 9.12323C11.1933 9.17245 11.1757 9.17948 11.1511 9.14081C11.1265 9.10214 11.1405 9.04237 11.1476 8.96503C11.1511 8.89471 11.1546 8.91229 11.1054 8.89471C11.0597 8.87714 11.0702 8.8701 11.0843 8.8244C11.1019 8.78221 11.1194 8.76112 11.0984 8.73651C11.0773 8.71893 11.0808 8.70487 11.1159 8.70135C11.1511 8.69432 11.137 8.66971 11.1651 8.65917C11.1968 8.65214 11.2109 8.6662 11.2179 8.60995C11.2179 8.56073 11.2355 8.5326 11.2671 8.55018C11.2917 8.6205 11.3163 8.733 11.3374 8.76464V8.76815ZM11.7698 9.2744C11.7698 9.36581 11.7698 9.40096 11.8085 9.4326C11.8507 9.46776 11.8437 9.50292 11.8612 9.58729C11.8788 9.66815 11.8788 9.84393 11.9316 9.96346L11.9878 10.0935C12.0144 10.0714 12.036 10.0438 12.0511 10.0127C12.0651 9.98456 12.0265 9.92479 11.9948 9.87206C11.9632 9.81932 11.9984 9.80175 12.03 9.73846C12.0581 9.66815 12.023 9.66815 11.9773 9.65057C11.928 9.633 11.928 9.59081 11.9034 9.52049C11.8788 9.45018 11.8823 9.42206 11.9034 9.38339C11.914 9.34471 11.9034 9.31307 11.8683 9.30604C11.8331 9.2955 11.8437 9.27089 11.8542 9.2287C11.8718 9.183 11.8788 9.17596 11.8261 9.18651C11.7874 9.19706 11.7769 9.20409 11.7628 9.22167C11.7698 9.23221 11.7698 9.24979 11.7698 9.2744Z" fill="#00B800"/>
<path id="Vector_9" d="M12.2698 9.45732C12.2698 9.50654 12.2698 9.53115 12.2557 9.54873C12.2416 9.5663 12.2487 9.59443 12.2627 9.61904C12.2733 9.64716 12.2838 9.68232 12.2733 9.72451C12.2592 9.77373 12.2803 9.81591 12.3049 9.82998C12.3295 9.84052 12.3436 9.82997 12.3366 9.88974C12.3336 9.91727 12.3368 9.94513 12.3459 9.97128C12.355 9.99743 12.3698 10.0212 12.3893 10.0409C12.4209 10.0655 12.442 10.1077 12.442 10.1323C12.435 10.1569 12.4596 10.1851 12.4913 10.1991C12.5229 10.2097 12.5159 10.2167 12.5159 10.2343C12.5159 10.2519 12.5299 10.2518 12.5651 10.2589C12.6002 10.2659 12.6249 10.2905 12.667 10.3362C12.7057 10.3854 12.7584 10.4136 12.7514 10.3573C12.7444 10.3011 12.7514 10.2729 12.7022 10.2448C12.6459 10.2202 12.6073 10.0936 12.5862 10.0093C12.5643 9.92271 12.5194 9.84372 12.4561 9.78076C12.4526 9.72451 12.4596 9.69287 12.4209 9.66474C12.4054 9.65273 12.3928 9.63727 12.3843 9.61957C12.3758 9.60188 12.3715 9.58244 12.3717 9.56279C12.3717 9.53115 12.3471 9.49248 12.3331 9.48896C12.3155 9.47841 12.3084 9.4538 12.3084 9.42919C12.3084 9.40459 12.2733 9.4081 12.2733 9.4538L12.2698 9.45732Z" fill="#5D3100"/>
<path id="Vector_10" d="M12.041 11.7699C12.1485 11.7554 12.2537 11.727 12.3539 11.6855C12.4071 11.7259 12.4682 11.7546 12.5332 11.7699C12.4594 11.7875 12.4102 11.777 12.3926 11.7629C12.3996 11.7875 12.4277 11.8227 12.4418 11.8262C12.3715 11.8227 12.2906 11.8051 12.266 11.7805C12.2027 11.8051 12.1008 11.8121 12.041 11.7734V11.7699ZM12.1816 11.8754L12.3645 11.9C12.3188 11.9422 12.3574 11.9773 12.4348 11.9703C12.3961 11.9773 12.3574 11.9914 12.382 11.9949C12.4783 11.996 12.5739 11.9781 12.6633 11.9422C12.6035 12.0195 12.3047 12.0934 12.1816 11.8719V11.8754ZM12.3047 12.0652C12.3398 12.0477 12.4348 12.0547 12.4805 12.0758C12.4277 12.0934 12.3328 12.0934 12.3047 12.0652Z" fill="#00D860"/>
<path id="Vector_11" d="M12.4449 12.0656C12.5082 12.0551 12.6945 12.1008 12.7613 12.0586C12.7367 12.1184 12.6207 12.1289 12.582 12.1148C12.5398 12.1008 12.5047 12.0832 12.4766 12.0867C12.4871 12.0762 12.466 12.0762 12.4414 12.0656H12.4449Z" fill="black"/>
<path id="Vector_12" d="M12.5117 12.1562C12.5609 12.1633 12.7402 12.1422 12.793 12.1211C12.8527 12.1387 12.9688 12.1738 12.9934 12.1668C12.9406 12.202 12.8352 12.1809 12.8 12.1668C12.7016 12.202 12.6242 12.209 12.5117 12.1562Z" fill="#00D860"/>
<path id="Vector_13" d="M12.5965 12.1891C12.6703 12.2031 12.7301 12.1926 12.8004 12.168C12.8396 12.1831 12.8814 12.1903 12.9234 12.1891C12.9586 12.2066 13.0008 12.2312 13.043 12.2348C12.9642 12.2481 12.8833 12.2421 12.8074 12.2172C12.7194 12.2163 12.6322 12.233 12.5508 12.2664C12.5508 12.2418 12.5648 12.2102 12.5965 12.1891Z" fill="#00D860"/>
<path id="Vector_14" d="M12.5117 11.8235C12.568 11.8411 12.7719 11.834 12.8738 11.7883C12.916 11.7637 12.9406 11.7954 12.8914 11.8129C12.7262 11.8692 12.5926 11.8938 12.4941 11.8446C12.4555 11.82 12.4519 11.8024 12.5117 11.8235Z" fill="black"/>
<path id="Vector_15" d="M13.5032 11.5449C13.2571 11.6645 13.0919 11.6996 12.7438 11.5941C12.7122 11.5836 12.6911 11.5941 12.7262 11.6152C12.8128 11.6526 12.9037 11.6786 12.9969 11.6926C13.0427 11.6926 13.0251 11.7172 12.9969 11.7242C12.9688 11.7313 12.9618 11.7523 12.9969 11.7348C13.0391 11.7207 13.243 11.7172 13.3309 11.7629C13.3661 11.7805 13.3802 11.777 13.3731 11.7629C13.3696 11.7453 13.3907 11.7383 13.4188 11.7348C13.4469 11.7348 13.461 11.7242 13.4399 11.7137C13.4223 11.7031 13.4153 11.6996 13.4329 11.6926C13.4505 11.6855 13.4505 11.6785 13.4259 11.6715C13.4012 11.6715 13.3872 11.6609 13.4083 11.6469C13.4329 11.6363 13.4645 11.6293 13.4927 11.6293C13.4962 11.6117 13.4856 11.559 13.5032 11.5484V11.5449Z" fill="#00D860"/>
<path id="Vector_16" d="M13.0924 11.5766C13.2907 11.5793 13.4836 11.5121 13.6373 11.3867C13.683 11.4148 13.7533 11.4465 13.7885 11.457C13.8237 11.4605 13.8588 11.4922 13.799 11.4922C13.7463 11.4922 13.6655 11.4676 13.6303 11.457C13.4684 11.5547 13.2813 11.6024 13.0924 11.5941C13.0572 11.5906 13.0432 11.573 13.0924 11.5766Z" fill="black"/>
<path id="Vector_17" d="M12.6699 10.8008C12.7399 10.8557 12.8271 10.8844 12.916 10.8816C12.9698 10.9218 13.0306 10.9516 13.0953 10.9695C13.0215 11.0012 12.9406 11.0258 12.9195 11.0504C12.8844 11.0187 12.8422 11.0258 12.8281 11.0082C12.8 11.0328 12.8035 11.0504 12.8246 11.0645C12.8422 11.0785 13.0074 11.1031 13.0496 11.0926C13.0883 11.0785 13.0988 11.1172 13.0672 11.1277C12.9758 11.1559 12.807 11.1277 12.7508 11.0328C12.691 10.9414 12.6453 10.9062 12.4836 10.9906C12.466 10.9449 12.466 10.9344 12.4344 10.9344C12.3992 10.9344 12.3465 10.8922 12.3887 10.8957C12.4344 10.8957 12.5645 10.8781 12.6699 10.8008Z" fill="#00D860"/>
<path id="Vector_18" d="M12.7086 11.0039C12.684 11.0145 12.6031 11.0566 12.575 11.0566C12.5504 11.0602 12.5011 11.1023 12.5504 11.1023C12.6031 11.1023 12.6664 11.0496 12.7015 11.0426C12.7402 11.0355 12.7402 10.9969 12.7086 11.0074V11.0039ZM12.8632 11.1727C12.8457 11.1727 12.7613 11.1937 12.7367 11.1902C12.7121 11.1902 12.6945 11.1973 12.698 11.2113C12.698 11.2289 12.705 11.2359 12.6734 11.2359C12.6382 11.2359 12.6066 11.2465 12.5961 11.2535C12.5855 11.2641 12.5855 11.2746 12.6207 11.2816C12.6558 11.2852 12.6699 11.2852 12.7086 11.2676C12.7507 11.25 12.7859 11.2219 12.8281 11.2184C12.8703 11.2184 12.9125 11.1656 12.8632 11.1691V11.1727Z" fill="#00D860"/>
<path id="Vector_19" d="M12.7475 11.272C12.7826 11.2966 12.9584 11.3529 13.0217 11.3494C13.085 11.3458 13.0744 11.374 13.0252 11.3845C12.9268 11.4056 12.8072 11.3634 12.7228 11.3001C12.6877 11.265 12.7228 11.2544 12.7475 11.272Z" fill="black"/>
<path id="Vector_20" d="M13.5775 11.3551C13.4439 11.3973 13.3068 11.3832 13.2541 11.3691C13.1978 11.3586 13.1486 11.3516 13.1838 11.3867C13.2224 11.4219 13.342 11.4465 13.4123 11.4289C13.1697 11.4852 13.1064 11.4781 13.0467 11.4676C12.973 11.4605 12.8988 11.4605 12.8252 11.4676C12.79 11.4676 12.7408 11.4676 12.7197 11.45C12.7021 11.4359 12.6916 11.4148 12.7549 11.4219C12.8181 11.4289 12.8252 11.4148 12.7724 11.4043C12.7162 11.3973 12.6388 11.4219 12.7162 11.4676C12.79 11.5168 12.9517 11.4676 13.0572 11.4957C13.1627 11.5238 13.3806 11.5449 13.5916 11.3762C13.6021 11.3691 13.6197 11.341 13.5775 11.3551ZM12.9201 11.1582V11.2039C12.9166 11.2145 12.9166 11.2285 12.9342 11.2145C12.9552 11.2004 12.9693 11.1793 12.9904 11.1898C13.0235 11.1993 13.0583 11.2017 13.0924 11.1969C13.117 11.1969 13.1205 11.1898 13.0853 11.1723C13.0502 11.1582 13.015 11.1547 12.9939 11.1547C12.9763 11.1582 12.9517 11.1547 12.9342 11.1477C12.9166 11.1371 12.9166 11.1441 12.9201 11.1582Z" fill="#00D860"/>
<path id="Vector_21" d="M13.2646 11.2219C13.2308 11.2185 13.1976 11.2102 13.1661 11.1973C13.138 11.1867 13.0958 11.1832 13.1275 11.2184C13.1556 11.257 13.2751 11.2781 13.3173 11.2605C13.363 11.243 13.3419 11.2254 13.3841 11.2465C13.4263 11.2711 13.4685 11.2922 13.5001 11.2922C13.5318 11.2922 13.5423 11.2922 13.5072 11.2711C13.472 11.2535 13.4579 11.2465 13.4579 11.2324C13.4579 11.2184 13.4474 11.2078 13.479 11.2184C13.5072 11.2289 13.5423 11.243 13.5669 11.2289C13.5951 11.2184 13.6372 11.1902 13.6794 11.1902L13.69 11.1656C13.6302 11.1586 13.5951 11.1762 13.574 11.1832C13.5504 11.1921 13.5249 11.1945 13.5001 11.1902C13.4685 11.1832 13.4298 11.1797 13.4193 11.1727C13.4087 11.1656 13.4087 11.1551 13.4333 11.1516C13.4579 11.148 13.4685 11.1305 13.4333 11.1375C13.3982 11.1445 13.3033 11.1375 13.254 11.1234C13.2013 11.1094 13.1837 11.1059 13.1591 11.1129C13.138 11.1199 13.1415 11.1445 13.1732 11.148C13.2013 11.148 13.2716 11.1551 13.2997 11.1762C13.3243 11.2008 13.3173 11.2008 13.2892 11.1902C13.2646 11.1762 13.2154 11.1832 13.2646 11.2254V11.2219Z" fill="#00D860"/>
<path id="Vector_22" d="M13.6867 11.1661L13.6797 11.1907C13.7658 11.1871 13.8517 11.2002 13.9328 11.2293C13.9785 11.1942 13.968 11.1836 14.0031 11.1907C14.0383 11.1942 14.0734 11.2082 14.0945 11.1977C14.1121 11.1871 14.1227 11.1907 14.1437 11.1907C14.1613 11.1977 14.2035 11.1907 14.2281 11.1731C14.2492 11.159 14.302 11.1379 14.3336 11.1379C14.3617 11.1379 14.3969 11.1344 14.3441 11.1239C14.2896 11.1207 14.235 11.1267 14.1824 11.1414C14.1543 11.152 14.0699 11.159 14.0207 11.159C13.975 11.159 13.9047 11.1836 13.852 11.1696C13.7957 11.1555 13.7184 11.1661 13.6867 11.1661Z" fill="#00D860"/>
<path id="Vector_23" d="M14.4391 11.137C14.3442 11.2073 14.2247 11.2214 14.0875 11.232C14.0454 11.232 14.0594 11.246 14.0946 11.2495C14.2352 11.2636 14.4075 11.2144 14.4602 11.1511C14.4778 11.137 14.4778 11.1089 14.4391 11.137Z" fill="black"/>
<path id="Vector_24" d="M13.7773 11.3C13.816 11.3 13.9637 11.3422 14.0129 11.3562C14.048 11.3562 14.0586 11.3457 14.048 11.3316C14.041 11.3176 14.0375 11.307 14.1008 11.307H14.3469C14.368 11.3 14.4172 11.2613 14.4418 11.2578C14.382 11.2648 14.1359 11.2754 14.1078 11.2719C14.085 11.268 14.0615 11.2717 14.041 11.2824C14.0199 11.293 14.0129 11.3 13.9848 11.2895C13.9602 11.2824 13.918 11.2648 13.8969 11.2824C13.8687 11.2965 13.8195 11.2824 13.7773 11.3Z" fill="#00D860"/>
<path id="Vector_25" d="M14.3435 11.3068C14.3681 11.2998 14.4173 11.2576 14.4419 11.2576C14.4841 11.2576 14.5298 11.2716 14.5544 11.2752C14.5755 11.2752 14.6001 11.2752 14.5825 11.2576C14.565 11.24 14.5825 11.2084 14.6529 11.2189C14.7161 11.2259 14.7513 11.2365 14.8146 11.2294C14.8779 11.2259 14.9095 11.2716 15.029 11.2224C15.022 11.2716 15.0466 11.2716 15.0677 11.2646C15.0923 11.2576 15.1169 11.2576 15.1556 11.2892C15.1907 11.3173 15.4298 11.3244 15.4861 11.3103C15.5388 11.2998 15.5704 11.3279 15.5282 11.3455C15.4861 11.356 15.4755 11.3736 15.4861 11.3877C15.4931 11.4017 15.5036 11.4158 15.4509 11.4123C15.4017 11.4052 15.3911 11.4193 15.3665 11.4404C15.3419 11.4615 15.3314 11.465 15.2611 11.4509C15.1907 11.4404 15.1767 11.4509 15.138 11.458C15.0958 11.465 15.0923 11.4615 15.0501 11.4509C14.9936 11.4312 14.9328 11.4276 14.8743 11.4404C14.8216 11.4544 14.7864 11.4755 14.7407 11.4615C14.695 11.4474 14.6915 11.4509 14.7196 11.4263C14.7513 11.3982 14.7548 11.3982 14.8111 11.3912C14.8673 11.3841 14.9095 11.3666 14.8708 11.3455C14.8286 11.3244 14.8181 11.3244 14.7654 11.3525C14.7161 11.3771 14.688 11.3947 14.6282 11.363C14.572 11.3279 14.5439 11.3349 14.5017 11.3455C14.463 11.356 14.3997 11.3349 14.3435 11.3103V11.3068ZM14.5404 11.4052C14.463 11.4158 14.4454 11.3701 14.3646 11.3806C14.3435 11.3806 14.2943 11.4158 14.3575 11.4087C14.4173 11.4052 14.4841 11.4369 14.5404 11.4334C14.6001 11.4263 14.5755 11.4017 14.5404 11.4052ZM14.4489 11.4615C14.4911 11.4474 14.572 11.4755 14.6036 11.4685C14.6388 11.465 14.6739 11.4826 14.6353 11.4966C14.5966 11.5072 14.5122 11.4755 14.4736 11.4861C14.4384 11.4966 14.3962 11.4826 14.4489 11.4615ZM13.6755 11.6724C13.7282 11.6724 13.9216 11.6654 13.9989 11.5037C14.0025 11.4896 14.0095 11.4861 14.0341 11.5037C14.0552 11.5212 14.1466 11.574 14.3154 11.5845C14.3611 11.5916 14.4103 11.6127 14.3154 11.6056C14.2204 11.5986 14.0728 11.5775 14.0236 11.5423C13.9392 11.6759 13.788 11.6935 13.672 11.69C13.6087 11.69 13.6263 11.6689 13.672 11.6724H13.6755Z" fill="#00D860"/>
<path id="Vector_26" d="M14.0976 11.4508C14.0694 11.4859 13.9815 11.5492 13.9429 11.5563C13.8972 11.5563 13.7776 11.5422 13.746 11.5316C13.7179 11.5211 13.6757 11.5246 13.7214 11.5563C13.7819 11.588 13.8503 11.6014 13.9183 11.5949C13.964 11.5879 14.0132 11.5703 14.0448 11.5949C14.08 11.6195 14.1468 11.6547 14.1819 11.6477C14.2285 11.6383 14.2765 11.6395 14.3226 11.6512C14.3437 11.6617 14.3858 11.6969 14.3226 11.6758C14.2593 11.6547 14.2101 11.6758 14.1784 11.6582C14.2136 11.7039 14.2839 11.7777 14.3472 11.7777C14.3612 11.7777 14.3718 11.8023 14.3401 11.8164C14.3683 11.834 14.4421 11.8445 14.4808 11.8094C14.4702 11.8234 14.4772 11.834 14.4913 11.841C14.5054 11.848 14.5265 11.8621 14.4983 11.8621C14.4702 11.8656 14.4034 11.8727 14.3823 11.8656C14.4456 11.9043 14.6108 11.9711 14.7761 11.9359C14.8112 11.9359 14.8253 11.9184 14.7761 11.9219C14.6636 11.9219 14.6601 11.9219 14.639 11.9113C14.6179 11.9008 14.6249 11.8902 14.6565 11.8797C14.6847 11.8691 14.762 11.8621 14.7972 11.8621C14.8288 11.8621 14.8605 11.8445 14.7972 11.8445C14.7339 11.8445 14.646 11.8445 14.6144 11.834C14.5827 11.827 14.5581 11.8094 14.5897 11.7848C14.6249 11.7602 14.6601 11.7707 14.6776 11.7496C14.5722 11.7496 14.4386 11.6934 14.5124 11.6371C14.53 11.6266 14.523 11.6266 14.4948 11.623C14.4667 11.623 14.3894 11.5984 14.3542 11.5773C14.319 11.5562 14.3437 11.5422 14.3683 11.5387C14.3085 11.5492 14.1819 11.5141 14.094 11.4508H14.0976ZM15.0468 11.4473C14.9823 11.4873 14.9082 11.5091 14.8323 11.5105C14.7866 11.5105 14.7761 11.5246 14.8147 11.5316C14.8499 11.5352 14.8886 11.5387 14.9062 11.5352C14.9237 11.5316 14.9308 11.5316 14.9589 11.5387C14.9971 11.5538 15.0394 11.555 15.0784 11.5422C15.1276 11.5285 15.1786 11.5226 15.2296 11.5246C15.2612 11.5246 15.2964 11.5246 15.2296 11.5105C15.1692 11.4991 15.1072 11.4991 15.0468 11.5105C15.0257 11.5141 14.9589 11.5105 14.994 11.5035C15.0237 11.4936 15.0511 11.478 15.0749 11.4578C15.0644 11.4578 15.0573 11.4508 15.0468 11.4473ZM15.0151 11.5738C14.9578 11.6165 14.8895 11.6421 14.8183 11.6477C14.8886 11.6723 14.9448 11.7461 14.987 11.7426C14.9659 11.7531 14.9378 11.7707 14.9132 11.7777C14.9554 11.7883 15.0257 11.7777 15.0819 11.7426C15.1804 11.7707 15.3069 11.7531 15.3491 11.718C15.2877 11.7183 15.2276 11.6999 15.1769 11.6652C15.2085 11.6652 15.2366 11.6477 15.2542 11.6301C15.1769 11.6406 15.0503 11.602 15.0151 11.5738Z" fill="#00D860"/>
<path id="Vector_27" d="M14.9131 11.7771C14.9412 11.7771 14.9658 11.7525 14.9869 11.742C14.862 11.7511 14.7372 11.7229 14.6283 11.6611C14.5615 11.5978 14.5615 11.647 14.6107 11.6892C14.6505 11.7268 14.6987 11.7544 14.7513 11.7697C14.8039 11.785 14.8593 11.7875 14.9131 11.7771ZM15.0818 11.9248C15.0537 11.9423 14.9131 11.9494 14.8709 11.9423C14.8252 11.9318 14.8006 11.9353 14.8146 11.9529C14.8287 11.9705 14.8322 11.988 14.7936 11.9845C14.7499 11.979 14.7056 11.9826 14.6635 11.9951C14.6389 12.0056 14.6002 12.0302 14.6635 12.0197C14.7162 12.0127 14.7689 11.9986 14.8146 12.0127C14.8568 12.0232 15.015 12.0267 15.0467 12.0127C15.0748 11.9951 15.0572 11.9986 15.0396 11.9986C15.0256 11.9986 15.0221 11.9916 15.0396 11.981C15.0607 11.9705 15.0783 11.9459 15.0818 11.9248ZM13.7354 11.7349C13.6374 11.7715 13.5361 11.7985 13.433 11.8158C13.3859 11.8404 13.3347 11.8559 13.2818 11.8615C13.3064 11.8826 13.3908 11.9037 13.426 11.8931C13.402 11.914 13.3747 11.9306 13.3451 11.9423C13.3979 11.9388 13.4576 11.9494 13.4857 11.9529C13.4212 11.9878 13.348 12.0037 13.2748 11.9986C13.2889 12.0232 13.31 12.0443 13.3451 12.0443C13.2878 12.0603 13.2273 12.0615 13.1693 12.0478C13.1834 12.083 13.201 12.1005 13.2221 12.1041C13.1729 12.1111 13.1061 12.1181 13.0498 12.0865C13.092 12.1427 13.1869 12.1638 13.3311 12.1462C13.4331 12.1347 13.5309 12.0985 13.6158 12.0408C13.5561 12.0478 13.4787 12.0513 13.44 12.0408C13.538 12.0166 13.6317 11.9774 13.7178 11.9248C13.6867 11.9256 13.656 11.917 13.6299 11.9002C13.6721 11.9037 13.8338 11.8861 13.8795 11.865C13.8359 11.8554 13.7972 11.8304 13.7705 11.7947C13.9466 11.846 14.1328 11.8521 14.3119 11.8123C14.3365 11.8052 14.3436 11.7701 14.2908 11.7771C14.1994 11.7806 14.0236 11.756 13.9779 11.7349C14.0166 11.7631 14.061 11.7823 14.108 11.7912C14.0236 11.8158 13.9041 11.8334 13.7354 11.7349Z" fill="#00D860"/>
<path id="Vector_28" d="M13.3453 11.9463L13.4262 11.8971C13.3762 11.8998 13.3263 11.8888 13.282 11.8655C13.3137 11.8655 13.3664 11.8479 13.4332 11.8198C13.3137 11.8163 13.2328 11.8163 13.1871 11.7952C13.1397 11.7785 13.0887 11.7749 13.0395 11.7846C13.0113 11.7917 13.0219 11.8374 13.1449 11.8268C13.0693 11.8623 12.9849 11.8745 12.9023 11.862C12.9164 11.9042 12.927 11.9463 12.9129 11.9674C12.9832 12.0061 13.159 12.0588 13.2469 12.0483C13.1695 12.0202 13.1273 11.9885 13.1906 11.9815C13.2539 11.9745 13.2891 11.9604 13.3453 11.9463Z" fill="#00D860"/>
<path id="Vector_29" d="M13.148 12.1564C13.2991 12.1423 13.5066 12.1388 13.6753 12.0017C13.7175 11.963 13.7456 11.9771 13.7034 12.0122C13.5553 12.1252 13.3762 12.1902 13.1902 12.1986C13.1058 12.1986 13.0671 12.1634 13.148 12.1564Z" fill="black"/>
<path id="Vector_30" d="M14.3084 11.8965C14.2697 11.9141 14.1608 11.9316 14.1291 11.9281C14.094 11.9246 14.0483 11.9211 14.0236 11.9352C13.9955 11.9492 13.9955 11.9598 14.0307 11.9668L14.1361 11.9703C14.114 11.9824 14.0948 11.9992 14.0799 12.0195C14.1291 12.0055 14.2275 12.0301 14.2557 12.0477C14.2311 12.0512 14.21 12.0441 14.1924 12.0336C14.2803 12.1285 14.5404 12.1285 14.5791 12.1109C14.5615 12.125 14.544 12.1391 14.5229 12.1461C14.5967 12.1566 14.6811 12.1566 14.7619 12.1074C14.7184 12.109 14.6749 12.1066 14.6318 12.1004C14.6499 12.0838 14.6715 12.0718 14.6951 12.0652C14.6422 12.0589 14.5885 12.0625 14.5369 12.0758C14.5475 12.0547 14.5615 12.0301 14.5826 12.023C14.4678 12.0314 14.3524 12.0195 14.2416 11.9879C14.333 11.9984 14.4315 11.9457 14.4772 11.9457C14.4068 11.9457 14.326 11.9281 14.3084 11.8965ZM13.9815 11.9703C13.9193 11.9819 13.8582 11.9983 13.7986 12.0195C13.7705 12.0336 13.7459 12.0477 13.7986 12.0477C13.8057 12.0453 13.8127 12.043 13.8197 12.0406C13.7986 12.0406 13.7705 12.0406 13.8127 12.0266C13.8549 12.0125 13.9111 11.9844 13.9815 11.9703ZM13.8549 12.1215C13.876 12.1215 13.9779 12.1215 14.0131 12.0863C14.0553 12.118 14.1326 12.1637 14.1818 12.1637C14.2346 12.1637 14.2275 12.1742 14.1818 12.1813C14.1397 12.1848 14.0553 12.1566 14.0131 12.125C13.9533 12.1461 13.9041 12.1285 13.8514 12.118L13.8549 12.1215ZM13.1025 12.5574C13.2045 12.5961 13.3346 12.6277 13.433 12.5926C13.4893 12.6418 13.6018 12.6453 13.665 12.6312C13.7248 12.6207 13.7811 12.6102 13.8479 12.6312C13.9182 12.6559 14.0553 12.6594 14.094 12.691C14.0588 12.691 13.985 12.691 13.9639 12.698C13.9463 12.7016 13.9568 12.7121 13.9885 12.7332C13.8631 12.7288 13.739 12.7592 13.6299 12.8211C13.646 12.7845 13.6727 12.7536 13.7065 12.7323C13.7404 12.711 13.7798 12.7003 13.8197 12.7016C13.7635 12.6805 13.5736 12.6805 13.5139 12.7156C13.4963 12.698 13.4752 12.6664 13.4752 12.6559C13.3733 12.7086 13.1834 12.6277 13.1025 12.5574ZM12.8459 12.3746C12.9654 12.3605 13.0498 12.3219 13.085 12.2832C13.1025 12.3043 13.1904 12.3254 13.2854 12.2938C13.2774 12.3004 13.2717 12.3095 13.2692 12.3196C13.2666 12.3297 13.2674 12.3403 13.2713 12.35C13.1949 12.3565 13.1201 12.3755 13.0498 12.4062C13.0111 12.4238 12.8916 12.4414 12.8529 12.4203C12.8178 12.3992 12.8143 12.3781 12.8459 12.3746Z" fill="#00D860"/>
<path id="Vector_31" d="M13.2713 12.3512C13.208 12.3512 13.092 12.3863 13.0498 12.4074L13.0674 12.4672C13.2237 12.422 13.3866 12.4042 13.549 12.4145C13.5033 12.4145 13.4084 12.4672 13.3592 12.4742C13.4857 12.4637 13.6053 12.4918 13.6404 12.4988C13.6721 12.5059 13.6756 12.534 13.6545 12.5551C13.6299 12.5762 13.6193 12.5797 13.6721 12.5797C13.7213 12.5797 13.8303 12.5797 13.8795 12.5305C13.8584 12.5094 13.8092 12.5164 13.7951 12.5023C13.8268 12.4913 13.8557 12.4733 13.8795 12.4496C13.83 12.4519 13.7805 12.4483 13.7318 12.4391C13.7037 12.432 13.6826 12.425 13.7178 12.4039C13.7418 12.3917 13.7633 12.375 13.7811 12.3547C13.7178 12.3723 13.6193 12.3898 13.535 12.3195C13.5701 12.3336 13.6404 12.3266 13.665 12.316C13.6369 12.2984 13.6158 12.2914 13.5947 12.2914C13.658 12.2562 13.7881 12.2281 13.9533 12.2914C14.0298 12.2852 14.1067 12.29 14.1818 12.3055C14.21 12.2809 14.2627 12.2176 14.2908 12.2035C14.101 12.2176 13.76 12.1824 13.7635 12.084C13.7037 12.1648 13.5631 12.2105 13.4998 12.1965C13.4928 12.2246 13.5174 12.2598 13.5385 12.2809C13.4787 12.2914 13.3662 12.3055 13.3135 12.2914C13.3416 12.323 13.3979 12.3477 13.433 12.3441C13.3627 12.3441 13.3275 12.3582 13.2713 12.3512Z" fill="#00D860"/>
<path id="Vector_32" d="M13.6719 12.5789C13.7211 12.5789 13.8301 12.5789 13.8793 12.5297C13.8582 12.5086 13.809 12.5156 13.7949 12.5016C13.8266 12.4904 13.8554 12.4724 13.8793 12.4488C14.0164 12.4348 14.1359 12.4418 14.1957 12.4242C14.2555 12.4066 14.4066 12.4172 14.4313 12.4066C14.3047 12.4312 14.2801 12.4418 14.2695 12.4629C14.2625 12.484 14.3152 12.498 14.3434 12.498C14.2871 12.498 14.2133 12.5578 14.2027 12.5824C14.1324 12.5402 14.0938 12.593 14.0832 12.6105C14.0498 12.6023 14.0149 12.6012 13.981 12.6072C13.9471 12.6133 13.9149 12.6264 13.8863 12.6457C13.816 12.6281 13.7703 12.6141 13.7 12.6281C13.7457 12.6176 13.7352 12.5859 13.6719 12.5824V12.5789ZM14.2906 12.1992C14.3363 12.1992 14.4313 12.2063 14.4664 12.1992C14.4442 12.2097 14.424 12.224 14.4066 12.2414C14.5191 12.2273 14.6668 12.2203 14.709 12.2273C14.6598 12.2168 14.6035 12.252 14.5754 12.273C14.5473 12.2906 14.5648 12.2977 14.6 12.3047C14.6387 12.3082 14.6914 12.3398 14.6211 12.3293C14.5429 12.3208 14.464 12.3196 14.3855 12.3258C14.3539 12.3293 14.3363 12.3152 14.3855 12.3082C14.4277 12.2977 14.4629 12.2836 14.484 12.273C14.4397 12.2801 14.3946 12.2801 14.3504 12.273C14.3258 12.266 14.3117 12.252 14.3363 12.2484C14.3609 12.2449 14.3469 12.2309 14.3187 12.2344C14.2906 12.2414 14.2203 12.2695 14.1816 12.3047C14.2238 12.2625 14.2625 12.2238 14.2906 12.2027V12.1992Z" fill="#00D860"/>
<path id="Vector_33" d="M13.7984 12.2759C13.8255 12.3069 13.859 12.3315 13.8967 12.3479C13.9344 12.3643 13.9753 12.3722 14.0164 12.3709C14.0375 12.3709 14.0762 12.399 14.0234 12.4025C13.8898 12.406 13.823 12.3779 13.7633 12.29C13.7492 12.2689 13.7703 12.2443 13.7984 12.2724V12.2759ZM14.607 11.1404C14.7121 11.1823 14.8244 11.2026 14.9375 11.2002C14.9586 11.2002 14.9937 11.2177 14.948 11.2248C14.8279 11.2394 14.7062 11.216 14.6 11.158C14.5754 11.1439 14.5824 11.1299 14.6105 11.1404H14.607Z" fill="black"/>
<path id="Vector_34" d="M14.6809 11.1441C14.7934 11.1371 14.8777 11.1371 14.9094 11.1723C14.9727 11.1512 15.0852 11.1371 15.1098 11.1477C15.1379 11.1547 15.166 11.1371 15.1063 11.123C15.0465 11.109 14.9059 11.102 14.8637 11.1125C14.8215 11.1195 14.6879 11.1266 14.6387 11.1195C14.6562 11.123 14.6703 11.1266 14.6809 11.1371V11.1441ZM15.1098 11.1828C15.1625 11.1547 15.3137 11.1828 15.3559 11.1617C15.3207 11.2004 15.4613 11.2039 15.5773 11.1723C15.5316 11.2004 15.4367 11.2074 15.3945 11.225C15.3523 11.2426 15.3277 11.2285 15.2961 11.218C15.2609 11.2039 15.1801 11.1723 15.1098 11.1828Z" fill="#00D860"/>
<path id="Vector_35" d="M15.5773 11.1727C15.4613 11.2078 15.3242 11.2008 15.3594 11.1621C15.3102 11.1832 15.1625 11.1551 15.1133 11.1832C15.1625 11.1516 15.2047 11.1762 15.2434 11.1094C15.2715 11.1164 15.3242 11.1199 15.3488 11.0918C15.3862 11.0994 15.422 11.1137 15.4543 11.134C15.4754 11.1516 15.5035 11.1305 15.4789 11.0988C15.5281 11.0813 15.4965 11.127 15.623 11.0918C15.6477 11.0848 15.7109 11.0742 15.7355 11.0742C15.6881 11.1131 15.6362 11.1462 15.5809 11.1727H15.5773Z" fill="#00D860"/>
<path id="Vector_36" d="M13.2852 10.6309L13.257 7.86406C13.257 7.7375 13.1973 7.76211 13.1973 7.86406V10.6063L13.2852 10.6309ZM14.1816 7.71289L14.2801 10.6309L14.2695 10.6555H14.2027L14.1395 7.71289H14.1816ZM15.0289 10.1809L14.9797 7.81133C14.9797 7.74102 14.9164 7.75156 14.9164 7.82539L14.9656 10.1809H15.0289Z" fill="#FFFF00" stroke="black" stroke-width="0.4"/>
<path id="Vector_37" d="M13.6825 8.19766L12.8106 8.18711C12.7755 8.36289 12.9864 8.34883 13.0567 8.31016C13.1622 8.37344 13.2325 8.37344 13.2853 8.31016C13.3556 8.37344 13.461 8.35937 13.4962 8.31016C13.5946 8.39805 13.7071 8.31016 13.6825 8.18711V8.19766ZM13.7458 8.62305H12.8739C12.7087 8.77422 12.9091 8.84805 13.0849 8.74609C13.1095 8.79883 13.2079 8.82344 13.2853 8.78477C13.3556 8.83398 13.461 8.79883 13.5067 8.74961C13.5946 8.78477 13.7071 8.79883 13.7564 8.62305H13.7458ZM13.7212 9.18555H12.8739C12.8599 9.32266 13.0356 9.30859 13.0954 9.26992C13.1587 9.37188 13.3064 9.34727 13.3591 9.28398C13.447 9.34727 13.5208 9.3332 13.5595 9.28398C13.6439 9.35781 13.7353 9.25937 13.7212 9.18555ZM13.7704 9.73398L12.8106 9.71992C12.7614 9.88164 12.9091 9.90625 12.9724 9.87109C12.997 9.95547 13.12 9.93086 13.1587 9.87109C13.2079 9.90625 13.2712 9.88164 13.2993 9.84648C13.3099 9.93086 13.4224 9.94492 13.5103 9.87109C13.686 9.99414 13.8442 9.84648 13.7564 9.73047L13.7704 9.73398ZM14.6036 9.50898H13.8196C13.8548 9.65664 13.9321 9.69531 14.0552 9.60742C14.1571 9.70937 14.3048 9.6707 14.3435 9.62148C14.5192 9.75859 14.6036 9.59688 14.6036 9.49492V9.50898ZM14.5333 8.96055L13.7599 8.93594C13.7704 9.13281 13.9567 9.12227 14.0552 9.04844C14.1185 9.13281 14.245 9.1082 14.3048 9.04844C14.3927 9.14687 14.5544 9.08359 14.5298 8.96055H14.5333ZM14.6317 8.34883H13.8091C13.8091 8.48594 13.9954 8.55977 14.1325 8.43672C14.1677 8.59844 14.3189 8.54922 14.3786 8.48594C14.4806 8.60898 14.695 8.46133 14.6317 8.35938V8.34883ZM14.579 7.9375L13.8337 7.94805C13.8337 8.07461 14.0095 8.12383 14.0692 8.02539C14.1044 8.08516 14.231 8.07461 14.2696 8.02539C14.3189 8.11328 14.3927 8.05 14.4173 8.02539C14.5052 8.08516 14.5931 8.05 14.579 7.9375ZM15.4403 8.21172L14.5439 8.19766C14.5439 8.28555 14.6317 8.32422 14.6915 8.28555C14.6915 8.3875 14.8181 8.41211 14.9024 8.33477C14.9552 8.42266 15.1134 8.43672 15.1802 8.33477C15.3032 8.44727 15.4544 8.35938 15.4263 8.21172H15.4403ZM15.4298 8.95H14.5544C14.5544 9.07305 14.695 9.1082 14.7794 9.04844C14.7935 9.14687 14.906 9.15742 14.9657 9.09766C15.0536 9.18555 15.1767 9.19609 15.254 9.09766C15.3524 9.13281 15.4403 9.04844 15.4298 8.94648V8.95ZM15.3771 9.60742H14.681C14.681 9.73398 14.8286 9.73398 14.8919 9.6707C14.9657 9.75859 15.0677 9.75859 15.1274 9.69531C15.2153 9.76914 15.3665 9.74453 15.3771 9.60742Z" fill="white" stroke="black" stroke-width="0.4"/>
<path id="Vector_38" d="M14.2703 10.6556C13.8942 10.6556 13.5074 10.6556 13.2473 10.631C12.9836 10.6064 12.9098 10.5571 12.7234 10.4446L12.0238 10.0193C11.9641 9.99113 11.9008 10.0298 11.9887 10.079L12.6848 10.5396C12.8746 10.6661 12.9977 10.7786 13.1067 10.9157C13.2578 11.0775 13.3598 11.0775 13.4336 11.0529C13.5074 11.0282 13.6094 10.9896 13.7219 11.0142C13.8203 11.0388 13.968 11.0493 14.0453 11.0388C14.1086 11.1021 14.2703 11.088 14.3582 11.0634C14.4265 11.0421 14.4991 11.0384 14.5692 11.0529H14.7801C14.8434 11.0529 15.0051 11.0142 15.1176 11.0282C15.2406 11.0529 15.3531 11.0282 15.4305 11.0282C15.5108 11.0072 15.5944 11.0024 15.6766 11.0142C15.7375 10.9717 15.7821 10.9097 15.8031 10.8384C15.877 10.8279 15.9016 10.8138 15.9156 10.7786L15.9895 10.5782H16.0141V10.5044L15.9649 10.4271L15.9895 10.304L16.0527 10.2794L16.0281 10.1529L14.9313 10.1775C14.8905 10.2144 14.8633 10.2639 14.8539 10.3181L14.5305 10.3673C14.4953 10.3779 14.4567 10.3779 14.418 10.4271L14.2703 10.6556Z" fill="black" stroke="black" stroke-width="0.4"/>
<path id="Vector_39" d="M15.5779 10.171L15.7396 9.5593C15.7643 9.49602 15.7045 9.48548 15.6764 9.5593L15.5146 10.171H15.5779Z" fill="black" stroke="black" stroke-width="0.4"/>
<path id="Vector_40" d="M16.2145 9.48438C16.0773 9.54414 16.0035 9.58281 15.9402 9.5582C15.877 9.53359 15.7996 9.52305 15.7539 9.54414C15.7544 9.54881 15.7544 9.55353 15.7539 9.5582C15.7077 9.71659 15.6608 9.8748 15.6133 10.0328C15.7188 10.068 15.891 10.068 15.9297 10.0328C15.9789 9.98359 16.0914 9.99766 16.1512 9.99766C16.1863 9.94492 16.2004 9.88164 16.1863 9.85703C16.1758 9.83242 16.1863 9.76914 16.1863 9.73398C16.1863 9.69531 16.2391 9.5582 16.2145 9.48438Z" fill="white" stroke="black" stroke-width="0.4"/>
<path id="Vector_41" d="M13.0711 8.31133C12.8302 8.94092 12.4947 9.5301 12.0762 10.0586M12.3223 10.2062C12.8759 9.76122 13.3563 9.23214 13.7461 8.63828M12.8742 9.17266C12.8355 9.51016 12.7336 10.1078 12.6844 10.4207M13.0113 9.92148C12.8848 10.0445 12.723 10.2449 12.5859 10.3574M14.168 9.24648C14.0695 9.34844 13.957 9.47148 13.8445 9.49609M14.2312 9.27109C14.3229 9.3767 14.4387 9.45869 14.5687 9.51016M14.168 8.73672C14.0594 8.83169 13.9326 8.90347 13.7953 8.94766M14.2172 8.74727C14.2947 8.83542 14.3892 8.90715 14.4949 8.9582M13.8164 8.35352C13.9414 8.31737 14.0567 8.2537 14.1539 8.16719M14.1891 8.16719C14.277 8.25508 14.4387 8.34297 14.5266 8.36406M13.841 7.95273C13.9584 7.93172 14.0644 7.86936 14.1398 7.77695M14.175 7.75586C14.2664 7.82969 14.4281 7.93164 14.516 7.94219M14.9133 8.04062C14.8641 8.10391 14.727 8.20234 14.6391 8.20234M14.9766 8.04062C15.0117 8.10391 15.1137 8.20234 15.177 8.20234M14.5793 8.95117C14.7123 8.90134 14.8316 8.82061 14.9273 8.71562M14.9871 8.72617C15.0478 8.81907 15.1298 8.89619 15.2262 8.95117M14.7164 9.59805C14.7691 9.59805 14.9062 9.5207 14.9414 9.43633M15.0188 9.39766C15.0869 9.48273 15.1703 9.55428 15.2648 9.60859M12.934 9.72109C13.1763 9.62575 13.3939 9.4767 13.5703 9.28516M13.2715 9.5207C13.3913 9.61454 13.5271 9.686 13.6723 9.73164M12.8988 9.17266C13.0087 9.12874 13.1099 9.06565 13.1977 8.98633M13.2574 8.97227C13.2961 9.02148 13.5598 9.1832 13.6723 9.1832M13.1977 8.44844C13.1026 8.52209 12.9971 8.58132 12.8848 8.62422M13.2574 8.44844C13.3453 8.51172 13.5316 8.62422 13.6441 8.62422M13.1977 7.94922C13.1123 8.04529 13.0113 8.12613 12.8988 8.18828M13.2574 7.96328C13.3102 8.05117 13.4578 8.17422 13.5598 8.18828M14.5547 8.5082C14.8273 8.97962 15.1977 9.38719 15.641 9.70352M13.8832 8.04766C14.2348 8.54687 14.9027 9.62969 15.5531 10.0305M15.6762 9.60859C15.5099 9.83395 15.3037 10.027 15.068 10.1781M15.6305 9.74219C15.416 9.39062 15.3035 8.9582 15.1277 8.37109M13.6301 10.6668L13.384 9.91797H13.2715M13.3348 9.90391L13.5703 10.6527M13.2715 9.86875L13.4965 10.6422M13.2469 9.8793L13.4227 10.6422M13.4227 10.6141H13.6336M13.609 10.5437H13.4086M13.5844 10.477H13.384M13.5598 10.4172H13.3594M13.5211 10.3398H13.3594M13.3453 10.2801H13.507M13.3313 10.2309H13.4965M13.3207 10.1676H13.4719M13.3102 10.1184H13.4473M13.2961 10.0551H13.4227M13.282 10.0059H13.4086M13.2715 9.96719H13.3945M13.0605 9.91797L12.9094 10.5402M13.0957 9.91797L12.9727 10.5648M13.1344 9.89336L13.0359 10.5789M13.1836 9.8793L13.1098 10.6035M13.1977 10.5543H12.948M13.1941 10.491H12.9129M13.1941 10.4172H12.9375M13.1871 10.3539H12.9516M13.1977 10.2906H12.9621M13.2012 10.2168H12.9902M13.2012 10.1535H12.9902M13.1871 10.0902H13.0008M13.1871 10.0305H13.0254M13.1871 9.96719H13.0395M13.1871 9.93203H13.05M13.1766 10.6141V9.8793M13.9852 9.6332L13.4859 10.6422M14.0238 9.61914L13.602 10.6527M14.0484 9.60508L13.7109 10.6527M14.0871 9.6332L13.8129 10.6527M13.8234 10.6176H13.5105M13.848 10.5156H13.5492M13.8621 10.4418H13.6055M13.9043 10.368H13.6547M13.9148 10.2906H13.6793M13.943 10.2168H13.718M13.9641 10.1289H13.7672M13.9781 10.0656H13.7918M14.0027 9.99531H13.827M14.0168 9.94258H13.8551M14.0309 9.89336H13.8551M14.0168 9.84414H13.8902M14.0168 9.80547H13.9043M14.0273 9.75625H13.9289M14.052 9.70703H13.957M14.0555 9.66836H13.9711M14.393 9.6543L14.6039 10.3539L14.8289 9.70703M14.4281 9.66836L14.6918 10.3398L14.8922 9.67891M14.4668 9.66836L14.7832 10.3293M14.8535 10.266L14.5055 9.6543M14.857 10.2801H14.6039M14.8289 10.1781H14.5828M14.7937 10.1043H14.5547M14.741 10.0164H14.5301M14.6918 9.94258H14.5055M14.6461 9.85469H14.4809M14.6039 9.7668H14.4563M14.5547 9.69297H14.4316M14.7797 10.3293L14.9309 9.70703M14.966 9.73164L14.843 10.3152M14.632 10.2801H14.843M14.6566 10.2027H14.8676M14.6813 10.1184H14.8816M14.7164 10.041H14.9062M14.741 9.95312H14.9168M14.7691 9.88281H14.9309M14.8043 9.79141H14.9555M14.8289 9.72109H14.9555M15.068 9.73164L15.1664 10.1781M15.1031 9.70703L15.2438 10.1641M15.1559 9.70703L15.3035 10.1641M15.2156 9.73164L15.3773 10.1676M15.3668 10.1324H15.1559M15.3422 10.0656H15.1418M15.3176 10.0059H15.1277M15.293 9.92852H15.1031M15.2543 9.86875H15.0785M15.2297 9.80547H15.068M15.2051 9.74219H15.0539" stroke="black" stroke-width="0.4"/>
<path id="Vector_42" d="M13.1553 10.8881C13.2108 10.8581 13.2734 10.8435 13.3365 10.846C13.3996 10.8484 13.4609 10.8679 13.5139 10.9022C13.6193 10.8424 13.8057 10.86 13.8936 10.9374C14.0271 10.846 14.1396 10.8319 14.2697 10.9198C14.3752 10.8495 14.5229 10.8424 14.6459 10.9268C14.7619 10.8706 14.892 10.8249 15.0045 10.9479C14.9342 10.8987 14.7936 10.8565 14.6459 10.969C14.5299 10.8565 14.333 10.8987 14.2697 10.976C14.2461 10.9503 14.2173 10.9298 14.1852 10.9161C14.1531 10.9023 14.1185 10.8955 14.0836 10.8962C14.0487 10.8969 14.0143 10.905 13.9827 10.9199C13.9512 10.9349 13.9232 10.9564 13.9006 10.9831C13.7846 10.8846 13.6088 10.8811 13.5139 10.9585C13.44 10.8987 13.3311 10.8495 13.1553 10.8881Z" fill="#00B800"/>
<path id="Vector_43" d="M14.9237 10.7504C14.2965 10.8165 13.6636 10.8047 13.0393 10.7152C12.9585 10.6906 12.9796 10.6625 13.0499 10.6801C13.4552 10.7354 13.8651 10.7496 14.2733 10.7223L14.4737 10.4516C14.5089 10.4129 14.5159 10.4059 14.5792 10.3953L14.8604 10.3496V10.3883L14.8393 10.4094C14.8393 10.4727 14.8534 10.6344 14.8639 10.6977C14.878 10.6977 14.8956 10.6871 14.8991 10.6871C14.9272 10.6801 14.9483 10.7398 14.9272 10.7469L14.9237 10.7504Z" fill="#CF6200"/>
<path id="Vector_44" d="M15.7707 10.7758H15.8375C15.8518 10.775 15.8655 10.7699 15.8769 10.7611C15.8882 10.7523 15.8965 10.7402 15.9008 10.7266L15.9711 10.5227L15.9184 10.4453C15.9277 10.3892 15.9359 10.333 15.943 10.2766L16.0133 10.252C16.0133 10.2379 16.0098 10.1957 15.9922 10.1816C15.7707 10.1922 15.1133 10.2168 14.9867 10.2168C14.9586 10.2168 14.9445 10.2168 14.934 10.2555C14.8707 10.4875 14.9586 10.8109 15.1906 10.9938C15.2082 11.0113 15.2258 10.9973 15.1977 10.9727C15.1442 10.9205 15.0981 10.8614 15.0606 10.7969L15.2258 10.7898C15.2399 10.8426 15.2785 10.9586 15.2891 10.9762C15.2961 10.9973 15.3137 11.0043 15.3067 10.9762C15.282 10.9059 15.2715 10.825 15.2609 10.7898L15.4367 10.7863L15.4438 10.9516C15.4438 10.9762 15.4649 10.9762 15.4649 10.9516V10.7828L15.616 10.7793L15.602 10.9445C15.602 10.9691 15.6125 10.9867 15.6195 10.9445L15.6442 10.7793H15.7496C15.7496 10.8074 15.7145 10.9164 15.7039 10.941C15.6969 10.9691 15.7074 10.9691 15.718 10.941C15.7418 10.8881 15.7595 10.8327 15.7707 10.7758Z" fill="#CF6200"/>
<path id="Vector_45" d="M15.0326 10.7473C15.0186 10.7121 14.9623 10.5855 14.9588 10.4941L15.1768 10.4871C15.1866 10.5733 15.2006 10.659 15.2189 10.7438L15.0326 10.7473ZM15.2189 10.4871L15.2541 10.7438H15.4299L15.4229 10.4836L15.2189 10.4871ZM14.9658 10.2621C14.9588 10.3078 14.9553 10.4062 14.9588 10.452L15.1732 10.4484L15.1557 10.2551L14.9658 10.2621ZM15.1979 10.2551L15.2119 10.4449L15.4229 10.4414L15.4123 10.248L15.1979 10.2551ZM15.4545 10.248C15.4545 10.2902 15.4615 10.4098 15.458 10.4414L15.6443 10.4344C15.6443 10.3922 15.6514 10.2727 15.6479 10.241L15.4545 10.248ZM15.683 10.241L15.6795 10.4344L15.8764 10.4273C15.8869 10.3887 15.9045 10.2762 15.9045 10.2305L15.683 10.241ZM15.8869 10.4695L15.676 10.4766C15.6706 10.5622 15.6636 10.6478 15.6549 10.7332L15.8553 10.7262C15.8827 10.662 15.9062 10.5963 15.9256 10.5293L15.8869 10.4695ZM15.465 10.4801L15.4686 10.7367L15.6197 10.7332L15.6408 10.4766L15.465 10.4801ZM14.6002 10.4309L14.5193 10.4484C14.4539 10.5429 14.3859 10.6355 14.3154 10.7262L14.6107 10.7191L14.6002 10.4344V10.4309ZM14.6389 10.4238L14.6494 10.7156L14.8252 10.7016L14.8006 10.3957L14.6389 10.4238Z" fill="black"/>
<g id="Vector_46">
<path d="M13.7703 9.73477H12.8105V9.71016L13.7703 9.7207V9.73477ZM14.5191 8.96133C14.5297 8.96133 14.5297 8.96133 14.5191 8.96133L13.7703 8.94727C13.7563 8.94727 13.7563 8.94727 13.7703 8.94727H14.5191V8.96133ZM13.7211 9.17227C13.7316 9.17227 13.7316 9.18633 13.7211 9.18633H12.8738C12.8598 9.18633 12.8738 9.17227 12.8738 9.17227H13.7211ZM13.7457 8.62383C13.7563 8.62383 13.7563 8.63789 13.7457 8.63789H12.8598C12.8457 8.63789 12.8457 8.62383 12.8598 8.62383H13.7457ZM13.6824 8.18789C13.6965 8.18789 13.6965 8.19844 13.6824 8.19844H12.8211C12.8105 8.19844 12.8211 8.17383 12.8211 8.17383L13.6965 8.18789H13.6824Z" fill="black"/>
<path d="M14.5191 8.96133C14.5297 8.96133 14.5297 8.96133 14.5191 8.96133ZM14.5191 8.96133L13.7703 8.94727M14.5191 8.96133V8.94727H13.7703M13.7703 8.94727C13.7563 8.94727 13.7563 8.94727 13.7703 8.94727ZM13.7703 9.73477H12.8105V9.71016L13.7703 9.7207V9.73477ZM13.7211 9.17227C13.7316 9.17227 13.7316 9.18633 13.7211 9.18633H12.8738C12.8598 9.18633 12.8738 9.17227 12.8738 9.17227H13.7211ZM13.7457 8.62383C13.7563 8.62383 13.7563 8.63789 13.7457 8.63789H12.8598C12.8457 8.63789 12.8457 8.62383 12.8598 8.62383H13.7457ZM13.6824 8.18789C13.6965 8.18789 13.6965 8.19844 13.6824 8.19844H12.8211C12.8105 8.19844 12.8211 8.17383 12.8211 8.17383L13.6965 8.18789H13.6824Z" stroke="black" stroke-width="0.4"/>
</g>
<path id="Vector_47" d="M14.5793 7.9375L13.834 7.94805" stroke="black" stroke-width="0.4"/>
<g id="Vector_48">
<path d="M14.618 8.36094C14.632 8.36094 14.632 8.36094 14.618 8.36094H13.8094C13.7953 8.36094 13.7953 8.36094 13.8094 8.36094H14.618ZM15.4266 8.9375V8.94805H14.5547C14.5301 8.94805 14.5301 8.94805 14.5547 8.94805H15.4336L15.4266 8.9375ZM15.4266 8.19922C15.4547 8.19922 15.4547 8.21328 15.4266 8.21328H14.5441C14.5301 8.21328 14.5301 8.19922 14.5441 8.19922H15.4406H15.4266ZM14.6039 9.5C14.618 9.5 14.618 9.51055 14.6039 9.51055H13.8094V9.49648L14.6039 9.5ZM15.3773 9.60898C15.3914 9.60898 15.3914 9.60898 15.3773 9.60898Z" fill="black"/>
<path d="M14.618 8.36094C14.632 8.36094 14.632 8.36094 14.618 8.36094ZM14.618 8.36094H13.8094M13.8094 8.36094C13.7953 8.36094 13.7953 8.36094 13.8094 8.36094ZM14.5547 8.94805H15.4266V8.9375L15.4336 8.94805H14.5547ZM14.5547 8.94805C14.5301 8.94805 14.5301 8.94805 14.5547 8.94805ZM15.3773 9.60898C15.3914 9.60898 15.3914 9.60898 15.3773 9.60898ZM15.3773 9.60898H14.6813M15.4266 8.19922C15.4547 8.19922 15.4547 8.21328 15.4266 8.21328H14.5441C14.5301 8.21328 14.5301 8.19922 14.5441 8.19922H15.4406H15.4266ZM14.6039 9.5C14.618 9.5 14.618 9.51055 14.6039 9.51055H13.8094V9.49648L14.6039 9.5Z" stroke="black" stroke-width="0.4"/>
</g>
<path id="Vector_49" d="M16.0139 9.73555C16.0279 9.67779 16.0279 9.61752 16.0139 9.55976C15.9897 9.56652 15.9642 9.56652 15.94 9.55976C15.9288 9.55089 15.9171 9.54268 15.9049 9.53516C15.9049 9.58437 15.8768 9.72148 15.8521 9.7707C15.817 9.7707 15.7291 9.7707 15.6904 9.74609L15.6553 9.87266C15.7167 9.88608 15.7802 9.88608 15.8416 9.87266C15.8416 9.94297 15.8275 10.0098 15.7889 10.059C15.8521 10.059 15.9154 10.059 15.9295 10.0238C15.9646 9.97109 15.9646 9.89726 15.9787 9.85859L16.0385 9.84805L16.1018 9.81992L16.1896 9.80937V9.73555L16.2143 9.68281L16.0139 9.74609V9.73555Z" fill="#EF072D" stroke="black" stroke-width="0.4"/>
<path id="Vector_50" d="M12.9234 5.51981C12.7975 5.51364 12.6713 5.5219 12.5472 5.54442C12.5121 5.56903 12.498 5.57958 12.5718 5.59364C12.6492 5.6077 12.7828 5.65692 12.8601 5.69208C12.9005 5.71944 12.9331 5.75684 12.9547 5.8006C12.9762 5.84436 12.9861 5.89298 12.9832 5.94169C12.9557 6.0958 12.9772 6.25465 13.0447 6.3959C13.1121 6.53716 13.2222 6.65371 13.3593 6.72919C13.3699 6.73973 13.3839 6.7538 13.3699 6.80302L13.3347 6.94364C13.3347 6.96474 13.3207 6.98934 13.3593 6.9788C13.3203 7.04756 13.2781 7.11443 13.2328 7.17919C13.0359 7.15106 12.8601 7.17919 12.8601 7.40067C12.8601 7.42528 12.8601 7.45341 12.8847 7.40067C12.9199 7.35145 12.9585 7.30224 13.0464 7.27763C12.9972 7.36552 12.9726 7.43934 12.9832 7.48856C12.9832 7.52372 13.0113 7.55184 13.0359 7.48856C13.0464 7.43934 13.0957 7.39013 13.1343 7.35145C13.1589 7.34091 13.1589 7.34091 13.1484 7.37606C13.1343 7.41122 13.1589 7.48856 13.1835 7.51669C13.2082 7.53778 13.2187 7.52724 13.2082 7.48856C13.2082 7.43934 13.2082 7.35145 13.2714 7.32684C13.3453 7.27763 13.4226 7.30224 13.4472 7.35145C13.4824 7.41474 13.507 7.35145 13.4718 7.30224C13.4367 7.25302 13.3945 7.18974 13.3453 7.18974L13.4718 6.9788C13.4718 6.95419 13.4964 6.94364 13.521 6.95419C13.521 6.96474 13.5457 6.96474 13.5562 6.92958L13.6441 6.7538L13.7214 6.72919L13.8445 6.91552V6.98934C13.8445 7.04208 13.7953 7.15106 13.7812 7.18974C13.6335 7.18974 13.5597 7.18974 13.507 7.27763C13.4824 7.31278 13.521 7.32684 13.5597 7.31278C13.5969 7.29042 13.6394 7.27829 13.6828 7.27763C13.7074 7.27763 13.7179 7.30224 13.6828 7.31278C13.5949 7.35145 13.5316 7.41473 13.5316 7.50263C13.5316 7.52723 13.5597 7.53778 13.5703 7.50263C13.6054 7.43934 13.6722 7.39013 13.732 7.37606C13.732 7.43934 13.746 7.53778 13.7953 7.56239C13.8304 7.59052 13.8304 7.56239 13.8199 7.52724C13.7953 7.46395 13.8199 7.40067 13.855 7.36552C13.9183 7.28817 14.0695 7.39013 14.1082 7.41473C14.1328 7.43934 14.1574 7.44989 14.1328 7.37958C14.1187 7.28817 13.9921 7.25302 13.8832 7.22841L14.0308 6.70106C14.0941 6.73974 14.1574 6.6413 14.2558 6.67997C14.4316 6.7538 14.6917 6.91552 14.7304 6.95419C14.7796 6.98934 14.7937 6.9788 14.8183 6.95419C14.8429 6.94013 14.8816 6.95419 14.9167 6.95419C14.9414 6.96474 14.966 6.9788 14.9308 6.90497C14.8601 6.77271 14.7574 6.66029 14.632 6.57802C14.7304 6.57802 14.8535 6.57802 14.8535 6.55341C14.8535 6.5288 14.7058 6.47958 14.6425 6.47958C14.7171 6.46587 14.7865 6.4318 14.8429 6.38114C14.8675 6.35302 14.8429 6.34247 14.741 6.34247C14.4808 6.34247 14.3437 6.34247 14.2066 6.26864C13.9816 6.14208 13.8445 5.99442 13.732 5.94169C13.6828 5.90653 13.6441 5.82919 13.6089 5.76591C13.5457 5.58309 13.5457 5.48466 13.3839 5.41786C13.3048 5.39494 13.2211 5.39226 13.1407 5.41007C13.0602 5.42788 12.9855 5.46562 12.9234 5.51981Z" fill="black" stroke="black" stroke-width="0.4"/>
<path id="Vector_51" d="M12.9373 5.56966H12.7229L12.9092 5.61888C12.9443 5.61888 12.9338 5.65403 12.9092 5.64348C12.8846 5.63294 12.86 5.64348 12.8846 5.66809C13.0111 5.75598 13.0357 5.79466 13.0111 6.13216L13.0709 6.18138C13.0955 6.18138 13.085 6.20598 13.0709 6.19192C13.0604 6.18138 13.0111 6.19192 13.0463 6.21653C13.0814 6.24466 13.1096 6.24466 13.0709 6.24466C13.0357 6.24466 12.9971 6.26927 13.0709 6.2552C13.1342 6.2552 13.1729 6.27981 13.0709 6.29036C12.9971 6.29036 13.0217 6.31848 13.0709 6.31848C13.1588 6.31848 13.1342 6.34309 13.1061 6.34309C13.085 6.34309 13.0709 6.3677 13.1342 6.3677H13.2221C13.2326 6.3677 13.2467 6.3677 13.2221 6.38177C13.1975 6.38177 13.1975 6.40638 13.2326 6.40638C13.2713 6.40638 13.2959 6.40638 13.2572 6.41692C13.2467 6.41692 13.2221 6.43098 13.2572 6.44153C13.3451 6.44153 13.3592 6.46614 13.3346 6.47669C13.31 6.49075 13.2994 6.49075 13.3346 6.49075C13.3697 6.49075 13.4084 6.50481 13.3697 6.51888C13.3451 6.51888 13.3346 6.54348 13.3697 6.54348C13.4084 6.54348 13.433 6.56809 13.4084 6.57864C13.3838 6.5927 13.3732 6.60325 13.4084 6.60325C13.4436 6.60325 13.4576 6.61731 13.433 6.62786C13.4084 6.65598 13.3979 6.65598 13.3697 6.62786C13.3697 6.60325 13.3451 6.60325 13.3451 6.62786L13.3205 6.5927C13.31 6.55755 13.2854 6.55755 13.2854 6.5927C13.2854 6.62786 13.2572 6.60325 13.2326 6.5927C13.2927 6.66274 13.3746 6.71052 13.4652 6.72838C13.5557 6.74623 13.6496 6.73312 13.7318 6.69114C13.7459 6.69114 13.7564 6.69114 13.767 6.7263L13.8443 6.86692C13.8584 6.89153 13.8795 6.86692 13.8795 6.84231L13.9568 6.63138C13.9568 6.5927 14.0061 6.56809 13.992 6.66653C14.0307 6.64192 14.1818 6.63138 14.3084 6.66653C14.4271 6.71435 14.5393 6.77696 14.6424 6.85286C14.6512 6.85986 14.6614 6.86477 14.6724 6.86721C14.6834 6.86964 14.6947 6.86955 14.7057 6.86692C14.7408 6.86692 14.7549 6.86692 14.6916 6.80364C14.6318 6.74036 14.6564 6.71575 14.6916 6.74036C14.7303 6.76848 14.7549 6.75442 14.7162 6.71575L14.5932 6.60325C14.5791 6.60325 14.5791 6.57864 14.5193 6.57864H14.3295C14.3049 6.57864 14.2803 6.57864 14.3576 6.60325C14.4279 6.62786 14.5686 6.72981 14.6037 6.75442C14.6424 6.77903 14.6564 6.82825 14.5932 6.77903C14.4511 6.68319 14.3005 6.6008 14.1432 6.53294C13.8092 6.56809 13.5314 6.60325 13.3346 6.39231C13.2326 6.27981 13.2326 6.04075 13.3943 5.94231C13.3697 5.9177 13.3697 5.89309 13.3838 5.89309V5.81927C13.3592 5.8052 13.3346 5.78411 13.3346 5.75598C13.2994 5.75598 13.2713 5.6927 13.208 5.72083C13.1482 5.74544 13.1342 5.72083 13.1096 5.70677C13.0955 5.68216 13.085 5.68216 13.0463 5.68216C13.0111 5.68216 12.983 5.68216 12.983 5.65755C12.983 5.63294 13.0111 5.63294 13.0604 5.65755C13.1482 5.6927 13.2221 5.72083 13.2854 5.63294C13.3346 5.55559 13.2572 5.49231 13.1588 5.47122C13.0463 5.44661 12.9725 5.53098 12.9232 5.56966H12.9373Z" fill="white" stroke="black" stroke-width="0.4"/>
<path id="Vector_52" d="M13.4828 5.5293C13.447 5.49775 13.4051 5.47383 13.3597 5.45898C13.3246 5.45898 13.3246 5.48008 13.3351 5.49414V5.56797C13.3597 5.58203 13.3703 5.60312 13.3351 5.60312C13.3105 5.63125 13.3351 5.71914 13.3703 5.69102H13.3949C13.3949 5.69102 13.3949 5.72969 13.423 5.72969C13.4476 5.72969 13.423 5.7543 13.423 5.76484H13.4476C13.4722 5.76484 13.4582 5.81758 13.4336 5.82812C13.4687 5.82812 13.4828 5.82813 13.4828 5.85625C13.4969 5.88086 13.532 5.89141 13.532 5.92656C13.532 5.96875 13.532 5.96875 13.4828 5.95469C13.4336 5.94062 13.4336 5.95469 13.423 5.9793C13.409 6.00391 13.3949 6.01445 13.423 6.01445C13.4476 6.01445 13.4722 6.02852 13.4336 6.04258C13.3984 6.05312 13.3598 6.04258 13.3457 6.07773C13.3457 6.11641 13.3457 6.13047 13.3703 6.11641L13.4582 6.06719L13.5215 6.07773C13.5461 6.0918 13.5215 6.14102 13.4969 6.11641C13.4722 6.0918 13.4476 6.11641 13.4336 6.13047L13.3703 6.15508C13.3457 6.15508 13.3211 6.15508 13.3351 6.21484C13.3351 6.39062 13.4722 6.51719 13.7219 6.51719H14.1332C14.0558 6.46445 14.0066 6.43984 13.9715 6.43984H13.9328C13.9469 6.4293 13.9328 6.40469 13.9187 6.40469C13.9082 6.40469 13.8836 6.38008 13.859 6.40469L13.7324 6.46445C13.7078 6.46445 13.6726 6.46445 13.7078 6.43984L13.8203 6.39062C13.8449 6.39062 13.8344 6.36602 13.8344 6.36602C13.8344 6.36602 13.8344 6.33086 13.8695 6.34141C13.9375 6.3915 14.0136 6.42955 14.0945 6.45391C14.1297 6.45391 14.1437 6.4293 14.1191 6.41875C14.1095 6.41333 14.1014 6.40573 14.0953 6.39657C14.0892 6.38741 14.0853 6.37694 14.084 6.36602C14.084 6.35195 14.0945 6.34141 14.1437 6.36602C14.1939 6.39811 14.2483 6.42297 14.3055 6.43984C14.3441 6.45391 14.3687 6.45391 14.3055 6.41523L14.0207 6.2043C13.9855 6.16914 13.9855 6.2043 13.9961 6.22891C14.0066 6.25352 13.9609 6.26406 13.9328 6.24297C13.9082 6.21484 13.8976 6.2043 13.9328 6.19023C13.968 6.17969 13.9574 6.16562 13.9187 6.13047C13.8695 6.0918 13.859 6.0918 13.8695 6.13047C13.8836 6.16562 13.8836 6.19023 13.8449 6.17969C13.8097 6.16562 13.7711 6.14453 13.8097 6.13047C13.8344 6.10586 13.8695 6.0918 13.8097 6.05312C13.7465 6.01797 13.7816 6.05312 13.7711 6.07773C13.757 6.10586 13.7219 6.10586 13.7078 6.07773C13.6972 6.05312 13.6726 6.04258 13.6832 6.02852C13.6973 6.01797 13.6973 6.00391 13.7183 6.02852C13.7465 6.05312 13.7711 6.02852 13.7324 5.99336C13.6972 5.95469 13.6832 5.96875 13.6972 5.99336C13.7078 6.01797 13.6726 6.04258 13.6199 5.99336C13.5953 5.9793 13.5953 5.95469 13.6199 5.94062C13.6445 5.94062 13.6445 5.93008 13.6199 5.90547C13.532 5.7543 13.5707 5.6418 13.4723 5.5293H13.4828Z" fill="white" stroke="black" stroke-width="0.4"/>
<path id="Vector_53" d="M13.4899 5.55547C13.4829 5.56953 13.4794 5.56953 13.4653 5.58008C13.4442 5.59063 13.4407 5.6293 13.4723 5.62227C13.4969 5.62227 13.5075 5.60469 13.5145 5.59766C13.5076 5.58291 13.4993 5.56879 13.4899 5.55547ZM13.388 5.47461C13.3634 5.49922 13.3598 5.50977 13.3704 5.50977C13.388 5.50977 13.3809 5.50977 13.3704 5.52734C13.3598 5.54492 13.3915 5.55195 13.4055 5.54492C13.4161 5.53437 13.4196 5.52734 13.4266 5.54492C13.4337 5.55547 13.4512 5.54492 13.4688 5.53086C13.4446 5.50848 13.4174 5.48955 13.388 5.47461ZM13.3423 5.61523C13.3106 5.63281 13.3247 5.71367 13.3704 5.69258C13.388 5.68555 13.402 5.68555 13.3985 5.69961V5.7207C13.42 5.71227 13.4392 5.69904 13.4548 5.68203C13.4864 5.64688 13.4548 5.64688 13.4126 5.64688C13.3669 5.64688 13.3528 5.64336 13.3985 5.61523C13.4337 5.59063 13.4091 5.57656 13.3563 5.58359C13.3634 5.59414 13.3563 5.6082 13.3423 5.61523ZM13.5321 5.80508C13.504 5.78047 13.5216 5.76641 13.5497 5.75586L13.5602 5.7418L13.5391 5.66094C13.5251 5.66094 13.511 5.69258 13.504 5.71016C13.5005 5.73125 13.4934 5.74531 13.4723 5.73477C13.4512 5.73125 13.4337 5.75234 13.4302 5.77695H13.4407C13.4512 5.77695 13.4583 5.79102 13.4548 5.80156C13.5145 5.80156 13.5251 5.84023 13.5321 5.87188C13.5427 5.9 13.5567 5.89297 13.5673 5.87891C13.5743 5.86133 13.5532 5.82969 13.5321 5.80156V5.80508Z" fill="#CF6200"/>
<path id="Vector_54" d="M13.5459 6.14219C13.5354 6.1668 13.5354 6.1668 13.5002 6.1668C13.465 6.1668 13.4229 6.17734 13.4053 6.19492C13.3947 6.20547 13.335 6.20898 13.335 6.23711C13.335 6.26172 13.335 6.28281 13.3596 6.28633C13.3842 6.28633 13.3877 6.29336 13.3807 6.31094C13.3701 6.32852 13.3631 6.36367 13.4053 6.36367C13.451 6.36719 13.4861 6.35664 13.4967 6.38125C13.5072 6.40586 13.4967 6.45156 13.5037 6.46211C13.5143 6.47969 13.5459 6.49023 13.5916 6.5043C13.6268 6.51133 13.7428 6.51836 13.7814 6.51484C13.8166 6.50781 13.8061 6.49023 13.7674 6.4832C13.7322 6.4832 13.7006 6.47617 13.69 6.44805C13.683 6.42344 13.676 6.40937 13.7006 6.38477C13.7182 6.36016 13.7393 6.34609 13.7287 6.30742C13.7146 6.27227 13.6936 6.22305 13.6514 6.2125C13.6092 6.20195 13.6232 6.14219 13.5811 6.13867L13.5459 6.14219Z" fill="#FFFF00"/>
<path id="Vector_55" d="M13.3348 6.49665C13.3734 6.49665 13.4051 6.50719 13.377 6.51774C13.3418 6.52477 13.3242 6.54235 13.3664 6.54587C13.4051 6.54938 13.4367 6.56344 13.4086 6.57399C13.3805 6.58454 13.3734 6.60212 13.4086 6.5986C13.4437 6.5986 13.4613 6.61969 13.4367 6.63376C13.4121 6.64782 13.3945 6.65837 13.377 6.63376C13.3629 6.60915 13.3523 6.5986 13.3453 6.61969C13.3418 6.63727 13.3312 6.62321 13.3172 6.59509C13.3066 6.56344 13.282 6.55993 13.2891 6.58102C13.2961 6.60563 13.2645 6.60563 13.2363 6.59509C13.2651 6.62424 13.2969 6.65018 13.3313 6.67243C13.3664 6.65837 13.4156 6.67243 13.4297 6.67243C13.4438 6.67243 13.4965 6.68649 13.5211 6.69704C13.5492 6.7111 13.5668 6.68649 13.5563 6.66188C13.5457 6.62673 13.5422 6.64079 13.5316 6.65485C13.5141 6.67243 13.5141 6.64782 13.5141 6.61266C13.5141 6.58805 13.4965 6.59509 13.4859 6.61266C13.4789 6.63024 13.4684 6.60212 13.4754 6.58454C13.4824 6.56696 13.4754 6.55993 13.4578 6.56344C13.4437 6.57048 13.4437 6.56344 13.4402 6.52829C13.4402 6.49665 13.4262 6.50368 13.4227 6.51423C13.4156 6.52829 13.4051 6.51071 13.384 6.4861C13.3664 6.46149 13.3488 6.47555 13.3137 6.48962L13.3348 6.49665Z" fill="#CF6200"/>
<path id="Vector_56" d="M13.7288 6.69291C13.5531 6.76674 13.4265 6.7351 13.3281 6.6683C13.3702 6.65776 13.4159 6.6683 13.43 6.6683C13.4619 6.6741 13.4927 6.68478 13.5214 6.69995C13.5495 6.71401 13.5671 6.68588 13.5566 6.65776C13.5847 6.6894 13.5988 6.71049 13.6269 6.71049C13.662 6.70698 13.7042 6.70346 13.7324 6.69291H13.7288ZM13.3527 5.8808C13.3421 5.84565 13.3316 5.8351 13.3105 5.8351L13.2613 5.82807C13.2402 5.81752 13.2085 5.82807 13.2085 5.86674C13.2085 5.90893 13.1804 5.92651 13.1488 5.9476C13.1136 5.97221 13.096 5.9933 13.096 6.03198C13.096 6.06713 13.0855 6.0812 13.0679 6.1058L13.0292 6.14799L13.0714 6.17612C13.0925 6.18315 13.0855 6.20073 13.0609 6.1937C13.0363 6.19018 13.0152 6.20073 13.0538 6.21127C13.089 6.2183 13.1101 6.23588 13.0749 6.23588C13.0363 6.23588 12.9941 6.26401 13.0679 6.25698C13.1382 6.24995 13.1663 6.28159 13.082 6.28159C12.9941 6.28862 13.0292 6.31674 13.0749 6.31674C13.1558 6.31674 13.1312 6.33784 13.1101 6.33784C13.089 6.33784 13.0784 6.36245 13.1312 6.35893H13.1347C13.1417 6.3519 13.1488 6.34135 13.1523 6.32729C13.1593 6.30268 13.1699 6.22885 13.2015 6.20424C13.2296 6.18315 13.2472 6.15502 13.2472 6.13393C13.2594 6.08154 13.2849 6.03314 13.321 5.9933C13.3527 5.9687 13.3632 5.91596 13.3562 5.8808H13.3527Z" fill="#FFFF00"/>
<path id="Vector_57" d="M13.2893 5.881C13.2576 5.85991 13.226 5.87397 13.226 5.90913C13.226 5.9478 13.2084 5.96186 13.1838 5.97241C13.17 5.98076 13.1581 5.99199 13.149 6.00534C13.1399 6.01868 13.1338 6.03383 13.1311 6.04975C13.124 6.07788 13.1346 6.09897 13.11 6.12358C13.0924 6.14819 13.0854 6.16577 13.103 6.17983C13.1205 6.1939 13.1205 6.1939 13.124 6.21499C13.1311 6.23257 13.1662 6.21499 13.1662 6.19038C13.1662 6.16577 13.1768 6.16577 13.2014 6.15522C13.226 6.14116 13.2647 6.07788 13.2541 6.0603C13.2471 6.04624 13.226 6.03218 13.2541 6.00757C13.2823 5.97944 13.3104 5.97944 13.3104 5.95483C13.3104 5.93022 13.3174 5.92671 13.328 5.91616C13.335 5.90913 13.3069 5.89507 13.2893 5.881Z" fill="#CF6200"/>
<path id="Vector_58" d="M13.289 5.8504C13.2679 5.84337 13.2574 5.88555 13.2855 5.89258C13.3136 5.8961 13.3171 5.85743 13.2855 5.8504H13.289ZM13.282 5.90665C13.2644 5.90665 13.2363 5.93477 13.275 5.93126C13.3101 5.92774 13.3242 5.89962 13.282 5.90665ZM13.2433 5.95587C13.2187 5.96993 13.2257 5.99805 13.2539 5.97696C13.2855 5.95235 13.296 5.93126 13.2433 5.95938V5.95587ZM13.2082 6.00508C13.1835 6.01563 13.1906 6.04376 13.2222 6.02266C13.2539 6.00157 13.2644 5.97696 13.2082 6.00508Z" fill="black"/>
<path id="Vector_59" d="M13.163 6.02169C13.1383 6.03224 13.1559 6.06388 13.1876 6.04278C13.2227 6.02521 13.2192 5.99356 13.163 6.02521V6.02169ZM13.1876 6.04981C13.1665 6.06036 13.1841 6.092 13.2122 6.07091C13.2438 6.04981 13.2473 6.02169 13.1876 6.04981Z" fill="black"/>
<path id="Vector_60" d="M13.152 6.06066C13.1274 6.07472 13.1415 6.10285 13.1766 6.08176C13.2118 6.06066 13.2048 6.03254 13.152 6.06066ZM13.1766 6.09582C13.152 6.10636 13.1661 6.13449 13.2013 6.1134C13.2329 6.0923 13.2294 6.06769 13.1731 6.09582H13.1766Z" fill="black"/>
<path id="Vector_61" d="M13.1374 6.11349C13.1128 6.12404 13.1304 6.15217 13.1656 6.13107C13.2007 6.11349 13.1902 6.08537 13.1374 6.11349Z" fill="black"/>
<path id="Vector_62" d="M13.1413 6.14084C13.1167 6.15138 13.1307 6.17951 13.1659 6.15842C13.2011 6.14084 13.194 6.11271 13.1413 6.14084Z" fill="black"/>
<path id="Vector_63" d="M13.1242 6.41655C13.0996 6.41655 13.089 6.4517 13.1136 6.45522C13.1417 6.46225 13.1488 6.46225 13.1488 6.48686C13.1488 6.50795 13.1558 6.53608 13.1874 6.53959C13.2191 6.53959 13.2472 6.50444 13.2191 6.49741C13.191 6.48686 13.1664 6.47631 13.1664 6.45522C13.1664 6.42709 13.1417 6.41303 13.1242 6.41655Z" fill="#CF6200"/>
<path id="Vector_64" d="M13.9214 6.22917L13.932 6.24324C13.9531 6.26081 13.9953 6.24323 13.9882 6.22917C13.9847 6.21159 13.9636 6.16589 14.0128 6.20456L14.3117 6.41198C14.3714 6.45417 14.3328 6.4612 14.3046 6.44714L14.1464 6.37331C14.0972 6.34519 14.0937 6.35573 14.0831 6.36277C14.0796 6.37331 14.0831 6.39089 14.1007 6.40847C14.0726 6.41198 14.0269 6.40847 14.0128 6.37331C13.9953 6.33816 13.9566 6.29245 13.932 6.2573C13.9214 6.24323 13.9144 6.2362 13.9179 6.22917H13.9214Z" fill="#FFFF00"/>
<path id="Vector_65" d="M15.5288 11.5375C15.4866 11.5621 15.4303 11.6113 15.469 11.6781L15.4796 11.6711C15.6349 11.4826 15.7726 11.2802 15.8909 11.0664V11.0488C15.8485 11.0848 15.8012 11.1144 15.7503 11.1367C15.7678 11.1895 15.6799 11.2562 15.6272 11.2773C15.6483 11.3125 15.6413 11.3582 15.5991 11.3688C15.6096 11.3969 15.5745 11.3969 15.5393 11.4145C15.5006 11.432 15.4796 11.4391 15.469 11.4637C15.4866 11.4496 15.5182 11.4391 15.5323 11.4461C15.5463 11.4531 15.5534 11.4742 15.5217 11.4813C15.4936 11.4883 15.4725 11.5023 15.4655 11.5164C15.5077 11.5023 15.5674 11.5094 15.5253 11.5375H15.5288Z" fill="#00D860"/>
<path id="Vector_66" d="M13.6052 6.16668C13.5595 6.13152 13.5454 6.15613 13.5595 6.16668C13.57 6.18074 13.5595 6.2159 13.5208 6.22996H13.3942C13.3696 6.22996 13.3345 6.27918 13.3942 6.26512L13.5946 6.22996C13.6192 6.22996 13.6439 6.20535 13.5946 6.16668H13.6052ZM13.6966 6.24402C13.6579 6.20535 13.6439 6.2159 13.6579 6.24402C13.672 6.26863 13.6439 6.27918 13.6228 6.27918L13.447 6.3284C13.3942 6.3284 13.3942 6.36707 13.4575 6.36707C13.5208 6.36707 13.6439 6.30379 13.6579 6.30379C13.672 6.30379 13.6825 6.26863 13.6931 6.27918C13.7071 6.29324 13.7317 6.27918 13.6931 6.24402H13.6966ZM13.7317 6.34246L13.6087 6.40574C13.5735 6.40574 13.5454 6.4409 13.6087 6.4409C13.672 6.4409 13.7317 6.38113 13.7564 6.36707L13.8091 6.34246C13.8091 6.34246 13.8583 6.3284 13.8091 6.29324C13.7564 6.25809 13.7071 6.29324 13.7317 6.30379C13.7564 6.31785 13.7317 6.33895 13.7317 6.33895V6.34246Z" fill="black" stroke="black" stroke-width="0.4"/>
<path id="Vector_67" d="M13.2223 5.53029C13.1449 5.48107 13.0535 5.58654 13.1414 5.64631C13.2188 5.69904 13.2996 5.57951 13.2223 5.53029Z" fill="black"/>
<path id="Vector_68" d="M13.1236 5.58008H13.1483C13.1412 5.60469 13.1658 5.63984 13.2045 5.63281C13.1729 5.65391 13.1166 5.6293 13.1236 5.58008ZM13.433 6.75781C13.4576 6.76484 13.5385 6.77539 13.5666 6.77539L13.5315 6.8457C13.5209 6.8668 13.5174 6.87031 13.5174 6.83867C13.5174 6.80352 13.4963 6.78242 13.4822 6.81758L13.4471 6.87734C13.4401 6.89141 13.426 6.89844 13.4295 6.86328L13.433 6.75781Z" fill="white"/>
<path id="Vector_69" d="M16.5623 7.71321C16.5623 9.74524 16.2389 11.939 13.5951 12.9866C10.9654 11.939 10.642 9.74524 10.6279 7.71321M16.5623 7.71321H10.6279M16.5623 7.71321C16.5623 6.93977 16.5271 6.19094 16.5377 5.54407C15.5998 5.17975 14.6012 4.9972 13.5951 5.00617C12.9342 5.00617 11.6369 5.10813 10.6525 5.54407C10.6771 6.19094 10.6279 6.93977 10.6279 7.71321" stroke="black" stroke-width="1.1"/>
<path id="Vector_70" d="M0 0H9V9H0V0Z" fill="#012169"/>
<path id="Vector_71" d="M9 0V1.125L5.66016 4.5L9 7.78711V9H7.82227L4.46484 5.69531L1.19531 9H0V7.80469L3.26953 4.51758L0 1.30078V0H1.08984L4.46484 3.30469L7.73438 0H9Z" fill="white"/>
<path id="Vector_72" d="M3.23438 5.69531L3.42773 6.29297L0.738281 9H0V8.94727L3.23438 5.69531ZM5.41406 5.48438L6.36328 5.625L9 8.20898V9L5.41406 5.48438ZM9 0L5.625 3.44531L5.55469 2.67188L8.19141 0H9ZM0 0.0175781L3.39258 3.33984L2.35547 3.19922L0 0.861328V0.0175781Z" fill="#C8102E"/>
<path id="Vector_73" d="M3.09375 0V9H5.90625V0H3.09375ZM0 3.09375V5.90625H9V3.09375H0Z" fill="white"/>
<path id="Vector_74" d="M0 3.65625V5.34375H9V3.65625H0ZM3.65625 0V9H5.34375V0H3.65625Z" fill="#C8102E"/>
</g>
<defs>
<clipPath id="clip0_186_13702">
<rect width="18" height="18" fill="white"/>
</clipPath>
</defs>
</svg>
