<svg width="18" height="18" viewBox="0 0 18 18" fill="none" xmlns="http://www.w3.org/2000/svg">
<g id="si" clip-path="url(#clip0_186_13777)">
<g id="Clip path group">
<mask id="mask0_186_13777" style="mask-type:luminance" maskUnits="userSpaceOnUse" x="-1" y="0" width="19" height="18">
<g id="si-a">
<path id="Vector" d="M-0.000976562 0H17.998V17.999H-0.000976562V0Z" fill="white"/>
</g>
</mask>
<g mask="url(#mask0_186_13777)">
<g id="Group">
<path id="Vector_2" fill-rule="evenodd" clip-rule="evenodd" d="M-2.17969 0H33.8219V17.999H-2.17969V0Z" fill="white"/>
<path id="Vector_3" fill-rule="evenodd" clip-rule="evenodd" d="M-2.17969 12.002H33.8219V17.9992H-2.17969V12.002Z" fill="#D50000"/>
<path id="Vector_4" fill-rule="evenodd" clip-rule="evenodd" d="M-2.17969 6H33.8219V12.0009H-2.17969V6Z" fill="#0000BF"/>
<path id="Vector_5" fill-rule="evenodd" clip-rule="evenodd" d="M8.02653 3.26843C7.88538 5.43641 7.80575 6.62355 7.47639 7.17369C7.11808 7.76364 6.77062 8.19434 5.37718 8.71553C3.98736 8.19434 3.6399 7.76364 3.28158 7.17369C2.95584 6.62355 2.8726 5.43641 2.73145 3.26843L2.93775 3.19966C3.35035 3.07298 3.66161 2.97164 3.88963 2.92821C4.21537 2.85582 4.49406 2.77982 5.37356 2.76172C6.25306 2.7762 6.53175 2.85944 6.85749 2.92821C7.08913 2.97526 7.41125 3.07298 7.82023 3.19966L8.02653 3.26843Z" fill="#D50000"/>
<path id="Vector_6" fill-rule="evenodd" clip-rule="evenodd" d="M7.82458 3.19575C7.69066 5.36012 7.58208 6.35181 7.40474 6.82595C7.06814 7.64392 6.53248 8.09271 5.37791 8.51618C4.22696 8.08909 3.6913 7.64392 3.35108 6.82595C3.17735 6.35181 3.06515 5.36373 2.93848 3.19575C3.34384 3.06908 3.66234 2.97135 3.89036 2.9243C4.2161 2.85553 4.49479 2.77229 5.37429 2.75781C6.25379 2.77229 6.5361 2.85553 6.86184 2.9243C7.09347 2.97135 7.4156 3.06908 7.82458 3.19575Z" fill="#0000BF"/>
<path id="Vector_7" fill-rule="evenodd" clip-rule="evenodd" d="M5.37772 3.85742L5.43201 3.99134L5.67451 4.02391L5.51888 4.11801L5.67089 4.21936L5.45011 4.25555L5.38134 4.37499L5.30896 4.25193L5.0918 4.22297L5.23657 4.11801L5.0918 4.02391L5.32343 3.98772L5.37772 3.85742Z" fill="#FFDF00"/>
<path id="Vector_8" fill-rule="evenodd" clip-rule="evenodd" d="M7.32105 6.3166L7.18713 6.20802L7.08941 6.04877L6.9012 5.88228L6.79986 5.71579L6.61166 5.54568L6.51756 5.37919L6.41621 5.29595L6.34745 5.23442L6.17734 5.38281L6.08323 5.5493L5.9638 5.65426L5.83712 5.55292L5.7394 5.38281L5.37746 4.74219L5.01553 5.38281L4.92143 5.55292L4.79113 5.65426L4.67531 5.54568L4.58121 5.38281L4.4111 5.23442L4.34233 5.29595L4.24099 5.37919L4.14689 5.54568L3.95868 5.71579L3.85734 5.88228L3.66552 6.04877L3.57142 6.20802L3.4375 6.3166C3.51476 6.79938 3.74281 7.24533 4.08898 7.5906C4.32062 7.81138 4.79475 8.11179 5.37384 8.31085C5.84943 8.16026 6.28915 7.91391 6.66595 7.58699C7.01277 7.24317 7.24206 6.79853 7.32105 6.3166Z" fill="white"/>
<path id="Vector_9" fill-rule="evenodd" clip-rule="evenodd" d="M5.95681 2.94893L6.0111 3.07923L6.2536 3.11542L6.09796 3.2059L6.24998 3.31087L6.0292 3.34706L5.96043 3.4665L5.88804 3.34344L5.6745 3.31448L5.81928 3.2059L5.67088 3.11542L5.90252 3.07923L5.95681 2.94893ZM4.79862 2.94893L4.85291 3.07561L5.09541 3.1118L4.93978 3.2059L5.09179 3.30725L4.87101 3.34344L4.80224 3.46288L4.72624 3.33982L4.51631 3.31087L4.66109 3.2059L4.5127 3.1118L4.74433 3.07561L4.79862 2.94531V2.94893Z" fill="#FFDF00"/>
<path id="Vector_10" fill-rule="evenodd" clip-rule="evenodd" d="M7.02046 7.13657H6.75986L6.51737 7.11848L6.2242 6.9737L5.89122 6.97732L5.6053 7.11848L5.3809 7.13657L5.15288 7.11848L4.86695 6.97732H4.53759L4.24443 7.1221L4.00193 7.13657H3.7341L3.60742 6.91941L3.61104 6.91218L4.00555 6.97732L4.24443 6.95923L4.53759 6.81445H4.87057L5.16012 6.95923L5.38452 6.97732L5.60891 6.95561L5.89846 6.81807H6.2242L6.52099 6.95923L6.76348 6.97732L7.14351 6.90856L7.15075 6.91941L7.02046 7.13657ZM3.98021 7.47317L4.24081 7.45508L4.53397 7.3103H4.86333L5.15288 7.45146L5.37728 7.47317L5.60168 7.45146L5.89122 7.3103H6.22058L6.51375 7.45508L6.77796 7.47317L6.94807 7.26325L6.94083 7.25601L6.75986 7.3103L6.51737 7.29221L6.2242 7.14743H5.89484L5.6053 7.29221L5.3809 7.3103L5.1565 7.29221L4.86695 7.14743H4.53759L4.24443 7.29221L4.00193 7.3103L3.82096 7.26687V7.27411L3.98021 7.47317Z" fill="#0000BF"/>
</g>
</g>
</g>
</g>
<defs>
<clipPath id="clip0_186_13777">
<rect width="18" height="18" fill="white"/>
</clipPath>
</defs>
</svg>
