<svg width="18" height="18" viewBox="0 0 18 18" fill="none" xmlns="http://www.w3.org/2000/svg">
<g id="sk" clip-path="url(#clip0_186_10306)">
<path id="Vector" d="M0 0H18V18H0V0Z" fill="#EE1C25"/>
<path id="Vector_2" d="M0 0H18V11.9988H0V0Z" fill="#0B4EA2"/>
<path id="Vector_3" d="M0 0H18V6.00117H0V0Z" fill="white"/>
<path id="Vector_4" d="M7.14355 13.9023C5.52988 13.1289 3.22363 11.582 3.22363 8.53047C3.22363 5.47891 3.36777 4.09375 3.36777 4.09375H10.9193C10.9193 4.09375 11.067 5.47891 11.067 8.53047C11.067 11.582 8.75371 13.1254 7.14355 13.9023Z" fill="white"/>
<path id="Vector_5" d="M7.14336 13.5C5.66328 12.7863 3.54688 11.373 3.54688 8.57109C3.54688 5.76914 3.68047 4.5 3.68047 4.5H10.6063C10.6063 4.5 10.7398 5.77266 10.7398 8.57109C10.7398 11.3695 8.62344 12.7898 7.14336 13.5Z" fill="#EE1C25"/>
<path id="Vector_6" d="M7.45996 7.84102C7.86074 7.84805 8.64473 7.86211 9.34082 7.63008C9.34082 7.63008 9.31973 7.87617 9.31973 8.16797C9.31973 8.45977 9.34082 8.70586 9.34082 8.70586C8.72883 8.53726 8.0941 8.46607 7.45996 8.49492V10.0418H6.82715V8.49492C6.19301 8.46607 5.55828 8.53726 4.94629 8.70586C4.94629 8.70586 4.96738 8.45977 4.96738 8.16797C4.96738 7.87617 4.94629 7.63008 4.94629 7.63008C5.6459 7.86211 6.42637 7.84805 6.82715 7.84102V6.86719C6.32293 6.85483 5.82022 6.92732 5.34004 7.08164C5.34004 7.08164 5.35762 6.83555 5.35762 6.54375C5.35762 6.25195 5.34004 6.00234 5.34004 6.00234C5.9377 6.20273 6.46152 6.22031 6.82363 6.21328C6.80606 5.60156 6.62676 4.82812 6.62676 4.82812C6.62676 4.82812 6.9959 4.85625 7.14355 4.85625C7.29121 4.85625 7.66035 4.82812 7.66035 4.82812C7.66035 4.82812 7.48105 5.60156 7.45996 6.2168C7.96406 6.23165 8.46699 6.16031 8.94707 6.00586C8.94707 6.00586 8.92949 6.25195 8.92949 6.54375C8.92949 6.83555 8.94707 7.08164 8.94707 7.08164C8.34941 6.88125 7.82559 6.86719 7.45996 6.8707V7.84102Z" fill="white"/>
<path id="Vector_7" d="M7.14355 9.87109C6.39824 9.87109 5.99746 10.9047 5.99746 10.9047C5.99746 10.9047 5.77598 10.4125 5.16777 10.4125C4.75645 10.4125 4.4541 10.7816 4.26074 11.1227C5.00957 12.3109 6.20488 13.0457 7.14355 13.4992C8.08223 13.0457 9.27754 12.3109 10.0264 11.1191C9.83301 10.7816 9.53066 10.416 9.11934 10.416C8.51113 10.416 8.28965 10.9082 8.28965 10.9082C8.28965 10.9082 7.88887 9.87109 7.14355 9.87109Z" fill="#0B4EA2"/>
</g>
<defs>
<clipPath id="clip0_186_10306">
<rect width="18" height="18" fill="white"/>
</clipPath>
</defs>
</svg>
