<svg width="18" height="18" viewBox="0 0 18 18" fill="none" xmlns="http://www.w3.org/2000/svg">
<g id="sm" clip-path="url(#clip0_186_10322)">
<g id="Group">
<path id="Vector" fill-rule="evenodd" clip-rule="evenodd" d="M0 9H18V18H0V9Z" fill="#19B6EF"/>
<path id="Vector_2" fill-rule="evenodd" clip-rule="evenodd" d="M0 0H18V9H0V0Z" fill="white"/>
</g>
<path id="Vector_3" fill-rule="evenodd" clip-rule="evenodd" d="M8.89112 12.7206C10.8564 11.251 12.9728 8.24868 10.4942 6.67016C10.0302 6.57876 9.51339 6.60688 9.26378 6.80376C9.1337 6.72641 9.03175 6.73344 8.89816 6.87407C8.80675 6.76157 8.71534 6.70883 8.52198 6.7686C8.34293 6.67112 8.14623 6.61034 7.9434 6.58982C7.74057 6.56929 7.53568 6.58944 7.34073 6.64907C5.17863 7.94985 6.5005 11.0295 8.88761 12.7206H8.89112Z" fill="#FFDD00" stroke="#7D6C00" stroke-width="2.4"/>
<g id="Group_2">
<path id="Vector_4" fill-rule="evenodd" clip-rule="evenodd" d="M12.5261 9.37789C12.5261 9.37789 12.7475 9.07906 12.7546 9.07906C12.9761 8.94898 13.0007 8.78023 13.0007 8.78023C13.2221 8.70992 13.1518 8.53062 13.1694 8.50601C13.2039 8.47187 13.2274 8.42815 13.2368 8.38052C13.2462 8.33288 13.2411 8.28352 13.2221 8.23882C13.2221 8.20718 13.2995 7.92593 13.1905 7.88726C13.1975 7.58843 13.0112 7.61656 12.8636 7.81343C12.7053 7.85914 12.6702 7.98922 12.7229 8.12984C12.519 8.12984 12.512 8.42867 12.5718 8.59742C12.2975 8.59039 12.4522 8.89625 12.4417 8.91383C12.3503 8.95601 12.512 9.39195 12.5261 9.37789ZM10.7928 11.9337L10.9335 12.0181C10.9581 12.1236 11.0565 12.1869 11.1303 12.1693C11.1655 12.331 11.3413 12.3099 11.4643 12.215C11.5698 12.3627 11.6928 12.3662 11.8616 12.3169C12.0163 12.4294 12.2132 12.3802 12.3432 12.2607C12.4839 12.3767 12.5788 12.2959 12.6491 12.1693C12.7581 12.1974 12.846 12.1798 12.8846 12.0709C13.0991 12.0533 12.9901 11.8529 12.8143 11.765C12.955 11.6455 13.1132 11.3923 12.8917 11.3537C12.8214 11.3044 12.6948 11.315 12.5964 11.3607C12.5718 11.2482 12.4136 11.2201 12.2448 11.3466C12.185 11.2201 11.9811 11.2798 11.8862 11.3677C11.7632 11.2623 11.619 11.2623 11.4046 11.3853L10.7928 11.9337ZM10.7928 11.6068C10.8175 11.4662 10.7225 11.213 10.8702 11.1849C10.8421 10.9529 10.8843 10.6892 11.1514 10.7138C11.1971 10.4923 11.1866 10.2849 11.4432 10.2568C11.4432 10.2568 11.6507 9.53609 11.8651 10.0353C11.946 10.1759 11.9319 10.415 11.7632 10.3693C11.7983 10.5451 11.7386 10.7033 11.5417 10.6962C11.6296 10.8228 11.6014 10.9916 11.5065 11.0724L10.7928 11.6068ZM12.0374 10.7138L12.2589 10.6681C12.4874 10.5134 12.5788 10.4537 12.6948 10.6224C12.8846 10.5802 13.0675 10.6013 13.0604 10.7525C13.2889 10.7666 13.2854 10.9107 13.2608 11.0267C13.296 11.2271 13.2081 11.4908 13.0675 11.1709C12.6245 10.9002 12.3749 10.9353 11.6718 11.0935L12.0374 10.7138ZM12.1534 10.4923C12.1604 10.4853 12.8108 10.3166 12.7405 10.1162C12.9233 10.088 12.962 9.90523 12.969 9.90523C13.3522 9.78218 13.3276 9.5607 13.3276 9.5607C13.4366 9.44117 13.63 9.32515 13.5878 9.11773C13.6018 8.88218 13.6229 8.73453 13.3065 8.88922C13.0675 8.86461 12.9866 9.00172 12.9163 9.20562C12.8038 9.07554 12.6245 9.28648 12.6034 9.47633C12.6034 9.47633 12.3116 9.75757 12.3116 9.76461L12.069 10.2146L12.1534 10.4923Z" fill="#4FD46B" stroke="#3A9D4F" stroke-width="2.4" stroke-linejoin="round"/>
<path id="Vector_5" fill-rule="evenodd" clip-rule="evenodd" d="M12.1673 9.98892C12.0126 9.8729 11.9247 9.73228 11.9564 9.59165C11.8509 9.45454 11.7806 9.37017 11.879 9.25064L11.8017 8.96939C11.6013 8.89204 11.6856 8.72329 11.7419 8.66353C11.647 8.53345 11.6435 8.39634 11.7314 8.27329C11.7314 8.0272 11.9036 8.11861 12.0478 8.27329C12.0478 8.27329 12.2833 8.44204 12.1075 8.59321C12.2833 8.65298 12.336 8.80415 12.2376 8.86743C12.3888 8.93775 12.4134 9.07486 12.329 9.16626C12.4837 9.28931 12.4239 9.44751 12.4731 9.58814L12.1673 9.98892Z" fill="#4FD46B" stroke="#3A9D4F" stroke-width="2.4" stroke-linejoin="round"/>
<path id="Vector_6" fill-rule="evenodd" clip-rule="evenodd" d="M12.4456 8.85124C12.435 8.8442 12.1819 8.52077 12.2522 8.49967C12.2381 8.40124 12.1608 8.29225 12.2065 8.19381C12.0834 8.07077 12.0799 7.92311 12.1748 7.8071C12.0905 7.69108 12.1291 7.53639 12.2452 7.43795C12.21 7.25163 12.3401 7.20592 12.4561 7.17077C12.544 6.86842 12.6846 6.94577 12.7655 7.1778C12.885 7.28327 12.8674 7.44147 12.8252 7.561C12.9659 7.65592 12.8815 7.77545 12.8182 7.82819L12.4456 8.85124Z" fill="#4FD46B" stroke="#3A9D4F" stroke-width="2.4" stroke-linejoin="round"/>
<path id="Vector_7" fill-rule="evenodd" clip-rule="evenodd" d="M12.4064 7.2413L12.192 7.02685C12.2447 6.91435 12.2904 6.71044 12.1287 6.62255C12.0408 6.40458 11.6014 6.1374 11.5275 6.65068C11.4572 6.49599 11.3166 6.34482 11.2111 6.52412C10.9826 6.32372 10.8596 6.38349 10.9791 6.63662C10.9791 6.63662 10.8736 6.80537 11.1549 6.93544C11.176 6.95654 11.06 7.2413 11.3975 7.24833C11.3342 7.34326 11.4396 7.48037 11.5732 7.46982C11.4748 7.58935 11.64 7.71591 11.742 7.66669C11.6963 7.80029 11.6998 7.86357 11.8826 7.88115L12.0935 8.11669L12.2588 8.34872L12.4029 7.2413H12.4064Z" fill="#4FD46B" stroke="#3A9D4F" stroke-width="2.4" stroke-linejoin="round"/>
<path id="Vector_8" d="M12.5361 9.24453C12.5432 9.23047 12.9439 8.31289 12.9967 8.03164M12.5748 7.60977C12.5748 7.60977 12.6451 8.35859 12.4588 8.91055M11.3479 6.85391C11.3479 6.85391 12.167 7.64141 12.2443 7.96484M11.9174 6.76953C11.9174 6.76953 11.9736 7.41641 12.1986 8.05273M13.3658 9.12148C13.3658 9.12148 12.5467 9.81055 12.1459 10.4152M12.5889 11.5402C12.5889 11.5402 11.5096 11.6879 11.035 11.6984M12.2303 12.0043C12.2303 12.0043 10.8943 11.9691 10.7959 11.8742M11.5658 10.2641C11.5658 10.2746 10.8873 11.3961 10.8627 11.7652" stroke="#3A9D4F" stroke-width="2.2" stroke-linecap="round"/>
</g>
<path id="Vector_9" fill-rule="evenodd" clip-rule="evenodd" d="M8.88389 12.5039C7.46709 11.168 6.01514 8.65781 7.46006 7.39219C7.71319 7.53633 8.01905 7.40625 8.43389 7.24453C8.56045 7.38164 8.72217 7.4168 8.88037 7.31484C9.06319 7.38867 9.19678 7.32891 9.28467 7.23047C9.69248 7.46953 10.2163 7.59258 10.3394 7.35703C11.7597 8.70703 10.3218 11.2242 8.88037 12.5039H8.88389Z" fill="#65C7FF" stroke="#7D6C00" stroke-width="2.4"/>
<path id="Vector_10" fill-rule="evenodd" clip-rule="evenodd" d="M8.89082 12.4668C8.24295 11.8409 7.70568 11.1099 7.30176 10.3047C7.37207 10.2414 7.40723 10.2238 7.4459 10.1148C7.65205 10.1516 7.86338 10.1481 8.06816 10.1043C8.12441 10.3187 8.13848 10.498 8.27207 10.6773L8.56035 10.1148C8.76343 10.166 8.97603 10.166 9.1791 10.1148C9.29863 10.2766 9.25644 10.5191 9.46738 10.702C9.59394 10.3293 9.72051 10.3047 9.84707 10.1043C10.0334 10.1711 10.1529 10.1395 10.3041 10.0938C10.385 10.1852 10.3463 10.1816 10.4939 10.3187C10.0972 11.1268 9.5536 11.8541 8.89082 12.4633V12.4668Z" fill="#8FC753"/>
<path id="Vector_11" fill-rule="evenodd" clip-rule="evenodd" d="M7.2248 6.16289C7.2248 6.19646 7.21147 6.22865 7.18774 6.25238C7.164 6.27612 7.13181 6.28945 7.09824 6.28945C7.06468 6.28945 7.03248 6.27612 7.00875 6.25238C6.98501 6.22865 6.97168 6.19646 6.97168 6.16289C6.97168 6.12932 6.98501 6.09713 7.00875 6.0734C7.03248 6.04966 7.06468 6.03633 7.09824 6.03633C7.13181 6.03633 7.164 6.04966 7.18774 6.0734C7.21147 6.09713 7.2248 6.12932 7.2248 6.16289ZM7.09473 5.87109C7.09473 5.90466 7.08139 5.93685 7.05766 5.96059C7.03392 5.98432 7.00173 5.99766 6.96816 5.99766C6.9346 5.99766 6.90241 5.98432 6.87867 5.96059C6.85494 5.93685 6.8416 5.90466 6.8416 5.87109C6.8416 5.83753 6.85494 5.80534 6.87867 5.7816C6.90241 5.75787 6.9346 5.74453 6.96816 5.74453C7.00173 5.74453 7.03392 5.75787 7.05766 5.7816C7.08139 5.80534 7.09473 5.83753 7.09473 5.87109ZM6.94004 5.60391C6.94309 5.62205 6.94216 5.64064 6.93729 5.65839C6.93243 5.67613 6.92376 5.6926 6.91187 5.70665C6.89999 5.7207 6.88519 5.73199 6.8685 5.73973C6.85181 5.74748 6.83363 5.75149 6.81523 5.75149C6.79684 5.75149 6.77866 5.74748 6.76197 5.73973C6.74528 5.73199 6.73048 5.7207 6.71859 5.70665C6.70671 5.6926 6.69804 5.67613 6.69318 5.65839C6.68831 5.64064 6.68737 5.62205 6.69043 5.60391C6.6954 5.5744 6.71066 5.54761 6.73351 5.52829C6.75636 5.50897 6.78531 5.49836 6.81523 5.49836C6.84516 5.49836 6.87411 5.50897 6.89696 5.52829C6.91981 5.54761 6.93507 5.5744 6.94004 5.60391ZM6.83457 5.34375C6.83905 5.36236 6.83925 5.38174 6.83516 5.40044C6.83107 5.41914 6.82278 5.43666 6.81094 5.4517C6.7991 5.46673 6.78399 5.47888 6.76677 5.48724C6.74955 5.49559 6.73066 5.49994 6.71152 5.49994C6.69238 5.49994 6.67349 5.49559 6.65627 5.48724C6.63905 5.47888 6.62395 5.46673 6.61211 5.4517C6.60026 5.43666 6.59198 5.41914 6.58789 5.40044C6.5838 5.38174 6.584 5.36236 6.58848 5.34375C6.59513 5.31612 6.61088 5.29154 6.6332 5.27396C6.65552 5.25637 6.68311 5.24681 6.71152 5.24681C6.73994 5.24681 6.76753 5.25637 6.78985 5.27396C6.81217 5.29154 6.82792 5.31612 6.83457 5.34375ZM6.85215 5.05898C6.8552 5.07713 6.85427 5.09572 6.8494 5.11346C6.84454 5.13121 6.83586 5.14768 6.82398 5.16173C6.8121 5.17578 6.7973 5.18707 6.78061 5.19481C6.76392 5.20256 6.74574 5.20657 6.72734 5.20657C6.70894 5.20657 6.69077 5.20256 6.67408 5.19481C6.65739 5.18707 6.64258 5.17578 6.6307 5.16173C6.61882 5.14768 6.61015 5.13121 6.60528 5.11346C6.60042 5.09572 6.59948 5.07713 6.60254 5.05898C6.60751 5.02948 6.62277 5.00269 6.64562 4.98337C6.66847 4.96404 6.69742 4.95344 6.72734 4.95344C6.75727 4.95344 6.78622 4.96404 6.80907 4.98337C6.83192 5.00269 6.84718 5.02948 6.85215 5.05898ZM7.5166 4.59141C7.5166 4.60803 7.51333 4.62448 7.50697 4.63984C7.50061 4.65519 7.49129 4.66915 7.47953 4.6809C7.46778 4.69265 7.45383 4.70197 7.43847 4.70833C7.42312 4.7147 7.40666 4.71797 7.39004 4.71797C7.37342 4.71797 7.35696 4.7147 7.34161 4.70833C7.32625 4.70197 7.3123 4.69265 7.30055 4.6809C7.28879 4.66915 7.27947 4.65519 7.27311 4.63984C7.26675 4.62448 7.26348 4.60803 7.26348 4.59141C7.26348 4.55784 7.27681 4.52565 7.30055 4.50191C7.32428 4.47818 7.35647 4.46484 7.39004 4.46484C7.42361 4.46484 7.4558 4.47818 7.47953 4.50191C7.50327 4.52565 7.5166 4.55784 7.5166 4.59141ZM7.26699 4.63359C7.27005 4.65174 7.26911 4.67033 7.26425 4.68807C7.25938 4.70582 7.25071 4.72229 7.23883 4.73634C7.22695 4.75039 7.21215 4.76168 7.19546 4.76942C7.17876 4.77716 7.16059 4.78118 7.14219 4.78118C7.12379 4.78118 7.10561 4.77716 7.08892 4.76942C7.07223 4.76168 7.05743 4.75039 7.04555 4.73634C7.03367 4.72229 7.02499 4.70582 7.02013 4.68807C7.01526 4.67033 7.01433 4.65174 7.01738 4.63359C7.02235 4.60409 7.03762 4.5773 7.06046 4.55797C7.08331 4.53865 7.11227 4.52805 7.14219 4.52805C7.17211 4.52805 7.20106 4.53865 7.22391 4.55797C7.24676 4.5773 7.26202 4.60409 7.26699 4.63359ZM6.99629 4.79883C6.99629 4.81545 6.99302 4.83191 6.98666 4.84726C6.98029 4.86262 6.97097 4.87657 6.95922 4.88832C6.94747 4.90007 6.93352 4.9094 6.91816 4.91576C6.90281 4.92212 6.88635 4.92539 6.86973 4.92539C6.85311 4.92539 6.83665 4.92212 6.82129 4.91576C6.80594 4.9094 6.79199 4.90007 6.78023 4.88832C6.76848 4.87657 6.75916 4.86262 6.7528 4.84726C6.74644 4.83191 6.74316 4.81545 6.74316 4.79883C6.74316 4.76526 6.7565 4.73307 6.78023 4.70934C6.80397 4.6856 6.83616 4.67227 6.86973 4.67227C6.90329 4.67227 6.93549 4.6856 6.95922 4.70934C6.98296 4.73307 6.99629 4.76526 6.99629 4.79883ZM7.83652 4.59492C7.83652 4.62849 7.82319 4.66068 7.79945 4.68442C7.77572 4.70815 7.74353 4.72148 7.70996 4.72148C7.67639 4.72148 7.6442 4.70815 7.62047 4.68442C7.59673 4.66068 7.5834 4.62849 7.5834 4.59492C7.5834 4.56136 7.59673 4.52916 7.62047 4.50543C7.6442 4.48169 7.67639 4.46836 7.70996 4.46836C7.74353 4.46836 7.77572 4.48169 7.79945 4.50543C7.82319 4.52916 7.83652 4.56136 7.83652 4.59492ZM8.18457 4.62305C8.18763 4.64119 8.18669 4.65978 8.18183 4.67753C8.17696 4.69527 8.16829 4.71174 8.15641 4.72579C8.14452 4.73984 8.12972 4.75113 8.11303 4.75887C8.09634 4.76662 8.07817 4.77063 8.05977 4.77063C8.04137 4.77063 8.02319 4.76662 8.0065 4.75887C7.98981 4.75113 7.97501 4.73984 7.96313 4.72579C7.95125 4.71174 7.94257 4.69527 7.93771 4.67753C7.93284 4.65978 7.93191 4.64119 7.93496 4.62305C7.94161 4.59542 7.95737 4.57084 7.97969 4.55325C8.00201 4.53567 8.02959 4.52611 8.05801 4.52611C8.08642 4.52611 8.11401 4.53567 8.13633 4.55325C8.15865 4.57084 8.1744 4.59542 8.18105 4.62305H8.18457ZM8.49395 4.60547C8.497 4.62361 8.49606 4.6422 8.4912 4.65995C8.48634 4.67769 8.47766 4.69416 8.46578 4.70821C8.4539 4.72226 8.4391 4.73355 8.42241 4.7413C8.40572 4.74904 8.38754 4.75305 8.36914 4.75305C8.35074 4.75305 8.33256 4.74904 8.31587 4.7413C8.29918 4.73355 8.28438 4.72226 8.2725 4.70821C8.26062 4.69416 8.25195 4.67769 8.24708 4.65995C8.24222 4.6422 8.24128 4.62361 8.24434 4.60547C8.24931 4.57596 8.26457 4.54917 8.28742 4.52985C8.31026 4.51053 8.33922 4.49993 8.36914 4.49993C8.39906 4.49993 8.42802 4.51053 8.45087 4.52985C8.47371 4.54917 8.48898 4.57596 8.49395 4.60547Z" fill="white" stroke="black" stroke-width="1.1"/>
<path id="Vector_12" fill-rule="evenodd" clip-rule="evenodd" d="M9.22109 4.40695C9.22109 4.49273 9.18702 4.575 9.12636 4.63566C9.0657 4.69631 8.98344 4.73039 8.89766 4.73039C8.81188 4.73039 8.72961 4.69631 8.66895 4.63566C8.6083 4.575 8.57422 4.49273 8.57422 4.40695C8.58254 4.32743 8.62002 4.25382 8.67943 4.20031C8.73883 4.1468 8.81595 4.11719 8.8959 4.11719C8.97585 4.11719 9.05297 4.1468 9.11237 4.20031C9.17177 4.25382 9.20925 4.32743 9.21758 4.40695H9.22109Z" fill="#FFDD00" stroke="#7D6C00" stroke-width="1.1"/>
<path id="Vector_13" fill-rule="evenodd" clip-rule="evenodd" d="M9.55879 4.60312C9.55879 4.63669 9.54545 4.66888 9.52172 4.69262C9.49798 4.71635 9.46579 4.72969 9.43223 4.72969C9.39866 4.72969 9.36647 4.71635 9.34273 4.69262C9.319 4.66888 9.30566 4.63669 9.30566 4.60312C9.30566 4.56956 9.319 4.53737 9.34273 4.51363C9.36647 4.4899 9.39866 4.47656 9.43223 4.47656C9.46579 4.47656 9.49798 4.4899 9.52172 4.51363C9.54545 4.53737 9.55879 4.56956 9.55879 4.60312ZM9.88574 4.62773C9.8888 4.64588 9.88786 4.66447 9.883 4.68221C9.87813 4.69996 9.86946 4.71643 9.85758 4.73048C9.8457 4.74453 9.83089 4.75582 9.8142 4.76356C9.79751 4.77131 9.77934 4.77532 9.76094 4.77532C9.74254 4.77532 9.72436 4.77131 9.70767 4.76356C9.69098 4.75582 9.67618 4.74453 9.6643 4.73048C9.65242 4.71643 9.64374 4.69996 9.63888 4.68221C9.63401 4.66447 9.63308 4.64588 9.63613 4.62773C9.6411 4.59823 9.65637 4.57144 9.67921 4.55211C9.70206 4.53279 9.73101 4.52219 9.76094 4.52219C9.79086 4.52219 9.81981 4.53279 9.84266 4.55211C9.86551 4.57144 9.88077 4.59823 9.88574 4.62773ZM10.2021 4.61367C10.2052 4.63182 10.2043 4.65041 10.1994 4.66815C10.1945 4.6859 10.1859 4.70237 10.174 4.71642C10.1621 4.73047 10.1473 4.74176 10.1306 4.7495C10.1139 4.75724 10.0957 4.76125 10.0773 4.76125C10.0589 4.76125 10.0408 4.75724 10.0241 4.7495C10.0074 4.74176 9.99258 4.73047 9.9807 4.71642C9.96882 4.70237 9.96015 4.6859 9.95528 4.66815C9.95042 4.65041 9.94948 4.63182 9.95254 4.61367C9.95751 4.58417 9.97277 4.55737 9.99562 4.53805C10.0185 4.51873 10.0474 4.50813 10.0773 4.50813C10.1073 4.50813 10.1362 4.51873 10.1591 4.53805C10.1819 4.55737 10.1972 4.58417 10.2021 4.61367ZM10.4693 4.60312C10.4724 4.62127 10.4715 4.63986 10.4666 4.65761C10.4617 4.67535 10.4531 4.69182 10.4412 4.70587C10.4293 4.71992 10.4145 4.73121 10.3978 4.73895C10.3811 4.7467 10.3629 4.75071 10.3445 4.75071C10.3261 4.75071 10.308 4.7467 10.2913 4.73895C10.2746 4.73121 10.2598 4.71992 10.2479 4.70587C10.236 4.69182 10.2273 4.67535 10.2225 4.65761C10.2176 4.63986 10.2167 4.62127 10.2197 4.60312C10.2247 4.57362 10.24 4.54683 10.2628 4.52751C10.2857 4.50818 10.3146 4.49758 10.3445 4.49758C10.3745 4.49758 10.4034 4.50818 10.4263 4.52751C10.4491 4.54683 10.4644 4.57362 10.4693 4.60312ZM10.8033 4.63828C10.8033 4.67185 10.79 4.70404 10.7663 4.72777C10.7425 4.75151 10.7103 4.76484 10.6768 4.76484C10.6432 4.76484 10.611 4.75151 10.5873 4.72777C10.5635 4.70404 10.5502 4.67185 10.5502 4.63828C10.5502 4.60471 10.5635 4.57252 10.5873 4.54879C10.611 4.52505 10.6432 4.51172 10.6768 4.51172C10.7103 4.51172 10.7425 4.52505 10.7663 4.54879C10.79 4.57252 10.8033 4.60471 10.8033 4.63828ZM11.0635 4.80352C11.0665 4.82166 11.0656 4.84025 11.0607 4.858C11.0559 4.87574 11.0472 4.89221 11.0353 4.90626C11.0234 4.92031 11.0086 4.9316 10.9919 4.93934C10.9752 4.94709 10.9571 4.9511 10.9387 4.9511C10.9203 4.9511 10.9021 4.94709 10.8854 4.93934C10.8687 4.9316 10.8539 4.92031 10.842 4.90626C10.8302 4.89221 10.8215 4.87574 10.8166 4.858C10.8117 4.84025 10.8108 4.82166 10.8139 4.80352C10.8188 4.77401 10.8341 4.74722 10.8569 4.7279C10.8798 4.70857 10.9087 4.69797 10.9387 4.69797C10.9686 4.69797 10.9975 4.70857 11.0204 4.7279C11.0432 4.74722 11.0585 4.77401 11.0635 4.80352Z" fill="white" stroke="black" stroke-width="1.1"/>
<path id="Vector_14" fill-rule="evenodd" clip-rule="evenodd" d="M7.10156 5.68828L7.425 6.30703H10.3957L10.7367 5.70937C10.5363 5.57227 10.3992 5.4668 10.1145 5.53359C9.94922 5.29805 9.77344 5.25234 9.50977 5.28047C9.43814 5.19735 9.3376 5.14457 9.22852 5.13281L8.60273 5.15039C8.44102 5.16445 8.31445 5.29102 8.30742 5.29102C8.04023 5.25586 7.79766 5.26641 7.73438 5.52305C7.4918 5.46328 7.32305 5.53008 7.10156 5.68828Z" fill="#E40000" stroke="#AC0000" stroke-width="2.4"/>
<path id="Vector_15" fill-rule="evenodd" clip-rule="evenodd" d="M11.1725 5.0782C11.1755 5.09634 11.1746 5.11493 11.1697 5.13268C11.1649 5.15042 11.1562 5.16689 11.1443 5.18094C11.1324 5.19499 11.1176 5.20628 11.1009 5.21403C11.0842 5.22177 11.0661 5.22578 11.0477 5.22578C11.0293 5.22578 11.0111 5.22177 10.9944 5.21403C10.9777 5.20628 10.9629 5.19499 10.951 5.18094C10.9391 5.16689 10.9305 5.15042 10.9256 5.13268C10.9207 5.11493 10.9198 5.09634 10.9229 5.0782C10.9278 5.04869 10.9431 5.0219 10.9659 5.00258C10.9888 4.98326 11.0177 4.97266 11.0477 4.97266C11.0776 4.97266 11.1065 4.98326 11.1294 5.00258C11.1522 5.0219 11.1675 5.04869 11.1725 5.0782ZM11.1936 5.36999C11.1966 5.38814 11.1957 5.40673 11.1908 5.42447C11.1859 5.44222 11.1773 5.45869 11.1654 5.47274C11.1535 5.48679 11.1387 5.49808 11.122 5.50582C11.1053 5.51357 11.0871 5.51758 11.0688 5.51758C11.0504 5.51758 11.0322 5.51357 11.0155 5.50582C10.9988 5.49808 10.984 5.48679 10.9721 5.47274C10.9602 5.45869 10.9516 5.44222 10.9467 5.42447C10.9418 5.40673 10.9409 5.38814 10.9439 5.36999C10.9489 5.34049 10.9642 5.3137 10.987 5.29438C11.0099 5.27505 11.0388 5.26445 11.0688 5.26445C11.0987 5.26445 11.1276 5.27505 11.1505 5.29438C11.1733 5.3137 11.1886 5.34049 11.1936 5.36999ZM11.1021 5.64421C11.1052 5.66236 11.1043 5.68095 11.0994 5.69869C11.0945 5.71644 11.0859 5.73291 11.074 5.74696C11.0621 5.76101 11.0473 5.7723 11.0306 5.78004C11.0139 5.78779 10.9957 5.7918 10.9773 5.7918C10.9589 5.7918 10.9408 5.78779 10.9241 5.78004C10.9074 5.7723 10.8926 5.76101 10.8807 5.74696C10.8688 5.73291 10.8601 5.71644 10.8553 5.69869C10.8504 5.68095 10.8495 5.66236 10.8525 5.64421C10.8575 5.61471 10.8728 5.58792 10.8956 5.56859C10.9185 5.54927 10.9474 5.53867 10.9773 5.53867C11.0073 5.53867 11.0362 5.54927 11.0591 5.56859C11.0819 5.58792 11.0972 5.61471 11.1021 5.64421ZM10.9861 5.86921C10.9906 5.88782 10.9908 5.9072 10.9867 5.9259C10.9826 5.9446 10.9743 5.96212 10.9625 5.97716C10.9507 5.99219 10.9356 6.00435 10.9183 6.0127C10.9011 6.02106 10.8822 6.0254 10.8631 6.0254C10.8439 6.0254 10.8251 6.02106 10.8078 6.0127C10.7906 6.00435 10.7755 5.99219 10.7637 5.97716C10.7518 5.96212 10.7435 5.9446 10.7395 5.9259C10.7354 5.9072 10.7356 5.88782 10.74 5.86921C10.7467 5.84159 10.7624 5.817 10.7848 5.79942C10.8071 5.78184 10.8347 5.77227 10.8631 5.77227C10.8915 5.77227 10.9191 5.78184 10.9414 5.79942C10.9637 5.817 10.9795 5.84159 10.9861 5.86921ZM10.8525 6.15046C10.8525 6.18403 10.8392 6.21622 10.8155 6.23996C10.7917 6.26369 10.7595 6.27703 10.726 6.27703C10.6924 6.27703 10.6602 6.26369 10.6365 6.23996C10.6127 6.21622 10.5994 6.18403 10.5994 6.15046C10.5994 6.1169 10.6127 6.08471 10.6365 6.06097C10.6602 6.03724 10.6924 6.0239 10.726 6.0239C10.7595 6.0239 10.7917 6.03724 10.8155 6.06097C10.8392 6.08471 10.8525 6.1169 10.8525 6.15046ZM9.09473 5.79187C9.09838 5.81824 9.09633 5.8451 9.08873 5.87061C9.08112 5.89613 9.06814 5.91972 9.05065 5.9398C9.03316 5.95987 9.01157 5.97597 8.98733 5.987C8.9631 5.99803 8.93678 6.00373 8.91016 6.00373C8.88353 6.00373 8.85721 5.99803 8.83298 5.987C8.80874 5.97597 8.78715 5.95987 8.76966 5.9398C8.75217 5.91972 8.73919 5.89613 8.73159 5.87061C8.72398 5.8451 8.72194 5.81824 8.72559 5.79187C8.73175 5.7473 8.75384 5.70647 8.78776 5.67691C8.82169 5.64736 8.86516 5.63108 8.91016 5.63108C8.95515 5.63108 8.99862 5.64736 9.03255 5.67691C9.06648 5.70647 9.08856 5.7473 9.09473 5.79187ZM9.12988 5.36648C9.13387 5.39815 9.13106 5.4303 9.12166 5.4608C9.11227 5.4913 9.09649 5.51946 9.07537 5.54339C9.05426 5.56733 9.02829 5.5865 8.9992 5.59963C8.97011 5.61276 8.93856 5.61955 8.90664 5.61955C8.87472 5.61955 8.84317 5.61276 8.81408 5.59963C8.78499 5.5865 8.75902 5.56733 8.73791 5.54339C8.71679 5.51946 8.70101 5.4913 8.69162 5.4608C8.68222 5.4303 8.67942 5.39815 8.6834 5.36648C8.6834 5.30681 8.7071 5.24958 8.7493 5.20738C8.79149 5.16518 8.84872 5.14148 8.9084 5.14148C8.96807 5.14148 9.0253 5.16518 9.0675 5.20738C9.10969 5.24958 9.1334 5.30681 9.1334 5.36648H9.12988Z" fill="white" stroke="black" stroke-width="1.1"/>
<path id="Vector_16" fill-rule="evenodd" clip-rule="evenodd" d="M9.10156 4.94824C9.10156 5.00186 9.08026 5.05327 9.04235 5.09118C9.00444 5.12909 8.95303 5.15039 8.89941 5.15039C8.8458 5.15039 8.79438 5.12909 8.75647 5.09118C8.71856 5.05327 8.69727 5.00186 8.69727 4.94824C8.69727 4.89463 8.71856 4.84321 8.75647 4.8053C8.79438 4.76739 8.8458 4.74609 8.89941 4.74609C8.95303 4.74609 9.00444 4.76739 9.04235 4.8053C9.08026 4.84321 9.10156 4.89463 9.10156 4.94824Z" fill="white" stroke="black" stroke-width="1.1"/>
<path id="Vector_17" fill-rule="evenodd" clip-rule="evenodd" d="M8.83086 4.08984V3.92812H8.69727L8.70078 3.80859H8.8168V3.70312H8.98203V3.79805H9.11211V3.92461H8.975V4.09336L8.83086 4.08984Z" fill="#FFDD00" stroke="#7D6C00" stroke-width="1.1"/>
<path id="Vector_18" d="M7.4077 6.30625C7.14403 5.85273 6.75028 5.24102 6.99286 4.97734C7.33036 4.59414 8.11786 4.94219 8.62059 4.71719C8.65575 5.14961 8.53622 5.85977 8.72958 6.00742L8.55028 6.16562C8.4413 6.025 8.23388 5.83516 7.97723 6.17266C7.83309 6.04609 7.66786 6.06719 7.59052 6.23594C7.51317 6.24648 7.5202 6.27812 7.4077 6.30625ZM10.4136 6.28867C10.6772 5.83867 11.071 5.22695 10.8284 4.95977C10.4909 4.58008 9.70341 4.92461 9.20067 4.70312C9.16552 5.13203 9.28505 5.84219 9.09169 5.99336L9.27099 6.14805C9.44677 5.90547 9.6577 5.89844 9.84052 6.15859C9.98817 6.02852 10.1393 6.04609 10.2308 6.22187C10.3081 6.23242 10.3011 6.26055 10.4136 6.29219V6.28867Z" stroke="#FFDD00" stroke-width="3.3"/>
<path id="Vector_19" fill-rule="evenodd" clip-rule="evenodd" d="M7.40059 6.64373C8.38878 6.55377 9.3831 6.55377 10.3713 6.64373L10.4873 6.30623C9.45019 6.11639 8.73301 6.09529 7.37598 6.28162L7.40059 6.64373Z" fill="#FFDD00" stroke="#7D6C00" stroke-width="2.4"/>
<path id="Vector_20" fill-rule="evenodd" clip-rule="evenodd" d="M8.77871 12.3516L8.80332 12.1934C8.90879 12.225 8.98965 12.2109 9.07754 12.1793L9.16894 12.0422L9.09863 11.9613C9.03887 11.9754 8.99316 12.0316 8.95098 12.0809C8.89121 12.0809 8.83848 12.0527 8.77871 12.0422L8.72246 11.7996C8.66621 11.7328 8.54668 11.7398 8.57129 11.8594L8.58535 11.9508C8.60645 12.007 8.61699 12.0879 8.65566 12.1266V12.225L8.77871 12.3516ZM8.82441 11.666C8.74355 11.7047 8.64863 11.6379 8.5502 11.5957C8.45879 11.5922 8.38496 11.666 8.27246 11.6449C8.29355 11.5852 8.34277 11.5746 8.37793 11.5395C8.35332 11.3848 8.43418 11.332 8.45879 11.332C8.47988 11.332 8.57129 11.3566 8.57129 11.3566L8.66269 11.3672C8.71894 11.4656 8.79277 11.557 8.82441 11.666Z" fill="#C76E2E"/>
<path id="Vector_21" fill-rule="evenodd" clip-rule="evenodd" d="M8.27949 13.727C8.54316 13.2945 10.3889 12.4332 12.1186 10.5664C10.3607 12.2645 9.25684 12.6793 7.81543 13.7164L8.27949 13.727Z" fill="#FFE100" stroke="#E9BF00" stroke-width="2.4"/>
<path id="Vector_22" fill-rule="evenodd" clip-rule="evenodd" d="M10.8141 11.7402C10.8141 11.7757 10.8 11.8096 10.7749 11.8347C10.7499 11.8598 10.7159 11.8738 10.6805 11.8738C10.645 11.8738 10.6111 11.8598 10.586 11.8347C10.561 11.8096 10.5469 11.7757 10.5469 11.7402C10.5469 11.7048 10.561 11.6708 10.586 11.6458C10.6111 11.6207 10.645 11.6066 10.6805 11.6066C10.7159 11.6066 10.7499 11.6207 10.7749 11.6458C10.8 11.6708 10.8141 11.7048 10.8141 11.7402ZM12.1043 10.4359C12.1043 10.4765 12.0882 10.5154 12.0595 10.5441C12.0308 10.5728 11.9919 10.5889 11.9514 10.5889C11.9108 10.5889 11.8719 10.5728 11.8432 10.5441C11.8145 10.5154 11.7984 10.4765 11.7984 10.4359C11.7984 10.3954 11.8145 10.3565 11.8432 10.3278C11.8719 10.2991 11.9108 10.283 11.9514 10.283C11.9919 10.283 12.0308 10.2991 12.0595 10.3278C12.0882 10.3565 12.1043 10.3954 12.1043 10.4359ZM12.5332 9.325C12.5332 9.36043 12.5191 9.39441 12.4941 9.41947C12.469 9.44452 12.435 9.45859 12.3996 9.45859C12.3642 9.45859 12.3302 9.44452 12.3051 9.41947C12.2801 9.39441 12.266 9.36043 12.266 9.325C12.266 9.28957 12.2801 9.25559 12.3051 9.23054C12.3302 9.20548 12.3642 9.19141 12.3996 9.19141C12.435 9.19141 12.469 9.20548 12.4941 9.23054C12.5191 9.25559 12.5332 9.28957 12.5332 9.325ZM12.1113 7.88359C12.1113 7.91903 12.0973 7.953 12.0722 7.97806C12.0471 8.00311 12.0132 8.01719 11.9777 8.01719C11.9423 8.01719 11.9083 8.00311 11.8833 7.97806C11.8582 7.953 11.8441 7.91903 11.8441 7.88359C11.8441 7.84816 11.8582 7.81418 11.8833 7.78913C11.9083 7.76407 11.9423 7.75 11.9777 7.75C12.0132 7.75 12.0471 7.76407 12.0722 7.78913C12.0973 7.81418 12.1113 7.84816 12.1113 7.88359Z" fill="#9D4916" stroke="#68300E" stroke-width="1.1"/>
<path id="Vector_23" fill-rule="evenodd" clip-rule="evenodd" d="M7.46699 10.1105V9.54102L7.40723 9.4918V9.3582L7.5127 9.34766L7.53379 8.71484L7.46348 8.67617L7.45645 8.5707C7.45645 8.5707 7.53379 8.59883 7.53379 8.57773L7.55137 8.45469C7.55137 8.45469 7.50566 8.44414 7.50566 8.42305C7.50566 8.40195 7.56191 8.35625 7.56191 8.35625C7.56191 8.35625 7.53379 8.32812 7.52676 8.31055L7.49512 8.20508L7.52324 8.09961L7.50566 8.03984L7.45645 7.95195L7.52676 7.88516L7.50566 7.77969C7.50566 7.76211 7.55137 7.68125 7.56191 7.67422L7.64981 7.5582L7.81152 7.51953L8.00488 7.54766L8.11035 7.61797L8.13145 7.79023C8.13145 7.79023 8.11035 7.8957 8.10332 7.8957L8.01543 7.93086C8.01543 7.93086 7.92051 7.94141 7.90996 7.93086C7.89941 7.92031 7.93809 8.04688 7.93809 8.04688V8.16289L7.92754 8.30703C7.92754 8.30703 7.92754 8.37734 7.92051 8.38438L7.88887 8.42305L7.88184 8.56719L8.03301 8.60586L8.02598 8.69375L7.92051 8.7043L7.93809 9.29141L8.09277 9.31953V9.48477L8.02246 9.51992L8.00488 10.1105H7.46699ZM9.80488 10.1176V9.55156L9.74863 9.50234V9.36875L9.8541 9.3582L9.8752 8.72539L9.80488 8.6832L9.79785 8.57773C9.79785 8.57773 9.8752 8.60586 9.8752 8.58828L9.89277 8.46172C9.89277 8.46172 9.84355 8.45469 9.84355 8.43359C9.84355 8.4125 9.90332 8.3668 9.90332 8.3668C9.90332 8.3668 9.8752 8.33867 9.86465 8.31758C9.8541 8.29648 9.83652 8.21211 9.83652 8.21211L9.86465 8.10664L9.84355 8.05039L9.79785 7.9625L9.86465 7.89219L9.84355 7.78672C9.85722 7.74837 9.87744 7.71268 9.90332 7.68125L9.9877 7.56875L10.1529 7.53008L10.3463 7.5582L10.4518 7.62852L10.4693 7.79727C10.4693 7.79727 10.4518 7.90273 10.4412 7.90273C10.4307 7.90273 10.3533 7.94492 10.3533 7.94492C10.3533 7.94492 10.2584 7.95195 10.2479 7.94492C10.2373 7.93789 10.2795 8.05742 10.2795 8.05742V8.17344L10.2689 8.31758C10.2689 8.31758 10.2689 8.38789 10.2584 8.39492L10.2303 8.43359L10.2197 8.57773L10.3744 8.61641L10.3639 8.7043L10.2584 8.71484L10.2795 9.30195L10.4307 9.33008V9.4918L10.3639 9.53047L10.3463 10.1176H9.80488ZM8.62363 10.1387V9.56914L8.56387 9.52344V9.38633L8.66934 9.3793L8.69043 8.74297L8.62012 8.7043L8.61309 8.59883C8.61309 8.59883 8.69043 8.62695 8.69043 8.60938L8.70801 8.48281C8.70801 8.48281 8.65879 8.47227 8.65879 8.45469C8.65879 8.43711 8.71855 8.38438 8.71855 8.38438L8.67988 8.33867C8.66934 8.32109 8.65176 8.2332 8.65176 8.2332L8.67988 8.12773L8.65879 8.06797L8.61309 7.98359L8.67988 7.91328L8.65879 7.80781C8.67245 7.76946 8.69268 7.73377 8.71855 7.70234L8.80645 7.58633L8.96816 7.55117L9.16152 7.5793L9.26699 7.64609L9.28457 7.81836C9.28457 7.81836 9.26699 7.92383 9.25644 7.92383C9.2459 7.92383 9.17207 7.9625 9.17207 7.9625C9.17207 7.9625 9.07363 7.97305 9.0666 7.9625C9.05957 7.95195 9.09473 8.07852 9.09473 8.07852V8.19453L9.08418 8.33516C9.08418 8.33516 9.08418 8.40547 9.07363 8.41602C9.06309 8.42305 9.04551 8.45117 9.04551 8.45117L9.03496 8.59883L9.18965 8.63398L9.1791 8.72188L9.07363 8.73242L9.09473 9.31953L9.24941 9.34766V9.51289L9.1791 9.54805L9.16152 10.1387H8.62363Z" fill="white" stroke="#A9A9A9" stroke-width="1.1"/>
<path id="Vector_24" fill-rule="evenodd" clip-rule="evenodd" d="M7.60742 10.1027V9.65625H7.86055V10.1238L7.60742 10.1027ZM8.78867 10.1379L8.79922 9.68086H9.02422V10.1309L8.79219 10.1414L8.78867 10.1379ZM9.95586 10.1309L9.93828 9.70195L10.1773 9.69141V10.1414L9.95586 10.1309ZM7.6707 8.77734H7.81133V9.01289H7.6707V8.77734ZM8.80977 8.78789H9.00664V9.01289H8.80977V8.78789ZM9.96992 8.80547H10.1457V9.01992H9.96992V8.80547Z" fill="black"/>
<path id="Vector_25" d="M7.74512 7.76133C7.8998 7.93359 7.91035 7.93359 7.91035 7.93359M8.89473 7.75781C8.91934 7.81758 8.96855 7.94414 9.02832 7.95117M10.1252 7.78945C10.1252 7.78945 10.1709 7.92305 10.2412 7.94062" stroke="#A8A8A8" stroke-width="1.1"/>
<path id="Vector_26" fill-rule="evenodd" clip-rule="evenodd" d="M7.5829 7.27664C8.0329 7.12898 7.47743 6.83718 7.38602 7.27664C7.23837 7.29773 7.22079 7.40672 6.90438 7.3575C6.14149 8.60203 6.70751 10.6024 8.93641 12.6766C4.94266 9.28054 6.56688 6.77039 7.67079 6.86179C8.27196 6.90398 7.96962 7.65281 7.5829 7.27664Z" fill="#B97700"/>
<path id="Vector_27" d="M7.70605 6.63789C7.70605 6.63789 8.0752 6.73633 8.0752 6.89453M8.0752 6.61328C8.0752 6.61328 8.32832 6.72227 8.38457 6.82422M10.0756 6.65547C10.0756 6.65547 9.75215 6.69414 9.68184 6.79609M9.5834 6.68008C9.5834 6.68008 9.40059 6.83828 9.41465 6.88047M9.54121 7.35859C9.51309 7.34453 9.38652 7.17578 9.41465 6.96484M8.3002 7.24609C8.3002 7.24609 8.38457 7.14766 8.38457 6.96484M8.89082 6.89453L8.90488 7.30234M9.25644 7.24609C9.25644 7.21797 9.37246 6.95078 9.2459 6.82422M8.48301 6.76797C8.48301 6.76797 8.38457 7.03516 8.45488 7.26016M9.20371 7.00703C9.20371 7.00703 9.04902 7.04922 8.97871 7.11953M8.53926 7.04922C8.53926 7.03516 8.70801 7.00703 8.76426 7.10547" stroke="#7D6C00" stroke-width="2.4"/>
<path id="Vector_28" fill-rule="evenodd" clip-rule="evenodd" d="M8.27266 11.3211C8.27969 11.3211 8.41328 11.2965 8.41328 11.2297C8.48359 11.1875 8.43086 11.0645 8.43086 11.0645L8.3043 11.0398L8.13203 10.843C8.125 10.7832 8.14609 10.727 8.10742 10.6672C7.98789 10.6953 7.92109 10.7937 7.87891 10.9098C7.91055 10.9449 7.91406 10.9836 7.9668 11.0152C8.02305 11.0258 8.06172 10.9941 8.11445 11.0047C8.14258 11.0504 8.13555 11.0926 8.14258 11.1348C8.21289 11.1875 8.23047 11.2578 8.27266 11.3211ZM8.11797 10.4879V10.2559L7.95273 10.2523C7.93164 10.2875 7.89297 10.3016 7.86836 10.3332L7.75586 10.3895C7.80156 10.4492 7.86133 10.4809 7.89648 10.509C7.98438 10.5336 8.05117 10.5336 8.11797 10.4879ZM7.59766 10.8289L7.50977 10.6777C7.5679 10.6616 7.62977 10.6653 7.68555 10.6883C7.68555 10.6883 7.72422 10.7832 7.69609 10.8184C7.68203 10.8535 7.59414 10.8359 7.59766 10.8289ZM8.96875 10.9836C8.99476 10.9734 9.01776 10.9567 9.03559 10.9352C9.05342 10.9137 9.0655 10.888 9.0707 10.8605L8.90195 10.6672H8.7543C8.71914 10.6285 8.66289 10.6215 8.61719 10.6215C8.61719 10.6215 8.66641 10.6918 8.72617 10.7094C8.77187 10.8043 8.9582 10.9836 8.97227 10.9836H8.96875ZM9.13047 11.0082C9.20235 10.976 9.28021 10.9592 9.35898 10.959C9.35195 10.8992 9.46797 10.7586 9.46797 10.7586L9.67891 11.0328C9.64023 11.0645 9.57344 11.0539 9.5207 11.0645C9.5207 11.0645 9.41875 11.1629 9.4082 11.1664C9.39766 11.1699 9.21484 11.2121 9.12695 11.1594C9.08477 11.082 9.13398 10.9941 9.13047 11.0082ZM9.25 10.5266C9.27461 10.4387 9.28516 10.3508 9.25 10.2453C9.25 10.2453 9.01094 10.2383 9.01094 10.2453L8.85273 10.3156C8.85273 10.3156 8.90547 10.4738 8.96523 10.4563C8.99336 10.5406 9.07422 10.5195 9.11289 10.5477L9.25 10.5266ZM10.1816 10.2875C10.15 10.3859 10.1324 10.4914 10.1816 10.5898C10.2238 10.5969 10.273 10.625 10.3117 10.618L10.5051 10.2734C10.3715 10.2313 10.266 10.2348 10.1816 10.2875Z" fill="#C76E2E"/>
<path id="Vector_29" fill-rule="evenodd" clip-rule="evenodd" d="M10.2412 7.24187C9.79121 7.10125 10.3467 6.80593 10.4381 7.24187C10.5857 7.26648 10.6033 7.37546 10.9197 7.32976C11.6791 8.57078 11.1166 10.5747 8.8877 12.6454C12.8779 9.24929 11.2572 6.73914 10.1533 6.83054C9.54863 6.87273 9.85449 7.62156 10.2412 7.24539V7.24187Z" fill="#B97700"/>
<path id="Vector_30" fill-rule="evenodd" clip-rule="evenodd" d="M10.2868 10.6747C10.2798 10.6747 10.1708 10.7555 10.1708 10.7555L10.0161 10.8153L9.85089 10.8188L9.81574 10.7063L9.9423 10.5938C9.83683 10.5762 9.72784 10.6184 9.64347 10.6993C9.64347 10.6993 9.64347 10.8223 9.71378 10.8856C9.76598 10.9403 9.8224 10.9909 9.88253 11.0368C9.96339 11.0508 10.0372 11.0368 10.09 10.9981L10.2868 10.6747ZM9.41495 11.8067C9.46769 11.8207 9.84034 11.3286 9.84034 11.3286C9.80719 11.24 9.74193 11.1672 9.65753 11.1247C9.65753 11.1247 9.47472 11.3356 9.4712 11.4094C9.44308 11.4762 9.36222 11.7258 9.39738 11.7575C9.39386 11.7645 9.3798 11.8629 9.41495 11.8067Z" fill="#C76E2E"/>
<path id="Vector_31" fill-rule="evenodd" clip-rule="evenodd" d="M6.98926 11.9046C6.43379 11.4194 5.68145 11.1522 4.63379 11.5179C4.91504 11.6374 5.2209 11.6796 5.48105 11.8097L6.98926 11.9046Z" fill="#006800" stroke="#004100" stroke-width="2.4" stroke-linejoin="round"/>
<path id="Vector_32" d="M5.37891 11.5586C6.47578 11.5797 6.7957 11.8539 6.73594 11.8082" stroke="#00A400" stroke-width="2.2" stroke-linecap="round"/>
<path id="Vector_33" fill-rule="evenodd" clip-rule="evenodd" d="M7.01016 11.9588C6.6832 12.022 6.22969 12.3384 6.09609 12.3244C5.74102 12.2822 5.40352 12.1345 5.05898 12.0255C4.91484 11.9798 4.7707 12.0255 4.62305 12.0255C5.85352 11.442 6.27539 11.5228 7.01367 11.9552L7.01016 11.9588Z" fill="#006800" stroke="#004100" stroke-width="2.2" stroke-linejoin="round"/>
<path id="Vector_34" fill-rule="evenodd" clip-rule="evenodd" d="M6.20137 11.1016C6.20137 11.1016 5.79004 11.1578 5.60371 11.1719C5.42441 11.1578 5.15723 10.9891 4.86543 10.6797C4.71074 10.5109 4.3627 10.532 4.3627 10.532C5.13613 10.3668 5.73379 10.5215 6.20137 11.1016ZM5.63887 10.3035C5.07988 10.2684 4.38379 9.76562 4.22559 9.17148C4.22559 9.18203 4.42949 9.30156 4.39785 9.3332C5.31191 9.56523 5.3752 9.75156 5.64238 10.3035H5.63887ZM6.57754 11.2633C6.6584 10.757 6.68301 10.4195 6.43691 10.1207C6.24356 9.89219 6.19082 9.75508 6.0502 9.43516C6.01152 10.1031 5.86738 10.6516 6.57754 11.2633ZM5.69863 9.85703C6.11348 9.25234 6.18379 8.79531 6.12051 8.07812C6.07643 8.2189 6.02239 8.35636 5.95879 8.48945C5.34355 8.87617 5.61777 9.48086 5.69863 9.86055V9.85703Z" fill="#006800" stroke="#004100" stroke-width="2.4" stroke-linejoin="round"/>
<path id="Vector_35" fill-rule="evenodd" clip-rule="evenodd" d="M5.33284 6.9375C5.74768 7.54219 5.6844 8.11172 5.6176 8.83242C5.57459 8.69177 5.52173 8.55432 5.4594 8.42109C4.84065 8.03437 5.25198 7.31367 5.33284 6.9375Z" fill="#006800" stroke="#004100" stroke-width="2.4" stroke-linejoin="round"/>
<path id="Vector_36" fill-rule="evenodd" clip-rule="evenodd" d="M5.67383 7.87539C6.6793 7.36562 6.29258 6.72227 6.47539 6.22656C5.7793 6.74688 5.68789 7.29883 5.67383 7.87187V7.87539Z" fill="#006800" stroke="#004100" stroke-width="2.4" stroke-linejoin="round"/>
<path id="Vector_37" d="M5.81152 7.74531C5.93809 7.39375 6.1877 6.78906 6.2123 6.78906M5.51621 8.49062C5.4916 8.2375 5.36855 7.5625 5.35449 7.4957" stroke="#00A400" stroke-width="2.2" stroke-linecap="round"/>
<path id="Vector_38" fill-rule="evenodd" clip-rule="evenodd" d="M5.56172 9.61953C4.99922 9.58438 4.39805 8.82148 4.23633 8.22734C4.23633 8.23438 4.44375 8.35391 4.40859 8.38555C5.21016 8.74414 5.29453 9.06758 5.56172 9.61602V9.61953ZM5.39648 9.09219C4.98164 8.4875 4.90781 8.03047 4.97461 7.31328C4.98516 7.36953 5.12227 7.72461 5.13281 7.72461C5.74805 8.11133 5.47383 8.71602 5.39648 9.0957V9.09219ZM5.76562 8.03398C6.80625 7.57344 6.48633 7.08828 6.7957 6.58203C6.09961 7.09883 5.77617 7.46094 5.76562 8.03398Z" fill="#006800" stroke="#004100" stroke-width="2.4" stroke-linejoin="round"/>
<path id="Vector_39" d="M5.81152 7.92969C6.2334 7.50781 6.38457 7.15625 6.38457 7.15625" stroke="#00A400" stroke-width="2.2" stroke-linecap="round"/>
<g id="Group_3">
<path id="Vector_40" fill-rule="evenodd" clip-rule="evenodd" d="M9.50627 13.741L10.0125 13.7516C8.33557 12.1766 5.11526 11.491 5.56526 8.59766C5.09768 11.7371 8.19143 12.0254 9.50627 13.741Z" fill="#FFE100" stroke="#E9BF00" stroke-width="2.4"/>
<path id="Vector_41" fill-rule="evenodd" clip-rule="evenodd" d="M5.8291 7.97422C5.8291 7.99546 5.82492 8.01649 5.81679 8.03611C5.80866 8.05573 5.79675 8.07355 5.78174 8.08857C5.76672 8.10359 5.74889 8.1155 5.72927 8.12363C5.70965 8.13175 5.68862 8.13594 5.66738 8.13594C5.64615 8.13594 5.62512 8.13175 5.6055 8.12363C5.58587 8.1155 5.56805 8.10359 5.55303 8.08857C5.53801 8.07355 5.5261 8.05573 5.51797 8.03611C5.50985 8.01649 5.50566 7.99546 5.50566 7.97422C5.50566 7.93133 5.5227 7.89019 5.55303 7.85987C5.58336 7.82954 5.62449 7.8125 5.66738 7.8125C5.71027 7.8125 5.75141 7.82954 5.78174 7.85987C5.81206 7.89019 5.8291 7.93133 5.8291 7.97422ZM5.73066 8.86016C5.73066 8.90072 5.71455 8.93961 5.68587 8.96829C5.65719 8.99697 5.61829 9.01309 5.57773 9.01309C5.53717 9.01309 5.49828 8.99697 5.4696 8.96829C5.44092 8.93961 5.4248 8.90072 5.4248 8.86016C5.4248 8.8196 5.44092 8.7807 5.4696 8.75202C5.49828 8.72334 5.53717 8.70723 5.57773 8.70723C5.61829 8.70723 5.65719 8.72334 5.68587 8.75202C5.71455 8.7807 5.73066 8.8196 5.73066 8.86016ZM5.87129 10.1258C5.87129 10.1612 5.85721 10.1952 5.83216 10.2202C5.80711 10.2453 5.77313 10.2594 5.7377 10.2594C5.70226 10.2594 5.66828 10.2453 5.64323 10.2202C5.61818 10.1952 5.6041 10.1612 5.6041 10.1258C5.6041 10.0904 5.61818 10.0564 5.64323 10.0313C5.66828 10.0063 5.70226 9.99219 5.7377 9.99219C5.77313 9.99219 5.80711 10.0063 5.83216 10.0313C5.85721 10.0564 5.87129 10.0904 5.87129 10.1258ZM7.04551 11.5215C7.04551 11.5574 7.03125 11.5918 7.00586 11.6172C6.98048 11.6426 6.94605 11.6568 6.91016 11.6568C6.87426 11.6568 6.83983 11.6426 6.81445 11.6172C6.78906 11.5918 6.7748 11.5574 6.7748 11.5215C6.7748 11.4856 6.78906 11.4512 6.81445 11.4258C6.83983 11.4004 6.87426 11.3861 6.91016 11.3861C6.94605 11.3861 6.98048 11.4004 7.00586 11.4258C7.03125 11.4512 7.04551 11.4856 7.04551 11.5215ZM7.21426 11.9223C7.21426 11.9577 7.20018 11.9917 7.17513 12.0167C7.15008 12.0418 7.1161 12.0559 7.08066 12.0559C7.04523 12.0559 7.01125 12.0418 6.9862 12.0167C6.96115 11.9917 6.94707 11.9577 6.94707 11.9223C6.94707 11.8868 6.96115 11.8529 6.9862 11.8278C7.01125 11.8027 7.04523 11.7887 7.08066 11.7887C7.1161 11.7887 7.15008 11.8027 7.17513 11.8278C7.20018 11.8529 7.21426 11.8868 7.21426 11.9223Z" fill="#9D4916" stroke="#68300E" stroke-width="1.1"/>
</g>
<g id="Group_4">
<g id="Group_5">
<path id="Vector_42" fill-rule="evenodd" clip-rule="evenodd" d="M7.80391 13.0863C7.72859 13.0289 7.66828 12.9541 7.62812 12.8684L7.10078 12.8086L7.09375 13.1109L7.80742 13.0863H7.80391Z" fill="white" stroke="black" stroke-width="1.1"/>
<path id="Vector_43" fill-rule="evenodd" clip-rule="evenodd" d="M3.94785 12.7324C4.25371 12.7887 4.71426 12.7043 4.86543 12.9012C5.04824 13.1051 4.30293 13.4215 4.4084 13.5973C4.63691 13.8434 4.87598 13.7414 5.13262 13.6078C5.1959 13.4742 5.2416 13.2387 5.27324 13.1684C5.18184 12.9539 4.92871 12.8484 4.99199 12.5215C5.4209 12.3598 6.24004 12.3738 6.32793 12.4371C6.39824 12.5707 6.33496 12.634 6.34902 12.743C6.27871 12.8766 6.0959 13.1086 6.0959 13.2352C6.54238 13.3898 6.6584 13.207 7.0627 13.2176C7.53379 13.2246 7.82207 13.3512 7.92402 13.1648C7.85371 13.0031 7.42129 13.1332 7.25605 13.0277C7.1752 12.9996 7.12246 12.9363 7.05215 12.8625C6.98184 12.7887 6.78145 12.7852 6.7498 12.6059C6.83418 12.2227 7.38613 12.2824 7.47754 12.2227L8.91895 12.3211C9.1791 12.3141 9.32676 12.7852 8.9752 12.9258C8.62363 13.0664 7.57949 12.7148 7.12949 12.9609C7.10488 12.859 6.77793 12.7113 6.75684 12.7043C6.61621 12.7465 6.34902 12.7324 6.34902 12.7324C6.28223 12.8555 6.2084 12.9434 6.1416 13.0664C5.84277 12.9363 5.56152 13.1684 5.23457 13.1016L4.7248 13.1543L4.40137 13.1262L3.90918 13.2668L4.26074 12.9574L3.94785 12.7324Z" fill="white" stroke="black" stroke-width="1.1" stroke-linejoin="round"/>
<path id="Vector_44" fill-rule="evenodd" clip-rule="evenodd" d="M3.92656 12.6738C3.92973 12.6934 3.92861 12.7135 3.92326 12.7326C3.91792 12.7517 3.90848 12.7695 3.89561 12.7846C3.88274 12.7997 3.86674 12.8118 3.84871 12.8202C3.83069 12.8285 3.81107 12.8328 3.79121 12.8328C3.77135 12.8328 3.75173 12.8285 3.73371 12.8202C3.71568 12.8118 3.69968 12.7997 3.68681 12.7846C3.67394 12.7695 3.6645 12.7517 3.65916 12.7326C3.65382 12.7135 3.65269 12.6934 3.65586 12.6738C3.66106 12.6417 3.67753 12.6124 3.70233 12.5913C3.72713 12.5702 3.75864 12.5586 3.79121 12.5586C3.82378 12.5586 3.85529 12.5702 3.88009 12.5913C3.90489 12.6124 3.92136 12.6417 3.92656 12.6738ZM3.89141 13.3453C3.89141 13.3817 3.87696 13.4165 3.85125 13.4423C3.82553 13.468 3.79066 13.4824 3.7543 13.4824C3.71793 13.4824 3.68306 13.468 3.65735 13.4423C3.63163 13.4165 3.61719 13.3817 3.61719 13.3453C3.61719 13.3089 3.63163 13.2741 3.65735 13.2484C3.68306 13.2226 3.71793 13.2082 3.7543 13.2082C3.79066 13.2082 3.82553 13.2226 3.85125 13.2484C3.87696 13.2741 3.89141 13.3089 3.89141 13.3453Z" fill="white" stroke="black" stroke-width="1.1"/>
</g>
<g id="Group_6">
<path id="Vector_45" fill-rule="evenodd" clip-rule="evenodd" d="M9.98438 13.0902C10.0723 13.0094 10.125 12.9566 10.1602 12.8688L10.6875 12.8125L10.698 13.1148L9.98438 13.0902Z" fill="white" stroke="black" stroke-width="1.1"/>
<path id="Vector_46" fill-rule="evenodd" clip-rule="evenodd" d="M13.841 12.7363C13.5352 12.7926 13.0746 12.7082 12.9269 12.9051C12.7441 13.109 13.4894 13.4254 13.384 13.6012C13.1519 13.8473 12.9164 13.7453 12.6562 13.6117C12.5965 13.4781 12.5508 13.2426 12.5156 13.1723C12.6105 12.9578 12.8637 12.8488 12.7969 12.5219C12.3715 12.3637 11.5523 12.3777 11.4609 12.4375C11.3906 12.5746 11.4574 12.6379 11.4434 12.7434C11.5137 12.884 11.693 13.1125 11.693 13.2355C11.2465 13.3938 11.1305 13.2109 10.7262 13.2215C10.2551 13.2285 9.96679 13.3551 9.86484 13.1652C9.93515 13.0035 10.3676 13.1371 10.5328 13.0316C10.6137 13.0035 10.6664 12.9367 10.7402 12.8664C10.8141 12.7961 11.0109 12.7891 11.0391 12.6098C10.9547 12.2266 10.4027 12.2863 10.3113 12.2266L8.86992 12.325C8.60976 12.318 8.46562 12.7891 8.81718 12.9297C9.16874 13.0703 10.2094 12.7188 10.6629 12.9613C10.6875 12.8629 11.0109 12.7152 11.0355 12.7082C11.1727 12.7504 11.4434 12.7363 11.4434 12.7363C11.5066 12.8559 11.584 12.9473 11.6508 13.0703C11.9496 12.9367 12.2309 13.1723 12.5578 13.1055L13.0641 13.1582L13.391 13.1301L13.8832 13.2707L13.5316 12.9613L13.841 12.7363Z" fill="white" stroke="black" stroke-width="1.1" stroke-linejoin="round"/>
<path id="Vector_47" fill-rule="evenodd" clip-rule="evenodd" d="M13.8658 12.6723C13.8627 12.6919 13.8638 12.7119 13.8691 12.731C13.8745 12.7502 13.8839 12.7679 13.8968 12.783C13.9096 12.7981 13.9256 12.8103 13.9437 12.8186C13.9617 12.8269 13.9813 12.8313 14.0012 12.8313C14.021 12.8313 14.0406 12.8269 14.0587 12.8186C14.0767 12.8103 14.0927 12.7981 14.1056 12.783C14.1184 12.7679 14.1279 12.7502 14.1332 12.731C14.1386 12.7119 14.1397 12.6919 14.1365 12.6723C14.1365 12.6359 14.1221 12.601 14.0964 12.5753C14.0707 12.5496 14.0358 12.5352 13.9994 12.5352C13.9631 12.5352 13.9282 12.5496 13.9025 12.5753C13.8768 12.601 13.8623 12.6359 13.8623 12.6723H13.8658ZM13.901 13.3473C13.8978 13.3669 13.8989 13.3869 13.9043 13.406C13.9096 13.4252 13.9191 13.4429 13.9319 13.458C13.9448 13.4731 13.9608 13.4853 13.9788 13.4936C13.9969 13.5019 14.0165 13.5063 14.0363 13.5063C14.0562 13.5063 14.0758 13.5019 14.0938 13.4936C14.1119 13.4853 14.1279 13.4731 14.1407 13.458C14.1536 13.4429 14.163 13.4252 14.1684 13.406C14.1737 13.3869 14.1748 13.3669 14.1717 13.3473C14.1665 13.3151 14.15 13.2859 14.1252 13.2647C14.1004 13.2436 14.0689 13.232 14.0363 13.232C14.0038 13.232 13.9723 13.2436 13.9475 13.2647C13.9227 13.2859 13.9062 13.3151 13.901 13.3473Z" fill="white" stroke="black" stroke-width="1.1"/>
</g>
<path id="Vector_48" fill-rule="evenodd" clip-rule="evenodd" d="M8.88672 12.3488C8.76367 12.3242 8.72148 12.3313 8.64062 12.3242L8.44727 12.9184C8.74258 12.943 9.02031 12.943 9.02031 12.943C8.84102 12.9078 8.8832 12.3523 8.88672 12.3453V12.3488Z" fill="white"/>
</g>
<g id="Group_7">
<path id="Vector_49" d="M7.62891 12.7637V12.3594H7.69922V12.6969H7.88906V12.7602L7.62891 12.7637Z" fill="black"/>
<path id="Vector_50" d="M7.94531 12.7793V12.375H8.01562V12.7758L7.94531 12.7793Z" fill="black"/>
<path id="Vector_51" d="M8.25488 12.8105H8.13184V12.4133L8.25137 12.4062C8.29121 12.4062 8.32168 12.4145 8.34277 12.4309C8.36621 12.452 8.37793 12.4789 8.37793 12.5117C8.37793 12.5422 8.3627 12.5668 8.33223 12.5855C8.38145 12.6043 8.40605 12.6395 8.40605 12.691C8.40605 12.7309 8.39199 12.7613 8.36387 12.7824C8.33809 12.8012 8.30293 12.8105 8.2584 12.8105H8.25488ZM8.20566 12.4695V12.5609H8.24082C8.28535 12.5609 8.30762 12.5445 8.30762 12.5117C8.30762 12.4836 8.28652 12.4695 8.24434 12.4695H8.20566ZM8.20566 12.6172V12.7508H8.24082C8.27129 12.7508 8.29355 12.7461 8.30762 12.7367C8.32402 12.7297 8.33223 12.7133 8.33223 12.6875C8.33223 12.6641 8.32519 12.6477 8.31113 12.6383C8.29941 12.6242 8.27598 12.6172 8.24082 12.6172H8.20566Z" fill="black"/>
<path id="Vector_52" d="M8.57461 12.4937V12.5922H8.70469V12.6555H8.57812V12.775H8.76445V12.8348H8.50781V12.4375H8.76094V12.5008L8.57461 12.4937Z" fill="black"/>
<path id="Vector_53" d="M9.08789 12.8422L8.98242 12.6734H8.92969V12.8422H8.85938V12.4484H8.90508L8.96836 12.4414C9.07148 12.4414 9.12305 12.4813 9.12305 12.5609C9.12305 12.5844 9.11719 12.6043 9.10547 12.6207C9.08906 12.6441 9.07031 12.6594 9.04922 12.6664L9.17578 12.8457L9.08789 12.8422ZM8.92969 12.5047V12.6102H8.96484L9.02461 12.6066C9.04102 12.5973 9.04922 12.5809 9.04922 12.5574C9.04922 12.534 9.04336 12.5188 9.03164 12.5117C9.01523 12.5047 8.98945 12.5012 8.9543 12.5012H8.92969V12.5047Z" fill="black"/>
<path id="Vector_54" d="M9.37266 12.493V12.8305H9.30234V12.493H9.17578V12.4297H9.50625V12.493H9.37266Z" fill="black"/>
<path id="Vector_55" d="M9.78008 12.775L9.74844 12.6941H9.60781L9.58672 12.775H9.50586L9.66758 12.3672H9.69922L9.86094 12.775H9.78008ZM9.67812 12.4867L9.63594 12.6379H9.73086L9.67812 12.4867Z" fill="black"/>
<path id="Vector_56" d="M9.91797 12.7422L9.94258 12.6789C9.97305 12.6953 10 12.7035 10.0234 12.7035C10.0656 12.7035 10.0867 12.6895 10.0867 12.6613L10.0727 12.6262L10.0129 12.5805L9.94961 12.5418L9.925 12.5066L9.91797 12.4609C9.91797 12.4281 9.92852 12.4012 9.94961 12.3801C9.97305 12.3637 10.0023 12.3555 10.0375 12.3555C10.0844 12.3555 10.1195 12.3637 10.143 12.3801L10.1184 12.4434C10.0949 12.4199 10.068 12.4082 10.0375 12.4082C10.0211 12.4082 10.0094 12.4129 10.0023 12.4223C9.99297 12.4316 9.98828 12.4434 9.98828 12.4574C9.98828 12.4809 10.0117 12.5043 10.0586 12.5277C10.0891 12.5418 10.1113 12.5547 10.1254 12.5664L10.15 12.6016L10.1535 12.6543C10.1535 12.6871 10.1418 12.7141 10.1184 12.7352C10.0949 12.7563 10.0609 12.7668 10.0164 12.7668C9.97656 12.7668 9.94375 12.7563 9.91797 12.7352V12.7422Z" fill="black"/>
</g>
<path id="Vector_57" d="M5.67383 11.9465C6.05352 11.9922 6.57734 11.9605 6.80586 11.9465M5.1043 10.6562C5.4207 10.9094 6.12031 11.057 6.10977 11.057M6.50703 11.1273C6.40508 10.6 6.29258 10.477 6.20117 10.143M4.56641 9.54883C5.1043 9.79141 5.18516 9.94961 5.52617 10.1887M5.71953 9.66133C5.76523 9.01445 5.86016 8.84219 6.01836 8.69453M4.56641 8.61367C4.84169 8.91244 5.11944 9.20894 5.39961 9.50312M5.13945 8.01953C5.37852 8.1918 5.37852 8.80703 5.37852 8.80703" stroke="#00A400" stroke-width="2.2" stroke-linecap="round"/>
</g>
<defs>
<clipPath id="clip0_186_10322">
<rect width="18" height="18" fill="white"/>
</clipPath>
</defs>
</svg>
