<svg width="18" height="18" viewBox="0 0 18 18" fill="none" xmlns="http://www.w3.org/2000/svg">
<g id="st" clip-path="url(#clip0_186_13874)">
<path id="Vector" d="M0 0H18V18H0V0Z" fill="#12AD2B"/>
<path id="Vector_2" d="M0 5.14453H18V12.8578H0V5.14453Z" fill="#FFCE00"/>
<path id="Vector_3" d="M0 0V18L6.75 9" fill="#D21034"/>
<g id="st-c">
<g id="st-b">
<path id="st-a" d="M9.73438 6.85938L9.01373 9.07729L10.1227 9.43761" fill="#000001"/>
<path id="st-a_2" d="M9.73438 6.85938L10.455 9.07729L9.34606 9.43761" fill="#000001"/>
</g>
<g id="st-b_2">
<path id="st-a_3" d="M11.9521 8.47266H9.62009V9.63868" fill="#000001"/>
<path id="st-a_4" d="M11.9521 8.47266L10.0655 9.8434L9.3801 8.90007" fill="#000001"/>
</g>
<g id="st-b_3">
<path id="st-a_5" d="M11.1045 11.0781L10.3838 8.86021L9.27489 9.22053" fill="#000001"/>
<path id="st-a_6" d="M11.1045 11.0781L9.21782 9.70738L9.90319 8.76404" fill="#000001"/>
</g>
<g id="st-b_4">
<path id="st-a_7" d="M8.36328 11.0781L10.25 9.70738L9.56458 8.76404" fill="#000001"/>
<path id="st-a_8" d="M8.36328 11.0781L9.08393 8.86021L10.1929 9.22053" fill="#000001"/>
</g>
<g id="st-b_5">
<path id="st-a_9" d="M7.5166 8.47266L9.40327 9.8434L10.0886 8.90007" fill="#000001"/>
<path id="st-a_10" d="M7.5166 8.47266H9.84866V9.63868" fill="#000001"/>
</g>
</g>
<g id="st-c_2">
<g id="st-b_6">
<path id="st-a_11" d="M14.9766 6.85938L14.2559 9.07729L15.3649 9.43761" fill="#000001"/>
<path id="st-a_12" d="M14.9766 6.85938L15.6972 9.07729L14.5882 9.43761" fill="#000001"/>
</g>
<g id="st-b_7">
<path id="st-a_13" d="M17.1943 8.47266H14.8623V9.63868" fill="#000001"/>
<path id="st-a_14" d="M17.1943 8.47266L15.3077 9.8434L14.6223 8.90007" fill="#000001"/>
</g>
<g id="st-b_8">
<path id="st-a_15" d="M16.3467 11.0781L15.626 8.86021L14.5171 9.22053" fill="#000001"/>
<path id="st-a_16" d="M16.3467 11.0781L14.46 9.70738L15.1454 8.76404" fill="#000001"/>
</g>
<g id="st-b_9">
<path id="st-a_17" d="M13.6055 11.0781L15.4921 9.70738L14.8068 8.76404" fill="#000001"/>
<path id="st-a_18" d="M13.6055 11.0781L14.3261 8.86021L15.4351 9.22053" fill="#000001"/>
</g>
<g id="st-b_10">
<path id="st-a_19" d="M12.7588 8.47266L14.6455 9.8434L15.3308 8.90007" fill="#000001"/>
<path id="st-a_20" d="M12.7588 8.47266H15.0908V9.63868" fill="#000001"/>
</g>
</g>
</g>
<defs>
<clipPath id="clip0_186_13874">
<rect width="18" height="18" fill="white"/>
</clipPath>
</defs>
</svg>
