<svg width="18" height="18" viewBox="0 0 18 18" fill="none" xmlns="http://www.w3.org/2000/svg">
<g id="sx" clip-path="url(#clip0_186_14823)">
<g id="Clip path group">
<mask id="mask0_186_14823" style="mask-type:luminance" maskUnits="userSpaceOnUse" x="0" y="0" width="18" height="18">
<g id="sx-a">
<path id="Vector" d="M0 0H18.0004V18.0004H0V0Z" fill="white"/>
</g>
</mask>
<g mask="url(#mask0_186_14823)">
<g id="Group">
<path id="Vector_2" fill-rule="evenodd" clip-rule="evenodd" d="M0 0H27.0005V9.00018H12.0002L0 0Z" fill="#ED2939"/>
<path id="Vector_3" fill-rule="evenodd" clip-rule="evenodd" d="M0 18.0002H27.0005V9H12.0002L0 18.0002Z" fill="#002395"/>
<path id="Vector_4" fill-rule="evenodd" clip-rule="evenodd" d="M0 0L12.0002 9.00018L0 18.0004V0Z" fill="white"/>
<path id="Vector_5" d="M6.05642 6.79028L6.06042 6.65427C6.06042 6.65427 5.98442 6.53427 6.07242 6.40627C6.07242 6.40627 5.88841 6.30627 5.93242 6.15426C5.93242 6.15426 5.76441 6.11426 5.77641 5.93026C5.77641 5.93026 5.59641 5.91826 5.57641 5.76226C5.57641 5.76226 5.3964 5.79426 5.3204 5.64225C5.3204 5.64225 5.1444 5.67826 5.0924 5.55425C5.0924 5.55425 4.9244 5.61425 4.82039 5.47025C4.82039 5.47025 4.64039 5.54225 4.56439 5.40625C4.49239 5.54225 4.31238 5.47025 4.31238 5.47025C4.21238 5.61425 4.04038 5.55025 4.04038 5.55025C3.99238 5.67826 3.81637 5.64225 3.81637 5.64225C3.73637 5.79026 3.55637 5.76226 3.55637 5.76226C3.54037 5.91426 3.35637 5.92626 3.35637 5.92626C3.36232 5.97558 3.35076 6.02543 3.32371 6.0671C3.29666 6.10878 3.25584 6.13962 3.20836 6.15426C3.24836 6.30627 3.06836 6.40227 3.06836 6.40227C3.15636 6.53027 3.08036 6.65027 3.08036 6.65027V6.77828L6.05642 6.79028Z" fill="#FFFF00"/>
<path id="Vector_6" d="M6.0577 6.79246V6.65142C6.0577 6.65142 5.98516 6.53053 6.07382 6.40964C6.07382 6.40964 5.88844 6.3089 5.93277 6.15577C5.93277 6.15577 5.76351 6.11547 5.7756 5.93011C5.7756 5.93011 5.59424 5.91802 5.57409 5.76489C5.57409 5.76489 5.39677 5.7931 5.3202 5.644C5.3202 5.644 5.14287 5.67624 5.09451 5.55535C5.09451 5.55535 4.92122 5.61579 4.82047 5.47072C4.82047 5.47072 4.63911 5.54326 4.56657 5.40625C4.49 5.54326 4.30865 5.47072 4.30865 5.47072C4.21192 5.61176 4.03863 5.55132 4.03863 5.55132C3.99027 5.67624 3.81698 5.644 3.81698 5.644C3.73638 5.7931 3.55502 5.76489 3.55502 5.76489C3.5389 5.91399 3.35755 5.92608 3.35755 5.92608C3.36421 5.97536 3.35277 6.0254 3.32535 6.06689C3.29793 6.10839 3.25639 6.13854 3.20844 6.15174C3.24874 6.30487 3.06738 6.40158 3.06738 6.40158C3.15604 6.53053 3.07947 6.65142 3.07947 6.65142V6.78037L6.0577 6.79246Z" stroke="black" stroke-width="0.343883"/>
<path id="Vector_7" d="M5.9878 6.6216C5.51979 6.5736 4.97978 6.46159 4.56377 6.6976C4.28376 6.5336 3.89576 6.5416 3.56375 6.5776C3.38775 6.6056 3.17574 6.6056 2.98774 6.6376L2.95974 6.6416C2.61573 6.6656 2.30772 6.5616 2.01172 6.43359C2.10772 6.9656 2.21172 7.51361 2.26372 8.07363C2.37573 8.89764 1.87172 9.59366 2.07572 10.4097C2.19972 10.8017 2.63173 11.0297 3.02774 11.0737C3.40724 11.0985 3.78432 11.152 4.15576 11.2337C4.22306 11.2502 4.28867 11.273 4.35176 11.3017C4.43783 11.339 4.5154 11.3935 4.57977 11.4617C4.79577 11.2417 5.10778 11.1817 5.41979 11.1497C5.9718 11.0817 6.65981 11.1177 6.99982 10.6137V10.5857C7.18382 10.3057 7.15982 9.88166 7.07982 9.56566C7.07182 9.45765 7.04382 9.36165 7.02782 9.25365C6.68781 8.35763 6.97982 7.34961 7.12382 6.44559C6.94782 6.5416 6.74781 6.5896 6.54781 6.6376C6.3878 6.6576 6.2158 6.6496 6.0518 6.6376L5.9878 6.6216Z" fill="#FF0000"/>
<path id="Vector_8" d="M6.68825 9.19542C6.68425 9.25542 6.71625 9.29942 6.72825 9.35542C6.79225 9.74743 6.85625 10.2674 6.44824 10.5114C6.00823 10.7915 5.42022 10.6714 4.90421 10.8235C4.80021 10.8515 4.65621 10.9435 4.58421 11.0115C4.53621 10.9835 4.49221 10.9355 4.4322 10.9075C4.0042 10.6835 3.45219 10.7555 2.97218 10.6354C2.73217 10.5554 2.48017 10.3714 2.41617 10.1234C2.26016 9.47543 2.63617 8.92342 2.59217 8.2834C2.56146 7.80285 2.48647 7.32615 2.36816 6.85938C2.75582 7.02865 3.18716 7.07067 3.60019 6.97938C3.91219 6.93938 4.2802 6.93938 4.56821 7.06738C4.73654 7.0035 4.91286 6.96312 5.09222 6.94738C5.42422 6.97938 5.78023 7.03938 6.12024 7.03938C6.33955 7.02335 6.55392 6.96637 6.75225 6.87138C6.63225 7.63139 6.40824 8.43141 6.68425 9.19142" fill="#80CFE1"/>
<path id="Vector_9" d="M6.01219 9.34801L6.00819 8.632H6.09619L5.00017 7.92398V7.55998H5.10417L4.55616 7.16797L4.01215 7.55998H4.11615V7.92398L3.03613 8.632H3.11613L3.12413 9.34401H6.00419" fill="white"/>
<path id="Vector_10" d="M6.00935 9.34802V8.63074H6.09399L5.00586 7.92555L5.00183 7.56288H5.10662L4.55853 7.16797L4.01446 7.55885H4.11925L4.12328 7.92555L3.03516 8.63074H3.12382V9.344L6.00935 9.34802Z" stroke="black" stroke-width="1.37553"/>
<path id="Vector_11" d="M6.34819 10.2853V10.5093H2.82812V10.2812H6.34819" fill="white"/>
<path id="Vector_12" d="M6.34748 10.2892V10.5108H2.8252V10.2852H6.34748V10.2892Z" stroke="black" stroke-width="1.37553"/>
<path id="Vector_13" d="M3.06 10.2715V9.51147H3.2L3.192 10.2795L3.2 9.51947L3 9.51547V9.35547H6.14406V9.51547H5.94806H6.09206V10.2755" fill="white"/>
<path id="Vector_14" d="M3.0585 10.2703V9.51275H3.19955L3.19149 10.2784L3.19955 9.52081L2.99805 9.51275V9.35156L6.14151 9.35559V9.51678H5.94806L5.9521 10.2824L5.94403 9.51678H6.08912L6.09315 10.2744" stroke="black" stroke-width="1.37553"/>
<path id="Vector_15" d="M3.73578 10.0865V9.55859H3.30859V10.0825L3.73175 10.0865" stroke="black" stroke-width="1.37553"/>
<path id="Vector_16" d="M3.42981 9.66727V9.97353H3.62325V9.66727H3.42578M5.80353 10.0864L5.7995 9.5625H5.38037V10.0864H5.80353Z" stroke="black" stroke-width="1.37553"/>
<path id="Vector_17" d="M5.49285 9.67025V9.9765H5.68629V9.67025H5.49285ZM5.79913 9.22698V8.70312H5.37598V9.22698H5.79913Z" stroke="black" stroke-width="1.37553"/>
<path id="Vector_18" d="M5.48887 8.81205V9.1183H5.68231V8.81205H5.48887ZM3.73175 9.22711V8.69922H3.30859V9.22308H3.73175V9.22711Z" stroke="black" stroke-width="1.37553"/>
<path id="Vector_19" d="M4.49778 9.22711V8.69922H4.07462V9.22308H4.49778M3.42578 8.80802V9.11428H3.61923V8.80802H3.42578Z" stroke="black" stroke-width="1.37553"/>
<path id="Vector_20" d="M4.1875 8.80802V9.11428H4.38094V8.80802H4.1875ZM5.08621 9.22711V8.70325L4.66305 8.69922V9.22308L5.08621 9.22711Z" stroke="black" stroke-width="1.37553"/>
<path id="Vector_21" d="M4.77539 8.80859V9.11485H4.97286V8.80859H4.77539Z" stroke="black" stroke-width="1.37553"/>
<path id="Vector_22" d="M5.1917 9.0665L5.1957 10.2825H3.97568L3.97168 9.0625H5.1917" fill="white"/>
<path id="Vector_23" d="M3.96175 9.41405H5.19496M4.1149 10.2845V9.42211M5.04584 10.2845V9.42614M5.19093 9.0675L5.19496 10.2845H3.97384L3.96981 9.0675H5.19093ZM5.63827 8.54767L4.95315 8.04799H4.17535L3.49023 8.54767H5.63827ZM4.2358 7.62891V7.93516H4.88867V7.62891H4.2358Z" stroke="black" stroke-width="1.37553"/>
<path id="Vector_24" d="M4.5579 7.27344L4.9206 7.53134H4.19922L4.56193 7.27344M4.41281 7.70461V7.85774H4.71104V7.70461H4.41281Z" stroke="black" stroke-width="1.37553"/>
<path id="Vector_25" d="M6.02424 7.1055C6.12824 7.1055 6.15224 7.5295 6.15224 7.74151C6.29524 7.7972 6.42281 7.88636 6.52425 8.00151H5.53223C5.6314 7.88739 5.75612 7.7983 5.89623 7.74151C5.89623 7.5295 5.92023 7.1015 6.02424 7.1055Z" fill="white"/>
<path id="Vector_26" d="M4.82835 9.10016H4.91701L4.88881 9.15255C4.88881 9.15255 4.93314 9.20493 4.88881 9.26941L4.91298 9.3097H4.83238L4.85253 9.26941C4.85253 9.26941 4.81223 9.19687 4.85253 9.14852L4.82835 9.10419M6.02126 7.10547C6.12604 7.10547 6.15022 7.52858 6.15022 7.74216C6.23888 7.76634 6.43636 7.89126 6.52099 8.00006H5.52959C5.61422 7.89126 5.81169 7.76634 5.89632 7.74216C5.89632 7.52858 5.9205 7.10547 6.02126 7.10547ZM4.02637 9.10016H4.11503L4.09085 9.14852C4.09085 9.14852 4.13115 9.20493 4.09085 9.26941L4.11503 9.3097H4.02637L4.05055 9.26941C4.05055 9.26941 4.01025 9.19687 4.05055 9.14852L4.02637 9.10016ZM4.20772 9.10016H4.29638L4.2722 9.14852C4.2722 9.14852 4.3125 9.20493 4.2722 9.26941L4.29638 9.3097H4.20772L4.2319 9.26941C4.2319 9.26941 4.1916 9.19687 4.2319 9.14852L4.20772 9.10016ZM4.40922 9.10016H4.49386L4.46968 9.14852C4.46968 9.14852 4.50998 9.20493 4.46968 9.26941L4.49386 9.3097H4.40922L4.42938 9.26941C4.42938 9.26941 4.38907 9.19687 4.42938 9.14852L4.4052 9.10016H4.40922ZM4.63088 9.10016H4.71954L4.69133 9.15255C4.69133 9.15255 4.73566 9.20493 4.69133 9.26941L4.71551 9.3097H4.63088L4.65506 9.26941C4.65506 9.26941 4.61476 9.19687 4.65506 9.14852L4.63088 9.10016ZM5.02583 9.10419H5.11449L5.08628 9.15255C5.08628 9.15255 5.13061 9.20493 5.08628 9.26941L5.11046 9.3097H5.02986L5.05001 9.26941C5.05001 9.26941 5.00971 9.19687 5.05001 9.14852L5.02583 9.10419Z" stroke="black" stroke-width="1.37553"/>
<path id="Vector_27" d="M4.58823 11.8386C5.02558 11.85 5.46079 11.7739 5.86826 11.6146L6.45227 11.5626L6.46027 12.2666C5.97226 12.5386 4.84024 12.5986 4.58823 12.5946C4.34023 12.5946 3.1922 12.5386 2.7002 12.2666L2.7082 11.5586L3.28821 11.6106C3.70274 11.7703 4.14405 11.849 4.58823 11.8426" fill="#FFFF00"/>
<path id="Vector_28" d="M4.5864 11.8446C5.04583 11.8446 5.60601 11.7519 5.87199 11.6149L6.44829 11.5665L6.46038 12.2717C5.97274 12.5417 4.83626 12.6022 4.59043 12.5981C4.34056 12.5981 3.19199 12.5417 2.69629 12.2677L2.70435 11.5625L3.28468 11.6149C3.55067 11.7519 4.131 11.8446 4.5864 11.8446Z" stroke="black" stroke-width="0.343883"/>
<path id="Vector_29" d="M1.20782 8.82812L1.71983 8.98813L1.56383 9.81614L1.08382 9.89215C1.08382 9.89215 1.00382 9.45614 1.20782 8.82812Z" fill="#FFFF00"/>
<path id="Vector_30" d="M1.20865 8.82812L1.71644 8.98931L1.5633 9.8154L1.07969 9.89196C1.07969 9.89196 0.999088 9.45675 1.20865 8.82812Z" stroke="black" stroke-width="0.343883"/>
<path id="Vector_31" d="M1.56399 9.80904L1.08398 9.89304L1.38799 9.45703L1.56399 9.80904Z" fill="#7E7E7E"/>
<path id="Vector_32" d="M1.56369 9.80761L1.08008 9.88821L1.38636 9.45703L1.56369 9.80761Z" stroke="black" stroke-width="0.343883"/>
<path id="Vector_33" d="M0.90422 9.42578L1.39623 9.46178C1.40823 9.87779 1.45623 11.4658 3.35627 11.5538L3.29627 12.1338C0.984222 12.1578 0.812218 10.1818 0.90422 9.42578Z" fill="#FFFF00"/>
<path id="Vector_34" d="M2.70791 12.2506L3.28824 12.1257M0.902435 9.42578L1.3941 9.45802C1.40619 9.8771 1.45456 11.4648 3.35675 11.5535L3.2963 12.1337C0.983037 12.1579 0.809743 10.1834 0.902435 9.42578Z" stroke="black" stroke-width="0.343883"/>
<path id="Vector_35" d="M7.92403 8.83203L7.41602 8.99203L7.57602 9.82005L8.06003 9.90005C8.06003 9.90005 8.14003 9.46004 7.92403 8.83203Z" fill="#FFFF00"/>
<path id="Vector_36" d="M7.92283 8.83203L7.41504 8.99322L7.57624 9.8193L8.05985 9.8999C8.05985 9.8999 8.14045 9.46469 7.92283 8.83203Z" stroke="black" stroke-width="0.343883"/>
<path id="Vector_37" d="M7.57617 9.81285L8.06018 9.89685L7.75218 9.46484L7.57617 9.81285Z" fill="#7E7E7E"/>
<path id="Vector_38" d="M7.57617 9.8114L8.05978 9.89602L7.74947 9.46484L7.57617 9.8114Z" stroke="black" stroke-width="0.343883"/>
<path id="Vector_39" d="M8.23585 9.42969L7.74384 9.46569C7.73584 9.8817 7.69984 11.4737 5.7998 11.5577L5.86381 12.1337C8.17585 12.1617 8.33585 10.1857 8.23585 9.42969Z" fill="#FFFF00"/>
<path id="Vector_40" d="M6.45268 12.2505L5.87235 12.1296M8.23397 9.42969L7.7423 9.46192C7.73424 9.88101 7.702 11.4727 5.7998 11.5574L5.86429 12.1336C8.17755 12.1618 8.33473 10.1873 8.23397 9.43372V9.42969Z" stroke="black" stroke-width="0.343883"/>
<path id="Vector_41" d="M4.27988 12.1927C4.26788 12.2007 4.24788 12.2007 4.22788 12.2007L4.13588 12.1967L4.14388 12.0807L4.23588 12.0847C4.25188 12.0847 4.26788 12.0927 4.27588 12.0967C4.29588 12.1047 4.30388 12.1247 4.29988 12.1487C4.29988 12.1687 4.29188 12.1847 4.27988 12.1887M4.12388 12.3727L4.13588 12.2327L4.23988 12.2407C4.26856 12.2425 4.29695 12.234 4.31988 12.2167C4.33588 12.1967 4.34788 12.1767 4.34788 12.1487C4.34951 12.1356 4.3482 12.1224 4.34404 12.1099C4.33989 12.0975 4.333 12.0861 4.32388 12.0767C4.30396 12.0591 4.27844 12.0492 4.25188 12.0487L4.09988 12.0407L4.07988 12.3687L4.12388 12.3727ZM4.45988 12.1007H4.57189L4.61189 12.1087C4.62389 12.1167 4.63189 12.1327 4.63189 12.1567C4.63189 12.1807 4.62789 12.1967 4.61589 12.2047C4.60389 12.2127 4.58389 12.2167 4.56389 12.2167H4.45588V12.1007M4.45588 12.3927V12.2527H4.55989C4.57989 12.2527 4.59589 12.2527 4.60389 12.2607C4.61989 12.2647 4.62789 12.2807 4.62789 12.3007V12.3567L4.63189 12.3847L4.63589 12.3967H4.69189V12.3887C4.68782 12.3868 4.68425 12.3841 4.68147 12.3806C4.67868 12.3771 4.67677 12.373 4.67589 12.3687V12.2967C4.67589 12.2767 4.66789 12.2607 4.65989 12.2567C4.65331 12.2459 4.64351 12.2375 4.63189 12.2327L4.67189 12.2047L4.67989 12.1527C4.67989 12.1167 4.66389 12.0887 4.63189 12.0767C4.61157 12.0684 4.58981 12.0643 4.56789 12.0647H4.41188V12.3927H4.45588ZM4.80789 12.3247C4.78649 12.2986 4.77389 12.2664 4.77189 12.2327C4.77189 12.1847 4.77989 12.1527 4.79989 12.1287C4.81989 12.1007 4.84789 12.0887 4.88389 12.0887C4.92389 12.0887 4.94789 12.0967 4.97189 12.1207C4.99189 12.1407 5.0079 12.1727 5.0119 12.2127C5.0119 12.2487 5.00389 12.2807 4.98789 12.3087C4.96789 12.3367 4.94389 12.3527 4.89989 12.3567C4.85989 12.3567 4.82789 12.3487 4.80789 12.3247ZM4.75189 12.1167C4.73021 12.1513 4.72038 12.192 4.72389 12.2327C4.72521 12.2771 4.74221 12.3196 4.77189 12.3527C4.7886 12.3677 4.80827 12.379 4.82964 12.3859C4.851 12.3927 4.87357 12.3951 4.89589 12.3927C4.92045 12.3934 4.94484 12.3884 4.96708 12.378C4.98932 12.3676 5.00879 12.352 5.0239 12.3327C5.04786 12.2959 5.05911 12.2524 5.0559 12.2087C5.05596 12.1678 5.04182 12.1282 5.0159 12.0967C4.98389 12.0607 4.93589 12.0447 4.87989 12.0487C4.81989 12.0487 4.77989 12.0727 4.75189 12.1167ZM6.29992 11.6406C6.32781 11.6348 6.35671 11.6362 6.38392 11.6446C6.42392 11.6566 6.44792 11.6846 6.46392 11.7246L6.41592 11.7326C6.41282 11.7224 6.40767 11.7128 6.4008 11.7046C6.39393 11.6963 6.38547 11.6896 6.37592 11.6846C6.35407 11.677 6.33052 11.6756 6.30792 11.6806C6.29281 11.682 6.27818 11.6866 6.26505 11.6942C6.25192 11.7018 6.24061 11.7122 6.23192 11.7246C6.21592 11.7526 6.21192 11.7846 6.21992 11.8326C6.22392 11.8726 6.23992 11.9007 6.25992 11.9207C6.28392 11.9447 6.31192 11.9527 6.35192 11.9447C6.38013 11.9409 6.40587 11.9266 6.42392 11.9047C6.43992 11.8887 6.44792 11.8566 6.43992 11.8206L6.33592 11.8366L6.32792 11.8006L6.47592 11.7766L6.50392 11.9527H6.47592L6.45992 11.9127C6.44907 11.9283 6.43553 11.9418 6.41992 11.9527C6.39915 11.9695 6.37432 11.9805 6.34792 11.9847C6.31018 11.9905 6.27163 11.9819 6.23992 11.9607C6.22125 11.9461 6.20564 11.928 6.19397 11.9074C6.1823 11.8868 6.17481 11.8641 6.17192 11.8406C6.16677 11.8175 6.16624 11.7936 6.17036 11.7703C6.17447 11.7469 6.18316 11.7246 6.19592 11.7046C6.20751 11.687 6.22283 11.6721 6.2408 11.6611C6.25877 11.65 6.27895 11.643 6.29992 11.6406ZM6.63593 11.6166L6.73993 11.5766C6.7527 11.5719 6.76647 11.5706 6.77993 11.5726C6.79593 11.5726 6.81193 11.5846 6.81993 11.6086C6.82793 11.6286 6.82793 11.6446 6.81993 11.6566L6.77593 11.6846L6.67593 11.7246L6.63593 11.6166ZM6.73993 11.8887L6.68793 11.7566L6.78793 11.7206C6.80071 11.7157 6.81424 11.713 6.82793 11.7126C6.84393 11.7126 6.85593 11.7246 6.86793 11.7446L6.88793 11.7966L6.89993 11.8206L6.90793 11.8286L6.95993 11.8086V11.8046C6.95193 11.8046 6.94393 11.7966 6.93593 11.7886L6.92393 11.7646L6.90793 11.7246C6.89993 11.7046 6.89193 11.6926 6.87993 11.6846C6.86867 11.6793 6.85638 11.6766 6.84393 11.6766C6.85593 11.6646 6.86393 11.6526 6.86793 11.6366C6.87109 11.6206 6.8697 11.604 6.86393 11.5886C6.84793 11.5526 6.82393 11.5326 6.78793 11.5326C6.77193 11.5326 6.74793 11.5326 6.72393 11.5406L6.57593 11.5966L6.69593 11.9047L6.73993 11.8887ZM7.12394 11.7286L6.93593 11.4486L7.14394 11.3166L7.16794 11.3526L6.99593 11.4606L7.05593 11.5406L7.21194 11.4446L7.23194 11.4766L7.07594 11.5766L7.13994 11.6686L7.31194 11.5566L7.33594 11.5886L7.12394 11.7246M7.29194 11.2406L7.34394 11.1806C7.36794 11.1526 7.39594 11.1406 7.42394 11.1446C7.45859 11.1489 7.4909 11.1643 7.51594 11.1886C7.53888 11.2089 7.55554 11.2352 7.56395 11.2646C7.57195 11.2846 7.56795 11.3046 7.56395 11.3206L7.53994 11.3486L7.48394 11.4086L7.29194 11.2406ZM7.57195 11.3686C7.61195 11.3286 7.62395 11.2806 7.59995 11.2286C7.58589 11.198 7.56543 11.1707 7.53994 11.1486C7.5102 11.1212 7.47224 11.1043 7.43194 11.1006C7.41076 11.0987 7.38942 11.1021 7.36986 11.1105C7.35031 11.1188 7.33315 11.132 7.31994 11.1486L7.22794 11.2446L7.48394 11.4686L7.57195 11.3686ZM7.76795 11.1126L7.47594 10.9406L7.49994 10.9006L7.79195 11.0726L7.76795 11.1126ZM7.88395 10.9126L7.56395 10.7886L7.65995 10.5646L7.69995 10.5806L7.61995 10.7646L7.71595 10.8006L7.78795 10.6326L7.82795 10.6486L7.75595 10.8166L7.85995 10.8566L7.93995 10.6726L7.97995 10.6886L7.88395 10.9126ZM8.02795 10.5246L7.69595 10.4526L7.70795 10.4006L8.01195 10.2966L7.74395 10.2406L7.75195 10.2006L8.08396 10.2686L8.07595 10.3206L7.76795 10.4246L8.03595 10.4846L8.02795 10.5246ZM7.99995 10.1046L8.00395 10.0646C8.02395 10.0646 8.04395 10.0646 8.05195 10.0526C8.07596 10.0406 8.09196 10.0166 8.09196 9.98061V9.93261C8.08396 9.90461 8.06796 9.89261 8.04395 9.88861C8.02395 9.88861 8.01195 9.88861 8.00395 9.90061C7.99595 9.91261 7.98395 9.92861 7.97995 9.95261L7.96395 9.99261L7.93595 10.0566C7.91995 10.0766 7.89595 10.0846 7.86795 10.0806C7.8538 10.0794 7.84006 10.0753 7.82764 10.0684C7.81523 10.0615 7.80442 10.052 7.79595 10.0406C7.77595 10.0206 7.77195 9.99261 7.77595 9.95261C7.77595 9.92061 7.78795 9.89261 7.80795 9.86861C7.82795 9.84861 7.85595 9.83661 7.89195 9.84061V9.88061C7.87195 9.88061 7.85595 9.88461 7.84795 9.89261C7.82795 9.90461 7.81595 9.92461 7.81595 9.96061C7.81195 9.98461 7.81595 10.0006 7.82395 10.0166C7.83595 10.0286 7.84795 10.0366 7.86395 10.0366C7.87995 10.0366 7.89195 10.0366 7.90395 10.0206L7.92795 9.96461L7.93995 9.92061C7.94795 9.89661 7.95595 9.88061 7.96795 9.86861C7.9774 9.85949 7.98877 9.8526 8.00123 9.84845C8.01369 9.8443 8.02692 9.84298 8.03995 9.84461C8.07996 9.84861 8.10396 9.86461 8.11996 9.89261C8.13196 9.92061 8.13596 9.95261 8.13196 9.98861C8.13232 10.0059 8.12894 10.0231 8.12203 10.039C8.11513 10.0549 8.10487 10.0691 8.09196 10.0806C8.07906 10.0907 8.06425 10.098 8.04843 10.1021C8.03261 10.1062 8.01611 10.1071 7.99995 10.1046ZM1.12782 10.0806L1.13582 10.1206C1.11982 10.1246 1.10382 10.1326 1.09582 10.1446C1.07182 10.1606 1.06782 10.1846 1.07182 10.2246L1.08782 10.2686C1.10382 10.2926 1.12382 10.3046 1.14782 10.3006C1.16382 10.2966 1.17582 10.2886 1.18382 10.2766L1.19182 10.2206V10.1726L1.20782 10.1086C1.21582 10.0886 1.23582 10.0726 1.26382 10.0686C1.27781 10.0661 1.29218 10.0665 1.30598 10.07C1.31978 10.0734 1.33268 10.0798 1.34382 10.0886C1.36782 10.1046 1.38382 10.1286 1.38382 10.1686C1.38863 10.1837 1.3904 10.1996 1.38903 10.2154C1.38766 10.2312 1.38317 10.2466 1.37582 10.2606C1.36382 10.2846 1.33982 10.3006 1.30382 10.3086L1.29582 10.2686C1.31182 10.2606 1.32382 10.2566 1.33582 10.2446C1.34782 10.2286 1.35182 10.2046 1.34782 10.1726C1.34382 10.1486 1.33582 10.1326 1.31982 10.1206C1.31435 10.116 1.30797 10.1125 1.30108 10.1104C1.2942 10.1084 1.28696 10.1077 1.27982 10.1086C1.2724 10.1098 1.26545 10.1131 1.25979 10.118C1.25413 10.123 1.24998 10.1294 1.24782 10.1366C1.24136 10.1559 1.23865 10.1763 1.23982 10.1966V10.2446C1.23917 10.2643 1.23367 10.2835 1.22382 10.3006C1.21765 10.3115 1.209 10.3208 1.19858 10.3278C1.18816 10.3347 1.17625 10.3391 1.16382 10.3406C1.12382 10.3486 1.09582 10.3406 1.07582 10.3166C1.05435 10.2917 1.04046 10.2612 1.03582 10.2286C1.02687 10.195 1.03117 10.1592 1.04782 10.1286C1.05672 10.1151 1.06852 10.1038 1.08237 10.0955C1.09621 10.0872 1.11174 10.0821 1.12782 10.0806ZM1.10782 10.5166L1.43183 10.4166L1.51183 10.6446L1.47183 10.6606L1.40782 10.4726L1.30782 10.5006L1.36382 10.6726L1.32382 10.6846L1.27182 10.5126L1.15982 10.5446L1.22382 10.7366L1.18382 10.7486L1.10782 10.5166ZM1.25182 10.9126L1.55183 10.7526L1.58383 10.8086L1.37582 11.0246L1.67583 10.9766L1.70783 11.0286L1.40782 11.1886L1.38782 11.1486L1.56383 11.0566L1.59583 11.0406L1.63983 11.0166L1.33982 11.0686L1.31982 11.0286L1.52383 10.8126L1.51183 10.8206L1.47983 10.8366C1.46969 10.8441 1.45899 10.8508 1.44783 10.8566L1.27182 10.9486L1.25182 10.9086M1.80783 11.3486C1.79183 11.3486 1.77983 11.3406 1.76383 11.3246L1.69983 11.2606L1.78383 11.1806L1.84783 11.2446L1.87183 11.2806C1.87983 11.3006 1.87183 11.3206 1.85583 11.3326C1.83983 11.3486 1.82383 11.3566 1.80783 11.3526M1.56783 11.3806L1.67183 11.2846L1.74383 11.3646C1.76459 11.3839 1.79151 11.3953 1.81983 11.3966C1.8457 11.3948 1.86995 11.3834 1.88783 11.3646C1.90783 11.3446 1.91983 11.3246 1.91983 11.2966C1.91983 11.2726 1.90783 11.2526 1.88783 11.2286L1.78383 11.1206L1.53583 11.3486L1.56783 11.3806ZM1.86783 11.6446L2.04384 11.3646L2.25584 11.4926L2.23584 11.5286L2.05984 11.4246L2.00784 11.5086L2.16784 11.6046L2.14384 11.6366L1.98384 11.5406L1.92383 11.6366L2.09984 11.7406L2.07984 11.7766L1.86383 11.6446M2.39584 11.5926L2.50385 11.6246L2.53585 11.6446C2.54785 11.6566 2.55185 11.6766 2.54385 11.6966C2.53985 11.7166 2.52785 11.7286 2.51185 11.7366L2.45985 11.7326L2.35984 11.7006L2.39584 11.5926ZM2.30384 11.8687L2.34384 11.7326L2.44784 11.7646L2.48785 11.7846C2.49585 11.7966 2.49985 11.8126 2.49185 11.8326L2.47985 11.8807L2.47185 11.9087V11.9167L2.52785 11.9367V11.9287L2.51985 11.9047C2.51985 11.9007 2.51985 11.8886 2.52785 11.8766L2.53985 11.8366C2.54385 11.8166 2.54785 11.8046 2.53985 11.7966C2.53633 11.7843 2.5294 11.7732 2.51985 11.7646C2.53585 11.7606 2.55185 11.7566 2.56385 11.7446C2.57585 11.7366 2.58385 11.7206 2.59185 11.7046C2.60385 11.6646 2.59585 11.6366 2.57185 11.6126C2.55585 11.6046 2.53985 11.5926 2.51185 11.5846L2.36384 11.5366L2.25984 11.8486L2.29984 11.8646" fill="#009FC5"/>
<path id="Vector_42" d="M2.76007 6.17781C2.80007 6.0818 3.15608 5.8298 4.3361 5.9378C4.3361 5.9378 4.53611 6.0618 4.65211 6.0458C4.71611 6.0378 4.61211 6.0498 4.52411 5.9778C4.4361 5.9058 4.4161 5.7578 4.62011 5.7618C4.82011 5.7658 5.58013 5.8098 5.59213 5.8778C5.60413 5.9458 5.19212 5.9738 5.04012 5.9698C4.88411 5.9698 4.90411 6.0458 5.05612 6.0378C5.53613 6.0218 6.05613 5.8538 6.61615 6.24581C6.68015 6.28981 6.44414 6.29781 6.26414 6.22181C6.26414 6.22181 5.77613 6.24981 5.56813 6.21381C5.56813 6.21381 5.40812 6.34581 5.19212 6.33381C5.22012 6.40181 5.11212 6.65382 4.4521 6.46581C4.3401 6.49781 3.94409 6.56581 3.98409 6.44581C3.88009 6.44581 3.69609 6.47781 3.66809 6.41781C3.64409 6.36181 3.9921 6.26981 4.0561 6.20581C4.0561 6.20581 3.31208 6.21381 3.17208 6.16581C3.17208 6.16581 2.73207 6.26181 2.76007 6.17781Z" fill="#BC715F"/>
<path id="Vector_43" d="M2.99972 7.2166C3.01172 7.1966 3.01972 7.15659 3.05172 7.15659C3.12772 7.1766 3.17573 7.3126 3.26773 7.2246C3.29973 7.2166 3.30773 7.2606 3.33573 7.2646C3.35573 7.3406 3.41573 7.2526 3.45573 7.2566C3.5607 7.21294 3.67636 7.2018 3.78774 7.2246C3.78774 7.2966 3.73174 7.3766 3.65974 7.4206C3.65974 7.4926 3.72774 7.5406 3.72774 7.6166C3.71574 7.6446 3.72774 7.68861 3.68774 7.69661C3.63173 7.68461 3.57973 7.68061 3.53573 7.6526C3.52773 7.6446 3.52373 7.6366 3.51573 7.6366C3.50773 7.6646 3.54773 7.68861 3.56373 7.71661C3.53573 7.75661 3.49173 7.71661 3.45573 7.71661C3.44373 7.74461 3.45573 7.77661 3.42773 7.79661C3.37973 7.79261 3.36773 7.74061 3.33973 7.71661C3.31173 7.74861 3.36373 7.76861 3.36773 7.79261C3.35173 7.88861 3.35173 7.98461 3.25573 8.04861L3.19173 8.08061C3.17573 8.02861 3.18373 7.95661 3.17173 7.90461C3.13172 7.96861 3.10372 8.02461 3.05172 8.07661C2.98372 8.05261 2.94372 7.97661 2.93172 7.91261C2.91725 7.87528 2.91408 7.83451 2.92262 7.79538C2.93115 7.75626 2.95101 7.72052 2.97972 7.69261C2.95972 7.6526 2.88772 7.6646 2.87972 7.6086C2.77572 7.5406 2.71972 7.72861 2.65172 7.6286C2.64106 7.58174 2.64166 7.53301 2.65348 7.48642C2.6653 7.43984 2.688 7.39672 2.71972 7.3606C2.70772 7.3206 2.65972 7.3326 2.63172 7.3126C2.56371 7.2566 2.47171 7.2006 2.47571 7.10059C2.56438 7.06796 2.66056 7.06155 2.75278 7.08212C2.84499 7.10269 2.92933 7.14937 2.99572 7.2166" fill="#008737"/>
<path id="Vector_44" d="M3.08805 7.2075C3.08805 7.2875 3.14405 7.2275 3.18805 7.2755C3.15205 7.2635 3.12805 7.3355 3.09605 7.2955L3.07205 7.3155C3.08405 7.3435 3.11205 7.3475 3.08405 7.3755C3.04805 7.3915 3.04405 7.3435 3.02405 7.3275C3.02405 7.3195 3.02805 7.3035 3.01605 7.2995C2.99605 7.3155 2.97605 7.3235 2.94405 7.3195C2.93605 7.3035 2.92005 7.2795 2.93605 7.2715C2.96405 7.2315 3.00805 7.2835 3.02805 7.2595C3.03205 7.2355 3.01205 7.2075 3.04005 7.1875C3.05605 7.1915 3.08005 7.1835 3.08805 7.2035M3.30805 7.2715C3.30805 7.2875 3.30005 7.3115 3.32005 7.3195C3.34805 7.3075 3.37605 7.3195 3.39205 7.3435C3.39205 7.3595 3.39605 7.3755 3.37605 7.3835L3.33605 7.3755C3.33605 7.3675 3.32405 7.3635 3.32005 7.3555C3.30005 7.3475 3.29205 7.3635 3.28005 7.3715C3.28805 7.3875 3.31205 7.3995 3.30405 7.4195C3.28005 7.44351 3.26805 7.3955 3.24005 7.4075C3.22405 7.3995 3.24805 7.3635 3.22005 7.3515C3.18405 7.3515 3.20805 7.4075 3.16405 7.3875C3.14805 7.3675 3.13205 7.3475 3.15205 7.3235C3.16224 7.31808 3.17386 7.31593 3.18532 7.31736C3.19677 7.3188 3.20751 7.32373 3.21605 7.3315C3.24405 7.3035 3.24405 7.1875 3.30805 7.2715ZM3.03605 7.3915C3.05205 7.4155 3.03205 7.45151 3.05205 7.47951C3.09205 7.4115 3.12405 7.49551 3.16805 7.48751C3.18005 7.50351 3.16805 7.52751 3.17205 7.54351C3.12005 7.55951 3.05605 7.57551 3.01205 7.53151L2.99605 7.54751C3.02405 7.57151 3.05205 7.60351 3.02805 7.64751C2.98805 7.65551 2.92805 7.65551 2.90804 7.61551C2.90004 7.57951 2.93205 7.55551 2.89604 7.53151C2.87204 7.56351 2.87204 7.60751 2.81604 7.57551C2.8083 7.5717 2.80141 7.56637 2.79578 7.55984C2.79015 7.5533 2.7859 7.54569 2.78329 7.53748C2.78067 7.52926 2.77974 7.52059 2.78056 7.512C2.78138 7.50342 2.78392 7.49508 2.78804 7.48751C2.82804 7.4315 2.88804 7.48751 2.92405 7.45951C2.93205 7.4115 2.91205 7.3715 2.95605 7.3435C2.99605 7.3395 3.01205 7.3675 3.03605 7.3915Z" fill="#FFFF00"/>
<path id="Vector_45" d="M3.18417 7.42009C3.16817 7.5001 3.10417 7.41609 3.07617 7.41209C3.11617 7.34409 3.14017 7.43609 3.18417 7.42009ZM3.37618 7.5081C3.33618 7.5201 3.33618 7.46809 3.31618 7.44809L3.33618 7.43209L3.37618 7.5081Z" fill="white"/>
<path id="Vector_46" d="M3.32036 7.49196C3.32836 7.51996 3.28836 7.54396 3.32436 7.56396L3.35237 7.53596C3.38437 7.54396 3.41637 7.55196 3.43637 7.57596C3.46037 7.63996 3.39637 7.63996 3.36437 7.65596H3.33236C3.34036 7.63596 3.31636 7.62796 3.30836 7.61596C3.30144 7.61423 3.29413 7.61487 3.28761 7.61776C3.28109 7.62066 3.27572 7.62566 3.27236 7.63196C3.28036 7.67196 3.32836 7.69996 3.27636 7.73196C3.23636 7.73196 3.17636 7.74796 3.18036 7.69196C3.16436 7.65996 3.22036 7.61196 3.16036 7.61196C3.14036 7.65196 3.12036 7.69196 3.06836 7.65196L3.07236 7.59196C3.12036 7.59196 3.18036 7.59996 3.20436 7.54396C3.21636 7.50396 3.18036 7.46796 3.21236 7.43596C3.26436 7.42396 3.29236 7.45996 3.31636 7.49196" fill="#FFFF00"/>
<path id="Vector_47" d="M3.27983 7.58562C3.29583 7.61762 3.25983 7.61762 3.23983 7.63362C3.21983 7.63362 3.20783 7.62562 3.19183 7.60962C3.18383 7.57362 3.21183 7.56961 3.23183 7.55761C3.25583 7.54561 3.26383 7.57362 3.27983 7.58562Z" fill="black"/>
<path id="Vector_48" d="M3.25163 7.59831C3.24763 7.61031 3.23963 7.60631 3.23163 7.61031L3.22363 7.57031C3.23963 7.57031 3.25963 7.57831 3.25163 7.60231" fill="white"/>
</g>
</g>
</g>
</g>
<defs>
<clipPath id="clip0_186_14823">
<rect width="18" height="18" fill="white"/>
</clipPath>
</defs>
</svg>
