<svg width="18" height="18" viewBox="0 0 18 18" fill="none" xmlns="http://www.w3.org/2000/svg">
<g id="sz" clip-path="url(#clip0_186_14880)">
<path id="Vector" d="M0 0H18V18H0V0Z" fill="#3E5EB9"/>
<path id="Vector_2" d="M0 3.375H18V14.625H0V3.375Z" fill="#FFD900"/>
<path id="Vector_3" d="M0 4.5H18V13.5H0V4.5Z" fill="#B10C0C"/>
<g id="Group">
<g id="sz-a">
<path id="Vector_4" d="M15.5953 7.41797L14.7529 7.7161L15.5919 8.01077L16.4343 7.7161L15.5953 7.41797Z" fill="white" stroke="black" stroke-width="0.98607"/>
<path id="Vector_5" d="M15.0376 7.61719H2.87309C2.81374 7.61719 2.76562 7.66142 2.76562 7.71599C2.76562 7.77055 2.81374 7.81479 2.87309 7.81479H15.0376C15.0969 7.81479 15.145 7.77055 15.145 7.71599C15.145 7.66142 15.0969 7.61719 15.0376 7.61719Z" fill="#FFD900" stroke="black" stroke-width="0.98607"/>
<g id="Vector_6">
<path d="M14.8499 7.81479C14.8758 7.81398 14.9004 7.8036 14.9189 7.78566C14.9375 7.76771 14.9488 7.7435 14.9505 7.71772C14.9496 7.69133 14.9387 7.66626 14.9201 7.64759C14.9014 7.62892 14.8763 7.61805 14.8499 7.61719M14.7529 7.81479C14.7781 7.81316 14.8018 7.8024 14.8197 7.78454C14.8376 7.76668 14.8483 7.74293 14.8499 7.71772C14.8491 7.6919 14.8388 7.6673 14.8208 7.64872C14.8029 7.63014 14.7787 7.6189 14.7529 7.61719M14.6523 7.81479C14.6782 7.81398 14.7028 7.8036 14.7213 7.78566C14.7399 7.76771 14.7512 7.7435 14.7529 7.71772C14.752 7.69133 14.7411 7.66626 14.7225 7.64759C14.7038 7.62892 14.6787 7.61805 14.6523 7.61719" fill="#FFD900"/>
<path d="M14.8499 7.81479C14.8758 7.81398 14.9004 7.8036 14.9189 7.78566C14.9375 7.76771 14.9488 7.7435 14.9505 7.71772C14.9496 7.69133 14.9387 7.66626 14.9201 7.64759C14.9014 7.62892 14.8763 7.61805 14.8499 7.61719M14.7529 7.81479C14.7781 7.81316 14.8018 7.8024 14.8197 7.78454C14.8376 7.76668 14.8483 7.74293 14.8499 7.71772C14.8491 7.6919 14.8388 7.6673 14.8208 7.64872C14.8029 7.63014 14.7787 7.6189 14.7529 7.61719M14.6523 7.81479C14.6782 7.81398 14.7028 7.8036 14.7213 7.78566C14.7399 7.76771 14.7512 7.7435 14.7529 7.71772C14.752 7.69133 14.7411 7.66626 14.7225 7.64759C14.7038 7.62892 14.6787 7.61805 14.6523 7.61719" stroke="black" stroke-width="0.98607"/>
</g>
</g>
<g id="sz-a_2">
<path id="Vector_7" d="M14.7877 8.01172L13.9453 8.30985L14.7842 8.60452L15.6266 8.30985L14.7877 8.01172Z" fill="white" stroke="black" stroke-width="0.98607"/>
<path id="Vector_8" d="M14.23 8.21094H2.06547C2.00612 8.21094 1.95801 8.25517 1.95801 8.30974C1.95801 8.3643 2.00612 8.40854 2.06547 8.40854H14.23C14.2893 8.40854 14.3374 8.3643 14.3374 8.30974C14.3374 8.25517 14.2893 8.21094 14.23 8.21094Z" fill="#FFD900" stroke="black" stroke-width="0.98607"/>
<g id="Vector_9">
<path d="M14.0423 8.40854C14.0681 8.40773 14.0927 8.39735 14.1113 8.37941C14.1299 8.36146 14.1411 8.33725 14.1429 8.31147C14.142 8.28508 14.1311 8.26001 14.1125 8.24134C14.0938 8.22267 14.0687 8.2118 14.0423 8.21094M13.9453 8.40854C13.9705 8.40691 13.9942 8.39615 14.0121 8.37829C14.0299 8.36043 14.0407 8.33668 14.0423 8.31147C14.0415 8.28565 14.0311 8.26105 14.0132 8.24247C13.9953 8.22389 13.971 8.21265 13.9453 8.21094M13.8447 8.40854C13.8705 8.40773 13.8951 8.39735 13.9137 8.37941C13.9323 8.36146 13.9435 8.33725 13.9453 8.31147C13.9444 8.28508 13.9335 8.26001 13.9149 8.24134C13.8962 8.22267 13.8711 8.2118 13.8447 8.21094" fill="#FFD900"/>
<path d="M14.0423 8.40854C14.0681 8.40773 14.0927 8.39735 14.1113 8.37941C14.1299 8.36146 14.1411 8.33725 14.1429 8.31147C14.142 8.28508 14.1311 8.26001 14.1125 8.24134C14.0938 8.22267 14.0687 8.2118 14.0423 8.21094M13.9453 8.40854C13.9705 8.40691 13.9942 8.39615 14.0121 8.37829C14.0299 8.36043 14.0407 8.33668 14.0423 8.31147C14.0415 8.28565 14.0311 8.26105 14.0132 8.24247C13.9953 8.22389 13.971 8.21265 13.9453 8.21094M13.8447 8.40854C13.8705 8.40773 13.8951 8.39735 13.9137 8.37941C13.9323 8.36146 13.9435 8.33725 13.9453 8.31147C13.9444 8.28508 13.9335 8.26001 13.9149 8.24134C13.8962 8.22267 13.8711 8.2118 13.8447 8.21094" stroke="black" stroke-width="0.98607"/>
</g>
</g>
<path id="Vector_10" d="M17.274 8.85156H0.727631C0.647218 8.85156 0.582031 8.9183 0.582031 9.00063C0.582031 9.08296 0.647218 9.14969 0.727631 9.14969H17.274C17.3544 9.14969 17.4196 9.08296 17.4196 9.00063C17.4196 8.9183 17.3544 8.85156 17.274 8.85156Z" fill="#FFD900" stroke="black" stroke-width="1.08468"/>
</g>
<path id="Vector_11" d="M13.8582 9.00195C12.8703 9.99336 11.5484 11.9727 8.9082 11.9727C6.59492 11.9727 4.94609 9.99336 3.95117 9.00195C4.94609 8.01055 6.59492 6.03125 8.9082 6.03125C11.5449 6.03125 12.8703 8.01055 13.8582 9.00195Z" fill="white" stroke="black"/>
<path id="Vector_12" d="M8.56055 7.06484C8.82422 7.36016 8.60625 7.47969 8.88398 7.50078C9.1793 7.52188 9.01055 7.81367 9.26016 7.82422C9.43242 7.83125 9.24258 8.52031 9.40781 8.74883C9.57656 8.98789 9.7207 8.81914 9.72422 8.99141C9.72422 9.16719 9.26016 9.14961 9.25313 9.69453C9.23906 10.0109 8.85938 10.032 8.8418 10.2359C8.8207 10.4258 9.58711 10.5348 9.58008 10.7035C9.56602 10.8758 8.75039 10.8477 8.71172 11.041C8.69414 11.2168 9.83672 11.3574 9.93164 11.8637C9.59581 11.9384 9.25262 11.9749 8.90859 11.9727C6.59531 11.9727 4.94648 9.99336 3.95508 9.00195C4.94648 8.01055 6.59531 6.03125 8.90859 6.03125C8.90859 6.03125 8.22305 6.65703 8.56055 7.06484Z" fill="black"/>
<g id="Group_2">
<g id="sz-d">
<g id="sz-c">
<g id="sz-b">
<path d="M5.92773 8.73527V7.94141ZM6.40613 7.94141V8.73527ZM6.88453 7.94141V8.73527Z" fill="black"/>
<path d="M5.92773 8.73527V7.94141M6.40613 7.94141V8.73527M6.88453 7.94141V8.73527" stroke="white" stroke-width="6.80388"/>
</g>
<g id="sz-b_2">
<path d="M5.92773 10.0556V9.26172ZM6.40613 9.26172V10.0556ZM6.88453 9.26172V10.0556Z" fill="black"/>
<path d="M5.92773 10.0556V9.26172M6.40613 9.26172V10.0556M6.88453 9.26172V10.0556" stroke="white" stroke-width="6.80388"/>
</g>
</g>
<g id="sz-c_2">
<g id="sz-b_3">
<path d="M7.37012 8.73527V7.94141ZM7.84852 7.94141V8.73527ZM8.32691 7.94141V8.73527Z" fill="black"/>
<path d="M7.37012 8.73527V7.94141M7.84852 7.94141V8.73527M8.32691 7.94141V8.73527" stroke="white" stroke-width="6.80388"/>
</g>
<g id="sz-b_4">
<path d="M7.37012 10.0556V9.26172ZM7.84852 9.26172V10.0556ZM8.32691 9.26172V10.0556Z" fill="black"/>
<path d="M7.37012 10.0556V9.26172M7.84852 9.26172V10.0556M8.32691 9.26172V10.0556" stroke="white" stroke-width="6.80388"/>
</g>
</g>
</g>
</g>
<g id="sz-d_2">
<g id="sz-c_3">
<g id="sz-b_5">
<path d="M9.56152 8.73527V7.94141ZM10.0399 7.94141V8.73527ZM10.5183 7.94141V8.73527Z" fill="black"/>
<path d="M9.56152 8.73527V7.94141M10.0399 7.94141V8.73527M10.5183 7.94141V8.73527" stroke="black" stroke-width="6.80388"/>
</g>
<g id="sz-b_6">
<path d="M9.56152 10.0556V9.26172ZM10.0399 9.26172V10.0556ZM10.5183 9.26172V10.0556Z" fill="black"/>
<path d="M9.56152 10.0556V9.26172M10.0399 9.26172V10.0556M10.5183 9.26172V10.0556" stroke="black" stroke-width="6.80388"/>
</g>
</g>
<g id="sz-c_4">
<g id="sz-b_7">
<path d="M11.0039 8.73527V7.94141ZM11.4823 7.94141V8.73527ZM11.9607 7.94141V8.73527Z" fill="black"/>
<path d="M11.0039 8.73527V7.94141M11.4823 7.94141V8.73527M11.9607 7.94141V8.73527" stroke="black" stroke-width="6.80388"/>
</g>
<g id="sz-b_8">
<path d="M11.0039 10.0556V9.26172ZM11.4823 9.26172V10.0556ZM11.9607 9.26172V10.0556Z" fill="black"/>
<path d="M11.0039 10.0556V9.26172M11.4823 9.26172V10.0556M11.9607 9.26172V10.0556" stroke="black" stroke-width="6.80388"/>
</g>
</g>
</g>
<g id="Group_3">
<path id="Vector_13" d="M16.2357 8.88281C16.0846 9.13945 16.3518 8.79492 16.9986 9.22734C17.0646 9.28177 17.1185 9.34919 17.1573 9.4254C17.196 9.50161 17.2186 9.58498 17.2236 9.67031C17.192 9.65273 17.1709 9.60703 17.1357 9.57891C17.09 9.62461 17.185 9.83906 17.1955 9.94102C17.0936 9.88477 17.1041 9.86016 17.0689 9.78984C17.076 9.87422 17.0514 10.1063 17.0936 10.1941C17.0127 10.1695 17.0197 10.1063 16.9775 10.0957C17.0057 10.1941 16.9529 10.3031 16.967 10.4191C16.9213 10.3734 16.8686 10.3348 16.8475 10.3137C16.8439 10.3734 16.7596 10.5141 16.7561 10.5633C16.7415 10.5537 16.729 10.5413 16.7194 10.5268C16.7097 10.5123 16.7031 10.496 16.6998 10.4789C16.6065 10.5881 16.5274 10.7085 16.4643 10.8375C16.3307 10.718 15.9861 10.4297 15.9404 10.275C15.9018 10.3629 15.842 10.391 15.7295 10.4543C15.6873 10.2117 15.5186 9.94102 15.6064 9.73008C15.5459 9.76817 15.4872 9.80924 15.4307 9.85312C15.4822 9.6403 15.5819 9.44214 15.7221 9.27392C15.8623 9.1057 16.0392 8.97189 16.2393 8.88281H16.2357Z" fill="#333333" stroke="black" stroke-width="0.9"/>
<path id="Vector_14" d="M15.6768 10.1679C15.74 10.0413 15.7963 10.0026 15.8385 9.92178C15.9088 9.78116 15.9193 9.66866 15.9791 9.68624C16.0424 9.70381 16.0424 9.76006 15.9615 9.89717C15.8842 10.0378 15.8455 10.0694 15.6768 10.1679ZM16.0986 10.4632C16.0916 10.3718 16.1197 10.3296 16.1127 10.2698C16.1057 10.1608 16.06 10.087 16.1197 10.08C16.1725 10.08 16.2006 10.1151 16.2006 10.2206C16.2006 10.3261 16.1865 10.3612 16.0951 10.4632H16.0986ZM16.4186 10.6495C16.3939 10.5159 16.4115 10.4597 16.3939 10.3718C16.3693 10.2241 16.3131 10.1257 16.3658 10.1081C16.4186 10.094 16.4502 10.1433 16.4713 10.298C16.4889 10.4491 16.4818 10.4913 16.4186 10.6495ZM16.7525 9.72491C16.6717 9.66163 16.626 9.65811 16.5768 9.61944C16.4889 9.54913 16.4432 9.48233 16.415 9.51749C16.3869 9.55264 16.408 9.59131 16.4994 9.6546C16.5908 9.71788 16.626 9.72139 16.7525 9.72491ZM16.6963 10.1608C16.6541 10.073 16.6119 10.0554 16.5838 9.99913C16.5381 9.90069 16.5381 9.81983 16.4854 9.83741C16.4361 9.86202 16.4291 9.90772 16.4854 9.99913C16.5416 10.094 16.5697 10.1081 16.6963 10.1608Z" fill="#B3B3B3"/>
<path id="Vector_15" d="M1.31152 9.13086C1.30098 9.05703 1.31855 9.04648 1.27285 8.99023C1.34316 9.01484 1.34316 9.0957 1.42402 9.03945C1.45566 9.02188 1.46621 9.02188 1.43105 8.9375C1.51543 8.94102 1.79668 9.03945 1.84238 9.04297C1.96191 9.04297 2.17637 8.91641 2.32754 9.07812C2.46816 9.21875 2.42246 9.37344 2.42246 9.57031C2.36621 9.5457 2.39082 9.53516 2.33105 9.46133C2.37676 9.63711 2.33105 9.95352 2.33105 10.1434C2.30645 10.0941 2.30996 10.1152 2.28535 10.073C2.22559 10.2383 2.15176 10.2734 2.15176 10.4773C2.12715 10.3965 2.15176 10.4141 2.12715 10.3719C2.06738 10.502 1.66309 10.6145 1.82129 10.741C1.68066 10.6602 1.6209 10.6707 1.55762 10.5969C1.52949 10.6145 1.5084 10.6496 1.48379 10.6918C1.2377 10.5793 1.32559 10.3402 1.13223 10.175C1.09707 10.2453 1.11816 10.2348 1.07949 10.3437C1.04434 10.1891 1.03027 10.0941 0.988086 9.98164C0.95293 10.0414 0.95293 10.0168 0.882617 10.1117C0.854492 9.92539 0.812305 9.87969 0.826367 9.76016C0.756055 9.80938 0.805273 9.78828 0.731445 9.85156C0.801758 9.37344 1.09707 9.01836 1.30801 9.13086H1.31152Z" fill="#333333" stroke="black" stroke-width="1.1"/>
<path id="Vector_16" d="M1.00879 9.91089C1.07207 9.7562 1.12832 9.7105 1.17051 9.61206C1.24082 9.43628 1.25137 9.29566 1.31113 9.31675C1.3709 9.33784 1.3709 9.40816 1.29004 9.58042C1.20918 9.7562 1.17402 9.79136 1.00879 9.91089ZM1.24785 10.2976C1.27246 10.157 1.31113 10.1113 1.32871 10.0199C1.36035 9.86519 1.34277 9.74917 1.39902 9.75269C1.45527 9.75972 1.46934 9.823 1.43066 9.97417C1.39199 10.1324 1.36738 10.1675 1.24434 10.2976H1.24785ZM1.5291 10.5683C1.53965 10.4347 1.57129 10.382 1.5748 10.2941C1.58535 10.1429 1.55371 10.0339 1.60996 10.0339C1.6627 10.0339 1.68027 10.0867 1.66621 10.2414C1.64863 10.3925 1.63105 10.4312 1.53262 10.5683H1.5291ZM2.14434 9.68941C2.02832 9.57339 1.95801 9.54878 1.88066 9.47847C1.75059 9.34488 1.68379 9.22183 1.63457 9.26753C1.58887 9.30972 1.61699 9.373 1.75762 9.49956C1.89824 9.62612 1.94746 9.6437 2.14434 9.68941ZM2.07402 10.1429C2.0002 10.0269 1.94043 9.99175 1.89121 9.91792C1.80332 9.78433 1.77871 9.67183 1.72598 9.69995C1.67676 9.72808 1.69082 9.78784 1.78223 9.91792C1.87715 10.0445 1.9123 10.0691 2.07402 10.1429Z" fill="#B3B3B3"/>
<path id="Vector_17" d="M7.30957 6.55469C7.16895 6.81836 7.54863 6.4668 8.13926 6.91328C8.28415 7.06738 8.37753 7.26273 8.40645 7.47227C8.28524 7.43328 8.16856 7.38142 8.0584 7.31758C8.0584 7.31758 8.32207 7.58125 8.32207 7.88359C8.22715 7.82734 8.18145 7.83437 8.14629 7.76406C8.14629 7.8625 8.23418 7.92227 8.23418 8.07344C8.17693 8.02822 8.11575 7.98822 8.05137 7.95391C8.13926 8.10508 7.89316 8.40039 8.01621 8.49531C7.91191 8.48118 7.81161 8.44581 7.72151 8.39139C7.63141 8.33697 7.55343 8.26465 7.49238 8.17891C7.44668 8.20703 7.44316 8.25625 7.43965 8.30898C7.44668 8.31602 7.1127 8.06289 7.14434 7.96445C7.10596 8.01262 7.08381 8.07168 7.08105 8.1332C6.95389 8.02722 6.8579 7.8887 6.80332 7.73242L6.69082 7.87305C6.65215 7.62695 6.65215 7.63398 6.73301 7.42305C6.67704 7.46129 6.62307 7.50236 6.57129 7.54609C6.61312 7.33643 6.70107 7.1387 6.82876 6.96723C6.95645 6.79576 7.12069 6.65484 7.30957 6.55469Z" fill="#333333" stroke="black" stroke-width="0.8"/>
<path id="Vector_18" d="M6.96777 7.84726C6.99238 7.66445 7.03809 7.60117 7.05215 7.47812C7.08027 7.27421 7.04863 7.11953 7.12246 7.12656C7.19277 7.13007 7.21387 7.20742 7.17871 7.41132C7.14355 7.62226 7.1084 7.66796 6.96777 7.85078V7.84726ZM7.35449 8.18476C7.33691 8.03007 7.36504 7.96328 7.35449 7.86484C7.34043 7.68906 7.28418 7.57304 7.34746 7.56249C7.41426 7.55195 7.4459 7.6082 7.45293 7.78749C7.45996 7.96328 7.44238 8.00898 7.35098 8.18476H7.35449ZM7.95215 8.45898C7.88535 8.32539 7.8291 8.2832 7.78691 8.19882C7.7166 8.04765 7.69551 7.9246 7.63926 7.9457C7.58301 7.97031 7.58652 8.03359 7.66738 8.18124C7.75176 8.3289 7.78691 8.35703 7.94863 8.45898H7.95215ZM8.15957 7.26367C7.99082 7.17578 7.90645 7.17226 7.80098 7.11953C7.61113 7.01757 7.50215 6.90859 7.46348 6.97187C7.42832 7.03164 7.47754 7.0914 7.6709 7.18281C7.86426 7.2707 7.92402 7.27421 8.15605 7.26015L8.15957 7.26367ZM8.21934 7.75937C8.09629 7.66093 8.02598 7.64687 7.94863 7.58359C7.80801 7.46757 7.74121 7.35859 7.69902 7.40429C7.65332 7.44999 7.68145 7.50976 7.82559 7.61523C7.96621 7.7207 8.01895 7.73476 8.21934 7.75937Z" fill="#B3B3B3"/>
</g>
</g>
<defs>
<clipPath id="clip0_186_14880">
<rect width="18" height="18" fill="white"/>
</clipPath>
</defs>
</svg>
