<svg width="26" height="26" viewBox="0 0 26 26" fill="none" xmlns="http://www.w3.org/2000/svg">
<g id="tc" clip-path="url(#clip0_186_14918)" filter="url(#filter0_d_186_14918)">
<path id="Vector" d="M22 18V0H4V18H22Z" fill="#002868"/>
<g id="Group">
<path id="Vector_2" d="M21.2617 6.73438V9.89844C21.2617 12.0078 20.207 14.2789 17.5703 15.5094C14.9336 14.2789 13.8789 12.0078 13.8789 9.89844V6.73438H21.2617Z" fill="#FCD116" stroke="black" stroke-width="8"/>
<path id="Vector_3" d="M21.2617 6.73438V9.89844C21.2617 12.0078 20.207 14.2789 17.5703 15.5094C14.9336 14.2789 13.8789 12.0078 13.8789 9.89844V6.73438H21.2617Z" stroke="white" stroke-width="7"/>
<g id="Group_2">
<g id="Vector_4">
<path d="M16.2377 10.2182C16.1428 10.38 15.9775 10.4151 15.851 10.3624C15.7209 10.3132 15.6014 10.0038 15.4678 9.83504C15.3412 9.67332 15.3061 9.74363 15.2217 9.64871C15.0987 9.53617 14.9556 9.4479 14.7998 9.38856C14.6838 9.33582 14.5643 9.2866 14.4834 9.08621C14.519 9.00518 14.5845 8.94098 14.6662 8.90692C14.733 8.88231 14.7857 8.78738 14.7928 8.70301C14.8033 8.62215 14.8736 8.53426 14.9686 8.47098C14.9229 8.47801 14.8314 8.46043 14.7893 8.42879C14.7506 8.39363 14.6838 8.40418 14.6451 8.43582C14.6029 8.46043 14.5537 8.47098 14.4834 8.46043C14.5115 8.43934 14.5607 8.39012 14.5643 8.34793C14.5678 8.30574 14.6205 8.28113 14.7225 8.28113C14.8209 8.28113 14.8842 8.16512 14.965 8.16512C14.9088 8.16512 14.9193 8.0702 14.951 8.06668C14.8104 8.03856 14.8279 7.92606 14.8842 7.92606C14.8807 7.90848 14.8631 7.8909 14.7963 7.86629C14.7365 7.8452 14.7646 7.78895 14.8139 7.75379C14.7717 7.6659 14.8104 7.5991 14.8807 7.54285C14.7822 7.53934 14.8912 7.40223 14.9158 7.3284C14.9439 7.25809 14.9545 7.24754 14.9861 7.29324C15.0213 7.33192 15.1021 7.42332 15.1936 7.45145C15.2814 7.47606 15.3342 7.52528 15.3518 7.5991C15.3693 7.67996 15.4045 7.71863 15.4994 7.75379C15.6014 7.78543 15.7385 7.86981 15.7209 8.05614C15.7873 8.05864 15.8513 8.08201 15.9037 8.12293" fill="#FCAD56"/>
<path d="M16.2377 10.2182C16.1428 10.38 15.9775 10.4151 15.851 10.3624C15.7209 10.3132 15.6014 10.0038 15.4678 9.83504C15.3412 9.67332 15.3061 9.74363 15.2217 9.64871C15.0987 9.53617 14.9556 9.4479 14.7998 9.38856C14.6838 9.33582 14.5643 9.2866 14.4834 9.08621C14.519 9.00518 14.5845 8.94098 14.6662 8.90692C14.733 8.88231 14.7857 8.78738 14.7928 8.70301C14.8033 8.62215 14.8736 8.53426 14.9686 8.47098C14.9229 8.47801 14.8314 8.46043 14.7893 8.42879C14.7506 8.39363 14.6838 8.40418 14.6451 8.43582C14.6029 8.46043 14.5537 8.47098 14.4834 8.46043C14.5115 8.43934 14.5607 8.39012 14.5643 8.34793C14.5678 8.30574 14.6205 8.28113 14.7225 8.28113C14.8209 8.28113 14.8842 8.16512 14.965 8.16512C14.9088 8.16512 14.9193 8.0702 14.951 8.06668C14.8104 8.03856 14.8279 7.92606 14.8842 7.92606C14.8807 7.90848 14.8631 7.8909 14.7963 7.86629C14.7365 7.8452 14.7646 7.78895 14.8139 7.75379C14.7717 7.6659 14.8104 7.5991 14.8807 7.54285C14.7822 7.53934 14.8912 7.40223 14.9158 7.3284C14.9439 7.25809 14.9545 7.24754 14.9861 7.29324C15.0213 7.33192 15.1021 7.42332 15.1936 7.45145C15.2814 7.47606 15.3342 7.52528 15.3518 7.5991C15.3693 7.67996 15.4045 7.71863 15.4994 7.75379C15.6014 7.78543 15.7385 7.86981 15.7209 8.05614C15.7873 8.05864 15.8513 8.08201 15.9037 8.12293" stroke="black" stroke-width="0.3" stroke-linecap="round" stroke-linejoin="round"/>
</g>
<path id="Vector_5" d="M16.4805 7.83789C16.4807 7.88067 16.4906 7.92285 16.5094 7.96123C16.5283 7.99961 16.5557 8.03318 16.5895 8.05938C16.6563 8.11563 16.7126 8.15781 16.6985 8.22461C16.688 8.29492 16.7126 8.33711 16.7688 8.38281C16.8321 8.425 16.8743 8.47773 16.8602 8.56563C16.8462 8.65352 16.8532 8.70625 16.8884 8.77305C16.9235 8.83984 16.9868 8.89258 16.9587 8.99805C16.9305 9.10352 16.9446 9.24414 16.9798 9.31445C17.0149 9.38125 16.9798 9.43398 16.92 9.55C16.8567 9.66602 16.8216 9.7082 16.695 9.75391C16.5649 9.79258 16.5544 9.87344 16.5544 10.007C16.5544 10.1477 16.463 10.218 16.2907 10.1934C16.1149 10.3375 16.0059 10.1652 15.9602 9.95078C15.9145 9.73633 15.911 9.50078 15.6509 9.31445C15.3942 9.12109 15.4962 8.79414 15.7106 8.66406C15.9251 8.53398 15.9005 8.15781 15.8723 7.92578C15.8513 7.69023 16.0059 7.56016 16.1255 7.43359C16.2837 7.49336 16.4805 7.73594 16.4805 7.83789Z" fill="#FFA1A1" stroke="black" stroke-width="0.3" stroke-linecap="round" stroke-linejoin="round"/>
<path id="Vector_6" d="M16.1077 9.33521C16.0585 9.2192 16.0058 9.1067 16.1323 8.8606C16.2659 8.61099 16.1816 8.42115 16.1429 8.29459C16.1042 8.17154 16.0937 8.05552 16.1429 8.00279C16.1956 7.95709 16.2167 7.92545 16.2202 7.84107C16.2238 7.76021 16.2905 7.78834 16.3011 7.82701C16.3116 7.86568 16.3187 7.93248 16.2484 8.05201C16.178 8.17505 16.4452 8.47388 16.3222 8.79381C16.2378 9.01881 16.3503 9.30357 16.3925 9.50396C16.4347 9.70435 16.4628 10.1719 16.171 10.2422C16.3714 10.1473 16.1851 9.51802 16.1077 9.33521Z" fill="#F1B2DC" stroke="black" stroke-width="0.3" stroke-linecap="round" stroke-linejoin="round"/>
<path id="Vector_7" d="M14.8037 9.30117C14.8494 9.31172 14.874 9.28359 14.8881 9.25195C14.9021 9.22031 14.9127 9.20273 14.9584 9.19922C15.0006 9.19922 15.0709 9.18516 15.0885 9.15C15.1025 9.11484 15.1553 9.15 15.201 9.05859C15.2467 8.96719 15.2748 8.86172 15.3943 8.82305M15.7213 8.05664C15.6756 8.05664 15.549 8.06367 15.4963 8.17617M15.1307 7.51172C15.2361 7.54336 15.1939 7.61367 15.2467 7.65234C15.3416 7.72969 15.2537 7.80703 15.3346 7.82812C15.4154 7.84922 15.4084 7.86328 15.3908 7.95117C15.3627 8.05313 15.4611 8.05664 15.426 8.12344M14.9689 8.47148C15.0322 8.41172 15.1834 8.36953 15.2186 8.30625M14.9654 8.16562C15.0568 8.16562 15.1799 8.20078 15.1975 8.16562M14.9514 8.06719C14.9971 8.06719 15.0885 8.03555 15.1061 7.97227M14.8846 7.92656C14.9507 7.92889 15.0158 7.91045 15.0709 7.87383M14.8143 7.7543C14.8529 7.72266 14.9232 7.75781 14.99 7.71562M14.8811 7.54336C14.9127 7.54336 14.9795 7.53281 14.9795 7.575" stroke="black" stroke-width="0.3" stroke-linecap="round" stroke-linejoin="round"/>
<g id="Group_3">
<g id="tc-b">
<path id="Vector_8" d="M19.0859 8.34814C19.0859 8.34814 18.7783 8.08887 18.5234 7.91309C18.2686 7.7373 17.9609 7.52197 17.9609 7.47803C18.0093 7.44287 18.2686 7.60986 18.6245 7.8252C18.9849 8.04492 19.187 8.26025 19.187 8.26025L19.0859 8.34814ZM19.064 8.52393C19.064 8.52393 18.7651 8.34375 18.4707 8.21631C18.1631 8.08887 17.7017 8.08887 17.6533 8.04492C17.6533 8.00098 18.1895 7.97461 18.5718 8.12842C18.9629 8.30859 19.165 8.43604 19.165 8.43604L19.064 8.52393ZM19.0596 8.82275C19.0596 8.82275 18.7344 8.67334 18.418 8.60303C18.1104 8.53271 17.6709 8.55908 17.6182 8.51953C17.6182 8.47559 18.1631 8.3877 18.5718 8.51953C18.9849 8.64697 19.1606 8.73486 19.1606 8.73486L19.0596 8.82275ZM19.042 9.12598C19.042 9.12598 18.7959 8.95898 18.4707 8.92383C18.1631 8.89307 17.7544 9.12598 17.7017 9.08203C17.7017 9.03809 18.0576 8.77881 18.5015 8.82275C18.9365 8.8667 19.1431 9.03809 19.1431 9.03809L19.042 9.12598ZM19.1431 8.16797C19.1431 8.16797 18.8311 7.88232 18.8311 7.68896C18.8311 7.51758 19.02 7.25391 19.1035 7.25391C19.0596 7.3418 18.9146 7.51758 18.9146 7.68896C18.9146 7.86475 19.2441 8.08008 19.2441 8.08008L19.1431 8.16797Z" fill="#9E540A" stroke="black" stroke-width="0.275" stroke-linecap="round" stroke-linejoin="round"/>
<path id="Vector_9" d="M19.1428 8.1665C19.1428 8.1665 19.2043 7.88086 19.2043 7.6875C19.2043 7.42822 19.0197 7.19092 19.0373 7.125C19.1032 7.19092 19.2878 7.38428 19.2878 7.6875C19.2878 7.95117 19.2439 8.07861 19.2439 8.07861L19.1428 8.1665Z" fill="#9E540A" stroke="black" stroke-width="0.275" stroke-linecap="round" stroke-linejoin="round"/>
<g id="Group_4">
<path id="tc-a" d="M19.2178 8.07373C19.2178 7.99023 19.187 7.91553 19.1343 7.8584C19.064 7.7749 18.9585 7.74854 18.8486 7.76611C18.7168 7.78809 18.6113 7.86719 18.5454 7.99023C18.4575 8.15283 18.4487 8.32861 18.4443 8.5C18.4443 9.09326 18.4663 9.33496 18.4839 9.91943C18.4883 10.0908 18.519 10.4424 18.4399 10.7192C18.4092 10.8379 18.374 10.9478 18.3213 11.062C18.3564 10.917 18.374 10.8423 18.3916 10.7324C18.4399 10.4468 18.4268 10.1787 18.418 9.91504C18.4004 9.37451 18.3696 9.09766 18.3521 8.44287C18.3477 8.24512 18.3652 8.0957 18.4575 7.9375C18.5542 7.7749 18.7212 7.65625 18.9102 7.65625C18.9893 7.65625 19.0552 7.66943 19.1211 7.70898C19.2529 7.7793 19.3145 7.92432 19.3145 8.06934L19.2178 8.07373Z" fill="#9E540A" stroke="#FCD116" stroke-width="1.5" stroke-linecap="round" stroke-linejoin="round"/>
<path id="tc-a_2" d="M19.2178 8.07373C19.2178 7.99023 19.187 7.91553 19.1343 7.8584C19.064 7.7749 18.9585 7.74854 18.8486 7.76611C18.7168 7.78809 18.6113 7.86719 18.5454 7.99023C18.4575 8.15283 18.4487 8.32861 18.4443 8.5C18.4443 9.09326 18.4663 9.33496 18.4839 9.91943C18.4883 10.0908 18.519 10.4424 18.4399 10.7192C18.4092 10.8379 18.374 10.9478 18.3213 11.062C18.3564 10.917 18.374 10.8423 18.3916 10.7324C18.4399 10.4468 18.4268 10.1787 18.418 9.91504C18.4004 9.37451 18.3696 9.09766 18.3521 8.44287C18.3477 8.24512 18.3652 8.0957 18.4575 7.9375C18.5542 7.7749 18.7212 7.65625 18.9102 7.65625C18.9893 7.65625 19.0552 7.66943 19.1211 7.70898C19.2529 7.7793 19.3145 7.92432 19.3145 8.06934L19.2178 8.07373Z" fill="#9E540A"/>
</g>
<path id="Vector_10" d="M19.244 10.1943C19.244 10.1943 19.121 10.4141 19.0287 10.5723C18.9364 10.7305 18.8617 10.7656 18.7914 10.7173C18.7255 10.6689 18.7826 10.5415 18.8353 10.48C18.8881 10.4185 19.1825 10.1328 19.1825 10.1328L19.244 10.1943Z" fill="#9E540A" stroke="black" stroke-width="0.275" stroke-linecap="round" stroke-linejoin="round"/>
<path id="Vector_11" d="M19.2745 10.2114C19.2745 10.2114 19.2262 10.4619 19.1866 10.6421C19.1515 10.8223 19.09 10.8838 19.0153 10.8618C18.9362 10.8442 18.9493 10.6992 18.9801 10.6245C19.0109 10.5498 19.1954 10.1719 19.1954 10.1719L19.2745 10.2114Z" fill="#9E540A" stroke="black" stroke-width="0.275" stroke-linecap="round" stroke-linejoin="round"/>
<path id="Vector_12" d="M19.328 10.2173V10.6567C19.328 10.8413 19.2841 10.916 19.2006 10.9116C19.1215 10.9072 19.1039 10.7666 19.1215 10.6831C19.1346 10.604 19.2445 10.1953 19.2445 10.1953L19.328 10.2173Z" fill="#9E540A" stroke="black" stroke-width="0.275" stroke-linecap="round" stroke-linejoin="round"/>
</g>
<g id="tc-b_2">
<path id="Vector_13" d="M19.5693 8.34814C19.5693 8.34814 19.877 8.08887 20.1318 7.91309C20.3867 7.7373 20.6943 7.52197 20.6943 7.47803C20.646 7.44287 20.3867 7.60986 20.0308 7.8252C19.6704 8.04492 19.4683 8.26025 19.4683 8.26025L19.5693 8.34814ZM19.5913 8.52393C19.5913 8.52393 19.8901 8.34375 20.1846 8.21631C20.4922 8.08887 20.9536 8.08887 21.002 8.04492C21.002 8.00098 20.4658 7.97461 20.0835 8.12842C19.6924 8.30859 19.4902 8.43604 19.4902 8.43604L19.5913 8.52393ZM19.5957 8.82275C19.5957 8.82275 19.9209 8.67334 20.2373 8.60303C20.5449 8.53271 20.9844 8.55908 21.0371 8.51953C21.0371 8.47559 20.4922 8.3877 20.0835 8.51953C19.6704 8.64697 19.4946 8.73486 19.4946 8.73486L19.5957 8.82275ZM19.6133 9.12598C19.6133 9.12598 19.8594 8.95898 20.1846 8.92383C20.4922 8.89307 20.9009 9.12598 20.9536 9.08203C20.9536 9.03809 20.5977 8.77881 20.1538 8.82275C19.7188 8.8667 19.5122 9.03809 19.5122 9.03809L19.6133 9.12598ZM19.5122 8.16797C19.5122 8.16797 19.8242 7.88232 19.8242 7.68896C19.8242 7.51758 19.6353 7.25391 19.5518 7.25391C19.5957 7.3418 19.7407 7.51758 19.7407 7.68896C19.7407 7.86475 19.4111 8.08008 19.4111 8.08008L19.5122 8.16797Z" fill="#9E540A" stroke="black" stroke-width="0.275" stroke-linecap="round" stroke-linejoin="round"/>
<path id="Vector_14" d="M19.5125 8.1665C19.5125 8.1665 19.451 7.88086 19.451 7.6875C19.451 7.42822 19.6355 7.19092 19.618 7.125C19.552 7.19092 19.3675 7.38428 19.3675 7.6875C19.3675 7.95117 19.4114 8.07861 19.4114 8.07861L19.5125 8.1665Z" fill="#9E540A" stroke="black" stroke-width="0.275" stroke-linecap="round" stroke-linejoin="round"/>
<g id="Group_5">
<path id="tc-a_3" d="M19.4375 8.07373C19.4375 7.99023 19.4683 7.91553 19.521 7.8584C19.5913 7.7749 19.6968 7.74854 19.8066 7.76611C19.9385 7.78809 20.0439 7.86719 20.1099 7.99023C20.1978 8.15283 20.2065 8.32861 20.2109 8.5C20.2109 9.09326 20.189 9.33496 20.1714 9.91943C20.167 10.0908 20.1362 10.4424 20.2153 10.7192C20.2461 10.8379 20.2812 10.9478 20.334 11.062C20.2988 10.917 20.2812 10.8423 20.2637 10.7324C20.2153 10.4468 20.2285 10.1787 20.2373 9.91504C20.2549 9.37451 20.2856 9.09766 20.3032 8.44287C20.3076 8.24512 20.29 8.0957 20.1978 7.9375C20.1011 7.7749 19.9341 7.65625 19.7451 7.65625C19.666 7.65625 19.6001 7.66943 19.5342 7.70898C19.4023 7.7793 19.3408 7.92432 19.3408 8.06934L19.4375 8.07373Z" fill="#9E540A" stroke="#FCD116" stroke-width="1.5" stroke-linecap="round" stroke-linejoin="round"/>
<path id="tc-a_4" d="M19.4375 8.07373C19.4375 7.99023 19.4683 7.91553 19.521 7.8584C19.5913 7.7749 19.6968 7.74854 19.8066 7.76611C19.9385 7.78809 20.0439 7.86719 20.1099 7.99023C20.1978 8.15283 20.2065 8.32861 20.2109 8.5C20.2109 9.09326 20.189 9.33496 20.1714 9.91943C20.167 10.0908 20.1362 10.4424 20.2153 10.7192C20.2461 10.8379 20.2812 10.9478 20.334 11.062C20.2988 10.917 20.2812 10.8423 20.2637 10.7324C20.2153 10.4468 20.2285 10.1787 20.2373 9.91504C20.2549 9.37451 20.2856 9.09766 20.3032 8.44287C20.3076 8.24512 20.29 8.0957 20.1978 7.9375C20.1011 7.7749 19.9341 7.65625 19.7451 7.65625C19.666 7.65625 19.6001 7.66943 19.5342 7.70898C19.4023 7.7793 19.3408 7.92432 19.3408 8.06934L19.4375 8.07373Z" fill="#9E540A"/>
</g>
<path id="Vector_15" d="M19.4113 10.1943C19.4113 10.1943 19.5343 10.4141 19.6266 10.5723C19.7189 10.7305 19.7936 10.7656 19.8639 10.7173C19.9298 10.6689 19.8727 10.5415 19.82 10.48C19.7672 10.4185 19.4728 10.1328 19.4728 10.1328L19.4113 10.1943Z" fill="#9E540A" stroke="black" stroke-width="0.275" stroke-linecap="round" stroke-linejoin="round"/>
<path id="Vector_16" d="M19.3807 10.2114C19.3807 10.2114 19.4291 10.4619 19.4686 10.6421C19.5038 10.8223 19.5653 10.8838 19.64 10.8618C19.7191 10.8442 19.7059 10.6992 19.6752 10.6245C19.6444 10.5498 19.4598 10.1719 19.4598 10.1719L19.3807 10.2114Z" fill="#9E540A" stroke="black" stroke-width="0.275" stroke-linecap="round" stroke-linejoin="round"/>
<path id="Vector_17" d="M19.3273 10.2173V10.6567C19.3273 10.8413 19.3712 10.916 19.4547 10.9116C19.5338 10.9072 19.5514 10.7666 19.5338 10.6831C19.5206 10.604 19.4108 10.1953 19.4108 10.1953L19.3273 10.2173Z" fill="#9E540A" stroke="black" stroke-width="0.275" stroke-linecap="round" stroke-linejoin="round"/>
</g>
<g id="tc-c">
<path id="Vector_18" d="M19.3276 10.2124C19.0947 10.208 19.0728 10.1245 19.0728 10.1245C19.0728 10.1245 19.042 10.019 19.0376 9.95312C19.0332 9.94434 18.9717 9.8125 18.9893 9.75537C18.9673 9.70264 18.9146 9.5752 18.9629 9.55322C18.9409 9.4917 18.9058 9.42139 18.9014 9.35547C18.8838 9.30713 18.8398 9.20166 18.875 9.1665C18.875 9.1665 18.7915 8.99072 18.8311 8.94678C18.8311 8.94678 18.7915 8.77539 18.8311 8.73145C18.8311 8.73145 18.8311 8.55566 18.875 8.51172C18.875 8.51172 18.875 8.34033 18.9146 8.29639C18.9146 8.30518 19.0376 8.05469 19.3276 8.05469L19.3232 8.42822H19.3276V10.2124Z" fill="#9E540A" stroke="black" stroke-width="0.275" stroke-linecap="round" stroke-linejoin="round"/>
<path id="Vector_19" d="M19.3276 9.25439C18.9541 9.25 18.875 9.1665 18.875 9.1665M19.3276 9.03467C18.9541 9.03467 18.8311 8.94678 18.8311 8.94678M19.3276 8.81934C18.9541 8.81494 18.8311 8.73145 18.8311 8.73145M19.3276 8.59961C18.9541 8.59521 18.875 8.51172 18.875 8.51172M19.3232 8.42822C19.3276 8.42822 19.042 8.42822 18.998 8.38428L18.9146 8.30078M19.3276 10.0366C19.2178 10.0366 19.0947 10.019 19.0376 9.95312M19.3276 9.86084C19.1211 9.86084 18.998 9.77734 18.998 9.77734C18.998 9.77734 18.9937 9.76855 18.9893 9.75537M19.3276 9.64551C19.0552 9.64111 18.9805 9.58398 18.9629 9.55322M19.3276 9.46973C18.9541 9.46973 18.9146 9.38184 18.9146 9.38184L18.9014 9.35547" stroke="black" stroke-width="0.275" stroke-linecap="round" stroke-linejoin="round"/>
</g>
<g id="tc-c_2">
<path id="Vector_20" d="M19.3276 10.2124C19.5605 10.208 19.5825 10.1245 19.5825 10.1245C19.5825 10.1245 19.6133 10.019 19.6177 9.95312C19.6221 9.94434 19.6836 9.8125 19.666 9.75537C19.688 9.70264 19.7407 9.5752 19.6924 9.55322C19.7144 9.4917 19.7495 9.42139 19.7539 9.35547C19.7715 9.30713 19.8154 9.20166 19.7803 9.1665C19.7803 9.1665 19.8638 8.99072 19.8242 8.94678C19.8242 8.94678 19.8638 8.77539 19.8242 8.73145C19.8242 8.73145 19.8242 8.55566 19.7803 8.51172C19.7803 8.51172 19.7803 8.34033 19.7407 8.29639C19.7407 8.30518 19.6177 8.05469 19.3276 8.05469L19.332 8.42822H19.3276V10.2124Z" fill="#9E540A" stroke="black" stroke-width="0.275" stroke-linecap="round" stroke-linejoin="round"/>
<path id="Vector_21" d="M19.3276 9.25439C19.7012 9.25 19.7803 9.1665 19.7803 9.1665M19.3276 9.03467C19.7012 9.03467 19.8242 8.94678 19.8242 8.94678M19.3276 8.81934C19.7012 8.81494 19.8242 8.73145 19.8242 8.73145M19.3276 8.59961C19.7012 8.59521 19.7803 8.51172 19.7803 8.51172M19.332 8.42822C19.3276 8.42822 19.6133 8.42822 19.6572 8.38428L19.7407 8.30078M19.3276 10.0366C19.4375 10.0366 19.5605 10.019 19.6177 9.95312M19.3276 9.86084C19.5342 9.86084 19.6572 9.77734 19.6572 9.77734C19.6572 9.77734 19.6616 9.76855 19.666 9.75537M19.3276 9.64551C19.6001 9.64111 19.6748 9.58398 19.6924 9.55322M19.3276 9.46973C19.7012 9.46973 19.7407 9.38184 19.7407 9.38184L19.7539 9.35547" stroke="black" stroke-width="0.275" stroke-linecap="round" stroke-linejoin="round"/>
</g>
</g>
<g id="Group_6">
<g id="tc-d">
<g id="Vector_22">
<path d="M17.5698 14.2559C17.3808 14.4316 17.0161 14.3174 16.9018 14.2383C16.7832 14.2778 16.4668 14.1548 16.3833 14.0186C16.1548 14.0493 16.0757 13.7241 16.1152 13.6406C16.1767 13.5176 16.0669 13.4385 16.146 13.355C16.2558 13.2495 16.0845 13.1484 16.1899 13.0781C16.2954 13.0034 16.1636 12.8804 16.269 12.8013C16.3789 12.7178 16.2119 12.6035 16.3262 12.5464C16.4404 12.4893 16.313 12.3398 16.4097 12.2827C16.5063 12.2256 16.3525 12.0806 16.4844 12.0146C16.6118 11.9487 16.4975 11.8345 16.5986 11.7861C16.7085 11.729 16.6074 11.6104 16.7085 11.5708C16.8227 11.5225 16.7392 11.395 16.8359 11.3599C16.9194 11.3291 16.8667 11.25 16.9194 11.1797H17.5698" fill="#009E49"/>
<path d="M17.5698 14.2559C17.3808 14.4316 17.0161 14.3174 16.9018 14.2383C16.7832 14.2778 16.4668 14.1548 16.3833 14.0186C16.1548 14.0493 16.0757 13.7241 16.1152 13.6406C16.1767 13.5176 16.0669 13.4385 16.146 13.355C16.2558 13.2495 16.0845 13.1484 16.1899 13.0781C16.2954 13.0034 16.1636 12.8804 16.269 12.8013C16.3789 12.7178 16.2119 12.6035 16.3262 12.5464C16.4404 12.4893 16.313 12.3398 16.4097 12.2827C16.5063 12.2256 16.3525 12.0806 16.4844 12.0146C16.6118 11.9487 16.4975 11.8345 16.5986 11.7861C16.7085 11.729 16.6074 11.6104 16.7085 11.5708C16.8227 11.5225 16.7392 11.395 16.8359 11.3599C16.9194 11.3291 16.8667 11.25 16.9194 11.1797H17.5698" stroke="black" stroke-width="0.275" stroke-linecap="round" stroke-linejoin="round"/>
</g>
<path id="Vector_23" d="M17.1346 11.207C17.0467 11.2949 17.1522 11.3608 17.0643 11.4663C16.972 11.5762 17.0555 11.6333 16.9808 11.73C16.9061 11.8267 17.016 11.875 16.9325 11.9849C16.849 12.0903 16.95 12.1562 16.8578 12.2441C16.7699 12.3364 16.8753 12.4155 16.783 12.5122C16.6952 12.6133 16.8006 12.6792 16.7127 12.7671C16.6204 12.8594 16.7259 12.9561 16.638 13.0439C16.5501 13.1362 16.6556 13.2505 16.5545 13.356C16.4578 13.4614 16.5721 13.5449 16.493 13.624C16.4095 13.7075 16.4842 13.791 16.4271 13.8481C16.37 13.9053 16.3612 13.9844 16.3831 14.0195M17.306 11.2378C17.2269 11.3477 17.3499 11.396 17.2752 11.4839C17.2005 11.5762 17.306 11.6069 17.2489 11.7124C17.1917 11.8179 17.2928 11.8442 17.2181 11.9497C17.1434 12.0552 17.2577 12.1387 17.1786 12.2441C17.0951 12.3496 17.2181 12.4067 17.1434 12.5122C17.0731 12.6221 17.1786 12.6792 17.1126 12.7583C17.0467 12.8418 17.161 12.9209 17.0775 13.022C16.9984 13.1187 17.1126 13.1934 17.0467 13.2812C16.9808 13.3735 17.0731 13.4702 17.016 13.5449C16.9588 13.6152 17.0555 13.7251 16.972 13.8218C16.8929 13.9185 16.9896 13.9844 16.9412 14.0503C16.8929 14.1162 16.8534 14.2129 16.9017 14.2393" stroke="black" stroke-width="0.275" stroke-linecap="round" stroke-linejoin="round"/>
</g>
<g id="tc-d_2">
<g id="Vector_24">
<path d="M17.5698 14.2559C17.7588 14.4316 18.1236 14.3174 18.2378 14.2383C18.3565 14.2778 18.6729 14.1548 18.7564 14.0186C18.9849 14.0493 19.064 13.7241 19.0244 13.6406C18.9629 13.5176 19.0728 13.4385 18.9937 13.355C18.8838 13.2495 19.0552 13.1484 18.9497 13.0781C18.8443 13.0034 18.9761 12.8804 18.8706 12.8013C18.7608 12.7178 18.9278 12.6035 18.8135 12.5464C18.6992 12.4893 18.8267 12.3398 18.73 12.2827C18.6333 12.2256 18.7871 12.0806 18.6553 12.0146C18.5278 11.9487 18.6421 11.8345 18.541 11.7861C18.4312 11.729 18.5322 11.6104 18.4312 11.5708C18.3169 11.5225 18.4004 11.395 18.3037 11.3599C18.2202 11.3291 18.273 11.25 18.2202 11.1797H17.5698" fill="#009E49"/>
<path d="M17.5698 14.2559C17.7588 14.4316 18.1236 14.3174 18.2378 14.2383C18.3565 14.2778 18.6729 14.1548 18.7564 14.0186C18.9849 14.0493 19.064 13.7241 19.0244 13.6406C18.9629 13.5176 19.0728 13.4385 18.9937 13.355C18.8838 13.2495 19.0552 13.1484 18.9497 13.0781C18.8443 13.0034 18.9761 12.8804 18.8706 12.8013C18.7608 12.7178 18.9278 12.6035 18.8135 12.5464C18.6992 12.4893 18.8267 12.3398 18.73 12.2827C18.6333 12.2256 18.7871 12.0806 18.6553 12.0146C18.5278 11.9487 18.6421 11.8345 18.541 11.7861C18.4312 11.729 18.5322 11.6104 18.4312 11.5708C18.3169 11.5225 18.4004 11.395 18.3037 11.3599C18.2202 11.3291 18.273 11.25 18.2202 11.1797H17.5698" stroke="black" stroke-width="0.275" stroke-linecap="round" stroke-linejoin="round"/>
</g>
<path id="Vector_25" d="M18.005 11.207C18.0929 11.2949 17.9875 11.3608 18.0754 11.4663C18.1676 11.5762 18.0841 11.6333 18.1588 11.73C18.2336 11.8267 18.1237 11.875 18.2072 11.9849C18.2907 12.0903 18.1896 12.1562 18.2819 12.2441C18.3698 12.3364 18.2643 12.4155 18.3566 12.5122C18.4445 12.6133 18.339 12.6792 18.4269 12.7671C18.5192 12.8594 18.4137 12.9561 18.5016 13.0439C18.5895 13.1362 18.484 13.2505 18.5851 13.356C18.6818 13.4614 18.5675 13.5449 18.6466 13.624C18.7301 13.7075 18.6554 13.791 18.7126 13.8481C18.7697 13.9053 18.7785 13.9844 18.7565 14.0195M17.8337 11.2378C17.9128 11.3477 17.7897 11.396 17.8644 11.4839C17.9391 11.5762 17.8337 11.6069 17.8908 11.7124C17.9479 11.8179 17.8468 11.8442 17.9215 11.9497C17.9963 12.0552 17.882 12.1387 17.9611 12.2441C18.0446 12.3496 17.9215 12.4067 17.9963 12.5122C18.0666 12.6221 17.9611 12.6792 18.027 12.7583C18.0929 12.8418 17.9787 12.9209 18.0622 13.022C18.1413 13.1187 18.027 13.1934 18.0929 13.2812C18.1588 13.3735 18.0666 13.4702 18.1237 13.5449C18.1808 13.6152 18.0841 13.7251 18.1676 13.8218C18.2467 13.9185 18.1501 13.9844 18.1984 14.0503C18.2467 14.1162 18.2863 14.2129 18.238 14.2393" stroke="black" stroke-width="0.275" stroke-linecap="round" stroke-linejoin="round"/>
</g>
<path id="Vector_26" d="M17.5693 14.2559V11.1797" stroke="#009E49" stroke-width="0.275" stroke-linecap="round" stroke-linejoin="round"/>
<path id="Vector_27" d="M17.5699 11.3398C17.5303 11.5112 17.627 11.6606 17.5699 11.8057C17.5128 11.9463 17.6094 12.0034 17.5787 12.1177C17.5435 12.2319 17.6182 12.3154 17.5699 12.4385C17.5216 12.5615 17.6358 12.6582 17.5699 12.8208C17.504 12.979 17.6138 13.0186 17.5699 13.1812C17.5216 13.3657 17.6534 13.4624 17.5699 13.5942C17.4864 13.7261 17.6446 13.7568 17.5787 13.9062C17.5128 14.0513 17.6182 14.1084 17.5699 14.2578" stroke="black" stroke-width="0.275" stroke-linecap="round" stroke-linejoin="round"/>
<path id="Vector_28" d="M17.6353 11.8934C17.6133 11.9417 17.7012 12.056 17.6528 12.1439C17.6001 12.2274 17.6792 12.3592 17.6265 12.4647C17.5737 12.5701 17.71 12.702 17.6572 12.825C17.6001 12.9481 17.6836 13.1019 17.6572 13.2161C17.6353 13.3304 17.7144 13.5501 17.6572 13.6292C17.6001 13.7127 17.7144 13.7347 17.6484 13.9368C17.5825 14.139 17.5386 13.9676 17.5781 13.9061C17.6616 13.7698 17.4858 13.7259 17.5693 13.5941C17.6528 13.4622 17.521 13.3655 17.5693 13.181C17.6133 13.0184 17.5034 12.9788 17.5693 12.8206C17.6353 12.658 17.521 12.5613 17.5693 12.4383C17.6177 12.3152 17.543 12.2317 17.5781 12.1175C17.6089 12.0032 17.5122 11.9461 17.5693 11.8055C17.6133 11.6649 17.6572 11.845 17.6353 11.8934ZM17.2661 12.034C17.2354 12.0867 17.3188 12.1878 17.2441 12.2889C17.1914 12.3592 17.2793 12.4427 17.2046 12.5438C17.1562 12.6141 17.2529 12.702 17.187 12.803C17.1431 12.8602 17.2178 12.97 17.165 13.0535C17.1123 13.1414 17.1914 13.2117 17.0991 13.326C17.0464 13.3875 17.1387 13.5413 17.0815 13.5897C17.0244 13.638 17.0771 13.827 17.0376 13.8533C17.0024 13.8841 17.0376 14.0203 16.9409 14.0511C16.9893 13.9852 16.8926 13.9192 16.9717 13.8226C17.0552 13.7259 16.9585 13.616 17.0156 13.5457C17.0728 13.471 16.9805 13.3743 17.0464 13.282C17.1123 13.1941 16.998 13.1194 17.0771 13.0228C17.1606 12.9217 17.0464 12.8426 17.1123 12.7591C17.1782 12.68 17.0728 12.6229 17.1431 12.513C17.2178 12.4075 17.0947 12.3504 17.1782 12.2449C17.2573 12.1395 17.1431 12.056 17.2178 11.9505C17.2925 11.845 17.1914 11.8187 17.2485 11.7132C17.354 11.7527 17.3013 11.9813 17.2661 12.034ZM17.0464 11.7483C17.0024 11.8187 17.064 11.9022 16.998 11.99C16.9321 12.0823 16.998 12.1966 16.9321 12.2713C16.8662 12.3416 16.9497 12.4822 16.8662 12.5394C16.7827 12.5965 16.8354 12.7679 16.7695 12.825C16.7036 12.8821 16.7695 13.0447 16.6948 13.1282C16.6201 13.2117 16.6553 13.3831 16.6113 13.4227C16.5718 13.4622 16.6685 13.5457 16.5981 13.6028C16.5234 13.66 16.5234 13.7742 16.4268 13.8489C16.4839 13.7918 16.4092 13.7083 16.4927 13.6248C16.5718 13.5457 16.4575 13.4622 16.5542 13.3567C16.6553 13.2513 16.5498 13.137 16.6377 13.0447C16.7256 12.9568 16.6201 12.8602 16.7124 12.7679C16.8003 12.68 16.6948 12.6141 16.7827 12.513C16.875 12.4163 16.7695 12.3372 16.8574 12.2449C16.9497 12.157 16.8486 12.0911 16.9321 11.9857C17.0156 11.8758 16.9058 11.8274 16.9805 11.7308C17.0156 11.6868 17.0156 11.6473 17.0156 11.6121C17.0684 11.4759 17.0684 11.7132 17.0464 11.7483Z" fill="#FCD116" stroke="black" stroke-width="0.275" stroke-linecap="round" stroke-linejoin="round"/>
<path id="Vector_29" d="M16.959 11.2827C16.959 10.3599 17.0864 10.0391 17.5698 10.0391C18.0532 10.0391 18.1807 10.3599 18.1807 11.2827H16.959Z" fill="#CE1126" stroke="black" stroke-width="0.275" stroke-linecap="round" stroke-linejoin="round"/>
<path id="Vector_30" d="M16.959 11.2827C16.959 10.3599 17.0864 10.0391 17.5698 10.0391C17.3501 10.0391 17.2139 10.2104 17.1787 10.3247C17.1392 10.439 17.1611 10.4302 17.2095 10.3862C17.2578 10.3423 17.2358 10.439 17.1919 10.4917C17.1523 10.5444 17.1128 10.6982 17.1699 10.6499C17.2271 10.5972 17.271 10.6543 17.2095 10.7422C17.1479 10.8257 17.0952 11.0278 17.1567 10.9575C17.2183 10.8872 17.2314 11.0015 17.1919 11.0586C17.1567 11.1157 17.1611 11.1685 17.1919 11.1421C17.2271 11.1157 17.2227 11.2344 17.1919 11.2827H16.959ZM17.7983 11.2651C17.7983 11.1289 17.8027 10.8081 17.728 10.7026C17.6753 10.6191 17.6753 10.5312 17.7368 10.6279C17.7983 10.7246 17.8291 10.6763 17.7852 10.5796C17.7324 10.4565 17.6621 10.3203 17.6797 10.2939C17.7017 10.2632 17.7148 10.2764 17.7588 10.3423C17.8027 10.4082 17.8115 10.3115 17.7632 10.2456C17.7148 10.1841 17.7192 10.1709 17.8203 10.2148C18.0005 10.2896 18.0884 10.5049 18.0884 11.23L17.7983 11.2651Z" fill="#000001" stroke="black" stroke-width="0.275" stroke-linecap="round" stroke-linejoin="round"/>
<path id="Vector_31" d="M17.5694 11.415C17.376 11.415 17.1651 11.3843 17.0245 11.3271C16.8575 11.2612 16.8487 11.2041 16.9058 11.1338C16.9498 11.081 17.0377 11.1118 17.1256 11.1513C17.2091 11.1865 17.4464 11.2129 17.5694 11.2129C17.6924 11.2129 17.9298 11.1865 18.0132 11.1469C18.1011 11.1118 18.189 11.081 18.233 11.1338C18.2901 11.2041 18.2813 11.2612 18.1143 11.3271C17.9737 11.3843 17.7628 11.415 17.5694 11.415Z" fill="#CE1126" stroke="black" stroke-width="0.275" stroke-linecap="round" stroke-linejoin="round"/>
</g>
</g>
</g>
<path id="Vector_32" d="M4 -0.015625H13V8.98438H4V-0.015625Z" fill="#012169"/>
<path id="Vector_33" d="M13 -0.015625V1.10938L9.66016 4.48438L13 7.77148V8.98438H11.8223L8.46484 5.67969L5.19531 8.98438H4V7.78906L7.26953 4.50195L4 1.28516V-0.015625H5.08984L8.46484 3.28906L11.7344 -0.015625H13Z" fill="white"/>
<path id="Vector_34" d="M7.23438 5.67969L7.42773 6.27734L4.73828 8.98438H4V8.93164L7.23438 5.67969ZM9.41406 5.46875L10.3633 5.60938L13 8.19336V8.98438L9.41406 5.46875ZM13 -0.015625L9.625 3.42969L9.55469 2.65625L12.1914 -0.015625H13ZM4 0.00195312L7.39258 3.32422L6.35547 3.18359L4 0.845703V0.00195312Z" fill="#C8102E"/>
<path id="Vector_35" d="M7.09375 -0.015625V8.98438H9.90625V-0.015625H7.09375ZM4 3.07812V5.89062H13V3.07812H4Z" fill="white"/>
<path id="Vector_36" d="M4 3.64062V5.32812H13V3.64062H4ZM7.65625 -0.015625V8.98438H9.34375V-0.015625H7.65625Z" fill="#C8102E"/>
</g>
<defs>
<filter id="filter0_d_186_14918" x="0" y="0" width="26" height="26" filterUnits="userSpaceOnUse" color-interpolation-filters="sRGB">
<feFlood flood-opacity="0" result="BackgroundImageFix"/>
<feColorMatrix in="SourceAlpha" type="matrix" values="0 0 0 0 0 0 0 0 0 0 0 0 0 0 0 0 0 0 127 0" result="hardAlpha"/>
<feOffset dy="4"/>
<feGaussianBlur stdDeviation="2"/>
<feComposite in2="hardAlpha" operator="out"/>
<feColorMatrix type="matrix" values="0 0 0 0 0 0 0 0 0 0 0 0 0 0 0 0 0 0 0.25 0"/>
<feBlend mode="normal" in2="BackgroundImageFix" result="effect1_dropShadow_186_14918"/>
<feBlend mode="normal" in="SourceGraphic" in2="effect1_dropShadow_186_14918" result="shape"/>
</filter>
<clipPath id="clip0_186_14918">
<rect width="18" height="18" fill="white" transform="translate(4)"/>
</clipPath>
</defs>
</svg>
