<svg width="18" height="18" viewBox="0 0 18 18" fill="none" xmlns="http://www.w3.org/2000/svg">
<g id="tf" clip-path="url(#clip0_186_14977)">
<path id="Vector" d="M0 0H18V18H0V0Z" fill="#002395"/>
<path id="Vector_2" d="M0 0H10.9793V7.38281H0V0Z" fill="white"/>
<path id="Vector_3" d="M0 0H3.6V7.2H0V0Z" fill="#002395"/>
<path id="Vector_4" d="M7.2002 0H10.8002V7.2H7.2002V0Z" fill="#ED2939"/>
<path id="Vector_5" d="M9.92793 8.23438L10.508 9.15898H12.1568V12.3758L10.9158 10.4422L9.25293 13.0965H10.0615L10.9193 11.5672L12.6736 14.7172L14.4279 11.5672L15.2822 13.0965H16.0908L14.4314 10.4422L13.1939 12.3758V10.5969H13.9357L14.4877 9.71797H13.1939V9.15547H14.8428L15.4229 8.23438H9.92793ZM11.8615 12.1719H10.0615V12.8047H11.8615V12.1719ZM15.2822 12.1719H13.4822V12.8047H15.2822V12.1719Z" fill="white"/>
<path id="Vector_6" d="M12.6734 15.3438L13.2269 17.0538L11.7734 15.9963H13.5734L12.1199 17.0538L12.6734 15.3438Z" fill="white"/>
<path id="Vector_7" d="M10.648 13.8164L11.2015 15.5264L9.74805 14.4689H11.548L10.0945 15.5264L10.648 13.8164Z" fill="white"/>
<path id="Vector_8" d="M14.6979 13.8164L15.2514 15.5264L13.7979 14.4689H15.5979L14.1444 15.5264L14.6979 13.8164Z" fill="white"/>
<path id="Vector_9" d="M8.93809 9.26953L9.49159 10.9795L8.03809 9.92203H9.83809L8.38459 10.9795L8.93809 9.26953Z" fill="white"/>
<path id="Vector_10" d="M16.4078 9.26953L16.9613 10.9795L15.5078 9.92203H17.3078L15.8543 10.9795L16.4078 9.26953Z" fill="white"/>
</g>
<defs>
<clipPath id="clip0_186_14977">
<rect width="18" height="18" fill="white"/>
</clipPath>
</defs>
</svg>
