<svg width="18" height="18" viewBox="0 0 18 18" fill="none" xmlns="http://www.w3.org/2000/svg">
<g id="tg" clip-path="url(#clip0_186_14988)">
<g id="Clip path group">
<mask id="mask0_186_14988" style="mask-type:luminance" maskUnits="userSpaceOnUse" x="0" y="0" width="18" height="18">
<g id="tg-a">
<path id="Vector" d="M0 0.00390625H17.9994V17.9997H0V0.00390625Z" fill="white"/>
</g>
</mask>
<g mask="url(#mask0_186_14988)">
<g id="Group">
<path id="Vector_2" fill-rule="evenodd" clip-rule="evenodd" d="M0 0.00390625H26.9828V17.9997H0V0.00390625Z" fill="#FFE300"/>
<path id="Vector_3" fill-rule="evenodd" clip-rule="evenodd" d="M0 7.31956H26.9828V10.9354H0V7.31956ZM0 0.0117188H26.9828V3.62756H0V0.0117188Z" fill="#118600"/>
<path id="Vector_4" fill-rule="evenodd" clip-rule="evenodd" d="M0 0.0117188H10.775V10.9354H0V0.0117188Z" fill="#D80000"/>
<path id="Vector_5" fill-rule="evenodd" clip-rule="evenodd" d="M4.72531 4.5201C4.72531 4.48746 5.389 2.65234 5.389 2.65234L5.99103 4.48746C5.99103 4.48746 8.00749 4.54912 8.00749 4.51648C8.00749 4.48384 6.41173 5.72055 6.41173 5.72055C6.41173 5.72055 7.16246 7.82767 7.13345 7.76964C7.10444 7.70799 5.389 6.50392 5.389 6.50392C5.389 6.50392 3.64092 7.70799 3.67356 7.70799C3.7062 7.70799 4.33362 5.72417 4.33362 5.72417L2.77051 4.54549L4.72531 4.5201Z" fill="white"/>
<path id="Vector_6" fill-rule="evenodd" clip-rule="evenodd" d="M0 14.3867H26.9828V18.0026H0V14.3867Z" fill="#118600"/>
</g>
</g>
</g>
</g>
<defs>
<clipPath id="clip0_186_14988">
<rect width="18" height="18" fill="white"/>
</clipPath>
</defs>
</svg>
