<svg width="18" height="18" viewBox="0 0 18 18" fill="none" xmlns="http://www.w3.org/2000/svg">
<g id="tj" clip-path="url(#clip0_186_15003)">
<path id="Vector" d="M0 0H18V18H0V0Z" fill="#006600"/>
<path id="Vector_2" d="M0 0H18V12.8566H0V0Z" fill="white"/>
<path id="Vector_3" d="M0 0H18V5.14336H0V0Z" fill="#CC0000"/>
<g id="Group">
<path id="Vector_4" d="M8.27978 8.76301C8.31488 8.70265 8.36869 8.65535 8.43306 8.62829C8.49743 8.60122 8.56886 8.59585 8.63655 8.61299C8.70424 8.63013 8.76451 8.66885 8.80824 8.72329C8.85197 8.77773 8.87678 8.84493 8.87893 8.91472V10.2004H9.12064V8.91472C9.12278 8.84493 9.1476 8.77773 9.19133 8.72329C9.23506 8.66885 9.29533 8.63013 9.36302 8.61299C9.43071 8.59585 9.50214 8.60122 9.56651 8.62829C9.63088 8.65535 9.68468 8.70265 9.71979 8.76301C9.7576 8.64901 9.7678 8.52767 9.74955 8.40896C9.73131 8.29025 9.68514 8.17758 9.61484 8.0802C9.54454 7.98282 9.45213 7.90352 9.3452 7.84883C9.23827 7.79414 9.11989 7.76562 8.99978 7.76562C8.87968 7.76562 8.7613 7.79414 8.65437 7.84883C8.54744 7.90352 8.45503 7.98282 8.38473 8.0802C8.31443 8.17758 8.26826 8.29025 8.25001 8.40896C8.23177 8.52767 8.24197 8.64901 8.27978 8.76301Z" fill="#F8C300"/>
<path id="Vector_5" d="M8.45215 8.42294C8.5578 8.40149 8.66752 8.41378 8.7658 8.45807C8.86408 8.50237 8.94596 8.57643 8.99986 8.66979C9.05377 8.57643 9.13564 8.50237 9.23393 8.45807C9.33221 8.41378 9.44193 8.40149 9.54758 8.42294C9.5294 8.29059 9.46391 8.16929 9.36322 8.08149C9.26253 7.99369 9.13346 7.94531 8.99986 7.94531C8.86627 7.94531 8.73719 7.99369 8.63651 8.08149C8.53582 8.16929 8.47033 8.29059 8.45215 8.42294Z" fill="white"/>
<path id="tj-a" d="M8.87849 9.68359C8.86187 9.86576 8.79445 10.0396 8.6839 10.1853C8.57336 10.3311 8.42412 10.4428 8.25318 10.508C8.08224 10.5731 7.89646 10.5889 7.71698 10.5536C7.53749 10.5183 7.37151 10.4334 7.23791 10.3085C7.18098 10.4521 7.09204 10.5808 6.97784 10.6849C6.86365 10.789 6.72723 10.8656 6.57895 10.909C6.43068 10.9524 6.27445 10.9614 6.12217 10.9353C5.9699 10.9092 5.82558 10.8487 5.7002 10.7585C5.79534 11.6945 7.19934 11.5042 7.3022 10.5939C7.74448 11.3679 8.71649 11.1467 8.99934 10.1979L8.87849 9.68359Z" fill="#F8C300"/>
<path id="tj-a_2" d="M9.12054 9.68359C9.13716 9.86576 9.20458 10.0396 9.31512 10.1853C9.42567 10.3311 9.5749 10.4428 9.74584 10.508C9.91678 10.5731 10.1026 10.5889 10.282 10.5536C10.4615 10.5183 10.6275 10.4334 10.7611 10.3085C10.818 10.4521 10.907 10.5808 11.0212 10.6849C11.1354 10.789 11.2718 10.8656 11.4201 10.909C11.5683 10.9524 11.7246 10.9614 11.8769 10.9353C12.0291 10.9092 12.1734 10.8487 12.2988 10.7585C12.2037 11.6945 10.7997 11.5042 10.6968 10.5939C10.2545 11.3679 9.28254 11.1467 8.99968 10.1979L9.12054 9.68359Z" fill="#F8C300"/>
<path id="tj-b" d="M7.94001 11.3486C7.74458 11.7729 7.35372 11.8449 7.01172 11.5029C7.01172 11.5029 7.148 11.4051 7.29458 11.3794C7.28562 11.3138 7.29086 11.247 7.30993 11.1836C7.32901 11.1201 7.36148 11.0615 7.40515 11.0117C7.51511 11.083 7.59691 11.1903 7.63658 11.3151C7.84229 11.2894 7.94001 11.3486 7.94001 11.3486Z" fill="#F8C300"/>
<path id="tj-b_2" d="M9.47799 11.3004C9.21589 11.687 8.81852 11.6942 8.53697 11.301C8.53697 11.301 8.68739 11.2268 8.83619 11.2254C8.83807 11.1592 8.85415 11.0941 8.88333 11.0347C8.91251 10.9752 8.95411 10.9227 9.00533 10.8807C9.10217 10.969 9.16536 11.0881 9.1841 11.2178C9.39125 11.226 9.47799 11.3004 9.47799 11.3004Z" fill="#F8C300"/>
<path id="tj-b_3" d="M10.9861 11.4995C10.665 11.8387 10.2717 11.7816 10.0574 11.348C10.0574 11.348 10.2178 11.2992 10.3649 11.3218C10.3774 11.2568 10.4038 11.1952 10.4422 11.1412C10.4806 11.0872 10.5302 11.0421 10.5875 11.009C10.6688 11.1117 10.7119 11.2395 10.7094 11.3706C10.9125 11.4122 10.9861 11.4995 10.9861 11.4995Z" fill="#F8C300"/>
<path id="Vector_6" d="M6.50488 12.293C8.13246 11.8086 9.86589 11.8086 11.4935 12.293" stroke="#F8C300" stroke-width="11.7029"/>
<g id="Group_2">
<g id="Group_3">
<path id="tj-c" d="M9.62732 5.96807L8.61101 6.70646L8.99921 5.51172L9.38741 6.70646L8.37109 5.96807H9.62732Z" fill="#F8C300"/>
</g>
<g id="tj-d">
<path id="tj-c_2" d="M7.82752 6.45245L6.81121 7.19084L7.1994 5.99609L7.5876 7.19084L6.57129 6.45245H7.82752Z" fill="#F8C300"/>
<path id="tj-c_3" d="M6.51111 7.76885L5.4948 8.50725L5.883 7.3125L6.27119 8.50725L5.25488 7.76885H6.51111Z" fill="#F8C300"/>
<path id="tj-c_4" d="M6.02771 9.56963L5.0114 10.308L5.3996 9.11328L5.7878 10.308L4.77148 9.56963H6.02771Z" fill="#F8C300"/>
</g>
<g id="tj-d_2">
<path id="tj-c_5" d="M10.1715 6.45245L11.1878 7.19084L10.7996 5.99609L10.4114 7.19084L11.4277 6.45245H10.1715Z" fill="#F8C300"/>
<path id="tj-c_6" d="M11.4879 7.76885L12.5042 8.50725L12.116 7.3125L11.7278 8.50725L12.7441 7.76885H11.4879Z" fill="#F8C300"/>
<path id="tj-c_7" d="M11.9713 9.56963L12.9876 10.308L12.5994 9.11328L12.2112 10.308L13.2275 9.56963H11.9713Z" fill="#F8C300"/>
</g>
</g>
</g>
</g>
<defs>
<clipPath id="clip0_186_15003">
<rect width="18" height="18" fill="white"/>
</clipPath>
</defs>
</svg>
