<svg width="18" height="18" viewBox="0 0 18 18" fill="none" xmlns="http://www.w3.org/2000/svg">
<g id="tk" clip-path="url(#clip0_186_15027)">
<path id="Vector" d="M0 0H18V18H0V0Z" fill="#00247D"/>
<path id="Vector_2" d="M3.18867 13.5061C3.00234 13.5061 4.94648 12.469 6.57773 11.1436C8.71172 9.40337 13.3102 6.61899 14.6637 6.16899C14.8043 6.12329 14.3754 6.40805 14.3191 6.50298C12.8742 8.21157 14.0273 11.4354 15.8309 13.0561C16.3723 13.4709 16.3441 13.492 17.3496 13.5342V13.6291L3.18867 13.5061ZM3.07266 13.6959C3.07266 13.6959 2.93555 13.7944 2.93555 13.8682C2.93555 13.9491 3.09023 14.0581 3.09023 14.0581L17.0578 14.2127L17.3145 14.0405L16.9559 13.819L3.07266 13.6959Z" fill="#FED100"/>
<path id="Vector_3" d="M3.70898 4.09883L3.56836 4.52422L3.93398 4.26055L4.29609 4.52422L4.15547 4.09883L4.52109 3.83516H4.07109L3.93398 3.40625L3.79336 3.83516H3.34687L3.70898 4.09883ZM6.44414 6.10625L6.74648 5.88828H6.37383L6.25781 5.5332L6.1418 5.88828H5.76914L6.07148 6.10625L5.95547 6.46133L6.25781 6.24336L6.56016 6.46133L6.44414 6.10625ZM1.35703 6.56328L1.21992 6.13789L1.0793 6.56328H0.632812L0.994922 6.82695L0.854297 7.25234L1.21992 6.98867L1.58203 7.25234L1.44492 6.82695L1.80703 6.56328H1.35703ZM4.0957 10.8488L3.93398 10.3496L3.77227 10.8488H3.24844L3.67031 11.1547L3.50859 11.6539L3.93398 11.3445L4.35586 11.6539L4.19414 11.1547L4.61602 10.8488H4.0957Z" fill="white"/>
</g>
<defs>
<clipPath id="clip0_186_15027">
<rect width="18" height="18" fill="white"/>
</clipPath>
</defs>
</svg>
