<svg width="18" height="18" viewBox="0 0 18 18" fill="none" xmlns="http://www.w3.org/2000/svg">
<g id="tl" clip-path="url(#clip0_186_15031)">
<g id="Clip path group">
<mask id="mask0_186_15031" style="mask-type:luminance" maskUnits="userSpaceOnUse" x="0" y="0" width="18" height="18">
<g id="tl-a">
<path id="Vector" d="M0 0H17.9972V17.9972H0V0Z" fill="white"/>
</g>
</mask>
<g mask="url(#mask0_186_15031)">
<g id="Group">
<path id="Vector_2" fill-rule="evenodd" clip-rule="evenodd" d="M0 0H36.2485V17.9972H0V0Z" fill="#CB000F"/>
<path id="Vector_3" fill-rule="evenodd" clip-rule="evenodd" d="M0 0C0.112483 0 17.9972 9.02402 17.9972 9.02402L0 18.0009V0Z" fill="#F8C00C"/>
<path id="Vector_4" fill-rule="evenodd" clip-rule="evenodd" d="M0 0C0.0725695 0 11.974 9.02402 11.974 9.02402L0 18.0009V0Z" fill="#000001"/>
<path id="Vector_5" fill-rule="evenodd" clip-rule="evenodd" d="M6.60025 10.4836L4.45945 10.0119L3.37454 11.866L3.19311 9.76875L1.05957 9.29705L2.98629 8.42622L2.87018 6.33984L4.28529 7.8638L6.23015 6.97846L5.21418 8.87252L6.593 10.4836H6.60025Z" fill="white"/>
</g>
</g>
</g>
</g>
<defs>
<clipPath id="clip0_186_15031">
<rect width="18" height="18" fill="white"/>
</clipPath>
</defs>
</svg>
