<svg width="18" height="18" viewBox="0 0 18 18" fill="none" xmlns="http://www.w3.org/2000/svg">
<g id="tm" clip-path="url(#clip0_186_15040)">
<path id="Vector" d="M0 0H18V18H0V0Z" fill="#00843D"/>
<path id="Vector_2" d="M13.4051 1.99219C13.7043 2.11808 13.9727 2.30733 14.1918 2.54691C14.4109 2.78649 14.5754 3.0707 14.6741 3.37998C14.7728 3.68926 14.8033 4.01626 14.7635 4.33845C14.7236 4.66064 14.6145 4.97038 14.4434 5.24632C14.2724 5.52227 14.0436 5.75787 13.7728 5.9369C13.502 6.11593 13.1956 6.23414 12.8747 6.28338C12.5538 6.33263 12.2261 6.31174 11.914 6.22215C11.602 6.13257 11.3131 5.97642 11.0672 5.76445C11.5612 5.9782 12.1154 6.00749 12.6292 5.847C13.1429 5.68651 13.582 5.34691 13.8664 4.88999C14.1509 4.43307 14.2619 3.88921 14.1791 3.35738C14.0964 2.82555 13.8254 2.3411 13.4156 1.99219H13.4051ZM11.2781 3.6375L11.5172 2.85352L10.8527 3.3457H11.6895L11.025 2.85352L11.2781 3.6375ZM11.2781 2.48437L11.5172 1.71094L10.8527 2.18906H11.6895L11.025 1.71094L11.2781 2.48437ZM12.4066 3.08203L12.6598 2.29805L11.9953 2.77617H12.818L12.1535 2.29805L12.4066 3.08203ZM10.1215 4.19648L10.3887 3.42305L9.7207 3.90469H10.5328L9.86836 3.42656L10.1215 4.19648ZM11.2641 4.79414L11.5312 4.01016L10.8633 4.48828H11.6754L11.0109 4.01016L11.2641 4.79414Z" fill="white"/>
<path id="Vector_3" d="M3.24121 0H8.10332V18H3.24121V0Z" fill="#D22630"/>
<g id="Group">
<path id="Vector_4" d="M4.42285 0H4.26465L3.95879 0.267187L3.83926 0.161719H3.94473L3.93066 0.028125H3.71973L3.36113 0.397266V0.530859H3.53691V0.425391L3.61426 0.50625L3.41387 0.664453L3.50879 0.755859L3.2416 1.02305V1.18125L3.70566 0.759375L3.61426 0.664453L3.80059 0.488672L3.63887 0.330469L3.74434 0.225L3.95879 0.425391L4.42285 0ZM3.22754 0V0.330469L3.34707 0.225V0.0914062H3.4666L3.56152 0H3.22754ZM4.13105 0H3.99746L4.02559 0.0808594L4.13105 0Z" fill="#383739"/>
<path id="Vector_5" d="M4.4084 0H4.27832L3.9584 0.291797L3.81074 0.158203H3.94434L3.91973 0.0527344H3.74395L3.3748 0.397266V0.502734H3.5084V0.372656L3.63848 0.492188L3.4416 0.664453L3.53301 0.755859L3.24121 1.02305V1.1707L3.68066 0.755859L3.58574 0.667969L3.78613 0.492188L3.61035 0.333984L3.74746 0.214453L3.9584 0.414844L4.4084 0ZM3.24121 0V0.316406L3.33262 0.210938V0.0808594H3.46621L3.53652 0H3.24121ZM4.10605 0H4.0252V0.0527344L4.10605 0Z" fill="#FFC72C"/>
</g>
<g id="Group_2">
<path id="Vector_6" d="M3.24121 2.08594V2.26172L3.5084 2.52539L3.40996 2.60273L3.61035 2.78906L3.52949 2.86641V2.74687H3.35723V2.88398L3.72988 3.24258H3.92676L3.94082 3.10898H3.84941L3.98301 3.00352L4.2748 3.2707L3.96895 3.54844L3.84941 3.44297H3.95488L3.94082 3.30937H3.71582L3.34316 3.66797V3.80156H3.51895V3.69609L3.59629 3.75938L3.3959 3.9457L3.49082 4.04063L3.22363 4.29023V4.46602L3.6877 4.04063L3.59629 3.9457L3.78262 3.75938L3.62441 3.61523L3.72988 3.50977L3.94082 3.70664L4.40488 3.28477L3.94082 2.84531L3.72988 3.04219L3.62441 2.93672L3.78262 2.79258L3.59629 2.60625L3.6877 2.52539L3.22363 2.08594H3.24121ZM3.24121 2.95078V3.61523L3.34668 3.4957V3.36211H3.46621L3.56113 3.28125L3.46621 3.18984H3.34668V3.05625L3.24121 2.95078ZM4.03926 3.17578L4.00762 3.2707L4.02168 3.36211L4.12715 3.2707L4.03926 3.17578Z" fill="#383739"/>
<path id="Vector_7" d="M3.24121 2.10938V2.25L3.53301 2.51367L3.4416 2.60859L3.63848 2.79492L3.5084 2.90039V2.7668H3.3748V2.88281L3.74746 3.22734H3.91973L3.93027 3.12188H3.8002L3.9584 2.98828L4.2748 3.28008L3.9584 3.56133L3.81074 3.42773H3.94434L3.91973 3.32227H3.74395L3.3748 3.6668V3.78633H3.5084V3.65273L3.63848 3.7582L3.4416 3.94453L3.53301 4.03945L3.24121 4.30313V4.43672L3.68066 4.03945L3.58574 3.94453L3.78613 3.7582L3.61035 3.61406L3.74746 3.48047L3.9584 3.69141L4.4084 3.28008L3.9584 2.86875L3.74746 3.06914L3.61387 2.93555L3.78613 2.79141L3.58574 2.60156L3.68066 2.5207L3.24121 2.10938ZM3.24121 2.96367V3.58594L3.33262 3.49453V3.36094H3.46621L3.53652 3.28008L3.45215 3.20273H3.33262V3.06914L3.24121 2.96367ZM4.03926 3.20273L4.0252 3.26953V3.33281L4.10605 3.26953L4.03926 3.20273Z" fill="#FFC72C"/>
</g>
<g id="Group_3">
<path id="Vector_8" d="M3.2416 5.475V5.64727L3.50879 5.91094L3.41387 5.9918L3.61426 6.16758L3.5334 6.24492V6.13945H3.36113V6.26953L3.73379 6.61758H3.93066L3.94473 6.49805H3.85332L3.98691 6.39258L4.27871 6.65625L3.97285 6.92344L3.85332 6.81797H3.95879L3.94473 6.69492H3.71973L3.34707 7.05352V7.18711H3.52285V7.06758L3.6002 7.14844L3.3998 7.33477L3.49473 7.41211L3.22754 7.6793V7.8375L3.6916 7.40156L3.6002 7.3207L3.78652 7.13437L3.62832 6.97617L3.73379 6.88125L3.94473 7.08164L4.40879 6.64219L3.94473 6.22031L3.73379 6.41719L3.62832 6.31172L3.78652 6.15L3.6002 5.97773L3.6916 5.88633L3.22754 5.46094L3.2416 5.475ZM3.2416 6.32578V6.99023L3.34707 6.88477V6.75117H3.4666L3.56152 6.65625L3.4666 6.56484H3.34707V6.43125L3.2416 6.32578ZM4.03965 6.56484L4.01152 6.65625L4.02559 6.75117L4.13105 6.65625L4.03965 6.56484Z" fill="#383739"/>
<path id="Vector_9" d="M3.24121 5.48438V5.61797L3.53301 5.89922L3.4416 5.99062L3.63848 6.16641L3.5084 6.28242V6.15234H3.3748V6.27187L3.74746 6.61992H3.91973L3.93027 6.51445H3.8002L3.9584 6.38086L4.2748 6.66211L3.9584 6.95039L3.81074 6.8168H3.94434L3.91973 6.71133H3.74395L3.3748 7.0418V7.16133H3.5084V7.02773L3.63848 7.1332L3.4416 7.31953L3.53301 7.40039L3.24121 7.66406V7.83984L3.68066 7.43906L3.58574 7.34766L3.78613 7.16133L3.61035 6.99961L3.74746 6.88008L3.9584 7.08047L4.4084 6.6832L3.9584 6.25781L3.74746 6.45469L3.61387 6.33516L3.78613 6.17695L3.58574 6.00117L3.68066 5.90977L3.24121 5.48438ZM3.24121 6.34922V6.975L3.33262 6.88008V6.75H3.46621L3.53652 6.65508L3.45215 6.57422H3.33262V6.44414L3.24121 6.34922ZM4.03926 6.58828L4.0252 6.65859V6.72187L4.10605 6.65508L4.03926 6.58828Z" fill="#FFC72C"/>
</g>
<g id="Group_4">
<path id="Vector_10" d="M3.2416 8.84766V9.03047L3.50879 9.28359L3.41387 9.36445L3.61426 9.55078L3.5334 9.62812V9.50859H3.36113V9.64219L3.73379 10.0008H3.93066L3.94473 9.86719H3.85332L3.98691 9.76172L4.27871 10.0289L3.97285 10.3102L3.85332 10.2012H3.95879L3.94473 10.0676H3.71973L3.34707 10.4262V10.5598H3.52285V10.4543L3.6002 10.5316L3.3998 10.7074L3.49473 10.7988L3.22754 11.066V11.2242L3.6916 10.7988L3.6002 10.7074L3.78652 10.5316L3.62832 10.3734L3.73379 10.268L3.94473 10.4684L4.40879 10.043L3.94473 9.61758L3.73379 9.81445L3.62832 9.70898L3.78652 9.55078L3.6002 9.36445L3.6916 9.28359L3.22754 8.84766H3.2416ZM3.2416 9.70898V10.377L3.34707 10.268V10.1344H3.4666L3.56152 10.043L3.4666 9.94805H3.34707V9.81445L3.2416 9.70898ZM4.03965 9.94805L4.01152 10.0289L4.02559 10.1203L4.13105 10.0289L4.03965 9.94805Z" fill="#383739"/>
<path id="Vector_11" d="M3.24121 8.87109V9.00469L3.53301 9.28594L3.4416 9.36328L3.63848 9.54961L3.5084 9.65508V9.52148H3.3748V9.65508L3.74746 9.98906H3.91973L3.93027 9.89414H3.8002L3.9584 9.74648L4.2748 10.0418L3.9584 10.3336L3.81074 10.2H3.94434L3.91973 10.0945H3.74395L3.3748 10.4391V10.5445H3.5084V10.4109L3.63848 10.5305L3.4416 10.7063L3.53301 10.7977L3.24121 11.0648V11.1949L3.68066 10.7977L3.58574 10.7063L3.78613 10.5305L3.61035 10.3723L3.74746 10.2387L3.9584 10.4496L4.4084 10.0418L3.9584 9.62695L3.74746 9.82734L3.61387 9.69375L3.78613 9.56367L3.58574 9.36328L3.68066 9.28242L3.24121 8.87109ZM3.24121 9.72188V10.3582L3.33262 10.2668V10.1332H3.46621L3.53652 10.0523L3.45215 9.975H3.33262V9.84141L3.24121 9.73594V9.72188ZM4.03926 9.975L4.0252 10.0277V10.0945L4.10605 10.0242L4.03926 9.975Z" fill="#FFC72C"/>
</g>
<g id="Group_5">
<path id="Vector_12" d="M3.2416 12.2344V12.4102L3.50879 12.6738L3.41387 12.7512L3.61426 12.9375L3.5334 13.0184V12.8848H3.36113V13.0184L3.73379 13.377H3.93066L3.94473 13.2434H3.85332L3.98691 13.1379L4.27871 13.4051L3.97285 13.6828L3.85332 13.5773H3.95879L3.94473 13.4437H3.71973L3.34707 13.8023V13.9359H3.52285V13.8305L3.6002 13.8938L3.3998 14.0801L3.49473 14.175L3.22754 14.4281V14.6004L3.6916 14.175L3.6002 14.0801L3.78652 13.8938L3.62832 13.7496L3.73379 13.6441L3.94473 13.841L4.40879 13.4191L3.94473 12.9797L3.73379 13.1766L3.62832 13.0711L3.78652 12.927L3.6002 12.7406L3.6916 12.6598L3.2416 12.2344ZM3.2416 13.0992V13.7637L3.34707 13.6441V13.5105H3.4666L3.56152 13.4297L3.4666 13.3383H3.34707V13.2047L3.2416 13.0992ZM4.03965 13.3242L4.01152 13.4156L4.02559 13.5105L4.13105 13.4156L4.03965 13.3242Z" fill="#383739"/>
<path id="Vector_13" d="M3.24121 12.2617V12.3918L3.53301 12.659L3.4416 12.7504L3.63848 12.9367L3.5084 13.0422V12.9121H3.3748V13.0316L3.74746 13.3762H3.91973L3.93027 13.2707H3.8002L3.9584 13.1371L4.2748 13.4289L3.9584 13.7102L3.81074 13.5766H3.94434L3.91973 13.4711H3.74395L3.3748 13.8156V13.9492H3.5084V13.8156L3.63848 13.907L3.44512 14.0969L3.53652 14.1918L3.24473 14.4555V14.5891L3.68418 14.1918L3.58926 14.0969L3.78965 13.9105L3.61387 13.7664L3.75098 13.6328L3.96191 13.8438L4.41191 13.4324L3.96191 13.0211L3.75098 13.2215L3.61738 13.0879L3.78965 12.9402L3.58926 12.7539L3.68418 12.6766L3.24121 12.2617ZM3.24121 13.109V13.7348L3.33262 13.6434V13.5098H3.46621L3.53652 13.4289L3.45215 13.348H3.33262V13.218L3.24121 13.109ZM4.03926 13.348L4.0252 13.4184V13.4816L4.10605 13.4148L4.03926 13.348Z" fill="#FFC72C"/>
</g>
<g id="Group_6">
<path id="Vector_14" d="M6.9082 0H7.08047L7.37227 0.267187L7.50586 0.161719H7.38281L7.40742 0.028125H7.59375L7.96641 0.397266V0.530859H7.8082V0.425391L7.71328 0.50625L7.91367 0.664453L7.82227 0.755859L8.08594 1.02305V1.18125L7.63594 0.759375L7.72734 0.664453L7.52695 0.488672L7.70273 0.330469L7.5832 0.225L7.37227 0.425391L6.9082 0ZM8.10352 0V0.330469L7.98398 0.225V0.0914062H7.87852L7.78359 0H8.10352ZM7.21406 0H7.33359L7.30547 0.0808594L7.21406 0Z" fill="#383739"/>
<path id="Vector_15" d="M6.93262 0H7.06621L7.37207 0.291797L7.53027 0.158203H7.4002L7.4248 0.0527344H7.57246L7.96973 0.397266V0.516797H7.83965V0.386719L7.70957 0.492188L7.92051 0.664453L7.8291 0.755859L8.1209 1.02305V1.1707L7.66387 0.769922L7.75879 0.678516L7.57246 0.492188L7.70605 0.330469L7.57246 0.210938L7.36152 0.411328L6.93262 0ZM8.10332 0V0.316406L7.99785 0.210938V0.0808594H7.8748L7.79746 0H8.10332ZM7.22441 0H7.30527V0.0527344L7.22441 0Z" fill="#FFC72C"/>
<path id="Vector_16" d="M8.10313 2.08594V2.26172L7.82188 2.52539L7.9168 2.60625L7.71641 2.79258L7.81133 2.86992V2.75039H7.96953V2.88398L7.59688 3.24258H7.41055L7.38594 3.10898H7.49141L7.37188 3.00352L7.08008 3.2707L7.37188 3.54844L7.50547 3.44297H7.38242L7.40703 3.30937H7.59336L7.96602 3.66797V3.80156H7.80781V3.69609L7.71289 3.75938L7.91328 3.9457L7.82188 4.04063L8.08555 4.29023V4.46602L7.63555 4.04063L7.72695 3.9457L7.52656 3.75938L7.70234 3.61523L7.58281 3.50977L7.37188 3.70664L6.9043 3.28477L7.36836 2.84531L7.5793 3.04219L7.70234 2.93672L7.52656 2.79258L7.73398 2.60273L7.64258 2.52187L8.10313 2.08594ZM8.10313 2.95078V3.61523L7.98359 3.4957V3.36211H7.87813L7.7832 3.28125L7.87813 3.18984H7.98359V3.05625L8.10313 2.95078ZM7.30508 3.17578L7.31914 3.2707V3.36211L7.21367 3.2707L7.30508 3.17578Z" fill="#383739"/>
<path id="Vector_17" d="M8.10313 2.10938V2.25L7.81133 2.51367L7.90273 2.60859L7.70586 2.79492L7.82539 2.90039V2.7668H7.95547V2.88281L7.58633 3.22734H7.43867L7.41055 3.12188H7.54414L7.38594 2.98828L7.06953 3.28008L7.38594 3.56133L7.54414 3.42773H7.41055L7.43867 3.32227H7.57227L7.94492 3.6668V3.78633H7.81133V3.65273L7.67773 3.7582L7.88867 3.94453L7.79727 4.03945L8.08906 4.30313V4.43672L7.63906 4.04297L7.73047 3.94805L7.54414 3.76172L7.70586 3.61758L7.57227 3.48398L7.36133 3.69492L6.92188 3.28359L7.35781 2.87227L7.56875 3.07266L7.70586 2.93906L7.57227 2.79492L7.75859 2.60859L7.66367 2.52773L8.10313 2.10938ZM8.10313 2.96367V3.58594L7.99766 3.49453V3.36094H7.87461L7.79375 3.28008L7.87461 3.20273H8.00469V3.06914L8.10313 2.96367ZM7.30508 3.19922V3.3293L7.22773 3.26602L7.30508 3.19922Z" fill="#FFC72C"/>
<path id="Vector_18" d="M8.10313 5.475V5.64727L7.82188 5.91094L7.9168 5.9918L7.71641 6.16758L7.81133 6.24492V6.13945H7.96953V6.26953L7.59688 6.61758H7.41055L7.38594 6.49805H7.49141L7.37188 6.39258L7.08008 6.65625L7.37188 6.92344L7.50547 6.81797H7.38242L7.40703 6.69492H7.59336L7.96602 7.05352V7.18711H7.80781V7.06758L7.71289 7.14844L7.91328 7.33477L7.82188 7.41211L8.08555 7.6793V7.8375L7.63555 7.40156L7.72695 7.3207L7.52656 7.13437L7.70234 6.97617L7.58281 6.88125L7.37188 7.08164L6.9043 6.64219L7.36836 6.22031L7.5793 6.41719L7.70234 6.31172L7.52656 6.15L7.72695 5.97773L7.63555 5.88633L8.09961 5.46094L8.10313 5.475ZM8.10313 6.32578V6.99023L7.98359 6.88477V6.75117H7.87813L7.7832 6.65625L7.87813 6.56484H7.98359V6.43125L8.10313 6.32578ZM7.30508 6.56484L7.31914 6.65625V6.75117L7.21367 6.65625L7.30508 6.56484Z" fill="#383739"/>
<path id="Vector_19" d="M8.10293 5.48438V5.61797L7.81113 5.89922L7.90254 5.99062L7.70566 6.16641L7.8252 6.28242V6.15234H7.95527V6.27187L7.58613 6.61992H7.43848L7.41035 6.51445H7.54395L7.38574 6.38086L7.06934 6.66211L7.38574 6.95039L7.54395 6.8168H7.41035L7.43848 6.71133H7.57207L7.96934 7.04531V7.16484H7.83926V7.03125L7.70918 7.13672L7.92012 7.32305L7.82871 7.40391L8.12051 7.66758V7.84336L7.66348 7.43555L7.7584 7.34414L7.57207 7.15781L7.73027 6.99609L7.59668 6.87656L7.38574 7.07695L6.94629 6.67969L7.38574 6.2543L7.59668 6.45117L7.73027 6.33164L7.57207 6.17344L7.7584 5.99766L7.66348 5.90625L8.10293 5.48438ZM8.10293 6.34922V6.975L7.99746 6.88008V6.75H7.87441L7.79355 6.65508L7.87441 6.57422H8.00449V6.44414L8.10293 6.34922ZM7.30488 6.58828V6.72187L7.22754 6.65508L7.30488 6.58828Z" fill="#FFC72C"/>
<path id="Vector_20" d="M8.10313 8.85V9.03281L7.82188 9.28594L7.9168 9.3668L7.71641 9.55313L7.81133 9.63047V9.51094H7.96953V9.64453L7.59688 10.0031H7.41055L7.38594 9.86953H7.49141L7.37188 9.76406L7.08008 10.0312L7.37188 10.3125L7.50547 10.2035H7.38242L7.40703 10.0699H7.59336L7.96602 10.4285V10.5621H7.80781V10.4566L7.71289 10.534L7.91328 10.7098L7.82188 10.8012L8.08555 11.0684V11.2266L7.63555 10.8012L7.72695 10.7098L7.52656 10.534L7.70234 10.3617L7.58281 10.2563L7.37188 10.4566L6.9043 10.0312L7.36836 9.60586L7.5793 9.80625L7.70234 9.70078L7.52656 9.53906L7.72695 9.35273L7.63555 9.27188L8.09961 8.83594L8.10313 8.85ZM8.10313 9.71133V10.3793L7.98008 10.2668V10.1332H7.87461L7.77969 10.0418L7.87461 9.94687H7.98008V9.81328L8.10313 9.71133ZM7.30508 9.95039L7.31914 10.0312V10.1227L7.21367 10.0312L7.30508 9.95039Z" fill="#383739"/>
<path id="Vector_21" d="M8.10313 8.875V9.00859L7.81133 9.30039L7.90273 9.38125L7.70586 9.56758L7.82539 9.67305V9.53945H7.95547V9.67305L7.58633 10.0035H7.43867L7.41055 9.91211H7.54414L7.38594 9.76445L7.06953 10.0563L7.38594 10.3516L7.54414 10.218H7.41055L7.43867 10.1125H7.57227L7.94492 10.457V10.5625H7.81133V10.4289L7.67773 10.5484L7.88867 10.7242L7.79727 10.8156L8.08906 11.0793V11.2129L7.63906 10.8156L7.73047 10.7207L7.54414 10.5484L7.70586 10.3621L7.57227 10.232L7.36133 10.443L6.92188 10.0316L7.35781 9.62031L7.56875 9.81719L7.70586 9.68711L7.54414 9.55352L7.73047 9.35313L7.63906 9.27227L8.10313 8.875ZM8.10313 9.72578V10.3621L7.99766 10.2707V10.1371H7.87461L7.79375 10.0563L7.87461 9.97891H8.00469V9.84531L8.09961 9.73984L8.10313 9.72578ZM7.30508 9.97891V10.0984L7.22773 10.0281L7.30508 9.97891Z" fill="#FFC72C"/>
<path id="Vector_22" d="M8.10313 12.2344V12.4102L7.82188 12.6738L7.9168 12.7512L7.71641 12.9375L7.81133 13.0184V12.8848H7.96953V13.0184L7.59688 13.377H7.41055L7.38594 13.2434H7.49141L7.37188 13.1379L7.08008 13.4051L7.37188 13.6828L7.50547 13.5773H7.38242L7.40703 13.4437H7.59336L7.96602 13.8164V13.95H7.80781V13.8445L7.71289 13.9078L7.91328 14.0941L7.82188 14.1891L8.08555 14.4387V14.6145L7.63555 14.1891L7.72695 14.0941L7.52656 13.9078L7.70234 13.7637L7.58281 13.6582L7.37188 13.8551L6.9043 13.4156L7.36836 12.9797L7.5793 13.1766L7.70234 13.0711L7.52656 12.927L7.72695 12.7406L7.63555 12.6598L8.10313 12.2344ZM8.10313 13.0992V13.7637L7.98008 13.6406V13.507H7.87461L7.77969 13.4262L7.87461 13.3348H7.98008V13.2012L8.10313 13.0992ZM7.30508 13.3242L7.31914 13.4156V13.5105L7.21367 13.4156L7.30508 13.3242Z" fill="#383739"/>
<path id="Vector_23" d="M8.10293 12.2617V12.3918L7.81113 12.659L7.90254 12.7504L7.70566 12.9367L7.8252 13.0422V12.9121H7.95527V13.0316L7.58613 13.3762H7.43848L7.41035 13.2707H7.54395L7.38574 13.1371L7.06934 13.4289L7.38574 13.7102L7.54395 13.5766H7.41035L7.43848 13.4711H7.57207L7.96934 13.8156V13.9492H7.83926V13.8156L7.70918 13.907L7.92012 14.0934L7.82871 14.1883L8.12051 14.452V14.5855L7.66348 14.1883L7.7584 14.0934L7.57207 13.907L7.73027 13.7629L7.59668 13.6293L7.38574 13.8402L6.94629 13.4289L7.38574 13.0176L7.59668 13.218L7.73027 13.0844L7.57207 12.9367L7.7584 12.7504L7.66348 12.673L8.10293 12.2617ZM8.10293 13.109V13.7348L7.99746 13.6434V13.5098H7.87441L7.79355 13.4289L7.87441 13.348H8.00449V13.218L8.10293 13.109ZM7.30488 13.348V13.4816L7.22754 13.4148L7.30488 13.348Z" fill="#FFC72C"/>
</g>
<path id="Vector_24" d="M3.63906 15.9156C3.65313 16.0211 3.73398 16.102 3.75859 16.2074C3.80078 16.102 3.82891 16.007 3.80078 15.891C3.78672 15.7961 3.71992 15.7293 3.70586 15.6484C3.62852 15.7187 3.61445 15.8242 3.63906 15.9156ZM3.61445 16.3516C3.68271 16.4434 3.77354 16.5161 3.87813 16.5625C3.85352 16.4711 3.89219 16.4219 3.93086 16.3516C3.98711 16.2742 4.01172 16.2074 3.97305 16.1125C3.95265 16.1607 3.92541 16.2057 3.89219 16.2461C3.85352 16.2988 3.82539 16.3516 3.81133 16.4324C3.76174 16.3909 3.72513 16.336 3.70586 16.2742C3.66243 16.1959 3.59787 16.1313 3.51953 16.0879C3.54766 16.1793 3.56172 16.2742 3.61445 16.3516ZM3.98711 16.6188C3.98711 16.6715 3.95898 16.7242 3.97305 16.777L3.81133 16.6469C3.73047 16.6083 3.65861 16.5532 3.60039 16.4852C3.60039 16.5906 3.65312 16.6855 3.73398 16.7523L4.03984 16.9246C4.02578 16.8297 4.06445 16.7488 4.09258 16.6574C4.10472 16.6164 4.10626 16.5729 4.09703 16.5311C4.08781 16.4893 4.06813 16.4505 4.03984 16.4184C4.03984 16.4887 4.01172 16.552 3.98711 16.6188ZM4.19805 16.9633L4.30352 17.1637C4.21211 17.1355 4.11719 17.0687 4.03984 17.0301C3.93438 16.9633 3.81133 16.9387 3.71992 16.8578C3.75859 17.0336 3.87812 17.125 4.05039 17.1918C4.18398 17.227 4.27891 17.2023 4.42305 17.2691C4.40758 17.1678 4.37676 17.0694 4.33164 16.9773L4.22617 16.777C4.19645 16.8342 4.18656 16.8998 4.19805 16.9633ZM4.5707 17.2305C4.60407 17.2878 4.64969 17.337 4.7043 17.3746C4.5707 17.3746 4.43711 17.2973 4.30352 17.2973C4.22617 17.2973 4.14531 17.3219 4.05039 17.2973C4.15586 17.3746 4.26133 17.4309 4.39844 17.4555C4.55664 17.4695 4.7043 17.4309 4.87656 17.4555C4.80375 17.3927 4.74402 17.3163 4.70078 17.2305C4.6375 17.125 4.5707 17.0441 4.43711 17.0301C4.48984 17.0828 4.53203 17.1637 4.5707 17.2305ZM5.06289 17.4695C4.80977 17.5082 4.58477 17.5609 4.33164 17.5609C4.59556 17.6628 4.88705 17.6678 5.1543 17.575C5.27594 17.5207 5.40781 17.4931 5.54102 17.4941C5.77388 17.5202 5.98782 17.6348 6.13867 17.8141L6.21602 17.7473C6.05781 17.6159 5.87173 17.5222 5.67193 17.4735C5.47212 17.4248 5.26383 17.4222 5.06289 17.466V17.4695Z" fill="#FFC72C"/>
<path id="Vector_25" d="M3.85293 2.10977L3.45215 1.86367V1.30117L3.85293 1.06211V0.75625L4.21152 0.53125H4.51738L5.08691 0.214844H6.28223L6.82715 0.53125H7.11895L7.4916 0.75625V1.06211L7.88887 1.30117V1.86367L7.4916 2.10273V2.40859L7.11895 2.61953H6.82715L6.26816 2.93945H5.07285L4.50332 2.62305H4.21152L3.85293 2.42266V2.10977Z" fill="#383739"/>
<path id="Vector_26" d="M5.07285 0.226562L4.51738 0.542969H4.22559L3.85293 0.757422V1.06328L3.45215 1.30234V1.86484L3.85293 2.10391V2.40977L4.21152 2.6207H4.51738L5.07285 2.94062H6.26816L6.83066 2.62422H7.11895L7.47754 2.40977V2.10391L7.87832 1.86484V1.30234L7.47754 1.06328V0.757422L7.11895 0.546484H6.82715L6.26816 0.230078L5.07285 0.226562ZM5.10098 0.360156H6.24356L6.78848 0.666016H7.08027L7.34746 0.824219V1.13008L7.74473 1.36914V1.79453L7.34746 2.03359V2.33945L7.08027 2.51523H6.78848L6.24356 2.81406H5.11504L4.54199 2.52227H4.25371L3.99004 2.34648V2.04414L3.58574 1.80859V1.3832L3.98652 1.14414V0.827734L4.2502 0.666016H4.54199L5.10098 0.360156Z" fill="#00843D"/>
<path id="Vector_27" d="M5.66016 1.59336V0.359375H5.09766L4.53867 0.675781H4.25391L3.99023 0.8375V1.14336L3.60352 1.38242V1.58281H5.67773V2.79219H6.24727L6.80625 2.48633H7.09805L7.36172 2.32461V2.01875L7.7625 1.77969V1.59336H5.66016Z" fill="#FFC72C"/>
<path id="Vector_28" d="M3.59961 1.59336V1.79375L3.99687 2.03281V2.33867L4.26406 2.49687H4.54531L5.10078 2.80273H5.65977V1.59336H7.73398V1.39648L7.3332 1.15742V0.841016L7.09414 0.665234H6.80234L6.23984 0.359375H5.68437V1.59336H3.59961Z" fill="white"/>
<g id="Group_7">
<path id="Vector_29" d="M4.45059 0.798047L4.35566 0.703125L4.26426 0.755859L4.35566 0.850781L4.22559 0.931641H4.51738L4.74238 1.14258L4.82324 1.06172L4.59473 0.850781V0.717187L4.45059 0.798047Z" fill="#383739"/>
<path id="Vector_30" d="M4.91484 0.744922L4.80938 0.664062L4.71445 0.716797L4.80938 0.808203L4.67578 0.889062H4.95703L5.19258 1.1L5.26289 1.02266L5.04844 0.811719V0.678125L4.91484 0.744922ZM4.40859 1.06133L4.30313 0.969922L4.21172 1.02266L4.31719 1.11406L4.18359 1.19492H4.45078L4.68984 1.40586L4.7707 1.32852L4.54219 1.11758V0.983984L4.40859 1.06133Z" fill="#383739"/>
<path id="Vector_31" d="M5.6709 0.34375H5.42129L5.28769 0.477344H5.04863L4.8623 0.56875L4.91504 0.663672L5.07324 0.582813H5.14355L5.40723 0.874609L5.6709 0.702344V0.34375Z" fill="#383739"/>
<path id="Vector_32" d="M4.35918 0.714453L4.43652 0.795313L4.36973 0.833984L4.27832 0.753125L4.35918 0.714453ZM4.57012 0.728516V0.862109L4.79512 1.05898L4.72832 1.1293L4.51738 0.914844H4.28887L4.58418 0.728516H4.57012ZM4.80918 0.675781L4.89004 0.753125L4.81973 0.795313L4.74238 0.714453L4.80918 0.675781ZM5.02012 0.686328V0.819922L5.24863 1.02031L5.19238 1.08711L4.96738 0.876172H4.72832L5.02012 0.686328Z" fill="#D22630"/>
<path id="Vector_33" d="M4.3168 0.971094L4.4082 1.05195L4.33086 1.10469L4.25 1.00977L4.3168 0.971094ZM4.5418 0.985156V1.11523L4.75273 1.31563L4.70352 1.38242L4.475 1.17148H4.25352L4.5418 0.985156ZM5.65977 0.359375H5.44883L5.3082 0.492969H5.04453L4.88633 0.570313L4.91094 0.651172L5.06914 0.570313H5.15L5.38906 0.851563L5.65625 0.689844L5.65977 0.359375Z" fill="#D22630"/>
<path id="Vector_34" d="M4.45059 2.38828L4.35566 2.46914L4.26426 2.39883L4.35566 2.32148L4.22559 2.24414H4.51738L4.74238 2.01562L4.82324 2.09648L4.59473 2.30742V2.45859L4.45059 2.38828Z" fill="#383739"/>
<path id="Vector_35" d="M4.91484 2.41602L4.80938 2.50742L4.71445 2.44063L4.80938 2.36328L4.67578 2.28242H4.95703L5.19258 2.05742L5.26289 2.13477L5.03437 2.3457V2.49336L4.91484 2.41602ZM4.40859 2.12422L4.30313 2.21562L4.21172 2.14883L4.31719 2.05742L4.18359 1.98711H4.45078L4.68984 1.76562L4.7707 1.84297L4.54219 2.05391V2.1875L4.40859 2.12422Z" fill="#383739"/>
<path id="Vector_36" d="M5.6709 2.81367H5.42129L5.28769 2.69414H5.04863L4.8623 2.60273L4.91504 2.49727L5.07324 2.58867H5.14355L5.40723 2.29688L5.6709 2.45508V2.81367Z" fill="#383739"/>
<path id="Vector_37" d="M4.35918 2.4582L4.43652 2.37734L4.36973 2.32461L4.27832 2.40547L4.35918 2.4582ZM4.57012 2.44414V2.31055L4.79512 2.09961L4.72832 2.04688L4.51738 2.25781H4.28887L4.58418 2.44414H4.57012ZM4.80918 2.49687L4.89004 2.41953L4.81973 2.3668L4.74238 2.44414L4.80918 2.49687ZM5.02012 2.47227V2.33867L5.24863 2.13828L5.19238 2.08555L4.96738 2.29648H4.72832L5.02012 2.47227Z" fill="#D22630"/>
<path id="Vector_38" d="M4.3168 2.19023L4.4082 2.11289L4.33086 2.0707L4.25 2.15156L4.3168 2.19023ZM4.5418 2.19023V2.06016L4.75273 1.84922L4.70352 1.79297L4.475 2.00391H4.25352L4.5418 2.19023ZM5.65977 2.80195H5.44883L5.31172 2.68242H5.04805L4.88984 2.59102L4.91445 2.51016L5.07266 2.60508H5.15352L5.39258 2.30977L5.65977 2.47148V2.80195Z" fill="#D22630"/>
<path id="Vector_39" d="M4.28887 1.19336L4.16934 1.14062L4.0252 1.24609V1.27422L3.78613 1.59062L4.0252 1.89648V1.92461L4.16934 2.03008L4.28887 1.99141L4.22559 1.93867V1.85781L4.2502 1.81914H4.38379V1.36563H4.2502L4.22559 1.34102V1.24609L4.28887 1.19336Z" fill="#383739"/>
<path id="Vector_40" d="M4.03945 1.26172L4.16953 1.15625L4.26445 1.19492L4.21172 1.23359V1.32852L4.23633 1.36719H4.36992V1.79258H4.23633L4.21172 1.83125V1.93672L4.26445 1.97891L4.16953 2.00703L4.03945 1.91211V1.8875L3.79688 1.58164L4.03594 1.28984L4.03945 1.26172Z" fill="#D22630"/>
</g>
<g id="Group_8">
<path id="Vector_41" d="M6.88008 0.798047L6.975 0.703125L7.08047 0.755859L6.975 0.850781L7.10859 0.931641H6.84141L6.60234 1.14258L6.52148 1.06172L6.75 0.850781V0.717187L6.88008 0.798047Z" fill="#383739"/>
<path id="Vector_42" d="M6.42988 0.744922L6.52129 0.664062L6.61621 0.716797L6.52129 0.808203L6.65488 0.889062H6.39121L6.14863 1.1L6.07129 1.02266L6.29629 0.811719V0.678125L6.42988 0.744922ZM6.92207 1.06133L7.01348 0.969922L7.1084 1.02266L7.01348 1.11406L7.14707 1.19492H6.86582L6.63027 1.40586L6.55996 1.32852L6.77441 1.10352V0.969922L6.92207 1.06133Z" fill="#383739"/>
<path id="Vector_43" d="M5.6709 0.34375H5.90996L6.04355 0.477344H6.28262L6.46895 0.56875L6.43379 0.667187L6.25801 0.586328H6.19473L5.9416 0.878125L5.67441 0.705859L5.6709 0.34375Z" fill="#383739"/>
<path id="Vector_44" d="M6.98926 0.714453L6.89434 0.795313L6.97519 0.833984L7.05254 0.753125L6.98926 0.714453ZM6.76074 0.728516V0.862109L6.5498 1.05898L6.60254 1.1293L6.82754 0.914844H7.05254L6.7748 0.728516H6.76074ZM6.52168 0.675781L6.44434 0.753125L6.51113 0.795313L6.60254 0.714453L6.52168 0.675781ZM6.31074 0.686328V0.819922L6.11035 1.02031L6.16309 1.08711L6.37402 0.876172H6.60254L6.31074 0.686328Z" fill="#D22630"/>
<path id="Vector_45" d="M7.01387 0.971094L6.93301 1.05195L7.00332 1.10469L7.09473 1.00977L7.01387 0.971094ZM6.80293 0.985156V1.11523L6.57441 1.31563L6.64473 1.38242L6.86973 1.17148H7.09473L6.80293 0.985156ZM5.6709 0.359375H5.90996L6.04707 0.492969H6.28613L6.46191 0.570313L6.41973 0.651172L6.27207 0.570313H6.19473L5.9416 0.851563L5.67441 0.689844L5.6709 0.359375Z" fill="#D22630"/>
<path id="Vector_46" d="M6.88008 2.38828L6.975 2.46914L7.08047 2.39883L6.975 2.32148L7.10859 2.24414H6.84141L6.60234 2.01562L6.52148 2.09648L6.75 2.30742V2.45859L6.88008 2.38828Z" fill="#383739"/>
<path id="Vector_47" d="M6.42988 2.41602L6.52129 2.50742L6.61621 2.44063L6.52129 2.36328L6.65488 2.28242H6.39121L6.14863 2.05742L6.07129 2.13477L6.29629 2.3457V2.49336L6.42988 2.41602ZM6.92207 2.12422L7.01348 2.21562L7.1084 2.14883L7.01348 2.05742L7.14707 1.98711H6.86582L6.63027 1.76562L6.55996 1.84297L6.78848 2.05391V2.20156L6.92207 2.12422Z" fill="#383739"/>
<path id="Vector_48" d="M5.6709 2.81367H5.90996L6.04355 2.69414H6.28262L6.46895 2.60273L6.43027 2.49727L6.25449 2.58867H6.19121L5.93809 2.29688L5.6709 2.45508V2.81367Z" fill="#383739"/>
<path id="Vector_49" d="M6.98926 2.4582L6.89434 2.37734L6.97519 2.32461L7.05254 2.40547L6.98926 2.4582ZM6.76074 2.44414V2.31055L6.5498 2.09961L6.60254 2.04688L6.82754 2.25781H7.05254L6.7748 2.44414H6.76074ZM6.52168 2.49687L6.44434 2.41953L6.51113 2.3668L6.60254 2.44414L6.52168 2.49687ZM6.31074 2.47227V2.33867L6.11035 2.15234L6.16309 2.09961L6.3916 2.31055H6.6166L6.3248 2.48633L6.31074 2.47227Z" fill="#D22630"/>
<path id="Vector_50" d="M7.01387 2.19023L6.93301 2.11289L7.00332 2.0707L7.09473 2.15156L7.01387 2.19023ZM6.80293 2.19023V2.06016L6.57441 1.84922L6.64473 1.79297L6.86973 2.00391H7.09473L6.80293 2.19023ZM5.6709 2.78789H5.90996L6.04707 2.67188H6.28613L6.46191 2.58047L6.41973 2.49961L6.27207 2.59453H6.19473L5.9416 2.30273L5.67441 2.46094L5.6709 2.78789Z" fill="#D22630"/>
<path id="Vector_51" d="M7.04219 1.19336L7.17227 1.14062L7.30586 1.24609V1.27422L7.57305 1.59062L7.30586 1.88594V1.91055L7.14766 2.01602L7.02812 1.97734L7.10898 1.92461V1.85781L7.08086 1.81914H6.94727V1.36563H7.08086L7.10898 1.34102V1.24609L7.04219 1.19336Z" fill="#383739"/>
<path id="Vector_52" d="M7.30606 1.26172L7.16191 1.15625L7.08105 1.19492L7.13379 1.23359V1.32852L7.09512 1.36719H6.97559V1.79258H7.10918L7.13379 1.83125V1.93672L7.08105 1.97891L7.16191 2.00703L7.29199 1.91211V1.8875L7.53105 1.58164L7.30606 1.28984V1.26172Z" fill="#D22630"/>
</g>
<path id="Vector_53" d="M4.09199 1.83359L4.02168 1.78086V1.75977L3.8916 1.58398L4.0252 1.41523V1.38711L4.09199 1.33438L4.19746 1.42578H4.13066L4.23613 1.53125H4.46465L4.63691 1.40117V0.996875H5.08691L5.61777 0.680469V0.599609L5.52637 0.546875H5.5123L5.4209 0.599609L5.40684 0.652344L5.34004 0.560937L5.47363 0.441406H5.4877L5.6459 0.335938H5.69863L5.84629 0.441406H5.8709L6.00449 0.560937L5.92363 0.652344V0.599609L5.83223 0.546875H5.8041L5.73027 0.599609V0.680469L6.25762 0.996875H6.69707V1.37305L6.8834 1.50664H7.11191L7.20332 1.41523H7.13652L7.25605 1.32031L7.32285 1.37305V1.40117L7.45645 1.57344L7.32285 1.7457V1.77383L7.25605 1.82656L7.13652 1.72461H7.20332L7.11191 1.6332H6.8834L6.69707 1.7668V2.13594H6.24707L5.72676 2.46289V2.54375L5.8041 2.59648H5.83223L5.90957 2.54375L5.92363 2.50156L6.00449 2.59648L5.8709 2.70195H5.84629L5.69863 2.80742H5.6459L5.4877 2.70195H5.47363L5.34004 2.59648L5.40684 2.50156L5.4209 2.54375L5.5123 2.59648H5.52637L5.60723 2.54375V2.46289L5.08691 2.14648H4.65098V1.7668L4.4752 1.6332H4.25371L4.14824 1.72461H4.21504L4.09199 1.83359Z" fill="#383739"/>
<path id="Vector_54" d="M5.67109 2.61641L5.72734 2.65859L5.67109 2.71133V2.61641ZM5.49883 2.69727L5.63242 2.80273H5.66055V2.72539L5.57969 2.65508L5.66055 2.60586V2.44414L5.09805 2.09961H4.70078V1.75508L4.46172 1.59336H4.1418L4.06094 1.68828L3.98359 1.59336H3.88867L4.02227 1.75508V1.77969L4.06094 1.82187L4.15586 1.75156H4.11367V1.74102L4.21914 1.63555H4.46172L4.64805 1.76914V2.13828H5.08398L5.61484 2.47227V2.56367L5.5375 2.61641H5.49531L5.40391 2.56367V2.525L5.35117 2.5918L5.48477 2.6832L5.49883 2.69727ZM4.07852 1.50195L4.14531 1.58281H4.0082L4.07852 1.50195ZM5.67109 0.464844L5.60781 0.507031L5.66055 0.542187L5.67109 0.464844ZM7.18633 1.59336L7.23906 1.66367L7.30937 1.59336H7.18633ZM5.84688 0.468359L5.69922 0.359375H5.67109V0.450781L5.75195 0.507031L5.67109 0.570313V0.732031L6.24414 1.0625H6.64141V1.41055L6.85234 1.58281H7.17227L7.25313 1.48789L7.34805 1.58281H7.43945L7.30586 1.42109V1.39648L7.25313 1.34375L7.17227 1.40703H7.21445V1.41758L7.10898 1.53711H6.86992L6.68359 1.39297V1.02031H6.24414L5.71328 0.703906V0.608984L5.80469 0.538672H5.83281L5.92422 0.608984V0.633594L5.97695 0.566797L5.85742 0.461328L5.84688 0.468359Z" fill="#FFC72C"/>
<path id="Vector_55" d="M5.66055 2.70781L5.60781 2.65859L5.66055 2.61641V2.70781ZM4.14531 1.59336L4.07852 1.66367L4.01172 1.59336H4.14531ZM5.84688 2.69727L5.69922 2.80273H5.67109V2.72539L5.75195 2.65508L5.67109 2.60586V2.44414L6.23359 2.09961H6.64141V1.75508L6.85234 1.59336H7.17227L7.25313 1.68828L7.34805 1.59336H7.43945L7.30586 1.75508V1.77969L7.25313 1.82187L7.17227 1.75156H7.21445V1.74102L7.10898 1.63555H6.86992L6.68359 1.76914V2.13828H6.24414L5.71328 2.47227V2.56367L5.80469 2.61641H5.83281L5.92422 2.56367V2.525L5.97695 2.5918L5.85742 2.6832L5.84688 2.69727ZM7.25313 1.50195L7.20039 1.58281H7.33398L7.25313 1.50195ZM5.49883 0.464844L5.63242 0.359375H5.66055V0.450781L5.57969 0.507031L5.66055 0.570313V0.732031L5.09805 1.0625H4.70078V1.41055L4.46172 1.59336H4.1418L4.06094 1.50195L3.98359 1.59336H3.88867L4.02227 1.43516V1.41055L4.06094 1.3543L4.15586 1.42461H4.11367V1.43516L4.21914 1.55469H4.46172L4.64805 1.41055V1.02031H5.08398L5.61484 0.703906V0.608984L5.5375 0.538672H5.49531L5.40391 0.608984V0.633594L5.35117 0.566797L5.48477 0.461328L5.49883 0.464844ZM5.67461 0.545703L5.72734 0.507031L5.67109 0.464844L5.67461 0.545703Z" fill="white"/>
<path id="Vector_56" d="M5.66016 1.59336V0.746094L5.11523 1.0625H4.71094V1.41055L4.5 1.56875H5.66719V2.41953L6.22969 2.07148H6.62695V1.74102L6.83789 1.58281L5.66016 1.59336Z" fill="#00843D"/>
<path id="Vector_57" d="M4.5 1.5918L4.70391 1.75352V2.08398H5.09766L5.65664 2.42852V1.58125H6.83789L6.62695 1.41953V1.06094H6.22617L5.66719 0.730469V1.5918H4.5Z" fill="#D22630"/>
<path id="Vector_58" d="M5.07266 1.16914L4.98125 1.07422L4.87578 1.14102L4.98125 1.23242L4.84766 1.30273H5.11484L5.35391 1.52773L5.43125 1.44688L5.20625 1.23594V1.10234L5.07266 1.16914ZM6.26797 1.9918L6.36289 2.0832L6.4543 2.03047L6.36289 1.93906L6.48242 1.8582H6.21523L5.97617 1.64727L5.90938 1.72461L6.13789 1.93555V2.07266L6.26797 1.9918ZM5.07266 1.9918L4.98125 2.0832L4.87578 2.03047L4.98125 1.93906L4.84766 1.8582H5.11484L5.35391 1.64727L5.43125 1.72461L5.20625 1.93555V2.07266L5.07266 1.9918ZM6.26797 1.16914L6.36289 1.07422L6.4543 1.14102L6.36289 1.23242L6.48242 1.30273H6.21523L5.97617 1.52773L5.90938 1.44688L6.13789 1.23594V1.10234L6.26797 1.16914Z" fill="#383739"/>
<path id="Vector_59" d="M6.36289 2.07578L6.26797 1.99492L6.34883 1.94219L6.42969 2.01953L6.36289 2.07578ZM6.15195 2.06172V1.92812L5.92344 1.72773L5.97617 1.66094L6.20469 1.87188H6.44375L6.15195 2.06172ZM4.96719 1.10547L5.06211 1.18281L4.9918 1.225L4.90039 1.14414L4.96719 1.10547ZM5.19219 1.10547V1.23203L5.40313 1.44297L5.35391 1.49922L5.12891 1.28828H4.91797L5.18164 1.1125L5.19219 1.10547Z" fill="#D22630"/>
<path id="Vector_60" d="M6.36289 1.10547L6.26797 1.18281L6.34883 1.225L6.42969 1.14414L6.36289 1.10547ZM6.15195 1.10547V1.23203L5.92344 1.46055L5.97617 1.51328L6.20469 1.30234H6.44375L6.15195 1.10547ZM4.96719 2.07227L5.06211 1.99492L4.9918 1.94219L4.90039 2.01953L4.96719 2.07227ZM5.19219 2.06172V1.92812L5.40313 1.72773L5.35391 1.66094L5.12891 1.87188H4.91797L5.20625 2.06172H5.19219Z" fill="#00843D"/>
<path id="Vector_61" d="M6.26855 1.59258L5.6709 1.99336L5.07324 1.59258L5.6709 1.19531L6.26855 1.59258Z" fill="#383739"/>
<path id="Vector_62" d="M5.66016 1.19531L5.09766 1.59258H6.24023L5.6707 1.19531V1.95117L6.24375 1.59258H5.11523L5.6707 1.96875L5.66016 1.19531Z" fill="white"/>
<path id="Vector_63" d="M5.83262 1.72656V1.83203H5.51621V1.72656H5.30176V1.44531H5.5127V1.33984H5.8291V1.44531H6.02949V1.7125L5.83262 1.72656Z" fill="#383739"/>
<path id="Vector_64" d="M5.52695 1.35156V1.45703H5.31602V1.58008H5.66055V1.35156H5.52695ZM5.67109 1.58008H6.01914V1.44648H5.81875V1.35156H5.68516V1.58008H5.67109ZM5.3125 1.58008V1.71016H5.52344V1.81563H5.66055V1.59062L5.3125 1.58008ZM5.67109 1.81914H5.80469V1.71367H6.01562V1.58008H5.67109V1.81914Z" fill="#D22630"/>
<path id="Vector_65" d="M6.67969 6.11016V5.94141H7.17188V5.75508H7.65V4.17305H7.17188V4.00078H6.69375V3.82852H6.21563V3.65625H5.15391V3.83203H4.65117V4.00078H4.16953V4.17656H3.69141V5.76562H4.16953V5.93789H4.65117V6.11367H5.1293V6.28242H6.20508V6.11016H6.67969Z" fill="#383739"/>
<path id="Vector_66" d="M5.14004 3.66797V3.84023H4.66191V4.01602H4.18379V4.18477H3.71973V5.73867H4.19785V5.925H4.67598V6.10078H5.1541V6.26953H6.21582V6.09727H6.6834V5.925H7.16152V5.73867H7.63965V4.18477H7.16152V4.0125H6.67988V3.8543H6.20176V3.67852L5.14004 3.66797ZM5.27363 3.80156H6.07168V3.97383H6.5498V4.14609H7.02793V4.31836H7.50605V5.61914H7.02793V5.79492H6.5498V5.96719H6.07168V6.13945H5.27363V5.97773H4.78145V5.80547H4.30332V5.6332H3.8252V4.33242H4.30332V4.15664H4.78145V3.98789H5.25957L5.27363 3.80156Z" fill="#FFC72C"/>
<path id="Vector_67" d="M4.80977 5.95195V5.77617H4.33164V5.60742H3.85352V4.33125H4.33164V4.15547H4.80977V3.98672H5.28789V3.79688H6.05781V3.9832H6.53594V4.15547H7.01406V4.32773H7.49219V5.60391H7.01406V5.77617H6.53945V5.94844H6.06133V6.1207H5.28789V5.94492L4.80977 5.95195Z" fill="#D22630"/>
<path id="Vector_68" d="M4.91484 4.11836L4.78125 4.01289V4.19922L4.67578 4.28008V4.16055L4.55625 4.26602L4.45078 4.16055V4.28008L4.31719 4.18516V4.36094L4.21172 4.43828V4.33281L4.07812 4.42422L3.94453 4.33281V4.43828L3.83906 4.34687V4.84961H3.69141V5.08867H3.825V5.58086L3.95859 5.48945V5.59492L4.09219 5.5L4.21172 5.59492V5.48945L4.31719 5.5668V5.74258L4.45078 5.64766V5.76719L4.55625 5.66172L4.67578 5.76719V5.64766L4.79531 5.72852V5.91133L4.92891 5.80586V5.93945L5.03437 5.83398L5.16797 5.93945V5.80586L5.27344 5.90078V6.08711L5.43164 5.93945V6.11523L5.6707 5.97812L5.89922 6.11172V5.94297L6.07148 6.09062V5.9043L6.17695 5.80937V5.94297L6.31055 5.8375L6.41602 5.94297V5.80937L6.54961 5.91484V5.73203L6.66914 5.65117V5.7707L6.77461 5.66523L6.89414 5.7707V5.65117L7.02773 5.74258V5.58438L7.1332 5.50352V5.60898L7.2668 5.51758L7.38633 5.6125V5.50703L7.50586 5.59844V5.09219H7.63945V4.85312H7.50586V4.35039L7.37227 4.4418V4.33633L7.25273 4.42773L7.11914 4.33633V4.4418L7.03125 4.36094V4.18516L6.89766 4.28008V4.16055L6.77813 4.26602L6.67266 4.16055V4.28008L6.53906 4.19922V4.01289L6.41953 4.10781V3.97422L6.3 4.10781L6.18047 3.97422V4.10781L6.075 4.02695V3.84062L5.89922 3.98828V3.8125L5.67422 3.94609L5.43516 3.8125V3.98828L5.27695 3.84062V4.02695L5.15742 4.10781V3.97422L5.03789 4.10781L4.91836 3.97422L4.91484 4.11836Z" fill="#383739"/>
<path id="Vector_69" d="M3.97227 4.46523V4.35977L4.07773 4.43711L4.19727 4.35625V4.46172L4.3168 4.37031V5.56563L4.1832 5.47422V5.57969L4.07773 5.49883L3.97227 5.57969V5.47422L3.83867 5.56563V5.07344H3.70508V4.8625H3.83867V4.38437L3.97227 4.46523ZM4.92852 4.01172L5.03398 4.10664L5.13945 4.01172V4.14531L5.27305 4.03984V5.89961L5.13945 5.80469V5.92422L5.03398 5.81875L4.92852 5.92422V5.79062L4.79492 5.89609V4.04336L4.92852 4.13477V4.01172ZM6.40508 4.01172L6.29961 4.10664L6.19063 4.01172V4.14531L6.05703 4.03984V5.89961L6.19063 5.80469V5.92422L6.29609 5.81875L6.40156 5.92422V5.79062L6.53516 5.89609V4.04336L6.40156 4.13477L6.40508 4.01172ZM7.37187 4.46523V4.35977L7.25234 4.43711L7.14688 4.35625V4.46172L7.01328 4.37031V5.56563L7.14688 5.47422V5.57969L7.25234 5.49883L7.37187 5.57969V5.47422L7.49141 5.56563V5.07344H7.625V4.8625H7.48789V4.38437L7.37187 4.46523Z" fill="#00843D"/>
<path id="Vector_70" d="M4.46465 4.18281L4.55606 4.27773L4.66152 4.18281V4.28828L4.79512 4.21094V5.72266L4.66152 5.64531V5.75078L4.55606 5.65937L4.46465 5.75078V5.64531L4.33105 5.72617V4.21094L4.46465 4.28828V4.18281ZM5.44902 4.01055L5.2873 3.86641V6.0707L5.44551 5.92305V6.10938L5.67051 5.96523L5.88145 6.09531V5.92305L6.05723 6.0707V3.86641L5.88145 4.01055V3.82422L5.67051 3.95781L5.44551 3.82422L5.44902 4.01055ZM6.87988 4.18633L6.77441 4.27773L6.68301 4.18281V4.28828L6.54941 4.21094V5.72266L6.68301 5.64531V5.75078L6.77441 5.65937L6.87988 5.75078V5.64531L7.01348 5.72617V4.21094L6.87988 4.28828V4.18633Z" fill="#FFC72C"/>
<g id="Group_9">
<path id="Vector_71" d="M4.025 4.75703L4.07773 4.77109L4.13047 4.75703C4.15009 4.72796 4.16363 4.69522 4.17028 4.66079C4.17692 4.62635 4.17653 4.59092 4.16914 4.55664L4.11641 4.62344L4.07773 4.5707L4.03906 4.62344L3.98633 4.55664C3.98633 4.62344 3.98633 4.7043 4.02148 4.75703H4.025ZM4.53125 4.62344L4.48906 4.58477V4.50039L4.39766 4.58125L4.55586 4.73945L4.71406 4.58125L4.62266 4.50039V4.58125L4.59453 4.61992V4.48633L4.66484 4.41953L4.55937 4.34219L4.46445 4.41953L4.53125 4.48984V4.62344ZM5.00937 4.46523L4.96719 4.43711V4.35977L4.87578 4.44063L5.03398 4.59883L5.19219 4.44063L5.10078 4.35977V4.44063L5.07266 4.46875V4.33516L5.14297 4.28242L5.0375 4.1875L4.94258 4.28242L5.00937 4.33516V4.46523Z" fill="#383739"/>
<path id="Vector_72" d="M4.07793 4.59375L4.1166 4.65L4.15879 4.59375C4.15879 4.66406 4.15879 4.71328 4.1166 4.72734C4.11167 4.73267 4.10568 4.73692 4.09903 4.73982C4.09237 4.74273 4.08519 4.74423 4.07793 4.74423C4.07067 4.74423 4.06349 4.74273 4.05683 4.73982C4.05018 4.73692 4.04419 4.73267 4.03926 4.72734C4.01113 4.71328 3.99707 4.66055 3.99707 4.59375L4.0498 4.65L4.07793 4.59375ZM5.0623 4.33008V4.50234L5.11504 4.43555V4.38281L5.18184 4.43555L5.04824 4.56914L4.90059 4.43555L4.95332 4.38281V4.43555L5.02363 4.50234V4.32656L4.95332 4.27734L5.03418 4.20703L5.11504 4.27734L5.0623 4.33008Z" fill="white"/>
<path id="Vector_73" d="M4.58359 4.47539V4.65117L4.63633 4.58086V4.53516L4.70312 4.58789L4.56953 4.71797L4.42188 4.58789L4.47461 4.53516V4.58789L4.54492 4.65469V4.47891L4.47461 4.42617L4.55547 4.35938L4.63633 4.42969L4.58359 4.47539Z" fill="#D22630"/>
<path id="Vector_74" d="M7.30488 4.75703L7.25215 4.77109L7.19941 4.75703C7.16074 4.7043 7.16074 4.62344 7.16074 4.55664L7.22754 4.62344L7.25215 4.5707L7.29082 4.62344L7.36113 4.55664C7.36113 4.62344 7.36113 4.7043 7.30488 4.75703ZM6.8127 4.62344L6.84082 4.58477V4.50039L6.93223 4.58125L6.77402 4.73945L6.61582 4.58125L6.70723 4.50039V4.58125L6.74941 4.61992V4.48633L6.6791 4.41953L6.77402 4.34219L6.87949 4.41953L6.8127 4.48984V4.62344ZM6.32051 4.46523L6.3627 4.43711V4.35977L6.4541 4.44063L6.2959 4.59883L6.1377 4.44063L6.2291 4.35977V4.44063L6.26777 4.46875V4.33516L6.20449 4.28242L6.2959 4.1875L6.40137 4.28242L6.32402 4.33516L6.32051 4.46523Z" fill="#383739"/>
<path id="Vector_75" d="M7.25195 4.59375L7.22734 4.65L7.17109 4.59375C7.17109 4.66406 7.18516 4.71328 7.21328 4.72734C7.2179 4.73538 7.22456 4.74205 7.23259 4.74669C7.24061 4.75133 7.24972 4.75377 7.25898 4.75377C7.26825 4.75377 7.27736 4.75133 7.28538 4.74669C7.2934 4.74205 7.30006 4.73538 7.30469 4.72734C7.33281 4.71328 7.34687 4.66055 7.34687 4.59375L7.29062 4.65L7.25195 4.59375ZM6.28164 4.33008V4.50234L6.21484 4.43555V4.38281L6.16211 4.43555L6.2957 4.56914L6.4293 4.43555L6.37656 4.38281V4.43555L6.32383 4.50234V4.32656L6.37656 4.27734L6.2957 4.20703L6.21484 4.27734L6.28164 4.33008Z" fill="white"/>
<path id="Vector_76" d="M6.76016 4.47539V4.65117L6.69336 4.58086V4.53516L6.64062 4.58789L6.77422 4.71797L6.90781 4.58789L6.85508 4.53516V4.58789L6.80234 4.65469V4.47891L6.85508 4.42617L6.77422 4.35938L6.69336 4.42969L6.76016 4.47539Z" fill="#D22630"/>
<path id="Vector_77" d="M5.84609 4.51758L5.80391 4.44727L5.9375 4.33125L5.80391 4.23633V4.30664L5.76523 4.3418V4.21172L5.88477 4.13086L5.67383 3.97266L5.45938 4.13086L5.57891 4.22578V4.35586L5.52617 4.30313V4.23633L5.39258 4.33125L5.52617 4.46484L5.4875 4.53164L5.84609 4.51758Z" fill="#383739"/>
<path id="Vector_78" d="M5.49824 4.51641L5.55098 4.44609L5.4209 4.33008L5.5123 4.25977V4.30195L5.59316 4.37227V4.21055L5.47363 4.12969L5.67051 3.99609L5.85684 4.12969L5.75137 4.21055V4.36875L5.83223 4.30195V4.26328L5.92363 4.33008L5.79004 4.46367L5.83223 4.51641H5.49824Z" fill="#D22630"/>
<path id="Vector_79" d="M5.5791 4.1293L5.67051 4.19609L5.76543 4.1293L5.67051 4.0625L5.5791 4.1293Z" fill="#383739"/>
<path id="Vector_80" d="M5.67012 4.07812L5.74043 4.13086L5.67012 4.18359L5.59277 4.13086L5.67012 4.07812Z" fill="#00843D"/>
</g>
<g id="Group_10">
<path id="Vector_81" d="M4.025 5.18289C4.0323 5.17696 4.04078 5.17265 4.04987 5.17022C4.05895 5.1678 4.06845 5.16732 4.07773 5.16882L4.13047 5.18289C4.14933 5.20964 4.16249 5.23999 4.16914 5.27204C4.1758 5.30409 4.17579 5.33716 4.16914 5.36922L4.11641 5.31297L4.07773 5.38328L4.03906 5.31297L3.98633 5.38328C3.98633 5.32703 3.98633 5.24968 4.02148 5.19343L4.025 5.18289ZM4.53125 5.31297L4.48906 5.35515V5.4325L4.39766 5.34109L4.55586 5.19343L4.71406 5.34109L4.62266 5.4325V5.35515L4.59453 5.31297V5.44656L4.66484 5.51687L4.55937 5.59422L4.46445 5.51336L4.53125 5.44656V5.31297ZM5.00937 5.46062L4.96719 5.49929V5.58015L4.87578 5.49929L5.03398 5.34109L5.19219 5.49929L5.10078 5.58015V5.49929L5.07266 5.46062V5.59422L5.14297 5.66101L5.0375 5.73836L4.94258 5.66101L5.00937 5.60828V5.46062Z" fill="#383739"/>
<path id="Vector_82" d="M4.07793 5.34032L4.1166 5.28758L4.15879 5.34032C4.15879 5.27352 4.15879 5.20673 4.1166 5.19266C4.11167 5.18734 4.10568 5.18309 4.09903 5.18019C4.09237 5.17728 4.08519 5.17578 4.07793 5.17578C4.07067 5.17578 4.06349 5.17728 4.05683 5.18019C4.05018 5.18309 4.04419 5.18734 4.03926 5.19266C4.01113 5.22079 3.99707 5.27352 3.99707 5.34032L4.0498 5.28758L4.07793 5.34032ZM5.0623 5.60751V5.43173L5.11504 5.50204V5.55126L5.18184 5.49852L5.04824 5.36844L4.90059 5.49852L4.95332 5.55126V5.49852L5.02363 5.43173V5.60751L4.95332 5.66024L5.03418 5.72704L5.11504 5.65673L5.0623 5.60751Z" fill="white"/>
<path id="Vector_83" d="M4.58359 5.44961V5.28789L4.63633 5.34062V5.39336L4.70312 5.34062L4.56953 5.20703L4.42188 5.34062L4.47461 5.39336V5.34414L4.54492 5.29141V5.44961L4.47461 5.50234L4.55547 5.57266L4.63633 5.50234L4.58359 5.44961Z" fill="#D22630"/>
<path id="Vector_84" d="M7.30488 5.18289C7.29758 5.17696 7.2891 5.17265 7.28002 5.17022C7.27093 5.1678 7.26143 5.16732 7.25215 5.16882L7.19941 5.18289C7.16074 5.23562 7.16074 5.31297 7.16074 5.36922L7.22754 5.2989L7.25215 5.36922L7.29082 5.2989L7.36113 5.36922C7.36113 5.31297 7.36113 5.23562 7.30488 5.18289ZM6.8127 5.31297L6.84082 5.35515V5.4325L6.93223 5.34109L6.77402 5.19343L6.61582 5.34109L6.70723 5.4325V5.35515L6.74941 5.31297V5.44656L6.6791 5.51687L6.77402 5.59422L6.87949 5.51336L6.8127 5.44656V5.31297ZM6.32051 5.44656L6.3627 5.48875V5.56609L6.4541 5.48875L6.2959 5.32703L6.1377 5.48875L6.2291 5.56609V5.48875L6.26777 5.44656V5.58015L6.20449 5.64695L6.2959 5.72781L6.40137 5.64695L6.32402 5.59422L6.32051 5.44656Z" fill="#383739"/>
<path id="Vector_85" d="M7.25195 5.34205L7.22734 5.28932L7.17109 5.34205C7.17109 5.27525 7.18516 5.20846 7.21328 5.19439C7.2179 5.18636 7.22456 5.17969 7.23259 5.17505C7.24061 5.17041 7.24972 5.16797 7.25898 5.16797C7.26825 5.16797 7.27736 5.17041 7.28538 5.17505C7.2934 5.17969 7.30006 5.18636 7.30469 5.19439C7.33281 5.22252 7.34687 5.27525 7.34687 5.34205L7.29062 5.28932L7.25195 5.34205ZM6.28164 5.60924V5.43346L6.21484 5.50377V5.55299L6.16211 5.50025L6.2957 5.37018L6.4293 5.50025L6.37656 5.55299V5.50025L6.32383 5.43346V5.60924L6.37656 5.66197L6.2957 5.72877L6.21484 5.65846L6.28164 5.60924Z" fill="white"/>
<path id="Vector_86" d="M6.76055 5.45V5.28828L6.69375 5.34102V5.39375L6.64453 5.34453L6.77813 5.21094L6.91172 5.34453L6.85898 5.39727V5.34453L6.80625 5.2918V5.45L6.85898 5.49219L6.77813 5.56953L6.69727 5.49219L6.76055 5.45Z" fill="#D22630"/>
<path id="Vector_87" d="M5.84609 5.40977L5.80391 5.47656L5.9375 5.61016L5.80391 5.70156V5.63477L5.76523 5.58203V5.71563L5.88477 5.80703L5.67383 5.95469L5.45938 5.80703L5.57891 5.71563V5.58203L5.52617 5.63477V5.70156L5.39258 5.61016L5.52617 5.47656L5.4875 5.40625L5.84609 5.40977Z" fill="#383739"/>
<path id="Vector_88" d="M5.49824 5.42188L5.55098 5.48867L5.4209 5.6082L5.5123 5.67148V5.61875L5.59316 5.55195V5.72773L5.47363 5.80508L5.67051 5.93867L5.85684 5.80508L5.75137 5.72773V5.55195L5.83223 5.62227V5.67148L5.92363 5.6082L5.79004 5.47461L5.83223 5.42188H5.49824Z" fill="#D22630"/>
<path id="Vector_89" d="M5.5791 5.80781L5.67051 5.73047L5.76543 5.80781L5.67051 5.87813L5.5791 5.80781Z" fill="#383739"/>
<path id="Vector_90" d="M5.67012 5.84883L5.74043 5.80664L5.67012 5.75391L5.59277 5.80664L5.67012 5.84883Z" fill="#00843D"/>
</g>
<path id="Vector_91" d="M7.37266 4.88477H7.17227V4.80742H6.53945L6.07187 4.51562H5.27383L4.82383 4.80742H4.16992V4.88828H3.95898V5.04648H4.16992V5.13789H4.82383L5.27383 5.42969H6.07187L6.52188 5.13789H7.16172V5.04648H7.37266V4.88477Z" fill="#383739"/>
<path id="Vector_92" d="M5.27305 4.51562L4.82305 4.82148H4.1832V4.89883H3.98633V5.03242H4.19727V5.11328H4.83359L5.28711 5.40508H6.08164L6.51758 5.11328H7.15742V5.01836H7.36836V4.91289H7.15742V4.83203H6.50703L6.06758 4.54023L5.27305 4.51562ZM5.27305 4.56836H6.05703L6.4543 4.83203V4.87422H6.92539V5.04648H6.46836V5.09922L6.05703 5.36641H5.28359L4.87578 5.09922V5.04648H4.4082V4.8707H4.87578V4.83555L5.27305 4.56836Z" fill="#D22630"/>
<path id="Vector_93" d="M6.05762 4.58594L6.45488 4.84961V4.8918H6.9084V5.05H6.45488V5.10273L6.05762 5.36992H5.28418L4.89043 5.10273V5.05H4.42285V4.91641H4.89043V4.86367L5.28769 4.59648L6.05762 4.58594Z" fill="#D22630"/>
<g id="Group_11">
<path id="Vector_94" d="M5.08691 5.1168L5.2627 5.25039L5.36816 5.16953L5.29785 5.1168L5.2627 5.14141L5.22051 5.1168L5.88496 4.62461H5.75137L5.08691 5.1168ZM5.44902 5.31016H5.58262L6.24707 4.81797L6.07129 4.68789L5.94121 4.76875L6.02207 4.82148L6.0748 4.7793L6.11348 4.82148L5.44902 5.31016ZM5.73027 5.31016H5.86035L5.1959 4.81797L5.25215 4.78281L5.2873 4.81797L5.35762 4.76875L5.25215 4.68789L5.07637 4.82148L5.73027 5.31016ZM6.11699 5.11328L6.0748 5.13789L6.02207 5.11328L5.95176 5.16602L6.0748 5.24688L6.24707 5.11328L5.58262 4.62109H5.44902L6.11699 5.11328ZM4.94629 4.96563L5.06582 5.04648L5.18535 4.96563L5.05176 4.88828L4.94629 4.96563Z" fill="#383739"/>
<path id="Vector_95" d="M5.55469 4.96797L5.6707 5.04883L5.79023 4.96797L5.66016 4.89062L5.55469 4.96797ZM6.39141 4.96797L6.25781 5.04883L6.15234 4.96797L6.26836 4.89062L6.39141 4.96797Z" fill="#383739"/>
<path id="Vector_96" d="M6.2291 5.11836L6.08496 5.23789L5.99004 5.16758L6.02871 5.13242L6.08496 5.16758L6.1377 5.11836L5.49785 4.64023H5.59277L6.2291 5.11836ZM5.83184 5.30469H5.73691L5.10059 4.82656L5.25879 4.70703L5.35371 4.77383L5.30098 4.80898L5.25879 4.77383L5.19199 4.82656L5.83184 5.30469ZM5.59277 5.30469H5.49785L6.1377 4.82656L6.08496 4.77383L6.02871 4.80898L5.99355 4.77383L6.08496 4.70352L6.2291 4.82656L5.59277 5.30469ZM5.73691 4.63672H5.83184L5.19199 5.11836L5.2623 5.17109L5.29746 5.13242L5.35371 5.16758L5.25879 5.23789L5.10059 5.11836L5.73691 4.63672Z" fill="#FFC72C"/>
<path id="Vector_97" d="M5.07285 4.91797L5.16777 4.9707L5.07285 5.04102L4.98145 4.9707L5.07285 4.91797ZM5.67051 4.91797L5.76543 4.9707L5.67051 5.04102L5.5791 4.9707L5.67051 4.91797ZM6.26816 4.91797L6.17676 4.9707L6.26816 5.04102L6.36309 4.9707L6.26816 4.91797Z" fill="#00843D"/>
</g>
<path id="Vector_98" d="M3.61445 8.22305L3.57227 8.28984L3.65313 8.35664L3.57227 8.40937L3.61445 8.47617L3.70586 8.49023L3.80078 8.41992L4.03984 8.55352V8.44805L3.89219 8.35664L4.02578 8.26172V8.13164L3.80078 8.28984L3.70586 8.20898L3.61445 8.22305ZM3.61445 7.79766L3.57227 7.86445L3.65313 7.93125L3.57227 7.99805L3.61445 8.05078L3.70586 8.06484L3.80078 7.99453L4.03984 8.13164V8.02617L3.89219 7.93125L4.02578 7.83633V7.70625L3.80078 7.86445L3.70586 7.78359L3.61445 7.79766ZM3.61445 8.90156L3.57227 8.83125L3.65313 8.76797L3.57227 8.71523L3.61445 8.64492L3.70586 8.63438L3.80078 8.70117L4.03984 8.56758V8.67305L3.89219 8.76797L4.02578 8.85938V8.99297L3.80078 8.83477L3.70586 8.91211L3.61445 8.90156ZM7.73125 8.22305L7.76992 8.28984L7.69258 8.35664L7.76992 8.40937L7.71719 8.47617L7.62578 8.49023L7.53086 8.41992L7.30586 8.55352V8.44805L7.43945 8.35664L7.30586 8.26172V8.13164L7.53086 8.28984L7.62578 8.20898L7.73125 8.22305ZM7.71719 7.79766L7.76992 7.86445L7.69258 7.93125L7.76992 7.99805L7.71719 8.05078L7.62578 8.06484L7.53086 7.99453L7.30586 8.13164V8.02617L7.43945 7.93125L7.30586 7.83633V7.70625L7.53086 7.86445L7.62578 7.78359L7.71719 7.79766ZM7.71719 8.90156L7.76992 8.83125L7.69258 8.76797L7.76992 8.71523L7.71719 8.64492L7.62578 8.63438L7.53086 8.70117L7.30586 8.56758V8.67305L7.43945 8.76797L7.30586 8.85938V8.99297L7.53086 8.83477L7.62578 8.91211L7.71719 8.90156ZM6.78906 7.06641V7.24219H6.92266V7.31953H7.05273V7.18594H6.94727V7.06641H6.78906ZM7.18633 7.34766V7.51992H7.30586V7.59727H7.43945V7.46719H7.30586V7.34766H7.18633ZM4.53203 7.08047V7.23867H4.39492V7.31953H4.27539V7.18594H4.39492V7.06641L4.53203 7.08047ZM6.78906 9.6293V9.45703H6.92266V9.37969H7.05273V9.50977H6.94727V9.6293H6.78906ZM4.53203 9.6293V9.45703H4.39492V9.37969H4.27539V9.50977H4.39492V9.6293H4.53203ZM7.18633 9.36562V9.16523H7.30586V9.08789H7.43945V9.21797H7.30586V9.35156L7.18633 9.36562ZM4.14883 7.33359V7.50586H4.0082V7.58672H3.88867V7.45312H4.0082V7.33359H4.14883ZM4.14883 9.3375V9.16523H4.0082V9.08789H3.88867V9.21797H4.0082V9.35156L4.14883 9.3375ZM6.14219 7.05234L6.03672 6.96094L5.9418 7.0418L6.02266 7.1332L5.91719 7.22813H6.07539L6.12813 7.17188L6.19492 7.22813H6.35312L6.24766 7.1332L6.32852 7.0418L6.23359 6.96094L6.12813 7.05234H6.14219ZM5.66406 7.05234L5.55859 6.96094L5.46367 7.0418L5.54453 7.1332L5.43906 7.22813H5.59727L5.66406 7.17188L5.7168 7.22813H5.875L5.76953 7.1332L5.85039 7.0418L5.75547 6.96094L5.66406 7.05234ZM5.18594 7.05234L5.27734 6.96094L5.38281 7.0418L5.29141 7.1332L5.41094 7.22813H5.23516L5.18594 7.17188L5.1332 7.22813H4.97148L5.07695 7.1332L4.99961 7.0418L5.09102 6.96094L5.18594 7.05234ZM6.12813 9.61875L6.0332 9.71016L5.9418 9.6293L6.02266 9.55195L5.91719 9.44648H6.07539L6.12813 9.49922L6.19492 9.44648H6.35312L6.24766 9.55195L6.32852 9.6293L6.23359 9.71016L6.12813 9.61875ZM5.66406 9.61875L5.55859 9.71016L5.46367 9.6293L5.54453 9.55195L5.43906 9.44648H5.59727L5.66406 9.49922L5.7168 9.44648H5.875L5.76953 9.55195L5.85039 9.6293L5.75547 9.71016L5.66406 9.61875ZM5.18594 9.61875L5.27734 9.71016L5.38281 9.6293L5.29141 9.55195L5.41094 9.44648H5.23516L5.18594 9.49922L5.1332 9.44648H4.97148L5.07695 9.55195L4.99961 9.6293L5.09102 9.71016L5.18594 9.61875Z" fill="#383739"/>
<path id="Vector_99" d="M4.025 8.44727V8.54219L3.8 8.40859L3.70508 8.47539H3.62773L3.58555 8.42266L3.66641 8.35234L3.58555 8.28906L3.62773 8.23633H3.70508L3.8 8.30312L4.025 8.16953V8.25039L3.84922 8.36992L4.025 8.44727ZM4.025 8.02539V8.1168L3.79648 7.97969L3.70156 8.04648H3.62422L3.58203 7.99375L3.66289 7.92344L3.58203 7.86016L3.62422 7.80742H3.70156L3.79648 7.87422L4.02148 7.74062V7.82148L3.86328 7.92695L4.025 8.02539ZM4.025 8.67227V8.58086L3.8 8.71445L3.70508 8.64414H3.62773L3.58555 8.70039L3.66641 8.76719L3.58555 8.83398L3.62773 8.88672H3.70508L3.8 8.81992L4.025 8.95352V8.87266L3.84922 8.76719L4.025 8.67227ZM7.30508 8.44727V8.54219L7.51602 8.40859L7.61094 8.47539H7.70586L7.73047 8.42266L7.64961 8.35234L7.73047 8.28906L7.70586 8.23633H7.61094L7.51953 8.30312L7.30859 8.16953V8.25039L7.4668 8.35586L7.30508 8.44727ZM7.30508 8.02539V8.1168L7.51602 7.9832L7.61094 8.05H7.70586L7.73047 7.99727L7.64961 7.92695L7.73047 7.86367L7.70586 7.81094H7.61094L7.52305 7.87422L7.31211 7.74062V7.82148L7.47031 7.92695L7.30508 8.02539ZM7.30508 8.67227V8.58086L7.51602 8.71445L7.61094 8.64414H7.70586L7.73047 8.70039L7.64961 8.76719L7.73047 8.83398L7.70586 8.88672H7.61094L7.51953 8.81992L7.30859 8.95352V8.87266L7.4668 8.76719L7.30508 8.67227ZM6.90781 7.07969V7.19922H7.02734V7.30469H6.92187V7.22734H6.78477V7.09375L6.90781 7.07969ZM7.29453 7.36094V7.46641H7.4V7.59648H7.30508V7.50508H7.17148V7.35742L7.29453 7.36094ZM4.39766 7.09375V7.19922H4.27812V7.30469H4.38359V7.22734H4.51719V7.09375H4.39766ZM6.92187 9.61797V9.5125H7.02734V9.37891H6.92187V9.47031H6.78477V9.61797H6.92187ZM4.39766 9.61797V9.5125H4.27812V9.37891H4.38359V9.47031H4.51719V9.61797H4.39766ZM7.29102 9.35078V9.21719H7.39648V9.11172H7.30508V9.19258H7.17148V9.33672L7.29102 9.35078ZM4.02148 7.35742V7.46289H3.90547V7.59648H4.01094V7.50508H4.14453V7.35742H4.02148ZM4.02148 9.35078V9.21719H3.90547V9.11172H4.01094V9.19258H4.14453V9.33672L4.02148 9.35078ZM6.01836 6.98828L6.12383 7.07969L6.2293 6.98828L6.29961 7.05156L6.21523 7.14648L6.31016 7.22734H6.18711L6.1168 7.17109L6.06758 7.22734H5.93398L6.02539 7.14648L5.94805 7.05156L6.01836 6.98828ZM5.55078 6.98828L5.65625 7.07969L5.75117 6.98828L5.83203 7.05156L5.75117 7.14648L5.84609 7.22734H5.7125L5.65977 7.17109L5.58945 7.22734H5.45938L5.56484 7.14648L5.4875 7.05156L5.55078 6.98828ZM5.28711 6.98828L5.18164 7.07969L5.08672 6.98828L5.00937 7.05156L5.08672 7.14648L4.99531 7.22734H5.12891L5.18164 7.17109L5.24844 7.22734H5.37852L5.27305 7.14648L5.35391 7.05156L5.28711 6.98828ZM6.02891 9.70938L6.12383 9.61797L6.2293 9.70938L6.29961 9.64258L6.21523 9.56523L6.31016 9.47031H6.18711L6.1168 9.52305L6.06758 9.47031H5.93398L6.02539 9.56523L5.94805 9.64258L6.02891 9.70938ZM5.55078 9.70938L5.65625 9.61797L5.75117 9.70938L5.83203 9.64258L5.75117 9.56523L5.84609 9.47031H5.7125L5.65977 9.52656L5.58945 9.47383H5.45938L5.56484 9.56875L5.4875 9.64609L5.55078 9.70938ZM5.28711 9.70938L5.18164 9.61797L5.08672 9.70938L5.00937 9.64258L5.08672 9.56523L4.99531 9.47031H5.12891L5.18164 9.52305L5.24844 9.47031H5.37852L5.27305 9.56523L5.35391 9.64258L5.28711 9.70938Z" fill="#00843D"/>
<path id="Vector_100" d="M4.38398 9.19297V9.45664H6.93281V9.19297H7.31953V7.50547H6.93281V7.23828H4.39805V7.50547H4.02539V9.19297H4.38398Z" fill="#383739"/>
<path id="Vector_101" d="M4.40859 7.24219V7.51992H4.04297V9.17578H4.41211V9.44297H6.93633V9.17578H7.30898V7.51641H6.93633V7.24922H4.41211L4.40859 7.24219ZM4.57031 7.34766H6.77461V7.61133L6.86953 7.69219H7.21406V9.02109H6.86953L6.77461 9.08789V9.35156H4.57031V9.08789L4.47539 9.01758H4.14844V7.69219H4.47891L4.57383 7.62188V7.3582L4.57031 7.34766Z" fill="#FFC72C"/>
<path id="Vector_102" d="M4.58457 7.35938V7.6125L4.91504 7.35938H4.58457ZM6.41621 7.35938L6.7502 7.6125V7.35938H6.41621ZM4.15918 7.70742V7.93242L4.46504 7.70742H4.15918ZM6.86621 7.70742L7.18613 7.93242V7.70742H6.86621ZM7.18613 8.76914L6.86973 9.0082H7.18613V8.76914ZM4.15918 8.76914V9.0082H4.46504L4.15918 8.76914ZM4.58105 9.08555V9.33867H4.91504L4.58105 9.08555ZM6.7502 9.08555L6.41621 9.33867H6.7502V9.08555Z" fill="#D22630"/>
<path id="Vector_103" d="M6.40176 7.35938L7.18574 7.94648V8.76914L6.39121 9.35273H4.92871L4.15527 8.76914V7.97109L4.94277 7.37344L6.40176 7.35938Z" fill="#00843D"/>
<path id="Vector_104" d="M4.34492 8.84687L4.25 8.74141L4.33086 8.64648L4.25 8.54102L4.33086 8.44609L4.25 8.35469L4.33086 8.24922L4.25 8.1543L4.33086 8.04883L4.25 7.95391L4.34492 7.84844H6.9957L7.09062 7.95391L6.9957 8.04883L7.09062 8.1543L6.9957 8.24922L7.09062 8.35469L6.9957 8.44609L7.09062 8.54102L6.9957 8.64648L7.09062 8.73789L6.9957 8.84336L4.34492 8.84687ZM6.1625 7.48984L6.05703 7.39844L5.96562 7.48984L5.8707 7.39844L5.76523 7.48984L5.67031 7.39844L5.56484 7.48984L5.47344 7.39844L5.37852 7.48984L5.27305 7.39844L5.16758 7.48984V9.21602L5.27305 9.29688L5.37852 9.21602L5.47344 9.29688L5.56484 9.21602L5.67031 9.29688L5.76523 9.21602L5.8707 9.29688L5.96562 9.21602L6.05703 9.29688L6.1625 9.20547V7.48984Z" fill="#383739"/>
<g id="Group_12">
<path id="Vector_105" d="M5.95195 7.49102L5.87109 7.41016L5.77969 7.49102V9.21016L5.87109 9.2875L5.95195 9.21016V7.49102ZM5.55117 7.49102L5.47383 7.41016L5.37891 7.49102V9.21016L5.47383 9.2875L5.56523 9.21016L5.55117 7.49102Z" fill="#FFC72C"/>
<path id="Vector_106" d="M4.34512 8.83359L4.26426 8.73867L4.34512 8.64727H6.9959L7.06621 8.73867L6.98535 8.83359H4.34512ZM6.9959 8.26055L7.06621 8.35547L6.98535 8.43281H4.3416L4.26074 8.35547L4.3416 8.26055H6.9959ZM6.9959 8.04961L7.06621 7.95469L6.98535 7.86328H4.3416L4.26074 7.95469L4.3416 8.04961H6.9959Z" fill="#FFC72C"/>
</g>
<g id="Group_13">
<path id="Vector_107" d="M6.15293 7.49102L6.05801 7.41016L5.9666 7.49102V9.21016L6.05801 9.2875L6.14941 9.21016L6.15293 7.49102ZM5.36895 7.49102L5.27402 7.41016L5.18262 7.49102V9.21016L5.27402 9.2875L5.36895 9.21016V7.49102Z" fill="#D22630"/>
<path id="Vector_108" d="M4.34551 8.63203L4.26465 8.54063L4.34551 8.4457H6.99629L7.0666 8.54063L6.98574 8.63203H4.34551ZM4.34551 8.23477L4.26465 8.15391L4.34551 8.0625H6.99629L7.0666 8.15391L6.98574 8.24883L4.34551 8.23477Z" fill="#D22630"/>
<path id="Vector_109" d="M5.76543 9.20625L5.67051 9.28359L5.5791 9.20625V7.48711L5.67051 7.40625L5.76543 7.48711V9.20625Z" fill="#D22630"/>
</g>
<path id="Vector_110" d="M6.56348 7.53125H4.77051V7.66484H4.54199V9.03594H4.78105V9.16602H6.57402V9.03594H6.80254V7.68242H6.57402V7.53477L6.56348 7.53125Z" fill="#383739"/>
<path id="Vector_111" d="M4.78164 7.54531V7.67891H4.55664V9.00781H4.78164V9.16602H4.96797L4.59531 8.86016V7.84063L4.96797 7.53125H4.78164V7.54531ZM6.37773 7.54531L6.73633 7.85117V8.84961L6.37773 9.15195H6.56406V9.02188H6.775V7.69297H6.55V7.54531H6.37773Z" fill="#D22630"/>
<g id="Group_14">
<path id="Vector_112" d="M4.99258 7.54297L4.60938 7.85938V8.8332L4.99609 9.14961H6.33555L6.73633 8.8332V7.86289L6.33555 7.54648L4.99258 7.54297ZM5.01016 7.5957H6.325L6.66953 7.8875V8.82266L6.325 9.10391H5.01016L4.66211 8.80859V7.88047L5.01016 7.5957Z" fill="#00843D"/>
<path id="Vector_113" d="M5.36836 8.81875L5.42109 8.84687V8.91016L5.35078 8.98047L5.45977 9.08594H5.3543L5.28398 9.01562L5.20664 9.08594H5.11523L5.2207 8.98047L5.13984 8.91016L5.15391 8.84687L5.20664 8.81875L5.2875 8.88555L5.36836 8.81875ZM5.7375 8.81875L5.80781 8.84687V8.91016L5.7375 8.98047L5.84297 9.08594H5.7375L5.6707 9.01562L5.59336 9.08594H5.48789L5.59336 8.98047L5.52305 8.91016V8.84687L5.59336 8.81875L5.6707 8.88555L5.7375 8.81875ZM5.97656 8.81875L5.92383 8.84687L5.90977 8.91016L5.98008 8.98047L5.87461 9.08594H5.98008L6.05742 9.01562L6.12422 9.08594H6.22969L6.12422 8.98047L6.19102 8.91016V8.84687L6.1207 8.81875L6.05742 8.88555L5.97656 8.81875ZM5.36836 7.87656L5.42109 7.84844V7.78164L5.35078 7.71484L5.45977 7.60938H5.3543L5.28398 7.67617L5.20664 7.60938H5.11523L5.2207 7.71484L5.13984 7.78516L5.15391 7.84844L5.20664 7.87656L5.2875 7.80625L5.36836 7.87656ZM5.7375 7.87656L5.80781 7.84844V7.78164L5.7375 7.71484L5.84297 7.60938H5.7375L5.6707 7.67617L5.59336 7.60938H5.48789L5.59336 7.71484L5.52305 7.78516V7.84844L5.59336 7.87656L5.6707 7.80625L5.7375 7.87656ZM5.97656 7.87656L5.92383 7.84844L5.90977 7.78164L5.98008 7.71484L5.87461 7.60938H5.98008L6.05742 7.67617L6.12422 7.60938H6.22969L6.12422 7.71484L6.19102 7.78516V7.84844L6.1207 7.87656L6.05742 7.80625L5.97656 7.87656ZM6.65508 7.98203L6.60234 8.03477L6.65508 8.07344V8.1543L6.56367 8.0875L6.49336 8.14023H6.43359L6.40547 8.0875L6.47578 8.03477L6.40547 7.96797L6.43359 7.9293H6.50039L6.56719 7.96797L6.65859 7.90117L6.65508 7.98203ZM6.65508 8.29844L6.60234 8.35469L6.65508 8.39336V8.47422L6.56367 8.40391L6.49336 8.46016H6.43359L6.40547 8.40742L6.47578 8.35469L6.40547 8.28437L6.43359 8.24922H6.50039L6.56719 8.28437L6.65859 8.22109L6.65508 8.29844ZM6.65508 8.71328L6.60234 8.67109L6.65508 8.61836V8.54102L6.56367 8.60781L6.49336 8.55156H6.43359L6.40547 8.60781L6.47578 8.67109L6.40547 8.72734L6.43359 8.7625L6.50039 8.78008L6.56719 8.72734L6.65859 8.79063L6.65508 8.71328ZM4.67578 7.97852L4.74258 8.03125L4.67578 8.06992V8.15078L4.7707 8.08398L4.83398 8.13672H4.9043L4.92891 8.08398L4.87617 8.03125L4.92891 7.96445L4.90078 7.92578H4.83398L4.7707 7.96445L4.67578 7.89766V7.97852ZM4.67578 8.29492L4.74258 8.35117L4.67578 8.38984V8.4707L4.7707 8.40039L4.83398 8.45664H4.9043L4.92891 8.40391L4.87617 8.35117L4.92891 8.28086L4.90078 8.2457H4.83398L4.7707 8.28086L4.67578 8.21758V8.29492ZM4.67578 8.70977L4.74258 8.66758L4.67578 8.61484V8.54102L4.7707 8.60781L4.83398 8.55156H4.9043L4.92891 8.60781L4.87617 8.67109L4.92891 8.72734L4.90078 8.7625L4.83398 8.78008L4.7707 8.72734L4.67578 8.79063V8.70977Z" fill="#00843D"/>
</g>
<path id="Vector_114" d="M5.02031 7.60938L4.68984 7.87656L4.7707 7.95391L4.83398 7.90117H4.91484L4.94297 7.97148L4.89023 8.03477L4.94297 8.0875L4.91484 8.14023L4.83398 8.1543L4.7707 8.10156L4.67578 8.18242V8.20703L4.7707 8.27734L4.83398 8.22109H4.91484L4.94297 8.28789L4.89023 8.35469L4.94297 8.40742L4.91484 8.46016L4.83398 8.47422L4.7707 8.42148L4.67578 8.49883V8.52695L4.7707 8.59375L4.83398 8.54102H4.91484L4.94297 8.60781L4.89023 8.67109L4.94297 8.72734L4.91484 8.78008L4.83398 8.79063L4.7707 8.73789L4.68984 8.8082L5.02031 9.08594H5.09063L5.19609 8.98047L5.12578 8.92422L5.13984 8.84687L5.21016 8.80469L5.2875 8.875L5.3543 8.80469L5.43164 8.84687V8.92422L5.37891 8.97695L5.47383 9.08242L5.5793 8.97695L5.5125 8.92422V8.84687L5.59336 8.80469L5.6707 8.875L5.74102 8.80469L5.81836 8.84687V8.92422L5.75156 8.97695L5.85703 9.08242L5.9625 8.97695L5.89922 8.92422V8.84687L5.97656 8.80469L6.05742 8.875L6.12422 8.80469L6.19102 8.84687L6.20508 8.92422L6.13477 8.97695L6.24023 9.08242H6.32461L6.65508 8.81875L6.56367 8.73789L6.51094 8.79063H6.43008L6.39141 8.72734L6.44414 8.67109L6.39141 8.60781L6.42656 8.55156L6.51094 8.54102L6.56367 8.59375L6.65508 8.52344V8.49883L6.56367 8.42148L6.51094 8.47422H6.43008L6.39141 8.40391L6.44414 8.35469L6.39141 8.28437L6.42656 8.23516H6.51094L6.56367 8.27383L6.65508 8.20703V8.18242L6.56367 8.10156L6.51094 8.1543H6.43008L6.39141 8.0875L6.44414 8.03477L6.39141 7.96797L6.42656 7.91523H6.51094L6.56367 7.95391L6.65508 7.88711L6.32461 7.60938H6.24375L6.13828 7.71484L6.20508 7.76758V7.84844L6.12422 7.88711L6.05742 7.83437L5.97656 7.88711L5.90977 7.85195L5.89922 7.76758L5.96602 7.71484L5.86055 7.60938L5.75508 7.71484L5.83242 7.76758L5.81836 7.84844L5.7375 7.88711L5.6707 7.83437L5.59336 7.88711L5.52305 7.85195L5.5125 7.76758L5.5793 7.71484L5.47383 7.60938L5.37891 7.71484L5.44922 7.76758L5.43164 7.84844L5.3543 7.88711L5.28398 7.83437L5.20664 7.88711L5.13984 7.85195V7.76758L5.19258 7.71484L5.08711 7.60938H5.02031ZM4.67578 8.3125V8.38281L4.71445 8.35469L4.67578 8.3125Z" fill="#D22630"/>
<path id="Vector_115" d="M5.2875 9.0332L5.23477 9.08594H5.34023L5.2875 9.0332ZM5.67422 9.0332L5.61797 9.08594H5.72344L5.67422 9.0332ZM6.05742 9.0332L5.99062 9.08594H6.11016L6.05742 9.0332ZM5.23477 7.60938L5.2875 7.66211L5.34023 7.60938H5.23477ZM5.60742 7.60938L5.6707 7.66211L5.72695 7.60938H5.60742ZM6.00469 7.60938L6.05742 7.66211L6.11016 7.60938H6.00469ZM6.65508 8.00664L6.61641 8.03477L6.65508 8.06289V8.00664ZM6.65508 8.3125L6.61641 8.35469L6.65508 8.3793V8.3125ZM6.65508 8.63242L6.61641 8.67109L6.65508 8.69922V8.63242ZM4.67578 7.99609V8.06289L4.71445 8.03477L4.67578 7.99609ZM4.67578 8.3125V8.38281L4.71445 8.35469L4.67578 8.3125ZM4.67578 8.63242V8.69922L4.71445 8.67109L4.67578 8.63242Z" fill="white"/>
<g id="Group_15">
<path id="Vector_116" d="M5.99023 8.23906V8.13359H5.88477V8H5.44531V8.13359H5.32578V8.25312H5.18164V8.46406H5.33984V8.56953H5.45938V8.70312H5.88125V8.56953H5.99023V8.46406H6.14844V8.23906H5.99023Z" fill="#383739"/>
<path id="Vector_117" d="M5.65977 8.02578V8.15937L5.48398 8.2543V8.3457H5.18164V8.26484H5.33984V8.14531H5.45938V8.01172L5.65977 8.02578ZM5.67031 8.69375V8.55664L5.85664 8.45117V8.37383H6.13789V8.46523H5.97617V8.5707H5.8707V8.7043L5.67031 8.69375Z" fill="#FFC72C"/>
<path id="Vector_118" d="M5.84629 8.3457V8.2543L5.67051 8.14883V8.01172H5.8709V8.14531H5.97637V8.26484H6.13809V8.3457H5.84629ZM5.19238 8.35977H5.4877V8.45117L5.65996 8.55664V8.69023H5.47363V8.55664H5.3541V8.45117H5.19238V8.35977Z" fill="white"/>
<path id="Vector_119" d="M5.48438 8.36992V8.45078L5.66016 8.5457V8.35938L5.48438 8.36992Z" fill="#D22630"/>
<path id="Vector_120" d="M5.66016 8.15625L5.48438 8.26172V8.34258H5.66016V8.15625Z" fill="#00843D"/>
<path id="Vector_121" d="M5.8457 8.34258V8.26172L5.66992 8.15625V8.34258H5.8457Z" fill="#D22630"/>
<path id="Vector_122" d="M5.66992 8.5457L5.8457 8.45078V8.35938H5.66992V8.5457Z" fill="#00843D"/>
</g>
<path id="Vector_123" d="M4.1166 10.616V10.957H3.8002V11.291H3.45215V12.1945H3.8002V12.5109H4.1166V12.8695H5.32598L5.55098 13.0031L5.44551 13.0559H5.00957L4.96738 13.0172H5.36816L5.2627 12.9117H4.68965L4.95332 13.1754H5.4877L5.65996 13.0559L5.83223 13.1754H6.35957L6.63027 12.9117H6.05723L5.95176 13.0172H6.34902L6.29629 13.0559H5.87441L5.76543 13.0066L5.97637 12.873H7.1998V12.4863H7.53027V12.1699H7.86426V11.291H7.53027V10.9746H7.1998V10.6301H5.97637L5.76543 10.4965L5.8709 10.4297H6.29629L6.33496 10.4719H5.94121L6.06074 10.5914H6.61973L6.3666 10.3242H5.83574L5.65996 10.4297L5.47715 10.3242H4.94629L4.69316 10.5914H5.2627L5.36816 10.4719H4.9709L5.01309 10.4297H5.44902L5.55449 10.5L5.32949 10.6301L4.1166 10.616Z" fill="#D22630"/>
<path id="Vector_124" d="M5.97637 12.8445H7.1998V12.4859H7.53027V12.1695H7.86426V11.2906H7.53027V10.9742H7.1998V10.6227H5.97637L5.47363 10.3203H4.94277L4.71426 10.5594H5.24863L5.34004 10.468H4.94277L5.00957 10.3977H5.44551L6.01855 10.7457H7.05215V11.1043H7.38613V11.4207H7.73066V12.0465H7.38613V12.3523H7.05215V12.6969H6.01855L5.44551 13.0555H5.00957L4.93926 12.9887H5.34355L5.25215 12.9113H4.71074L4.9498 13.1504H5.47012L5.97637 12.8445ZM5.31191 12.7109H4.25371V12.3664H3.92324V12.05H3.58574V11.4242H3.91973V11.1043H4.2502V10.7457H5.31191L5.88496 10.4012H6.33496L6.39121 10.468H5.99043L6.08535 10.5594H6.6127L6.37715 10.3203H5.84629L5.36816 10.6262H4.15879V10.9707H3.8248V11.2871H3.45215V12.166H3.8002V12.4824H4.13066V12.8445H5.32598L5.84629 13.1504H6.37363L6.60215 12.9113H6.07129L5.99043 12.9887H6.39121L6.3209 13.059H5.8709L5.31191 12.7109Z" fill="#FFC72C"/>
<path id="Vector_125" d="M6.975 12.2641V12.6227H6.00469L5.6707 12.8195L5.34023 12.6227H4.36992V12.2641H4.04297V11.9547H3.69141V11.5328H4.03945V11.2164H4.36992V10.8648H5.34375L5.67422 10.668L6.0082 10.8684H6.97852V11.2129H7.30898V11.5293H7.64297V11.9582H7.30898V12.2746L6.975 12.2641Z" fill="#00843D"/>
<g id="Group_16">
<path id="Vector_126" d="M4.48926 12.141V12.4855H5.02012L4.49277 12.127L4.48926 12.141ZM4.48926 11.3148V10.9844H5.02012L4.49277 11.3289L4.48926 11.3148ZM6.84121 12.141V12.4855H6.31035L6.84121 12.127V12.141ZM6.84121 11.3148V10.9844H6.31035L6.84121 11.3289V11.3148Z" fill="#383739"/>
<path id="Vector_127" d="M4.51758 12.1531L4.98164 12.473H4.51758V12.1531ZM4.51758 11.3164L4.98164 11H4.51758V11.3164ZM6.82734 12.1531L6.34922 12.473H6.82734V12.1531ZM6.82734 11.3164L6.34922 11H6.82734V11.3164Z" fill="#D22630"/>
</g>
<g id="Group_17">
<path id="Vector_128" d="M5.18203 11.6375V11.4617H5.11172L4.82344 11.293L4.55625 11.4652H4.48945V11.641H4.35938V11.8238H4.49297V11.9996H4.5457L4.82695 12.1824L5.11875 11.9961H5.17148V11.8238H5.38242V11.6375H5.18203Z" fill="#383739"/>
<path id="Vector_129" d="M4.83398 11.293L5.10117 11.4652H4.57031L4.83398 11.293ZM5.10117 11.9961L4.83398 12.1719L4.57031 11.9961H5.10117ZM5.02031 11.6516V11.8238H4.70391V11.6656L5.02031 11.6516Z" fill="#D22630"/>
<path id="Vector_130" d="M5.15352 11.825V11.9832H4.83711V11.825H5.15352ZM4.82305 11.825V11.9832H4.49961V11.825H4.82305ZM5.35039 11.6492V11.825H5.04805V11.6668L5.35039 11.6492ZM4.68945 11.6492V11.825H4.37305V11.6668L4.68945 11.6492ZM5.15352 11.4805V11.6387H4.83711V11.4805H5.15352ZM4.82305 11.4805V11.6387H4.49961V11.4805H4.82305Z" fill="#FFC72C"/>
<path id="Vector_131" d="M4.59492 11.6918V11.7867H4.46484V11.6918H4.59492ZM4.72852 11.5195V11.6109H4.59492V11.5195H4.72852ZM5.07305 11.5195V11.6109H4.91484V11.5195H5.07305ZM4.94297 11.6953V11.7867H4.78125V11.6918L4.94297 11.6953ZM5.27344 11.6953V11.7867H5.13281V11.6918L5.27344 11.6953ZM5.07305 11.8641V11.959H4.91484V11.8641H5.07305ZM4.72852 11.8641V11.959H4.59492V11.8641H4.72852Z" fill="#383739"/>
<path id="Vector_132" d="M4.58437 11.6895H4.46484V11.7703H4.59492L4.58437 11.6895ZM4.71445 11.5312H4.59492V11.598H4.72852L4.71445 11.5312ZM5.0625 11.5312H4.92891V11.598H5.0625V11.5312ZM4.91484 11.6895H4.78125V11.7598H4.91484V11.6895ZM5.24883 11.6895H5.1293V11.7598H5.24883V11.6895ZM5.04844 11.8758H4.91484V11.9426H5.04844V11.8758ZM4.70391 11.8758H4.58437V11.9426H4.71445L4.70391 11.8758Z" fill="white"/>
</g>
<g id="Group_18">
<path id="Vector_133" d="M6.16289 11.6375V11.4617H6.2332L6.49688 11.293H6.51094L6.78867 11.4652H6.85547V11.641H6.98906V11.8238H6.85547V11.9996H6.77461L6.51094 12.1824L6.22969 11.9961H6.16289V11.8238H5.97656V11.6375H6.16289Z" fill="#383739"/>
<path id="Vector_134" d="M6.51133 11.293L6.24414 11.4652H6.775L6.51133 11.293ZM6.24414 11.9961L6.51133 12.1719L6.775 11.9961H6.24414ZM6.31094 11.6516V11.8238H6.64141V11.6656L6.31094 11.6516Z" fill="#D22630"/>
<path id="Vector_135" d="M6.17695 11.825V11.9832H6.51094V11.825H6.17695ZM6.51094 11.825V11.9832H6.84141V11.825H6.51094ZM5.97656 11.6492V11.825H6.29648V11.6668L5.97656 11.6492ZM6.64453 11.6492V11.825H6.975V11.6668L6.64453 11.6492ZM6.17695 11.4805V11.6387H6.51094V11.4805H6.17695ZM6.51094 11.4805V11.6387H6.84141V11.4805H6.51094Z" fill="#FFC72C"/>
<path id="Vector_136" d="M6.73613 11.6918V11.7867H6.88027V11.6918H6.73613ZM6.60254 11.5195V11.6109H6.7502V11.5195H6.60254ZM6.26855 11.5195V11.6109H6.40215V11.5195H6.26855ZM6.40215 11.6953V11.7867H6.53574V11.6918L6.40215 11.6953ZM6.05762 11.6953V11.7867H6.20527V11.6918L6.05762 11.6953ZM6.26855 11.8641V11.959H6.40215V11.8641H6.26855ZM6.60254 11.8641V11.959H6.7502V11.8641H6.60254Z" fill="#383739"/>
<path id="Vector_137" d="M6.7498 11.6895H6.87988V11.7703H6.7498V11.6895ZM6.61621 11.5312H6.7498V11.598H6.61621V11.5312ZM6.28223 11.5312H6.40176V11.598H6.26816L6.28223 11.5312ZM6.41582 11.7035H6.53535V11.7703H6.40176L6.41582 11.7035ZM6.07129 11.7035H6.20488V11.7703H6.07129V11.7035ZM6.28223 11.8793H6.40176V11.9426H6.26816L6.28223 11.8793ZM6.61621 11.8793H6.7498V11.9426H6.61621V11.8793Z" fill="white"/>
</g>
<g id="Group_19">
<path id="Vector_138" d="M6.01914 11.3434V11.5156H5.94883L5.67109 11.702L5.3793 11.5156H5.32656V11.3398H5.1543V11.157H5.33008V10.9812H5.3793L5.67109 10.8125L5.95234 10.9848H6.01914V11.157H6.17734V11.3434H6.01914Z" fill="#383739"/>
<path id="Vector_139" d="M5.6709 11.6895L5.93809 11.5172H5.40723L5.6709 11.6895ZM5.93809 10.9863L5.6709 10.8281L5.40723 10.9863H5.93809Z" fill="#FFC72C"/>
<path id="Vector_140" d="M6.00469 11.1582V11H5.6707V11.1582H6.00469ZM5.66016 11.1582V11H5.34023V11.1582H5.66016ZM6.16289 11.334V11.1723H5.84648V11.3305L6.16289 11.334ZM5.83242 11.334V11.1723H5.51602V11.3305L5.83242 11.334ZM5.49844 11.334V11.1723H5.16797V11.3305L5.49844 11.334ZM6.00469 11.5027V11.3445H5.6707V11.5027H6.00469ZM5.66016 11.5027V11.3445H5.34023V11.5027H5.66016Z" fill="#D22630"/>
<path id="Vector_141" d="M5.57969 11.0234V11.1289H5.43203V11.0234H5.57969ZM5.91016 11.0234V11.1289H5.76602V11.0234H5.91016ZM5.40742 11.2098V11.3047H5.25977V11.2098H5.40742ZM5.73789 11.2098V11.3047H5.60781V11.2098H5.73789ZM6.08594 11.2098V11.3047H5.93828V11.2098H6.08594ZM5.56562 11.3855V11.477H5.43203V11.382L5.56562 11.3855ZM5.91016 11.3855V11.477H5.76602V11.382L5.91016 11.3855Z" fill="#383739"/>
<path id="Vector_142" d="M5.55508 11.0508H5.44961V11.1176H5.55508V11.0508ZM5.89961 11.0508H5.78008V11.1176H5.89961V11.0508ZM5.39336 11.223H5.25977V11.2898H5.39336V11.223ZM5.72734 11.223H5.60781V11.2898H5.73789L5.72734 11.223ZM6.07187 11.223H5.93828V11.2898H6.07187V11.223ZM5.55156 11.3953H5.44609V11.4621H5.55156V11.3953ZM5.89961 11.3953H5.78008V11.4621H5.89961V11.3953Z" fill="white"/>
</g>
<g id="Group_20">
<path id="Vector_143" d="M6.01914 12.302V12.4883H5.94883L5.67109 12.6746L5.3793 12.4883H5.32656V12.3125H5.1543V12.1297H5.33008V11.9539H5.3793L5.67109 11.7852L5.95234 11.9574H6.01914V12.1297H6.17734V12.316L6.01914 12.302Z" fill="#383739"/>
<path id="Vector_144" d="M5.6709 12.6324L5.93809 12.4742H5.40723L5.6709 12.6324ZM5.93809 11.9434L5.6709 11.7852L5.40723 11.9434H5.93809Z" fill="#FFC72C"/>
<path id="Vector_145" d="M6.00469 12.1152V11.957H5.6707V12.1152H6.00469ZM5.66016 12.1152V11.957H5.34023V12.1152H5.66016ZM6.16289 12.291V12.1293H5.84648V12.2875L6.16289 12.291ZM5.83242 12.291V12.1293H5.51602V12.2875L5.83242 12.291ZM5.49844 12.291V12.1293H5.16797V12.2875L5.49844 12.291ZM6.00469 12.4598V12.3051H5.6707V12.4633L6.00469 12.4598ZM5.66016 12.4598V12.3051H5.34023V12.4633L5.66016 12.4598Z" fill="#D22630"/>
<path id="Vector_146" d="M5.57969 11.9961V12.077H5.43203V11.9961H5.57969ZM5.91016 11.9961V12.077H5.76602V11.9961H5.91016ZM5.40742 12.1719V12.2633H5.25977V12.1648L5.40742 12.1719ZM5.73789 12.1719V12.2633H5.60781V12.1648L5.73789 12.1719ZM6.08594 12.1719V12.2633H5.93828V12.1648L6.08594 12.1719ZM5.56562 12.3406V12.4355H5.43203V12.3406H5.56562ZM5.91016 12.3406V12.4355H5.76602V12.3406H5.91016Z" fill="#383739"/>
<path id="Vector_147" d="M5.55508 12.0117H5.44961V12.0645H5.55508V12.0117ZM5.89961 12.0117H5.78008V12.0645H5.89961V12.0117ZM5.39336 12.184H5.25977V12.2367H5.39336V12.184ZM5.72734 12.184H5.60781V12.2367H5.73789L5.72734 12.184ZM6.07187 12.184H5.93828V12.2367H6.07187V12.184ZM5.55156 12.3598H5.44609V12.423H5.55156V12.3598ZM5.89961 12.3598H5.78008V12.423H5.89961V12.3598Z" fill="white"/>
</g>
<path id="Vector_148" d="M3.8252 14.3719L5.09082 13.7109H6.24395L7.50605 14.3719V15.4898L6.24043 16.1789H5.0873L3.8252 15.4898V14.3719Z" fill="#383739"/>
<path id="Vector_149" d="M5.10098 13.7109L3.83887 14.3719V15.4898L5.10098 16.1543H6.24356L7.4916 15.4863V14.3859L6.24356 13.7215L5.10098 13.7109ZM5.11504 13.8023H6.21543L7.41074 14.4387V15.4371L6.21543 16.0734H5.11504L3.91973 15.4371V14.4387L5.11504 13.8023Z" fill="#00843D"/>
<path id="Vector_150" d="M5.67051 14.9309V16.0594H6.21543L7.4002 15.423V14.9449H5.67051V13.8164H5.11504L3.94434 14.4387V14.9309H5.67051Z" fill="#FFC72C"/>
<path id="Vector_151" d="M5.65977 14.9309V16.0594H5.12891L3.93359 15.423V14.9449H5.67031V13.8164H6.21523L7.4 14.4387V14.9309H5.65977Z" fill="white"/>
<path id="Vector_152" d="M5.77969 15.9957V15.6758L5.67422 15.7426L5.56875 15.6723V15.9922H5.23477L5.45977 15.834V15.5949L5.11523 15.384H4.88672V14.4805H5.11172L5.45625 14.2695V14.041L5.23125 13.8828H5.57578V14.1992L5.68125 14.1324L5.78672 14.2027V13.8828H6.10664L5.8957 14.041V14.266L6.22617 14.477H6.46523V15.384H6.22617L5.8957 15.5949V15.834L6.10664 15.9922L5.77969 15.9957Z" fill="#383739"/>
<path id="Vector_153" d="M5.78984 13.8938V14.2277L5.67031 14.1609V14.2523L6.19063 14.5863H6.36289V14.9309H6.44375V14.4844H6.21523L5.8707 14.2734V14.0168L6.05703 13.8867H5.78984V13.8938ZM4.90039 14.9449V15.3668H5.12891L5.47344 15.5953V15.8344L5.27305 15.982H5.54023V15.6445L5.67031 15.7148V15.6199L5.14297 15.2859H4.98125V14.9414L4.90039 14.9449Z" fill="#FFC72C"/>
<path id="Vector_154" d="M5.27305 13.8945L5.47344 14.0281V14.2813L5.12891 14.4922H4.90039V14.9316H4.98125V14.5906H5.13945L5.67031 14.2566V14.1652L5.54023 14.232V13.898L5.27305 13.8945ZM6.36289 14.9457V15.2902H6.18711L5.67031 15.6242V15.7156L5.78984 15.6488V15.9828H6.05703L5.8707 15.8492V15.5961L6.21523 15.3711H6.44375V14.9422L6.36289 14.9457Z" fill="white"/>
<path id="Vector_155" d="M4.99219 15.2754H5.15391L5.6707 15.6094L6.19102 15.2754H6.34922V14.5898H6.19102L5.66016 14.2734L5.15391 14.5898H4.9957L4.99219 15.2754Z" fill="#D22630"/>
<path id="Vector_156" d="M6.0293 15.1016H6.13477V15.0488H6.05742V14.9574H6.2332V15.1965H6.05742V15.3547H5.71289V15.1156H5.87109V15.2211H5.8043V15.2633H5.96602V15.1684L5.29805 14.7711H5.19258V14.8238H5.2875V14.9152H5.09766V14.6762H5.27344V14.5039H5.61445V14.743H5.47031V14.6516H5.52305V14.6094H5.36484V14.6902L6.0293 15.1016ZM5.96602 14.7043V14.6094H5.80078V14.6516H5.87109V14.743H5.70937V14.5039H6.05391V14.6797H6.24023V14.9152H6.06445V14.8238H6.14531V14.7711H6.03984L5.37891 15.1684V15.2633H5.54063V15.2211H5.48438V15.1156H5.64258V15.3547H5.28398V15.1965H5.1082V14.9574H5.29805V15.0488H5.17852V15.1016H5.29805L5.96602 14.7043Z" fill="#383739"/>
<path id="Vector_157" d="M5.97676 15.1699V15.2754H5.79043V15.2086H5.86074V15.1312H5.72715V15.3422H6.04355V15.1875H6.21934V14.9766H6.07168V15.0398H6.14902V15.1207H6.01895L5.35098 14.7094V14.6039H5.54082V14.6707H5.48457V14.734H5.61465V14.523H5.28418V14.6988H5.1084V14.9098H5.27012V14.8395H5.17871V14.7621H5.30879L5.97676 15.1699ZM6.01895 14.7727H6.14902V14.8395H6.07168V14.9062H6.21582V14.6953H6.04707V14.5195H5.73066V14.7305H5.86074V14.6672H5.79395V14.5969H5.98027V14.7023L5.31582 15.1031H5.18574V15.0363H5.27715V14.9695H5.11895V15.1805H5.29121V15.3422H5.62168V15.1453H5.4916V15.2227H5.54434V15.293H5.35801V15.184L6.01895 14.7727Z" fill="white"/>
<path id="Vector_158" d="M7.13633 14.9969V15.3414H6.9957V15.2078H6.8375V15.3414H6.6793V15.0109H6.8375V15.1305H6.98516V14.9969H7.13633ZM6.60195 15.4609V15.809H6.4543V15.6895H6.29609V15.8195H6.15195V15.4609H6.29961V15.5945H6.45781V15.4609H6.60195ZM7.13281 14.8773V14.5328H6.99922V14.6523H6.84102V14.5188H6.68281V14.8773H6.84102V14.7438H6.98867V14.8773H7.13281ZM4.19727 14.9969V15.3414H4.34492V15.2078H4.51719V15.3414H4.65078V15.0109H4.49961V15.1305H4.34141V14.9969H4.19727ZM4.19727 14.8773V14.5328H4.34492V14.6523H4.51719V14.5188H4.65078V14.8773H4.49961V14.7438H4.34141V14.8773H4.19727ZM6.60195 14.4133V14.0547H6.4543V14.1883H6.29609V14.0547H6.15195V14.4133H6.29961V14.2797H6.45781V14.4133H6.60195ZM4.74219 15.4609V15.809H4.87578V15.6895H5.04805V15.8195H5.18164V15.4609H5.04805V15.5945H4.88633V15.4609H4.74219ZM4.74219 14.3992V14.0547H4.87578V14.1883H5.04805V14.0547H5.18164V14.4133H5.04805V14.2797H4.88633V14.4133L4.74219 14.3992ZM6.69336 14.1602V14.4273H7.17148L6.69336 14.1602ZM4.65078 15.7V15.4363H4.14453L4.65078 15.7ZM4.65078 14.1602V14.4273H4.14453L4.65078 14.1602ZM6.69336 15.7V15.4363H7.17148L6.69336 15.7Z" fill="#383739"/>
<path id="Vector_159" d="M6.9998 15.2094V15.343H7.1334V15.0125H6.9998V15.132H6.82754V14.9984H6.69394V15.3324H6.82754V15.1988L6.9998 15.2094ZM6.47246 15.677V15.8105H6.58848V15.4766H6.45488V15.6102H6.28262V15.4766H6.16309V15.793H6.29668V15.6805L6.47246 15.677ZM6.9998 14.668V14.5344H7.1334V14.8648H6.9998V14.7312H6.82754V14.8648H6.69394V14.5484H6.82754V14.668H6.9998ZM4.34551 15.1953V15.3324H4.21191V15.0125H4.34551V15.132H4.51777V14.9984H4.6373V15.3324H4.5002V15.1988L4.34551 15.1953ZM4.34551 14.668V14.5344H4.21191V14.8648H4.34551V14.7312H4.51777V14.8648H4.6373V14.5484H4.5002V14.668H4.34551ZM6.46895 14.2004V14.0703H6.58848V14.4008H6.45488V14.2672H6.28262V14.4008H6.16309V14.0703H6.29668V14.2004H6.46895ZM4.87637 15.677V15.8105H4.74277V15.4766H4.87637V15.6102H5.04863V15.4766H5.18223V15.793H5.04863V15.6805L4.87637 15.677ZM4.87637 14.2004V14.0703H4.74277V14.4008H4.87637V14.2672H5.04863V14.4008H5.18223V14.0703H5.04863V14.2004H4.87637Z" fill="#D22630"/>
<path id="Vector_160" d="M6.70742 14.1875V14.4125H7.13633L6.70742 14.1875ZM4.19727 15.4496L4.63672 15.6887V15.4496H4.19727Z" fill="#FFC72C"/>
<path id="Vector_161" d="M4.63672 14.1875L4.19727 14.4125H4.65078L4.63672 14.1875ZM6.71094 15.4496V15.6887L7.13281 15.4496H6.71094Z" fill="white"/>
<path id="Vector_162" d="M7.70625 15.9156C7.67812 16.0211 7.60078 16.102 7.57266 16.2074C7.54453 16.102 7.50234 16.007 7.53047 15.891C7.54453 15.7961 7.62539 15.7293 7.63594 15.6484C7.7168 15.7187 7.73086 15.8242 7.70625 15.9156ZM7.73086 16.3516C7.6626 16.4434 7.57178 16.5161 7.46719 16.5625C7.47773 16.4711 7.43906 16.4219 7.39687 16.3516C7.34766 16.2742 7.31953 16.2074 7.37227 16.1125C7.38829 16.1599 7.41077 16.2048 7.43906 16.2461C7.4918 16.2988 7.51992 16.3516 7.51992 16.4324C7.56951 16.3909 7.60612 16.336 7.62539 16.2742C7.67261 16.1939 7.74226 16.1292 7.82578 16.0879C7.79766 16.1793 7.78359 16.2742 7.73086 16.3516ZM7.34414 16.6188L7.37227 16.777L7.53047 16.6469C7.60078 16.6047 7.67812 16.552 7.74141 16.4852C7.73979 16.5374 7.72629 16.5887 7.70192 16.635C7.67756 16.6813 7.64297 16.7214 7.60078 16.7523C7.50586 16.8191 7.38633 16.8578 7.30547 16.9246C7.30547 16.8297 7.28086 16.7488 7.25273 16.6574C7.24059 16.6164 7.23906 16.5729 7.24828 16.5311C7.2575 16.4893 7.27718 16.4505 7.30547 16.4184L7.34414 16.6188ZM7.1332 16.9633C7.11914 17.0336 7.06641 17.0969 7.02773 17.1637C7.1332 17.1355 7.21406 17.0687 7.29141 17.0301C7.41094 16.9633 7.53047 16.9387 7.62539 16.8578C7.57266 17.0336 7.44961 17.125 7.28086 17.1918C7.16133 17.227 7.06992 17.2023 6.92227 17.2691C6.93773 17.1678 6.96856 17.0694 7.01367 16.9773L7.10859 16.777C7.1332 16.8297 7.16133 16.8965 7.1332 16.9633ZM6.77461 17.2305C6.74124 17.2878 6.69562 17.337 6.64102 17.3746C6.77461 17.3746 6.89414 17.2973 7.0418 17.2973C7.11914 17.2973 7.2 17.3219 7.28086 17.2973C7.17539 17.3746 7.06992 17.4309 6.94688 17.4555C6.78867 17.4695 6.64102 17.4309 6.45469 17.4555C6.53555 17.3887 6.58828 17.3219 6.63047 17.2305C6.70781 17.125 6.76055 17.0441 6.89414 17.0301C6.84141 17.0828 6.81328 17.1637 6.76055 17.2305H6.77461ZM6.26836 17.4695C6.52148 17.5082 6.76055 17.5609 7.01367 17.5609C6.74557 17.6663 6.44844 17.6713 6.17695 17.575C6.05964 17.5226 5.93276 17.4951 5.8043 17.4941C5.63203 17.5082 5.43164 17.575 5.20664 17.8141L5.11523 17.7473C5.27135 17.6123 5.45734 17.5164 5.65785 17.4675C5.85836 17.4185 6.06762 17.4181 6.26836 17.466V17.4695Z" fill="#FFC72C"/>
</g>
<defs>
<clipPath id="clip0_186_15040">
<rect width="18" height="18" fill="white"/>
</clipPath>
</defs>
</svg>
