<svg width="18" height="18" viewBox="0 0 18 18" fill="none" xmlns="http://www.w3.org/2000/svg">
<g id="tn" clip-path="url(#clip0_186_15224)">
<path id="Vector" d="M0 0H18V18H0V0Z" fill="#E70013"/>
<path id="Vector_2" d="M9.00004 4.74609C7.88115 4.74143 6.80625 5.18144 6.01178 5.96931C5.21732 6.75718 4.76837 7.82838 4.76371 8.94727C4.75905 10.0661 5.19905 11.1411 5.98692 11.9355C6.77479 12.73 7.846 13.1789 8.96488 13.1836C10.0884 13.1836 11.166 12.7373 11.9604 11.9428C12.7549 11.1483 13.2012 10.0708 13.2012 8.94727C13.2012 7.82372 12.7549 6.7462 11.9604 5.95173C11.166 5.15726 10.0884 4.71094 8.96488 4.71094L9.00004 4.74609ZM11.5313 10.8633C11.1354 11.3988 10.5807 11.7958 9.94605 11.9976C9.31142 12.1995 8.62929 12.196 7.99679 11.9876C7.36428 11.7792 6.81366 11.3765 6.42333 10.8369C6.03301 10.2973 5.82289 9.64837 5.82289 8.98242C5.82289 8.31647 6.03301 7.66749 6.42333 7.12792C6.81366 6.58835 7.36428 6.18568 7.99679 5.97728C8.62929 5.76888 9.31142 5.76536 9.94605 5.96722C10.5807 6.16909 11.1354 6.56605 11.5313 7.10156C11.1676 6.77405 10.7169 6.55898 10.2335 6.48238C9.75018 6.40577 9.25499 6.47092 8.8079 6.66994C8.36082 6.86896 7.98101 7.19331 7.71446 7.60373C7.44791 8.01415 7.30605 8.49304 7.30605 8.98242C7.30605 9.4718 7.44791 9.95069 7.71446 10.3611C7.98101 10.7715 8.36082 11.0959 8.8079 11.2949C9.25499 11.4939 9.75018 11.5591 10.2335 11.4825C10.7169 11.4059 11.1676 11.1908 11.5313 10.8633ZM11.3661 10.1004L10.0512 9.675L9.2391 10.793V9.41133L7.92777 8.98242L9.2391 8.55352V7.16836L10.0512 8.28984L11.3661 7.86445L10.5539 8.98242L11.3661 10.1004Z" fill="white"/>
</g>
<defs>
<clipPath id="clip0_186_15224">
<rect width="18" height="18" fill="white"/>
</clipPath>
</defs>
</svg>
