<svg width="18" height="18" viewBox="0 0 18 18" fill="none" xmlns="http://www.w3.org/2000/svg">
<g id="tr" clip-path="url(#clip0_186_15234)">
<g id="Group">
<path id="Vector" fill-rule="evenodd" clip-rule="evenodd" d="M0 0H18V18H0V0Z" fill="#E30A17"/>
<path id="Vector_2" fill-rule="evenodd" clip-rule="evenodd" d="M12.2629 9.28164C12.2629 11.7637 10.2133 13.7781 7.68906 13.7781C5.16484 13.7781 3.11523 11.7637 3.11523 9.27812C3.11523 6.79258 5.16133 4.78516 7.68555 4.78516C10.2098 4.78516 12.2664 6.79609 12.2664 9.28164H12.2629Z" fill="white"/>
<path id="Vector_3" fill-rule="evenodd" clip-rule="evenodd" d="M12.4908 9.28008C12.4908 11.2664 10.8525 12.8766 8.83105 12.8766C6.80957 12.8766 5.1748 11.2664 5.1748 9.28008C5.1748 7.29375 6.80957 5.68359 8.83105 5.68359C10.8525 5.68359 12.4873 7.29375 12.4873 9.28008H12.4908Z" fill="#E30A17"/>
<path id="Vector_4" fill-rule="evenodd" clip-rule="evenodd" d="M13.1516 7.17969L13.1164 8.84258L11.5625 9.26445L13.0918 9.80938L13.0566 11.3316L14.0516 10.1434L15.5598 10.6637L14.6879 9.3875L15.7496 8.11836L14.1184 8.56836L13.1516 7.17969Z" fill="white"/>
</g>
</g>
<defs>
<clipPath id="clip0_186_15234">
<rect width="18" height="18" fill="white"/>
</clipPath>
</defs>
</svg>
