<svg width="18" height="18" viewBox="0 0 18 18" fill="none" xmlns="http://www.w3.org/2000/svg">
<g id="tv" clip-path="url(#clip0_186_15245)">
<path id="Vector" d="M0 0H18V18H0V0Z" fill="#009FCA"/>
<path id="Vector_2" fill-rule="evenodd" clip-rule="evenodd" d="M16.8045 7.95703L17.0541 8.67422L16.4072 8.23125L15.7568 8.67422L16.0064 7.95703L15.3561 7.51406H16.1611L16.4072 6.79688L16.6533 7.51406H17.4549L16.8045 7.95703ZM14.7936 13.6805L15.0396 14.3977L14.3928 13.9512L13.7459 14.3977L13.992 13.6805L13.3451 13.234H14.1467L14.3928 12.5168L14.6389 13.2375H15.4439L14.7936 13.6805ZM16.808 12.3832L17.0541 13.1004L16.4072 12.6574L15.7568 13.1004L16.0064 12.3832L15.3561 11.9402H16.1611L16.4072 11.223L16.6533 11.9402H17.4549L16.808 12.3832ZM8.15254 16.5316L8.40215 17.2523L7.75527 16.8059L7.10488 17.2523L7.35449 16.5352L6.7041 16.0922H7.50566L7.75176 15.375L8.00137 16.0922H8.80293L8.15254 16.5316ZM9.66777 13.4238L9.42168 12.7066L10.0686 13.1496L10.7154 12.7066L10.4693 13.4238L11.1162 13.8668H10.3146L10.0686 14.584L9.82246 13.8668H9.0209L9.66777 13.4238ZM12.0338 10.1543L11.7842 9.43711L12.4311 9.88008L13.0814 9.43711L12.8354 10.1543L13.4822 10.5973H12.6807L12.4346 11.3145L12.1885 10.5973H11.3834L12.0338 10.1543ZM14.0201 9.47578L13.774 8.75859L14.4209 9.20156L15.0678 8.75859L14.8217 9.47578L15.4686 9.91875H14.667L14.4209 10.6359L14.1748 9.91875H13.3697L14.0201 9.47578ZM12.0338 15.1359L11.7842 14.4188L12.4311 14.8617L13.0814 14.4188L12.8354 15.1359L13.4822 15.5789H12.6807L12.4346 16.2961L12.1885 15.5789H11.3834L12.0338 15.1359ZM9.66777 15.7125L9.42168 14.9953L10.0686 15.4383L10.7154 14.9953L10.4693 15.7125L11.1162 16.1555H10.3146L10.0686 16.8727L9.82246 16.1555H9.0209L9.66777 15.7125Z" fill="#FFF40D"/>
<path id="Vector_3" d="M0 0H9V9H0V0Z" fill="#012169"/>
<path id="Vector_4" d="M9 0V1.125L5.66016 4.5L9 7.78711V9H7.82227L4.46484 5.69531L1.19531 9H0V7.80469L3.26953 4.51758L0 1.30078V0H1.08984L4.46484 3.30469L7.73438 0H9Z" fill="white"/>
<path id="Vector_5" d="M3.23438 5.69531L3.42773 6.29297L0.738281 9H0V8.94727L3.23438 5.69531ZM5.41406 5.48438L6.36328 5.625L9 8.20898V9L5.41406 5.48438ZM9 0L5.625 3.44531L5.55469 2.67188L8.19141 0H9ZM0 0.0175781L3.39258 3.33984L2.35547 3.19922L0 0.861328V0.0175781Z" fill="#C8102E"/>
<path id="Vector_6" d="M3.09375 0V9H5.90625V0H3.09375ZM0 3.09375V5.90625H9V3.09375H0Z" fill="white"/>
<path id="Vector_7" d="M0 3.65625V5.34375H9V3.65625H0ZM3.65625 0V9H5.34375V0H3.65625Z" fill="#C8102E"/>
</g>
<defs>
<clipPath id="clip0_186_15245">
<rect width="18" height="18" fill="white"/>
</clipPath>
</defs>
</svg>
