<svg width="18" height="18" viewBox="0 0 18 18" fill="none" xmlns="http://www.w3.org/2000/svg">
<g id="tw" clip-path="url(#clip0_186_15253)">
<g id="Clip path group">
<mask id="mask0_186_15253" style="mask-type:luminance" maskUnits="userSpaceOnUse" x="0" y="0" width="18" height="18">
<g id="tw-a">
<path id="Vector" d="M0 0H18V18H0V0Z" fill="white"/>
</g>
</mask>
<g mask="url(#mask0_186_15253)">
<g id="Group">
<path id="Vector_2" d="M0 0H27V18H0V0Z" fill="#FF0000"/>
<path id="Vector_3" d="M0 0H13.5V9H0V0Z" fill="#000095"/>
<g id="Group_2">
<path id="Vector_4" d="M5.77656 4.76055L5.68164 5.11914L6.03672 5.21406L5.96641 4.95391L5.77656 4.76055ZM7.53437 4.95391L7.46406 5.21406L7.81914 5.11914L7.72422 4.76055L7.53437 4.95391ZM5.96641 4.04688L5.77656 4.24023L5.84687 4.50039L5.96641 4.04688Z" fill="white"/>
<path id="Vector_5" d="M5.84668 4.5L5.77637 4.76016L5.96621 4.95352L5.84668 4.5Z" fill="white"/>
<path id="Vector_6" d="M5.77578 4.23828L5.51562 4.49844L5.77578 4.75859L5.84609 4.49844L5.77578 4.23828ZM6.29609 5.28242L6.48945 5.47227L6.74961 5.40195L6.29609 5.28242ZM7.00977 5.47227L7.36836 5.56719L7.46328 5.21211L7.20312 5.28242L7.00977 5.47227Z" fill="white"/>
<path id="Vector_7" d="M7.20332 5.28359L7.46348 5.21328L7.53379 4.95312L7.20332 5.28359ZM6.03613 5.21328L6.13105 5.56836L6.48965 5.47344L6.29629 5.28359L6.03613 5.21328ZM6.7498 5.40313L7.00996 5.47344L7.20332 5.28359L6.7498 5.40313Z" fill="white"/>
<path id="Vector_8" d="M6.49023 5.47266L6.75039 5.73281L7.01055 5.47266L6.75039 5.40234L6.49023 5.47266ZM6.03672 3.78516L5.68164 3.88008L5.77656 4.23867L5.96641 4.04531L6.03672 3.78516ZM5.96641 4.95234L6.03672 5.2125L6.29688 5.28281L5.96641 4.95234ZM7.65391 4.49883L7.72422 4.23867L7.53437 4.04531L7.65391 4.49883Z" fill="white"/>
<path id="Vector_9" d="M6.29629 3.71484L6.03613 3.78516L5.96582 4.04531L6.29629 3.71484ZM7.53379 4.04531L7.46348 3.78516L7.20332 3.71484L7.53379 4.04531ZM7.72363 4.75898L7.98379 4.49883L7.72363 4.23867L7.65332 4.49883L7.72363 4.75898Z" fill="white"/>
<path id="Vector_10" d="M7.53418 4.04766L7.20371 3.71719L6.7502 3.59766L6.29668 3.71719L5.96621 4.04766L5.84668 4.50117L5.96621 4.95469L6.29668 5.28516L6.7502 5.40469L7.20371 5.28516L7.53418 4.95469L7.65371 4.50117L7.53418 4.04766Z" fill="white"/>
<path id="Vector_11" d="M7.53379 4.95195L7.72363 4.75859L7.65332 4.49844L7.53379 4.95195ZM7.72363 4.23828L7.81855 3.87969L7.46348 3.78477L7.53379 4.04492L7.72363 4.23828ZM7.46348 3.78477L7.36856 3.42969L7.00996 3.52461L7.20332 3.71445L7.46348 3.78477ZM6.48965 3.52461L6.13105 3.42969L6.03613 3.78477L6.29629 3.71445L6.48965 3.52461Z" fill="white"/>
<path id="Vector_12" d="M6.75039 3.59766L6.49023 3.52734L6.29688 3.71719L6.75039 3.59766Z" fill="white"/>
<path id="Vector_13" d="M7.01055 3.52578L6.75039 3.26562L6.49023 3.52578L6.75039 3.59609L7.01055 3.52578Z" fill="white"/>
<path id="Vector_14" d="M7.20312 3.71719L7.00977 3.52734L6.74961 3.59766L7.20312 3.71719ZM6.48945 5.475L6.13086 5.56992L6.29609 6.18867L6.74961 5.73516L6.48945 5.475ZM6.29609 6.18867L6.74961 7.87617L7.20312 6.18867L6.74961 5.73516L6.29609 6.18867ZM6.03594 5.21484L5.68086 5.11992L5.51562 5.73516L6.13086 5.56992L6.03594 5.21484Z" fill="white"/>
<path id="Vector_15" d="M5.51562 5.73359L5.06211 7.42109L6.29609 6.18711L6.13086 5.56836L5.51562 5.73359ZM5.06211 4.95312L3.82812 6.18711L5.51562 5.73359L5.68086 5.11836L5.06211 4.95312Z" fill="white"/>
<path id="Vector_16" d="M5.77617 4.76172L5.51602 4.50156L5.0625 4.95508L5.68125 5.12031L5.77617 4.76172ZM5.77617 4.24141L5.68125 3.88281L5.0625 4.04805L5.51602 4.50156L5.77617 4.24141Z" fill="white"/>
<path id="Vector_17" d="M5.0625 4.04688L3.375 4.50039L5.0625 4.95391L5.51602 4.50039L5.0625 4.04688ZM8.4375 4.95391L7.81875 5.11914L7.98398 5.73438L9.67148 6.18789L8.4375 4.95391Z" fill="white"/>
<path id="Vector_18" d="M7.46367 5.21328L7.36875 5.56836L7.98398 5.73359L7.81875 5.11836L7.46367 5.21328ZM7.01016 5.47344L6.75 5.73359L7.20352 6.18711L7.36875 5.56836L7.01016 5.47344ZM7.72383 4.75977L7.81875 5.11836L8.4375 4.95312L7.98398 4.49961L7.72383 4.75977ZM7.20352 6.18711L8.4375 7.42109L7.98398 5.73359L7.36875 5.56836L7.20352 6.18711ZM7.46367 3.78594L7.81875 3.88086L7.98398 3.26562L7.36875 3.43086L7.46367 3.78594ZM8.4375 4.04609L9.67148 2.81211L7.98398 3.26562L7.81875 3.88086L8.4375 4.04609ZM7.98398 3.26562L8.4375 1.57812L7.20352 2.81211L7.36875 3.43086L7.98398 3.26562ZM8.4375 4.95312L10.125 4.49961L8.4375 4.04609L7.98398 4.49961L8.4375 4.95312Z" fill="white"/>
<path id="Vector_19" d="M7.72383 4.23945L7.98398 4.49961L8.4375 4.04609L7.81875 3.88086L7.72383 4.23945ZM6.29648 2.81211L5.0625 1.57812L5.51602 3.26562L6.13125 3.43086L6.29648 2.81211ZM6.03633 3.78594L6.13125 3.43086L5.51602 3.26562L5.68125 3.88086L6.03633 3.78594Z" fill="white"/>
<path id="Vector_20" d="M5.51562 3.26602L3.82812 2.8125L5.06211 4.04648L5.68086 3.88125L5.51562 3.26602ZM7.00977 3.52617L7.36836 3.43125L7.20312 2.8125L6.74961 3.26602L7.00977 3.52617Z" fill="white"/>
<path id="Vector_21" d="M7.20391 2.8125L6.75039 1.125L6.29688 2.8125L6.75039 3.26602L7.20391 2.8125Z" fill="white"/>
<path id="Vector_22" d="M6.48945 3.52617L6.74961 3.26602L6.29609 2.8125L6.13086 3.43125L6.48945 3.52617Z" fill="white"/>
</g>
<path id="Vector_23" d="M6.75039 6.41094C7.80663 6.41094 8.66289 5.55468 8.66289 4.49844C8.66289 3.44219 7.80663 2.58594 6.75039 2.58594C5.69415 2.58594 4.83789 3.44219 4.83789 4.49844C4.83789 5.55468 5.69415 6.41094 6.75039 6.41094Z" fill="#000095"/>
<path id="Vector_24" d="M6.75 6.1875C7.68198 6.1875 8.4375 5.43198 8.4375 4.5C8.4375 3.56802 7.68198 2.8125 6.75 2.8125C5.81802 2.8125 5.0625 3.56802 5.0625 4.5C5.0625 5.43198 5.81802 6.1875 6.75 6.1875Z" fill="white"/>
</g>
</g>
</g>
</g>
<defs>
<clipPath id="clip0_186_15253">
<rect width="18" height="18" fill="white"/>
</clipPath>
</defs>
</svg>
