<svg width="18" height="18" viewBox="0 0 18 18" fill="none" xmlns="http://www.w3.org/2000/svg">
<g id="ug" clip-path="url(#clip0_186_15296)">
<g id="Clip path group">
<mask id="mask0_186_15296" style="mask-type:luminance" maskUnits="userSpaceOnUse" x="-1" y="0" width="19" height="18">
<g id="ug-a">
<path id="Vector" d="M-0.000976562 0H17.9963V17.9972H-0.000976562V0Z" fill="white"/>
</g>
</mask>
<g mask="url(#mask0_186_15296)">
<g id="Group">
<path id="Vector_2" fill-rule="evenodd" clip-rule="evenodd" d="M-4.5 12H22.4959V15.0007H-4.5V12Z" fill="#FFE700"/>
<path id="Vector_3" fill-rule="evenodd" clip-rule="evenodd" d="M-4.5 9H22.4959V12.0008H-4.5V9Z" fill="#000001"/>
<path id="Vector_4" fill-rule="evenodd" clip-rule="evenodd" d="M-4.5 6H22.4959V8.99712H-4.5V6Z" fill="#DE3908"/>
<path id="Vector_5" fill-rule="evenodd" clip-rule="evenodd" d="M-4.5 3H22.4959V6.00075H-4.5V3Z" fill="#FFE700"/>
<path id="Vector_6" fill-rule="evenodd" clip-rule="evenodd" d="M-4.5 0H22.4959V3.00075H-4.5V0Z" fill="#000001"/>
<path id="Vector_7" fill-rule="evenodd" clip-rule="evenodd" d="M11.8023 8.99831C11.8023 9.74171 11.507 10.4547 10.9813 10.9803C10.4556 11.506 9.74269 11.8013 8.99929 11.8013C8.25589 11.8013 7.54293 11.506 7.01727 10.9803C6.4916 10.4547 6.19629 9.74171 6.19629 8.99831C6.19629 8.25491 6.4916 7.54196 7.01727 7.01629C7.54293 6.49063 8.25589 6.19531 8.99929 6.19531C9.74269 6.19531 10.4556 6.49063 10.9813 7.01629C11.507 7.54196 11.8023 8.25491 11.8023 8.99831Z" fill="#FFFDFF" stroke="black" stroke-width="0.92889"/>
<path id="Vector_8" fill-rule="evenodd" clip-rule="evenodd" d="M8.50467 6.85172L8.32324 6.5179C8.39581 6.44533 8.51192 6.39453 8.7006 6.39453L8.68246 6.75738L8.50467 6.85172Z" fill="#DE3108" stroke="black" stroke-width="0.92889"/>
<path id="Vector_9" fill-rule="evenodd" clip-rule="evenodd" d="M8.68262 6.76514L8.70439 6.39503C8.70439 6.39503 9.08175 6.37326 9.28494 6.61637L9.08538 6.90665L8.68262 6.76514Z" fill="#FFE700" stroke="black" stroke-width="0.92889"/>
<path id="Vector_10" fill-rule="evenodd" clip-rule="evenodd" d="M9.0918 6.89965L9.27685 6.60938C9.40022 6.74 9.45102 6.83434 9.47279 6.97222C9.47279 6.97948 9.17888 7.04479 9.17888 7.04479L9.0918 6.89965Z" fill="#DE3108" stroke="black" stroke-width="0.92889"/>
<path id="Vector_11" fill-rule="evenodd" clip-rule="evenodd" d="M8.59923 11.6427C8.59923 11.6427 8.94756 11.2436 9.62246 11.3271C9.52086 11.1638 9.19067 11.1819 9.19067 11.1819C9.19067 11.1819 9.08908 10.4054 9.1689 10.3691C9.24873 10.3329 9.58618 10.3691 9.58618 10.3691C9.63335 10.3691 9.70954 10.2494 9.64786 10.1732C9.58618 10.097 9.40838 9.8031 9.48095 9.74504C9.55352 9.68699 9.95265 9.7777 9.95265 9.7777L8.82782 8.33356C8.82782 8.33356 8.71171 7.78929 8.94394 7.53167C9.2197 7.29945 9.19067 7.05271 9.18342 7.05634C9.14713 6.80235 8.76251 6.62092 8.50126 6.85315C8.34887 7.0382 8.45046 7.17971 8.45046 7.17971C8.45046 7.17971 8.05133 7.28856 8.03319 7.36113C8.01867 7.42645 8.48675 7.34662 8.48675 7.34662L8.44321 7.66593C8.44321 7.66593 7.52883 8.50047 8.2255 9.21528C8.23638 9.21528 8.2509 9.18263 8.2509 9.18263C8.2509 9.18263 8.49763 9.48742 8.75525 9.55273C8.99836 9.8031 8.97296 9.76318 8.97296 9.76318C8.97296 9.76318 9.02376 10.1551 8.97659 10.2349C8.72129 10.2033 8.46321 10.2008 8.20736 10.2276C8.1239 10.253 7.80459 10.2385 7.88079 10.7574L7.9969 10.4925C7.9969 10.4925 7.98965 10.6812 8.06584 10.7465C8.05133 10.5506 8.13841 10.4163 8.13841 10.4163C8.13841 10.4163 8.15293 10.634 8.20373 10.663C8.2509 10.6993 8.2509 10.3147 8.51578 10.3437C8.78065 10.38 8.97296 10.3691 8.97296 10.3691C8.97296 10.3691 9.06005 11.1166 9.03102 11.1892C8.84234 11.142 8.38515 11.2073 8.35612 11.3234C8.62463 11.3053 8.748 11.3379 8.748 11.3379C8.748 11.3379 8.53029 11.5303 8.59923 11.6427Z" fill="black" stroke="black" stroke-width="0.82568" stroke-linecap="round" stroke-linejoin="round"/>
<path id="Vector_12" fill-rule="evenodd" clip-rule="evenodd" d="M8.70739 7.54688C8.70739 7.54688 8.03975 8.27983 8.3264 8.84224C8.34454 8.76241 8.33728 8.71524 8.34454 8.71887C8.33003 8.70799 8.42799 8.78419 8.41711 8.76967C8.42437 8.72976 8.39171 8.64267 8.39171 8.64267L8.47879 8.66445L8.42799 8.56648L8.55499 8.58462C8.55499 8.58462 8.51145 8.46125 8.52596 8.46125C8.56107 8.46313 8.59615 8.46555 8.63119 8.46851C8.44251 8.13106 8.6203 7.85167 8.70376 7.5505L8.70739 7.54688Z" fill="#9CA69C" stroke="#9CA69C" stroke-width="0.82568" stroke-linecap="round" stroke-linejoin="round"/>
<path id="Vector_13" fill-rule="evenodd" clip-rule="evenodd" d="M8.93586 6.92188C8.93586 6.92188 8.97214 7.17587 8.83426 7.24844C8.81249 7.26295 8.7254 7.29198 8.73629 7.34278C8.75443 7.41172 8.79072 7.39721 8.84514 7.38632C8.99028 7.36092 9.15719 7.0525 8.93586 6.92188Z" fill="#9CA69C" stroke="#9CA69C" stroke-width="0.92889"/>
<path id="Vector_14" fill-rule="evenodd" clip-rule="evenodd" d="M8.68991 7.13646C8.68991 7.15089 8.68418 7.16474 8.67397 7.17494C8.66376 7.18515 8.64992 7.19089 8.63548 7.19089C8.62105 7.19089 8.6072 7.18515 8.597 7.17494C8.58679 7.16474 8.58105 7.15089 8.58105 7.13646C8.58105 7.12202 8.58679 7.10818 8.597 7.09797C8.6072 7.08777 8.62105 7.08203 8.63548 7.08203C8.64992 7.08203 8.66376 7.08777 8.67397 7.09797C8.68418 7.10818 8.68991 7.12202 8.68991 7.13646Z" fill="white"/>
<path id="Vector_15" fill-rule="evenodd" clip-rule="evenodd" d="M8.47501 7.34766C8.43873 7.37668 8.2573 7.56899 8.43873 7.63793C8.62741 7.58714 8.57298 7.55448 8.61652 7.51094C8.61652 7.42748 8.52218 7.40208 8.47501 7.34766Z" fill="#DE3108" stroke="black" stroke-width="0.92889"/>
<path id="Vector_16" fill-rule="evenodd" clip-rule="evenodd" d="M8.87801 9.16016C8.86712 9.2037 8.82721 9.35609 8.88526 9.47221C9.04491 9.40689 9.11748 9.42504 9.17191 9.46132C9.04129 9.35247 8.99049 9.31255 8.87801 9.16016Z" fill="#9CA69C" stroke="#9CA69C" stroke-width="0.82568" stroke-linecap="round" stroke-linejoin="round"/>
<path id="Vector_17" fill-rule="evenodd" clip-rule="evenodd" d="M9.1543 9.88281L9.16155 10.2384C9.16155 10.2384 9.28855 10.2638 9.34298 10.2384C9.40103 10.2166 9.34298 9.99167 9.1543 9.88281Z" fill="white" stroke="white" stroke-width="0.82568" stroke-linecap="round" stroke-linejoin="round"/>
<path id="Vector_18" fill-rule="evenodd" clip-rule="evenodd" d="M10.0578 9.92942C10.0578 9.92942 9.82562 9.37426 9.24144 9.23275C8.65725 9.09124 8.72982 8.47077 8.77699 8.43085C8.80239 8.37643 8.82053 8.29297 8.99107 8.3728C9.16161 8.45263 9.9381 8.8445 10.0506 8.86264C10.1631 8.88079 10.0651 9.94393 10.0578 9.92942Z" fill="#9CA69C" stroke="black" stroke-width="0.92889"/>
<path id="Vector_19" fill-rule="evenodd" clip-rule="evenodd" d="M9.49913 9.23144C9.48825 9.23507 10.2829 9.69951 10.0434 10.0986C10.272 9.94988 10.1958 9.685 10.1958 9.685C10.1958 9.685 10.3809 10.1676 9.93092 10.4034C9.98172 10.447 10.0107 10.4361 10.0107 10.4361L9.93818 10.5123C9.93818 10.5123 9.9019 10.5703 10.2031 10.4252C10.1196 10.4905 10.1123 10.5377 10.1123 10.5377C10.1123 10.5377 10.1377 10.603 10.3337 10.4288C10.2556 10.5056 10.1896 10.5937 10.1377 10.6901C10.5732 10.6502 11.5093 9.24958 9.84384 8.83594L9.91641 8.91576L9.49913 9.23144Z" fill="#DE3108" stroke="black" stroke-width="0.82568" stroke-linejoin="round"/>
<path id="Vector_20" fill-rule="evenodd" clip-rule="evenodd" d="M9.53098 9.09427C9.63984 9.16684 9.67612 9.19586 9.69063 9.23215C9.59267 9.21038 9.50195 9.21764 9.50195 9.21764C9.50195 9.21764 9.2915 9.01444 9.25159 8.99993C9.22256 8.99993 9.05565 8.89107 9.05565 8.89107C8.9722 8.85116 8.896 8.56451 9.20079 8.64797C9.5201 8.79673 9.56364 8.80762 9.56364 8.80762L9.941 8.92736L10.1587 9.17047C10.1587 9.17047 9.77046 8.97816 9.72329 8.97453C9.83214 9.06161 9.8902 9.17772 9.8902 9.17772C9.76683 9.14144 9.66161 9.11241 9.53098 9.09427Z" fill="white" stroke="black" stroke-width="0.82568" stroke-linecap="round" stroke-linejoin="round"/>
<path id="Vector_21" d="M8.0293 7.37498C8.0293 7.37498 8.3994 7.2879 8.44294 7.30241" stroke="white" stroke-width="0.82568" stroke-linecap="round"/>
<path id="Vector_22" fill-rule="evenodd" clip-rule="evenodd" d="M-4.5 15H22.4959V18.0008H-4.5V15Z" fill="#DE3908"/>
</g>
</g>
</g>
</g>
<defs>
<clipPath id="clip0_186_15296">
<rect width="18" height="18" fill="white"/>
</clipPath>
</defs>
</svg>
