<svg width="18" height="18" viewBox="0 0 18 18" fill="none" xmlns="http://www.w3.org/2000/svg">
<g id="un" clip-path="url(#clip0_186_15327)">
<path id="Vector" fill-rule="evenodd" clip-rule="evenodd" d="M0 0H18V18H0V0Z" fill="#4B92DB"/>
<g id="Group">
<path id="un-a" d="M10.4133 13.2069C10.348 13.2777 10.2765 13.3424 10.1996 13.4004C9.72257 12.9054 9.16007 12.3609 8.62682 12.3609C8.29607 12.3609 8.05982 12.6129 7.78082 12.7884C7.39607 13.0359 6.86732 13.1754 6.41507 12.9931C6.15928 12.9055 5.93217 12.75 5.75807 12.5431C5.94956 12.6626 6.1666 12.735 6.39144 12.7546C6.61629 12.7741 6.84258 12.7402 7.05182 12.6556C7.49507 12.4711 7.94957 12.2259 8.45582 12.2259C9.20282 12.2259 9.91382 12.7321 10.4133 13.2069ZM4.88732 11.6544C5.38231 12.2169 6.19007 12.0369 6.84932 12.1764C6.94157 12.1989 7.02932 12.2281 7.12832 12.2124C7.04957 12.1629 6.94382 12.1561 6.85382 12.1224C6.34082 11.9289 6.26207 11.3799 5.98082 11.0041C6.34082 11.2426 6.63557 11.5666 6.97082 11.8749C7.20713 12.0703 7.49294 12.1965 7.79656 12.2394C7.72456 12.2664 7.63006 12.2619 7.54906 12.2799C7.00906 12.4149 6.41057 12.6264 5.83457 12.4374C5.43289 12.3034 5.09582 12.0242 4.88957 11.6544H4.88732ZM4.09532 10.3494C4.40357 11.0491 5.17982 11.1054 5.69282 11.5329C5.78481 11.6146 5.88689 11.6841 5.99657 11.7399L6.00332 11.7354C5.87647 11.6248 5.7625 11.5003 5.66356 11.3641C5.36881 10.9366 5.46557 10.3516 5.23832 9.89712C5.4494 10.1318 5.62455 10.3964 5.75807 10.6824C5.94932 11.1369 6.01457 11.6566 6.44432 12.0031C5.97857 11.8501 5.44307 11.8794 5.02682 11.6071C4.58582 11.3191 4.17857 10.8646 4.09532 10.3516V10.3494ZM3.76457 8.93638C3.80957 9.55288 4.46207 9.88138 4.77707 10.3876C4.84457 10.4956 4.91207 10.6081 5.00882 10.6936C4.99307 10.6284 4.94132 10.5699 4.90982 10.5069C4.80652 10.2794 4.76538 10.0287 4.79057 9.78013C4.81982 9.46513 4.95032 9.17262 4.90082 8.84187C5.17082 9.42462 5.08307 10.1514 5.23832 10.7791C5.27432 10.9186 5.35757 11.0401 5.40932 11.1729C5.14607 10.9704 4.79957 10.7904 4.50932 10.5654C4.21994 10.3573 3.99405 10.073 3.85682 9.74412C3.76846 9.48461 3.737 9.20913 3.76457 8.93638ZM3.78257 7.80237C3.81407 7.66512 3.83882 7.52337 3.89732 7.39737C3.78482 7.97787 4.17182 8.39637 4.30232 8.90037C4.35182 9.08937 4.36982 9.28962 4.44632 9.46737C4.45307 9.46962 4.45982 9.46287 4.46432 9.45837C4.27307 8.92287 4.55432 8.42787 4.82432 8.00712C4.89047 7.89168 4.93758 7.76632 4.96382 7.63587C4.99307 7.87887 4.94132 8.15788 4.89632 8.40763C4.84007 8.72938 4.72982 9.03088 4.64207 9.34138C4.59455 9.54374 4.59071 9.75391 4.63082 9.95787L4.60157 9.93537C4.39907 9.56187 3.99857 9.26937 3.87932 8.85987C3.76533 8.51968 3.7322 8.1576 3.78257 7.80237ZM3.99632 7.17687C4.00367 6.76357 4.15484 6.36576 4.42382 6.05187C4.43057 6.04737 4.43732 6.04063 4.44632 6.04288C4.16282 6.47038 4.42157 7.01487 4.38332 7.50312L4.34732 8.00263C4.35182 8.00713 4.35182 8.02287 4.36532 8.01612C4.38332 7.95987 4.38782 7.90138 4.39682 7.84288C4.46432 7.43788 4.81982 7.15888 5.11907 6.87538C5.18828 6.81003 5.24208 6.7301 5.27657 6.64138C5.25182 6.84388 5.19557 7.04862 5.10557 7.23087C4.87382 7.69887 4.42832 8.07688 4.34732 8.61013C4.30907 8.09938 3.99632 7.71912 3.99632 7.17687ZM4.73882 5.69413C4.86817 5.53861 5.04026 5.4244 5.23382 5.36562C4.86257 5.61987 4.88282 6.07213 4.77032 6.45013C4.72982 6.58738 4.66907 6.71787 4.63532 6.85962L4.64657 6.86862C4.71287 6.69844 4.8167 6.5454 4.95032 6.42087C5.20907 6.17787 5.59832 6.02938 5.72657 5.67163C5.71982 6.16888 5.29682 6.54687 4.90982 6.83937C4.73754 6.96935 4.59744 7.13716 4.50032 7.32987C4.51382 7.19487 4.52282 7.07788 4.50932 6.94513C4.46882 6.51088 4.44182 6.02263 4.74107 5.69413H4.73882ZM6.23507 4.85938C5.96282 5.10012 5.78057 5.40837 5.56907 5.68512C5.39582 5.91687 5.15507 6.05862 4.95032 6.25212C5.06282 6.02262 5.08082 5.75712 5.22257 5.53437C5.46332 5.15187 5.86382 5.00337 6.23507 4.85938Z" fill="white"/>
<path id="un-a_2" d="M7.58766 13.2069C7.65293 13.2777 7.72447 13.3424 7.80141 13.4004C8.27841 12.9054 8.84091 12.3609 9.37416 12.3609C9.70491 12.3609 9.94116 12.6129 10.2202 12.7884C10.6049 13.0359 11.1337 13.1754 11.5859 12.9931C11.8417 12.9055 12.0688 12.75 12.2429 12.5431C12.0514 12.6626 11.8344 12.735 11.6095 12.7546C11.3847 12.7741 11.1584 12.7402 10.9492 12.6556C10.5059 12.4711 10.0514 12.2259 9.54516 12.2259C8.79816 12.2259 8.08716 12.7321 7.58766 13.2069ZM13.1137 11.6544C12.6187 12.2169 11.8109 12.0369 11.1517 12.1764C11.0594 12.1989 10.9717 12.2281 10.8727 12.2124C10.9514 12.1629 11.0572 12.1561 11.1472 12.1224C11.6602 11.9289 11.7389 11.3799 12.0202 11.0041C11.6602 11.2426 11.3654 11.5666 11.0302 11.8749C10.7938 12.0703 10.508 12.1965 10.2044 12.2394C10.2764 12.2664 10.3709 12.2619 10.4519 12.2799C10.9919 12.4149 11.5904 12.6264 12.1664 12.4374C12.5681 12.3034 12.9052 12.0242 13.1114 11.6544H13.1137ZM13.9057 10.3494C13.5974 11.0491 12.8212 11.1054 12.3082 11.5329C12.2162 11.6146 12.1141 11.6841 12.0044 11.7399L11.9977 11.7354C12.1245 11.6248 12.2385 11.5003 12.3374 11.3641C12.6322 10.9366 12.5354 10.3516 12.7627 9.89712C12.5516 10.1318 12.3764 10.3964 12.2429 10.6824C12.0517 11.1369 11.9864 11.6566 11.5567 12.0031C12.0224 11.8501 12.5579 11.8794 12.9742 11.6071C13.4152 11.3191 13.8224 10.8646 13.9057 10.3516V10.3494ZM14.2364 8.93638C14.1914 9.55288 13.5389 9.88138 13.2239 10.3876C13.1564 10.4956 13.0889 10.6081 12.9922 10.6936C13.0079 10.6284 13.0597 10.5699 13.0912 10.5069C13.1945 10.2794 13.2356 10.0287 13.2104 9.78013C13.1812 9.46513 13.0507 9.17262 13.1002 8.84187C12.8302 9.42462 12.9179 10.1514 12.7627 10.7791C12.7267 10.9186 12.6434 11.0401 12.5917 11.1729C12.8549 10.9704 13.2014 10.7904 13.4917 10.5654C13.781 10.3573 14.0069 10.073 14.1442 9.74412C14.2325 9.48461 14.264 9.20913 14.2364 8.93638ZM14.2184 7.80237C14.1869 7.66512 14.1622 7.52337 14.1037 7.39737C14.2162 7.97787 13.8292 8.39637 13.6987 8.90037C13.6492 9.08937 13.6312 9.28962 13.5547 9.46737C13.5479 9.46962 13.5412 9.46287 13.5367 9.45837C13.7279 8.92287 13.4467 8.42787 13.1767 8.00712C13.1105 7.89168 13.0634 7.76632 13.0372 7.63587C13.0079 7.87887 13.0597 8.15788 13.1047 8.40763C13.1609 8.72938 13.2712 9.03088 13.3589 9.34138C13.4064 9.54374 13.4103 9.75391 13.3702 9.95787L13.3994 9.93537C13.6019 9.56187 14.0024 9.26937 14.1217 8.85987C14.2357 8.51968 14.2688 8.1576 14.2184 7.80237ZM14.0047 7.17687C13.9973 6.76357 13.8461 6.36576 13.5772 6.05187C13.5704 6.04737 13.5637 6.04063 13.5547 6.04288C13.8382 6.47038 13.5794 7.01487 13.6177 7.50312L13.6537 8.00263C13.6492 8.00713 13.6492 8.02287 13.6357 8.01612C13.6177 7.95987 13.6132 7.90138 13.6042 7.84288C13.5367 7.43788 13.1812 7.15888 12.8819 6.87538C12.8127 6.81003 12.7589 6.7301 12.7244 6.64138C12.7492 6.84388 12.8054 7.04862 12.8954 7.23087C13.1272 7.69887 13.5727 8.07688 13.6537 8.61013C13.6919 8.09938 14.0047 7.71912 14.0047 7.17687ZM13.2622 5.69413C13.1328 5.53861 12.9607 5.4244 12.7672 5.36562C13.1384 5.61987 13.1182 6.07213 13.2307 6.45013C13.2712 6.58738 13.3319 6.71787 13.3657 6.85962L13.3544 6.86862C13.2881 6.69844 13.1843 6.5454 13.0507 6.42087C12.7919 6.17787 12.4027 6.02938 12.2744 5.67163C12.2812 6.16888 12.7042 6.54687 13.0912 6.83937C13.2634 6.96935 13.4035 7.13716 13.5007 7.32987C13.4872 7.19487 13.4782 7.07788 13.4917 6.94513C13.5322 6.51088 13.5592 6.02263 13.2599 5.69413H13.2622ZM11.7659 4.85938C12.0382 5.10012 12.2204 5.40837 12.4319 5.68512C12.6052 5.91687 12.8459 6.05862 13.0507 6.25212C12.9382 6.02262 12.9202 5.75712 12.7784 5.53437C12.5377 5.15187 12.1372 5.00337 11.7659 4.85938Z" fill="white"/>
</g>
<path id="Vector_2" d="M12.3398 9.82621L12.2555 9.78051C12.0854 10.1319 11.8599 10.4536 11.5875 10.7332L11.1164 10.2621C11.3451 10.0266 11.5328 9.75447 11.6719 9.45707L11.591 9.41488C11.4562 9.70306 11.2745 9.96682 11.0531 10.1953L10.6242 9.76644C10.8057 9.5789 10.9533 9.3612 11.0602 9.12308L10.9793 9.0809C10.877 9.311 10.7354 9.52155 10.5609 9.70316L10.0898 9.23558C10.2198 9.09801 10.3225 8.93694 10.3922 8.76097L10.3113 8.71879C10.2463 8.88676 10.1496 9.04071 10.0266 9.1723L9.59766 8.7434C9.72024 8.60769 9.79226 8.43385 9.80156 8.25121H10.4063C10.4016 8.41135 10.3695 8.56951 10.3113 8.71879L10.3922 8.76097C10.4565 8.59964 10.4922 8.42832 10.4977 8.25472H11.1656C11.1593 8.54093 11.096 8.823 10.9793 9.08441L11.0602 9.1266C11.1827 8.85073 11.2484 8.55302 11.2535 8.25121H11.8582C11.8531 8.65484 11.762 9.05274 11.591 9.4184L11.6719 9.46058C11.8477 9.08793 11.9426 8.6766 11.9496 8.25121H12.6176C12.6111 8.78144 12.4874 9.30367 12.2555 9.78051L12.3363 9.82621C12.5817 9.32242 12.7091 8.76938 12.709 8.20902C12.709 7.72386 12.6141 7.25277 12.4383 6.81683L12.3574 6.85199C12.5227 7.26332 12.6105 7.70629 12.6176 8.16332H11.9496C11.9434 7.80534 11.8719 7.45149 11.7387 7.11918L11.6578 7.15433C11.7852 7.47573 11.8531 7.81762 11.8582 8.16332H11.2535C11.249 7.89862 11.1978 7.63679 11.1023 7.38988L11.0215 7.42504C11.1111 7.66103 11.1587 7.9109 11.1621 8.16332H10.4941C10.4904 8.00258 10.4607 7.8435 10.4063 7.69222L10.3219 7.72738C10.3729 7.86731 10.4014 8.01445 10.4063 8.16332H9.80156C9.79226 7.98068 9.72024 7.80684 9.59766 7.67113L10.0266 7.24574C10.158 7.38422 10.2597 7.54813 10.3254 7.72738L10.4063 7.69222C10.3364 7.50261 10.2288 7.32918 10.0898 7.18246L10.5609 6.70785C10.7598 6.91522 10.9152 7.16025 11.018 7.42855L11.1023 7.3934C10.9944 7.11445 10.8319 6.85986 10.6242 6.64457L11.0531 6.21918C11.3142 6.48812 11.5197 6.8059 11.6578 7.15433L11.7422 7.11918C11.5989 6.76009 11.3863 6.43276 11.1164 6.1559L11.591 5.68129C11.9205 6.01775 12.1808 6.41547 12.3574 6.85199L12.4383 6.81683C12.2519 6.35603 11.9745 5.93754 11.6227 5.58636C11.2697 5.23251 10.8488 4.95386 10.3852 4.76722L10.35 4.8516C10.789 5.02739 11.1892 5.2878 11.5277 5.61801L11.0531 6.09261C10.7808 5.82727 10.4596 5.61715 10.1074 5.47386L10.0723 5.55824C10.4139 5.6963 10.7255 5.89926 10.9898 6.1559L10.5609 6.5848C10.3568 6.38686 10.117 6.22939 9.8543 6.12074L9.81914 6.20511C10.0712 6.30862 10.3015 6.45892 10.4977 6.64808L10.0266 7.11918C9.89539 6.99557 9.74293 6.89671 9.57656 6.82738L9.54141 6.91176C9.69711 6.976 9.84 7.06769 9.96328 7.18246L9.53438 7.61136C9.39867 7.48878 9.22483 7.41676 9.04219 7.40746V6.80277C9.21483 6.80668 9.38526 6.84244 9.54492 6.90824L9.58008 6.82738C9.41061 6.75617 9.22945 6.71683 9.0457 6.71136V6.0434C9.31127 6.04925 9.57347 6.10408 9.81914 6.20511L9.8543 6.12074C9.59726 6.01628 9.32312 5.96026 9.0457 5.95551V5.34379C9.39916 5.34971 9.74845 5.42124 10.0758 5.55472L10.1109 5.47035C9.77225 5.33336 9.41102 5.26063 9.0457 5.2559V4.58793C9.50273 4.59144 9.94219 4.68285 10.3535 4.84808L10.3887 4.76371C9.94701 4.58744 9.47553 4.49792 9 4.50004C8.42369 4.4997 7.85534 4.63456 7.34063 4.89379L7.38281 4.97113C7.87108 4.72706 8.40846 4.59723 8.9543 4.59144V5.25941C8.51601 5.26562 8.0847 5.37015 7.69219 5.56527L7.73438 5.64261C8.11391 5.45445 8.53072 5.35355 8.9543 5.3473V5.95551C8.62877 5.96138 8.30844 6.03816 8.01563 6.18051L8.0543 6.25785C8.33523 6.12205 8.64231 6.04888 8.9543 6.0434V6.71136C8.75104 6.7176 8.55122 6.76547 8.36719 6.85199L8.40586 6.92933C8.57799 6.84931 8.76457 6.80506 8.9543 6.79926V7.40746C8.85938 7.41097 8.77149 7.43558 8.68711 7.47074L8.7293 7.54808C8.81522 7.51298 8.90719 7.49507 9 7.49535C9.09356 7.49566 9.18614 7.51445 9.27242 7.55065C9.35869 7.58685 9.43696 7.63974 9.50273 7.70629C9.56928 7.77206 9.62217 7.85033 9.65837 7.93661C9.69457 8.02288 9.71336 8.11546 9.71367 8.20902C9.71367 8.59926 9.39375 8.92269 9 8.92269C8.90582 8.92304 8.81252 8.90457 8.72558 8.86834C8.63864 8.83212 8.55982 8.77888 8.49375 8.71176C8.42784 8.6457 8.3756 8.56729 8.34001 8.48103C8.30442 8.39477 8.28618 8.30234 8.28633 8.20902C8.28633 8.01566 8.36016 7.83637 8.49727 7.70277C8.56369 7.63645 8.64253 7.58389 8.7293 7.54808L8.68711 7.46722C8.60606 7.50162 8.53123 7.54913 8.46563 7.60785L8.03672 7.18246C8.14414 7.07798 8.26757 6.99134 8.40234 6.92582L8.36719 6.85551C8.22257 6.92307 8.08965 7.01326 7.97344 7.12269L7.49883 6.64457C7.66257 6.48735 7.85002 6.35685 8.0543 6.25785L8.01563 6.18051C7.80353 6.28438 7.60899 6.42079 7.43906 6.5848L7.01016 6.15238C7.22336 5.94462 7.46771 5.77143 7.73438 5.6391L7.69219 5.56176C7.418 5.69798 7.16658 5.87588 6.94688 6.0891L6.47227 5.61449C6.7405 5.35307 7.04767 5.13485 7.38281 4.96761L7.34063 4.89027C6.61817 5.25399 6.03338 5.84249 5.67422 6.56722L5.75156 6.60941C5.92013 6.26609 6.14202 5.95165 6.40899 5.67777L6.88359 6.15238C6.6626 6.38063 6.47979 6.64297 6.34219 6.92933L6.41953 6.97152C6.55332 6.69273 6.73141 6.43747 6.94688 6.21566L7.37578 6.64457C7.20211 6.82491 7.05955 7.03281 6.95391 7.2598L7.03125 7.30199C7.13159 7.08153 7.26826 6.8795 7.43555 6.70433L7.91016 7.17894C7.78862 7.30839 7.69102 7.45837 7.62188 7.62191L7.69922 7.6641C7.76445 7.5081 7.85735 7.36517 7.97344 7.24222L8.40234 7.67113C8.28074 7.80607 8.20881 7.97845 8.19844 8.1598H7.59375C7.5986 7.98954 7.63433 7.82158 7.69922 7.6641L7.62188 7.62191C7.54887 7.7922 7.50833 7.97463 7.50234 8.1598H6.83438C6.84029 7.86337 6.90732 7.57134 7.03125 7.30199L6.95391 7.2598C6.82177 7.54187 6.74993 7.8484 6.74297 8.1598H6.13828C6.145 7.74803 6.24096 7.34262 6.41953 6.97152L6.34219 6.92933C6.15647 7.31334 6.05688 7.73329 6.05039 8.1598H5.38242C5.38862 7.62311 5.51474 7.09459 5.75156 6.61293L5.67422 6.56722C5.42184 7.07645 5.29068 7.63717 5.29102 8.20551C5.29154 8.55897 5.34244 8.91055 5.44219 9.24965L5.53008 9.22855C5.43619 8.9099 5.3865 8.57986 5.38242 8.24769H6.05039C6.05419 8.52415 6.09679 8.79871 6.17695 9.06332L6.26484 9.04222C6.18669 8.78448 6.14527 8.517 6.1418 8.24769H6.74648C6.75003 8.4673 6.78556 8.68521 6.85195 8.89457L6.93984 8.87347C6.8742 8.67118 6.83866 8.46033 6.83438 8.24769H7.50234C7.50728 8.40487 7.53694 8.56029 7.59023 8.70824L7.67813 8.68715C7.62672 8.5461 7.59824 8.39774 7.59375 8.24769H8.19844C8.20774 8.43033 8.27976 8.60417 8.40234 8.73988L7.97344 9.16879C7.84335 9.02993 7.74288 8.86606 7.67813 8.68715L7.59023 8.70824C7.65938 8.90315 7.76833 9.08154 7.91016 9.23207L7.43906 9.70316C7.21188 9.46805 7.04116 9.18432 6.93984 8.87347L6.85195 8.89457C6.95738 9.22152 7.13661 9.51984 7.37578 9.76644L6.94688 10.1953C6.63095 9.87077 6.39712 9.47542 6.26484 9.04222L6.17695 9.06332C6.3125 9.51219 6.5536 9.92207 6.88008 10.2586L6.4125 10.7297C5.99983 10.3092 5.69681 9.79367 5.53008 9.22855L5.44219 9.24965C5.61595 9.84619 5.93763 10.3892 6.37734 10.8282C6.67969 11.1305 7.02774 11.3731 7.40039 11.5524L7.44609 11.475C7.08485 11.3033 6.75459 11.0728 6.46875 10.793L6.94336 10.3219C7.18553 10.5566 7.46616 10.7481 7.77305 10.8879L7.81524 10.8106C7.51597 10.6745 7.24242 10.4877 7.00664 10.2586L7.43555 9.82972C7.63247 10.0197 7.86241 10.1722 8.11406 10.2797L8.15977 10.2024C7.91446 10.0991 7.69038 9.95126 7.49883 9.76644L7.96992 9.29535C8.11974 9.4355 8.29687 9.54321 8.49023 9.61176L8.53594 9.53441C8.34892 9.47019 8.1776 9.36716 8.0332 9.23207L8.46211 8.80316C8.59782 8.92575 8.77166 8.99777 8.9543 9.00707V9.61176C8.81054 9.6077 8.66827 9.58161 8.53242 9.53441L8.49023 9.61527C8.63836 9.66742 8.79379 9.6959 8.95078 9.69965V10.3676C8.67906 10.3628 8.41069 10.3068 8.15977 10.2024L8.11406 10.2797C8.37891 10.3925 8.66296 10.4534 8.95078 10.459V11.0637C8.55888 11.0584 8.1723 10.9722 7.81524 10.8106L7.77305 10.8879C8.1429 11.0576 8.54394 11.1485 8.95078 11.1551V11.8231C8.42344 11.8161 7.91016 11.6965 7.43906 11.4715L7.39688 11.5524C7.89701 11.7931 8.44495 11.9181 9 11.918C9.59063 11.918 10.1602 11.7774 10.6699 11.5207L10.6277 11.4364C10.1369 11.6847 9.5957 11.817 9.0457 11.8231V11.1551C9.489 11.1497 9.9253 11.0439 10.3219 10.8457L10.2797 10.7649C9.89646 10.9575 9.47458 11.0609 9.0457 11.0672V10.4625C9.37913 10.4561 9.70696 10.3757 10.0055 10.227L9.96328 10.1461C9.67815 10.2894 9.36472 10.3675 9.0457 10.3746V9.70668C9.25807 9.70056 9.46666 9.64901 9.65742 9.5555L9.61523 9.47465C9.43746 9.56124 9.24335 9.60917 9.0457 9.61527V9.01058C9.22712 9.00049 9.39959 8.92852 9.53438 8.80668L9.96328 9.23558C9.85989 9.33225 9.74257 9.41284 9.61523 9.47465L9.65742 9.5555C9.79268 9.48902 9.91713 9.4025 10.0266 9.29886L10.4977 9.76996C10.3396 9.92162 10.1594 10.0484 9.96328 10.1461L10.0055 10.227C10.2095 10.1246 10.3968 9.99182 10.5609 9.83324L10.9898 10.2621C10.7801 10.4649 10.5406 10.6344 10.2797 10.7649L10.3219 10.8457C10.5907 10.7106 10.8373 10.5351 11.0531 10.3254L11.5242 10.7965C11.2597 11.0541 10.9574 11.2699 10.6277 11.4364L10.6699 11.5207C11.0208 11.3428 11.3412 11.1102 11.6191 10.8317C11.9127 10.5389 12.1551 10.1991 12.3363 9.82621H12.3398Z" fill="white"/>
<path id="Vector_3" d="M9.18965 7.34687V7.37852H9.21426V7.35039L9.18965 7.34687ZM9.15449 7.31172H9.18965V7.33633H9.15449V7.31172ZM9.12988 7.31172V7.28711L9.10527 7.28359V7.30469L9.12988 7.31172ZM9.08066 7.29766L9.05605 7.29414V7.26953L9.08418 7.27305L9.08066 7.29766ZM8.86621 7.26953H8.89434V7.29062H8.86621V7.26953ZM8.82402 7.31172V7.29062L8.79941 7.28711V7.3082L8.82402 7.31172ZM8.79941 7.34687L8.76777 7.33633L8.7748 7.31523L8.80293 7.32227L8.79941 7.34687ZM8.74668 7.37148L8.74316 7.35039L8.76426 7.34687L8.76777 7.36797L8.74668 7.37148ZM5.80059 9.66719H5.78301V9.70234H5.81465V9.75508H5.83574L5.83223 9.69531L5.80059 9.68477V9.66719ZM6.0959 9.99766L6.08184 10.0223L6.03965 9.98711L6.01152 9.94492L5.99746 9.90977L5.96934 9.83945L6.02559 9.86758L6.04316 9.92031L6.07129 9.94141L6.0959 9.99766ZM6.85527 11.0031L6.82715 10.9574L6.87285 10.9645L6.91855 11.0066L6.93965 11.0559L6.91152 11.0699L6.89746 11.0488L6.8623 11.0383L6.85527 11.0031ZM8.8873 7.59297H8.84512L8.83809 7.50859L8.8627 7.49102V7.45234H8.7291V7.41719L8.74668 7.40313L8.71504 7.39258L8.69395 7.42422L8.68691 7.45937L8.64824 7.46641V7.48398H8.62012V7.5332L8.51465 7.62109L8.30723 7.61406C8.29316 7.64922 8.25449 7.61055 8.25449 7.61055C8.24746 7.58594 8.19473 7.61055 8.19473 7.61055C8.19473 7.64922 8.12441 7.58945 8.12441 7.58945L7.99434 7.49453C7.92051 7.42422 7.80801 7.51562 7.80449 7.5332C7.80449 7.58594 7.7166 7.54375 7.7166 7.54375C7.7166 7.54375 7.64277 7.52266 7.63223 7.55078C7.61816 7.58242 7.57246 7.57539 7.57246 7.57539L7.56191 7.58945L7.52676 7.59648L7.51973 7.62109L7.47402 7.62812L7.58652 7.62461C7.61465 7.62109 7.57598 7.68789 7.55488 7.68438L7.50215 7.68789L7.48457 7.70898H7.43535L7.41426 7.73711H7.34394C7.34394 7.73711 7.30176 7.76875 7.30527 7.7793C7.30879 7.78984 7.29824 7.825 7.2877 7.825C7.27715 7.825 7.25254 7.86016 7.25957 7.8707C7.2666 7.88125 7.23848 7.91992 7.23848 7.91992L7.23145 7.95508L7.20684 7.96563V8.07109L7.16465 8.09922V8.14492L7.09434 8.21523L7.10488 8.27852L7.04863 8.33828L7.05566 8.39805L7.02051 8.40859L7.01348 8.43672L6.99941 8.51758H7.03457C7.05566 8.51406 7.05215 8.57031 7.03457 8.57734C7.02051 8.58437 6.97832 8.59844 6.99941 8.6125C7.02402 8.63008 6.94316 8.62656 6.94316 8.60195C6.94316 8.58086 6.89746 8.56328 6.88691 8.5668C6.87637 8.57734 6.85527 8.53516 6.85527 8.53516C6.8166 8.49297 6.69004 8.53867 6.69004 8.53867L6.66895 8.59844C6.62676 8.60898 6.60215 8.67578 6.60215 8.67578C6.56699 8.68633 6.54238 8.72852 6.55293 8.73906C6.56348 8.75313 6.53535 8.75664 6.53535 8.75664V8.8375L6.51777 8.86562V8.95703C6.54238 8.95703 6.53887 8.99922 6.53887 8.99922C6.50371 8.99922 6.50723 9.05195 6.50723 9.05195L6.42988 9.07656L6.41582 9.10117L6.31738 9.09766L6.29277 9.12227L6.26465 9.09766H6.07832L6.07129 9.07656L6.03613 9.06953L6.0291 9.02734L5.97285 9.03086L5.9623 9.05547H5.90254C5.90605 9.09766 5.84277 9.15391 5.83223 9.13984C5.82871 9.12227 5.78652 9.08359 5.8041 9.07305L5.87441 9.05898V9.03086H5.73379L5.71973 9.05195H5.65996V9.11523L5.63535 9.12227C5.61426 9.13633 5.63535 9.175 5.63535 9.175C5.66348 9.20312 5.63535 9.24531 5.63535 9.24531C5.61074 9.26641 5.65293 9.30859 5.65293 9.30859C5.68105 9.31562 5.63535 9.34023 5.63535 9.34023C5.64238 9.37539 5.66348 9.38945 5.66348 9.38945C5.64238 9.42461 5.67754 9.4457 5.67754 9.4457L5.68105 9.50898L5.70918 9.52656V9.56875L5.72324 9.59336H5.78301L5.77949 9.49844C5.72676 9.43867 5.8252 9.42461 5.82871 9.4457C5.82871 9.47031 5.87441 9.48086 5.87441 9.48086C5.88145 9.53711 5.94473 9.57227 5.9623 9.51602C5.97988 9.45625 5.99746 9.49141 6.00801 9.51602C6.01855 9.54414 6.08887 9.61094 6.08887 9.61094H6.14512L6.15215 9.66367C6.21543 9.66016 6.23652 9.66367 6.26113 9.75508C6.2685 9.77896 6.28118 9.80085 6.29823 9.81912C6.31528 9.83739 6.33625 9.85155 6.35957 9.86055H6.4123C6.4123 9.81484 6.46504 9.86758 6.46504 9.89219C6.46504 9.91328 6.56348 9.99766 6.56348 9.99766L6.66895 10.0223L6.76035 10.0996L6.83066 10.0926H6.8623C6.87988 10.0258 6.96777 10.0926 6.97832 10.1172C6.98535 10.1418 7.04512 10.1805 7.04863 10.1594C7.05918 10.1418 7.10137 10.1523 7.1084 10.2086C7.11543 10.2648 7.14355 10.2543 7.14355 10.2543H7.35449L7.42832 10.184H7.61816C7.7166 10.1805 7.65684 10.0434 7.63926 10.0434C7.6041 10.0188 7.6498 9.90977 7.6498 9.90977L7.37559 9.65664C7.3123 9.65664 7.36855 9.56172 7.36855 9.56172C7.41777 9.53359 7.35801 9.48437 7.35801 9.48437C7.36504 9.43867 7.3334 9.38594 7.3334 9.38594C7.26309 9.34023 7.28418 9.25234 7.28418 9.25234V9.19258C7.22793 9.13984 7.30527 9.1293 7.30527 9.1293C7.3334 9.08359 7.2877 9.05195 7.2877 9.05195L7.28418 9.00273L7.22441 8.9957L7.21738 8.81641L7.08027 8.62305C7.05566 8.61602 7.07324 8.57031 7.07324 8.57031C7.1084 8.54922 7.06621 8.50352 7.06621 8.50352L7.06269 8.42266L7.14004 8.41211L7.16113 8.38398H7.19629V8.28555C7.21035 8.23633 7.25605 8.26094 7.25605 8.26094L7.30879 8.26445L7.34043 8.2082L7.34746 8.1625H7.30527C7.25957 8.13086 7.28418 8.03242 7.28418 8.03242C7.35449 7.92695 7.43535 7.98672 7.43535 7.98672H7.48809C7.56895 8.03594 7.49512 8.13789 7.49512 8.13789C7.48105 8.15898 7.48809 8.23281 7.48809 8.23281L7.50918 8.35234L7.45996 8.39453C7.41777 8.41563 7.41777 8.47187 7.45996 8.48242C7.49512 8.48242 7.48105 8.55625 7.43535 8.50703C7.36855 8.50703 7.47051 8.57031 7.44238 8.55273C7.5127 8.58789 7.49512 8.52461 7.49512 8.52461L7.58652 8.4543C7.62168 8.42617 7.67793 8.50703 7.67793 8.52109C7.67793 8.53164 7.8291 8.52109 7.8291 8.52109C7.87129 8.54922 7.88535 8.61953 7.88535 8.61953C7.92754 8.5668 8.01191 8.61602 7.94863 8.64414C8.0084 8.68281 8.0084 8.71445 8.0084 8.71445C8.05762 8.70039 8.05762 8.73906 8.05762 8.74961L8.07168 8.69336C8.01543 8.65117 8.14551 8.63711 8.10684 8.71445L8.08574 8.74961L8.12441 8.77773L8.12793 8.86562C8.2123 8.85859 8.1877 8.75664 8.1877 8.75664L8.22285 8.74609C8.22285 8.71094 8.25098 8.73203 8.25098 8.73203C8.22637 8.60195 8.31074 8.58086 8.31074 8.58086C8.35996 8.57031 8.36348 8.46484 8.36348 8.46484C8.32832 8.45078 8.34941 8.39805 8.38809 8.44375C8.42324 8.48945 8.36348 8.35234 8.36348 8.35234L8.33535 8.32773L8.29316 8.3207L8.28965 8.28203H8.21934L8.2123 8.33477L8.18418 8.3418L8.17715 8.32773L8.1666 8.36641H8.09629V8.3207L8.13496 8.31016L8.15254 8.28906L8.16309 8.22578H8.2123L8.27559 8.2082C8.27559 8.14492 8.31074 8.15898 8.31074 8.15898L8.33535 8.17656L8.37051 8.20469V8.22578L8.34941 8.23984L8.3459 8.26797L8.35645 8.31016H8.38809C8.39863 8.25039 8.47598 8.25039 8.50059 8.28906L8.52168 8.23633C8.46895 8.2082 8.52168 8.16602 8.53574 8.18711C8.5498 8.20469 8.58496 8.13789 8.58496 8.13789C8.58496 8.13789 8.60957 8.17305 8.58496 8.12383C8.55684 8.07813 8.60254 8.05352 8.60254 8.05352C8.59551 8.01133 8.65176 8.01836 8.65176 8.01836L8.65527 7.95859L8.60254 7.95508C8.59199 8.00781 8.54629 7.96211 8.56738 7.95156C8.58848 7.94102 8.61309 7.91641 8.61309 7.91641V7.88125L8.6377 7.8707V7.83555H8.69746L8.74668 7.81094L8.75723 7.78984H8.80996L8.88379 7.71953L8.87676 7.68789C8.83105 7.68789 8.87676 7.65273 8.87676 7.65273L8.8873 7.59297Z" fill="white"/>
<path id="Vector_4" d="M7.37538 8.34687L7.30859 8.33984L7.3121 8.36797H7.3332C7.36132 8.4207 7.3332 8.54727 7.3332 8.54727C7.3332 8.54727 7.29101 8.55078 7.28398 8.52969C7.27694 8.50508 7.25585 8.57891 7.27343 8.58945C7.28749 8.6 7.34023 8.58945 7.34374 8.63164C7.34374 8.67383 7.3789 8.60703 7.3789 8.60703L7.37538 8.34687Z" fill="white"/>
<path id="Vector_5" d="M7.39336 8.77031L7.40039 8.73516L7.37227 8.72461L7.37578 8.66836L7.40039 8.66484V8.63672L7.34766 8.67539L7.3125 8.6543V8.7457L7.36875 8.82305L7.39336 8.77031ZM7.40742 8.86875L7.3793 8.87227V8.90391H7.40742V8.86875ZM7.37227 9.06211L7.34063 9.06562V9.09375L7.37578 9.09023L7.37227 9.06211ZM7.41797 8.9707C7.425 8.9707 7.43203 8.96719 7.43203 8.95664C7.43203 8.94609 7.425 8.93906 7.41797 8.93906C7.41094 8.93906 7.40039 8.94609 7.40039 8.95664C7.40039 8.96367 7.40742 8.9707 7.41797 8.9707Z" fill="white"/>
<path id="Vector_6" d="M7.44238 9.05469C7.45209 9.05469 7.45996 9.04682 7.45996 9.03711C7.45996 9.0274 7.45209 9.01953 7.44238 9.01953C7.43267 9.01953 7.4248 9.0274 7.4248 9.03711C7.4248 9.04682 7.43267 9.05469 7.44238 9.05469Z" fill="white"/>
<path id="Vector_7" d="M7.44238 8.62109C7.45209 8.62109 7.45996 8.61322 7.45996 8.60352C7.45996 8.59381 7.45209 8.58594 7.44238 8.58594C7.43267 8.58594 7.4248 8.59381 7.4248 8.60352C7.4248 8.61322 7.43267 8.62109 7.44238 8.62109Z" fill="white"/>
<path id="Vector_8" d="M8.49043 8.48831L8.50098 8.45316L8.52207 8.43909V8.40394L8.53965 8.37581L8.56426 8.34769L8.57129 8.31605L8.60645 8.29495L8.65215 8.28792L8.66973 8.26331L8.68027 8.21761V8.18245L8.69785 8.16136L8.74355 8.14378V8.07347H8.71895V8.04534L8.67676 8.04183L8.66621 8.05941H8.64863L8.64512 8.09105H8.66621L8.66973 8.11214L8.65566 8.1262L8.64863 8.1473L8.62051 8.15433L8.5502 8.21761V8.24925L8.5291 8.27738L8.50801 8.33363H8.42715L8.41309 8.40394L8.42363 8.46019L8.49043 8.48831ZM8.8209 8.30199V8.24925L8.81387 8.20003L8.75762 8.17191L8.71543 8.21058L8.7084 8.26331V8.29847L8.67324 8.3055L8.66269 8.41097L8.63457 8.42152V8.45667L8.59941 8.47074L8.55371 8.48128L8.54668 8.5305L8.51855 8.54808L8.50449 8.59378L8.4834 8.70628C8.4834 8.70628 8.51855 8.76956 8.53613 8.74144C8.5412 8.73229 8.54825 8.72438 8.55677 8.7183C8.56528 8.71222 8.57505 8.70811 8.58535 8.70628L8.5959 8.67816L8.69785 8.68167C8.70488 8.63949 8.7541 8.65706 8.7541 8.67464C8.7541 8.69222 8.78926 8.67816 8.78926 8.67816L8.81738 8.63597H8.85957V8.59027L8.88066 8.57972V8.50941C8.94043 8.49183 8.9334 8.43558 8.9334 8.43558L8.94746 8.418L8.94043 8.38988C8.90879 8.37933 8.92637 8.35472 8.94394 8.35824C8.96152 8.36878 8.91934 8.32308 8.91934 8.32308C8.89473 8.34417 8.87715 8.30199 8.87715 8.30199H8.8209ZM8.88066 8.75902C8.87715 8.80824 8.8209 8.8223 8.8209 8.8223L8.77871 8.81175L8.75762 8.79066L8.7541 8.73792H8.78926L8.79277 8.75902H8.88066ZM9.08105 8.51995C9.0916 8.55511 9.08809 8.46722 9.10566 8.47074C9.11973 8.47074 9.10566 8.418 9.10566 8.418L9.04238 8.46722C9.07754 8.46722 9.07754 8.50238 9.08105 8.51995ZM9.28145 8.31956C9.29551 8.35472 9.29199 8.40394 9.34824 8.44261C9.36582 8.45667 9.3377 8.47777 9.3166 8.47074C9.29902 8.45667 9.24629 8.37581 9.24629 8.37581V8.32659C9.25684 8.29495 9.27441 8.3055 9.28145 8.32308V8.31956ZM9.33066 9.46566L9.30606 9.45511L9.28145 9.4762L9.29199 9.48675L9.30254 9.50433L9.33066 9.46566ZM9.19004 9.41292V9.46214ZM9.75957 9.3391L9.74551 9.32152L9.71738 9.3391L9.72793 9.36019L9.75957 9.3391ZM10.8107 10.1512L10.8459 10.1653V10.2321C10.8916 10.2778 11.0393 10.2391 11.0393 10.2285L11.0322 10.0879L11.0111 10.0668V9.97191C11.0252 9.92269 10.9408 9.85238 10.9303 9.86644C10.9232 9.8805 10.874 9.86995 10.874 9.88402C10.874 9.9016 10.8424 9.97542 10.86 10.0035C10.874 10.0282 10.8494 10.0282 10.8424 10.0563C10.8424 10.0844 10.8037 10.1266 10.8072 10.1512H10.8107ZM10.7264 10C10.7193 10.0282 10.6947 10.0457 10.6807 10.0352C10.6631 10.0211 10.6982 10.0528 10.7053 10.0703C10.7072 10.0732 10.7098 10.0756 10.7129 10.0773C10.7159 10.0789 10.7194 10.0798 10.7229 10.0798C10.7263 10.0798 10.7298 10.0789 10.7328 10.0773C10.7359 10.0756 10.7385 10.0732 10.7404 10.0703C10.751 10.0528 10.7475 10.0176 10.7545 10C10.7615 9.98949 10.7334 9.98597 10.7264 10ZM10.5541 9.30394H10.5787V9.37425H10.5541V9.30394ZM10.9408 8.57269C10.9232 8.55159 11.0146 8.51292 11.0322 8.55863C11.0463 8.60433 11.0322 8.59378 11.0146 8.59378C11.0006 8.58675 10.9619 8.60081 10.9443 8.57269H10.9408ZM11.0182 8.08753L11.0604 8.09456V8.06995L11.0252 8.06292L11.0182 8.08753ZM10.9197 8.13675L10.9408 8.1262L10.9338 8.10863L10.9268 8.09808L10.9162 8.10159L10.8881 8.11917L10.8635 8.10159L10.8529 8.12269L10.8846 8.14027L10.8881 8.14378H10.8951L10.9162 8.12972L10.9197 8.13675ZM11.0604 7.20511H11.0006C11.0006 7.20511 11.0182 7.21214 10.9654 7.16292C10.9127 7.1137 10.8811 7.17347 10.8811 7.17347L10.8213 7.18402V7.24378L10.7932 7.25433V7.28949H10.8354C10.8354 7.28949 10.8354 7.33519 10.8494 7.31409C10.8635 7.293 10.9549 7.31761 10.9443 7.36331C10.9443 7.38441 11.0393 7.43363 11.0287 7.49339C11.0744 7.50042 11.0639 7.54964 11.0639 7.54964L11.1271 7.56019L11.1482 7.52152H11.1658V7.50042L11.1236 7.48988L11.1166 7.37035L11.092 7.34925L11.099 7.32113L11.0674 7.30706L11.085 7.25784L11.0568 7.20511H11.0604ZM11.2221 7.59183H11.1904L11.1236 7.59886L11.0885 7.66917C11.0885 7.66917 11.1061 7.68324 11.1236 7.71136C11.1342 7.73597 11.1447 7.89417 11.099 7.9223C11.0533 7.94691 11.099 7.92933 11.099 7.92933L11.0955 8.0137C11.1061 8.04886 11.1236 8.0348 11.1342 8.0137C11.1482 7.99613 11.1588 7.99261 11.1729 7.97152C11.1925 7.94918 11.2069 7.92276 11.215 7.89417C11.215 7.86605 11.2361 7.82386 11.2256 7.81331C11.215 7.80277 11.2361 7.75003 11.2361 7.75003C11.2361 7.75003 11.2502 7.71488 11.2361 7.68675C11.2221 7.65863 11.2396 7.62347 11.2502 7.60941L11.2221 7.59183ZM11.2678 7.74652V7.71839H11.2924V7.75355L11.2678 7.74652ZM11.2678 7.85199L11.2467 7.84144L11.2572 7.82034L11.2783 7.83089L11.2678 7.85199ZM11.2326 7.54964L11.2186 7.51449C11.2186 7.51449 11.2186 7.48636 11.2256 7.4723C11.2326 7.45472 11.2115 7.44066 11.1975 7.43714C11.1869 7.43363 11.1904 7.40199 11.1869 7.38792C11.1869 7.37386 11.1588 7.3598 11.1588 7.3598L11.1518 7.293C11.1518 7.28245 11.1166 7.26488 11.1271 7.25784L11.1588 7.22269C11.1693 7.21214 11.1482 7.15941 11.1658 7.16995C11.1834 7.18402 11.1834 7.20511 11.1904 7.21566C11.1975 7.23324 11.1904 7.28597 11.208 7.29652C11.2256 7.30706 11.2045 7.34574 11.2326 7.34574C11.2643 7.34574 11.2432 7.41605 11.2432 7.41605C11.2432 7.41605 11.2361 7.4723 11.2537 7.47581C11.2748 7.47581 11.2643 7.57074 11.2643 7.57074L11.2326 7.54964ZM10.99 6.93441C11.0006 6.95199 11.0252 6.96253 11.0252 6.97659C11.0252 6.99417 11.0146 7.00472 11.0393 7.00824C11.0604 7.01175 11.0744 7.00472 11.085 7.0223C11.0922 7.04398 11.0922 7.06742 11.085 7.0891C11.085 7.10316 11.092 7.12425 11.1096 7.12425C11.1271 7.12425 11.1307 7.13128 11.1307 7.14183C11.1307 7.15238 11.1553 7.09964 11.1553 7.09964C11.1342 7.08558 11.1201 7.05042 11.1201 7.05042L11.1025 6.99066C11.1025 6.98011 11.0779 6.97308 11.0674 6.96956C11.0533 6.96956 11.0322 6.93441 11.0322 6.93441H10.99ZM11.0252 6.89925C11.016 6.88618 11.004 6.87536 10.99 6.86761C10.976 6.86058 10.9654 6.85355 10.9479 6.85355C10.9438 6.85336 10.9399 6.85218 10.9364 6.8501C10.9329 6.84802 10.93 6.84511 10.9279 6.84163C10.9258 6.83815 10.9246 6.8342 10.9244 6.83015C10.9242 6.8261 10.925 6.82206 10.9268 6.81839C10.9338 6.80081 10.9162 6.79027 10.9162 6.7762C10.9162 6.76214 10.9268 6.76214 10.9443 6.7762C10.9654 6.78324 10.9619 6.78675 10.976 6.80785C10.99 6.82542 10.9971 6.843 11.0111 6.843C11.0287 6.83597 11.0393 6.87816 11.0533 6.86409C11.0674 6.85355 11.0639 6.89222 11.0639 6.89222L11.0252 6.89925ZM10.5893 7.33167C10.6104 7.35277 10.4768 7.34574 10.4768 7.33167C10.4768 7.31761 10.4908 7.26136 10.5225 7.27191C10.5576 7.28597 10.5576 7.20511 10.5576 7.20511C10.5576 7.20511 10.5295 7.20863 10.5576 7.19456C10.5822 7.1805 10.5576 7.15941 10.5436 7.14534L10.5225 7.1137H10.5752C10.5963 7.09964 10.6033 7.02581 10.6033 7.02581C10.649 7.04339 10.6736 7.01175 10.6736 7.01175C10.6736 7.01175 10.6807 7.03636 10.6947 7.05394C10.7088 7.07152 10.6596 7.08206 10.6771 7.0891C10.6947 7.10316 10.7018 7.13831 10.6947 7.14886C10.6877 7.15941 10.6455 7.14886 10.6455 7.13831C10.6455 7.12074 10.6314 7.15589 10.6455 7.17347C10.6596 7.19456 10.6279 7.22269 10.6209 7.22269C10.6139 7.22269 10.5646 7.22972 10.6033 7.25081C10.6455 7.27542 10.6912 7.26136 10.6912 7.26136C10.6912 7.26136 10.7264 7.26136 10.7369 7.27894C10.7475 7.29652 10.7334 7.30003 10.7123 7.30003L10.6068 7.293C10.6068 7.293 10.5787 7.32113 10.5893 7.32816V7.33167ZM10.3502 7.36683C10.3678 7.3598 10.4135 7.35628 10.4205 7.36683C10.4275 7.38089 10.3959 7.39495 10.3959 7.39495L10.3502 7.40199C10.3361 7.38441 10.3326 7.36683 10.3502 7.36683ZM10.8318 7.04691C10.8635 7.02933 10.9268 7.02933 10.9232 7.00824C10.9197 6.98363 10.9584 6.97659 10.9584 6.97659L10.9725 7.0223L11.0076 7.04691V7.0891C11.0076 7.0891 11.0217 7.08206 10.9795 7.0891C10.9373 7.10316 10.9654 7.12425 10.9654 7.12425H10.874L10.8635 7.0891L10.8318 7.04691ZM10.6877 6.83949C10.7088 6.83949 10.6807 6.92738 10.7404 6.92035C10.8002 6.91331 10.7404 6.94847 10.7896 6.95199C10.8318 6.95199 10.8248 6.91683 10.8354 6.8887C10.8529 6.86409 10.8459 6.85003 10.8178 6.83949C10.7932 6.83245 10.7932 6.83245 10.7826 6.80433C10.7756 6.77269 10.7475 6.76566 10.7475 6.76566L10.7369 6.71995L10.6877 6.75159L10.6385 6.81488C10.6385 6.8641 10.6631 6.83949 10.6877 6.83949ZM10.7861 7.16292L10.7967 7.13831L10.8178 7.14886L10.8072 7.17347L10.7861 7.16292ZM10.7475 7.12777H10.7686V7.15238H10.7475V7.12777ZM10.765 6.62152L10.7686 6.65667H10.7475L10.7439 6.62152H10.765ZM10.7018 6.97308H10.7264V6.99417H10.7018V6.97308ZM10.642 6.97308V6.95199L10.6771 6.94847L10.6807 6.96956L10.642 6.97308ZM10.3361 7.3387L10.315 7.32816L10.3256 7.30355L10.3467 7.31058L10.3361 7.3387ZM10.2166 7.26839V7.2473L10.2518 7.24378V7.26488L10.2166 7.26839ZM9.48535 7.26839V7.28949L9.56973 7.28597V7.26136L9.48535 7.26839ZM9.43262 7.29652L9.42559 7.26136L9.44668 7.25784L9.45371 7.293L9.43262 7.29652ZM9.41504 7.31761L9.40801 7.29652H9.41855L9.42559 7.31409L9.41504 7.31761ZM9.60137 7.25433V7.28245H9.63652C9.63652 7.28245 9.65762 7.30003 9.65762 7.31058C9.65762 7.32113 9.68574 7.33519 9.6998 7.33519C9.71387 7.33519 9.75605 7.30355 9.75605 7.30355C9.75605 7.30355 9.77363 7.25081 9.75605 7.25433C9.74551 7.25784 9.71387 7.28245 9.71035 7.25784C9.71035 7.23675 9.66113 7.2473 9.66113 7.2473L9.60137 7.25433ZM9.78769 7.21214C9.78769 7.2262 9.78066 7.24027 9.80527 7.24378C9.82637 7.24378 9.86855 7.22972 9.87207 7.25081C9.87207 7.27542 9.87207 7.28597 9.90723 7.30003C9.92945 7.3095 9.95338 7.31429 9.97754 7.31409L10.0479 7.30706C10.0479 7.30706 10.1006 7.31761 10.1111 7.32816C10.1533 7.37034 10.1814 7.38089 10.1885 7.36331C10.2025 7.34222 10.1885 7.30003 10.1814 7.28597C10.1814 7.27191 10.1252 7.19808 10.1076 7.21566C10.09 7.22972 10.0865 7.21566 10.0514 7.2262C10.0162 7.23675 9.9459 7.2262 9.9459 7.21214C9.93887 7.19808 9.88613 7.19105 9.88613 7.17699C9.88613 7.15941 9.85098 7.14183 9.85098 7.16292C9.85801 7.18753 9.82637 7.19808 9.81582 7.19105C9.81231 7.18402 9.78769 7.21214 9.78769 7.21214ZM10.649 6.72699L10.6771 6.64261C10.6385 6.63558 10.6455 6.59339 10.6455 6.59339C10.6455 6.55824 10.5893 6.52308 10.5717 6.53363C10.5541 6.54417 10.5611 6.45277 10.5611 6.45277C10.5611 6.45277 10.5963 6.43167 10.6104 6.44222C10.6244 6.45277 10.4803 6.25238 10.4521 6.26995C10.4205 6.29105 10.3537 6.25238 10.3572 6.21722C10.3607 6.18206 10.2236 6.06956 10.2236 6.06956C10.2236 6.06956 10.1779 6.04144 10.1709 6.06253C10.1639 6.08363 10.1498 6.09769 10.1709 6.11175C10.192 6.1223 10.1885 6.09417 10.2166 6.11878C10.2412 6.14691 10.2904 6.17855 10.2729 6.20316C10.2518 6.22425 10.2307 6.2348 10.2307 6.2348L10.2588 6.26292H10.2975L10.3045 6.32972C10.3045 6.32972 10.3502 6.35081 10.3607 6.37894C10.3748 6.40355 10.3748 6.42113 10.3607 6.43519C10.3502 6.44925 10.3256 6.47738 10.3326 6.5055C10.3326 6.53011 10.3678 6.54066 10.3678 6.54066L10.3959 6.54417L10.417 6.55472V6.60394C10.4486 6.59691 10.4979 6.6391 10.4943 6.66722C10.4908 6.69183 10.5014 6.67777 10.5365 6.70238C10.5717 6.7305 10.5646 6.73753 10.5893 6.75511C10.6174 6.77269 10.6385 6.76214 10.649 6.72699Z" fill="white"/>
<path id="Vector_9" d="M10.034 6.20898C10.0305 6.19492 10.0199 6.13867 10.0445 6.1457C10.0656 6.1457 10.0516 6.1457 10.0797 6.15625C10.1043 6.1668 10.1078 6.13867 10.1078 6.13867H10.15L10.2027 6.18086L10.1922 6.21602H10.157C10.1359 6.18789 10.1008 6.19844 10.1078 6.22656C10.1148 6.25117 10.0902 6.30039 10.0727 6.30391C10.0586 6.30742 10.0094 6.30742 10.0129 6.28633L10.034 6.20898ZM10.0023 6.10703V6.07539C10.0023 6.07539 10.0023 6.04727 9.98125 6.04727C9.96016 6.04727 9.92852 6.02266 9.93555 6.00859C9.94258 5.99453 9.87226 5.97695 9.87226 5.97695C9.87226 5.97695 9.80898 5.91719 9.83008 5.92422C9.85469 5.93125 9.84062 5.89961 9.84062 5.89961C9.84062 5.89961 9.79844 5.90664 9.78437 5.89961C9.77383 5.89961 9.77734 5.86445 9.77734 5.86445C9.77734 5.86445 9.73164 5.85391 9.73164 5.86445C9.73164 5.875 9.74922 5.875 9.75625 5.89961C9.76328 5.9207 9.75625 5.95937 9.79141 5.96992C9.82656 5.97344 9.83359 5.98047 9.83711 5.99805C9.84062 6.01211 9.88281 6.01562 9.88281 6.01562L9.91445 6.02969L10.0023 6.10703ZM9.5875 5.68867L9.55937 5.68164V5.7168H9.59805L9.5875 5.68867ZM9.5875 5.56211C9.54883 5.53047 9.64023 5.5832 9.64023 5.5832C9.66836 5.5832 9.68945 5.60781 9.68945 5.61836C9.68945 5.62891 9.72813 5.62539 9.72813 5.62539L9.73516 5.59727L9.70352 5.56211L9.67891 5.54102C9.67891 5.54102 9.63672 5.54102 9.63672 5.52695C9.63672 5.51641 9.60156 5.57266 9.5875 5.56211ZM10.2766 5.5832C10.266 5.61836 10.259 5.66406 10.2414 5.66406C10.2238 5.66406 10.2309 5.71328 10.2309 5.71328H10.2941C10.3082 5.72031 10.3082 5.75898 10.3082 5.75898C10.3645 5.75547 10.3891 5.8293 10.3785 5.85039C10.375 5.86797 10.4031 5.86797 10.4031 5.86797C10.4031 5.86797 10.4031 5.92773 10.3961 5.94531C10.3891 5.95938 10.4453 5.96992 10.4594 5.99453C10.4734 6.01562 10.4523 6.09297 10.4418 6.09648C10.4277 6.09648 10.4699 6.11055 10.4664 6.13164C10.4629 6.14922 10.477 6.13164 10.4805 6.15977L10.4945 6.25469L10.5437 6.2582C10.5543 6.20898 10.6492 6.20898 10.6633 6.2125C10.7301 6.23711 10.7758 6.33555 10.7758 6.35664C10.7758 6.38125 10.7371 6.38477 10.7371 6.38477L10.7441 6.49375C10.8074 6.51484 10.8602 6.60625 10.8496 6.62031C10.8426 6.63437 10.8953 6.63086 10.8953 6.63086C10.9023 6.56055 10.9656 6.58516 10.9727 6.60977C10.9727 6.63086 10.9867 6.68008 10.9867 6.68008L11.0043 6.71523L11.0324 6.73984H11.0711L11.0816 6.76094L11.1309 6.76797C11.1309 6.76797 11.173 6.81367 11.1766 6.82422C11.1801 6.83477 11.2363 6.83125 11.2504 6.83477C11.268 6.83828 11.2891 6.85234 11.2926 6.86992C11.2961 6.89102 11.3207 6.91914 11.3207 6.91914C11.3207 6.91914 11.3629 6.92969 11.3664 6.94727L11.391 6.99648L11.4262 7.02461L11.4297 7.05977L11.4719 7.06328L11.4824 7.10898H11.5527L11.5879 7.08086C11.6371 7.05273 11.6723 7.01758 11.6758 7.00352C11.6758 6.98945 11.6863 6.9332 11.7215 6.94375C11.7602 6.9543 11.7355 6.85938 11.7355 6.85938C11.7355 6.85938 11.6828 6.82422 11.6863 6.80312C11.6863 6.78203 11.6336 6.74687 11.6371 6.73281C11.6406 6.71523 11.5879 6.68359 11.5914 6.66953C11.5949 6.65547 11.5668 6.61328 11.5668 6.61328L11.5105 6.56055L11.5035 6.52539L11.4578 6.52187L11.3664 6.41289L11.3699 6.37773H11.3453V6.33555L11.3207 6.32148L11.2785 6.31797L11.1941 6.22656L11.1871 6.18437H11.1484L11.1555 6.10352C11.1801 6.06836 11.166 6.00508 11.166 6.00508C11.166 6.00508 11.1133 6.0332 11.0887 6.01914C11.0605 6.00859 11.0992 5.98398 11.0992 5.98398V5.94883L11.0746 5.92773C11.0746 5.92773 11.0113 5.93828 11.0078 5.92773L10.9938 5.86445L10.9902 5.80117L10.9621 5.78711V5.76602H10.9199V5.72383L10.8953 5.7168L10.8742 5.70625L10.8707 5.66055L10.7863 5.65703L10.7617 5.61836L10.7301 5.57266L10.6387 5.56562L10.6141 5.54102L10.5789 5.53398L10.5508 5.52344L10.5402 5.54102L10.4699 5.54453L10.4664 5.56914C10.4313 5.58672 10.2801 5.56914 10.2766 5.5832ZM10.6668 5.48477C10.6633 5.45664 10.7441 5.42852 10.7617 5.44961C10.7793 5.47422 10.832 5.47773 10.8391 5.59023C10.8426 5.63242 10.7723 5.54805 10.7723 5.54805L10.716 5.53047C10.6879 5.52344 10.6703 5.50234 10.6668 5.48477ZM9.57344 5.53047L9.55234 5.52344L9.56641 5.48828L9.5875 5.49883L9.57344 5.53047ZM9.37656 5.15781L9.33086 5.10859V5.06641L9.31328 5.05234L9.29922 4.99961L9.25 4.98555L9.20078 5.00312L9.15156 5.03828L9.0918 5.04531L9.06367 5.08047L9.1832 5.09102L9.2043 5.12617L9.29219 5.13672L9.34844 5.19297C9.39766 5.20703 9.4082 5.18594 9.37656 5.15781ZM9.36953 4.97148C9.3625 4.93633 9.31328 5.01367 9.3625 5.02773C9.41172 5.04531 9.46094 5.02773 9.46094 5.02773L9.47148 5.00664L9.65781 5.01016L9.68242 4.975C9.68242 4.975 9.72461 4.95742 9.7457 4.96445C9.76328 4.97148 9.7457 4.91172 9.72813 4.91875C9.71055 4.92578 9.67188 4.92227 9.67188 4.92227H9.60508C9.60508 4.89766 9.5418 4.9082 9.53828 4.92227C9.53828 4.93633 9.51367 4.94336 9.51367 4.94336L9.42578 4.95039C9.41875 4.97148 9.37305 4.98555 9.36953 4.97148ZM9.00039 5.61133C9.05664 5.63242 9.07773 5.61836 9.08125 5.60078C9.08476 5.58672 9.08828 5.5832 9.11289 5.57969C9.13398 5.57617 9.10937 5.53047 9.08828 5.53398C9.06367 5.5375 9.04258 5.52695 9.03906 5.50586C9.03555 5.48828 8.99687 5.43906 8.99336 5.47773C8.98984 5.51289 8.96523 5.51289 8.96875 5.54102C8.97578 5.56914 8.98633 5.61133 9.00039 5.61133ZM8.57148 5.65703C8.56797 5.64297 8.64531 5.63945 8.65586 5.65C8.66641 5.66406 8.65937 5.68516 8.69102 5.68516C8.72266 5.68516 8.71211 5.70625 8.70859 5.7168C8.70508 5.72734 8.66641 5.72383 8.66289 5.71328C8.66289 5.69922 8.60312 5.6957 8.60312 5.6957C8.60312 5.6957 8.575 5.67461 8.56797 5.65703H8.57148ZM9.8125 4.86602L9.79492 4.84492L9.77734 4.8625L9.80547 4.89062L9.8125 4.89766L9.81953 4.89062L9.85469 4.85898L9.84414 4.84141L9.8125 4.86602ZM9.61211 4.76055L9.60156 4.77812L9.62969 4.7957L9.63672 4.79922H9.64375L9.68242 4.77109L9.67188 4.75L9.63672 4.77461L9.61211 4.76055ZM9.51016 5.55156H9.475L9.47148 5.57266H9.50312L9.52773 5.61133L9.54531 5.60078L9.51719 5.55859V5.55508L9.51016 5.55156ZM8.27969 6.61328V6.65547H8.33945C8.36055 6.65547 8.31836 6.62734 8.31836 6.62734C8.31836 6.62734 8.27617 6.63086 8.27969 6.61328ZM8.35 6.61328L8.36406 6.5957L8.38516 6.61328L8.37109 6.63086L8.35 6.61328ZM7.66797 5.90312L7.68555 5.88555L7.70664 5.91016L7.69258 5.92773L7.66797 5.90312ZM8.71914 10.7687L8.70859 10.7898L8.72969 10.8039L8.72266 10.8109L8.74023 10.825L8.75781 10.8074L8.76836 10.7969L8.7543 10.7898L8.71914 10.7687ZM8.45195 10.498L8.42734 10.5156L8.4168 10.5262L8.43086 10.5367L8.45547 10.5543L8.46953 10.5367L8.45547 10.5262L8.46602 10.5156L8.45195 10.498ZM11.2469 9.79492C11.2434 9.77734 11.2188 9.7668 11.2188 9.7668L11.2117 9.78789L11.2188 9.79141V9.81953L11.2328 9.83359C11.2434 9.81953 11.2504 9.80898 11.2469 9.79844V9.79492ZM11.2469 9.72109V9.68594L11.282 9.69297V9.72461L11.2469 9.72109ZM12.1469 9.4293C12.1645 9.41875 12.182 9.39766 12.182 9.43984C12.182 9.48555 12.1609 9.47148 12.1469 9.48555C12.1328 9.49961 12.1258 9.44336 12.1469 9.42578V9.4293ZM12.3367 9.26758V9.26055C12.3368 9.25337 12.3356 9.24623 12.3332 9.23945L12.3121 9.24648V9.26406C12.3156 9.27109 12.3156 9.27812 12.3227 9.28164L12.3367 9.28516V9.26406V9.26758ZM12.2875 9.28516L12.3016 9.33086L12.3227 9.32383C12.3172 9.30886 12.3125 9.2936 12.3086 9.27812L12.2875 9.28516ZM12.2066 9.37305H12.1855C12.1855 9.39062 12.1855 9.41172 12.2031 9.41523L12.2102 9.39414L12.2066 9.37305ZM12.1082 8.92305C12.1081 8.91946 12.1071 8.91597 12.1052 8.91289C12.1034 8.90981 12.1008 8.90726 12.0977 8.90547C12.0801 8.89844 12.052 8.90898 12.0379 8.91953L12.0484 8.93711C12.066 8.93008 12.0836 8.92305 12.0871 8.92656L12.1082 8.92305ZM11.0711 7.71016C11.057 7.72422 11.0254 7.73125 11.0254 7.73125L11.0113 7.77344L10.9938 7.7875V7.82617C10.9902 7.8543 10.9586 7.86836 10.9586 7.86836L10.941 7.88594C10.941 7.88594 10.8531 7.89297 10.8391 7.88594C10.8039 7.87187 10.8285 7.82617 10.8531 7.82969C10.8742 7.8332 10.8496 7.76641 10.8496 7.76641L10.8777 7.76289C10.8777 7.76289 10.8812 7.69258 10.8918 7.69258C10.9023 7.69258 10.8918 7.67148 10.8742 7.65742C10.8602 7.64687 10.8391 7.61172 10.825 7.61523H10.7512L10.7406 7.63633L10.6984 7.64336C10.6984 7.64336 10.702 7.675 10.6949 7.68203C10.6738 7.71016 10.5859 7.76641 10.6246 7.67148L10.6352 7.65039V7.61523L10.5648 7.61172C10.5648 7.61172 10.5332 7.59766 10.5332 7.58359V7.54844L10.4523 7.46406L10.3574 7.45L10.3504 7.43242L10.2941 7.42539C10.2238 7.39023 10.1676 7.42187 10.1781 7.47812C10.1887 7.53437 10.2098 7.55898 10.1711 7.55898C10.1359 7.55898 10.1254 7.52383 10.1254 7.52383C10.1254 7.52383 10.0973 7.5168 10.0973 7.53086C10.0973 7.54492 10.0867 7.57656 10.0973 7.59062C10.1078 7.6082 10.0832 7.6293 10.0691 7.61875C10.0586 7.6082 10.0305 7.57305 10.034 7.5625C10.0445 7.54844 9.98477 7.47812 10.0445 7.46758C10.1043 7.45352 10.041 7.42187 10.0621 7.41484L10.0938 7.39727H10.1219L10.143 7.3832L10.0938 7.37617L10.0621 7.37266L10.0059 7.36914C9.97505 7.38771 9.95149 7.41624 9.93906 7.45C9.91094 7.50977 9.83711 7.42891 9.86523 7.39727C9.88984 7.36914 9.78086 7.39727 9.76328 7.41133C9.7457 7.42539 9.68945 7.41836 9.68945 7.41836C9.67891 7.45352 9.62617 7.41484 9.64023 7.39023C9.6543 7.36914 9.6543 7.35508 9.6543 7.35508L9.63672 7.34805L9.61562 7.39023C9.56289 7.39023 9.54531 7.42188 9.55937 7.43945C9.56992 7.46055 9.5418 7.43945 9.53477 7.46406C9.52773 7.48867 9.53828 7.48867 9.56289 7.49922C9.58398 7.51328 9.54883 7.51328 9.56289 7.53086C9.58047 7.54844 9.62617 7.53086 9.59805 7.55898C9.57344 7.58359 9.5207 7.57305 9.5207 7.57305C9.51719 7.6082 9.44687 7.59766 9.43984 7.58711C9.41805 7.56092 9.39578 7.53514 9.37305 7.50977L9.30273 7.50625C9.2957 7.45 9.33789 7.47812 9.35195 7.43594C9.36602 7.39375 9.37305 7.32695 9.37305 7.32695C9.37305 7.32695 9.31328 7.32344 9.30976 7.34102C9.30976 7.35859 9.27109 7.37266 9.27109 7.37266C9.27109 7.37266 9.23945 7.3832 9.25 7.39727C9.26406 7.41484 9.22891 7.42188 9.22891 7.42188C9.22891 7.42188 9.23594 7.44648 9.22539 7.45703C9.19375 7.48516 9.11992 7.45703 9.10938 7.44648L9.06367 7.42891L9.01797 7.39727L8.96523 7.42188L8.95117 7.43594H8.89492V7.48164L8.99336 7.49219L9.00039 7.58711L8.9582 7.57305H8.93359L8.92305 7.54844H8.89844V7.6293L8.92305 7.64687L8.94062 7.66797H8.97578L8.98633 7.71719H9.07773L9.0918 7.73828L9.14805 7.7418L9.25352 7.8543L9.24648 7.88945L9.22891 7.9C9.23594 7.92461 9.17969 7.91055 9.17969 7.91055V7.93164L9.20781 7.93516L9.23242 7.95273L9.26758 7.88594C9.30977 7.86133 9.33086 7.9 9.33437 7.92109C9.33437 7.9457 9.31328 7.94219 9.31328 7.94219V7.99492L9.33789 8.00195C9.37305 8.04766 9.32383 8.07227 9.32383 8.07227L9.30976 8.11094C9.29922 8.14609 9.25703 8.13906 9.25703 8.13906L9.24297 8.16016L9.19727 8.1707L9.28867 8.18477C9.2957 8.15312 9.3168 8.14609 9.33086 8.16016C9.34141 8.17422 9.34141 8.20234 9.34141 8.20234L9.3625 8.20586V8.24805L9.38359 8.25508V8.37812L9.4082 8.40625C9.45391 8.38867 9.45391 8.42031 9.4293 8.43437C9.40469 8.44844 9.42227 8.51875 9.42227 8.51875L9.40469 8.53633V8.56797L9.38359 8.58203V8.62422C9.34492 8.60312 9.29922 8.61367 9.28867 8.62422C9.25352 8.59961 9.1832 8.61016 9.1832 8.62773C9.20781 8.65937 9.15859 8.66289 9.15859 8.66289L9.13047 8.69805C9.15156 8.7332 9.11289 8.73672 9.11289 8.73672V8.80703L9.06719 8.85273L9.0707 8.95117C9.0707 8.97578 9.12695 8.9793 9.14102 8.96523C9.15156 8.95117 9.19375 8.99687 9.19375 8.99687H9.22891L9.23594 8.92656L9.21484 8.91602V8.80703L9.25 8.76484C9.2957 8.74727 9.28164 8.86328 9.28164 8.87383C9.28164 8.91602 9.30273 8.9125 9.32383 8.90547C9.35898 8.88789 9.33086 8.94766 9.29922 8.94062C9.27109 8.94062 9.28867 8.9793 9.28867 8.9793L9.30625 8.98984L9.27109 9.01445L9.24297 9.04961L9.20781 9.03906L9.16211 9.03555L9.14805 9.00742L9.11992 9.00391L9.11641 9.05664L9.09883 9.08125L9.05312 9.12695C9.11289 9.12695 9.04609 9.16563 9.03203 9.16563C9.06719 9.17969 9.02852 9.21133 8.94062 9.18672V9.21133L8.90898 9.21484L8.93711 9.24648L8.96523 9.25L8.95469 9.31328C8.95469 9.3625 8.83164 9.33086 8.82109 9.3168L8.81758 9.38711H8.79648V9.49961L8.83516 9.49258V9.5207H8.93711L9.08125 9.36953L9.16914 9.34844C9.17617 9.31328 9.21484 9.35547 9.21484 9.35547C9.25 9.35547 9.25703 9.38008 9.25703 9.38008L9.30625 9.38711C9.34844 9.39766 9.32383 9.40117 9.32734 9.41875C9.32734 9.43984 9.34844 9.43281 9.34844 9.43281L9.35547 9.38359H9.38008L9.35547 9.35898L9.31328 9.34141L9.27109 9.32383C9.23945 9.28164 9.27813 9.28867 9.30625 9.28867H9.35547C9.35547 9.28867 9.41172 9.36953 9.41172 9.38711C9.41172 9.40469 9.43984 9.4082 9.43984 9.4082H9.47148L9.48203 9.43281H9.51719L9.52773 9.45391H9.59805V9.41875L9.53477 9.4082V9.37305L9.48555 9.35898C9.47148 9.2957 9.49961 9.27813 9.51719 9.30625L9.53828 9.30976L9.53125 9.25352L9.55937 9.24648L9.54883 9.16563L9.52773 9.15859V9.13398H9.62266C9.61563 9.08828 9.62266 9.06367 9.62266 9.06367H9.65078L9.6543 9.08477L9.77031 9.09531L9.85117 9.00039C9.84766 8.99336 9.8582 8.98984 9.85117 8.9793C9.83711 8.96875 9.82305 8.9793 9.80547 8.96875C9.78437 8.9582 9.80547 8.89492 9.80195 8.87734C9.79844 8.86328 9.86523 8.84219 9.85469 8.87734C9.84062 8.90898 9.85469 8.92305 9.85469 8.92305C9.90039 8.87734 9.94258 8.92656 9.93906 8.94062C9.93555 8.95117 9.96367 8.96172 9.98477 8.95117C10.0023 8.94062 10.027 8.98633 10.0199 9.00742C10.0094 9.02852 9.94258 9.025 9.93906 9.00391C9.93555 8.9793 9.925 8.98984 9.91797 9.00039C9.91094 9.01094 9.87578 9.01797 9.8582 9.00742C9.85523 9.0058 9.85279 9.00336 9.85117 9.00039L9.77031 9.09531H9.77383C9.81953 9.11992 9.79844 9.15508 9.78086 9.16563L9.74219 9.16914L9.73516 9.18672L9.63672 9.19375L9.62969 9.22891C9.58047 9.22539 9.55937 9.27813 9.57344 9.30273C9.58398 9.33086 9.57344 9.35195 9.57344 9.35195L9.61211 9.37305L9.66484 9.35547C9.67187 9.32031 9.70703 9.30977 9.73516 9.28516C9.7668 9.26406 9.81601 9.33086 9.80195 9.35898C9.78437 9.39063 9.78437 9.40117 9.78437 9.40117L9.78789 9.43633L9.75273 9.45039L9.72109 9.46797V9.48555H9.61562L9.59805 9.50312L9.54883 9.50664L9.53477 9.53125L9.49961 9.53477C9.49961 9.53477 9.44687 9.56289 9.46797 9.59101C9.48906 9.62266 9.37305 9.61914 9.34844 9.57695C9.34141 9.61211 9.29922 9.57695 9.29922 9.57695L9.25703 9.56992V9.51367C9.24648 9.475 9.17617 9.475 9.17969 9.49961C9.1832 9.52773 9.04609 9.51367 9.04609 9.51367L9.00039 9.53477L8.9582 9.55937V9.57695L8.88789 9.58398L8.85977 9.59805L8.8457 9.57695H8.81758L8.78594 9.61914C8.70859 9.61914 8.63477 9.66836 8.6418 9.68945C8.64883 9.70703 8.61016 9.72461 8.61016 9.72461L8.575 9.73516L8.55391 9.77031L8.51172 9.78437L8.50469 9.86523L8.48008 9.8793V9.91445L8.45547 9.92148V9.94258H8.4168L8.43789 10.0023L8.46953 10.0164C8.52227 10.0234 8.49766 10.0867 8.49766 10.0867L8.5293 10.0938L8.54336 10.1359L8.575 10.1957C8.58555 10.2414 8.6207 10.2309 8.63477 10.2273C8.64883 10.2238 8.66289 10.273 8.66289 10.273H8.81406C8.81406 10.273 8.80703 10.2906 8.83164 10.2977C8.85977 10.3047 9.03203 10.3117 9.03906 10.3012C9.03203 10.266 9.13047 10.259 9.17266 10.2906C9.21484 10.3223 9.27109 10.3012 9.27109 10.3012L9.32734 10.3715L9.3625 10.4523L9.42578 10.4734L9.47148 10.484L9.48555 10.5473L9.5207 10.5508L9.53125 10.593C9.57344 10.6246 9.5207 10.6879 9.5207 10.6879V10.7723L9.54883 10.7863V10.818L9.59453 10.8672L9.65078 10.8707L9.79141 11.0219L9.90742 11.057L9.925 11.1168H9.95312L9.97773 11.0957L10.0656 11.0922L10.1113 11.05L10.1605 11.043L10.5754 10.6914L10.5402 10.6668V10.5824C10.6035 10.5332 10.6105 10.4453 10.5437 10.4418C10.498 10.4312 10.5191 10.382 10.5648 10.3715L10.5895 10.3645V10.3293L10.6773 10.2484V10.1887L10.491 10.034C10.4066 9.99883 10.491 9.81953 10.5437 9.82305C10.6 9.82656 10.5437 9.5418 10.5437 9.5418L10.5086 9.52773L10.5191 9.43633H10.477L10.4102 9.52422L10.3926 9.58398C10.3855 9.66484 10.1535 9.64727 10.143 9.63672L10.0516 9.59101C10.0516 9.59101 9.9918 9.5418 9.98125 9.55586C9.9707 9.57344 9.91797 9.53828 9.91797 9.54883C9.91797 9.56289 9.86875 9.52422 9.86875 9.52422L9.79492 9.49609L9.85117 9.48555L9.83711 9.43984L9.93555 9.48906C9.94609 9.50312 9.99531 9.49961 9.99531 9.49961L10.0094 9.5207C10.0094 9.5207 10.041 9.51719 10.0586 9.53828C10.0762 9.56289 10.1746 9.5418 10.1746 9.5418L10.2027 9.56641L10.2414 9.58047L10.3574 9.58398L10.3609 9.51367L10.3855 9.48906L10.382 9.44336L10.4066 9.42227V9.38359L10.4277 9.37656L10.4313 9.29219L10.4523 9.28867V9.10586L10.3961 9.05312C10.3926 9.0707 10.3328 9.0707 10.3328 9.0707C10.3328 9.0707 10.3188 9.09883 10.3047 9.09883C10.2906 9.09883 10.3223 9.13398 10.3117 9.15508C10.3047 9.17969 10.2766 9.17969 10.2766 9.17969L10.2203 9.19375L10.2062 9.21133H10.1465L10.1359 9.16211L10.2062 9.14453L10.2414 9.12344L10.2625 9.08828C10.2625 9.04961 10.3082 9.05312 10.3082 9.05312C10.3082 9.05312 10.3961 8.98281 10.3996 8.94766C10.3996 8.9125 10.4348 8.81758 10.484 8.81758H10.5824C10.6176 8.80352 10.607 8.7543 10.607 8.7543L10.6562 8.74375L10.6633 8.77187C10.6633 8.77187 10.7336 8.77891 10.7406 8.76836C10.7477 8.75781 10.7617 8.7332 10.7793 8.74023C10.8004 8.7543 10.8602 8.71562 10.8602 8.71562C10.8602 8.6875 10.9551 8.69805 10.9551 8.69805L10.9691 8.66289C10.9691 8.66289 10.9023 8.57852 10.8918 8.57852C10.8812 8.57852 10.8215 8.52578 10.8145 8.54336C10.7547 8.5293 10.7582 8.44492 10.7582 8.44492L10.7371 8.39219C10.7371 8.36055 10.6809 8.29727 10.6668 8.3043C10.6105 8.26211 10.6527 8.21289 10.6668 8.20937C10.6844 8.20937 10.7195 8.15312 10.7195 8.15312L10.7406 8.10039L10.8039 8.08281L10.8109 8.03359L10.7758 8.02656C10.7758 8.02656 10.8109 7.95625 10.832 7.95625L10.9867 7.95273C10.9973 7.9457 11.0219 7.88242 11.0219 7.87187C11.0219 7.86133 11.05 7.85781 11.0605 7.8543C11.0711 7.85078 11.0957 7.81914 11.1062 7.80508C11.1133 7.7875 11.0887 7.69258 11.0711 7.71016Z" fill="white"/>
<path id="Vector_10" d="M8.9998 9.07583C9.00684 9.0688 9.01035 9.09341 9.0209 9.08989C9.03496 9.08989 9.03848 9.11099 9.02793 9.11099C9.01738 9.11099 9.01738 9.12505 9.01738 9.12857C9.01738 9.1356 9.01738 9.14966 9.00684 9.15669C8.99981 9.16724 8.99277 9.16021 8.97871 9.15669C8.96816 9.14966 8.96465 9.14966 8.95059 9.14966C8.93652 9.14966 8.94707 9.17075 8.94707 9.17075C8.94707 9.17075 8.88731 9.17075 8.89785 9.16021C8.91191 9.15318 8.92246 9.14966 8.91191 9.14263C8.90488 9.13911 8.91191 9.13208 8.91191 9.12154C8.91191 9.11099 8.94004 9.1145 8.93301 9.10747C8.92598 9.09693 8.93301 9.06529 8.94707 9.08286L8.9541 9.06529C8.94707 9.05474 8.9541 9.05474 8.93652 9.04771C8.91895 9.04068 8.93301 9.00903 8.93301 9.00903V8.98443C8.94004 8.9563 8.99629 8.95279 8.9998 8.97739V9.0231L9.01738 9.02661C9.01738 9.02661 9.01387 9.04419 8.9998 9.04419C8.98574 9.04419 8.9998 9.05474 8.99277 9.06177L8.9998 9.07583ZM8.81348 9.10396C8.82402 9.08638 8.8416 9.01255 8.86621 9.03364C8.8873 9.05825 8.90137 9.03364 8.90137 9.03364C8.90137 9.03364 8.91191 9.04771 8.9084 9.0688C8.90137 9.09341 8.89434 9.1145 8.88027 9.11802C8.86621 9.11802 8.85566 9.12857 8.83809 9.13208C8.82402 9.1356 8.81348 9.10396 8.81348 9.10396Z" fill="white"/>
</g>
<defs>
<clipPath id="clip0_186_15327">
<rect width="18" height="18" fill="white"/>
</clipPath>
</defs>
</svg>
