<svg width="18" height="18" viewBox="0 0 18 18" fill="none" xmlns="http://www.w3.org/2000/svg">
<g id="uy" clip-path="url(#clip0_186_15346)">
<path id="Vector" d="M0 0H18V18H0V0Z" fill="white"/>
<path id="Vector_2" d="M9.98438 2H18V4.00039H9.98438V2ZM9.98438 6.00078H18V8.00117H9.98438V6.00078ZM0 9.99805H18V12.002H0V9.99805ZM0 13.9988H18V16.0027H0V13.9988Z" fill="#0038A8"/>
<g id="Group">
<g id="uy-c">
<g id="uy-b">
<g id="uy-a">
<g id="Vector_3">
<path d="M4.77928 5.98047L5.10928 6.47547C3.74528 7.46547 4.57028 8.03747 3.61328 8.34547C4.20728 7.77347 3.51428 7.71847 4.02028 6.49747" fill="#FCD116"/>
<path d="M4.77928 5.98047L5.10928 6.47547C3.74528 7.46547 4.57028 8.03747 3.61328 8.34547C4.20728 7.77347 3.51428 7.71847 4.02028 6.49747" stroke="black" stroke-width="1.87733" stroke-miterlimit="20" stroke-linecap="square"/>
</g>
<path id="Vector_4" d="M4.53728 6.12109C3.78928 7.35309 4.27328 8.03509 3.61328 8.35409" stroke="black" stroke-width="1.87733" stroke-miterlimit="20"/>
<g id="Vector_5">
<path d="M4.99887 5H5.65887L4.99887 8.63L4.33887 5H4.99887V8.63Z" fill="#FCD116"/>
<path d="M4.99887 5H5.65887L4.99887 8.63M4.99887 5H4.33887L4.99887 8.63M4.99887 5V8.63" stroke="black" stroke-width="1.87733" stroke-miterlimit="20"/>
</g>
</g>
<g id="uy-a_2">
<g id="Vector_6">
<path d="M4.15066 5.53542L4.03399 6.11879C2.36946 5.85433 2.54835 6.84216 1.65386 6.38325C2.47835 6.3988 2.02722 5.86989 3.24839 5.3643" fill="#FCD116"/>
<path d="M4.15066 5.53542L4.03399 6.11879C2.36946 5.85433 2.54835 6.84216 1.65386 6.38325C2.47835 6.3988 2.02722 5.86989 3.24839 5.3643" stroke="black" stroke-width="1.87733" stroke-miterlimit="20" stroke-linecap="square"/>
</g>
<path id="Vector_7" d="M3.87895 5.46587C2.47888 5.80811 2.33887 6.63259 1.64662 6.39147" stroke="black" stroke-width="1.87733" stroke-miterlimit="20"/>
<g id="Vector_8">
<path d="M4.99892 4.99794L5.46561 5.46463L2.43212 7.56474L4.53223 4.53125L4.99892 4.99794L2.43212 7.56474Z" fill="#FCD116"/>
<path d="M4.99892 4.99794L5.46561 5.46463L2.43212 7.56474M4.99892 4.99794L4.53223 4.53125L2.43212 7.56474M4.99892 4.99794L2.43212 7.56474" stroke="black" stroke-width="1.87733" stroke-miterlimit="20"/>
</g>
</g>
</g>
<g id="uy-b_2">
<g id="uy-a_3">
<g id="Vector_9">
<path d="M4.02051 4.77928L3.52551 5.10928C2.53551 3.74528 1.96351 4.57028 1.65551 3.61328C2.22751 4.20728 2.28251 3.51428 3.50351 4.02028" fill="#FCD116"/>
<path d="M4.02051 4.77928L3.52551 5.10928C2.53551 3.74528 1.96351 4.57028 1.65551 3.61328C2.22751 4.20728 2.28251 3.51428 3.50351 4.02028" stroke="black" stroke-width="1.87733" stroke-miterlimit="20" stroke-linecap="square"/>
</g>
<path id="Vector_10" d="M3.87695 4.53728C2.64495 3.78928 1.96295 4.27328 1.64395 3.61328" stroke="black" stroke-width="1.87733" stroke-miterlimit="20"/>
<g id="Vector_11">
<path d="M4.99902 4.99984V5.65984L1.36902 4.99984L4.99902 4.33984V4.99984H1.36902Z" fill="#FCD116"/>
<path d="M4.99902 4.99984V5.65984L1.36902 4.99984M4.99902 4.99984V4.33984L1.36902 4.99984M4.99902 4.99984H1.36902" stroke="black" stroke-width="1.87733" stroke-miterlimit="20"/>
</g>
</g>
<g id="uy-a_4">
<g id="Vector_12">
<path d="M4.46262 4.15261L3.87926 4.03594C4.14372 2.37141 3.15589 2.55031 3.6148 1.65582C3.59924 2.4803 4.12816 2.02917 4.63374 3.25034" fill="#FCD116"/>
<path d="M4.46262 4.15261L3.87926 4.03594C4.14372 2.37141 3.15589 2.55031 3.6148 1.65582C3.59924 2.4803 4.12816 2.02917 4.63374 3.25034" stroke="black" stroke-width="1.87733" stroke-miterlimit="20" stroke-linecap="square"/>
</g>
<path id="Vector_13" d="M4.53316 3.87993C4.19092 2.47986 3.36643 2.33985 3.60755 1.64759" stroke="black" stroke-width="1.87733" stroke-miterlimit="20"/>
<g id="Vector_14">
<path d="M4.99913 4.99794L4.53244 5.46463L2.43233 2.43114L5.46582 4.53125L4.99913 4.99794L2.43233 2.43114Z" fill="#FCD116"/>
<path d="M4.99913 4.99794L4.53244 5.46463L2.43233 2.43114M4.99913 4.99794L5.46582 4.53125L2.43233 2.43114M4.99913 4.99794L2.43233 2.43114" stroke="black" stroke-width="1.87733" stroke-miterlimit="20"/>
</g>
</g>
</g>
</g>
<g id="uy-c_2">
<g id="uy-b_3">
<g id="uy-a_5">
<g id="Vector_15">
<path d="M5.21877 4.01953L4.88876 3.52453C6.25277 2.53453 5.42777 1.96253 6.38477 1.65453C5.79077 2.22653 6.48377 2.28153 5.97777 3.50253" fill="#FCD116"/>
<path d="M5.21877 4.01953L4.88876 3.52453C6.25277 2.53453 5.42777 1.96253 6.38477 1.65453C5.79077 2.22653 6.48377 2.28153 5.97777 3.50253" stroke="black" stroke-width="1.87733" stroke-miterlimit="20" stroke-linecap="square"/>
</g>
<path id="Vector_16" d="M5.46077 3.87891C6.20877 2.64691 5.72477 1.96491 6.38477 1.64591" stroke="black" stroke-width="1.87733" stroke-miterlimit="20"/>
<g id="Vector_17">
<path d="M4.99918 5H4.33918L4.99918 1.37L5.65918 5H4.99918V1.37Z" fill="#FCD116"/>
<path d="M4.99918 5H4.33918L4.99918 1.37M4.99918 5H5.65918L4.99918 1.37M4.99918 5V1.37" stroke="black" stroke-width="1.87733" stroke-miterlimit="20"/>
</g>
</g>
<g id="uy-a_6">
<g id="Vector_18">
<path d="M5.84739 4.46458L5.96406 3.88121C7.62859 4.14567 7.44969 3.15784 8.34418 3.61675C7.5197 3.6012 7.97083 4.13011 6.74966 4.6357" fill="#FCD116"/>
<path d="M5.84739 4.46458L5.96406 3.88121C7.62859 4.14567 7.44969 3.15784 8.34418 3.61675C7.5197 3.6012 7.97083 4.13011 6.74966 4.6357" stroke="black" stroke-width="1.87733" stroke-miterlimit="20" stroke-linecap="square"/>
</g>
<path id="Vector_19" d="M6.11909 4.53413C7.51917 4.19189 7.65917 3.36741 8.35143 3.60853" stroke="black" stroke-width="1.87733" stroke-miterlimit="20"/>
<g id="Vector_20">
<path d="M4.99913 5.00206L4.53244 4.53537L7.56593 2.43526L5.46582 5.46875L4.99913 5.00206L7.56593 2.43526Z" fill="#FCD116"/>
<path d="M4.99913 5.00206L4.53244 4.53537L7.56593 2.43526M4.99913 5.00206L5.46582 5.46875L7.56593 2.43526M4.99913 5.00206L7.56593 2.43526" stroke="black" stroke-width="1.87733" stroke-miterlimit="20"/>
</g>
</g>
</g>
<g id="uy-b_4">
<g id="uy-a_7">
<g id="Vector_21">
<path d="M5.97754 5.22072L6.47254 4.89072C7.46254 6.25472 8.03454 5.42972 8.34254 6.38672C7.77054 5.79272 7.71554 6.48572 6.49454 5.97972" fill="#FCD116"/>
<path d="M5.97754 5.22072L6.47254 4.89072C7.46254 6.25472 8.03454 5.42972 8.34254 6.38672C7.77054 5.79272 7.71554 6.48572 6.49454 5.97972" stroke="black" stroke-width="1.87733" stroke-miterlimit="20" stroke-linecap="square"/>
</g>
<path id="Vector_22" d="M6.12109 5.46272C7.35309 6.21072 8.03509 5.72672 8.35409 6.38672" stroke="black" stroke-width="1.87733" stroke-miterlimit="20"/>
<g id="Vector_23">
<path d="M4.99902 5.00016V4.34016L8.62902 5.00016L4.99902 5.66016V5.00016H8.62902Z" fill="#FCD116"/>
<path d="M4.99902 5.00016V4.34016L8.62902 5.00016M4.99902 5.00016V5.66016L8.62902 5.00016M4.99902 5.00016H8.62902" stroke="black" stroke-width="1.87733" stroke-miterlimit="20"/>
</g>
</g>
<g id="uy-a_8">
<g id="Vector_24">
<path d="M5.53542 5.84739L6.11879 5.96406C5.85433 7.62859 6.84216 7.44969 6.38325 8.34418C6.3988 7.5197 5.86989 7.97083 5.3643 6.74966" fill="#FCD116"/>
<path d="M5.53542 5.84739L6.11879 5.96406C5.85433 7.62859 6.84216 7.44969 6.38325 8.34418C6.3988 7.5197 5.86989 7.97083 5.3643 6.74966" stroke="black" stroke-width="1.87733" stroke-miterlimit="20" stroke-linecap="square"/>
</g>
<path id="Vector_25" d="M5.46489 6.12007C5.80713 7.52014 6.63162 7.66015 6.39049 8.35241" stroke="black" stroke-width="1.87733" stroke-miterlimit="20"/>
<g id="Vector_26">
<path d="M4.99892 5.00206L5.46561 4.53537L7.56572 7.56886L4.53223 5.46875L4.99892 5.00206L7.56572 7.56886Z" fill="#FCD116"/>
<path d="M4.99892 5.00206L5.46561 4.53537L7.56572 7.56886M4.99892 5.00206L4.53223 5.46875L7.56572 7.56886M4.99892 5.00206L7.56572 7.56886" stroke="black" stroke-width="1.87733" stroke-miterlimit="20"/>
</g>
</g>
</g>
</g>
<path id="Vector_27" d="M4.99906 6.21297C5.66733 6.21297 6.20906 5.67123 6.20906 5.00297C6.20906 4.3347 5.66733 3.79297 4.99906 3.79297C4.3308 3.79297 3.78906 4.3347 3.78906 5.00297C3.78906 5.67123 4.3308 6.21297 4.99906 6.21297Z" fill="#FCD116" stroke="black" stroke-width="1.87733" stroke-miterlimit="20"/>
</g>
<g id="Group_2">
<g id="uy-d">
<path id="Vector_28" d="M5.89069 4.51678C5.81369 4.60478 5.76969 4.45078 5.49469 4.45078C5.21969 4.45078 5.17569 4.61578 5.13169 4.58278C5.08769 4.54978 5.36269 4.35178 5.45069 4.34078C5.53869 4.32978 5.79169 4.41778 5.89069 4.51678ZM5.57169 4.61578C5.64869 4.68178 5.58269 4.82478 5.50569 4.82478C5.42869 4.82478 5.28569 4.69278 5.35169 4.60478" fill="black"/>
<path id="Vector_29" d="M5.20801 4.7165C5.21901 4.5845 5.32901 4.5625 5.50501 4.5625C5.68101 4.5625 5.75801 4.6945 5.82401 4.7275C5.74701 4.7275 5.68101 4.6175 5.50501 4.6175C5.32901 4.6175 5.32901 4.6175 5.20801 4.7275M5.24101 4.7495C5.28501 4.6835 5.34001 4.8155 5.46101 4.8155C5.58201 4.8155 5.64801 4.7825 5.72501 4.7275C5.80201 4.6725 5.61501 4.8595 5.49401 4.8595C5.37301 4.8595 5.20801 4.7935 5.24101 4.7495Z" fill="black"/>
<path id="Vector_30" d="M5.61534 4.81447C5.75834 4.73747 5.67034 4.62747 5.61534 4.60547C5.63734 4.62747 5.72534 4.73747 5.61534 4.81447ZM4.99934 5.47447C5.06534 5.47447 5.08734 5.45247 5.17534 5.45247C5.26334 5.45247 5.47234 5.57347 5.59334 5.52947C5.34034 5.62847 5.43934 5.56247 4.99934 5.56247H4.94434M5.63734 5.62847C5.59334 5.55147 5.60434 5.57347 5.51634 5.45247C5.60434 5.51847 5.62634 5.55147 5.63734 5.62847ZM4.99934 5.73847C5.27434 5.73847 5.23034 5.68347 5.59334 5.52947C5.32934 5.56247 5.27434 5.65047 4.99934 5.65047H4.94434M4.99934 5.33147C5.07634 5.33147 5.09834 5.27647 5.18634 5.27647C5.27434 5.27647 5.39534 5.30947 5.45034 5.35347C5.46134 5.36447 5.41734 5.26547 5.32934 5.25447C5.24134 5.24347 5.27434 5.10047 5.17534 5.07847C5.17534 5.12247 5.20834 5.11147 5.21934 5.17747C5.21934 5.23247 5.12034 5.23247 5.09834 5.17747C5.12034 5.26547 5.05434 5.26547 4.99934 5.26547" fill="black"/>
</g>
<g id="uy-d_2">
<path id="Vector_31" d="M4.10833 4.51678C4.18533 4.60478 4.22933 4.45078 4.50434 4.45078C4.77934 4.45078 4.82334 4.61578 4.86734 4.58278C4.91134 4.54978 4.63634 4.35178 4.54834 4.34078C4.46034 4.32978 4.20733 4.41778 4.10833 4.51678ZM4.42734 4.61578C4.35034 4.68178 4.41634 4.82478 4.49334 4.82478C4.57034 4.82478 4.71334 4.69278 4.64734 4.60478" fill="black"/>
<path id="Vector_32" d="M4.79102 4.7165C4.78002 4.5845 4.67002 4.5625 4.49401 4.5625C4.31801 4.5625 4.24101 4.6945 4.17501 4.7275C4.25201 4.7275 4.31801 4.6175 4.49401 4.6175C4.67002 4.6175 4.67002 4.6175 4.79102 4.7275M4.75802 4.7495C4.71402 4.6835 4.65902 4.8155 4.53801 4.8155C4.41701 4.8155 4.35101 4.7825 4.27401 4.7275C4.19701 4.6725 4.38401 4.8595 4.50501 4.8595C4.62602 4.8595 4.79102 4.7935 4.75802 4.7495Z" fill="black"/>
<path id="Vector_33" d="M4.38369 4.81447C4.24068 4.73747 4.32868 4.62747 4.38369 4.60547C4.36169 4.62747 4.27368 4.73747 4.38369 4.81447ZM4.99969 5.47447C4.93369 5.47447 4.91169 5.45247 4.82369 5.45247C4.73569 5.45247 4.52669 5.57347 4.40569 5.52947C4.65869 5.62847 4.55969 5.56247 4.99969 5.56247H5.05469M4.36169 5.62847C4.40569 5.55147 4.39469 5.57347 4.48269 5.45247C4.39469 5.51847 4.37269 5.55147 4.36169 5.62847ZM4.99969 5.73847C4.72469 5.73847 4.76869 5.68347 4.40569 5.52947C4.66969 5.56247 4.72469 5.65047 4.99969 5.65047H5.05469M4.99969 5.33147C4.92269 5.33147 4.90069 5.27647 4.81269 5.27647C4.72469 5.27647 4.60369 5.30947 4.54869 5.35347C4.53769 5.36447 4.58169 5.26547 4.66969 5.25447C4.75769 5.24347 4.72469 5.10047 4.82369 5.07847C4.82369 5.12247 4.79069 5.11147 4.77969 5.17747C4.77969 5.23247 4.87869 5.23247 4.90069 5.17747C4.87869 5.26547 4.94469 5.26547 4.99969 5.26547" fill="black"/>
</g>
<path id="Vector_34" d="M4.999 5.83594C4.944 5.83594 4.801 5.86894 4.999 5.86894C5.197 5.86894 5.054 5.83594 4.999 5.83594Z" fill="black"/>
</g>
</g>
<defs>
<clipPath id="clip0_186_15346">
<rect width="18" height="18" fill="white"/>
</clipPath>
</defs>
</svg>
