<svg width="18" height="18" viewBox="0 0 18 18" fill="none" xmlns="http://www.w3.org/2000/svg">
<g id="uz" clip-path="url(#clip0_186_15399)">
<path id="Vector" d="M0 12H18V18.0012H0V12Z" fill="#1EB53A"/>
<path id="Vector_2" d="M0 0H18V6.00117H0V0Z" fill="#0099B5"/>
<path id="Vector_3" d="M0 5.75781H18V12.2406H0V5.75781Z" fill="#CE1126"/>
<path id="Vector_4" d="M0 6.11719H18V11.8828H0V6.11719Z" fill="white"/>
<path id="Vector_5" d="M5.04141 5.03594C6.23356 5.03594 7.2 4.0695 7.2 2.87734C7.2 1.68519 6.23356 0.71875 5.04141 0.71875C3.84925 0.71875 2.88281 1.68519 2.88281 2.87734C2.88281 4.0695 3.84925 5.03594 5.04141 5.03594Z" fill="white"/>
<path id="Vector_6" d="M5.7582 5.03594C6.95036 5.03594 7.9168 4.0695 7.9168 2.87734C7.9168 1.68519 6.95036 0.71875 5.7582 0.71875C4.56604 0.71875 3.59961 1.68519 3.59961 2.87734C3.59961 4.0695 4.56604 5.03594 5.7582 5.03594Z" fill="#0099B5"/>
<g id="Group">
<g id="uz-e">
<g id="uz-d">
<g id="uz-c">
<g id="uz-b">
<path id="uz-a" d="M9.7911 4.17578L9.6543 4.58618L9.8631 4.65818" fill="white"/>
<path id="uz-a_2" d="M9.79093 4.17578L9.92773 4.58618L9.71893 4.65818" fill="white"/>
</g>
<g id="uz-b_2">
<path id="uz-a_3" d="M10.2024 4.47385L9.76984 4.47057L9.76589 4.6914" fill="white"/>
<path id="uz-a_4" d="M10.2028 4.47536L9.8548 4.73229L9.7218 4.55596" fill="white"/>
</g>
</g>
<g id="uz-b_3">
<path id="uz-a_5" d="M9.38016 4.47536L9.7282 4.73229L9.8612 4.55596" fill="white"/>
<path id="uz-a_6" d="M9.38058 4.47385L9.81317 4.47057L9.81712 4.6914" fill="white"/>
</g>
<g id="uz-c_2">
<g id="uz-b_4">
<path id="uz-a_7" d="M10.0446 4.95541L9.91405 4.54298L9.7028 4.60746" fill="white"/>
<path id="uz-a_8" d="M10.0443 4.95475L9.69237 4.70314L9.81897 4.52216" fill="white"/>
</g>
<g id="uz-b_5">
<path id="uz-a_9" d="M9.53679 4.95475L9.88869 4.70314L9.76209 4.52216" fill="white"/>
<path id="uz-a_10" d="M9.53645 4.95541L9.66701 4.54298L9.87825 4.60746" fill="white"/>
</g>
</g>
</g>
<g id="uz-d_2">
<g id="uz-c_3">
<g id="uz-b_6">
<path id="uz-a_11" d="M9.7911 2.44531L9.6543 2.85571L9.8631 2.92771" fill="white"/>
<path id="uz-a_12" d="M9.79093 2.44531L9.92773 2.85571L9.71893 2.92771" fill="white"/>
</g>
<g id="uz-b_7">
<path id="uz-a_13" d="M10.2024 2.74339L9.76984 2.7401L9.76589 2.96093" fill="white"/>
<path id="uz-a_14" d="M10.2028 2.7449L9.8548 3.00182L9.7218 2.82549" fill="white"/>
</g>
</g>
<g id="uz-b_8">
<path id="uz-a_15" d="M9.38016 2.7449L9.7282 3.00182L9.8612 2.82549" fill="white"/>
<path id="uz-a_16" d="M9.38058 2.74339L9.81317 2.7401L9.81712 2.96093" fill="white"/>
</g>
<g id="uz-c_4">
<g id="uz-b_9">
<path id="uz-a_17" d="M10.0446 3.22494L9.91405 2.81251L9.7028 2.87699" fill="white"/>
<path id="uz-a_18" d="M10.0443 3.22428L9.69237 2.97267L9.81897 2.79169" fill="white"/>
</g>
<g id="uz-b_10">
<path id="uz-a_19" d="M9.53679 3.22428L9.88869 2.97267L9.76209 2.79169" fill="white"/>
<path id="uz-a_20" d="M9.53645 3.22494L9.66701 2.81251L9.87825 2.87699" fill="white"/>
</g>
</g>
</g>
<g id="uz-d_3">
<g id="uz-c_5">
<g id="uz-b_11">
<path id="uz-a_21" d="M9.7911 0.71875L9.6543 1.12915L9.8631 1.20115" fill="white"/>
<path id="uz-a_22" d="M9.79093 0.71875L9.92773 1.12915L9.71893 1.20115" fill="white"/>
</g>
<g id="uz-b_12">
<path id="uz-a_23" d="M10.2024 1.01682L9.76984 1.01354L9.76589 1.23437" fill="white"/>
<path id="uz-a_24" d="M10.2028 1.01833L9.8548 1.27526L9.7218 1.09893" fill="white"/>
</g>
</g>
<g id="uz-b_13">
<path id="uz-a_25" d="M9.38016 1.01833L9.7282 1.27526L9.8612 1.09893" fill="white"/>
<path id="uz-a_26" d="M9.38058 1.01682L9.81317 1.01354L9.81712 1.23437" fill="white"/>
</g>
<g id="uz-c_6">
<g id="uz-b_14">
<path id="uz-a_27" d="M10.0446 1.49838L9.91405 1.08595L9.7028 1.15043" fill="white"/>
<path id="uz-a_28" d="M10.0443 1.49772L9.69237 1.2461L9.81897 1.06513" fill="white"/>
</g>
<g id="uz-b_15">
<path id="uz-a_29" d="M9.53679 1.49772L9.88869 1.2461L9.76209 1.06513" fill="white"/>
<path id="uz-a_30" d="M9.53645 1.49838L9.66701 1.08595L9.87825 1.15043" fill="white"/>
</g>
</g>
</g>
</g>
<g id="uz-e_2">
<g id="uz-d_4">
<g id="uz-c_7">
<g id="uz-b_16">
<path id="uz-a_31" d="M11.5186 4.17578L11.3818 4.58618L11.5906 4.65818" fill="white"/>
<path id="uz-a_32" d="M11.5185 4.17578L11.6553 4.58618L11.4465 4.65818" fill="white"/>
</g>
<g id="uz-b_17">
<path id="uz-a_33" d="M11.93 4.47385L11.4974 4.47057L11.4934 4.6914" fill="white"/>
<path id="uz-a_34" d="M11.9304 4.47536L11.5823 4.73229L11.4493 4.55596" fill="white"/>
</g>
</g>
<g id="uz-b_18">
<path id="uz-a_35" d="M11.1077 4.47536L11.4557 4.73229L11.5887 4.55596" fill="white"/>
<path id="uz-a_36" d="M11.1081 4.47385L11.5407 4.47057L11.5447 4.6914" fill="white"/>
</g>
<g id="uz-c_8">
<g id="uz-b_19">
<path id="uz-a_37" d="M11.7721 4.95541L11.6416 4.54298L11.4303 4.60746" fill="white"/>
<path id="uz-a_38" d="M11.7718 4.95475L11.4199 4.70314L11.5465 4.52216" fill="white"/>
</g>
<g id="uz-b_20">
<path id="uz-a_39" d="M11.2643 4.95475L11.6162 4.70314L11.4896 4.52216" fill="white"/>
<path id="uz-a_40" d="M11.264 4.95541L11.3945 4.54298L11.6058 4.60746" fill="white"/>
</g>
</g>
</g>
<g id="uz-d_5">
<g id="uz-c_9">
<g id="uz-b_21">
<path id="uz-a_41" d="M11.5186 2.44531L11.3818 2.85571L11.5906 2.92771" fill="white"/>
<path id="uz-a_42" d="M11.5185 2.44531L11.6553 2.85571L11.4465 2.92771" fill="white"/>
</g>
<g id="uz-b_22">
<path id="uz-a_43" d="M11.93 2.74339L11.4974 2.7401L11.4934 2.96093" fill="white"/>
<path id="uz-a_44" d="M11.9304 2.7449L11.5823 3.00182L11.4493 2.82549" fill="white"/>
</g>
</g>
<g id="uz-b_23">
<path id="uz-a_45" d="M11.1077 2.7449L11.4557 3.00182L11.5887 2.82549" fill="white"/>
<path id="uz-a_46" d="M11.1081 2.74339L11.5407 2.7401L11.5447 2.96093" fill="white"/>
</g>
<g id="uz-c_10">
<g id="uz-b_24">
<path id="uz-a_47" d="M11.7721 3.22494L11.6416 2.81251L11.4303 2.87699" fill="white"/>
<path id="uz-a_48" d="M11.7718 3.22428L11.4199 2.97267L11.5465 2.79169" fill="white"/>
</g>
<g id="uz-b_25">
<path id="uz-a_49" d="M11.2643 3.22428L11.6162 2.97267L11.4896 2.79169" fill="white"/>
<path id="uz-a_50" d="M11.264 3.22494L11.3945 2.81251L11.6058 2.87699" fill="white"/>
</g>
</g>
</g>
<g id="uz-d_6">
<g id="uz-c_11">
<g id="uz-b_26">
<path id="uz-a_51" d="M11.5186 0.71875L11.3818 1.12915L11.5906 1.20115" fill="white"/>
<path id="uz-a_52" d="M11.5185 0.71875L11.6553 1.12915L11.4465 1.20115" fill="white"/>
</g>
<g id="uz-b_27">
<path id="uz-a_53" d="M11.93 1.01682L11.4974 1.01354L11.4934 1.23437" fill="white"/>
<path id="uz-a_54" d="M11.9304 1.01833L11.5823 1.27526L11.4493 1.09893" fill="white"/>
</g>
</g>
<g id="uz-b_28">
<path id="uz-a_55" d="M11.1077 1.01833L11.4557 1.27526L11.5887 1.09893" fill="white"/>
<path id="uz-a_56" d="M11.1081 1.01682L11.5407 1.01354L11.5447 1.23437" fill="white"/>
</g>
<g id="uz-c_12">
<g id="uz-b_29">
<path id="uz-a_57" d="M11.7721 1.49838L11.6416 1.08595L11.4303 1.15043" fill="white"/>
<path id="uz-a_58" d="M11.7718 1.49772L11.4199 1.2461L11.5465 1.06513" fill="white"/>
</g>
<g id="uz-b_30">
<path id="uz-a_59" d="M11.2643 1.49772L11.6162 1.2461L11.4896 1.06513" fill="white"/>
<path id="uz-a_60" d="M11.264 1.49838L11.3945 1.08595L11.6058 1.15043" fill="white"/>
</g>
</g>
</g>
</g>
<g id="uz-e_3">
<g id="uz-d_7">
<g id="uz-c_13">
<g id="uz-b_31">
<path id="uz-a_61" d="M13.2472 4.17578L13.1104 4.58618L13.3192 4.65818" fill="white"/>
<path id="uz-a_62" d="M13.247 4.17578L13.3838 4.58618L13.175 4.65818" fill="white"/>
</g>
<g id="uz-b_32">
<path id="uz-a_63" d="M13.6585 4.47385L13.2259 4.47057L13.2219 4.6914" fill="white"/>
<path id="uz-a_64" d="M13.6589 4.47536L13.3109 4.73229L13.1779 4.55596" fill="white"/>
</g>
</g>
<g id="uz-b_33">
<path id="uz-a_65" d="M12.8362 4.47536L13.1843 4.73229L13.3173 4.55596" fill="white"/>
<path id="uz-a_66" d="M12.8366 4.47385L13.2692 4.47057L13.2732 4.6914" fill="white"/>
</g>
<g id="uz-c_14">
<g id="uz-b_34">
<path id="uz-a_67" d="M13.5007 4.95541L13.3701 4.54298L13.1589 4.60746" fill="white"/>
<path id="uz-a_68" d="M13.5003 4.95475L13.1484 4.70314L13.275 4.52216" fill="white"/>
</g>
<g id="uz-b_35">
<path id="uz-a_69" d="M12.9928 4.95475L13.3447 4.70314L13.2181 4.52216" fill="white"/>
<path id="uz-a_70" d="M12.9925 4.95541L13.1231 4.54298L13.3343 4.60746" fill="white"/>
</g>
</g>
</g>
<g id="uz-d_8">
<g id="uz-c_15">
<g id="uz-b_36">
<path id="uz-a_71" d="M13.2472 2.44531L13.1104 2.85571L13.3192 2.92771" fill="white"/>
<path id="uz-a_72" d="M13.247 2.44531L13.3838 2.85571L13.175 2.92771" fill="white"/>
</g>
<g id="uz-b_37">
<path id="uz-a_73" d="M13.6585 2.74339L13.2259 2.7401L13.2219 2.96093" fill="white"/>
<path id="uz-a_74" d="M13.6589 2.7449L13.3109 3.00182L13.1779 2.82549" fill="white"/>
</g>
</g>
<g id="uz-b_38">
<path id="uz-a_75" d="M12.8362 2.7449L13.1843 3.00182L13.3173 2.82549" fill="white"/>
<path id="uz-a_76" d="M12.8366 2.74339L13.2692 2.7401L13.2732 2.96093" fill="white"/>
</g>
<g id="uz-c_16">
<g id="uz-b_39">
<path id="uz-a_77" d="M13.5007 3.22494L13.3701 2.81251L13.1589 2.87699" fill="white"/>
<path id="uz-a_78" d="M13.5003 3.22428L13.1484 2.97267L13.275 2.79169" fill="white"/>
</g>
<g id="uz-b_40">
<path id="uz-a_79" d="M12.9928 3.22428L13.3447 2.97267L13.2181 2.79169" fill="white"/>
<path id="uz-a_80" d="M12.9925 3.22494L13.1231 2.81251L13.3343 2.87699" fill="white"/>
</g>
</g>
</g>
<g id="uz-d_9">
<g id="uz-c_17">
<g id="uz-b_41">
<path id="uz-a_81" d="M13.2472 0.71875L13.1104 1.12915L13.3192 1.20115" fill="white"/>
<path id="uz-a_82" d="M13.247 0.71875L13.3838 1.12915L13.175 1.20115" fill="white"/>
</g>
<g id="uz-b_42">
<path id="uz-a_83" d="M13.6585 1.01682L13.2259 1.01354L13.2219 1.23437" fill="white"/>
<path id="uz-a_84" d="M13.6589 1.01833L13.3109 1.27526L13.1779 1.09893" fill="white"/>
</g>
</g>
<g id="uz-b_43">
<path id="uz-a_85" d="M12.8362 1.01833L13.1843 1.27526L13.3173 1.09893" fill="white"/>
<path id="uz-a_86" d="M12.8366 1.01682L13.2692 1.01354L13.2732 1.23437" fill="white"/>
</g>
<g id="uz-c_18">
<g id="uz-b_44">
<path id="uz-a_87" d="M13.5007 1.49838L13.3701 1.08595L13.1589 1.15043" fill="white"/>
<path id="uz-a_88" d="M13.5003 1.49772L13.1484 1.2461L13.275 1.06513" fill="white"/>
</g>
<g id="uz-b_45">
<path id="uz-a_89" d="M12.9928 1.49772L13.3447 1.2461L13.2181 1.06513" fill="white"/>
<path id="uz-a_90" d="M12.9925 1.49838L13.1231 1.08595L13.3343 1.15043" fill="white"/>
</g>
</g>
</g>
</g>
<g id="uz-d_10">
<g id="uz-c_19">
<g id="uz-b_46">
<path id="uz-a_91" d="M6.33504 4.17578L6.19824 4.58618L6.40704 4.65818" fill="white"/>
<path id="uz-a_92" d="M6.33488 4.17578L6.47168 4.58618L6.26288 4.65818" fill="white"/>
</g>
<g id="uz-b_47">
<path id="uz-a_93" d="M6.74638 4.47385L6.31379 4.47057L6.30983 4.6914" fill="white"/>
<path id="uz-a_94" d="M6.74679 4.47536L6.39875 4.73229L6.26575 4.55596" fill="white"/>
</g>
</g>
<g id="uz-b_48">
<path id="uz-a_95" d="M5.92411 4.47536L6.27215 4.73229L6.40515 4.55596" fill="white"/>
<path id="uz-a_96" d="M5.92452 4.47385L6.35711 4.47057L6.36106 4.6914" fill="white"/>
</g>
<g id="uz-c_20">
<g id="uz-b_49">
<path id="uz-a_97" d="M6.58855 4.95541L6.45799 4.54298L6.24675 4.60746" fill="white"/>
<path id="uz-a_98" d="M6.58821 4.95475L6.23631 4.70314L6.36291 4.52216" fill="white"/>
</g>
<g id="uz-b_50">
<path id="uz-a_99" d="M6.08073 4.95475L6.43263 4.70314L6.30603 4.52216" fill="white"/>
<path id="uz-a_100" d="M6.0804 4.95541L6.21095 4.54298L6.4222 4.60746" fill="white"/>
</g>
</g>
</g>
<g id="uz-d_11">
<g id="uz-c_21">
<g id="uz-b_51">
<path id="uz-a_101" d="M8.06258 4.17578L7.92578 4.58618L8.13458 4.65818" fill="white"/>
<path id="uz-a_102" d="M8.06242 4.17578L8.19922 4.58618L7.99042 4.65818" fill="white"/>
</g>
<g id="uz-b_52">
<path id="uz-a_103" d="M8.47391 4.47385L8.04133 4.47057L8.03737 4.6914" fill="white"/>
<path id="uz-a_104" d="M8.47433 4.47536L8.12629 4.73229L7.99329 4.55596" fill="white"/>
</g>
</g>
<g id="uz-b_53">
<path id="uz-a_105" d="M7.65165 4.47536L7.99969 4.73229L8.13269 4.55596" fill="white"/>
<path id="uz-a_106" d="M7.65206 4.47385L8.08465 4.47057L8.0886 4.6914" fill="white"/>
</g>
<g id="uz-c_22">
<g id="uz-b_54">
<path id="uz-a_107" d="M8.31608 4.95541L8.18553 4.54298L7.97429 4.60746" fill="white"/>
<path id="uz-a_108" d="M8.31575 4.95475L7.96385 4.70314L8.09045 4.52216" fill="white"/>
</g>
<g id="uz-b_55">
<path id="uz-a_109" d="M7.80827 4.95475L8.16017 4.70314L8.03357 4.52216" fill="white"/>
<path id="uz-a_110" d="M7.80794 4.95541L7.93849 4.54298L8.14974 4.60746" fill="white"/>
</g>
</g>
</g>
<g id="uz-d_12">
<g id="uz-c_23">
<g id="uz-b_56">
<path id="uz-a_111" d="M8.06258 2.44531L7.92578 2.85571L8.13458 2.92771" fill="white"/>
<path id="uz-a_112" d="M8.06242 2.44531L8.19922 2.85571L7.99042 2.92771" fill="white"/>
</g>
<g id="uz-b_57">
<path id="uz-a_113" d="M8.47391 2.74339L8.04133 2.7401L8.03737 2.96093" fill="white"/>
<path id="uz-a_114" d="M8.47433 2.7449L8.12629 3.00182L7.99329 2.82549" fill="white"/>
</g>
</g>
<g id="uz-b_58">
<path id="uz-a_115" d="M7.65165 2.7449L7.99969 3.00182L8.13269 2.82549" fill="white"/>
<path id="uz-a_116" d="M7.65206 2.74339L8.08465 2.7401L8.0886 2.96093" fill="white"/>
</g>
<g id="uz-c_24">
<g id="uz-b_59">
<path id="uz-a_117" d="M8.31608 3.22494L8.18553 2.81251L7.97429 2.87699" fill="white"/>
<path id="uz-a_118" d="M8.31575 3.22428L7.96385 2.97267L8.09045 2.79169" fill="white"/>
</g>
<g id="uz-b_60">
<path id="uz-a_119" d="M7.80827 3.22428L8.16017 2.97267L8.03357 2.79169" fill="white"/>
<path id="uz-a_120" d="M7.80794 3.22494L7.93849 2.81251L8.14974 2.87699" fill="white"/>
</g>
</g>
</g>
</g>
</g>
<defs>
<clipPath id="clip0_186_15399">
<rect width="18" height="18" fill="white"/>
</clipPath>
</defs>
</svg>
