<svg width="18" height="18" viewBox="0 0 18 18" fill="none" xmlns="http://www.w3.org/2000/svg">
<g id="ve" clip-path="url(#clip0_186_15833)">
<path id="Vector" d="M0 0H18V18H0V0Z" fill="#CF142B"/>
<path id="Vector_2" d="M0 0H18V11.9988H0V0Z" fill="#00247D"/>
<path id="Vector_3" d="M0 0H18V6.00117H0V0Z" fill="#FFCC00"/>
<g id="ve-f">
<g id="ve-e">
<g id="ve-d">
<g id="ve-c">
<g id="ve-b">
<path id="ve-a" d="M10.0779 6.54687L9.73147 7.2166L10.1215 7.4224L10.0779 6.54687Z" fill="white"/>
<path id="Vector_4" d="M10.0783 6.54688L10.1748 7.29472L9.73794 7.35472L10.0783 6.54688Z" fill="white"/>
</g>
<g id="ve-b_2">
<path id="ve-a_2" d="M10.6905 7.17975L9.94647 7.0572L9.87126 7.49173L10.6905 7.17975Z" fill="white"/>
<path id="Vector_5" d="M10.6904 7.17962L10.009 7.50251L9.8169 7.10554L10.6904 7.17962Z" fill="white"/>
</g>
</g>
<g id="ve-b_3">
<path id="ve-a_3" d="M9.28625 6.93423L9.81614 7.4707L10.1324 7.16336L9.28625 6.93423Z" fill="white"/>
<path id="Vector_6" d="M9.28601 6.93296L10.0271 7.07226L9.94913 7.50631L9.28601 6.93296Z" fill="white"/>
</g>
<g id="ve-c_2">
<g id="ve-b_4">
<path id="ve-a_4" d="M10.2764 7.95797L10.163 7.2125L9.72651 7.27525L10.2764 7.95797Z" fill="white"/>
<path id="Vector_7" d="M10.2764 7.95609L9.75871 7.40781L10.0769 7.10247L10.2764 7.95609Z" fill="white"/>
</g>
<g id="ve-b_5">
<path id="ve-a_5" d="M9.40822 7.80306L10.0822 7.46489L9.88761 7.06914L9.40822 7.80306Z" fill="white"/>
<path id="Vector_8" d="M9.40819 7.80241L9.76968 7.14067L10.1584 7.34893L9.40819 7.80241Z" fill="white"/>
</g>
</g>
</g>
<g id="ve-d_2">
<g id="ve-c_3">
<g id="ve-b_6">
<path id="ve-a_6" d="M12.0844 7.27652L11.5298 7.78736L11.8259 8.11414L12.0844 7.27652Z" fill="white"/>
<path id="Vector_9" d="M12.0845 7.27817L11.9194 8.01392L11.4884 7.92087L12.0845 7.27817Z" fill="white"/>
</g>
<g id="ve-b_7">
<path id="ve-a_7" d="M12.4425 8.08328L11.7853 7.71364L11.566 8.09625L12.4425 8.08328Z" fill="white"/>
<path id="Vector_10" d="M12.4423 8.08469L11.6915 8.15505L11.6468 7.71633L12.4423 8.08469Z" fill="white"/>
</g>
</g>
<g id="ve-b_8">
<path id="ve-a_8" d="M11.2082 7.36904L11.5226 8.05439L11.9249 7.87375L11.2082 7.36904Z" fill="white"/>
<path id="Vector_11" d="M11.2079 7.36925L11.8566 7.75361L11.6349 8.13482L11.2079 7.36925Z" fill="white"/>
</g>
<g id="ve-c_4">
<g id="ve-b_9">
<path id="ve-a_9" d="M11.788 8.67195L11.9365 7.93266L11.5048 7.84234L11.788 8.67195Z" fill="white"/>
<path id="Vector_12" d="M11.7881 8.6718L11.4892 7.97954L11.8927 7.80144L11.7881 8.6718Z" fill="white"/>
</g>
<g id="ve-b_10">
<path id="ve-a_10" d="M11.0247 8.23203L11.7737 8.14476L11.7262 7.70634L11.0247 8.23203Z" fill="white"/>
<path id="Vector_13" d="M11.0251 8.23281L11.5911 7.73461L11.8851 8.06326L11.0251 8.23281Z" fill="white"/>
</g>
</g>
</g>
</g>
<g id="ve-e_2">
<g id="ve-d_3">
<g id="ve-c_5">
<g id="ve-b_11">
<path id="ve-a_11" d="M13.7198 8.64886L13.0239 8.93919L13.1903 9.34754L13.7198 8.64886Z" fill="white"/>
<path id="Vector_14" d="M13.7197 8.64802L13.3129 9.28294L12.9397 9.04807L13.7197 8.64802Z" fill="white"/>
</g>
<g id="ve-b_12">
<path id="ve-a_12" d="M13.7812 9.52667L13.29 8.95454L12.9531 9.23907L13.7812 9.52667Z" fill="white"/>
<path id="Vector_15" d="M13.7813 9.52801L13.0518 9.33736L13.1598 8.9098L13.7813 9.52801Z" fill="white"/>
</g>
</g>
<g id="ve-b_13">
<path id="ve-a_13" d="M12.8648 8.43528L12.9259 9.18684L13.3657 9.15469L12.8648 8.43528Z" fill="white"/>
<path id="Vector_16" d="M12.8647 8.43582L13.3429 9.01887L13.0041 9.30127L12.8647 8.43582Z" fill="white"/>
</g>
<g id="ve-c_6">
<g id="ve-b_14">
<path id="ve-a_14" d="M12.9644 9.85965L13.3567 9.21572L12.982 8.98322L12.9644 9.85965Z" fill="white"/>
<path id="Vector_17" d="M12.9643 9.8591L12.9202 9.10635L13.3602 9.07698L12.9643 9.8591Z" fill="white"/>
</g>
<g id="ve-b_15">
<path id="ve-a_15" d="M12.3974 9.18579L13.1311 9.35995L13.2364 8.93172L12.3974 9.18579Z" fill="white"/>
<path id="Vector_18" d="M12.3975 9.1853L13.0998 8.91073L13.2637 9.32013L12.3975 9.1853Z" fill="white"/>
</g>
</g>
</g>
<g id="ve-d_4">
<g id="ve-c_7">
<g id="ve-b_16">
<path id="ve-a_16" d="M14.7879 10.4965L14.0346 10.5313L14.0514 10.972L14.7879 10.4965Z" fill="white"/>
<path id="Vector_19" d="M14.7883 10.4957L14.1889 10.9532L13.9185 10.6048L14.7883 10.4957Z" fill="white"/>
</g>
<g id="ve-b_17">
<path id="ve-a_17" d="M14.5444 11.3455L14.2786 10.6399L13.8647 10.792L14.5444 11.3455Z" fill="white"/>
<path id="Vector_20" d="M14.5444 11.3459L13.9241 10.9172L14.1718 10.5524L14.5444 11.3459Z" fill="white"/>
</g>
</g>
<g id="ve-b_18">
<path id="ve-a_18" d="M14.0578 10.0039L13.8581 10.731L14.2824 10.8512L14.0578 10.0039Z" fill="white"/>
<path id="Vector_21" d="M14.0575 10.0039L14.3073 10.7154L13.8925 10.8649L14.0575 10.0039Z" fill="white"/>
</g>
<g id="ve-c_8">
<g id="ve-b_19">
<path id="ve-a_19" d="M13.6641 11.3742L14.253 10.9033L13.9804 10.5567L13.6641 11.3742Z" fill="white"/>
<path id="Vector_22" d="M13.664 11.3758L13.88 10.6533L14.3035 10.7762L13.664 11.3758Z" fill="white"/>
</g>
<g id="ve-b_20">
<path id="ve-a_20" d="M13.3628 10.5455L13.9926 10.9601L14.2381 10.5937L13.3628 10.5455Z" fill="white"/>
<path id="Vector_23" d="M13.3628 10.5443L14.1166 10.5265L14.1306 10.9673L13.3628 10.5443Z" fill="white"/>
</g>
</g>
</g>
</g>
</g>
<g id="ve-f_2">
<g id="ve-e_3">
<g id="ve-d_5">
<g id="ve-c_9">
<g id="ve-b_21">
<path id="ve-a_21" d="M3.23317 10.4957L3.83256 10.9532L4.10297 10.6048L3.23317 10.4957Z" fill="white"/>
<path id="Vector_24" d="M3.23362 10.4965L3.98686 10.5313L3.97008 10.972L3.23362 10.4965Z" fill="white"/>
</g>
<g id="ve-b_22">
<path id="ve-a_22" d="M3.96403 10.0039L3.71414 10.7154L4.12901 10.8649L3.96403 10.0039Z" fill="white"/>
<path id="Vector_25" d="M3.9637 10.0039L4.16336 10.731L3.73907 10.8512L3.9637 10.0039Z" fill="white"/>
</g>
</g>
<g id="ve-b_23">
<path id="ve-a_23" d="M3.47609 11.342L4.09642 10.9133L3.84867 10.5485L3.47609 11.342Z" fill="white"/>
<path id="Vector_26" d="M3.47606 11.3416L3.74193 10.636L4.15585 10.7881L3.47606 11.3416Z" fill="white"/>
</g>
<g id="ve-c_10">
<g id="ve-b_24">
<path id="ve-a_24" d="M4.65867 10.5443L3.90484 10.5265L3.89084 10.9673L4.65867 10.5443Z" fill="white"/>
<path id="Vector_27" d="M4.65871 10.5455L4.02887 10.9601L3.78342 10.5937L4.65871 10.5455Z" fill="white"/>
</g>
<g id="ve-b_25">
<path id="ve-a_25" d="M4.35748 11.3719L4.14148 10.6494L3.71796 10.7723L4.35748 11.3719Z" fill="white"/>
<path id="Vector_28" d="M4.35736 11.3703L3.76844 10.8994L4.04103 10.5528L4.35736 11.3703Z" fill="white"/>
</g>
</g>
</g>
<g id="ve-d_6">
<g id="ve-c_11">
<g id="ve-b_26">
<path id="ve-a_26" d="M4.30082 8.64802L4.70759 9.28294L5.08083 9.04807L4.30082 8.64802Z" fill="white"/>
<path id="Vector_29" d="M4.30074 8.64886L4.99665 8.93919L4.83016 9.34754L4.30074 8.64886Z" fill="white"/>
</g>
<g id="ve-b_27">
<path id="ve-a_27" d="M5.1558 8.43582L4.67765 9.01887L5.01637 9.30127L5.1558 8.43582Z" fill="white"/>
<path id="Vector_30" d="M5.15572 8.43528L5.09465 9.18684L4.65483 9.15469L5.15572 8.43528Z" fill="white"/>
</g>
</g>
<g id="ve-b_28">
<path id="ve-a_28" d="M4.23921 9.52411L4.96875 9.33345L4.86072 8.9059L4.23921 9.52411Z" fill="white"/>
<path id="Vector_31" d="M4.2393 9.52277L4.73047 8.95064L5.06739 9.23517L4.2393 9.52277Z" fill="white"/>
</g>
<g id="ve-c_12">
<g id="ve-b_29">
<path id="ve-a_29" d="M5.62298 9.1814L4.92071 8.90683L4.7568 9.31623L5.62298 9.1814Z" fill="white"/>
<path id="Vector_32" d="M5.62311 9.18189L4.88946 9.35604L4.78412 8.92782L5.62311 9.18189Z" fill="white"/>
</g>
<g id="ve-b_30">
<path id="ve-a_30" d="M5.05618 9.85519L5.1003 9.10244L4.66029 9.07307L5.05618 9.85519Z" fill="white"/>
<path id="Vector_33" d="M5.05612 9.85575L4.66377 9.21182L5.03849 8.97931L5.05612 9.85575Z" fill="white"/>
</g>
</g>
</g>
</g>
<g id="ve-e_4">
<g id="ve-d_7">
<g id="ve-c_13">
<g id="ve-b_31">
<path id="ve-a_31" d="M5.93599 7.27817L6.10107 8.01392L6.53213 7.92087L5.93599 7.27817Z" fill="white"/>
<path id="Vector_34" d="M5.93608 7.27652L6.49072 7.78736L6.1946 8.11414L5.93608 7.27652Z" fill="white"/>
</g>
<g id="ve-b_32">
<path id="ve-a_32" d="M6.81265 7.36925L6.16392 7.75361L6.38562 8.13482L6.81265 7.36925Z" fill="white"/>
<path id="Vector_35" d="M6.81235 7.36904L6.49791 8.05439L6.09561 7.87375L6.81235 7.36904Z" fill="white"/>
</g>
</g>
<g id="ve-b_33">
<path id="ve-a_33" d="M5.57824 8.08078L6.32899 8.15114L6.3737 7.71242L5.57824 8.08078Z" fill="white"/>
<path id="Vector_36" d="M5.57801 8.07937L6.23524 7.70974L6.45453 8.09234L5.57801 8.07937Z" fill="white"/>
</g>
<g id="ve-c_14">
<g id="ve-b_34">
<path id="ve-a_34" d="M6.99641 8.23281L6.43039 7.73461L6.13635 8.06326L6.99641 8.23281Z" fill="white"/>
<path id="Vector_37" d="M6.99675 8.23203L6.24778 8.14476L6.29526 7.70634L6.99675 8.23203Z" fill="white"/>
</g>
<g id="ve-b_35">
<path id="ve-a_35" d="M6.23335 8.6718L6.53226 7.97954L6.12883 7.80144L6.23335 8.6718Z" fill="white"/>
<path id="Vector_38" d="M6.23345 8.67195L6.085 7.93266L6.51664 7.84234L6.23345 8.67195Z" fill="white"/>
</g>
</g>
</g>
<g id="ve-d_8">
<g id="ve-c_15">
<g id="ve-b_36">
<path id="ve-a_36" d="M7.94317 6.54688L7.84666 7.29472L8.28355 7.35472L7.94317 6.54688Z" fill="white"/>
<path id="Vector_39" d="M7.94354 6.54687L8.29002 7.2166L7.89999 7.4224L7.94354 6.54687Z" fill="white"/>
</g>
<g id="ve-b_37">
<path id="ve-a_37" d="M8.73547 6.93296L7.99441 7.07226L8.07236 7.50631L8.73547 6.93296Z" fill="white"/>
<path id="Vector_40" d="M8.73523 6.93423L8.20535 7.4707L7.88909 7.16336L8.73523 6.93423Z" fill="white"/>
</g>
</g>
<g id="ve-b_38">
<path id="ve-a_38" d="M7.33111 7.18353L8.01252 7.50642L8.20458 7.10945L7.33111 7.18353Z" fill="white"/>
<path id="Vector_41" d="M7.331 7.18366L8.07502 7.0611L8.15022 7.49563L7.331 7.18366Z" fill="white"/>
</g>
<g id="ve-c_16">
<g id="ve-b_39">
<path id="ve-a_39" d="M8.61329 7.80632L8.25181 7.14457L7.86309 7.35283L8.61329 7.80632Z" fill="white"/>
<path id="Vector_42" d="M8.61327 7.80696L7.93931 7.46879L8.13388 7.07304L8.61327 7.80696Z" fill="white"/>
</g>
<g id="ve-b_40">
<path id="ve-a_40" d="M7.74512 7.96L8.26277 7.41171L7.94458 7.10638L7.74512 7.96Z" fill="white"/>
<path id="Vector_43" d="M7.74512 7.96188L7.85847 7.2164L8.29498 7.27916L7.74512 7.96188Z" fill="white"/>
</g>
</g>
</g>
</g>
</g>
</g>
<defs>
<clipPath id="clip0_186_15833">
<rect width="18" height="18" fill="white"/>
</clipPath>
</defs>
</svg>
