<svg width="18" height="18" viewBox="0 0 18 18" fill="none" xmlns="http://www.w3.org/2000/svg">
<g id="vg" clip-path="url(#clip0_186_15987)">
<path id="Vector" d="M0 0H18V18H0V0Z" fill="#000066"/>
<g id="Group">
<path id="Vector_2" d="M10.2289 4.38275L16.7329 4.35938L16.7199 10.1517C16.7199 10.1517 16.9485 11.0348 13.9926 12.3725C15.0549 12.2634 16.2134 11.1309 16.2134 11.1309C16.2134 11.1309 16.6835 10.5257 16.9147 10.8634C17.1433 11.2011 17.3589 11.3725 17.5277 11.505C17.6965 11.6348 17.829 11.9985 17.5771 12.2634C17.3225 12.5309 16.9251 12.5647 16.816 12.24C16.6472 12.3258 15.6108 13.5803 13.4861 13.6401C11.325 13.6037 10.1432 12.227 10.1432 12.227C10.1432 12.227 9.85484 12.6868 9.44184 12.3258C9.04443 11.853 9.34574 11.5517 9.34574 11.5517C9.34574 11.5517 9.68341 11.3595 9.78211 11.227C9.93796 11.0452 9.98731 10.8036 10.2497 10.8036C10.5665 10.8296 10.686 11.0816 10.686 11.0816C10.686 11.0816 11.7718 12.227 12.9432 12.3725C10.3016 11.105 10.2029 10.3205 10.2159 10.1283L10.2289 4.38275Z" fill="white"/>
<path id="Vector_3" d="M10.3847 4.54027L16.5874 4.50391V10.078C16.6004 10.8053 15.3796 11.5404 13.4731 12.4807C11.5068 11.4677 10.3717 10.8521 10.3613 10.065L10.3847 4.54027Z" fill="#006129" stroke="black" stroke-width="1.40378"/>
<g id="vg-b">
<path id="Vector_4" d="M11.2285 5.36189L11.5922 4.82422L11.9636 5.36449" stroke="#FFC72C" stroke-width="1.40378"/>
<path id="Vector_5" d="M11.6679 5.15867C11.6679 5.17795 11.6603 5.19645 11.6466 5.21009C11.633 5.22373 11.6145 5.23139 11.5952 5.23139C11.5759 5.23139 11.5574 5.22373 11.5438 5.21009C11.5301 5.19645 11.5225 5.17795 11.5225 5.15867C11.5225 5.13938 11.5301 5.12088 11.5438 5.10724C11.5574 5.0936 11.5759 5.08594 11.5952 5.08594C11.6145 5.08594 11.633 5.0936 11.6466 5.10724C11.6603 5.12088 11.6679 5.13938 11.6679 5.15867Z" fill="#FFC72C" stroke="black" stroke-width="0.664947"/>
<g id="Vector_6">
<path d="M11.2965 5.75906H11.8654C11.8654 5.75906 11.8732 5.68633 11.8056 5.64217C12.1043 5.60062 12.0264 5.34087 12.2732 5.32529C12.3251 5.33308 12.1433 5.43698 12.1433 5.43698C12.1433 5.43698 11.9952 5.54087 12.0654 5.59542C12.1173 5.63958 12.1433 5.56945 12.1485 5.5175C12.1563 5.46555 12.39 5.43178 12.3563 5.28373C12.3017 5.16165 11.9745 5.36685 11.9745 5.36685L11.7407 5.36425C11.7251 5.33827 11.6628 5.23438 11.5952 5.23438C11.5173 5.23438 11.4602 5.36425 11.4602 5.36425H10.9329C10.9329 5.36425 10.9147 5.50191 11.1822 5.52789C11.242 5.60581 11.2887 5.62659 11.3433 5.64737C11.3069 5.67594 11.2965 5.71231 11.2965 5.75906ZM11.3381 5.64477H11.8108Z" fill="#FFC72C"/>
<path d="M11.3381 5.64477H11.8108M11.2965 5.75906H11.8654C11.8654 5.75906 11.8732 5.68633 11.8056 5.64217C12.1043 5.60062 12.0264 5.34087 12.2732 5.32529C12.3251 5.33308 12.1433 5.43698 12.1433 5.43698C12.1433 5.43698 11.9952 5.54087 12.0654 5.59542C12.1173 5.63958 12.1433 5.56945 12.1485 5.5175C12.1563 5.46555 12.39 5.43178 12.3563 5.28373C12.3017 5.16165 11.9745 5.36685 11.9745 5.36685L11.7407 5.36425C11.7251 5.33827 11.6628 5.23438 11.5952 5.23438C11.5173 5.23438 11.4602 5.36425 11.4602 5.36425H10.9329C10.9329 5.36425 10.9147 5.50191 11.1822 5.52789C11.242 5.60581 11.2887 5.62659 11.3433 5.64737C11.3069 5.67594 11.2965 5.71231 11.2965 5.75906Z" stroke="black" stroke-width="0.664947"/>
</g>
<g id="Vector_7">
<path d="M11.1221 5.36719C11.1221 5.36719 11.1584 5.58797 11.3351 5.63992Z" fill="#FFC72C"/>
<path d="M11.1221 5.36719C11.1221 5.36719 11.1584 5.58797 11.3351 5.63992" stroke="black" stroke-width="0.664947"/>
</g>
<path id="Vector_8" d="M11.0937 5.36443C11.1093 5.28131 11.143 5.26572 11.1768 5.15663C11.182 5.05273 11.0937 5.06572 11.1197 5.00078C11.1664 4.92546 11.143 4.85533 11.0547 4.80078C11.0729 4.89689 10.9404 4.9878 10.9404 5.06572C10.9404 5.14364 11.008 5.12806 11.0002 5.24754C11.0054 5.31508 10.982 5.29949 10.9742 5.36443H11.0937Z" fill="url(#paint0_linear_186_15987)" stroke="black" stroke-width="0.664947"/>
<path id="Vector_9" d="M11.6624 4.84097C11.6624 4.85888 11.6553 4.87606 11.6426 4.88872C11.63 4.90139 11.6128 4.9085 11.5949 4.9085C11.577 4.9085 11.5598 4.90139 11.5471 4.88872C11.5345 4.87606 11.5273 4.85888 11.5273 4.84097C11.5273 4.82306 11.5345 4.80588 11.5471 4.79322C11.5598 4.78055 11.577 4.77344 11.5949 4.77344C11.6128 4.77344 11.63 4.78055 11.6426 4.79322C11.6553 4.80588 11.6624 4.82306 11.6624 4.84097Z" fill="#FFC72C" stroke="black" stroke-width="0.664947"/>
</g>
<g id="vg-b_2">
<path id="Vector_10" d="M11.208 6.43611L11.5717 5.89844L11.9431 6.43871" stroke="#FFC72C" stroke-width="1.40378"/>
<path id="Vector_11" d="M11.6474 6.23288C11.6474 6.25217 11.6397 6.27067 11.6261 6.28431C11.6125 6.29795 11.594 6.30561 11.5747 6.30561C11.5554 6.30561 11.5369 6.29795 11.5233 6.28431C11.5096 6.27067 11.502 6.25217 11.502 6.23288C11.502 6.2136 11.5096 6.1951 11.5233 6.18146C11.5369 6.16782 11.5554 6.16016 11.5747 6.16016C11.594 6.16016 11.6125 6.16782 11.6261 6.18146C11.6397 6.1951 11.6474 6.2136 11.6474 6.23288Z" fill="#FFC72C" stroke="black" stroke-width="0.664947"/>
<g id="Vector_12">
<path d="M11.276 6.83328H11.8449C11.8449 6.83328 11.8526 6.76055 11.7851 6.71639C12.0838 6.67483 12.0059 6.41509 12.2527 6.3995C12.3046 6.4073 12.1228 6.51119 12.1228 6.51119C12.1228 6.51119 11.9747 6.61509 12.0449 6.66964C12.0968 6.7138 12.1228 6.64366 12.128 6.59172C12.1358 6.53977 12.3695 6.506 12.3358 6.35795C12.2812 6.23587 11.9539 6.44106 11.9539 6.44106L11.7202 6.43847C11.7046 6.41249 11.6423 6.30859 11.5747 6.30859C11.4968 6.30859 11.4397 6.43847 11.4397 6.43847H10.9124C10.9124 6.43847 10.8942 6.57613 11.1617 6.60211C11.2215 6.68003 11.2682 6.70081 11.3228 6.72159C11.2864 6.75016 11.276 6.78652 11.276 6.83328ZM11.3176 6.71899H11.7903Z" fill="#FFC72C"/>
<path d="M11.3176 6.71899H11.7903M11.276 6.83328H11.8449C11.8449 6.83328 11.8526 6.76055 11.7851 6.71639C12.0838 6.67483 12.0059 6.41509 12.2527 6.3995C12.3046 6.4073 12.1228 6.51119 12.1228 6.51119C12.1228 6.51119 11.9747 6.61509 12.0449 6.66964C12.0968 6.7138 12.1228 6.64366 12.128 6.59172C12.1358 6.53977 12.3695 6.506 12.3358 6.35795C12.2812 6.23587 11.9539 6.44106 11.9539 6.44106L11.7202 6.43847C11.7046 6.41249 11.6423 6.30859 11.5747 6.30859C11.4968 6.30859 11.4397 6.43847 11.4397 6.43847H10.9124C10.9124 6.43847 10.8942 6.57613 11.1617 6.60211C11.2215 6.68003 11.2682 6.70081 11.3228 6.72159C11.2864 6.75016 11.276 6.78652 11.276 6.83328Z" stroke="black" stroke-width="0.664947"/>
</g>
<g id="Vector_13">
<path d="M11.1016 6.44141C11.1016 6.44141 11.1379 6.66219 11.3146 6.71414Z" fill="#FFC72C"/>
<path d="M11.1016 6.44141C11.1016 6.44141 11.1379 6.66219 11.3146 6.71414" stroke="black" stroke-width="0.664947"/>
</g>
<path id="Vector_14" d="M11.0732 6.43865C11.0888 6.35553 11.1225 6.33994 11.1563 6.23085C11.1615 6.12695 11.0732 6.13994 11.0991 6.075C11.1459 5.99968 11.1225 5.92955 11.0342 5.875C11.0524 5.97111 10.9199 6.06202 10.9199 6.13994C10.9199 6.21786 10.9875 6.20228 10.9797 6.32176C10.9849 6.38929 10.9615 6.37371 10.9537 6.43865H11.0732Z" fill="url(#paint1_linear_186_15987)" stroke="black" stroke-width="0.664947"/>
<path id="Vector_15" d="M11.6419 5.91519C11.6419 5.9331 11.6348 5.95028 11.6221 5.96294C11.6095 5.97561 11.5923 5.98272 11.5744 5.98272C11.5565 5.98272 11.5393 5.97561 11.5266 5.96294C11.514 5.95028 11.5068 5.9331 11.5068 5.91519C11.5068 5.89728 11.514 5.8801 11.5266 5.86744C11.5393 5.85477 11.5565 5.84766 11.5744 5.84766C11.5923 5.84766 11.6095 5.85477 11.6221 5.86744C11.6348 5.8801 11.6419 5.89728 11.6419 5.91519Z" fill="#FFC72C" stroke="black" stroke-width="0.664947"/>
</g>
<g id="vg-b_3">
<path id="Vector_16" d="M11.2002 7.4947L11.5638 6.95703L11.9353 7.4973" stroke="#FFC72C" stroke-width="1.40378"/>
<path id="Vector_17" d="M11.6396 7.29148C11.6396 7.31077 11.6319 7.32927 11.6183 7.34291C11.6047 7.35654 11.5862 7.36421 11.5669 7.36421C11.5476 7.36421 11.5291 7.35654 11.5154 7.34291C11.5018 7.32927 11.4941 7.31077 11.4941 7.29148C11.4941 7.27219 11.5018 7.25369 11.5154 7.24005C11.5291 7.22641 11.5476 7.21875 11.5669 7.21875C11.5862 7.21875 11.6047 7.22641 11.6183 7.24005C11.6319 7.25369 11.6396 7.27219 11.6396 7.29148Z" fill="#FFC72C" stroke="black" stroke-width="0.664947"/>
<g id="Vector_18">
<path d="M11.2682 7.89187H11.837C11.837 7.89187 11.8448 7.81914 11.7773 7.77499C12.076 7.73343 11.9981 7.47368 12.2448 7.4581C12.2968 7.46589 12.115 7.56979 12.115 7.56979C12.115 7.56979 11.9669 7.67369 12.037 7.72823C12.089 7.77239 12.115 7.70226 12.1202 7.65031C12.128 7.59836 12.3617 7.56459 12.328 7.41654C12.2734 7.29446 11.9461 7.49966 11.9461 7.49966L11.7124 7.49706C11.6968 7.47109 11.6344 7.36719 11.5669 7.36719C11.489 7.36719 11.4318 7.49706 11.4318 7.49706H10.9046C10.9046 7.49706 10.8864 7.63472 11.1539 7.6607C11.2137 7.73862 11.2604 7.7594 11.315 7.78018C11.2786 7.80875 11.2682 7.84512 11.2682 7.89187ZM11.3098 7.77758H11.7825Z" fill="#FFC72C"/>
<path d="M11.3098 7.77758H11.7825M11.2682 7.89187H11.837C11.837 7.89187 11.8448 7.81914 11.7773 7.77499C12.076 7.73343 11.9981 7.47368 12.2448 7.4581C12.2968 7.46589 12.115 7.56979 12.115 7.56979C12.115 7.56979 11.9669 7.67369 12.037 7.72823C12.089 7.77239 12.115 7.70226 12.1202 7.65031C12.128 7.59836 12.3617 7.56459 12.328 7.41654C12.2734 7.29446 11.9461 7.49966 11.9461 7.49966L11.7124 7.49706C11.6968 7.47109 11.6344 7.36719 11.5669 7.36719C11.489 7.36719 11.4318 7.49706 11.4318 7.49706H10.9046C10.9046 7.49706 10.8864 7.63472 11.1539 7.6607C11.2137 7.73862 11.2604 7.7594 11.315 7.78018C11.2786 7.80875 11.2682 7.84512 11.2682 7.89187Z" stroke="black" stroke-width="0.664947"/>
</g>
<g id="Vector_19">
<path d="M11.0938 7.5C11.0938 7.5 11.1301 7.72078 11.3067 7.77273Z" fill="#FFC72C"/>
<path d="M11.0938 7.5C11.0938 7.5 11.1301 7.72078 11.3067 7.77273" stroke="black" stroke-width="0.664947"/>
</g>
<path id="Vector_20" d="M11.0654 7.49724C11.0809 7.41412 11.1147 7.39854 11.1485 7.28944C11.1537 7.18555 11.0654 7.19853 11.0913 7.1336C11.1381 7.05827 11.1147 6.98814 11.0264 6.93359C11.0446 7.0297 10.9121 7.12061 10.9121 7.19853C10.9121 7.27646 10.9796 7.26087 10.9719 7.38035C10.977 7.44789 10.9537 7.4323 10.9459 7.49724H11.0654Z" fill="url(#paint2_linear_186_15987)" stroke="black" stroke-width="0.664947"/>
<path id="Vector_21" d="M11.6341 6.97378C11.6341 6.99169 11.627 7.00887 11.6143 7.02154C11.6016 7.0342 11.5845 7.04132 11.5666 7.04132C11.5486 7.04132 11.5315 7.0342 11.5188 7.02154C11.5061 7.00887 11.499 6.99169 11.499 6.97378C11.499 6.95587 11.5061 6.9387 11.5188 6.92603C11.5315 6.91337 11.5486 6.90625 11.5666 6.90625C11.5845 6.90625 11.6016 6.91337 11.6143 6.92603C11.627 6.9387 11.6341 6.95587 11.6341 6.97378Z" fill="#FFC72C" stroke="black" stroke-width="0.664947"/>
</g>
<g id="vg-b_4">
<path id="Vector_22" d="M11.8936 8.63923L12.2572 8.10156L12.6286 8.64183" stroke="#FFC72C" stroke-width="1.40378"/>
<path id="Vector_23" d="M12.333 8.43601C12.333 8.4553 12.3253 8.4738 12.3117 8.48744C12.298 8.50108 12.2795 8.50874 12.2602 8.50874C12.2409 8.50874 12.2224 8.50108 12.2088 8.48744C12.1952 8.4738 12.1875 8.4553 12.1875 8.43601C12.1875 8.41672 12.1952 8.39822 12.2088 8.38458C12.2224 8.37094 12.2409 8.36328 12.2602 8.36328C12.2795 8.36328 12.298 8.37094 12.3117 8.38458C12.3253 8.39822 12.333 8.41672 12.333 8.43601Z" fill="#FFC72C" stroke="black" stroke-width="0.664947"/>
<g id="Vector_24">
<path d="M11.9616 9.0364H12.5304C12.5304 9.0364 12.5382 8.96368 12.4707 8.91952C12.7694 8.87796 12.6914 8.61821 12.9382 8.60263C12.9901 8.61042 12.8083 8.71432 12.8083 8.71432C12.8083 8.71432 12.6603 8.81822 12.7304 8.87276C12.7824 8.91692 12.8083 8.84679 12.8135 8.79484C12.8213 8.74289 13.0551 8.70913 13.0213 8.56107C12.9668 8.43899 12.6395 8.64419 12.6395 8.64419L12.4057 8.64159C12.3901 8.61562 12.3278 8.51172 12.2603 8.51172C12.1823 8.51172 12.1252 8.64159 12.1252 8.64159H11.5979C11.5979 8.64159 11.5797 8.77926 11.8473 8.80523C11.907 8.88315 11.9538 8.90393 12.0083 8.92471C11.9719 8.95329 11.9616 8.98965 11.9616 9.0364ZM12.0031 8.92212H12.4759Z" fill="#FFC72C"/>
<path d="M12.0031 8.92212H12.4759M11.9616 9.0364H12.5304C12.5304 9.0364 12.5382 8.96368 12.4707 8.91952C12.7694 8.87796 12.6914 8.61821 12.9382 8.60263C12.9901 8.61042 12.8083 8.71432 12.8083 8.71432C12.8083 8.71432 12.6603 8.81822 12.7304 8.87276C12.7824 8.91692 12.8083 8.84679 12.8135 8.79484C12.8213 8.74289 13.0551 8.70913 13.0213 8.56107C12.9668 8.43899 12.6395 8.64419 12.6395 8.64419L12.4057 8.64159C12.3901 8.61562 12.3278 8.51172 12.2603 8.51172C12.1823 8.51172 12.1252 8.64159 12.1252 8.64159H11.5979C11.5979 8.64159 11.5797 8.77926 11.8473 8.80523C11.907 8.88315 11.9538 8.90393 12.0083 8.92471C11.9719 8.95329 11.9616 8.98965 11.9616 9.0364Z" stroke="black" stroke-width="0.664947"/>
</g>
<g id="Vector_25">
<path d="M11.7871 8.64453C11.7871 8.64453 11.8235 8.86531 12.0001 8.91726Z" fill="#FFC72C"/>
<path d="M11.7871 8.64453C11.7871 8.64453 11.8235 8.86531 12.0001 8.91726" stroke="black" stroke-width="0.664947"/>
</g>
<path id="Vector_26" d="M11.7587 8.64177C11.7743 8.55865 11.8081 8.54307 11.8418 8.43398C11.847 8.33008 11.7587 8.34306 11.7847 8.27813C11.8314 8.2028 11.8081 8.13267 11.7198 8.07812C11.7379 8.17423 11.6055 8.26514 11.6055 8.34306C11.6055 8.42099 11.673 8.4054 11.6652 8.52489C11.6704 8.59242 11.647 8.57684 11.6392 8.64177H11.7587Z" fill="url(#paint3_linear_186_15987)" stroke="black" stroke-width="0.664947"/>
<path id="Vector_27" d="M12.3275 8.11831C12.3275 8.13623 12.3203 8.1534 12.3077 8.16607C12.295 8.17873 12.2778 8.18585 12.2599 8.18585C12.242 8.18585 12.2248 8.17873 12.2122 8.16607C12.1995 8.1534 12.1924 8.13623 12.1924 8.11831C12.1924 8.1004 12.1995 8.08323 12.2122 8.07056C12.2248 8.0579 12.242 8.05078 12.2599 8.05078C12.2778 8.05078 12.295 8.0579 12.3077 8.07056C12.3203 8.08323 12.3275 8.1004 12.3275 8.11831Z" fill="#FFC72C" stroke="black" stroke-width="0.664947"/>
</g>
<g id="vg-b_5">
<path id="Vector_28" d="M11.1094 9.57673L11.473 9.03906L11.8445 9.57933" stroke="#FFC72C" stroke-width="1.40378"/>
<path id="Vector_29" d="M11.5488 9.37351C11.5488 9.3928 11.5411 9.4113 11.5275 9.42494C11.5138 9.43858 11.4953 9.44624 11.4761 9.44624C11.4568 9.44624 11.4383 9.43858 11.4246 9.42494C11.411 9.4113 11.4033 9.3928 11.4033 9.37351C11.4033 9.35422 11.411 9.33572 11.4246 9.32208C11.4383 9.30844 11.4568 9.30078 11.4761 9.30078C11.4953 9.30078 11.5138 9.30844 11.5275 9.32208C11.5411 9.33572 11.5488 9.35422 11.5488 9.37351Z" fill="#FFC72C" stroke="black" stroke-width="0.664947"/>
<g id="Vector_30">
<path d="M11.1774 9.9739H11.7462C11.7462 9.9739 11.754 9.90118 11.6865 9.85702C11.9852 9.81546 11.9073 9.55571 12.154 9.54013C12.206 9.54792 12.0241 9.65182 12.0241 9.65182C12.0241 9.65182 11.8761 9.75572 11.9462 9.81026C11.9982 9.85442 12.0241 9.78429 12.0293 9.73234C12.0371 9.68039 12.2709 9.64663 12.2371 9.49857C12.1826 9.37649 11.8553 9.58169 11.8553 9.58169L11.6215 9.57909C11.606 9.55312 11.5436 9.44922 11.4761 9.44922C11.3982 9.44922 11.341 9.57909 11.341 9.57909H10.8137C10.8137 9.57909 10.7956 9.71676 11.0631 9.74273C11.1228 9.82065 11.1696 9.84143 11.2241 9.86221C11.1878 9.89079 11.1774 9.92715 11.1774 9.9739ZM11.2189 9.85962H11.6917Z" fill="#FFC72C"/>
<path d="M11.2189 9.85962H11.6917M11.1774 9.9739H11.7462C11.7462 9.9739 11.754 9.90118 11.6865 9.85702C11.9852 9.81546 11.9073 9.55571 12.154 9.54013C12.206 9.54792 12.0241 9.65182 12.0241 9.65182C12.0241 9.65182 11.8761 9.75572 11.9462 9.81026C11.9982 9.85442 12.0241 9.78429 12.0293 9.73234C12.0371 9.68039 12.2709 9.64663 12.2371 9.49857C12.1826 9.37649 11.8553 9.58169 11.8553 9.58169L11.6215 9.57909C11.606 9.55312 11.5436 9.44922 11.4761 9.44922C11.3982 9.44922 11.341 9.57909 11.341 9.57909H10.8137C10.8137 9.57909 10.7956 9.71676 11.0631 9.74273C11.1228 9.82065 11.1696 9.84143 11.2241 9.86221C11.1878 9.89079 11.1774 9.92715 11.1774 9.9739Z" stroke="black" stroke-width="0.664947"/>
</g>
<g id="Vector_31">
<path d="M11.0029 9.58203C11.0029 9.58203 11.0393 9.80281 11.2159 9.85476Z" fill="#FFC72C"/>
<path d="M11.0029 9.58203C11.0029 9.58203 11.0393 9.80281 11.2159 9.85476" stroke="black" stroke-width="0.664947"/>
</g>
<path id="Vector_32" d="M10.9745 9.57927C10.9901 9.49615 11.0239 9.48057 11.0577 9.37148C11.0629 9.26758 10.9745 9.28056 11.0005 9.21563C11.0473 9.1403 11.0239 9.07017 10.9356 9.01562C10.9538 9.11173 10.8213 9.20264 10.8213 9.28056C10.8213 9.35849 10.8888 9.3429 10.881 9.46239C10.8862 9.52992 10.8628 9.51434 10.8551 9.57927H10.9745Z" fill="url(#paint4_linear_186_15987)" stroke="black" stroke-width="0.664947"/>
<path id="Vector_33" d="M11.5433 9.05581C11.5433 9.07373 11.5362 9.0909 11.5235 9.10357C11.5108 9.11623 11.4936 9.12335 11.4757 9.12335C11.4578 9.12335 11.4406 9.11623 11.428 9.10357C11.4153 9.0909 11.4082 9.07373 11.4082 9.05581C11.4082 9.0379 11.4153 9.02073 11.428 9.00806C11.4406 8.9954 11.4578 8.98828 11.4757 8.98828C11.4936 8.98828 11.5108 8.9954 11.5235 9.00806C11.5362 9.02073 11.5433 9.0379 11.5433 9.05581Z" fill="#FFC72C" stroke="black" stroke-width="0.664947"/>
</g>
<g id="vg-b_6">
<path id="Vector_34" d="M11.1299 10.6822L11.4935 10.1445L11.865 10.6848" stroke="#FFC72C" stroke-width="1.40378"/>
<path id="Vector_35" d="M11.5693 10.479C11.5693 10.4983 11.5616 10.5168 11.548 10.5304C11.5343 10.544 11.5158 10.5517 11.4966 10.5517C11.4773 10.5517 11.4588 10.544 11.4451 10.5304C11.4315 10.5168 11.4238 10.4983 11.4238 10.479C11.4238 10.4597 11.4315 10.4412 11.4451 10.4276C11.4588 10.4139 11.4773 10.4062 11.4966 10.4062C11.5158 10.4062 11.5343 10.4139 11.548 10.4276C11.5616 10.4412 11.5693 10.4597 11.5693 10.479Z" fill="#FFC72C" stroke="black" stroke-width="0.664947"/>
<g id="Vector_36">
<path d="M11.1979 11.0794H11.7667C11.7667 11.0794 11.7745 11.0066 11.707 10.9625C12.0057 10.9209 11.9278 10.6612 12.1745 10.6456C12.2265 10.6534 12.0447 10.7573 12.0447 10.7573C12.0447 10.7573 11.8966 10.8612 11.9667 10.9157C12.0187 10.9599 12.0447 10.8898 12.0499 10.8378C12.0576 10.7859 12.2914 10.7521 12.2576 10.604C12.2031 10.482 11.8758 10.6872 11.8758 10.6872L11.6421 10.6846C11.6265 10.6586 11.5641 10.5547 11.4966 10.5547C11.4187 10.5547 11.3615 10.6846 11.3615 10.6846H10.8342C10.8342 10.6846 10.8161 10.8222 11.0836 10.8482C11.1433 10.9261 11.1901 10.9469 11.2446 10.9677C11.2083 10.9963 11.1979 11.0326 11.1979 11.0794ZM11.2394 10.9651H11.7122Z" fill="#FFC72C"/>
<path d="M11.2394 10.9651H11.7122M11.1979 11.0794H11.7667C11.7667 11.0794 11.7745 11.0066 11.707 10.9625C12.0057 10.9209 11.9278 10.6612 12.1745 10.6456C12.2265 10.6534 12.0447 10.7573 12.0447 10.7573C12.0447 10.7573 11.8966 10.8612 11.9667 10.9157C12.0187 10.9599 12.0447 10.8898 12.0499 10.8378C12.0576 10.7859 12.2914 10.7521 12.2576 10.604C12.2031 10.482 11.8758 10.6872 11.8758 10.6872L11.6421 10.6846C11.6265 10.6586 11.5641 10.5547 11.4966 10.5547C11.4187 10.5547 11.3615 10.6846 11.3615 10.6846H10.8342C10.8342 10.6846 10.8161 10.8222 11.0836 10.8482C11.1433 10.9261 11.1901 10.9469 11.2446 10.9677C11.2083 10.9963 11.1979 11.0326 11.1979 11.0794Z" stroke="black" stroke-width="0.664947"/>
</g>
<g id="Vector_37">
<path d="M11.0234 10.6875C11.0234 10.6875 11.0598 10.9083 11.2364 10.9602Z" fill="#FFC72C"/>
<path d="M11.0234 10.6875C11.0234 10.6875 11.0598 10.9083 11.2364 10.9602" stroke="black" stroke-width="0.664947"/>
</g>
<path id="Vector_38" d="M10.995 10.6847C11.0106 10.6016 11.0444 10.586 11.0782 10.4769C11.0834 10.373 10.995 10.386 11.021 10.3211C11.0678 10.2458 11.0444 10.1756 10.9561 10.1211C10.9743 10.2172 10.8418 10.3081 10.8418 10.386C10.8418 10.464 10.9093 10.4484 10.9015 10.5679C10.9067 10.6354 10.8834 10.6198 10.8756 10.6847H10.995Z" fill="url(#paint5_linear_186_15987)" stroke="black" stroke-width="0.664947"/>
<path id="Vector_39" d="M11.5638 10.1613C11.5638 10.1792 11.5567 10.1964 11.544 10.209C11.5313 10.2217 11.5142 10.2288 11.4962 10.2288C11.4783 10.2288 11.4612 10.2217 11.4485 10.209C11.4358 10.1964 11.4287 10.1792 11.4287 10.1613C11.4287 10.1434 11.4358 10.1262 11.4485 10.1135C11.4612 10.1009 11.4783 10.0938 11.4962 10.0938C11.5142 10.0938 11.5313 10.1009 11.544 10.1135C11.5567 10.1262 11.5638 10.1434 11.5638 10.1613Z" fill="#FFC72C" stroke="black" stroke-width="0.664947"/>
</g>
<g id="vg-b_7">
<path id="Vector_40" d="M15.0283 5.38142L15.392 4.84375L15.7634 5.38402" stroke="#FFC72C" stroke-width="1.40378"/>
<path id="Vector_41" d="M15.4677 5.1782C15.4677 5.19749 15.4601 5.21599 15.4464 5.22962C15.4328 5.24326 15.4143 5.25093 15.395 5.25093C15.3757 5.25093 15.3572 5.24326 15.3436 5.22962C15.3299 5.21599 15.3223 5.19749 15.3223 5.1782C15.3223 5.15891 15.3299 5.14041 15.3436 5.12677C15.3572 5.11313 15.3757 5.10547 15.395 5.10547C15.4143 5.10547 15.4328 5.11313 15.4464 5.12677C15.4601 5.14041 15.4677 5.15891 15.4677 5.1782Z" fill="#FFC72C" stroke="black" stroke-width="0.664947"/>
<g id="Vector_42">
<path d="M15.0963 5.77859H15.6652C15.6652 5.77859 15.673 5.70586 15.6054 5.66171C15.9041 5.62015 15.8262 5.3604 16.073 5.34482C16.1249 5.35261 15.9431 5.45651 15.9431 5.45651C15.9431 5.45651 15.795 5.56041 15.8652 5.61495C15.9171 5.65911 15.9431 5.58898 15.9483 5.53703C15.9561 5.48508 16.1899 5.45131 16.1561 5.30326C16.1015 5.18118 15.7743 5.38638 15.7743 5.38638L15.5405 5.38378C15.5249 5.3578 15.4626 5.25391 15.395 5.25391C15.3171 5.25391 15.26 5.38378 15.26 5.38378H14.7327C14.7327 5.38378 14.7145 5.52144 14.982 5.54742C15.0418 5.62534 15.0885 5.64612 15.1431 5.6669C15.1067 5.69547 15.0963 5.73184 15.0963 5.77859ZM15.1379 5.6643H15.6106Z" fill="#FFC72C"/>
<path d="M15.1379 5.6643H15.6106M15.0963 5.77859H15.6652C15.6652 5.77859 15.673 5.70586 15.6054 5.66171C15.9041 5.62015 15.8262 5.3604 16.073 5.34482C16.1249 5.35261 15.9431 5.45651 15.9431 5.45651C15.9431 5.45651 15.795 5.56041 15.8652 5.61495C15.9171 5.65911 15.9431 5.58898 15.9483 5.53703C15.9561 5.48508 16.1899 5.45131 16.1561 5.30326C16.1015 5.18118 15.7743 5.38638 15.7743 5.38638L15.5405 5.38378C15.5249 5.3578 15.4626 5.25391 15.395 5.25391C15.3171 5.25391 15.26 5.38378 15.26 5.38378H14.7327C14.7327 5.38378 14.7145 5.52144 14.982 5.54742C15.0418 5.62534 15.0885 5.64612 15.1431 5.6669C15.1067 5.69547 15.0963 5.73184 15.0963 5.77859Z" stroke="black" stroke-width="0.664947"/>
</g>
<g id="Vector_43">
<path d="M14.9219 5.38672C14.9219 5.38672 14.9582 5.6075 15.1349 5.65945Z" fill="#FFC72C"/>
<path d="M14.9219 5.38672C14.9219 5.38672 14.9582 5.6075 15.1349 5.65945" stroke="black" stroke-width="0.664947"/>
</g>
<path id="Vector_44" d="M14.8935 5.38396C14.9091 5.30084 14.9428 5.28526 14.9766 5.17616C14.9818 5.07226 14.8935 5.08525 14.9195 5.02032C14.9662 4.94499 14.9428 4.87486 14.8545 4.82031C14.8727 4.91642 14.7402 5.00733 14.7402 5.08525C14.7402 5.16318 14.8078 5.14759 14.8 5.26707C14.8052 5.33461 14.7818 5.31902 14.774 5.38396H14.8935Z" fill="url(#paint6_linear_186_15987)" stroke="black" stroke-width="0.664947"/>
<path id="Vector_45" d="M15.4622 4.8605C15.4622 4.87841 15.4551 4.89559 15.4424 4.90826C15.4298 4.92092 15.4126 4.92804 15.3947 4.92804C15.3768 4.92804 15.3596 4.92092 15.3469 4.90826C15.3343 4.89559 15.3271 4.87841 15.3271 4.8605C15.3271 4.84259 15.3343 4.82541 15.3469 4.81275C15.3596 4.80008 15.3768 4.79297 15.3947 4.79297C15.4126 4.79297 15.4298 4.80008 15.4424 4.81275C15.4551 4.82541 15.4622 4.84259 15.4622 4.8605Z" fill="#FFC72C" stroke="black" stroke-width="0.664947"/>
</g>
<g id="vg-b_8">
<path id="Vector_46" d="M14.9922 6.4322L15.3558 5.89453L15.7273 6.4348" stroke="#FFC72C" stroke-width="1.40378"/>
<path id="Vector_47" d="M15.4316 6.22898C15.4316 6.24827 15.4239 6.26677 15.4103 6.28041C15.3966 6.29404 15.3782 6.30171 15.3589 6.30171C15.3396 6.30171 15.3211 6.29404 15.3074 6.28041C15.2938 6.26677 15.2861 6.24827 15.2861 6.22898C15.2861 6.20969 15.2938 6.19119 15.3074 6.17755C15.3211 6.16391 15.3396 6.15625 15.3589 6.15625C15.3782 6.15625 15.3966 6.16391 15.4103 6.17755C15.4239 6.19119 15.4316 6.20969 15.4316 6.22898Z" fill="#FFC72C" stroke="black" stroke-width="0.664947"/>
<g id="Vector_48">
<path d="M15.0602 6.82937H15.629C15.629 6.82937 15.6368 6.75664 15.5693 6.71249C15.868 6.67093 15.7901 6.41118 16.0368 6.3956C16.0888 6.40339 15.907 6.50729 15.907 6.50729C15.907 6.50729 15.7589 6.61119 15.829 6.66573C15.881 6.70989 15.907 6.63976 15.9122 6.58781C15.9199 6.53586 16.1537 6.50209 16.12 6.35404C16.0654 6.23196 15.7381 6.43716 15.7381 6.43716L15.5044 6.43456C15.4888 6.40859 15.4264 6.30469 15.3589 6.30469C15.281 6.30469 15.2238 6.43456 15.2238 6.43456H14.6965C14.6965 6.43456 14.6784 6.57222 14.9459 6.5982C15.0056 6.67612 15.0524 6.6969 15.1069 6.71768C15.0706 6.74625 15.0602 6.78262 15.0602 6.82937ZM15.1018 6.71508H15.5745Z" fill="#FFC72C"/>
<path d="M15.1018 6.71508H15.5745M15.0602 6.82937H15.629C15.629 6.82937 15.6368 6.75664 15.5693 6.71249C15.868 6.67093 15.7901 6.41118 16.0368 6.3956C16.0888 6.40339 15.907 6.50729 15.907 6.50729C15.907 6.50729 15.7589 6.61119 15.829 6.66573C15.881 6.70989 15.907 6.63976 15.9122 6.58781C15.9199 6.53586 16.1537 6.50209 16.12 6.35404C16.0654 6.23196 15.7381 6.43716 15.7381 6.43716L15.5044 6.43456C15.4888 6.40859 15.4264 6.30469 15.3589 6.30469C15.281 6.30469 15.2238 6.43456 15.2238 6.43456H14.6965C14.6965 6.43456 14.6784 6.57222 14.9459 6.5982C15.0056 6.67612 15.0524 6.6969 15.1069 6.71768C15.0706 6.74625 15.0602 6.78262 15.0602 6.82937Z" stroke="black" stroke-width="0.664947"/>
</g>
<g id="Vector_49">
<path d="M14.8857 6.4375C14.8857 6.4375 14.9221 6.65828 15.0987 6.71023Z" fill="#FFC72C"/>
<path d="M14.8857 6.4375C14.8857 6.4375 14.9221 6.65828 15.0987 6.71023" stroke="black" stroke-width="0.664947"/>
</g>
<path id="Vector_50" d="M14.8574 6.43474C14.8729 6.35162 14.9067 6.33604 14.9405 6.22694C14.9457 6.12305 14.8574 6.13603 14.8833 6.0711C14.9301 5.99577 14.9067 5.92564 14.8184 5.87109C14.8366 5.9672 14.7041 6.05811 14.7041 6.13603C14.7041 6.21396 14.7716 6.19837 14.7638 6.31785C14.769 6.38539 14.7457 6.3698 14.7379 6.43474H14.8574Z" fill="url(#paint7_linear_186_15987)" stroke="black" stroke-width="0.664947"/>
<path id="Vector_51" d="M15.4261 5.91128C15.4261 5.92919 15.419 5.94637 15.4063 5.95904C15.3936 5.9717 15.3765 5.97882 15.3586 5.97882C15.3406 5.97882 15.3235 5.9717 15.3108 5.95904C15.2981 5.94637 15.291 5.92919 15.291 5.91128C15.291 5.89337 15.2981 5.8762 15.3108 5.86353C15.3235 5.85087 15.3406 5.84375 15.3586 5.84375C15.3765 5.84375 15.3936 5.85087 15.4063 5.86353C15.419 5.8762 15.4261 5.89337 15.4261 5.91128Z" fill="#FFC72C" stroke="black" stroke-width="0.664947"/>
</g>
<g id="vg-b_9">
<path id="Vector_52" d="M14.9453 7.51033L15.309 6.97266L15.6804 7.51293" stroke="#FFC72C" stroke-width="1.40378"/>
<path id="Vector_53" d="M15.3847 7.3071C15.3847 7.32639 15.3771 7.34489 15.3634 7.35853C15.3498 7.37217 15.3313 7.37983 15.312 7.37983C15.2927 7.37983 15.2742 7.37217 15.2606 7.35853C15.2469 7.34489 15.2393 7.32639 15.2393 7.3071C15.2393 7.28781 15.2469 7.26932 15.2606 7.25568C15.2742 7.24204 15.2927 7.23438 15.312 7.23438C15.3313 7.23438 15.3498 7.24204 15.3634 7.25568C15.3771 7.26932 15.3847 7.28781 15.3847 7.3071Z" fill="#FFC72C" stroke="black" stroke-width="0.664947"/>
<g id="Vector_54">
<path d="M15.0133 7.9075H15.5822C15.5822 7.9075 15.59 7.83477 15.5224 7.79061C15.8211 7.74905 15.7432 7.48931 15.99 7.47372C16.0419 7.48152 15.8601 7.58541 15.8601 7.58541C15.8601 7.58541 15.712 7.68931 15.7822 7.74386C15.8341 7.78801 15.8601 7.71788 15.8653 7.66593C15.8731 7.61399 16.1068 7.58022 16.0731 7.43216C16.0185 7.31008 15.6913 7.51528 15.6913 7.51528L15.4575 7.51268C15.4419 7.48671 15.3796 7.38281 15.312 7.38281C15.2341 7.38281 15.177 7.51268 15.177 7.51268H14.6497C14.6497 7.51268 14.6315 7.65035 14.899 7.67632C14.9588 7.75425 15.0055 7.77503 15.0601 7.79581C15.0237 7.82438 15.0133 7.86074 15.0133 7.9075ZM15.0549 7.79321H15.5276Z" fill="#FFC72C"/>
<path d="M15.0549 7.79321H15.5276M15.0133 7.9075H15.5822C15.5822 7.9075 15.59 7.83477 15.5224 7.79061C15.8211 7.74905 15.7432 7.48931 15.99 7.47372C16.0419 7.48152 15.8601 7.58541 15.8601 7.58541C15.8601 7.58541 15.712 7.68931 15.7822 7.74386C15.8341 7.78801 15.8601 7.71788 15.8653 7.66593C15.8731 7.61399 16.1068 7.58022 16.0731 7.43216C16.0185 7.31008 15.6913 7.51528 15.6913 7.51528L15.4575 7.51268C15.4419 7.48671 15.3796 7.38281 15.312 7.38281C15.2341 7.38281 15.177 7.51268 15.177 7.51268H14.6497C14.6497 7.51268 14.6315 7.65035 14.899 7.67632C14.9588 7.75425 15.0055 7.77503 15.0601 7.79581C15.0237 7.82438 15.0133 7.86074 15.0133 7.9075Z" stroke="black" stroke-width="0.664947"/>
</g>
<g id="Vector_55">
<path d="M14.8389 7.51562C14.8389 7.51562 14.8752 7.73641 15.0519 7.78836Z" fill="#FFC72C"/>
<path d="M14.8389 7.51562C14.8389 7.51562 14.8752 7.73641 15.0519 7.78836" stroke="black" stroke-width="0.664947"/>
</g>
<path id="Vector_56" d="M14.8105 7.51287C14.8261 7.42975 14.8598 7.41416 14.8936 7.30507C14.8988 7.20117 14.8105 7.21416 14.8364 7.14922C14.8832 7.0739 14.8598 7.00377 14.7715 6.94922C14.7897 7.04532 14.6572 7.13624 14.6572 7.21416C14.6572 7.29208 14.7248 7.2765 14.717 7.39598C14.7222 7.46351 14.6988 7.44793 14.691 7.51287H14.8105Z" fill="url(#paint8_linear_186_15987)" stroke="black" stroke-width="0.664947"/>
<path id="Vector_57" d="M15.3792 6.98941C15.3792 7.00732 15.3721 7.0245 15.3594 7.03716C15.3468 7.04983 15.3296 7.05694 15.3117 7.05694C15.2938 7.05694 15.2766 7.04983 15.2639 7.03716C15.2513 7.0245 15.2441 7.00732 15.2441 6.98941C15.2441 6.9715 15.2513 6.95432 15.2639 6.94166C15.2766 6.92899 15.2938 6.92188 15.3117 6.92188C15.3296 6.92188 15.3468 6.92899 15.3594 6.94166C15.3721 6.95432 15.3792 6.9715 15.3792 6.98941Z" fill="#FFC72C" stroke="black" stroke-width="0.664947"/>
</g>
<g id="vg-b_10">
<path id="Vector_58" d="M15 8.56892L15.3636 8.03125L15.7351 8.57152" stroke="#FFC72C" stroke-width="1.40378"/>
<path id="Vector_59" d="M15.4394 8.3657C15.4394 8.38499 15.4317 8.40349 15.4181 8.41712C15.4045 8.43076 15.386 8.43843 15.3667 8.43843C15.3474 8.43843 15.3289 8.43076 15.3152 8.41712C15.3016 8.40349 15.2939 8.38499 15.2939 8.3657C15.2939 8.34641 15.3016 8.32791 15.3152 8.31427C15.3289 8.30063 15.3474 8.29297 15.3667 8.29297C15.386 8.29297 15.4045 8.30063 15.4181 8.31427C15.4317 8.32791 15.4394 8.34641 15.4394 8.3657Z" fill="#FFC72C" stroke="black" stroke-width="0.664947"/>
<g id="Vector_60">
<path d="M15.068 8.96609H15.6368C15.6368 8.96609 15.6446 8.89336 15.5771 8.84921C15.8758 8.80765 15.7979 8.5479 16.0446 8.53232C16.0966 8.54011 15.9148 8.64401 15.9148 8.64401C15.9148 8.64401 15.7667 8.74791 15.8368 8.80245C15.8888 8.84661 15.9148 8.77648 15.92 8.72453C15.9278 8.67258 16.1615 8.63881 16.1278 8.49076C16.0732 8.36868 15.7459 8.57388 15.7459 8.57388L15.5122 8.57128C15.4966 8.5453 15.4342 8.44141 15.3667 8.44141C15.2888 8.44141 15.2316 8.57128 15.2316 8.57128H14.7044C14.7044 8.57128 14.6862 8.70894 14.9537 8.73492C15.0135 8.81284 15.0602 8.83362 15.1148 8.8544C15.0784 8.88297 15.068 8.91934 15.068 8.96609ZM15.1096 8.8518H15.5823Z" fill="#FFC72C"/>
<path d="M15.1096 8.8518H15.5823M15.068 8.96609H15.6368C15.6368 8.96609 15.6446 8.89336 15.5771 8.84921C15.8758 8.80765 15.7979 8.5479 16.0446 8.53232C16.0966 8.54011 15.9148 8.64401 15.9148 8.64401C15.9148 8.64401 15.7667 8.74791 15.8368 8.80245C15.8888 8.84661 15.9148 8.77648 15.92 8.72453C15.9278 8.67258 16.1615 8.63881 16.1278 8.49076C16.0732 8.36868 15.7459 8.57388 15.7459 8.57388L15.5122 8.57128C15.4966 8.5453 15.4342 8.44141 15.3667 8.44141C15.2888 8.44141 15.2316 8.57128 15.2316 8.57128H14.7044C14.7044 8.57128 14.6862 8.70894 14.9537 8.73492C15.0135 8.81284 15.0602 8.83362 15.1148 8.8544C15.0784 8.88297 15.068 8.91934 15.068 8.96609Z" stroke="black" stroke-width="0.664947"/>
</g>
<g id="Vector_61">
<path d="M14.8936 8.57422C14.8936 8.57422 14.9299 8.795 15.1065 8.84695Z" fill="#FFC72C"/>
<path d="M14.8936 8.57422C14.8936 8.57422 14.9299 8.795 15.1065 8.84695" stroke="black" stroke-width="0.664947"/>
</g>
<path id="Vector_62" d="M14.8652 8.57146C14.8807 8.48834 14.9145 8.47276 14.9483 8.36366C14.9535 8.25976 14.8652 8.27275 14.8911 8.20782C14.9379 8.13249 14.9145 8.06236 14.8262 8.00781C14.8444 8.10392 14.7119 8.19483 14.7119 8.27275C14.7119 8.35068 14.7794 8.33509 14.7717 8.45457C14.7768 8.52211 14.7535 8.50652 14.7457 8.57146H14.8652Z" fill="url(#paint9_linear_186_15987)" stroke="black" stroke-width="0.664947"/>
<path id="Vector_63" d="M15.4339 8.048C15.4339 8.06591 15.4268 8.08309 15.4141 8.09576C15.4015 8.10842 15.3843 8.11554 15.3664 8.11554C15.3485 8.11554 15.3313 8.10842 15.3186 8.09576C15.3059 8.08309 15.2988 8.06591 15.2988 8.048C15.2988 8.03009 15.3059 8.01291 15.3186 8.00025C15.3313 7.98758 15.3485 7.98047 15.3664 7.98047C15.3843 7.98047 15.4015 7.98758 15.4141 8.00025C15.4268 8.01291 15.4339 8.03009 15.4339 8.048Z" fill="#FFC72C" stroke="black" stroke-width="0.664947"/>
</g>
<g id="vg-b_11">
<path id="Vector_64" d="M14.9873 9.62752L15.3509 9.08984L15.7224 9.63011" stroke="#FFC72C" stroke-width="1.40378"/>
<path id="Vector_65" d="M15.4267 9.42429C15.4267 9.44358 15.419 9.46208 15.4054 9.47572C15.3918 9.48936 15.3733 9.49702 15.354 9.49702C15.3347 9.49702 15.3162 9.48936 15.3026 9.47572C15.2889 9.46208 15.2813 9.44358 15.2812 9.42429C15.2813 9.405 15.2889 9.3865 15.3026 9.37286C15.3162 9.35922 15.3347 9.35156 15.354 9.35156C15.3733 9.35156 15.3918 9.35922 15.4054 9.37286C15.419 9.3865 15.4267 9.405 15.4267 9.42429Z" fill="#FFC72C" stroke="black" stroke-width="0.664947"/>
<g id="Vector_66">
<path d="M15.0553 10.0247H15.6242C15.6242 10.0247 15.6319 9.95196 15.5644 9.9078C15.8631 9.86624 15.7852 9.6065 16.0319 9.59091C16.0839 9.5987 15.9021 9.7026 15.9021 9.7026C15.9021 9.7026 15.754 9.8065 15.8242 9.86105C15.8761 9.9052 15.9021 9.83507 15.9073 9.78312C15.9151 9.73117 16.1488 9.69741 16.1151 9.54935C16.0605 9.42727 15.7332 9.63247 15.7332 9.63247L15.4995 9.62987C15.4839 9.6039 15.4215 9.5 15.354 9.5C15.2761 9.5 15.2189 9.62987 15.2189 9.62987H14.6917C14.6917 9.62987 14.6735 9.76754 14.941 9.79351C15.0008 9.87144 15.0475 9.89222 15.1021 9.91299C15.0657 9.94157 15.0553 9.97793 15.0553 10.0247ZM15.0969 9.9104H15.5696Z" fill="#FFC72C"/>
<path d="M15.0969 9.9104H15.5696M15.0553 10.0247H15.6242C15.6242 10.0247 15.6319 9.95196 15.5644 9.9078C15.8631 9.86624 15.7852 9.6065 16.0319 9.59091C16.0839 9.5987 15.9021 9.7026 15.9021 9.7026C15.9021 9.7026 15.754 9.8065 15.8242 9.86105C15.8761 9.9052 15.9021 9.83507 15.9073 9.78312C15.9151 9.73117 16.1488 9.69741 16.1151 9.54935C16.0605 9.42727 15.7332 9.63247 15.7332 9.63247L15.4995 9.62987C15.4839 9.6039 15.4215 9.5 15.354 9.5C15.2761 9.5 15.2189 9.62987 15.2189 9.62987H14.6917C14.6917 9.62987 14.6735 9.76754 14.941 9.79351C15.0008 9.87144 15.0475 9.89222 15.1021 9.91299C15.0657 9.94157 15.0553 9.97793 15.0553 10.0247Z" stroke="black" stroke-width="0.664947"/>
</g>
<g id="Vector_67">
<path d="M14.8809 9.63281C14.8809 9.63281 14.9172 9.8536 15.0939 9.90554Z" fill="#FFC72C"/>
<path d="M14.8809 9.63281C14.8809 9.63281 14.9172 9.8536 15.0939 9.90554" stroke="black" stroke-width="0.664947"/>
</g>
<path id="Vector_68" d="M14.8525 9.63005C14.8681 9.54693 14.9018 9.53135 14.9356 9.42226C14.9408 9.31836 14.8525 9.33135 14.8784 9.26641C14.9252 9.19108 14.9018 9.12095 14.8135 9.06641C14.8317 9.16251 14.6992 9.25342 14.6992 9.33135C14.6992 9.40927 14.7668 9.39368 14.759 9.51317C14.7642 9.5807 14.7408 9.56512 14.733 9.63005H14.8525Z" fill="url(#paint10_linear_186_15987)" stroke="black" stroke-width="0.664947"/>
<path id="Vector_69" d="M15.4212 9.1066C15.4212 9.12451 15.4141 9.14168 15.4014 9.15435C15.3888 9.16701 15.3716 9.17413 15.3537 9.17413C15.3358 9.17413 15.3186 9.16701 15.3059 9.15435C15.2932 9.14168 15.2861 9.12451 15.2861 9.1066C15.2861 9.08868 15.2932 9.07151 15.3059 9.05884C15.3186 9.04618 15.3358 9.03906 15.3537 9.03906C15.3716 9.03906 15.3888 9.04618 15.4014 9.05884C15.4141 9.07151 15.4212 9.08868 15.4212 9.1066Z" fill="#FFC72C" stroke="black" stroke-width="0.664947"/>
</g>
<g id="vg-b_12">
<path id="Vector_70" d="M14.9922 10.6939L15.3558 10.1562L15.7273 10.6965" stroke="#FFC72C" stroke-width="1.40378"/>
<path id="Vector_71" d="M15.4316 10.4907C15.4316 10.51 15.4239 10.5285 15.4103 10.5421C15.3966 10.5558 15.3782 10.5634 15.3589 10.5634C15.3396 10.5634 15.3211 10.5558 15.3074 10.5421C15.2938 10.5285 15.2861 10.51 15.2861 10.4907C15.2861 10.4714 15.2938 10.4529 15.3074 10.4393C15.3211 10.4256 15.3396 10.418 15.3589 10.418C15.3782 10.418 15.3966 10.4256 15.4103 10.4393C15.4239 10.4529 15.4316 10.4714 15.4316 10.4907Z" fill="#FFC72C" stroke="black" stroke-width="0.664947"/>
<g id="Vector_72">
<path d="M15.0602 11.0911H15.629C15.629 11.0911 15.6368 11.0184 15.5693 10.9742C15.868 10.9326 15.7901 10.6729 16.0368 10.6573C16.0888 10.6651 15.907 10.769 15.907 10.769C15.907 10.769 15.7589 10.8729 15.829 10.9275C15.881 10.9716 15.907 10.9015 15.9122 10.8495C15.9199 10.7976 16.1537 10.7638 16.12 10.6158C16.0654 10.4937 15.7381 10.6989 15.7381 10.6989L15.5044 10.6963C15.4888 10.6703 15.4264 10.5664 15.3589 10.5664C15.281 10.5664 15.2238 10.6963 15.2238 10.6963H14.6965C14.6965 10.6963 14.6784 10.8339 14.9459 10.8599C15.0056 10.9378 15.0524 10.9586 15.1069 10.9794C15.0706 11.008 15.0602 11.0443 15.0602 11.0911ZM15.1018 10.9768H15.5745Z" fill="#FFC72C"/>
<path d="M15.1018 10.9768H15.5745M15.0602 11.0911H15.629C15.629 11.0911 15.6368 11.0184 15.5693 10.9742C15.868 10.9326 15.7901 10.6729 16.0368 10.6573C16.0888 10.6651 15.907 10.769 15.907 10.769C15.907 10.769 15.7589 10.8729 15.829 10.9275C15.881 10.9716 15.907 10.9015 15.9122 10.8495C15.9199 10.7976 16.1537 10.7638 16.12 10.6158C16.0654 10.4937 15.7381 10.6989 15.7381 10.6989L15.5044 10.6963C15.4888 10.6703 15.4264 10.5664 15.3589 10.5664C15.281 10.5664 15.2238 10.6963 15.2238 10.6963H14.6965C14.6965 10.6963 14.6784 10.8339 14.9459 10.8599C15.0056 10.9378 15.0524 10.9586 15.1069 10.9794C15.0706 11.008 15.0602 11.0443 15.0602 11.0911Z" stroke="black" stroke-width="0.664947"/>
</g>
<g id="Vector_73">
<path d="M14.8857 10.6992C14.8857 10.6992 14.9221 10.92 15.0987 10.972Z" fill="#FFC72C"/>
<path d="M14.8857 10.6992C14.8857 10.6992 14.9221 10.92 15.0987 10.972" stroke="black" stroke-width="0.664947"/>
</g>
<path id="Vector_74" d="M14.8574 10.6965C14.8729 10.6133 14.9067 10.5978 14.9405 10.4887C14.9457 10.3848 14.8574 10.3978 14.8833 10.3328C14.9301 10.2575 14.9067 10.1874 14.8184 10.1328C14.8366 10.2289 14.7041 10.3198 14.7041 10.3978C14.7041 10.4757 14.7716 10.4601 14.7638 10.5796C14.769 10.6471 14.7457 10.6315 14.7379 10.6965H14.8574Z" fill="url(#paint11_linear_186_15987)" stroke="black" stroke-width="0.664947"/>
<path id="Vector_75" d="M15.4261 10.173C15.4261 10.1909 15.419 10.2081 15.4063 10.2208C15.3936 10.2334 15.3765 10.2405 15.3586 10.2405C15.3406 10.2405 15.3235 10.2334 15.3108 10.2208C15.2981 10.2081 15.291 10.1909 15.291 10.173C15.291 10.1551 15.2981 10.1379 15.3108 10.1252C15.3235 10.1126 15.3406 10.1055 15.3586 10.1055C15.3765 10.1055 15.3936 10.1126 15.4063 10.1252C15.419 10.1379 15.4261 10.1551 15.4261 10.173Z" fill="#FFC72C" stroke="black" stroke-width="0.664947"/>
</g>
<g id="Group_2">
<path id="Vector_76" d="M13.852 11.1983C13.852 11.1983 14.0001 11.5411 14.1689 11.3281C14.3378 11.1203 14.278 11.0294 14.278 11.0294L13.8988 10.8242L13.7871 11.058L13.852 11.1983Z" fill="#FFC72C" stroke="black" stroke-width="0.664947"/>
<path id="Vector_77" d="M14.1793 11.1533C14.1793 11.1533 14.2053 11.1559 14.2235 11.1195C14.2443 11.0832 14.1793 11.0676 14.1482 11.026L14.117 11.091L14.1793 11.1533ZM13.3222 11.0598L12.9897 11.2416C12.9897 11.2416 12.8235 11.2754 12.8131 11.2416C12.8001 11.2105 12.8157 11.1819 12.904 11.1767C12.9897 11.1741 13.2235 10.9585 13.2235 10.9585L13.3222 11.0624V11.0598ZM13.3274 5.14022L13.3378 5.2597C13.343 5.30126 13.2728 5.38958 13.2702 5.38438C13.265 5.37919 13.2313 5.38958 13.2365 5.41295C13.2391 5.43893 13.2884 5.44672 13.2884 5.44672C13.2884 5.44672 13.2702 5.53244 13.2884 5.53763C13.3092 5.54023 13.2365 5.64672 13.2884 5.6753C13.343 5.70387 13.4339 5.74283 13.4754 5.73504C13.517 5.72465 13.4754 5.89348 13.4754 5.89348L13.3585 6.14024L13.9923 6.0753L13.8625 5.86751C13.8625 5.86751 13.8001 5.82335 13.8157 5.70387C13.8339 5.58698 13.8079 5.04671 13.8079 5.04671L13.356 4.98438L13.3274 5.14022ZM13.2105 6.0805C13.2105 6.0805 13.0053 6.17401 13.0131 6.42856C12.9611 6.67531 12.9326 6.92207 12.9326 6.92207C12.9326 6.92207 12.6884 7.1974 12.6157 7.2987C12.5404 7.39741 12.4287 7.59741 12.3897 7.65196C12.3481 7.7039 12.1871 7.88053 12.1897 7.94806C12.1949 8.013 12.1533 8.30651 12.3144 8.33768C12.3559 8.35586 12.4884 8.00001 12.4884 8.00001C12.4884 8.00001 12.4962 7.84936 12.4494 7.81819C12.4053 7.79222 12.5481 7.69351 12.5481 7.69351L12.8858 7.44156C12.9482 7.38961 13.117 7.2026 13.117 7.2026L13.2105 6.0805Z" fill="#FFC6B5" stroke="black" stroke-width="0.664947"/>
<path id="Vector_78" d="M13.4465 5.88346C13.4465 5.88346 13.4984 6.02892 13.6179 6.00294C13.7374 5.97697 13.8777 5.86787 13.8777 5.86787C13.8777 5.86787 13.9894 5.86268 14.0049 5.88086C14.0205 5.89645 14.3062 6.17178 14.2959 6.25749C14.2881 6.34581 14.166 6.31983 14.1192 6.37697C14.0751 6.43412 13.9997 6.57958 14.0205 6.68867C14.0413 6.79257 14.1036 6.93283 14.0958 6.98738C14.0881 7.03932 14.0439 7.05751 14.0439 7.08608C14.0439 7.11205 14.0803 7.164 14.0803 7.21595C14.0803 7.2705 14.0283 7.34842 14.0387 7.40297C14.0465 7.45492 14.0491 7.61076 14.0491 7.61076L14.0387 8.33805C14.0387 8.33805 14.0803 8.36143 14.0829 8.40298C14.0881 8.44195 14.3634 9.63937 14.3634 9.63937C14.3634 9.63937 14.3504 9.67833 14.3218 9.67314C14.2933 9.66794 14.4335 9.85756 14.4361 9.9121C14.4413 9.96405 14.5816 10.3848 14.5764 10.442C14.5738 10.4991 14.5504 10.629 14.54 10.6316C14.527 10.6368 14.6309 10.8965 14.6127 10.9355C14.5972 10.9771 14.4309 10.9745 14.4309 10.9745L14.3842 10.9641C14.3842 10.9641 14.3868 11.0186 14.3556 11.0238C14.3218 11.0264 14.0803 11.0108 14.0803 11.0108C14.0803 11.0108 14.0101 11.1173 13.9686 11.1147C13.927 11.1095 13.8725 11.0368 13.8621 11.0472C13.8491 11.0602 13.8984 11.1303 13.8881 11.1511C13.8725 11.1719 13.6647 11.216 13.6231 11.1173C13.5816 11.0186 13.6491 11.0446 13.6335 11.0238C13.6231 11.003 13.5296 10.9485 13.4984 10.9641C13.4725 10.9823 13.5738 11.0056 13.5686 11.0472C13.566 11.0887 13.4777 11.1511 13.4465 11.1511C13.4127 11.1511 13.3348 10.9978 13.2179 11.0134C13.1036 11.0316 13.0309 11.0602 13.0309 11.0602C13.0309 11.0602 12.8932 11.1173 12.8361 11.1043C12.7789 11.0939 12.753 11.0472 12.753 11.0238C12.753 10.9978 12.7945 10.8913 12.7919 10.8576C12.7867 10.8264 12.753 10.7926 12.753 10.7433C12.753 10.6913 12.8491 10.5251 12.8491 10.5251L12.8439 9.76665C12.8439 9.76665 12.7582 9.76665 12.753 9.7147C12.7504 9.66275 12.8854 8.51727 12.9088 8.44195L12.9815 8.10428C12.9815 8.10428 12.9192 8.13545 12.914 8.10428C12.9114 8.0783 13.101 7.42375 13.101 7.42375C13.101 7.42375 13.1322 7.09647 13.1322 7.01075C13.1322 6.92504 13.1166 6.80555 13.1166 6.80555C13.1166 6.80555 12.9478 6.73283 12.9426 6.62373C12.927 6.4497 13.1036 6.3536 13.1244 6.29645L13.2075 6.06268C13.2075 6.06268 13.2984 5.90684 13.4465 5.88346Z" fill="white" stroke="black" stroke-width="0.664947"/>
<path id="Vector_79" d="M13.3846 11.1118C13.3846 11.1118 12.9846 11.3196 12.9274 11.3378C12.8703 11.3534 12.8339 11.2677 12.8911 11.2521C12.9482 11.2339 13.0391 11.2261 13.0391 11.2261C13.0391 11.2261 12.9041 11.1196 12.9092 11.1144L13.0963 11.0469C13.1015 11.0469 13.1534 11.1508 13.1898 11.1456C13.2414 11.1205 13.2901 11.0901 13.3352 11.0547L13.3846 11.1118Z" fill="#FFC72C" stroke="black" stroke-width="0.664947"/>
<path id="Vector_80" d="M13.9453 11.2251C13.9843 11.2745 13.9973 11.3576 14.0856 11.3082C14.1713 11.2589 14.0414 11.168 14.0414 11.168L13.9453 11.2251Z" fill="#FFC6B5" stroke="black" stroke-width="0.664947"/>
<path id="Vector_81" d="M14.1037 11.219C14.1037 11.219 14.1452 11.2528 14.1816 11.2138C14.218 11.1774 14.1089 11.0995 14.1089 11.0995L14.0543 11.1619L14.1037 11.219ZM14.2803 6.28125C14.2855 6.28125 14.4154 6.68645 14.4335 6.79035C14.4491 6.89425 14.5037 7.30465 14.4829 7.36179C14.4621 7.41893 14.2517 7.69426 14.2283 7.76439C14.2024 7.83452 14.0543 8.10206 14.0543 8.10206C14.0543 8.10206 14.0179 8.367 14.0024 8.37739C13.9842 8.39038 14.0439 8.45532 14.0387 8.47609C14.0309 8.50207 13.9192 8.61636 13.8699 8.60597C13.8179 8.59298 13.74 8.53584 13.74 8.48129C13.7322 8.42934 13.74 8.25012 13.779 8.20596C13.8153 8.15921 14.0102 7.70465 14.0205 7.67608C14.0335 7.64491 14.1972 7.28646 14.2024 7.22672C14.2076 7.16438 14.1504 7.02152 14.0933 6.96957C13.9634 6.58775 14.0153 6.35917 14.2803 6.28125Z" fill="#FFC6B5" stroke="black" stroke-width="0.664947"/>
<path id="Vector_82" d="M13.3115 5.11616C13.3115 5.11616 13.405 5.12914 13.4544 5.10057C13.5037 5.072 13.5609 5.05901 13.6024 5.11616C13.644 5.1733 13.6726 5.1681 13.6726 5.1681C13.6726 5.1681 13.6102 5.32395 13.6726 5.33954C13.7323 5.35512 13.7635 5.35512 13.7661 5.3759C13.7713 5.39668 13.7141 5.44084 13.7297 5.46162C13.7453 5.4824 13.7739 5.50577 13.7791 5.52396C13.7817 5.53954 13.7427 5.60967 13.7531 5.62785C13.7661 5.64344 13.805 5.70837 13.8284 5.70837C13.8544 5.70837 13.8362 5.81227 13.9115 5.7863C13.9843 5.76032 13.9817 5.69539 13.9817 5.69539C13.9817 5.69539 14.0596 5.685 14.0804 5.61487C14.0985 5.54473 14.1479 5.52655 14.1479 5.52655C14.1479 5.52655 14.2466 5.4746 14.1167 5.39149C14.1167 4.81485 13.7375 4.87719 13.7375 4.87719C13.7375 4.87719 13.6933 4.77329 13.618 4.78628C13.5453 4.79927 13.5401 4.88498 13.4881 4.87719C13.4336 4.8694 13.4206 4.83303 13.418 4.83563C13.4128 4.84083 13.3661 4.92394 13.3661 4.94213C13.3661 4.96291 13.2232 4.91615 13.2362 5.02005C13.2492 5.12914 13.3193 5.12395 13.3141 5.11616H13.3115Z" fill="#9C5100" stroke="black" stroke-width="0.664947"/>
<g id="Group_3">
<path id="Vector_83" d="M13.9824 6.04812C13.9824 6.04812 13.6161 6.28189 13.6239 6.36501M14.0655 6.08968C14.0655 6.08968 13.9824 6.18059 13.9772 6.18059M14.1746 6.18839C14.1746 6.18839 13.9928 6.33644 14.0214 6.42995M13.32 6.02734C13.32 6.02734 13.2655 6.13903 13.2785 6.1754C13.2889 6.21176 13.3824 6.35202 13.3928 6.43774C13.4058 6.52605 13.3928 6.5858 13.3928 6.5858M13.2239 6.23254C13.2239 6.23254 13.2395 6.36241 13.2655 6.38839C13.2915 6.41436 13.3564 6.52605 13.3642 6.57021M13.1902 6.7806C13.1902 6.7806 13.2993 6.83255 13.398 6.62735M13.5564 6.48449C13.5538 6.48449 13.4785 6.6845 13.611 6.75982C13.7408 6.83515 13.8421 6.82476 13.8967 6.80398C13.9564 6.7858 14.0188 6.74684 14.0188 6.74684M13.4993 6.73125C13.4993 6.73125 13.5071 7.00139 13.9071 7.26892M13.5174 6.9858C13.5174 6.9858 13.5123 7.22477 13.6681 7.33126M13.4343 6.70528C13.4343 6.70528 13.3148 7.06113 13.2187 7.0949M13.398 6.96502C13.398 6.96502 13.3928 7.21957 13.359 7.31048M13.3278 7.37282C13.3278 7.37282 13.4084 7.47672 13.4993 7.46633C13.5902 7.45854 13.6291 7.35204 13.6889 7.36763C13.7512 7.38581 13.8084 7.43516 13.9512 7.42217M13.746 7.52867C13.746 7.52867 13.746 7.73906 13.785 7.75984C13.8213 7.78062 13.8032 7.97283 13.8032 7.97283M13.2447 7.42997C13.2447 7.42997 13.2395 7.62737 13.2161 7.6975C13.1902 7.76763 13.1408 7.88712 13.1512 7.99102M12.9928 8.1053C13.0135 8.09751 13.0837 8.03517 13.0837 8.03517M13.12 8.07933C13.12 8.07933 12.9434 8.83778 12.9928 9.28974M13.1616 8.11829C13.1616 8.11829 13.0707 8.68453 13.1122 8.79363M13.1174 8.10011L13.4629 8.12608M13.5123 8.07933C13.5123 8.07933 13.6058 8.13128 13.7382 8.12089M13.4707 8.35726C13.4707 8.35726 13.4551 9.3261 13.4291 9.54169M13.9772 8.57804C13.9772 8.57804 14.0837 9.43 14.146 9.50793M13.772 8.68453C13.772 8.68453 13.8369 9.43779 13.8759 9.50533M12.8369 9.76767C12.8369 9.76767 12.9668 9.72611 13.0811 9.60403C13.2109 9.78066 13.4135 9.61182 13.4135 9.61182C13.4135 9.61182 13.7252 9.82481 13.8655 9.58585C14.0811 9.72611 14.1876 9.56507 14.1876 9.56507C14.1876 9.56507 14.2655 9.68455 14.3227 9.67157M13.9824 9.75468C13.9824 9.75468 14.1408 10.5079 14.3798 10.7209" stroke="black" stroke-width="0.664947"/>
<path id="Vector_84" d="M13.1564 9.67535C13.1564 9.67535 13.1746 10.3039 13.2109 10.7481M13.1252 10.387C13.1252 10.387 13.1044 10.7974 13.081 10.8286M12.8836 10.8676C12.8836 10.8676 12.9278 11.0468 13.1538 10.8806C13.3797 10.7169 13.3849 10.9429 13.3927 10.9663C13.4005 10.9923 13.4369 11.1689 13.5226 11.0208M13.7044 10.7793C13.7044 10.7793 13.6681 11.1429 13.9927 10.878C14.3174 10.6104 14.372 10.8728 14.3824 10.9559M13.7096 4.97656C13.7096 4.97656 13.6811 5.15838 13.8733 5.1402C13.8473 5.2415 13.9252 5.27267 13.9252 5.27267M14.0655 5.38436C14.0707 5.38436 14.1538 5.43631 14.0655 5.50384M13.7875 5.52722C13.7875 5.52722 13.8291 5.57917 13.8733 5.56618C13.92 5.5532 13.9927 5.61034 13.9927 5.61034C13.9927 5.61034 14.0551 5.63112 14.0629 5.61813M13.5356 5.68307C13.5356 5.68307 13.6759 5.73762 13.7694 5.51683M13.2784 5.4493L13.359 5.45449M12.3641 8.04675L12.3719 8.22597M12.1953 8.03116C12.1953 8.03116 12.3122 8.22597 12.2992 8.32727" stroke="black" stroke-width="0.664947"/>
<path id="Vector_85" d="M13.2891 5.53125H13.3644L13.2995 5.55982M13.7462 8.4352C13.7462 8.4352 13.8319 8.42481 13.8293 8.57027C13.8839 8.38844 13.9956 8.38585 13.9956 8.38585" stroke="black" stroke-width="0.664947" stroke-linejoin="round"/>
<path id="Vector_86" d="M13.3926 5.30073C13.4056 5.30073 13.4497 5.28515 13.4575 5.29814C13.4679 5.30853 13.4082 5.31892 13.3926 5.30073Z" stroke="black" stroke-width="1.25601" stroke-linejoin="round"/>
</g>
</g>
<g id="Group_4">
<path id="Vector_87" d="M13.4496 12.5529C14.5338 12.5015 15.5552 12.029 16.2964 11.236C16.286 11.2256 16.5276 10.8879 16.7198 10.9347C16.912 10.984 17.1899 11.5503 17.5276 11.6724C17.6964 11.9373 17.4808 12.1789 17.4081 12.2256C17.3354 12.275 17.0081 12.4074 16.9613 12.2152C16.912 12.0204 16.8159 12.0594 16.8159 12.0594C16.8159 12.0594 15.2704 13.5659 13.4859 13.5062C11.6418 13.5165 10.1196 12.0568 10.1196 12.0568L9.98718 12.2022C9.98718 12.2022 9.84172 12.3581 9.76899 12.3477C9.69626 12.3347 9.38197 12.1295 9.35859 11.9243C9.33262 11.7191 9.55081 11.5866 9.55081 11.5866C9.55081 11.5866 10.0833 11.1762 10.143 10.9607C10.2651 10.8386 10.4937 11.0438 10.4937 11.0438C10.4937 11.0438 11.8937 12.649 13.4496 12.5503V12.5529Z" fill="#FFC72C" stroke="black" stroke-width="1.40378"/>
<path id="Vector_88" d="M9.5166 11.6164C9.5166 11.6164 9.65946 11.5801 9.71141 11.6398C9.76336 11.6995 10.127 12.0554 10.127 12.0554" stroke="black" stroke-width="1.40378"/>
<path id="Vector_89" d="M9.84468 11.786L9.69922 11.8925C9.69922 11.8925 10.0629 11.9652 9.97974 12.2042M17.3981 11.6068C17.3981 11.6068 17.3279 11.5678 17.2162 11.6509C17.1019 11.7367 16.8188 12.0535 16.8188 12.0535" stroke="black" stroke-width="1.40378"/>
<path id="Vector_90" d="M17.0754 11.7773L17.2313 11.8968C17.2313 11.8968 16.9066 11.9202 16.9767 12.2267" stroke="black" stroke-width="1.40378"/>
</g>
<path id="Vector_91" d="M11.3564 12.0028C11.346 12.0288 11.32 12.0028 11.2993 12.008C11.2473 12.008 11.2006 12.0444 11.1538 12.0703L10.6759 12.3483C10.6603 12.3431 10.6629 12.3301 10.6681 12.3171L10.798 11.7197C10.8032 11.6859 10.8135 11.6418 10.7798 11.6158C10.7668 11.6054 10.7876 11.5872 10.798 11.6054L11.0421 11.7794C11.0343 11.8028 11.0187 11.7846 11.0058 11.7768C10.972 11.7431 10.9304 11.7742 10.933 11.8158L10.8447 12.208C10.9538 12.1457 11.0629 12.0833 11.172 12.0158C11.2084 12.0002 11.2369 11.9483 11.198 11.9171C11.1824 11.9067 11.1564 11.8833 11.1824 11.8781L11.3564 12.0028ZM11.5278 12.834C11.5226 12.8496 11.5149 12.8522 11.5019 12.8418L11.2161 12.6859C11.2187 12.6678 11.2265 12.6652 11.2395 12.6755C11.2655 12.6937 11.3071 12.7015 11.3278 12.6704L11.4317 12.4807L11.5772 12.2158C11.598 12.182 11.5746 12.1431 11.5434 12.1301C11.533 12.1249 11.5175 12.1197 11.5304 12.1093C11.5356 12.1015 11.5512 12.1171 11.559 12.1197L11.8343 12.2703C11.8317 12.2859 11.8239 12.2885 11.811 12.2781C11.785 12.26 11.7434 12.2522 11.7226 12.2833L11.6188 12.4729L11.4733 12.7379C11.4525 12.7691 11.4759 12.8106 11.5071 12.8236L11.5278 12.834ZM12.6344 12.5742L12.5564 12.7924C12.5227 12.7898 12.546 12.7483 12.5356 12.7275C12.5305 12.6778 12.5104 12.6307 12.4779 12.5927C12.4454 12.5547 12.4021 12.5274 12.3538 12.5145C12.2759 12.4937 12.198 12.5327 12.1512 12.595C12.0834 12.6874 12.0437 12.7975 12.0369 12.9119C12.0346 12.9445 12.041 12.9772 12.0557 13.0065C12.0703 13.0357 12.0925 13.0605 12.1201 13.0782C12.1659 13.1067 12.2194 13.1204 12.2733 13.1171L12.3279 12.9535C12.3356 12.9171 12.2967 12.8937 12.2681 12.8859C12.2629 12.8756 12.2733 12.86 12.2863 12.873L12.572 12.9769C12.572 13.0106 12.5305 12.9717 12.5071 12.9872C12.4733 13.0002 12.4707 13.0418 12.4551 13.073L12.4214 13.1717C12.2915 13.1795 12.1616 13.1535 12.0473 13.0885C11.9408 13.021 11.8655 12.8885 11.8889 12.7587C11.9045 12.647 11.9746 12.5431 12.0759 12.4937C12.1694 12.4418 12.2837 12.4444 12.3824 12.4833C12.4344 12.5015 12.4811 12.5353 12.5227 12.5716C12.5486 12.6054 12.5954 12.6054 12.6162 12.5691L12.6344 12.5742ZM13.0993 13.3223C13.0993 13.3327 13.0993 13.3457 13.0837 13.3379L12.7564 13.2885C12.7564 13.2756 12.7564 13.2652 12.772 13.273C12.798 13.2782 12.8396 13.2782 12.8499 13.247C12.8655 13.2028 12.8681 13.1561 12.8759 13.1119L12.9331 12.7327C12.9409 12.7067 12.9331 12.6755 12.9045 12.6652C12.8863 12.6574 12.8707 12.6574 12.8525 12.6522C12.8525 12.6418 12.8525 12.6314 12.8681 12.6366L13.1954 12.6885C13.1954 12.6989 13.1954 12.7093 13.1798 12.7041C13.1538 12.6963 13.1149 12.6989 13.1019 12.7301C13.0863 12.7717 13.0837 12.8184 13.0759 12.8626L13.0188 13.2418C13.011 13.2678 13.0188 13.3015 13.0499 13.3119L13.1019 13.3223H13.0993ZM13.9876 13.1093L13.9746 13.3405L13.3876 13.3691C13.385 13.3561 13.3876 13.3483 13.4032 13.3509C13.4318 13.3509 13.4707 13.3379 13.4759 13.3041L13.4681 13.1327L13.45 12.7846C13.4525 12.7509 13.424 12.7249 13.3902 12.7275C13.3798 12.7223 13.3512 12.7379 13.3538 12.7197C13.3487 12.7041 13.372 12.7119 13.3798 12.7093L13.7071 12.6911C13.7071 12.7067 13.7071 12.7145 13.6889 12.7119C13.6603 12.7119 13.6214 12.7171 13.611 12.7535C13.6084 12.8028 13.6136 12.8522 13.6162 12.9015L13.6344 13.2652C13.6344 13.2937 13.6603 13.3223 13.6915 13.3171C13.7383 13.3145 13.7876 13.3171 13.8344 13.3041C13.8993 13.2859 13.9331 13.221 13.9513 13.1613C13.9642 13.1457 13.9513 13.1041 13.9772 13.1093H13.9876ZM14.4422 12.5431C14.4266 12.5431 14.4344 12.5639 14.4292 12.5742C14.4032 12.7691 14.3798 12.9639 14.3513 13.1561C14.3461 13.2002 14.3357 13.2496 14.2941 13.2704C14.2785 13.2782 14.2915 13.3015 14.3071 13.2885L14.5019 13.2288C14.4993 13.1976 14.4604 13.2288 14.4396 13.221C14.3954 13.221 14.3876 13.1665 14.3954 13.1327C14.3954 13.1067 14.4006 13.0859 14.4032 13.0626L14.6266 12.995C14.6552 13.0314 14.6863 13.0652 14.7123 13.1041C14.7331 13.1405 14.6863 13.1561 14.6604 13.1639C14.6448 13.1639 14.6552 13.1898 14.6682 13.1795L14.9617 13.0911C14.9617 13.0574 14.9201 13.0911 14.9019 13.0652C14.8448 13.0262 14.8058 12.9691 14.7617 12.9171L14.4422 12.5431ZM14.4422 12.7768L14.598 12.9665L14.4084 13.0236L14.4422 12.7768ZM15.4448 12.1067L15.5305 12.2626C15.5045 12.2885 15.489 12.234 15.4656 12.2262C15.4462 12.2092 15.4219 12.1988 15.3963 12.1965C15.3706 12.1942 15.3448 12.2 15.3227 12.2132L15.2708 12.2418L15.5253 12.7171C15.5383 12.7561 15.5877 12.7639 15.6214 12.7431C15.6318 12.7327 15.6448 12.7275 15.6474 12.7457C15.6058 12.7717 15.5565 12.795 15.5123 12.8184L15.3435 12.9093C15.3305 12.8963 15.3383 12.8885 15.3539 12.8833C15.3631 12.88 15.3713 12.8746 15.378 12.8675C15.3847 12.8604 15.3896 12.8518 15.3924 12.8425C15.3952 12.8331 15.3957 12.8233 15.394 12.8137C15.3923 12.8041 15.3883 12.795 15.3825 12.7872L15.1305 12.3197C15.0837 12.3457 15.0266 12.3665 15.0136 12.4236C15.0006 12.4626 15.0188 12.5067 15.0188 12.5379C15.0058 12.5535 15.0006 12.5327 14.9928 12.5223L14.9227 12.3872L15.4448 12.1067ZM15.8422 11.8703L16.0032 12.0859C16.0396 12.06 16.0708 12.0184 16.0604 11.9716C16.0656 11.9353 16.0136 11.8937 16.0318 11.8677C16.0422 11.8625 16.05 11.8885 16.0578 11.8963L16.2448 12.1431C16.2188 12.169 16.2032 12.1145 16.1773 12.1067C16.1409 12.0807 16.0916 12.0677 16.0526 12.0963C16.024 12.1067 16.0266 12.1223 16.0448 12.1405C16.0864 12.195 16.1279 12.2548 16.1747 12.3093C16.2007 12.3353 16.237 12.3093 16.2604 12.2885C16.3227 12.247 16.3773 12.1794 16.3747 12.1015C16.3799 12.0651 16.3565 12.0288 16.3565 11.9976C16.3721 11.9794 16.3747 12.008 16.3825 12.0184L16.4708 12.1742L16.0136 12.5197C15.9955 12.5067 16.0136 12.4963 16.0266 12.4885C16.0682 12.4626 16.0552 12.408 16.0266 12.3794L15.7305 11.9924C15.7045 11.9587 15.6578 11.9768 15.6344 12.0002C15.6214 12.0158 15.6084 11.9872 15.6266 11.9846L16.0552 11.6599L16.1721 11.8158C16.1461 11.8418 16.1201 11.782 16.0916 11.7794C16.0344 11.7483 15.9669 11.7716 15.9201 11.8106L15.8396 11.8703" fill="black"/>
</g>
<path id="Vector_92" d="M0 0H9V9H0V0Z" fill="#012169"/>
<path id="Vector_93" d="M9 0V1.125L5.66016 4.5L9 7.78711V9H7.82227L4.46484 5.69531L1.19531 9H0V7.80469L3.26953 4.51758L0 1.30078V0H1.08984L4.46484 3.30469L7.73438 0H9Z" fill="white"/>
<path id="Vector_94" d="M3.23438 5.69531L3.42773 6.29297L0.738281 9H0V8.94727L3.23438 5.69531ZM5.41406 5.48438L6.36328 5.625L9 8.20898V9L5.41406 5.48438ZM9 0L5.625 3.44531L5.55469 2.67188L8.19141 0H9ZM0 0.0175781L3.39258 3.33984L2.35547 3.19922L0 0.861328V0.0175781Z" fill="#C8102E"/>
<path id="Vector_95" d="M3.09375 0V9H5.90625V0H3.09375ZM0 3.09375V5.90625H9V3.09375H0Z" fill="white"/>
<path id="Vector_96" d="M0 3.65625V5.34375H9V3.65625H0ZM3.65625 0V9H5.34375V0H3.65625Z" fill="#C8102E"/>
</g>
<defs>
<linearGradient id="paint0_linear_186_15987" x1="11.0132" y1="5.20621" x2="10.7178" y2="5.16266" gradientUnits="userSpaceOnUse">
<stop stop-color="#FF0000"/>
<stop offset="1" stop-color="#FFFF00"/>
</linearGradient>
<linearGradient id="paint1_linear_186_15987" x1="10.9927" y1="6.28043" x2="10.6973" y2="6.23688" gradientUnits="userSpaceOnUse">
<stop stop-color="#FF0000"/>
<stop offset="1" stop-color="#FFFF00"/>
</linearGradient>
<linearGradient id="paint2_linear_186_15987" x1="10.9849" y1="7.33902" x2="10.6894" y2="7.29547" gradientUnits="userSpaceOnUse">
<stop stop-color="#FF0000"/>
<stop offset="1" stop-color="#FFFF00"/>
</linearGradient>
<linearGradient id="paint3_linear_186_15987" x1="11.6782" y1="8.48356" x2="11.3828" y2="8.44" gradientUnits="userSpaceOnUse">
<stop stop-color="#FF0000"/>
<stop offset="1" stop-color="#FFFF00"/>
</linearGradient>
<linearGradient id="paint4_linear_186_15987" x1="10.8941" y1="9.42106" x2="10.5986" y2="9.3775" gradientUnits="userSpaceOnUse">
<stop stop-color="#FF0000"/>
<stop offset="1" stop-color="#FFFF00"/>
</linearGradient>
<linearGradient id="paint5_linear_186_15987" x1="10.9146" y1="10.5265" x2="10.6191" y2="10.483" gradientUnits="userSpaceOnUse">
<stop stop-color="#FF0000"/>
<stop offset="1" stop-color="#FFFF00"/>
</linearGradient>
<linearGradient id="paint6_linear_186_15987" x1="14.813" y1="5.22574" x2="14.5176" y2="5.18219" gradientUnits="userSpaceOnUse">
<stop stop-color="#FF0000"/>
<stop offset="1" stop-color="#FFFF00"/>
</linearGradient>
<linearGradient id="paint7_linear_186_15987" x1="14.7769" y1="6.27652" x2="14.4814" y2="6.23297" gradientUnits="userSpaceOnUse">
<stop stop-color="#FF0000"/>
<stop offset="1" stop-color="#FFFF00"/>
</linearGradient>
<linearGradient id="paint8_linear_186_15987" x1="14.73" y1="7.35465" x2="14.4346" y2="7.3111" gradientUnits="userSpaceOnUse">
<stop stop-color="#FF0000"/>
<stop offset="1" stop-color="#FFFF00"/>
</linearGradient>
<linearGradient id="paint9_linear_186_15987" x1="14.7847" y1="8.41324" x2="14.4892" y2="8.36969" gradientUnits="userSpaceOnUse">
<stop stop-color="#FF0000"/>
<stop offset="1" stop-color="#FFFF00"/>
</linearGradient>
<linearGradient id="paint10_linear_186_15987" x1="14.772" y1="9.47184" x2="14.4766" y2="9.42829" gradientUnits="userSpaceOnUse">
<stop stop-color="#FF0000"/>
<stop offset="1" stop-color="#FFFF00"/>
</linearGradient>
<linearGradient id="paint11_linear_186_15987" x1="14.7769" y1="10.5382" x2="14.4814" y2="10.4947" gradientUnits="userSpaceOnUse">
<stop stop-color="#FF0000"/>
<stop offset="1" stop-color="#FFFF00"/>
</linearGradient>
<clipPath id="clip0_186_15987">
<rect width="18" height="18" fill="white"/>
</clipPath>
</defs>
</svg>
