<svg width="18" height="18" viewBox="0 0 18 18" fill="none" xmlns="http://www.w3.org/2000/svg">
<g id="vi" clip-path="url(#clip0_186_16107)">
<path id="Vector" d="M0 0H18V18H0V0Z" fill="white"/>
<path id="Vector_2" d="M5.74766 11.1102C5.74766 11.1102 5.73359 11.0082 5.91992 10.9344C6.10625 10.8641 6.12031 10.5934 6.08516 10.4141C6.08516 10.4141 5.98672 10.5863 5.86719 10.6426C5.86719 10.6426 5.67383 10.7445 5.66328 10.9379C5.66328 10.9379 5.66328 11.0082 5.64922 11.0609C5.64219 11.0926 5.5543 10.8219 5.71953 10.618C5.88477 10.4105 5.93047 10.2418 5.80039 9.91484C5.80039 9.91484 5.78633 10.1117 5.65625 10.2277C5.52266 10.3402 5.50859 10.3508 5.50859 10.6215C5.50859 10.6215 5.50859 10.7164 5.46289 10.748C5.46289 10.748 5.35742 10.5969 5.33281 10.502C5.30469 10.4 5.29414 10.3613 5.41016 10.2453C5.41016 10.2453 5.78281 10.0027 5.51562 9.47187C5.51562 9.47187 5.50508 9.6582 5.375 9.76367C5.24844 9.86914 5.25898 9.94297 5.25195 10.1293C5.24492 10.3156 5.23086 10.3051 5.2168 10.3297C5.2168 10.3297 4.98125 9.89375 5.16406 9.66172C5.34687 9.42969 5.44883 9.38047 5.24844 8.94805C5.24844 8.94805 5.25547 9.16953 5.09375 9.27852C4.93203 9.3875 4.9707 9.64766 4.9707 9.64766C4.9707 9.64766 4.98125 9.74258 4.94609 9.81289C4.94609 9.81289 4.71758 9.36641 4.93555 9.12734C5.12187 8.92344 5.13594 8.7793 5.03398 8.49102C5.03398 8.49102 5.02344 8.62461 4.92148 8.69844C4.81602 8.76875 4.73867 8.83906 4.75625 9.12031C4.75625 9.12031 4.76328 9.31367 4.73867 9.36641C4.73867 9.36641 4.64375 9.19063 4.61563 9.07461C4.59102 8.95859 4.58047 8.8918 4.65078 8.77578C4.72109 8.65977 5.00234 8.32578 4.66484 7.84766C4.66484 7.84766 4.6543 8.00234 4.56992 8.14297C4.48555 8.28359 4.52422 8.44883 4.5418 8.57539C4.56289 8.70195 4.49961 8.825 4.49961 8.825C4.49961 8.825 4.35547 8.55781 4.38359 8.25195C4.41875 7.94609 4.29219 7.68945 4.00742 7.51367C4.00742 7.51367 3.80352 7.98828 4.08477 8.23086C4.08477 8.23086 4.32383 8.46992 4.38359 8.7582C4.38359 8.7582 4.20078 8.73711 4.03906 8.41719C3.87383 8.10078 3.53281 8.15 3.51172 8.14648C3.51172 8.14648 3.56445 8.63867 4.08828 8.7793C4.08828 8.7793 4.42578 8.83906 4.48555 9.08516C4.48555 9.08516 4.5418 9.25391 4.56641 9.34531C4.56641 9.34531 4.46094 9.30313 4.3625 9.15898C4.26406 9.01133 4.27813 8.99375 3.94766 8.96211C3.94766 8.96211 3.81406 8.94805 3.74375 8.85313C3.74375 8.85313 3.88437 9.37695 4.23945 9.37344C4.23945 9.37344 4.56641 9.33828 4.74922 9.76719L4.66484 9.71094C4.61914 9.67578 4.49609 9.61602 4.25703 9.64766C4.01797 9.6793 3.95117 9.63359 3.89141 9.6125C3.89141 9.6125 4.13398 10.059 4.475 9.92891C4.81602 9.79531 4.98125 10.2734 4.98477 10.284C4.98477 10.284 4.93906 10.2488 4.8793 10.1891C4.81953 10.1293 4.69297 10.059 4.45742 10.1328C4.45742 10.1328 4.28516 10.1996 4.11289 10.1469C4.11289 10.1469 4.27813 10.4668 4.66836 10.4141C5.05508 10.3578 5.15703 10.7023 5.15703 10.7023L5.06914 10.6426C5.03398 10.6145 4.90039 10.5371 4.61914 10.6215C4.33789 10.7059 4.23594 10.6074 4.23594 10.6074C4.23594 10.6074 4.39414 10.8922 4.69297 10.9238C4.69297 10.9238 4.8582 10.9238 4.93203 10.8992C4.99991 10.8705 5.0757 10.8663 5.1463 10.8875C5.2169 10.9087 5.2779 10.9539 5.31875 11.0152C5.31875 11.0152 5.28359 11.0223 5.22734 10.9977C5.22734 10.9977 5.02695 10.9273 4.87578 11.0539C4.87578 11.0539 4.74219 11.1945 4.54883 11.1664C4.54883 11.1664 4.79492 11.4055 5.19219 11.2016C5.19219 11.2016 5.32578 11.1066 5.4207 11.1805C5.51914 11.2543 5.74766 11.1102 5.74766 11.1102Z" fill="#369443" stroke="#010002" stroke-width="1.2" stroke-miterlimit="10"/>
<g id="Group">
<path id="Vector_3" d="M7.93871 5.16864C7.93871 5.16864 7.893 4.75732 8.21996 4.71864C8.55746 4.67997 8.7262 4.75028 8.7262 4.75028L8.87738 5.04911L8.82464 5.25302L8.61371 5.34794C8.61371 5.34794 8.64886 5.03857 8.36761 5.03153C8.2973 5.03153 8.2516 5.05966 8.1391 5.04208C8.02308 5.02099 7.96331 5.14755 7.93871 5.16513V5.16864Z" fill="#F4C53D" stroke="#010002" stroke-width="1.2" stroke-miterlimit="10"/>
<path id="Vector_4" d="M10.2307 6.17683C10.1814 6.24012 9.98809 6.26121 9.98809 6.26121C9.98809 6.26121 10.1885 6.41238 10.2729 6.63387C10.3607 6.85183 7.95957 6.63387 7.95957 6.63387C7.95957 6.63387 8.06504 6.56004 8.13535 6.42293C8.13535 6.42293 8.02988 6.45808 7.9209 6.35262C7.9209 6.35262 8.00176 6.38074 8.10371 6.22254C8.10371 6.22254 8.2584 6.02566 8.36738 5.97293C8.36738 5.97293 8.31465 6.00457 8.19512 5.93777C8.19512 5.93777 8.40605 5.90965 8.47637 5.55457C8.47637 5.55457 8.49043 5.47723 8.57129 5.36121C8.64863 5.24871 8.63105 5.38582 8.77871 5.21004C8.77871 5.21004 8.84551 5.08348 8.78574 5.00965C8.72598 4.93582 8.66621 4.96043 8.54316 4.8866C8.42012 4.81277 8.36738 4.7741 8.40957 4.6616C8.45176 4.5491 8.55723 4.56668 8.5748 4.56668C8.58887 4.56668 8.59941 4.46824 8.72949 4.40144C8.90571 4.34919 9.09278 4.34555 9.2709 4.3909C9.32363 4.42254 9.53809 4.48582 9.66113 4.79871C9.78769 5.11512 9.62598 5.23465 9.97051 5.71277C9.97051 5.71277 9.82988 5.7409 9.74551 5.71277C9.74551 5.71277 9.92129 6.02918 10.2307 6.17683Z" fill="#F4C53D" stroke="#010002" stroke-width="1.2" stroke-miterlimit="10"/>
<path id="Vector_5" d="M8.74337 4.84414C8.46916 4.83008 8.57462 4.56641 8.57462 4.56641" stroke="#010002" stroke-width="1.2" stroke-miterlimit="10"/>
<path id="Vector_6" d="M9.2248 4.88013C9.2248 4.88013 9.17559 4.85552 9.13691 4.80279C9.07715 4.72544 8.94707 4.69029 8.87676 4.7606C8.87676 4.7606 8.80645 4.84146 8.74316 4.84498C8.74316 4.84498 8.81348 4.86607 8.8627 4.91177C8.91191 4.95748 8.96465 4.98912 9.03848 4.98208C9.10879 4.96802 9.12285 4.92935 9.15449 4.90826C9.18965 4.88365 9.2248 4.88013 9.2248 4.88013Z" fill="#F4C53D" stroke="#010002" stroke-width="1.2" stroke-miterlimit="10"/>
</g>
<path id="Vector_7" d="M5.70608 11.7148C5.70608 11.7148 5.69905 11.5391 5.92405 11.5215L6.58499 12.4426C6.58499 12.4426 6.56038 12.5023 6.26155 12.4953C6.26155 12.4953 6.22639 12.4953 6.21233 12.5305C6.18772 12.5867 5.70608 11.7148 5.70608 11.7148Z" fill="#369443" stroke="#010002" stroke-width="1.2" stroke-miterlimit="10"/>
<g id="vi-a">
<path id="Vector_8" d="M6.43228 10.6442C6.43228 10.6442 6.22099 11.0067 5.96567 11.0126C5.96567 11.0126 5.52658 10.9593 5.40252 11.074C5.31572 11.154 5.22722 11.2201 5.19081 11.4246C5.15524 11.6291 5.26067 11.6732 5.28566 11.6821C5.28566 11.6821 5.30513 11.8281 5.44952 11.79C5.44952 11.79 5.45799 11.9425 5.71289 11.8692C5.96821 11.796 6.07407 11.8192 6.12361 11.5652C6.17399 11.3107 6.22015 11.315 6.26545 11.2845C6.32643 11.2434 6.44117 11.2049 6.52628 11.1557C6.6025 11.1117 6.89551 10.9627 6.99543 10.9512C7.09536 10.9394 7.07334 10.6032 7.07334 10.6032H6.81506L6.69015 10.419L6.43228 10.6442ZM7.24525 8.82608C7.24525 8.82608 6.98696 9.03652 6.77017 8.82608C6.77017 8.82608 6.68295 8.93108 6.50765 8.9006C6.3332 8.86969 6.30399 8.77781 6.28747 8.7253C6.28747 8.7253 6.13589 8.81337 6.00801 8.74351C5.88099 8.67407 5.88099 8.56864 5.88099 8.56864C5.88099 8.56864 5.65869 8.61267 5.54479 8.46193C5.43089 8.31162 5.50033 8.16257 5.56173 8.14479C5.56173 8.14479 5.32165 8.20788 5.25602 8.00167C5.23854 7.95563 5.23584 7.90528 5.24828 7.85763C5.26073 7.80998 5.2877 7.76739 5.32546 7.73576C5.32546 7.73576 4.81989 7.73322 4.61241 7.57486C4.61241 7.57486 4.44008 7.46647 4.54297 7.35257C4.54297 7.35257 4.0878 7.27974 3.97389 7.09851C3.97389 7.09851 3.92393 7.04855 3.94044 6.9609C3.94044 6.9609 3.94341 6.91136 3.99337 6.9084C3.99337 6.9084 3.47426 6.82795 3.32437 6.65689C3.32437 6.65689 3.25238 6.57813 3.28837 6.4727C3.28837 6.4727 3.296 6.44518 3.30828 6.42612C3.30828 6.42612 2.83574 6.32662 2.60285 6.11618C2.60285 6.11618 2.46821 5.99635 2.53765 5.83545C2.53765 5.83545 1.74797 5.6195 1.93088 5.27145C1.93088 5.27145 1.56166 5.15162 1.67852 4.81839C1.67852 4.81839 1.37324 4.66342 1.50619 4.41783C1.63364 4.18283 2.02531 4.4589 2.48853 4.5872C2.48853 4.5872 3.74355 4.98183 4.36133 5.08684L6.11683 7.70062L7.14109 8.09525L7.24525 8.82608Z" fill="#F4C53D" stroke="#010002" stroke-width="1.2044"/>
<path id="Vector_9" d="M7.25759 6.90122C7.25759 6.90122 7.09287 6.77758 6.79944 6.92282C6.79944 6.92282 6.70079 6.99099 6.62288 6.91647C6.60598 6.90035 6.59288 6.88068 6.5845 6.85889C6.57612 6.83709 6.57267 6.81371 6.57441 6.79043C6.57616 6.76714 6.58304 6.74453 6.59457 6.72423C6.60609 6.70392 6.62198 6.68643 6.64108 6.673C6.85999 6.51083 6.94087 6.02432 6.60806 5.82234C6.60806 5.82234 6.12536 5.53611 4.35418 5.08559C4.35418 5.08559 4.20598 5.04409 4.12638 5.064C4.08787 5.07382 4.05273 5.09389 4.0247 5.12207C3.99667 5.15024 3.9768 5.18548 3.96717 5.22405C3.96717 5.22405 3.88757 5.44973 4.15433 5.57888C4.15433 5.57888 4.27458 5.63392 4.39864 5.66949C4.39864 5.66949 4.2623 5.63985 4.20387 5.7745C4.14882 5.90322 4.22927 6.0349 4.47909 6.11959C4.47909 6.11959 4.54684 6.14584 4.64296 6.16913C4.64296 6.16913 4.42913 6.23052 4.53202 6.40328C4.53202 6.40328 4.62348 6.5845 4.94697 6.61668C4.94697 6.61668 4.70562 6.64294 4.87584 6.87243C4.87584 6.87243 4.95078 6.99819 5.18663 7.04476C5.18663 7.04476 5.00795 7.05069 5.09771 7.21117C5.18832 7.37207 5.40046 7.46268 5.60963 7.4775C5.60963 7.4775 5.72268 7.48343 5.80186 7.46564C5.80186 7.46564 5.60285 7.56515 5.71972 7.73155C5.71972 7.73155 5.80567 7.85011 6.02077 7.84418C6.02077 7.84418 5.9653 8.03049 6.12282 8.10078C6.24561 8.15582 6.34765 8.06775 6.34765 8.06775C6.34765 8.06775 6.30616 8.26718 6.48526 8.33747C6.48526 8.33747 6.57461 8.38362 6.70798 8.33747C6.70798 8.33747 6.80961 8.56569 7.17205 8.40522C7.5345 8.24559 7.25759 6.90165 7.25759 6.90165V6.90122ZM7.27876 8.97345C7.27876 8.97345 7.22583 9.25884 6.80452 9.6179C6.80452 9.6179 6.47934 9.90455 6.48738 10.2348C6.49585 10.5714 6.42937 10.6091 6.3015 10.723C6.3015 10.723 6.56529 10.7438 6.69274 10.5681C6.69274 10.5681 6.68724 10.8602 6.64828 10.8869C6.64828 10.8869 6.73127 10.892 6.8511 10.7611C6.8511 10.7611 6.92308 10.6849 6.98998 10.6557C6.98998 10.6557 6.91207 10.8577 6.97305 11.0448C6.97305 11.0448 6.99252 10.9716 7.09542 10.9394C7.09542 10.9394 7.28172 10.9013 7.3537 10.6324C7.3537 10.6324 7.4007 10.4546 7.69244 10.2962C7.69244 10.2962 8.02271 10.1717 8.01424 10.0091C8.00577 9.84612 7.27918 8.97345 7.27918 8.97345H7.27876Z" fill="#F4C53D" stroke="#010002" stroke-width="1.2044"/>
<path id="Vector_10" d="M8.80944 12.6533C8.80944 12.6533 8.73365 12.9869 8.4707 12.9602C8.4707 12.9602 8.28482 12.9425 8.29879 12.6325C8.29879 12.6325 8.02399 12.779 7.97953 12.4166C7.97953 12.4166 7.72971 12.4746 7.73268 12.1358C7.73268 12.1358 7.49979 12.1765 7.52732 11.8754C7.52732 11.8754 7.27453 11.9432 7.27453 11.6595C7.27453 11.6595 6.68344 11.5613 7.91559 10.4375L9.0148 11.0921L8.80944 12.6533Z" fill="#F4C53D" stroke="#010002" stroke-width="1.2044" stroke-miterlimit="10"/>
<path id="Vector_11" d="M8.93169 11.1535C8.93169 11.1535 8.74835 11.3161 8.61793 11.073C8.61793 11.073 8.4401 11.0646 8.41257 10.9299C8.41257 10.9299 8.26819 10.9155 8.24024 10.7779C8.24024 10.7779 8.04335 10.7576 8.04886 10.5912C8.04886 10.5912 7.69064 10.5632 8.04886 10.1576C8.40707 9.75197 9.01468 10.8309 9.01468 10.8309L8.93169 11.1535ZM9.13578 11.0527C9.31362 11.0527 9.51474 12.1621 9.46266 12.8307C9.44361 13.0733 9.31362 13.2715 9.13578 13.2715C8.95794 13.2715 8.82838 13.0733 8.80974 12.8307C8.75724 12.1621 8.95837 11.0527 9.13578 11.0527Z" fill="#F4C53D" stroke="#010002" stroke-width="1.2044"/>
<path id="Vector_12" d="M9.13621 11.408C9.27184 11.408 9.38179 11.2449 9.38179 11.0438C9.38179 10.8427 9.27184 10.6797 9.13621 10.6797C9.00058 10.6797 8.89062 10.8427 8.89062 11.0438C8.89062 11.2449 9.00058 11.408 9.13621 11.408Z" fill="#F4C53D" stroke="#010002" stroke-width="1.2044"/>
<path id="Vector_13" d="M8.29922 12.6321C8.29922 12.6321 8.32717 12.0448 8.83612 11.2026M7.97996 12.4162C7.97996 12.4162 7.90079 12.077 8.61849 11.0739C8.61849 11.0739 8.53507 10.8347 8.79039 10.681M7.73311 12.1354C7.73311 12.1354 7.71067 11.7683 8.41313 10.9308C8.41313 10.9308 8.35088 10.7148 8.60536 10.5421M7.52775 11.875C7.52775 11.875 7.554 11.5041 8.24079 10.7788C8.24079 10.7788 8.20692 10.5569 8.4525 10.4193M7.27539 11.6591C7.27539 11.6591 7.32493 11.2352 8.04941 10.5921C8.04941 10.5921 8.02442 10.4252 8.26577 10.2559" stroke="#010002" stroke-width="1.2044" stroke-miterlimit="10"/>
<path id="Vector_14" d="M1.67871 4.81836C1.67871 4.81836 2.24737 5.14778 4.01981 5.4772M1.93107 5.27142C1.93107 5.27142 3.47106 5.7736 4.18833 5.83542M2.53741 5.83542C2.53741 5.83542 3.44099 6.11911 4.49912 6.29822M3.30846 6.42652C3.30846 6.42652 4.32891 6.67168 4.81669 6.71233M3.99356 6.90837C3.99356 6.90837 4.85692 7.08832 5.0754 7.10992M4.54316 7.35254C4.54316 7.35254 5.17321 7.44823 5.42388 7.44315M5.32564 7.73531C5.32564 7.73531 5.58054 7.72346 5.70291 7.70313M5.56149 8.14476C5.56149 8.14476 5.77828 8.08633 5.90573 8.00461M5.88075 8.56861C5.88075 8.56861 6.04758 8.50425 6.12803 8.32895M6.28766 8.72527C6.28766 8.72527 6.41638 8.60968 6.42485 8.48096M6.77036 8.82605C6.77036 8.82605 6.72209 8.78413 6.75512 8.6029M6.70812 8.33699C6.70812 8.33699 6.68271 8.28534 6.69118 8.20319M5.79776 5.74184C5.79776 5.74184 6.08907 5.85871 6.18604 6.01961C6.28342 6.18051 6.21949 6.33675 6.18604 6.42609C6.16952 6.4714 5.96416 6.8673 6.20551 7.15395M5.80157 7.46475C5.80157 7.46475 5.80326 7.46348 5.90573 7.43087M5.18676 7.04386C5.18676 7.04386 5.36036 7.07859 5.531 7.08028M4.94668 6.61536C4.94668 6.61536 5.15077 6.63611 5.34258 6.63315M4.64309 6.16823C4.64309 6.16823 4.93737 6.22666 5.0953 6.22962M4.39877 5.66944C4.39877 5.66944 4.76165 5.77275 5.03137 5.80959M5.63093 6.02299C5.63093 6.02299 5.3701 6.26562 5.68386 6.49088C5.68386 6.49088 5.55344 6.69539 5.81427 6.90879M5.74483 7.00957C5.74483 7.00957 5.70588 7.39996 6.1835 7.39996C6.1835 7.39996 6.09161 7.74759 6.55272 7.73616C6.55272 7.73616 6.60522 8.01392 6.93803 7.95803M6.20509 11.013C6.20509 11.013 6.1293 11.03 5.96543 11.013M5.50475 11.2175C5.50475 11.2175 5.27441 11.1824 5.28542 11.6825M5.64363 11.3314C5.64363 11.3314 5.43531 11.3052 5.44886 11.7904M7.65362 10.1624C7.65362 10.1624 7.55369 10.1827 7.48425 10.2619C7.41523 10.3406 7.28185 10.3258 7.28185 10.3258C7.28185 10.3258 7.35383 10.2674 7.37924 10.1213C7.4038 9.97521 7.48467 9.93118 7.48467 9.93118M7.24628 9.79314C7.24628 9.79314 7.14636 9.81347 7.07692 9.89222C7.00747 9.9714 6.8741 9.95658 6.8741 9.95658C6.8741 9.95658 6.94608 9.89815 6.97148 9.75207C6.99647 9.60599 7.07692 9.56195 7.07692 9.56195M7.17727 10.3601C7.17727 10.3601 7.09004 10.3783 7.02949 10.4469C6.96894 10.5159 6.8525 10.5032 6.8525 10.5032C6.8525 10.5032 6.91602 10.4524 6.93719 10.3245C6.9592 10.1971 7.02949 10.1586 7.02949 10.1586" stroke="#010002" stroke-width="1.2044"/>
</g>
<g id="vi-a_2">
<path id="Vector_15" d="M11.7718 10.6442C11.7718 10.6442 11.9831 11.0067 12.2384 11.0126C12.2384 11.0126 12.6775 10.9593 12.8016 11.074C12.8884 11.154 12.9769 11.2201 13.0133 11.4246C13.0489 11.6291 12.9434 11.6732 12.9184 11.6821C12.9184 11.6821 12.899 11.8281 12.7546 11.79C12.7546 11.79 12.7461 11.9425 12.4912 11.8692C12.2359 11.796 12.13 11.8192 12.0805 11.5652C12.0301 11.3107 11.984 11.315 11.9386 11.2845C11.8777 11.2434 11.7629 11.2049 11.6778 11.1557C11.6016 11.1117 11.3086 10.9627 11.2087 10.9512C11.1087 10.9394 11.1308 10.6032 11.1308 10.6032H11.389L11.514 10.419L11.7718 10.6442ZM10.9588 8.82608C10.9588 8.82608 11.2171 9.03652 11.4339 8.82608C11.4339 8.82608 11.5212 8.93108 11.6965 8.9006C11.8709 8.86969 11.9001 8.77781 11.9166 8.7253C11.9166 8.7253 12.0682 8.81337 12.1961 8.74351C12.3231 8.67407 12.3231 8.56864 12.3231 8.56864C12.3231 8.56864 12.5454 8.61267 12.6593 8.46193C12.7732 8.31162 12.7038 8.16257 12.6424 8.14479C12.6424 8.14479 12.8825 8.20788 12.9481 8.00167C12.9656 7.95563 12.9683 7.90528 12.9558 7.85763C12.9434 7.80998 12.9164 7.76739 12.8786 7.73576C12.8786 7.73576 13.3842 7.73322 13.5917 7.57486C13.5917 7.57486 13.764 7.46647 13.6611 7.35257C13.6611 7.35257 14.1163 7.27974 14.2302 7.09851C14.2302 7.09851 14.2802 7.04855 14.2637 6.9609C14.2637 6.9609 14.2607 6.91136 14.2107 6.9084C14.2107 6.9084 14.7298 6.82795 14.8797 6.65689C14.8797 6.65689 14.9517 6.57813 14.9157 6.4727C14.9157 6.4727 14.9081 6.44518 14.8958 6.42612C14.8958 6.42612 15.3684 6.32662 15.6012 6.11618C15.6012 6.11618 15.7359 5.99635 15.6665 5.83545C15.6665 5.83545 16.4561 5.6195 16.2732 5.27145C16.2732 5.27145 16.6424 5.15162 16.5256 4.81839C16.5256 4.81839 16.8309 4.66342 16.6979 4.41783C16.5705 4.18283 16.1788 4.4589 15.7156 4.5872C15.7156 4.5872 14.4605 4.98183 13.8428 5.08684L12.0873 7.70062L11.063 8.09525L10.9588 8.82608Z" fill="#F4C53D" stroke="#010002" stroke-width="1.2044"/>
<path id="Vector_16" d="M10.9465 6.90122C10.9465 6.90122 11.1112 6.77758 11.4047 6.92282C11.4047 6.92282 11.5033 6.99099 11.5812 6.91647C11.5981 6.90035 11.6112 6.88068 11.6196 6.85889C11.628 6.83709 11.6314 6.81371 11.6297 6.79043C11.6279 6.76714 11.6211 6.74453 11.6095 6.72423C11.598 6.70392 11.5821 6.68643 11.563 6.673C11.3441 6.51083 11.2632 6.02432 11.596 5.82234C11.596 5.82234 12.0787 5.53611 13.8499 5.08559C13.8499 5.08559 13.9981 5.04409 14.0777 5.064C14.1162 5.07382 14.1514 5.09389 14.1794 5.12207C14.2074 5.15024 14.2273 5.18548 14.2369 5.22405C14.2369 5.22405 14.3165 5.44973 14.0498 5.57888C14.0498 5.57888 13.9295 5.63392 13.8055 5.66949C13.8055 5.66949 13.9418 5.63985 14.0002 5.7745C14.0553 5.90322 13.9748 6.0349 13.725 6.11959C13.725 6.11959 13.6573 6.14584 13.5611 6.16913C13.5611 6.16913 13.775 6.23052 13.6721 6.40328C13.6721 6.40328 13.5806 6.5845 13.2571 6.61668C13.2571 6.61668 13.4985 6.64294 13.3283 6.87243C13.3283 6.87243 13.2533 6.99819 13.0175 7.04476C13.0175 7.04476 13.1962 7.05069 13.1064 7.21117C13.0158 7.37207 12.8036 7.46268 12.5945 7.4775C12.5945 7.4775 12.4814 7.48343 12.4022 7.46564C12.4022 7.46564 12.6012 7.56515 12.4844 7.73155C12.4844 7.73155 12.3984 7.85011 12.1833 7.84418C12.1833 7.84418 12.2388 8.03049 12.0813 8.10078C11.9585 8.15582 11.8564 8.06775 11.8564 8.06775C11.8564 8.06775 11.8979 8.26718 11.7188 8.33747C11.7188 8.33747 11.6295 8.38362 11.4961 8.33747C11.4961 8.33747 11.3945 8.56569 11.032 8.40522C10.6696 8.24559 10.9465 6.90165 10.9465 6.90165V6.90122ZM10.9253 8.97345C10.9253 8.97345 10.9783 9.25884 11.3996 9.6179C11.3996 9.6179 11.7248 9.90455 11.7167 10.2348C11.7083 10.5714 11.7747 10.6091 11.9026 10.723C11.9026 10.723 11.6388 10.7438 11.5114 10.5681C11.5114 10.5681 11.5169 10.8602 11.5558 10.8869C11.5558 10.8869 11.4728 10.892 11.353 10.7611C11.353 10.7611 11.281 10.6849 11.2141 10.6557C11.2141 10.6557 11.292 10.8577 11.2311 11.0448C11.2311 11.0448 11.2116 10.9716 11.1087 10.9394C11.1087 10.9394 10.9224 10.9013 10.8504 10.6324C10.8504 10.6324 10.8034 10.4546 10.5117 10.2962C10.5117 10.2962 10.1814 10.1717 10.1899 10.0091C10.1983 9.84612 10.9249 8.97345 10.9249 8.97345H10.9253Z" fill="#F4C53D" stroke="#010002" stroke-width="1.2044"/>
<path id="Vector_17" d="M9.39466 12.6533C9.39466 12.6533 9.47046 12.9869 9.7334 12.9602C9.7334 12.9602 9.91928 12.9425 9.90531 12.6325C9.90531 12.6325 10.1801 12.779 10.2246 12.4166C10.2246 12.4166 10.4744 12.4746 10.4714 12.1358C10.4714 12.1358 10.7043 12.1765 10.6768 11.8754C10.6768 11.8754 10.9296 11.9432 10.9296 11.6595C10.9296 11.6595 11.5207 11.5613 10.2885 10.4375L9.1893 11.0921L9.39466 12.6533Z" fill="#F4C53D" stroke="#010002" stroke-width="1.2044" stroke-miterlimit="10"/>
<path id="Vector_18" d="M9.27241 11.1535C9.27241 11.1535 9.45575 11.3161 9.58617 11.073C9.58617 11.073 9.764 11.0646 9.79153 10.9299C9.79153 10.9299 9.93591 10.9155 9.96386 10.7779C9.96386 10.7779 10.1608 10.7576 10.1552 10.5912C10.1552 10.5912 10.5135 10.5632 10.1552 10.1576C9.79703 9.75197 9.18942 10.8309 9.18942 10.8309L9.27241 11.1535ZM9.06832 11.0527C8.89049 11.0527 8.68936 12.1621 8.74144 12.8307C8.76049 13.0733 8.89049 13.2715 9.06832 13.2715C9.24616 13.2715 9.37573 13.0733 9.39436 12.8307C9.44686 12.1621 9.24574 11.0527 9.06832 11.0527Z" fill="#F4C53D" stroke="#010002" stroke-width="1.2044"/>
<path id="Vector_19" d="M9.06789 11.408C8.93226 11.408 8.82231 11.2449 8.82231 11.0438C8.82231 10.8427 8.93226 10.6797 9.06789 10.6797C9.20352 10.6797 9.31348 10.8427 9.31348 11.0438C9.31348 11.2449 9.20352 11.408 9.06789 11.408Z" fill="#F4C53D" stroke="#010002" stroke-width="1.2044"/>
<path id="Vector_20" d="M9.90488 12.6321C9.90488 12.6321 9.87693 12.0448 9.36798 11.2026M10.2241 12.4162C10.2241 12.4162 10.3033 12.077 9.58562 11.0739C9.58562 11.0739 9.66903 10.8347 9.41371 10.681M10.471 12.1354C10.471 12.1354 10.4934 11.7683 9.79098 10.9308C9.79098 10.9308 9.85322 10.7148 9.59874 10.5421M10.6764 11.875C10.6764 11.875 10.6501 11.5041 9.96331 10.7788C9.96331 10.7788 9.99718 10.5569 9.7516 10.4193M10.9287 11.6591C10.9287 11.6591 10.8792 11.2352 10.1547 10.5921C10.1547 10.5921 10.1797 10.4252 9.93833 10.2559" stroke="#010002" stroke-width="1.2044" stroke-miterlimit="10"/>
<path id="Vector_21" d="M16.5254 4.81836C16.5254 4.81836 15.9567 5.14778 14.1843 5.4772M16.273 5.27142C16.273 5.27142 14.733 5.7736 14.0158 5.83542M15.6667 5.83542C15.6667 5.83542 14.7631 6.11911 13.705 6.29822M14.8956 6.42652C14.8956 6.42652 13.8752 6.67168 13.3874 6.71233M14.2105 6.90837C14.2105 6.90837 13.3472 7.08832 13.1287 7.10992M13.6609 7.35254C13.6609 7.35254 13.0309 7.44823 12.7802 7.44315M12.8785 7.73531C12.8785 7.73531 12.6236 7.72346 12.5012 7.70313M12.6426 8.14476C12.6426 8.14476 12.4258 8.08633 12.2984 8.00461M12.3234 8.56861C12.3234 8.56861 12.1565 8.50425 12.0761 8.32895M11.9164 8.72527C11.9164 8.72527 11.7877 8.60968 11.7793 8.48096M11.4337 8.82605C11.4337 8.82605 11.482 8.78413 11.449 8.6029M11.496 8.33699C11.496 8.33699 11.5214 8.28534 11.5129 8.20319M12.4063 5.74184C12.4063 5.74184 12.115 5.85871 12.0181 6.01961C11.9207 6.18051 11.9846 6.33675 12.0181 6.42609C12.0346 6.4714 12.2399 6.8673 11.9986 7.15395M12.4025 7.46475C12.4025 7.46475 12.4008 7.46348 12.2984 7.43087M13.0173 7.04386C13.0173 7.04386 12.8437 7.07859 12.6731 7.08028M13.2574 6.61536C13.2574 6.61536 13.0533 6.63611 12.8615 6.63315M13.561 6.16823C13.561 6.16823 13.2667 6.22666 13.1088 6.22962M13.8053 5.66944C13.8053 5.66944 13.4425 5.77275 13.1727 5.80959M12.5732 6.02299C12.5732 6.02299 12.834 6.26562 12.5202 6.49088C12.5202 6.49088 12.6507 6.69539 12.3898 6.90879M12.4593 7.00957C12.4593 7.00957 12.4982 7.39996 12.0206 7.39996C12.0206 7.39996 12.1125 7.74759 11.6514 7.73616C11.6514 7.73616 11.5989 8.01392 11.2661 7.95803M11.999 11.013C11.999 11.013 12.0748 11.03 12.2387 11.013M12.6994 11.2175C12.6994 11.2175 12.9297 11.1824 12.9187 11.6825M12.5605 11.3314C12.5605 11.3314 12.7688 11.3052 12.7552 11.7904M10.5505 10.1624C10.5505 10.1624 10.6504 10.1827 10.7199 10.2619C10.7889 10.3406 10.9222 10.3258 10.9222 10.3258C10.9222 10.3258 10.8503 10.2674 10.8249 10.1213C10.8003 9.97521 10.7194 9.93118 10.7194 9.93118M10.9578 9.79314C10.9578 9.79314 11.0577 9.81347 11.1272 9.89222C11.1966 9.9714 11.33 9.95658 11.33 9.95658C11.33 9.95658 11.258 9.89815 11.2326 9.75207C11.2076 9.60599 11.1272 9.56195 11.1272 9.56195M11.0268 10.3601C11.0268 10.3601 11.1141 10.3783 11.1746 10.4469C11.2352 10.5159 11.3516 10.5032 11.3516 10.5032C11.3516 10.5032 11.2881 10.4524 11.2669 10.3245C11.2449 10.1971 11.1746 10.1586 11.1746 10.1586" stroke="#010002" stroke-width="1.2044"/>
</g>
<path id="Vector_22" d="M13.3486 9.58633L13.1061 9.4457L12.7053 11.1859L12.54 11.0664L12.9303 9.4L12.6561 9.40703L13.3064 8.21875L13.3486 9.58984V9.58633ZM14.2979 10.0574L14.1467 9.81133L12.9373 11.2422L12.8072 11.0945L14.0131 9.68828L13.767 9.55469L14.8709 8.82695L14.2979 10.0574Z" fill="#0081C6" stroke="#010002" stroke-width="1.2" stroke-miterlimit="10"/>
<path id="Vector_23" d="M14.0559 9.25977L13.8555 9.05586L12.7727 11.1371L12.6074 11.0387L13.6973 8.96445L13.4301 8.89414L14.3477 7.92383L14.0559 9.25977ZM12.5055 11.7734L12.4246 12.1039L12.6461 12.3254L12.3297 13.6473L12.052 13.2746L11.6406 13.468L11.957 12.1426L12.2453 12.0617L12.3191 11.7313C12.3191 11.7313 12.407 11.6961 12.5055 11.7734Z" fill="#0081C6" stroke="#010002" stroke-width="1.2" stroke-miterlimit="10"/>
<path id="Vector_24" d="M12.5787 11.5527L12.4205 11.8516L12.5787 12.1258L11.9494 13.3211L11.7736 12.8816L11.3271 12.9555L11.9564 11.7602H12.2553L12.41 11.4648C12.41 11.4648 12.5225 11.4648 12.5787 11.5527Z" fill="#0081C6" stroke="#010002" stroke-width="1.2" stroke-miterlimit="10"/>
<path id="Vector_25" d="M12.607 11.6402L12.1816 12.1816L12.2801 12.484L11.4117 13.5L11.3309 13.0324L10.8809 12.9973L11.7492 11.9812L12.041 12.0516L12.491 11.482C12.491 11.482 12.6141 11.5418 12.607 11.6402ZM1.84219 10.3746C1.94414 10.3324 2.01797 10.2938 2.01797 10.1848C2.01797 10.1602 2.00391 10.1039 1.97227 10.016L1.29375 7.93828C1.27071 7.86147 1.24252 7.7863 1.20938 7.71328C1.17773 7.65352 1.11797 7.62891 1.03711 7.59727H1.90195C1.80703 7.63945 1.72266 7.67461 1.72617 7.77305C1.72617 7.81523 1.7332 7.86797 1.7543 7.93828L2.27813 9.5625L2.79844 7.93477C2.81953 7.86445 2.83359 7.81172 2.83359 7.77305C2.83008 7.66758 2.73867 7.63242 2.65078 7.59375H3.49102C3.41367 7.62539 3.35039 7.64648 3.31875 7.70977C3.30469 7.73789 3.27305 7.8082 3.23438 7.93477L2.55586 10.009C2.53563 10.0662 2.52034 10.125 2.51016 10.1848C2.51016 10.1848 2.47852 10.3148 2.68594 10.3711L1.84219 10.3746ZM16.3336 10.1637V7.8082C16.3348 7.7764 16.3275 7.74485 16.3125 7.7168C16.302 7.69219 16.2422 7.63242 16.1578 7.59727H16.9383C16.8761 7.61926 16.8221 7.65974 16.7836 7.71328C16.7683 7.7425 16.761 7.77525 16.7625 7.8082V10.1637C16.7625 10.2023 16.7695 10.234 16.7836 10.2586C16.7977 10.2797 16.8539 10.3359 16.9383 10.3746H16.1578C16.2422 10.3395 16.2984 10.2797 16.3125 10.2586C16.3266 10.234 16.3336 10.2023 16.3336 10.1602V10.1637Z" fill="#0081C6" stroke="#010002" stroke-width="1.2" stroke-miterlimit="10"/>
<path id="Vector_26" d="M9.13672 10.9609C9.13672 10.9609 11.218 10.0363 11.225 7.90234H7.04492C7.05195 10.0363 9.13672 10.9609 9.13672 10.9609Z" fill="white" stroke="#010002" stroke-width="1.2"/>
<path id="Vector_27" d="M7.36914 7.90234V9.26641C7.36914 9.26641 7.52734 9.58281 7.68906 9.7832V7.90234H7.36914ZM8.0125 7.90234V10.1523C8.0125 10.1523 8.21289 10.3492 8.33242 10.4441V7.90234H8.0125ZM8.65234 7.90234V10.6797C8.65234 10.6797 8.88437 10.8309 8.97578 10.8801V7.90234H8.65234ZM10.9023 7.90234V9.26641C10.9023 9.26641 10.7441 9.58281 10.5824 9.7832V7.90234H10.9023ZM10.259 7.90234V10.1523C10.259 10.1523 10.0586 10.3492 9.94258 10.4441V7.90234H10.259ZM9.61914 7.90234V10.6797C9.61914 10.6797 9.38711 10.8309 9.2957 10.8801V7.90234H9.61914Z" fill="#A60032" stroke="#010002" stroke-width="1.2"/>
<path id="Vector_28" d="M11.225 6.34883C11.225 6.34883 10.202 6.8832 9.13672 6.30664C8.06797 6.8832 7.04492 6.34883 7.04492 6.34883V7.90273H11.225V6.34883Z" fill="#162667" stroke="#010002" stroke-width="1.2" stroke-miterlimit="10"/>
</g>
<defs>
<clipPath id="clip0_186_16107">
<rect width="18" height="18" fill="white"/>
</clipPath>
</defs>
</svg>
