<svg width="18" height="18" viewBox="0 0 18 18" fill="none" xmlns="http://www.w3.org/2000/svg">
<g id="vu" clip-path="url(#clip0_186_16145)">
<path id="Vector" d="M0 0H18V18H0V0Z" fill="#009543"/>
<path id="Vector_2" d="M0 0H18V9H0V0Z" fill="#D21034"/>
<g id="Clip path group">
<mask id="mask0_186_16145" style="mask-type:luminance" maskUnits="userSpaceOnUse" x="0" y="0" width="18" height="18">
<g id="vu-a">
<path id="Vector_3" d="M0 0V18.0001L8.40002 10.6106H18V7.38951H8.40002L0 0Z" fill="white"/>
</g>
</mask>
<g mask="url(#mask0_186_16145)">
<g id="Group">
<g id="Vector_4">
<path d="M0 0L8.40002 7.38951H18V10.6106H8.40002L0 18.0001" fill="black"/>
<path d="M0 0L8.40002 7.38951H18V10.6106H8.40002L0 18.0001" stroke="#FDCE12" stroke-width="86.1383"/>
</g>
<path id="Vector_5" d="M0 0L8.40002 7.38951H18M18 10.6106H8.40002L0 18.0001" stroke="black" stroke-width="46.9845"/>
</g>
</g>
</g>
<g id="Group_2">
<path id="Vector_6" d="M2.37678 10.5445V11.461C3.17447 11.461 4.74268 10.85 4.74268 8.87781C4.74268 6.90566 3.06924 6.53906 2.57026 6.53906C2.06789 6.53906 0.523438 6.89887 0.523438 8.50782C0.523438 10.1236 2.04074 10.2729 2.33944 10.2729C2.63815 10.2729 3.75831 10.0014 3.62932 8.79295C3.59588 9.08788 3.45476 9.36009 3.23302 9.5574C3.01128 9.75471 2.72452 9.86324 2.4277 9.86219C1.61304 9.86219 1.10388 9.25798 1.10388 8.66057C1.10388 8.06315 1.59946 7.26207 2.45825 7.26207C3.31703 7.26207 3.945 8.02581 3.945 8.79295C3.945 9.56348 3.34079 10.5411 2.37678 10.5411V10.5445Z" fill="#FDCE12"/>
<g id="vu-b">
<path id="Vector_7" d="M1.67383 9.34641L1.72135 9.38035C1.72135 9.38035 2.10152 8.51478 3.11645 7.90039C2.98746 7.96828 2.30858 8.30772 1.67383 9.34641Z" fill="#FDCE12" stroke="#FDCE12" stroke-width="0.772416"/>
<path id="Vector_8" d="M1.77236 9.19738C1.77236 9.19738 1.65695 8.95977 1.75879 8.85115C1.86062 8.74593 1.81649 9.13289 1.81649 9.13289L1.86062 9.06839C1.86062 9.06839 1.79273 8.77648 1.86741 8.71538C1.94548 8.65088 1.90814 8.99711 1.90814 8.99711L1.95566 8.93601C1.95566 8.93601 1.90474 8.65088 1.97942 8.59657C2.05749 8.54226 2.00997 8.86812 2.00997 8.86812L2.06428 8.80024C2.06428 8.80024 2.02355 8.52868 2.1152 8.46419C2.20685 8.3997 2.12538 8.72216 2.12538 8.72216L2.18648 8.65428C2.18648 8.65428 2.15933 8.40648 2.2374 8.34878C2.31547 8.29447 2.25097 8.58639 2.25097 8.58639L2.30528 8.52529C2.30528 8.52529 2.28831 8.29447 2.36299 8.24016C2.44106 8.18585 2.36978 8.4608 2.36978 8.4608L2.42748 8.40648C2.42748 8.40648 2.41391 8.17227 2.50895 8.12814C2.60399 8.08402 2.49198 8.34539 2.49198 8.34539L2.55987 8.29108C2.55987 8.29108 2.57684 8.01952 2.6583 7.99576C2.73977 7.96861 2.62436 8.23337 2.62436 8.23337L2.68206 8.18585C2.68206 8.18585 2.71261 7.95503 2.80087 7.92787C2.89252 7.89732 2.74656 8.13833 2.74656 8.13833L2.80426 8.0942C2.80426 8.0942 2.86876 7.86338 2.95362 7.83622C3.03508 7.81246 2.86536 8.05686 2.86536 8.05686L2.92307 8.01613C2.92307 8.01613 3.01472 7.80567 3.09279 7.7921C3.16407 7.77852 3.00453 7.96521 3.00453 7.96521L3.07581 7.92448C3.07581 7.92448 3.19462 7.70724 3.23875 7.77173C3.27948 7.83962 3.06903 7.93806 3.06903 7.93806L3.00114 7.97879C3.00114 7.97879 3.25572 7.85659 3.28627 7.91769C3.31682 7.97879 2.93664 8.01952 2.93664 8.01952L2.87554 8.06026C2.87554 8.06026 3.13013 7.99237 3.09958 8.05686C3.06563 8.12135 2.81445 8.10778 2.81445 8.10778L2.75674 8.14851C2.75674 8.14851 3.01132 8.08741 2.97738 8.14851C2.94343 8.20282 2.69564 8.19943 2.69564 8.19943L2.63454 8.25034C2.63454 8.25034 2.88233 8.18245 2.845 8.26053C2.81105 8.3352 2.52592 8.33181 2.52592 8.33181L2.45803 8.3997C2.45803 8.3997 2.7194 8.30805 2.69564 8.37933C2.67528 8.44722 2.37657 8.48116 2.37657 8.48116L2.30868 8.54905C2.30868 8.54905 2.59041 8.4574 2.50555 8.54226C2.42409 8.63052 2.21703 8.65088 2.21703 8.65088L2.13896 8.75271C2.13896 8.75271 2.4173 8.58299 2.37657 8.67804C2.33923 8.77308 2.06428 8.83757 2.06428 8.83757L2.00997 8.90546C2.00997 8.90546 2.26116 8.7595 2.234 8.83757C2.21024 8.92243 1.94208 9.00729 1.94208 9.00729L1.89796 9.06839C1.89796 9.06839 2.19327 8.89188 2.16951 8.98353C2.14235 9.07179 1.86062 9.13628 1.86062 9.13628L1.82667 9.19399C1.82667 9.19399 2.09823 9.03445 2.09823 9.11252C2.10501 9.1872 1.77915 9.26187 1.77915 9.26187L1.77236 9.19738Z" fill="#FDCE12"/>
</g>
<g id="vu-b_2">
<path id="Vector_9" d="M3.29004 9.34641L3.24252 9.38035C3.24252 9.38035 2.86234 8.51478 1.84742 7.90039C1.9764 7.96828 2.65529 8.30772 3.29004 9.34641Z" fill="#FDCE12" stroke="#FDCE12" stroke-width="0.772416"/>
<path id="Vector_10" d="M3.1915 9.19738C3.1915 9.19738 3.30691 8.95977 3.20508 8.85115C3.10325 8.74593 3.14738 9.13289 3.14738 9.13289L3.10325 9.06839C3.10325 9.06839 3.17114 8.77648 3.09646 8.71538C3.01839 8.65088 3.05573 8.99711 3.05573 8.99711L3.00821 8.93601C3.00821 8.93601 3.05912 8.65088 2.98445 8.59657C2.90637 8.54226 2.9539 8.86812 2.9539 8.86812L2.89959 8.80024C2.89959 8.80024 2.94032 8.52868 2.84867 8.46419C2.75702 8.3997 2.83849 8.72216 2.83849 8.72216L2.77739 8.65428C2.77739 8.65428 2.80454 8.40648 2.72647 8.34878C2.6484 8.29447 2.71289 8.58639 2.71289 8.58639L2.65858 8.52529C2.65858 8.52529 2.67555 8.29447 2.60088 8.24016C2.52281 8.18585 2.59409 8.4608 2.59409 8.4608L2.53638 8.40648C2.53638 8.40648 2.54996 8.17227 2.45492 8.12814C2.35987 8.08402 2.47189 8.34539 2.47189 8.34539L2.404 8.29108C2.404 8.29108 2.38703 8.01952 2.30556 7.99576C2.2241 7.96861 2.33951 8.23337 2.33951 8.23337L2.2818 8.18585C2.2818 8.18585 2.25125 7.95503 2.163 7.92787C2.07135 7.89732 2.21731 8.13833 2.21731 8.13833L2.1596 8.0942C2.1596 8.0942 2.09511 7.86338 2.01025 7.83622C1.92879 7.81246 2.09851 8.05686 2.09851 8.05686L2.0408 8.01613C2.0408 8.01613 1.94915 7.80567 1.87108 7.7921C1.7998 7.77852 1.95933 7.96521 1.95933 7.96521L1.88805 7.92448C1.88805 7.92448 1.76925 7.70724 1.72512 7.77173C1.68439 7.83962 1.89484 7.93806 1.89484 7.93806L1.96273 7.97879C1.96273 7.97879 1.70815 7.85659 1.6776 7.91769C1.64705 7.97879 2.02722 8.01952 2.02722 8.01952L2.08832 8.06026C2.08832 8.06026 1.83374 7.99237 1.86429 8.05686C1.89824 8.12135 2.14942 8.10778 2.14942 8.10778L2.20713 8.14851C2.20713 8.14851 1.95255 8.08741 1.98649 8.14851C2.02043 8.20282 2.26823 8.19943 2.26823 8.19943L2.32933 8.25034C2.32933 8.25034 2.08153 8.18245 2.11887 8.26053C2.15282 8.3352 2.43795 8.33181 2.43795 8.33181L2.50583 8.3997C2.50583 8.3997 2.24446 8.30805 2.26823 8.37933C2.28859 8.44722 2.5873 8.48116 2.5873 8.48116L2.65519 8.54905C2.65519 8.54905 2.37345 8.4574 2.45831 8.54226C2.53978 8.63052 2.74684 8.65088 2.74684 8.65088L2.82491 8.75271C2.82491 8.75271 2.54657 8.58299 2.5873 8.67804C2.62464 8.77308 2.89959 8.83757 2.89959 8.83757L2.9539 8.90546C2.9539 8.90546 2.70271 8.7595 2.72987 8.83757C2.75363 8.92243 3.02178 9.00729 3.02178 9.00729L3.06591 9.06839C3.06591 9.06839 2.7706 8.89188 2.79436 8.98353C2.82151 9.07179 3.10325 9.13628 3.10325 9.13628L3.13719 9.19399C3.13719 9.19399 2.86564 9.03445 2.86564 9.11252C2.85885 9.1872 3.18472 9.26187 3.18472 9.26187L3.1915 9.19738Z" fill="#FDCE12"/>
</g>
</g>
</g>
<defs>
<clipPath id="clip0_186_16145">
<rect width="18" height="18" fill="white"/>
</clipPath>
</defs>
</svg>
