<svg width="18" height="18" viewBox="0 0 18 18" fill="none" xmlns="http://www.w3.org/2000/svg">
<g id="ws" clip-path="url(#clip0_186_13795)">
<g id="Group">
<path id="Vector" fill-rule="evenodd" clip-rule="evenodd" d="M0 0H18V18H0V0Z" fill="#CE1126"/>
<path id="Vector_2" fill-rule="evenodd" clip-rule="evenodd" d="M0 0H9V9H0V0Z" fill="#002B7F"/>
<path id="Vector_3" fill-rule="evenodd" clip-rule="evenodd" d="M5.16797 8.13672L4.47891 7.66914L3.81445 8.14375L4.02539 7.31758L3.39258 6.80078L4.2082 6.75508L4.47891 5.96758L4.77773 6.76914L5.5793 6.78672L4.93945 7.33164L5.16797 8.13672ZM5.04844 2.62422L4.5 2.27266L3.95859 2.62422L4.10625 1.95625L3.62461 1.53086L4.26797 1.47461L4.50703 0.859375L4.75664 1.48164L5.38945 1.53086L4.89727 1.97031L5.04844 2.62422ZM2.61211 4.60703L2.07773 4.22734L1.53633 4.59297L1.69805 3.94961L1.19531 3.52422L1.83516 3.49609L2.0707 2.85977L2.30273 3.48555L2.94609 3.52422L2.44336 3.94609L2.61211 4.60703ZM7.49883 4.16055L6.98203 3.82656L6.4793 4.16758L6.61992 3.55586L6.16289 3.16211L6.77109 3.11289L6.98203 2.53633L7.21406 3.11992L7.80469 3.15508L7.34063 3.56289L7.49883 4.16055ZM6.05391 5.6125L5.71289 5.39453L5.37539 5.6125L5.46328 5.20469L5.15742 4.93398L5.5582 4.89883L5.71289 4.51211L5.87109 4.89883L6.26484 4.93398L5.96602 5.20469L6.05391 5.6125Z" fill="white"/>
</g>
</g>
<defs>
<clipPath id="clip0_186_13795">
<rect width="18" height="18" fill="white"/>
</clipPath>
</defs>
</svg>
