<svg width="18" height="18" viewBox="0 0 18 18" fill="none" xmlns="http://www.w3.org/2000/svg">
<g id="xk" clip-path="url(#clip0_186_13800)">
<path id="Vector" d="M0 0H18V18H0V0Z" fill="#244AA5"/>
<path id="Vector_2" d="M7.1123 8.63779L7.15801 8.61318L7.21426 8.5956C7.21426 8.5956 7.24238 8.58154 7.25644 8.58154C7.27051 8.58154 7.30215 8.59912 7.30918 8.61318C7.31973 8.62724 7.36895 8.64833 7.36895 8.64833C7.36895 8.64833 7.4041 8.6624 7.40762 8.64833C7.41465 8.6413 7.42871 8.63076 7.44277 8.63076C7.45684 8.63076 7.46387 8.61669 7.46387 8.60615C7.46387 8.5956 7.4709 8.58154 7.48145 8.56747C7.49199 8.55341 7.5166 8.54638 7.5166 8.54638C7.5166 8.54638 7.55176 8.53232 7.55176 8.51122C7.55176 8.49013 7.59043 8.47607 7.61152 8.47607C7.6291 8.47255 7.61152 8.46201 7.65723 8.46904C7.70645 8.47255 7.71348 8.45849 7.71699 8.44443C7.71699 8.42685 7.71699 8.41279 7.74863 8.4163C7.77676 8.41982 7.79434 8.41982 7.79434 8.40224C7.79434 8.38818 7.82246 8.37763 7.77324 8.36708C7.72402 8.34951 7.72754 8.36005 7.72402 8.33896C7.72051 8.31435 7.72402 8.31787 7.68887 8.31435C7.65371 8.31435 7.6748 8.29677 7.67129 8.27919C7.67129 8.26162 7.66074 8.25458 7.65371 8.24404C7.64668 8.22997 7.6291 8.22997 7.6291 8.21591C7.6291 8.19833 7.6291 8.18779 7.60801 8.18779C7.58691 8.18779 7.5834 8.18779 7.5834 8.17372C7.5834 8.15615 7.58691 8.14208 7.60449 8.14208C7.62207 8.14208 7.63262 8.12802 7.6291 8.11044V8.05771L7.6502 8.02958L7.73105 7.95927C7.73809 7.94872 7.7627 7.93818 7.77324 7.95927C7.78379 7.98388 7.79082 7.99091 7.80137 8.00146C7.8084 8.01201 7.83652 8.00146 7.84355 7.99443C7.85059 7.98036 7.85059 7.94169 7.86816 7.91708C7.88574 7.89599 7.89629 7.88193 7.8998 7.86787C7.90332 7.8538 7.91035 7.83271 7.93145 7.83271C7.95254 7.83271 7.96309 7.8081 7.96309 7.79404C7.96309 7.77997 7.97012 7.7624 7.99824 7.75888C8.01934 7.75888 8.0334 7.7413 8.04043 7.7624C8.04746 7.78701 8.05449 7.78701 8.07207 7.79404C8.08613 7.80107 8.10723 7.81161 8.12129 7.80107C8.13535 7.79052 8.13887 7.77294 8.15645 7.78349C8.17402 7.79404 8.18809 7.78349 8.1916 7.7624L8.19863 7.70966C8.19863 7.70966 8.20215 7.6956 8.23379 7.6956C8.26543 7.6956 8.24082 7.67802 8.25488 7.66747C8.27246 7.65341 8.27246 7.64287 8.29004 7.6499C8.31113 7.65693 8.34277 7.64286 8.3252 7.62529C8.31113 7.60419 8.27598 7.57607 8.29355 7.55497C8.31465 7.53388 8.32168 7.49521 8.3041 7.49169C8.28301 7.48818 8.25488 7.49521 8.25137 7.47412C8.24785 7.45302 8.24082 7.43896 8.26191 7.43193C8.28652 7.43193 8.32871 7.43193 8.33926 7.41787C8.3498 7.4038 8.39199 7.40029 8.39199 7.36865C8.39199 7.33349 8.40254 7.33349 8.40605 7.3124C8.40957 7.29482 8.40957 7.25615 8.39551 7.23857C8.37828 7.22153 8.36295 7.20267 8.3498 7.18232C8.34549 7.17393 8.33953 7.16649 8.33228 7.16045C8.32504 7.15441 8.31665 7.14989 8.30762 7.14716C8.28301 7.14013 8.26191 7.13662 8.26191 7.11904C8.26191 7.09794 8.27949 7.11904 8.27949 7.07333C8.27949 7.02763 8.24434 7.01708 8.24434 7.01708L8.19863 6.98896C8.19863 6.98896 8.11426 6.96787 8.09316 6.96787C8.07207 6.96787 8.04395 6.94326 8.06855 6.92919C8.09668 6.91162 8.10371 6.88701 8.09316 6.86591C8.08262 6.84482 8.07559 6.83076 8.04043 6.82021C8.00527 6.80966 7.99473 6.80263 8.00879 6.78154C8.02637 6.76044 8.02988 6.74638 8.05098 6.76044C8.06855 6.77451 8.1002 6.78154 8.12832 6.76747C8.15293 6.75693 8.16348 6.74638 8.17754 6.76044C8.18809 6.77099 8.20566 6.78505 8.22676 6.76747C8.24434 6.74638 8.27949 6.74638 8.29707 6.75341C8.31465 6.76396 8.35332 6.76044 8.36738 6.75341C8.37793 6.74638 8.40254 6.72529 8.40254 6.71474C8.40254 6.70419 8.42012 6.67958 8.4377 6.67255C8.45176 6.66201 8.47285 6.63388 8.49043 6.63388C8.50801 6.63388 8.51152 6.6163 8.51152 6.60224C8.51152 6.58818 8.52559 6.56708 8.5291 6.56005C8.5291 6.54951 8.56426 6.53544 8.58535 6.55654C8.60996 6.57412 8.63809 6.58115 8.63809 6.58115H8.6873C8.70488 6.57412 8.72598 6.56708 8.75059 6.58115C8.77168 6.59872 8.80684 6.59872 8.80684 6.59872L8.81035 6.56357C8.81035 6.54951 8.81738 6.52841 8.80684 6.52138C8.79277 6.51083 8.77519 6.50029 8.80332 6.47919C8.82793 6.46162 8.82793 6.46513 8.85254 6.46513L8.91582 6.46865C8.93691 6.46865 8.96855 6.48622 8.96855 6.5038C8.96855 6.52138 8.98262 6.53544 8.99668 6.54247C9.01426 6.55302 9.03184 6.56005 9.02832 6.57763C9.02129 6.59169 9.02129 6.60224 9.03887 6.60224C9.05996 6.59872 9.06699 6.60927 9.06699 6.62333C9.06699 6.6374 9.07051 6.64794 9.0916 6.65497C9.1127 6.66201 9.11973 6.67255 9.11973 6.69013L9.12324 6.72529C9.12676 6.73935 9.15137 6.76396 9.15137 6.76396C9.15137 6.76396 9.18652 6.80615 9.14082 6.78505C9.09512 6.76396 9.08457 6.75693 9.07051 6.76044C9.05293 6.76044 9.04238 6.77099 9.04238 6.77099L9.00723 6.77802C8.98613 6.77802 8.97207 6.81318 8.99668 6.81669C9.0248 6.82372 9.03184 6.82724 9.03184 6.85185C9.03184 6.87646 9.0248 6.86591 9.01074 6.87997C8.99668 6.89404 8.98613 6.88701 8.96504 6.88701C8.94043 6.88701 8.93691 6.90458 8.93691 6.92216C8.93691 6.93974 8.94395 6.93622 8.95449 6.95029C8.96504 6.96787 8.98262 6.96787 8.99668 6.9538C9.01426 6.93974 9.02832 6.92919 9.03535 6.95732C9.04238 6.98544 9.05996 6.98544 9.07754 6.98544C9.09863 6.98544 9.10566 6.98544 9.11973 6.9749C9.1373 6.96787 9.15488 6.9749 9.16191 6.99951C9.16191 7.02412 9.17949 7.02763 9.19707 7.03466C9.21113 7.04521 9.22168 7.05224 9.22519 7.0663C9.22871 7.08037 9.23926 7.0874 9.25332 7.07685C9.2709 7.06982 9.29551 7.06279 9.30606 7.07685L9.33418 7.11201V7.14013L9.39746 7.16122L9.40449 7.18935C9.40449 7.20341 9.41504 7.20693 9.4291 7.20341H9.4748C9.4748 7.20341 9.49941 7.19287 9.49941 7.17529C9.49941 7.15771 9.50996 7.15419 9.52402 7.15419C9.5416 7.15419 9.57676 7.16474 9.58731 7.14716C9.59785 7.12958 9.62598 7.12255 9.64707 7.1331L9.73144 7.16474C9.73144 7.16474 9.72441 7.16474 9.74199 7.1999C9.76309 7.22802 9.79824 7.22802 9.79824 7.22802L9.80879 7.26669C9.81582 7.27724 9.84395 7.28427 9.86152 7.27372C9.87559 7.25966 9.89668 7.2456 9.91777 7.2456C9.93887 7.2456 9.95293 7.2456 9.95293 7.23505C9.95293 7.22451 9.93184 7.21396 9.93184 7.19287C9.93184 7.17529 9.95293 7.17529 9.95645 7.15771C9.95645 7.14013 9.97754 7.15771 9.9916 7.16826C10.0021 7.17529 10.0197 7.19287 10.0197 7.20341C10.0197 7.21396 10.0479 7.25615 10.0619 7.26318C10.0795 7.27021 10.1217 7.27372 10.1322 7.25615C10.1463 7.24208 10.1779 7.23505 10.1779 7.27372C10.1744 7.30888 10.1674 7.30888 10.1885 7.32294C10.2131 7.33701 10.2166 7.37919 10.1955 7.38974C10.1779 7.40029 10.1709 7.4038 10.1709 7.4249C10.1709 7.44599 10.1639 7.4706 10.1779 7.48115C10.1955 7.49521 10.2061 7.50224 10.2061 7.5163C10.2061 7.53037 10.2236 7.5831 10.2236 7.5831C10.2236 7.5831 10.2342 7.63583 10.2307 7.64638C10.2271 7.65693 10.2236 7.68154 10.2518 7.67802C10.2799 7.67451 10.2869 7.67451 10.2869 7.69912C10.2869 7.72372 10.2975 7.73427 10.2799 7.7413C10.2658 7.74833 10.2553 7.77646 10.2693 7.78701C10.2869 7.79052 10.301 7.80107 10.3045 7.81162C10.3045 7.82568 10.3326 7.84677 10.3502 7.83271C10.3643 7.82216 10.3678 7.81513 10.3818 7.81162C10.3959 7.81162 10.4029 7.80107 10.3924 7.78701C10.3783 7.76943 10.3748 7.75537 10.3889 7.74482C10.4029 7.73779 10.4064 7.70966 10.4064 7.70966C10.4064 7.70966 10.4275 7.68154 10.4486 7.70966C10.4732 7.73427 10.4768 7.72372 10.4908 7.72372C10.5084 7.72372 10.5154 7.7413 10.5154 7.75537C10.5154 7.76943 10.5506 7.76591 10.5506 7.79052L10.5541 7.87138C10.5541 7.87138 10.5541 7.90654 10.5752 7.91708C10.5928 7.93115 10.5893 7.93115 10.5787 7.94872C10.5717 7.96279 10.5752 7.98388 10.5752 7.99794C10.5752 8.01201 10.5787 8.01552 10.5646 8.02958C10.5471 8.04013 10.54 8.05419 10.5506 8.07177C10.5611 8.09287 10.5576 8.10341 10.5857 8.12451C10.6104 8.1456 10.6068 8.15615 10.6068 8.17021C10.6068 8.18427 10.6314 8.20537 10.6314 8.21943C10.6314 8.23701 10.6525 8.25458 10.6666 8.25458C10.6807 8.25458 10.7018 8.28622 10.7018 8.30029L10.7088 8.35654C10.7088 8.35654 10.7053 8.36357 10.7229 8.36357C10.7439 8.36357 10.758 8.38466 10.7615 8.36357C10.7686 8.33896 10.7896 8.33544 10.8002 8.32841C10.8143 8.32138 10.8424 8.31083 10.8529 8.31787C10.867 8.32841 10.8846 8.32841 10.8951 8.32841H10.9725C10.9725 8.32841 10.9865 8.32841 10.9971 8.35302C11.0076 8.37763 11.0357 8.40224 11.0217 8.4163C11.0041 8.42685 11.0041 8.45146 11.0217 8.45146C11.0428 8.45146 11.0639 8.45146 11.0639 8.46552C11.0639 8.4831 11.0639 8.49365 11.0814 8.4831C11.099 8.47255 11.1096 8.47255 11.1166 8.4831C11.1201 8.49716 11.1342 8.49716 11.1518 8.50419C11.1658 8.51474 11.1729 8.50771 11.1834 8.49716C11.1939 8.4831 11.2326 8.47255 11.2326 8.47255C11.2326 8.47255 11.2854 8.46201 11.3029 8.46552L11.3486 8.4831C11.3486 8.4831 11.3627 8.51474 11.3557 8.53232C11.3486 8.5499 11.3416 8.54638 11.3486 8.57451C11.3557 8.60263 11.3416 8.60615 11.3311 8.60263C11.317 8.59912 11.3029 8.59912 11.3029 8.62372C11.3029 8.64833 11.2889 8.65185 11.2889 8.67294C11.2889 8.69404 11.2889 8.69052 11.2783 8.70107C11.2643 8.7081 11.2607 8.72568 11.2783 8.72919C11.2994 8.72919 11.2924 8.75029 11.2924 8.76435V8.79951C11.2924 8.79951 11.2924 8.81708 11.2713 8.81708C11.2467 8.81708 11.2291 8.81708 11.2256 8.83115C11.2221 8.84521 11.1975 8.8663 11.2186 8.88388C11.2432 8.89794 11.2361 8.90849 11.2221 8.91201C11.208 8.91904 11.201 8.94716 11.2221 8.95771C11.2502 8.96826 11.2467 8.97529 11.2326 8.98935C11.215 8.9999 11.1834 9.01044 11.1834 9.02451C11.1834 9.0456 11.1764 9.0456 11.1553 9.04912C11.1342 9.05263 11.1271 9.07372 11.1518 9.10537C11.1729 9.13701 11.1799 9.12998 11.1975 9.12998C11.2115 9.12998 11.2115 9.10537 11.2115 9.10537H11.2818C11.2994 9.10537 11.324 9.10536 11.3346 9.09833C11.3486 9.0913 11.3838 9.07372 11.3838 9.10185C11.3838 9.12997 11.3908 9.12646 11.4084 9.13701C11.4225 9.15107 11.426 9.14052 11.4436 9.1581C11.4541 9.17568 11.4576 9.16162 11.4646 9.14052C11.4752 9.11943 11.4963 9.09833 11.5104 9.12294C11.5244 9.14755 11.5279 9.14052 11.5455 9.14052C11.5666 9.14052 11.5736 9.15107 11.5736 9.16513C11.5736 9.17919 11.5947 9.17919 11.6158 9.17568C11.6369 9.17216 11.6404 9.18974 11.651 9.2038C11.6615 9.21786 11.665 9.21787 11.6791 9.21787C11.6896 9.21787 11.7037 9.21786 11.7143 9.2038C11.7248 9.19326 11.7354 9.17568 11.7494 9.19677C11.7635 9.21787 11.7881 9.21083 11.7951 9.18974C11.8021 9.16865 11.8303 9.15107 11.8479 9.17568C11.8619 9.19677 11.876 9.19677 11.8936 9.20029C11.9076 9.2038 11.9322 9.2038 11.9428 9.21787C11.9533 9.23544 11.985 9.26005 11.9604 9.27763C11.9393 9.29521 11.9111 9.31982 11.9322 9.32333C11.9533 9.33037 11.9674 9.3374 11.9779 9.35146C11.992 9.36552 12.0342 9.37255 12.0518 9.37607C12.0729 9.37607 12.0869 9.3831 12.1115 9.36201C12.1326 9.34443 12.1572 9.34443 12.1537 9.36904C12.1502 9.39365 12.1643 9.42177 12.1643 9.42177C12.1643 9.42177 12.1783 9.45693 12.1783 9.47451C12.1783 9.48857 12.1783 9.49208 12.2064 9.50966C12.2346 9.52724 12.2311 9.5413 12.2557 9.52372C12.2768 9.50263 12.2838 9.4956 12.2838 9.48154V9.43232C12.2838 9.43232 12.3189 9.42529 12.3295 9.41826C12.34 9.41122 12.3963 9.3831 12.4068 9.39365C12.4174 9.40419 12.4385 9.40068 12.449 9.39365H12.5018C12.5158 9.39365 12.5369 9.39365 12.565 9.37255C12.5896 9.35146 12.5896 9.35849 12.6072 9.37255C12.6248 9.38662 12.6213 9.40771 12.6143 9.41826C12.6037 9.4288 12.6143 9.45341 12.6354 9.45341C12.66 9.45341 12.6635 9.46747 12.6635 9.48505L12.6705 9.53076C12.674 9.54482 12.674 9.54833 12.7092 9.55888C12.7443 9.56591 12.7408 9.58701 12.7443 9.60458C12.7514 9.61865 12.7514 9.62919 12.7338 9.62919C12.7127 9.62919 12.7057 9.63974 12.7057 9.6538C12.7021 9.66787 12.6705 9.6749 12.6705 9.6749L12.6424 9.66787C12.6424 9.66787 12.6213 9.66787 12.6143 9.68193C12.6037 9.69247 12.5826 9.71708 12.5967 9.73818C12.6107 9.75927 12.6107 9.77333 12.5967 9.78037C12.5826 9.79091 12.5756 9.8331 12.5615 9.82607C12.5475 9.81904 12.5334 9.82607 12.5229 9.8331C12.5088 9.84013 12.5123 9.88232 12.5369 9.89638C12.565 9.91396 12.5721 9.93154 12.5721 9.93154L12.6002 9.97724L12.5826 10.0018C12.5756 10.0159 12.558 10.0476 12.5756 10.0546C12.5932 10.0616 12.5861 10.0897 12.5686 10.0897C12.5475 10.0897 12.5264 10.0827 12.5229 10.1073C12.5193 10.1319 12.5088 10.1249 12.4877 10.1214C12.4701 10.1214 12.4174 10.1073 12.4068 10.1319C12.3963 10.1565 12.3928 10.1671 12.3717 10.1601C12.3471 10.1601 12.3541 10.1952 12.3611 10.2128C12.3682 10.2268 12.3928 10.2479 12.3928 10.2479C12.3928 10.2479 12.4104 10.262 12.4104 10.2936C12.4104 10.3253 12.3963 10.3218 12.3857 10.3007C12.3752 10.2796 12.3471 10.2831 12.3436 10.3042C12.34 10.3288 12.3365 10.364 12.3119 10.364C12.2908 10.364 12.2803 10.371 12.2697 10.3851C12.2627 10.3956 12.2451 10.4167 12.2451 10.4272C12.2451 10.4378 12.2416 10.4518 12.224 10.4554C12.21 10.4554 12.2064 10.4905 12.2064 10.4905C12.2064 10.4905 12.1678 10.4976 12.1643 10.5116C12.1607 10.5257 12.1643 10.5503 12.1326 10.5538C12.101 10.5573 12.0834 10.5784 12.0729 10.5925C12.0623 10.6101 12.0588 10.6206 12.0729 10.6347C12.0869 10.6487 12.0939 10.6979 12.108 10.705C12.1291 10.7155 12.1432 10.719 12.1361 10.7401C12.1361 10.7683 12.115 10.7858 12.1396 10.7858C12.1678 10.7858 12.1818 10.7929 12.1748 10.814C12.1643 10.8351 12.1643 10.8351 12.1432 10.8456C12.1256 10.8561 12.115 10.8561 12.115 10.8808C12.115 10.9054 12.1221 10.9018 12.1045 10.9124C12.0869 10.9194 12.0869 10.9335 12.0869 10.9476C12.0869 10.9686 12.0834 10.9616 12.0623 10.9827C12.0412 11.0038 12.0166 11.0038 11.999 10.9968C11.985 10.9933 11.9814 10.9933 11.9779 10.9757C11.9744 10.9546 11.9428 10.9546 11.9287 10.9581C11.9111 10.9616 11.89 10.9792 11.89 10.9792C11.89 10.9792 11.8619 10.9968 11.8725 11.0143C11.8865 11.0284 11.8795 11.0495 11.8584 11.0495C11.8338 11.0495 11.7811 11.0741 11.767 11.0495C11.7494 11.0179 11.7037 11.0003 11.6967 11.039C11.6896 11.0741 11.7178 11.0706 11.7143 11.1093C11.7107 11.1444 11.7037 11.1444 11.6896 11.155C11.6791 11.1655 11.6791 11.1761 11.6756 11.1901C11.6721 11.2042 11.6686 11.2393 11.6896 11.2499C11.7143 11.264 11.7248 11.2956 11.7248 11.3132C11.7248 11.3308 11.7248 11.3483 11.7459 11.3483C11.7705 11.3483 11.7881 11.3483 11.7916 11.3237C11.7951 11.3026 11.8408 11.2921 11.8443 11.3343C11.8479 11.3765 11.8443 11.3976 11.8654 11.4151C11.8795 11.4327 11.8936 11.4573 11.9076 11.4679C11.9217 11.4784 11.9428 11.5522 11.9428 11.5522C11.9076 11.5593 11.9006 11.6015 11.8795 11.6085C11.8689 11.612 11.8584 11.6085 11.8443 11.6155C11.8373 11.6226 11.8373 11.6331 11.8268 11.6401C11.8021 11.6507 11.8092 11.612 11.7775 11.6261C11.7529 11.6366 11.7494 11.6683 11.7143 11.6542C11.6932 11.6472 11.6791 11.5733 11.6756 11.5558C11.6756 11.5452 11.651 11.5136 11.6439 11.503C11.6229 11.4679 11.5807 11.503 11.5666 11.4925C11.542 11.4784 11.5525 11.4503 11.5209 11.4503C11.4506 11.4433 11.4998 11.489 11.4717 11.4995C11.4189 11.5206 11.4189 11.4503 11.3768 11.4819C11.3627 11.4925 11.4014 11.503 11.3908 11.5241C11.3838 11.5382 11.3416 11.5663 11.3451 11.5874C11.3486 11.6155 11.3803 11.6226 11.3873 11.6472C11.4119 11.7069 11.3732 11.7526 11.31 11.7034C11.2748 11.6753 11.2713 11.6261 11.2186 11.6296C11.2045 11.6296 11.201 11.6401 11.1869 11.6436C11.1764 11.6436 11.1658 11.6331 11.1518 11.6366C11.1342 11.6436 11.1518 11.6577 11.1482 11.6683L11.1166 11.6964C11.1025 11.714 11.1061 11.7315 11.085 11.7491C11.0674 11.7597 11.0533 11.7526 11.0357 11.7737C11.0146 11.7948 11.0111 11.8265 10.9865 11.8476C10.9725 11.8581 10.9654 11.8159 10.9514 11.8476C10.9443 11.8476 10.9443 11.8511 10.9408 11.8546V11.8757C10.976 11.946 10.9057 11.9671 10.8811 12.0163C10.8705 12.0339 10.8986 12.0515 10.8881 12.0655C10.8811 12.0796 10.8494 12.1077 10.8459 12.1147C10.8459 12.1218 10.8424 12.1358 10.8354 12.1429C10.8283 12.1499 10.8107 12.1429 10.8072 12.1534C10.8072 12.164 10.8283 12.1745 10.8354 12.1815C10.8424 12.1886 10.8318 12.1991 10.8354 12.2026C10.8705 12.2378 10.8494 12.2272 10.867 12.2589C10.867 12.2659 10.8811 12.2589 10.8846 12.2694C10.8881 12.28 10.8775 12.28 10.8811 12.2905L10.9092 12.3292C10.9092 12.3397 10.8564 12.3644 10.8459 12.3644C10.8143 12.3644 10.874 12.3011 10.8213 12.3011C10.8002 12.3011 10.8002 12.3503 10.7932 12.3573H10.765C10.7334 12.3573 10.7123 12.396 10.6982 12.3995H10.6596C10.6455 12.3995 10.6314 12.4136 10.6174 12.4136C10.6104 12.4136 10.6068 12.4065 10.5998 12.403L10.5436 12.3854C10.533 12.3854 10.5154 12.3995 10.5084 12.3925C10.5014 12.389 10.5189 12.3679 10.4943 12.3573L10.4732 12.3081C10.4803 12.28 10.4908 12.2483 10.4873 12.2202C10.4803 12.1851 10.4346 12.1604 10.417 12.1358C10.41 12.1183 10.4029 12.0655 10.3818 12.055C10.3612 12.039 10.3444 12.0185 10.3326 11.9952C10.3326 11.9882 10.3396 11.9776 10.3326 11.9671C10.3256 11.9565 10.308 11.953 10.3045 11.939C10.301 11.9249 10.3045 11.8862 10.2904 11.8792C10.2764 11.8686 10.1744 11.8581 10.1498 11.8546C10.1393 11.8546 10.1287 11.8546 10.1182 11.844L10.1041 11.8265L10.0725 11.83H10.0479C10.0127 11.8511 10.0092 11.8792 9.97754 11.9003C9.9459 11.9284 9.91426 11.9249 9.88262 11.953C9.86152 11.9706 9.84746 12.0128 9.82988 12.0304C9.82285 12.0409 9.80879 12.0304 9.80527 12.0339L9.74902 12.0866C9.74902 12.0866 9.74902 12.0972 9.74199 12.1007L9.70684 12.1077H9.67168C9.65762 12.1147 9.65762 12.1323 9.60137 12.1429L9.59082 12.1499L9.56973 12.1675H9.54863C9.53457 12.1675 9.52402 12.178 9.51348 12.1815C9.48184 12.1815 9.43613 12.1675 9.41504 12.178C9.40098 12.1815 9.3623 12.2237 9.34473 12.2272H9.32363C9.3166 12.2272 9.30605 12.2765 9.30254 12.287L9.23223 12.3468L9.21465 12.3749C9.20762 12.3819 9.19707 12.389 9.18652 12.389C9.17246 12.389 9.15137 12.3784 9.14082 12.3749C9.11621 12.3749 9.0459 12.3679 9.02481 12.3749C9.00371 12.3749 9.01074 12.4417 8.95449 12.4452L8.85957 12.4593C8.85957 12.4593 8.83848 12.4452 8.81738 12.4522C8.81035 12.4522 8.78926 12.4769 8.78926 12.4874V12.4979L8.79277 12.5085C8.78223 12.5261 8.7541 12.5436 8.74355 12.5647L8.73652 12.5753C8.72949 12.5823 8.69082 12.5964 8.6873 12.6034C8.67676 12.6245 8.71191 12.6456 8.7084 12.6561C8.70137 12.6843 8.65918 12.7124 8.64863 12.7405C8.64512 12.7511 8.6627 12.7862 8.65918 12.8003C8.65918 12.8354 8.64512 12.8811 8.64512 12.9163L8.65215 12.962L8.67324 12.9761C8.67676 12.9831 8.72246 13.0675 8.72246 13.078C8.72949 13.1378 8.6416 13.1167 8.69434 13.18L8.71543 13.2081L8.79629 13.2714C8.79629 13.2819 8.74004 13.2925 8.73301 13.2995C8.70488 13.3276 8.68379 13.3733 8.65918 13.4015C8.6416 13.4155 8.62754 13.4015 8.60996 13.4366C8.60293 13.4507 8.60996 13.4823 8.59941 13.4929C8.58535 13.5069 8.5748 13.4858 8.56426 13.4929C8.55723 13.4929 8.55371 13.514 8.5502 13.5175C8.53262 13.528 8.40254 13.5983 8.39199 13.5913C8.38496 13.5913 8.37793 13.5667 8.37793 13.5597C8.3744 13.549 8.36837 13.5394 8.36035 13.5315C8.3252 13.5034 8.27598 13.4964 8.24434 13.5315C8.23379 13.5421 8.23379 13.5561 8.22324 13.5667L8.16699 13.6089C8.16699 13.6089 8.15645 13.6229 8.14941 13.6194C8.13887 13.6194 8.10723 13.5843 8.09668 13.5737C8.08262 13.5561 8.04043 13.514 8.03691 13.4964C8.03691 13.4261 7.98418 13.3593 7.96309 13.2925H7.99824C8.0334 13.2714 8.02285 13.2081 8.08613 13.2327C8.09668 13.2222 8.09316 13.2116 8.11074 13.2011C8.11777 13.2011 8.12832 13.194 8.12832 13.1905C8.15293 13.1554 8.17754 13.0288 8.15645 12.9936C8.13535 12.9655 8.11426 12.9655 8.09668 12.9163V12.8741C8.09668 12.8601 8.07207 12.7897 8.06855 12.7827C8.06504 12.7792 8.05098 12.7722 8.05098 12.7651C8.05098 12.7616 8.04394 12.6843 8.04746 12.6772C8.02637 12.6175 7.94902 12.5788 7.94551 12.5718L7.91738 12.5226C7.90684 12.505 7.90684 12.4944 7.8998 12.4768C7.8998 12.4698 7.88574 12.4628 7.88574 12.4522C7.88574 12.4382 7.92793 12.403 7.92793 12.3784C7.92793 12.3679 7.8998 12.3433 7.90332 12.3257C7.91035 12.3116 7.93848 12.2765 7.93848 12.2554C7.93848 12.2343 7.89277 12.1851 7.88574 12.1604C7.88574 12.1464 7.90332 12.1358 7.8998 12.1288L7.84004 12.0655C7.83652 12.055 7.85762 12.0444 7.84004 12.0304C7.82598 12.0128 7.84004 12.0198 7.83652 12.0058L7.8084 11.9636L7.7627 11.8019C7.75566 11.7913 7.74512 11.7843 7.7416 11.7737L7.72754 11.7386C7.72754 11.7386 7.68184 11.7245 7.6748 11.7104C7.66777 11.6999 7.66777 11.6683 7.65371 11.6507C7.6502 11.6401 7.63965 11.6436 7.63262 11.6366L7.62559 11.619C7.61152 11.6015 7.58691 11.619 7.56934 11.5487L7.49902 11.4995L7.49199 11.489C7.47441 11.4819 7.4498 11.4819 7.43574 11.4679L7.37949 11.4643L7.36543 11.4433C7.34434 11.4362 7.30566 11.4397 7.28809 11.4222C7.27051 11.4081 7.26699 11.3448 7.24238 11.3518H7.22832C7.21074 11.3272 7.15098 11.3237 7.12285 11.3097C7.11582 11.3061 7.09473 11.3097 7.09473 11.3026L7.09824 11.2675L7.06309 11.2288C7.04199 11.2218 7.05254 11.2183 7.03496 11.2112C6.99629 11.2077 6.99277 11.2112 6.96465 11.2394L6.93652 11.2499C6.92246 11.2569 6.91895 11.2851 6.90137 11.271L6.88379 11.2569C6.87324 11.2464 6.86621 11.2534 6.8627 11.2358C6.82754 11.2183 6.73613 11.278 6.71504 11.2358C6.69746 11.2253 6.68691 11.2358 6.67285 11.2253C6.66582 11.2183 6.69043 11.1409 6.62363 11.1128L6.67285 11.0776V11.0495C6.67285 11.039 6.67988 11.0143 6.67637 11.0038L6.6623 10.9757C6.65527 10.9651 6.6623 10.9546 6.65527 10.9405L6.63418 10.93C6.6166 10.9159 6.59902 10.9089 6.58496 10.8913L6.57441 10.8772C6.56387 10.8702 6.52168 10.8561 6.5252 10.8386C6.5252 10.8315 6.53223 10.8315 6.53574 10.8245C6.53574 10.8175 6.53574 10.8069 6.54277 10.7999C6.56035 10.7753 6.60254 10.7858 6.59551 10.7401C6.59551 10.719 6.57793 10.7015 6.57441 10.6769L6.56035 10.6593C6.51816 10.6558 6.5252 10.6136 6.51113 10.603C6.46543 10.5749 6.43379 10.5925 6.48301 10.5327C6.49004 10.5151 6.44082 10.4835 6.43027 10.4765C6.41269 10.4589 6.42324 10.4237 6.41621 10.4061C6.4127 10.3956 6.38105 10.3815 6.37402 10.371L6.35996 10.3429V10.3358C6.37051 10.3288 6.36699 10.3183 6.35996 10.3077C6.35996 10.3007 6.3459 10.3042 6.34238 10.3007C6.30019 10.2655 6.25449 10.2479 6.20176 10.2304C6.18769 10.2233 6.19473 10.2128 6.18066 10.2058L6.0998 10.1706C6.08926 10.1706 6.08574 10.139 6.07871 10.1319C6.07225 10.1212 6.06391 10.1116 6.0541 10.1038C6.0541 10.0757 6.03652 10.0722 6.01895 10.0581L6.01191 10.0405L6.02949 9.98076C6.03301 9.97021 6.04707 9.95966 6.04707 9.9456L6.03301 9.88232C6.01191 9.82607 5.9873 9.8331 5.99785 9.75576C6.00137 9.73818 5.99785 9.73115 6.0084 9.71708L6.01543 9.70654L6.05059 9.68193C6.06113 9.66787 6.06816 9.62919 6.08574 9.61865C6.09277 9.6081 6.12793 9.59052 6.13144 9.58349C6.13848 9.57646 6.14551 9.55888 6.14199 9.54833H6.10684C6.10332 9.54833 6.08926 9.53427 6.0752 9.53427L6.06816 9.52021L6.06113 9.51318L6.02598 9.50263C6.0084 9.4956 5.99082 9.4956 5.97324 9.48505C5.94863 9.47099 5.92051 9.4288 5.89238 9.42529C5.85723 9.41826 5.83613 9.42529 5.80449 9.42529C5.7834 9.4288 5.7834 9.41826 5.76934 9.41123C5.74473 9.40419 5.7623 9.42529 5.70957 9.40771C5.70254 9.40068 5.70957 9.3831 5.71309 9.37607C5.70605 9.37607 5.69551 9.37958 5.68496 9.37607C5.64277 9.36552 5.65684 9.32685 5.6498 9.30576C5.64277 9.29521 5.6252 9.29872 5.61465 9.29872V9.28818C5.6252 9.27763 5.60059 9.24951 5.60059 9.24599C5.60059 9.23544 5.65332 9.22841 5.66035 9.22841C5.66387 9.22138 5.65684 9.21435 5.65684 9.20732L5.66738 9.1581L5.63223 9.12294C5.63574 9.11943 5.64629 9.1124 5.64629 9.10537C5.6709 9.03505 5.70957 9.0913 5.74473 9.02802L5.7623 8.99287H5.76934L5.79043 8.9999C5.79395 8.99287 5.80449 8.98935 5.81152 8.98583L5.82559 8.98935C5.88887 8.97529 5.8748 8.95419 5.90996 8.92607C5.92051 8.91904 5.94863 8.91904 5.9627 8.91201C5.97676 8.91904 5.99785 8.94013 6.02246 8.95068C6.04004 8.95771 6.10332 8.97177 6.11387 8.9788C6.12793 8.98583 6.13145 9.00341 6.14551 9.01044C6.18066 9.02802 6.15957 8.99638 6.19473 9.00341C6.22988 9.01044 6.25801 9.03857 6.29316 9.05263H6.31777C6.32832 9.05263 6.38809 9.03857 6.3916 9.04208L6.41621 9.05263C6.42324 9.05263 6.43027 9.03505 6.43379 9.03505C6.4584 9.03857 6.46191 9.04911 6.49355 9.0456C6.49355 9.0456 6.51113 8.95419 6.52871 8.95068C6.53574 8.95068 6.56035 8.97177 6.56387 8.97529C6.57793 8.97529 6.56387 8.95419 6.56387 8.95419C6.56387 8.94716 6.54277 8.89091 6.54629 8.88388C6.54629 8.88388 6.56035 8.89091 6.56738 8.88388C6.58848 8.88388 6.60957 8.87685 6.62363 8.86279L6.65527 8.8206C6.65527 8.81357 6.64824 8.79599 6.65176 8.79247L6.67637 8.7749C6.68691 8.76435 6.69043 8.74677 6.70449 8.73974C6.76426 8.73271 6.78184 8.68701 6.83457 8.67997H6.85215L6.8627 8.69755C6.86621 8.70107 6.89785 8.72216 6.9084 8.72216L6.91895 8.71162C6.92949 8.71162 6.95762 8.69404 6.96113 8.68349C6.96113 8.68349 6.9541 8.67646 6.96113 8.66943C6.96113 8.66591 6.99629 8.63427 7.00332 8.63427H7.04199L7.05957 8.65185H7.09121C7.09824 8.65185 7.10176 8.63779 7.10879 8.63427L7.1123 8.63779Z" fill="#D0A650"/>
<path id="Vector_3" d="M9.89336 4.375L10.3469 5.7707L9.15859 4.90937H10.6246L9.43984 5.7707L9.89336 4.375ZM11.6582 4.68789L12.1117 6.08359L10.9234 5.22227H12.393L11.2047 6.08008L11.6582 4.68789ZM13.3422 5.29961L13.7992 6.69531L12.6109 5.83398H14.077L12.8887 6.69531L13.3422 5.29961ZM8.10039 4.375L7.64336 5.7707L8.83164 4.90937H7.36563L8.55391 5.7707L8.09688 4.375H8.10039ZM6.33555 4.68789L5.87852 6.08359L7.0668 5.22227H5.60078L6.78555 6.08008L6.32852 4.68438L6.33555 4.68789ZM4.65859 5.29961L5.11211 6.69531L3.92383 5.83398H5.38984L4.20508 6.69531L4.65859 5.29961Z" fill="white"/>
</g>
<defs>
<clipPath id="clip0_186_13800">
<rect width="18" height="18" fill="white"/>
</clipPath>
</defs>
</svg>
