<svg width="18" height="18" viewBox="0 0 18 18" fill="none" xmlns="http://www.w3.org/2000/svg">
<g id="zm" clip-path="url(#clip0_186_13828)">
<g id="Clip path group">
<mask id="mask0_186_13828" style="mask-type:luminance" maskUnits="userSpaceOnUse" x="-1" y="0" width="19" height="18">
<g id="zm-a">
<path id="Vector" d="M-0.000976562 0H17.9963V17.9972H-0.000976562V0Z" fill="white"/>
</g>
</mask>
<g mask="url(#mask0_186_13828)">
<g id="Group">
<path id="Vector_2" fill-rule="evenodd" clip-rule="evenodd" d="M-9 0H17.9959V17.9972H-9V0Z" fill="#198A00"/>
<path id="Vector_3" fill-rule="evenodd" clip-rule="evenodd" d="M14.8318 6.46484H17.9958V17.9961H14.8281L14.8318 6.46484Z" fill="#EF7D00"/>
<path id="Vector_4" fill-rule="evenodd" clip-rule="evenodd" d="M11.668 6.45703H14.832V17.9956H11.668V6.45703Z" fill="#000001"/>
<path id="Vector_5" fill-rule="evenodd" clip-rule="evenodd" d="M8.43457 6.46875H11.6639V17.9964H8.43457V6.46875Z" fill="#DE2010"/>
<g id="Group_2">
<path id="Vector_6" fill-rule="evenodd" clip-rule="evenodd" d="M15.8775 2.30462C15.8775 2.30462 17.0713 1.79663 17.1838 1.69141C17.2382 1.75309 16.7085 2.39533 15.678 2.63481C16.6141 2.40984 17.4124 1.71681 17.572 1.73858C17.6192 1.74946 17.6083 2.4171 15.4675 2.99403C16.9479 2.60578 17.8115 1.89097 17.8006 1.9708C17.8115 1.98531 17.6555 2.53321 16.3565 2.95774C16.7194 2.87429 17.699 2.27559 17.6882 2.3917C17.7208 2.43887 16.7375 3.69795 14.9632 3.28794C16.3783 3.65804 17.2999 2.76906 17.4305 2.78358C17.4596 2.79083 17.1693 3.56007 15.3841 3.60724C16.2404 3.52016 15.9937 3.60361 15.9937 3.60361C15.9937 3.60361 15.4857 3.99912 14.8797 3.73061C15.3587 3.86124 15.4095 3.86486 15.4204 3.90841C15.3877 3.9592 14.9958 4.03903 14.6148 3.83584C14.9196 3.9592 15.1954 3.98098 15.199 4.02815C15.1454 4.06617 15.0833 4.09037 15.0181 4.09859C14.9529 4.10682 14.8867 4.09883 14.8253 4.07532C14.6547 3.99912 13.0546 3.0158 13.0546 3.0158L15.7759 2.26833L15.8775 2.30462ZM12.6772 4.96429C12.6472 4.96075 12.6167 4.96351 12.5878 4.9724C12.5589 4.98129 12.5321 4.9961 12.5093 5.0159C12.4864 5.03571 12.4679 5.06006 12.455 5.08741C12.442 5.11475 12.4349 5.1445 12.4341 5.17474C12.4341 5.17474 12.4124 5.19289 12.4269 5.29448C12.4434 5.26253 12.4628 5.23217 12.4849 5.20377C12.5103 5.20377 12.6228 5.24006 12.7933 5.1058C12.6373 5.26908 12.7317 5.33077 12.7317 5.33077C12.7317 5.33077 12.6954 5.46139 12.8151 5.48679C12.7788 5.43237 12.8006 5.38882 12.8006 5.38882C12.8006 5.38882 12.9675 5.37068 12.9566 5.16386C12.9639 5.34891 13.0655 5.39608 13.0655 5.39608C13.0655 5.39608 13.0655 5.49768 13.1743 5.50494C13.1163 5.45414 13.1272 5.37431 13.1272 5.37431C13.1272 5.37431 13.2723 5.26908 13.1489 5.09492C13.2215 5.055 13.2832 4.93889 13.2832 4.93889C13.2832 4.93889 13.1816 4.89535 13.138 4.85907C13.1163 4.81552 13.138 4.56153 13.138 4.56153L13.0764 4.23497L12.9058 4.74296C12.9131 4.67039 12.9167 4.96066 12.6772 4.96066V4.96429Z" fill="#EF7D00" stroke="black" stroke-width="0.92889" stroke-linejoin="round"/>
<path id="Vector_7" fill-rule="evenodd" clip-rule="evenodd" d="M13.8595 4.22931C13.8632 4.23656 14.0409 4.42887 14.2079 4.41799C14.2695 4.36719 14.0736 4.25108 14.0736 4.22568C14.1462 4.28736 14.4328 4.5341 14.6179 4.44339C14.6904 4.34179 14.4836 4.3563 14.2587 4.07328C14.4147 4.17851 14.8102 4.41073 14.9952 4.32002C15.0714 4.23656 14.5852 3.97168 14.4219 3.76849L14.001 3.55078L13.4277 4.02248L13.8595 4.22931Z" fill="#EF7D00" stroke="black" stroke-width="0.92889" stroke-linejoin="round"/>
<path id="Vector_8" fill-rule="evenodd" clip-rule="evenodd" d="M13.2139 2.63054C13.2139 2.63054 13.4098 2.51443 14.1863 2.57248C14.2698 2.58337 14.7161 2.42009 14.8576 2.37292C15.0825 2.333 15.801 2.17335 15.9969 2.02821C16.1348 2.01007 15.9606 2.2822 15.7865 2.34389C15.605 2.42734 14.9374 2.65956 14.6979 2.62691C14.9846 2.63054 14.8249 2.86276 14.3532 2.75028C14.5782 2.87727 14.4983 2.89904 14.4983 2.89904C14.4983 2.89904 14.0992 2.92082 13.9904 2.8301C14.2589 2.9317 14.15 2.96799 14.15 2.96799C14.15 2.96799 13.8742 2.99338 13.7509 2.93533C13.9432 2.99338 13.8452 3.02967 13.8452 3.02967C13.8452 3.02967 13.6856 3.05507 13.5549 3.0079C13.4243 2.96073 13.2248 2.63054 13.2139 2.63054Z" fill="#EF7D00" stroke="black" stroke-width="0.92889" stroke-linecap="round" stroke-linejoin="round"/>
<path id="Vector_9" fill-rule="evenodd" clip-rule="evenodd" d="M13.5261 4.33483L13.5551 4.85007L13.5261 4.88998C13.5116 4.90813 13.1633 4.83556 13.2104 5.10769C13.2104 5.21655 13.2104 5.24195 13.283 5.30363C13.2649 5.23106 13.2721 5.18026 13.2721 5.18026C13.2721 5.18026 13.3701 5.24195 13.4681 5.07866C13.4028 5.23832 13.4499 5.29637 13.4644 5.29637C13.479 5.32903 13.439 5.45965 13.5697 5.45603C13.5189 5.40886 13.5443 5.33629 13.5443 5.33629C13.5443 5.33629 13.6821 5.31452 13.6313 5.06415C13.6821 5.01335 13.7039 5.06415 13.7039 5.06415C13.7039 5.06415 13.7184 5.20929 13.8382 5.18026C13.8926 5.21292 13.8309 5.29274 13.8309 5.29274C13.8309 5.29274 13.918 5.29274 13.9434 5.22017C13.9724 5.14761 14.0015 5.01335 13.8563 4.95892C13.8382 4.9045 13.9144 4.90087 13.9144 4.90087C13.9144 4.90087 14.0051 4.9299 14.0341 4.97707C14.0595 5.02424 14.0486 4.85733 13.9361 4.83918C13.7946 4.83556 13.7874 4.8029 13.7874 4.79927L13.7511 4.32031L13.5261 4.33483Z" fill="#EF7D00" stroke="black" stroke-width="0.92889" stroke-linejoin="round"/>
<path id="Vector_10" fill-rule="evenodd" clip-rule="evenodd" d="M14.0158 4.77565C14.0158 4.75025 13.7763 4.42731 13.8344 4.38377C13.8961 4.39828 13.9977 4.54705 14.0775 4.49625C14.0557 4.4382 13.9832 4.47085 13.8961 4.32572C13.8163 4.15881 13.8054 3.90844 13.5151 3.6363C13.7038 3.92658 14.1283 4.09349 14.1465 4.00641C14.1646 3.91933 13.7727 3.60728 13.7909 3.52745C13.8671 3.6871 14.2626 4.03544 14.5528 4.01004C14.571 3.9411 14.3134 3.80321 14.248 3.67622C14.0666 3.55285 13.5695 3.12469 13.5586 3.02672C13.4728 2.87821 13.355 2.75057 13.2139 2.65299C13.1922 2.63122 13.1885 2.60582 13.1849 2.5913C13.0724 2.33005 13.2212 2.24297 13.3083 2.22846C13.3808 2.22483 13.399 2.23208 13.4534 2.21031L13.2684 2.13774C13.3482 2.1958 13.5514 2.145 13.5042 2.31191C13.5949 2.27925 13.7836 2.05792 13.2901 2.00349C13.1305 1.82207 12.4737 1.71321 12.3104 2.51511C12.3213 2.52599 12.3286 2.53688 12.3721 2.56953C12.1617 2.46794 11.6029 2.38811 11.3997 2.35908C10.8554 2.19943 10.2894 1.82207 10.235 1.86561C10.1624 1.90189 10.5615 2.27563 10.5434 2.28288C10.1914 2.07969 9.87573 1.93455 9.5782 1.80392C9.36775 1.7241 9.16092 1.54267 9.13552 1.57896C9.06295 1.73861 9.47297 2.13774 9.54917 2.18491C9.62174 2.22846 10.2277 2.51148 10.2168 2.51148C9.30969 2.10146 9.1573 2.02526 9.11375 1.97809C9.03393 1.95995 8.83799 1.6987 8.78719 1.71321C8.75454 1.74224 8.81259 2.15951 9.24801 2.34457C9.32058 2.39537 10.1733 2.70741 10.166 2.72919L9.14641 2.30828C8.95773 2.23571 8.72551 1.97446 8.68196 2.00349C8.64205 2.03252 8.79082 2.31191 8.9795 2.40262C9.0811 2.44616 9.46209 2.63485 9.81042 2.75459C9.83219 2.76547 9.18995 2.51148 8.8779 2.38085C8.74002 2.30828 8.67108 2.20669 8.65294 2.22846C8.61665 2.25023 8.70374 2.66387 9.69794 2.89972C9.72334 2.91061 10.0463 2.82353 10.0318 2.83441C9.84801 2.88007 9.66129 2.9128 9.47297 2.93238C9.46209 2.96141 9.53466 3.11018 10.0499 3.07752C10.1152 3.07752 10.4708 2.95052 10.4418 2.97592C10.4273 2.99044 9.95556 3.14283 9.91928 3.14646C9.89025 3.14646 9.72334 3.16823 9.71971 3.18275C9.71245 3.20814 9.83945 3.31337 10.1188 3.32788C10.362 3.3424 10.8228 3.18275 10.8155 3.19363C10.8046 3.20452 10.3692 3.35328 10.3547 3.36054C10.3402 3.37143 10.1805 3.37868 10.1733 3.3932C10.1624 3.42222 10.4055 3.65082 11.1276 3.40771C11.055 3.50568 10.7067 3.57099 10.7067 3.58913C10.7067 3.60365 10.7829 3.67985 10.9062 3.70525C10.9679 3.71976 11.0514 3.71613 11.1239 3.70525C11.3031 3.67 11.4676 3.58148 11.5956 3.45125C11.6138 3.50568 11.1348 3.75242 11.1566 3.77419C11.2618 3.87216 11.6065 3.75967 11.6283 3.74879C11.8621 3.62521 12.0865 3.48452 12.2996 3.32788C12.3104 3.38231 11.465 3.84313 11.4759 3.86127C11.5303 3.94473 11.8206 3.85401 11.8315 3.84676L12.2088 3.64356C12.2197 3.6363 11.7952 3.89393 11.8315 3.93384C11.8133 4.09712 12.4955 3.81773 12.5499 3.78144C12.5753 3.7633 12.2234 3.93747 12.2234 4.02092C12.3322 4.21323 12.7023 4.15155 12.7567 4.10801C12.7858 4.08986 12.7205 4.25315 12.7422 4.23863C12.7861 4.19367 12.8228 4.14228 12.8511 4.08624C12.8438 4.14066 12.8003 4.22412 12.7785 4.32209C12.7567 4.42006 12.7495 4.53254 12.7168 4.64865C12.7096 4.69945 12.9418 4.54705 12.9091 4.1842C12.9273 4.37289 12.8366 4.72848 12.8583 4.74299C12.9091 4.77927 13.0398 4.56882 13.0579 4.42368C13.0942 4.49625 13.1813 4.64865 13.2538 4.68493C13.2466 4.57608 13.2538 4.57608 13.2212 4.47085C13.2393 4.32572 13.243 4.12978 13.2466 3.90481C13.4462 4.28217 13.5224 4.44183 13.4679 4.7321C13.526 4.7575 13.6203 4.52891 13.6131 4.4128C13.6856 4.73936 14.0122 4.78653 14.0195 4.77565H14.0158Z" fill="#EF7D00" stroke="black" stroke-width="1.0321" stroke-linecap="round" stroke-linejoin="round"/>
<g id="Vector_11">
<path fill-rule="evenodd" clip-rule="evenodd" d="M10.7357 2.37891C10.7357 2.37891 10.6015 2.4805 10.4346 2.47325C10.4745 2.64016 10.8228 2.51316 10.8228 2.51316C10.8228 2.51316 10.6559 2.69821 10.5325 2.73087C10.6051 2.7853 10.9063 2.76715 10.9571 2.73813C11.0079 2.70547 11.0986 2.59299 11.0986 2.59299C11.0986 2.59299 10.7902 2.94858 10.743 2.94495C10.7394 2.98486 11.0696 2.97035 11.1385 2.90866C11.2074 2.84698 11.378 2.75264 11.378 2.75264C11.378 2.75264 10.9244 3.06832 10.9063 3.06832C11.0732 3.11549 11.4143 3.01752 11.632 2.88326C11.309 3.09734 11.28 3.13726 11.1167 3.20983C11.2619 3.23886 11.3344 3.33682 11.8315 3.12274C12.1146 2.98849 12.2742 2.74538 12.2742 2.74538C12.0586 2.99831 11.8008 3.21193 11.5122 3.37674C11.4977 3.41302 11.8424 3.55816 12.2851 3.10097" fill="#EF7D00"/>
<path d="M10.7357 2.37891C10.7357 2.37891 10.6015 2.4805 10.4346 2.47325C10.4745 2.64016 10.8228 2.51316 10.8228 2.51316C10.8228 2.51316 10.6559 2.69821 10.5325 2.73087C10.6051 2.7853 10.9063 2.76715 10.9571 2.73813C11.0079 2.70547 11.0986 2.59299 11.0986 2.59299C11.0986 2.59299 10.7902 2.94858 10.743 2.94495C10.7394 2.98486 11.0696 2.97035 11.1385 2.90866C11.2074 2.84698 11.378 2.75264 11.378 2.75264C11.378 2.75264 10.9244 3.06832 10.9063 3.06832C11.0732 3.11549 11.4143 3.01752 11.632 2.88326C11.309 3.09734 11.28 3.13726 11.1167 3.20983C11.2619 3.23886 11.3344 3.33682 11.8315 3.12274C12.1146 2.98849 12.2742 2.74538 12.2742 2.74538C12.0586 2.99831 11.8008 3.21193 11.5122 3.37674C11.4977 3.41302 11.8424 3.55816 12.2851 3.10097" stroke="black" stroke-width="1.0321" stroke-linecap="round" stroke-linejoin="round"/>
</g>
<g id="Vector_12">
<path fill-rule="evenodd" clip-rule="evenodd" d="M13.1306 3.37559C13.1306 3.37559 13.1597 3.5171 13.2758 3.62233C13.3955 3.73118 13.4064 3.83641 13.4064 3.83641M13.069 2.46484C13.069 2.46484 13.1125 2.59184 13.2322 2.67167C13.3631 2.77654 13.4738 2.90443 13.5588 3.04903C13.5963 3.2093 13.6241 3.37166 13.6423 3.53524M12.3106 2.65715C12.3179 2.70795 12.1364 2.94743 12.3868 3.23045C12.1582 3.50984 12.1582 3.54613 12.1582 3.54613C12.1582 3.54613 12.2852 3.6187 12.5174 3.41913C12.8948 3.88358 12.7714 4.09766 12.7714 4.09766" fill="#EF7D00"/>
<path d="M13.1306 3.37559C13.1306 3.37559 13.1597 3.5171 13.2758 3.62233C13.3955 3.73118 13.4064 3.83641 13.4064 3.83641M13.069 2.46484C13.069 2.46484 13.1125 2.59184 13.2322 2.67167C13.3631 2.77654 13.4738 2.90443 13.5588 3.04903C13.5963 3.2093 13.6241 3.37166 13.6423 3.53524M12.3106 2.65715C12.3179 2.70795 12.1364 2.94743 12.3868 3.23045C12.1582 3.50984 12.1582 3.54613 12.1582 3.54613C12.1582 3.54613 12.2852 3.6187 12.5174 3.41913C12.8948 3.88358 12.7714 4.09766 12.7714 4.09766" stroke="black" stroke-width="1.0321" stroke-linecap="round"/>
</g>
<g id="Vector_13">
<path fill-rule="evenodd" clip-rule="evenodd" d="M12.7352 3.77101C12.7352 3.77101 12.7025 3.72021 12.7642 3.53516C12.8223 3.60047 12.884 3.61498 12.9094 3.64401C12.9348 3.67304 13.225 3.71295 13.2432 3.90163" fill="#EF7D00"/>
<path d="M12.7352 3.77101C12.7352 3.77101 12.7025 3.72021 12.7642 3.53516C12.8223 3.60047 12.884 3.61498 12.9094 3.64401C12.9348 3.67304 13.225 3.71295 13.2432 3.90163" stroke="black" stroke-width="1.0321" stroke-linecap="round" stroke-linejoin="round"/>
</g>
<path id="Vector_14" fill-rule="evenodd" clip-rule="evenodd" d="M13.0719 2.02181C13.0719 2.0073 13.0139 1.88393 12.7998 2.03633C12.9159 2.04359 13.0284 2.1089 13.0719 2.02181Z" fill="#EF7D00" stroke="black" stroke-width="1.0321"/>
<g id="Vector_15">
<path fill-rule="evenodd" clip-rule="evenodd" d="M15.1187 2.58594C15.1296 2.59319 15.761 2.73108 15.9714 2.65851C15.7029 3.01773 15.1659 2.77462 15.1659 2.77462C15.4308 2.85444 15.4417 2.84719 15.5251 2.91976C15.5505 2.99233 15.0425 2.95967 14.872 2.86533C15.3437 3.01047 15.351 3.00321 15.3655 3.05764C15.3873 3.13747 14.6035 3.0395 14.5309 2.93427C14.7414 3.09755 14.8575 3.12658 14.9736 3.20278C14.8285 3.26446 14.5672 3.32615 14.0846 2.98507C14.7196 3.56563 15.2929 3.52934 15.3836 3.63094C15.1623 3.9575 14.306 3.43863 13.9105 3.17375C13.5186 2.9125 14.774 3.80873 14.8902 3.79422C14.8321 3.88493 14.4184 3.80511 14.3894 3.76156" fill="#EF7D00"/>
<path d="M15.1187 2.58594C15.1296 2.59319 15.761 2.73108 15.9714 2.65851C15.7029 3.01773 15.1659 2.77462 15.1659 2.77462C15.4308 2.85444 15.4417 2.84719 15.5251 2.91976C15.5505 2.99233 15.0425 2.95967 14.872 2.86533C15.3437 3.01047 15.351 3.00321 15.3655 3.05764C15.3873 3.13747 14.6035 3.0395 14.5309 2.93427C14.7414 3.09755 14.8575 3.12658 14.9736 3.20278C14.8285 3.26446 14.5672 3.32615 14.0846 2.98507C14.7196 3.56563 15.2929 3.52934 15.3836 3.63094C15.1623 3.9575 14.306 3.43863 13.9105 3.17375C13.5186 2.9125 14.774 3.80873 14.8902 3.79422C14.8321 3.88493 14.4184 3.80511 14.3894 3.76156" stroke="black" stroke-width="1.0321" stroke-linejoin="round"/>
</g>
<g id="Vector_16">
<path fill-rule="evenodd" clip-rule="evenodd" d="M15.2826 3.19141C15.21 3.20229 14.9923 3.20229 14.9561 3.19503Z" fill="#EF7D00"/>
<path d="M15.2826 3.19141C15.21 3.20229 14.9923 3.20229 14.9561 3.19503" stroke="black" stroke-width="1.0321" stroke-linecap="round"/>
</g>
<g id="Vector_17">
<path fill-rule="evenodd" clip-rule="evenodd" d="M10.5508 2.28516C10.5508 2.28516 11.0297 2.53915 11.2329 2.52101C11.1785 2.57181 11.0987 2.59358 11.0987 2.59358C11.1495 2.61172 11.2874 2.68792 11.4978 2.63712C11.4506 2.68792 11.3853 2.74597 11.3853 2.74597C11.3853 2.74597 11.5668 2.81491 11.77 2.70969C11.7351 2.75151 11.7024 2.79511 11.672 2.84031L11.8171 2.8512" fill="#EF7D00"/>
<path d="M10.5508 2.28516C10.5508 2.28516 11.0297 2.53915 11.2329 2.52101C11.1785 2.57181 11.0987 2.59358 11.0987 2.59358C11.1495 2.61172 11.2874 2.68792 11.4978 2.63712C11.4506 2.68792 11.3853 2.74597 11.3853 2.74597C11.3853 2.74597 11.5668 2.81491 11.77 2.70969C11.7351 2.75151 11.7024 2.79511 11.672 2.84031L11.8171 2.8512" stroke="black" stroke-width="1.0321" stroke-linecap="round" stroke-linejoin="round"/>
</g>
</g>
</g>
</g>
</g>
</g>
<defs>
<clipPath id="clip0_186_13828">
<rect width="18" height="18" fill="white"/>
</clipPath>
</defs>
</svg>
