<svg width="18" height="18" viewBox="0 0 18 18" fill="none" xmlns="http://www.w3.org/2000/svg">
<g id="zw" clip-path="url(#clip0_186_13850)">
<g id="Clip path group">
<mask id="mask0_186_13850" style="mask-type:luminance" maskUnits="userSpaceOnUse" x="0" y="0" width="19" height="18">
<g id="zw-a">
<path id="Vector" d="M0.00292969 0H18.0015V17.999H0.00292969V0Z" fill="white"/>
</g>
</mask>
<g mask="url(#mask0_186_13850)">
<g id="Group">
<path id="Vector_2" d="M-0.0527344 0.00390625H35.8248V17.9943H-0.0527344V0.00390625Z" fill="#006400"/>
<path id="Vector_3" d="M-0.0527344 2.57422H35.8248V15.4245H-0.0527344V2.57422Z" fill="#FFD200"/>
<path id="Vector_4" d="M-0.0527344 5.14453H35.8248V12.8547H-0.0527344V5.14453Z" fill="#D40000"/>
<path id="Vector_5" d="M-0.0527344 7.71484H35.8248V10.2849H-0.0527344V7.71484Z" fill="#000001"/>
<path id="Vector_6" d="M-0.0527344 0.00390625V17.9943L11.9064 8.99912L-0.0527344 0.00390625Z" fill="black" stroke="black" stroke-width="24.333"/>
<path id="Vector_7" d="M-0.0527344 0.00390625V17.9943L11.9064 8.99912L-0.0527344 0.00390625Z" fill="white"/>
<path id="Vector_8" d="M4.49625 4.47656L6.86672 11.7884L0.665039 7.26936H8.33172L2.12577 11.7884L4.49625 4.47656Z" fill="#D40000"/>
<path id="Vector_9" d="M3.48341 10.8729L3.90198 10.7958L4.67506 10.7658L4.96122 10.7915L5.60189 10.8986L5.64887 10.8344V10.3718L5.72576 9.97341L5.85389 9.57077L5.99484 9.24951L6.17422 8.9154L6.46466 8.98822H6.54154L6.55008 8.93254L5.93504 8.40568L5.29437 7.91308L4.36753 7.21916L4.28211 7.19775L4.18388 6.46956L4.11127 6.25111L4.01303 6.16544L3.82937 6.10547L3.62436 6.11404L3.53039 6.16544L3.33392 6.20827L3.23141 6.22541L3.16308 6.30679L3.15453 6.40959L3.4407 6.41816L3.51331 6.44814L3.50477 6.47813L3.34246 6.49955L3.26558 6.52525L3.35528 6.59378L3.44924 6.62805L3.56883 6.67088L3.59446 6.75655L3.603 7.86168L3.53893 8.03302L3.51758 8.35427L3.61154 8.73978L3.37236 9.01392L3.23568 9.25808L3.21006 9.408L3.13745 9.55792L3.12891 9.65216L3.17589 9.75496L3.35955 10.3632L3.45351 10.8644L3.48341 10.8729Z" fill="#FFCC00"/>
<path id="Vector_10" d="M3.70547 6.08662C3.62859 6.08662 3.59442 6.09519 3.52182 6.13374C3.46165 6.16828 3.3945 6.18878 3.32534 6.19371C3.21857 6.19371 3.13314 6.27081 3.13314 6.36933V6.43358L3.2869 6.4293C3.73964 6.44215 3.32961 6.48498 3.29545 6.48927C3.1844 6.51068 3.32107 6.60064 3.45348 6.64775C3.59442 6.69059 3.58588 6.66489 3.58588 7.29027C3.58588 7.8 3.58588 7.87282 3.54317 7.98847C3.48765 8.15981 3.48765 8.41681 3.54317 8.58815C3.5688 8.65669 3.58588 8.71665 3.58588 8.7295C3.58588 8.73807 3.51754 8.81946 3.43639 8.91369C3.2869 9.08503 3.19721 9.26065 3.19721 9.38487C3.19188 9.42484 3.17725 9.46299 3.1545 9.49624C3.09897 9.56906 3.09897 9.69328 3.15023 9.7404C3.20575 9.7918 3.43212 10.6742 3.43639 10.8412C3.43639 10.9012 3.44494 10.9012 3.7909 10.8327C4.07279 10.777 4.73482 10.7641 5.07224 10.807C5.226 10.8284 5.40539 10.8627 5.46945 10.8755C5.67447 10.9312 5.66592 10.9398 5.66592 10.6913C5.66749 10.2999 5.74135 9.91211 5.88375 9.54764C5.96537 9.33996 6.06394 9.13938 6.17846 8.94796C6.17846 8.94796 6.25534 8.95653 6.34931 8.98223C6.52442 9.02506 6.57568 9.02078 6.57568 8.93939C6.57568 8.89656 6.39202 8.74236 5.49081 8.03987C5.12732 7.74151 4.75261 7.45717 4.3675 7.18747C4.34187 7.18747 4.31625 7.17462 4.31198 7.15748L4.24791 6.75056C4.21801 6.54067 4.1753 6.33506 4.15821 6.29223C4.09842 6.16373 3.9831 6.09947 3.7909 6.08662C3.76243 6.08571 3.73394 6.08571 3.70547 6.08662ZM3.70975 6.12946H3.79517C4.07706 6.14659 4.12832 6.22369 4.2052 6.72914C4.22594 6.86286 4.24304 6.99712 4.25645 7.13178C4.25645 7.16605 4.21801 7.20888 4.11977 7.27314C3.95814 7.38688 3.81421 7.52401 3.69266 7.68006L3.63714 7.75716L3.62432 7.57726V7.07181C3.63714 6.69916 3.62432 6.66489 3.50473 6.62205C3.4065 6.58779 3.27836 6.55352 3.31253 6.5321C3.35524 6.5064 3.39795 6.52353 3.50046 6.49355C3.54317 6.48498 3.5389 6.48927 3.53036 6.455C3.52182 6.39932 3.46202 6.36933 3.30399 6.3779C3.17585 6.38646 3.16304 6.38218 3.17158 6.34791C3.18867 6.27938 3.25701 6.23654 3.36378 6.22369C3.42915 6.21611 3.49273 6.19727 3.55171 6.16801C3.59939 6.13926 3.65412 6.12443 3.70975 6.12517V6.12946ZM4.34614 7.23459H4.36323C4.43584 7.24744 6.53296 8.89228 6.53296 8.93939C6.53296 8.95653 6.51588 8.96938 6.49025 8.96938C6.47317 8.96938 5.93928 8.81946 5.30715 8.63527C4.29916 8.33543 4.15394 8.29259 4.11123 8.23691C4.08152 8.19927 4.065 8.15285 4.06423 8.10485C4.06346 8.05684 4.07847 8.00992 4.10696 7.97134C4.12746 7.94638 4.14207 7.91709 4.14967 7.88567C4.14967 7.83427 4.04289 7.96277 4.02154 8.03559C4.00018 8.12126 4.04289 8.26689 4.10696 8.31401C4.13259 8.33543 4.32479 8.39968 4.53407 8.46393C4.89285 8.56673 4.91848 8.57958 4.93556 8.63955C4.97827 8.78091 4.82878 8.94796 4.61523 8.99508C4.53515 9.0143 4.45967 9.04924 4.39313 9.09788C4.17153 9.28195 3.92396 9.43207 3.65849 9.54336C3.64141 9.55621 3.62005 9.62474 3.60724 9.689C3.58161 9.83035 3.57307 9.85177 3.53036 9.85177C3.509 9.85177 3.50473 9.83892 3.52182 9.7918C3.55171 9.70613 3.54744 9.60333 3.51754 9.60333C3.49619 9.60333 3.48765 9.63331 3.48765 9.68043C3.48765 9.72326 3.47483 9.77466 3.45775 9.78751C3.43639 9.81321 3.43212 9.79608 3.44066 9.689C3.44921 9.61618 3.44494 9.56049 3.43639 9.56049C3.41504 9.56049 3.3766 9.66758 3.36378 9.76181C3.35524 9.8175 3.35524 9.8175 3.33816 9.74896C3.32534 9.69756 3.32961 9.66329 3.36805 9.59904C3.39233 9.55251 3.40686 9.50149 3.41077 9.44912C3.41077 9.39344 3.45348 9.33775 3.65422 9.13643C3.78235 9.00364 3.94039 8.83659 3.99591 8.76377C4.09415 8.64384 4.09842 8.63527 4.09415 8.51105C4.09415 8.44251 4.08561 8.37826 4.07706 8.3697C4.05144 8.344 4.01727 8.48107 4.03435 8.55388C4.04289 8.62242 4.03435 8.64384 3.8934 8.81089C3.792 8.92732 3.6851 9.03881 3.57307 9.145C3.4065 9.2992 3.3467 9.38487 3.3467 9.46197C3.3467 9.48767 3.32961 9.54764 3.30399 9.60333C3.27836 9.65901 3.26982 9.7147 3.27836 9.72755C3.2869 9.7404 3.27836 9.7404 3.26555 9.72755C3.24419 9.70613 3.24419 9.67186 3.26128 9.59904C3.27105 9.56278 3.27395 9.52501 3.26982 9.48767C3.24846 9.44484 3.21857 9.49624 3.20575 9.60333C3.19721 9.66329 3.1844 9.71041 3.17158 9.70185C3.14168 9.68471 3.15023 9.57334 3.18867 9.51337C3.21002 9.48339 3.23138 9.41485 3.24419 9.35917C3.27409 9.20068 3.34243 9.07218 3.49192 8.90084C3.53979 8.84859 3.58539 8.79428 3.62859 8.73807L3.58588 8.59672C3.5286 8.40572 3.52564 8.20248 3.57734 8.00989C3.63287 7.84712 3.74391 7.68435 3.91903 7.50873C4.08988 7.34167 4.25645 7.23887 4.34614 7.23459ZM4.98681 8.61385C4.99221 8.61345 4.99767 8.61381 5.00284 8.61492C5.00801 8.61603 5.01277 8.61786 5.0168 8.62029C5.02084 8.62272 5.02406 8.62569 5.02625 8.62901C5.02844 8.63233 5.02956 8.63592 5.02953 8.63955C5.0269 8.64459 5.022 8.64896 5.01549 8.65205C5.00899 8.65514 5.0012 8.65681 4.99322 8.65681C4.98524 8.65681 4.97746 8.65514 4.97095 8.65205C4.96444 8.64896 4.95954 8.64459 4.95692 8.63955C4.95669 8.63362 4.95955 8.62782 4.965 8.62313C4.97045 8.61845 4.97816 8.61517 4.98681 8.61385ZM5.09359 8.6267C5.09899 8.6263 5.10445 8.62666 5.10962 8.62777C5.11479 8.62888 5.11954 8.63071 5.12358 8.63314C5.12761 8.63557 5.13083 8.63854 5.13303 8.64186C5.13522 8.64518 5.13634 8.64877 5.1363 8.6524C5.13368 8.65744 5.12878 8.66181 5.12227 8.6649C5.11576 8.668 5.10798 8.66966 5.1 8.66966C5.09202 8.66966 5.08423 8.668 5.07773 8.6649C5.07122 8.66181 5.06632 8.65744 5.06369 8.6524C5.06347 8.64647 5.06633 8.64067 5.07178 8.63598C5.07723 8.6313 5.08494 8.62802 5.09359 8.6267ZM5.20464 8.64812C5.21004 8.64772 5.2155 8.64808 5.22067 8.64919C5.22584 8.6503 5.23059 8.65213 5.23463 8.65456C5.23866 8.65699 5.24188 8.65996 5.24408 8.66328C5.24627 8.6666 5.24739 8.67019 5.24735 8.67382C5.24473 8.67886 5.23983 8.68323 5.23332 8.68632C5.22681 8.68941 5.21903 8.69107 5.21105 8.69107C5.20307 8.69107 5.19528 8.68941 5.18878 8.68632C5.18227 8.68323 5.17737 8.67886 5.17474 8.67382C5.17452 8.66789 5.17738 8.66209 5.18283 8.6574C5.18828 8.65272 5.19599 8.64944 5.20464 8.64812ZM5.30715 8.66954C5.31254 8.66913 5.31801 8.6695 5.32317 8.67061C5.32834 8.67172 5.3331 8.67355 5.33714 8.67598C5.34117 8.6784 5.34439 8.68138 5.34658 8.6847C5.34878 8.68802 5.34989 8.69161 5.34986 8.69524C5.34724 8.70028 5.34233 8.70465 5.33583 8.70774C5.32932 8.71083 5.32154 8.71249 5.31356 8.71249C5.30557 8.71249 5.29779 8.71083 5.29128 8.70774C5.28478 8.70465 5.27987 8.70028 5.27725 8.69524C5.27703 8.6893 5.27989 8.6835 5.28534 8.67882C5.29079 8.67413 5.29849 8.67085 5.30715 8.66954ZM5.03807 8.69524C5.04346 8.69483 5.04892 8.6952 5.05409 8.69631C5.05926 8.69742 5.06402 8.69925 5.06805 8.70168C5.07209 8.7041 5.07531 8.70708 5.0775 8.7104C5.0797 8.71372 5.08081 8.71731 5.08078 8.72094C5.07816 8.72598 5.07325 8.73035 5.06675 8.73344C5.06024 8.73653 5.05246 8.73819 5.04447 8.73819C5.03649 8.73819 5.02871 8.73653 5.0222 8.73344C5.0157 8.73035 5.01079 8.72598 5.00817 8.72094C5.00795 8.71501 5.01081 8.7092 5.01626 8.70452C5.0217 8.69983 5.02941 8.69655 5.03807 8.69524ZM5.14057 8.71237C5.14597 8.71197 5.15143 8.71233 5.1566 8.71344C5.16177 8.71455 5.16653 8.71638 5.17056 8.71881C5.1746 8.72124 5.17782 8.72421 5.18001 8.72753C5.1822 8.73085 5.18332 8.73444 5.18329 8.73807C5.18066 8.74311 5.17576 8.74748 5.16925 8.75057C5.16275 8.75366 5.15496 8.75533 5.14698 8.75533C5.139 8.75533 5.13122 8.75366 5.12471 8.75057C5.11821 8.74748 5.1133 8.74311 5.11068 8.73807C5.11046 8.73214 5.11331 8.72634 5.11876 8.72165C5.12421 8.71697 5.13192 8.71369 5.14057 8.71237ZM5.36267 8.72094C5.36807 8.72053 5.37353 8.7209 5.3787 8.72201C5.38387 8.72312 5.38863 8.72495 5.39266 8.72738C5.3967 8.7298 5.39992 8.73278 5.40211 8.7361C5.4043 8.73942 5.40542 8.74301 5.40539 8.74664C5.40276 8.75168 5.39786 8.75605 5.39135 8.75914C5.38485 8.76223 5.37706 8.76389 5.36908 8.76389C5.3611 8.76389 5.35332 8.76223 5.34681 8.75914C5.3403 8.75605 5.3354 8.75168 5.33278 8.74664C5.33255 8.74071 5.33541 8.7349 5.34086 8.73022C5.34631 8.72553 5.35402 8.72226 5.36267 8.72094ZM5.24735 8.72094C5.25275 8.72053 5.25821 8.7209 5.26338 8.72201C5.26855 8.72312 5.27331 8.72495 5.27734 8.72738C5.28138 8.7298 5.2846 8.73278 5.28679 8.7361C5.28898 8.73942 5.2901 8.74301 5.29006 8.74664C5.28744 8.75168 5.28254 8.75605 5.27603 8.75914C5.26953 8.76223 5.26174 8.76389 5.25376 8.76389C5.24578 8.76389 5.23799 8.76223 5.23149 8.75914C5.22498 8.75605 5.22008 8.75168 5.21746 8.74664C5.21723 8.74071 5.22009 8.7349 5.22554 8.73022C5.23099 8.72553 5.2387 8.72226 5.24735 8.72094ZM5.46091 8.74664C5.46518 8.74664 5.61894 8.78091 5.8026 8.83231L6.14002 8.93083L6.07595 9.04648C6.04016 9.1084 6.00598 9.17124 5.97345 9.23495C5.93073 9.32062 5.92219 9.32062 5.71718 9.2735C5.49508 9.2221 5.14485 9.17498 4.78607 9.145L4.44438 9.11501L4.57251 9.0679C4.64988 9.03803 4.72546 9.0037 4.79888 8.96509C4.88431 8.91798 4.91848 8.90941 5.05088 8.92226C5.24308 8.93511 5.37122 8.89656 5.42247 8.81946L5.46518 8.74664H5.46091ZM5.08505 8.77234C5.09045 8.77194 5.09591 8.7723 5.10108 8.77341C5.10624 8.77452 5.111 8.77635 5.11504 8.77878C5.11907 8.78121 5.12229 8.78418 5.12449 8.7875C5.12668 8.79082 5.1278 8.79441 5.12776 8.79804C5.12514 8.80308 5.12023 8.80745 5.11373 8.81054C5.10722 8.81363 5.09944 8.81529 5.09146 8.81529C5.08348 8.81529 5.07569 8.81363 5.06919 8.81054C5.06268 8.80745 5.05778 8.80308 5.05515 8.79804C5.05493 8.79211 5.05779 8.78631 5.06324 8.78162C5.06869 8.77694 5.07639 8.77366 5.08505 8.77234ZM5.32423 8.77234C5.32963 8.77194 5.33509 8.7723 5.34026 8.77341C5.34543 8.77452 5.35019 8.77635 5.35422 8.77878C5.35826 8.78121 5.36148 8.78418 5.36367 8.7875C5.36586 8.79082 5.36698 8.79441 5.36695 8.79804C5.36371 8.80224 5.35881 8.80575 5.35278 8.80821C5.34676 8.81067 5.33983 8.81197 5.33278 8.81197C5.32572 8.81197 5.31879 8.81067 5.31277 8.80821C5.30674 8.80575 5.30184 8.80224 5.29861 8.79804C5.29839 8.79211 5.30124 8.78631 5.30669 8.78162C5.31214 8.77694 5.31985 8.77366 5.3285 8.77234H5.32423ZM4.98254 8.77234C4.98794 8.77194 4.9934 8.7723 4.99857 8.77341C5.00374 8.77452 5.0085 8.77635 5.01253 8.77878C5.01657 8.78121 5.01979 8.78418 5.02198 8.7875C5.02417 8.79082 5.02529 8.79441 5.02525 8.79804C5.02263 8.80308 5.01773 8.80745 5.01122 8.81054C5.00471 8.81363 4.99693 8.81529 4.98895 8.81529C4.98097 8.81529 4.97318 8.81363 4.96668 8.81054C4.96017 8.80745 4.95527 8.80308 4.95264 8.79804C4.95377 8.79286 4.95724 8.78803 4.96258 8.7842C4.96793 8.78038 4.97489 8.77773 4.98254 8.77662V8.77234ZM5.20891 8.78091C5.21879 8.78008 5.22877 8.78185 5.23674 8.78585C5.2447 8.78984 5.25004 8.79575 5.25162 8.80232C5.249 8.80736 5.2441 8.81173 5.23759 8.81482C5.23109 8.81792 5.2233 8.81958 5.21532 8.81958C5.20734 8.81958 5.19955 8.81792 5.19305 8.81482C5.18654 8.81173 5.18164 8.80736 5.17902 8.80232C5.18014 8.79714 5.18361 8.79232 5.18895 8.78849C5.1943 8.78466 5.20126 8.78201 5.20891 8.78091ZM4.92702 8.82802C4.93241 8.82762 4.93787 8.82799 4.94304 8.8291C4.94821 8.83021 4.95297 8.83203 4.95701 8.83446C4.96104 8.83689 4.96426 8.83986 4.96645 8.84318C4.96865 8.8465 4.96976 8.8501 4.96973 8.85372C4.96711 8.85876 4.9622 8.86313 4.9557 8.86623C4.94919 8.86932 4.94141 8.87098 4.93342 8.87098C4.92544 8.87098 4.91766 8.86932 4.91115 8.86623C4.90465 8.86313 4.89974 8.85876 4.89712 8.85372C4.8969 8.84779 4.89976 8.84199 4.90521 8.83731C4.91066 8.83262 4.91836 8.82934 4.92702 8.82802ZM5.0338 8.82802C5.03978 8.82751 5.04585 8.82795 5.05153 8.8293C5.05721 8.83065 5.06234 8.83287 5.06649 8.83579C5.07065 8.83871 5.07372 8.84224 5.07546 8.8461C5.0772 8.84996 5.07756 8.85404 5.07651 8.85801C5.07388 8.86305 5.06898 8.86742 5.06247 8.87051C5.05597 8.8736 5.04818 8.87526 5.0402 8.87526C5.03222 8.87526 5.02444 8.8736 5.01793 8.87051C5.01143 8.86742 5.00652 8.86305 5.0039 8.85801C5.00368 8.85207 5.00653 8.84627 5.01198 8.84159C5.01743 8.8369 5.02514 8.83362 5.0338 8.83231V8.82802ZM5.14485 8.83659C5.15473 8.83577 5.1647 8.83754 5.17267 8.84153C5.18064 8.84553 5.18597 8.85143 5.18756 8.85801C5.18493 8.86305 5.18003 8.86742 5.17352 8.87051C5.16702 8.8736 5.15923 8.87526 5.15125 8.87526C5.14327 8.87526 5.13549 8.8736 5.12898 8.87051C5.12248 8.86742 5.11757 8.86305 5.11495 8.85801C5.11608 8.85283 5.11954 8.848 5.12489 8.84417C5.13023 8.84035 5.13719 8.8377 5.14485 8.83659ZM5.26444 8.83659C5.26983 8.83619 5.27529 8.83655 5.28046 8.83766C5.28563 8.83877 5.29039 8.8406 5.29442 8.84303C5.29846 8.84546 5.30168 8.84843 5.30387 8.85175C5.30607 8.85507 5.30718 8.85866 5.30715 8.86229C5.30453 8.86733 5.29962 8.8717 5.29312 8.87479C5.28661 8.87788 5.27883 8.87955 5.27084 8.87955C5.26286 8.87955 5.25508 8.87788 5.24857 8.87479C5.24207 8.8717 5.23716 8.86733 5.23454 8.86229C5.23432 8.85636 5.23718 8.85056 5.24263 8.84587C5.24808 8.84119 5.25578 8.83791 5.26444 8.83659ZM4.3974 9.18355C4.90159 9.19696 5.40345 9.25719 5.89657 9.36345C5.90084 9.36774 5.87094 9.47054 5.82396 9.59476L5.73853 9.85177C5.73426 9.87318 5.70436 9.87318 5.63176 9.86462C5.27725 9.80893 4.25218 9.81321 3.85924 9.87318C3.63287 9.90745 3.60297 9.90317 3.62005 9.85605L3.66276 9.70613L3.68839 9.59048L3.91903 9.47054C4.07277 9.39187 4.21865 9.29864 4.35469 9.19212H4.39313L4.3974 9.18355ZM3.24419 9.7918C3.25701 9.7918 3.28263 9.80465 3.31253 9.82607C3.35524 9.85177 3.4065 9.87318 3.42785 9.87318C3.5389 9.87318 3.5987 10.0317 3.69266 10.5585L3.72683 10.747C3.73537 10.7898 3.72683 10.7984 3.62859 10.8198C3.509 10.8455 3.4791 10.8498 3.4791 10.8327C3.4791 10.7898 3.35951 10.2458 3.30826 10.0531C3.28275 9.96817 3.25996 9.88246 3.23992 9.79608C3.24057 9.79571 3.24131 9.79551 3.24206 9.79551C3.24281 9.79551 3.24354 9.79571 3.24419 9.79608V9.7918ZM4.46574 9.87747H4.5896L4.54689 9.9203C4.47428 10.006 4.44011 10.0103 4.38886 9.95457C4.37085 9.93592 4.35638 9.91415 4.34614 9.89032C4.34614 9.88175 4.40167 9.87318 4.46574 9.87318V9.87747ZM4.72628 9.87747H4.95692L4.90566 9.92887C4.84587 9.9974 4.8416 9.9974 4.77753 9.92887L4.72628 9.87318V9.87747ZM5.07651 9.87747H5.13203C5.16193 9.87747 5.21746 9.87747 5.25162 9.88603L5.31569 9.89888L5.2559 9.95457C5.22173 9.98455 5.19183 10.0103 5.18756 10.006L5.12776 9.93743L5.07651 9.87318V9.87747ZM5.43955 9.89032L5.49081 9.90317C5.52071 9.91173 5.58477 9.91602 5.63176 9.9203H5.71718L5.65311 9.97599C5.6299 9.99769 5.60407 10.0164 5.57623 10.0317C5.57196 10.0317 5.53352 9.9974 5.50362 9.95885L5.43955 9.89032ZM4.14967 9.8946H4.15821C4.16249 9.90317 4.1454 9.93743 4.1155 9.96742L4.07279 10.0274L4.00872 9.97599L3.94466 9.9203L4.04716 9.90745L4.14967 9.8946ZM4.24791 9.90317L4.31625 9.96314L4.38458 10.0274L4.25645 10.036L4.12832 10.0402L4.18811 9.97599L4.24791 9.90317ZM5.01671 9.90317C5.02953 9.90317 5.03807 9.90745 5.05088 9.91602C5.07322 9.9371 5.09197 9.9617 5.10641 9.98884C5.12349 10.0231 5.11922 10.0317 5.06369 10.0317L4.95692 10.0103L4.90566 9.9974L4.96119 9.94172C4.98681 9.91602 5.0039 9.89888 5.02098 9.89888L5.01671 9.90317ZM4.66221 9.90317C4.68356 9.90317 4.70492 9.91602 4.73055 9.95885C4.76044 10.006 4.76044 10.006 4.64512 10.006H4.5298L4.5896 9.95028C4.6195 9.9203 4.64512 9.90745 4.66221 9.90745V9.90317ZM5.3883 9.91173L5.43955 9.96314C5.49935 10.0188 5.50789 10.0531 5.46518 10.0488L5.34559 10.036L5.25162 10.0274L5.31996 9.9717L5.3883 9.91173ZM3.88486 9.94172C3.8934 9.94172 3.92757 9.96313 3.9532 9.99312L4.00445 10.0488L3.89768 10.0659L3.74819 10.0874C3.71829 10.0959 3.72683 10.0745 3.7909 10.0188C3.83361 9.97599 3.87632 9.94172 3.88486 9.94172ZM3.72683 9.94172H3.74391C3.77808 9.95028 3.77808 9.95885 3.71829 10.0188L3.65422 10.0831L3.63287 10.0274C3.61578 9.98455 3.62005 9.9717 3.65849 9.95457C3.68038 9.94641 3.70349 9.94207 3.72683 9.94172ZM5.69155 10.0188C5.70009 10.0188 5.70009 10.0274 5.69155 10.0445C5.68301 10.0788 5.64457 10.0874 5.64457 10.0531C5.64457 10.0445 5.65738 10.0317 5.67447 10.0231L5.69155 10.0188ZM4.77753 10.0874C5.10641 10.0874 5.43955 10.0959 5.52071 10.1045C5.65311 10.1216 5.66592 10.1259 5.66592 10.1773C5.66592 10.2373 5.64884 10.2416 5.46945 10.2116C5.4182 10.1987 5.20037 10.1816 4.99109 10.1645C4.58489 10.1398 4.17728 10.1542 3.77381 10.2073C3.69266 10.2159 3.67131 10.2073 3.67131 10.1816C3.67131 10.1259 4.10696 10.0874 4.77753 10.0874ZM4.3376 10.2116H4.56824L4.51699 10.2673C4.45292 10.3358 4.44865 10.3358 4.38886 10.2673L4.3376 10.2116ZM4.63658 10.2116L4.69638 10.2715L4.75617 10.3401L4.63231 10.3444H4.50845L4.57251 10.2758L4.63658 10.2116ZM4.72628 10.2116H4.95692L4.90566 10.2673C4.84587 10.3358 4.8416 10.3358 4.77753 10.2673L4.72628 10.2116ZM4.17957 10.2116C4.18811 10.2116 4.17957 10.233 4.14967 10.2758C4.11977 10.3144 4.08988 10.3444 4.08561 10.3444C4.07706 10.3444 4.04717 10.3187 4.02154 10.2887L3.97028 10.233H4.04716C4.08625 10.2332 4.12514 10.2274 4.16249 10.2159C4.16812 10.2147 4.17393 10.2147 4.17957 10.2159V10.2116ZM4.26499 10.233L4.32052 10.2844L4.38458 10.3401L4.27354 10.3486L4.14967 10.3572L4.20947 10.293L4.26499 10.233ZM5.00817 10.233L5.06797 10.3015C5.1363 10.3743 5.13203 10.3786 4.97827 10.3486L4.90566 10.3358L4.95692 10.2844L5.00817 10.233ZM5.09359 10.233H5.1961C5.30715 10.233 5.31996 10.2501 5.2559 10.3101C5.20464 10.3529 5.20464 10.3529 5.14485 10.2887L5.09359 10.233ZM3.78663 10.2544C3.83788 10.2544 3.83361 10.2587 3.76954 10.3229C3.72256 10.3701 3.71829 10.3701 3.7012 10.3358C3.68839 10.293 3.72683 10.2587 3.78663 10.2544ZM5.44383 10.263C5.46091 10.263 5.49508 10.263 5.52925 10.2715L5.62748 10.2887L5.57196 10.3401L5.52071 10.3915L5.47372 10.3315L5.43101 10.263H5.44383ZM3.90622 10.2844C3.91903 10.2844 3.93184 10.293 3.9532 10.3144C3.99591 10.3572 3.99591 10.3572 3.96174 10.3743C3.92864 10.3853 3.89408 10.391 3.85924 10.3915H3.7909L3.84642 10.3315C3.87632 10.3015 3.88913 10.2887 3.90195 10.2844H3.90622ZM5.36267 10.2972C5.37976 10.2972 5.39257 10.3058 5.41393 10.3401L5.45237 10.3915H5.36267C5.30288 10.3915 5.27725 10.3829 5.27725 10.3658C5.28579 10.3486 5.30715 10.3229 5.33278 10.3101L5.36267 10.2972ZM5.63603 10.3529C5.64457 10.3529 5.64457 10.3615 5.64457 10.3743C5.64457 10.4172 5.60613 10.4472 5.58904 10.4172C5.58477 10.4043 5.59332 10.3829 5.6104 10.3701L5.63603 10.3529ZM4.5298 10.4043C4.90139 10.4043 5.31142 10.43 5.55487 10.4729L5.62321 10.4857V10.6742C5.62321 10.8155 5.61467 10.8627 5.59331 10.8627L5.37976 10.8198C4.88588 10.7358 4.38272 10.7214 3.88486 10.777L3.78663 10.7898L3.761 10.6314C3.75038 10.5777 3.74467 10.5232 3.74391 10.4686C3.74391 10.4686 3.84215 10.4472 3.95747 10.4343C4.09842 10.4129 4.3077 10.4043 4.5298 10.4043Z" fill="black"/>
<path id="zw-b" d="M5.2774 9.33203C5.14926 9.33203 5.05957 9.42198 5.05957 9.55477C5.05957 9.76037 5.29021 9.86318 5.42689 9.71754C5.56356 9.5719 5.4696 9.33203 5.2774 9.33203ZM5.2774 9.38343C5.32271 9.38343 5.36616 9.40148 5.3982 9.43362C5.43024 9.46575 5.44824 9.50933 5.44824 9.55477C5.44824 9.68327 5.3073 9.76894 5.19198 9.71326C5.07666 9.64901 5.0852 9.45197 5.20906 9.40057C5.2292 9.391 5.25091 9.3852 5.27313 9.38343H5.2774Z" fill="black"/>
<path id="zw-b_2" d="M4.419 9.30859C4.29087 9.30859 4.20117 9.39855 4.20117 9.53133C4.20117 9.73694 4.43181 9.83974 4.56849 9.6941C4.70517 9.54847 4.6112 9.30859 4.419 9.30859ZM4.419 9.35999C4.46431 9.35999 4.50777 9.37805 4.53981 9.41018C4.57185 9.44231 4.58985 9.48589 4.58985 9.53133C4.58985 9.65984 4.4489 9.7455 4.33358 9.68982C4.21826 9.62557 4.2268 9.42853 4.35066 9.37713C4.3708 9.36757 4.39251 9.36176 4.41473 9.35999H4.419Z" fill="black"/>
<path id="Vector_11" d="M3.70603 6.22711C3.6882 6.2282 3.67137 6.23622 3.65877 6.24966C3.64616 6.26309 3.63866 6.28099 3.6377 6.29993C3.6377 6.32098 3.64557 6.34117 3.65959 6.35605C3.6736 6.37093 3.69262 6.3793 3.71244 6.3793C3.73226 6.3793 3.75128 6.37093 3.76529 6.35605C3.77931 6.34117 3.78718 6.32098 3.78718 6.29993C3.7867 6.28936 3.78417 6.279 3.77976 6.26952C3.77535 6.26003 3.76914 6.2516 3.76153 6.24477C3.75391 6.23794 3.74506 6.23285 3.73551 6.22981C3.72596 6.22677 3.71593 6.22585 3.70603 6.22711ZM3.7103 6.25281C3.7239 6.25281 3.73693 6.25777 3.74655 6.26661C3.75616 6.27545 3.76156 6.28743 3.76156 6.29993C3.76156 6.31242 3.75616 6.32441 3.74655 6.33324C3.73693 6.34208 3.7239 6.34705 3.7103 6.34705C3.69671 6.34705 3.68367 6.34208 3.67406 6.33324C3.66445 6.32441 3.65905 6.31242 3.65905 6.29993C3.65905 6.29374 3.66038 6.28761 3.66295 6.2819C3.66553 6.27618 3.6693 6.27099 3.67406 6.26661C3.67882 6.26223 3.68447 6.25876 3.69069 6.2564C3.69691 6.25403 3.70357 6.25281 3.7103 6.25281Z" fill="black"/>
</g>
</g>
</g>
</g>
<defs>
<clipPath id="clip0_186_13850">
<rect width="18" height="18" fill="white"/>
</clipPath>
</defs>
</svg>
