<svg width="18" height="18" viewBox="0 0 18 18" fill="none" xmlns="http://www.w3.org/2000/svg">
<g id="svg" clip-path="url(#clip0_514_418)">
<g id="Frame">
<path id="Vector" d="M14.0625 7.3125H3.9375C3.31618 7.3125 2.8125 7.8162 2.8125 8.4375V16.3125C2.8125 16.9338 3.31618 17.4375 3.9375 17.4375H14.0625C14.6838 17.4375 15.1875 16.9338 15.1875 16.3125V8.4375C15.1875 7.8162 14.6838 7.3125 14.0625 7.3125Z" stroke="black" stroke-width="1.125" stroke-linecap="round" stroke-linejoin="round"/>
<path id="Vector_2" d="M5.0625 7.3125V4.5C5.0625 3.45571 5.47734 2.45419 6.21577 1.71577C6.9542 0.97734 7.9557 0.5625 9 0.5625C10.0443 0.5625 11.0458 0.97734 11.7842 1.71577C12.5227 2.45419 12.9375 3.45571 12.9375 4.5V7.3125" stroke="black" stroke-width="1.125" stroke-linecap="round" stroke-linejoin="round"/>
<path id="Vector_3" d="M9 12.375C8.84467 12.375 8.71875 12.2491 8.71875 12.0938C8.71875 11.9384 8.84467 11.8125 9 11.8125" stroke="black" stroke-width="1.125"/>
<path id="Vector_4" d="M9 12.375C9.15533 12.375 9.28125 12.2491 9.28125 12.0938C9.28125 11.9384 9.15533 11.8125 9 11.8125" stroke="black" stroke-width="1.125"/>
</g>
</g>
<defs>
<clipPath id="clip0_514_418">
<rect width="18" height="18" fill="white"/>
</clipPath>
</defs>
</svg>
