<svg width="19" height="19" viewBox="0 0 19 19" fill="none" xmlns="http://www.w3.org/2000/svg">
<g id="svg" clip-path="url(#clip0_438_510)">
<g id="Frame">
<path id="Vector" d="M4.75488 8.23779H8.69238" stroke="black" stroke-width="1.125" stroke-linecap="round" stroke-linejoin="round"/>
<path id="Vector_2" d="M4.75488 11.0503H7.00488" stroke="black" stroke-width="1.125" stroke-linecap="round" stroke-linejoin="round"/>
<path id="Vector_3" d="M4.75488 13.8628H7.00488" stroke="black" stroke-width="1.125" stroke-linecap="round" stroke-linejoin="round"/>
<path id="Vector_4" d="M8.12988 17.792H2.50488C2.20652 17.792 1.92036 17.6735 1.70939 17.4625C1.49841 17.2515 1.37988 16.9653 1.37988 16.667V4.85449C1.37988 4.55613 1.49841 4.26997 1.70939 4.059C1.92036 3.84802 2.20652 3.72949 2.50488 3.72949H5.31738C5.31738 2.98357 5.6137 2.2682 6.14115 1.74075C6.66859 1.21331 7.38396 0.916992 8.12988 0.916992C8.87583 0.916992 9.59118 1.21331 10.1187 1.74075C10.6461 2.2682 10.9424 2.98357 10.9424 3.72949H13.7549C14.0532 3.72949 14.3394 3.84802 14.5504 4.059C14.7614 4.26997 14.8799 4.55613 14.8799 4.85449V6.54199" stroke="black" stroke-width="1.125" stroke-linecap="round" stroke-linejoin="round"/>
<path id="Vector_5" d="M8.12988 3.73779C7.97455 3.73779 7.84863 3.61187 7.84863 3.45654C7.84863 3.30121 7.97455 3.17529 8.12988 3.17529" stroke="black" stroke-width="1.125"/>
<path id="Vector_6" d="M8.12988 3.73779C8.28522 3.73779 8.41113 3.61187 8.41113 3.45654C8.41113 3.30121 8.28522 3.17529 8.12988 3.17529" stroke="black" stroke-width="1.125"/>
<g id="Group">
<path id="Vector_7" d="M13.7549 17.792C16.2402 17.792 18.2549 15.7773 18.2549 13.292C18.2549 10.8067 16.2402 8.79199 13.7549 8.79199C11.2696 8.79199 9.25488 10.8067 9.25488 13.292C9.25488 15.7773 11.2696 17.792 13.7549 17.792Z" stroke="black" stroke-width="1.125" stroke-linecap="round" stroke-linejoin="round"/>
<path id="Vector_8" d="M15.7604 11.9834L13.5816 14.8889C13.5332 14.9533 13.4715 15.0066 13.4007 15.0451C13.3299 15.0837 13.2516 15.1065 13.1712 15.1122C13.0908 15.1179 13.0101 15.1063 12.9346 15.0781C12.8591 15.0499 12.7905 15.0059 12.7334 14.9489L11.6084 13.8239" stroke="black" stroke-width="1.125" stroke-linecap="round" stroke-linejoin="round"/>
</g>
</g>
</g>
<defs>
<clipPath id="clip0_438_510">
<rect width="18" height="18" fill="white" transform="translate(0.817383 0.354492)"/>
</clipPath>
</defs>
</svg>
