<svg width="19" height="19" viewBox="0 0 19 19" fill="none" xmlns="http://www.w3.org/2000/svg">
<g id="svg" clip-path="url(#clip0_438_523)">
<g id="Frame">
<path id="Vector" d="M16.0049 7.66699V5.41699C16.0049 5.11862 15.8864 4.83248 15.6754 4.6215C15.4644 4.41052 15.1783 4.29199 14.8799 4.29199H7.00488V3.16699C7.00488 2.86862 6.88636 2.58248 6.67538 2.3715C6.4644 2.16052 6.17825 2.04199 5.87988 2.04199H2.50488C2.20651 2.04199 1.92037 2.16052 1.70939 2.3715C1.49841 2.58248 1.37988 2.86862 1.37988 3.16699V15.392C1.38412 15.6983 1.49851 15.9929 1.70215 16.2218C1.90578 16.4507 2.18502 16.5986 2.48878 16.6385C2.79255 16.6784 3.10051 16.6076 3.35633 16.439C3.61215 16.2704 3.79871 16.0154 3.88188 15.7205L5.64513 8.47774C5.71323 8.24368 5.8555 8.03806 6.05055 7.89184C6.2456 7.74562 6.48286 7.66671 6.72663 7.66699H17.1299C17.3023 7.66693 17.4725 7.70652 17.6272 7.78269C17.7819 7.85886 17.917 7.96958 18.0221 8.1063C18.1273 8.24301 18.1995 8.40206 18.2334 8.57115C18.2672 8.74024 18.2618 8.91485 18.2174 9.08149L16.5674 15.8315C16.5036 16.0712 16.3623 16.283 16.1657 16.4341C15.969 16.5852 15.7279 16.6671 15.4799 16.667H2.65263" stroke="black" stroke-width="1.125" stroke-linecap="round" stroke-linejoin="round"/>
</g>
</g>
<defs>
<clipPath id="clip0_438_523">
<rect width="18" height="18" fill="white" transform="translate(0.817383 0.354492)"/>
</clipPath>
</defs>
</svg>
