<svg width="19" height="19" viewBox="0 0 19 19" fill="none" xmlns="http://www.w3.org/2000/svg">
<g id="svg" clip-path="url(#clip0_438_502)">
<g id="Frame">
<path id="Vector" d="M17.1299 3.72949H2.50488C1.88356 3.72949 1.37988 4.23317 1.37988 4.85449V13.8545C1.37988 14.4758 1.88356 14.9795 2.50488 14.9795H17.1299C17.7512 14.9795 18.2549 14.4758 18.2549 13.8545V4.85449C18.2549 4.23317 17.7512 3.72949 17.1299 3.72949Z" stroke="black" stroke-width="1.125" stroke-linecap="round" stroke-linejoin="round"/>
<path id="Vector_2" d="M12.5825 7.83594L15.4423 10.4797" stroke="black" stroke-width="1.125" stroke-linecap="round" stroke-linejoin="round"/>
<path id="Vector_3" d="M7.05213 7.83594L4.19238 10.4797" stroke="black" stroke-width="1.125" stroke-linecap="round" stroke-linejoin="round"/>
<path id="Vector_4" d="M17.9772 4.11523L10.8425 9.03523C10.5411 9.24333 10.1835 9.35478 9.81723 9.35478C9.45097 9.35478 9.09338 9.24333 8.79198 9.03523L1.65723 4.11523" stroke="black" stroke-width="1.125" stroke-linecap="round" stroke-linejoin="round"/>
</g>
</g>
<defs>
<clipPath id="clip0_438_502">
<rect width="18" height="18" fill="white" transform="translate(0.817383 0.354492)"/>
</clipPath>
</defs>
</svg>
