<svg width="157" height="100" viewBox="0 0 157 100" fill="none" xmlns="http://www.w3.org/2000/svg">
<g id="Logos/Healthy-Logo">
<g id="Group">
<path id="Path" d="M13.7352 65.8117C12.3571 65.8196 10.9855 65.6191 9.66635 65.217C8.41091 64.8337 7.22468 64.2496 6.15301 63.487C4.35326 62.1828 2.9178 60.4324 1.98549 58.4052C1.00048 56.1975 0.511937 53.7975 0.554847 51.3771C0.549542 49.8489 0.772617 48.3285 1.21655 46.8672C1.63168 45.478 2.2724 44.1679 3.11263 42.9899C4.2649 41.4019 5.76813 40.1063 7.50324 39.2056C9.21248 38.3099 11.1117 37.8457 13.0381 37.8529C14.3189 37.8616 15.5932 38.0375 16.8292 38.3763C18.1404 38.7245 18.8436 38.8985 18.9387 38.8985C19.2629 38.8874 19.5847 38.8359 19.8964 38.745C20.1439 38.6694 20.3982 38.6183 20.6556 38.5925C21.1797 38.5925 21.618 39.0431 21.9704 39.9441C22.3545 41.0436 22.5334 42.2053 22.4981 43.3705C22.521 43.7779 22.4311 44.1837 22.2386 44.5426C22.1634 44.6727 22.0547 44.7799 21.9241 44.8527C21.7934 44.9257 21.6457 44.9615 21.4964 44.9567C21.0325 44.9567 20.621 44.5181 20.262 43.6408C20.0891 43.1791 19.8673 42.7376 19.6004 42.3238C18.9564 41.4617 18.0773 40.8072 17.0705 40.4404C15.8442 39.9796 14.5427 39.7561 13.2343 39.7819C11.9878 39.7186 10.7428 39.9366 9.5905 40.4202C8.43811 40.9037 7.40733 41.6406 6.5734 42.5769C4.8522 44.7543 3.98909 47.4958 4.14968 50.2754C4.14362 51.8835 4.33893 53.4859 4.73095 55.0447C5.07432 56.4596 5.63211 57.8126 6.38465 59.0561C7.20641 60.4612 8.36174 61.6383 9.74676 62.4815C11.1125 63.247 12.6555 63.6329 14.2178 63.5995C15.398 63.615 16.5701 63.401 17.67 62.9691C18.6402 62.5952 19.5055 61.9889 20.1913 61.2023C20.4797 60.8386 20.7482 60.4592 20.9956 60.066C21.4246 59.3927 21.7882 59.0561 22.0863 59.0561C22.2186 59.055 22.3485 59.0906 22.462 59.1591C22.5756 59.2276 22.6682 59.3263 22.7298 59.4443C22.8996 59.7682 22.9797 60.1324 22.9614 60.4985C22.9713 61.3372 22.7714 62.165 22.3802 62.9053C21.9926 63.6333 21.5904 63.997 21.1737 63.9962C21.1128 63.9916 21.0527 63.9796 20.9945 63.9606C20.9365 63.9413 20.8764 63.929 20.8155 63.9238C20.554 63.9567 20.3034 64.0496 20.083 64.1952C19.9275 64.2666 19.802 64.3271 19.7076 64.3747C17.8677 65.3522 15.8137 65.8481 13.7341 65.8171L13.7352 65.8117Z" fill="black"/>
<path id="Shape" d="M24.2552 56.2384C24.2167 54.9208 24.4415 53.609 24.9161 52.3808C25.3907 51.1526 26.1054 50.0332 27.0179 49.0892C27.9068 48.156 28.9791 47.4199 30.1659 46.9279C31.3529 46.4359 32.6286 46.1986 33.9115 46.2314C35.1121 46.192 36.3077 46.4049 37.4223 46.8565C38.5369 47.3081 39.5462 47.9885 40.3858 48.8546C41.2314 49.7397 41.892 50.7871 42.3282 51.9346C42.7645 53.0821 42.9675 54.3063 42.9254 55.5344C42.9659 56.8643 42.745 58.1891 42.2753 59.4325C41.8056 60.6758 41.0963 61.8131 40.1885 62.7788C39.3253 63.716 38.2751 64.4584 37.1069 64.9571C35.9387 65.4558 34.679 65.6995 33.4107 65.6722C32.1955 65.7013 30.9876 65.4751 29.8639 65.0078C28.7402 64.5406 27.7253 63.8425 26.8838 62.9582C26.0202 62.0737 25.3424 61.0227 24.8908 59.8682C24.4391 58.7135 24.223 57.479 24.2552 56.2384ZM27.4726 55.1744C27.384 57.4221 28.0174 59.6386 29.2786 61.4943C29.7622 62.2536 30.4259 62.8795 31.2098 63.3154C31.9936 63.7513 32.8727 63.9834 33.7678 63.9908C34.5891 64.0271 35.4073 63.8661 36.1549 63.5214C36.9025 63.1767 37.5583 62.6579 38.0683 62.0079C39.196 60.408 39.748 58.4679 39.633 56.5086C39.7131 54.3212 39.051 52.1717 37.7562 50.4148C37.2261 49.6599 36.5236 49.0448 35.7082 48.6212C34.8927 48.1976 33.9881 47.978 33.0707 47.9809C32.2906 47.9654 31.5181 48.1371 30.8167 48.4819C30.1155 48.8267 29.5055 49.3347 29.0373 49.9639C27.937 51.4676 27.3847 53.3079 27.4736 55.1744H27.4726Z" fill="black"/>
<path id="Path_2" d="M48.7342 50.8473C48.7342 55.5593 48.7638 58.6874 48.8232 60.2314C48.7909 61.1284 48.8936 62.0252 49.1278 62.8913C49.4021 63.2017 49.769 63.4138 50.1734 63.4957C50.7275 63.6701 51.0045 63.9134 51.0045 64.2255C51.0045 64.6104 50.7214 64.8897 50.1551 65.0635C49.2561 65.2742 48.333 65.3622 47.4108 65.3251C46.4792 65.3622 45.5469 65.2743 44.6385 65.0635C44.0665 64.889 43.7805 64.6097 43.7805 64.2255C43.7805 63.9134 44.0576 63.6701 44.6117 63.4957C45.0162 63.4134 45.3833 63.2014 45.6584 62.8913C45.8393 62.2742 45.9236 61.6326 45.9082 60.9893C45.9554 59.9369 45.9794 57.9384 45.9801 54.9939V51.8928C45.9801 47.1095 45.9322 44.1076 45.8364 42.8872C45.7406 41.6668 45.5679 40.9604 45.3184 40.768C44.9929 40.6645 44.6569 40.5982 44.3167 40.5701C43.7205 40.4858 43.4224 40.2335 43.4224 39.8132C43.4269 39.6907 43.4581 39.5706 43.5137 39.4615C43.5693 39.3524 43.6479 39.2569 43.7441 39.1818C44.0526 38.9333 44.3965 38.7328 44.764 38.5871C45.3741 38.3532 45.9981 38.1574 46.6321 38.0011C47.0675 37.879 47.5143 37.8033 47.9652 37.7751C48.1021 37.7591 48.2408 37.7761 48.3698 37.8249C48.4989 37.8735 48.6145 37.9525 48.7073 38.0552C48.8751 38.3793 48.9462 38.7454 48.9121 39.1094C48.9121 39.2297 48.9004 39.6024 48.8768 40.2274C48.7817 43.737 48.7342 47.277 48.7342 50.8473Z" fill="black"/>
<path id="Path_3" d="M57.4143 50.8473C57.4143 55.5593 57.444 58.6874 57.5033 60.2314C57.471 61.1284 57.5737 62.0252 57.8079 62.8913C58.0823 63.2017 58.4492 63.4138 58.8535 63.4957C59.4083 63.6701 59.6857 63.9134 59.6857 64.2255C59.6857 64.6104 59.4016 64.8894 58.8364 65.0635C57.937 65.2742 57.0136 65.3622 56.0909 65.3251C55.1594 65.3622 54.2271 65.2743 53.3187 65.0635C52.7467 64.889 52.4607 64.6097 52.4607 64.2255C52.4607 63.9134 52.7377 63.6701 53.2919 63.4957C53.6963 63.4134 54.0635 63.2014 54.3385 62.8913C54.5206 62.2745 54.605 61.6326 54.5884 60.9893C54.6356 59.9369 54.6596 57.9384 54.6602 54.9939V51.8928C54.6602 47.1095 54.6127 44.1076 54.5177 42.8872C54.4226 41.6668 54.2495 40.9604 53.9986 40.768C53.6731 40.6645 53.3371 40.5982 52.9969 40.5701C52.4006 40.4858 52.1025 40.2335 52.1025 39.8132C52.1069 39.6906 52.1381 39.5706 52.1937 39.4615C52.2493 39.3523 52.328 39.2569 52.4242 39.1818C52.7324 38.9333 53.0759 38.7328 53.443 38.5871C54.0535 38.353 54.6778 38.1573 55.3123 38.0011C55.7473 37.879 56.1937 37.8033 56.6443 37.7751C56.7812 37.7591 56.9199 37.7761 57.0489 37.8249C57.1779 37.8735 57.2936 37.9525 57.3864 38.0552C57.5551 38.379 57.6266 38.7453 57.5923 39.1094C57.5923 39.2297 57.5802 39.6024 57.5558 40.2274C57.4608 43.737 57.4136 47.277 57.4143 50.8473Z" fill="black"/>
<path id="Shape_2" d="M75.7409 55.1743H64.4555C64.3683 55.1643 64.2799 55.1718 64.1956 55.1965C64.1112 55.2211 64.0326 55.2625 63.9643 55.3181C63.8562 55.4829 63.8087 55.6807 63.8303 55.8771C63.7474 57.8732 64.3754 59.8334 65.6009 61.4033C66.1384 62.0909 66.8268 62.6433 67.6119 63.0172C68.397 63.3911 69.2574 63.5763 70.1255 63.5583C70.8352 63.5594 71.5397 63.4372 72.2082 63.1972C72.8757 62.9608 73.4963 62.6068 74.041 62.1516C74.469 61.7819 74.8668 61.3781 75.2303 60.9438C75.7372 60.3672 76.1635 60.0788 76.51 60.0788C76.6012 60.0755 76.6932 60.0905 76.7791 60.123C76.8649 60.1554 76.944 60.2048 77.0109 60.2681C77.0747 60.3293 77.1256 60.4035 77.1591 60.4858C77.1933 60.5682 77.2092 60.6569 77.2069 60.746C77.1955 61.0522 77.1135 61.3516 76.9653 61.6196C76.7791 61.9757 76.5473 62.306 76.2767 62.6024C75.4151 63.5762 74.3575 64.3539 73.1745 64.8839C71.9822 65.41 70.6934 65.6771 69.3919 65.6678C68.2072 65.7003 67.0292 65.4785 65.9361 65.0169C64.843 64.5553 63.8597 63.8646 63.0517 62.9906C61.3612 61.1637 60.4579 58.7355 60.54 56.2383C60.4507 53.5941 61.3946 51.0203 63.1686 49.0707C64.0028 48.1488 65.0236 47.4182 66.162 46.9283C67.3004 46.4385 68.5299 46.2008 69.7673 46.2314C71.7694 46.1258 73.7312 46.8258 75.2217 48.1776C75.9058 48.8635 76.4386 49.6865 76.7867 50.5935C77.1347 51.5004 77.2898 52.471 77.2419 53.4422C77.289 53.9231 77.2092 54.408 77.0109 54.8478C76.8551 55.0655 76.4317 55.1743 75.7409 55.1743ZM64.5273 53.6238H73.5766C73.7742 53.6481 73.9734 53.5929 74.1311 53.4703C74.2463 53.2983 74.2968 53.0905 74.2737 52.8843C74.2917 52.2331 74.1754 51.5852 73.9323 50.9816C73.6892 50.3782 73.3245 49.832 72.8613 49.3778C72.1015 48.6662 71.1475 48.2008 70.1226 48.0416C69.0977 47.8824 68.0489 48.0368 67.1119 48.4847C66.413 48.8317 65.7945 49.3232 65.2963 49.9271C64.8844 50.4234 64.5443 50.976 64.286 51.5684C64.0564 52.0475 63.9257 52.5688 63.9021 53.1005C63.8942 53.1738 63.902 53.2481 63.9251 53.318C63.9483 53.388 63.9861 53.4521 64.0361 53.506C64.1819 53.6004 64.3551 53.6419 64.5273 53.6238Z" fill="black"/>
<path id="Path_4" d="M94.2544 52.5599C93.866 52.5663 93.489 52.4246 93.1995 52.1631C92.7807 51.7178 92.4471 51.1983 92.216 50.631C91.8839 49.8504 91.3755 49.1588 90.7318 48.6112C90.1526 48.1808 89.4474 47.9589 88.7284 47.9809C87.8863 47.9415 87.0465 48.1012 86.2766 48.447C85.5068 48.7928 84.8281 49.3152 84.2938 49.9725C83.1371 51.5703 82.5678 53.5242 82.6849 55.4988C82.6013 57.5648 83.2549 59.5925 84.5271 61.2142C85.0842 61.9264 85.7971 62.4988 86.6095 62.8868C87.4227 63.2747 88.3134 63.4676 89.2125 63.4502C89.8304 63.4484 90.443 63.3447 91.0274 63.1431C91.6559 62.925 92.2495 62.6154 92.7891 62.2241C93.2322 61.8913 93.6448 61.5201 94.0226 61.1147C94.3372 60.7025 94.7879 60.4177 95.2925 60.3124C95.3852 60.3096 95.4772 60.3256 95.5631 60.3599C95.6497 60.3941 95.728 60.4456 95.7934 60.5114C95.861 60.5833 95.9134 60.6684 95.9469 60.7613C95.9811 60.8542 95.9955 60.9531 95.991 61.052C95.9742 61.3712 95.8785 61.6813 95.7128 61.9537C95.4939 62.3357 95.2264 62.6872 94.9171 62.9993C94.1092 63.8669 93.1235 64.5468 92.0291 64.992C90.8891 65.4498 89.6708 65.6794 88.4442 65.6678C87.2365 65.714 86.0327 65.5035 84.9109 65.0499C83.7899 64.5963 82.7753 63.9097 81.934 63.035C81.0896 62.1193 80.433 61.044 80.0036 59.871C79.5734 58.6981 79.3789 57.4509 79.4298 56.2015C79.3477 53.5724 80.303 51.0177 82.0868 49.0978C83.5832 47.564 85.5531 46.5893 87.672 46.3339C89.7909 46.0784 91.9326 46.5574 93.7459 47.6922C95.1588 48.6415 95.8656 49.6813 95.8656 50.8116C95.8808 51.2728 95.7174 51.7221 95.4096 52.0637C95.2636 52.2255 95.085 52.3537 94.8859 52.4393C94.6868 52.525 94.471 52.5661 94.2544 52.5599Z" fill="black"/>
<path id="Path_5" d="M98.8406 48.9215H97.3024C97.1587 48.9307 97.0151 48.8964 96.8912 48.8231C96.8456 48.7934 96.8084 48.7523 96.7833 48.7038C96.7582 48.6552 96.746 48.6009 96.7483 48.5462V48.0457C96.7483 47.6852 97.1952 47.0076 98.089 46.0129C98.3504 45.7368 98.5472 45.5206 98.6795 45.3642C98.8224 45.2085 99.0124 44.9933 99.251 44.7154C100.146 43.6825 100.754 43.1664 101.074 43.1671C101.234 43.1565 101.391 43.2085 101.513 43.312C101.566 43.3664 101.606 43.4314 101.633 43.5028C101.659 43.5741 101.669 43.6502 101.664 43.7261V47.0076H105.348C105.44 46.9983 105.533 47.0086 105.621 47.0378C105.709 47.0671 105.79 47.1146 105.858 47.1774C105.975 47.3404 106.028 47.54 106.01 47.7397V48.2219C106.026 48.4121 105.968 48.6012 105.849 48.7495C105.782 48.8109 105.702 48.8576 105.616 48.8868C105.53 48.916 105.439 48.9271 105.348 48.9193H102.058C102.001 48.9182 101.945 48.9317 101.895 48.9586C101.845 48.9855 101.802 49.0248 101.772 49.0729C101.692 49.2059 101.655 49.3601 101.664 49.5151V59.5349C101.586 60.5806 101.735 61.6311 102.103 62.6121C102.255 62.8796 102.479 63.0976 102.751 63.24C103.022 63.3824 103.328 63.4433 103.632 63.4155C104.053 63.3978 104.466 63.2963 104.848 63.1171C105.126 62.978 105.421 62.8779 105.725 62.8197C105.892 62.8121 106.055 62.8702 106.181 62.9819C106.237 63.038 106.282 63.1055 106.311 63.18C106.34 63.2546 106.353 63.3344 106.35 63.4144C106.35 63.9435 105.95 64.4571 105.152 64.9552C104.347 65.456 103.417 65.7155 102.471 65.7034C101.943 65.7531 101.411 65.6686 100.924 65.4576C100.437 65.2467 100.01 64.9159 99.6827 64.4956C99.0184 63.2465 98.7274 61.8306 98.8429 60.4183L98.8406 48.9215Z" fill="black"/>
<path id="Path_6" d="M110.386 58.1674C110.386 55.2704 110.35 53.1519 110.278 51.8118C110.302 51.0005 110.18 50.1915 109.92 49.4234C109.813 49.2547 109.444 49.1253 108.811 49.0352C108.179 48.9451 107.864 48.6896 107.864 48.2686C107.865 48.1469 107.892 48.0268 107.943 47.9165C107.994 47.806 108.068 47.7079 108.159 47.6285C108.467 47.3766 108.815 47.1785 109.187 47.0425C109.767 46.8076 110.361 46.6119 110.967 46.4565C111.424 46.3264 111.896 46.2509 112.371 46.2316C112.498 46.2181 112.627 46.2365 112.745 46.2852C112.864 46.3339 112.968 46.4113 113.05 46.5105C113.212 46.8368 113.28 47.2024 113.247 47.5658C113.247 47.6858 113.241 48.0351 113.229 48.6114C113.145 51.9416 113.103 55.3133 113.103 58.7264C113.083 59.8275 113.119 60.9289 113.21 62.0263C113.217 62.4152 113.343 62.7927 113.569 63.1076C113.858 63.3013 114.179 63.4418 114.517 63.5228C115.018 63.6785 115.268 63.9127 115.268 64.2256C115.268 64.5982 114.987 64.8747 114.427 65.0549C113.561 65.2703 112.671 65.3613 111.78 65.3252C110.857 65.3624 109.935 65.2744 109.036 65.0635C108.469 64.8891 108.186 64.6098 108.186 64.2256C108.186 63.9134 108.437 63.6792 108.937 63.5228C109.275 63.4416 109.596 63.3011 109.885 63.1076C110.136 62.7253 110.269 62.2771 110.269 61.8187C110.346 61.1282 110.385 59.9111 110.386 58.1674Z" fill="black"/>
<path id="Path_7" d="M125.663 61.6651H125.878C127.331 58.841 128.515 56.2715 129.427 53.957C130.094 52.5188 130.555 50.9923 130.795 49.4233C130.805 49.2392 130.751 49.0574 130.643 48.9087C130.429 48.7146 130.176 48.57 129.901 48.4848L129.633 48.3767C128.99 48.1244 128.667 47.8541 128.667 47.5657C128.667 47.1931 128.924 46.9285 129.437 46.7722C131.134 46.4592 132.873 46.4592 134.57 46.7722C135.082 46.9285 135.339 47.1931 135.339 47.5657C135.339 47.831 135.077 48.0535 134.552 48.2329C134.358 48.2953 134.167 48.3675 133.98 48.4491C133.652 48.5912 133.364 48.8108 133.139 49.0893C132.838 49.5303 132.604 50.0133 132.442 50.5229L132.227 51.0636C128.519 60.8005 126.224 65.6686 125.342 65.6679C124.806 65.6679 124.159 64.9226 123.402 63.4319C122.645 61.9412 121.128 58.1191 118.851 51.9654C118.791 51.7967 118.701 51.5502 118.582 51.2258C118.341 50.3435 117.954 49.5086 117.437 48.7562C117.16 48.5711 116.855 48.4311 116.534 48.341C116.051 48.1724 115.811 47.9381 115.811 47.6382C115.811 47.2533 116.09 46.9736 116.651 46.7992C117.553 46.5899 118.479 46.5037 119.404 46.5429C120.383 46.504 121.362 46.589 122.319 46.7959C122.891 46.9646 123.177 47.2471 123.177 47.6436C123.177 47.968 122.838 48.2322 122.158 48.4362C122.015 48.4852 121.919 48.5155 121.872 48.527C121.652 48.6058 121.462 48.7502 121.326 48.9411C121.188 49.1355 121.116 49.3694 121.12 49.6082C121.368 51.07 121.791 52.4959 122.382 53.8543C123.222 56.1162 124.316 58.7199 125.663 61.6651Z" fill="black"/>
<path id="Shape_3" d="M150.217 55.1743H138.932C138.845 55.1642 138.757 55.1717 138.672 55.1964C138.588 55.2211 138.51 55.2625 138.441 55.3181C138.332 55.4826 138.285 55.6807 138.307 55.8771C138.224 57.8732 138.852 59.8333 140.077 61.4033C140.615 62.0908 141.303 62.6432 142.088 63.0172C142.873 63.391 143.734 63.5763 144.602 63.5583C145.312 63.5593 146.016 63.4372 146.685 63.1971C147.352 62.9608 147.973 62.6068 148.517 62.1515C148.945 61.7816 149.343 61.3777 149.707 60.9438C150.214 60.3671 150.641 60.0788 150.986 60.0788C151.078 60.0753 151.169 60.0904 151.255 60.1229C151.341 60.1553 151.42 60.2047 151.486 60.268C151.55 60.329 151.602 60.4031 151.636 60.4856C151.67 60.568 151.686 60.6567 151.683 60.746C151.672 61.0522 151.59 61.3516 151.442 61.6195C151.255 61.9755 151.024 62.3057 150.754 62.6024C149.891 63.5761 148.834 64.3538 147.651 64.8838C146.458 65.4099 145.17 65.6771 143.868 65.6677C142.683 65.7003 141.505 65.4784 140.413 65.0169C139.32 64.5553 138.336 63.8646 137.528 62.9906C135.837 61.1636 134.935 58.7354 135.017 56.2382C134.927 53.5941 135.871 51.0202 137.645 49.0707C138.479 48.1487 139.5 47.4181 140.638 46.9282C141.777 46.4385 143.006 46.2008 144.244 46.2313C146.246 46.1259 148.208 46.8259 149.698 48.1776C150.382 48.8634 150.915 49.6865 151.263 50.5934C151.611 51.5003 151.766 52.4709 151.719 53.4421C151.766 53.9232 151.686 54.4083 151.486 54.8477C151.332 55.0654 150.909 55.1743 150.217 55.1743ZM139.004 53.6238H148.053C148.25 53.6477 148.45 53.5926 148.608 53.4703C148.722 53.2982 148.773 53.0904 148.751 52.8842C148.768 52.233 148.652 51.5852 148.409 50.9816C148.166 50.378 147.801 49.832 147.338 49.3777C146.578 48.6662 145.624 48.2008 144.599 48.0416C143.574 47.8823 142.525 48.0367 141.588 48.4847C140.89 48.8317 140.271 49.3231 139.773 49.927C139.361 50.4233 139.021 50.9759 138.763 51.5683C138.532 52.0474 138.402 52.5687 138.377 53.1005C138.37 53.1739 138.378 53.2481 138.401 53.3182C138.424 53.3881 138.462 53.4522 138.513 53.506C138.659 53.6004 138.832 53.642 139.004 53.6238Z" fill="black"/>
<path id="Path_8" d="M2.71864 20.7792C2.71864 17.991 2.66502 15.6591 2.55777 13.7835C2.57295 12.7185 2.44048 11.6565 2.16419 10.6285C1.83108 10.3147 1.43015 10.0833 0.993079 9.95268C0.331741 9.68093 0.00071516 9.29313 0 8.78927C0.00045828 8.54865 0.0836441 8.31563 0.235391 8.12991C0.387137 7.94419 0.598054 7.81727 0.83221 7.77074C2.21457 7.51458 3.62168 7.4206 5.02547 7.4907C6.40254 7.42381 7.78263 7.51779 9.13832 7.77074C9.37658 7.81327 9.59257 7.93828 9.74921 8.12421C9.90584 8.31015 9.99324 8.54535 9.99628 8.78927C9.99628 9.29385 9.61484 9.69643 8.85195 9.99702C8.56155 10.1001 8.28522 10.2396 8.0294 10.4122C7.80201 10.5794 7.64689 11.048 7.56398 11.8178C7.48099 12.5877 7.43957 14.4315 7.43957 17.3494C7.42589 17.5746 7.48714 17.7978 7.61361 17.984C7.74007 18.17 7.92452 18.3082 8.1377 18.3767C9.25277 18.6219 10.3958 18.7128 11.5352 18.6469H13.1085C14.9674 18.6469 16.279 18.608 17.0433 18.5301C17.5644 18.5261 18.0756 18.3864 18.5275 18.1247C18.6308 18.0363 18.7018 17.9157 18.7291 17.782C18.7791 17.5388 18.7999 17.2905 18.7914 17.0424V16.1958C18.7914 13.7796 18.7495 12.2467 18.6659 11.5973C18.5822 10.9478 18.4393 10.5513 18.2369 10.4079C17.9755 10.2336 17.693 10.094 17.3961 9.99269C16.6218 9.6921 16.2347 9.28952 16.2347 8.78494C16.2347 8.2919 16.5267 7.95239 17.1109 7.76642C18.4727 7.51441 19.8588 7.42045 21.2419 7.48638C22.6364 7.41798 24.0342 7.50903 25.4083 7.75777C25.6429 7.80521 25.8535 7.9339 26.0037 8.12152C26.154 8.30913 26.2344 8.54384 26.2311 8.78494C26.2311 9.30178 25.8434 9.70436 25.0684 9.99269C24.778 10.0958 24.5016 10.2353 24.2458 10.4079C23.9963 10.6004 23.8115 11.5407 23.6913 13.2288C23.5712 14.917 23.5115 17.4324 23.5123 20.7748C23.5123 23.7562 23.563 26.1933 23.6646 28.0861C23.6425 29.1728 23.778 30.2568 24.0667 31.3039C24.3999 31.6163 24.8015 31.8448 25.2389 31.9711C25.9003 32.2356 26.2311 32.6144 26.2311 33.1074C26.2311 33.6596 25.8823 34.0441 25.1853 34.2611C23.8895 34.5354 22.5646 34.6443 21.2419 34.5855C19.9042 34.6475 18.5641 34.5384 17.2534 34.2611C16.5735 34.0449 16.2339 33.6603 16.2347 33.1074C16.2347 32.5906 16.6218 32.188 17.3961 31.8997C17.693 31.7984 17.9755 31.6589 18.2369 31.4845C18.4393 31.3288 18.5822 30.8542 18.6659 30.0605C18.7495 29.2669 18.7914 27.8003 18.7914 25.6609C18.7914 24.3029 18.7763 23.4285 18.7463 23.0379C18.7494 22.79 18.7072 22.5437 18.6219 22.3113C18.4789 22.0712 18.1064 21.9033 17.5044 21.8074C16.0448 21.6754 14.5789 21.6271 13.1139 21.6625C11.1355 21.6625 9.80324 21.6986 9.11681 21.7706C8.64204 21.778 8.17707 21.9083 7.76667 22.1491C7.64028 22.3057 7.56527 22.498 7.55212 22.6994C7.49429 23.1688 7.47057 23.6419 7.48137 24.1148V25.6653C7.48137 27.8047 7.52286 29.2712 7.60578 30.0649C7.68869 30.8585 7.83173 31.3331 8.03472 31.4888C8.29061 31.6615 8.56695 31.801 8.85735 31.9041C9.61947 32.1924 10.0009 32.595 10.0016 33.1118C10.0016 33.6639 9.66165 34.0485 8.98168 34.2654C7.67152 34.5428 6.33174 34.6518 4.99437 34.5899C3.67162 34.6488 2.34678 34.5397 1.05099 34.2654C0.353906 34.0492 0.00500232 33.6646 0.00428716 33.1118C0.00428716 32.6072 0.391797 32.2047 1.16682 31.9041C1.45719 31.801 1.73355 31.6615 1.98939 31.4888C2.25178 31.2964 2.43981 30.4068 2.55349 28.8203C2.66716 27.2338 2.72222 24.5534 2.71864 20.7792Z" fill="black"/>
<path id="Shape_4" d="M34.2513 24.8899H34.0014C33.583 24.8432 33.1596 24.8988 32.767 25.052C32.6362 25.1601 32.5708 25.4485 32.5708 25.917C32.5779 27.4368 33.1823 28.8918 34.2515 29.9632C35.3208 31.0345 36.7677 31.6348 38.2751 31.6324C38.9426 31.6342 39.6063 31.5306 40.242 31.3254C40.8995 31.1083 41.5207 30.7923 42.0845 30.388C42.2517 30.2675 42.4784 30.0931 42.7644 29.8647C43.1554 29.4608 43.6614 29.1899 44.2122 29.0894C44.3379 29.0855 44.463 29.1075 44.58 29.1541C44.6969 29.2008 44.8031 29.2711 44.8921 29.3608C44.9786 29.4446 45.047 29.5454 45.0931 29.657C45.1392 29.7686 45.1621 29.8886 45.1602 30.0095C45.1186 30.4174 44.9569 30.8034 44.6958 31.1178C44.3395 31.6042 43.918 32.0383 43.4432 32.4077C42.5088 33.217 41.4524 33.8711 40.3138 34.3453C38.6322 34.968 36.8098 35.0971 35.0583 34.7176C33.3067 34.3381 31.6979 33.4655 30.4184 32.2012C29.5464 31.311 28.8618 30.2524 28.4055 29.089C27.9492 27.9255 27.7307 26.6812 27.763 25.4305C27.7164 24.1015 27.9337 22.7766 28.402 21.5335C28.8703 20.2904 29.5803 19.1542 30.4903 18.1915C31.3935 17.2534 32.4815 16.516 33.6842 16.027C34.887 15.5381 36.1779 15.3082 37.474 15.3523C38.5119 15.297 39.5502 15.4512 40.5282 15.8056C41.5062 16.16 42.4043 16.7077 43.1698 17.4163C43.8834 18.1496 44.4386 19.0241 44.8002 19.9845C45.1617 20.945 45.322 21.9706 45.2707 22.9966C45.3321 23.5286 45.2122 24.0659 44.9307 24.5201C44.7048 24.7666 44.1267 24.8899 43.1966 24.8899H34.2513ZM33.8759 22.7447H39.9202C40.2432 22.7725 40.568 22.7228 40.8683 22.5998C40.9524 22.5355 41.0182 22.4499 41.0591 22.3517C41.0999 22.2537 41.1144 22.1464 41.101 22.0408C41.1152 21.4756 41.0155 20.9134 40.8078 20.3882C40.6003 19.863 40.2892 19.3857 39.8935 18.9852C39.4972 18.5784 39.0218 18.2587 38.4971 18.0463C37.9723 17.8337 37.4097 17.733 36.8445 17.7504C36.2968 17.7352 35.7521 17.8375 35.2465 18.0503C34.7408 18.2632 34.2857 18.5819 33.9114 18.9852C33.5279 19.3925 33.2277 19.872 33.0283 20.3963C32.8288 20.9206 32.7338 21.4794 32.7488 22.0408C32.7353 22.1446 32.7478 22.2502 32.7853 22.3479C32.8227 22.4456 32.884 22.5322 32.9633 22.5998C33.2508 22.7241 33.5645 22.7739 33.8759 22.7447Z" fill="black"/>
<path id="Shape_5" d="M62.709 29.2712C62.6875 29.8064 62.7479 30.3418 62.8881 30.8585C62.9211 31.0018 62.989 31.1345 63.0859 31.2446C63.1828 31.3547 63.3053 31.4387 63.4426 31.4888C63.5856 31.5378 63.7761 31.5919 64.0142 31.651C64.8006 31.8673 65.1939 32.1859 65.1939 32.6068C65.1939 33.208 64.7767 33.7518 63.9424 34.2384C63.0526 34.7396 62.0463 34.9919 61.0275 34.9693C60.6859 34.9329 60.3553 34.8271 60.0556 34.6581C59.7558 34.4892 59.4933 34.2607 59.2836 33.9864C58.9819 33.6363 58.6561 33.3079 58.3088 33.0036C58.0179 33.0912 57.7453 33.2315 57.5044 33.4177C56.1398 34.3851 54.5229 34.9262 52.8554 34.9737C51.2386 35.0452 49.6589 34.4719 48.4584 33.3778C47.9003 32.8421 47.4618 32.1928 47.172 31.473C46.8823 30.7531 46.7479 29.9794 46.7778 29.2031C46.7367 28.3026 46.9119 27.4054 47.2886 26.5878C47.6651 25.7703 48.232 25.0565 48.941 24.5072C50.7141 23.2839 52.8407 22.6905 54.9853 22.8205C55.4743 22.8205 56.008 22.8476 56.5864 22.9016C57.1648 22.9557 57.7876 23.0371 58.4546 23.1459L58.4729 21.1619C58.5318 20.2541 58.2792 19.3535 57.7576 18.6112C57.5109 18.3121 57.198 18.0754 56.8441 17.9203C56.4902 17.7651 56.1052 17.6959 55.7199 17.7182C55.1296 17.7139 54.547 17.8529 54.0212 18.1236C53.4404 18.4404 52.9247 18.8657 52.5015 19.3767C52.405 19.4849 52.2742 19.6481 52.1079 19.8644C51.8467 20.2757 51.4941 20.6202 51.0782 20.8705C50.6621 21.1208 50.1941 21.2702 49.711 21.3067C49.4933 21.3165 49.2759 21.2788 49.0739 21.1963C48.8718 21.1139 48.6897 20.9885 48.5399 20.8288C48.2337 20.4723 48.0765 20.01 48.1012 19.539C48.1482 18.8886 48.3754 18.2645 48.7569 17.7378C49.1383 17.2112 49.6588 16.8032 50.259 16.5601C51.982 15.6905 53.8954 15.2749 55.8207 15.3524C57.0299 15.3243 58.2346 15.5102 59.3802 15.9016C60.2814 16.2069 61.0803 16.7596 61.687 17.4976C62.0883 18.0534 62.3573 18.6949 62.4731 19.3725C62.6631 20.6432 62.741 21.9284 62.7058 23.213L62.709 29.2712ZM58.4525 25.5387C57.9635 25.4306 57.4937 25.3495 57.0401 25.2954C56.6131 25.243 56.1833 25.216 55.7531 25.2144C54.6384 25.1476 53.5342 25.4656 52.6227 26.1162C52.2531 26.4112 51.9583 26.7904 51.7625 27.2228C51.5668 27.6551 51.4756 28.1282 51.4966 28.603C51.4774 29.05 51.5546 29.4959 51.7229 29.9099C51.8912 30.324 52.1466 30.6963 52.4715 31.0012C53.1973 31.6302 54.1356 31.9531 55.0915 31.9029C55.5569 31.9491 56.0268 31.9011 56.4736 31.7616C56.9204 31.6222 57.335 31.3941 57.6932 31.0909C58.2909 30.2976 58.5687 29.3056 58.4708 28.3142L58.4525 25.5387Z" fill="black"/>
<path id="Path_9" d="M68.2763 20.0395V18.5971C68.2763 15.4601 68.2226 13.4349 68.1154 12.5216C68.0081 11.6084 67.8233 11.0793 67.561 10.9344C67.1948 10.7567 66.8113 10.6179 66.4166 10.5203C65.6302 10.304 65.2369 9.97352 65.2369 9.52877C65.2351 9.37846 65.2672 9.22972 65.3307 9.09373C65.3943 8.95775 65.4876 8.83809 65.6037 8.74379C66.1246 8.40221 66.6947 8.14398 67.2939 7.97827C68.1101 7.6895 68.9432 7.45154 69.7884 7.26574C70.4247 7.11303 71.0747 7.02537 71.7284 7.00407C71.8785 6.9895 72.0298 7.01418 72.1677 7.07573C72.3056 7.13729 72.4254 7.23363 72.5156 7.35548C72.7025 7.73867 72.7829 8.16575 72.7483 8.59134C72.7483 8.75929 72.7362 9.24008 72.7119 10.0337C72.5688 14.4927 72.4974 19.0001 72.4974 23.5557C72.4974 26.8852 72.5364 29.0099 72.6143 29.9297C72.6052 30.536 72.7494 31.1348 73.0336 31.6693C73.349 31.9089 73.7031 32.0918 74.0803 32.21C74.3201 32.2679 74.5346 32.4031 74.6911 32.5951C74.8478 32.7872 74.9379 33.0255 74.9479 33.2739C74.9479 33.7547 74.638 34.0942 74.0181 34.2924C72.9153 34.5408 71.7848 34.6408 70.656 34.5897C69.3991 34.6528 68.1393 34.55 66.9089 34.2838C66.6514 34.2286 66.4207 34.0853 66.2561 33.8781C66.0915 33.671 66.0031 33.4128 66.0058 33.1474C66.0058 32.764 66.2622 32.4575 66.7748 32.2283C67.1139 32.1002 67.4331 31.924 67.7228 31.705C68.0166 31.2788 68.1754 30.773 68.1786 30.254C68.2877 29.022 68.3324 27.7853 68.3127 26.5486C68.3127 26.044 68.307 25.0709 68.2956 23.6292C68.2841 22.1875 68.2776 20.991 68.2763 20.0395Z" fill="black"/>
<path id="Path_10" d="M86.5929 15.8746C86.8201 15.8484 87.0481 15.9133 87.2283 16.0552C87.3658 16.2617 87.4259 16.5109 87.3977 16.758V17.2089C87.4198 17.4585 87.3529 17.708 87.21 17.9128C87.1287 17.9916 87.0314 18.0517 86.925 18.089C86.8186 18.1263 86.7054 18.14 86.5929 18.129H82.7541C82.6971 18.128 82.6409 18.1414 82.5907 18.1683C82.5406 18.1952 82.498 18.2345 82.4676 18.2826C82.3878 18.4152 82.3506 18.5691 82.3605 18.7237V28.0635C82.2647 29.0903 82.4023 30.1257 82.7625 31.0909C82.9396 31.3126 83.1691 31.4852 83.4306 31.5925C83.692 31.6998 83.9762 31.7382 84.2559 31.704C84.7727 31.6805 85.2819 31.5773 85.7675 31.398C86.1779 31.2389 86.6081 31.1357 87.0459 31.0909C87.2951 31.0817 87.5383 31.1687 87.7253 31.3342C87.8135 31.4148 87.8834 31.5138 87.9297 31.6244C87.9761 31.735 87.9981 31.8543 87.9936 31.9743C87.9936 32.6598 87.4661 33.3241 86.4105 33.967C85.3275 34.6178 84.0864 34.9518 82.8256 34.9315C82.1195 34.942 81.4158 34.8387 80.7417 34.6255C80.1549 34.4369 79.6146 34.1232 79.1586 33.7054C78.6957 33.2585 78.3727 32.685 78.2291 32.0554C78.0026 30.7857 77.9129 29.4953 77.9608 28.2061V18.129H76.2447C76.0517 18.1493 75.8587 18.0978 75.7003 17.9841C75.6437 17.9176 75.6009 17.8402 75.5747 17.7566C75.5486 17.673 75.5395 17.5848 75.5481 17.4976V17.0467C75.5481 16.638 76.1976 15.875 77.4965 14.7577C77.8195 14.4809 78.0763 14.2585 78.2663 14.0906C78.4335 13.9464 78.6714 13.7359 78.9823 13.4591C80.2689 12.3174 81.1505 11.7465 81.6278 11.7465C81.8368 11.7344 82.0443 11.7913 82.2183 11.9086C82.2883 11.9604 82.3445 12.0285 82.3817 12.1072C82.419 12.1858 82.4365 12.2724 82.4334 12.3595V15.8746H86.5929Z" fill="black"/>
<path id="Path_11" d="M94.9848 17.782C94.9749 17.9367 95.003 18.0914 95.0654 18.2329C95.0935 18.2809 95.1345 18.3199 95.1832 18.3454C95.2326 18.3708 95.288 18.3817 95.3428 18.3766C95.3906 18.3766 95.5244 18.2361 95.7456 17.9528C95.9485 17.6909 96.1666 17.441 96.3984 17.2046C96.979 16.6264 97.657 16.1563 98.401 15.8163C99.0994 15.505 99.8549 15.3455 100.619 15.3481C101.52 15.2833 102.424 15.4396 103.252 15.8038C104.08 16.168 104.809 16.7291 105.376 17.4392C106.424 18.834 106.949 20.9435 106.949 23.7677C106.949 23.8045 106.955 24.3877 106.967 25.5172C106.979 26.6467 106.985 27.764 106.984 28.8691V29.933C106.959 30.3968 107.02 30.8615 107.164 31.3029C107.285 31.5825 107.492 31.8161 107.754 31.97C107.911 32.0459 108.072 32.1123 108.237 32.169C108.845 32.3967 109.149 32.7211 109.149 33.1421C109.153 33.4052 109.068 33.6619 108.906 33.8689C108.745 34.0759 108.519 34.2206 108.264 34.2784C107.003 34.5478 105.714 34.6506 104.428 34.5845C103.308 34.6357 102.186 34.5357 101.092 34.2871C100.478 34.0889 100.171 33.7493 100.171 33.2686C100.171 32.7878 100.487 32.4331 101.12 32.2046C101.36 32.1225 101.593 32.0201 101.816 31.8987C101.983 31.7741 102.123 31.616 102.226 31.4344C102.329 31.2527 102.394 31.0515 102.416 30.8433C102.557 29.9221 102.613 28.9898 102.586 28.0581C102.586 24.0315 102.335 21.5104 101.835 20.4948C101.585 19.995 101.193 19.5824 100.708 19.3107C100.223 19.039 99.6687 18.9207 99.1162 18.9713C98.4352 18.9754 97.7717 19.1857 97.2116 19.5746C96.612 19.975 96.1324 20.5333 95.8254 21.1889C95.5062 21.9008 95.3124 22.6633 95.2531 23.4423C95.1459 24.4038 95.092 26.1108 95.092 28.563C95.0616 29.4015 95.1125 30.2409 95.2447 31.0694C95.2721 31.2386 95.3352 31.3999 95.4294 31.5428C95.5236 31.6857 95.6468 31.807 95.7904 31.8987C96.0138 32.0201 96.2472 32.1225 96.4873 32.2046C97.1189 32.4324 97.435 32.787 97.4358 33.2686C97.4358 33.7501 97.1318 34.0896 96.523 34.2871C95.4385 34.5357 94.3251 34.6357 93.214 34.5845C91.9311 34.6497 90.6444 34.5469 89.3882 34.2784C89.1313 34.2221 88.9025 34.0782 88.7399 33.8711C88.5765 33.664 88.4898 33.4065 88.4936 33.1421C88.4936 32.7334 88.7916 32.4151 89.3882 32.1873C89.5599 32.1274 89.7271 32.0551 89.889 31.9711C90.0722 31.8497 90.2295 31.6921 90.3511 31.5077C90.4727 31.3234 90.5555 31.1162 90.595 30.8985C90.7668 29.9625 90.8352 29.0103 90.8002 28.0591V22.1448C90.8002 17.8054 90.7615 14.951 90.6847 13.5814C90.7121 12.7452 90.5753 11.9118 90.2819 11.1291C89.8974 10.839 89.4497 10.6445 88.9762 10.5615C88.2368 10.3503 87.8674 10.0284 87.8682 9.5959C87.8704 9.42552 87.913 9.25812 87.992 9.10765C88.0711 8.95716 88.1851 8.82799 88.3242 8.73091C88.9876 8.31513 89.6998 7.98219 90.443 7.73942C91.0465 7.52086 91.6651 7.34916 92.2944 7.22583C92.8621 7.10662 93.4397 7.04289 94.0196 7.03553C94.1845 7.01839 94.351 7.04147 94.5045 7.10282C94.6588 7.16417 94.7956 7.26199 94.9042 7.38801C95.1094 7.75203 95.1999 8.17014 95.1642 8.58711C95.1642 8.67036 95.152 8.93527 95.1284 9.37966C95.0334 11.8305 94.9856 14.3249 94.9848 16.8629V17.782Z" fill="black"/>
<path id="Path_12" d="M122.191 29.5782C120.151 34.7826 118.472 38.1705 117.15 39.7419C116.595 40.4679 115.883 41.057 115.067 41.4646C114.252 41.8722 113.356 42.0877 112.447 42.0947C111.627 42.1244 110.825 41.8484 110.195 41.3194C109.908 41.0812 109.679 40.7808 109.524 40.4405C109.369 40.1002 109.293 39.7291 109.3 39.3548C109.296 39.0553 109.352 38.758 109.464 38.4807C109.576 38.2034 109.742 37.9516 109.953 37.7405C110.259 37.4285 110.648 37.2123 111.073 37.118C111.498 37.0236 111.941 37.055 112.349 37.2085C112.573 37.2982 112.772 37.4406 112.931 37.6237C113.062 37.7913 113.229 38.0259 113.431 38.3265C113.753 38.8195 114.033 39.066 114.272 39.066C114.903 39.066 115.544 38.6062 116.195 37.6864C116.812 36.8622 117.153 35.8614 117.168 34.8287C117.029 33.2322 116.586 31.6776 115.864 30.2496C115.78 30.0456 115.715 29.8954 115.667 29.7988C114.606 27.4201 113.612 25.2215 112.689 23.2032C111.766 21.1849 111.196 19.9645 110.982 19.5421C110.659 19.0065 110.158 18.6041 109.568 18.4068C109.568 18.3949 109.563 18.3885 109.551 18.3885C109.227 18.2858 108.93 18.1102 108.683 17.8749C108.531 17.6907 108.451 17.4562 108.46 17.2164C108.46 16.6642 108.787 16.2796 109.444 16.0627C110.657 15.7888 111.902 15.6797 113.145 15.7383C114.362 15.6804 115.582 15.7803 116.775 16.0357C117.383 16.2346 117.687 16.5864 117.687 17.0909C117.692 17.2865 117.653 17.4806 117.572 17.6586C117.501 17.8127 117.385 17.9416 117.241 18.0284C117.019 18.1427 116.792 18.2448 116.56 18.3344C116.085 18.5268 115.846 18.7312 115.845 18.9474C115.904 19.4259 116.028 19.8939 116.214 20.3379C116.465 21.0284 116.965 22.2874 117.716 24.1147C118.431 25.8447 118.949 27.0135 119.271 27.6211C119.594 28.2288 119.844 28.5322 120.022 28.5316C120.142 28.5316 120.345 28.2342 120.63 27.6395C120.916 27.0448 121.321 26.0624 121.846 24.692C122.478 23.081 122.937 21.8336 123.223 20.9499C123.441 20.3728 123.586 19.77 123.653 19.1561C123.653 18.7957 123.304 18.4173 122.607 18.0208C121.91 17.6244 121.561 17.2639 121.56 16.9396C121.56 16.5071 121.844 16.1975 122.411 16.0108C123.38 15.7809 124.375 15.687 125.37 15.7319C126.386 15.677 127.405 15.7773 128.391 16.0292C128.621 16.0908 128.824 16.2284 128.966 16.4197C129.109 16.611 129.184 16.8451 129.179 17.0845C129.179 17.5407 128.827 17.859 128.124 18.0392C127.859 18.1021 127.601 18.1931 127.355 18.3106C126.651 18.6948 125.9 19.9508 125.103 22.0787C124.876 22.7037 124.698 23.1845 124.566 23.5211L122.191 29.5782Z" fill="black"/>
</g>
</g>
</svg>
