<svg width="19" height="19" viewBox="0 0 19 19" fill="none" xmlns="http://www.w3.org/2000/svg">
<g id="Frame">
<path id="Vector" d="M3.63232 10.8125V17H8.13232V12.5C8.13232 12.2016 8.25085 11.9155 8.46183 11.7045C8.67281 11.4935 8.95896 11.375 9.25732 11.375H10.3823C10.6807 11.375 10.9668 11.4935 11.1778 11.7045C11.3888 11.9155 11.5073 12.2016 11.5073 12.5V17H16.0073V10.8125" stroke="#00491D" stroke-width="1.125" stroke-linecap="round" stroke-linejoin="round"/>
<path id="Vector_2" d="M1.38232 9.68733L9.02407 2.04558C9.12855 1.94104 9.2526 1.85811 9.38914 1.80152C9.52568 1.74494 9.67203 1.71582 9.81982 1.71582C9.96762 1.71582 10.114 1.74494 10.2505 1.80152C10.387 1.85811 10.5111 1.94104 10.6156 2.04558L18.2573 9.68733" stroke="#00491D" stroke-width="1.125" stroke-linecap="round" stroke-linejoin="round"/>
</g>
</svg>
