<svg width="180" height="180" viewBox="0 0 180 180" fill="none" xmlns="http://www.w3.org/2000/svg">
<g id="LogoHC 1" clip-path="url(#clip0_193_16162)">
<g id="Browser__Logo__HC__CRM">
<path id="Rectangle 19" d="M180 0H0V180H180V0Z" fill="#74B6FF"/>
<g id="Group">
<path id="Path" d="M13.7352 104.812C12.3571 104.82 10.9855 104.619 9.6664 104.217C8.4109 103.834 7.2247 103.25 6.153 102.487C4.3533 101.183 2.9178 99.432 1.9855 97.4052C1.0005 95.1975 0.5119 92.7975 0.5548 90.3771C0.5495 88.8489 0.7726 87.3285 1.2165 85.8672C1.6317 84.478 2.2724 83.1679 3.1126 81.9899C4.2649 80.4019 5.7681 79.1063 7.5032 78.2056C9.2125 77.3099 11.1117 76.8457 13.0381 76.8529C14.3189 76.8616 15.5932 77.0375 16.8292 77.3763C18.1404 77.7245 18.8436 77.8985 18.9387 77.8985C19.2629 77.8874 19.5847 77.8359 19.8964 77.745C20.1439 77.6694 20.3982 77.6183 20.6556 77.5925C21.1797 77.5925 21.618 78.0431 21.9704 78.9441C22.3545 80.0436 22.5334 81.2053 22.4981 82.3705C22.521 82.7779 22.4311 83.1837 22.2386 83.5426C22.1634 83.6727 22.0547 83.7799 21.9241 83.8527C21.7934 83.9257 21.6457 83.9615 21.4964 83.9567C21.0325 83.9567 20.621 83.5181 20.262 82.6408C20.0891 82.1791 19.8673 81.7376 19.6004 81.3238C18.9564 80.4617 18.0773 79.8072 17.0705 79.4404C15.8442 78.9796 14.5427 78.7561 13.2343 78.7819C11.9878 78.7186 10.7428 78.9366 9.5905 79.4202C8.4381 79.9037 7.4073 80.6406 6.5734 81.5769C4.8522 83.7543 3.9891 86.4958 4.1497 89.2754C4.1436 90.8835 4.3389 92.4859 4.7309 94.0447C5.0743 95.4596 5.6321 96.8126 6.3847 98.0561C7.2064 99.461 8.3617 100.638 9.7468 101.481C11.1125 102.247 12.6555 102.633 14.2178 102.599C15.398 102.615 16.5701 102.401 17.67 101.969C18.6402 101.595 19.5055 100.989 20.1913 100.202C20.4797 99.839 20.7482 99.459 20.9956 99.066C21.4246 98.3927 21.7882 98.0561 22.0863 98.0561C22.2186 98.055 22.3485 98.0906 22.462 98.1591C22.5756 98.2276 22.6682 98.3263 22.7298 98.4443C22.8996 98.7682 22.9797 99.132 22.9614 99.498C22.9713 100.337 22.7714 101.165 22.3802 101.905C21.9926 102.633 21.5904 102.997 21.1737 102.996C21.1128 102.992 21.0527 102.98 20.9945 102.961C20.9365 102.941 20.8764 102.929 20.8155 102.924C20.554 102.957 20.3034 103.05 20.083 103.195C19.9275 103.267 19.802 103.327 19.7076 103.375C17.8677 104.352 15.8137 104.848 13.7341 104.817L13.7352 104.812Z" fill="black"/>
<path id="Shape" d="M24.2552 95.2384C24.2167 93.9208 24.4415 92.609 24.9161 91.3808C25.3907 90.1526 26.1054 89.0332 27.0179 88.0892C27.9068 87.156 28.9791 86.4199 30.1659 85.9279C31.3529 85.4359 32.6286 85.1986 33.9115 85.2314C35.1121 85.192 36.3077 85.4049 37.4223 85.8565C38.5369 86.3081 39.5462 86.9885 40.3858 87.8546C41.2314 88.7397 41.892 89.7871 42.3282 90.9346C42.7645 92.0821 42.9675 93.3063 42.9254 94.5344C42.9659 95.8643 42.745 97.1891 42.2753 98.4325C41.8056 99.676 41.0963 100.813 40.1885 101.779C39.3253 102.716 38.2751 103.458 37.1069 103.957C35.9387 104.456 34.679 104.7 33.4107 104.672C32.1955 104.701 30.9876 104.475 29.8639 104.008C28.7402 103.541 27.7253 102.843 26.8838 101.958C26.0202 101.074 25.3424 100.023 24.8908 98.8682C24.4391 97.7135 24.223 96.479 24.2552 95.2384ZM27.4726 94.1744C27.384 96.4221 28.0174 98.6386 29.2786 100.494C29.7622 101.254 30.4259 101.879 31.2098 102.315C31.9936 102.751 32.8727 102.983 33.7678 102.991C34.5891 103.027 35.4073 102.866 36.1549 102.521C36.9025 102.177 37.5583 101.658 38.0683 101.008C39.196 99.408 39.748 97.4679 39.633 95.5086C39.7131 93.3212 39.051 91.1717 37.7562 89.4148C37.2261 88.6599 36.5236 88.0448 35.7082 87.6212C34.8927 87.1976 33.9881 86.978 33.0707 86.9809C32.2906 86.9654 31.5181 87.1371 30.8167 87.4819C30.1155 87.8267 29.5055 88.3347 29.0373 88.9639C27.937 90.4676 27.3837 92.3079 27.4726 94.1744Z" fill="black"/>
<path id="Path_2" d="M48.7343 89.8473C48.7343 94.5593 48.7639 97.6874 48.8233 99.231C48.791 100.128 48.8937 101.025 49.1279 101.891C49.4022 102.202 49.7692 102.414 50.1735 102.496C50.7276 102.67 51.0046 102.913 51.0046 103.226C51.0046 103.61 50.7215 103.89 50.1553 104.063C49.2562 104.274 48.3331 104.362 47.4109 104.325C46.4794 104.362 45.5471 104.274 44.6386 104.063C44.0667 103.889 43.7807 103.61 43.7807 103.226C43.7807 102.913 44.0577 102.67 44.6118 102.496C45.0163 102.413 45.3834 102.201 45.6585 101.891C45.8394 101.274 45.9237 100.633 45.9084 99.989C45.9556 98.9369 45.9795 96.9384 45.9803 93.9939V90.8928C45.9803 86.1095 45.9323 83.1076 45.8365 81.8872C45.7407 80.6668 45.568 79.9604 45.3185 79.768C44.993 79.6645 44.657 79.5982 44.3169 79.5701C43.7206 79.4858 43.4225 79.2335 43.4225 78.8132C43.427 78.6907 43.4582 78.5706 43.5138 78.4615C43.5694 78.3524 43.6481 78.2569 43.7442 78.1818C44.0528 77.9333 44.3966 77.7328 44.7641 77.5871C45.3742 77.3532 45.9982 77.1574 46.6323 77.0011C47.0676 76.879 47.5144 76.8033 47.9653 76.7751C48.1022 76.7591 48.2409 76.7761 48.3699 76.8249C48.499 76.8735 48.6146 76.9525 48.7074 77.0552C48.8752 77.3793 48.9463 77.7454 48.9123 78.1094C48.9123 78.2297 48.9005 78.6024 48.8769 79.2274C48.7819 82.737 48.7343 86.277 48.7343 89.8473Z" fill="black"/>
<path id="Path_3" d="M57.4141 89.8473C57.4141 94.5593 57.4437 97.6874 57.5031 99.231C57.4708 100.128 57.5735 101.025 57.8077 101.891C58.0821 102.202 58.449 102.414 58.8533 102.496C59.4081 102.67 59.6855 102.913 59.6855 103.226C59.6855 103.61 59.4013 103.889 58.8361 104.063C57.9367 104.274 57.0133 104.362 56.0907 104.325C55.1592 104.362 54.2269 104.274 53.3185 104.063C52.7465 103.889 52.4605 103.61 52.4605 103.226C52.4605 102.913 52.7375 102.67 53.2916 102.496C53.6961 102.413 54.0632 102.201 54.3383 101.891C54.5204 101.274 54.6048 100.633 54.5882 99.989C54.6354 98.9369 54.6593 96.9384 54.66 93.9939V90.8928C54.66 86.1095 54.6125 83.1076 54.5174 81.8872C54.4223 80.6668 54.2493 79.9604 53.9983 79.768C53.6728 79.6645 53.3368 79.5982 52.9967 79.5701C52.4004 79.4858 52.1023 79.2335 52.1023 78.8132C52.1067 78.6906 52.1379 78.5706 52.1934 78.4615C52.2491 78.3523 52.3277 78.2569 52.424 78.1818C52.7322 77.9333 53.0756 77.7328 53.4428 77.5871C54.0533 77.353 54.6776 77.1573 55.3121 77.0011C55.747 76.879 56.1934 76.8033 56.6441 76.7751C56.7809 76.7591 56.9196 76.7761 57.0487 76.8249C57.1777 76.8735 57.2934 76.9525 57.3862 77.0552C57.5548 77.379 57.6264 77.7453 57.5921 78.1094C57.5921 78.2297 57.5799 78.6024 57.5556 79.2274C57.4605 82.737 57.4133 86.277 57.4141 89.8473Z" fill="black"/>
<path id="Shape_2" d="M75.741 94.1744H64.4556C64.3684 94.1643 64.28 94.1718 64.1957 94.1965C64.1113 94.2212 64.0328 94.2626 63.9644 94.3182C63.8563 94.4829 63.8088 94.6808 63.8304 94.8772C63.7475 96.8733 64.3755 98.8335 65.601 100.403C66.1385 101.091 66.8269 101.643 67.612 102.017C68.3971 102.391 69.2575 102.576 70.1256 102.558C70.8353 102.559 71.5398 102.437 72.2083 102.197C72.8758 101.961 73.4964 101.607 74.0411 101.152C74.4692 100.782 74.8669 100.378 75.2305 99.944C75.7374 99.367 76.1636 99.079 76.5101 99.079C76.6013 99.076 76.6933 99.091 76.7792 99.123C76.8651 99.156 76.9441 99.205 77.011 99.268C77.0748 99.329 77.1257 99.404 77.1592 99.486C77.1934 99.568 77.2093 99.657 77.2071 99.746C77.1957 100.052 77.1136 100.352 76.9654 100.62C76.7792 100.976 76.5474 101.306 76.2768 101.602C75.4152 102.576 74.3576 103.354 73.1746 103.884C71.9823 104.41 70.6936 104.677 69.3921 104.668C68.2074 104.7 67.0294 104.479 65.9363 104.017C64.8431 103.555 63.8599 102.865 63.0518 101.991C61.3613 100.164 60.458 97.7355 60.5401 95.2384C60.4508 92.5942 61.3947 90.0204 63.1687 88.0708C64.0029 87.1489 65.0237 86.4183 66.1621 85.9284C67.3005 85.4385 68.5301 85.2009 69.7674 85.2314C71.7696 85.1258 73.7314 85.8259 75.2219 87.1777C75.9059 87.8636 76.4387 88.6866 76.7868 89.5935C77.1349 90.5004 77.2899 91.471 77.242 92.4422C77.2891 92.9232 77.2093 93.4081 77.011 93.8479C76.8552 94.0656 76.4319 94.1744 75.741 94.1744ZM64.5274 92.6239H73.5768C73.7744 92.6481 73.9736 92.5929 74.1312 92.4704C74.2464 92.2983 74.2969 92.0905 74.2738 91.8843C74.2918 91.2331 74.1756 90.5853 73.9324 89.9817C73.6893 89.3782 73.3246 88.832 72.8615 88.3779C72.1016 87.6663 71.1477 87.2009 70.1227 87.0417C69.0978 86.8824 68.0491 87.0368 67.1121 87.4848C66.4132 87.8318 65.7946 88.3233 65.2964 88.9271C64.8846 89.4234 64.5444 89.976 64.2861 90.5685C64.0565 91.0476 63.9258 91.5689 63.9023 92.1006C63.8943 92.1739 63.9021 92.2481 63.9252 92.3181C63.9484 92.3881 63.9862 92.4522 64.0363 92.5061C64.182 92.6005 64.3552 92.642 64.5274 92.6239Z" fill="black"/>
<path id="Path_4" d="M94.255 91.56C93.866 91.5663 93.489 91.4247 93.2 91.1631C92.781 90.7178 92.447 90.1984 92.216 89.6311C91.884 88.8504 91.376 88.1588 90.732 87.6113C90.153 87.1809 89.448 86.9589 88.7286 86.9809C87.8866 86.9416 87.0468 87.1012 86.2769 87.447C85.507 87.7928 84.8283 88.3152 84.294 88.9726C83.1373 90.5703 82.5681 92.5242 82.6851 94.4988C82.6015 96.5648 83.2551 98.5925 84.5274 100.214C85.0844 100.926 85.7973 101.499 86.6098 101.887C87.423 102.275 88.3137 102.468 89.213 102.45C89.831 102.448 90.443 102.345 91.028 102.143C91.656 101.925 92.25 101.615 92.789 101.224C93.232 100.891 93.645 100.52 94.023 100.115C94.337 99.703 94.788 99.418 95.293 99.312C95.385 99.31 95.477 99.326 95.563 99.36C95.65 99.394 95.728 99.446 95.794 99.511C95.861 99.583 95.914 99.668 95.947 99.761C95.981 99.854 95.996 99.953 95.991 100.052C95.974 100.371 95.879 100.681 95.713 100.954C95.494 101.336 95.227 101.687 94.917 101.999C94.109 102.867 93.124 103.547 92.029 103.992C90.889 104.45 89.671 104.679 88.4444 104.668C87.2368 104.714 86.0329 104.504 84.9112 104.05C83.7902 103.596 82.7756 102.91 81.9343 102.035C81.0899 101.119 80.4332 100.044 80.0038 98.8711C79.5737 97.6981 79.3791 96.4509 79.4301 95.2016C79.348 92.5725 80.3033 90.0177 82.087 88.0978C83.5834 86.5641 85.5534 85.5893 87.6722 85.3339C89.791 85.0785 91.933 85.5575 93.746 86.6922C95.159 87.6415 95.866 88.6813 95.866 89.8116C95.881 90.2729 95.718 90.7221 95.41 91.0637C95.264 91.2255 95.085 91.3537 94.886 91.4394C94.687 91.525 94.471 91.5662 94.255 91.56Z" fill="black"/>
<path id="Path_5" d="M98.84 87.9214H97.302C97.159 87.9306 97.015 87.8964 96.891 87.823C96.845 87.7934 96.808 87.7522 96.783 87.7037C96.758 87.6552 96.746 87.6009 96.748 87.5462V87.0456C96.748 86.6852 97.195 86.0076 98.089 85.0129C98.35 84.7368 98.547 84.5206 98.679 84.3642C98.822 84.2085 99.012 83.9932 99.251 83.7154C100.145 82.6825 100.753 82.1663 101.074 82.1671C101.234 82.1565 101.391 82.2085 101.513 82.312C101.566 82.3664 101.606 82.4314 101.633 82.5028C101.659 82.5741 101.669 82.6502 101.664 82.726V86.0076H105.348C105.44 85.9982 105.533 86.0085 105.621 86.0378C105.709 86.0671 105.79 86.1146 105.858 86.1774C105.975 86.3404 106.028 86.54 106.01 86.7397V87.2218C106.026 87.4121 105.968 87.6011 105.849 87.7495C105.782 87.8109 105.702 87.8576 105.616 87.8868C105.53 87.916 105.439 87.927 105.348 87.9193H102.058C102.001 87.9182 101.945 87.9317 101.895 87.9586C101.845 87.9855 101.802 88.0248 101.772 88.0728C101.692 88.2058 101.655 88.3601 101.664 88.515V98.5349C101.586 99.5809 101.735 100.631 102.103 101.612C102.254 101.88 102.479 102.098 102.751 102.24C103.022 102.382 103.328 102.443 103.632 102.416C104.053 102.398 104.466 102.296 104.848 102.117C105.126 101.978 105.421 101.878 105.725 101.82C105.892 101.812 106.055 101.87 106.181 101.982C106.237 102.038 106.282 102.106 106.311 102.18C106.339 102.255 106.353 102.334 106.35 102.414C106.35 102.944 105.95 103.457 105.152 103.955C104.347 104.456 103.416 104.716 102.471 104.703C101.943 104.753 101.411 104.669 100.924 104.458C100.436 104.247 100.01 103.916 99.683 103.496C99.018 102.247 98.727 100.831 98.843 99.4179L98.84 87.9214Z" fill="black"/>
<path id="Path_6" d="M110.386 97.1673C110.386 94.2703 110.35 92.1518 110.278 90.8117C110.302 90.0004 110.18 89.1914 109.92 88.4233C109.813 88.2546 109.444 88.1253 108.812 88.0351C108.179 87.945 107.864 87.6895 107.864 87.2685C107.865 87.1468 107.892 87.0267 107.943 86.9164C107.994 86.806 108.068 86.7078 108.16 86.6284C108.467 86.3765 108.815 86.1784 109.187 86.0424C109.767 85.8076 110.361 85.6118 110.967 85.4564C111.424 85.3264 111.896 85.2508 112.371 85.2315C112.498 85.218 112.627 85.2364 112.745 85.2851C112.864 85.3338 112.968 85.4112 113.05 85.5104C113.212 85.8367 113.28 86.2023 113.247 86.5657C113.247 86.6857 113.241 87.035 113.229 87.6113C113.145 90.9415 113.103 94.3132 113.103 97.7263C113.084 98.8274 113.119 99.929 113.21 101.026C113.217 101.415 113.343 101.793 113.569 102.107C113.858 102.301 114.179 102.442 114.517 102.523C115.018 102.678 115.268 102.913 115.268 103.225C115.268 103.598 114.987 103.875 114.427 104.055C113.562 104.27 112.671 104.361 111.78 104.325C110.858 104.362 109.935 104.274 109.036 104.063C108.47 103.889 108.186 103.61 108.186 103.225C108.186 102.913 108.437 102.679 108.937 102.523C109.275 102.441 109.596 102.301 109.885 102.107C110.136 101.725 110.269 101.277 110.269 100.819C110.346 100.128 110.386 98.911 110.386 97.1673Z" fill="black"/>
<path id="Path_7" d="M125.663 100.665H125.877C127.331 97.8409 128.515 95.2715 129.427 92.9569C130.094 91.5188 130.554 89.9923 130.795 88.4233C130.805 88.2391 130.751 88.0573 130.643 87.9087C130.429 87.7146 130.176 87.5699 129.901 87.4848L129.633 87.3767C128.99 87.1243 128.667 86.854 128.667 86.5657C128.667 86.1931 128.924 85.9285 129.436 85.7721C131.134 85.4592 132.872 85.4592 134.57 85.7721C135.082 85.9285 135.339 86.1931 135.339 86.5657C135.339 86.831 135.076 87.0534 134.552 87.2328C134.357 87.2952 134.167 87.3674 133.98 87.4491C133.652 87.5911 133.364 87.8107 133.138 88.0892C132.838 88.5302 132.603 89.0133 132.442 89.5229L132.227 90.0635C128.518 99.8 126.224 104.669 125.342 104.668C124.806 104.668 124.159 103.922 123.402 102.432C122.645 100.941 121.127 97.119 118.85 90.9653C118.79 90.7966 118.701 90.5501 118.582 90.2258C118.341 89.3434 117.954 88.5085 117.437 87.7562C117.159 87.5711 116.855 87.431 116.534 87.341C116.051 87.1723 115.81 86.938 115.81 86.6382C115.81 86.2532 116.09 85.9735 116.651 85.7991C117.553 85.5898 118.479 85.5036 119.404 85.5428C120.383 85.5039 121.361 85.5889 122.319 85.7959C122.891 85.9646 123.177 86.2471 123.177 86.6435C123.177 86.968 122.837 87.2322 122.158 87.4361C122.015 87.4852 121.919 87.5154 121.871 87.5269C121.652 87.6057 121.462 87.7501 121.326 87.9411C121.188 88.1354 121.116 88.3693 121.12 88.6082C121.368 90.07 121.791 91.4959 122.381 92.8542C123.222 95.1162 124.316 97.7198 125.663 100.665Z" fill="black"/>
<path id="Shape_3" d="M150.217 94.1743H138.932C138.845 94.1642 138.756 94.1717 138.672 94.1964C138.588 94.2211 138.509 94.2625 138.441 94.3181C138.332 94.4826 138.284 94.6807 138.307 94.8771C138.224 96.8732 138.852 98.8333 140.077 100.403C140.615 101.091 141.303 101.643 142.088 102.017C142.873 102.391 143.734 102.576 144.602 102.558C145.311 102.559 146.016 102.437 146.685 102.197C147.352 101.961 147.973 101.607 148.517 101.152C148.945 100.782 149.343 100.378 149.707 99.9439C150.214 99.3669 150.641 99.0789 150.986 99.0789C151.078 99.0749 151.169 99.0899 151.255 99.1229C151.341 99.1549 151.42 99.2049 151.486 99.2679C151.55 99.3289 151.602 99.4029 151.635 99.4859C151.67 99.5679 151.686 99.6569 151.683 99.7459C151.672 100.052 151.59 100.352 151.442 100.62C151.255 100.976 151.024 101.306 150.754 101.602C149.891 102.576 148.834 103.354 147.651 103.884C146.458 104.41 145.17 104.677 143.868 104.668C142.683 104.7 141.505 104.479 140.412 104.017C139.32 103.555 138.336 102.865 137.528 101.991C135.837 100.164 134.934 97.7354 135.016 95.2382C134.927 92.5941 135.871 90.0202 137.645 88.0707C138.479 87.1487 139.5 86.4181 140.638 85.9282C141.777 85.4384 143.006 85.2008 144.244 85.2313C146.245 85.1259 148.208 85.8259 149.698 87.1776C150.382 87.8634 150.915 88.6865 151.263 89.5934C151.611 90.5003 151.766 91.4709 151.719 92.4421C151.766 92.9232 151.686 93.4083 151.486 93.8477C151.331 94.0654 150.909 94.1743 150.217 94.1743ZM139.003 92.6238H148.053C148.25 92.6477 148.449 92.5926 148.608 92.4703C148.722 92.2982 148.773 92.0904 148.75 91.8842C148.768 91.233 148.652 90.5852 148.408 89.9816C148.166 89.378 147.801 88.8319 147.338 88.3777C146.578 87.6662 145.624 87.2008 144.599 87.0416C143.574 86.8823 142.525 87.0367 141.588 87.4847C140.89 87.8317 140.271 88.3231 139.773 88.927C139.361 89.4233 139.021 89.9759 138.763 90.5683C138.532 91.0474 138.402 91.5687 138.377 92.1005C138.37 92.1739 138.378 92.2481 138.401 92.3182C138.424 92.3881 138.462 92.4522 138.512 92.506C138.658 92.6004 138.832 92.642 139.003 92.6238Z" fill="black"/>
<path id="Path_8" d="M2.7186 59.779C2.7186 56.9909 2.665 54.6591 2.5578 52.7835C2.573 51.7184 2.4405 50.6564 2.1642 49.6283C1.8311 49.3145 1.4301 49.0832 0.9931 48.9525C0.3317 48.6808 0.0007 48.293 0 47.7891C0.0005 47.5485 0.0836002 47.3156 0.2354 47.1299C0.3871 46.9441 0.5981 46.8171 0.8322 46.7706C2.2146 46.5144 3.6217 46.4205 5.0255 46.4906C6.4025 46.4238 7.7826 46.5176 9.1383 46.7706C9.3766 46.8131 9.5926 46.9381 9.7492 47.1241C9.9058 47.31 9.9932 47.5452 9.9963 47.7891C9.9963 48.2937 9.6148 48.6964 8.8519 48.997C8.5616 49.1 8.2852 49.2395 8.0294 49.4121C7.802 49.5794 7.6469 50.0478 7.564 50.8177C7.481 51.5875 7.4396 53.4314 7.4396 56.3493C7.4259 56.5744 7.4871 56.7977 7.6136 56.9838C7.7401 57.1698 7.9245 57.3081 8.1377 57.3765C9.2528 57.6218 10.3958 57.7127 11.5352 57.6468H13.1085C14.9674 57.6468 16.279 57.6079 17.0433 57.5301C17.5644 57.526 18.0756 57.3862 18.5275 57.1246C18.6308 57.0361 18.7018 56.9155 18.7291 56.7818C18.7791 56.5386 18.7999 56.2905 18.7914 56.0424V55.1957C18.7914 52.7795 18.7495 51.2466 18.6659 50.5971C18.5822 49.9476 18.4393 49.5512 18.2369 49.4077C17.9755 49.2334 17.693 49.0938 17.3961 48.9925C16.6218 48.6919 16.2347 48.2895 16.2347 47.7849C16.2347 47.2918 16.5267 46.9522 17.1109 46.7663C18.4727 46.5143 19.8588 46.4204 21.2419 46.4863C22.6365 46.4179 24.0342 46.509 25.4083 46.7577C25.6429 46.8052 25.8535 46.9337 26.0037 47.1214C26.154 47.309 26.2344 47.5438 26.2311 47.7849C26.2311 48.3017 25.8434 48.7042 25.0684 48.9925C24.778 49.0956 24.5016 49.2351 24.2458 49.4077C23.9963 49.6002 23.8115 50.5406 23.6913 52.2288C23.5712 53.917 23.5115 56.4322 23.5123 59.7747C23.5123 62.756 23.563 65.1932 23.6646 67.086C23.6425 68.1727 23.778 69.2567 24.0667 70.3039C24.3999 70.6162 24.8015 70.8448 25.2389 70.971C25.9003 71.2355 26.2311 71.6143 26.2311 72.1073C26.2311 72.6594 25.8823 73.0441 25.1853 73.2611C23.8895 73.5353 22.5646 73.6443 21.2419 73.5854C19.9042 73.6474 18.5641 73.5384 17.2534 73.2611C16.5735 73.0449 16.2339 72.6602 16.2347 72.1073C16.2347 71.5904 16.6218 71.1879 17.3961 70.8995C17.693 70.7982 17.9755 70.6587 18.2369 70.4844C18.4393 70.3287 18.5822 69.8541 18.6659 69.0604C18.7495 68.2668 18.7914 66.8002 18.7914 64.6608C18.7914 63.3028 18.7763 62.4285 18.7463 62.0378C18.7494 61.79 18.7072 61.5436 18.6219 61.3111C18.4789 61.071 18.1064 60.9032 17.5044 60.8073C16.0448 60.6754 14.5789 60.6269 13.1139 60.6623C11.1355 60.6623 9.8032 60.6984 9.1168 60.7705C8.642 60.7778 8.1771 60.9081 7.7667 61.1489C7.6403 61.3055 7.5653 61.4979 7.5521 61.6994C7.4943 62.1688 7.4706 62.6418 7.4814 63.1147V64.6651C7.4814 66.8045 7.5229 68.271 7.6058 69.0647C7.6887 69.8583 7.8317 70.3331 8.0347 70.4888C8.2906 70.6614 8.5669 70.8008 8.8573 70.9039C9.6195 71.1922 10.0009 71.5949 10.0016 72.1117C10.0016 72.6639 9.6617 73.0485 8.9817 73.2654C7.6715 73.5428 6.3317 73.6516 4.9944 73.5897C3.6716 73.6486 2.3468 73.5397 1.051 73.2654C0.3539 73.0491 0.00500012 72.6646 0.00430012 72.1117C0.00430012 71.6072 0.3918 71.2045 1.1668 70.9039C1.4572 70.8008 1.7336 70.6614 1.9894 70.4888C2.2518 70.2963 2.4398 69.4067 2.5535 67.8202C2.6672 66.2336 2.7222 63.5533 2.7186 59.779Z" fill="black"/>
<path id="Shape_4" d="M34.2515 63.89H34.0017C33.5833 63.8433 33.1599 63.899 32.7673 64.0521C32.6365 64.1603 32.571 64.4486 32.571 64.9171C32.5781 66.437 33.1825 67.892 34.2518 68.9633C35.321 70.0346 36.7679 70.6349 38.2754 70.6326C38.9429 70.6343 39.6065 70.5307 40.2422 70.3255C40.8997 70.1084 41.521 69.7924 42.0847 69.3881C42.252 69.2677 42.4786 69.0933 42.7646 68.8648C43.1556 68.461 43.6616 68.19 44.2124 68.0895C44.3381 68.0856 44.4633 68.1076 44.5803 68.1542C44.6971 68.2009 44.8034 68.2712 44.8924 68.3609C44.9788 68.4447 45.0472 68.5456 45.0933 68.6571C45.1395 68.7688 45.1623 68.8888 45.1604 69.0097C45.1189 69.4175 44.9571 69.8035 44.6961 70.1179C44.3398 70.6043 43.9182 71.0384 43.4434 71.4078C42.509 72.2171 41.4526 72.8712 40.3141 73.3454C38.6324 73.9681 36.81 74.0972 35.0585 73.7177C33.3069 73.3382 31.6981 72.4656 30.4186 71.2013C29.5467 70.3111 28.862 69.2526 28.4058 68.0891C27.9495 66.9257 27.7309 65.6813 27.7633 64.4306C27.7166 63.1016 27.9339 61.7767 28.4022 60.5336C28.8705 59.2905 29.5805 58.1543 30.4905 57.1917C31.3937 56.2535 32.4817 55.5161 33.6844 55.0271C34.8872 54.5382 36.1782 54.3083 37.4743 54.3524C38.5121 54.2971 39.5504 54.4513 40.5285 54.8058C41.5064 55.1601 42.4045 55.7078 43.17 56.4165C43.8836 57.1497 44.4388 58.0242 44.8004 58.9846C45.162 59.9451 45.3222 60.9707 45.2709 61.9967C45.3323 62.5287 45.2124 63.066 44.931 63.5202C44.705 63.7667 44.127 63.89 43.1968 63.89H34.2515ZM33.8762 61.7448H39.9205C40.2435 61.7726 40.5683 61.7229 40.8686 61.5999C40.9526 61.5356 41.0184 61.45 41.0593 61.3519C41.1001 61.2538 41.1147 61.1465 41.1013 61.0409C41.1154 60.4757 41.0157 59.9136 40.8081 59.3883C40.6005 58.8631 40.2894 58.3858 39.8937 57.9853C39.4974 57.5785 39.0221 57.2589 38.4974 57.0464C37.9726 56.8338 37.41 56.7331 36.8447 56.7505C36.297 56.7354 35.7523 56.8376 35.2467 57.0504C34.7411 57.2633 34.286 57.582 33.9116 57.9853C33.5281 58.3926 33.228 58.8721 33.0286 59.3964C32.8291 59.9207 32.7341 60.4796 32.749 61.0409C32.7355 61.1447 32.748 61.2503 32.7855 61.348C32.823 61.4457 32.8842 61.5323 32.9636 61.5999C33.251 61.7242 33.5647 61.774 33.8762 61.7448Z" fill="black"/>
<path id="Shape_5" d="M62.7089 68.2712C62.6873 68.8064 62.7478 69.3418 62.888 69.8585C62.921 70.0018 62.9889 70.1345 63.0858 70.2446C63.1826 70.3547 63.3052 70.4387 63.4425 70.4888C63.5854 70.5378 63.776 70.5919 64.0141 70.651C64.8005 70.8673 65.1937 71.1859 65.1937 71.6068C65.1937 72.208 64.7766 72.7518 63.9423 73.2384C63.0525 73.7396 62.0462 73.9919 61.0273 73.9693C60.6858 73.9329 60.3552 73.8271 60.0555 73.6581C59.7557 73.4892 59.4931 73.2607 59.2835 72.9864C58.9817 72.6363 58.656 72.3079 58.3087 72.0036C58.0177 72.0912 57.7452 72.2315 57.5043 72.4177C56.1396 73.3851 54.5228 73.9262 52.8553 73.9737C51.2385 74.0452 49.6588 73.4719 48.4582 72.3778C47.9002 71.8421 47.4616 71.1928 47.1719 70.473C46.8821 69.7531 46.7478 68.9794 46.7777 68.2031C46.7366 67.3026 46.9118 66.4054 47.2884 65.5878C47.665 64.7703 48.2319 64.0565 48.9408 63.5072C50.714 62.2839 52.8406 61.6905 54.9852 61.8205C55.4742 61.8205 56.0079 61.8476 56.5863 61.9016C57.1647 61.9557 57.7875 62.0371 58.4545 62.1459L58.4728 60.1619C58.5317 59.2541 58.2791 58.3535 57.7574 57.6112C57.5108 57.3121 57.1979 57.0754 56.844 56.9203C56.4901 56.7651 56.1051 56.6959 55.7198 56.7182C55.1294 56.7139 54.5468 56.8529 54.0211 57.1236C53.4403 57.4404 52.9245 57.8657 52.5014 58.3767C52.4048 58.4849 52.274 58.6481 52.1078 58.8644C51.8465 59.2757 51.494 59.6202 51.078 59.8705C50.662 60.1208 50.194 60.2702 49.7109 60.3067C49.4931 60.3165 49.2758 60.2788 49.0738 60.1963C48.8717 60.1139 48.6896 59.9885 48.5398 59.8288C48.2336 59.4723 48.0763 59.01 48.1011 58.539C48.1481 57.8886 48.3752 57.2645 48.7568 56.7378C49.1382 56.2112 49.6587 55.8032 50.2589 55.5601C51.9819 54.6905 53.8953 54.2749 55.8206 54.3524C57.0298 54.3243 58.2345 54.5102 59.38 54.9016C60.2813 55.2069 61.0802 55.7596 61.6869 56.4976C62.0882 57.0534 62.3572 57.6949 62.4729 58.3725C62.663 59.6432 62.7409 60.9284 62.7057 62.213L62.7089 68.2712ZM58.4524 64.5387C57.9633 64.4306 57.4936 64.3495 57.0399 64.2954C56.613 64.243 56.1832 64.216 55.753 64.2144C54.6383 64.1476 53.5341 64.4656 52.6226 65.1162C52.253 65.4112 51.9582 65.7904 51.7624 66.2228C51.5666 66.6551 51.4755 67.1282 51.4965 67.603C51.4773 68.05 51.5545 68.4959 51.7228 68.9099C51.8911 69.324 52.1465 69.6963 52.4713 70.0012C53.1972 70.6302 54.1355 70.9531 55.0914 70.9029C55.5568 70.9491 56.0267 70.9011 56.4735 70.7616C56.9202 70.6222 57.3349 70.3941 57.6931 70.0909C58.2908 69.2976 58.5686 68.3056 58.4706 67.3143L58.4524 64.5387Z" fill="black"/>
<path id="Path_9" d="M68.2762 59.0395V57.5971C68.2762 54.4601 68.2225 52.4349 68.1153 51.5216C68.008 50.6084 67.8232 50.0793 67.5608 49.9344C67.1947 49.7567 66.8112 49.6179 66.4165 49.5203C65.6301 49.304 65.2368 48.9735 65.2368 48.5288C65.235 48.3785 65.2671 48.2297 65.3306 48.0937C65.3942 47.9577 65.4875 47.8381 65.6036 47.7438C66.1244 47.4022 66.6946 47.144 67.2938 46.9783C68.11 46.6895 68.9431 46.4515 69.7883 46.2657C70.4246 46.113 71.0745 46.0254 71.7283 46.0041C71.8784 45.9895 72.0297 46.0142 72.1676 46.0757C72.3054 46.1373 72.4253 46.2336 72.5155 46.3555C72.7024 46.7387 72.7828 47.1658 72.7482 47.5913C72.7482 47.7593 72.7361 48.2401 72.7117 49.0337C72.5687 53.4927 72.4973 58.0001 72.4973 62.5557C72.4973 65.8852 72.5363 68.0099 72.6142 68.9297C72.605 69.536 72.7493 70.1348 73.0334 70.6693C73.3489 70.9089 73.703 71.0918 74.0802 71.21C74.32 71.2679 74.5344 71.4031 74.691 71.5951C74.8476 71.7872 74.9378 72.0255 74.9478 72.2739C74.9478 72.7547 74.6379 73.0942 74.018 73.2924C72.9152 73.5408 71.7847 73.6408 70.6559 73.5897C69.399 73.6528 68.1392 73.55 66.9088 73.2838C66.6513 73.2286 66.4206 73.0853 66.256 72.8781C66.0914 72.671 66.003 72.4128 66.0057 72.1474C66.0057 71.7639 66.2621 71.4575 66.7747 71.2284C67.1137 71.1002 67.433 70.924 67.7227 70.705C68.0165 70.2788 68.1753 69.773 68.1785 69.254C68.2876 68.022 68.3323 66.7853 68.3126 65.5486C68.3126 65.044 68.3069 64.0709 68.2955 62.6292C68.284 61.1875 68.2775 59.991 68.2762 59.0395Z" fill="black"/>
<path id="Path_10" d="M86.593 54.8745C86.8203 54.8483 87.0483 54.9132 87.2284 55.0552C87.3659 55.2617 87.426 55.5108 87.3979 55.7579V56.2088C87.4199 56.4584 87.353 56.7079 87.2102 56.9127C87.1288 56.9915 87.0316 57.0516 86.9252 57.089C86.8188 57.1263 86.7055 57.1399 86.593 57.129H82.7543C82.6973 57.1279 82.641 57.1414 82.5909 57.1683C82.5407 57.1952 82.4981 57.2345 82.4677 57.2825C82.3879 57.4152 82.3507 57.569 82.3606 57.7236V67.0634C82.2648 68.0902 82.4024 69.1257 82.7626 70.0909C82.9397 70.3125 83.1692 70.4852 83.4307 70.5925C83.6921 70.6997 83.9764 70.7382 84.256 70.704C84.7728 70.6805 85.282 70.5774 85.7677 70.398C86.1781 70.2389 86.6082 70.1356 87.046 70.0909C87.2953 70.0816 87.5385 70.1687 87.7254 70.3342C87.8136 70.4148 87.8835 70.5138 87.9299 70.6243C87.9762 70.7349 87.9983 70.8543 87.9937 70.9743C87.9937 71.6597 87.4663 72.3241 86.4106 72.967C85.3276 73.6179 84.0865 73.9519 82.8257 73.9316C82.1197 73.9421 81.4159 73.8387 80.7418 73.6254C80.1551 73.4369 79.6147 73.1231 79.1587 72.7053C78.6959 72.2585 78.3729 71.685 78.2292 71.0553C78.0028 69.7857 77.9131 68.4952 77.9609 67.2061V57.129H76.2449C76.0518 57.1493 75.8588 57.0978 75.7004 56.9841C75.6438 56.9176 75.601 56.8402 75.5749 56.7565C75.5487 56.6729 75.5396 56.5848 75.5482 56.4975V56.0467C75.5482 55.6379 76.1977 54.8749 77.4966 53.7577C77.8196 53.4809 78.0765 53.2585 78.2665 53.0905C78.4337 52.9464 78.6715 52.7359 78.9824 52.4591C80.2691 51.3173 81.1507 50.7464 81.628 50.7464C81.837 50.7344 82.0444 50.7913 82.2185 50.9086C82.2884 50.9603 82.3446 51.0285 82.3819 51.1071C82.4191 51.1857 82.4366 51.2724 82.4335 51.3595V54.8745H86.593Z" fill="black"/>
<path id="Path_11" d="M94.985 56.7818C94.975 56.9365 95.003 57.0912 95.065 57.2328C95.094 57.2808 95.135 57.3198 95.183 57.3452C95.233 57.3707 95.288 57.3816 95.343 57.3765C95.391 57.3765 95.525 57.236 95.746 56.9527C95.949 56.6907 96.167 56.4409 96.399 56.2045C96.979 55.6263 97.657 55.1562 98.401 54.8161C99.1 54.5049 99.855 54.3454 100.619 54.348C101.52 54.2831 102.424 54.4395 103.252 54.8036C104.081 55.1678 104.809 55.729 105.376 56.4391C106.424 57.8339 106.949 59.9434 106.949 62.7676C106.949 62.8044 106.955 63.3875 106.967 64.517C106.979 65.6466 106.985 66.7639 106.985 67.8689V68.9328C106.959 69.3967 107.02 69.8614 107.164 70.3028C107.286 70.5824 107.492 70.8159 107.754 70.9699C107.911 71.0457 108.072 71.1122 108.237 71.1689C108.845 71.3966 109.149 71.721 109.149 72.142C109.154 72.4051 109.068 72.6618 108.907 72.8688C108.745 73.0758 108.519 73.2205 108.264 73.2783C107.004 73.5476 105.715 73.6505 104.428 73.5843C103.308 73.6355 102.186 73.5355 101.092 73.287C100.478 73.0887 100.171 72.7492 100.171 72.2685C100.171 71.7877 100.487 71.433 101.12 71.2045C101.36 71.1224 101.593 71.02 101.817 70.8985C101.983 70.774 102.123 70.6159 102.226 70.4343C102.329 70.2526 102.394 70.0514 102.416 69.8432C102.557 68.922 102.613 67.9897 102.586 67.0579C102.586 63.0314 102.335 60.5103 101.835 59.4947C101.586 58.9949 101.193 58.5823 100.708 58.3105C100.224 58.0388 99.669 57.9206 99.116 57.9712C98.435 57.9753 97.772 58.1856 97.212 58.5745C96.612 58.9749 96.133 59.5331 95.825 60.1888C95.506 60.9006 95.312 61.6632 95.253 62.4422C95.146 63.4037 95.092 65.1106 95.092 67.5629C95.062 68.4014 95.113 69.2408 95.245 70.0692C95.272 70.2384 95.335 70.3998 95.43 70.5427C95.524 70.6856 95.647 70.8069 95.791 70.8985C96.014 71.02 96.247 71.1224 96.487 71.2045C97.119 71.4323 97.435 71.7869 97.436 72.2685C97.436 72.75 97.132 73.0895 96.523 73.287C95.439 73.5356 94.325 73.6356 93.214 73.5843C91.931 73.6496 90.645 73.5468 89.388 73.2783C89.131 73.222 88.9026 73.0781 88.74 72.871C88.5766 72.6639 88.49 72.4063 88.4938 72.142C88.4938 71.7333 88.7917 71.415 89.388 71.1872C89.56 71.1273 89.727 71.055 89.889 70.9709C90.072 70.8496 90.23 70.692 90.351 70.5076C90.473 70.3233 90.556 70.1161 90.595 69.8984C90.767 68.9623 90.835 68.0102 90.8 67.059V61.1447C90.8 56.8053 90.762 53.9508 90.685 52.5812C90.712 51.7451 90.575 50.9117 90.282 50.129C89.897 49.8389 89.45 49.6444 88.9764 49.5613C88.2369 49.3501 87.8675 49.0283 87.8683 48.5958C87.8706 48.4254 87.9131 48.258 87.9922 48.1075C88.0712 47.957 88.1852 47.8279 88.3243 47.7308C88.9878 47.315 89.7 46.9821 90.443 46.7393C91.047 46.5207 91.665 46.349 92.295 46.2257C92.862 46.1065 93.44 46.0428 94.02 46.0354C94.185 46.0183 94.351 46.0413 94.505 46.1027C94.659 46.164 94.796 46.2619 94.904 46.3879C95.11 46.7519 95.2 47.17 95.164 47.587C95.164 47.6702 95.152 47.9352 95.129 48.3795C95.034 50.8304 94.986 53.3248 94.985 55.8628V56.7818Z" fill="black"/>
<path id="Path_12" d="M122.191 68.5781C120.152 73.7825 118.472 77.1703 117.15 78.7417C116.595 79.4677 115.883 80.0569 115.067 80.4644C114.253 80.8721 113.357 81.0875 112.447 81.0945C111.627 81.1242 110.825 80.8482 110.195 80.3192C109.908 80.0811 109.679 79.7806 109.524 79.4404C109.369 79.1001 109.293 78.7289 109.3 78.3546C109.297 78.0552 109.352 77.7579 109.465 77.4806C109.576 77.2033 109.743 76.9516 109.953 76.7404C110.26 76.4285 110.649 76.2121 111.073 76.1178C111.498 76.0234 111.941 76.0548 112.35 76.2083C112.573 76.298 112.772 76.4404 112.931 76.6235C113.062 76.7911 113.229 77.0257 113.431 77.3263C113.753 77.8194 114.034 78.066 114.272 78.066C114.903 78.066 115.545 77.606 116.195 76.6863C116.812 75.862 117.153 74.8612 117.169 73.8285C117.029 72.232 116.586 70.6775 115.864 69.2494C115.78 69.0455 115.715 68.8952 115.668 68.7986C114.606 66.4199 113.613 64.2213 112.689 62.203C111.766 60.1847 111.197 58.9644 110.982 58.5419C110.659 58.0063 110.158 57.6039 109.569 57.4066C109.569 57.3947 109.563 57.3883 109.551 57.3883C109.227 57.2856 108.93 57.11 108.683 56.8747C108.531 56.6906 108.451 56.456 108.46 56.2162C108.46 55.664 108.787 55.2795 109.444 55.0626C110.658 54.7886 111.903 54.6795 113.145 54.7381C114.363 54.6802 115.583 54.7801 116.775 55.0355C117.383 55.2344 117.687 55.5862 117.688 56.0908C117.692 56.2864 117.653 56.4805 117.572 56.6585C117.501 56.8126 117.385 56.9414 117.241 57.0282C117.02 57.1425 116.792 57.2446 116.561 57.3342C116.085 57.5267 115.846 57.731 115.846 57.9473C115.904 58.4258 116.028 58.8937 116.214 59.3378C116.465 60.0283 116.965 61.2872 117.716 63.1145C118.431 64.8445 118.949 66.0133 119.272 66.621C119.595 67.2287 119.845 67.5322 120.022 67.5315C120.143 67.5315 120.345 67.234 120.63 66.6393C120.916 66.0447 121.321 65.0622 121.846 63.6919C122.478 62.0809 122.937 60.8334 123.224 59.9497C123.442 59.3726 123.586 58.7698 123.653 58.1559C123.653 57.7956 123.304 57.4171 122.607 57.0207C121.91 56.6242 121.561 56.2638 121.561 55.9394C121.561 55.5069 121.844 55.1973 122.411 55.0106C123.38 54.7807 124.376 54.6869 125.37 54.7317C126.386 54.6768 127.405 54.7771 128.392 55.029C128.621 55.0907 128.824 55.2282 128.966 55.4195C129.109 55.6109 129.184 55.845 129.179 56.0843C129.179 56.5405 128.827 56.8588 128.124 57.0391C127.859 57.102 127.601 57.1929 127.355 57.3105C126.651 57.6946 125.9 58.9507 125.103 61.0786C124.877 61.7035 124.698 62.1843 124.566 62.5209L122.191 68.5781Z" fill="black"/>
</g>
</g>
</g>
<defs>
<clipPath id="clip0_193_16162">
<rect width="180" height="180" fill="white"/>
</clipPath>
</defs>
</svg>
