<svg width="18" height="18" viewBox="0 0 18 18" fill="none" xmlns="http://www.w3.org/2000/svg">
<g id="svg" clip-path="url(#clip0_438_538)">
<g id="Frame">
<path id="Vector" d="M6.18457 15.1875H1.68457C1.3862 15.1875 1.10005 15.069 0.889075 14.858C0.678097 14.647 0.55957 14.3609 0.55957 14.0625V1.6875C0.55957 1.38913 0.678097 1.10298 0.889075 0.892005C1.10005 0.681026 1.3862 0.5625 1.68457 0.5625H12.9346C13.2329 0.5625 13.5191 0.681026 13.7301 0.892005C13.941 1.10298 14.0596 1.38913 14.0596 1.6875V6.75M6.18457 3.9375H10.6846M3.93457 7.3125H10.6846M3.93457 10.6875H9.55957M16.9703 11.1525L11.2501 16.875L8.43757 17.4375L9.00007 14.625L14.7233 8.9025C14.8705 8.75503 15.0453 8.63804 15.2378 8.55821C15.4303 8.47839 15.6366 8.4373 15.8449 8.4373C16.0533 8.4373 16.2596 8.47839 16.4521 8.55821C16.6445 8.63804 16.8194 8.75503 16.9666 8.9025L16.9733 8.9085C17.2704 9.2065 17.437 9.61031 17.4365 10.0311C17.4359 10.4519 17.2682 10.8553 16.9703 11.1525Z" stroke="black" stroke-width="1.125" stroke-linecap="round" stroke-linejoin="round"/>
</g>
</g>
<defs>
<clipPath id="clip0_438_538">
<rect width="18" height="18" fill="white"/>
</clipPath>
</defs>
</svg>
