<svg width="19" height="19" viewBox="0 0 19 19" fill="none" xmlns="http://www.w3.org/2000/svg">
<g id="Frame">
<path id="Vector" d="M9.25488 14.417C8.95651 14.417 8.67037 14.2985 8.45939 14.0875C8.24841 13.8765 8.12988 13.5904 8.12988 13.292V7.66699C8.12988 7.36862 8.24841 7.08248 8.45939 6.8715C8.67037 6.66052 8.95651 6.54199 9.25488 6.54199H17.1299C17.4283 6.54199 17.7144 6.66052 17.9254 6.8715C18.1364 7.08248 18.2549 7.36862 18.2549 7.66699V13.292C18.2549 13.5904 18.1364 13.8765 17.9254 14.0875C17.7144 14.2985 17.4283 14.417 17.1299 14.417H16.0049V17.792L12.6299 14.417H9.25488Z" stroke="black" stroke-width="1.125" stroke-linecap="round" stroke-linejoin="round"/>
<path id="Vector_2" d="M5.87988 9.91699L3.62988 12.167V8.79199H2.50488C2.20651 8.79199 1.92037 8.67347 1.70939 8.46249C1.49841 8.25151 1.37988 7.96536 1.37988 7.66699V2.04199C1.37988 1.74362 1.49841 1.45748 1.70939 1.2465C1.92037 1.03552 2.20651 0.916992 2.50488 0.916992H10.3799C10.6783 0.916992 10.9644 1.03552 11.1754 1.2465C11.3864 1.45748 11.5049 1.74362 11.5049 2.04199V4.29199" stroke="black" stroke-width="1.125" stroke-linecap="round" stroke-linejoin="round"/>
</g>
</svg>
