<svg width="15" height="15" viewBox="0 0 15 15" fill="none" xmlns="http://www.w3.org/2000/svg">
<g id="svg" clip-path="url(#clip0_51_178)">
<g id="Frame">
<path id="Vector" d="M7.29737 0.112305C5.9129 0.112305 4.55952 0.522848 3.40837 1.29202C2.25723 2.06119 1.36002 3.15444 0.83021 4.43352C0.300396 5.7126 0.161773 7.12007 0.431869 8.47794C0.701966 9.8358 1.36865 11.0831 2.34762 12.0621C3.32659 13.041 4.57387 13.7077 5.93173 13.9778C7.2896 14.2479 8.69707 14.1093 9.97615 13.5795C11.2552 13.0496 12.3485 12.1524 13.1177 11.0013C13.8868 9.85015 14.2974 8.49677 14.2974 7.1123C14.2974 5.25579 13.5599 3.47531 12.2471 2.16256C10.9344 0.849802 9.15388 0.112305 7.29737 0.112305V0.112305ZM7.4432 3.02897C7.61626 3.02897 7.78543 3.08029 7.92932 3.17644C8.07322 3.27258 8.18537 3.40924 8.25159 3.56912C8.31782 3.72901 8.33515 3.90494 8.30139 4.07468C8.26762 4.24441 8.18429 4.40032 8.06192 4.52269C7.93955 4.64506 7.78364 4.7284 7.6139 4.76216C7.44417 4.79592 7.26824 4.77859 7.10835 4.71237C6.94847 4.64614 6.81181 4.53399 6.71566 4.3901C6.61952 4.2462 6.5682 4.07703 6.5682 3.90397C6.5682 3.67191 6.66039 3.44935 6.82448 3.28525C6.98858 3.12116 7.21114 3.02897 7.4432 3.02897ZM8.7557 10.904H6.42237C6.26766 10.904 6.11928 10.8425 6.00989 10.7331C5.90049 10.6237 5.83903 10.4753 5.83903 10.3206C5.83903 10.1659 5.90049 10.0176 6.00989 9.90816C6.11928 9.79876 6.26766 9.7373 6.42237 9.7373H6.85987C6.89854 9.7373 6.93564 9.72194 6.96299 9.69459C6.99034 9.66724 7.0057 9.63015 7.0057 9.59147V6.96647C7.0057 6.92779 6.99034 6.8907 6.96299 6.86335C6.93564 6.836 6.89854 6.82064 6.85987 6.82064H6.42237C6.26766 6.82064 6.11928 6.75918 6.00989 6.64978C5.90049 6.54039 5.83903 6.39201 5.83903 6.2373C5.83903 6.08259 5.90049 5.93422 6.00989 5.82483C6.11928 5.71543 6.26766 5.65397 6.42237 5.65397H7.0057C7.31512 5.65397 7.61187 5.77689 7.83066 5.99568C8.04945 6.21447 8.17237 6.51122 8.17237 6.82064V9.59147C8.17237 9.63015 8.18773 9.66724 8.21508 9.69459C8.24243 9.72194 8.27952 9.7373 8.3182 9.7373H8.7557C8.91041 9.7373 9.05878 9.79876 9.16818 9.90816C9.27757 10.0176 9.33903 10.1659 9.33903 10.3206C9.33903 10.4753 9.27757 10.6237 9.16818 10.7331C9.05878 10.8425 8.91041 10.904 8.7557 10.904Z" fill="#9EA9B4"/>
</g>
</g>
<defs>
<clipPath id="clip0_51_178">
<rect width="14.5094" height="14" fill="white" transform="translate(0.297363 0.112305)"/>
</clipPath>
</defs>
</svg>
