<svg width="34" height="33" viewBox="0 0 34 33" fill="none" xmlns="http://www.w3.org/2000/svg">
<g id="svg" clip-path="url(#clip0_51_147)">
<g id="Frame">
<path id="Vector" d="M26.3508 19.3545H23.6401C23.2247 19.3548 22.8223 19.4996 22.502 19.7641C22.1817 20.0287 21.9634 20.3964 21.8846 20.8043C21.8057 21.2122 21.8713 21.6348 22.07 21.9996C22.2686 22.3644 22.5881 22.6488 22.9735 22.8038L25.7255 23.9052C26.1109 24.0602 26.4303 24.3446 26.629 24.7094C26.8277 25.0742 26.8932 25.4968 26.8144 25.9047C26.7355 26.3126 26.5172 26.6803 26.1969 26.9448C25.8766 27.2094 25.4742 27.3542 25.0588 27.3545H22.3508" stroke="#00BAC7" stroke-width="2" stroke-linecap="round" stroke-linejoin="round"/>
<path id="Vector_2" d="M24.3506 19.3545V18.3545" stroke="#00BAC7" stroke-width="2" stroke-linecap="round" stroke-linejoin="round"/>
<path id="Vector_3" d="M24.3506 28.3545V27.3545" stroke="#00BAC7" stroke-width="2" stroke-linecap="round" stroke-linejoin="round"/>
<path id="Vector_4" d="M16.3506 23.3545C16.3506 25.4762 17.1934 27.5111 18.6937 29.0113C20.194 30.5116 22.2289 31.3545 24.3506 31.3545C26.4723 31.3545 28.5072 30.5116 30.0074 29.0113C31.5077 27.5111 32.3506 25.4762 32.3506 23.3545C32.3506 21.2328 31.5077 19.1979 30.0074 17.6976C28.5072 16.1973 26.4723 15.3545 24.3506 15.3545C22.2289 15.3545 20.194 16.1973 18.6937 17.6976C17.1934 19.1979 16.3506 21.2328 16.3506 23.3545Z" stroke="#00BAC7" stroke-width="2" stroke-linecap="round" stroke-linejoin="round"/>
<path id="Vector_5" d="M6.35059 19.3545H12.3506" stroke="#00BAC7" stroke-width="2" stroke-linecap="round" stroke-linejoin="round"/>
<path id="Vector_6" d="M12.3506 19.3545V9.35449" stroke="#00BAC7" stroke-width="2" stroke-linecap="round" stroke-linejoin="round"/>
<path id="Vector_7" d="M16.3506 13.3545V11.3545" stroke="#00BAC7" stroke-width="2" stroke-linecap="round" stroke-linejoin="round"/>
<path id="Vector_8" d="M8.35059 19.3545V13.3545" stroke="#00BAC7" stroke-width="2" stroke-linecap="round" stroke-linejoin="round"/>
<path id="Vector_9" d="M11.3506 27.3545H4.35064C4.09419 27.3671 3.83784 27.3277 3.59696 27.2388C3.35609 27.1499 3.13565 27.0132 2.94888 26.8371C2.76211 26.6609 2.61285 26.4488 2.51005 26.2135C2.40725 25.9782 2.35303 25.7246 2.35064 25.4678V3.46783C2.34659 2.92547 2.55252 2.40258 2.92533 2.00865C3.29813 1.61472 3.80889 1.3803 4.35064 1.35449H18.5226C19.0527 1.35461 19.561 1.56513 19.936 1.93983L23.7653 5.76916C24.14 6.14409 24.3505 6.65243 24.3506 7.18249V10.3545" stroke="#00BAC7" stroke-width="2" stroke-linecap="round" stroke-linejoin="round"/>
</g>
</g>
<defs>
<clipPath id="clip0_51_147">
<rect width="33.1644" height="32" fill="white" transform="translate(0.350586 0.354492)"/>
</clipPath>
</defs>
</svg>
